<?xml version="1.0" encoding="utf-8" standalone="no"?>
<!DOCTYPE svg PUBLIC "-//W3C//DTD SVG 1.1//EN"
  "http://www.w3.org/Graphics/SVG/1.1/DTD/svg11.dtd">
<svg xmlns:xlink="http://www.w3.org/1999/xlink" width="813.957599pt" height="692.806049pt" viewBox="0 0 813.957599 692.806049" xmlns="http://www.w3.org/2000/svg" version="1.1">
 <metadata>
  <rdf:RDF xmlns:dc="http://purl.org/dc/elements/1.1/" xmlns:cc="http://creativecommons.org/ns#" xmlns:rdf="http://www.w3.org/1999/02/22-rdf-syntax-ns#">
   <cc:Work>
    <dc:type rdf:resource="http://purl.org/dc/dcmitype/StillImage"/>
    <dc:date>2025-03-03T10:02:17.770194</dc:date>
    <dc:format>image/svg+xml</dc:format>
    <dc:creator>
     <cc:Agent>
      <dc:title>Matplotlib v3.5.3, https://matplotlib.org/</dc:title>
     </cc:Agent>
    </dc:creator>
   </cc:Work>
  </rdf:RDF>
 </metadata>
 <defs>
  <style type="text/css">*{stroke-linejoin: round; stroke-linecap: butt}</style>
 </defs>
 <g id="figure_1">
  <g id="patch_1">
   <path d="M 0 692.806049 
L 813.957599 692.806049 
L 813.957599 0 
L 0 0 
z
" style="fill: #ffffff"/>
  </g>
  <g id="axes_1">
   <g id="patch_2">
    <path d="M 81.357599 617.04 
L 806.757599 617.04 
L 806.757599 7.2 
L 81.357599 7.2 
z
" style="fill: #ffffff"/>
   </g>
   <g id="PolyCollection_1">
    <path d="M 94.790932 522.640452 
L 94.790932 514.676135 
L 113.048095 514.676135 
L 126.375943 514.676135 
L 136.105515 514.676135 
L 143.208499 514.676135 
L 148.394251 514.676135 
L 152.180642 514.676135 
L 154.945762 514.676135 
L 156.965671 514.675768 
L 158.441939 514.662142 
L 159.62067 510.525049 
L 160.789134 503.655077 
L 161.957599 468.442228 
L 163.155165 445.781136 
L 164.35273 425.239731 
L 165.550296 408.917167 
L 166.747862 393.198023 
L 167.945428 387.051003 
L 169.142994 387.915627 
L 170.34056 394.949048 
L 171.538125 394.237312 
L 172.735691 394.879103 
L 173.933257 394.48915 
L 175.130823 394.129947 
L 176.328389 393.309532 
L 177.525955 392.67555 
L 178.723521 392.102198 
L 179.921086 391.497491 
L 181.118652 390.707917 
L 182.316218 390.096691 
L 183.513784 389.343755 
L 184.71135 388.893249 
L 185.908916 388.636233 
L 187.106482 388.617962 
L 188.304047 388.537958 
L 189.501613 388.552166 
L 190.699179 388.624554 
L 191.896745 388.48438 
L 193.094311 388.246992 
L 194.291877 388.180269 
L 195.489442 388.303043 
L 196.687008 388.498336 
L 197.884574 388.517445 
L 199.08214 388.503798 
L 200.279706 388.504892 
L 201.477272 388.584128 
L 202.674838 388.810224 
L 203.872405 388.959204 
L 205.100141 389.038349 
L 206.371743 389.100623 
L 207.689103 389.165116 
L 209.054743 389.262681 
L 210.471245 389.36396 
L 211.940094 389.444572 
L 213.463058 389.522863 
L 215.0422 389.587008 
L 216.679784 389.626396 
L 218.377244 389.685213 
L 220.13635 389.746203 
L 221.95958 389.796015 
L 223.850263 389.852 
L 225.812158 389.952539 
L 227.844376 390.026117 
L 229.951489 390.064008 
L 232.137335 390.084104 
L 234.402042 390.116688 
L 236.751436 390.166913 
L 239.18682 390.221438 
L 241.711085 390.312117 
L 244.329305 390.379355 
L 247.043792 390.444255 
L 249.857934 390.497111 
L 252.775593 390.576365 
L 255.800715 390.661063 
L 258.937209 390.750524 
L 262.189043 390.817299 
L 265.560513 390.881223 
L 269.056645 390.950386 
L 272.681333 391.040228 
L 276.439321 391.112147 
L 280.335925 391.209184 
L 284.376198 391.335716 
L 288.564974 391.407476 
L 292.908016 391.508077 
L 297.411179 391.623325 
L 302.080339 391.778424 
L 306.921395 391.899 
L 311.915217 392.030504 
L 317.053039 392.128112 
L 322.379997 392.26687 
L 327.903554 392.406098 
L 333.630578 392.561363 
L 339.568697 392.701523 
L 345.725739 392.854012 
L 352.109671 392.982839 
L 358.728945 393.17183 
L 365.592346 393.358302 
L 372.708753 393.524593 
L 380.087453 393.678006 
L 387.738177 393.841627 
L 395.291035 393.945468 
L 400.927955 394.020736 
L 404.942211 394.057533 
L 407.801406 394.092758 
L 409.838342 394.105348 
L 411.289855 394.12483 
L 412.430622 394.14478 
L 413.561656 394.164079 
L 414.692691 394.187055 
L 415.823725 394.202795 
L 416.95476 394.220856 
L 418.085794 394.236409 
L 419.216828 394.253095 
L 420.347863 393.068174 
L 421.478897 226.177653 
L 422.303693 -10.565487 
L 423.128488 52.852619 
L 423.953283 71.949949 
L 424.778079 92.440311 
L 425.602874 113.979433 
L 426.427669 131.277636 
L 427.252465 145.259363 
L 428.07726 156.915614 
L 428.902056 166.629324 
L 429.726851 174.604736 
L 430.551646 181.297568 
L 431.376442 187.365057 
L 432.201237 192.834083 
L 433.026032 198.65663 
L 433.850828 202.786524 
L 434.675623 206.628628 
L 435.500418 210.136237 
L 436.325214 213.043607 
L 437.150009 215.579466 
L 437.974804 218.23482 
L 438.7996 220.704197 
L 439.624395 223.144863 
L 440.449191 225.493845 
L 441.273986 227.334549 
L 442.098781 229.132104 
L 442.923577 230.756415 
L 443.748372 232.233343 
L 444.573167 233.657552 
L 445.397963 235.107629 
L 446.222758 236.413628 
L 447.047553 237.688966 
L 447.872349 238.902813 
L 448.697144 240.082277 
L 449.521939 241.228191 
L 450.346735 242.355144 
L 451.17153 243.456257 
L 451.996326 244.49173 
L 452.821121 245.570441 
L 453.645916 246.568235 
L 454.470712 247.560154 
L 455.295507 248.73847 
L 456.120302 250.013822 
L 456.945098 251.317573 
L 457.769893 252.78865 
L 458.603135 254.418867 
L 459.488099 256.251303 
L 460.450736 258.306751 
L 461.488677 260.581211 
L 462.616192 263.303592 
L 463.840018 266.293775 
L 465.16589 270.299355 
L 466.605 274.616962 
L 468.170098 279.710006 
L 469.871497 285.030954 
L 471.721394 290.3979 
L 473.73342 295.431016 
L 475.922514 299.983374 
L 478.305241 303.919941 
L 480.898664 306.81031 
L 483.718626 309.446139 
L 486.787568 310.549679 
L 490.122464 310.468131 
L 493.746284 308.736537 
L 497.677963 306.530159 
L 501.936814 303.579259 
L 506.540279 300.676227 
L 511.499678 298.081767 
L 516.81763 295.66155 
L 522.477178 293.195789 
L 528.391174 290.635336 
L 534.3297 288.350197 
L 540.268227 286.204283 
L 546.206753 284.353508 
L 552.14528 282.151091 
L 558.083807 279.773167 
L 564.022333 277.748517 
L 569.96086 276.246282 
L 575.899386 275.295439 
L 581.837913 274.538863 
L 587.776439 273.596279 
L 593.714966 272.202486 
L 599.653492 270.49612 
L 605.592019 270.453516 
L 611.530546 329.591356 
L 619.926379 448.261873 
L 628.322212 464.909739 
L 636.718046 466.010814 
L 645.113879 465.728543 
L 653.509712 465.03393 
L 661.905546 464.185276 
L 670.301379 463.485206 
L 678.697212 462.71651 
L 687.093046 462.047718 
L 695.488879 461.146325 
L 703.884712 460.65308 
L 712.280546 460.406481 
L 720.676379 460.291629 
L 729.072212 459.965244 
L 737.468046 459.69059 
L 745.863879 459.33583 
L 754.259712 458.876914 
L 762.655546 458.345352 
L 771.051379 457.938417 
L 779.447212 457.676937 
L 787.843046 457.524713 
L 796.238879 457.272702 
L 804.634712 457.143758 
L 813.030546 456.99373 
L 813.030546 477.688464 
L 813.030546 477.688464 
L 804.634712 477.716992 
L 796.238879 477.773795 
L 787.843046 478.074671 
L 779.447212 478.357143 
L 771.051379 478.518084 
L 762.655546 478.852904 
L 754.259712 479.1074 
L 745.863879 479.474273 
L 737.468046 479.684603 
L 729.072212 479.935783 
L 720.676379 480.451066 
L 712.280546 480.847644 
L 703.884712 481.195629 
L 695.488879 481.522079 
L 687.093046 481.837617 
L 678.697212 481.900558 
L 670.301379 481.979128 
L 661.905546 482.576279 
L 653.509712 483.365812 
L 645.113879 484.439776 
L 636.718046 482.51177 
L 628.322212 483.711867 
L 619.926379 477.589445 
L 611.530546 361.591067 
L 605.592019 307.078483 
L 599.653492 309.521191 
L 593.714966 311.154105 
L 587.776439 312.400689 
L 581.837913 313.064374 
L 575.899386 313.384499 
L 569.96086 313.966905 
L 564.022333 315.086509 
L 558.083807 316.773921 
L 552.14528 318.790588 
L 546.206753 320.590372 
L 540.268227 321.988684 
L 534.3297 323.415133 
L 528.391174 324.861236 
L 522.477178 326.335298 
L 516.81763 327.489059 
L 511.499678 328.730433 
L 506.540279 330.322319 
L 501.936814 332.104189 
L 497.677963 334.004091 
L 493.746284 335.480108 
L 490.122464 336.310973 
L 486.787568 335.776863 
L 483.718626 334.487048 
L 480.898664 331.494516 
L 478.305241 328.123613 
L 475.922514 324.072215 
L 473.73342 319.425618 
L 471.721394 314.429428 
L 469.871497 308.85285 
L 468.170098 303.501038 
L 466.605 298.387693 
L 465.16589 294.196431 
L 463.840018 290.783578 
L 462.616192 288.104105 
L 461.488677 285.45901 
L 460.450736 283.329803 
L 459.488099 281.368346 
L 458.603135 279.581483 
L 457.769893 278.012842 
L 456.945098 276.535374 
L 456.120302 275.308171 
L 455.295507 274.12195 
L 454.470712 272.989472 
L 453.645916 272.042236 
L 452.821121 271.099377 
L 451.996326 270.047041 
L 451.17153 269.034409 
L 450.346735 267.98971 
L 449.521939 266.919144 
L 448.697144 265.850115 
L 447.872349 264.711719 
L 447.047553 263.546253 
L 446.222758 262.324467 
L 445.397963 261.06388 
L 444.573167 259.725891 
L 443.748372 258.405016 
L 442.923577 257.035955 
L 442.098781 255.566904 
L 441.273986 253.922385 
L 440.449191 252.28618 
L 439.624395 250.230665 
L 438.7996 248.128469 
L 437.974804 246.104584 
L 437.150009 243.90767 
L 436.325214 241.93901 
L 435.500418 239.678463 
L 434.675623 236.907806 
L 433.850828 233.927515 
L 433.026032 230.7994 
L 432.201237 226.078963 
L 431.376442 221.735951 
L 430.551646 216.984513 
L 429.726851 211.769028 
L 428.902056 205.756777 
L 428.07726 198.486745 
L 427.252465 189.986434 
L 426.427669 179.44434 
L 425.602874 167.62109 
L 424.778079 151.274917 
L 423.953283 135.943267 
L 423.128488 120.250106 
L 422.303693 149.676629 
L 421.478897 309.731573 
L 420.347863 425.476776 
L 419.216828 422.388245 
L 418.085794 422.383218 
L 416.95476 422.380021 
L 415.823725 422.371539 
L 414.692691 422.363882 
L 413.561656 422.34814 
L 412.430622 422.335758 
L 411.289855 422.321913 
L 409.838342 422.303087 
L 407.801406 422.271665 
L 404.942211 422.228413 
L 400.927955 422.170496 
L 395.291035 422.112713 
L 387.738177 422.047822 
L 380.087453 421.971711 
L 372.708753 421.926468 
L 365.592346 421.885683 
L 358.728945 421.852277 
L 352.109671 421.797919 
L 345.725739 421.785609 
L 339.568697 421.734841 
L 333.630578 421.712196 
L 327.903554 421.698536 
L 322.379997 421.657938 
L 317.053039 421.602008 
L 311.915217 421.554618 
L 306.921395 421.508118 
L 302.080339 421.489893 
L 297.411179 421.454828 
L 292.908016 421.402389 
L 288.564974 421.360237 
L 284.376198 421.315129 
L 280.335925 421.242305 
L 276.439321 421.212022 
L 272.681333 421.208086 
L 269.056645 421.176939 
L 265.560513 421.145077 
L 262.189043 421.127761 
L 258.937209 421.118254 
L 255.800715 421.098376 
L 252.775593 421.085284 
L 249.857934 421.078311 
L 247.043792 421.059356 
L 244.329305 421.053756 
L 241.711085 421.061344 
L 239.18682 421.074242 
L 236.751436 421.069156 
L 234.402042 421.079489 
L 232.137335 421.06942 
L 229.951489 421.082676 
L 227.844376 421.107386 
L 225.812158 421.154648 
L 223.850263 421.21531 
L 221.95958 421.256336 
L 220.13635 421.294914 
L 218.377244 421.322191 
L 216.679784 421.358323 
L 215.0422 421.395094 
L 213.463058 421.414867 
L 211.940094 421.453896 
L 210.471245 421.509606 
L 209.054743 421.548206 
L 207.689103 421.608242 
L 206.371743 421.654795 
L 205.100141 421.660806 
L 203.872405 421.703945 
L 202.674838 421.806413 
L 201.477272 421.905493 
L 200.279706 421.932488 
L 199.08214 421.87573 
L 197.884574 421.840216 
L 196.687008 421.844003 
L 195.489442 421.985513 
L 194.291877 422.064696 
L 193.094311 422.2161 
L 191.896745 422.212172 
L 190.699179 422.251486 
L 189.501613 422.274036 
L 188.304047 422.300447 
L 187.106482 422.23711 
L 185.908916 422.145154 
L 184.71135 422.159939 
L 183.513784 422.038881 
L 182.316218 422.087286 
L 181.118652 421.993827 
L 179.921086 422.25834 
L 178.723521 422.270902 
L 177.525955 422.397429 
L 176.328389 422.394227 
L 175.130823 422.605389 
L 173.933257 422.147858 
L 172.735691 421.705303 
L 171.538125 421.021668 
L 170.34056 421.048555 
L 169.142994 423.533634 
L 167.945428 425.559611 
L 166.747862 429.592658 
L 165.550296 443.77836 
L 164.35273 455.904959 
L 163.155165 475.649785 
L 161.957599 494.085724 
L 160.789134 515.735953 
L 159.62067 521.932248 
L 158.441939 522.626799 
L 156.965671 522.640095 
L 154.945762 522.640452 
L 152.180642 522.640452 
L 148.394251 522.640452 
L 143.208499 522.640452 
L 136.105515 522.640452 
L 126.375943 522.640452 
L 113.048095 522.640452 
L 94.790932 522.640452 
z
" clip-path="url(#p1d3a988c20)" style="fill: #99ccff; fill-opacity: 0.7"/>
   </g>
   <g id="matplotlib.axis_1">
    <g id="xtick_1">
     <g id="line2d_1">
      <path d="M 161.957599 617.04 
L 161.957599 7.2 
" clip-path="url(#p1d3a988c20)" style="fill: none; stroke: #b0b0b0; stroke-width: 0.8; stroke-linecap: square"/>
     </g>
     <g id="line2d_2">
      <defs>
       <path id="m137a2bda85" d="M 0 0 
L 0 3.5 
" style="stroke: #000000; stroke-width: 0.8"/>
      </defs>
      <g>
       <use xlink:href="#m137a2bda85" x="161.957599" y="617.04" style="stroke: #000000; stroke-width: 0.8"/>
      </g>
     </g>
     <g id="text_1">
      <!-- $\mathdefault{0.0}$ -->
      <g transform="translate(144.185879 644.795495)scale(0.3 -0.3)">
       <defs>
        <path id="CMR17-30" d="M 2688 2025 
C 2688 2416 2682 3080 2413 3591 
C 2176 4039 1798 4198 1466 4198 
C 1158 4198 768 4058 525 3597 
C 269 3118 243 2524 243 2025 
C 243 1661 250 1106 448 619 
C 723 -39 1216 -128 1466 -128 
C 1760 -128 2208 -7 2470 600 
C 2662 1042 2688 1559 2688 2025 
z
M 1466 -26 
C 1056 -26 813 325 723 812 
C 653 1188 653 1738 653 2096 
C 653 2588 653 2997 736 3387 
C 858 3929 1216 4096 1466 4096 
C 1728 4096 2067 3923 2189 3400 
C 2272 3036 2278 2607 2278 2096 
C 2278 1680 2278 1169 2202 792 
C 2067 95 1690 -26 1466 -26 
z
" transform="scale(0.015625)"/>
        <path id="CMMI12-3a" d="M 1178 307 
C 1178 492 1024 619 870 619 
C 685 619 557 466 557 313 
C 557 128 710 0 864 0 
C 1050 0 1178 153 1178 307 
z
" transform="scale(0.015625)"/>
       </defs>
       <use xlink:href="#CMR17-30" transform="scale(0.996264)"/>
       <use xlink:href="#CMMI12-3a" transform="translate(45.690477 0)scale(0.996264)"/>
       <use xlink:href="#CMR17-30" transform="translate(72.787654 0)scale(0.996264)"/>
      </g>
     </g>
    </g>
    <g id="xtick_2">
     <g id="line2d_3">
      <path d="M 296.290932 617.04 
L 296.290932 7.2 
" clip-path="url(#p1d3a988c20)" style="fill: none; stroke: #b0b0b0; stroke-width: 0.8; stroke-linecap: square"/>
     </g>
     <g id="line2d_4">
      <g>
       <use xlink:href="#m137a2bda85" x="296.290932" y="617.04" style="stroke: #000000; stroke-width: 0.8"/>
      </g>
     </g>
     <g id="text_2">
      <!-- $\mathdefault{0.1}$ -->
      <g transform="translate(278.519212 644.795495)scale(0.3 -0.3)">
       <defs>
        <path id="CMR17-31" d="M 1702 4058 
C 1702 4192 1696 4192 1606 4192 
C 1357 3916 979 3827 621 3827 
C 602 3827 570 3827 563 3808 
C 557 3795 557 3782 557 3648 
C 755 3648 1088 3686 1344 3839 
L 1344 461 
C 1344 236 1331 160 781 160 
L 589 160 
L 589 0 
C 896 0 1216 0 1523 0 
C 1830 0 2150 0 2458 0 
L 2458 160 
L 2266 160 
C 1715 160 1702 230 1702 458 
L 1702 4058 
z
" transform="scale(0.015625)"/>
       </defs>
       <use xlink:href="#CMR17-30" transform="scale(0.996264)"/>
       <use xlink:href="#CMMI12-3a" transform="translate(45.690477 0)scale(0.996264)"/>
       <use xlink:href="#CMR17-31" transform="translate(72.787654 0)scale(0.996264)"/>
      </g>
     </g>
    </g>
    <g id="xtick_3">
     <g id="line2d_5">
      <path d="M 430.624265 617.04 
L 430.624265 7.2 
" clip-path="url(#p1d3a988c20)" style="fill: none; stroke: #b0b0b0; stroke-width: 0.8; stroke-linecap: square"/>
     </g>
     <g id="line2d_6">
      <g>
       <use xlink:href="#m137a2bda85" x="430.624265" y="617.04" style="stroke: #000000; stroke-width: 0.8"/>
      </g>
     </g>
     <g id="text_3">
      <!-- $\mathdefault{0.2}$ -->
      <g transform="translate(412.852546 644.795495)scale(0.3 -0.3)">
       <defs>
        <path id="CMR17-32" d="M 2669 989 
L 2554 989 
C 2490 536 2438 459 2413 420 
C 2381 369 1920 369 1830 369 
L 602 369 
C 832 619 1280 1072 1824 1597 
C 2214 1967 2669 2402 2669 3035 
C 2669 3790 2067 4224 1395 4224 
C 691 4224 262 3604 262 3030 
C 262 2780 448 2748 525 2748 
C 589 2748 781 2787 781 3010 
C 781 3207 614 3264 525 3264 
C 486 3264 448 3258 422 3245 
C 544 3790 915 4058 1306 4058 
C 1862 4058 2227 3617 2227 3035 
C 2227 2479 1901 2000 1536 1584 
L 262 146 
L 262 0 
L 2515 0 
L 2669 989 
z
" transform="scale(0.015625)"/>
       </defs>
       <use xlink:href="#CMR17-30" transform="scale(0.996264)"/>
       <use xlink:href="#CMMI12-3a" transform="translate(45.690477 0)scale(0.996264)"/>
       <use xlink:href="#CMR17-32" transform="translate(72.787654 0)scale(0.996264)"/>
      </g>
     </g>
    </g>
    <g id="xtick_4">
     <g id="line2d_7">
      <path d="M 564.957599 617.04 
L 564.957599 7.2 
" clip-path="url(#p1d3a988c20)" style="fill: none; stroke: #b0b0b0; stroke-width: 0.8; stroke-linecap: square"/>
     </g>
     <g id="line2d_8">
      <g>
       <use xlink:href="#m137a2bda85" x="564.957599" y="617.04" style="stroke: #000000; stroke-width: 0.8"/>
      </g>
     </g>
     <g id="text_4">
      <!-- $\mathdefault{0.3}$ -->
      <g transform="translate(547.185879 644.795495)scale(0.3 -0.3)">
       <defs>
        <path id="CMR17-33" d="M 1414 2157 
C 1984 2157 2234 1662 2234 1090 
C 2234 320 1824 25 1453 25 
C 1114 25 563 194 390 693 
C 422 680 454 680 486 680 
C 640 680 755 782 755 948 
C 755 1133 614 1216 486 1216 
C 378 1216 211 1165 211 926 
C 211 335 787 -128 1466 -128 
C 2176 -128 2720 430 2720 1085 
C 2720 1707 2208 2157 1600 2227 
C 2086 2328 2554 2756 2554 3329 
C 2554 3820 2048 4179 1472 4179 
C 890 4179 378 3829 378 3329 
C 378 3110 544 3072 627 3072 
C 762 3072 877 3155 877 3321 
C 877 3486 762 3569 627 3569 
C 602 3569 570 3569 544 3557 
C 730 3959 1235 4032 1459 4032 
C 1683 4032 2106 3925 2106 3320 
C 2106 3143 2080 2828 1862 2550 
C 1670 2304 1453 2304 1242 2284 
C 1210 2284 1062 2269 1037 2269 
C 992 2263 966 2257 966 2208 
C 966 2163 973 2157 1101 2157 
L 1414 2157 
z
" transform="scale(0.015625)"/>
       </defs>
       <use xlink:href="#CMR17-30" transform="scale(0.996264)"/>
       <use xlink:href="#CMMI12-3a" transform="translate(45.690477 0)scale(0.996264)"/>
       <use xlink:href="#CMR17-33" transform="translate(72.787654 0)scale(0.996264)"/>
      </g>
     </g>
    </g>
    <g id="xtick_5">
     <g id="line2d_9">
      <path d="M 699.290932 617.04 
L 699.290932 7.2 
" clip-path="url(#p1d3a988c20)" style="fill: none; stroke: #b0b0b0; stroke-width: 0.8; stroke-linecap: square"/>
     </g>
     <g id="line2d_10">
      <g>
       <use xlink:href="#m137a2bda85" x="699.290932" y="617.04" style="stroke: #000000; stroke-width: 0.8"/>
      </g>
     </g>
     <g id="text_5">
      <!-- $\mathdefault{0.4}$ -->
      <g transform="translate(681.519212 644.795495)scale(0.3 -0.3)">
       <defs>
        <path id="CMR17-34" d="M 2150 4122 
C 2150 4256 2144 4256 2029 4256 
L 128 1254 
L 128 1088 
L 1779 1088 
L 1779 457 
C 1779 224 1766 160 1318 160 
L 1197 160 
L 1197 0 
C 1402 0 1747 0 1965 0 
C 2182 0 2528 0 2733 0 
L 2733 160 
L 2611 160 
C 2163 160 2150 224 2150 457 
L 2150 1088 
L 2803 1088 
L 2803 1254 
L 2150 1254 
L 2150 4122 
z
M 1798 3703 
L 1798 1254 
L 256 1254 
L 1798 3703 
z
" transform="scale(0.015625)"/>
       </defs>
       <use xlink:href="#CMR17-30" transform="scale(0.996264)"/>
       <use xlink:href="#CMMI12-3a" transform="translate(45.690477 0)scale(0.996264)"/>
       <use xlink:href="#CMR17-34" transform="translate(72.787654 0)scale(0.996264)"/>
      </g>
     </g>
    </g>
    <g id="text_6">
     <!-- $x, \; \mathrm{m} $ -->
     <g transform="translate(408.404995 678.823697)scale(0.35 -0.35)">
      <defs>
       <path id="CMMI12-78" d="M 3034 2606 
C 2829 2567 2752 2414 2752 2293 
C 2752 2139 2874 2088 2963 2088 
C 3155 2088 3290 2254 3290 2427 
C 3290 2695 2982 2816 2714 2816 
C 2323 2816 2106 2433 2048 2312 
C 1901 2816 1504 2816 1389 2816 
C 736 2816 390 1980 390 1839 
C 390 1814 416 1782 461 1782 
C 512 1782 525 1820 538 1846 
C 755 2555 1184 2689 1370 2689 
C 1658 2689 1715 2420 1715 2267 
C 1715 2127 1677 1980 1600 1673 
L 1382 798 
C 1286 415 1101 64 762 64 
C 730 64 570 64 435 147 
C 666 192 717 383 717 460 
C 717 588 621 664 499 664 
C 346 664 179 530 179 326 
C 179 57 480 -64 755 -64 
C 1062 -64 1280 179 1414 441 
C 1517 64 1837 -64 2074 -64 
C 2726 -64 3072 773 3072 913 
C 3072 945 3046 971 3008 971 
C 2950 971 2944 939 2925 888 
C 2752 326 2381 64 2093 64 
C 1869 64 1747 230 1747 492 
C 1747 632 1773 734 1875 1156 
L 2099 2024 
C 2195 2408 2413 2689 2707 2689 
C 2720 2689 2899 2689 3034 2606 
z
" transform="scale(0.015625)"/>
       <path id="CMMI12-3b" d="M 1248 -31 
C 1248 343 1126 619 864 619 
C 659 619 557 453 557 313 
C 557 172 653 0 870 0 
C 954 0 1024 26 1082 83 
C 1094 96 1101 96 1107 96 
C 1120 96 1120 5 1120 -27 
C 1120 -240 1082 -659 710 -1080 
C 640 -1157 640 -1170 640 -1183 
C 640 -1216 672 -1248 704 -1248 
C 755 -1248 1248 -771 1248 -31 
z
" transform="scale(0.015625)"/>
       <path id="CMR17-6d" d="M 4326 1933 
C 4326 2252 4269 2790 3507 2790 
C 3072 2790 2771 2496 2656 2151 
L 2650 2151 
C 2573 2676 2195 2790 1837 2790 
C 1331 2790 1069 2400 973 2144 
L 966 2144 
L 966 2790 
L 211 2720 
L 211 2554 
C 589 2554 646 2515 646 2208 
L 646 428 
C 646 184 621 153 211 153 
L 211 -13 
C 365 0 646 0 813 0 
C 979 0 1267 0 1421 -13 
L 1421 153 
C 1011 153 986 178 986 428 
L 986 1658 
C 986 2247 1344 2688 1792 2688 
C 2266 2688 2317 2266 2317 1958 
L 2317 428 
C 2317 184 2291 153 1882 153 
L 1882 -13 
C 2035 0 2317 0 2483 0 
C 2650 0 2938 0 3091 -13 
L 3091 153 
C 2682 153 2656 178 2656 428 
L 2656 1658 
C 2656 2247 3014 2688 3462 2688 
C 3936 2688 3987 2266 3987 1958 
L 3987 428 
C 3987 184 3962 153 3552 153 
L 3552 -13 
C 3706 0 3987 0 4154 0 
C 4320 0 4608 0 4762 -13 
L 4762 153 
C 4352 153 4326 178 4326 428 
L 4326 1933 
z
" transform="scale(0.015625)"/>
      </defs>
      <use xlink:href="#CMMI12-78" transform="scale(0.996264)"/>
      <use xlink:href="#CMMI12-3b" transform="translate(55.43406 0)scale(0.996264)"/>
      <use xlink:href="#CMR17-6d" transform="translate(126.809651 0)scale(0.996264)"/>
     </g>
    </g>
   </g>
   <g id="matplotlib.axis_2">
    <g id="ytick_1">
     <g id="line2d_11">
      <path d="M 81.357599 583.16 
L 806.757599 583.16 
" clip-path="url(#p1d3a988c20)" style="fill: none; stroke: #b0b0b0; stroke-width: 0.8; stroke-linecap: square"/>
     </g>
     <g id="line2d_12">
      <defs>
       <path id="m1d4c83b710" d="M 0 0 
L -3.5 0 
" style="stroke: #000000; stroke-width: 0.8"/>
      </defs>
      <g>
       <use xlink:href="#m1d4c83b710" x="81.357599" y="583.16" style="stroke: #000000; stroke-width: 0.8"/>
      </g>
     </g>
     <g id="text_7">
      <!-- $\mathdefault{0}$ -->
      <g transform="translate(60.650456 593.537748)scale(0.3 -0.3)">
       <use xlink:href="#CMR17-30" transform="scale(0.996264)"/>
      </g>
     </g>
    </g>
    <g id="ytick_2">
     <g id="line2d_13">
      <path d="M 81.357599 515.4 
L 806.757599 515.4 
" clip-path="url(#p1d3a988c20)" style="fill: none; stroke: #b0b0b0; stroke-width: 0.8; stroke-linecap: square"/>
     </g>
     <g id="line2d_14">
      <g>
       <use xlink:href="#m1d4c83b710" x="81.357599" y="515.4" style="stroke: #000000; stroke-width: 0.8"/>
      </g>
     </g>
     <g id="text_8">
      <!-- $\mathdefault{1}$ -->
      <g transform="translate(60.650456 525.777748)scale(0.3 -0.3)">
       <use xlink:href="#CMR17-31" transform="scale(0.996264)"/>
      </g>
     </g>
    </g>
    <g id="ytick_3">
     <g id="line2d_15">
      <path d="M 81.357599 447.64 
L 806.757599 447.64 
" clip-path="url(#p1d3a988c20)" style="fill: none; stroke: #b0b0b0; stroke-width: 0.8; stroke-linecap: square"/>
     </g>
     <g id="line2d_16">
      <g>
       <use xlink:href="#m1d4c83b710" x="81.357599" y="447.64" style="stroke: #000000; stroke-width: 0.8"/>
      </g>
     </g>
     <g id="text_9">
      <!-- $\mathdefault{2}$ -->
      <g transform="translate(60.650456 458.017748)scale(0.3 -0.3)">
       <use xlink:href="#CMR17-32" transform="scale(0.996264)"/>
      </g>
     </g>
    </g>
    <g id="ytick_4">
     <g id="line2d_17">
      <path d="M 81.357599 379.88 
L 806.757599 379.88 
" clip-path="url(#p1d3a988c20)" style="fill: none; stroke: #b0b0b0; stroke-width: 0.8; stroke-linecap: square"/>
     </g>
     <g id="line2d_18">
      <g>
       <use xlink:href="#m1d4c83b710" x="81.357599" y="379.88" style="stroke: #000000; stroke-width: 0.8"/>
      </g>
     </g>
     <g id="text_10">
      <!-- $\mathdefault{3}$ -->
      <g transform="translate(60.650456 390.257748)scale(0.3 -0.3)">
       <use xlink:href="#CMR17-33" transform="scale(0.996264)"/>
      </g>
     </g>
    </g>
    <g id="ytick_5">
     <g id="line2d_19">
      <path d="M 81.357599 312.12 
L 806.757599 312.12 
" clip-path="url(#p1d3a988c20)" style="fill: none; stroke: #b0b0b0; stroke-width: 0.8; stroke-linecap: square"/>
     </g>
     <g id="line2d_20">
      <g>
       <use xlink:href="#m1d4c83b710" x="81.357599" y="312.12" style="stroke: #000000; stroke-width: 0.8"/>
      </g>
     </g>
     <g id="text_11">
      <!-- $\mathdefault{4}$ -->
      <g transform="translate(60.650456 322.497748)scale(0.3 -0.3)">
       <use xlink:href="#CMR17-34" transform="scale(0.996264)"/>
      </g>
     </g>
    </g>
    <g id="ytick_6">
     <g id="line2d_21">
      <path d="M 81.357599 244.36 
L 806.757599 244.36 
" clip-path="url(#p1d3a988c20)" style="fill: none; stroke: #b0b0b0; stroke-width: 0.8; stroke-linecap: square"/>
     </g>
     <g id="line2d_22">
      <g>
       <use xlink:href="#m1d4c83b710" x="81.357599" y="244.36" style="stroke: #000000; stroke-width: 0.8"/>
      </g>
     </g>
     <g id="text_12">
      <!-- $\mathdefault{5}$ -->
      <g transform="translate(60.650456 254.737748)scale(0.3 -0.3)">
       <defs>
        <path id="CMR17-35" d="M 730 3692 
C 794 3666 1056 3584 1325 3584 
C 1920 3584 2246 3911 2432 4100 
C 2432 4157 2432 4192 2394 4192 
C 2387 4192 2374 4192 2323 4163 
C 2099 4058 1837 3973 1517 3973 
C 1325 3973 1037 3999 723 4139 
C 653 4171 640 4171 634 4171 
C 602 4171 595 4164 595 4037 
L 595 2203 
C 595 2089 595 2057 659 2057 
C 691 2057 704 2070 736 2114 
C 941 2401 1222 2522 1542 2522 
C 1766 2522 2246 2382 2246 1289 
C 2246 1085 2246 715 2054 421 
C 1894 159 1645 25 1370 25 
C 947 25 518 320 403 814 
C 429 807 480 795 506 795 
C 589 795 749 840 749 1038 
C 749 1210 627 1280 506 1280 
C 358 1280 262 1190 262 1011 
C 262 454 704 -128 1382 -128 
C 2042 -128 2669 440 2669 1264 
C 2669 2030 2170 2624 1549 2624 
C 1222 2624 947 2503 730 2274 
L 730 3692 
z
" transform="scale(0.015625)"/>
       </defs>
       <use xlink:href="#CMR17-35" transform="scale(0.996264)"/>
      </g>
     </g>
    </g>
    <g id="ytick_7">
     <g id="line2d_23">
      <path d="M 81.357599 176.6 
L 806.757599 176.6 
" clip-path="url(#p1d3a988c20)" style="fill: none; stroke: #b0b0b0; stroke-width: 0.8; stroke-linecap: square"/>
     </g>
     <g id="line2d_24">
      <g>
       <use xlink:href="#m1d4c83b710" x="81.357599" y="176.6" style="stroke: #000000; stroke-width: 0.8"/>
      </g>
     </g>
     <g id="text_13">
      <!-- $\mathdefault{6}$ -->
      <g transform="translate(60.650456 186.977748)scale(0.3 -0.3)">
       <defs>
        <path id="CMR17-36" d="M 678 2176 
C 678 3690 1395 4032 1811 4032 
C 1946 4032 2272 4009 2400 3776 
C 2298 3776 2106 3776 2106 3553 
C 2106 3381 2246 3323 2336 3323 
C 2394 3323 2566 3348 2566 3560 
C 2566 3954 2246 4179 1805 4179 
C 1043 4179 243 3390 243 1984 
C 243 253 966 -128 1478 -128 
C 2099 -128 2688 427 2688 1283 
C 2688 2081 2170 2662 1517 2662 
C 1126 2662 838 2407 678 1960 
L 678 2176 
z
M 1478 25 
C 691 25 691 1200 691 1436 
C 691 1896 909 2560 1504 2560 
C 1613 2560 1926 2560 2138 2120 
C 2253 1870 2253 1609 2253 1289 
C 2253 944 2253 690 2118 434 
C 1978 171 1773 25 1478 25 
z
" transform="scale(0.015625)"/>
       </defs>
       <use xlink:href="#CMR17-36" transform="scale(0.996264)"/>
      </g>
     </g>
    </g>
    <g id="ytick_8">
     <g id="line2d_25">
      <path d="M 81.357599 108.84 
L 806.757599 108.84 
" clip-path="url(#p1d3a988c20)" style="fill: none; stroke: #b0b0b0; stroke-width: 0.8; stroke-linecap: square"/>
     </g>
     <g id="line2d_26">
      <g>
       <use xlink:href="#m1d4c83b710" x="81.357599" y="108.84" style="stroke: #000000; stroke-width: 0.8"/>
      </g>
     </g>
     <g id="text_14">
      <!-- $\mathdefault{7}$ -->
      <g transform="translate(60.650456 119.217748)scale(0.3 -0.3)">
       <defs>
        <path id="CMR17-37" d="M 2886 3941 
L 2886 4081 
L 1382 4081 
C 634 4081 621 4165 595 4288 
L 480 4288 
L 294 3094 
L 410 3094 
C 429 3215 474 3540 550 3661 
C 589 3712 1062 3712 1171 3712 
L 2579 3712 
L 1869 2661 
C 1395 1954 1069 999 1069 165 
C 1069 89 1069 -128 1299 -128 
C 1530 -128 1530 89 1530 171 
L 1530 465 
C 1530 1508 1709 2196 2003 2636 
L 2886 3941 
z
" transform="scale(0.015625)"/>
       </defs>
       <use xlink:href="#CMR17-37" transform="scale(0.996264)"/>
      </g>
     </g>
    </g>
    <g id="ytick_9">
     <g id="line2d_27">
      <path d="M 81.357599 41.08 
L 806.757599 41.08 
" clip-path="url(#p1d3a988c20)" style="fill: none; stroke: #b0b0b0; stroke-width: 0.8; stroke-linecap: square"/>
     </g>
     <g id="line2d_28">
      <g>
       <use xlink:href="#m1d4c83b710" x="81.357599" y="41.08" style="stroke: #000000; stroke-width: 0.8"/>
      </g>
     </g>
     <g id="text_15">
      <!-- $\mathdefault{8}$ -->
      <g transform="translate(60.650456 51.457748)scale(0.3 -0.3)">
       <defs>
        <path id="CMR17-38" d="M 1741 2264 
C 2144 2467 2554 2773 2554 3263 
C 2554 3841 1990 4179 1472 4179 
C 890 4179 378 3759 378 3180 
C 378 3021 416 2747 666 2505 
C 730 2442 998 2251 1171 2130 
C 883 1983 211 1634 211 934 
C 211 279 838 -128 1459 -128 
C 2144 -128 2720 362 2720 1010 
C 2720 1590 2330 1857 2074 2029 
L 1741 2264 
z
M 902 2822 
C 851 2854 595 3051 595 3351 
C 595 3739 998 4032 1459 4032 
C 1965 4032 2336 3676 2336 3262 
C 2336 2669 1670 2331 1638 2331 
C 1632 2331 1626 2331 1574 2370 
L 902 2822 
z
M 2080 1519 
C 2176 1449 2483 1240 2483 851 
C 2483 381 2010 25 1472 25 
C 890 25 448 438 448 940 
C 448 1443 838 1862 1280 2060 
L 2080 1519 
z
" transform="scale(0.015625)"/>
       </defs>
       <use xlink:href="#CMR17-38" transform="scale(0.996264)"/>
      </g>
     </g>
    </g>
    <g id="text_16">
     <!-- $\frac{T_{tr}}{T_{tr_\infty}}, \; - $ -->
     <g transform="translate(38.349699 361.917026)rotate(-90)scale(0.35 -0.35)">
      <defs>
       <path id="CMMI12-54" d="M 2669 3910 
C 2707 4064 2720 4121 2816 4147 
C 2867 4160 3078 4160 3213 4160 
C 3853 4160 4154 4134 4154 3634 
C 4154 3537 4128 3295 4090 3057 
L 4083 2980 
C 4083 2954 4109 2916 4147 2916 
C 4211 2916 4211 2948 4230 3050 
L 4416 4184 
C 4429 4243 4429 4256 4429 4275 
C 4429 4345 4390 4345 4262 4345 
L 762 4345 
C 614 4345 608 4339 570 4224 
L 179 3070 
C 173 3056 154 2986 154 2980 
C 154 2948 179 2916 218 2916 
C 269 2916 282 2941 307 3024 
C 576 3801 710 4160 1562 4160 
L 1990 4160 
C 2144 4160 2208 4160 2208 4089 
C 2208 4069 2208 4057 2176 3941 
L 1318 499 
C 1254 249 1242 185 563 185 
C 403 185 358 185 358 64 
C 358 0 429 0 461 0 
C 621 0 787 0 947 0 
L 1946 0 
C 2106 0 2278 0 2438 0 
C 2509 0 2573 0 2573 121 
C 2573 185 2528 185 2362 185 
C 1786 185 1786 243 1786 339 
C 1786 346 1786 391 1811 494 
L 2669 3910 
z
" transform="scale(0.015625)"/>
       <path id="CMMI12-74" d="M 1286 2566 
L 1875 2566 
C 1997 2566 2061 2566 2061 2681 
C 2061 2752 2022 2752 1894 2752 
L 1331 2752 
L 1568 3692 
C 1594 3781 1594 3794 1594 3840 
C 1594 3943 1510 4000 1427 4000 
C 1376 4000 1229 3981 1178 3775 
L 928 2752 
L 326 2752 
C 198 2752 141 2752 141 2630 
C 141 2566 186 2566 307 2566 
L 877 2566 
L 454 881 
C 403 658 384 594 384 511 
C 384 211 595 -64 954 -64 
C 1600 -64 1946 868 1946 912 
C 1946 951 1920 970 1882 970 
C 1869 970 1843 970 1830 944 
C 1824 938 1818 931 1773 829 
C 1638 511 1344 64 973 64 
C 781 64 768 224 768 364 
C 768 370 768 492 787 568 
L 1286 2566 
z
" transform="scale(0.015625)"/>
       <path id="CMMI12-72" d="M 2490 2612 
C 2291 2574 2189 2433 2189 2293 
C 2189 2139 2310 2088 2400 2088 
C 2579 2088 2726 2242 2726 2433 
C 2726 2638 2528 2816 2208 2816 
C 1952 2816 1658 2701 1389 2312 
C 1344 2650 1088 2816 832 2816 
C 582 2816 454 2625 378 2484 
C 269 2254 173 1871 173 1839 
C 173 1814 198 1782 243 1782 
C 294 1782 301 1788 339 1935 
C 435 2318 557 2689 813 2689 
C 966 2689 1011 2580 1011 2395 
C 1011 2254 947 2005 902 1807 
L 723 1118 
C 698 996 627 709 595 594 
C 550 428 480 128 480 96 
C 480 6 550 -64 646 -64 
C 717 -64 838 -19 877 109 
C 896 160 1133 1124 1171 1271 
C 1203 1411 1242 1546 1274 1686 
C 1299 1775 1325 1878 1344 1961 
C 1363 2018 1536 2331 1696 2472 
C 1773 2542 1939 2689 2202 2689 
C 2304 2689 2406 2670 2490 2612 
z
" transform="scale(0.015625)"/>
       <path id="CMSY10-31" d="M 3251 1730 
C 2906 2166 2829 2262 2630 2422 
C 2272 2710 1914 2825 1587 2825 
C 838 2825 352 2122 352 1374 
C 352 639 826 -70 1562 -70 
C 2298 -70 2829 511 3142 1022 
C 3488 588 3565 492 3763 332 
C 4122 45 4480 -70 4806 -70 
C 5555 -70 6042 633 6042 1380 
C 6042 2115 5568 2825 4832 2825 
C 4096 2825 3565 2242 3251 1730 
z
M 3418 1514 
C 3680 1975 4154 2620 4877 2620 
C 5555 2620 5901 1955 5901 1380 
C 5901 753 5472 236 4909 236 
C 4538 236 4250 505 4115 638 
C 3955 811 3808 1009 3418 1514 
z
M 2976 1240 
C 2714 780 2240 134 1517 134 
C 838 134 493 799 493 1374 
C 493 2000 922 2518 1485 2518 
C 1856 2518 2144 2249 2278 2115 
C 2438 1943 2586 1744 2976 1240 
z
" transform="scale(0.015625)"/>
       <path id="CMSY10-0" d="M 4218 1472 
C 4326 1472 4442 1472 4442 1600 
C 4442 1728 4326 1728 4218 1728 
L 755 1728 
C 646 1728 531 1728 531 1600 
C 531 1472 646 1472 755 1472 
L 4218 1472 
z
" transform="scale(0.015625)"/>
      </defs>
      <use xlink:href="#CMMI12-54" transform="translate(24.478305 41.344728)scale(0.697382)"/>
      <use xlink:href="#CMMI12-74" transform="translate(64.500661 30.884032)scale(0.498132)"/>
      <use xlink:href="#CMMI12-72" transform="translate(82.113826 30.884032)scale(0.498132)"/>
      <use xlink:href="#CMMI12-54" transform="translate(0 -34.355253)scale(0.697382)"/>
      <use xlink:href="#CMMI12-74" transform="translate(40.022356 -44.815949)scale(0.498132)"/>
      <use xlink:href="#CMMI12-72" transform="translate(57.635521 -44.815949)scale(0.498132)"/>
      <use xlink:href="#CMSY10-31" transform="translate(79.61596 -52.287899)scale(0.498132)"/>
      <use xlink:href="#CMMI12-3b" transform="translate(131.621076 0)scale(0.996264)"/>
      <use xlink:href="#CMSY10-0" transform="translate(202.996667 0)scale(0.996264)"/>
      <path d="M 0 22.914133 
L 130.425562 22.914133 
L 130.425562 26.899083 
L 0 26.899083 
L 0 22.914133 
z
"/>
     </g>
    </g>
   </g>
   <g id="line2d_29">
    <path d="M 94.790932 518.658294 
L 158.441939 518.644471 
L 159.62067 516.228649 
L 160.789134 509.695515 
L 161.957599 481.263976 
L 164.35273 440.572345 
L 166.747862 411.39534 
L 167.945428 406.305307 
L 169.142994 405.72463 
L 170.34056 407.998802 
L 171.538125 407.62949 
L 172.735691 408.292203 
L 175.130823 408.367668 
L 176.328389 407.85188 
L 179.921086 406.877915 
L 181.118652 406.350872 
L 182.316218 406.091989 
L 183.513784 405.691318 
L 185.908916 405.390694 
L 190.699179 405.43802 
L 195.489442 405.144278 
L 215.0422 405.491051 
L 236.751436 405.618035 
L 280.335925 406.225745 
L 297.411179 406.539077 
L 327.903554 407.052317 
L 419.216828 408.32067 
L 420.347863 409.272475 
L 421.478897 267.954613 
L 422.303693 69.555571 
L 424.778079 121.857614 
L 425.602874 140.800261 
L 426.427669 155.360988 
L 427.252465 167.622898 
L 428.07726 177.70118 
L 428.902056 186.193051 
L 429.726851 193.186882 
L 431.376442 204.550504 
L 433.026032 214.728015 
L 434.675623 221.768217 
L 435.500418 224.90735 
L 437.150009 229.743568 
L 439.624395 236.687764 
L 440.449191 238.890012 
L 442.923577 243.896185 
L 446.222758 249.369048 
L 448.697144 252.966196 
L 452.821121 258.334909 
L 454.470712 260.274813 
L 456.945098 263.926473 
L 458.603135 267.000175 
L 461.488677 273.02011 
L 463.840018 278.538676 
L 466.605 286.502327 
L 469.871497 296.941902 
L 471.721394 302.413664 
L 473.73342 307.428317 
L 475.922514 312.027794 
L 478.305241 316.021777 
L 480.898664 319.152413 
L 483.718626 321.966593 
L 486.787568 323.163271 
L 490.122464 323.389552 
L 493.746284 322.108322 
L 497.677963 320.267125 
L 501.936814 317.841724 
L 506.540279 315.499273 
L 511.499678 313.4061 
L 516.81763 311.575305 
L 522.477178 309.765544 
L 528.391174 307.748286 
L 540.268227 304.096484 
L 546.206753 302.47194 
L 552.14528 300.470839 
L 558.083807 298.273544 
L 564.022333 296.417513 
L 569.96086 295.106593 
L 575.899386 294.339969 
L 581.837913 293.801618 
L 587.776439 292.998484 
L 593.714966 291.678296 
L 599.653492 290.008655 
L 605.592019 288.765999 
L 611.530546 345.591212 
L 619.926379 462.925659 
L 628.322212 474.310803 
L 636.718046 474.261292 
L 645.113879 475.08416 
L 661.905546 473.380778 
L 670.301379 472.732167 
L 687.093046 471.942668 
L 695.488879 471.334202 
L 703.884712 470.924355 
L 745.863879 469.405052 
L 771.051379 468.22825 
L 804.634712 467.430375 
L 813.030546 467.341097 
L 813.030546 467.341097 
" clip-path="url(#p1d3a988c20)" style="fill: none; stroke: #ff0000; stroke-width: 3; stroke-linecap: square"/>
   </g>
   <g id="patch_3">
    <path d="M 81.357599 617.04 
L 81.357599 7.2 
" style="fill: none; stroke: #000000; stroke-width: 0.8; stroke-linejoin: miter; stroke-linecap: square"/>
   </g>
   <g id="patch_4">
    <path d="M 806.757599 617.04 
L 806.757599 7.2 
" style="fill: none; stroke: #000000; stroke-width: 0.8; stroke-linejoin: miter; stroke-linecap: square"/>
   </g>
   <g id="patch_5">
    <path d="M 81.357599 617.04 
L 806.757599 617.04 
" style="fill: none; stroke: #000000; stroke-width: 0.8; stroke-linejoin: miter; stroke-linecap: square"/>
   </g>
   <g id="patch_6">
    <path d="M 81.357599 7.2 
L 806.757599 7.2 
" style="fill: none; stroke: #000000; stroke-width: 0.8; stroke-linejoin: miter; stroke-linecap: square"/>
   </g>
   <g id="legend_1">
    <g id="patch_7">
     <path d="M 649.715613 132.764702 
L 782.257599 132.764702 
Q 789.257599 132.764702 789.257599 125.764702 
L 789.257599 31.7 
Q 789.257599 24.7 782.257599 24.7 
L 649.715613 24.7 
Q 642.715613 24.7 642.715613 31.7 
L 642.715613 125.764702 
Q 642.715613 132.764702 649.715613 132.764702 
z
" style="fill: #ffffff; stroke: #cccccc; stroke-linejoin: miter"/>
    </g>
    <g id="patch_8">
     <path d="M 656.715613 63.2 
L 726.715613 63.2 
L 726.715613 38.7 
L 656.715613 38.7 
z
" style="fill: #99ccff; fill-opacity: 0.7"/>
    </g>
    <g id="text_17">
     <!-- $\sigma$ -->
     <g transform="translate(754.715613 63.2)scale(0.35 -0.35)">
      <defs>
       <path id="CMMI12-1b" d="M 3251 2408 
C 3334 2408 3546 2408 3546 2612 
C 3546 2752 3424 2752 3309 2752 
L 1894 2752 
C 934 2752 243 1686 243 932 
C 243 390 595 -64 1171 -64 
C 1926 -64 2752 747 2752 1705 
C 2752 1954 2694 2196 2541 2408 
L 3251 2408 
z
M 1178 64 
C 851 64 614 313 614 754 
C 614 1137 845 2408 1786 2408 
C 2061 2408 2368 2274 2368 1781 
C 2368 1558 2266 1021 2042 652 
C 1811 275 1466 64 1178 64 
z
" transform="scale(0.015625)"/>
      </defs>
      <use xlink:href="#CMMI12-1b" transform="scale(0.996264)"/>
     </g>
    </g>
    <g id="line2d_30">
     <path d="M 656.715613 99.732351 
L 691.715613 99.732351 
L 726.715613 99.732351 
" style="fill: none; stroke: #ff0000; stroke-width: 3; stroke-linecap: square"/>
    </g>
    <g id="text_18">
     <!-- $\mu$ -->
     <g transform="translate(754.715613 111.982351)scale(0.35 -0.35)">
      <defs>
       <path id="CMMI12-16" d="M 922 140 
C 1082 -6 1318 -64 1536 -64 
C 1946 -64 2227 208 2374 405 
C 2438 69 2707 -64 2931 -64 
C 3123 -64 3277 50 3392 277 
C 3494 493 3584 879 3584 903 
C 3584 935 3558 960 3520 960 
C 3462 960 3456 928 3430 834 
C 3334 461 3213 64 2950 64 
C 2765 64 2752 229 2752 358 
C 2752 504 2810 735 2854 926 
L 3034 1615 
C 3059 1737 3130 2023 3162 2139 
C 3200 2292 3270 2567 3270 2592 
C 3270 2688 3194 2752 3098 2752 
C 3040 2752 2906 2726 2854 2535 
L 2406 760 
C 2374 632 2374 619 2291 517 
C 2214 409 1965 64 1562 64 
C 1203 64 1088 326 1088 625 
C 1088 811 1146 1034 1171 1143 
L 1459 2293 
C 1491 2414 1542 2618 1542 2657 
C 1542 2759 1459 2816 1376 2816 
C 1318 2816 1178 2797 1126 2592 
L 198 -1107 
C 192 -1139 179 -1177 179 -1216 
C 179 -1312 256 -1376 352 -1376 
C 538 -1376 576 -1228 621 -1050 
L 922 140 
z
" transform="scale(0.015625)"/>
      </defs>
      <use xlink:href="#CMMI12-16" transform="scale(0.996264)"/>
     </g>
    </g>
   </g>
  </g>
 </g>
 <defs>
  <clipPath id="p1d3a988c20">
   <rect x="81.357599" y="7.2" width="725.4" height="609.84"/>
  </clipPath>
 </defs>
</svg>
