<?xml version="1.0" encoding="utf-8" standalone="no"?>
<!DOCTYPE svg PUBLIC "-//W3C//DTD SVG 1.1//EN"
  "http://www.w3.org/Graphics/SVG/1.1/DTD/svg11.dtd">
<svg xmlns:xlink="http://www.w3.org/1999/xlink" width="837.978695pt" height="692.806049pt" viewBox="0 0 837.978695 692.806049" xmlns="http://www.w3.org/2000/svg" version="1.1">
 <metadata>
  <rdf:RDF xmlns:dc="http://purl.org/dc/elements/1.1/" xmlns:cc="http://creativecommons.org/ns#" xmlns:rdf="http://www.w3.org/1999/02/22-rdf-syntax-ns#">
   <cc:Work>
    <dc:type rdf:resource="http://purl.org/dc/dcmitype/StillImage"/>
    <dc:date>2025-03-26T12:43:16.438010</dc:date>
    <dc:format>image/svg+xml</dc:format>
    <dc:creator>
     <cc:Agent>
      <dc:title>Matplotlib v3.7.1, https://matplotlib.org/</dc:title>
     </cc:Agent>
    </dc:creator>
   </cc:Work>
  </rdf:RDF>
 </metadata>
 <defs>
  <style type="text/css">*{stroke-linejoin: round; stroke-linecap: butt}</style>
 </defs>
 <g id="figure_1">
  <g id="patch_1">
   <path d="M 0 692.806049 
L 837.978695 692.806049 
L 837.978695 0 
L 0 0 
z
" style="fill: #ffffff"/>
  </g>
  <g id="axes_1">
   <g id="patch_2">
    <path d="M 105.378695 617.04 
L 830.778695 617.04 
L 830.778695 7.2 
L 105.378695 7.2 
z
" style="fill: #ffffff"/>
   </g>
   <g id="PolyCollection_1">
    <path d="M 118.812028 415.569977 
L 118.812028 406.525327 
L 137.069191 406.525327 
L 150.397039 406.525327 
L 160.126611 406.525327 
L 167.229596 406.525327 
L 172.415348 406.525327 
L 176.201738 406.525327 
L 178.966859 406.525327 
L 180.986768 406.525327 
L 182.463035 406.525327 
L 183.641767 406.525071 
L 184.810231 406.524774 
L 185.978695 406.489299 
L 187.176261 406.441536 
L 188.373827 406.378425 
L 189.571393 406.297039 
L 190.768959 406.190126 
L 191.966524 406.05577 
L 193.16409 405.929917 
L 194.361656 405.806304 
L 195.559222 405.678602 
L 196.756788 405.548418 
L 197.954354 405.403735 
L 199.151919 405.25758 
L 200.349485 405.109873 
L 201.547051 404.96189 
L 202.744617 404.815179 
L 203.942183 404.674298 
L 205.139749 404.537096 
L 206.337315 404.389077 
L 207.53488 404.232148 
L 208.732446 404.072378 
L 209.930012 403.90381 
L 211.127578 403.740274 
L 212.325144 403.579145 
L 213.52271 403.418339 
L 214.720275 403.26397 
L 215.917841 403.11053 
L 217.115407 402.955861 
L 218.312973 402.790442 
L 219.510539 402.638535 
L 220.708105 402.505264 
L 221.905671 402.358206 
L 223.103236 402.217725 
L 224.300802 402.068861 
L 225.498368 401.926172 
L 226.695934 401.793313 
L 227.893501 401.664902 
L 229.121237 401.525077 
L 230.392839 401.372082 
L 231.710199 401.215644 
L 233.075839 401.058009 
L 234.492341 400.908089 
L 235.96119 400.733836 
L 237.484154 400.55581 
L 239.063296 400.375987 
L 240.700881 400.19909 
L 242.39834 400.017936 
L 244.157447 399.840755 
L 245.980677 399.653658 
L 247.871359 399.468244 
L 249.833254 399.280954 
L 251.865473 399.091057 
L 253.972586 398.881228 
L 256.158431 398.62423 
L 258.423138 398.397319 
L 260.772533 398.1586 
L 263.207917 397.931679 
L 265.732182 397.705116 
L 268.350402 397.449476 
L 271.064888 397.177901 
L 273.87903 396.876807 
L 276.79669 396.585397 
L 279.821812 396.289906 
L 282.958306 395.97848 
L 286.21014 395.673769 
L 289.58161 395.357872 
L 293.077741 395.060067 
L 296.70243 394.74944 
L 300.460418 394.396226 
L 304.357022 394.040739 
L 308.397294 393.684038 
L 312.586071 393.307162 
L 316.929112 392.909746 
L 321.432276 392.536386 
L 326.101435 392.153201 
L 330.942491 391.766193 
L 335.936313 391.34682 
L 341.074136 390.876603 
L 346.401093 390.397497 
L 351.92465 389.902606 
L 357.651675 389.496541 
L 363.589793 389.088756 
L 369.746835 388.622354 
L 376.130767 388.178598 
L 382.750041 387.697252 
L 389.613442 387.197546 
L 396.72985 386.77241 
L 404.10855 386.314198 
L 411.759273 385.809422 
L 419.312132 385.380008 
L 424.949051 385.048934 
L 428.963308 384.816771 
L 431.822502 384.666025 
L 433.859438 384.562319 
L 435.310951 384.492703 
L 436.451718 384.436403 
L 437.582753 384.384958 
L 438.713787 384.333417 
L 439.844822 384.277534 
L 440.975856 384.210817 
L 442.106891 384.146057 
L 443.237925 384.064586 
L 444.368959 383.85894 
L 445.499994 353.871236 
L 446.324789 229.28925 
L 447.149584 168.593625 
L 447.97438 117.250913 
L 448.799175 77.657848 
L 449.623971 47.721207 
L 450.448766 30.880975 
L 451.273561 21.59786 
L 452.098357 17.348584 
L 452.923152 15.731147 
L 453.747947 16.067233 
L 454.572743 17.685563 
L 455.397538 19.921568 
L 456.222333 23.140409 
L 457.047129 27.21462 
L 457.871924 31.853871 
L 458.696719 36.96779 
L 459.521515 41.874294 
L 460.34631 46.513702 
L 461.171106 50.762777 
L 461.995901 55.106562 
L 462.820696 59.117976 
L 463.645492 63.094004 
L 464.470287 66.767957 
L 465.295082 69.82403 
L 466.119878 72.680115 
L 466.944673 75.230812 
L 467.769468 77.568265 
L 468.594264 79.780478 
L 469.419059 81.95404 
L 470.243854 83.976571 
L 471.06865 85.886607 
L 471.893445 87.6672 
L 472.718241 89.353081 
L 473.543036 90.981801 
L 474.367831 92.528936 
L 475.192627 93.971277 
L 476.017422 95.288145 
L 476.842217 96.636279 
L 477.667013 97.844401 
L 478.491808 99.014035 
L 479.316603 100.357095 
L 480.141399 101.764783 
L 480.966194 103.162952 
L 481.790989 104.709249 
L 482.624231 106.376053 
L 483.509195 108.237856 
L 484.471832 110.228233 
L 485.509773 112.424697 
L 486.637288 114.991158 
L 487.861115 117.787276 
L 489.186987 121.557297 
L 490.626096 125.575703 
L 492.191194 130.323402 
L 493.892594 135.460136 
L 495.74249 140.988476 
L 497.754516 146.361618 
L 499.943611 151.466181 
L 502.326337 155.975684 
L 504.919761 159.453405 
L 507.739723 163.050811 
L 510.808665 165.759573 
L 514.14356 167.733769 
L 517.767381 168.316631 
L 521.699059 167.927318 
L 525.957911 166.254777 
L 530.561375 164.02075 
L 535.520774 161.482292 
L 540.838727 158.883392 
L 546.498274 156.206955 
L 552.41227 153.387912 
L 558.350797 150.764777 
L 564.289323 148.19798 
L 570.22785 145.86818 
L 576.166376 143.107926 
L 582.104903 140.122073 
L 588.043429 137.55979 
L 593.981956 135.62816 
L 599.920483 134.432388 
L 605.859009 133.557113 
L 611.797536 132.527949 
L 617.736062 130.850093 
L 623.674589 128.814914 
L 629.613115 126.809016 
L 635.551642 128.580146 
L 643.947475 140.55239 
L 652.343309 146.211667 
L 660.739142 150.297662 
L 669.134975 153.483806 
L 677.530809 156.699691 
L 685.926642 160.801467 
L 694.322475 163.963326 
L 702.718309 166.295448 
L 711.114142 168.13728 
L 719.509975 169.749219 
L 727.905809 171.358684 
L 736.301642 172.989863 
L 744.697475 174.795755 
L 753.093309 176.68225 
L 761.489142 177.750334 
L 769.884975 178.788246 
L 778.280809 179.794148 
L 786.676642 180.606526 
L 795.072475 181.310275 
L 803.468309 182.012684 
L 811.864142 182.761839 
L 820.259975 183.75281 
L 828.655809 184.225729 
L 837.051642 184.680461 
L 837.051642 240.133487 
L 837.051642 240.133487 
L 828.655809 239.585555 
L 820.259975 238.867287 
L 811.864142 237.598002 
L 803.468309 236.577758 
L 795.072475 235.598501 
L 786.676642 234.632482 
L 778.280809 233.550306 
L 769.884975 232.286681 
L 761.489142 230.974333 
L 753.093309 229.628948 
L 744.697475 227.347474 
L 736.301642 225.168604 
L 727.905809 223.093491 
L 719.509975 221.103579 
L 711.114142 219.0596 
L 702.718309 216.77472 
L 694.322475 214.003753 
L 685.926642 210.400637 
L 677.530809 205.95389 
L 669.134975 202.463482 
L 660.739142 198.843232 
L 652.343309 194.167421 
L 643.947475 187.766885 
L 635.551642 174.383526 
L 629.613115 171.661684 
L 623.674589 173.127629 
L 617.736062 175.063118 
L 611.797536 176.571834 
L 605.859009 177.261335 
L 599.920483 177.619552 
L 593.981956 178.378869 
L 588.043429 179.869004 
L 582.104903 182.042541 
L 576.166376 184.591837 
L 570.22785 186.873767 
L 564.289323 188.660667 
L 558.350797 190.380282 
L 552.41227 191.967379 
L 546.498274 193.413825 
L 540.838727 194.473057 
L 535.520774 195.647019 
L 530.561375 197.015477 
L 525.957911 198.059142 
L 521.699059 198.726391 
L 517.767381 198.526211 
L 514.14356 197.276502 
L 510.808665 194.916424 
L 507.739723 192.082949 
L 504.919761 188.064833 
L 502.326337 184.205406 
L 499.943611 179.564622 
L 497.754516 174.374687 
L 495.74249 168.992651 
L 493.892594 163.396245 
L 492.191194 158.34731 
L 490.626096 153.764789 
L 489.186987 149.925396 
L 487.861115 146.755208 
L 486.637288 144.157315 
L 485.509773 141.630523 
L 484.471832 139.505728 
L 483.509195 137.561572 
L 482.624231 135.716503 
L 481.790989 134.096167 
L 480.966194 132.578472 
L 480.141399 131.266745 
L 479.316603 129.998214 
L 478.491808 128.771637 
L 477.667013 127.728566 
L 476.842217 126.693882 
L 476.017422 125.499328 
L 475.192627 124.349682 
L 474.367831 123.167729 
L 473.543036 121.963177 
L 472.718241 120.792064 
L 471.893445 119.566133 
L 471.06865 118.322396 
L 470.243854 117.053678 
L 469.419059 115.791549 
L 468.594264 114.546506 
L 467.769468 113.391461 
L 466.944673 112.231571 
L 466.119878 111.058885 
L 465.295082 109.748489 
L 464.470287 108.644427 
L 463.645492 107.46595 
L 462.820696 106.497251 
L 461.995901 105.934979 
L 461.171106 105.466851 
L 460.34631 105.595681 
L 459.521515 105.744349 
L 458.696719 105.998543 
L 457.871924 106.358125 
L 457.047129 107.373709 
L 456.222333 108.071114 
L 455.397538 109.753372 
L 454.572743 112.85611 
L 453.747947 116.93807 
L 452.923152 122.425354 
L 452.098357 129.298023 
L 451.273561 139.175635 
L 450.448766 151.920692 
L 449.623971 170.390551 
L 448.799175 196.936413 
L 447.97438 225.986524 
L 447.149584 264.190442 
L 446.324789 335.320691 
L 445.499994 386.508641 
L 444.368959 401.613855 
L 443.237925 401.556811 
L 442.106891 401.593046 
L 440.975856 401.61271 
L 439.844822 401.631072 
L 438.713787 401.63829 
L 437.582753 401.638399 
L 436.451718 401.640898 
L 435.310951 401.646366 
L 433.859438 401.656651 
L 431.822502 401.679933 
L 428.963308 401.72296 
L 424.949051 401.803808 
L 419.312132 401.974467 
L 411.759273 402.240345 
L 404.10855 402.597231 
L 396.72985 402.890806 
L 389.613442 403.179806 
L 382.750041 403.518173 
L 376.130767 403.845983 
L 369.746835 404.115634 
L 363.589793 404.416215 
L 357.651675 404.656882 
L 351.92465 404.886409 
L 346.401093 405.204708 
L 341.074136 405.479367 
L 335.936313 405.757394 
L 330.942491 405.99474 
L 326.101435 406.225352 
L 321.432276 406.454644 
L 316.929112 406.67443 
L 312.586071 406.910464 
L 308.397294 407.135241 
L 304.357022 407.345639 
L 300.460418 407.559978 
L 296.70243 407.769285 
L 293.077741 407.953886 
L 289.58161 408.133408 
L 286.21014 408.328493 
L 282.958306 408.521955 
L 279.821812 408.732014 
L 276.79669 408.924899 
L 273.87903 409.106874 
L 271.064888 409.285827 
L 268.350402 409.453582 
L 265.732182 409.615037 
L 263.207917 409.749459 
L 260.772533 409.874875 
L 258.423138 409.996769 
L 256.158431 410.123311 
L 253.972586 410.283161 
L 251.865473 410.421315 
L 249.833254 410.544985 
L 247.871359 410.665214 
L 245.980677 410.777467 
L 244.157447 410.890454 
L 242.39834 410.999408 
L 240.700881 411.115114 
L 239.063296 411.224453 
L 237.484154 411.339953 
L 235.96119 411.459505 
L 234.492341 411.577865 
L 233.075839 411.675262 
L 231.710199 411.773367 
L 230.392839 411.867551 
L 229.121237 411.95947 
L 227.893501 412.050438 
L 226.695934 412.141048 
L 225.498368 412.233891 
L 224.300802 412.321314 
L 223.103236 412.411696 
L 221.905671 412.496251 
L 220.708105 412.597715 
L 219.510539 412.681728 
L 218.312973 412.782653 
L 217.115407 412.88677 
L 215.917841 412.985951 
L 214.720275 413.086435 
L 213.52271 413.197837 
L 212.325144 413.310041 
L 211.127578 413.420369 
L 209.930012 413.536158 
L 208.732446 413.654713 
L 207.53488 413.761624 
L 206.337315 413.866879 
L 205.139749 413.969723 
L 203.942183 414.06725 
L 202.744617 414.168175 
L 201.547051 414.277182 
L 200.349485 414.385882 
L 199.151919 414.495683 
L 197.954354 414.603709 
L 196.756788 414.713608 
L 195.559222 414.813061 
L 194.361656 414.912669 
L 193.16409 415.01791 
L 191.966524 415.127487 
L 190.768959 415.250672 
L 189.571393 415.349438 
L 188.373827 415.426774 
L 187.176261 415.488128 
L 185.978695 415.534345 
L 184.810231 415.569429 
L 183.641767 415.56972 
L 182.463035 415.569976 
L 180.986768 415.569977 
L 178.966859 415.569977 
L 176.201738 415.569977 
L 172.415348 415.569977 
L 167.229596 415.569977 
L 160.126611 415.569977 
L 150.397039 415.569977 
L 137.069191 415.569977 
L 118.812028 415.569977 
z
" clip-path="url(#pfadf6f9ced)" style="fill: #99ccff; fill-opacity: 0.7"/>
   </g>
   <g id="matplotlib.axis_1">
    <g id="xtick_1">
     <g id="line2d_1">
      <path d="M 185.978695 617.04 
L 185.978695 7.2 
" clip-path="url(#pfadf6f9ced)" style="fill: none; stroke: #b0b0b0; stroke-width: 0.8; stroke-linecap: square"/>
     </g>
     <g id="line2d_2">
      <defs>
       <path id="m563485d1ba" d="M 0 0 
L 0 3.5 
" style="stroke: #000000; stroke-width: 0.8"/>
      </defs>
      <g>
       <use xlink:href="#m563485d1ba" x="185.978695" y="617.04" style="stroke: #000000; stroke-width: 0.8"/>
      </g>
     </g>
     <g id="text_1">
      <!-- $\mathdefault{0.0}$ -->
      <g transform="translate(168.206975 644.795495) scale(0.3 -0.3)">
       <defs>
        <path id="CMR17-30" d="M 2688 2025 
C 2688 2416 2682 3080 2413 3591 
C 2176 4039 1798 4198 1466 4198 
C 1158 4198 768 4058 525 3597 
C 269 3118 243 2524 243 2025 
C 243 1661 250 1106 448 619 
C 723 -39 1216 -128 1466 -128 
C 1760 -128 2208 -7 2470 600 
C 2662 1042 2688 1559 2688 2025 
z
M 1466 -26 
C 1056 -26 813 325 723 812 
C 653 1188 653 1738 653 2096 
C 653 2588 653 2997 736 3387 
C 858 3929 1216 4096 1466 4096 
C 1728 4096 2067 3923 2189 3400 
C 2272 3036 2278 2607 2278 2096 
C 2278 1680 2278 1169 2202 792 
C 2067 95 1690 -26 1466 -26 
z
" transform="scale(0.015625)"/>
        <path id="CMMI12-3a" d="M 1178 307 
C 1178 492 1024 619 870 619 
C 685 619 557 466 557 313 
C 557 128 710 0 864 0 
C 1050 0 1178 153 1178 307 
z
" transform="scale(0.015625)"/>
       </defs>
       <use xlink:href="#CMR17-30" transform="scale(0.996264)"/>
       <use xlink:href="#CMMI12-3a" transform="translate(45.690477 0) scale(0.996264)"/>
       <use xlink:href="#CMR17-30" transform="translate(72.787654 0) scale(0.996264)"/>
      </g>
     </g>
    </g>
    <g id="xtick_2">
     <g id="line2d_3">
      <path d="M 320.312028 617.04 
L 320.312028 7.2 
" clip-path="url(#pfadf6f9ced)" style="fill: none; stroke: #b0b0b0; stroke-width: 0.8; stroke-linecap: square"/>
     </g>
     <g id="line2d_4">
      <g>
       <use xlink:href="#m563485d1ba" x="320.312028" y="617.04" style="stroke: #000000; stroke-width: 0.8"/>
      </g>
     </g>
     <g id="text_2">
      <!-- $\mathdefault{0.1}$ -->
      <g transform="translate(302.540309 644.795495) scale(0.3 -0.3)">
       <defs>
        <path id="CMR17-31" d="M 1702 4058 
C 1702 4192 1696 4192 1606 4192 
C 1357 3916 979 3827 621 3827 
C 602 3827 570 3827 563 3808 
C 557 3795 557 3782 557 3648 
C 755 3648 1088 3686 1344 3839 
L 1344 461 
C 1344 236 1331 160 781 160 
L 589 160 
L 589 0 
C 896 0 1216 0 1523 0 
C 1830 0 2150 0 2458 0 
L 2458 160 
L 2266 160 
C 1715 160 1702 230 1702 458 
L 1702 4058 
z
" transform="scale(0.015625)"/>
       </defs>
       <use xlink:href="#CMR17-30" transform="scale(0.996264)"/>
       <use xlink:href="#CMMI12-3a" transform="translate(45.690477 0) scale(0.996264)"/>
       <use xlink:href="#CMR17-31" transform="translate(72.787654 0) scale(0.996264)"/>
      </g>
     </g>
    </g>
    <g id="xtick_3">
     <g id="line2d_5">
      <path d="M 454.645362 617.04 
L 454.645362 7.2 
" clip-path="url(#pfadf6f9ced)" style="fill: none; stroke: #b0b0b0; stroke-width: 0.8; stroke-linecap: square"/>
     </g>
     <g id="line2d_6">
      <g>
       <use xlink:href="#m563485d1ba" x="454.645362" y="617.04" style="stroke: #000000; stroke-width: 0.8"/>
      </g>
     </g>
     <g id="text_3">
      <!-- $\mathdefault{0.2}$ -->
      <g transform="translate(436.873642 644.795495) scale(0.3 -0.3)">
       <defs>
        <path id="CMR17-32" d="M 2669 989 
L 2554 989 
C 2490 536 2438 459 2413 420 
C 2381 369 1920 369 1830 369 
L 602 369 
C 832 619 1280 1072 1824 1597 
C 2214 1967 2669 2402 2669 3035 
C 2669 3790 2067 4224 1395 4224 
C 691 4224 262 3604 262 3030 
C 262 2780 448 2748 525 2748 
C 589 2748 781 2787 781 3010 
C 781 3207 614 3264 525 3264 
C 486 3264 448 3258 422 3245 
C 544 3790 915 4058 1306 4058 
C 1862 4058 2227 3617 2227 3035 
C 2227 2479 1901 2000 1536 1584 
L 262 146 
L 262 0 
L 2515 0 
L 2669 989 
z
" transform="scale(0.015625)"/>
       </defs>
       <use xlink:href="#CMR17-30" transform="scale(0.996264)"/>
       <use xlink:href="#CMMI12-3a" transform="translate(45.690477 0) scale(0.996264)"/>
       <use xlink:href="#CMR17-32" transform="translate(72.787654 0) scale(0.996264)"/>
      </g>
     </g>
    </g>
    <g id="xtick_4">
     <g id="line2d_7">
      <path d="M 588.978695 617.04 
L 588.978695 7.2 
" clip-path="url(#pfadf6f9ced)" style="fill: none; stroke: #b0b0b0; stroke-width: 0.8; stroke-linecap: square"/>
     </g>
     <g id="line2d_8">
      <g>
       <use xlink:href="#m563485d1ba" x="588.978695" y="617.04" style="stroke: #000000; stroke-width: 0.8"/>
      </g>
     </g>
     <g id="text_4">
      <!-- $\mathdefault{0.3}$ -->
      <g transform="translate(571.206975 644.795495) scale(0.3 -0.3)">
       <defs>
        <path id="CMR17-33" d="M 1414 2157 
C 1984 2157 2234 1662 2234 1090 
C 2234 320 1824 25 1453 25 
C 1114 25 563 194 390 693 
C 422 680 454 680 486 680 
C 640 680 755 782 755 948 
C 755 1133 614 1216 486 1216 
C 378 1216 211 1165 211 926 
C 211 335 787 -128 1466 -128 
C 2176 -128 2720 430 2720 1085 
C 2720 1707 2208 2157 1600 2227 
C 2086 2328 2554 2756 2554 3329 
C 2554 3820 2048 4179 1472 4179 
C 890 4179 378 3829 378 3329 
C 378 3110 544 3072 627 3072 
C 762 3072 877 3155 877 3321 
C 877 3486 762 3569 627 3569 
C 602 3569 570 3569 544 3557 
C 730 3959 1235 4032 1459 4032 
C 1683 4032 2106 3925 2106 3320 
C 2106 3143 2080 2828 1862 2550 
C 1670 2304 1453 2304 1242 2284 
C 1210 2284 1062 2269 1037 2269 
C 992 2263 966 2257 966 2208 
C 966 2163 973 2157 1101 2157 
L 1414 2157 
z
" transform="scale(0.015625)"/>
       </defs>
       <use xlink:href="#CMR17-30" transform="scale(0.996264)"/>
       <use xlink:href="#CMMI12-3a" transform="translate(45.690477 0) scale(0.996264)"/>
       <use xlink:href="#CMR17-33" transform="translate(72.787654 0) scale(0.996264)"/>
      </g>
     </g>
    </g>
    <g id="xtick_5">
     <g id="line2d_9">
      <path d="M 723.312028 617.04 
L 723.312028 7.2 
" clip-path="url(#pfadf6f9ced)" style="fill: none; stroke: #b0b0b0; stroke-width: 0.8; stroke-linecap: square"/>
     </g>
     <g id="line2d_10">
      <g>
       <use xlink:href="#m563485d1ba" x="723.312028" y="617.04" style="stroke: #000000; stroke-width: 0.8"/>
      </g>
     </g>
     <g id="text_5">
      <!-- $\mathdefault{0.4}$ -->
      <g transform="translate(705.540309 644.795495) scale(0.3 -0.3)">
       <defs>
        <path id="CMR17-34" d="M 2150 4122 
C 2150 4256 2144 4256 2029 4256 
L 128 1254 
L 128 1088 
L 1779 1088 
L 1779 457 
C 1779 224 1766 160 1318 160 
L 1197 160 
L 1197 0 
C 1402 0 1747 0 1965 0 
C 2182 0 2528 0 2733 0 
L 2733 160 
L 2611 160 
C 2163 160 2150 224 2150 457 
L 2150 1088 
L 2803 1088 
L 2803 1254 
L 2150 1254 
L 2150 4122 
z
M 1798 3703 
L 1798 1254 
L 256 1254 
L 1798 3703 
z
" transform="scale(0.015625)"/>
       </defs>
       <use xlink:href="#CMR17-30" transform="scale(0.996264)"/>
       <use xlink:href="#CMMI12-3a" transform="translate(45.690477 0) scale(0.996264)"/>
       <use xlink:href="#CMR17-34" transform="translate(72.787654 0) scale(0.996264)"/>
      </g>
     </g>
    </g>
    <g id="text_6">
     <!-- $x, \; \mathrm{m} $ -->
     <g transform="translate(432.426092 678.823697) scale(0.35 -0.35)">
      <defs>
       <path id="CMMI12-78" d="M 3034 2606 
C 2829 2567 2752 2414 2752 2293 
C 2752 2139 2874 2088 2963 2088 
C 3155 2088 3290 2254 3290 2427 
C 3290 2695 2982 2816 2714 2816 
C 2323 2816 2106 2433 2048 2312 
C 1901 2816 1504 2816 1389 2816 
C 736 2816 390 1980 390 1839 
C 390 1814 416 1782 461 1782 
C 512 1782 525 1820 538 1846 
C 755 2555 1184 2689 1370 2689 
C 1658 2689 1715 2420 1715 2267 
C 1715 2127 1677 1980 1600 1673 
L 1382 798 
C 1286 415 1101 64 762 64 
C 730 64 570 64 435 147 
C 666 192 717 383 717 460 
C 717 588 621 664 499 664 
C 346 664 179 530 179 326 
C 179 57 480 -64 755 -64 
C 1062 -64 1280 179 1414 441 
C 1517 64 1837 -64 2074 -64 
C 2726 -64 3072 773 3072 913 
C 3072 945 3046 971 3008 971 
C 2950 971 2944 939 2925 888 
C 2752 326 2381 64 2093 64 
C 1869 64 1747 230 1747 492 
C 1747 632 1773 734 1875 1156 
L 2099 2024 
C 2195 2408 2413 2689 2707 2689 
C 2720 2689 2899 2689 3034 2606 
z
" transform="scale(0.015625)"/>
       <path id="CMMI12-3b" d="M 1248 -31 
C 1248 343 1126 619 864 619 
C 659 619 557 453 557 313 
C 557 172 653 0 870 0 
C 954 0 1024 26 1082 83 
C 1094 96 1101 96 1107 96 
C 1120 96 1120 5 1120 -27 
C 1120 -240 1082 -659 710 -1080 
C 640 -1157 640 -1170 640 -1183 
C 640 -1216 672 -1248 704 -1248 
C 755 -1248 1248 -771 1248 -31 
z
" transform="scale(0.015625)"/>
       <path id="CMR17-6d" d="M 4326 1933 
C 4326 2252 4269 2790 3507 2790 
C 3072 2790 2771 2496 2656 2151 
L 2650 2151 
C 2573 2676 2195 2790 1837 2790 
C 1331 2790 1069 2400 973 2144 
L 966 2144 
L 966 2790 
L 211 2720 
L 211 2554 
C 589 2554 646 2515 646 2208 
L 646 428 
C 646 184 621 153 211 153 
L 211 -13 
C 365 0 646 0 813 0 
C 979 0 1267 0 1421 -13 
L 1421 153 
C 1011 153 986 178 986 428 
L 986 1658 
C 986 2247 1344 2688 1792 2688 
C 2266 2688 2317 2266 2317 1958 
L 2317 428 
C 2317 184 2291 153 1882 153 
L 1882 -13 
C 2035 0 2317 0 2483 0 
C 2650 0 2938 0 3091 -13 
L 3091 153 
C 2682 153 2656 178 2656 428 
L 2656 1658 
C 2656 2247 3014 2688 3462 2688 
C 3936 2688 3987 2266 3987 1958 
L 3987 428 
C 3987 184 3962 153 3552 153 
L 3552 -13 
C 3706 0 3987 0 4154 0 
C 4320 0 4608 0 4762 -13 
L 4762 153 
C 4352 153 4326 178 4326 428 
L 4326 1933 
z
" transform="scale(0.015625)"/>
      </defs>
      <use xlink:href="#CMMI12-78" transform="scale(0.996264)"/>
      <use xlink:href="#CMMI12-3b" transform="translate(55.43406 0) scale(0.996264)"/>
      <use xlink:href="#CMR17-6d" transform="translate(126.809651 0) scale(0.996264)"/>
     </g>
    </g>
   </g>
   <g id="matplotlib.axis_2">
    <g id="ytick_1">
     <g id="line2d_11">
      <path d="M 105.378695 561.250221 
L 830.778695 561.250221 
" clip-path="url(#pfadf6f9ced)" style="fill: none; stroke: #b0b0b0; stroke-width: 0.8; stroke-linecap: square"/>
     </g>
     <g id="line2d_12">
      <defs>
       <path id="m5562ae31e3" d="M 0 0 
L -3.5 0 
" style="stroke: #000000; stroke-width: 0.8"/>
      </defs>
      <g>
       <use xlink:href="#m5562ae31e3" x="105.378695" y="561.250221" style="stroke: #000000; stroke-width: 0.8"/>
      </g>
     </g>
     <g id="text_7">
      <!-- $\mathdefault{−1}$ -->
      <g transform="translate(61.425321 571.627968) scale(0.3 -0.3)">
       <defs>
        <path id="CMSY10-0" d="M 4218 1472 
C 4326 1472 4442 1472 4442 1600 
C 4442 1728 4326 1728 4218 1728 
L 755 1728 
C 646 1728 531 1728 531 1600 
C 531 1472 646 1472 755 1472 
L 4218 1472 
z
" transform="scale(0.015625)"/>
       </defs>
       <use xlink:href="#CMSY10-0" transform="scale(0.996264)"/>
       <use xlink:href="#CMR17-31" transform="translate(77.487468 0) scale(0.996264)"/>
      </g>
     </g>
    </g>
    <g id="ytick_2">
     <g id="line2d_13">
      <path d="M 105.378695 484.298801 
L 830.778695 484.298801 
" clip-path="url(#pfadf6f9ced)" style="fill: none; stroke: #b0b0b0; stroke-width: 0.8; stroke-linecap: square"/>
     </g>
     <g id="line2d_14">
      <g>
       <use xlink:href="#m5562ae31e3" x="105.378695" y="484.298801" style="stroke: #000000; stroke-width: 0.8"/>
      </g>
     </g>
     <g id="text_8">
      <!-- $\mathdefault{0}$ -->
      <g transform="translate(84.671552 494.676549) scale(0.3 -0.3)">
       <use xlink:href="#CMR17-30" transform="scale(0.996264)"/>
      </g>
     </g>
    </g>
    <g id="ytick_3">
     <g id="line2d_15">
      <path d="M 105.378695 407.347382 
L 830.778695 407.347382 
" clip-path="url(#pfadf6f9ced)" style="fill: none; stroke: #b0b0b0; stroke-width: 0.8; stroke-linecap: square"/>
     </g>
     <g id="line2d_16">
      <g>
       <use xlink:href="#m5562ae31e3" x="105.378695" y="407.347382" style="stroke: #000000; stroke-width: 0.8"/>
      </g>
     </g>
     <g id="text_9">
      <!-- $\mathdefault{1}$ -->
      <g transform="translate(84.671552 417.725129) scale(0.3 -0.3)">
       <use xlink:href="#CMR17-31" transform="scale(0.996264)"/>
      </g>
     </g>
    </g>
    <g id="ytick_4">
     <g id="line2d_17">
      <path d="M 105.378695 330.395962 
L 830.778695 330.395962 
" clip-path="url(#pfadf6f9ced)" style="fill: none; stroke: #b0b0b0; stroke-width: 0.8; stroke-linecap: square"/>
     </g>
     <g id="line2d_18">
      <g>
       <use xlink:href="#m5562ae31e3" x="105.378695" y="330.395962" style="stroke: #000000; stroke-width: 0.8"/>
      </g>
     </g>
     <g id="text_10">
      <!-- $\mathdefault{2}$ -->
      <g transform="translate(84.671552 340.77371) scale(0.3 -0.3)">
       <use xlink:href="#CMR17-32" transform="scale(0.996264)"/>
      </g>
     </g>
    </g>
    <g id="ytick_5">
     <g id="line2d_19">
      <path d="M 105.378695 253.444543 
L 830.778695 253.444543 
" clip-path="url(#pfadf6f9ced)" style="fill: none; stroke: #b0b0b0; stroke-width: 0.8; stroke-linecap: square"/>
     </g>
     <g id="line2d_20">
      <g>
       <use xlink:href="#m5562ae31e3" x="105.378695" y="253.444543" style="stroke: #000000; stroke-width: 0.8"/>
      </g>
     </g>
     <g id="text_11">
      <!-- $\mathdefault{3}$ -->
      <g transform="translate(84.671552 263.82229) scale(0.3 -0.3)">
       <use xlink:href="#CMR17-33" transform="scale(0.996264)"/>
      </g>
     </g>
    </g>
    <g id="ytick_6">
     <g id="line2d_21">
      <path d="M 105.378695 176.493123 
L 830.778695 176.493123 
" clip-path="url(#pfadf6f9ced)" style="fill: none; stroke: #b0b0b0; stroke-width: 0.8; stroke-linecap: square"/>
     </g>
     <g id="line2d_22">
      <g>
       <use xlink:href="#m5562ae31e3" x="105.378695" y="176.493123" style="stroke: #000000; stroke-width: 0.8"/>
      </g>
     </g>
     <g id="text_12">
      <!-- $\mathdefault{4}$ -->
      <g transform="translate(84.671552 186.870871) scale(0.3 -0.3)">
       <use xlink:href="#CMR17-34" transform="scale(0.996264)"/>
      </g>
     </g>
    </g>
    <g id="ytick_7">
     <g id="line2d_23">
      <path d="M 105.378695 99.541703 
L 830.778695 99.541703 
" clip-path="url(#pfadf6f9ced)" style="fill: none; stroke: #b0b0b0; stroke-width: 0.8; stroke-linecap: square"/>
     </g>
     <g id="line2d_24">
      <g>
       <use xlink:href="#m5562ae31e3" x="105.378695" y="99.541703" style="stroke: #000000; stroke-width: 0.8"/>
      </g>
     </g>
     <g id="text_13">
      <!-- $\mathdefault{5}$ -->
      <g transform="translate(84.671552 109.919451) scale(0.3 -0.3)">
       <defs>
        <path id="CMR17-35" d="M 730 3692 
C 794 3666 1056 3584 1325 3584 
C 1920 3584 2246 3911 2432 4100 
C 2432 4157 2432 4192 2394 4192 
C 2387 4192 2374 4192 2323 4163 
C 2099 4058 1837 3973 1517 3973 
C 1325 3973 1037 3999 723 4139 
C 653 4171 640 4171 634 4171 
C 602 4171 595 4164 595 4037 
L 595 2203 
C 595 2089 595 2057 659 2057 
C 691 2057 704 2070 736 2114 
C 941 2401 1222 2522 1542 2522 
C 1766 2522 2246 2382 2246 1289 
C 2246 1085 2246 715 2054 421 
C 1894 159 1645 25 1370 25 
C 947 25 518 320 403 814 
C 429 807 480 795 506 795 
C 589 795 749 840 749 1038 
C 749 1210 627 1280 506 1280 
C 358 1280 262 1190 262 1011 
C 262 454 704 -128 1382 -128 
C 2042 -128 2669 440 2669 1264 
C 2669 2030 2170 2624 1549 2624 
C 1222 2624 947 2503 730 2274 
L 730 3692 
z
" transform="scale(0.015625)"/>
       </defs>
       <use xlink:href="#CMR17-35" transform="scale(0.996264)"/>
      </g>
     </g>
    </g>
    <g id="ytick_8">
     <g id="line2d_25">
      <path d="M 105.378695 22.590284 
L 830.778695 22.590284 
" clip-path="url(#pfadf6f9ced)" style="fill: none; stroke: #b0b0b0; stroke-width: 0.8; stroke-linecap: square"/>
     </g>
     <g id="line2d_26">
      <g>
       <use xlink:href="#m5562ae31e3" x="105.378695" y="22.590284" style="stroke: #000000; stroke-width: 0.8"/>
      </g>
     </g>
     <g id="text_14">
      <!-- $\mathdefault{6}$ -->
      <g transform="translate(84.671552 32.968031) scale(0.3 -0.3)">
       <defs>
        <path id="CMR17-36" d="M 678 2176 
C 678 3690 1395 4032 1811 4032 
C 1946 4032 2272 4009 2400 3776 
C 2298 3776 2106 3776 2106 3553 
C 2106 3381 2246 3323 2336 3323 
C 2394 3323 2566 3348 2566 3560 
C 2566 3954 2246 4179 1805 4179 
C 1043 4179 243 3390 243 1984 
C 243 253 966 -128 1478 -128 
C 2099 -128 2688 427 2688 1283 
C 2688 2081 2170 2662 1517 2662 
C 1126 2662 838 2407 678 1960 
L 678 2176 
z
M 1478 25 
C 691 25 691 1200 691 1436 
C 691 1896 909 2560 1504 2560 
C 1613 2560 1926 2560 2138 2120 
C 2253 1870 2253 1609 2253 1289 
C 2253 944 2253 690 2118 434 
C 1978 171 1773 25 1478 25 
z
" transform="scale(0.015625)"/>
       </defs>
       <use xlink:href="#CMR17-36" transform="scale(0.996264)"/>
      </g>
     </g>
    </g>
    <g id="text_15">
     <!-- $\frac{T_{ve}}{T_{ve,\infty}}$ -->
     <g transform="translate(38.349699 338.856674) rotate(-90) scale(0.35 -0.35)">
      <defs>
       <path id="CMMI12-54" d="M 2669 3910 
C 2707 4064 2720 4121 2816 4147 
C 2867 4160 3078 4160 3213 4160 
C 3853 4160 4154 4134 4154 3634 
C 4154 3537 4128 3295 4090 3057 
L 4083 2980 
C 4083 2954 4109 2916 4147 2916 
C 4211 2916 4211 2948 4230 3050 
L 4416 4184 
C 4429 4243 4429 4256 4429 4275 
C 4429 4345 4390 4345 4262 4345 
L 762 4345 
C 614 4345 608 4339 570 4224 
L 179 3070 
C 173 3056 154 2986 154 2980 
C 154 2948 179 2916 218 2916 
C 269 2916 282 2941 307 3024 
C 576 3801 710 4160 1562 4160 
L 1990 4160 
C 2144 4160 2208 4160 2208 4089 
C 2208 4069 2208 4057 2176 3941 
L 1318 499 
C 1254 249 1242 185 563 185 
C 403 185 358 185 358 64 
C 358 0 429 0 461 0 
C 621 0 787 0 947 0 
L 1946 0 
C 2106 0 2278 0 2438 0 
C 2509 0 2573 0 2573 121 
C 2573 185 2528 185 2362 185 
C 1786 185 1786 243 1786 339 
C 1786 346 1786 391 1811 494 
L 2669 3910 
z
" transform="scale(0.015625)"/>
       <path id="CMMI12-76" d="M 2925 2389 
C 2925 2791 2720 2816 2669 2816 
C 2515 2816 2374 2663 2374 2535 
C 2374 2459 2419 2414 2445 2389 
C 2509 2331 2675 2159 2675 1827 
C 2675 1558 2291 64 1523 64 
C 1133 64 1056 390 1056 626 
C 1056 945 1203 1392 1376 1852 
C 1478 2114 1504 2178 1504 2305 
C 1504 2574 1312 2816 998 2816 
C 410 2816 173 1890 173 1839 
C 173 1814 198 1782 243 1782 
C 301 1782 307 1807 333 1897 
C 486 2446 736 2689 979 2689 
C 1037 2689 1146 2689 1146 2478 
C 1146 2312 1075 2127 979 1884 
C 672 1067 672 869 672 715 
C 672 575 691 313 890 134 
C 1120 -64 1440 -64 1498 -64 
C 2560 -64 2925 2024 2925 2389 
z
" transform="scale(0.015625)"/>
       <path id="CMMI12-65" d="M 1146 1479 
C 1318 1479 1754 1479 2061 1595 
C 2547 1783 2592 2158 2592 2274 
C 2592 2558 2349 2816 1926 2816 
C 1254 2816 288 2210 288 1073 
C 288 402 672 -64 1254 -64 
C 2125 -64 2675 609 2675 692 
C 2675 730 2637 762 2611 762 
C 2592 762 2586 756 2528 699 
C 2118 159 1510 64 1267 64 
C 902 64 710 350 710 822 
C 710 911 710 1071 806 1479 
L 1146 1479 
z
M 838 1600 
C 1114 2592 1722 2689 1926 2689 
C 2208 2689 2400 2522 2400 2277 
C 2400 1600 1376 1600 1107 1600 
L 838 1600 
z
" transform="scale(0.015625)"/>
       <path id="CMSY10-31" d="M 3251 1730 
C 2906 2166 2829 2262 2630 2422 
C 2272 2710 1914 2825 1587 2825 
C 838 2825 352 2122 352 1374 
C 352 639 826 -70 1562 -70 
C 2298 -70 2829 511 3142 1022 
C 3488 588 3565 492 3763 332 
C 4122 45 4480 -70 4806 -70 
C 5555 -70 6042 633 6042 1380 
C 6042 2115 5568 2825 4832 2825 
C 4096 2825 3565 2242 3251 1730 
z
M 3418 1514 
C 3680 1975 4154 2620 4877 2620 
C 5555 2620 5901 1955 5901 1380 
C 5901 753 5472 236 4909 236 
C 4538 236 4250 505 4115 638 
C 3955 811 3808 1009 3418 1514 
z
M 2976 1240 
C 2714 780 2240 134 1517 134 
C 838 134 493 799 493 1374 
C 493 2000 922 2518 1485 2518 
C 1856 2518 2144 2249 2278 2115 
C 2438 1943 2586 1744 2976 1240 
z
" transform="scale(0.015625)"/>
      </defs>
      <use xlink:href="#CMMI12-54" transform="translate(31.680971 41.344728) scale(0.697382)"/>
      <use xlink:href="#CMMI12-76" transform="translate(71.703326 30.884032) scale(0.498132)"/>
      <use xlink:href="#CMMI12-65" transform="translate(97.070905 30.884032) scale(0.498132)"/>
      <use xlink:href="#CMMI12-54" transform="translate(0 -34.355253) scale(0.697382)"/>
      <use xlink:href="#CMMI12-76" transform="translate(40.022356 -44.815949) scale(0.498132)"/>
      <use xlink:href="#CMMI12-65" transform="translate(65.389935 -44.815949) scale(0.498132)"/>
      <use xlink:href="#CMMI12-3b" transform="translate(87.995928 -44.815949) scale(0.498132)"/>
      <use xlink:href="#CMSY10-31" transform="translate(101.544516 -44.815949) scale(0.498132)"/>
      <path d="M 0 22.914133 
L 151.855986 22.914133 
L 151.855986 26.899083 
L 0 26.899083 
L 0 22.914133 
z
"/>
     </g>
    </g>
   </g>
   <g id="line2d_27">
    <path d="M 118.812028 411.047652 
L 187.176261 410.964832 
L 190.768959 410.720399 
L 226.695934 406.96718 
L 256.158431 404.37377 
L 304.357022 400.693189 
L 351.92465 397.394507 
L 382.750041 395.607713 
L 396.72985 394.831608 
L 428.963308 393.269866 
L 444.368959 392.736398 
L 445.499994 370.189939 
L 446.324789 282.304971 
L 447.149584 216.392033 
L 447.97438 171.618718 
L 448.799175 137.297131 
L 449.623971 109.055879 
L 450.448766 91.400833 
L 451.273561 80.386747 
L 452.098357 73.323304 
L 452.923152 69.07825 
L 453.747947 66.502651 
L 454.572743 65.270836 
L 455.397538 64.83747 
L 456.222333 65.605761 
L 457.871924 69.105998 
L 460.34631 76.054692 
L 461.171106 78.114814 
L 464.470287 87.706192 
L 466.944673 93.731191 
L 470.243854 100.515125 
L 472.718241 105.072572 
L 475.192627 109.16048 
L 477.667013 112.786484 
L 479.316603 115.177654 
L 481.790989 119.402708 
L 484.471832 124.86698 
L 486.637288 129.574237 
L 487.861115 132.271242 
L 490.626096 139.670246 
L 495.74249 154.990564 
L 497.754516 160.368153 
L 499.943611 165.515402 
L 502.326337 170.090545 
L 507.739723 177.56688 
L 510.808665 180.337999 
L 514.14356 182.505135 
L 517.767381 183.421421 
L 521.699059 183.326855 
L 525.957911 182.156959 
L 530.561375 180.518114 
L 535.520774 178.564655 
L 540.838727 176.678225 
L 546.498274 174.81039 
L 570.22785 166.370973 
L 576.166376 163.849882 
L 582.104903 161.082307 
L 588.043429 158.714397 
L 593.981956 157.003514 
L 599.920483 156.02597 
L 605.859009 155.409224 
L 611.797536 154.549891 
L 617.736062 152.956605 
L 623.674589 150.971272 
L 629.613115 149.23535 
L 635.551642 151.481836 
L 643.947475 164.159637 
L 652.343309 170.189544 
L 660.739142 174.570447 
L 677.530809 181.326791 
L 685.926642 185.601052 
L 694.322475 188.983539 
L 702.718309 191.535084 
L 711.114142 193.59844 
L 736.301642 199.079233 
L 753.093309 203.155599 
L 778.280809 206.672227 
L 786.676642 207.619504 
L 811.864142 210.179921 
L 820.259975 211.310048 
L 837.051642 212.406974 
L 837.051642 212.406974 
" clip-path="url(#pfadf6f9ced)" style="fill: none; stroke: #ff0000; stroke-width: 3; stroke-linecap: square"/>
   </g>
   <g id="patch_3">
    <path d="M 105.378695 617.04 
L 105.378695 7.2 
" style="fill: none; stroke: #000000; stroke-width: 0.8; stroke-linejoin: miter; stroke-linecap: square"/>
   </g>
   <g id="patch_4">
    <path d="M 830.778695 617.04 
L 830.778695 7.2 
" style="fill: none; stroke: #000000; stroke-width: 0.8; stroke-linejoin: miter; stroke-linecap: square"/>
   </g>
   <g id="patch_5">
    <path d="M 105.378695 617.04 
L 830.778695 617.04 
" style="fill: none; stroke: #000000; stroke-width: 0.8; stroke-linejoin: miter; stroke-linecap: square"/>
   </g>
   <g id="patch_6">
    <path d="M 105.378695 7.2 
L 830.778695 7.2 
" style="fill: none; stroke: #000000; stroke-width: 0.8; stroke-linejoin: miter; stroke-linecap: square"/>
   </g>
   <g id="legend_1">
    <g id="patch_7">
     <path d="M 611.712768 132.764702 
L 806.278695 132.764702 
Q 813.278695 132.764702 813.278695 125.764702 
L 813.278695 31.7 
Q 813.278695 24.7 806.278695 24.7 
L 611.712768 24.7 
Q 604.712768 24.7 604.712768 31.7 
L 604.712768 125.764702 
Q 604.712768 132.764702 611.712768 132.764702 
z
" style="fill: #ffffff; stroke: #cccccc; stroke-linejoin: miter"/>
    </g>
    <g id="patch_8">
     <path d="M 618.712768 63.2 
L 688.712768 63.2 
L 688.712768 38.7 
L 618.712768 38.7 
z
" style="fill: #99ccff; fill-opacity: 0.7"/>
    </g>
    <g id="text_16">
     <!-- $\mu \pm \sigma$ -->
     <g transform="translate(716.712768 63.2) scale(0.35 -0.35)">
      <defs>
       <path id="CMMI12-16" d="M 922 140 
C 1082 -6 1318 -64 1536 -64 
C 1946 -64 2227 208 2374 405 
C 2438 69 2707 -64 2931 -64 
C 3123 -64 3277 50 3392 277 
C 3494 493 3584 879 3584 903 
C 3584 935 3558 960 3520 960 
C 3462 960 3456 928 3430 834 
C 3334 461 3213 64 2950 64 
C 2765 64 2752 229 2752 358 
C 2752 504 2810 735 2854 926 
L 3034 1615 
C 3059 1737 3130 2023 3162 2139 
C 3200 2292 3270 2567 3270 2592 
C 3270 2688 3194 2752 3098 2752 
C 3040 2752 2906 2726 2854 2535 
L 2406 760 
C 2374 632 2374 619 2291 517 
C 2214 409 1965 64 1562 64 
C 1203 64 1088 326 1088 625 
C 1088 811 1146 1034 1171 1143 
L 1459 2293 
C 1491 2414 1542 2618 1542 2657 
C 1542 2759 1459 2816 1376 2816 
C 1318 2816 1178 2797 1126 2592 
L 198 -1107 
C 192 -1139 179 -1177 179 -1216 
C 179 -1312 256 -1376 352 -1376 
C 538 -1376 576 -1228 621 -1050 
L 922 140 
z
" transform="scale(0.015625)"/>
       <path id="CMSY10-6" d="M 2618 1984 
L 4397 1984 
C 4506 1984 4621 1984 4621 2112 
C 4621 2240 4506 2240 4397 2240 
L 2618 2240 
L 2618 4018 
C 2618 4121 2618 4256 2490 4256 
C 2362 4256 2362 4140 2362 4038 
L 2362 2240 
L 576 2240 
C 467 2240 352 2240 352 2112 
C 352 1984 467 1984 576 1984 
L 2362 1984 
L 2362 256 
L 576 256 
C 467 256 352 256 352 128 
C 352 0 467 0 576 0 
L 4397 0 
C 4506 0 4621 0 4621 128 
C 4621 256 4506 256 4397 256 
L 2618 256 
L 2618 1984 
z
" transform="scale(0.015625)"/>
       <path id="CMMI12-1b" d="M 3251 2408 
C 3334 2408 3546 2408 3546 2612 
C 3546 2752 3424 2752 3309 2752 
L 1894 2752 
C 934 2752 243 1686 243 932 
C 243 390 595 -64 1171 -64 
C 1926 -64 2752 747 2752 1705 
C 2752 1954 2694 2196 2541 2408 
L 3251 2408 
z
M 1178 64 
C 851 64 614 313 614 754 
C 614 1137 845 2408 1786 2408 
C 2061 2408 2368 2274 2368 1781 
C 2368 1558 2266 1021 2042 652 
C 1811 275 1466 64 1178 64 
z
" transform="scale(0.015625)"/>
      </defs>
      <use xlink:href="#CMMI12-16" transform="scale(0.996264)"/>
      <use xlink:href="#CMSY10-6" transform="translate(80.830628 0) scale(0.996264)"/>
      <use xlink:href="#CMMI12-1b" transform="translate(180.457303 0) scale(0.996264)"/>
     </g>
    </g>
    <g id="line2d_28">
     <path d="M 618.712768 99.732351 
L 653.712768 99.732351 
L 688.712768 99.732351 
" style="fill: none; stroke: #ff0000; stroke-width: 3; stroke-linecap: square"/>
    </g>
    <g id="text_17">
     <!-- $\mu$ -->
     <g transform="translate(716.712768 111.982351) scale(0.35 -0.35)">
      <use xlink:href="#CMMI12-16" transform="scale(0.996264)"/>
     </g>
    </g>
   </g>
  </g>
 </g>
 <defs>
  <clipPath id="pfadf6f9ced">
   <rect x="105.378695" y="7.2" width="725.4" height="609.84"/>
  </clipPath>
 </defs>
</svg>
