<?xml version="1.0" encoding="utf-8" standalone="no"?>
<!DOCTYPE svg PUBLIC "-//W3C//DTD SVG 1.1//EN"
  "http://www.w3.org/Graphics/SVG/1.1/DTD/svg11.dtd">
<svg xmlns:xlink="http://www.w3.org/1999/xlink" width="868.00106pt" height="703.183796pt" viewBox="0 0 868.00106 703.183796" xmlns="http://www.w3.org/2000/svg" version="1.1">
 <metadata>
  <rdf:RDF xmlns:dc="http://purl.org/dc/elements/1.1/" xmlns:cc="http://creativecommons.org/ns#" xmlns:rdf="http://www.w3.org/1999/02/22-rdf-syntax-ns#">
   <cc:Work>
    <dc:type rdf:resource="http://purl.org/dc/dcmitype/StillImage"/>
    <dc:date>2025-03-03T10:02:17.557077</dc:date>
    <dc:format>image/svg+xml</dc:format>
    <dc:creator>
     <cc:Agent>
      <dc:title>Matplotlib v3.5.3, https://matplotlib.org/</dc:title>
     </cc:Agent>
    </dc:creator>
   </cc:Work>
  </rdf:RDF>
 </metadata>
 <defs>
  <style type="text/css">*{stroke-linejoin: round; stroke-linecap: butt}</style>
 </defs>
 <g id="figure_1">
  <g id="patch_1">
   <path d="M 0 703.183796 
L 868.00106 703.183796 
L 868.00106 0 
L 0 0 
z
" style="fill: #ffffff"/>
  </g>
  <g id="axes_1">
   <g id="patch_2">
    <path d="M 135.40106 627.417748 
L 860.80106 627.417748 
L 860.80106 17.577748 
L 135.40106 17.577748 
z
" style="fill: #ffffff"/>
   </g>
   <g id="PolyCollection_1">
    <path d="M 148.834393 559.657748 
L 148.834393 559.657748 
L 167.091556 559.657748 
L 180.419404 559.657748 
L 190.148976 559.657748 
L 197.251961 559.657748 
L 202.437713 559.657748 
L 206.224103 559.657748 
L 208.989224 559.657748 
L 211.009132 559.657748 
L 212.4854 559.657748 
L 213.664132 559.657748 
L 214.832596 559.657748 
L 216.00106 559.657748 
L 217.198626 559.657748 
L 218.396192 559.657748 
L 219.593758 559.657748 
L 220.791323 559.657748 
L 221.988889 559.657748 
L 223.186455 559.657748 
L 224.384021 559.657748 
L 225.581587 559.657748 
L 226.779153 559.657748 
L 227.976718 559.657748 
L 229.174284 559.657748 
L 230.37185 559.657748 
L 231.569416 559.657748 
L 232.766982 559.657748 
L 233.964548 559.657748 
L 235.162114 559.657748 
L 236.359679 559.657748 
L 237.557245 559.657748 
L 238.754811 559.657748 
L 239.952377 559.657748 
L 241.149943 559.657748 
L 242.347509 559.657748 
L 243.545075 559.657748 
L 244.74264 559.657748 
L 245.940206 559.657748 
L 247.137772 559.657748 
L 248.335338 559.657748 
L 249.532904 559.657748 
L 250.73047 559.657748 
L 251.928035 559.657748 
L 253.125601 559.657748 
L 254.323167 559.657748 
L 255.520733 559.657748 
L 256.718299 559.657748 
L 257.915866 559.657748 
L 259.143602 559.657748 
L 260.415204 559.657748 
L 261.732564 559.657748 
L 263.098204 559.657748 
L 264.514706 559.657748 
L 265.983555 559.657748 
L 267.506519 559.657748 
L 269.085661 559.657748 
L 270.723246 559.657748 
L 272.420705 559.657748 
L 274.179812 559.657748 
L 276.003041 559.657748 
L 277.893724 559.657748 
L 279.855619 559.657748 
L 281.887838 559.657748 
L 283.994951 559.657748 
L 286.180796 559.657748 
L 288.445503 559.657748 
L 290.794897 559.657748 
L 293.230282 559.657748 
L 295.754546 559.657748 
L 298.372767 559.657748 
L 301.087253 559.657748 
L 303.901395 559.657748 
L 306.819054 559.657748 
L 309.844177 559.657748 
L 312.980671 559.657748 
L 316.232504 559.657748 
L 319.603974 559.657748 
L 323.100106 559.657748 
L 326.724795 559.657748 
L 330.482783 559.657748 
L 334.379387 559.657748 
L 338.419659 559.657748 
L 342.608436 559.657748 
L 346.951477 559.657748 
L 351.45464 559.657748 
L 356.1238 559.657748 
L 360.964856 559.657748 
L 365.958678 559.657748 
L 371.0965 559.657748 
L 376.423458 559.657748 
L 381.947015 559.657748 
L 387.674039 559.657748 
L 393.612158 559.657748 
L 399.7692 559.657748 
L 406.153132 559.657748 
L 412.772406 559.657748 
L 419.635807 559.657748 
L 426.752215 559.657748 
L 434.130915 559.657748 
L 441.781638 559.657748 
L 449.334496 559.657748 
L 454.971416 559.657748 
L 458.985672 559.657748 
L 461.844867 559.657748 
L 463.881803 559.657748 
L 465.333316 559.657748 
L 466.474083 559.657748 
L 467.605118 559.657748 
L 468.736152 559.657748 
L 469.867187 559.657748 
L 470.998221 559.657748 
L 472.129255 559.657748 
L 473.26029 559.657748 
L 474.391324 559.657748 
L 475.522359 559.626479 
L 476.347154 558.928229 
L 477.171949 557.555097 
L 477.996745 555.670238 
L 478.82154 553.492741 
L 479.646335 551.710353 
L 480.471131 550.783079 
L 481.295926 550.305192 
L 482.120721 550.152669 
L 482.945517 550.102619 
L 483.770312 550.126275 
L 484.595108 550.172129 
L 485.419903 550.21433 
L 486.244698 550.269231 
L 487.069494 550.29811 
L 487.894289 550.34022 
L 488.719084 550.402296 
L 489.54388 550.47584 
L 490.368675 550.549947 
L 491.19347 550.630134 
L 492.018266 550.707216 
L 492.843061 550.787147 
L 493.667856 550.872161 
L 494.492652 550.966026 
L 495.317447 551.059077 
L 496.142243 551.147771 
L 496.967038 551.229269 
L 497.791833 551.313687 
L 498.616629 551.38801 
L 499.441424 551.454227 
L 500.266219 551.515681 
L 501.091015 551.577433 
L 501.91581 551.63813 
L 502.740605 551.69619 
L 503.565401 551.749325 
L 504.390196 551.807915 
L 505.214991 551.870854 
L 506.039787 551.938035 
L 506.864582 552.008782 
L 507.689378 552.080865 
L 508.514173 552.156257 
L 509.338968 552.240382 
L 510.163764 552.335906 
L 510.988559 552.436493 
L 511.813354 552.546938 
L 512.646596 552.663109 
L 513.53156 552.798755 
L 514.494197 552.952441 
L 515.532138 553.128185 
L 516.659653 553.343134 
L 517.883479 553.576303 
L 519.209351 553.857234 
L 520.648461 554.155111 
L 522.213559 554.503927 
L 523.914959 554.864718 
L 525.764855 555.22147 
L 527.776881 555.54436 
L 529.965976 555.817739 
L 532.348702 556.026616 
L 534.942126 556.175717 
L 537.762087 556.314857 
L 540.83103 556.393022 
L 544.165925 556.385254 
L 547.789746 556.293102 
L 551.721424 556.128906 
L 555.980275 555.868759 
L 560.58374 555.513885 
L 565.543139 555.122492 
L 570.861092 554.544235 
L 576.520639 553.802227 
L 582.434635 552.879004 
L 588.373162 551.932278 
L 594.311688 551.077819 
L 600.250215 550.266778 
L 606.188741 549.332519 
L 612.127268 548.232257 
L 618.065794 547.114216 
L 624.004321 545.940494 
L 629.942848 544.853867 
L 635.881374 543.718292 
L 641.819901 542.838237 
L 647.758427 541.919537 
L 653.696954 541.129257 
L 659.63548 540.540535 
L 665.574007 540.475775 
L 673.96984 541.004234 
L 682.365674 541.1691 
L 690.761507 541.325472 
L 699.15734 541.51107 
L 707.553174 541.705411 
L 715.949007 541.903314 
L 724.34484 542.073087 
L 732.740674 542.217204 
L 741.136507 542.347095 
L 749.53234 542.474863 
L 757.928174 542.601703 
L 766.324007 542.717396 
L 774.71984 542.825383 
L 783.115674 542.93332 
L 791.511507 543.022257 
L 799.90734 543.107738 
L 808.303174 543.190045 
L 816.699007 543.271169 
L 825.09484 543.345381 
L 833.490674 543.417719 
L 841.886507 543.481099 
L 850.28234 543.547897 
L 858.678174 543.602005 
L 867.074007 543.635202 
L 867.074007 570.868651 
L 867.074007 570.868651 
L 858.678174 570.877183 
L 850.28234 570.896089 
L 841.886507 570.905651 
L 833.490674 570.927527 
L 825.09484 570.953175 
L 816.699007 570.983582 
L 808.303174 571.007666 
L 799.90734 571.032005 
L 791.511507 571.055646 
L 783.115674 571.082972 
L 774.71984 571.080796 
L 766.324007 571.085559 
L 757.928174 571.093684 
L 749.53234 571.10659 
L 741.136507 571.126547 
L 732.740674 571.141701 
L 724.34484 571.13279 
L 715.949007 571.089255 
L 707.553174 571.04984 
L 699.15734 571.077938 
L 690.761507 571.066161 
L 682.365674 570.991182 
L 673.96984 570.838362 
L 665.574007 570.352844 
L 659.63548 570.312143 
L 653.696954 570.539901 
L 647.758427 570.383237 
L 641.819901 570.164064 
L 635.881374 569.596757 
L 629.942848 568.760973 
L 624.004321 568.064696 
L 618.065794 567.449815 
L 612.127268 566.958404 
L 606.188741 566.466094 
L 600.250215 565.968651 
L 594.311688 565.444116 
L 588.373162 564.7869 
L 582.434635 564.053645 
L 576.520639 563.296332 
L 570.861092 562.635638 
L 565.543139 562.139207 
L 560.58374 561.847198 
L 555.980275 561.550974 
L 551.721424 561.34716 
L 547.789746 561.208088 
L 544.165925 561.083786 
L 540.83103 560.979737 
L 537.762087 560.903779 
L 534.942126 560.807854 
L 532.348702 560.74321 
L 529.965976 560.678451 
L 527.776881 560.619447 
L 525.764855 560.558491 
L 523.914959 560.471322 
L 522.213559 560.398703 
L 520.648461 560.330699 
L 519.209351 560.275189 
L 517.883479 560.256136 
L 516.659653 560.254199 
L 515.532138 560.22899 
L 514.494197 560.215606 
L 513.53156 560.192231 
L 512.646596 560.156209 
L 511.813354 560.129988 
L 510.988559 560.087723 
L 510.163764 560.07061 
L 509.338968 560.043193 
L 508.514173 560.014088 
L 507.689378 559.991632 
L 506.864582 559.968453 
L 506.039787 559.944473 
L 505.214991 559.921081 
L 504.390196 559.897212 
L 503.565401 559.871206 
L 502.740605 559.84375 
L 501.91581 559.819871 
L 501.091015 559.80068 
L 500.266219 559.783079 
L 499.441424 559.767925 
L 498.616629 559.760556 
L 497.791833 559.760955 
L 496.967038 559.766623 
L 496.142243 559.782262 
L 495.317447 559.797487 
L 494.492652 559.820704 
L 493.667856 559.843371 
L 492.843061 559.860995 
L 492.018266 559.873021 
L 491.19347 559.888299 
L 490.368675 559.905656 
L 489.54388 559.917801 
L 488.719084 559.923114 
L 487.894289 559.917529 
L 487.069494 559.924958 
L 486.244698 559.934016 
L 485.419903 559.948893 
L 484.595108 560.005787 
L 483.770312 560.089815 
L 482.945517 560.197848 
L 482.120721 560.340847 
L 481.295926 560.538874 
L 480.471131 560.776711 
L 479.646335 560.946443 
L 478.82154 561.003623 
L 477.996745 560.711522 
L 477.171949 560.425667 
L 476.347154 559.933884 
L 475.522359 559.663518 
L 474.391324 559.657748 
L 473.26029 559.657748 
L 472.129255 559.657748 
L 470.998221 559.657748 
L 469.867187 559.657748 
L 468.736152 559.657748 
L 467.605118 559.657748 
L 466.474083 559.657748 
L 465.333316 559.657748 
L 463.881803 559.657748 
L 461.844867 559.657748 
L 458.985672 559.657748 
L 454.971416 559.657748 
L 449.334496 559.657748 
L 441.781638 559.657748 
L 434.130915 559.657748 
L 426.752215 559.657748 
L 419.635807 559.657748 
L 412.772406 559.657748 
L 406.153132 559.657748 
L 399.7692 559.657748 
L 393.612158 559.657748 
L 387.674039 559.657748 
L 381.947015 559.657748 
L 376.423458 559.657748 
L 371.0965 559.657748 
L 365.958678 559.657748 
L 360.964856 559.657748 
L 356.1238 559.657748 
L 351.45464 559.657748 
L 346.951477 559.657748 
L 342.608436 559.657748 
L 338.419659 559.657748 
L 334.379387 559.657748 
L 330.482783 559.657748 
L 326.724795 559.657748 
L 323.100106 559.657748 
L 319.603974 559.657748 
L 316.232504 559.657748 
L 312.980671 559.657748 
L 309.844177 559.657748 
L 306.819054 559.657748 
L 303.901395 559.657748 
L 301.087253 559.657748 
L 298.372767 559.657748 
L 295.754546 559.657748 
L 293.230282 559.657748 
L 290.794897 559.657748 
L 288.445503 559.657748 
L 286.180796 559.657748 
L 283.994951 559.657748 
L 281.887838 559.657748 
L 279.855619 559.657748 
L 277.893724 559.657748 
L 276.003041 559.657748 
L 274.179812 559.657748 
L 272.420705 559.657748 
L 270.723246 559.657748 
L 269.085661 559.657748 
L 267.506519 559.657748 
L 265.983555 559.657748 
L 264.514706 559.657748 
L 263.098204 559.657748 
L 261.732564 559.657748 
L 260.415204 559.657748 
L 259.143602 559.657748 
L 257.915866 559.657748 
L 256.718299 559.657748 
L 255.520733 559.657748 
L 254.323167 559.657748 
L 253.125601 559.657748 
L 251.928035 559.657748 
L 250.73047 559.657748 
L 249.532904 559.657748 
L 248.335338 559.657748 
L 247.137772 559.657748 
L 245.940206 559.657748 
L 244.74264 559.657748 
L 243.545075 559.657748 
L 242.347509 559.657748 
L 241.149943 559.657748 
L 239.952377 559.657748 
L 238.754811 559.657748 
L 237.557245 559.657748 
L 236.359679 559.657748 
L 235.162114 559.657748 
L 233.964548 559.657748 
L 232.766982 559.657748 
L 231.569416 559.657748 
L 230.37185 559.657748 
L 229.174284 559.657748 
L 227.976718 559.657748 
L 226.779153 559.657748 
L 225.581587 559.657748 
L 224.384021 559.657748 
L 223.186455 559.657748 
L 221.988889 559.657748 
L 220.791323 559.657748 
L 219.593758 559.657748 
L 218.396192 559.657748 
L 217.198626 559.657748 
L 216.00106 559.657748 
L 214.832596 559.657748 
L 213.664132 559.657748 
L 212.4854 559.657748 
L 211.009132 559.657748 
L 208.989224 559.657748 
L 206.224103 559.657748 
L 202.437713 559.657748 
L 197.251961 559.657748 
L 190.148976 559.657748 
L 180.419404 559.657748 
L 167.091556 559.657748 
L 148.834393 559.657748 
z
" clip-path="url(#p8861a5e4ac)" style="fill: #99ccff; fill-opacity: 0.7"/>
   </g>
   <g id="PolyCollection_2">
    <path d="M 148.834393 559.657748 
L 148.834393 559.657748 
L 167.091556 559.657748 
L 180.419404 559.657748 
L 190.148976 559.657748 
L 197.251961 559.657748 
L 202.437713 559.657748 
L 206.224103 559.657748 
L 208.989224 559.657748 
L 211.009132 559.657748 
L 212.4854 559.657748 
L 213.664132 559.657748 
L 214.832596 559.657748 
L 216.00106 559.657748 
L 217.198626 559.657748 
L 218.396192 559.657748 
L 219.593758 559.657748 
L 220.791323 559.657748 
L 221.988889 559.657748 
L 223.186455 559.657748 
L 224.384021 559.657748 
L 225.581587 559.657748 
L 226.779153 559.657748 
L 227.976718 559.657748 
L 229.174284 559.657748 
L 230.37185 559.657748 
L 231.569416 559.657748 
L 232.766982 559.657748 
L 233.964548 559.657748 
L 235.162114 559.657748 
L 236.359679 559.657748 
L 237.557245 559.657748 
L 238.754811 559.657748 
L 239.952377 559.657748 
L 241.149943 559.657748 
L 242.347509 559.657748 
L 243.545075 559.657748 
L 244.74264 559.657748 
L 245.940206 559.657748 
L 247.137772 559.657748 
L 248.335338 559.657748 
L 249.532904 559.657748 
L 250.73047 559.657748 
L 251.928035 559.657748 
L 253.125601 559.657748 
L 254.323167 559.657748 
L 255.520733 559.657748 
L 256.718299 559.657748 
L 257.915866 559.657748 
L 259.143602 559.657747 
L 260.415204 559.657747 
L 261.732564 559.657747 
L 263.098204 559.657747 
L 264.514706 559.657747 
L 265.983555 559.657747 
L 267.506519 559.657747 
L 269.085661 559.657747 
L 270.723246 559.657747 
L 272.420705 559.657747 
L 274.179812 559.657747 
L 276.003041 559.657747 
L 277.893724 559.657747 
L 279.855619 559.657747 
L 281.887838 559.657747 
L 283.994951 559.657747 
L 286.180796 559.657747 
L 288.445503 559.657747 
L 290.794897 559.657747 
L 293.230282 559.657747 
L 295.754546 559.657747 
L 298.372767 559.657747 
L 301.087253 559.657747 
L 303.901395 559.657747 
L 306.819054 559.657747 
L 309.844177 559.657747 
L 312.980671 559.657747 
L 316.232504 559.657747 
L 319.603974 559.657747 
L 323.100106 559.657747 
L 326.724795 559.657747 
L 330.482783 559.657747 
L 334.379387 559.657747 
L 338.419659 559.657747 
L 342.608436 559.657747 
L 346.951477 559.657747 
L 351.45464 559.657747 
L 356.1238 559.657747 
L 360.964856 559.657747 
L 365.958678 559.657746 
L 371.0965 559.657746 
L 376.423458 559.657746 
L 381.947015 559.657746 
L 387.674039 559.657746 
L 393.612158 559.657746 
L 399.7692 559.657746 
L 406.153132 559.657745 
L 412.772406 559.657745 
L 419.635807 559.657745 
L 426.752215 559.657745 
L 434.130915 559.657745 
L 441.781638 559.657744 
L 449.334496 559.657744 
L 454.971416 559.657744 
L 458.985672 559.657744 
L 461.844867 559.657744 
L 463.881803 559.657744 
L 465.333316 559.657743 
L 466.474083 559.657743 
L 467.605118 559.657743 
L 468.736152 559.657743 
L 469.867187 559.657743 
L 470.998221 559.657743 
L 472.129255 559.657743 
L 473.26029 559.657743 
L 474.391324 559.65774 
L 475.522359 559.304796 
L 476.347154 552.459665 
L 477.171949 538.027172 
L 477.996745 516.855072 
L 478.82154 490.185238 
L 479.646335 459.29589 
L 480.471131 432.533155 
L 481.295926 409.560052 
L 482.120721 391.325586 
L 482.945517 374.896644 
L 483.770312 361.464755 
L 484.595108 349.710489 
L 485.419903 338.378029 
L 486.244698 327.543507 
L 487.069494 314.999319 
L 487.894289 306.058131 
L 488.719084 297.476878 
L 489.54388 289.85695 
L 490.368675 283.420466 
L 491.19347 277.975394 
L 492.018266 271.93518 
L 492.843061 266.582994 
L 493.667856 261.078563 
L 494.492652 255.953299 
L 495.317447 252.04953 
L 496.142243 248.221804 
L 496.967038 244.837234 
L 497.791833 241.912018 
L 498.616629 239.093892 
L 499.441424 236.237983 
L 500.266219 233.562826 
L 501.091015 231.040988 
L 501.91581 228.724693 
L 502.740605 226.560923 
L 503.565401 224.459477 
L 504.390196 222.499408 
L 505.214991 220.746398 
L 506.039787 219.298712 
L 506.864582 217.922187 
L 507.689378 216.956456 
L 508.514173 216.098501 
L 509.338968 214.986931 
L 510.163764 214.025644 
L 510.988559 212.988634 
L 511.813354 211.928584 
L 512.646596 210.657088 
L 513.53156 209.337833 
L 514.494197 208.080676 
L 515.532138 206.729444 
L 516.659653 205.464866 
L 517.883479 204.109824 
L 519.209351 202.655166 
L 520.648461 201.321274 
L 522.213559 200.139924 
L 523.914959 199.374117 
L 525.764855 198.82874 
L 527.776881 198.483597 
L 529.965976 198.317461 
L 532.348702 198.525179 
L 534.942126 198.95417 
L 537.762087 200.488012 
L 540.83103 202.950272 
L 544.165925 203.948601 
L 547.789746 204.350651 
L 551.721424 203.972562 
L 555.980275 203.096911 
L 560.58374 201.413539 
L 565.543139 198.988416 
L 570.861092 196.40045 
L 576.520639 193.745753 
L 582.434635 190.809448 
L 588.373162 188.12996 
L 594.311688 184.998409 
L 600.250215 181.083593 
L 606.188741 175.061303 
L 612.127268 167.326209 
L 618.065794 159.385327 
L 624.004321 152.139607 
L 629.942848 146.522242 
L 635.881374 141.82144 
L 641.819901 136.314789 
L 647.758427 128.115476 
L 653.696954 117.6029 
L 659.63548 108.163909 
L 665.574007 102.846395 
L 673.96984 101.718086 
L 682.365674 101.175164 
L 690.761507 100.689811 
L 699.15734 100.19821 
L 707.553174 99.644517 
L 715.949007 98.953386 
L 724.34484 98.393301 
L 732.740674 97.974996 
L 741.136507 97.642239 
L 749.53234 97.357603 
L 757.928174 97.070497 
L 766.324007 96.779344 
L 774.71984 96.472577 
L 783.115674 96.17707 
L 791.511507 96.001185 
L 799.90734 95.828485 
L 808.303174 95.6882 
L 816.699007 95.572436 
L 825.09484 95.475117 
L 833.490674 95.350365 
L 841.886507 95.218714 
L 850.28234 95.053145 
L 858.678174 94.946147 
L 867.074007 94.860348 
L 867.074007 253.401886 
L 867.074007 253.401886 
L 858.678174 253.460495 
L 850.28234 253.52377 
L 841.886507 253.637918 
L 833.490674 253.715541 
L 825.09484 253.782941 
L 816.699007 253.822037 
L 808.303174 253.877522 
L 799.90734 253.961646 
L 791.511507 254.073877 
L 783.115674 254.191919 
L 774.71984 254.426028 
L 766.324007 254.669518 
L 757.928174 254.896113 
L 749.53234 255.118261 
L 741.136507 255.333297 
L 732.740674 255.587262 
L 724.34484 255.915987 
L 715.949007 256.380769 
L 707.553174 256.953151 
L 699.15734 257.276676 
L 690.761507 257.617551 
L 682.365674 258.092181 
L 673.96984 258.688428 
L 665.574007 259.873651 
L 659.63548 265.677074 
L 653.696954 276.205675 
L 647.758427 288.752963 
L 641.819901 298.720525 
L 635.881374 305.802053 
L 629.942848 311.997297 
L 624.004321 318.81064 
L 618.065794 327.120228 
L 612.127268 336.018937 
L 606.188741 344.538279 
L 600.250215 350.906435 
L 594.311688 354.825244 
L 588.373162 357.757374 
L 582.434635 359.908803 
L 576.520639 361.851676 
L 570.861092 363.036977 
L 565.543139 363.736374 
L 560.58374 363.922312 
L 555.980275 363.195788 
L 551.721424 361.660006 
L 547.789746 359.62429 
L 544.165925 357.026605 
L 540.83103 354.190853 
L 537.762087 350.290767 
L 534.942126 347.440596 
L 532.348702 345.852651 
L 529.965976 344.722234 
L 527.776881 344.204224 
L 525.764855 344.029111 
L 523.914959 344.18913 
L 522.213559 344.69812 
L 520.648461 345.743811 
L 519.209351 347.040647 
L 517.883479 348.570143 
L 516.659653 350.075443 
L 515.532138 351.56476 
L 514.494197 353.202681 
L 513.53156 354.765661 
L 512.646596 356.368034 
L 511.813354 357.891142 
L 510.988559 359.205195 
L 510.163764 360.570806 
L 509.338968 361.802474 
L 508.514173 363.151571 
L 507.689378 364.216041 
L 506.864582 365.398865 
L 506.039787 366.973483 
L 505.214991 368.62662 
L 504.390196 370.545358 
L 503.565401 372.633897 
L 502.740605 374.762528 
L 501.91581 377.088727 
L 501.091015 379.610064 
L 500.266219 382.389274 
L 499.441424 385.307554 
L 498.616629 388.539269 
L 497.791833 391.789962 
L 496.967038 395.189004 
L 496.142243 399.034558 
L 495.317447 403.266826 
L 494.492652 407.570182 
L 493.667856 412.9975 
L 492.843061 418.547808 
L 492.018266 423.745758 
L 491.19347 429.349351 
L 490.368675 434.205077 
L 489.54388 439.667439 
L 488.719084 445.953858 
L 487.894289 452.504518 
L 487.069494 459.210298 
L 486.244698 468.542027 
L 485.419903 475.850321 
L 484.595108 483.351536 
L 483.770312 490.749783 
L 482.945517 498.88625 
L 482.120721 508.306405 
L 481.295926 518.984154 
L 480.471131 530.321496 
L 479.646335 543.694127 
L 478.82154 557.39053 
L 477.996745 563.380975 
L 477.171949 564.909208 
L 476.347154 561.716406 
L 475.522359 559.70065 
L 474.391324 559.657753 
L 473.26029 559.65775 
L 472.129255 559.65775 
L 470.998221 559.65775 
L 469.867187 559.65775 
L 468.736152 559.65775 
L 467.605118 559.65775 
L 466.474083 559.65775 
L 465.333316 559.657749 
L 463.881803 559.657749 
L 461.844867 559.657749 
L 458.985672 559.657749 
L 454.971416 559.657749 
L 449.334496 559.657749 
L 441.781638 559.657749 
L 434.130915 559.657749 
L 426.752215 559.657749 
L 419.635807 559.657749 
L 412.772406 559.657749 
L 406.153132 559.657749 
L 399.7692 559.657748 
L 393.612158 559.657748 
L 387.674039 559.657748 
L 381.947015 559.657748 
L 376.423458 559.657748 
L 371.0965 559.657748 
L 365.958678 559.657748 
L 360.964856 559.657748 
L 356.1238 559.657748 
L 351.45464 559.657748 
L 346.951477 559.657748 
L 342.608436 559.657748 
L 338.419659 559.657748 
L 334.379387 559.657748 
L 330.482783 559.657748 
L 326.724795 559.657748 
L 323.100106 559.657748 
L 319.603974 559.657748 
L 316.232504 559.657748 
L 312.980671 559.657748 
L 309.844177 559.657748 
L 306.819054 559.657748 
L 303.901395 559.657748 
L 301.087253 559.657748 
L 298.372767 559.657748 
L 295.754546 559.657748 
L 293.230282 559.657748 
L 290.794897 559.657748 
L 288.445503 559.657748 
L 286.180796 559.657748 
L 283.994951 559.657748 
L 281.887838 559.657748 
L 279.855619 559.657748 
L 277.893724 559.657748 
L 276.003041 559.657748 
L 274.179812 559.657748 
L 272.420705 559.657748 
L 270.723246 559.657748 
L 269.085661 559.657748 
L 267.506519 559.657748 
L 265.983555 559.657748 
L 264.514706 559.657748 
L 263.098204 559.657748 
L 261.732564 559.657748 
L 260.415204 559.657748 
L 259.143602 559.657748 
L 257.915866 559.657748 
L 256.718299 559.657748 
L 255.520733 559.657748 
L 254.323167 559.657748 
L 253.125601 559.657748 
L 251.928035 559.657748 
L 250.73047 559.657748 
L 249.532904 559.657748 
L 248.335338 559.657748 
L 247.137772 559.657748 
L 245.940206 559.657748 
L 244.74264 559.657748 
L 243.545075 559.657748 
L 242.347509 559.657748 
L 241.149943 559.657748 
L 239.952377 559.657748 
L 238.754811 559.657748 
L 237.557245 559.657748 
L 236.359679 559.657748 
L 235.162114 559.657748 
L 233.964548 559.657748 
L 232.766982 559.657748 
L 231.569416 559.657748 
L 230.37185 559.657748 
L 229.174284 559.657748 
L 227.976718 559.657748 
L 226.779153 559.657748 
L 225.581587 559.657748 
L 224.384021 559.657748 
L 223.186455 559.657748 
L 221.988889 559.657748 
L 220.791323 559.657748 
L 219.593758 559.657748 
L 218.396192 559.657748 
L 217.198626 559.657748 
L 216.00106 559.657748 
L 214.832596 559.657748 
L 213.664132 559.657748 
L 212.4854 559.657748 
L 211.009132 559.657748 
L 208.989224 559.657748 
L 206.224103 559.657748 
L 202.437713 559.657748 
L 197.251961 559.657748 
L 190.148976 559.657748 
L 180.419404 559.657748 
L 167.091556 559.657748 
L 148.834393 559.657748 
z
" clip-path="url(#p8861a5e4ac)" style="fill: #008000; fill-opacity: 0.2"/>
   </g>
   <g id="PolyCollection_3">
    <path d="M 148.834393 559.657748 
L 148.834393 559.657748 
L 167.091556 559.657748 
L 180.419404 559.657748 
L 190.148976 559.657748 
L 197.251961 559.657748 
L 202.437713 559.657748 
L 206.224103 559.657748 
L 208.989224 559.657748 
L 211.009132 559.657748 
L 212.4854 559.657748 
L 213.664132 559.657748 
L 214.832596 559.657748 
L 216.00106 559.657748 
L 217.198626 559.657748 
L 218.396192 559.657748 
L 219.593758 559.657748 
L 220.791323 559.657748 
L 221.988889 559.657748 
L 223.186455 559.657748 
L 224.384021 559.657748 
L 225.581587 559.657748 
L 226.779153 559.657748 
L 227.976718 559.657748 
L 229.174284 559.657748 
L 230.37185 559.657748 
L 231.569416 559.657748 
L 232.766982 559.657748 
L 233.964548 559.657748 
L 235.162114 559.657748 
L 236.359679 559.657748 
L 237.557245 559.657748 
L 238.754811 559.657748 
L 239.952377 559.657748 
L 241.149943 559.657748 
L 242.347509 559.657748 
L 243.545075 559.657748 
L 244.74264 559.657748 
L 245.940206 559.657748 
L 247.137772 559.657748 
L 248.335338 559.657748 
L 249.532904 559.657748 
L 250.73047 559.657748 
L 251.928035 559.657748 
L 253.125601 559.657748 
L 254.323167 559.657748 
L 255.520733 559.657748 
L 256.718299 559.657748 
L 257.915866 559.657748 
L 259.143602 559.657748 
L 260.415204 559.657748 
L 261.732564 559.657748 
L 263.098204 559.657748 
L 264.514706 559.657748 
L 265.983555 559.657748 
L 267.506519 559.657748 
L 269.085661 559.657748 
L 270.723246 559.657748 
L 272.420705 559.657748 
L 274.179812 559.657748 
L 276.003041 559.657748 
L 277.893724 559.657748 
L 279.855619 559.657748 
L 281.887838 559.657748 
L 283.994951 559.657748 
L 286.180796 559.657748 
L 288.445503 559.657748 
L 290.794897 559.657748 
L 293.230282 559.657748 
L 295.754546 559.657748 
L 298.372767 559.657748 
L 301.087253 559.657748 
L 303.901395 559.657748 
L 306.819054 559.657748 
L 309.844177 559.657748 
L 312.980671 559.657748 
L 316.232504 559.657748 
L 319.603974 559.657748 
L 323.100106 559.657748 
L 326.724795 559.657748 
L 330.482783 559.657748 
L 334.379387 559.657748 
L 338.419659 559.657748 
L 342.608436 559.657748 
L 346.951477 559.657748 
L 351.45464 559.657748 
L 356.1238 559.657748 
L 360.964856 559.657748 
L 365.958678 559.657748 
L 371.0965 559.657748 
L 376.423458 559.657748 
L 381.947015 559.657748 
L 387.674039 559.657748 
L 393.612158 559.657748 
L 399.7692 559.657748 
L 406.153132 559.657748 
L 412.772406 559.657748 
L 419.635807 559.657748 
L 426.752215 559.657748 
L 434.130915 559.657748 
L 441.781638 559.657748 
L 449.334496 559.657748 
L 454.971416 559.657748 
L 458.985672 559.657748 
L 461.844867 559.657748 
L 463.881803 559.657748 
L 465.333316 559.657748 
L 466.474083 559.657748 
L 467.605118 559.657748 
L 468.736152 559.657748 
L 469.867187 559.657748 
L 470.998221 559.657748 
L 472.129255 559.657748 
L 473.26029 559.657748 
L 474.391324 559.657748 
L 475.522359 559.51921 
L 476.347154 555.369457 
L 477.171949 547.293462 
L 477.996745 535.076205 
L 478.82154 519.809604 
L 479.646335 503.28379 
L 480.471131 489.820089 
L 481.295926 478.811251 
L 482.120721 470.05335 
L 482.945517 461.78814 
L 483.770312 454.918675 
L 484.595108 448.871681 
L 485.419903 443.010578 
L 486.244698 437.266712 
L 487.069494 430.503259 
L 487.894289 425.546678 
L 488.719084 420.757497 
L 489.54388 416.305629 
L 490.368675 412.45408 
L 491.19347 409.175367 
L 492.018266 405.576755 
L 492.843061 402.359681 
L 493.667856 399.051059 
L 494.492652 395.952394 
L 495.317447 393.492941 
L 496.142243 391.073231 
L 496.967038 388.9511 
L 497.791833 387.131942 
L 498.616629 385.390924 
L 499.441424 383.642018 
L 500.266219 382.044427 
L 501.091015 380.549217 
L 501.91581 379.229031 
L 502.740605 378.054799 
L 503.565401 377.038747 
L 504.390196 376.08521 
L 505.214991 375.274635 
L 506.039787 374.678699 
L 506.864582 374.114074 
L 507.689378 373.815017 
L 508.514173 373.595767 
L 509.338968 373.281194 
L 510.163764 373.031706 
L 510.988559 372.727778 
L 511.813354 372.477608 
L 512.646596 372.113834 
L 513.53156 371.703839 
L 514.494197 371.300278 
L 515.532138 370.86942 
L 516.659653 370.563901 
L 517.883479 370.240239 
L 519.209351 369.952032 
L 520.648461 369.804044 
L 522.213559 369.836691 
L 523.914959 370.051381 
L 525.764855 370.427119 
L 527.776881 370.944789 
L 529.965976 371.554569 
L 532.348702 372.312397 
L 534.942126 373.208959 
L 537.762087 374.748589 
L 540.83103 376.868514 
L 544.165925 378.505654 
L 547.789746 380.382916 
L 551.721424 382.092474 
L 555.980275 383.638497 
L 560.58374 384.840228 
L 565.543139 385.690628 
L 570.861092 386.282934 
L 576.520639 386.300087 
L 582.434635 385.889127 
L 588.373162 384.969433 
L 594.311688 383.444571 
L 600.250215 382.097817 
L 606.188741 380.501467 
L 612.127268 379.032191 
L 618.065794 377.456596 
L 624.004321 375.749433 
L 629.942848 373.835493 
L 635.881374 371.566519 
L 641.819901 369.641137 
L 647.758427 368.688536 
L 653.696954 368.429653 
L 659.63548 368.385826 
L 665.574007 367.725121 
L 673.96984 367.119191 
L 682.365674 366.928482 
L 690.761507 366.302401 
L 699.15734 365.478826 
L 707.553174 364.584057 
L 715.949007 364.254895 
L 724.34484 364.123653 
L 732.740674 363.931717 
L 741.136507 363.667081 
L 749.53234 363.428093 
L 757.928174 363.229242 
L 766.324007 363.063517 
L 774.71984 362.918307 
L 783.115674 362.791164 
L 791.511507 362.567742 
L 799.90734 362.355253 
L 808.303174 362.136582 
L 816.699007 361.930552 
L 825.09484 361.71344 
L 833.490674 361.537495 
L 841.886507 361.388752 
L 850.28234 361.292454 
L 858.678174 361.206193 
L 867.074007 361.157978 
L 867.074007 472.050333 
L 867.074007 472.050333 
L 858.678174 471.952993 
L 850.28234 471.793537 
L 841.886507 471.594583 
L 833.490674 471.396438 
L 825.09484 471.13645 
L 816.699007 470.873929 
L 808.303174 470.568646 
L 799.90734 470.2698 
L 791.511507 469.939542 
L 783.115674 469.608768 
L 774.71984 469.254635 
L 766.324007 468.877318 
L 757.928174 468.456842 
L 749.53234 467.981398 
L 741.136507 467.493763 
L 732.740674 466.995158 
L 724.34484 466.477454 
L 715.949007 465.886752 
L 707.553174 465.148331 
L 699.15734 463.989228 
L 690.761507 462.792955 
L 682.365674 461.863859 
L 673.96984 461.568154 
L 665.574007 459.970988 
L 659.63548 458.874035 
L 653.696954 457.145864 
L 647.758427 457.423847 
L 641.819901 457.367169 
L 635.881374 457.17316 
L 629.942848 455.973273 
L 624.004321 454.677046 
L 618.065794 453.752546 
L 612.127268 453.126308 
L 606.188741 452.63479 
L 600.250215 452.304972 
L 594.311688 451.529223 
L 588.373162 451.068516 
L 582.434635 450.490653 
L 576.520639 450.688457 
L 570.861092 451.740344 
L 565.543139 453.021825 
L 560.58374 454.400044 
L 555.980275 455.048127 
L 551.721424 454.716574 
L 547.789746 453.859068 
L 544.165925 452.670965 
L 540.83103 451.562142 
L 537.762087 449.843884 
L 534.942126 448.599243 
L 532.348702 448.039999 
L 529.965976 447.643432 
L 527.776881 447.539097 
L 525.764855 447.627269 
L 523.914959 447.883182 
L 522.213559 448.368109 
L 520.648461 449.142145 
L 519.209351 450.154803 
L 517.883479 451.357051 
L 516.659653 452.488878 
L 515.532138 453.57641 
L 514.494197 454.749572 
L 513.53156 455.890966 
L 512.646596 457.076771 
L 511.813354 458.204082 
L 510.988559 459.243607 
L 510.163764 460.334055 
L 509.338968 461.42694 
L 508.514173 462.589336 
L 507.689378 463.661324 
L 506.864582 464.794871 
L 506.039787 466.177954 
L 505.214991 467.603664 
L 504.390196 469.211511 
L 503.565401 470.926022 
L 502.740605 472.64543 
L 501.91581 474.48606 
L 501.091015 476.439226 
L 500.266219 478.523151 
L 499.441424 480.664521 
L 498.616629 482.943742 
L 497.791833 485.202731 
L 496.967038 487.514358 
L 496.142243 490.080664 
L 495.317447 492.859175 
L 494.492652 495.64798 
L 493.667856 499.016798 
L 492.843061 502.42372 
L 492.018266 505.564183 
L 491.19347 508.878029 
L 490.368675 511.68313 
L 489.54388 514.806228 
L 488.719084 518.321991 
L 487.894289 521.869041 
L 487.069494 525.376692 
L 486.244698 530.208341 
L 485.419903 533.754433 
L 484.595108 537.195721 
L 483.770312 540.483872 
L 482.945517 544.057446 
L 482.120721 548.201522 
L 481.295926 552.450575 
L 480.471131 557.021729 
L 479.646335 562.021581 
L 478.82154 566.798544 
L 477.996745 567.077453 
L 477.171949 565.270805 
L 476.347154 561.850309 
L 475.522359 559.692467 
L 474.391324 559.657748 
L 473.26029 559.657748 
L 472.129255 559.657748 
L 470.998221 559.657748 
L 469.867187 559.657748 
L 468.736152 559.657748 
L 467.605118 559.657748 
L 466.474083 559.657748 
L 465.333316 559.657748 
L 463.881803 559.657748 
L 461.844867 559.657748 
L 458.985672 559.657748 
L 454.971416 559.657748 
L 449.334496 559.657748 
L 441.781638 559.657748 
L 434.130915 559.657748 
L 426.752215 559.657748 
L 419.635807 559.657748 
L 412.772406 559.657748 
L 406.153132 559.657748 
L 399.7692 559.657748 
L 393.612158 559.657748 
L 387.674039 559.657748 
L 381.947015 559.657748 
L 376.423458 559.657748 
L 371.0965 559.657748 
L 365.958678 559.657748 
L 360.964856 559.657748 
L 356.1238 559.657748 
L 351.45464 559.657748 
L 346.951477 559.657748 
L 342.608436 559.657748 
L 338.419659 559.657748 
L 334.379387 559.657748 
L 330.482783 559.657748 
L 326.724795 559.657748 
L 323.100106 559.657748 
L 319.603974 559.657748 
L 316.232504 559.657748 
L 312.980671 559.657748 
L 309.844177 559.657748 
L 306.819054 559.657748 
L 303.901395 559.657748 
L 301.087253 559.657748 
L 298.372767 559.657748 
L 295.754546 559.657748 
L 293.230282 559.657748 
L 290.794897 559.657748 
L 288.445503 559.657748 
L 286.180796 559.657748 
L 283.994951 559.657748 
L 281.887838 559.657748 
L 279.855619 559.657748 
L 277.893724 559.657748 
L 276.003041 559.657748 
L 274.179812 559.657748 
L 272.420705 559.657748 
L 270.723246 559.657748 
L 269.085661 559.657748 
L 267.506519 559.657748 
L 265.983555 559.657748 
L 264.514706 559.657748 
L 263.098204 559.657748 
L 261.732564 559.657748 
L 260.415204 559.657748 
L 259.143602 559.657748 
L 257.915866 559.657748 
L 256.718299 559.657748 
L 255.520733 559.657748 
L 254.323167 559.657748 
L 253.125601 559.657748 
L 251.928035 559.657748 
L 250.73047 559.657748 
L 249.532904 559.657748 
L 248.335338 559.657748 
L 247.137772 559.657748 
L 245.940206 559.657748 
L 244.74264 559.657748 
L 243.545075 559.657748 
L 242.347509 559.657748 
L 241.149943 559.657748 
L 239.952377 559.657748 
L 238.754811 559.657748 
L 237.557245 559.657748 
L 236.359679 559.657748 
L 235.162114 559.657748 
L 233.964548 559.657748 
L 232.766982 559.657748 
L 231.569416 559.657748 
L 230.37185 559.657748 
L 229.174284 559.657748 
L 227.976718 559.657748 
L 226.779153 559.657748 
L 225.581587 559.657748 
L 224.384021 559.657748 
L 223.186455 559.657748 
L 221.988889 559.657748 
L 220.791323 559.657748 
L 219.593758 559.657748 
L 218.396192 559.657748 
L 217.198626 559.657748 
L 216.00106 559.657748 
L 214.832596 559.657748 
L 213.664132 559.657748 
L 212.4854 559.657748 
L 211.009132 559.657748 
L 208.989224 559.657748 
L 206.224103 559.657748 
L 202.437713 559.657748 
L 197.251961 559.657748 
L 190.148976 559.657748 
L 180.419404 559.657748 
L 167.091556 559.657748 
L 148.834393 559.657748 
z
" clip-path="url(#p8861a5e4ac)" style="fill: #ffa500; fill-opacity: 0.2"/>
   </g>
   <g id="matplotlib.axis_1">
    <g id="xtick_1">
     <g id="line2d_1">
      <path d="M 216.00106 627.417748 
L 216.00106 17.577748 
" clip-path="url(#p8861a5e4ac)" style="fill: none; stroke: #b0b0b0; stroke-width: 0.8; stroke-linecap: square"/>
     </g>
     <g id="line2d_2">
      <defs>
       <path id="mc50f88d0a3" d="M 0 0 
L 0 3.5 
" style="stroke: #000000; stroke-width: 0.8"/>
      </defs>
      <g>
       <use xlink:href="#mc50f88d0a3" x="216.00106" y="627.417748" style="stroke: #000000; stroke-width: 0.8"/>
      </g>
     </g>
     <g id="text_1">
      <!-- $\mathdefault{0.0}$ -->
      <g transform="translate(198.22934 655.173243)scale(0.3 -0.3)">
       <defs>
        <path id="CMR17-30" d="M 2688 2025 
C 2688 2416 2682 3080 2413 3591 
C 2176 4039 1798 4198 1466 4198 
C 1158 4198 768 4058 525 3597 
C 269 3118 243 2524 243 2025 
C 243 1661 250 1106 448 619 
C 723 -39 1216 -128 1466 -128 
C 1760 -128 2208 -7 2470 600 
C 2662 1042 2688 1559 2688 2025 
z
M 1466 -26 
C 1056 -26 813 325 723 812 
C 653 1188 653 1738 653 2096 
C 653 2588 653 2997 736 3387 
C 858 3929 1216 4096 1466 4096 
C 1728 4096 2067 3923 2189 3400 
C 2272 3036 2278 2607 2278 2096 
C 2278 1680 2278 1169 2202 792 
C 2067 95 1690 -26 1466 -26 
z
" transform="scale(0.015625)"/>
        <path id="CMMI12-3a" d="M 1178 307 
C 1178 492 1024 619 870 619 
C 685 619 557 466 557 313 
C 557 128 710 0 864 0 
C 1050 0 1178 153 1178 307 
z
" transform="scale(0.015625)"/>
       </defs>
       <use xlink:href="#CMR17-30" transform="scale(0.996264)"/>
       <use xlink:href="#CMMI12-3a" transform="translate(45.690477 0)scale(0.996264)"/>
       <use xlink:href="#CMR17-30" transform="translate(72.787654 0)scale(0.996264)"/>
      </g>
     </g>
    </g>
    <g id="xtick_2">
     <g id="line2d_3">
      <path d="M 350.334393 627.417748 
L 350.334393 17.577748 
" clip-path="url(#p8861a5e4ac)" style="fill: none; stroke: #b0b0b0; stroke-width: 0.8; stroke-linecap: square"/>
     </g>
     <g id="line2d_4">
      <g>
       <use xlink:href="#mc50f88d0a3" x="350.334393" y="627.417748" style="stroke: #000000; stroke-width: 0.8"/>
      </g>
     </g>
     <g id="text_2">
      <!-- $\mathdefault{0.1}$ -->
      <g transform="translate(332.562674 655.173243)scale(0.3 -0.3)">
       <defs>
        <path id="CMR17-31" d="M 1702 4058 
C 1702 4192 1696 4192 1606 4192 
C 1357 3916 979 3827 621 3827 
C 602 3827 570 3827 563 3808 
C 557 3795 557 3782 557 3648 
C 755 3648 1088 3686 1344 3839 
L 1344 461 
C 1344 236 1331 160 781 160 
L 589 160 
L 589 0 
C 896 0 1216 0 1523 0 
C 1830 0 2150 0 2458 0 
L 2458 160 
L 2266 160 
C 1715 160 1702 230 1702 458 
L 1702 4058 
z
" transform="scale(0.015625)"/>
       </defs>
       <use xlink:href="#CMR17-30" transform="scale(0.996264)"/>
       <use xlink:href="#CMMI12-3a" transform="translate(45.690477 0)scale(0.996264)"/>
       <use xlink:href="#CMR17-31" transform="translate(72.787654 0)scale(0.996264)"/>
      </g>
     </g>
    </g>
    <g id="xtick_3">
     <g id="line2d_5">
      <path d="M 484.667727 627.417748 
L 484.667727 17.577748 
" clip-path="url(#p8861a5e4ac)" style="fill: none; stroke: #b0b0b0; stroke-width: 0.8; stroke-linecap: square"/>
     </g>
     <g id="line2d_6">
      <g>
       <use xlink:href="#mc50f88d0a3" x="484.667727" y="627.417748" style="stroke: #000000; stroke-width: 0.8"/>
      </g>
     </g>
     <g id="text_3">
      <!-- $\mathdefault{0.2}$ -->
      <g transform="translate(466.896007 655.173243)scale(0.3 -0.3)">
       <defs>
        <path id="CMR17-32" d="M 2669 989 
L 2554 989 
C 2490 536 2438 459 2413 420 
C 2381 369 1920 369 1830 369 
L 602 369 
C 832 619 1280 1072 1824 1597 
C 2214 1967 2669 2402 2669 3035 
C 2669 3790 2067 4224 1395 4224 
C 691 4224 262 3604 262 3030 
C 262 2780 448 2748 525 2748 
C 589 2748 781 2787 781 3010 
C 781 3207 614 3264 525 3264 
C 486 3264 448 3258 422 3245 
C 544 3790 915 4058 1306 4058 
C 1862 4058 2227 3617 2227 3035 
C 2227 2479 1901 2000 1536 1584 
L 262 146 
L 262 0 
L 2515 0 
L 2669 989 
z
" transform="scale(0.015625)"/>
       </defs>
       <use xlink:href="#CMR17-30" transform="scale(0.996264)"/>
       <use xlink:href="#CMMI12-3a" transform="translate(45.690477 0)scale(0.996264)"/>
       <use xlink:href="#CMR17-32" transform="translate(72.787654 0)scale(0.996264)"/>
      </g>
     </g>
    </g>
    <g id="xtick_4">
     <g id="line2d_7">
      <path d="M 619.00106 627.417748 
L 619.00106 17.577748 
" clip-path="url(#p8861a5e4ac)" style="fill: none; stroke: #b0b0b0; stroke-width: 0.8; stroke-linecap: square"/>
     </g>
     <g id="line2d_8">
      <g>
       <use xlink:href="#mc50f88d0a3" x="619.00106" y="627.417748" style="stroke: #000000; stroke-width: 0.8"/>
      </g>
     </g>
     <g id="text_4">
      <!-- $\mathdefault{0.3}$ -->
      <g transform="translate(601.22934 655.173243)scale(0.3 -0.3)">
       <defs>
        <path id="CMR17-33" d="M 1414 2157 
C 1984 2157 2234 1662 2234 1090 
C 2234 320 1824 25 1453 25 
C 1114 25 563 194 390 693 
C 422 680 454 680 486 680 
C 640 680 755 782 755 948 
C 755 1133 614 1216 486 1216 
C 378 1216 211 1165 211 926 
C 211 335 787 -128 1466 -128 
C 2176 -128 2720 430 2720 1085 
C 2720 1707 2208 2157 1600 2227 
C 2086 2328 2554 2756 2554 3329 
C 2554 3820 2048 4179 1472 4179 
C 890 4179 378 3829 378 3329 
C 378 3110 544 3072 627 3072 
C 762 3072 877 3155 877 3321 
C 877 3486 762 3569 627 3569 
C 602 3569 570 3569 544 3557 
C 730 3959 1235 4032 1459 4032 
C 1683 4032 2106 3925 2106 3320 
C 2106 3143 2080 2828 1862 2550 
C 1670 2304 1453 2304 1242 2284 
C 1210 2284 1062 2269 1037 2269 
C 992 2263 966 2257 966 2208 
C 966 2163 973 2157 1101 2157 
L 1414 2157 
z
" transform="scale(0.015625)"/>
       </defs>
       <use xlink:href="#CMR17-30" transform="scale(0.996264)"/>
       <use xlink:href="#CMMI12-3a" transform="translate(45.690477 0)scale(0.996264)"/>
       <use xlink:href="#CMR17-33" transform="translate(72.787654 0)scale(0.996264)"/>
      </g>
     </g>
    </g>
    <g id="xtick_5">
     <g id="line2d_9">
      <path d="M 753.334393 627.417748 
L 753.334393 17.577748 
" clip-path="url(#p8861a5e4ac)" style="fill: none; stroke: #b0b0b0; stroke-width: 0.8; stroke-linecap: square"/>
     </g>
     <g id="line2d_10">
      <g>
       <use xlink:href="#mc50f88d0a3" x="753.334393" y="627.417748" style="stroke: #000000; stroke-width: 0.8"/>
      </g>
     </g>
     <g id="text_5">
      <!-- $\mathdefault{0.4}$ -->
      <g transform="translate(735.562674 655.173243)scale(0.3 -0.3)">
       <defs>
        <path id="CMR17-34" d="M 2150 4122 
C 2150 4256 2144 4256 2029 4256 
L 128 1254 
L 128 1088 
L 1779 1088 
L 1779 457 
C 1779 224 1766 160 1318 160 
L 1197 160 
L 1197 0 
C 1402 0 1747 0 1965 0 
C 2182 0 2528 0 2733 0 
L 2733 160 
L 2611 160 
C 2163 160 2150 224 2150 457 
L 2150 1088 
L 2803 1088 
L 2803 1254 
L 2150 1254 
L 2150 4122 
z
M 1798 3703 
L 1798 1254 
L 256 1254 
L 1798 3703 
z
" transform="scale(0.015625)"/>
       </defs>
       <use xlink:href="#CMR17-30" transform="scale(0.996264)"/>
       <use xlink:href="#CMMI12-3a" transform="translate(45.690477 0)scale(0.996264)"/>
       <use xlink:href="#CMR17-34" transform="translate(72.787654 0)scale(0.996264)"/>
      </g>
     </g>
    </g>
    <g id="text_6">
     <!-- $x, \; \mathrm{m} $ -->
     <g transform="translate(462.448457 689.201445)scale(0.35 -0.35)">
      <defs>
       <path id="CMMI12-78" d="M 3034 2606 
C 2829 2567 2752 2414 2752 2293 
C 2752 2139 2874 2088 2963 2088 
C 3155 2088 3290 2254 3290 2427 
C 3290 2695 2982 2816 2714 2816 
C 2323 2816 2106 2433 2048 2312 
C 1901 2816 1504 2816 1389 2816 
C 736 2816 390 1980 390 1839 
C 390 1814 416 1782 461 1782 
C 512 1782 525 1820 538 1846 
C 755 2555 1184 2689 1370 2689 
C 1658 2689 1715 2420 1715 2267 
C 1715 2127 1677 1980 1600 1673 
L 1382 798 
C 1286 415 1101 64 762 64 
C 730 64 570 64 435 147 
C 666 192 717 383 717 460 
C 717 588 621 664 499 664 
C 346 664 179 530 179 326 
C 179 57 480 -64 755 -64 
C 1062 -64 1280 179 1414 441 
C 1517 64 1837 -64 2074 -64 
C 2726 -64 3072 773 3072 913 
C 3072 945 3046 971 3008 971 
C 2950 971 2944 939 2925 888 
C 2752 326 2381 64 2093 64 
C 1869 64 1747 230 1747 492 
C 1747 632 1773 734 1875 1156 
L 2099 2024 
C 2195 2408 2413 2689 2707 2689 
C 2720 2689 2899 2689 3034 2606 
z
" transform="scale(0.015625)"/>
       <path id="CMMI12-3b" d="M 1248 -31 
C 1248 343 1126 619 864 619 
C 659 619 557 453 557 313 
C 557 172 653 0 870 0 
C 954 0 1024 26 1082 83 
C 1094 96 1101 96 1107 96 
C 1120 96 1120 5 1120 -27 
C 1120 -240 1082 -659 710 -1080 
C 640 -1157 640 -1170 640 -1183 
C 640 -1216 672 -1248 704 -1248 
C 755 -1248 1248 -771 1248 -31 
z
" transform="scale(0.015625)"/>
       <path id="CMR17-6d" d="M 4326 1933 
C 4326 2252 4269 2790 3507 2790 
C 3072 2790 2771 2496 2656 2151 
L 2650 2151 
C 2573 2676 2195 2790 1837 2790 
C 1331 2790 1069 2400 973 2144 
L 966 2144 
L 966 2790 
L 211 2720 
L 211 2554 
C 589 2554 646 2515 646 2208 
L 646 428 
C 646 184 621 153 211 153 
L 211 -13 
C 365 0 646 0 813 0 
C 979 0 1267 0 1421 -13 
L 1421 153 
C 1011 153 986 178 986 428 
L 986 1658 
C 986 2247 1344 2688 1792 2688 
C 2266 2688 2317 2266 2317 1958 
L 2317 428 
C 2317 184 2291 153 1882 153 
L 1882 -13 
C 2035 0 2317 0 2483 0 
C 2650 0 2938 0 3091 -13 
L 3091 153 
C 2682 153 2656 178 2656 428 
L 2656 1658 
C 2656 2247 3014 2688 3462 2688 
C 3936 2688 3987 2266 3987 1958 
L 3987 428 
C 3987 184 3962 153 3552 153 
L 3552 -13 
C 3706 0 3987 0 4154 0 
C 4320 0 4608 0 4762 -13 
L 4762 153 
C 4352 153 4326 178 4326 428 
L 4326 1933 
z
" transform="scale(0.015625)"/>
      </defs>
      <use xlink:href="#CMMI12-78" transform="scale(0.996264)"/>
      <use xlink:href="#CMMI12-3b" transform="translate(55.43406 0)scale(0.996264)"/>
      <use xlink:href="#CMR17-6d" transform="translate(126.809651 0)scale(0.996264)"/>
     </g>
    </g>
   </g>
   <g id="matplotlib.axis_2">
    <g id="ytick_1">
     <g id="line2d_11">
      <path d="M 135.40106 627.417748 
L 860.80106 627.417748 
" clip-path="url(#p8861a5e4ac)" style="fill: none; stroke: #b0b0b0; stroke-width: 0.8; stroke-linecap: square"/>
     </g>
     <g id="line2d_12">
      <defs>
       <path id="m2c1b6d90e0" d="M 0 0 
L -3.5 0 
" style="stroke: #000000; stroke-width: 0.8"/>
      </defs>
      <g>
       <use xlink:href="#m2c1b6d90e0" x="135.40106" y="627.417748" style="stroke: #000000; stroke-width: 0.8"/>
      </g>
     </g>
     <g id="text_7">
      <!-- $\mathdefault{−0.025}$ -->
      <g transform="translate(42.197103 637.795495)scale(0.3 -0.3)">
       <defs>
        <path id="CMSY10-0" d="M 4218 1472 
C 4326 1472 4442 1472 4442 1600 
C 4442 1728 4326 1728 4218 1728 
L 755 1728 
C 646 1728 531 1728 531 1600 
C 531 1472 646 1472 755 1472 
L 4218 1472 
z
" transform="scale(0.015625)"/>
        <path id="CMR17-35" d="M 730 3692 
C 794 3666 1056 3584 1325 3584 
C 1920 3584 2246 3911 2432 4100 
C 2432 4157 2432 4192 2394 4192 
C 2387 4192 2374 4192 2323 4163 
C 2099 4058 1837 3973 1517 3973 
C 1325 3973 1037 3999 723 4139 
C 653 4171 640 4171 634 4171 
C 602 4171 595 4164 595 4037 
L 595 2203 
C 595 2089 595 2057 659 2057 
C 691 2057 704 2070 736 2114 
C 941 2401 1222 2522 1542 2522 
C 1766 2522 2246 2382 2246 1289 
C 2246 1085 2246 715 2054 421 
C 1894 159 1645 25 1370 25 
C 947 25 518 320 403 814 
C 429 807 480 795 506 795 
C 589 795 749 840 749 1038 
C 749 1210 627 1280 506 1280 
C 358 1280 262 1190 262 1011 
C 262 454 704 -128 1382 -128 
C 2042 -128 2669 440 2669 1264 
C 2669 2030 2170 2624 1549 2624 
C 1222 2624 947 2503 730 2274 
L 730 3692 
z
" transform="scale(0.015625)"/>
       </defs>
       <use xlink:href="#CMSY10-0" transform="scale(0.996264)"/>
       <use xlink:href="#CMR17-30" transform="translate(77.487468 0)scale(0.996264)"/>
       <use xlink:href="#CMMI12-3a" transform="translate(123.177945 0)scale(0.996264)"/>
       <use xlink:href="#CMR17-30" transform="translate(150.275122 0)scale(0.996264)"/>
       <use xlink:href="#CMR17-32" transform="translate(195.965599 0)scale(0.996264)"/>
       <use xlink:href="#CMR17-35" transform="translate(241.656076 0)scale(0.996264)"/>
      </g>
     </g>
    </g>
    <g id="ytick_2">
     <g id="line2d_13">
      <path d="M 135.40106 559.657748 
L 860.80106 559.657748 
" clip-path="url(#p8861a5e4ac)" style="fill: none; stroke: #b0b0b0; stroke-width: 0.8; stroke-linecap: square"/>
     </g>
     <g id="line2d_14">
      <g>
       <use xlink:href="#m2c1b6d90e0" x="135.40106" y="559.657748" style="stroke: #000000; stroke-width: 0.8"/>
      </g>
     </g>
     <g id="text_8">
      <!-- $\mathdefault{0.000}$ -->
      <g transform="translate(65.443334 570.035495)scale(0.3 -0.3)">
       <use xlink:href="#CMR17-30" transform="scale(0.996264)"/>
       <use xlink:href="#CMMI12-3a" transform="translate(45.690477 0)scale(0.996264)"/>
       <use xlink:href="#CMR17-30" transform="translate(72.787654 0)scale(0.996264)"/>
       <use xlink:href="#CMR17-30" transform="translate(118.478131 0)scale(0.996264)"/>
       <use xlink:href="#CMR17-30" transform="translate(164.168608 0)scale(0.996264)"/>
      </g>
     </g>
    </g>
    <g id="ytick_3">
     <g id="line2d_15">
      <path d="M 135.40106 491.897748 
L 860.80106 491.897748 
" clip-path="url(#p8861a5e4ac)" style="fill: none; stroke: #b0b0b0; stroke-width: 0.8; stroke-linecap: square"/>
     </g>
     <g id="line2d_16">
      <g>
       <use xlink:href="#m2c1b6d90e0" x="135.40106" y="491.897748" style="stroke: #000000; stroke-width: 0.8"/>
      </g>
     </g>
     <g id="text_9">
      <!-- $\mathdefault{0.025}$ -->
      <g transform="translate(65.443334 502.275495)scale(0.3 -0.3)">
       <use xlink:href="#CMR17-30" transform="scale(0.996264)"/>
       <use xlink:href="#CMMI12-3a" transform="translate(45.690477 0)scale(0.996264)"/>
       <use xlink:href="#CMR17-30" transform="translate(72.787654 0)scale(0.996264)"/>
       <use xlink:href="#CMR17-32" transform="translate(118.478131 0)scale(0.996264)"/>
       <use xlink:href="#CMR17-35" transform="translate(164.168608 0)scale(0.996264)"/>
      </g>
     </g>
    </g>
    <g id="ytick_4">
     <g id="line2d_17">
      <path d="M 135.40106 424.137748 
L 860.80106 424.137748 
" clip-path="url(#p8861a5e4ac)" style="fill: none; stroke: #b0b0b0; stroke-width: 0.8; stroke-linecap: square"/>
     </g>
     <g id="line2d_18">
      <g>
       <use xlink:href="#m2c1b6d90e0" x="135.40106" y="424.137748" style="stroke: #000000; stroke-width: 0.8"/>
      </g>
     </g>
     <g id="text_10">
      <!-- $\mathdefault{0.050}$ -->
      <g transform="translate(65.443334 434.515495)scale(0.3 -0.3)">
       <use xlink:href="#CMR17-30" transform="scale(0.996264)"/>
       <use xlink:href="#CMMI12-3a" transform="translate(45.690477 0)scale(0.996264)"/>
       <use xlink:href="#CMR17-30" transform="translate(72.787654 0)scale(0.996264)"/>
       <use xlink:href="#CMR17-35" transform="translate(118.478131 0)scale(0.996264)"/>
       <use xlink:href="#CMR17-30" transform="translate(164.168608 0)scale(0.996264)"/>
      </g>
     </g>
    </g>
    <g id="ytick_5">
     <g id="line2d_19">
      <path d="M 135.40106 356.377748 
L 860.80106 356.377748 
" clip-path="url(#p8861a5e4ac)" style="fill: none; stroke: #b0b0b0; stroke-width: 0.8; stroke-linecap: square"/>
     </g>
     <g id="line2d_20">
      <g>
       <use xlink:href="#m2c1b6d90e0" x="135.40106" y="356.377748" style="stroke: #000000; stroke-width: 0.8"/>
      </g>
     </g>
     <g id="text_11">
      <!-- $\mathdefault{0.075}$ -->
      <g transform="translate(65.443334 366.755495)scale(0.3 -0.3)">
       <defs>
        <path id="CMR17-37" d="M 2886 3941 
L 2886 4081 
L 1382 4081 
C 634 4081 621 4165 595 4288 
L 480 4288 
L 294 3094 
L 410 3094 
C 429 3215 474 3540 550 3661 
C 589 3712 1062 3712 1171 3712 
L 2579 3712 
L 1869 2661 
C 1395 1954 1069 999 1069 165 
C 1069 89 1069 -128 1299 -128 
C 1530 -128 1530 89 1530 171 
L 1530 465 
C 1530 1508 1709 2196 2003 2636 
L 2886 3941 
z
" transform="scale(0.015625)"/>
       </defs>
       <use xlink:href="#CMR17-30" transform="scale(0.996264)"/>
       <use xlink:href="#CMMI12-3a" transform="translate(45.690477 0)scale(0.996264)"/>
       <use xlink:href="#CMR17-30" transform="translate(72.787654 0)scale(0.996264)"/>
       <use xlink:href="#CMR17-37" transform="translate(118.478131 0)scale(0.996264)"/>
       <use xlink:href="#CMR17-35" transform="translate(164.168608 0)scale(0.996264)"/>
      </g>
     </g>
    </g>
    <g id="ytick_6">
     <g id="line2d_21">
      <path d="M 135.40106 288.617748 
L 860.80106 288.617748 
" clip-path="url(#p8861a5e4ac)" style="fill: none; stroke: #b0b0b0; stroke-width: 0.8; stroke-linecap: square"/>
     </g>
     <g id="line2d_22">
      <g>
       <use xlink:href="#m2c1b6d90e0" x="135.40106" y="288.617748" style="stroke: #000000; stroke-width: 0.8"/>
      </g>
     </g>
     <g id="text_12">
      <!-- $\mathdefault{0.100}$ -->
      <g transform="translate(65.443334 298.995495)scale(0.3 -0.3)">
       <use xlink:href="#CMR17-30" transform="scale(0.996264)"/>
       <use xlink:href="#CMMI12-3a" transform="translate(45.690477 0)scale(0.996264)"/>
       <use xlink:href="#CMR17-31" transform="translate(72.787654 0)scale(0.996264)"/>
       <use xlink:href="#CMR17-30" transform="translate(118.478131 0)scale(0.996264)"/>
       <use xlink:href="#CMR17-30" transform="translate(164.168608 0)scale(0.996264)"/>
      </g>
     </g>
    </g>
    <g id="ytick_7">
     <g id="line2d_23">
      <path d="M 135.40106 220.857748 
L 860.80106 220.857748 
" clip-path="url(#p8861a5e4ac)" style="fill: none; stroke: #b0b0b0; stroke-width: 0.8; stroke-linecap: square"/>
     </g>
     <g id="line2d_24">
      <g>
       <use xlink:href="#m2c1b6d90e0" x="135.40106" y="220.857748" style="stroke: #000000; stroke-width: 0.8"/>
      </g>
     </g>
     <g id="text_13">
      <!-- $\mathdefault{0.125}$ -->
      <g transform="translate(65.443334 231.235495)scale(0.3 -0.3)">
       <use xlink:href="#CMR17-30" transform="scale(0.996264)"/>
       <use xlink:href="#CMMI12-3a" transform="translate(45.690477 0)scale(0.996264)"/>
       <use xlink:href="#CMR17-31" transform="translate(72.787654 0)scale(0.996264)"/>
       <use xlink:href="#CMR17-32" transform="translate(118.478131 0)scale(0.996264)"/>
       <use xlink:href="#CMR17-35" transform="translate(164.168608 0)scale(0.996264)"/>
      </g>
     </g>
    </g>
    <g id="ytick_8">
     <g id="line2d_25">
      <path d="M 135.40106 153.097748 
L 860.80106 153.097748 
" clip-path="url(#p8861a5e4ac)" style="fill: none; stroke: #b0b0b0; stroke-width: 0.8; stroke-linecap: square"/>
     </g>
     <g id="line2d_26">
      <g>
       <use xlink:href="#m2c1b6d90e0" x="135.40106" y="153.097748" style="stroke: #000000; stroke-width: 0.8"/>
      </g>
     </g>
     <g id="text_14">
      <!-- $\mathdefault{0.150}$ -->
      <g transform="translate(65.443334 163.475495)scale(0.3 -0.3)">
       <use xlink:href="#CMR17-30" transform="scale(0.996264)"/>
       <use xlink:href="#CMMI12-3a" transform="translate(45.690477 0)scale(0.996264)"/>
       <use xlink:href="#CMR17-31" transform="translate(72.787654 0)scale(0.996264)"/>
       <use xlink:href="#CMR17-35" transform="translate(118.478131 0)scale(0.996264)"/>
       <use xlink:href="#CMR17-30" transform="translate(164.168608 0)scale(0.996264)"/>
      </g>
     </g>
    </g>
    <g id="ytick_9">
     <g id="line2d_27">
      <path d="M 135.40106 85.337748 
L 860.80106 85.337748 
" clip-path="url(#p8861a5e4ac)" style="fill: none; stroke: #b0b0b0; stroke-width: 0.8; stroke-linecap: square"/>
     </g>
     <g id="line2d_28">
      <g>
       <use xlink:href="#m2c1b6d90e0" x="135.40106" y="85.337748" style="stroke: #000000; stroke-width: 0.8"/>
      </g>
     </g>
     <g id="text_15">
      <!-- $\mathdefault{0.175}$ -->
      <g transform="translate(65.443334 95.715495)scale(0.3 -0.3)">
       <use xlink:href="#CMR17-30" transform="scale(0.996264)"/>
       <use xlink:href="#CMMI12-3a" transform="translate(45.690477 0)scale(0.996264)"/>
       <use xlink:href="#CMR17-31" transform="translate(72.787654 0)scale(0.996264)"/>
       <use xlink:href="#CMR17-37" transform="translate(118.478131 0)scale(0.996264)"/>
       <use xlink:href="#CMR17-35" transform="translate(164.168608 0)scale(0.996264)"/>
      </g>
     </g>
    </g>
    <g id="ytick_10">
     <g id="line2d_29">
      <path d="M 135.40106 17.577748 
L 860.80106 17.577748 
" clip-path="url(#p8861a5e4ac)" style="fill: none; stroke: #b0b0b0; stroke-width: 0.8; stroke-linecap: square"/>
     </g>
     <g id="line2d_30">
      <g>
       <use xlink:href="#m2c1b6d90e0" x="135.40106" y="17.577748" style="stroke: #000000; stroke-width: 0.8"/>
      </g>
     </g>
     <g id="text_16">
      <!-- $\mathdefault{0.200}$ -->
      <g transform="translate(65.443334 27.955495)scale(0.3 -0.3)">
       <use xlink:href="#CMR17-30" transform="scale(0.996264)"/>
       <use xlink:href="#CMMI12-3a" transform="translate(45.690477 0)scale(0.996264)"/>
       <use xlink:href="#CMR17-32" transform="translate(72.787654 0)scale(0.996264)"/>
       <use xlink:href="#CMR17-30" transform="translate(118.478131 0)scale(0.996264)"/>
       <use xlink:href="#CMR17-30" transform="translate(164.168608 0)scale(0.996264)"/>
      </g>
     </g>
    </g>
    <g id="text_17">
     <!-- $Y, \; - $ -->
     <g transform="translate(31.414752 359.401921)rotate(-90)scale(0.35 -0.35)">
      <defs>
       <path id="CMMI12-59" d="M 3763 3645 
L 3910 3791 
C 4192 4078 4429 4149 4653 4167 
C 4723 4173 4781 4179 4781 4288 
C 4781 4352 4717 4352 4704 4352 
C 4627 4352 4544 4352 4467 4352 
L 4205 4352 
C 4019 4352 3821 4352 3642 4352 
C 3597 4352 3526 4352 3526 4226 
C 3526 4166 3590 4160 3610 4160 
C 3802 4160 3802 4064 3802 4026 
C 3802 3956 3750 3860 3622 3713 
L 2099 1969 
L 1376 3911 
C 1338 4000 1338 4013 1338 4026 
C 1338 4160 1600 4160 1677 4160 
C 1754 4160 1824 4160 1824 4279 
C 1824 4352 1766 4352 1728 4352 
C 1619 4352 1491 4352 1382 4352 
L 672 4352 
C 557 4352 435 4352 326 4352 
C 282 4352 211 4352 211 4226 
C 211 4160 269 4160 365 4160 
C 678 4160 736 4102 794 3956 
L 1587 1835 
C 1594 1816 1613 1745 1613 1726 
C 1613 1707 1299 452 1280 388 
C 1229 217 1165 185 755 185 
C 646 185 595 185 595 64 
C 595 0 666 0 685 0 
C 800 0 934 0 1056 0 
L 1811 0 
C 1926 0 2061 0 2176 0 
C 2221 0 2298 0 2298 115 
C 2298 185 2253 185 2144 185 
C 1747 185 1747 230 1747 300 
C 1747 345 1798 548 1830 676 
L 2061 1594 
C 2099 1727 2099 1739 2157 1803 
L 3763 3645 
z
" transform="scale(0.015625)"/>
      </defs>
      <use xlink:href="#CMMI12-59" transform="scale(0.996264)"/>
      <use xlink:href="#CMMI12-3b" transform="translate(62.018043 0)scale(0.996264)"/>
      <use xlink:href="#CMSY10-0" transform="translate(133.393634 0)scale(0.996264)"/>
     </g>
    </g>
   </g>
   <g id="line2d_31">
    <path d="M 148.834393 559.657748 
L 475.522359 559.644998 
L 476.347154 559.431056 
L 477.171949 558.990382 
L 478.82154 557.248182 
L 479.646335 556.328398 
L 480.471131 555.779895 
L 481.295926 555.422033 
L 482.945517 555.150234 
L 485.419903 555.081611 
L 495.317447 555.428282 
L 509.338968 556.141788 
L 516.659653 556.798667 
L 520.648461 557.242905 
L 527.776881 558.081903 
L 532.348702 558.384913 
L 540.83103 558.68638 
L 551.721424 558.738033 
L 582.434635 558.466325 
L 600.250215 558.117714 
L 612.127268 557.59533 
L 624.004321 557.002595 
L 647.758427 556.151387 
L 659.63548 555.426339 
L 665.574007 555.414309 
L 673.96984 555.921298 
L 699.15734 556.294504 
L 774.71984 556.95309 
L 816.699007 557.127375 
L 867.074007 557.251927 
L 867.074007 557.251927 
" clip-path="url(#p8861a5e4ac)" style="fill: none; stroke: #0000ff; stroke-width: 3; stroke-linecap: square"/>
   </g>
   <g id="line2d_32">
    <path d="M 148.834393 559.657748 
L 474.391324 559.657746 
L 475.522359 559.502723 
L 476.347154 557.088035 
L 477.171949 551.46819 
L 477.996745 540.118024 
L 478.82154 523.787884 
L 480.471131 481.427325 
L 481.295926 464.272103 
L 482.945517 436.891447 
L 484.595108 416.531013 
L 487.894289 379.281325 
L 489.54388 364.762195 
L 491.19347 353.662373 
L 492.843061 342.565401 
L 494.492652 331.761741 
L 496.967038 320.013119 
L 499.441424 310.772769 
L 501.091015 305.325526 
L 502.740605 300.661726 
L 504.390196 296.522383 
L 505.214991 294.686509 
L 506.864582 291.660526 
L 510.163764 287.298225 
L 512.646596 283.512561 
L 514.494197 280.641678 
L 515.532138 279.147102 
L 517.883479 276.339984 
L 519.209351 274.847907 
L 520.648461 273.532542 
L 522.213559 272.419022 
L 523.914959 271.781623 
L 525.764855 271.428926 
L 527.776881 271.34391 
L 529.965976 271.519848 
L 532.348702 272.188915 
L 534.942126 273.197383 
L 537.762087 275.38939 
L 540.83103 278.570563 
L 544.165925 280.487603 
L 547.789746 281.98747 
L 551.721424 282.816284 
L 555.980275 283.146349 
L 560.58374 282.667925 
L 565.543139 281.362395 
L 570.861092 279.718713 
L 576.520639 277.798715 
L 588.373162 272.943667 
L 594.311688 269.911827 
L 600.250215 265.995014 
L 606.188741 259.799791 
L 612.127268 251.672573 
L 618.065794 243.252777 
L 624.004321 235.475124 
L 629.942848 229.259769 
L 635.881374 223.811746 
L 641.819901 217.517657 
L 647.758427 208.43422 
L 653.696954 196.904288 
L 659.63548 186.920492 
L 665.574007 181.360023 
L 673.96984 180.203257 
L 690.761507 179.153681 
L 707.553174 178.298834 
L 715.949007 177.667077 
L 724.34484 177.154644 
L 741.136507 176.487768 
L 791.511507 175.037531 
L 816.699007 174.697236 
L 841.886507 174.428316 
L 858.678174 174.203321 
L 867.074007 174.131117 
L 867.074007 174.131117 
" clip-path="url(#p8861a5e4ac)" style="fill: none; stroke: #008000; stroke-width: 3; stroke-linecap: square"/>
   </g>
   <g id="line2d_33">
    <path d="M 148.834393 559.657748 
L 475.522359 559.605839 
L 476.347154 558.609883 
L 477.171949 556.282134 
L 477.996745 551.076829 
L 478.82154 543.304074 
L 480.471131 523.420909 
L 481.295926 515.630913 
L 482.945517 502.922793 
L 484.595108 493.033701 
L 486.244698 483.737527 
L 487.069494 477.939976 
L 489.54388 465.555929 
L 492.018266 455.570469 
L 495.317447 443.176058 
L 496.967038 438.232729 
L 499.441424 432.153269 
L 501.091015 428.494222 
L 502.740605 425.350115 
L 505.214991 421.43915 
L 506.864582 419.454472 
L 510.988559 415.985693 
L 512.646596 414.595303 
L 514.494197 413.024925 
L 515.532138 412.222915 
L 519.209351 410.053417 
L 520.648461 409.473095 
L 522.213559 409.1024 
L 523.914959 408.967281 
L 525.764855 409.027194 
L 527.776881 409.241943 
L 529.965976 409.599001 
L 534.942126 410.904101 
L 537.762087 412.296236 
L 540.83103 414.215328 
L 547.789746 417.120992 
L 551.721424 418.404524 
L 555.980275 419.343312 
L 560.58374 419.620136 
L 570.861092 419.011639 
L 576.520639 418.494272 
L 582.434635 418.18989 
L 588.373162 418.018975 
L 594.311688 417.486897 
L 600.250215 417.201395 
L 606.188741 416.568129 
L 618.065794 415.604571 
L 635.881374 414.369839 
L 641.819901 413.504153 
L 647.758427 413.056192 
L 653.696954 412.787758 
L 659.63548 413.629931 
L 665.574007 413.848055 
L 673.96984 414.343673 
L 690.761507 414.547678 
L 741.136507 415.580422 
L 791.511507 416.253642 
L 833.490674 416.466966 
L 867.074007 416.604155 
L 867.074007 416.604155 
" clip-path="url(#p8861a5e4ac)" style="fill: none; stroke: #ffa500; stroke-width: 3; stroke-linecap: square"/>
   </g>
   <g id="patch_3">
    <path d="M 135.40106 627.417748 
L 135.40106 17.577748 
" style="fill: none; stroke: #000000; stroke-width: 0.8; stroke-linejoin: miter; stroke-linecap: square"/>
   </g>
   <g id="patch_4">
    <path d="M 860.80106 627.417748 
L 860.80106 17.577748 
" style="fill: none; stroke: #000000; stroke-width: 0.8; stroke-linejoin: miter; stroke-linecap: square"/>
   </g>
   <g id="patch_5">
    <path d="M 135.40106 627.417748 
L 860.80106 627.417748 
" style="fill: none; stroke: #000000; stroke-width: 0.8; stroke-linejoin: miter; stroke-linecap: square"/>
   </g>
   <g id="patch_6">
    <path d="M 135.40106 17.577748 
L 860.80106 17.577748 
" style="fill: none; stroke: #000000; stroke-width: 0.8; stroke-linejoin: miter; stroke-linecap: square"/>
   </g>
   <g id="legend_1">
    <g id="patch_7">
     <path d="M 159.90106 359.429806 
L 376.703409 359.429806 
Q 383.703409 359.429806 383.703409 352.429806 
L 383.703409 42.077748 
Q 383.703409 35.077748 376.703409 35.077748 
L 159.90106 35.077748 
Q 152.90106 35.077748 152.90106 42.077748 
L 152.90106 352.429806 
Q 152.90106 359.429806 159.90106 359.429806 
z
" style="fill: #ffffff; stroke: #cccccc; stroke-linejoin: miter"/>
    </g>
    <g id="patch_8">
     <path d="M 166.90106 75.199396 
L 236.90106 75.199396 
L 236.90106 50.699396 
L 166.90106 50.699396 
z
" style="fill: #99ccff; fill-opacity: 0.7"/>
    </g>
    <g id="text_18">
     <!-- $\sigma \left[ Y_N \right]$ -->
     <g transform="translate(264.90106 75.199396)scale(0.35 -0.35)">
      <defs>
       <path id="CMMI12-1b" d="M 3251 2408 
C 3334 2408 3546 2408 3546 2612 
C 3546 2752 3424 2752 3309 2752 
L 1894 2752 
C 934 2752 243 1686 243 932 
C 243 390 595 -64 1171 -64 
C 1926 -64 2752 747 2752 1705 
C 2752 1954 2694 2196 2541 2408 
L 3251 2408 
z
M 1178 64 
C 851 64 614 313 614 754 
C 614 1137 845 2408 1786 2408 
C 2061 2408 2368 2274 2368 1781 
C 2368 1558 2266 1021 2042 652 
C 1811 275 1466 64 1178 64 
z
" transform="scale(0.015625)"/>
       <path id="CMR17-5b" d="M 1504 -1600 
L 1504 -1377 
L 902 -1377 
L 902 4544 
L 1504 4544 
L 1504 4767 
L 678 4767 
L 678 -1600 
L 1504 -1600 
z
" transform="scale(0.015625)"/>
       <path id="CMMI12-4e" d="M 4736 3698 
C 4806 3974 4909 4166 5395 4166 
C 5414 4166 5491 4166 5491 4279 
C 5491 4352 5434 4352 5408 4352 
C 5280 4352 4954 4352 4826 4352 
L 4518 4352 
C 4429 4352 4314 4352 4224 4352 
C 4186 4352 4109 4352 4109 4230 
C 4109 4166 4160 4166 4205 4166 
C 4589 4166 4614 4019 4614 3903 
C 4614 3846 4608 3826 4589 3737 
L 3866 850 
L 2496 4249 
C 2451 4352 2445 4352 2304 4352 
L 1523 4352 
C 1395 4352 1338 4352 1338 4230 
C 1338 4166 1382 4166 1504 4166 
C 1536 4166 1914 4166 1914 4115 
C 1914 4102 1901 4051 1894 4032 
L 1043 635 
C 966 320 813 186 390 186 
C 358 186 294 186 294 67 
C 294 0 358 0 378 0 
C 506 0 832 0 960 0 
L 1267 0 
C 1357 0 1466 0 1555 0 
C 1600 0 1670 0 1670 122 
C 1670 180 1606 186 1581 186 
C 1370 186 1165 224 1165 454 
C 1165 505 1178 562 1190 613 
L 2054 4032 
C 2093 3968 2093 3956 2118 3898 
L 3642 115 
C 3674 38 3686 0 3744 0 
C 3808 0 3814 19 3840 128 
L 4736 3698 
z
" transform="scale(0.015625)"/>
       <path id="CMR17-5d" d="M 915 4767 
L 90 4767 
L 90 4544 
L 691 4544 
L 691 -1377 
L 90 -1377 
L 90 -1600 
L 915 -1600 
L 915 4767 
z
" transform="scale(0.015625)"/>
      </defs>
      <use xlink:href="#CMMI12-1b" transform="scale(0.996264)"/>
      <use xlink:href="#CMR17-5b" transform="translate(75.624459 0.003177)scale(0.996264)"/>
      <use xlink:href="#CMMI12-59" transform="translate(100.495517 0)scale(0.996264)"/>
      <use xlink:href="#CMMI12-4e" transform="translate(157.094125 -14.943915)scale(0.697382)"/>
      <use xlink:href="#CMR17-5d" transform="translate(219.55723 0.003177)scale(0.996264)"/>
     </g>
    </g>
    <g id="line2d_34">
     <path d="M 166.90106 115.258072 
L 201.90106 115.258072 
L 236.90106 115.258072 
" style="fill: none; stroke: #0000ff; stroke-width: 3; stroke-linecap: square"/>
    </g>
    <g id="text_19">
     <!-- $\mu \left[ Y_N \right]$ -->
     <g transform="translate(264.90106 127.508072)scale(0.35 -0.35)">
      <defs>
       <path id="CMMI12-16" d="M 922 140 
C 1082 -6 1318 -64 1536 -64 
C 1946 -64 2227 208 2374 405 
C 2438 69 2707 -64 2931 -64 
C 3123 -64 3277 50 3392 277 
C 3494 493 3584 879 3584 903 
C 3584 935 3558 960 3520 960 
C 3462 960 3456 928 3430 834 
C 3334 461 3213 64 2950 64 
C 2765 64 2752 229 2752 358 
C 2752 504 2810 735 2854 926 
L 3034 1615 
C 3059 1737 3130 2023 3162 2139 
C 3200 2292 3270 2567 3270 2592 
C 3270 2688 3194 2752 3098 2752 
C 3040 2752 2906 2726 2854 2535 
L 2406 760 
C 2374 632 2374 619 2291 517 
C 2214 409 1965 64 1562 64 
C 1203 64 1088 326 1088 625 
C 1088 811 1146 1034 1171 1143 
L 1459 2293 
C 1491 2414 1542 2618 1542 2657 
C 1542 2759 1459 2816 1376 2816 
C 1318 2816 1178 2797 1126 2592 
L 198 -1107 
C 192 -1139 179 -1177 179 -1216 
C 179 -1312 256 -1376 352 -1376 
C 538 -1376 576 -1228 621 -1050 
L 922 140 
z
" transform="scale(0.015625)"/>
      </defs>
      <use xlink:href="#CMMI12-16" transform="scale(0.996264)"/>
      <use xlink:href="#CMR17-5b" transform="translate(75.295827 0.003177)scale(0.996264)"/>
      <use xlink:href="#CMMI12-59" transform="translate(100.166885 0)scale(0.996264)"/>
      <use xlink:href="#CMMI12-4e" transform="translate(156.765492 -14.943915)scale(0.697382)"/>
      <use xlink:href="#CMR17-5d" transform="translate(219.228598 0.003177)scale(0.996264)"/>
     </g>
    </g>
    <g id="patch_9">
     <path d="M 166.90106 179.816749 
L 236.90106 179.816749 
L 236.90106 155.316749 
L 166.90106 155.316749 
z
" style="fill: #008000; fill-opacity: 0.2"/>
    </g>
    <g id="text_20">
     <!-- $\sigma \left[ Y_O \right]$ -->
     <g transform="translate(264.90106 179.816749)scale(0.35 -0.35)">
      <defs>
       <path id="CMMI12-4f" d="M 4646 2797 
C 4646 3848 3955 4492 3059 4492 
C 1690 4492 307 3026 307 1554 
C 307 554 973 -128 1901 -128 
C 3245 -128 4646 1268 4646 2797 
z
M 1939 19 
C 1414 19 858 401 858 1395 
C 858 1974 1069 2924 1594 3562 
C 2061 4123 2598 4352 3027 4352 
C 3590 4352 4134 3944 4134 3026 
C 4134 2459 3891 1573 3462 968 
C 2995 318 2413 19 1939 19 
z
" transform="scale(0.015625)"/>
      </defs>
      <use xlink:href="#CMMI12-1b" transform="scale(0.996264)"/>
      <use xlink:href="#CMR17-5b" transform="translate(75.624459 0.003177)scale(0.996264)"/>
      <use xlink:href="#CMMI12-59" transform="translate(100.495517 0)scale(0.996264)"/>
      <use xlink:href="#CMMI12-4f" transform="translate(157.094125 -14.943915)scale(0.697382)"/>
      <use xlink:href="#CMR17-5d" transform="translate(211.674285 0.003177)scale(0.996264)"/>
     </g>
    </g>
    <g id="line2d_35">
     <path d="M 166.90106 219.875425 
L 201.90106 219.875425 
L 236.90106 219.875425 
" style="fill: none; stroke: #008000; stroke-width: 3; stroke-linecap: square"/>
    </g>
    <g id="text_21">
     <!-- $\mu \left[ Y_O \right]$ -->
     <g transform="translate(264.90106 232.125425)scale(0.35 -0.35)">
      <use xlink:href="#CMMI12-16" transform="scale(0.996264)"/>
      <use xlink:href="#CMR17-5b" transform="translate(75.295827 0.003177)scale(0.996264)"/>
      <use xlink:href="#CMMI12-59" transform="translate(100.166885 0)scale(0.996264)"/>
      <use xlink:href="#CMMI12-4f" transform="translate(156.765492 -14.943915)scale(0.697382)"/>
      <use xlink:href="#CMR17-5d" transform="translate(211.345653 0.003177)scale(0.996264)"/>
     </g>
    </g>
    <g id="patch_10">
     <path d="M 166.90106 284.434102 
L 236.90106 284.434102 
L 236.90106 259.934102 
L 166.90106 259.934102 
z
" style="fill: #ffa500; fill-opacity: 0.2"/>
    </g>
    <g id="text_22">
     <!-- $\sigma \left[ Y_{NO} \right]$ -->
     <g transform="translate(264.90106 284.434102)scale(0.35 -0.35)">
      <use xlink:href="#CMMI12-1b" transform="scale(0.996264)"/>
      <use xlink:href="#CMR17-5b" transform="translate(75.624459 0.003177)scale(0.996264)"/>
      <use xlink:href="#CMMI12-59" transform="translate(100.495517 0)scale(0.996264)"/>
      <use xlink:href="#CMMI12-4e" transform="translate(157.094125 -14.943915)scale(0.697382)"/>
      <use xlink:href="#CMMI12-4f" transform="translate(219.059098 -14.943915)scale(0.697382)"/>
      <use xlink:href="#CMR17-5d" transform="translate(273.639258 0.003177)scale(0.996264)"/>
     </g>
    </g>
    <g id="line2d_36">
     <path d="M 166.90106 324.492778 
L 201.90106 324.492778 
L 236.90106 324.492778 
" style="fill: none; stroke: #ffa500; stroke-width: 3; stroke-linecap: square"/>
    </g>
    <g id="text_23">
     <!-- $\mu \left[ Y_{NO} \right]$ -->
     <g transform="translate(264.90106 336.742778)scale(0.35 -0.35)">
      <use xlink:href="#CMMI12-16" transform="scale(0.996264)"/>
      <use xlink:href="#CMR17-5b" transform="translate(75.295827 0.003177)scale(0.996264)"/>
      <use xlink:href="#CMMI12-59" transform="translate(100.166885 0)scale(0.996264)"/>
      <use xlink:href="#CMMI12-4e" transform="translate(156.765492 -14.943915)scale(0.697382)"/>
      <use xlink:href="#CMMI12-4f" transform="translate(218.730466 -14.943915)scale(0.697382)"/>
      <use xlink:href="#CMR17-5d" transform="translate(273.310626 0.003177)scale(0.996264)"/>
     </g>
    </g>
   </g>
  </g>
 </g>
 <defs>
  <clipPath id="p8861a5e4ac">
   <rect x="135.40106" y="17.577748" width="725.4" height="609.84"/>
  </clipPath>
 </defs>
</svg>
