<?xml version="1.0" encoding="utf-8" standalone="no"?>
<!DOCTYPE svg PUBLIC "-//W3C//DTD SVG 1.1//EN"
  "http://www.w3.org/Graphics/SVG/1.1/DTD/svg11.dtd">
<svg xmlns:xlink="http://www.w3.org/1999/xlink" width="817.340543pt" height="692.806049pt" viewBox="0 0 817.340543 692.806049" xmlns="http://www.w3.org/2000/svg" version="1.1">
 <metadata>
  <rdf:RDF xmlns:dc="http://purl.org/dc/elements/1.1/" xmlns:cc="http://creativecommons.org/ns#" xmlns:rdf="http://www.w3.org/1999/02/22-rdf-syntax-ns#">
   <cc:Work>
    <dc:type rdf:resource="http://purl.org/dc/dcmitype/StillImage"/>
    <dc:date>2025-03-26T12:43:15.887049</dc:date>
    <dc:format>image/svg+xml</dc:format>
    <dc:creator>
     <cc:Agent>
      <dc:title>Matplotlib v3.7.1, https://matplotlib.org/</dc:title>
     </cc:Agent>
    </dc:creator>
   </cc:Work>
  </rdf:RDF>
 </metadata>
 <defs>
  <style type="text/css">*{stroke-linejoin: round; stroke-linecap: butt}</style>
 </defs>
 <g id="figure_1">
  <g id="patch_1">
   <path d="M 0 692.806049 
L 817.340543 692.806049 
L 817.340543 0 
L 0 0 
z
" style="fill: #ffffff"/>
  </g>
  <g id="axes_1">
   <g id="patch_2">
    <path d="M 84.740543 617.04 
L 810.140543 617.04 
L 810.140543 7.2 
L 84.740543 7.2 
z
" style="fill: #ffffff"/>
   </g>
   <g id="PolyCollection_1">
    <path d="M 98.173876 45.153712 
L 98.173876 28.643359 
L 116.431039 28.643359 
L 129.758886 28.643359 
L 139.488459 28.643359 
L 146.591443 28.643359 
L 151.777195 28.643359 
L 155.563586 28.643359 
L 158.328706 28.643359 
L 160.348615 28.643359 
L 161.824883 28.643359 
L 163.003614 28.643359 
L 164.172078 28.643359 
L 165.340543 28.643359 
L 166.538108 28.643359 
L 167.735674 28.643359 
L 168.93324 28.643359 
L 170.130806 28.643359 
L 171.328372 28.643359 
L 172.525938 28.643359 
L 173.723503 28.643359 
L 174.921069 28.643359 
L 176.118635 28.643359 
L 177.316201 28.643359 
L 178.513767 28.643359 
L 179.711333 28.643359 
L 180.908899 28.643359 
L 182.106464 28.643359 
L 183.30403 28.643359 
L 184.501596 28.643359 
L 185.699162 28.643359 
L 186.896728 28.643359 
L 188.094294 28.643359 
L 189.29186 28.643359 
L 190.489425 28.643359 
L 191.686991 28.643359 
L 192.884557 28.643359 
L 194.082123 28.643359 
L 195.279689 28.643359 
L 196.477255 28.643359 
L 197.67482 28.643359 
L 198.872386 28.643359 
L 200.069952 28.643359 
L 201.267518 28.643359 
L 202.465084 28.643359 
L 203.66265 28.643359 
L 204.860216 28.643359 
L 206.057781 28.643359 
L 207.255348 28.643359 
L 208.483084 28.643359 
L 209.754687 28.643359 
L 211.072047 28.643359 
L 212.437687 28.643359 
L 213.854188 28.643359 
L 215.323037 28.643359 
L 216.846002 28.643359 
L 218.425143 28.643359 
L 220.062728 28.643359 
L 221.760188 28.643359 
L 223.519294 28.643359 
L 225.342524 28.643359 
L 227.233206 28.643359 
L 229.195102 28.643359 
L 231.22732 28.643359 
L 233.334433 28.643359 
L 235.520279 28.643359 
L 237.784986 28.643359 
L 240.13438 28.643359 
L 242.569764 28.643359 
L 245.094029 28.643359 
L 247.712249 28.643359 
L 250.426736 28.643359 
L 253.240878 28.643359 
L 256.158537 28.643359 
L 259.183659 28.643359 
L 262.320153 28.643359 
L 265.571987 28.643359 
L 268.943457 28.643359 
L 272.439589 28.643359 
L 276.064277 28.643359 
L 279.822265 28.643359 
L 283.718869 28.643359 
L 287.759142 28.643359 
L 291.947918 28.643359 
L 296.29096 28.643359 
L 300.794123 28.643359 
L 305.463282 28.643359 
L 310.304339 28.643359 
L 315.29816 28.643359 
L 320.435983 28.643359 
L 325.762941 28.643359 
L 331.286498 28.643359 
L 337.013522 28.643359 
L 342.951641 28.643359 
L 349.108683 28.643359 
L 355.492614 28.643359 
L 362.111889 28.643359 
L 368.97529 28.643359 
L 376.091697 28.643359 
L 383.470397 28.643359 
L 391.12112 28.643359 
L 398.673979 28.643359 
L 404.310899 28.643359 
L 408.325155 28.643359 
L 411.18435 28.643359 
L 413.221285 28.643359 
L 414.672799 28.643359 
L 415.813566 28.643359 
L 416.9446 28.643359 
L 418.075635 28.643359 
L 419.206669 28.643359 
L 420.337704 28.643359 
L 421.468738 28.643359 
L 422.599772 28.643359 
L 423.730807 28.643359 
L 424.861841 28.652986 
L 425.686637 28.806052 
L 426.511432 29.066347 
L 427.336227 29.605964 
L 428.161023 30.333953 
L 428.985818 31.446996 
L 429.810613 32.412938 
L 430.635409 33.241582 
L 431.460204 33.947954 
L 432.284999 34.611001 
L 433.109795 35.167818 
L 433.93459 35.670304 
L 434.759385 36.177717 
L 435.584181 36.682495 
L 436.408976 37.340194 
L 437.233772 37.816202 
L 438.058567 38.288056 
L 438.883362 38.748719 
L 439.708158 39.157333 
L 440.532953 39.520227 
L 441.357748 39.94153 
L 442.182544 40.334486 
L 443.007339 40.757249 
L 443.832134 41.171519 
L 444.65693 41.51279 
L 445.481725 41.850464 
L 446.30652 42.159249 
L 447.131316 42.432894 
L 447.956111 42.698333 
L 448.780907 42.964336 
L 449.605702 43.211769 
L 450.430497 43.450249 
L 451.255293 43.670957 
L 452.080088 43.875758 
L 452.904883 44.064017 
L 453.729679 44.25011 
L 454.554474 44.422136 
L 455.379269 44.570366 
L 456.204065 44.713 
L 457.02886 44.82395 
L 457.853655 44.926468 
L 458.678451 45.038281 
L 459.503246 45.140771 
L 460.328042 45.245495 
L 461.152837 45.338177 
L 461.986079 45.444386 
L 462.871043 45.554055 
L 463.83368 45.659527 
L 464.871621 45.76799 
L 465.999135 45.858753 
L 467.222962 45.955557 
L 468.548834 46.049167 
L 469.987944 46.112159 
L 471.553042 46.139444 
L 473.254441 46.131219 
L 475.104338 46.093796 
L 477.116364 46.043037 
L 479.305458 45.976042 
L 481.688184 45.882536 
L 484.281608 45.775625 
L 487.10157 45.58074 
L 490.170512 45.333945 
L 493.505407 45.162324 
L 497.129228 44.982031 
L 501.060907 44.843047 
L 505.319758 44.760567 
L 509.923223 44.778499 
L 514.882622 44.88097 
L 520.200574 44.996763 
L 525.860121 45.133255 
L 531.774117 45.245003 
L 537.712644 45.328594 
L 543.651171 45.442941 
L 549.589697 45.53206 
L 555.528224 45.692573 
L 561.46675 45.860971 
L 567.405277 46.025223 
L 573.343803 46.16149 
L 579.28233 46.251468 
L 585.220857 46.355851 
L 591.159383 46.52129 
L 597.09791 46.703356 
L 603.036436 46.871795 
L 608.974963 46.861093 
L 614.913489 46.800875 
L 623.309323 46.540675 
L 631.705156 46.46523 
L 640.100989 46.359813 
L 648.496823 46.241585 
L 656.892656 46.130678 
L 665.288489 46.032217 
L 673.684323 45.943994 
L 682.080156 45.871609 
L 690.475989 45.807005 
L 698.871823 45.744581 
L 707.267656 45.681389 
L 715.663489 45.623224 
L 724.059323 45.569202 
L 732.455156 45.516044 
L 740.850989 45.47361 
L 749.246823 45.429996 
L 757.642656 45.390854 
L 766.038489 45.350463 
L 774.434323 45.316566 
L 782.830156 45.281054 
L 791.225989 45.252378 
L 799.621823 45.221118 
L 808.017656 45.198167 
L 816.413489 45.183221 
L 816.413489 65.45662 
L 816.413489 65.45662 
L 808.017656 65.454347 
L 799.621823 65.449868 
L 791.225989 65.446607 
L 782.830156 65.435123 
L 774.434323 65.422489 
L 766.038489 65.405901 
L 757.642656 65.393035 
L 749.246823 65.379293 
L 740.850989 65.366783 
L 732.455156 65.354099 
L 724.059323 65.358473 
L 715.663489 65.360788 
L 707.267656 65.362928 
L 698.871823 65.364452 
L 690.475989 65.361641 
L 682.080156 65.356669 
L 673.684323 65.365523 
L 665.288489 65.391207 
L 656.892656 65.406805 
L 648.496823 65.373019 
L 640.100989 65.353671 
L 631.705156 65.34752 
L 623.309323 65.369716 
L 614.913489 65.502715 
L 608.974963 65.490315 
L 603.036436 65.471561 
L 597.09791 65.404557 
L 591.159383 65.288999 
L 585.220857 65.155962 
L 579.28233 65.047637 
L 573.343803 64.956897 
L 567.405277 64.84708 
L 561.46675 64.726478 
L 555.528224 64.611465 
L 549.589697 64.498243 
L 543.651171 64.440101 
L 537.712644 64.369659 
L 531.774117 64.35392 
L 525.860121 64.345825 
L 520.200574 64.332054 
L 514.882622 64.340399 
L 509.923223 64.350801 
L 505.319758 64.421931 
L 501.060907 64.557824 
L 497.129228 64.731223 
L 493.505407 64.940498 
L 490.170512 65.135822 
L 487.10157 65.407132 
L 484.281608 65.620907 
L 481.688184 65.751859 
L 479.305458 65.8747 
L 477.116364 65.98497 
L 475.104338 66.089803 
L 473.254441 66.185478 
L 471.553042 66.259069 
L 469.987944 66.30519 
L 468.548834 66.318017 
L 467.222962 66.306249 
L 465.999135 66.284746 
L 464.871621 66.266308 
L 463.83368 66.225759 
L 462.871043 66.186349 
L 461.986079 66.143379 
L 461.152837 66.102169 
L 460.328042 66.075211 
L 459.503246 66.037962 
L 458.678451 66.006338 
L 457.853655 65.964722 
L 457.02886 65.932801 
L 456.204065 65.891052 
L 455.379269 65.816819 
L 454.554474 65.737887 
L 453.729679 65.63243 
L 452.904883 65.509426 
L 452.080088 65.37914 
L 451.255293 65.231029 
L 450.430497 65.066148 
L 449.605702 64.880891 
L 448.780907 64.68399 
L 447.956111 64.468913 
L 447.131316 64.256856 
L 446.30652 64.038036 
L 445.481725 63.781611 
L 444.65693 63.492738 
L 443.832134 63.200273 
L 443.007339 62.829628 
L 442.182544 62.43563 
L 441.357748 62.05646 
L 440.532953 61.635039 
L 439.708158 61.258478 
L 438.883362 60.81668 
L 438.058567 60.305178 
L 437.233772 59.7589 
L 436.408976 59.192085 
L 435.584181 58.413854 
L 434.759385 57.774598 
L 433.93459 57.121862 
L 433.109795 56.453876 
L 432.284999 55.690213 
L 431.460204 54.759449 
L 430.635409 53.755786 
L 429.810613 52.457345 
L 428.985818 50.836265 
L 428.161023 48.811663 
L 427.336227 47.105402 
L 426.511432 45.925266 
L 425.686637 45.372229 
L 424.861841 45.163778 
L 423.730807 45.153712 
L 422.599772 45.153712 
L 421.468738 45.153712 
L 420.337704 45.153712 
L 419.206669 45.153712 
L 418.075635 45.153712 
L 416.9446 45.153712 
L 415.813566 45.153712 
L 414.672799 45.153712 
L 413.221285 45.153712 
L 411.18435 45.153712 
L 408.325155 45.153712 
L 404.310899 45.153712 
L 398.673979 45.153712 
L 391.12112 45.153712 
L 383.470397 45.153712 
L 376.091697 45.153712 
L 368.97529 45.153712 
L 362.111889 45.153712 
L 355.492614 45.153712 
L 349.108683 45.153712 
L 342.951641 45.153712 
L 337.013522 45.153712 
L 331.286498 45.153712 
L 325.762941 45.153712 
L 320.435983 45.153712 
L 315.29816 45.153712 
L 310.304339 45.153712 
L 305.463282 45.153712 
L 300.794123 45.153712 
L 296.29096 45.153712 
L 291.947918 45.153712 
L 287.759142 45.153712 
L 283.718869 45.153712 
L 279.822265 45.153712 
L 276.064277 45.153712 
L 272.439589 45.153712 
L 268.943457 45.153712 
L 265.571987 45.153712 
L 262.320153 45.153712 
L 259.183659 45.153712 
L 256.158537 45.153712 
L 253.240878 45.153712 
L 250.426736 45.153712 
L 247.712249 45.153712 
L 245.094029 45.153712 
L 242.569764 45.153712 
L 240.13438 45.153712 
L 237.784986 45.153712 
L 235.520279 45.153712 
L 233.334433 45.153712 
L 231.22732 45.153712 
L 229.195102 45.153712 
L 227.233206 45.153712 
L 225.342524 45.153712 
L 223.519294 45.153712 
L 221.760188 45.153712 
L 220.062728 45.153712 
L 218.425143 45.153712 
L 216.846002 45.153712 
L 215.323037 45.153712 
L 213.854188 45.153712 
L 212.437687 45.153712 
L 211.072047 45.153712 
L 209.754687 45.153712 
L 208.483084 45.153712 
L 207.255348 45.153712 
L 206.057781 45.153712 
L 204.860216 45.153712 
L 203.66265 45.153712 
L 202.465084 45.153712 
L 201.267518 45.153712 
L 200.069952 45.153712 
L 198.872386 45.153712 
L 197.67482 45.153712 
L 196.477255 45.153712 
L 195.279689 45.153712 
L 194.082123 45.153712 
L 192.884557 45.153712 
L 191.686991 45.153712 
L 190.489425 45.153712 
L 189.29186 45.153712 
L 188.094294 45.153712 
L 186.896728 45.153712 
L 185.699162 45.153712 
L 184.501596 45.153712 
L 183.30403 45.153712 
L 182.106464 45.153712 
L 180.908899 45.153712 
L 179.711333 45.153712 
L 178.513767 45.153712 
L 177.316201 45.153712 
L 176.118635 45.153712 
L 174.921069 45.153712 
L 173.723503 45.153712 
L 172.525938 45.153712 
L 171.328372 45.153712 
L 170.130806 45.153712 
L 168.93324 45.153712 
L 167.735674 45.153712 
L 166.538108 45.153712 
L 165.340543 45.153712 
L 164.172078 45.153712 
L 163.003614 45.153712 
L 161.824883 45.153712 
L 160.348615 45.153712 
L 158.328706 45.153712 
L 155.563586 45.153712 
L 151.777195 45.153712 
L 146.591443 45.153712 
L 139.488459 45.153712 
L 129.758886 45.153712 
L 116.431039 45.153712 
L 98.173876 45.153712 
z
" clip-path="url(#p0c0c881a87)" style="fill: #008000; fill-opacity: 0.2"/>
   </g>
   <g id="PolyCollection_2">
    <path d="M 98.173876 447.647292 
L 98.173876 431.136939 
L 116.431039 431.136939 
L 129.758886 431.136939 
L 139.488459 431.136939 
L 146.591443 431.136939 
L 151.777195 431.136939 
L 155.563586 431.136939 
L 158.328706 431.136939 
L 160.348615 431.136939 
L 161.824883 431.136939 
L 163.003614 431.136939 
L 164.172078 431.136939 
L 165.340543 431.136939 
L 166.538108 431.136939 
L 167.735674 431.136939 
L 168.93324 431.136939 
L 170.130806 431.136939 
L 171.328372 431.136939 
L 172.525938 431.136939 
L 173.723503 431.136939 
L 174.921069 431.136939 
L 176.118635 431.136939 
L 177.316201 431.136939 
L 178.513767 431.136939 
L 179.711333 431.136939 
L 180.908899 431.136939 
L 182.106464 431.136939 
L 183.30403 431.136939 
L 184.501596 431.136939 
L 185.699162 431.136939 
L 186.896728 431.136939 
L 188.094294 431.136939 
L 189.29186 431.136939 
L 190.489425 431.136939 
L 191.686991 431.136939 
L 192.884557 431.136939 
L 194.082123 431.136939 
L 195.279689 431.136939 
L 196.477255 431.136939 
L 197.67482 431.136939 
L 198.872386 431.136939 
L 200.069952 431.136939 
L 201.267518 431.136939 
L 202.465084 431.136939 
L 203.66265 431.136939 
L 204.860216 431.136939 
L 206.057781 431.136939 
L 207.255348 431.136939 
L 208.483084 431.136939 
L 209.754687 431.136939 
L 211.072047 431.136939 
L 212.437687 431.136939 
L 213.854188 431.136939 
L 215.323037 431.136939 
L 216.846002 431.136939 
L 218.425143 431.136939 
L 220.062728 431.136939 
L 221.760188 431.136939 
L 223.519294 431.136939 
L 225.342524 431.136939 
L 227.233206 431.136939 
L 229.195102 431.136939 
L 231.22732 431.136939 
L 233.334433 431.136939 
L 235.520279 431.136939 
L 237.784986 431.136939 
L 240.13438 431.136939 
L 242.569764 431.136939 
L 245.094029 431.136939 
L 247.712249 431.136939 
L 250.426736 431.136939 
L 253.240878 431.136939 
L 256.158537 431.136939 
L 259.183659 431.136939 
L 262.320153 431.136939 
L 265.571987 431.136939 
L 268.943457 431.136939 
L 272.439589 431.136939 
L 276.064277 431.136939 
L 279.822265 431.136939 
L 283.718869 431.136939 
L 287.759142 431.136939 
L 291.947918 431.136939 
L 296.29096 431.136939 
L 300.794123 431.136939 
L 305.463282 431.136939 
L 310.304339 431.136939 
L 315.29816 431.136939 
L 320.435983 431.136939 
L 325.762941 431.136939 
L 331.286498 431.136939 
L 337.013522 431.136939 
L 342.951641 431.136939 
L 349.108683 431.136939 
L 355.492614 431.136939 
L 362.111889 431.136939 
L 368.97529 431.136939 
L 376.091697 431.136939 
L 383.470397 431.136939 
L 391.12112 431.136939 
L 398.673979 431.136939 
L 404.310899 431.136939 
L 408.325155 431.136939 
L 411.18435 431.136939 
L 413.221285 431.136939 
L 414.672799 431.136939 
L 415.813566 431.136939 
L 416.9446 431.136939 
L 418.075635 431.136939 
L 419.206669 431.136939 
L 420.337704 431.136939 
L 421.468738 431.136939 
L 422.599772 431.136939 
L 423.730807 431.13694 
L 424.861841 431.187165 
L 425.686637 431.855968 
L 426.511432 432.698162 
L 427.336227 434.427707 
L 428.161023 437.070065 
L 428.985818 441.927095 
L 429.810613 446.483792 
L 430.635409 450.336854 
L 431.460204 453.896828 
L 432.284999 457.079836 
L 433.109795 459.815765 
L 433.93459 462.302276 
L 434.759385 464.830844 
L 435.584181 467.318449 
L 436.408976 470.522671 
L 437.233772 472.833728 
L 438.058567 475.108348 
L 438.883362 477.301258 
L 439.708158 479.216884 
L 440.532953 480.923284 
L 441.357748 482.900374 
L 442.182544 484.742786 
L 443.007339 486.71596 
L 443.832134 488.648659 
L 444.65693 490.19998 
L 445.481725 491.730892 
L 446.30652 493.12909 
L 447.131316 494.373981 
L 447.956111 495.572643 
L 448.780907 496.769997 
L 449.605702 497.866296 
L 450.430497 498.916374 
L 451.255293 499.879876 
L 452.080088 500.77628 
L 452.904883 501.605507 
L 453.729679 502.421196 
L 454.554474 503.175888 
L 455.379269 503.83391 
L 456.204065 504.46412 
L 457.02886 504.954601 
L 457.853655 505.404821 
L 458.678451 505.940651 
L 459.503246 506.433922 
L 460.328042 506.958776 
L 461.152837 507.465723 
L 461.986079 508.039537 
L 462.871043 508.640828 
L 463.83368 509.223187 
L 464.871621 509.830138 
L 465.999135 510.387081 
L 467.222962 510.95687 
L 468.548834 511.54804 
L 469.987944 512.052324 
L 471.553042 512.452296 
L 473.254441 512.666661 
L 475.104338 512.756945 
L 477.116364 512.738374 
L 479.305458 512.602758 
L 481.688184 512.265521 
L 484.281608 511.791674 
L 487.10157 510.894384 
L 490.170512 509.668284 
L 493.505407 508.840293 
L 497.129228 508.105171 
L 501.060907 507.609456 
L 505.319758 507.352189 
L 509.923223 507.494702 
L 514.882622 508.02303 
L 520.200574 508.789085 
L 525.860121 509.778596 
L 531.774117 510.973671 
L 537.712644 512.14827 
L 543.651171 513.493321 
L 549.589697 514.997462 
L 555.528224 517.222348 
L 561.46675 520.011923 
L 567.405277 522.885925 
L 573.343803 525.552409 
L 579.28233 527.773904 
L 585.220857 529.869381 
L 591.159383 532.241902 
L 597.09791 535.327722 
L 603.036436 539.122267 
L 608.974963 542.159834 
L 614.913489 543.929121 
L 623.309323 544.304808 
L 631.705156 544.500344 
L 640.100989 544.693608 
L 648.496823 544.864648 
L 656.892656 545.044197 
L 665.288489 545.234297 
L 673.684323 545.370381 
L 682.080156 545.476236 
L 690.475989 545.56981 
L 698.871823 545.647251 
L 707.267656 545.721819 
L 715.663489 545.795707 
L 724.059323 545.873281 
L 732.455156 545.947194 
L 740.850989 546.000363 
L 749.246823 546.051455 
L 757.642656 546.095003 
L 766.038489 546.128193 
L 774.434323 546.158949 
L 782.830156 546.193931 
L 791.225989 546.231093 
L 799.621823 546.271285 
L 808.017656 546.295342 
L 816.413489 546.315797 
L 816.413489 578.399296 
L 816.413489 578.399296 
L 808.017656 578.388275 
L 799.621823 578.377385 
L 791.225989 578.35767 
L 782.830156 578.346122 
L 774.434323 578.341872 
L 766.038489 578.342752 
L 757.642656 578.344435 
L 749.246823 578.339611 
L 740.850989 578.331555 
L 732.455156 578.321701 
L 724.059323 578.286819 
L 715.663489 578.250829 
L 707.267656 578.223024 
L 698.871823 578.201263 
L 690.475989 578.180957 
L 682.080156 578.151522 
L 673.684323 578.104716 
L 665.288489 578.033138 
L 656.892656 577.944905 
L 648.496823 577.928405 
L 640.100989 577.930695 
L 631.705156 577.911364 
L 623.309323 577.818478 
L 614.913489 577.718869 
L 608.974963 576.588897 
L 603.036436 574.548789 
L 597.09791 572.12691 
L 591.159383 570.248196 
L 585.220857 569.023019 
L 579.28233 568.065395 
L 573.343803 566.889237 
L 567.405277 565.302654 
L 561.46675 563.557954 
L 555.528224 561.880605 
L 549.589697 560.62644 
L 543.651171 559.963635 
L 537.712644 559.54301 
L 531.774117 559.382738 
L 525.860121 559.192192 
L 520.200574 559.01231 
L 514.882622 558.805184 
L 509.923223 558.563321 
L 505.319758 558.529657 
L 501.060907 558.714739 
L 497.129228 559.02487 
L 493.505407 559.523707 
L 490.170512 560.10649 
L 487.10157 561.119442 
L 484.281608 561.784797 
L 481.688184 562.054696 
L 479.305458 562.237665 
L 477.116364 562.297132 
L 475.104338 562.294265 
L 473.254441 562.213735 
L 471.553042 562.050289 
L 469.987944 561.752002 
L 468.548834 561.391011 
L 467.222962 560.975971 
L 465.999135 560.577484 
L 464.871621 560.20336 
L 463.83368 559.786647 
L 462.871043 559.398733 
L 461.986079 558.995508 
L 461.152837 558.613496 
L 460.328042 558.305178 
L 459.503246 557.99231 
L 458.678451 557.711071 
L 457.853655 557.381998 
L 457.02886 557.137002 
L 456.204065 556.851985 
L 455.379269 556.419857 
L 454.554474 555.965187 
L 453.729679 555.398832 
L 452.904883 554.757687 
L 452.080088 554.072188 
L 451.255293 553.344995 
L 450.430497 552.555628 
L 449.605702 551.686027 
L 448.780907 550.7621 
L 447.956111 549.766585 
L 447.131316 548.781378 
L 446.30652 547.755816 
L 445.481725 546.563179 
L 444.65693 545.209909 
L 443.832134 543.830764 
L 443.007339 542.035366 
L 442.182544 540.111514 
L 441.357748 538.24209 
L 440.532953 536.137344 
L 439.708158 534.237162 
L 438.883362 531.994212 
L 438.058567 529.353024 
L 437.233772 526.414877 
L 436.408976 523.35785 
L 435.584181 519.090879 
L 434.759385 515.42859 
L 433.93459 511.621543 
L 433.109795 507.68289 
L 432.284999 503.193088 
L 431.460204 497.731359 
L 430.635409 491.746118 
L 429.810613 484.251252 
L 428.985818 475.499605 
L 428.161023 465.460172 
L 427.336227 457.198891 
L 426.511432 451.405896 
L 425.686637 448.594295 
L 424.861841 447.694363 
L 423.730807 447.647292 
L 422.599772 447.647292 
L 421.468738 447.647292 
L 420.337704 447.647292 
L 419.206669 447.647292 
L 418.075635 447.647292 
L 416.9446 447.647292 
L 415.813566 447.647292 
L 414.672799 447.647292 
L 413.221285 447.647292 
L 411.18435 447.647292 
L 408.325155 447.647292 
L 404.310899 447.647292 
L 398.673979 447.647292 
L 391.12112 447.647292 
L 383.470397 447.647292 
L 376.091697 447.647292 
L 368.97529 447.647292 
L 362.111889 447.647292 
L 355.492614 447.647292 
L 349.108683 447.647292 
L 342.951641 447.647292 
L 337.013522 447.647292 
L 331.286498 447.647292 
L 325.762941 447.647292 
L 320.435983 447.647292 
L 315.29816 447.647292 
L 310.304339 447.647292 
L 305.463282 447.647292 
L 300.794123 447.647292 
L 296.29096 447.647292 
L 291.947918 447.647292 
L 287.759142 447.647292 
L 283.718869 447.647292 
L 279.822265 447.647292 
L 276.064277 447.647292 
L 272.439589 447.647292 
L 268.943457 447.647292 
L 265.571987 447.647292 
L 262.320153 447.647292 
L 259.183659 447.647292 
L 256.158537 447.647292 
L 253.240878 447.647292 
L 250.426736 447.647292 
L 247.712249 447.647292 
L 245.094029 447.647292 
L 242.569764 447.647292 
L 240.13438 447.647292 
L 237.784986 447.647292 
L 235.520279 447.647292 
L 233.334433 447.647292 
L 231.22732 447.647292 
L 229.195102 447.647292 
L 227.233206 447.647292 
L 225.342524 447.647292 
L 223.519294 447.647292 
L 221.760188 447.647292 
L 220.062728 447.647292 
L 218.425143 447.647292 
L 216.846002 447.647292 
L 215.323037 447.647292 
L 213.854188 447.647292 
L 212.437687 447.647292 
L 211.072047 447.647292 
L 209.754687 447.647292 
L 208.483084 447.647292 
L 207.255348 447.647292 
L 206.057781 447.647292 
L 204.860216 447.647292 
L 203.66265 447.647292 
L 202.465084 447.647292 
L 201.267518 447.647292 
L 200.069952 447.647292 
L 198.872386 447.647292 
L 197.67482 447.647292 
L 196.477255 447.647292 
L 195.279689 447.647292 
L 194.082123 447.647292 
L 192.884557 447.647292 
L 191.686991 447.647292 
L 190.489425 447.647292 
L 189.29186 447.647292 
L 188.094294 447.647292 
L 186.896728 447.647292 
L 185.699162 447.647292 
L 184.501596 447.647292 
L 183.30403 447.647292 
L 182.106464 447.647292 
L 180.908899 447.647292 
L 179.711333 447.647292 
L 178.513767 447.647292 
L 177.316201 447.647292 
L 176.118635 447.647292 
L 174.921069 447.647292 
L 173.723503 447.647292 
L 172.525938 447.647292 
L 171.328372 447.647292 
L 170.130806 447.647292 
L 168.93324 447.647292 
L 167.735674 447.647292 
L 166.538108 447.647292 
L 165.340543 447.647292 
L 164.172078 447.647292 
L 163.003614 447.647292 
L 161.824883 447.647292 
L 160.348615 447.647292 
L 158.328706 447.647292 
L 155.563586 447.647292 
L 151.777195 447.647292 
L 146.591443 447.647292 
L 139.488459 447.647292 
L 129.758886 447.647292 
L 116.431039 447.647292 
L 98.173876 447.647292 
z
" clip-path="url(#p0c0c881a87)" style="fill: #99ccff; fill-opacity: 0.7"/>
   </g>
   <g id="matplotlib.axis_1">
    <g id="xtick_1">
     <g id="line2d_1">
      <path d="M 165.340543 617.04 
L 165.340543 7.2 
" clip-path="url(#p0c0c881a87)" style="fill: none; stroke: #b0b0b0; stroke-width: 0.8; stroke-linecap: square"/>
     </g>
     <g id="line2d_2">
      <defs>
       <path id="m7ef1c55074" d="M 0 0 
L 0 3.5 
" style="stroke: #000000; stroke-width: 0.8"/>
      </defs>
      <g>
       <use xlink:href="#m7ef1c55074" x="165.340543" y="617.04" style="stroke: #000000; stroke-width: 0.8"/>
      </g>
     </g>
     <g id="text_1">
      <!-- $\mathdefault{0.0}$ -->
      <g transform="translate(147.568823 644.795495) scale(0.3 -0.3)">
       <defs>
        <path id="CMR17-30" d="M 2688 2025 
C 2688 2416 2682 3080 2413 3591 
C 2176 4039 1798 4198 1466 4198 
C 1158 4198 768 4058 525 3597 
C 269 3118 243 2524 243 2025 
C 243 1661 250 1106 448 619 
C 723 -39 1216 -128 1466 -128 
C 1760 -128 2208 -7 2470 600 
C 2662 1042 2688 1559 2688 2025 
z
M 1466 -26 
C 1056 -26 813 325 723 812 
C 653 1188 653 1738 653 2096 
C 653 2588 653 2997 736 3387 
C 858 3929 1216 4096 1466 4096 
C 1728 4096 2067 3923 2189 3400 
C 2272 3036 2278 2607 2278 2096 
C 2278 1680 2278 1169 2202 792 
C 2067 95 1690 -26 1466 -26 
z
" transform="scale(0.015625)"/>
        <path id="CMMI12-3a" d="M 1178 307 
C 1178 492 1024 619 870 619 
C 685 619 557 466 557 313 
C 557 128 710 0 864 0 
C 1050 0 1178 153 1178 307 
z
" transform="scale(0.015625)"/>
       </defs>
       <use xlink:href="#CMR17-30" transform="scale(0.996264)"/>
       <use xlink:href="#CMMI12-3a" transform="translate(45.690477 0) scale(0.996264)"/>
       <use xlink:href="#CMR17-30" transform="translate(72.787654 0) scale(0.996264)"/>
      </g>
     </g>
    </g>
    <g id="xtick_2">
     <g id="line2d_3">
      <path d="M 299.673876 617.04 
L 299.673876 7.2 
" clip-path="url(#p0c0c881a87)" style="fill: none; stroke: #b0b0b0; stroke-width: 0.8; stroke-linecap: square"/>
     </g>
     <g id="line2d_4">
      <g>
       <use xlink:href="#m7ef1c55074" x="299.673876" y="617.04" style="stroke: #000000; stroke-width: 0.8"/>
      </g>
     </g>
     <g id="text_2">
      <!-- $\mathdefault{0.1}$ -->
      <g transform="translate(281.902156 644.795495) scale(0.3 -0.3)">
       <defs>
        <path id="CMR17-31" d="M 1702 4058 
C 1702 4192 1696 4192 1606 4192 
C 1357 3916 979 3827 621 3827 
C 602 3827 570 3827 563 3808 
C 557 3795 557 3782 557 3648 
C 755 3648 1088 3686 1344 3839 
L 1344 461 
C 1344 236 1331 160 781 160 
L 589 160 
L 589 0 
C 896 0 1216 0 1523 0 
C 1830 0 2150 0 2458 0 
L 2458 160 
L 2266 160 
C 1715 160 1702 230 1702 458 
L 1702 4058 
z
" transform="scale(0.015625)"/>
       </defs>
       <use xlink:href="#CMR17-30" transform="scale(0.996264)"/>
       <use xlink:href="#CMMI12-3a" transform="translate(45.690477 0) scale(0.996264)"/>
       <use xlink:href="#CMR17-31" transform="translate(72.787654 0) scale(0.996264)"/>
      </g>
     </g>
    </g>
    <g id="xtick_3">
     <g id="line2d_5">
      <path d="M 434.007209 617.04 
L 434.007209 7.2 
" clip-path="url(#p0c0c881a87)" style="fill: none; stroke: #b0b0b0; stroke-width: 0.8; stroke-linecap: square"/>
     </g>
     <g id="line2d_6">
      <g>
       <use xlink:href="#m7ef1c55074" x="434.007209" y="617.04" style="stroke: #000000; stroke-width: 0.8"/>
      </g>
     </g>
     <g id="text_3">
      <!-- $\mathdefault{0.2}$ -->
      <g transform="translate(416.23549 644.795495) scale(0.3 -0.3)">
       <defs>
        <path id="CMR17-32" d="M 2669 989 
L 2554 989 
C 2490 536 2438 459 2413 420 
C 2381 369 1920 369 1830 369 
L 602 369 
C 832 619 1280 1072 1824 1597 
C 2214 1967 2669 2402 2669 3035 
C 2669 3790 2067 4224 1395 4224 
C 691 4224 262 3604 262 3030 
C 262 2780 448 2748 525 2748 
C 589 2748 781 2787 781 3010 
C 781 3207 614 3264 525 3264 
C 486 3264 448 3258 422 3245 
C 544 3790 915 4058 1306 4058 
C 1862 4058 2227 3617 2227 3035 
C 2227 2479 1901 2000 1536 1584 
L 262 146 
L 262 0 
L 2515 0 
L 2669 989 
z
" transform="scale(0.015625)"/>
       </defs>
       <use xlink:href="#CMR17-30" transform="scale(0.996264)"/>
       <use xlink:href="#CMMI12-3a" transform="translate(45.690477 0) scale(0.996264)"/>
       <use xlink:href="#CMR17-32" transform="translate(72.787654 0) scale(0.996264)"/>
      </g>
     </g>
    </g>
    <g id="xtick_4">
     <g id="line2d_7">
      <path d="M 568.340543 617.04 
L 568.340543 7.2 
" clip-path="url(#p0c0c881a87)" style="fill: none; stroke: #b0b0b0; stroke-width: 0.8; stroke-linecap: square"/>
     </g>
     <g id="line2d_8">
      <g>
       <use xlink:href="#m7ef1c55074" x="568.340543" y="617.04" style="stroke: #000000; stroke-width: 0.8"/>
      </g>
     </g>
     <g id="text_4">
      <!-- $\mathdefault{0.3}$ -->
      <g transform="translate(550.568823 644.795495) scale(0.3 -0.3)">
       <defs>
        <path id="CMR17-33" d="M 1414 2157 
C 1984 2157 2234 1662 2234 1090 
C 2234 320 1824 25 1453 25 
C 1114 25 563 194 390 693 
C 422 680 454 680 486 680 
C 640 680 755 782 755 948 
C 755 1133 614 1216 486 1216 
C 378 1216 211 1165 211 926 
C 211 335 787 -128 1466 -128 
C 2176 -128 2720 430 2720 1085 
C 2720 1707 2208 2157 1600 2227 
C 2086 2328 2554 2756 2554 3329 
C 2554 3820 2048 4179 1472 4179 
C 890 4179 378 3829 378 3329 
C 378 3110 544 3072 627 3072 
C 762 3072 877 3155 877 3321 
C 877 3486 762 3569 627 3569 
C 602 3569 570 3569 544 3557 
C 730 3959 1235 4032 1459 4032 
C 1683 4032 2106 3925 2106 3320 
C 2106 3143 2080 2828 1862 2550 
C 1670 2304 1453 2304 1242 2284 
C 1210 2284 1062 2269 1037 2269 
C 992 2263 966 2257 966 2208 
C 966 2163 973 2157 1101 2157 
L 1414 2157 
z
" transform="scale(0.015625)"/>
       </defs>
       <use xlink:href="#CMR17-30" transform="scale(0.996264)"/>
       <use xlink:href="#CMMI12-3a" transform="translate(45.690477 0) scale(0.996264)"/>
       <use xlink:href="#CMR17-33" transform="translate(72.787654 0) scale(0.996264)"/>
      </g>
     </g>
    </g>
    <g id="xtick_5">
     <g id="line2d_9">
      <path d="M 702.673876 617.04 
L 702.673876 7.2 
" clip-path="url(#p0c0c881a87)" style="fill: none; stroke: #b0b0b0; stroke-width: 0.8; stroke-linecap: square"/>
     </g>
     <g id="line2d_10">
      <g>
       <use xlink:href="#m7ef1c55074" x="702.673876" y="617.04" style="stroke: #000000; stroke-width: 0.8"/>
      </g>
     </g>
     <g id="text_5">
      <!-- $\mathdefault{0.4}$ -->
      <g transform="translate(684.902156 644.795495) scale(0.3 -0.3)">
       <defs>
        <path id="CMR17-34" d="M 2150 4122 
C 2150 4256 2144 4256 2029 4256 
L 128 1254 
L 128 1088 
L 1779 1088 
L 1779 457 
C 1779 224 1766 160 1318 160 
L 1197 160 
L 1197 0 
C 1402 0 1747 0 1965 0 
C 2182 0 2528 0 2733 0 
L 2733 160 
L 2611 160 
C 2163 160 2150 224 2150 457 
L 2150 1088 
L 2803 1088 
L 2803 1254 
L 2150 1254 
L 2150 4122 
z
M 1798 3703 
L 1798 1254 
L 256 1254 
L 1798 3703 
z
" transform="scale(0.015625)"/>
       </defs>
       <use xlink:href="#CMR17-30" transform="scale(0.996264)"/>
       <use xlink:href="#CMMI12-3a" transform="translate(45.690477 0) scale(0.996264)"/>
       <use xlink:href="#CMR17-34" transform="translate(72.787654 0) scale(0.996264)"/>
      </g>
     </g>
    </g>
    <g id="text_6">
     <!-- $x, \; \mathrm{m} $ -->
     <g transform="translate(411.787939 678.823697) scale(0.35 -0.35)">
      <defs>
       <path id="CMMI12-78" d="M 3034 2606 
C 2829 2567 2752 2414 2752 2293 
C 2752 2139 2874 2088 2963 2088 
C 3155 2088 3290 2254 3290 2427 
C 3290 2695 2982 2816 2714 2816 
C 2323 2816 2106 2433 2048 2312 
C 1901 2816 1504 2816 1389 2816 
C 736 2816 390 1980 390 1839 
C 390 1814 416 1782 461 1782 
C 512 1782 525 1820 538 1846 
C 755 2555 1184 2689 1370 2689 
C 1658 2689 1715 2420 1715 2267 
C 1715 2127 1677 1980 1600 1673 
L 1382 798 
C 1286 415 1101 64 762 64 
C 730 64 570 64 435 147 
C 666 192 717 383 717 460 
C 717 588 621 664 499 664 
C 346 664 179 530 179 326 
C 179 57 480 -64 755 -64 
C 1062 -64 1280 179 1414 441 
C 1517 64 1837 -64 2074 -64 
C 2726 -64 3072 773 3072 913 
C 3072 945 3046 971 3008 971 
C 2950 971 2944 939 2925 888 
C 2752 326 2381 64 2093 64 
C 1869 64 1747 230 1747 492 
C 1747 632 1773 734 1875 1156 
L 2099 2024 
C 2195 2408 2413 2689 2707 2689 
C 2720 2689 2899 2689 3034 2606 
z
" transform="scale(0.015625)"/>
       <path id="CMMI12-3b" d="M 1248 -31 
C 1248 343 1126 619 864 619 
C 659 619 557 453 557 313 
C 557 172 653 0 870 0 
C 954 0 1024 26 1082 83 
C 1094 96 1101 96 1107 96 
C 1120 96 1120 5 1120 -27 
C 1120 -240 1082 -659 710 -1080 
C 640 -1157 640 -1170 640 -1183 
C 640 -1216 672 -1248 704 -1248 
C 755 -1248 1248 -771 1248 -31 
z
" transform="scale(0.015625)"/>
       <path id="CMR17-6d" d="M 4326 1933 
C 4326 2252 4269 2790 3507 2790 
C 3072 2790 2771 2496 2656 2151 
L 2650 2151 
C 2573 2676 2195 2790 1837 2790 
C 1331 2790 1069 2400 973 2144 
L 966 2144 
L 966 2790 
L 211 2720 
L 211 2554 
C 589 2554 646 2515 646 2208 
L 646 428 
C 646 184 621 153 211 153 
L 211 -13 
C 365 0 646 0 813 0 
C 979 0 1267 0 1421 -13 
L 1421 153 
C 1011 153 986 178 986 428 
L 986 1658 
C 986 2247 1344 2688 1792 2688 
C 2266 2688 2317 2266 2317 1958 
L 2317 428 
C 2317 184 2291 153 1882 153 
L 1882 -13 
C 2035 0 2317 0 2483 0 
C 2650 0 2938 0 3091 -13 
L 3091 153 
C 2682 153 2656 178 2656 428 
L 2656 1658 
C 2656 2247 3014 2688 3462 2688 
C 3936 2688 3987 2266 3987 1958 
L 3987 428 
C 3987 184 3962 153 3552 153 
L 3552 -13 
C 3706 0 3987 0 4154 0 
C 4320 0 4608 0 4762 -13 
L 4762 153 
C 4352 153 4326 178 4326 428 
L 4326 1933 
z
" transform="scale(0.015625)"/>
      </defs>
      <use xlink:href="#CMMI12-78" transform="scale(0.996264)"/>
      <use xlink:href="#CMMI12-3b" transform="translate(55.43406 0) scale(0.996264)"/>
      <use xlink:href="#CMR17-6d" transform="translate(126.809651 0) scale(0.996264)"/>
     </g>
    </g>
   </g>
   <g id="matplotlib.axis_2">
    <g id="ytick_1">
     <g id="line2d_11">
      <path d="M 84.740543 598.997396 
L 810.140543 598.997396 
" clip-path="url(#p0c0c881a87)" style="fill: none; stroke: #b0b0b0; stroke-width: 0.8; stroke-linecap: square"/>
     </g>
     <g id="line2d_12">
      <defs>
       <path id="m13046f1e31" d="M 0 0 
L -3.5 0 
" style="stroke: #000000; stroke-width: 0.8"/>
      </defs>
      <g>
       <use xlink:href="#m13046f1e31" x="84.740543" y="598.997396" style="stroke: #000000; stroke-width: 0.8"/>
      </g>
     </g>
     <g id="text_7">
      <!-- $\mathdefault{0.0}$ -->
      <g transform="translate(42.197103 609.375144) scale(0.3 -0.3)">
       <use xlink:href="#CMR17-30" transform="scale(0.996264)"/>
       <use xlink:href="#CMMI12-3a" transform="translate(45.690477 0) scale(0.996264)"/>
       <use xlink:href="#CMR17-30" transform="translate(72.787654 0) scale(0.996264)"/>
      </g>
     </g>
    </g>
    <g id="ytick_2">
     <g id="line2d_13">
      <path d="M 84.740543 526.826982 
L 810.140543 526.826982 
" clip-path="url(#p0c0c881a87)" style="fill: none; stroke: #b0b0b0; stroke-width: 0.8; stroke-linecap: square"/>
     </g>
     <g id="line2d_14">
      <g>
       <use xlink:href="#m13046f1e31" x="84.740543" y="526.826982" style="stroke: #000000; stroke-width: 0.8"/>
      </g>
     </g>
     <g id="text_8">
      <!-- $\mathdefault{0.1}$ -->
      <g transform="translate(42.197103 537.20473) scale(0.3 -0.3)">
       <use xlink:href="#CMR17-30" transform="scale(0.996264)"/>
       <use xlink:href="#CMMI12-3a" transform="translate(45.690477 0) scale(0.996264)"/>
       <use xlink:href="#CMR17-31" transform="translate(72.787654 0) scale(0.996264)"/>
      </g>
     </g>
    </g>
    <g id="ytick_3">
     <g id="line2d_15">
      <path d="M 84.740543 454.656568 
L 810.140543 454.656568 
" clip-path="url(#p0c0c881a87)" style="fill: none; stroke: #b0b0b0; stroke-width: 0.8; stroke-linecap: square"/>
     </g>
     <g id="line2d_16">
      <g>
       <use xlink:href="#m13046f1e31" x="84.740543" y="454.656568" style="stroke: #000000; stroke-width: 0.8"/>
      </g>
     </g>
     <g id="text_9">
      <!-- $\mathdefault{0.2}$ -->
      <g transform="translate(42.197103 465.034316) scale(0.3 -0.3)">
       <use xlink:href="#CMR17-30" transform="scale(0.996264)"/>
       <use xlink:href="#CMMI12-3a" transform="translate(45.690477 0) scale(0.996264)"/>
       <use xlink:href="#CMR17-32" transform="translate(72.787654 0) scale(0.996264)"/>
      </g>
     </g>
    </g>
    <g id="ytick_4">
     <g id="line2d_17">
      <path d="M 84.740543 382.486154 
L 810.140543 382.486154 
" clip-path="url(#p0c0c881a87)" style="fill: none; stroke: #b0b0b0; stroke-width: 0.8; stroke-linecap: square"/>
     </g>
     <g id="line2d_18">
      <g>
       <use xlink:href="#m13046f1e31" x="84.740543" y="382.486154" style="stroke: #000000; stroke-width: 0.8"/>
      </g>
     </g>
     <g id="text_10">
      <!-- $\mathdefault{0.3}$ -->
      <g transform="translate(42.197103 392.863901) scale(0.3 -0.3)">
       <use xlink:href="#CMR17-30" transform="scale(0.996264)"/>
       <use xlink:href="#CMMI12-3a" transform="translate(45.690477 0) scale(0.996264)"/>
       <use xlink:href="#CMR17-33" transform="translate(72.787654 0) scale(0.996264)"/>
      </g>
     </g>
    </g>
    <g id="ytick_5">
     <g id="line2d_19">
      <path d="M 84.740543 310.31574 
L 810.140543 310.31574 
" clip-path="url(#p0c0c881a87)" style="fill: none; stroke: #b0b0b0; stroke-width: 0.8; stroke-linecap: square"/>
     </g>
     <g id="line2d_20">
      <g>
       <use xlink:href="#m13046f1e31" x="84.740543" y="310.31574" style="stroke: #000000; stroke-width: 0.8"/>
      </g>
     </g>
     <g id="text_11">
      <!-- $\mathdefault{0.4}$ -->
      <g transform="translate(42.197103 320.693487) scale(0.3 -0.3)">
       <use xlink:href="#CMR17-30" transform="scale(0.996264)"/>
       <use xlink:href="#CMMI12-3a" transform="translate(45.690477 0) scale(0.996264)"/>
       <use xlink:href="#CMR17-34" transform="translate(72.787654 0) scale(0.996264)"/>
      </g>
     </g>
    </g>
    <g id="ytick_6">
     <g id="line2d_21">
      <path d="M 84.740543 238.145325 
L 810.140543 238.145325 
" clip-path="url(#p0c0c881a87)" style="fill: none; stroke: #b0b0b0; stroke-width: 0.8; stroke-linecap: square"/>
     </g>
     <g id="line2d_22">
      <g>
       <use xlink:href="#m13046f1e31" x="84.740543" y="238.145325" style="stroke: #000000; stroke-width: 0.8"/>
      </g>
     </g>
     <g id="text_12">
      <!-- $\mathdefault{0.5}$ -->
      <g transform="translate(42.197103 248.523073) scale(0.3 -0.3)">
       <defs>
        <path id="CMR17-35" d="M 730 3692 
C 794 3666 1056 3584 1325 3584 
C 1920 3584 2246 3911 2432 4100 
C 2432 4157 2432 4192 2394 4192 
C 2387 4192 2374 4192 2323 4163 
C 2099 4058 1837 3973 1517 3973 
C 1325 3973 1037 3999 723 4139 
C 653 4171 640 4171 634 4171 
C 602 4171 595 4164 595 4037 
L 595 2203 
C 595 2089 595 2057 659 2057 
C 691 2057 704 2070 736 2114 
C 941 2401 1222 2522 1542 2522 
C 1766 2522 2246 2382 2246 1289 
C 2246 1085 2246 715 2054 421 
C 1894 159 1645 25 1370 25 
C 947 25 518 320 403 814 
C 429 807 480 795 506 795 
C 589 795 749 840 749 1038 
C 749 1210 627 1280 506 1280 
C 358 1280 262 1190 262 1011 
C 262 454 704 -128 1382 -128 
C 2042 -128 2669 440 2669 1264 
C 2669 2030 2170 2624 1549 2624 
C 1222 2624 947 2503 730 2274 
L 730 3692 
z
" transform="scale(0.015625)"/>
       </defs>
       <use xlink:href="#CMR17-30" transform="scale(0.996264)"/>
       <use xlink:href="#CMMI12-3a" transform="translate(45.690477 0) scale(0.996264)"/>
       <use xlink:href="#CMR17-35" transform="translate(72.787654 0) scale(0.996264)"/>
      </g>
     </g>
    </g>
    <g id="ytick_7">
     <g id="line2d_23">
      <path d="M 84.740543 165.974911 
L 810.140543 165.974911 
" clip-path="url(#p0c0c881a87)" style="fill: none; stroke: #b0b0b0; stroke-width: 0.8; stroke-linecap: square"/>
     </g>
     <g id="line2d_24">
      <g>
       <use xlink:href="#m13046f1e31" x="84.740543" y="165.974911" style="stroke: #000000; stroke-width: 0.8"/>
      </g>
     </g>
     <g id="text_13">
      <!-- $\mathdefault{0.6}$ -->
      <g transform="translate(42.197103 176.352659) scale(0.3 -0.3)">
       <defs>
        <path id="CMR17-36" d="M 678 2176 
C 678 3690 1395 4032 1811 4032 
C 1946 4032 2272 4009 2400 3776 
C 2298 3776 2106 3776 2106 3553 
C 2106 3381 2246 3323 2336 3323 
C 2394 3323 2566 3348 2566 3560 
C 2566 3954 2246 4179 1805 4179 
C 1043 4179 243 3390 243 1984 
C 243 253 966 -128 1478 -128 
C 2099 -128 2688 427 2688 1283 
C 2688 2081 2170 2662 1517 2662 
C 1126 2662 838 2407 678 1960 
L 678 2176 
z
M 1478 25 
C 691 25 691 1200 691 1436 
C 691 1896 909 2560 1504 2560 
C 1613 2560 1926 2560 2138 2120 
C 2253 1870 2253 1609 2253 1289 
C 2253 944 2253 690 2118 434 
C 1978 171 1773 25 1478 25 
z
" transform="scale(0.015625)"/>
       </defs>
       <use xlink:href="#CMR17-30" transform="scale(0.996264)"/>
       <use xlink:href="#CMMI12-3a" transform="translate(45.690477 0) scale(0.996264)"/>
       <use xlink:href="#CMR17-36" transform="translate(72.787654 0) scale(0.996264)"/>
      </g>
     </g>
    </g>
    <g id="ytick_8">
     <g id="line2d_25">
      <path d="M 84.740543 93.804497 
L 810.140543 93.804497 
" clip-path="url(#p0c0c881a87)" style="fill: none; stroke: #b0b0b0; stroke-width: 0.8; stroke-linecap: square"/>
     </g>
     <g id="line2d_26">
      <g>
       <use xlink:href="#m13046f1e31" x="84.740543" y="93.804497" style="stroke: #000000; stroke-width: 0.8"/>
      </g>
     </g>
     <g id="text_14">
      <!-- $\mathdefault{0.7}$ -->
      <g transform="translate(42.197103 104.182245) scale(0.3 -0.3)">
       <defs>
        <path id="CMR17-37" d="M 2886 3941 
L 2886 4081 
L 1382 4081 
C 634 4081 621 4165 595 4288 
L 480 4288 
L 294 3094 
L 410 3094 
C 429 3215 474 3540 550 3661 
C 589 3712 1062 3712 1171 3712 
L 2579 3712 
L 1869 2661 
C 1395 1954 1069 999 1069 165 
C 1069 89 1069 -128 1299 -128 
C 1530 -128 1530 89 1530 171 
L 1530 465 
C 1530 1508 1709 2196 2003 2636 
L 2886 3941 
z
" transform="scale(0.015625)"/>
       </defs>
       <use xlink:href="#CMR17-30" transform="scale(0.996264)"/>
       <use xlink:href="#CMMI12-3a" transform="translate(45.690477 0) scale(0.996264)"/>
       <use xlink:href="#CMR17-37" transform="translate(72.787654 0) scale(0.996264)"/>
      </g>
     </g>
    </g>
    <g id="ytick_9">
     <g id="line2d_27">
      <path d="M 84.740543 21.634083 
L 810.140543 21.634083 
" clip-path="url(#p0c0c881a87)" style="fill: none; stroke: #b0b0b0; stroke-width: 0.8; stroke-linecap: square"/>
     </g>
     <g id="line2d_28">
      <g>
       <use xlink:href="#m13046f1e31" x="84.740543" y="21.634083" style="stroke: #000000; stroke-width: 0.8"/>
      </g>
     </g>
     <g id="text_15">
      <!-- $\mathdefault{0.8}$ -->
      <g transform="translate(42.197103 32.01183) scale(0.3 -0.3)">
       <defs>
        <path id="CMR17-38" d="M 1741 2264 
C 2144 2467 2554 2773 2554 3263 
C 2554 3841 1990 4179 1472 4179 
C 890 4179 378 3759 378 3180 
C 378 3021 416 2747 666 2505 
C 730 2442 998 2251 1171 2130 
C 883 1983 211 1634 211 934 
C 211 279 838 -128 1459 -128 
C 2144 -128 2720 362 2720 1010 
C 2720 1590 2330 1857 2074 2029 
L 1741 2264 
z
M 902 2822 
C 851 2854 595 3051 595 3351 
C 595 3739 998 4032 1459 4032 
C 1965 4032 2336 3676 2336 3262 
C 2336 2669 1670 2331 1638 2331 
C 1632 2331 1626 2331 1574 2370 
L 902 2822 
z
M 2080 1519 
C 2176 1449 2483 1240 2483 851 
C 2483 381 2010 25 1472 25 
C 890 25 448 438 448 940 
C 448 1443 838 1862 1280 2060 
L 2080 1519 
z
" transform="scale(0.015625)"/>
       </defs>
       <use xlink:href="#CMR17-30" transform="scale(0.996264)"/>
       <use xlink:href="#CMMI12-3a" transform="translate(45.690477 0) scale(0.996264)"/>
       <use xlink:href="#CMR17-38" transform="translate(72.787654 0) scale(0.996264)"/>
      </g>
     </g>
    </g>
    <g id="text_16">
     <!-- $Y$ -->
     <g transform="translate(31.414752 322.024752) rotate(-90) scale(0.35 -0.35)">
      <defs>
       <path id="CMMI12-59" d="M 3763 3645 
L 3910 3791 
C 4192 4078 4429 4149 4653 4167 
C 4723 4173 4781 4179 4781 4288 
C 4781 4352 4717 4352 4704 4352 
C 4627 4352 4544 4352 4467 4352 
L 4205 4352 
C 4019 4352 3821 4352 3642 4352 
C 3597 4352 3526 4352 3526 4226 
C 3526 4166 3590 4160 3610 4160 
C 3802 4160 3802 4064 3802 4026 
C 3802 3956 3750 3860 3622 3713 
L 2099 1969 
L 1376 3911 
C 1338 4000 1338 4013 1338 4026 
C 1338 4160 1600 4160 1677 4160 
C 1754 4160 1824 4160 1824 4279 
C 1824 4352 1766 4352 1728 4352 
C 1619 4352 1491 4352 1382 4352 
L 672 4352 
C 557 4352 435 4352 326 4352 
C 282 4352 211 4352 211 4226 
C 211 4160 269 4160 365 4160 
C 678 4160 736 4102 794 3956 
L 1587 1835 
C 1594 1816 1613 1745 1613 1726 
C 1613 1707 1299 452 1280 388 
C 1229 217 1165 185 755 185 
C 646 185 595 185 595 64 
C 595 0 666 0 685 0 
C 800 0 934 0 1056 0 
L 1811 0 
C 1926 0 2061 0 2176 0 
C 2221 0 2298 0 2298 115 
C 2298 185 2253 185 2144 185 
C 1747 185 1747 230 1747 300 
C 1747 345 1798 548 1830 676 
L 2061 1594 
C 2099 1727 2099 1739 2157 1803 
L 3763 3645 
z
" transform="scale(0.015625)"/>
      </defs>
      <use xlink:href="#CMMI12-59" transform="scale(0.996264)"/>
     </g>
    </g>
   </g>
   <g id="line2d_29">
    <path d="M 98.173876 36.898536 
L 424.861841 36.908382 
L 425.686637 37.089141 
L 426.511432 37.495807 
L 427.336227 38.355683 
L 428.161023 39.572808 
L 428.985818 41.141631 
L 429.810613 42.435141 
L 430.635409 43.498684 
L 432.284999 45.150607 
L 433.93459 46.396083 
L 438.883362 49.782699 
L 443.007339 51.793439 
L 444.65693 52.502764 
L 447.131316 53.344875 
L 451.255293 54.450993 
L 454.554474 55.080011 
L 457.853655 55.445595 
L 464.871621 56.017149 
L 469.987944 56.208675 
L 475.104338 56.091799 
L 484.281608 55.698266 
L 497.129228 54.856627 
L 505.319758 54.591249 
L 514.882622 54.610684 
L 549.589697 55.015152 
L 603.036436 56.171678 
L 614.913489 56.151795 
L 623.309323 55.955196 
L 724.059323 55.463838 
L 782.830156 55.358089 
L 816.413489 55.31992 
L 816.413489 55.31992 
" clip-path="url(#p0c0c881a87)" style="fill: none; stroke: #008000; stroke-width: 3; stroke-linecap: square"/>
   </g>
   <g id="line2d_30">
    <path d="M 98.173876 439.392115 
L 424.861841 439.440764 
L 425.686637 440.225132 
L 426.511432 442.052029 
L 427.336227 445.813299 
L 428.161023 451.265118 
L 429.810613 465.367522 
L 430.635409 471.041486 
L 432.284999 480.136462 
L 433.93459 486.961909 
L 435.584181 493.204664 
L 436.408976 496.940261 
L 438.883362 504.647735 
L 440.532953 508.530314 
L 443.007339 514.375663 
L 443.832134 516.239712 
L 446.30652 520.442453 
L 448.780907 523.766049 
L 450.430497 525.736001 
L 452.080088 527.424234 
L 454.554474 529.570537 
L 456.204065 530.658053 
L 461.152837 533.039609 
L 463.83368 534.504917 
L 465.999135 535.482283 
L 468.548834 536.469525 
L 469.987944 536.902163 
L 471.553042 537.251293 
L 473.254441 537.440198 
L 477.116364 537.517753 
L 479.305458 537.420212 
L 484.281608 536.788235 
L 487.10157 536.006913 
L 490.170512 534.887387 
L 493.505407 534.182 
L 497.129228 533.56502 
L 501.060907 533.162097 
L 505.319758 532.940923 
L 509.923223 533.029011 
L 520.200574 533.900698 
L 531.774117 535.178204 
L 537.712644 535.84564 
L 543.651171 536.728478 
L 549.589697 537.811951 
L 555.528224 539.551476 
L 573.343803 546.220823 
L 579.28233 547.919649 
L 585.220857 549.4462 
L 591.159383 551.245049 
L 597.09791 553.727316 
L 603.036436 556.835528 
L 608.974963 559.374365 
L 614.913489 560.823995 
L 631.705156 561.205854 
L 690.475989 561.875383 
L 766.038489 562.235472 
L 816.413489 562.357547 
L 816.413489 562.357547 
" clip-path="url(#p0c0c881a87)" style="fill: none; stroke: #0000ff; stroke-width: 3; stroke-linecap: square"/>
   </g>
   <g id="patch_3">
    <path d="M 84.740543 617.04 
L 84.740543 7.2 
" style="fill: none; stroke: #000000; stroke-width: 0.8; stroke-linejoin: miter; stroke-linecap: square"/>
   </g>
   <g id="patch_4">
    <path d="M 810.140543 617.04 
L 810.140543 7.2 
" style="fill: none; stroke: #000000; stroke-width: 0.8; stroke-linejoin: miter; stroke-linecap: square"/>
   </g>
   <g id="patch_5">
    <path d="M 84.740543 617.04 
L 810.140543 617.04 
" style="fill: none; stroke: #000000; stroke-width: 0.8; stroke-linejoin: miter; stroke-linecap: square"/>
   </g>
   <g id="patch_6">
    <path d="M 84.740543 7.2 
L 810.140543 7.2 
" style="fill: none; stroke: #000000; stroke-width: 0.8; stroke-linejoin: miter; stroke-linecap: square"/>
   </g>
   <g id="legend_1">
    <g id="patch_7">
     <path d="M 523.96545 414.934702 
L 785.640543 414.934702 
Q 792.640543 414.934702 792.640543 407.934702 
L 792.640543 216.305298 
Q 792.640543 209.305298 785.640543 209.305298 
L 523.96545 209.305298 
Q 516.96545 209.305298 516.96545 216.305298 
L 516.96545 407.934702 
Q 516.96545 414.934702 523.96545 414.934702 
z
" style="fill: #ffffff; stroke: #cccccc; stroke-linejoin: miter"/>
    </g>
    <g id="patch_8">
     <path d="M 530.96545 247.805298 
L 600.96545 247.805298 
L 600.96545 223.305298 
L 530.96545 223.305298 
z
" style="fill: #008000; fill-opacity: 0.2"/>
    </g>
    <g id="text_17">
     <!-- $N_2: \mu \pm \sigma$ -->
     <g transform="translate(628.96545 247.805298) scale(0.35 -0.35)">
      <defs>
       <path id="CMMI12-4e" d="M 4736 3698 
C 4806 3974 4909 4166 5395 4166 
C 5414 4166 5491 4166 5491 4279 
C 5491 4352 5434 4352 5408 4352 
C 5280 4352 4954 4352 4826 4352 
L 4518 4352 
C 4429 4352 4314 4352 4224 4352 
C 4186 4352 4109 4352 4109 4230 
C 4109 4166 4160 4166 4205 4166 
C 4589 4166 4614 4019 4614 3903 
C 4614 3846 4608 3826 4589 3737 
L 3866 850 
L 2496 4249 
C 2451 4352 2445 4352 2304 4352 
L 1523 4352 
C 1395 4352 1338 4352 1338 4230 
C 1338 4166 1382 4166 1504 4166 
C 1536 4166 1914 4166 1914 4115 
C 1914 4102 1901 4051 1894 4032 
L 1043 635 
C 966 320 813 186 390 186 
C 358 186 294 186 294 67 
C 294 0 358 0 378 0 
C 506 0 832 0 960 0 
L 1267 0 
C 1357 0 1466 0 1555 0 
C 1600 0 1670 0 1670 122 
C 1670 180 1606 186 1581 186 
C 1370 186 1165 224 1165 454 
C 1165 505 1178 562 1190 613 
L 2054 4032 
C 2093 3968 2093 3956 2118 3898 
L 3642 115 
C 3674 38 3686 0 3744 0 
C 3808 0 3814 19 3840 128 
L 4736 3698 
z
" transform="scale(0.015625)"/>
       <path id="CMR17-3a" d="M 1062 2491 
C 1062 2650 934 2752 800 2752 
C 672 2752 538 2650 538 2491 
C 538 2332 666 2230 800 2230 
C 928 2230 1062 2332 1062 2491 
z
M 1062 261 
C 1062 420 934 522 800 522 
C 672 522 538 420 538 261 
C 538 102 666 0 800 0 
C 928 0 1062 102 1062 261 
z
" transform="scale(0.015625)"/>
       <path id="CMMI12-16" d="M 922 140 
C 1082 -6 1318 -64 1536 -64 
C 1946 -64 2227 208 2374 405 
C 2438 69 2707 -64 2931 -64 
C 3123 -64 3277 50 3392 277 
C 3494 493 3584 879 3584 903 
C 3584 935 3558 960 3520 960 
C 3462 960 3456 928 3430 834 
C 3334 461 3213 64 2950 64 
C 2765 64 2752 229 2752 358 
C 2752 504 2810 735 2854 926 
L 3034 1615 
C 3059 1737 3130 2023 3162 2139 
C 3200 2292 3270 2567 3270 2592 
C 3270 2688 3194 2752 3098 2752 
C 3040 2752 2906 2726 2854 2535 
L 2406 760 
C 2374 632 2374 619 2291 517 
C 2214 409 1965 64 1562 64 
C 1203 64 1088 326 1088 625 
C 1088 811 1146 1034 1171 1143 
L 1459 2293 
C 1491 2414 1542 2618 1542 2657 
C 1542 2759 1459 2816 1376 2816 
C 1318 2816 1178 2797 1126 2592 
L 198 -1107 
C 192 -1139 179 -1177 179 -1216 
C 179 -1312 256 -1376 352 -1376 
C 538 -1376 576 -1228 621 -1050 
L 922 140 
z
" transform="scale(0.015625)"/>
       <path id="CMSY10-6" d="M 2618 1984 
L 4397 1984 
C 4506 1984 4621 1984 4621 2112 
C 4621 2240 4506 2240 4397 2240 
L 2618 2240 
L 2618 4018 
C 2618 4121 2618 4256 2490 4256 
C 2362 4256 2362 4140 2362 4038 
L 2362 2240 
L 576 2240 
C 467 2240 352 2240 352 2112 
C 352 1984 467 1984 576 1984 
L 2362 1984 
L 2362 256 
L 576 256 
C 467 256 352 256 352 128 
C 352 0 467 0 576 0 
L 4397 0 
C 4506 0 4621 0 4621 128 
C 4621 256 4506 256 4397 256 
L 2618 256 
L 2618 1984 
z
" transform="scale(0.015625)"/>
       <path id="CMMI12-1b" d="M 3251 2408 
C 3334 2408 3546 2408 3546 2612 
C 3546 2752 3424 2752 3309 2752 
L 1894 2752 
C 934 2752 243 1686 243 932 
C 243 390 595 -64 1171 -64 
C 1926 -64 2752 747 2752 1705 
C 2752 1954 2694 2196 2541 2408 
L 3251 2408 
z
M 1178 64 
C 851 64 614 313 614 754 
C 614 1137 845 2408 1786 2408 
C 2061 2408 2368 2274 2368 1781 
C 2368 1558 2266 1021 2042 652 
C 1811 275 1466 64 1178 64 
z
" transform="scale(0.015625)"/>
      </defs>
      <use xlink:href="#CMMI12-4e" transform="scale(0.996264)"/>
      <use xlink:href="#CMR17-32" transform="translate(78.115119 -14.943915) scale(0.697382)"/>
      <use xlink:href="#CMR17-3a" transform="translate(138.270442 0) scale(0.996264)"/>
      <use xlink:href="#CMMI12-16" transform="translate(190.815509 0) scale(0.996264)"/>
      <use xlink:href="#CMSY10-6" transform="translate(271.646137 0) scale(0.996264)"/>
      <use xlink:href="#CMMI12-1b" transform="translate(371.272812 0) scale(0.996264)"/>
     </g>
    </g>
    <g id="line2d_31">
     <path d="M 530.96545 284.337649 
L 565.96545 284.337649 
L 600.96545 284.337649 
" style="fill: none; stroke: #008000; stroke-width: 3; stroke-linecap: square"/>
    </g>
    <g id="text_18">
     <!-- $N_2: \mu $ -->
     <g transform="translate(628.96545 296.587649) scale(0.35 -0.35)">
      <use xlink:href="#CMMI12-4e" transform="scale(0.996264)"/>
      <use xlink:href="#CMR17-32" transform="translate(78.115119 -14.943915) scale(0.697382)"/>
      <use xlink:href="#CMR17-3a" transform="translate(138.270442 0) scale(0.996264)"/>
      <use xlink:href="#CMMI12-16" transform="translate(190.815509 0) scale(0.996264)"/>
     </g>
    </g>
    <g id="patch_9">
     <path d="M 530.96545 345.37 
L 600.96545 345.37 
L 600.96545 320.87 
L 530.96545 320.87 
z
" style="fill: #99ccff; fill-opacity: 0.7"/>
    </g>
    <g id="text_19">
     <!-- $O_2: \mu \pm \sigma$ -->
     <g transform="translate(628.96545 345.37) scale(0.35 -0.35)">
      <defs>
       <path id="CMMI12-4f" d="M 4646 2797 
C 4646 3848 3955 4492 3059 4492 
C 1690 4492 307 3026 307 1554 
C 307 554 973 -128 1901 -128 
C 3245 -128 4646 1268 4646 2797 
z
M 1939 19 
C 1414 19 858 401 858 1395 
C 858 1974 1069 2924 1594 3562 
C 2061 4123 2598 4352 3027 4352 
C 3590 4352 4134 3944 4134 3026 
C 4134 2459 3891 1573 3462 968 
C 2995 318 2413 19 1939 19 
z
" transform="scale(0.015625)"/>
      </defs>
      <use xlink:href="#CMMI12-4f" transform="scale(0.996264)"/>
      <use xlink:href="#CMR17-32" transform="translate(74.550681 -14.943915) scale(0.697382)"/>
      <use xlink:href="#CMR17-3a" transform="translate(134.706004 0) scale(0.996264)"/>
      <use xlink:href="#CMMI12-16" transform="translate(187.251071 0) scale(0.996264)"/>
      <use xlink:href="#CMSY10-6" transform="translate(268.081699 0) scale(0.996264)"/>
      <use xlink:href="#CMMI12-1b" transform="translate(367.708374 0) scale(0.996264)"/>
     </g>
    </g>
    <g id="line2d_32">
     <path d="M 530.96545 381.902351 
L 565.96545 381.902351 
L 600.96545 381.902351 
" style="fill: none; stroke: #0000ff; stroke-width: 3; stroke-linecap: square"/>
    </g>
    <g id="text_20">
     <!-- $O_2: \mu$ -->
     <g transform="translate(628.96545 394.152351) scale(0.35 -0.35)">
      <use xlink:href="#CMMI12-4f" transform="scale(0.996264)"/>
      <use xlink:href="#CMR17-32" transform="translate(74.550681 -14.943915) scale(0.697382)"/>
      <use xlink:href="#CMR17-3a" transform="translate(134.706004 0) scale(0.996264)"/>
      <use xlink:href="#CMMI12-16" transform="translate(187.251071 0) scale(0.996264)"/>
     </g>
    </g>
   </g>
  </g>
 </g>
 <defs>
  <clipPath id="p0c0c881a87">
   <rect x="84.740543" y="7.2" width="725.4" height="609.84"/>
  </clipPath>
 </defs>
</svg>
