<?xml version="1.0" encoding="utf-8" standalone="no"?>
<!DOCTYPE svg PUBLIC "-//W3C//DTD SVG 1.1//EN"
  "http://www.w3.org/Graphics/SVG/1.1/DTD/svg11.dtd">
<svg xmlns:xlink="http://www.w3.org/1999/xlink" width="832.437189pt" height="692.806049pt" viewBox="0 0 832.437189 692.806049" xmlns="http://www.w3.org/2000/svg" version="1.1">
 <metadata>
  <rdf:RDF xmlns:dc="http://purl.org/dc/elements/1.1/" xmlns:cc="http://creativecommons.org/ns#" xmlns:rdf="http://www.w3.org/1999/02/22-rdf-syntax-ns#">
   <cc:Work>
    <dc:type rdf:resource="http://purl.org/dc/dcmitype/StillImage"/>
    <dc:date>2025-03-03T10:02:18.106595</dc:date>
    <dc:format>image/svg+xml</dc:format>
    <dc:creator>
     <cc:Agent>
      <dc:title>Matplotlib v3.5.3, https://matplotlib.org/</dc:title>
     </cc:Agent>
    </dc:creator>
   </cc:Work>
  </rdf:RDF>
 </metadata>
 <defs>
  <style type="text/css">*{stroke-linejoin: round; stroke-linecap: butt}</style>
 </defs>
 <g id="figure_1">
  <g id="patch_1">
   <path d="M 0 692.806049 
L 832.437189 692.806049 
L 832.437189 0 
L 0 0 
z
" style="fill: #ffffff"/>
  </g>
  <g id="axes_1">
   <g id="patch_2">
    <path d="M 99.837189 617.04 
L 825.237189 617.04 
L 825.237189 7.2 
L 99.837189 7.2 
z
" style="fill: #ffffff"/>
   </g>
   <g id="PolyCollection_1">
    <path d="M 113.270523 71.209399 
L 113.270523 23.559597 
L 131.527686 23.559597 
L 144.855533 23.559597 
L 154.585105 23.559597 
L 161.68809 23.559597 
L 166.873842 23.559597 
L 170.660233 23.559597 
L 173.425353 23.559597 
L 175.445262 23.560774 
L 176.921529 23.606288 
L 178.100261 27.943196 
L 179.268725 49.821157 
L 180.437189 104.924436 
L 181.634755 150.282448 
L 182.832321 188.119121 
L 184.029887 210.102133 
L 185.227453 233.275285 
L 186.425019 240.177457 
L 187.622584 244.68388 
L 188.82015 249.08024 
L 190.017716 250.84727 
L 191.215282 251.67947 
L 192.412848 252.642803 
L 193.610414 253.476116 
L 194.80798 254.753587 
L 196.005545 255.639446 
L 197.203111 256.339953 
L 198.400677 256.950619 
L 199.598243 257.742123 
L 200.795809 258.25239 
L 201.993375 258.876749 
L 203.190941 259.189584 
L 204.388506 259.42712 
L 205.586072 259.494573 
L 206.783638 259.640346 
L 207.981204 259.69623 
L 209.17877 259.759154 
L 210.376336 259.925006 
L 211.573901 260.153273 
L 212.771467 260.276974 
L 213.969033 260.285729 
L 215.166599 260.25012 
L 216.364165 260.299301 
L 217.561731 260.342583 
L 218.759297 260.378711 
L 219.956862 260.365195 
L 221.154428 260.267019 
L 222.351995 260.207685 
L 223.579731 260.179804 
L 224.851333 260.151557 
L 226.168694 260.126262 
L 227.534333 260.077112 
L 228.950835 260.020348 
L 230.419684 259.981638 
L 231.942649 259.942397 
L 233.52179 259.911716 
L 235.159375 259.903923 
L 236.856834 259.883525 
L 238.615941 259.860747 
L 240.439171 259.846276 
L 242.329853 259.826668 
L 244.291748 259.774695 
L 246.323967 259.740157 
L 248.43108 259.727657 
L 250.616925 259.72563 
L 252.881633 259.70401 
L 255.231027 259.672364 
L 257.666411 259.635111 
L 260.190676 259.573679 
L 262.808896 259.532056 
L 265.523383 259.489813 
L 268.337524 259.455644 
L 271.255184 259.405278 
L 274.280306 259.351138 
L 277.4168 259.295954 
L 280.668634 259.261103 
L 284.040104 259.228455 
L 287.536236 259.193271 
L 291.160924 259.139083 
L 294.918912 259.103216 
L 298.815516 259.044263 
L 302.855789 258.956216 
L 307.044565 258.908714 
L 311.387607 258.842232 
L 315.89077 258.752339 
L 320.559929 258.634795 
L 325.400986 258.548238 
L 330.394807 258.448403 
L 335.53263 258.381263 
L 340.859588 258.275365 
L 346.383145 258.173499 
L 352.110169 258.058424 
L 358.048288 257.955354 
L 364.205329 257.837337 
L 370.589261 257.742017 
L 377.208536 257.59649 
L 384.071936 257.455272 
L 391.188344 257.333044 
L 398.567044 257.223576 
L 406.217767 257.100177 
L 413.770626 257.025324 
L 419.407545 256.97012 
L 423.421802 256.943804 
L 426.280996 256.916414 
L 428.317932 256.907783 
L 429.769446 256.892691 
L 430.910213 256.876895 
L 432.041247 256.861585 
L 433.172282 256.842591 
L 434.303316 256.830852 
L 435.43435 256.817206 
L 436.565385 256.806167 
L 437.696419 256.794094 
L 438.827454 255.828522 
L 439.958488 322.9066 
L 440.783283 398.395963 
L 441.608079 416.075278 
L 442.432874 413.704374 
L 443.257669 410.83714 
L 444.082465 408.239889 
L 444.90726 406.517149 
L 445.732056 404.737301 
L 446.556851 403.054319 
L 447.381646 401.59716 
L 448.206442 400.318696 
L 449.031237 399.222157 
L 449.856032 398.289101 
L 450.680828 397.471763 
L 451.505623 396.667582 
L 452.330418 396.129828 
L 453.155214 395.610447 
L 453.980009 395.121351 
L 454.804804 394.724243 
L 455.6296 394.365829 
L 456.454395 393.983455 
L 457.279191 393.610504 
L 458.103986 393.230423 
L 458.928781 392.845825 
L 459.753577 392.526255 
L 460.578372 392.205747 
L 461.403167 391.918569 
L 462.227963 391.634706 
L 463.052758 391.360216 
L 463.877553 391.077013 
L 464.702349 390.809265 
L 465.527144 390.538306 
L 466.351939 390.264513 
L 467.176735 389.986141 
L 468.00153 389.707412 
L 468.826326 389.420217 
L 469.651121 389.123277 
L 470.475916 388.817703 
L 471.300712 388.482402 
L 472.125507 388.148295 
L 472.950302 387.800583 
L 473.775098 387.387374 
L 474.599893 386.924329 
L 475.424688 386.44938 
L 476.249484 385.86073 
L 477.082726 385.219914 
L 477.96769 384.468173 
L 478.930327 383.610451 
L 479.968268 382.661183 
L 481.095782 381.457211 
L 482.319609 380.176867 
L 483.645481 378.56956 
L 485.08459 376.616844 
L 486.649689 374.235613 
L 488.351088 371.650136 
L 490.200984 368.900267 
L 492.213011 366.354045 
L 494.402105 364.023926 
L 496.784831 361.999673 
L 499.378255 360.414235 
L 502.198217 358.825929 
L 505.267159 358.118327 
L 508.602054 358.024874 
L 512.225875 358.824464 
L 516.157554 360.083102 
L 520.416405 361.595067 
L 525.019869 363.103717 
L 529.979269 364.556013 
L 535.297221 365.844046 
L 540.956768 367.018001 
L 546.870764 368.473833 
L 552.809291 369.851233 
L 558.747817 371.120821 
L 564.686344 372.41179 
L 570.624871 374.108453 
L 576.563397 376.130651 
L 582.501924 378.014184 
L 588.44045 379.459337 
L 594.378977 380.449479 
L 600.317503 381.188443 
L 606.25603 382.175974 
L 612.194557 383.738112 
L 618.133083 385.769822 
L 624.07161 387.415153 
L 630.010136 352.943738 
L 638.40597 247.220676 
L 646.801803 230.261099 
L 655.197636 230.956039 
L 663.59347 228.045252 
L 671.989303 230.828944 
L 680.385136 232.436356 
L 688.78097 233.599114 
L 697.176803 234.182098 
L 705.572636 234.66756 
L 713.96847 235.489446 
L 722.364303 236.104217 
L 730.760136 236.595719 
L 739.15597 237.06177 
L 747.551803 237.732726 
L 755.947636 238.120858 
L 764.34347 238.498842 
L 772.739303 239.064847 
L 781.135136 239.585808 
L 789.53097 240.11 
L 797.926803 240.387672 
L 806.322636 240.695619 
L 814.71847 241.073703 
L 823.114303 241.209459 
L 831.510136 241.315049 
L 831.510136 257.997929 
L 831.510136 257.997929 
L 823.114303 257.860706 
L 814.71847 257.721227 
L 806.322636 257.368227 
L 797.926803 257.048378 
L 789.53097 256.715792 
L 781.135136 256.215958 
L 772.739303 255.664536 
L 764.34347 255.08249 
L 755.947636 254.650228 
L 747.551803 254.277056 
L 739.15597 253.706269 
L 730.760136 253.388859 
L 722.364303 253.007425 
L 713.96847 252.4671 
L 705.572636 251.612928 
L 697.176803 251.124337 
L 688.78097 250.654015 
L 680.385136 250.155822 
L 671.989303 249.45016 
L 663.59347 250.468512 
L 655.197636 250.534601 
L 646.801803 249.554319 
L 638.40597 266.61455 
L 630.010136 362.573287 
L 624.07161 392.787781 
L 618.133083 391.139364 
L 612.194557 389.306471 
L 606.25603 387.785971 
L 600.317503 386.74776 
L 594.378977 385.905703 
L 588.44045 384.955729 
L 582.501924 383.616664 
L 576.563397 382.040023 
L 570.624871 380.293107 
L 564.686344 378.761505 
L 558.747817 377.640697 
L 552.809291 376.476034 
L 546.870764 375.479141 
L 540.956768 374.382062 
L 535.297221 373.264515 
L 529.979269 372.267513 
L 525.019869 371.211388 
L 520.416405 370.140837 
L 516.157554 369.189406 
L 512.225875 368.76422 
L 508.602054 368.661806 
L 505.267159 369.404827 
L 502.198217 370.83125 
L 499.378255 372.892371 
L 496.784831 374.976394 
L 494.402105 377.426233 
L 492.213011 380.033722 
L 490.200984 382.687905 
L 488.351088 385.431468 
L 486.649689 388.001658 
L 485.08459 390.323694 
L 483.645481 392.143965 
L 482.319609 393.700954 
L 481.095782 394.759694 
L 479.968268 395.747667 
L 478.930327 396.511394 
L 477.96769 397.196724 
L 477.082726 397.794385 
L 476.249484 398.320691 
L 475.424688 398.820848 
L 474.599893 399.244302 
L 473.775098 399.665151 
L 472.950302 400.042573 
L 472.125507 400.370368 
L 471.300712 400.688956 
L 470.475916 401.014994 
L 469.651121 401.314914 
L 468.826326 401.610196 
L 468.00153 401.899243 
L 467.176735 402.186989 
L 466.351939 402.489257 
L 465.527144 402.787886 
L 464.702349 403.091433 
L 463.877553 403.398607 
L 463.052758 403.727715 
L 462.227963 404.045255 
L 461.403167 404.369758 
L 460.578372 404.702638 
L 459.753577 405.0643 
L 458.928781 405.421413 
L 458.103986 405.851558 
L 457.279191 406.289949 
L 456.454395 406.74228 
L 455.6296 407.21169 
L 454.804804 407.670967 
L 453.980009 408.18562 
L 453.155214 408.805388 
L 452.330418 409.469522 
L 451.505623 410.152545 
L 450.680828 411.085902 
L 449.856032 411.986664 
L 449.031237 412.903547 
L 448.206442 413.867753 
L 447.381646 414.936102 
L 446.556851 416.18078 
L 445.732056 417.602799 
L 444.90726 419.342044 
L 444.082465 421.314844 
L 443.257669 423.419586 
L 442.432874 425.035986 
L 441.608079 427.172287 
L 440.783283 447.747886 
L 439.958488 349.737235 
L 438.827454 268.815612 
L 437.696419 270.386084 
L 436.565385 270.39285 
L 435.43435 270.398113 
L 434.303316 270.408371 
L 433.172282 270.41825 
L 432.041247 270.43605 
L 430.910213 270.451037 
L 429.769446 270.467435 
L 428.317932 270.489023 
L 426.280996 270.522869 
L 423.421802 270.569838 
L 419.407545 270.630632 
L 413.770626 270.692788 
L 406.217767 270.764678 
L 398.567044 270.850731 
L 391.188344 270.909267 
L 384.071936 270.96204 
L 377.208536 271.005377 
L 370.589261 271.069313 
L 364.205329 271.091368 
L 358.048288 271.147406 
L 352.110169 271.182346 
L 346.383145 271.210026 
L 340.859588 271.261427 
L 335.53263 271.32449 
L 330.394807 271.383714 
L 325.400986 271.439777 
L 320.559929 271.473846 
L 315.89077 271.523945 
L 311.387607 271.583232 
L 307.044565 271.644858 
L 302.855789 271.701848 
L 298.815516 271.789863 
L 294.918912 271.837481 
L 291.160924 271.860084 
L 287.536236 271.907868 
L 284.040104 271.956537 
L 280.668634 271.986667 
L 277.4168 272.008557 
L 274.280306 272.039147 
L 271.255184 272.058517 
L 268.337524 272.072692 
L 265.523383 272.092639 
L 262.808896 272.102597 
L 260.190676 272.104033 
L 257.666411 272.102138 
L 255.231027 272.111782 
L 252.881633 272.110204 
L 250.616925 272.124496 
L 248.43108 272.122235 
L 246.323967 272.113578 
L 244.291748 272.091009 
L 242.329853 272.057825 
L 240.439171 272.038358 
L 238.615941 272.021194 
L 236.856834 272.014627 
L 235.159375 271.999703 
L 233.52179 271.980312 
L 231.942649 271.97573 
L 230.419684 271.955408 
L 228.950835 271.921831 
L 227.534333 271.9047 
L 226.168694 271.870805 
L 224.851333 271.846199 
L 223.579731 271.856292 
L 222.351995 271.845572 
L 221.154428 271.804617 
L 219.956862 271.791285 
L 218.759297 271.810805 
L 217.561731 271.899546 
L 216.364165 271.957526 
L 215.166599 272.009776 
L 213.969033 271.985849 
L 212.771467 272.012929 
L 211.573901 271.907241 
L 210.376336 271.921679 
L 209.17877 271.910058 
L 207.981204 272.001016 
L 206.783638 272.015741 
L 205.586072 272.14751 
L 204.388506 272.282689 
L 203.190941 272.260021 
L 201.993375 272.273677 
L 200.795809 272.145883 
L 199.598243 272.175012 
L 198.400677 271.956259 
L 197.203111 271.968049 
L 196.005545 272.03441 
L 194.80798 272.362294 
L 193.610414 272.732934 
L 192.412848 273.745234 
L 191.215282 274.871429 
L 190.017716 277.493253 
L 188.82015 278.674453 
L 187.622584 289.001781 
L 186.425019 292.535988 
L 185.227453 287.511724 
L 184.029887 266.176028 
L 182.832321 242.114823 
L 181.634755 208.14218 
L 180.437189 167.850618 
L 179.268725 101.053166 
L 178.100261 80.223018 
L 176.921529 71.256743 
L 175.445262 71.210597 
L 173.425353 71.209399 
L 170.660233 71.209399 
L 166.873842 71.209399 
L 161.68809 71.209399 
L 154.585105 71.209399 
L 144.855533 71.209399 
L 131.527686 71.209399 
L 113.270523 71.209399 
z
" clip-path="url(#p1459a1b9ac)" style="fill: #99ccff; fill-opacity: 0.7"/>
   </g>
   <g id="matplotlib.axis_1">
    <g id="xtick_1">
     <g id="line2d_1">
      <path d="M 180.437189 617.04 
L 180.437189 7.2 
" clip-path="url(#p1459a1b9ac)" style="fill: none; stroke: #b0b0b0; stroke-width: 0.8; stroke-linecap: square"/>
     </g>
     <g id="line2d_2">
      <defs>
       <path id="m608e4acde0" d="M 0 0 
L 0 3.5 
" style="stroke: #000000; stroke-width: 0.8"/>
      </defs>
      <g>
       <use xlink:href="#m608e4acde0" x="180.437189" y="617.04" style="stroke: #000000; stroke-width: 0.8"/>
      </g>
     </g>
     <g id="text_1">
      <!-- $\mathdefault{0.0}$ -->
      <g transform="translate(162.66547 644.795495)scale(0.3 -0.3)">
       <defs>
        <path id="CMR17-30" d="M 2688 2025 
C 2688 2416 2682 3080 2413 3591 
C 2176 4039 1798 4198 1466 4198 
C 1158 4198 768 4058 525 3597 
C 269 3118 243 2524 243 2025 
C 243 1661 250 1106 448 619 
C 723 -39 1216 -128 1466 -128 
C 1760 -128 2208 -7 2470 600 
C 2662 1042 2688 1559 2688 2025 
z
M 1466 -26 
C 1056 -26 813 325 723 812 
C 653 1188 653 1738 653 2096 
C 653 2588 653 2997 736 3387 
C 858 3929 1216 4096 1466 4096 
C 1728 4096 2067 3923 2189 3400 
C 2272 3036 2278 2607 2278 2096 
C 2278 1680 2278 1169 2202 792 
C 2067 95 1690 -26 1466 -26 
z
" transform="scale(0.015625)"/>
        <path id="CMMI12-3a" d="M 1178 307 
C 1178 492 1024 619 870 619 
C 685 619 557 466 557 313 
C 557 128 710 0 864 0 
C 1050 0 1178 153 1178 307 
z
" transform="scale(0.015625)"/>
       </defs>
       <use xlink:href="#CMR17-30" transform="scale(0.996264)"/>
       <use xlink:href="#CMMI12-3a" transform="translate(45.690477 0)scale(0.996264)"/>
       <use xlink:href="#CMR17-30" transform="translate(72.787654 0)scale(0.996264)"/>
      </g>
     </g>
    </g>
    <g id="xtick_2">
     <g id="line2d_3">
      <path d="M 314.770523 617.04 
L 314.770523 7.2 
" clip-path="url(#p1459a1b9ac)" style="fill: none; stroke: #b0b0b0; stroke-width: 0.8; stroke-linecap: square"/>
     </g>
     <g id="line2d_4">
      <g>
       <use xlink:href="#m608e4acde0" x="314.770523" y="617.04" style="stroke: #000000; stroke-width: 0.8"/>
      </g>
     </g>
     <g id="text_2">
      <!-- $\mathdefault{0.1}$ -->
      <g transform="translate(296.998803 644.795495)scale(0.3 -0.3)">
       <defs>
        <path id="CMR17-31" d="M 1702 4058 
C 1702 4192 1696 4192 1606 4192 
C 1357 3916 979 3827 621 3827 
C 602 3827 570 3827 563 3808 
C 557 3795 557 3782 557 3648 
C 755 3648 1088 3686 1344 3839 
L 1344 461 
C 1344 236 1331 160 781 160 
L 589 160 
L 589 0 
C 896 0 1216 0 1523 0 
C 1830 0 2150 0 2458 0 
L 2458 160 
L 2266 160 
C 1715 160 1702 230 1702 458 
L 1702 4058 
z
" transform="scale(0.015625)"/>
       </defs>
       <use xlink:href="#CMR17-30" transform="scale(0.996264)"/>
       <use xlink:href="#CMMI12-3a" transform="translate(45.690477 0)scale(0.996264)"/>
       <use xlink:href="#CMR17-31" transform="translate(72.787654 0)scale(0.996264)"/>
      </g>
     </g>
    </g>
    <g id="xtick_3">
     <g id="line2d_5">
      <path d="M 449.103856 617.04 
L 449.103856 7.2 
" clip-path="url(#p1459a1b9ac)" style="fill: none; stroke: #b0b0b0; stroke-width: 0.8; stroke-linecap: square"/>
     </g>
     <g id="line2d_6">
      <g>
       <use xlink:href="#m608e4acde0" x="449.103856" y="617.04" style="stroke: #000000; stroke-width: 0.8"/>
      </g>
     </g>
     <g id="text_3">
      <!-- $\mathdefault{0.2}$ -->
      <g transform="translate(431.332136 644.795495)scale(0.3 -0.3)">
       <defs>
        <path id="CMR17-32" d="M 2669 989 
L 2554 989 
C 2490 536 2438 459 2413 420 
C 2381 369 1920 369 1830 369 
L 602 369 
C 832 619 1280 1072 1824 1597 
C 2214 1967 2669 2402 2669 3035 
C 2669 3790 2067 4224 1395 4224 
C 691 4224 262 3604 262 3030 
C 262 2780 448 2748 525 2748 
C 589 2748 781 2787 781 3010 
C 781 3207 614 3264 525 3264 
C 486 3264 448 3258 422 3245 
C 544 3790 915 4058 1306 4058 
C 1862 4058 2227 3617 2227 3035 
C 2227 2479 1901 2000 1536 1584 
L 262 146 
L 262 0 
L 2515 0 
L 2669 989 
z
" transform="scale(0.015625)"/>
       </defs>
       <use xlink:href="#CMR17-30" transform="scale(0.996264)"/>
       <use xlink:href="#CMMI12-3a" transform="translate(45.690477 0)scale(0.996264)"/>
       <use xlink:href="#CMR17-32" transform="translate(72.787654 0)scale(0.996264)"/>
      </g>
     </g>
    </g>
    <g id="xtick_4">
     <g id="line2d_7">
      <path d="M 583.437189 617.04 
L 583.437189 7.2 
" clip-path="url(#p1459a1b9ac)" style="fill: none; stroke: #b0b0b0; stroke-width: 0.8; stroke-linecap: square"/>
     </g>
     <g id="line2d_8">
      <g>
       <use xlink:href="#m608e4acde0" x="583.437189" y="617.04" style="stroke: #000000; stroke-width: 0.8"/>
      </g>
     </g>
     <g id="text_4">
      <!-- $\mathdefault{0.3}$ -->
      <g transform="translate(565.66547 644.795495)scale(0.3 -0.3)">
       <defs>
        <path id="CMR17-33" d="M 1414 2157 
C 1984 2157 2234 1662 2234 1090 
C 2234 320 1824 25 1453 25 
C 1114 25 563 194 390 693 
C 422 680 454 680 486 680 
C 640 680 755 782 755 948 
C 755 1133 614 1216 486 1216 
C 378 1216 211 1165 211 926 
C 211 335 787 -128 1466 -128 
C 2176 -128 2720 430 2720 1085 
C 2720 1707 2208 2157 1600 2227 
C 2086 2328 2554 2756 2554 3329 
C 2554 3820 2048 4179 1472 4179 
C 890 4179 378 3829 378 3329 
C 378 3110 544 3072 627 3072 
C 762 3072 877 3155 877 3321 
C 877 3486 762 3569 627 3569 
C 602 3569 570 3569 544 3557 
C 730 3959 1235 4032 1459 4032 
C 1683 4032 2106 3925 2106 3320 
C 2106 3143 2080 2828 1862 2550 
C 1670 2304 1453 2304 1242 2284 
C 1210 2284 1062 2269 1037 2269 
C 992 2263 966 2257 966 2208 
C 966 2163 973 2157 1101 2157 
L 1414 2157 
z
" transform="scale(0.015625)"/>
       </defs>
       <use xlink:href="#CMR17-30" transform="scale(0.996264)"/>
       <use xlink:href="#CMMI12-3a" transform="translate(45.690477 0)scale(0.996264)"/>
       <use xlink:href="#CMR17-33" transform="translate(72.787654 0)scale(0.996264)"/>
      </g>
     </g>
    </g>
    <g id="xtick_5">
     <g id="line2d_9">
      <path d="M 717.770523 617.04 
L 717.770523 7.2 
" clip-path="url(#p1459a1b9ac)" style="fill: none; stroke: #b0b0b0; stroke-width: 0.8; stroke-linecap: square"/>
     </g>
     <g id="line2d_10">
      <g>
       <use xlink:href="#m608e4acde0" x="717.770523" y="617.04" style="stroke: #000000; stroke-width: 0.8"/>
      </g>
     </g>
     <g id="text_5">
      <!-- $\mathdefault{0.4}$ -->
      <g transform="translate(699.998803 644.795495)scale(0.3 -0.3)">
       <defs>
        <path id="CMR17-34" d="M 2150 4122 
C 2150 4256 2144 4256 2029 4256 
L 128 1254 
L 128 1088 
L 1779 1088 
L 1779 457 
C 1779 224 1766 160 1318 160 
L 1197 160 
L 1197 0 
C 1402 0 1747 0 1965 0 
C 2182 0 2528 0 2733 0 
L 2733 160 
L 2611 160 
C 2163 160 2150 224 2150 457 
L 2150 1088 
L 2803 1088 
L 2803 1254 
L 2150 1254 
L 2150 4122 
z
M 1798 3703 
L 1798 1254 
L 256 1254 
L 1798 3703 
z
" transform="scale(0.015625)"/>
       </defs>
       <use xlink:href="#CMR17-30" transform="scale(0.996264)"/>
       <use xlink:href="#CMMI12-3a" transform="translate(45.690477 0)scale(0.996264)"/>
       <use xlink:href="#CMR17-34" transform="translate(72.787654 0)scale(0.996264)"/>
      </g>
     </g>
    </g>
    <g id="text_6">
     <!-- $x, \; \mathrm{m} $ -->
     <g transform="translate(426.884586 678.823697)scale(0.35 -0.35)">
      <defs>
       <path id="CMMI12-78" d="M 3034 2606 
C 2829 2567 2752 2414 2752 2293 
C 2752 2139 2874 2088 2963 2088 
C 3155 2088 3290 2254 3290 2427 
C 3290 2695 2982 2816 2714 2816 
C 2323 2816 2106 2433 2048 2312 
C 1901 2816 1504 2816 1389 2816 
C 736 2816 390 1980 390 1839 
C 390 1814 416 1782 461 1782 
C 512 1782 525 1820 538 1846 
C 755 2555 1184 2689 1370 2689 
C 1658 2689 1715 2420 1715 2267 
C 1715 2127 1677 1980 1600 1673 
L 1382 798 
C 1286 415 1101 64 762 64 
C 730 64 570 64 435 147 
C 666 192 717 383 717 460 
C 717 588 621 664 499 664 
C 346 664 179 530 179 326 
C 179 57 480 -64 755 -64 
C 1062 -64 1280 179 1414 441 
C 1517 64 1837 -64 2074 -64 
C 2726 -64 3072 773 3072 913 
C 3072 945 3046 971 3008 971 
C 2950 971 2944 939 2925 888 
C 2752 326 2381 64 2093 64 
C 1869 64 1747 230 1747 492 
C 1747 632 1773 734 1875 1156 
L 2099 2024 
C 2195 2408 2413 2689 2707 2689 
C 2720 2689 2899 2689 3034 2606 
z
" transform="scale(0.015625)"/>
       <path id="CMMI12-3b" d="M 1248 -31 
C 1248 343 1126 619 864 619 
C 659 619 557 453 557 313 
C 557 172 653 0 870 0 
C 954 0 1024 26 1082 83 
C 1094 96 1101 96 1107 96 
C 1120 96 1120 5 1120 -27 
C 1120 -240 1082 -659 710 -1080 
C 640 -1157 640 -1170 640 -1183 
C 640 -1216 672 -1248 704 -1248 
C 755 -1248 1248 -771 1248 -31 
z
" transform="scale(0.015625)"/>
       <path id="CMR17-6d" d="M 4326 1933 
C 4326 2252 4269 2790 3507 2790 
C 3072 2790 2771 2496 2656 2151 
L 2650 2151 
C 2573 2676 2195 2790 1837 2790 
C 1331 2790 1069 2400 973 2144 
L 966 2144 
L 966 2790 
L 211 2720 
L 211 2554 
C 589 2554 646 2515 646 2208 
L 646 428 
C 646 184 621 153 211 153 
L 211 -13 
C 365 0 646 0 813 0 
C 979 0 1267 0 1421 -13 
L 1421 153 
C 1011 153 986 178 986 428 
L 986 1658 
C 986 2247 1344 2688 1792 2688 
C 2266 2688 2317 2266 2317 1958 
L 2317 428 
C 2317 184 2291 153 1882 153 
L 1882 -13 
C 2035 0 2317 0 2483 0 
C 2650 0 2938 0 3091 -13 
L 3091 153 
C 2682 153 2656 178 2656 428 
L 2656 1658 
C 2656 2247 3014 2688 3462 2688 
C 3936 2688 3987 2266 3987 1958 
L 3987 428 
C 3987 184 3962 153 3552 153 
L 3552 -13 
C 3706 0 3987 0 4154 0 
C 4320 0 4608 0 4762 -13 
L 4762 153 
C 4352 153 4326 178 4326 428 
L 4326 1933 
z
" transform="scale(0.015625)"/>
      </defs>
      <use xlink:href="#CMMI12-78" transform="scale(0.996264)"/>
      <use xlink:href="#CMMI12-3b" transform="translate(55.43406 0)scale(0.996264)"/>
      <use xlink:href="#CMR17-6d" transform="translate(126.809651 0)scale(0.996264)"/>
     </g>
    </g>
   </g>
   <g id="matplotlib.axis_2">
    <g id="ytick_1">
     <g id="line2d_11">
      <path d="M 99.837189 552.163404 
L 825.237189 552.163404 
" clip-path="url(#p1459a1b9ac)" style="fill: none; stroke: #b0b0b0; stroke-width: 0.8; stroke-linecap: square"/>
     </g>
     <g id="line2d_12">
      <defs>
       <path id="m19762af47e" d="M 0 0 
L -3.5 0 
" style="stroke: #000000; stroke-width: 0.8"/>
      </defs>
      <g>
       <use xlink:href="#m19762af47e" x="99.837189" y="552.163404" style="stroke: #000000; stroke-width: 0.8"/>
      </g>
     </g>
     <g id="text_7">
      <!-- $\mathdefault{0.0}$ -->
      <g transform="translate(57.29375 562.541152)scale(0.3 -0.3)">
       <use xlink:href="#CMR17-30" transform="scale(0.996264)"/>
       <use xlink:href="#CMMI12-3a" transform="translate(45.690477 0)scale(0.996264)"/>
       <use xlink:href="#CMR17-30" transform="translate(72.787654 0)scale(0.996264)"/>
      </g>
     </g>
    </g>
    <g id="ytick_2">
     <g id="line2d_13">
      <path d="M 99.837189 448.360851 
L 825.237189 448.360851 
" clip-path="url(#p1459a1b9ac)" style="fill: none; stroke: #b0b0b0; stroke-width: 0.8; stroke-linecap: square"/>
     </g>
     <g id="line2d_14">
      <g>
       <use xlink:href="#m19762af47e" x="99.837189" y="448.360851" style="stroke: #000000; stroke-width: 0.8"/>
      </g>
     </g>
     <g id="text_8">
      <!-- $\mathdefault{0.2}$ -->
      <g transform="translate(57.29375 458.738599)scale(0.3 -0.3)">
       <use xlink:href="#CMR17-30" transform="scale(0.996264)"/>
       <use xlink:href="#CMMI12-3a" transform="translate(45.690477 0)scale(0.996264)"/>
       <use xlink:href="#CMR17-32" transform="translate(72.787654 0)scale(0.996264)"/>
      </g>
     </g>
    </g>
    <g id="ytick_3">
     <g id="line2d_15">
      <path d="M 99.837189 344.558298 
L 825.237189 344.558298 
" clip-path="url(#p1459a1b9ac)" style="fill: none; stroke: #b0b0b0; stroke-width: 0.8; stroke-linecap: square"/>
     </g>
     <g id="line2d_16">
      <g>
       <use xlink:href="#m19762af47e" x="99.837189" y="344.558298" style="stroke: #000000; stroke-width: 0.8"/>
      </g>
     </g>
     <g id="text_9">
      <!-- $\mathdefault{0.4}$ -->
      <g transform="translate(57.29375 354.936045)scale(0.3 -0.3)">
       <use xlink:href="#CMR17-30" transform="scale(0.996264)"/>
       <use xlink:href="#CMMI12-3a" transform="translate(45.690477 0)scale(0.996264)"/>
       <use xlink:href="#CMR17-34" transform="translate(72.787654 0)scale(0.996264)"/>
      </g>
     </g>
    </g>
    <g id="ytick_4">
     <g id="line2d_17">
      <path d="M 99.837189 240.755745 
L 825.237189 240.755745 
" clip-path="url(#p1459a1b9ac)" style="fill: none; stroke: #b0b0b0; stroke-width: 0.8; stroke-linecap: square"/>
     </g>
     <g id="line2d_18">
      <g>
       <use xlink:href="#m19762af47e" x="99.837189" y="240.755745" style="stroke: #000000; stroke-width: 0.8"/>
      </g>
     </g>
     <g id="text_10">
      <!-- $\mathdefault{0.6}$ -->
      <g transform="translate(57.29375 251.133492)scale(0.3 -0.3)">
       <defs>
        <path id="CMR17-36" d="M 678 2176 
C 678 3690 1395 4032 1811 4032 
C 1946 4032 2272 4009 2400 3776 
C 2298 3776 2106 3776 2106 3553 
C 2106 3381 2246 3323 2336 3323 
C 2394 3323 2566 3348 2566 3560 
C 2566 3954 2246 4179 1805 4179 
C 1043 4179 243 3390 243 1984 
C 243 253 966 -128 1478 -128 
C 2099 -128 2688 427 2688 1283 
C 2688 2081 2170 2662 1517 2662 
C 1126 2662 838 2407 678 1960 
L 678 2176 
z
M 1478 25 
C 691 25 691 1200 691 1436 
C 691 1896 909 2560 1504 2560 
C 1613 2560 1926 2560 2138 2120 
C 2253 1870 2253 1609 2253 1289 
C 2253 944 2253 690 2118 434 
C 1978 171 1773 25 1478 25 
z
" transform="scale(0.015625)"/>
       </defs>
       <use xlink:href="#CMR17-30" transform="scale(0.996264)"/>
       <use xlink:href="#CMMI12-3a" transform="translate(45.690477 0)scale(0.996264)"/>
       <use xlink:href="#CMR17-36" transform="translate(72.787654 0)scale(0.996264)"/>
      </g>
     </g>
    </g>
    <g id="ytick_5">
     <g id="line2d_19">
      <path d="M 99.837189 136.953191 
L 825.237189 136.953191 
" clip-path="url(#p1459a1b9ac)" style="fill: none; stroke: #b0b0b0; stroke-width: 0.8; stroke-linecap: square"/>
     </g>
     <g id="line2d_20">
      <g>
       <use xlink:href="#m19762af47e" x="99.837189" y="136.953191" style="stroke: #000000; stroke-width: 0.8"/>
      </g>
     </g>
     <g id="text_11">
      <!-- $\mathdefault{0.8}$ -->
      <g transform="translate(57.29375 147.330939)scale(0.3 -0.3)">
       <defs>
        <path id="CMR17-38" d="M 1741 2264 
C 2144 2467 2554 2773 2554 3263 
C 2554 3841 1990 4179 1472 4179 
C 890 4179 378 3759 378 3180 
C 378 3021 416 2747 666 2505 
C 730 2442 998 2251 1171 2130 
C 883 1983 211 1634 211 934 
C 211 279 838 -128 1459 -128 
C 2144 -128 2720 362 2720 1010 
C 2720 1590 2330 1857 2074 2029 
L 1741 2264 
z
M 902 2822 
C 851 2854 595 3051 595 3351 
C 595 3739 998 4032 1459 4032 
C 1965 4032 2336 3676 2336 3262 
C 2336 2669 1670 2331 1638 2331 
C 1632 2331 1626 2331 1574 2370 
L 902 2822 
z
M 2080 1519 
C 2176 1449 2483 1240 2483 851 
C 2483 381 2010 25 1472 25 
C 890 25 448 438 448 940 
C 448 1443 838 1862 1280 2060 
L 2080 1519 
z
" transform="scale(0.015625)"/>
       </defs>
       <use xlink:href="#CMR17-30" transform="scale(0.996264)"/>
       <use xlink:href="#CMMI12-3a" transform="translate(45.690477 0)scale(0.996264)"/>
       <use xlink:href="#CMR17-38" transform="translate(72.787654 0)scale(0.996264)"/>
      </g>
     </g>
    </g>
    <g id="ytick_6">
     <g id="line2d_21">
      <path d="M 99.837189 33.150638 
L 825.237189 33.150638 
" clip-path="url(#p1459a1b9ac)" style="fill: none; stroke: #b0b0b0; stroke-width: 0.8; stroke-linecap: square"/>
     </g>
     <g id="line2d_22">
      <g>
       <use xlink:href="#m19762af47e" x="99.837189" y="33.150638" style="stroke: #000000; stroke-width: 0.8"/>
      </g>
     </g>
     <g id="text_12">
      <!-- $\mathdefault{1.0}$ -->
      <g transform="translate(57.29375 43.528386)scale(0.3 -0.3)">
       <use xlink:href="#CMR17-31" transform="scale(0.996264)"/>
       <use xlink:href="#CMMI12-3a" transform="translate(45.690477 0)scale(0.996264)"/>
       <use xlink:href="#CMR17-30" transform="translate(72.787654 0)scale(0.996264)"/>
      </g>
     </g>
    </g>
    <g id="text_13">
     <!-- $\frac{M}{M_\infty}, \; -$ -->
     <g transform="translate(37.608171 359.295866)rotate(-90)scale(0.35 -0.35)">
      <defs>
       <path id="CMMI12-4d" d="M 5811 3886 
C 5869 4103 5882 4167 6336 4167 
C 6458 4167 6515 4167 6515 4288 
C 6515 4352 6470 4352 6349 4352 
L 5581 4352 
C 5421 4352 5414 4346 5344 4243 
L 3008 562 
L 2528 4211 
C 2509 4352 2502 4352 2336 4352 
L 1542 4352 
C 1421 4352 1363 4352 1363 4231 
C 1363 4167 1421 4167 1517 4167 
C 1907 4167 1907 4116 1907 4046 
C 1907 4034 1907 3995 1882 3899 
L 1062 634 
C 986 327 838 186 410 186 
C 390 186 314 186 314 73 
C 314 0 371 0 397 0 
C 525 0 851 0 979 0 
L 1286 0 
C 1376 0 1485 0 1574 0 
C 1619 0 1690 0 1690 122 
C 1690 180 1626 186 1600 186 
C 1389 186 1184 224 1184 454 
C 1184 518 1184 524 1210 613 
L 2093 4129 
L 2099 4129 
L 2630 172 
C 2650 19 2656 0 2714 0 
C 2784 0 2816 51 2848 109 
L 5421 4161 
L 5427 4161 
L 4499 473 
C 4442 250 4429 186 3981 186 
C 3859 186 3795 186 3795 70 
C 3795 0 3853 0 3891 0 
C 4000 0 4128 0 4237 0 
L 4992 0 
C 5101 0 5235 0 5344 0 
C 5395 0 5466 0 5466 122 
C 5466 186 5408 186 5312 186 
C 4922 186 4922 234 4922 294 
C 4922 301 4922 345 4934 396 
L 5811 3886 
z
" transform="scale(0.015625)"/>
       <path id="CMSY10-31" d="M 3251 1730 
C 2906 2166 2829 2262 2630 2422 
C 2272 2710 1914 2825 1587 2825 
C 838 2825 352 2122 352 1374 
C 352 639 826 -70 1562 -70 
C 2298 -70 2829 511 3142 1022 
C 3488 588 3565 492 3763 332 
C 4122 45 4480 -70 4806 -70 
C 5555 -70 6042 633 6042 1380 
C 6042 2115 5568 2825 4832 2825 
C 4096 2825 3565 2242 3251 1730 
z
M 3418 1514 
C 3680 1975 4154 2620 4877 2620 
C 5555 2620 5901 1955 5901 1380 
C 5901 753 5472 236 4909 236 
C 4538 236 4250 505 4115 638 
C 3955 811 3808 1009 3418 1514 
z
M 2976 1240 
C 2714 780 2240 134 1517 134 
C 838 134 493 799 493 1374 
C 493 2000 922 2518 1485 2518 
C 1856 2518 2144 2249 2278 2115 
C 2438 1943 2586 1744 2976 1240 
z
" transform="scale(0.015625)"/>
       <path id="CMSY10-0" d="M 4218 1472 
C 4326 1472 4442 1472 4442 1600 
C 4442 1728 4326 1728 4218 1728 
L 755 1728 
C 646 1728 531 1728 531 1600 
C 531 1472 646 1472 755 1472 
L 4218 1472 
z
" transform="scale(0.015625)"/>
      </defs>
      <use xlink:href="#CMMI12-4d" transform="translate(21.513426 39.226102)scale(0.697382)"/>
      <use xlink:href="#CMMI12-4d" transform="translate(0 -34.355253)scale(0.697382)"/>
      <use xlink:href="#CMSY10-31" transform="translate(66.061109 -44.815949)scale(0.498132)"/>
      <use xlink:href="#CMMI12-3b" transform="translate(117.568092 0)scale(0.996264)"/>
      <use xlink:href="#CMSY10-0" transform="translate(188.943683 0)scale(0.996264)"/>
      <path d="M 0 22.914133 
L 116.372578 22.914133 
L 116.372578 26.899083 
L 0 26.899083 
L 0 22.914133 
z
"/>
     </g>
    </g>
   </g>
   <g id="line2d_23">
    <path d="M 113.270523 47.384498 
L 176.921529 47.431515 
L 178.100261 54.083107 
L 179.268725 75.437161 
L 180.437189 136.387527 
L 181.634755 179.212314 
L 182.832321 215.116972 
L 185.227453 260.393504 
L 186.425019 266.356723 
L 187.622584 266.842831 
L 188.82015 263.877347 
L 190.017716 264.170262 
L 191.215282 263.27545 
L 193.610414 263.104525 
L 194.80798 263.557941 
L 198.400677 264.453439 
L 199.598243 264.958567 
L 200.795809 265.199137 
L 201.993375 265.575213 
L 204.388506 265.854904 
L 207.981204 265.848623 
L 210.376336 265.923343 
L 213.969033 266.135789 
L 268.337524 265.764168 
L 315.89077 265.138142 
L 346.383145 264.691763 
L 437.696419 263.590089 
L 438.827454 262.322067 
L 439.958488 336.321917 
L 440.783283 423.071924 
L 441.608079 421.623783 
L 444.90726 412.929596 
L 446.556851 409.61755 
L 448.206442 407.093224 
L 449.856032 405.137882 
L 451.505623 403.410064 
L 453.980009 401.653486 
L 457.279191 399.950226 
L 459.753577 398.795277 
L 463.052758 397.543965 
L 468.826326 395.515207 
L 472.950302 393.921578 
L 475.424688 392.635114 
L 477.96769 390.832448 
L 479.968268 389.204425 
L 482.319609 386.938911 
L 485.08459 383.470269 
L 490.200984 375.794086 
L 492.213011 373.193884 
L 494.402105 370.725079 
L 496.784831 368.488033 
L 499.378255 366.653303 
L 502.198217 364.82859 
L 505.267159 363.761577 
L 508.602054 363.34334 
L 512.225875 363.794342 
L 516.157554 364.636254 
L 525.019869 367.157552 
L 529.979269 368.411763 
L 546.870764 371.976487 
L 564.686344 375.586647 
L 570.624871 377.20078 
L 576.563397 379.085337 
L 582.501924 380.815424 
L 588.44045 382.207533 
L 594.378977 383.177591 
L 600.317503 383.968102 
L 606.25603 384.980972 
L 612.194557 386.522292 
L 618.133083 388.454593 
L 624.07161 390.101467 
L 630.010136 357.758513 
L 638.40597 256.917613 
L 646.801803 239.907709 
L 655.197636 240.74532 
L 663.59347 239.256882 
L 671.989303 240.139552 
L 680.385136 241.296089 
L 688.78097 242.126565 
L 705.572636 243.140244 
L 713.96847 243.978273 
L 722.364303 244.555821 
L 739.15597 245.38402 
L 747.551803 246.004891 
L 764.34347 246.790666 
L 789.53097 248.412896 
L 823.114303 249.535083 
L 831.510136 249.656489 
L 831.510136 249.656489 
" clip-path="url(#p1459a1b9ac)" style="fill: none; stroke: #ff0000; stroke-width: 3; stroke-linecap: square"/>
   </g>
   <g id="patch_3">
    <path d="M 99.837189 617.04 
L 99.837189 7.2 
" style="fill: none; stroke: #000000; stroke-width: 0.8; stroke-linejoin: miter; stroke-linecap: square"/>
   </g>
   <g id="patch_4">
    <path d="M 825.237189 617.04 
L 825.237189 7.2 
" style="fill: none; stroke: #000000; stroke-width: 0.8; stroke-linejoin: miter; stroke-linecap: square"/>
   </g>
   <g id="patch_5">
    <path d="M 99.837189 617.04 
L 825.237189 617.04 
" style="fill: none; stroke: #000000; stroke-width: 0.8; stroke-linejoin: miter; stroke-linecap: square"/>
   </g>
   <g id="patch_6">
    <path d="M 99.837189 7.2 
L 825.237189 7.2 
" style="fill: none; stroke: #000000; stroke-width: 0.8; stroke-linejoin: miter; stroke-linecap: square"/>
   </g>
   <g id="legend_1">
    <g id="patch_7">
     <path d="M 668.195203 132.764702 
L 800.737189 132.764702 
Q 807.737189 132.764702 807.737189 125.764702 
L 807.737189 31.7 
Q 807.737189 24.7 800.737189 24.7 
L 668.195203 24.7 
Q 661.195203 24.7 661.195203 31.7 
L 661.195203 125.764702 
Q 661.195203 132.764702 668.195203 132.764702 
z
" style="fill: #ffffff; stroke: #cccccc; stroke-linejoin: miter"/>
    </g>
    <g id="patch_8">
     <path d="M 675.195203 63.2 
L 745.195203 63.2 
L 745.195203 38.7 
L 675.195203 38.7 
z
" style="fill: #99ccff; fill-opacity: 0.7"/>
    </g>
    <g id="text_14">
     <!-- $\sigma$ -->
     <g transform="translate(773.195203 63.2)scale(0.35 -0.35)">
      <defs>
       <path id="CMMI12-1b" d="M 3251 2408 
C 3334 2408 3546 2408 3546 2612 
C 3546 2752 3424 2752 3309 2752 
L 1894 2752 
C 934 2752 243 1686 243 932 
C 243 390 595 -64 1171 -64 
C 1926 -64 2752 747 2752 1705 
C 2752 1954 2694 2196 2541 2408 
L 3251 2408 
z
M 1178 64 
C 851 64 614 313 614 754 
C 614 1137 845 2408 1786 2408 
C 2061 2408 2368 2274 2368 1781 
C 2368 1558 2266 1021 2042 652 
C 1811 275 1466 64 1178 64 
z
" transform="scale(0.015625)"/>
      </defs>
      <use xlink:href="#CMMI12-1b" transform="scale(0.996264)"/>
     </g>
    </g>
    <g id="line2d_24">
     <path d="M 675.195203 99.732351 
L 710.195203 99.732351 
L 745.195203 99.732351 
" style="fill: none; stroke: #ff0000; stroke-width: 3; stroke-linecap: square"/>
    </g>
    <g id="text_15">
     <!-- $\mu$ -->
     <g transform="translate(773.195203 111.982351)scale(0.35 -0.35)">
      <defs>
       <path id="CMMI12-16" d="M 922 140 
C 1082 -6 1318 -64 1536 -64 
C 1946 -64 2227 208 2374 405 
C 2438 69 2707 -64 2931 -64 
C 3123 -64 3277 50 3392 277 
C 3494 493 3584 879 3584 903 
C 3584 935 3558 960 3520 960 
C 3462 960 3456 928 3430 834 
C 3334 461 3213 64 2950 64 
C 2765 64 2752 229 2752 358 
C 2752 504 2810 735 2854 926 
L 3034 1615 
C 3059 1737 3130 2023 3162 2139 
C 3200 2292 3270 2567 3270 2592 
C 3270 2688 3194 2752 3098 2752 
C 3040 2752 2906 2726 2854 2535 
L 2406 760 
C 2374 632 2374 619 2291 517 
C 2214 409 1965 64 1562 64 
C 1203 64 1088 326 1088 625 
C 1088 811 1146 1034 1171 1143 
L 1459 2293 
C 1491 2414 1542 2618 1542 2657 
C 1542 2759 1459 2816 1376 2816 
C 1318 2816 1178 2797 1126 2592 
L 198 -1107 
C 192 -1139 179 -1177 179 -1216 
C 179 -1312 256 -1376 352 -1376 
C 538 -1376 576 -1228 621 -1050 
L 922 140 
z
" transform="scale(0.015625)"/>
      </defs>
      <use xlink:href="#CMMI12-16" transform="scale(0.996264)"/>
     </g>
    </g>
   </g>
  </g>
 </g>
 <defs>
  <clipPath id="p1459a1b9ac">
   <rect x="99.837189" y="7.2" width="725.4" height="609.84"/>
  </clipPath>
 </defs>
</svg>
