<?xml version="1.0" encoding="utf-8" standalone="no"?>
<!DOCTYPE svg PUBLIC "-//W3C//DTD SVG 1.1//EN"
  "http://www.w3.org/Graphics/SVG/1.1/DTD/svg11.dtd">
<svg xmlns:xlink="http://www.w3.org/1999/xlink" width="814.732464pt" height="692.806049pt" viewBox="0 0 814.732464 692.806049" xmlns="http://www.w3.org/2000/svg" version="1.1">
 <metadata>
  <rdf:RDF xmlns:dc="http://purl.org/dc/elements/1.1/" xmlns:cc="http://creativecommons.org/ns#" xmlns:rdf="http://www.w3.org/1999/02/22-rdf-syntax-ns#">
   <cc:Work>
    <dc:type rdf:resource="http://purl.org/dc/dcmitype/StillImage"/>
    <dc:date>2025-03-26T12:44:15.361378</dc:date>
    <dc:format>image/svg+xml</dc:format>
    <dc:creator>
     <cc:Agent>
      <dc:title>Matplotlib v3.7.1, https://matplotlib.org/</dc:title>
     </cc:Agent>
    </dc:creator>
   </cc:Work>
  </rdf:RDF>
 </metadata>
 <defs>
  <style type="text/css">*{stroke-linejoin: round; stroke-linecap: butt}</style>
 </defs>
 <g id="figure_1">
  <g id="patch_1">
   <path d="M 0 692.806049 
L 814.732464 692.806049 
L 814.732464 0 
L 0 0 
z
" style="fill: #ffffff"/>
  </g>
  <g id="axes_1">
   <g id="patch_2">
    <path d="M 82.132464 617.04 
L 807.532464 617.04 
L 807.532464 7.2 
L 82.132464 7.2 
z
" style="fill: #ffffff"/>
   </g>
   <g id="PolyCollection_1">
    <path d="M 95.565797 522.395244 
L 95.565797 514.604882 
L 113.82296 514.604882 
L 127.150808 514.604882 
L 136.88038 514.604882 
L 143.983365 514.604882 
L 149.169117 514.604882 
L 152.955507 514.604882 
L 155.720628 514.604882 
L 157.740536 514.604882 
L 159.216804 514.590645 
L 160.395535 513.009332 
L 161.564 504.086268 
L 162.732464 468.781294 
L 163.93003 445.959642 
L 165.127596 424.790386 
L 166.325161 407.732061 
L 167.522727 391.486586 
L 168.720293 387.168524 
L 169.917859 388.806436 
L 171.115425 393.744743 
L 172.312991 391.4122 
L 173.510557 393.012134 
L 174.708122 393.106609 
L 175.905688 392.607643 
L 177.103254 392.307488 
L 178.30082 391.912529 
L 179.498386 391.394629 
L 180.695952 391.007907 
L 181.893518 390.517939 
L 183.091083 390.0902 
L 184.288649 389.549002 
L 185.486215 389.139751 
L 186.683781 388.868927 
L 187.881347 388.79048 
L 189.078913 388.633262 
L 190.276478 388.625672 
L 191.474044 388.643244 
L 192.67161 388.511645 
L 193.869176 388.335611 
L 195.066742 388.286524 
L 196.264308 388.301362 
L 197.461874 388.45004 
L 198.659439 388.379504 
L 199.857005 388.306422 
L 201.054571 388.230952 
L 202.252137 388.235688 
L 203.449703 388.366954 
L 204.64727 388.512769 
L 205.875006 388.561151 
L 207.146608 388.605573 
L 208.463968 388.651103 
L 209.829608 388.731896 
L 211.24611 388.81608 
L 212.714959 388.88469 
L 214.237923 388.953432 
L 215.817065 388.994505 
L 217.45465 389.034208 
L 219.152109 389.080739 
L 220.911216 389.128291 
L 222.734445 389.185642 
L 224.625128 389.249754 
L 226.587023 389.351165 
L 228.619242 389.417668 
L 230.726355 389.458491 
L 232.9122 389.490529 
L 235.176907 389.53614 
L 237.526301 389.600322 
L 239.961686 389.677492 
L 242.48595 389.785711 
L 245.104171 389.885284 
L 247.818657 389.979341 
L 250.632799 390.060449 
L 253.550458 390.163551 
L 256.575581 390.271642 
L 259.712074 390.372588 
L 262.963908 390.45652 
L 266.335378 390.533836 
L 269.83151 390.571956 
L 273.456199 390.62204 
L 277.214186 390.690081 
L 281.110791 390.747191 
L 285.151063 390.845899 
L 289.33984 390.91667 
L 293.682881 391.022249 
L 298.186044 391.143072 
L 302.855204 391.297683 
L 307.69626 391.432374 
L 312.690082 391.560802 
L 317.827904 391.676041 
L 323.154862 391.806058 
L 328.678419 391.943398 
L 334.405443 392.086617 
L 340.343562 392.219101 
L 346.500604 392.353751 
L 352.884536 392.472061 
L 359.50381 392.663901 
L 366.367211 392.835193 
L 373.483619 392.99105 
L 380.862319 393.14593 
L 388.513042 393.304547 
L 396.0659 393.422653 
L 401.70282 393.513896 
L 405.717076 393.561346 
L 408.576271 393.599227 
L 410.613207 393.613131 
L 412.06472 393.629335 
L 413.205487 393.652071 
L 414.336522 393.665745 
L 415.467556 393.693977 
L 416.598591 393.710429 
L 417.729625 393.729894 
L 418.860659 393.745847 
L 419.991694 393.762024 
L 421.122728 392.912488 
L 422.253763 215.481791 
L 423.078558 -31.862107 
L 423.903353 49.56163 
L 424.728149 70.360472 
L 425.552944 90.714352 
L 426.377739 112.292722 
L 427.202535 130.883782 
L 428.02733 144.995974 
L 428.852125 155.767821 
L 429.676921 165.188448 
L 430.501716 172.833024 
L 431.326511 179.302083 
L 432.151307 185.177204 
L 432.976102 190.88963 
L 433.800898 195.923605 
L 434.625693 200.523178 
L 435.450488 204.536936 
L 436.275284 208.324158 
L 437.100079 211.425472 
L 437.924874 214.447272 
L 438.74967 217.259471 
L 439.574465 219.848949 
L 440.39926 222.306012 
L 441.224056 224.386606 
L 442.048851 226.441953 
L 442.873646 228.476414 
L 443.698442 230.182279 
L 444.523237 231.709139 
L 445.348033 233.109202 
L 446.172828 234.475759 
L 446.997623 235.825026 
L 447.822419 237.102812 
L 448.647214 238.312686 
L 449.472009 239.47509 
L 450.296805 240.601897 
L 451.1216 241.69451 
L 451.946395 242.761385 
L 452.771191 243.80397 
L 453.595986 244.86308 
L 454.420781 245.898104 
L 455.245577 247.002894 
L 456.070372 248.174472 
L 456.895168 249.51954 
L 457.719963 250.888111 
L 458.544758 252.484265 
L 459.378 254.216389 
L 460.262964 256.184238 
L 461.225601 258.355016 
L 462.263542 260.722486 
L 463.391057 263.382253 
L 464.614883 266.291982 
L 465.940755 270.182732 
L 467.379865 274.602406 
L 468.944963 279.446094 
L 470.646363 284.973751 
L 472.496259 290.375434 
L 474.508285 295.455593 
L 476.69738 299.954523 
L 479.080106 303.861072 
L 481.67353 307.275447 
L 484.493491 310.06589 
L 487.562434 310.789629 
L 490.897329 310.471375 
L 494.52115 308.846089 
L 498.452828 306.273052 
L 502.711679 302.818197 
L 507.315144 299.733546 
L 512.274543 297.073312 
L 517.592496 294.753819 
L 523.252043 292.452529 
L 529.166039 289.990798 
L 535.104565 287.481957 
L 541.043092 285.287308 
L 546.981619 283.440711 
L 552.920145 281.54472 
L 558.858672 279.165863 
L 564.797198 276.987374 
L 570.735725 275.619131 
L 576.674251 274.787076 
L 582.612778 273.965153 
L 588.551305 272.768456 
L 594.489831 271.504699 
L 600.428358 270.082214 
L 606.366884 269.939977 
L 612.305411 329.49503 
L 620.701244 450.253914 
L 629.097078 465.74253 
L 637.492911 466.576152 
L 645.888744 466.946019 
L 654.284578 466.267165 
L 662.680411 465.317922 
L 671.076244 464.659683 
L 679.472078 463.922818 
L 687.867911 463.324325 
L 696.263744 462.491945 
L 704.659578 461.916033 
L 713.055411 461.619802 
L 721.451244 461.367403 
L 729.847078 460.999028 
L 738.242911 460.675358 
L 746.638744 460.297289 
L 755.034578 459.880382 
L 763.430411 459.396618 
L 771.826244 459.006109 
L 780.222078 458.690469 
L 788.617911 458.494501 
L 797.013744 458.254639 
L 805.409578 458.033609 
L 813.805411 457.885301 
L 813.805411 478.892622 
L 813.805411 478.892622 
L 805.409578 478.920313 
L 797.013744 479.052435 
L 788.617911 479.359534 
L 780.222078 479.683228 
L 771.826244 479.932495 
L 763.430411 480.191741 
L 755.034578 480.401895 
L 746.638744 480.700495 
L 738.242911 480.973558 
L 729.847078 481.274649 
L 721.451244 481.840133 
L 713.055411 482.436158 
L 704.659578 482.893488 
L 696.263744 483.219836 
L 687.867911 483.355136 
L 679.472078 483.420073 
L 671.076244 483.350302 
L 662.680411 483.468168 
L 654.284578 484.222398 
L 645.888744 484.870878 
L 637.492911 483.308721 
L 629.097078 484.802808 
L 620.701244 479.91972 
L 612.305411 361.588436 
L 606.366884 307.186108 
L 600.428358 309.863788 
L 594.489831 311.270934 
L 588.551305 312.407134 
L 582.612778 313.357258 
L 576.674251 313.752374 
L 570.735725 314.197602 
L 564.797198 315.155788 
L 558.858672 316.900592 
L 552.920145 318.838265 
L 546.981619 320.355763 
L 541.043092 321.709832 
L 535.104565 323.171844 
L 529.166039 324.74812 
L 523.252043 326.087052 
L 517.592496 327.137236 
L 512.274543 328.254906 
L 507.315144 329.876811 
L 502.711679 331.958315 
L 498.452828 334.382132 
L 494.52115 336.242756 
L 490.897329 337.086337 
L 487.562434 336.907743 
L 484.493491 335.96099 
L 481.67353 332.807465 
L 479.080106 328.965781 
L 476.69738 324.971849 
L 474.508285 320.416695 
L 472.496259 315.272174 
L 470.646363 309.571847 
L 468.944963 303.96299 
L 467.379865 299.096516 
L 465.940755 294.852796 
L 464.614883 291.723338 
L 463.391057 289.229238 
L 462.263542 286.597287 
L 461.225601 284.308939 
L 460.262964 282.188457 
L 459.378 280.229256 
L 458.544758 278.540166 
L 457.719963 276.898858 
L 456.895168 275.615518 
L 456.070372 274.34662 
L 455.245577 273.221325 
L 454.420781 272.169282 
L 453.595986 271.19595 
L 452.771191 270.174188 
L 451.946395 269.152327 
L 451.1216 268.130769 
L 450.296805 267.100196 
L 449.472009 266.070039 
L 448.647214 264.979354 
L 447.822419 263.85216 
L 446.997623 262.606021 
L 446.172828 261.283657 
L 445.348033 259.979832 
L 444.523237 258.679256 
L 443.698442 257.24703 
L 442.873646 255.691279 
L 442.048851 253.846217 
L 441.224056 252.02663 
L 440.39926 250.190042 
L 439.574465 248.05223 
L 438.74967 245.832213 
L 437.924874 243.515138 
L 437.100079 241.041622 
L 436.275284 238.598593 
L 435.450488 235.603251 
L 434.625693 232.492495 
L 433.800898 228.997097 
L 432.976102 225.340669 
L 432.151307 220.956008 
L 431.326511 216.522501 
L 430.501716 211.629638 
L 429.676921 206.017754 
L 428.852125 199.224865 
L 428.02733 191.52779 
L 427.202535 181.04855 
L 426.377739 167.382979 
L 425.552944 150.60788 
L 424.728149 135.651897 
L 423.903353 118.730598 
L 423.078558 127.253054 
L 422.253763 306.380212 
L 421.122728 425.190608 
L 419.991694 421.793429 
L 418.860659 421.788246 
L 417.729625 421.784143 
L 416.598591 421.773797 
L 415.467556 421.764907 
L 414.336522 421.743747 
L 413.205487 421.736234 
L 412.06472 421.718884 
L 410.613207 421.702325 
L 408.576271 421.667943 
L 405.717076 421.620246 
L 401.70282 421.549276 
L 396.0659 421.473364 
L 388.513042 421.391727 
L 380.862319 421.319278 
L 373.483619 421.270702 
L 366.367211 421.239802 
L 359.50381 421.222762 
L 352.884536 421.165901 
L 346.500604 421.16356 
L 340.343562 421.130814 
L 334.405443 421.115407 
L 328.678419 421.114018 
L 323.154862 421.073654 
L 317.827904 421.025694 
L 312.690082 420.953759 
L 307.69626 420.908752 
L 302.855204 420.870468 
L 298.186044 420.834162 
L 293.682881 420.773306 
L 289.33984 420.722277 
L 285.151063 420.673893 
L 281.110791 420.629076 
L 277.214186 420.637227 
L 273.456199 420.634206 
L 269.83151 420.640587 
L 266.335378 420.637109 
L 262.963908 420.604785 
L 259.712074 420.577735 
L 256.575581 420.547946 
L 253.550458 420.513446 
L 250.632799 420.483989 
L 247.818657 420.437412 
L 245.104171 420.403834 
L 242.48595 420.379158 
L 239.961686 420.377658 
L 237.526301 420.352396 
L 235.176907 420.351712 
L 232.9122 420.330742 
L 230.726355 420.334017 
L 228.619242 420.358075 
L 226.587023 420.415586 
L 224.625128 420.480035 
L 222.734445 420.515926 
L 220.911216 420.547765 
L 219.152109 420.589319 
L 217.45465 420.63734 
L 215.817065 420.672387 
L 214.237923 420.714771 
L 212.714959 420.762652 
L 211.24611 420.829737 
L 209.829608 420.884455 
L 208.463968 420.96026 
L 207.146608 421.025846 
L 205.875006 421.046183 
L 204.64727 421.11858 
L 203.449703 421.229058 
L 202.252137 421.431164 
L 201.054571 421.534462 
L 199.857005 421.550189 
L 198.659439 421.578288 
L 197.461874 421.674204 
L 196.264308 421.891515 
L 195.066742 422.092251 
L 193.869176 422.236176 
L 192.67161 422.140123 
L 191.474044 422.140474 
L 190.276478 422.21453 
L 189.078913 422.271367 
L 187.881347 422.270738 
L 186.683781 422.223471 
L 185.486215 422.237794 
L 184.288649 422.066658 
L 183.091083 421.890043 
L 181.893518 421.614043 
L 180.695952 421.560666 
L 179.498386 421.343728 
L 178.30082 421.420179 
L 177.103254 420.978612 
L 175.905688 420.667772 
L 174.708122 420.430615 
L 173.510557 419.620923 
L 172.312991 418.245808 
L 171.115425 418.692644 
L 169.917859 421.093235 
L 168.720293 422.789894 
L 167.522727 422.821819 
L 166.325161 438.431207 
L 165.127596 453.350748 
L 163.93003 473.00596 
L 162.732464 491.166859 
L 161.564 515.417238 
L 160.395535 521.981683 
L 159.216804 522.381437 
L 157.740536 522.395244 
L 155.720628 522.395244 
L 152.955507 522.395244 
L 149.169117 522.395244 
L 143.983365 522.395244 
L 136.88038 522.395244 
L 127.150808 522.395244 
L 113.82296 522.395244 
L 95.565797 522.395244 
z
" clip-path="url(#pf6dc051448)" style="fill: #99ccff; fill-opacity: 0.7"/>
   </g>
   <g id="matplotlib.axis_1">
    <g id="xtick_1">
     <g id="line2d_1">
      <path d="M 162.732464 617.04 
L 162.732464 7.2 
" clip-path="url(#pf6dc051448)" style="fill: none; stroke: #b0b0b0; stroke-width: 0.8; stroke-linecap: square"/>
     </g>
     <g id="line2d_2">
      <defs>
       <path id="m99394256c5" d="M 0 0 
L 0 3.5 
" style="stroke: #000000; stroke-width: 0.8"/>
      </defs>
      <g>
       <use xlink:href="#m99394256c5" x="162.732464" y="617.04" style="stroke: #000000; stroke-width: 0.8"/>
      </g>
     </g>
     <g id="text_1">
      <!-- $\mathdefault{0.0}$ -->
      <g transform="translate(144.960744 644.795495) scale(0.3 -0.3)">
       <defs>
        <path id="CMR17-30" d="M 2688 2025 
C 2688 2416 2682 3080 2413 3591 
C 2176 4039 1798 4198 1466 4198 
C 1158 4198 768 4058 525 3597 
C 269 3118 243 2524 243 2025 
C 243 1661 250 1106 448 619 
C 723 -39 1216 -128 1466 -128 
C 1760 -128 2208 -7 2470 600 
C 2662 1042 2688 1559 2688 2025 
z
M 1466 -26 
C 1056 -26 813 325 723 812 
C 653 1188 653 1738 653 2096 
C 653 2588 653 2997 736 3387 
C 858 3929 1216 4096 1466 4096 
C 1728 4096 2067 3923 2189 3400 
C 2272 3036 2278 2607 2278 2096 
C 2278 1680 2278 1169 2202 792 
C 2067 95 1690 -26 1466 -26 
z
" transform="scale(0.015625)"/>
        <path id="CMMI12-3a" d="M 1178 307 
C 1178 492 1024 619 870 619 
C 685 619 557 466 557 313 
C 557 128 710 0 864 0 
C 1050 0 1178 153 1178 307 
z
" transform="scale(0.015625)"/>
       </defs>
       <use xlink:href="#CMR17-30" transform="scale(0.996264)"/>
       <use xlink:href="#CMMI12-3a" transform="translate(45.690477 0) scale(0.996264)"/>
       <use xlink:href="#CMR17-30" transform="translate(72.787654 0) scale(0.996264)"/>
      </g>
     </g>
    </g>
    <g id="xtick_2">
     <g id="line2d_3">
      <path d="M 297.065797 617.04 
L 297.065797 7.2 
" clip-path="url(#pf6dc051448)" style="fill: none; stroke: #b0b0b0; stroke-width: 0.8; stroke-linecap: square"/>
     </g>
     <g id="line2d_4">
      <g>
       <use xlink:href="#m99394256c5" x="297.065797" y="617.04" style="stroke: #000000; stroke-width: 0.8"/>
      </g>
     </g>
     <g id="text_2">
      <!-- $\mathdefault{0.1}$ -->
      <g transform="translate(279.294078 644.795495) scale(0.3 -0.3)">
       <defs>
        <path id="CMR17-31" d="M 1702 4058 
C 1702 4192 1696 4192 1606 4192 
C 1357 3916 979 3827 621 3827 
C 602 3827 570 3827 563 3808 
C 557 3795 557 3782 557 3648 
C 755 3648 1088 3686 1344 3839 
L 1344 461 
C 1344 236 1331 160 781 160 
L 589 160 
L 589 0 
C 896 0 1216 0 1523 0 
C 1830 0 2150 0 2458 0 
L 2458 160 
L 2266 160 
C 1715 160 1702 230 1702 458 
L 1702 4058 
z
" transform="scale(0.015625)"/>
       </defs>
       <use xlink:href="#CMR17-30" transform="scale(0.996264)"/>
       <use xlink:href="#CMMI12-3a" transform="translate(45.690477 0) scale(0.996264)"/>
       <use xlink:href="#CMR17-31" transform="translate(72.787654 0) scale(0.996264)"/>
      </g>
     </g>
    </g>
    <g id="xtick_3">
     <g id="line2d_5">
      <path d="M 431.399131 617.04 
L 431.399131 7.2 
" clip-path="url(#pf6dc051448)" style="fill: none; stroke: #b0b0b0; stroke-width: 0.8; stroke-linecap: square"/>
     </g>
     <g id="line2d_6">
      <g>
       <use xlink:href="#m99394256c5" x="431.399131" y="617.04" style="stroke: #000000; stroke-width: 0.8"/>
      </g>
     </g>
     <g id="text_3">
      <!-- $\mathdefault{0.2}$ -->
      <g transform="translate(413.627411 644.795495) scale(0.3 -0.3)">
       <defs>
        <path id="CMR17-32" d="M 2669 989 
L 2554 989 
C 2490 536 2438 459 2413 420 
C 2381 369 1920 369 1830 369 
L 602 369 
C 832 619 1280 1072 1824 1597 
C 2214 1967 2669 2402 2669 3035 
C 2669 3790 2067 4224 1395 4224 
C 691 4224 262 3604 262 3030 
C 262 2780 448 2748 525 2748 
C 589 2748 781 2787 781 3010 
C 781 3207 614 3264 525 3264 
C 486 3264 448 3258 422 3245 
C 544 3790 915 4058 1306 4058 
C 1862 4058 2227 3617 2227 3035 
C 2227 2479 1901 2000 1536 1584 
L 262 146 
L 262 0 
L 2515 0 
L 2669 989 
z
" transform="scale(0.015625)"/>
       </defs>
       <use xlink:href="#CMR17-30" transform="scale(0.996264)"/>
       <use xlink:href="#CMMI12-3a" transform="translate(45.690477 0) scale(0.996264)"/>
       <use xlink:href="#CMR17-32" transform="translate(72.787654 0) scale(0.996264)"/>
      </g>
     </g>
    </g>
    <g id="xtick_4">
     <g id="line2d_7">
      <path d="M 565.732464 617.04 
L 565.732464 7.2 
" clip-path="url(#pf6dc051448)" style="fill: none; stroke: #b0b0b0; stroke-width: 0.8; stroke-linecap: square"/>
     </g>
     <g id="line2d_8">
      <g>
       <use xlink:href="#m99394256c5" x="565.732464" y="617.04" style="stroke: #000000; stroke-width: 0.8"/>
      </g>
     </g>
     <g id="text_4">
      <!-- $\mathdefault{0.3}$ -->
      <g transform="translate(547.960744 644.795495) scale(0.3 -0.3)">
       <defs>
        <path id="CMR17-33" d="M 1414 2157 
C 1984 2157 2234 1662 2234 1090 
C 2234 320 1824 25 1453 25 
C 1114 25 563 194 390 693 
C 422 680 454 680 486 680 
C 640 680 755 782 755 948 
C 755 1133 614 1216 486 1216 
C 378 1216 211 1165 211 926 
C 211 335 787 -128 1466 -128 
C 2176 -128 2720 430 2720 1085 
C 2720 1707 2208 2157 1600 2227 
C 2086 2328 2554 2756 2554 3329 
C 2554 3820 2048 4179 1472 4179 
C 890 4179 378 3829 378 3329 
C 378 3110 544 3072 627 3072 
C 762 3072 877 3155 877 3321 
C 877 3486 762 3569 627 3569 
C 602 3569 570 3569 544 3557 
C 730 3959 1235 4032 1459 4032 
C 1683 4032 2106 3925 2106 3320 
C 2106 3143 2080 2828 1862 2550 
C 1670 2304 1453 2304 1242 2284 
C 1210 2284 1062 2269 1037 2269 
C 992 2263 966 2257 966 2208 
C 966 2163 973 2157 1101 2157 
L 1414 2157 
z
" transform="scale(0.015625)"/>
       </defs>
       <use xlink:href="#CMR17-30" transform="scale(0.996264)"/>
       <use xlink:href="#CMMI12-3a" transform="translate(45.690477 0) scale(0.996264)"/>
       <use xlink:href="#CMR17-33" transform="translate(72.787654 0) scale(0.996264)"/>
      </g>
     </g>
    </g>
    <g id="xtick_5">
     <g id="line2d_9">
      <path d="M 700.065797 617.04 
L 700.065797 7.2 
" clip-path="url(#pf6dc051448)" style="fill: none; stroke: #b0b0b0; stroke-width: 0.8; stroke-linecap: square"/>
     </g>
     <g id="line2d_10">
      <g>
       <use xlink:href="#m99394256c5" x="700.065797" y="617.04" style="stroke: #000000; stroke-width: 0.8"/>
      </g>
     </g>
     <g id="text_5">
      <!-- $\mathdefault{0.4}$ -->
      <g transform="translate(682.294078 644.795495) scale(0.3 -0.3)">
       <defs>
        <path id="CMR17-34" d="M 2150 4122 
C 2150 4256 2144 4256 2029 4256 
L 128 1254 
L 128 1088 
L 1779 1088 
L 1779 457 
C 1779 224 1766 160 1318 160 
L 1197 160 
L 1197 0 
C 1402 0 1747 0 1965 0 
C 2182 0 2528 0 2733 0 
L 2733 160 
L 2611 160 
C 2163 160 2150 224 2150 457 
L 2150 1088 
L 2803 1088 
L 2803 1254 
L 2150 1254 
L 2150 4122 
z
M 1798 3703 
L 1798 1254 
L 256 1254 
L 1798 3703 
z
" transform="scale(0.015625)"/>
       </defs>
       <use xlink:href="#CMR17-30" transform="scale(0.996264)"/>
       <use xlink:href="#CMMI12-3a" transform="translate(45.690477 0) scale(0.996264)"/>
       <use xlink:href="#CMR17-34" transform="translate(72.787654 0) scale(0.996264)"/>
      </g>
     </g>
    </g>
    <g id="text_6">
     <!-- $x, \; \mathrm{m} $ -->
     <g transform="translate(409.179861 678.823697) scale(0.35 -0.35)">
      <defs>
       <path id="CMMI12-78" d="M 3034 2606 
C 2829 2567 2752 2414 2752 2293 
C 2752 2139 2874 2088 2963 2088 
C 3155 2088 3290 2254 3290 2427 
C 3290 2695 2982 2816 2714 2816 
C 2323 2816 2106 2433 2048 2312 
C 1901 2816 1504 2816 1389 2816 
C 736 2816 390 1980 390 1839 
C 390 1814 416 1782 461 1782 
C 512 1782 525 1820 538 1846 
C 755 2555 1184 2689 1370 2689 
C 1658 2689 1715 2420 1715 2267 
C 1715 2127 1677 1980 1600 1673 
L 1382 798 
C 1286 415 1101 64 762 64 
C 730 64 570 64 435 147 
C 666 192 717 383 717 460 
C 717 588 621 664 499 664 
C 346 664 179 530 179 326 
C 179 57 480 -64 755 -64 
C 1062 -64 1280 179 1414 441 
C 1517 64 1837 -64 2074 -64 
C 2726 -64 3072 773 3072 913 
C 3072 945 3046 971 3008 971 
C 2950 971 2944 939 2925 888 
C 2752 326 2381 64 2093 64 
C 1869 64 1747 230 1747 492 
C 1747 632 1773 734 1875 1156 
L 2099 2024 
C 2195 2408 2413 2689 2707 2689 
C 2720 2689 2899 2689 3034 2606 
z
" transform="scale(0.015625)"/>
       <path id="CMMI12-3b" d="M 1248 -31 
C 1248 343 1126 619 864 619 
C 659 619 557 453 557 313 
C 557 172 653 0 870 0 
C 954 0 1024 26 1082 83 
C 1094 96 1101 96 1107 96 
C 1120 96 1120 5 1120 -27 
C 1120 -240 1082 -659 710 -1080 
C 640 -1157 640 -1170 640 -1183 
C 640 -1216 672 -1248 704 -1248 
C 755 -1248 1248 -771 1248 -31 
z
" transform="scale(0.015625)"/>
       <path id="CMR17-6d" d="M 4326 1933 
C 4326 2252 4269 2790 3507 2790 
C 3072 2790 2771 2496 2656 2151 
L 2650 2151 
C 2573 2676 2195 2790 1837 2790 
C 1331 2790 1069 2400 973 2144 
L 966 2144 
L 966 2790 
L 211 2720 
L 211 2554 
C 589 2554 646 2515 646 2208 
L 646 428 
C 646 184 621 153 211 153 
L 211 -13 
C 365 0 646 0 813 0 
C 979 0 1267 0 1421 -13 
L 1421 153 
C 1011 153 986 178 986 428 
L 986 1658 
C 986 2247 1344 2688 1792 2688 
C 2266 2688 2317 2266 2317 1958 
L 2317 428 
C 2317 184 2291 153 1882 153 
L 1882 -13 
C 2035 0 2317 0 2483 0 
C 2650 0 2938 0 3091 -13 
L 3091 153 
C 2682 153 2656 178 2656 428 
L 2656 1658 
C 2656 2247 3014 2688 3462 2688 
C 3936 2688 3987 2266 3987 1958 
L 3987 428 
C 3987 184 3962 153 3552 153 
L 3552 -13 
C 3706 0 3987 0 4154 0 
C 4320 0 4608 0 4762 -13 
L 4762 153 
C 4352 153 4326 178 4326 428 
L 4326 1933 
z
" transform="scale(0.015625)"/>
      </defs>
      <use xlink:href="#CMMI12-78" transform="scale(0.996264)"/>
      <use xlink:href="#CMMI12-3b" transform="translate(55.43406 0) scale(0.996264)"/>
      <use xlink:href="#CMR17-6d" transform="translate(126.809651 0) scale(0.996264)"/>
     </g>
    </g>
   </g>
   <g id="matplotlib.axis_2">
    <g id="ytick_1">
     <g id="line2d_11">
      <path d="M 82.132464 583.16 
L 807.532464 583.16 
" clip-path="url(#pf6dc051448)" style="fill: none; stroke: #b0b0b0; stroke-width: 0.8; stroke-linecap: square"/>
     </g>
     <g id="line2d_12">
      <defs>
       <path id="m74bc270942" d="M 0 0 
L -3.5 0 
" style="stroke: #000000; stroke-width: 0.8"/>
      </defs>
      <g>
       <use xlink:href="#m74bc270942" x="82.132464" y="583.16" style="stroke: #000000; stroke-width: 0.8"/>
      </g>
     </g>
     <g id="text_7">
      <!-- $\mathdefault{0}$ -->
      <g transform="translate(61.425321 593.537748) scale(0.3 -0.3)">
       <use xlink:href="#CMR17-30" transform="scale(0.996264)"/>
      </g>
     </g>
    </g>
    <g id="ytick_2">
     <g id="line2d_13">
      <path d="M 82.132464 515.4 
L 807.532464 515.4 
" clip-path="url(#pf6dc051448)" style="fill: none; stroke: #b0b0b0; stroke-width: 0.8; stroke-linecap: square"/>
     </g>
     <g id="line2d_14">
      <g>
       <use xlink:href="#m74bc270942" x="82.132464" y="515.4" style="stroke: #000000; stroke-width: 0.8"/>
      </g>
     </g>
     <g id="text_8">
      <!-- $\mathdefault{1}$ -->
      <g transform="translate(61.425321 525.777748) scale(0.3 -0.3)">
       <use xlink:href="#CMR17-31" transform="scale(0.996264)"/>
      </g>
     </g>
    </g>
    <g id="ytick_3">
     <g id="line2d_15">
      <path d="M 82.132464 447.64 
L 807.532464 447.64 
" clip-path="url(#pf6dc051448)" style="fill: none; stroke: #b0b0b0; stroke-width: 0.8; stroke-linecap: square"/>
     </g>
     <g id="line2d_16">
      <g>
       <use xlink:href="#m74bc270942" x="82.132464" y="447.64" style="stroke: #000000; stroke-width: 0.8"/>
      </g>
     </g>
     <g id="text_9">
      <!-- $\mathdefault{2}$ -->
      <g transform="translate(61.425321 458.017748) scale(0.3 -0.3)">
       <use xlink:href="#CMR17-32" transform="scale(0.996264)"/>
      </g>
     </g>
    </g>
    <g id="ytick_4">
     <g id="line2d_17">
      <path d="M 82.132464 379.88 
L 807.532464 379.88 
" clip-path="url(#pf6dc051448)" style="fill: none; stroke: #b0b0b0; stroke-width: 0.8; stroke-linecap: square"/>
     </g>
     <g id="line2d_18">
      <g>
       <use xlink:href="#m74bc270942" x="82.132464" y="379.88" style="stroke: #000000; stroke-width: 0.8"/>
      </g>
     </g>
     <g id="text_10">
      <!-- $\mathdefault{3}$ -->
      <g transform="translate(61.425321 390.257748) scale(0.3 -0.3)">
       <use xlink:href="#CMR17-33" transform="scale(0.996264)"/>
      </g>
     </g>
    </g>
    <g id="ytick_5">
     <g id="line2d_19">
      <path d="M 82.132464 312.12 
L 807.532464 312.12 
" clip-path="url(#pf6dc051448)" style="fill: none; stroke: #b0b0b0; stroke-width: 0.8; stroke-linecap: square"/>
     </g>
     <g id="line2d_20">
      <g>
       <use xlink:href="#m74bc270942" x="82.132464" y="312.12" style="stroke: #000000; stroke-width: 0.8"/>
      </g>
     </g>
     <g id="text_11">
      <!-- $\mathdefault{4}$ -->
      <g transform="translate(61.425321 322.497748) scale(0.3 -0.3)">
       <use xlink:href="#CMR17-34" transform="scale(0.996264)"/>
      </g>
     </g>
    </g>
    <g id="ytick_6">
     <g id="line2d_21">
      <path d="M 82.132464 244.36 
L 807.532464 244.36 
" clip-path="url(#pf6dc051448)" style="fill: none; stroke: #b0b0b0; stroke-width: 0.8; stroke-linecap: square"/>
     </g>
     <g id="line2d_22">
      <g>
       <use xlink:href="#m74bc270942" x="82.132464" y="244.36" style="stroke: #000000; stroke-width: 0.8"/>
      </g>
     </g>
     <g id="text_12">
      <!-- $\mathdefault{5}$ -->
      <g transform="translate(61.425321 254.737748) scale(0.3 -0.3)">
       <defs>
        <path id="CMR17-35" d="M 730 3692 
C 794 3666 1056 3584 1325 3584 
C 1920 3584 2246 3911 2432 4100 
C 2432 4157 2432 4192 2394 4192 
C 2387 4192 2374 4192 2323 4163 
C 2099 4058 1837 3973 1517 3973 
C 1325 3973 1037 3999 723 4139 
C 653 4171 640 4171 634 4171 
C 602 4171 595 4164 595 4037 
L 595 2203 
C 595 2089 595 2057 659 2057 
C 691 2057 704 2070 736 2114 
C 941 2401 1222 2522 1542 2522 
C 1766 2522 2246 2382 2246 1289 
C 2246 1085 2246 715 2054 421 
C 1894 159 1645 25 1370 25 
C 947 25 518 320 403 814 
C 429 807 480 795 506 795 
C 589 795 749 840 749 1038 
C 749 1210 627 1280 506 1280 
C 358 1280 262 1190 262 1011 
C 262 454 704 -128 1382 -128 
C 2042 -128 2669 440 2669 1264 
C 2669 2030 2170 2624 1549 2624 
C 1222 2624 947 2503 730 2274 
L 730 3692 
z
" transform="scale(0.015625)"/>
       </defs>
       <use xlink:href="#CMR17-35" transform="scale(0.996264)"/>
      </g>
     </g>
    </g>
    <g id="ytick_7">
     <g id="line2d_23">
      <path d="M 82.132464 176.6 
L 807.532464 176.6 
" clip-path="url(#pf6dc051448)" style="fill: none; stroke: #b0b0b0; stroke-width: 0.8; stroke-linecap: square"/>
     </g>
     <g id="line2d_24">
      <g>
       <use xlink:href="#m74bc270942" x="82.132464" y="176.6" style="stroke: #000000; stroke-width: 0.8"/>
      </g>
     </g>
     <g id="text_13">
      <!-- $\mathdefault{6}$ -->
      <g transform="translate(61.425321 186.977748) scale(0.3 -0.3)">
       <defs>
        <path id="CMR17-36" d="M 678 2176 
C 678 3690 1395 4032 1811 4032 
C 1946 4032 2272 4009 2400 3776 
C 2298 3776 2106 3776 2106 3553 
C 2106 3381 2246 3323 2336 3323 
C 2394 3323 2566 3348 2566 3560 
C 2566 3954 2246 4179 1805 4179 
C 1043 4179 243 3390 243 1984 
C 243 253 966 -128 1478 -128 
C 2099 -128 2688 427 2688 1283 
C 2688 2081 2170 2662 1517 2662 
C 1126 2662 838 2407 678 1960 
L 678 2176 
z
M 1478 25 
C 691 25 691 1200 691 1436 
C 691 1896 909 2560 1504 2560 
C 1613 2560 1926 2560 2138 2120 
C 2253 1870 2253 1609 2253 1289 
C 2253 944 2253 690 2118 434 
C 1978 171 1773 25 1478 25 
z
" transform="scale(0.015625)"/>
       </defs>
       <use xlink:href="#CMR17-36" transform="scale(0.996264)"/>
      </g>
     </g>
    </g>
    <g id="ytick_8">
     <g id="line2d_25">
      <path d="M 82.132464 108.84 
L 807.532464 108.84 
" clip-path="url(#pf6dc051448)" style="fill: none; stroke: #b0b0b0; stroke-width: 0.8; stroke-linecap: square"/>
     </g>
     <g id="line2d_26">
      <g>
       <use xlink:href="#m74bc270942" x="82.132464" y="108.84" style="stroke: #000000; stroke-width: 0.8"/>
      </g>
     </g>
     <g id="text_14">
      <!-- $\mathdefault{7}$ -->
      <g transform="translate(61.425321 119.217748) scale(0.3 -0.3)">
       <defs>
        <path id="CMR17-37" d="M 2886 3941 
L 2886 4081 
L 1382 4081 
C 634 4081 621 4165 595 4288 
L 480 4288 
L 294 3094 
L 410 3094 
C 429 3215 474 3540 550 3661 
C 589 3712 1062 3712 1171 3712 
L 2579 3712 
L 1869 2661 
C 1395 1954 1069 999 1069 165 
C 1069 89 1069 -128 1299 -128 
C 1530 -128 1530 89 1530 171 
L 1530 465 
C 1530 1508 1709 2196 2003 2636 
L 2886 3941 
z
" transform="scale(0.015625)"/>
       </defs>
       <use xlink:href="#CMR17-37" transform="scale(0.996264)"/>
      </g>
     </g>
    </g>
    <g id="ytick_9">
     <g id="line2d_27">
      <path d="M 82.132464 41.08 
L 807.532464 41.08 
" clip-path="url(#pf6dc051448)" style="fill: none; stroke: #b0b0b0; stroke-width: 0.8; stroke-linecap: square"/>
     </g>
     <g id="line2d_28">
      <g>
       <use xlink:href="#m74bc270942" x="82.132464" y="41.08" style="stroke: #000000; stroke-width: 0.8"/>
      </g>
     </g>
     <g id="text_15">
      <!-- $\mathdefault{8}$ -->
      <g transform="translate(61.425321 51.457748) scale(0.3 -0.3)">
       <defs>
        <path id="CMR17-38" d="M 1741 2264 
C 2144 2467 2554 2773 2554 3263 
C 2554 3841 1990 4179 1472 4179 
C 890 4179 378 3759 378 3180 
C 378 3021 416 2747 666 2505 
C 730 2442 998 2251 1171 2130 
C 883 1983 211 1634 211 934 
C 211 279 838 -128 1459 -128 
C 2144 -128 2720 362 2720 1010 
C 2720 1590 2330 1857 2074 2029 
L 1741 2264 
z
M 902 2822 
C 851 2854 595 3051 595 3351 
C 595 3739 998 4032 1459 4032 
C 1965 4032 2336 3676 2336 3262 
C 2336 2669 1670 2331 1638 2331 
C 1632 2331 1626 2331 1574 2370 
L 902 2822 
z
M 2080 1519 
C 2176 1449 2483 1240 2483 851 
C 2483 381 2010 25 1472 25 
C 890 25 448 438 448 940 
C 448 1443 838 1862 1280 2060 
L 2080 1519 
z
" transform="scale(0.015625)"/>
       </defs>
       <use xlink:href="#CMR17-38" transform="scale(0.996264)"/>
      </g>
     </g>
    </g>
    <g id="text_16">
     <!-- $\frac{T_{tr}}{T_{tr,\infty}}$ -->
     <g transform="translate(38.349699 337.153071) rotate(-90) scale(0.35 -0.35)">
      <defs>
       <path id="CMMI12-54" d="M 2669 3910 
C 2707 4064 2720 4121 2816 4147 
C 2867 4160 3078 4160 3213 4160 
C 3853 4160 4154 4134 4154 3634 
C 4154 3537 4128 3295 4090 3057 
L 4083 2980 
C 4083 2954 4109 2916 4147 2916 
C 4211 2916 4211 2948 4230 3050 
L 4416 4184 
C 4429 4243 4429 4256 4429 4275 
C 4429 4345 4390 4345 4262 4345 
L 762 4345 
C 614 4345 608 4339 570 4224 
L 179 3070 
C 173 3056 154 2986 154 2980 
C 154 2948 179 2916 218 2916 
C 269 2916 282 2941 307 3024 
C 576 3801 710 4160 1562 4160 
L 1990 4160 
C 2144 4160 2208 4160 2208 4089 
C 2208 4069 2208 4057 2176 3941 
L 1318 499 
C 1254 249 1242 185 563 185 
C 403 185 358 185 358 64 
C 358 0 429 0 461 0 
C 621 0 787 0 947 0 
L 1946 0 
C 2106 0 2278 0 2438 0 
C 2509 0 2573 0 2573 121 
C 2573 185 2528 185 2362 185 
C 1786 185 1786 243 1786 339 
C 1786 346 1786 391 1811 494 
L 2669 3910 
z
" transform="scale(0.015625)"/>
       <path id="CMMI12-74" d="M 1286 2566 
L 1875 2566 
C 1997 2566 2061 2566 2061 2681 
C 2061 2752 2022 2752 1894 2752 
L 1331 2752 
L 1568 3692 
C 1594 3781 1594 3794 1594 3840 
C 1594 3943 1510 4000 1427 4000 
C 1376 4000 1229 3981 1178 3775 
L 928 2752 
L 326 2752 
C 198 2752 141 2752 141 2630 
C 141 2566 186 2566 307 2566 
L 877 2566 
L 454 881 
C 403 658 384 594 384 511 
C 384 211 595 -64 954 -64 
C 1600 -64 1946 868 1946 912 
C 1946 951 1920 970 1882 970 
C 1869 970 1843 970 1830 944 
C 1824 938 1818 931 1773 829 
C 1638 511 1344 64 973 64 
C 781 64 768 224 768 364 
C 768 370 768 492 787 568 
L 1286 2566 
z
" transform="scale(0.015625)"/>
       <path id="CMMI12-72" d="M 2490 2612 
C 2291 2574 2189 2433 2189 2293 
C 2189 2139 2310 2088 2400 2088 
C 2579 2088 2726 2242 2726 2433 
C 2726 2638 2528 2816 2208 2816 
C 1952 2816 1658 2701 1389 2312 
C 1344 2650 1088 2816 832 2816 
C 582 2816 454 2625 378 2484 
C 269 2254 173 1871 173 1839 
C 173 1814 198 1782 243 1782 
C 294 1782 301 1788 339 1935 
C 435 2318 557 2689 813 2689 
C 966 2689 1011 2580 1011 2395 
C 1011 2254 947 2005 902 1807 
L 723 1118 
C 698 996 627 709 595 594 
C 550 428 480 128 480 96 
C 480 6 550 -64 646 -64 
C 717 -64 838 -19 877 109 
C 896 160 1133 1124 1171 1271 
C 1203 1411 1242 1546 1274 1686 
C 1299 1775 1325 1878 1344 1961 
C 1363 2018 1536 2331 1696 2472 
C 1773 2542 1939 2689 2202 2689 
C 2304 2689 2406 2670 2490 2612 
z
" transform="scale(0.015625)"/>
       <path id="CMSY10-31" d="M 3251 1730 
C 2906 2166 2829 2262 2630 2422 
C 2272 2710 1914 2825 1587 2825 
C 838 2825 352 2122 352 1374 
C 352 639 826 -70 1562 -70 
C 2298 -70 2829 511 3142 1022 
C 3488 588 3565 492 3763 332 
C 4122 45 4480 -70 4806 -70 
C 5555 -70 6042 633 6042 1380 
C 6042 2115 5568 2825 4832 2825 
C 4096 2825 3565 2242 3251 1730 
z
M 3418 1514 
C 3680 1975 4154 2620 4877 2620 
C 5555 2620 5901 1955 5901 1380 
C 5901 753 5472 236 4909 236 
C 4538 236 4250 505 4115 638 
C 3955 811 3808 1009 3418 1514 
z
M 2976 1240 
C 2714 780 2240 134 1517 134 
C 838 134 493 799 493 1374 
C 493 2000 922 2518 1485 2518 
C 1856 2518 2144 2249 2278 2115 
C 2438 1943 2586 1744 2976 1240 
z
" transform="scale(0.015625)"/>
      </defs>
      <use xlink:href="#CMMI12-54" transform="translate(30.326112 41.344728) scale(0.697382)"/>
      <use xlink:href="#CMMI12-74" transform="translate(70.348467 30.884032) scale(0.498132)"/>
      <use xlink:href="#CMMI12-72" transform="translate(87.961633 30.884032) scale(0.498132)"/>
      <use xlink:href="#CMMI12-54" transform="translate(0 -34.355253) scale(0.697382)"/>
      <use xlink:href="#CMMI12-74" transform="translate(40.022356 -44.815949) scale(0.498132)"/>
      <use xlink:href="#CMMI12-72" transform="translate(57.635521 -44.815949) scale(0.498132)"/>
      <use xlink:href="#CMMI12-3b" transform="translate(78.261102 -44.815949) scale(0.498132)"/>
      <use xlink:href="#CMSY10-31" transform="translate(91.80969 -44.815949) scale(0.498132)"/>
      <path d="M 0 22.914133 
L 142.121159 22.914133 
L 142.121159 26.899083 
L 0 26.899083 
L 0 22.914133 
z
"/>
     </g>
    </g>
   </g>
   <g id="line2d_29">
    <path d="M 95.565797 518.500063 
L 159.216804 518.486041 
L 160.395535 517.495507 
L 161.564 509.751753 
L 162.732464 479.974077 
L 165.127596 439.070567 
L 167.522727 407.154202 
L 168.720293 404.979209 
L 169.917859 404.949835 
L 171.115425 406.218693 
L 172.312991 404.829004 
L 173.510557 406.316529 
L 174.708122 406.768612 
L 175.905688 406.637708 
L 178.30082 406.666354 
L 179.498386 406.369178 
L 180.695952 406.284287 
L 181.893518 406.065991 
L 184.288649 405.80783 
L 187.881347 405.530609 
L 192.67161 405.325884 
L 197.461874 405.062122 
L 202.252137 404.833426 
L 205.875006 404.803667 
L 220.911216 404.838028 
L 242.48595 405.082435 
L 266.335378 405.585472 
L 289.33984 405.819473 
L 346.500604 406.758655 
L 366.367211 407.037498 
L 419.991694 407.777726 
L 421.122728 409.051548 
L 422.253763 260.931002 
L 423.078558 47.695473 
L 423.903353 84.146114 
L 426.377739 139.83785 
L 427.202535 155.966166 
L 428.02733 168.261882 
L 429.676921 185.603101 
L 430.501716 192.231331 
L 432.151307 203.066606 
L 432.976102 208.11515 
L 434.625693 216.507837 
L 436.275284 223.461375 
L 438.74967 231.545842 
L 440.39926 236.248027 
L 442.873646 242.083846 
L 444.523237 245.194198 
L 447.822419 250.477486 
L 450.296805 253.851046 
L 456.070372 261.260546 
L 457.719963 263.893484 
L 459.378 267.222823 
L 464.614883 279.00766 
L 465.940755 282.517764 
L 468.944963 291.704542 
L 470.646363 297.272799 
L 472.496259 302.823804 
L 474.508285 307.936144 
L 476.69738 312.463186 
L 479.080106 316.413427 
L 481.67353 320.041456 
L 484.493491 323.01344 
L 487.562434 323.848686 
L 490.897329 323.778856 
L 494.52115 322.544423 
L 498.452828 320.327592 
L 502.711679 317.388256 
L 507.315144 314.805179 
L 512.274543 312.664109 
L 517.592496 310.945527 
L 523.252043 309.26979 
L 529.166039 307.369459 
L 535.104565 305.3269 
L 541.043092 303.49857 
L 552.920145 300.191493 
L 558.858672 298.033227 
L 564.797198 296.071581 
L 570.735725 294.908366 
L 582.612778 293.661205 
L 588.551305 292.587795 
L 594.489831 291.387817 
L 606.366884 288.563043 
L 612.305411 345.541733 
L 620.701244 465.086817 
L 629.097078 475.272669 
L 637.492911 474.942436 
L 645.888744 475.908449 
L 654.284578 475.244781 
L 662.680411 474.393045 
L 721.451244 471.603768 
L 729.847078 471.136839 
L 797.013744 468.653537 
L 813.805411 468.388962 
L 813.805411 468.388962 
" clip-path="url(#pf6dc051448)" style="fill: none; stroke: #ff0000; stroke-width: 3; stroke-linecap: square"/>
   </g>
   <g id="patch_3">
    <path d="M 82.132464 617.04 
L 82.132464 7.2 
" style="fill: none; stroke: #000000; stroke-width: 0.8; stroke-linejoin: miter; stroke-linecap: square"/>
   </g>
   <g id="patch_4">
    <path d="M 807.532464 617.04 
L 807.532464 7.2 
" style="fill: none; stroke: #000000; stroke-width: 0.8; stroke-linejoin: miter; stroke-linecap: square"/>
   </g>
   <g id="patch_5">
    <path d="M 82.132464 617.04 
L 807.532464 617.04 
" style="fill: none; stroke: #000000; stroke-width: 0.8; stroke-linejoin: miter; stroke-linecap: square"/>
   </g>
   <g id="patch_6">
    <path d="M 82.132464 7.2 
L 807.532464 7.2 
" style="fill: none; stroke: #000000; stroke-width: 0.8; stroke-linejoin: miter; stroke-linecap: square"/>
   </g>
   <g id="legend_1">
    <g id="patch_7">
     <path d="M 588.466537 132.764702 
L 783.032464 132.764702 
Q 790.032464 132.764702 790.032464 125.764702 
L 790.032464 31.7 
Q 790.032464 24.7 783.032464 24.7 
L 588.466537 24.7 
Q 581.466537 24.7 581.466537 31.7 
L 581.466537 125.764702 
Q 581.466537 132.764702 588.466537 132.764702 
z
" style="fill: #ffffff; stroke: #cccccc; stroke-linejoin: miter"/>
    </g>
    <g id="patch_8">
     <path d="M 595.466537 63.2 
L 665.466537 63.2 
L 665.466537 38.7 
L 595.466537 38.7 
z
" style="fill: #99ccff; fill-opacity: 0.7"/>
    </g>
    <g id="text_17">
     <!-- $\mu \pm \sigma$ -->
     <g transform="translate(693.466537 63.2) scale(0.35 -0.35)">
      <defs>
       <path id="CMMI12-16" d="M 922 140 
C 1082 -6 1318 -64 1536 -64 
C 1946 -64 2227 208 2374 405 
C 2438 69 2707 -64 2931 -64 
C 3123 -64 3277 50 3392 277 
C 3494 493 3584 879 3584 903 
C 3584 935 3558 960 3520 960 
C 3462 960 3456 928 3430 834 
C 3334 461 3213 64 2950 64 
C 2765 64 2752 229 2752 358 
C 2752 504 2810 735 2854 926 
L 3034 1615 
C 3059 1737 3130 2023 3162 2139 
C 3200 2292 3270 2567 3270 2592 
C 3270 2688 3194 2752 3098 2752 
C 3040 2752 2906 2726 2854 2535 
L 2406 760 
C 2374 632 2374 619 2291 517 
C 2214 409 1965 64 1562 64 
C 1203 64 1088 326 1088 625 
C 1088 811 1146 1034 1171 1143 
L 1459 2293 
C 1491 2414 1542 2618 1542 2657 
C 1542 2759 1459 2816 1376 2816 
C 1318 2816 1178 2797 1126 2592 
L 198 -1107 
C 192 -1139 179 -1177 179 -1216 
C 179 -1312 256 -1376 352 -1376 
C 538 -1376 576 -1228 621 -1050 
L 922 140 
z
" transform="scale(0.015625)"/>
       <path id="CMSY10-6" d="M 2618 1984 
L 4397 1984 
C 4506 1984 4621 1984 4621 2112 
C 4621 2240 4506 2240 4397 2240 
L 2618 2240 
L 2618 4018 
C 2618 4121 2618 4256 2490 4256 
C 2362 4256 2362 4140 2362 4038 
L 2362 2240 
L 576 2240 
C 467 2240 352 2240 352 2112 
C 352 1984 467 1984 576 1984 
L 2362 1984 
L 2362 256 
L 576 256 
C 467 256 352 256 352 128 
C 352 0 467 0 576 0 
L 4397 0 
C 4506 0 4621 0 4621 128 
C 4621 256 4506 256 4397 256 
L 2618 256 
L 2618 1984 
z
" transform="scale(0.015625)"/>
       <path id="CMMI12-1b" d="M 3251 2408 
C 3334 2408 3546 2408 3546 2612 
C 3546 2752 3424 2752 3309 2752 
L 1894 2752 
C 934 2752 243 1686 243 932 
C 243 390 595 -64 1171 -64 
C 1926 -64 2752 747 2752 1705 
C 2752 1954 2694 2196 2541 2408 
L 3251 2408 
z
M 1178 64 
C 851 64 614 313 614 754 
C 614 1137 845 2408 1786 2408 
C 2061 2408 2368 2274 2368 1781 
C 2368 1558 2266 1021 2042 652 
C 1811 275 1466 64 1178 64 
z
" transform="scale(0.015625)"/>
      </defs>
      <use xlink:href="#CMMI12-16" transform="scale(0.996264)"/>
      <use xlink:href="#CMSY10-6" transform="translate(80.830628 0) scale(0.996264)"/>
      <use xlink:href="#CMMI12-1b" transform="translate(180.457303 0) scale(0.996264)"/>
     </g>
    </g>
    <g id="line2d_30">
     <path d="M 595.466537 99.732351 
L 630.466537 99.732351 
L 665.466537 99.732351 
" style="fill: none; stroke: #ff0000; stroke-width: 3; stroke-linecap: square"/>
    </g>
    <g id="text_18">
     <!-- $\mu$ -->
     <g transform="translate(693.466537 111.982351) scale(0.35 -0.35)">
      <use xlink:href="#CMMI12-16" transform="scale(0.996264)"/>
     </g>
    </g>
   </g>
  </g>
 </g>
 <defs>
  <clipPath id="pf6dc051448">
   <rect x="82.132464" y="7.2" width="725.4" height="609.84"/>
  </clipPath>
 </defs>
</svg>
