<?xml version="1.0" encoding="utf-8" standalone="no"?>
<!DOCTYPE svg PUBLIC "-//W3C//DTD SVG 1.1//EN"
  "http://www.w3.org/Graphics/SVG/1.1/DTD/svg11.dtd">
<svg xmlns:xlink="http://www.w3.org/1999/xlink" width="813.957599pt" height="692.806049pt" viewBox="0 0 813.957599 692.806049" xmlns="http://www.w3.org/2000/svg" version="1.1">
 <metadata>
  <rdf:RDF xmlns:dc="http://purl.org/dc/elements/1.1/" xmlns:cc="http://creativecommons.org/ns#" xmlns:rdf="http://www.w3.org/1999/02/22-rdf-syntax-ns#">
   <cc:Work>
    <dc:type rdf:resource="http://purl.org/dc/dcmitype/StillImage"/>
    <dc:date>2025-03-03T10:02:31.472228</dc:date>
    <dc:format>image/svg+xml</dc:format>
    <dc:creator>
     <cc:Agent>
      <dc:title>Matplotlib v3.5.3, https://matplotlib.org/</dc:title>
     </cc:Agent>
    </dc:creator>
   </cc:Work>
  </rdf:RDF>
 </metadata>
 <defs>
  <style type="text/css">*{stroke-linejoin: round; stroke-linecap: butt}</style>
 </defs>
 <g id="figure_1">
  <g id="patch_1">
   <path d="M 0 692.806049 
L 813.957599 692.806049 
L 813.957599 0 
L 0 0 
z
" style="fill: #ffffff"/>
  </g>
  <g id="axes_1">
   <g id="patch_2">
    <path d="M 81.357599 617.04 
L 806.757599 617.04 
L 806.757599 7.2 
L 81.357599 7.2 
z
" style="fill: #ffffff"/>
   </g>
   <g id="PolyCollection_1">
    <path d="M 94.790932 522.395244 
L 94.790932 514.604882 
L 113.048095 514.604882 
L 126.375943 514.604882 
L 136.105515 514.604882 
L 143.208499 514.604882 
L 148.394251 514.604882 
L 152.180642 514.604882 
L 154.945762 514.604882 
L 156.965671 514.604882 
L 158.441939 514.590645 
L 159.62067 513.009332 
L 160.789134 504.086268 
L 161.957599 468.781294 
L 163.155165 445.959642 
L 164.35273 424.790386 
L 165.550296 407.732061 
L 166.747862 391.486586 
L 167.945428 387.168524 
L 169.142994 388.806436 
L 170.34056 393.744743 
L 171.538125 391.4122 
L 172.735691 393.012134 
L 173.933257 393.106609 
L 175.130823 392.607643 
L 176.328389 392.307488 
L 177.525955 391.912529 
L 178.723521 391.394629 
L 179.921086 391.007907 
L 181.118652 390.517939 
L 182.316218 390.0902 
L 183.513784 389.549002 
L 184.71135 389.139751 
L 185.908916 388.868927 
L 187.106482 388.79048 
L 188.304047 388.633262 
L 189.501613 388.625672 
L 190.699179 388.643244 
L 191.896745 388.511645 
L 193.094311 388.335611 
L 194.291877 388.286524 
L 195.489442 388.301362 
L 196.687008 388.45004 
L 197.884574 388.379504 
L 199.08214 388.306422 
L 200.279706 388.230952 
L 201.477272 388.235688 
L 202.674838 388.366954 
L 203.872405 388.512769 
L 205.100141 388.561151 
L 206.371743 388.605573 
L 207.689103 388.651103 
L 209.054743 388.731896 
L 210.471245 388.81608 
L 211.940094 388.88469 
L 213.463058 388.953432 
L 215.0422 388.994505 
L 216.679784 389.034208 
L 218.377244 389.080739 
L 220.13635 389.128291 
L 221.95958 389.185642 
L 223.850263 389.249754 
L 225.812158 389.351165 
L 227.844376 389.417668 
L 229.951489 389.458491 
L 232.137335 389.490529 
L 234.402042 389.53614 
L 236.751436 389.600322 
L 239.18682 389.677492 
L 241.711085 389.785711 
L 244.329305 389.885284 
L 247.043792 389.979341 
L 249.857934 390.060449 
L 252.775593 390.163551 
L 255.800715 390.271642 
L 258.937209 390.372588 
L 262.189043 390.45652 
L 265.560513 390.533836 
L 269.056645 390.571956 
L 272.681333 390.62204 
L 276.439321 390.690081 
L 280.335925 390.747191 
L 284.376198 390.845899 
L 288.564974 390.91667 
L 292.908016 391.022249 
L 297.411179 391.143072 
L 302.080339 391.297683 
L 306.921395 391.432374 
L 311.915217 391.560802 
L 317.053039 391.676041 
L 322.379997 391.806058 
L 327.903554 391.943398 
L 333.630578 392.086617 
L 339.568697 392.219101 
L 345.725739 392.353751 
L 352.109671 392.472061 
L 358.728945 392.663901 
L 365.592346 392.835193 
L 372.708753 392.99105 
L 380.087453 393.14593 
L 387.738177 393.304547 
L 395.291035 393.422653 
L 400.927955 393.513896 
L 404.942211 393.561346 
L 407.801406 393.599227 
L 409.838342 393.613131 
L 411.289855 393.629335 
L 412.430622 393.652071 
L 413.561656 393.665745 
L 414.692691 393.693977 
L 415.823725 393.710429 
L 416.95476 393.729894 
L 418.085794 393.745847 
L 419.216828 393.762024 
L 420.347863 392.912488 
L 421.478897 215.481791 
L 422.303693 -31.862107 
L 423.128488 49.56163 
L 423.953283 70.360472 
L 424.778079 90.714352 
L 425.602874 112.292722 
L 426.427669 130.883782 
L 427.252465 144.995974 
L 428.07726 155.767821 
L 428.902056 165.188448 
L 429.726851 172.833024 
L 430.551646 179.302083 
L 431.376442 185.177204 
L 432.201237 190.88963 
L 433.026032 195.923605 
L 433.850828 200.523178 
L 434.675623 204.536936 
L 435.500418 208.324158 
L 436.325214 211.425472 
L 437.150009 214.447272 
L 437.974804 217.259471 
L 438.7996 219.848949 
L 439.624395 222.306012 
L 440.449191 224.386606 
L 441.273986 226.441953 
L 442.098781 228.476414 
L 442.923577 230.182279 
L 443.748372 231.709139 
L 444.573167 233.109202 
L 445.397963 234.475759 
L 446.222758 235.825026 
L 447.047553 237.102812 
L 447.872349 238.312686 
L 448.697144 239.47509 
L 449.521939 240.601897 
L 450.346735 241.69451 
L 451.17153 242.761385 
L 451.996326 243.80397 
L 452.821121 244.86308 
L 453.645916 245.898104 
L 454.470712 247.002894 
L 455.295507 248.174472 
L 456.120302 249.51954 
L 456.945098 250.888111 
L 457.769893 252.484265 
L 458.603135 254.216389 
L 459.488099 256.184238 
L 460.450736 258.355016 
L 461.488677 260.722486 
L 462.616192 263.382253 
L 463.840018 266.291982 
L 465.16589 270.182732 
L 466.605 274.602406 
L 468.170098 279.446094 
L 469.871497 284.973751 
L 471.721394 290.375434 
L 473.73342 295.455593 
L 475.922514 299.954523 
L 478.305241 303.861072 
L 480.898664 307.275447 
L 483.718626 310.06589 
L 486.787568 310.789629 
L 490.122464 310.471375 
L 493.746284 308.846089 
L 497.677963 306.273052 
L 501.936814 302.818197 
L 506.540279 299.733546 
L 511.499678 297.073312 
L 516.81763 294.753819 
L 522.477178 292.452529 
L 528.391174 289.990798 
L 534.3297 287.481957 
L 540.268227 285.287308 
L 546.206753 283.440711 
L 552.14528 281.54472 
L 558.083807 279.165863 
L 564.022333 276.987374 
L 569.96086 275.619131 
L 575.899386 274.787076 
L 581.837913 273.965153 
L 587.776439 272.768456 
L 593.714966 271.504699 
L 599.653492 270.082214 
L 605.592019 269.939977 
L 611.530546 329.49503 
L 619.926379 450.253914 
L 628.322212 465.74253 
L 636.718046 466.576152 
L 645.113879 466.946019 
L 653.509712 466.267165 
L 661.905546 465.317922 
L 670.301379 464.659683 
L 678.697212 463.922818 
L 687.093046 463.324325 
L 695.488879 462.491945 
L 703.884712 461.916033 
L 712.280546 461.619802 
L 720.676379 461.367403 
L 729.072212 460.999028 
L 737.468046 460.675358 
L 745.863879 460.297289 
L 754.259712 459.880382 
L 762.655546 459.396618 
L 771.051379 459.006109 
L 779.447212 458.690469 
L 787.843046 458.494501 
L 796.238879 458.254639 
L 804.634712 458.033609 
L 813.030546 457.885301 
L 813.030546 478.892622 
L 813.030546 478.892622 
L 804.634712 478.920313 
L 796.238879 479.052435 
L 787.843046 479.359534 
L 779.447212 479.683228 
L 771.051379 479.932495 
L 762.655546 480.191741 
L 754.259712 480.401895 
L 745.863879 480.700495 
L 737.468046 480.973558 
L 729.072212 481.274649 
L 720.676379 481.840133 
L 712.280546 482.436158 
L 703.884712 482.893488 
L 695.488879 483.219836 
L 687.093046 483.355136 
L 678.697212 483.420073 
L 670.301379 483.350302 
L 661.905546 483.468168 
L 653.509712 484.222398 
L 645.113879 484.870878 
L 636.718046 483.308721 
L 628.322212 484.802808 
L 619.926379 479.91972 
L 611.530546 361.588436 
L 605.592019 307.186108 
L 599.653492 309.863788 
L 593.714966 311.270934 
L 587.776439 312.407134 
L 581.837913 313.357258 
L 575.899386 313.752374 
L 569.96086 314.197602 
L 564.022333 315.155788 
L 558.083807 316.900592 
L 552.14528 318.838265 
L 546.206753 320.355763 
L 540.268227 321.709832 
L 534.3297 323.171844 
L 528.391174 324.74812 
L 522.477178 326.087052 
L 516.81763 327.137236 
L 511.499678 328.254906 
L 506.540279 329.876811 
L 501.936814 331.958315 
L 497.677963 334.382132 
L 493.746284 336.242756 
L 490.122464 337.086337 
L 486.787568 336.907743 
L 483.718626 335.96099 
L 480.898664 332.807465 
L 478.305241 328.965781 
L 475.922514 324.971849 
L 473.73342 320.416695 
L 471.721394 315.272174 
L 469.871497 309.571847 
L 468.170098 303.96299 
L 466.605 299.096516 
L 465.16589 294.852796 
L 463.840018 291.723338 
L 462.616192 289.229238 
L 461.488677 286.597287 
L 460.450736 284.308939 
L 459.488099 282.188457 
L 458.603135 280.229256 
L 457.769893 278.540166 
L 456.945098 276.898858 
L 456.120302 275.615518 
L 455.295507 274.34662 
L 454.470712 273.221325 
L 453.645916 272.169282 
L 452.821121 271.19595 
L 451.996326 270.174188 
L 451.17153 269.152327 
L 450.346735 268.130769 
L 449.521939 267.100196 
L 448.697144 266.070039 
L 447.872349 264.979354 
L 447.047553 263.85216 
L 446.222758 262.606021 
L 445.397963 261.283657 
L 444.573167 259.979832 
L 443.748372 258.679256 
L 442.923577 257.24703 
L 442.098781 255.691279 
L 441.273986 253.846217 
L 440.449191 252.02663 
L 439.624395 250.190042 
L 438.7996 248.05223 
L 437.974804 245.832213 
L 437.150009 243.515138 
L 436.325214 241.041622 
L 435.500418 238.598593 
L 434.675623 235.603251 
L 433.850828 232.492495 
L 433.026032 228.997097 
L 432.201237 225.340669 
L 431.376442 220.956008 
L 430.551646 216.522501 
L 429.726851 211.629638 
L 428.902056 206.017754 
L 428.07726 199.224865 
L 427.252465 191.52779 
L 426.427669 181.04855 
L 425.602874 167.382979 
L 424.778079 150.60788 
L 423.953283 135.651897 
L 423.128488 118.730598 
L 422.303693 127.253054 
L 421.478897 306.380212 
L 420.347863 425.190608 
L 419.216828 421.793429 
L 418.085794 421.788246 
L 416.95476 421.784143 
L 415.823725 421.773797 
L 414.692691 421.764907 
L 413.561656 421.743747 
L 412.430622 421.736234 
L 411.289855 421.718884 
L 409.838342 421.702325 
L 407.801406 421.667943 
L 404.942211 421.620246 
L 400.927955 421.549276 
L 395.291035 421.473364 
L 387.738177 421.391727 
L 380.087453 421.319278 
L 372.708753 421.270702 
L 365.592346 421.239802 
L 358.728945 421.222762 
L 352.109671 421.165901 
L 345.725739 421.16356 
L 339.568697 421.130814 
L 333.630578 421.115407 
L 327.903554 421.114018 
L 322.379997 421.073654 
L 317.053039 421.025694 
L 311.915217 420.953759 
L 306.921395 420.908752 
L 302.080339 420.870468 
L 297.411179 420.834162 
L 292.908016 420.773306 
L 288.564974 420.722277 
L 284.376198 420.673893 
L 280.335925 420.629076 
L 276.439321 420.637227 
L 272.681333 420.634206 
L 269.056645 420.640587 
L 265.560513 420.637109 
L 262.189043 420.604785 
L 258.937209 420.577735 
L 255.800715 420.547946 
L 252.775593 420.513446 
L 249.857934 420.483989 
L 247.043792 420.437412 
L 244.329305 420.403834 
L 241.711085 420.379158 
L 239.18682 420.377658 
L 236.751436 420.352396 
L 234.402042 420.351712 
L 232.137335 420.330742 
L 229.951489 420.334017 
L 227.844376 420.358075 
L 225.812158 420.415586 
L 223.850263 420.480035 
L 221.95958 420.515926 
L 220.13635 420.547765 
L 218.377244 420.589319 
L 216.679784 420.63734 
L 215.0422 420.672387 
L 213.463058 420.714771 
L 211.940094 420.762652 
L 210.471245 420.829737 
L 209.054743 420.884455 
L 207.689103 420.96026 
L 206.371743 421.025846 
L 205.100141 421.046183 
L 203.872405 421.11858 
L 202.674838 421.229058 
L 201.477272 421.431164 
L 200.279706 421.534462 
L 199.08214 421.550189 
L 197.884574 421.578288 
L 196.687008 421.674204 
L 195.489442 421.891515 
L 194.291877 422.092251 
L 193.094311 422.236176 
L 191.896745 422.140123 
L 190.699179 422.140474 
L 189.501613 422.21453 
L 188.304047 422.271367 
L 187.106482 422.270738 
L 185.908916 422.223471 
L 184.71135 422.237794 
L 183.513784 422.066658 
L 182.316218 421.890043 
L 181.118652 421.614043 
L 179.921086 421.560666 
L 178.723521 421.343728 
L 177.525955 421.420179 
L 176.328389 420.978612 
L 175.130823 420.667772 
L 173.933257 420.430615 
L 172.735691 419.620923 
L 171.538125 418.245808 
L 170.34056 418.692644 
L 169.142994 421.093235 
L 167.945428 422.789894 
L 166.747862 422.821819 
L 165.550296 438.431207 
L 164.35273 453.350748 
L 163.155165 473.00596 
L 161.957599 491.166859 
L 160.789134 515.417238 
L 159.62067 521.981683 
L 158.441939 522.381437 
L 156.965671 522.395244 
L 154.945762 522.395244 
L 152.180642 522.395244 
L 148.394251 522.395244 
L 143.208499 522.395244 
L 136.105515 522.395244 
L 126.375943 522.395244 
L 113.048095 522.395244 
L 94.790932 522.395244 
z
" clip-path="url(#p9baea14411)" style="fill: #99ccff; fill-opacity: 0.7"/>
   </g>
   <g id="matplotlib.axis_1">
    <g id="xtick_1">
     <g id="line2d_1">
      <path d="M 161.957599 617.04 
L 161.957599 7.2 
" clip-path="url(#p9baea14411)" style="fill: none; stroke: #b0b0b0; stroke-width: 0.8; stroke-linecap: square"/>
     </g>
     <g id="line2d_2">
      <defs>
       <path id="m89a757d7e1" d="M 0 0 
L 0 3.5 
" style="stroke: #000000; stroke-width: 0.8"/>
      </defs>
      <g>
       <use xlink:href="#m89a757d7e1" x="161.957599" y="617.04" style="stroke: #000000; stroke-width: 0.8"/>
      </g>
     </g>
     <g id="text_1">
      <!-- $\mathdefault{0.0}$ -->
      <g transform="translate(144.185879 644.795495)scale(0.3 -0.3)">
       <defs>
        <path id="CMR17-30" d="M 2688 2025 
C 2688 2416 2682 3080 2413 3591 
C 2176 4039 1798 4198 1466 4198 
C 1158 4198 768 4058 525 3597 
C 269 3118 243 2524 243 2025 
C 243 1661 250 1106 448 619 
C 723 -39 1216 -128 1466 -128 
C 1760 -128 2208 -7 2470 600 
C 2662 1042 2688 1559 2688 2025 
z
M 1466 -26 
C 1056 -26 813 325 723 812 
C 653 1188 653 1738 653 2096 
C 653 2588 653 2997 736 3387 
C 858 3929 1216 4096 1466 4096 
C 1728 4096 2067 3923 2189 3400 
C 2272 3036 2278 2607 2278 2096 
C 2278 1680 2278 1169 2202 792 
C 2067 95 1690 -26 1466 -26 
z
" transform="scale(0.015625)"/>
        <path id="CMMI12-3a" d="M 1178 307 
C 1178 492 1024 619 870 619 
C 685 619 557 466 557 313 
C 557 128 710 0 864 0 
C 1050 0 1178 153 1178 307 
z
" transform="scale(0.015625)"/>
       </defs>
       <use xlink:href="#CMR17-30" transform="scale(0.996264)"/>
       <use xlink:href="#CMMI12-3a" transform="translate(45.690477 0)scale(0.996264)"/>
       <use xlink:href="#CMR17-30" transform="translate(72.787654 0)scale(0.996264)"/>
      </g>
     </g>
    </g>
    <g id="xtick_2">
     <g id="line2d_3">
      <path d="M 296.290932 617.04 
L 296.290932 7.2 
" clip-path="url(#p9baea14411)" style="fill: none; stroke: #b0b0b0; stroke-width: 0.8; stroke-linecap: square"/>
     </g>
     <g id="line2d_4">
      <g>
       <use xlink:href="#m89a757d7e1" x="296.290932" y="617.04" style="stroke: #000000; stroke-width: 0.8"/>
      </g>
     </g>
     <g id="text_2">
      <!-- $\mathdefault{0.1}$ -->
      <g transform="translate(278.519212 644.795495)scale(0.3 -0.3)">
       <defs>
        <path id="CMR17-31" d="M 1702 4058 
C 1702 4192 1696 4192 1606 4192 
C 1357 3916 979 3827 621 3827 
C 602 3827 570 3827 563 3808 
C 557 3795 557 3782 557 3648 
C 755 3648 1088 3686 1344 3839 
L 1344 461 
C 1344 236 1331 160 781 160 
L 589 160 
L 589 0 
C 896 0 1216 0 1523 0 
C 1830 0 2150 0 2458 0 
L 2458 160 
L 2266 160 
C 1715 160 1702 230 1702 458 
L 1702 4058 
z
" transform="scale(0.015625)"/>
       </defs>
       <use xlink:href="#CMR17-30" transform="scale(0.996264)"/>
       <use xlink:href="#CMMI12-3a" transform="translate(45.690477 0)scale(0.996264)"/>
       <use xlink:href="#CMR17-31" transform="translate(72.787654 0)scale(0.996264)"/>
      </g>
     </g>
    </g>
    <g id="xtick_3">
     <g id="line2d_5">
      <path d="M 430.624265 617.04 
L 430.624265 7.2 
" clip-path="url(#p9baea14411)" style="fill: none; stroke: #b0b0b0; stroke-width: 0.8; stroke-linecap: square"/>
     </g>
     <g id="line2d_6">
      <g>
       <use xlink:href="#m89a757d7e1" x="430.624265" y="617.04" style="stroke: #000000; stroke-width: 0.8"/>
      </g>
     </g>
     <g id="text_3">
      <!-- $\mathdefault{0.2}$ -->
      <g transform="translate(412.852546 644.795495)scale(0.3 -0.3)">
       <defs>
        <path id="CMR17-32" d="M 2669 989 
L 2554 989 
C 2490 536 2438 459 2413 420 
C 2381 369 1920 369 1830 369 
L 602 369 
C 832 619 1280 1072 1824 1597 
C 2214 1967 2669 2402 2669 3035 
C 2669 3790 2067 4224 1395 4224 
C 691 4224 262 3604 262 3030 
C 262 2780 448 2748 525 2748 
C 589 2748 781 2787 781 3010 
C 781 3207 614 3264 525 3264 
C 486 3264 448 3258 422 3245 
C 544 3790 915 4058 1306 4058 
C 1862 4058 2227 3617 2227 3035 
C 2227 2479 1901 2000 1536 1584 
L 262 146 
L 262 0 
L 2515 0 
L 2669 989 
z
" transform="scale(0.015625)"/>
       </defs>
       <use xlink:href="#CMR17-30" transform="scale(0.996264)"/>
       <use xlink:href="#CMMI12-3a" transform="translate(45.690477 0)scale(0.996264)"/>
       <use xlink:href="#CMR17-32" transform="translate(72.787654 0)scale(0.996264)"/>
      </g>
     </g>
    </g>
    <g id="xtick_4">
     <g id="line2d_7">
      <path d="M 564.957599 617.04 
L 564.957599 7.2 
" clip-path="url(#p9baea14411)" style="fill: none; stroke: #b0b0b0; stroke-width: 0.8; stroke-linecap: square"/>
     </g>
     <g id="line2d_8">
      <g>
       <use xlink:href="#m89a757d7e1" x="564.957599" y="617.04" style="stroke: #000000; stroke-width: 0.8"/>
      </g>
     </g>
     <g id="text_4">
      <!-- $\mathdefault{0.3}$ -->
      <g transform="translate(547.185879 644.795495)scale(0.3 -0.3)">
       <defs>
        <path id="CMR17-33" d="M 1414 2157 
C 1984 2157 2234 1662 2234 1090 
C 2234 320 1824 25 1453 25 
C 1114 25 563 194 390 693 
C 422 680 454 680 486 680 
C 640 680 755 782 755 948 
C 755 1133 614 1216 486 1216 
C 378 1216 211 1165 211 926 
C 211 335 787 -128 1466 -128 
C 2176 -128 2720 430 2720 1085 
C 2720 1707 2208 2157 1600 2227 
C 2086 2328 2554 2756 2554 3329 
C 2554 3820 2048 4179 1472 4179 
C 890 4179 378 3829 378 3329 
C 378 3110 544 3072 627 3072 
C 762 3072 877 3155 877 3321 
C 877 3486 762 3569 627 3569 
C 602 3569 570 3569 544 3557 
C 730 3959 1235 4032 1459 4032 
C 1683 4032 2106 3925 2106 3320 
C 2106 3143 2080 2828 1862 2550 
C 1670 2304 1453 2304 1242 2284 
C 1210 2284 1062 2269 1037 2269 
C 992 2263 966 2257 966 2208 
C 966 2163 973 2157 1101 2157 
L 1414 2157 
z
" transform="scale(0.015625)"/>
       </defs>
       <use xlink:href="#CMR17-30" transform="scale(0.996264)"/>
       <use xlink:href="#CMMI12-3a" transform="translate(45.690477 0)scale(0.996264)"/>
       <use xlink:href="#CMR17-33" transform="translate(72.787654 0)scale(0.996264)"/>
      </g>
     </g>
    </g>
    <g id="xtick_5">
     <g id="line2d_9">
      <path d="M 699.290932 617.04 
L 699.290932 7.2 
" clip-path="url(#p9baea14411)" style="fill: none; stroke: #b0b0b0; stroke-width: 0.8; stroke-linecap: square"/>
     </g>
     <g id="line2d_10">
      <g>
       <use xlink:href="#m89a757d7e1" x="699.290932" y="617.04" style="stroke: #000000; stroke-width: 0.8"/>
      </g>
     </g>
     <g id="text_5">
      <!-- $\mathdefault{0.4}$ -->
      <g transform="translate(681.519212 644.795495)scale(0.3 -0.3)">
       <defs>
        <path id="CMR17-34" d="M 2150 4122 
C 2150 4256 2144 4256 2029 4256 
L 128 1254 
L 128 1088 
L 1779 1088 
L 1779 457 
C 1779 224 1766 160 1318 160 
L 1197 160 
L 1197 0 
C 1402 0 1747 0 1965 0 
C 2182 0 2528 0 2733 0 
L 2733 160 
L 2611 160 
C 2163 160 2150 224 2150 457 
L 2150 1088 
L 2803 1088 
L 2803 1254 
L 2150 1254 
L 2150 4122 
z
M 1798 3703 
L 1798 1254 
L 256 1254 
L 1798 3703 
z
" transform="scale(0.015625)"/>
       </defs>
       <use xlink:href="#CMR17-30" transform="scale(0.996264)"/>
       <use xlink:href="#CMMI12-3a" transform="translate(45.690477 0)scale(0.996264)"/>
       <use xlink:href="#CMR17-34" transform="translate(72.787654 0)scale(0.996264)"/>
      </g>
     </g>
    </g>
    <g id="text_6">
     <!-- $x, \; \mathrm{m} $ -->
     <g transform="translate(408.404995 678.823697)scale(0.35 -0.35)">
      <defs>
       <path id="CMMI12-78" d="M 3034 2606 
C 2829 2567 2752 2414 2752 2293 
C 2752 2139 2874 2088 2963 2088 
C 3155 2088 3290 2254 3290 2427 
C 3290 2695 2982 2816 2714 2816 
C 2323 2816 2106 2433 2048 2312 
C 1901 2816 1504 2816 1389 2816 
C 736 2816 390 1980 390 1839 
C 390 1814 416 1782 461 1782 
C 512 1782 525 1820 538 1846 
C 755 2555 1184 2689 1370 2689 
C 1658 2689 1715 2420 1715 2267 
C 1715 2127 1677 1980 1600 1673 
L 1382 798 
C 1286 415 1101 64 762 64 
C 730 64 570 64 435 147 
C 666 192 717 383 717 460 
C 717 588 621 664 499 664 
C 346 664 179 530 179 326 
C 179 57 480 -64 755 -64 
C 1062 -64 1280 179 1414 441 
C 1517 64 1837 -64 2074 -64 
C 2726 -64 3072 773 3072 913 
C 3072 945 3046 971 3008 971 
C 2950 971 2944 939 2925 888 
C 2752 326 2381 64 2093 64 
C 1869 64 1747 230 1747 492 
C 1747 632 1773 734 1875 1156 
L 2099 2024 
C 2195 2408 2413 2689 2707 2689 
C 2720 2689 2899 2689 3034 2606 
z
" transform="scale(0.015625)"/>
       <path id="CMMI12-3b" d="M 1248 -31 
C 1248 343 1126 619 864 619 
C 659 619 557 453 557 313 
C 557 172 653 0 870 0 
C 954 0 1024 26 1082 83 
C 1094 96 1101 96 1107 96 
C 1120 96 1120 5 1120 -27 
C 1120 -240 1082 -659 710 -1080 
C 640 -1157 640 -1170 640 -1183 
C 640 -1216 672 -1248 704 -1248 
C 755 -1248 1248 -771 1248 -31 
z
" transform="scale(0.015625)"/>
       <path id="CMR17-6d" d="M 4326 1933 
C 4326 2252 4269 2790 3507 2790 
C 3072 2790 2771 2496 2656 2151 
L 2650 2151 
C 2573 2676 2195 2790 1837 2790 
C 1331 2790 1069 2400 973 2144 
L 966 2144 
L 966 2790 
L 211 2720 
L 211 2554 
C 589 2554 646 2515 646 2208 
L 646 428 
C 646 184 621 153 211 153 
L 211 -13 
C 365 0 646 0 813 0 
C 979 0 1267 0 1421 -13 
L 1421 153 
C 1011 153 986 178 986 428 
L 986 1658 
C 986 2247 1344 2688 1792 2688 
C 2266 2688 2317 2266 2317 1958 
L 2317 428 
C 2317 184 2291 153 1882 153 
L 1882 -13 
C 2035 0 2317 0 2483 0 
C 2650 0 2938 0 3091 -13 
L 3091 153 
C 2682 153 2656 178 2656 428 
L 2656 1658 
C 2656 2247 3014 2688 3462 2688 
C 3936 2688 3987 2266 3987 1958 
L 3987 428 
C 3987 184 3962 153 3552 153 
L 3552 -13 
C 3706 0 3987 0 4154 0 
C 4320 0 4608 0 4762 -13 
L 4762 153 
C 4352 153 4326 178 4326 428 
L 4326 1933 
z
" transform="scale(0.015625)"/>
      </defs>
      <use xlink:href="#CMMI12-78" transform="scale(0.996264)"/>
      <use xlink:href="#CMMI12-3b" transform="translate(55.43406 0)scale(0.996264)"/>
      <use xlink:href="#CMR17-6d" transform="translate(126.809651 0)scale(0.996264)"/>
     </g>
    </g>
   </g>
   <g id="matplotlib.axis_2">
    <g id="ytick_1">
     <g id="line2d_11">
      <path d="M 81.357599 583.16 
L 806.757599 583.16 
" clip-path="url(#p9baea14411)" style="fill: none; stroke: #b0b0b0; stroke-width: 0.8; stroke-linecap: square"/>
     </g>
     <g id="line2d_12">
      <defs>
       <path id="m12ed1e110c" d="M 0 0 
L -3.5 0 
" style="stroke: #000000; stroke-width: 0.8"/>
      </defs>
      <g>
       <use xlink:href="#m12ed1e110c" x="81.357599" y="583.16" style="stroke: #000000; stroke-width: 0.8"/>
      </g>
     </g>
     <g id="text_7">
      <!-- $\mathdefault{0}$ -->
      <g transform="translate(60.650456 593.537748)scale(0.3 -0.3)">
       <use xlink:href="#CMR17-30" transform="scale(0.996264)"/>
      </g>
     </g>
    </g>
    <g id="ytick_2">
     <g id="line2d_13">
      <path d="M 81.357599 515.4 
L 806.757599 515.4 
" clip-path="url(#p9baea14411)" style="fill: none; stroke: #b0b0b0; stroke-width: 0.8; stroke-linecap: square"/>
     </g>
     <g id="line2d_14">
      <g>
       <use xlink:href="#m12ed1e110c" x="81.357599" y="515.4" style="stroke: #000000; stroke-width: 0.8"/>
      </g>
     </g>
     <g id="text_8">
      <!-- $\mathdefault{1}$ -->
      <g transform="translate(60.650456 525.777748)scale(0.3 -0.3)">
       <use xlink:href="#CMR17-31" transform="scale(0.996264)"/>
      </g>
     </g>
    </g>
    <g id="ytick_3">
     <g id="line2d_15">
      <path d="M 81.357599 447.64 
L 806.757599 447.64 
" clip-path="url(#p9baea14411)" style="fill: none; stroke: #b0b0b0; stroke-width: 0.8; stroke-linecap: square"/>
     </g>
     <g id="line2d_16">
      <g>
       <use xlink:href="#m12ed1e110c" x="81.357599" y="447.64" style="stroke: #000000; stroke-width: 0.8"/>
      </g>
     </g>
     <g id="text_9">
      <!-- $\mathdefault{2}$ -->
      <g transform="translate(60.650456 458.017748)scale(0.3 -0.3)">
       <use xlink:href="#CMR17-32" transform="scale(0.996264)"/>
      </g>
     </g>
    </g>
    <g id="ytick_4">
     <g id="line2d_17">
      <path d="M 81.357599 379.88 
L 806.757599 379.88 
" clip-path="url(#p9baea14411)" style="fill: none; stroke: #b0b0b0; stroke-width: 0.8; stroke-linecap: square"/>
     </g>
     <g id="line2d_18">
      <g>
       <use xlink:href="#m12ed1e110c" x="81.357599" y="379.88" style="stroke: #000000; stroke-width: 0.8"/>
      </g>
     </g>
     <g id="text_10">
      <!-- $\mathdefault{3}$ -->
      <g transform="translate(60.650456 390.257748)scale(0.3 -0.3)">
       <use xlink:href="#CMR17-33" transform="scale(0.996264)"/>
      </g>
     </g>
    </g>
    <g id="ytick_5">
     <g id="line2d_19">
      <path d="M 81.357599 312.12 
L 806.757599 312.12 
" clip-path="url(#p9baea14411)" style="fill: none; stroke: #b0b0b0; stroke-width: 0.8; stroke-linecap: square"/>
     </g>
     <g id="line2d_20">
      <g>
       <use xlink:href="#m12ed1e110c" x="81.357599" y="312.12" style="stroke: #000000; stroke-width: 0.8"/>
      </g>
     </g>
     <g id="text_11">
      <!-- $\mathdefault{4}$ -->
      <g transform="translate(60.650456 322.497748)scale(0.3 -0.3)">
       <use xlink:href="#CMR17-34" transform="scale(0.996264)"/>
      </g>
     </g>
    </g>
    <g id="ytick_6">
     <g id="line2d_21">
      <path d="M 81.357599 244.36 
L 806.757599 244.36 
" clip-path="url(#p9baea14411)" style="fill: none; stroke: #b0b0b0; stroke-width: 0.8; stroke-linecap: square"/>
     </g>
     <g id="line2d_22">
      <g>
       <use xlink:href="#m12ed1e110c" x="81.357599" y="244.36" style="stroke: #000000; stroke-width: 0.8"/>
      </g>
     </g>
     <g id="text_12">
      <!-- $\mathdefault{5}$ -->
      <g transform="translate(60.650456 254.737748)scale(0.3 -0.3)">
       <defs>
        <path id="CMR17-35" d="M 730 3692 
C 794 3666 1056 3584 1325 3584 
C 1920 3584 2246 3911 2432 4100 
C 2432 4157 2432 4192 2394 4192 
C 2387 4192 2374 4192 2323 4163 
C 2099 4058 1837 3973 1517 3973 
C 1325 3973 1037 3999 723 4139 
C 653 4171 640 4171 634 4171 
C 602 4171 595 4164 595 4037 
L 595 2203 
C 595 2089 595 2057 659 2057 
C 691 2057 704 2070 736 2114 
C 941 2401 1222 2522 1542 2522 
C 1766 2522 2246 2382 2246 1289 
C 2246 1085 2246 715 2054 421 
C 1894 159 1645 25 1370 25 
C 947 25 518 320 403 814 
C 429 807 480 795 506 795 
C 589 795 749 840 749 1038 
C 749 1210 627 1280 506 1280 
C 358 1280 262 1190 262 1011 
C 262 454 704 -128 1382 -128 
C 2042 -128 2669 440 2669 1264 
C 2669 2030 2170 2624 1549 2624 
C 1222 2624 947 2503 730 2274 
L 730 3692 
z
" transform="scale(0.015625)"/>
       </defs>
       <use xlink:href="#CMR17-35" transform="scale(0.996264)"/>
      </g>
     </g>
    </g>
    <g id="ytick_7">
     <g id="line2d_23">
      <path d="M 81.357599 176.6 
L 806.757599 176.6 
" clip-path="url(#p9baea14411)" style="fill: none; stroke: #b0b0b0; stroke-width: 0.8; stroke-linecap: square"/>
     </g>
     <g id="line2d_24">
      <g>
       <use xlink:href="#m12ed1e110c" x="81.357599" y="176.6" style="stroke: #000000; stroke-width: 0.8"/>
      </g>
     </g>
     <g id="text_13">
      <!-- $\mathdefault{6}$ -->
      <g transform="translate(60.650456 186.977748)scale(0.3 -0.3)">
       <defs>
        <path id="CMR17-36" d="M 678 2176 
C 678 3690 1395 4032 1811 4032 
C 1946 4032 2272 4009 2400 3776 
C 2298 3776 2106 3776 2106 3553 
C 2106 3381 2246 3323 2336 3323 
C 2394 3323 2566 3348 2566 3560 
C 2566 3954 2246 4179 1805 4179 
C 1043 4179 243 3390 243 1984 
C 243 253 966 -128 1478 -128 
C 2099 -128 2688 427 2688 1283 
C 2688 2081 2170 2662 1517 2662 
C 1126 2662 838 2407 678 1960 
L 678 2176 
z
M 1478 25 
C 691 25 691 1200 691 1436 
C 691 1896 909 2560 1504 2560 
C 1613 2560 1926 2560 2138 2120 
C 2253 1870 2253 1609 2253 1289 
C 2253 944 2253 690 2118 434 
C 1978 171 1773 25 1478 25 
z
" transform="scale(0.015625)"/>
       </defs>
       <use xlink:href="#CMR17-36" transform="scale(0.996264)"/>
      </g>
     </g>
    </g>
    <g id="ytick_8">
     <g id="line2d_25">
      <path d="M 81.357599 108.84 
L 806.757599 108.84 
" clip-path="url(#p9baea14411)" style="fill: none; stroke: #b0b0b0; stroke-width: 0.8; stroke-linecap: square"/>
     </g>
     <g id="line2d_26">
      <g>
       <use xlink:href="#m12ed1e110c" x="81.357599" y="108.84" style="stroke: #000000; stroke-width: 0.8"/>
      </g>
     </g>
     <g id="text_14">
      <!-- $\mathdefault{7}$ -->
      <g transform="translate(60.650456 119.217748)scale(0.3 -0.3)">
       <defs>
        <path id="CMR17-37" d="M 2886 3941 
L 2886 4081 
L 1382 4081 
C 634 4081 621 4165 595 4288 
L 480 4288 
L 294 3094 
L 410 3094 
C 429 3215 474 3540 550 3661 
C 589 3712 1062 3712 1171 3712 
L 2579 3712 
L 1869 2661 
C 1395 1954 1069 999 1069 165 
C 1069 89 1069 -128 1299 -128 
C 1530 -128 1530 89 1530 171 
L 1530 465 
C 1530 1508 1709 2196 2003 2636 
L 2886 3941 
z
" transform="scale(0.015625)"/>
       </defs>
       <use xlink:href="#CMR17-37" transform="scale(0.996264)"/>
      </g>
     </g>
    </g>
    <g id="ytick_9">
     <g id="line2d_27">
      <path d="M 81.357599 41.08 
L 806.757599 41.08 
" clip-path="url(#p9baea14411)" style="fill: none; stroke: #b0b0b0; stroke-width: 0.8; stroke-linecap: square"/>
     </g>
     <g id="line2d_28">
      <g>
       <use xlink:href="#m12ed1e110c" x="81.357599" y="41.08" style="stroke: #000000; stroke-width: 0.8"/>
      </g>
     </g>
     <g id="text_15">
      <!-- $\mathdefault{8}$ -->
      <g transform="translate(60.650456 51.457748)scale(0.3 -0.3)">
       <defs>
        <path id="CMR17-38" d="M 1741 2264 
C 2144 2467 2554 2773 2554 3263 
C 2554 3841 1990 4179 1472 4179 
C 890 4179 378 3759 378 3180 
C 378 3021 416 2747 666 2505 
C 730 2442 998 2251 1171 2130 
C 883 1983 211 1634 211 934 
C 211 279 838 -128 1459 -128 
C 2144 -128 2720 362 2720 1010 
C 2720 1590 2330 1857 2074 2029 
L 1741 2264 
z
M 902 2822 
C 851 2854 595 3051 595 3351 
C 595 3739 998 4032 1459 4032 
C 1965 4032 2336 3676 2336 3262 
C 2336 2669 1670 2331 1638 2331 
C 1632 2331 1626 2331 1574 2370 
L 902 2822 
z
M 2080 1519 
C 2176 1449 2483 1240 2483 851 
C 2483 381 2010 25 1472 25 
C 890 25 448 438 448 940 
C 448 1443 838 1862 1280 2060 
L 2080 1519 
z
" transform="scale(0.015625)"/>
       </defs>
       <use xlink:href="#CMR17-38" transform="scale(0.996264)"/>
      </g>
     </g>
    </g>
    <g id="text_16">
     <!-- $\frac{T_{tr}}{T_{tr_\infty}}, \; - $ -->
     <g transform="translate(38.349699 361.917026)rotate(-90)scale(0.35 -0.35)">
      <defs>
       <path id="CMMI12-54" d="M 2669 3910 
C 2707 4064 2720 4121 2816 4147 
C 2867 4160 3078 4160 3213 4160 
C 3853 4160 4154 4134 4154 3634 
C 4154 3537 4128 3295 4090 3057 
L 4083 2980 
C 4083 2954 4109 2916 4147 2916 
C 4211 2916 4211 2948 4230 3050 
L 4416 4184 
C 4429 4243 4429 4256 4429 4275 
C 4429 4345 4390 4345 4262 4345 
L 762 4345 
C 614 4345 608 4339 570 4224 
L 179 3070 
C 173 3056 154 2986 154 2980 
C 154 2948 179 2916 218 2916 
C 269 2916 282 2941 307 3024 
C 576 3801 710 4160 1562 4160 
L 1990 4160 
C 2144 4160 2208 4160 2208 4089 
C 2208 4069 2208 4057 2176 3941 
L 1318 499 
C 1254 249 1242 185 563 185 
C 403 185 358 185 358 64 
C 358 0 429 0 461 0 
C 621 0 787 0 947 0 
L 1946 0 
C 2106 0 2278 0 2438 0 
C 2509 0 2573 0 2573 121 
C 2573 185 2528 185 2362 185 
C 1786 185 1786 243 1786 339 
C 1786 346 1786 391 1811 494 
L 2669 3910 
z
" transform="scale(0.015625)"/>
       <path id="CMMI12-74" d="M 1286 2566 
L 1875 2566 
C 1997 2566 2061 2566 2061 2681 
C 2061 2752 2022 2752 1894 2752 
L 1331 2752 
L 1568 3692 
C 1594 3781 1594 3794 1594 3840 
C 1594 3943 1510 4000 1427 4000 
C 1376 4000 1229 3981 1178 3775 
L 928 2752 
L 326 2752 
C 198 2752 141 2752 141 2630 
C 141 2566 186 2566 307 2566 
L 877 2566 
L 454 881 
C 403 658 384 594 384 511 
C 384 211 595 -64 954 -64 
C 1600 -64 1946 868 1946 912 
C 1946 951 1920 970 1882 970 
C 1869 970 1843 970 1830 944 
C 1824 938 1818 931 1773 829 
C 1638 511 1344 64 973 64 
C 781 64 768 224 768 364 
C 768 370 768 492 787 568 
L 1286 2566 
z
" transform="scale(0.015625)"/>
       <path id="CMMI12-72" d="M 2490 2612 
C 2291 2574 2189 2433 2189 2293 
C 2189 2139 2310 2088 2400 2088 
C 2579 2088 2726 2242 2726 2433 
C 2726 2638 2528 2816 2208 2816 
C 1952 2816 1658 2701 1389 2312 
C 1344 2650 1088 2816 832 2816 
C 582 2816 454 2625 378 2484 
C 269 2254 173 1871 173 1839 
C 173 1814 198 1782 243 1782 
C 294 1782 301 1788 339 1935 
C 435 2318 557 2689 813 2689 
C 966 2689 1011 2580 1011 2395 
C 1011 2254 947 2005 902 1807 
L 723 1118 
C 698 996 627 709 595 594 
C 550 428 480 128 480 96 
C 480 6 550 -64 646 -64 
C 717 -64 838 -19 877 109 
C 896 160 1133 1124 1171 1271 
C 1203 1411 1242 1546 1274 1686 
C 1299 1775 1325 1878 1344 1961 
C 1363 2018 1536 2331 1696 2472 
C 1773 2542 1939 2689 2202 2689 
C 2304 2689 2406 2670 2490 2612 
z
" transform="scale(0.015625)"/>
       <path id="CMSY10-31" d="M 3251 1730 
C 2906 2166 2829 2262 2630 2422 
C 2272 2710 1914 2825 1587 2825 
C 838 2825 352 2122 352 1374 
C 352 639 826 -70 1562 -70 
C 2298 -70 2829 511 3142 1022 
C 3488 588 3565 492 3763 332 
C 4122 45 4480 -70 4806 -70 
C 5555 -70 6042 633 6042 1380 
C 6042 2115 5568 2825 4832 2825 
C 4096 2825 3565 2242 3251 1730 
z
M 3418 1514 
C 3680 1975 4154 2620 4877 2620 
C 5555 2620 5901 1955 5901 1380 
C 5901 753 5472 236 4909 236 
C 4538 236 4250 505 4115 638 
C 3955 811 3808 1009 3418 1514 
z
M 2976 1240 
C 2714 780 2240 134 1517 134 
C 838 134 493 799 493 1374 
C 493 2000 922 2518 1485 2518 
C 1856 2518 2144 2249 2278 2115 
C 2438 1943 2586 1744 2976 1240 
z
" transform="scale(0.015625)"/>
       <path id="CMSY10-0" d="M 4218 1472 
C 4326 1472 4442 1472 4442 1600 
C 4442 1728 4326 1728 4218 1728 
L 755 1728 
C 646 1728 531 1728 531 1600 
C 531 1472 646 1472 755 1472 
L 4218 1472 
z
" transform="scale(0.015625)"/>
      </defs>
      <use xlink:href="#CMMI12-54" transform="translate(24.478305 41.344728)scale(0.697382)"/>
      <use xlink:href="#CMMI12-74" transform="translate(64.500661 30.884032)scale(0.498132)"/>
      <use xlink:href="#CMMI12-72" transform="translate(82.113826 30.884032)scale(0.498132)"/>
      <use xlink:href="#CMMI12-54" transform="translate(0 -34.355253)scale(0.697382)"/>
      <use xlink:href="#CMMI12-74" transform="translate(40.022356 -44.815949)scale(0.498132)"/>
      <use xlink:href="#CMMI12-72" transform="translate(57.635521 -44.815949)scale(0.498132)"/>
      <use xlink:href="#CMSY10-31" transform="translate(79.61596 -52.287899)scale(0.498132)"/>
      <use xlink:href="#CMMI12-3b" transform="translate(131.621076 0)scale(0.996264)"/>
      <use xlink:href="#CMSY10-0" transform="translate(202.996667 0)scale(0.996264)"/>
      <path d="M 0 22.914133 
L 130.425562 22.914133 
L 130.425562 26.899083 
L 0 26.899083 
L 0 22.914133 
z
"/>
     </g>
    </g>
   </g>
   <g id="line2d_29">
    <path d="M 94.790932 518.500063 
L 158.441939 518.486041 
L 159.62067 517.495507 
L 160.789134 509.751753 
L 161.957599 479.974077 
L 164.35273 439.070567 
L 166.747862 407.154202 
L 167.945428 404.979209 
L 169.142994 404.949835 
L 170.34056 406.218693 
L 171.538125 404.829004 
L 172.735691 406.316529 
L 173.933257 406.768612 
L 175.130823 406.637708 
L 177.525955 406.666354 
L 178.723521 406.369178 
L 179.921086 406.284287 
L 181.118652 406.065991 
L 183.513784 405.80783 
L 187.106482 405.530609 
L 191.896745 405.325884 
L 196.687008 405.062122 
L 201.477272 404.833426 
L 205.100141 404.803667 
L 220.13635 404.838028 
L 241.711085 405.082435 
L 265.560513 405.585472 
L 288.564974 405.819473 
L 345.725739 406.758655 
L 365.592346 407.037498 
L 419.216828 407.777726 
L 420.347863 409.051548 
L 421.478897 260.931002 
L 422.303693 47.695473 
L 423.128488 84.146114 
L 425.602874 139.83785 
L 426.427669 155.966166 
L 427.252465 168.261882 
L 428.902056 185.603101 
L 429.726851 192.231331 
L 431.376442 203.066606 
L 432.201237 208.11515 
L 433.850828 216.507837 
L 435.500418 223.461375 
L 437.974804 231.545842 
L 439.624395 236.248027 
L 442.098781 242.083846 
L 443.748372 245.194198 
L 447.047553 250.477486 
L 449.521939 253.851046 
L 455.295507 261.260546 
L 456.945098 263.893484 
L 458.603135 267.222823 
L 463.840018 279.00766 
L 465.16589 282.517764 
L 468.170098 291.704542 
L 469.871497 297.272799 
L 471.721394 302.823804 
L 473.73342 307.936144 
L 475.922514 312.463186 
L 478.305241 316.413427 
L 480.898664 320.041456 
L 483.718626 323.01344 
L 486.787568 323.848686 
L 490.122464 323.778856 
L 493.746284 322.544423 
L 497.677963 320.327592 
L 501.936814 317.388256 
L 506.540279 314.805179 
L 511.499678 312.664109 
L 516.81763 310.945527 
L 522.477178 309.26979 
L 528.391174 307.369459 
L 534.3297 305.3269 
L 540.268227 303.49857 
L 552.14528 300.191493 
L 558.083807 298.033227 
L 564.022333 296.071581 
L 569.96086 294.908366 
L 581.837913 293.661205 
L 587.776439 292.587795 
L 593.714966 291.387817 
L 605.592019 288.563043 
L 611.530546 345.541733 
L 619.926379 465.086817 
L 628.322212 475.272669 
L 636.718046 474.942436 
L 645.113879 475.908449 
L 653.509712 475.244781 
L 661.905546 474.393045 
L 720.676379 471.603768 
L 729.072212 471.136839 
L 796.238879 468.653537 
L 813.030546 468.388962 
L 813.030546 468.388962 
" clip-path="url(#p9baea14411)" style="fill: none; stroke: #ff0000; stroke-width: 3; stroke-linecap: square"/>
   </g>
   <g id="patch_3">
    <path d="M 81.357599 617.04 
L 81.357599 7.2 
" style="fill: none; stroke: #000000; stroke-width: 0.8; stroke-linejoin: miter; stroke-linecap: square"/>
   </g>
   <g id="patch_4">
    <path d="M 806.757599 617.04 
L 806.757599 7.2 
" style="fill: none; stroke: #000000; stroke-width: 0.8; stroke-linejoin: miter; stroke-linecap: square"/>
   </g>
   <g id="patch_5">
    <path d="M 81.357599 617.04 
L 806.757599 617.04 
" style="fill: none; stroke: #000000; stroke-width: 0.8; stroke-linejoin: miter; stroke-linecap: square"/>
   </g>
   <g id="patch_6">
    <path d="M 81.357599 7.2 
L 806.757599 7.2 
" style="fill: none; stroke: #000000; stroke-width: 0.8; stroke-linejoin: miter; stroke-linecap: square"/>
   </g>
   <g id="legend_1">
    <g id="patch_7">
     <path d="M 649.715613 132.764702 
L 782.257599 132.764702 
Q 789.257599 132.764702 789.257599 125.764702 
L 789.257599 31.7 
Q 789.257599 24.7 782.257599 24.7 
L 649.715613 24.7 
Q 642.715613 24.7 642.715613 31.7 
L 642.715613 125.764702 
Q 642.715613 132.764702 649.715613 132.764702 
z
" style="fill: #ffffff; stroke: #cccccc; stroke-linejoin: miter"/>
    </g>
    <g id="patch_8">
     <path d="M 656.715613 63.2 
L 726.715613 63.2 
L 726.715613 38.7 
L 656.715613 38.7 
z
" style="fill: #99ccff; fill-opacity: 0.7"/>
    </g>
    <g id="text_17">
     <!-- $\sigma$ -->
     <g transform="translate(754.715613 63.2)scale(0.35 -0.35)">
      <defs>
       <path id="CMMI12-1b" d="M 3251 2408 
C 3334 2408 3546 2408 3546 2612 
C 3546 2752 3424 2752 3309 2752 
L 1894 2752 
C 934 2752 243 1686 243 932 
C 243 390 595 -64 1171 -64 
C 1926 -64 2752 747 2752 1705 
C 2752 1954 2694 2196 2541 2408 
L 3251 2408 
z
M 1178 64 
C 851 64 614 313 614 754 
C 614 1137 845 2408 1786 2408 
C 2061 2408 2368 2274 2368 1781 
C 2368 1558 2266 1021 2042 652 
C 1811 275 1466 64 1178 64 
z
" transform="scale(0.015625)"/>
      </defs>
      <use xlink:href="#CMMI12-1b" transform="scale(0.996264)"/>
     </g>
    </g>
    <g id="line2d_30">
     <path d="M 656.715613 99.732351 
L 691.715613 99.732351 
L 726.715613 99.732351 
" style="fill: none; stroke: #ff0000; stroke-width: 3; stroke-linecap: square"/>
    </g>
    <g id="text_18">
     <!-- $\mu$ -->
     <g transform="translate(754.715613 111.982351)scale(0.35 -0.35)">
      <defs>
       <path id="CMMI12-16" d="M 922 140 
C 1082 -6 1318 -64 1536 -64 
C 1946 -64 2227 208 2374 405 
C 2438 69 2707 -64 2931 -64 
C 3123 -64 3277 50 3392 277 
C 3494 493 3584 879 3584 903 
C 3584 935 3558 960 3520 960 
C 3462 960 3456 928 3430 834 
C 3334 461 3213 64 2950 64 
C 2765 64 2752 229 2752 358 
C 2752 504 2810 735 2854 926 
L 3034 1615 
C 3059 1737 3130 2023 3162 2139 
C 3200 2292 3270 2567 3270 2592 
C 3270 2688 3194 2752 3098 2752 
C 3040 2752 2906 2726 2854 2535 
L 2406 760 
C 2374 632 2374 619 2291 517 
C 2214 409 1965 64 1562 64 
C 1203 64 1088 326 1088 625 
C 1088 811 1146 1034 1171 1143 
L 1459 2293 
C 1491 2414 1542 2618 1542 2657 
C 1542 2759 1459 2816 1376 2816 
C 1318 2816 1178 2797 1126 2592 
L 198 -1107 
C 192 -1139 179 -1177 179 -1216 
C 179 -1312 256 -1376 352 -1376 
C 538 -1376 576 -1228 621 -1050 
L 922 140 
z
" transform="scale(0.015625)"/>
      </defs>
      <use xlink:href="#CMMI12-16" transform="scale(0.996264)"/>
     </g>
    </g>
   </g>
  </g>
 </g>
 <defs>
  <clipPath id="p9baea14411">
   <rect x="81.357599" y="7.2" width="725.4" height="609.84"/>
  </clipPath>
 </defs>
</svg>
