<?xml version="1.0" encoding="utf-8" standalone="no"?>
<!DOCTYPE svg PUBLIC "-//W3C//DTD SVG 1.1//EN"
  "http://www.w3.org/Graphics/SVG/1.1/DTD/svg11.dtd">
<svg xmlns:xlink="http://www.w3.org/1999/xlink" width="817.340543pt" height="692.806049pt" viewBox="0 0 817.340543 692.806049" xmlns="http://www.w3.org/2000/svg" version="1.1">
 <metadata>
  <rdf:RDF xmlns:dc="http://purl.org/dc/elements/1.1/" xmlns:cc="http://creativecommons.org/ns#" xmlns:rdf="http://www.w3.org/1999/02/22-rdf-syntax-ns#">
   <cc:Work>
    <dc:type rdf:resource="http://purl.org/dc/dcmitype/StillImage"/>
    <dc:date>2025-03-26T12:44:15.033327</dc:date>
    <dc:format>image/svg+xml</dc:format>
    <dc:creator>
     <cc:Agent>
      <dc:title>Matplotlib v3.7.1, https://matplotlib.org/</dc:title>
     </cc:Agent>
    </dc:creator>
   </cc:Work>
  </rdf:RDF>
 </metadata>
 <defs>
  <style type="text/css">*{stroke-linejoin: round; stroke-linecap: butt}</style>
 </defs>
 <g id="figure_1">
  <g id="patch_1">
   <path d="M 0 692.806049 
L 817.340543 692.806049 
L 817.340543 0 
L 0 0 
z
" style="fill: #ffffff"/>
  </g>
  <g id="axes_1">
   <g id="patch_2">
    <path d="M 84.740543 617.04 
L 810.140543 617.04 
L 810.140543 7.2 
L 84.740543 7.2 
z
" style="fill: #ffffff"/>
   </g>
   <g id="PolyCollection_1">
    <path d="M 98.173876 44.663167 
L 98.173876 27.89859 
L 116.431039 27.89859 
L 129.758886 27.89859 
L 139.488459 27.89859 
L 146.591443 27.89859 
L 151.777195 27.89859 
L 155.563586 27.89859 
L 158.328706 27.89859 
L 160.348615 27.89859 
L 161.824883 27.89859 
L 163.003614 27.89859 
L 164.172078 27.89859 
L 165.340543 27.89859 
L 166.538108 27.89859 
L 167.735674 27.89859 
L 168.93324 27.89859 
L 170.130806 27.89859 
L 171.328372 27.89859 
L 172.525938 27.89859 
L 173.723503 27.89859 
L 174.921069 27.89859 
L 176.118635 27.89859 
L 177.316201 27.89859 
L 178.513767 27.89859 
L 179.711333 27.89859 
L 180.908899 27.89859 
L 182.106464 27.89859 
L 183.30403 27.89859 
L 184.501596 27.89859 
L 185.699162 27.89859 
L 186.896728 27.89859 
L 188.094294 27.89859 
L 189.29186 27.89859 
L 190.489425 27.89859 
L 191.686991 27.89859 
L 192.884557 27.89859 
L 194.082123 27.89859 
L 195.279689 27.89859 
L 196.477255 27.89859 
L 197.67482 27.89859 
L 198.872386 27.89859 
L 200.069952 27.89859 
L 201.267518 27.89859 
L 202.465084 27.89859 
L 203.66265 27.89859 
L 204.860216 27.89859 
L 206.057781 27.89859 
L 207.255348 27.89859 
L 208.483084 27.89859 
L 209.754687 27.89859 
L 211.072047 27.89859 
L 212.437687 27.89859 
L 213.854188 27.89859 
L 215.323037 27.89859 
L 216.846002 27.89859 
L 218.425143 27.89859 
L 220.062728 27.89859 
L 221.760188 27.89859 
L 223.519294 27.89859 
L 225.342524 27.89859 
L 227.233206 27.89859 
L 229.195102 27.89859 
L 231.22732 27.89859 
L 233.334433 27.89859 
L 235.520279 27.89859 
L 237.784986 27.89859 
L 240.13438 27.89859 
L 242.569764 27.89859 
L 245.094029 27.89859 
L 247.712249 27.89859 
L 250.426736 27.89859 
L 253.240878 27.89859 
L 256.158537 27.89859 
L 259.183659 27.89859 
L 262.320153 27.89859 
L 265.571987 27.89859 
L 268.943457 27.89859 
L 272.439589 27.89859 
L 276.064277 27.89859 
L 279.822265 27.89859 
L 283.718869 27.89859 
L 287.759142 27.89859 
L 291.947918 27.89859 
L 296.29096 27.89859 
L 300.794123 27.89859 
L 305.463282 27.89859 
L 310.304339 27.89859 
L 315.29816 27.89859 
L 320.435983 27.89859 
L 325.762941 27.89859 
L 331.286498 27.89859 
L 337.013522 27.89859 
L 342.951641 27.89859 
L 349.108683 27.89859 
L 355.492614 27.89859 
L 362.111889 27.89859 
L 368.97529 27.89859 
L 376.091697 27.89859 
L 383.470397 27.89859 
L 391.12112 27.89859 
L 398.673979 27.89859 
L 404.310899 27.89859 
L 408.325155 27.89859 
L 411.18435 27.89859 
L 413.221285 27.89859 
L 414.672799 27.89859 
L 415.813566 27.89859 
L 416.9446 27.89859 
L 418.075635 27.89859 
L 419.206669 27.89859 
L 420.337704 27.89859 
L 421.468738 27.89859 
L 422.599772 27.89859 
L 423.730807 27.89859 
L 424.861841 27.907746 
L 425.686637 28.111242 
L 426.511432 28.572309 
L 427.336227 29.095534 
L 428.161023 29.712967 
L 428.985818 30.638123 
L 429.810613 31.645858 
L 430.635409 32.533835 
L 431.460204 33.295642 
L 432.284999 33.999621 
L 433.109795 34.614567 
L 433.93459 35.1991 
L 434.759385 35.745025 
L 435.584181 36.296548 
L 436.408976 36.828559 
L 437.233772 37.347897 
L 438.058567 37.826349 
L 438.883362 38.322346 
L 439.708158 38.740997 
L 440.532953 39.198635 
L 441.357748 39.637106 
L 442.182544 40.064436 
L 443.007339 40.475826 
L 443.832134 40.848086 
L 444.65693 41.215114 
L 445.481725 41.58359 
L 446.30652 41.887611 
L 447.131316 42.163633 
L 447.956111 42.416562 
L 448.780907 42.663098 
L 449.605702 42.902076 
L 450.430497 43.128467 
L 451.255293 43.342136 
L 452.080088 43.541619 
L 452.904883 43.728947 
L 453.729679 43.906926 
L 454.554474 44.07438 
L 455.379269 44.233547 
L 456.204065 44.367371 
L 457.02886 44.484838 
L 457.853655 44.600279 
L 458.678451 44.706484 
L 459.503246 44.813537 
L 460.328042 44.919407 
L 461.152837 45.017596 
L 461.986079 45.120341 
L 462.871043 45.224289 
L 463.83368 45.318053 
L 464.871621 45.413647 
L 465.999135 45.489904 
L 467.222962 45.579692 
L 468.548834 45.672382 
L 469.987944 45.731342 
L 471.553042 45.760011 
L 473.254441 45.746066 
L 475.104338 45.706097 
L 477.116364 45.655076 
L 479.305458 45.591505 
L 481.688184 45.513141 
L 484.281608 45.407089 
L 487.10157 45.216243 
L 490.170512 44.984853 
L 493.505407 44.798118 
L 497.129228 44.670813 
L 501.060907 44.598254 
L 505.319758 44.574767 
L 509.923223 44.623964 
L 514.882622 44.73283 
L 520.200574 44.877482 
L 525.860121 45.038252 
L 531.774117 45.186011 
L 537.712644 45.329723 
L 543.651171 45.480252 
L 549.589697 45.615319 
L 555.528224 45.745259 
L 561.46675 45.931306 
L 567.405277 46.105347 
L 573.343803 46.240407 
L 579.28233 46.344171 
L 585.220857 46.431142 
L 591.159383 46.546758 
L 597.09791 46.670502 
L 603.036436 46.751867 
L 608.974963 46.690759 
L 614.913489 46.600442 
L 623.309323 46.340666 
L 631.705156 46.244125 
L 640.100989 46.128445 
L 648.496823 46.009525 
L 656.892656 45.900572 
L 665.288489 45.798299 
L 673.684323 45.715943 
L 682.080156 45.651703 
L 690.475989 45.592281 
L 698.871823 45.536829 
L 707.267656 45.483396 
L 715.663489 45.434068 
L 724.059323 45.385548 
L 732.455156 45.338786 
L 740.850989 45.29874 
L 749.246823 45.259409 
L 757.642656 45.220518 
L 766.038489 45.183266 
L 774.434323 45.149619 
L 782.830156 45.11817 
L 791.225989 45.091655 
L 799.621823 45.064429 
L 808.017656 45.040853 
L 816.413489 45.027812 
L 816.413489 65.327648 
L 816.413489 65.327648 
L 808.017656 65.321922 
L 799.621823 65.315923 
L 791.225989 65.306588 
L 782.830156 65.292189 
L 774.434323 65.274021 
L 766.038489 65.255985 
L 757.642656 65.237786 
L 749.246823 65.222265 
L 740.850989 65.204635 
L 732.455156 65.187923 
L 724.059323 65.182491 
L 715.663489 65.175872 
L 707.267656 65.164535 
L 698.871823 65.150234 
L 690.475989 65.135415 
L 682.080156 65.122237 
L 673.684323 65.118846 
L 665.288489 65.133198 
L 656.892656 65.14947 
L 648.496823 65.112713 
L 640.100989 65.091123 
L 631.705156 65.099383 
L 623.309323 65.154221 
L 614.913489 65.27369 
L 608.974963 65.27568 
L 603.036436 65.271851 
L 597.09791 65.275451 
L 591.159383 65.218594 
L 585.220857 65.152048 
L 579.28233 65.057943 
L 573.343803 64.950536 
L 567.405277 64.829193 
L 561.46675 64.68752 
L 555.528224 64.548804 
L 549.589697 64.450695 
L 543.651171 64.336814 
L 537.712644 64.226596 
L 531.774117 64.147141 
L 525.860121 64.104229 
L 520.200574 64.075906 
L 514.882622 64.068539 
L 509.923223 64.086817 
L 505.319758 64.139602 
L 501.060907 64.226671 
L 497.129228 64.343038 
L 493.505407 64.505577 
L 490.170512 64.719506 
L 487.10157 64.974999 
L 484.281608 65.183207 
L 481.688184 65.310244 
L 479.305458 65.414821 
L 477.116364 65.519507 
L 475.104338 65.622818 
L 473.254441 65.719285 
L 471.553042 65.797362 
L 469.987944 65.841519 
L 468.548834 65.86052 
L 467.222962 65.849647 
L 465.999135 65.835911 
L 464.871621 65.833247 
L 463.83368 65.80737 
L 462.871043 65.781675 
L 461.986079 65.746615 
L 461.152837 65.711345 
L 460.328042 65.681649 
L 459.503246 65.645845 
L 458.678451 65.61307 
L 457.853655 65.580292 
L 457.02886 65.539682 
L 456.204065 65.4955 
L 455.379269 65.43441 
L 454.554474 65.349252 
L 453.729679 65.252184 
L 452.904883 65.141192 
L 452.080088 65.016433 
L 451.255293 64.87769 
L 450.430497 64.724622 
L 449.605702 64.556444 
L 448.780907 64.373242 
L 447.956111 64.183033 
L 447.131316 63.990386 
L 446.30652 63.776418 
L 445.481725 63.532428 
L 444.65693 63.224396 
L 443.832134 62.917 
L 443.007339 62.596416 
L 442.182544 62.225958 
L 441.357748 61.825173 
L 440.532953 61.400456 
L 439.708158 60.946016 
L 438.883362 60.509132 
L 438.058567 59.977354 
L 437.233772 59.440495 
L 436.408976 58.845702 
L 435.584181 58.207096 
L 434.759385 57.54379 
L 433.93459 56.87234 
L 433.109795 56.13921 
L 432.284999 55.332318 
L 431.460204 54.375255 
L 430.635409 53.332135 
L 429.810613 51.982591 
L 428.985818 50.314807 
L 428.161023 48.41818 
L 427.336227 46.783366 
L 426.511432 45.638512 
L 425.686637 44.923029 
L 424.861841 44.672657 
L 423.730807 44.663167 
L 422.599772 44.663167 
L 421.468738 44.663167 
L 420.337704 44.663167 
L 419.206669 44.663167 
L 418.075635 44.663167 
L 416.9446 44.663167 
L 415.813566 44.663167 
L 414.672799 44.663167 
L 413.221285 44.663167 
L 411.18435 44.663167 
L 408.325155 44.663167 
L 404.310899 44.663167 
L 398.673979 44.663167 
L 391.12112 44.663167 
L 383.470397 44.663167 
L 376.091697 44.663167 
L 368.97529 44.663167 
L 362.111889 44.663167 
L 355.492614 44.663167 
L 349.108683 44.663167 
L 342.951641 44.663167 
L 337.013522 44.663167 
L 331.286498 44.663167 
L 325.762941 44.663167 
L 320.435983 44.663167 
L 315.29816 44.663167 
L 310.304339 44.663167 
L 305.463282 44.663167 
L 300.794123 44.663167 
L 296.29096 44.663167 
L 291.947918 44.663167 
L 287.759142 44.663167 
L 283.718869 44.663167 
L 279.822265 44.663167 
L 276.064277 44.663167 
L 272.439589 44.663167 
L 268.943457 44.663167 
L 265.571987 44.663167 
L 262.320153 44.663167 
L 259.183659 44.663167 
L 256.158537 44.663167 
L 253.240878 44.663167 
L 250.426736 44.663167 
L 247.712249 44.663167 
L 245.094029 44.663167 
L 242.569764 44.663167 
L 240.13438 44.663167 
L 237.784986 44.663167 
L 235.520279 44.663167 
L 233.334433 44.663167 
L 231.22732 44.663167 
L 229.195102 44.663167 
L 227.233206 44.663167 
L 225.342524 44.663167 
L 223.519294 44.663167 
L 221.760188 44.663167 
L 220.062728 44.663167 
L 218.425143 44.663167 
L 216.846002 44.663167 
L 215.323037 44.663167 
L 213.854188 44.663167 
L 212.437687 44.663167 
L 211.072047 44.663167 
L 209.754687 44.663167 
L 208.483084 44.663167 
L 207.255348 44.663167 
L 206.057781 44.663167 
L 204.860216 44.663167 
L 203.66265 44.663167 
L 202.465084 44.663167 
L 201.267518 44.663167 
L 200.069952 44.663167 
L 198.872386 44.663167 
L 197.67482 44.663167 
L 196.477255 44.663167 
L 195.279689 44.663167 
L 194.082123 44.663167 
L 192.884557 44.663167 
L 191.686991 44.663167 
L 190.489425 44.663167 
L 189.29186 44.663167 
L 188.094294 44.663167 
L 186.896728 44.663167 
L 185.699162 44.663167 
L 184.501596 44.663167 
L 183.30403 44.663167 
L 182.106464 44.663167 
L 180.908899 44.663167 
L 179.711333 44.663167 
L 178.513767 44.663167 
L 177.316201 44.663167 
L 176.118635 44.663167 
L 174.921069 44.663167 
L 173.723503 44.663167 
L 172.525938 44.663167 
L 171.328372 44.663167 
L 170.130806 44.663167 
L 168.93324 44.663167 
L 167.735674 44.663167 
L 166.538108 44.663167 
L 165.340543 44.663167 
L 164.172078 44.663167 
L 163.003614 44.663167 
L 161.824883 44.663167 
L 160.348615 44.663167 
L 158.328706 44.663167 
L 155.563586 44.663167 
L 151.777195 44.663167 
L 146.591443 44.663167 
L 139.488459 44.663167 
L 129.758886 44.663167 
L 116.431039 44.663167 
L 98.173876 44.663167 
z
" clip-path="url(#p12e074e028)" style="fill: #008000; fill-opacity: 0.2"/>
   </g>
   <g id="PolyCollection_2">
    <path d="M 98.173876 448.392061 
L 98.173876 431.627484 
L 116.431039 431.627484 
L 129.758886 431.627484 
L 139.488459 431.627484 
L 146.591443 431.627484 
L 151.777195 431.627484 
L 155.563586 431.627484 
L 158.328706 431.627484 
L 160.348615 431.627484 
L 161.824883 431.627484 
L 163.003614 431.627484 
L 164.172078 431.627484 
L 165.340543 431.627484 
L 166.538108 431.627484 
L 167.735674 431.627484 
L 168.93324 431.627484 
L 170.130806 431.627484 
L 171.328372 431.627484 
L 172.525938 431.627484 
L 173.723503 431.627484 
L 174.921069 431.627484 
L 176.118635 431.627484 
L 177.316201 431.627484 
L 178.513767 431.627484 
L 179.711333 431.627484 
L 180.908899 431.627484 
L 182.106464 431.627484 
L 183.30403 431.627484 
L 184.501596 431.627484 
L 185.699162 431.627484 
L 186.896728 431.627484 
L 188.094294 431.627484 
L 189.29186 431.627484 
L 190.489425 431.627484 
L 191.686991 431.627484 
L 192.884557 431.627484 
L 194.082123 431.627484 
L 195.279689 431.627484 
L 196.477255 431.627484 
L 197.67482 431.627484 
L 198.872386 431.627484 
L 200.069952 431.627484 
L 201.267518 431.627484 
L 202.465084 431.627484 
L 203.66265 431.627484 
L 204.860216 431.627484 
L 206.057781 431.627484 
L 207.255348 431.627484 
L 208.483084 431.627484 
L 209.754687 431.627484 
L 211.072047 431.627484 
L 212.437687 431.627484 
L 213.854188 431.627484 
L 215.323037 431.627484 
L 216.846002 431.627484 
L 218.425143 431.627484 
L 220.062728 431.627484 
L 221.760188 431.627484 
L 223.519294 431.627484 
L 225.342524 431.627484 
L 227.233206 431.627484 
L 229.195102 431.627484 
L 231.22732 431.627484 
L 233.334433 431.627484 
L 235.520279 431.627484 
L 237.784986 431.627484 
L 240.13438 431.627484 
L 242.569764 431.627484 
L 245.094029 431.627484 
L 247.712249 431.627484 
L 250.426736 431.627484 
L 253.240878 431.627484 
L 256.158537 431.627484 
L 259.183659 431.627484 
L 262.320153 431.627484 
L 265.571987 431.627484 
L 268.943457 431.627484 
L 272.439589 431.627484 
L 276.064277 431.627484 
L 279.822265 431.627484 
L 283.718869 431.627484 
L 287.759142 431.627484 
L 291.947918 431.627484 
L 296.29096 431.627484 
L 300.794123 431.627484 
L 305.463282 431.627484 
L 310.304339 431.627484 
L 315.29816 431.627484 
L 320.435983 431.627484 
L 325.762941 431.627484 
L 331.286498 431.627484 
L 337.013522 431.627484 
L 342.951641 431.627484 
L 349.108683 431.627484 
L 355.492614 431.627484 
L 362.111889 431.627484 
L 368.97529 431.627484 
L 376.091697 431.627484 
L 383.470397 431.627484 
L 391.12112 431.627484 
L 398.673979 431.627484 
L 404.310899 431.627484 
L 408.325155 431.627484 
L 411.18435 431.627484 
L 413.221285 431.627485 
L 414.672799 431.627485 
L 415.813566 431.627485 
L 416.9446 431.627485 
L 418.075635 431.627485 
L 419.206669 431.627485 
L 420.337704 431.627485 
L 421.468738 431.627485 
L 422.599772 431.627485 
L 423.730807 431.627485 
L 424.861841 431.674949 
L 425.686637 432.565604 
L 426.511432 434.391338 
L 427.336227 436.422071 
L 428.161023 438.953873 
L 428.985818 443.269957 
L 429.810613 448.069242 
L 430.635409 452.106995 
L 431.460204 455.599934 
L 432.284999 458.775691 
L 433.109795 461.548175 
L 433.93459 464.176556 
L 434.759385 466.653243 
L 435.584181 469.188891 
L 436.408976 471.584021 
L 437.233772 474.033154 
L 438.058567 476.269672 
L 438.883362 478.597457 
L 439.708158 480.534573 
L 440.532953 482.665401 
L 441.357748 484.697959 
L 442.182544 486.683132 
L 443.007339 488.598342 
L 443.832134 490.33469 
L 444.65693 492.029154 
L 445.481725 493.727323 
L 446.30652 495.130282 
L 447.131316 496.406312 
L 447.956111 497.580121 
L 448.780907 498.715693 
L 449.605702 499.809868 
L 450.430497 500.834681 
L 451.255293 501.778168 
L 452.080088 502.65475 
L 452.904883 503.466957 
L 453.729679 504.238614 
L 454.554474 504.965813 
L 455.379269 505.65821 
L 456.204065 506.252258 
L 457.02886 506.765147 
L 457.853655 507.272407 
L 458.678451 507.732231 
L 459.503246 508.240741 
L 460.328042 508.759864 
L 461.152837 509.289894 
L 461.986079 509.85184 
L 462.871043 510.43711 
L 463.83368 510.992918 
L 464.871621 511.579424 
L 465.999135 512.096544 
L 467.222962 512.633361 
L 468.548834 513.19932 
L 469.987944 513.666436 
L 471.553042 513.997304 
L 473.254441 514.159605 
L 475.104338 514.210755 
L 477.116364 514.158956 
L 479.305458 513.986414 
L 481.688184 513.672168 
L 484.281608 513.18442 
L 487.10157 512.254595 
L 490.170512 511.012198 
L 493.505407 510.030094 
L 497.129228 509.339974 
L 501.060907 508.966066 
L 505.319758 508.944489 
L 509.923223 509.298565 
L 514.882622 509.88624 
L 520.200574 510.688629 
L 525.860121 511.676527 
L 531.774117 512.804594 
L 537.712644 514.103351 
L 543.651171 515.568897 
L 549.589697 517.218108 
L 555.528224 519.203717 
L 561.46675 521.998735 
L 567.405277 524.970361 
L 573.343803 527.538054 
L 579.28233 529.749464 
L 585.220857 531.927371 
L 591.159383 534.592605 
L 597.09791 537.425664 
L 603.036436 540.448829 
L 608.974963 543.346649 
L 614.913489 545.125351 
L 623.309323 545.517038 
L 631.705156 545.711954 
L 640.100989 545.910219 
L 648.496823 546.09629 
L 656.892656 546.276503 
L 665.288489 546.4767 
L 673.684323 546.617348 
L 682.080156 546.720287 
L 690.475989 546.808819 
L 698.871823 546.886968 
L 707.267656 546.961918 
L 715.663489 547.036305 
L 724.059323 547.114656 
L 732.455156 547.187458 
L 740.850989 547.236615 
L 749.246823 547.286012 
L 757.642656 547.327596 
L 766.038489 547.364792 
L 774.434323 547.398237 
L 782.830156 547.434172 
L 791.225989 547.468001 
L 799.621823 547.502303 
L 808.017656 547.531297 
L 816.413489 547.551632 
L 816.413489 580.224212 
L 816.413489 580.224212 
L 808.017656 580.212994 
L 799.621823 580.197438 
L 791.225989 580.181513 
L 782.830156 580.17211 
L 774.434323 580.16675 
L 766.038489 580.162664 
L 757.642656 580.158642 
L 749.246823 580.15249 
L 740.850989 580.146144 
L 732.455156 580.138884 
L 724.059323 580.105156 
L 715.663489 580.068794 
L 707.267656 580.041666 
L 698.871823 580.019347 
L 690.475989 579.997474 
L 682.080156 579.970802 
L 673.684323 579.926652 
L 665.288489 579.849097 
L 656.892656 579.74261 
L 648.496823 579.716099 
L 640.100989 579.696278 
L 631.705156 579.66321 
L 623.309323 579.567888 
L 614.913489 579.442106 
L 608.974963 578.326463 
L 603.036436 576.389603 
L 597.09791 574.543729 
L 591.159383 572.965793 
L 585.220857 571.521671 
L 579.28233 570.477523 
L 573.343803 569.320818 
L 567.405277 567.816238 
L 561.46675 565.928557 
L 555.528224 564.24185 
L 549.589697 563.23666 
L 543.651171 562.450835 
L 537.712644 561.912265 
L 531.774117 561.623193 
L 525.860121 561.498314 
L 520.200574 561.308998 
L 514.882622 561.04503 
L 509.923223 560.726765 
L 505.319758 560.475428 
L 501.060907 560.433502 
L 497.129228 560.630008 
L 493.505407 561.082168 
L 490.170512 561.819717 
L 487.10157 562.841342 
L 484.281608 563.535045 
L 481.688184 563.813244 
L 479.305458 563.969996 
L 477.116364 564.063914 
L 475.104338 564.091532 
L 473.254441 564.045855 
L 471.553042 563.929589 
L 469.987944 563.696402 
L 468.548834 563.368111 
L 467.222962 562.976249 
L 465.999135 562.606013 
L 464.871621 562.264691 
L 463.83368 561.864378 
L 462.871043 561.497219 
L 461.986079 561.104434 
L 461.152837 560.727598 
L 460.328042 560.389889 
L 459.503246 560.075679 
L 458.678451 559.769969 
L 457.853655 559.50774 
L 457.02886 559.19509 
L 456.204065 558.878354 
L 455.379269 558.478877 
L 454.554474 557.984942 
L 453.729679 557.440091 
L 452.904883 556.836578 
L 452.080088 556.164523 
L 451.255293 555.456024 
L 450.430497 554.689645 
L 449.605702 553.834923 
L 448.780907 552.902692 
L 447.956111 551.945231 
L 447.131316 550.976725 
L 446.30652 549.909134 
L 445.481725 548.706696 
L 444.65693 547.205503 
L 443.832134 545.695467 
L 443.007339 544.080507 
L 442.182544 542.221717 
L 441.357748 540.208347 
L 440.532953 538.074889 
L 439.708158 535.767616 
L 438.883362 533.502784 
L 438.058567 530.723945 
L 437.233772 527.829296 
L 436.408976 524.593602 
L 435.584181 521.12781 
L 434.759385 517.427791 
L 433.93459 513.622581 
L 433.109795 509.419821 
L 432.284999 504.743185 
L 431.460204 499.210515 
L 430.635409 493.209204 
L 429.810613 485.54904 
L 428.985818 476.631818 
L 428.161023 466.901582 
L 427.336227 458.571108 
L 426.511432 452.84706 
L 425.686637 449.468466 
L 424.861841 448.436734 
L 423.730807 448.392061 
L 422.599772 448.392061 
L 421.468738 448.392061 
L 420.337704 448.392061 
L 419.206669 448.392061 
L 418.075635 448.392061 
L 416.9446 448.392061 
L 415.813566 448.392061 
L 414.672799 448.392061 
L 413.221285 448.392061 
L 411.18435 448.392061 
L 408.325155 448.392061 
L 404.310899 448.392061 
L 398.673979 448.392061 
L 391.12112 448.392061 
L 383.470397 448.392061 
L 376.091697 448.392061 
L 368.97529 448.392061 
L 362.111889 448.392061 
L 355.492614 448.392061 
L 349.108683 448.392061 
L 342.951641 448.392061 
L 337.013522 448.392061 
L 331.286498 448.392061 
L 325.762941 448.392061 
L 320.435983 448.392061 
L 315.29816 448.392061 
L 310.304339 448.392061 
L 305.463282 448.392061 
L 300.794123 448.392061 
L 296.29096 448.392061 
L 291.947918 448.392061 
L 287.759142 448.392061 
L 283.718869 448.392061 
L 279.822265 448.392061 
L 276.064277 448.392061 
L 272.439589 448.392061 
L 268.943457 448.392061 
L 265.571987 448.392061 
L 262.320153 448.392061 
L 259.183659 448.392061 
L 256.158537 448.392061 
L 253.240878 448.392061 
L 250.426736 448.392061 
L 247.712249 448.392061 
L 245.094029 448.392061 
L 242.569764 448.392061 
L 240.13438 448.392061 
L 237.784986 448.392061 
L 235.520279 448.392061 
L 233.334433 448.392061 
L 231.22732 448.392061 
L 229.195102 448.392061 
L 227.233206 448.392061 
L 225.342524 448.392061 
L 223.519294 448.392061 
L 221.760188 448.392061 
L 220.062728 448.392061 
L 218.425143 448.392061 
L 216.846002 448.392061 
L 215.323037 448.392061 
L 213.854188 448.392061 
L 212.437687 448.392061 
L 211.072047 448.392061 
L 209.754687 448.392061 
L 208.483084 448.392061 
L 207.255348 448.392061 
L 206.057781 448.392061 
L 204.860216 448.392061 
L 203.66265 448.392061 
L 202.465084 448.392061 
L 201.267518 448.392061 
L 200.069952 448.392061 
L 198.872386 448.392061 
L 197.67482 448.392061 
L 196.477255 448.392061 
L 195.279689 448.392061 
L 194.082123 448.392061 
L 192.884557 448.392061 
L 191.686991 448.392061 
L 190.489425 448.392061 
L 189.29186 448.392061 
L 188.094294 448.392061 
L 186.896728 448.392061 
L 185.699162 448.392061 
L 184.501596 448.392061 
L 183.30403 448.392061 
L 182.106464 448.392061 
L 180.908899 448.392061 
L 179.711333 448.392061 
L 178.513767 448.392061 
L 177.316201 448.392061 
L 176.118635 448.392061 
L 174.921069 448.392061 
L 173.723503 448.392061 
L 172.525938 448.392061 
L 171.328372 448.392061 
L 170.130806 448.392061 
L 168.93324 448.392061 
L 167.735674 448.392061 
L 166.538108 448.392061 
L 165.340543 448.392061 
L 164.172078 448.392061 
L 163.003614 448.392061 
L 161.824883 448.392061 
L 160.348615 448.392061 
L 158.328706 448.392061 
L 155.563586 448.392061 
L 151.777195 448.392061 
L 146.591443 448.392061 
L 139.488459 448.392061 
L 129.758886 448.392061 
L 116.431039 448.392061 
L 98.173876 448.392061 
z
" clip-path="url(#p12e074e028)" style="fill: #99ccff; fill-opacity: 0.7"/>
   </g>
   <g id="matplotlib.axis_1">
    <g id="xtick_1">
     <g id="line2d_1">
      <path d="M 165.340543 617.04 
L 165.340543 7.2 
" clip-path="url(#p12e074e028)" style="fill: none; stroke: #b0b0b0; stroke-width: 0.8; stroke-linecap: square"/>
     </g>
     <g id="line2d_2">
      <defs>
       <path id="mc5f4849246" d="M 0 0 
L 0 3.5 
" style="stroke: #000000; stroke-width: 0.8"/>
      </defs>
      <g>
       <use xlink:href="#mc5f4849246" x="165.340543" y="617.04" style="stroke: #000000; stroke-width: 0.8"/>
      </g>
     </g>
     <g id="text_1">
      <!-- $\mathdefault{0.0}$ -->
      <g transform="translate(147.568823 644.795495) scale(0.3 -0.3)">
       <defs>
        <path id="CMR17-30" d="M 2688 2025 
C 2688 2416 2682 3080 2413 3591 
C 2176 4039 1798 4198 1466 4198 
C 1158 4198 768 4058 525 3597 
C 269 3118 243 2524 243 2025 
C 243 1661 250 1106 448 619 
C 723 -39 1216 -128 1466 -128 
C 1760 -128 2208 -7 2470 600 
C 2662 1042 2688 1559 2688 2025 
z
M 1466 -26 
C 1056 -26 813 325 723 812 
C 653 1188 653 1738 653 2096 
C 653 2588 653 2997 736 3387 
C 858 3929 1216 4096 1466 4096 
C 1728 4096 2067 3923 2189 3400 
C 2272 3036 2278 2607 2278 2096 
C 2278 1680 2278 1169 2202 792 
C 2067 95 1690 -26 1466 -26 
z
" transform="scale(0.015625)"/>
        <path id="CMMI12-3a" d="M 1178 307 
C 1178 492 1024 619 870 619 
C 685 619 557 466 557 313 
C 557 128 710 0 864 0 
C 1050 0 1178 153 1178 307 
z
" transform="scale(0.015625)"/>
       </defs>
       <use xlink:href="#CMR17-30" transform="scale(0.996264)"/>
       <use xlink:href="#CMMI12-3a" transform="translate(45.690477 0) scale(0.996264)"/>
       <use xlink:href="#CMR17-30" transform="translate(72.787654 0) scale(0.996264)"/>
      </g>
     </g>
    </g>
    <g id="xtick_2">
     <g id="line2d_3">
      <path d="M 299.673876 617.04 
L 299.673876 7.2 
" clip-path="url(#p12e074e028)" style="fill: none; stroke: #b0b0b0; stroke-width: 0.8; stroke-linecap: square"/>
     </g>
     <g id="line2d_4">
      <g>
       <use xlink:href="#mc5f4849246" x="299.673876" y="617.04" style="stroke: #000000; stroke-width: 0.8"/>
      </g>
     </g>
     <g id="text_2">
      <!-- $\mathdefault{0.1}$ -->
      <g transform="translate(281.902156 644.795495) scale(0.3 -0.3)">
       <defs>
        <path id="CMR17-31" d="M 1702 4058 
C 1702 4192 1696 4192 1606 4192 
C 1357 3916 979 3827 621 3827 
C 602 3827 570 3827 563 3808 
C 557 3795 557 3782 557 3648 
C 755 3648 1088 3686 1344 3839 
L 1344 461 
C 1344 236 1331 160 781 160 
L 589 160 
L 589 0 
C 896 0 1216 0 1523 0 
C 1830 0 2150 0 2458 0 
L 2458 160 
L 2266 160 
C 1715 160 1702 230 1702 458 
L 1702 4058 
z
" transform="scale(0.015625)"/>
       </defs>
       <use xlink:href="#CMR17-30" transform="scale(0.996264)"/>
       <use xlink:href="#CMMI12-3a" transform="translate(45.690477 0) scale(0.996264)"/>
       <use xlink:href="#CMR17-31" transform="translate(72.787654 0) scale(0.996264)"/>
      </g>
     </g>
    </g>
    <g id="xtick_3">
     <g id="line2d_5">
      <path d="M 434.007209 617.04 
L 434.007209 7.2 
" clip-path="url(#p12e074e028)" style="fill: none; stroke: #b0b0b0; stroke-width: 0.8; stroke-linecap: square"/>
     </g>
     <g id="line2d_6">
      <g>
       <use xlink:href="#mc5f4849246" x="434.007209" y="617.04" style="stroke: #000000; stroke-width: 0.8"/>
      </g>
     </g>
     <g id="text_3">
      <!-- $\mathdefault{0.2}$ -->
      <g transform="translate(416.23549 644.795495) scale(0.3 -0.3)">
       <defs>
        <path id="CMR17-32" d="M 2669 989 
L 2554 989 
C 2490 536 2438 459 2413 420 
C 2381 369 1920 369 1830 369 
L 602 369 
C 832 619 1280 1072 1824 1597 
C 2214 1967 2669 2402 2669 3035 
C 2669 3790 2067 4224 1395 4224 
C 691 4224 262 3604 262 3030 
C 262 2780 448 2748 525 2748 
C 589 2748 781 2787 781 3010 
C 781 3207 614 3264 525 3264 
C 486 3264 448 3258 422 3245 
C 544 3790 915 4058 1306 4058 
C 1862 4058 2227 3617 2227 3035 
C 2227 2479 1901 2000 1536 1584 
L 262 146 
L 262 0 
L 2515 0 
L 2669 989 
z
" transform="scale(0.015625)"/>
       </defs>
       <use xlink:href="#CMR17-30" transform="scale(0.996264)"/>
       <use xlink:href="#CMMI12-3a" transform="translate(45.690477 0) scale(0.996264)"/>
       <use xlink:href="#CMR17-32" transform="translate(72.787654 0) scale(0.996264)"/>
      </g>
     </g>
    </g>
    <g id="xtick_4">
     <g id="line2d_7">
      <path d="M 568.340543 617.04 
L 568.340543 7.2 
" clip-path="url(#p12e074e028)" style="fill: none; stroke: #b0b0b0; stroke-width: 0.8; stroke-linecap: square"/>
     </g>
     <g id="line2d_8">
      <g>
       <use xlink:href="#mc5f4849246" x="568.340543" y="617.04" style="stroke: #000000; stroke-width: 0.8"/>
      </g>
     </g>
     <g id="text_4">
      <!-- $\mathdefault{0.3}$ -->
      <g transform="translate(550.568823 644.795495) scale(0.3 -0.3)">
       <defs>
        <path id="CMR17-33" d="M 1414 2157 
C 1984 2157 2234 1662 2234 1090 
C 2234 320 1824 25 1453 25 
C 1114 25 563 194 390 693 
C 422 680 454 680 486 680 
C 640 680 755 782 755 948 
C 755 1133 614 1216 486 1216 
C 378 1216 211 1165 211 926 
C 211 335 787 -128 1466 -128 
C 2176 -128 2720 430 2720 1085 
C 2720 1707 2208 2157 1600 2227 
C 2086 2328 2554 2756 2554 3329 
C 2554 3820 2048 4179 1472 4179 
C 890 4179 378 3829 378 3329 
C 378 3110 544 3072 627 3072 
C 762 3072 877 3155 877 3321 
C 877 3486 762 3569 627 3569 
C 602 3569 570 3569 544 3557 
C 730 3959 1235 4032 1459 4032 
C 1683 4032 2106 3925 2106 3320 
C 2106 3143 2080 2828 1862 2550 
C 1670 2304 1453 2304 1242 2284 
C 1210 2284 1062 2269 1037 2269 
C 992 2263 966 2257 966 2208 
C 966 2163 973 2157 1101 2157 
L 1414 2157 
z
" transform="scale(0.015625)"/>
       </defs>
       <use xlink:href="#CMR17-30" transform="scale(0.996264)"/>
       <use xlink:href="#CMMI12-3a" transform="translate(45.690477 0) scale(0.996264)"/>
       <use xlink:href="#CMR17-33" transform="translate(72.787654 0) scale(0.996264)"/>
      </g>
     </g>
    </g>
    <g id="xtick_5">
     <g id="line2d_9">
      <path d="M 702.673876 617.04 
L 702.673876 7.2 
" clip-path="url(#p12e074e028)" style="fill: none; stroke: #b0b0b0; stroke-width: 0.8; stroke-linecap: square"/>
     </g>
     <g id="line2d_10">
      <g>
       <use xlink:href="#mc5f4849246" x="702.673876" y="617.04" style="stroke: #000000; stroke-width: 0.8"/>
      </g>
     </g>
     <g id="text_5">
      <!-- $\mathdefault{0.4}$ -->
      <g transform="translate(684.902156 644.795495) scale(0.3 -0.3)">
       <defs>
        <path id="CMR17-34" d="M 2150 4122 
C 2150 4256 2144 4256 2029 4256 
L 128 1254 
L 128 1088 
L 1779 1088 
L 1779 457 
C 1779 224 1766 160 1318 160 
L 1197 160 
L 1197 0 
C 1402 0 1747 0 1965 0 
C 2182 0 2528 0 2733 0 
L 2733 160 
L 2611 160 
C 2163 160 2150 224 2150 457 
L 2150 1088 
L 2803 1088 
L 2803 1254 
L 2150 1254 
L 2150 4122 
z
M 1798 3703 
L 1798 1254 
L 256 1254 
L 1798 3703 
z
" transform="scale(0.015625)"/>
       </defs>
       <use xlink:href="#CMR17-30" transform="scale(0.996264)"/>
       <use xlink:href="#CMMI12-3a" transform="translate(45.690477 0) scale(0.996264)"/>
       <use xlink:href="#CMR17-34" transform="translate(72.787654 0) scale(0.996264)"/>
      </g>
     </g>
    </g>
    <g id="text_6">
     <!-- $x, \; \mathrm{m} $ -->
     <g transform="translate(411.787939 678.823697) scale(0.35 -0.35)">
      <defs>
       <path id="CMMI12-78" d="M 3034 2606 
C 2829 2567 2752 2414 2752 2293 
C 2752 2139 2874 2088 2963 2088 
C 3155 2088 3290 2254 3290 2427 
C 3290 2695 2982 2816 2714 2816 
C 2323 2816 2106 2433 2048 2312 
C 1901 2816 1504 2816 1389 2816 
C 736 2816 390 1980 390 1839 
C 390 1814 416 1782 461 1782 
C 512 1782 525 1820 538 1846 
C 755 2555 1184 2689 1370 2689 
C 1658 2689 1715 2420 1715 2267 
C 1715 2127 1677 1980 1600 1673 
L 1382 798 
C 1286 415 1101 64 762 64 
C 730 64 570 64 435 147 
C 666 192 717 383 717 460 
C 717 588 621 664 499 664 
C 346 664 179 530 179 326 
C 179 57 480 -64 755 -64 
C 1062 -64 1280 179 1414 441 
C 1517 64 1837 -64 2074 -64 
C 2726 -64 3072 773 3072 913 
C 3072 945 3046 971 3008 971 
C 2950 971 2944 939 2925 888 
C 2752 326 2381 64 2093 64 
C 1869 64 1747 230 1747 492 
C 1747 632 1773 734 1875 1156 
L 2099 2024 
C 2195 2408 2413 2689 2707 2689 
C 2720 2689 2899 2689 3034 2606 
z
" transform="scale(0.015625)"/>
       <path id="CMMI12-3b" d="M 1248 -31 
C 1248 343 1126 619 864 619 
C 659 619 557 453 557 313 
C 557 172 653 0 870 0 
C 954 0 1024 26 1082 83 
C 1094 96 1101 96 1107 96 
C 1120 96 1120 5 1120 -27 
C 1120 -240 1082 -659 710 -1080 
C 640 -1157 640 -1170 640 -1183 
C 640 -1216 672 -1248 704 -1248 
C 755 -1248 1248 -771 1248 -31 
z
" transform="scale(0.015625)"/>
       <path id="CMR17-6d" d="M 4326 1933 
C 4326 2252 4269 2790 3507 2790 
C 3072 2790 2771 2496 2656 2151 
L 2650 2151 
C 2573 2676 2195 2790 1837 2790 
C 1331 2790 1069 2400 973 2144 
L 966 2144 
L 966 2790 
L 211 2720 
L 211 2554 
C 589 2554 646 2515 646 2208 
L 646 428 
C 646 184 621 153 211 153 
L 211 -13 
C 365 0 646 0 813 0 
C 979 0 1267 0 1421 -13 
L 1421 153 
C 1011 153 986 178 986 428 
L 986 1658 
C 986 2247 1344 2688 1792 2688 
C 2266 2688 2317 2266 2317 1958 
L 2317 428 
C 2317 184 2291 153 1882 153 
L 1882 -13 
C 2035 0 2317 0 2483 0 
C 2650 0 2938 0 3091 -13 
L 3091 153 
C 2682 153 2656 178 2656 428 
L 2656 1658 
C 2656 2247 3014 2688 3462 2688 
C 3936 2688 3987 2266 3987 1958 
L 3987 428 
C 3987 184 3962 153 3552 153 
L 3552 -13 
C 3706 0 3987 0 4154 0 
C 4320 0 4608 0 4762 -13 
L 4762 153 
C 4352 153 4326 178 4326 428 
L 4326 1933 
z
" transform="scale(0.015625)"/>
      </defs>
      <use xlink:href="#CMMI12-78" transform="scale(0.996264)"/>
      <use xlink:href="#CMMI12-3b" transform="translate(55.43406 0) scale(0.996264)"/>
      <use xlink:href="#CMR17-6d" transform="translate(126.809651 0) scale(0.996264)"/>
     </g>
    </g>
   </g>
   <g id="matplotlib.axis_2">
    <g id="ytick_1">
     <g id="line2d_11">
      <path d="M 84.740543 598.997396 
L 810.140543 598.997396 
" clip-path="url(#p12e074e028)" style="fill: none; stroke: #b0b0b0; stroke-width: 0.8; stroke-linecap: square"/>
     </g>
     <g id="line2d_12">
      <defs>
       <path id="m19c71d4b7a" d="M 0 0 
L -3.5 0 
" style="stroke: #000000; stroke-width: 0.8"/>
      </defs>
      <g>
       <use xlink:href="#m19c71d4b7a" x="84.740543" y="598.997396" style="stroke: #000000; stroke-width: 0.8"/>
      </g>
     </g>
     <g id="text_7">
      <!-- $\mathdefault{0.0}$ -->
      <g transform="translate(42.197103 609.375144) scale(0.3 -0.3)">
       <use xlink:href="#CMR17-30" transform="scale(0.996264)"/>
       <use xlink:href="#CMMI12-3a" transform="translate(45.690477 0) scale(0.996264)"/>
       <use xlink:href="#CMR17-30" transform="translate(72.787654 0) scale(0.996264)"/>
      </g>
     </g>
    </g>
    <g id="ytick_2">
     <g id="line2d_13">
      <path d="M 84.740543 526.826982 
L 810.140543 526.826982 
" clip-path="url(#p12e074e028)" style="fill: none; stroke: #b0b0b0; stroke-width: 0.8; stroke-linecap: square"/>
     </g>
     <g id="line2d_14">
      <g>
       <use xlink:href="#m19c71d4b7a" x="84.740543" y="526.826982" style="stroke: #000000; stroke-width: 0.8"/>
      </g>
     </g>
     <g id="text_8">
      <!-- $\mathdefault{0.1}$ -->
      <g transform="translate(42.197103 537.20473) scale(0.3 -0.3)">
       <use xlink:href="#CMR17-30" transform="scale(0.996264)"/>
       <use xlink:href="#CMMI12-3a" transform="translate(45.690477 0) scale(0.996264)"/>
       <use xlink:href="#CMR17-31" transform="translate(72.787654 0) scale(0.996264)"/>
      </g>
     </g>
    </g>
    <g id="ytick_3">
     <g id="line2d_15">
      <path d="M 84.740543 454.656568 
L 810.140543 454.656568 
" clip-path="url(#p12e074e028)" style="fill: none; stroke: #b0b0b0; stroke-width: 0.8; stroke-linecap: square"/>
     </g>
     <g id="line2d_16">
      <g>
       <use xlink:href="#m19c71d4b7a" x="84.740543" y="454.656568" style="stroke: #000000; stroke-width: 0.8"/>
      </g>
     </g>
     <g id="text_9">
      <!-- $\mathdefault{0.2}$ -->
      <g transform="translate(42.197103 465.034316) scale(0.3 -0.3)">
       <use xlink:href="#CMR17-30" transform="scale(0.996264)"/>
       <use xlink:href="#CMMI12-3a" transform="translate(45.690477 0) scale(0.996264)"/>
       <use xlink:href="#CMR17-32" transform="translate(72.787654 0) scale(0.996264)"/>
      </g>
     </g>
    </g>
    <g id="ytick_4">
     <g id="line2d_17">
      <path d="M 84.740543 382.486154 
L 810.140543 382.486154 
" clip-path="url(#p12e074e028)" style="fill: none; stroke: #b0b0b0; stroke-width: 0.8; stroke-linecap: square"/>
     </g>
     <g id="line2d_18">
      <g>
       <use xlink:href="#m19c71d4b7a" x="84.740543" y="382.486154" style="stroke: #000000; stroke-width: 0.8"/>
      </g>
     </g>
     <g id="text_10">
      <!-- $\mathdefault{0.3}$ -->
      <g transform="translate(42.197103 392.863901) scale(0.3 -0.3)">
       <use xlink:href="#CMR17-30" transform="scale(0.996264)"/>
       <use xlink:href="#CMMI12-3a" transform="translate(45.690477 0) scale(0.996264)"/>
       <use xlink:href="#CMR17-33" transform="translate(72.787654 0) scale(0.996264)"/>
      </g>
     </g>
    </g>
    <g id="ytick_5">
     <g id="line2d_19">
      <path d="M 84.740543 310.31574 
L 810.140543 310.31574 
" clip-path="url(#p12e074e028)" style="fill: none; stroke: #b0b0b0; stroke-width: 0.8; stroke-linecap: square"/>
     </g>
     <g id="line2d_20">
      <g>
       <use xlink:href="#m19c71d4b7a" x="84.740543" y="310.31574" style="stroke: #000000; stroke-width: 0.8"/>
      </g>
     </g>
     <g id="text_11">
      <!-- $\mathdefault{0.4}$ -->
      <g transform="translate(42.197103 320.693487) scale(0.3 -0.3)">
       <use xlink:href="#CMR17-30" transform="scale(0.996264)"/>
       <use xlink:href="#CMMI12-3a" transform="translate(45.690477 0) scale(0.996264)"/>
       <use xlink:href="#CMR17-34" transform="translate(72.787654 0) scale(0.996264)"/>
      </g>
     </g>
    </g>
    <g id="ytick_6">
     <g id="line2d_21">
      <path d="M 84.740543 238.145325 
L 810.140543 238.145325 
" clip-path="url(#p12e074e028)" style="fill: none; stroke: #b0b0b0; stroke-width: 0.8; stroke-linecap: square"/>
     </g>
     <g id="line2d_22">
      <g>
       <use xlink:href="#m19c71d4b7a" x="84.740543" y="238.145325" style="stroke: #000000; stroke-width: 0.8"/>
      </g>
     </g>
     <g id="text_12">
      <!-- $\mathdefault{0.5}$ -->
      <g transform="translate(42.197103 248.523073) scale(0.3 -0.3)">
       <defs>
        <path id="CMR17-35" d="M 730 3692 
C 794 3666 1056 3584 1325 3584 
C 1920 3584 2246 3911 2432 4100 
C 2432 4157 2432 4192 2394 4192 
C 2387 4192 2374 4192 2323 4163 
C 2099 4058 1837 3973 1517 3973 
C 1325 3973 1037 3999 723 4139 
C 653 4171 640 4171 634 4171 
C 602 4171 595 4164 595 4037 
L 595 2203 
C 595 2089 595 2057 659 2057 
C 691 2057 704 2070 736 2114 
C 941 2401 1222 2522 1542 2522 
C 1766 2522 2246 2382 2246 1289 
C 2246 1085 2246 715 2054 421 
C 1894 159 1645 25 1370 25 
C 947 25 518 320 403 814 
C 429 807 480 795 506 795 
C 589 795 749 840 749 1038 
C 749 1210 627 1280 506 1280 
C 358 1280 262 1190 262 1011 
C 262 454 704 -128 1382 -128 
C 2042 -128 2669 440 2669 1264 
C 2669 2030 2170 2624 1549 2624 
C 1222 2624 947 2503 730 2274 
L 730 3692 
z
" transform="scale(0.015625)"/>
       </defs>
       <use xlink:href="#CMR17-30" transform="scale(0.996264)"/>
       <use xlink:href="#CMMI12-3a" transform="translate(45.690477 0) scale(0.996264)"/>
       <use xlink:href="#CMR17-35" transform="translate(72.787654 0) scale(0.996264)"/>
      </g>
     </g>
    </g>
    <g id="ytick_7">
     <g id="line2d_23">
      <path d="M 84.740543 165.974911 
L 810.140543 165.974911 
" clip-path="url(#p12e074e028)" style="fill: none; stroke: #b0b0b0; stroke-width: 0.8; stroke-linecap: square"/>
     </g>
     <g id="line2d_24">
      <g>
       <use xlink:href="#m19c71d4b7a" x="84.740543" y="165.974911" style="stroke: #000000; stroke-width: 0.8"/>
      </g>
     </g>
     <g id="text_13">
      <!-- $\mathdefault{0.6}$ -->
      <g transform="translate(42.197103 176.352659) scale(0.3 -0.3)">
       <defs>
        <path id="CMR17-36" d="M 678 2176 
C 678 3690 1395 4032 1811 4032 
C 1946 4032 2272 4009 2400 3776 
C 2298 3776 2106 3776 2106 3553 
C 2106 3381 2246 3323 2336 3323 
C 2394 3323 2566 3348 2566 3560 
C 2566 3954 2246 4179 1805 4179 
C 1043 4179 243 3390 243 1984 
C 243 253 966 -128 1478 -128 
C 2099 -128 2688 427 2688 1283 
C 2688 2081 2170 2662 1517 2662 
C 1126 2662 838 2407 678 1960 
L 678 2176 
z
M 1478 25 
C 691 25 691 1200 691 1436 
C 691 1896 909 2560 1504 2560 
C 1613 2560 1926 2560 2138 2120 
C 2253 1870 2253 1609 2253 1289 
C 2253 944 2253 690 2118 434 
C 1978 171 1773 25 1478 25 
z
" transform="scale(0.015625)"/>
       </defs>
       <use xlink:href="#CMR17-30" transform="scale(0.996264)"/>
       <use xlink:href="#CMMI12-3a" transform="translate(45.690477 0) scale(0.996264)"/>
       <use xlink:href="#CMR17-36" transform="translate(72.787654 0) scale(0.996264)"/>
      </g>
     </g>
    </g>
    <g id="ytick_8">
     <g id="line2d_25">
      <path d="M 84.740543 93.804497 
L 810.140543 93.804497 
" clip-path="url(#p12e074e028)" style="fill: none; stroke: #b0b0b0; stroke-width: 0.8; stroke-linecap: square"/>
     </g>
     <g id="line2d_26">
      <g>
       <use xlink:href="#m19c71d4b7a" x="84.740543" y="93.804497" style="stroke: #000000; stroke-width: 0.8"/>
      </g>
     </g>
     <g id="text_14">
      <!-- $\mathdefault{0.7}$ -->
      <g transform="translate(42.197103 104.182245) scale(0.3 -0.3)">
       <defs>
        <path id="CMR17-37" d="M 2886 3941 
L 2886 4081 
L 1382 4081 
C 634 4081 621 4165 595 4288 
L 480 4288 
L 294 3094 
L 410 3094 
C 429 3215 474 3540 550 3661 
C 589 3712 1062 3712 1171 3712 
L 2579 3712 
L 1869 2661 
C 1395 1954 1069 999 1069 165 
C 1069 89 1069 -128 1299 -128 
C 1530 -128 1530 89 1530 171 
L 1530 465 
C 1530 1508 1709 2196 2003 2636 
L 2886 3941 
z
" transform="scale(0.015625)"/>
       </defs>
       <use xlink:href="#CMR17-30" transform="scale(0.996264)"/>
       <use xlink:href="#CMMI12-3a" transform="translate(45.690477 0) scale(0.996264)"/>
       <use xlink:href="#CMR17-37" transform="translate(72.787654 0) scale(0.996264)"/>
      </g>
     </g>
    </g>
    <g id="ytick_9">
     <g id="line2d_27">
      <path d="M 84.740543 21.634083 
L 810.140543 21.634083 
" clip-path="url(#p12e074e028)" style="fill: none; stroke: #b0b0b0; stroke-width: 0.8; stroke-linecap: square"/>
     </g>
     <g id="line2d_28">
      <g>
       <use xlink:href="#m19c71d4b7a" x="84.740543" y="21.634083" style="stroke: #000000; stroke-width: 0.8"/>
      </g>
     </g>
     <g id="text_15">
      <!-- $\mathdefault{0.8}$ -->
      <g transform="translate(42.197103 32.01183) scale(0.3 -0.3)">
       <defs>
        <path id="CMR17-38" d="M 1741 2264 
C 2144 2467 2554 2773 2554 3263 
C 2554 3841 1990 4179 1472 4179 
C 890 4179 378 3759 378 3180 
C 378 3021 416 2747 666 2505 
C 730 2442 998 2251 1171 2130 
C 883 1983 211 1634 211 934 
C 211 279 838 -128 1459 -128 
C 2144 -128 2720 362 2720 1010 
C 2720 1590 2330 1857 2074 2029 
L 1741 2264 
z
M 902 2822 
C 851 2854 595 3051 595 3351 
C 595 3739 998 4032 1459 4032 
C 1965 4032 2336 3676 2336 3262 
C 2336 2669 1670 2331 1638 2331 
C 1632 2331 1626 2331 1574 2370 
L 902 2822 
z
M 2080 1519 
C 2176 1449 2483 1240 2483 851 
C 2483 381 2010 25 1472 25 
C 890 25 448 438 448 940 
C 448 1443 838 1862 1280 2060 
L 2080 1519 
z
" transform="scale(0.015625)"/>
       </defs>
       <use xlink:href="#CMR17-30" transform="scale(0.996264)"/>
       <use xlink:href="#CMMI12-3a" transform="translate(45.690477 0) scale(0.996264)"/>
       <use xlink:href="#CMR17-38" transform="translate(72.787654 0) scale(0.996264)"/>
      </g>
     </g>
    </g>
    <g id="text_16">
     <!-- $Y$ -->
     <g transform="translate(31.414752 322.024752) rotate(-90) scale(0.35 -0.35)">
      <defs>
       <path id="CMMI12-59" d="M 3763 3645 
L 3910 3791 
C 4192 4078 4429 4149 4653 4167 
C 4723 4173 4781 4179 4781 4288 
C 4781 4352 4717 4352 4704 4352 
C 4627 4352 4544 4352 4467 4352 
L 4205 4352 
C 4019 4352 3821 4352 3642 4352 
C 3597 4352 3526 4352 3526 4226 
C 3526 4166 3590 4160 3610 4160 
C 3802 4160 3802 4064 3802 4026 
C 3802 3956 3750 3860 3622 3713 
L 2099 1969 
L 1376 3911 
C 1338 4000 1338 4013 1338 4026 
C 1338 4160 1600 4160 1677 4160 
C 1754 4160 1824 4160 1824 4279 
C 1824 4352 1766 4352 1728 4352 
C 1619 4352 1491 4352 1382 4352 
L 672 4352 
C 557 4352 435 4352 326 4352 
C 282 4352 211 4352 211 4226 
C 211 4160 269 4160 365 4160 
C 678 4160 736 4102 794 3956 
L 1587 1835 
C 1594 1816 1613 1745 1613 1726 
C 1613 1707 1299 452 1280 388 
C 1229 217 1165 185 755 185 
C 646 185 595 185 595 64 
C 595 0 666 0 685 0 
C 800 0 934 0 1056 0 
L 1811 0 
C 1926 0 2061 0 2176 0 
C 2221 0 2298 0 2298 115 
C 2298 185 2253 185 2144 185 
C 1747 185 1747 230 1747 300 
C 1747 345 1798 548 1830 676 
L 2061 1594 
C 2099 1727 2099 1739 2157 1803 
L 3763 3645 
z
" transform="scale(0.015625)"/>
      </defs>
      <use xlink:href="#CMMI12-59" transform="scale(0.996264)"/>
     </g>
    </g>
   </g>
   <g id="line2d_29">
    <path d="M 98.173876 36.280878 
L 424.861841 36.290201 
L 425.686637 36.517135 
L 426.511432 37.105411 
L 427.336227 37.93945 
L 428.161023 39.065574 
L 429.810613 41.814224 
L 430.635409 42.932985 
L 432.284999 44.665969 
L 433.93459 46.03572 
L 437.233772 48.394196 
L 440.532953 50.299546 
L 443.007339 51.536121 
L 446.30652 52.832014 
L 449.605702 53.72926 
L 452.904883 54.43507 
L 456.204065 54.931435 
L 462.871043 55.502982 
L 468.548834 55.766451 
L 473.254441 55.732676 
L 484.281608 55.295148 
L 493.505407 54.651848 
L 501.060907 54.412462 
L 509.923223 54.355391 
L 525.860121 54.571241 
L 555.528224 55.147031 
L 579.28233 55.701057 
L 603.036436 56.011859 
L 614.913489 55.937066 
L 623.309323 55.747443 
L 665.288489 55.465748 
L 707.267656 55.323965 
L 816.413489 55.17773 
L 816.413489 55.17773 
" clip-path="url(#p12e074e028)" style="fill: none; stroke: #008000; stroke-width: 3; stroke-linecap: square"/>
   </g>
   <g id="line2d_30">
    <path d="M 98.173876 440.009772 
L 424.861841 440.055841 
L 425.686637 441.017035 
L 426.511432 443.619199 
L 427.336227 447.49659 
L 428.161023 452.927727 
L 429.810613 466.809141 
L 430.635409 472.6581 
L 432.284999 481.759438 
L 433.93459 488.899569 
L 436.408976 498.088812 
L 438.058567 503.496809 
L 438.883362 506.050121 
L 443.007339 516.339424 
L 445.481725 521.217009 
L 447.131316 523.691519 
L 449.605702 526.822396 
L 451.255293 528.617096 
L 452.904883 530.151767 
L 454.554474 531.475377 
L 456.204065 532.565306 
L 464.871621 536.922058 
L 468.548834 538.283715 
L 469.987944 538.681419 
L 471.553042 538.963446 
L 475.104338 539.151143 
L 479.305458 538.978205 
L 481.688184 538.742706 
L 484.281608 538.359733 
L 487.10157 537.547969 
L 490.170512 536.415958 
L 493.505407 535.556131 
L 497.129228 534.984991 
L 501.060907 534.699784 
L 505.319758 534.709958 
L 509.923223 535.012665 
L 520.200574 535.998813 
L 531.774117 537.213894 
L 537.712644 538.007808 
L 543.651171 539.009866 
L 549.589697 540.227384 
L 555.528224 541.722783 
L 561.46675 543.963646 
L 567.405277 546.393299 
L 573.343803 548.429436 
L 585.220857 551.724521 
L 591.159383 553.779199 
L 597.09791 555.984696 
L 608.974963 560.836556 
L 614.913489 562.283729 
L 623.309323 562.542463 
L 648.496823 562.906194 
L 698.871823 563.453157 
L 774.434323 563.782494 
L 816.413489 563.887922 
L 816.413489 563.887922 
" clip-path="url(#p12e074e028)" style="fill: none; stroke: #0000ff; stroke-width: 3; stroke-linecap: square"/>
   </g>
   <g id="patch_3">
    <path d="M 84.740543 617.04 
L 84.740543 7.2 
" style="fill: none; stroke: #000000; stroke-width: 0.8; stroke-linejoin: miter; stroke-linecap: square"/>
   </g>
   <g id="patch_4">
    <path d="M 810.140543 617.04 
L 810.140543 7.2 
" style="fill: none; stroke: #000000; stroke-width: 0.8; stroke-linejoin: miter; stroke-linecap: square"/>
   </g>
   <g id="patch_5">
    <path d="M 84.740543 617.04 
L 810.140543 617.04 
" style="fill: none; stroke: #000000; stroke-width: 0.8; stroke-linejoin: miter; stroke-linecap: square"/>
   </g>
   <g id="patch_6">
    <path d="M 84.740543 7.2 
L 810.140543 7.2 
" style="fill: none; stroke: #000000; stroke-width: 0.8; stroke-linejoin: miter; stroke-linecap: square"/>
   </g>
   <g id="legend_1">
    <g id="patch_7">
     <path d="M 523.96545 414.934702 
L 785.640543 414.934702 
Q 792.640543 414.934702 792.640543 407.934702 
L 792.640543 216.305298 
Q 792.640543 209.305298 785.640543 209.305298 
L 523.96545 209.305298 
Q 516.96545 209.305298 516.96545 216.305298 
L 516.96545 407.934702 
Q 516.96545 414.934702 523.96545 414.934702 
z
" style="fill: #ffffff; stroke: #cccccc; stroke-linejoin: miter"/>
    </g>
    <g id="patch_8">
     <path d="M 530.96545 247.805298 
L 600.96545 247.805298 
L 600.96545 223.305298 
L 530.96545 223.305298 
z
" style="fill: #008000; fill-opacity: 0.2"/>
    </g>
    <g id="text_17">
     <!-- $N_2: \mu \pm \sigma$ -->
     <g transform="translate(628.96545 247.805298) scale(0.35 -0.35)">
      <defs>
       <path id="CMMI12-4e" d="M 4736 3698 
C 4806 3974 4909 4166 5395 4166 
C 5414 4166 5491 4166 5491 4279 
C 5491 4352 5434 4352 5408 4352 
C 5280 4352 4954 4352 4826 4352 
L 4518 4352 
C 4429 4352 4314 4352 4224 4352 
C 4186 4352 4109 4352 4109 4230 
C 4109 4166 4160 4166 4205 4166 
C 4589 4166 4614 4019 4614 3903 
C 4614 3846 4608 3826 4589 3737 
L 3866 850 
L 2496 4249 
C 2451 4352 2445 4352 2304 4352 
L 1523 4352 
C 1395 4352 1338 4352 1338 4230 
C 1338 4166 1382 4166 1504 4166 
C 1536 4166 1914 4166 1914 4115 
C 1914 4102 1901 4051 1894 4032 
L 1043 635 
C 966 320 813 186 390 186 
C 358 186 294 186 294 67 
C 294 0 358 0 378 0 
C 506 0 832 0 960 0 
L 1267 0 
C 1357 0 1466 0 1555 0 
C 1600 0 1670 0 1670 122 
C 1670 180 1606 186 1581 186 
C 1370 186 1165 224 1165 454 
C 1165 505 1178 562 1190 613 
L 2054 4032 
C 2093 3968 2093 3956 2118 3898 
L 3642 115 
C 3674 38 3686 0 3744 0 
C 3808 0 3814 19 3840 128 
L 4736 3698 
z
" transform="scale(0.015625)"/>
       <path id="CMR17-3a" d="M 1062 2491 
C 1062 2650 934 2752 800 2752 
C 672 2752 538 2650 538 2491 
C 538 2332 666 2230 800 2230 
C 928 2230 1062 2332 1062 2491 
z
M 1062 261 
C 1062 420 934 522 800 522 
C 672 522 538 420 538 261 
C 538 102 666 0 800 0 
C 928 0 1062 102 1062 261 
z
" transform="scale(0.015625)"/>
       <path id="CMMI12-16" d="M 922 140 
C 1082 -6 1318 -64 1536 -64 
C 1946 -64 2227 208 2374 405 
C 2438 69 2707 -64 2931 -64 
C 3123 -64 3277 50 3392 277 
C 3494 493 3584 879 3584 903 
C 3584 935 3558 960 3520 960 
C 3462 960 3456 928 3430 834 
C 3334 461 3213 64 2950 64 
C 2765 64 2752 229 2752 358 
C 2752 504 2810 735 2854 926 
L 3034 1615 
C 3059 1737 3130 2023 3162 2139 
C 3200 2292 3270 2567 3270 2592 
C 3270 2688 3194 2752 3098 2752 
C 3040 2752 2906 2726 2854 2535 
L 2406 760 
C 2374 632 2374 619 2291 517 
C 2214 409 1965 64 1562 64 
C 1203 64 1088 326 1088 625 
C 1088 811 1146 1034 1171 1143 
L 1459 2293 
C 1491 2414 1542 2618 1542 2657 
C 1542 2759 1459 2816 1376 2816 
C 1318 2816 1178 2797 1126 2592 
L 198 -1107 
C 192 -1139 179 -1177 179 -1216 
C 179 -1312 256 -1376 352 -1376 
C 538 -1376 576 -1228 621 -1050 
L 922 140 
z
" transform="scale(0.015625)"/>
       <path id="CMSY10-6" d="M 2618 1984 
L 4397 1984 
C 4506 1984 4621 1984 4621 2112 
C 4621 2240 4506 2240 4397 2240 
L 2618 2240 
L 2618 4018 
C 2618 4121 2618 4256 2490 4256 
C 2362 4256 2362 4140 2362 4038 
L 2362 2240 
L 576 2240 
C 467 2240 352 2240 352 2112 
C 352 1984 467 1984 576 1984 
L 2362 1984 
L 2362 256 
L 576 256 
C 467 256 352 256 352 128 
C 352 0 467 0 576 0 
L 4397 0 
C 4506 0 4621 0 4621 128 
C 4621 256 4506 256 4397 256 
L 2618 256 
L 2618 1984 
z
" transform="scale(0.015625)"/>
       <path id="CMMI12-1b" d="M 3251 2408 
C 3334 2408 3546 2408 3546 2612 
C 3546 2752 3424 2752 3309 2752 
L 1894 2752 
C 934 2752 243 1686 243 932 
C 243 390 595 -64 1171 -64 
C 1926 -64 2752 747 2752 1705 
C 2752 1954 2694 2196 2541 2408 
L 3251 2408 
z
M 1178 64 
C 851 64 614 313 614 754 
C 614 1137 845 2408 1786 2408 
C 2061 2408 2368 2274 2368 1781 
C 2368 1558 2266 1021 2042 652 
C 1811 275 1466 64 1178 64 
z
" transform="scale(0.015625)"/>
      </defs>
      <use xlink:href="#CMMI12-4e" transform="scale(0.996264)"/>
      <use xlink:href="#CMR17-32" transform="translate(78.115119 -14.943915) scale(0.697382)"/>
      <use xlink:href="#CMR17-3a" transform="translate(138.270442 0) scale(0.996264)"/>
      <use xlink:href="#CMMI12-16" transform="translate(190.815509 0) scale(0.996264)"/>
      <use xlink:href="#CMSY10-6" transform="translate(271.646137 0) scale(0.996264)"/>
      <use xlink:href="#CMMI12-1b" transform="translate(371.272812 0) scale(0.996264)"/>
     </g>
    </g>
    <g id="line2d_31">
     <path d="M 530.96545 284.337649 
L 565.96545 284.337649 
L 600.96545 284.337649 
" style="fill: none; stroke: #008000; stroke-width: 3; stroke-linecap: square"/>
    </g>
    <g id="text_18">
     <!-- $N_2: \mu $ -->
     <g transform="translate(628.96545 296.587649) scale(0.35 -0.35)">
      <use xlink:href="#CMMI12-4e" transform="scale(0.996264)"/>
      <use xlink:href="#CMR17-32" transform="translate(78.115119 -14.943915) scale(0.697382)"/>
      <use xlink:href="#CMR17-3a" transform="translate(138.270442 0) scale(0.996264)"/>
      <use xlink:href="#CMMI12-16" transform="translate(190.815509 0) scale(0.996264)"/>
     </g>
    </g>
    <g id="patch_9">
     <path d="M 530.96545 345.37 
L 600.96545 345.37 
L 600.96545 320.87 
L 530.96545 320.87 
z
" style="fill: #99ccff; fill-opacity: 0.7"/>
    </g>
    <g id="text_19">
     <!-- $O_2: \mu \pm \sigma$ -->
     <g transform="translate(628.96545 345.37) scale(0.35 -0.35)">
      <defs>
       <path id="CMMI12-4f" d="M 4646 2797 
C 4646 3848 3955 4492 3059 4492 
C 1690 4492 307 3026 307 1554 
C 307 554 973 -128 1901 -128 
C 3245 -128 4646 1268 4646 2797 
z
M 1939 19 
C 1414 19 858 401 858 1395 
C 858 1974 1069 2924 1594 3562 
C 2061 4123 2598 4352 3027 4352 
C 3590 4352 4134 3944 4134 3026 
C 4134 2459 3891 1573 3462 968 
C 2995 318 2413 19 1939 19 
z
" transform="scale(0.015625)"/>
      </defs>
      <use xlink:href="#CMMI12-4f" transform="scale(0.996264)"/>
      <use xlink:href="#CMR17-32" transform="translate(74.550681 -14.943915) scale(0.697382)"/>
      <use xlink:href="#CMR17-3a" transform="translate(134.706004 0) scale(0.996264)"/>
      <use xlink:href="#CMMI12-16" transform="translate(187.251071 0) scale(0.996264)"/>
      <use xlink:href="#CMSY10-6" transform="translate(268.081699 0) scale(0.996264)"/>
      <use xlink:href="#CMMI12-1b" transform="translate(367.708374 0) scale(0.996264)"/>
     </g>
    </g>
    <g id="line2d_32">
     <path d="M 530.96545 381.902351 
L 565.96545 381.902351 
L 600.96545 381.902351 
" style="fill: none; stroke: #0000ff; stroke-width: 3; stroke-linecap: square"/>
    </g>
    <g id="text_20">
     <!-- $O_2: \mu$ -->
     <g transform="translate(628.96545 394.152351) scale(0.35 -0.35)">
      <use xlink:href="#CMMI12-4f" transform="scale(0.996264)"/>
      <use xlink:href="#CMR17-32" transform="translate(74.550681 -14.943915) scale(0.697382)"/>
      <use xlink:href="#CMR17-3a" transform="translate(134.706004 0) scale(0.996264)"/>
      <use xlink:href="#CMMI12-16" transform="translate(187.251071 0) scale(0.996264)"/>
     </g>
    </g>
   </g>
  </g>
 </g>
 <defs>
  <clipPath id="p12e074e028">
   <rect x="84.740543" y="7.2" width="725.4" height="609.84"/>
  </clipPath>
 </defs>
</svg>
