<?xml version="1.0" encoding="utf-8" standalone="no"?>
<!DOCTYPE svg PUBLIC "-//W3C//DTD SVG 1.1//EN"
  "http://www.w3.org/Graphics/SVG/1.1/DTD/svg11.dtd">
<svg xmlns:xlink="http://www.w3.org/1999/xlink" width="837.20383pt" height="692.806049pt" viewBox="0 0 837.20383 692.806049" xmlns="http://www.w3.org/2000/svg" version="1.1">
 <metadata>
  <rdf:RDF xmlns:dc="http://purl.org/dc/elements/1.1/" xmlns:cc="http://creativecommons.org/ns#" xmlns:rdf="http://www.w3.org/1999/02/22-rdf-syntax-ns#">
   <cc:Work>
    <dc:type rdf:resource="http://purl.org/dc/dcmitype/StillImage"/>
    <dc:date>2025-03-03T10:02:31.673895</dc:date>
    <dc:format>image/svg+xml</dc:format>
    <dc:creator>
     <cc:Agent>
      <dc:title>Matplotlib v3.5.3, https://matplotlib.org/</dc:title>
     </cc:Agent>
    </dc:creator>
   </cc:Work>
  </rdf:RDF>
 </metadata>
 <defs>
  <style type="text/css">*{stroke-linejoin: round; stroke-linecap: butt}</style>
 </defs>
 <g id="figure_1">
  <g id="patch_1">
   <path d="M 0 692.806049 
L 837.20383 692.806049 
L 837.20383 0 
L 0 0 
z
" style="fill: #ffffff"/>
  </g>
  <g id="axes_1">
   <g id="patch_2">
    <path d="M 104.60383 617.04 
L 830.00383 617.04 
L 830.00383 7.2 
L 104.60383 7.2 
z
" style="fill: #ffffff"/>
   </g>
   <g id="PolyCollection_1">
    <path d="M 118.037163 415.291507 
L 118.037163 406.444408 
L 136.294326 406.444408 
L 149.622174 406.444408 
L 159.351746 406.444408 
L 166.454731 406.444408 
L 171.640483 406.444408 
L 175.426873 406.444408 
L 178.191993 406.444408 
L 180.211902 406.444408 
L 181.68817 406.444408 
L 182.866901 406.444365 
L 184.035366 406.44393 
L 185.20383 406.410352 
L 186.401396 406.362863 
L 187.598962 406.291793 
L 188.796527 406.19065 
L 189.994093 406.056173 
L 191.191659 405.919764 
L 192.389225 405.797893 
L 193.586791 405.671013 
L 194.784357 405.530565 
L 195.981923 405.403463 
L 197.179488 405.242908 
L 198.377054 405.084382 
L 199.57462 404.942391 
L 200.772186 404.791003 
L 201.969752 404.655557 
L 203.167318 404.515776 
L 204.364883 404.377472 
L 205.562449 404.227762 
L 206.760015 404.07294 
L 207.957581 403.923541 
L 209.155147 403.770643 
L 210.352713 403.61672 
L 211.550279 403.464889 
L 212.747844 403.320549 
L 213.94541 403.180611 
L 215.142976 403.039267 
L 216.340542 402.893705 
L 217.538108 402.742037 
L 218.735674 402.600954 
L 219.933239 402.460632 
L 221.130805 402.319396 
L 222.328371 402.174242 
L 223.525937 402.029255 
L 224.723503 401.883685 
L 225.921069 401.744199 
L 227.118636 401.595739 
L 228.346372 401.44607 
L 229.617974 401.284349 
L 230.935334 401.108361 
L 232.300974 400.941712 
L 233.717476 400.787186 
L 235.186325 400.627741 
L 236.709289 400.460767 
L 238.288431 400.293405 
L 239.926015 400.120263 
L 241.623475 399.946419 
L 243.382582 399.775844 
L 245.205811 399.58416 
L 247.096494 399.385389 
L 249.058389 399.183533 
L 251.090608 399.011233 
L 253.197721 398.820482 
L 255.383566 398.576684 
L 257.648273 398.338059 
L 259.997667 398.084706 
L 262.433052 397.835291 
L 264.957316 397.58274 
L 267.575536 397.323768 
L 270.290023 397.041543 
L 273.104165 396.725731 
L 276.021824 396.434724 
L 279.046947 396.136711 
L 282.18344 395.83972 
L 285.435274 395.540858 
L 288.806744 395.229572 
L 292.302876 394.919663 
L 295.927565 394.595272 
L 299.685552 394.215014 
L 303.582156 393.83615 
L 307.622429 393.450727 
L 311.811205 393.092086 
L 316.154247 392.711971 
L 320.65741 392.333422 
L 325.32657 391.943084 
L 330.167626 391.548385 
L 335.161448 391.131586 
L 340.29927 390.664468 
L 345.626228 390.174832 
L 351.149785 389.672367 
L 356.876809 389.269779 
L 362.814928 388.863761 
L 368.97197 388.423055 
L 375.355902 387.983444 
L 381.975176 387.456145 
L 388.838577 386.94747 
L 395.954985 386.485212 
L 403.333685 385.9891 
L 410.984408 385.47351 
L 418.537266 385.054167 
L 424.174186 384.730245 
L 428.188442 384.510697 
L 431.047637 384.367697 
L 433.084573 384.267638 
L 434.536086 384.190001 
L 435.676853 384.133739 
L 436.807888 384.082043 
L 437.938922 384.029612 
L 439.069956 383.98284 
L 440.200991 383.928661 
L 441.332025 383.880488 
L 442.46306 383.814653 
L 443.594094 383.646029 
L 444.725128 352.205103 
L 445.549924 221.510968 
L 446.374719 159.56246 
L 447.199515 110.947589 
L 448.02431 71.160578 
L 448.849105 41.026627 
L 449.673901 25.064243 
L 450.498696 16.989709 
L 451.323491 15.400076 
L 452.148287 15.009412 
L 452.973082 16.669494 
L 453.797877 19.188904 
L 454.622673 21.9515 
L 455.447468 24.928408 
L 456.272263 28.618824 
L 457.097059 32.906715 
L 457.921854 37.339751 
L 458.74665 41.769896 
L 459.571445 45.895771 
L 460.39624 50.213744 
L 461.221036 54.305575 
L 462.045831 58.348041 
L 462.870626 62.13988 
L 463.695422 65.454856 
L 464.520217 68.672193 
L 465.345012 71.736353 
L 466.169808 74.377898 
L 466.994603 76.747307 
L 467.819398 78.918326 
L 468.644194 80.979479 
L 469.468989 83.027703 
L 470.293785 84.929949 
L 471.11858 86.712185 
L 471.943375 88.385081 
L 472.768171 89.997808 
L 473.592966 91.499869 
L 474.417761 92.917849 
L 475.242557 94.262145 
L 476.067352 95.576585 
L 476.892147 96.827903 
L 477.716943 98.125531 
L 478.541738 99.451579 
L 479.366533 100.928225 
L 480.191329 102.398832 
L 481.016124 104.07963 
L 481.849366 105.863209 
L 482.73433 107.879729 
L 483.696967 110.02438 
L 484.734908 112.378017 
L 485.862423 114.930426 
L 487.086249 117.707422 
L 488.412121 121.407641 
L 489.851231 125.571314 
L 491.416329 130.178117 
L 493.117729 135.412289 
L 494.967625 140.81463 
L 496.979651 146.173092 
L 499.168746 151.218827 
L 501.551472 155.69987 
L 504.144896 159.684284 
L 506.964857 163.553962 
L 510.0338 165.941115 
L 513.368695 167.727035 
L 516.992516 168.318287 
L 520.924194 167.622329 
L 525.183045 165.42527 
L 529.78651 162.897721 
L 534.745909 160.296855 
L 540.063862 157.763783 
L 545.723409 155.252891 
L 551.637405 152.634644 
L 557.575931 149.825238 
L 563.514458 147.138892 
L 569.452985 144.748375 
L 575.391511 142.359647 
L 581.330038 139.407555 
L 587.268564 136.69537 
L 593.207091 134.919886 
L 599.145617 133.842647 
L 605.084144 132.870228 
L 611.022671 131.5009 
L 616.961197 130.04602 
L 622.899724 128.367103 
L 628.83825 126.388155 
L 634.776777 128.133705 
L 643.17261 140.058373 
L 651.568443 145.831189 
L 659.964277 150.010103 
L 668.36011 153.382374 
L 676.755943 156.505848 
L 685.151777 160.868036 
L 693.54761 164.007812 
L 701.943443 166.125854 
L 710.339277 167.795354 
L 718.73511 169.299897 
L 727.130943 170.809925 
L 735.526777 172.352626 
L 743.92261 174.113974 
L 752.318443 175.902539 
L 760.714277 176.875635 
L 769.11011 177.868649 
L 777.505943 178.823831 
L 785.901777 179.692252 
L 794.29761 180.456053 
L 802.693443 181.191838 
L 811.089277 181.90253 
L 819.48511 182.723324 
L 827.880943 183.396343 
L 836.276777 183.825269 
L 836.276777 240.601932 
L 836.276777 240.601932 
L 827.880943 240.082753 
L 819.48511 239.17364 
L 811.089277 238.057169 
L 802.693443 237.070345 
L 794.29761 236.059316 
L 785.901777 234.997196 
L 777.505943 233.839893 
L 769.11011 232.553514 
L 760.714277 231.243895 
L 752.318443 229.913031 
L 743.92261 227.762315 
L 735.526777 225.656064 
L 727.130943 223.746893 
L 718.73511 221.921633 
L 710.339277 220.000537 
L 701.943443 217.867773 
L 693.54761 215.328329 
L 685.151777 211.768018 
L 676.755943 207.035793 
L 668.36011 203.555459 
L 659.964277 199.654559 
L 651.568443 194.751767 
L 643.17261 188.062501 
L 634.776777 174.756624 
L 628.83825 172.038549 
L 622.899724 173.548598 
L 616.961197 175.202992 
L 611.022671 176.500134 
L 605.084144 177.566826 
L 599.145617 178.03409 
L 593.207091 178.651782 
L 587.268564 179.944754 
L 581.330038 182.160243 
L 575.391511 184.591303 
L 569.452985 186.525851 
L 563.514458 188.314704 
L 557.575931 190.132148 
L 551.637405 191.793041 
L 545.723409 193.010781 
L 540.063862 193.981366 
L 534.745909 195.097038 
L 529.78651 196.550717 
L 525.183045 198.040176 
L 520.924194 199.271252 
L 516.992516 199.421349 
L 513.368695 198.315307 
L 510.0338 196.324548 
L 506.964857 193.75447 
L 504.144896 189.416079 
L 501.551472 185.059393 
L 499.168746 180.424784 
L 496.979651 175.281387 
L 494.967625 169.860608 
L 493.117729 164.416774 
L 491.416329 159.347106 
L 489.851231 154.975049 
L 488.412121 151.022755 
L 487.086249 148.034438 
L 485.862423 145.503584 
L 484.734908 142.896266 
L 483.696967 140.527795 
L 482.73433 138.367866 
L 481.849366 136.331212 
L 481.016124 134.577014 
L 480.191329 132.900433 
L 479.366533 131.538446 
L 478.541738 130.207591 
L 477.716943 129.020687 
L 476.892147 127.881606 
L 476.067352 126.835394 
L 475.242557 125.727036 
L 474.417761 124.594828 
L 473.592966 123.480237 
L 472.768171 122.381486 
L 471.943375 121.318794 
L 471.11858 120.208005 
L 470.293785 119.077924 
L 469.468989 117.834607 
L 468.644194 116.557553 
L 467.819398 115.390916 
L 466.994603 114.311871 
L 466.169808 113.137667 
L 465.345012 111.931335 
L 464.520217 110.525999 
L 463.695422 109.338065 
L 462.870626 108.422236 
L 462.045831 107.5811 
L 461.221036 106.959686 
L 460.39624 106.729909 
L 459.571445 106.749367 
L 458.74665 107.268464 
L 457.921854 107.80308 
L 457.097059 108.544036 
L 456.272263 109.686749 
L 455.447468 110.54314 
L 454.622673 112.222246 
L 453.797877 114.618781 
L 452.973082 117.707061 
L 452.148287 121.813475 
L 451.323491 127.500895 
L 450.498696 134.647308 
L 449.673901 146.041861 
L 448.849105 163.633328 
L 448.02431 189.892586 
L 447.199515 217.727606 
L 446.374719 252.139927 
L 445.549924 315.863676 
L 444.725128 384.537695 
L 443.594094 400.960533 
L 442.46306 400.876563 
L 441.332025 400.898469 
L 440.200991 400.902939 
L 439.069956 400.909283 
L 437.938922 400.906945 
L 436.807888 400.907825 
L 435.676853 400.91176 
L 434.536086 400.919257 
L 433.084573 400.940382 
L 431.047637 400.962322 
L 428.188442 400.997827 
L 424.174186 401.066917 
L 418.537266 401.229262 
L 410.984408 401.486825 
L 403.333685 401.856072 
L 395.954985 402.192512 
L 388.838577 402.519174 
L 381.975176 402.868195 
L 375.355902 403.241313 
L 368.97197 403.510011 
L 362.814928 403.788178 
L 356.876809 404.033697 
L 351.149785 404.266814 
L 345.626228 404.595487 
L 340.29927 404.885373 
L 335.161448 405.163294 
L 330.167626 405.400221 
L 325.32657 405.640083 
L 320.65741 405.880202 
L 316.154247 406.109056 
L 311.811205 406.33315 
L 307.622429 406.545351 
L 303.582156 406.786593 
L 299.685552 407.023721 
L 295.927565 407.259088 
L 292.302876 407.456119 
L 288.806744 407.646127 
L 285.435274 407.841245 
L 282.18344 408.032572 
L 279.046947 408.231321 
L 276.021824 408.427222 
L 273.104165 408.609692 
L 270.290023 408.803523 
L 267.575536 408.982726 
L 264.957316 409.147841 
L 262.433052 409.310859 
L 259.997667 409.462397 
L 257.648273 409.601384 
L 255.383566 409.740853 
L 253.197721 409.891168 
L 251.090608 410.01271 
L 249.058389 410.12061 
L 247.096494 410.257541 
L 245.205811 410.385739 
L 243.382582 410.505769 
L 241.623475 410.611544 
L 239.926015 410.722927 
L 238.288431 410.831571 
L 236.709289 410.938031 
L 235.186325 411.049765 
L 233.717476 411.156576 
L 232.300974 411.260367 
L 230.935334 411.369834 
L 229.617974 411.485473 
L 228.346372 411.588523 
L 227.118636 411.691332 
L 225.921069 411.803199 
L 224.723503 411.904638 
L 223.525937 411.997811 
L 222.328371 412.087805 
L 221.130805 412.180634 
L 219.933239 412.280054 
L 218.735674 412.375211 
L 217.538108 412.469262 
L 216.340542 412.565541 
L 215.142976 412.659816 
L 213.94541 412.75248 
L 212.747844 412.852623 
L 211.550279 412.952358 
L 210.352713 413.058131 
L 209.155147 413.168466 
L 207.957581 413.275549 
L 206.760015 413.376586 
L 205.562449 413.483372 
L 204.364883 413.59077 
L 203.167318 413.693695 
L 201.969752 413.797566 
L 200.772186 413.899522 
L 199.57462 414.013323 
L 198.377054 414.119025 
L 197.179488 414.241493 
L 195.981923 414.368155 
L 194.784357 414.465582 
L 193.586791 414.578349 
L 192.389225 414.687409 
L 191.191659 414.79327 
L 189.994093 414.91892 
L 188.796527 415.045075 
L 187.598962 415.142046 
L 186.401396 415.211628 
L 185.20383 415.257832 
L 184.035366 415.291036 
L 182.866901 415.291464 
L 181.68817 415.291507 
L 180.211902 415.291507 
L 178.191993 415.291507 
L 175.426873 415.291507 
L 171.640483 415.291507 
L 166.454731 415.291507 
L 159.351746 415.291507 
L 149.622174 415.291507 
L 136.294326 415.291507 
L 118.037163 415.291507 
z
" clip-path="url(#pa3a08d5e54)" style="fill: #99ccff; fill-opacity: 0.7"/>
   </g>
   <g id="matplotlib.axis_1">
    <g id="xtick_1">
     <g id="line2d_1">
      <path d="M 185.20383 617.04 
L 185.20383 7.2 
" clip-path="url(#pa3a08d5e54)" style="fill: none; stroke: #b0b0b0; stroke-width: 0.8; stroke-linecap: square"/>
     </g>
     <g id="line2d_2">
      <defs>
       <path id="m6e2929690d" d="M 0 0 
L 0 3.5 
" style="stroke: #000000; stroke-width: 0.8"/>
      </defs>
      <g>
       <use xlink:href="#m6e2929690d" x="185.20383" y="617.04" style="stroke: #000000; stroke-width: 0.8"/>
      </g>
     </g>
     <g id="text_1">
      <!-- $\mathdefault{0.0}$ -->
      <g transform="translate(167.43211 644.795495)scale(0.3 -0.3)">
       <defs>
        <path id="CMR17-30" d="M 2688 2025 
C 2688 2416 2682 3080 2413 3591 
C 2176 4039 1798 4198 1466 4198 
C 1158 4198 768 4058 525 3597 
C 269 3118 243 2524 243 2025 
C 243 1661 250 1106 448 619 
C 723 -39 1216 -128 1466 -128 
C 1760 -128 2208 -7 2470 600 
C 2662 1042 2688 1559 2688 2025 
z
M 1466 -26 
C 1056 -26 813 325 723 812 
C 653 1188 653 1738 653 2096 
C 653 2588 653 2997 736 3387 
C 858 3929 1216 4096 1466 4096 
C 1728 4096 2067 3923 2189 3400 
C 2272 3036 2278 2607 2278 2096 
C 2278 1680 2278 1169 2202 792 
C 2067 95 1690 -26 1466 -26 
z
" transform="scale(0.015625)"/>
        <path id="CMMI12-3a" d="M 1178 307 
C 1178 492 1024 619 870 619 
C 685 619 557 466 557 313 
C 557 128 710 0 864 0 
C 1050 0 1178 153 1178 307 
z
" transform="scale(0.015625)"/>
       </defs>
       <use xlink:href="#CMR17-30" transform="scale(0.996264)"/>
       <use xlink:href="#CMMI12-3a" transform="translate(45.690477 0)scale(0.996264)"/>
       <use xlink:href="#CMR17-30" transform="translate(72.787654 0)scale(0.996264)"/>
      </g>
     </g>
    </g>
    <g id="xtick_2">
     <g id="line2d_3">
      <path d="M 319.537163 617.04 
L 319.537163 7.2 
" clip-path="url(#pa3a08d5e54)" style="fill: none; stroke: #b0b0b0; stroke-width: 0.8; stroke-linecap: square"/>
     </g>
     <g id="line2d_4">
      <g>
       <use xlink:href="#m6e2929690d" x="319.537163" y="617.04" style="stroke: #000000; stroke-width: 0.8"/>
      </g>
     </g>
     <g id="text_2">
      <!-- $\mathdefault{0.1}$ -->
      <g transform="translate(301.765444 644.795495)scale(0.3 -0.3)">
       <defs>
        <path id="CMR17-31" d="M 1702 4058 
C 1702 4192 1696 4192 1606 4192 
C 1357 3916 979 3827 621 3827 
C 602 3827 570 3827 563 3808 
C 557 3795 557 3782 557 3648 
C 755 3648 1088 3686 1344 3839 
L 1344 461 
C 1344 236 1331 160 781 160 
L 589 160 
L 589 0 
C 896 0 1216 0 1523 0 
C 1830 0 2150 0 2458 0 
L 2458 160 
L 2266 160 
C 1715 160 1702 230 1702 458 
L 1702 4058 
z
" transform="scale(0.015625)"/>
       </defs>
       <use xlink:href="#CMR17-30" transform="scale(0.996264)"/>
       <use xlink:href="#CMMI12-3a" transform="translate(45.690477 0)scale(0.996264)"/>
       <use xlink:href="#CMR17-31" transform="translate(72.787654 0)scale(0.996264)"/>
      </g>
     </g>
    </g>
    <g id="xtick_3">
     <g id="line2d_5">
      <path d="M 453.870497 617.04 
L 453.870497 7.2 
" clip-path="url(#pa3a08d5e54)" style="fill: none; stroke: #b0b0b0; stroke-width: 0.8; stroke-linecap: square"/>
     </g>
     <g id="line2d_6">
      <g>
       <use xlink:href="#m6e2929690d" x="453.870497" y="617.04" style="stroke: #000000; stroke-width: 0.8"/>
      </g>
     </g>
     <g id="text_3">
      <!-- $\mathdefault{0.2}$ -->
      <g transform="translate(436.098777 644.795495)scale(0.3 -0.3)">
       <defs>
        <path id="CMR17-32" d="M 2669 989 
L 2554 989 
C 2490 536 2438 459 2413 420 
C 2381 369 1920 369 1830 369 
L 602 369 
C 832 619 1280 1072 1824 1597 
C 2214 1967 2669 2402 2669 3035 
C 2669 3790 2067 4224 1395 4224 
C 691 4224 262 3604 262 3030 
C 262 2780 448 2748 525 2748 
C 589 2748 781 2787 781 3010 
C 781 3207 614 3264 525 3264 
C 486 3264 448 3258 422 3245 
C 544 3790 915 4058 1306 4058 
C 1862 4058 2227 3617 2227 3035 
C 2227 2479 1901 2000 1536 1584 
L 262 146 
L 262 0 
L 2515 0 
L 2669 989 
z
" transform="scale(0.015625)"/>
       </defs>
       <use xlink:href="#CMR17-30" transform="scale(0.996264)"/>
       <use xlink:href="#CMMI12-3a" transform="translate(45.690477 0)scale(0.996264)"/>
       <use xlink:href="#CMR17-32" transform="translate(72.787654 0)scale(0.996264)"/>
      </g>
     </g>
    </g>
    <g id="xtick_4">
     <g id="line2d_7">
      <path d="M 588.20383 617.04 
L 588.20383 7.2 
" clip-path="url(#pa3a08d5e54)" style="fill: none; stroke: #b0b0b0; stroke-width: 0.8; stroke-linecap: square"/>
     </g>
     <g id="line2d_8">
      <g>
       <use xlink:href="#m6e2929690d" x="588.20383" y="617.04" style="stroke: #000000; stroke-width: 0.8"/>
      </g>
     </g>
     <g id="text_4">
      <!-- $\mathdefault{0.3}$ -->
      <g transform="translate(570.43211 644.795495)scale(0.3 -0.3)">
       <defs>
        <path id="CMR17-33" d="M 1414 2157 
C 1984 2157 2234 1662 2234 1090 
C 2234 320 1824 25 1453 25 
C 1114 25 563 194 390 693 
C 422 680 454 680 486 680 
C 640 680 755 782 755 948 
C 755 1133 614 1216 486 1216 
C 378 1216 211 1165 211 926 
C 211 335 787 -128 1466 -128 
C 2176 -128 2720 430 2720 1085 
C 2720 1707 2208 2157 1600 2227 
C 2086 2328 2554 2756 2554 3329 
C 2554 3820 2048 4179 1472 4179 
C 890 4179 378 3829 378 3329 
C 378 3110 544 3072 627 3072 
C 762 3072 877 3155 877 3321 
C 877 3486 762 3569 627 3569 
C 602 3569 570 3569 544 3557 
C 730 3959 1235 4032 1459 4032 
C 1683 4032 2106 3925 2106 3320 
C 2106 3143 2080 2828 1862 2550 
C 1670 2304 1453 2304 1242 2284 
C 1210 2284 1062 2269 1037 2269 
C 992 2263 966 2257 966 2208 
C 966 2163 973 2157 1101 2157 
L 1414 2157 
z
" transform="scale(0.015625)"/>
       </defs>
       <use xlink:href="#CMR17-30" transform="scale(0.996264)"/>
       <use xlink:href="#CMMI12-3a" transform="translate(45.690477 0)scale(0.996264)"/>
       <use xlink:href="#CMR17-33" transform="translate(72.787654 0)scale(0.996264)"/>
      </g>
     </g>
    </g>
    <g id="xtick_5">
     <g id="line2d_9">
      <path d="M 722.537163 617.04 
L 722.537163 7.2 
" clip-path="url(#pa3a08d5e54)" style="fill: none; stroke: #b0b0b0; stroke-width: 0.8; stroke-linecap: square"/>
     </g>
     <g id="line2d_10">
      <g>
       <use xlink:href="#m6e2929690d" x="722.537163" y="617.04" style="stroke: #000000; stroke-width: 0.8"/>
      </g>
     </g>
     <g id="text_5">
      <!-- $\mathdefault{0.4}$ -->
      <g transform="translate(704.765444 644.795495)scale(0.3 -0.3)">
       <defs>
        <path id="CMR17-34" d="M 2150 4122 
C 2150 4256 2144 4256 2029 4256 
L 128 1254 
L 128 1088 
L 1779 1088 
L 1779 457 
C 1779 224 1766 160 1318 160 
L 1197 160 
L 1197 0 
C 1402 0 1747 0 1965 0 
C 2182 0 2528 0 2733 0 
L 2733 160 
L 2611 160 
C 2163 160 2150 224 2150 457 
L 2150 1088 
L 2803 1088 
L 2803 1254 
L 2150 1254 
L 2150 4122 
z
M 1798 3703 
L 1798 1254 
L 256 1254 
L 1798 3703 
z
" transform="scale(0.015625)"/>
       </defs>
       <use xlink:href="#CMR17-30" transform="scale(0.996264)"/>
       <use xlink:href="#CMMI12-3a" transform="translate(45.690477 0)scale(0.996264)"/>
       <use xlink:href="#CMR17-34" transform="translate(72.787654 0)scale(0.996264)"/>
      </g>
     </g>
    </g>
    <g id="text_6">
     <!-- $x, \; \mathrm{m} $ -->
     <g transform="translate(431.651226 678.823697)scale(0.35 -0.35)">
      <defs>
       <path id="CMMI12-78" d="M 3034 2606 
C 2829 2567 2752 2414 2752 2293 
C 2752 2139 2874 2088 2963 2088 
C 3155 2088 3290 2254 3290 2427 
C 3290 2695 2982 2816 2714 2816 
C 2323 2816 2106 2433 2048 2312 
C 1901 2816 1504 2816 1389 2816 
C 736 2816 390 1980 390 1839 
C 390 1814 416 1782 461 1782 
C 512 1782 525 1820 538 1846 
C 755 2555 1184 2689 1370 2689 
C 1658 2689 1715 2420 1715 2267 
C 1715 2127 1677 1980 1600 1673 
L 1382 798 
C 1286 415 1101 64 762 64 
C 730 64 570 64 435 147 
C 666 192 717 383 717 460 
C 717 588 621 664 499 664 
C 346 664 179 530 179 326 
C 179 57 480 -64 755 -64 
C 1062 -64 1280 179 1414 441 
C 1517 64 1837 -64 2074 -64 
C 2726 -64 3072 773 3072 913 
C 3072 945 3046 971 3008 971 
C 2950 971 2944 939 2925 888 
C 2752 326 2381 64 2093 64 
C 1869 64 1747 230 1747 492 
C 1747 632 1773 734 1875 1156 
L 2099 2024 
C 2195 2408 2413 2689 2707 2689 
C 2720 2689 2899 2689 3034 2606 
z
" transform="scale(0.015625)"/>
       <path id="CMMI12-3b" d="M 1248 -31 
C 1248 343 1126 619 864 619 
C 659 619 557 453 557 313 
C 557 172 653 0 870 0 
C 954 0 1024 26 1082 83 
C 1094 96 1101 96 1107 96 
C 1120 96 1120 5 1120 -27 
C 1120 -240 1082 -659 710 -1080 
C 640 -1157 640 -1170 640 -1183 
C 640 -1216 672 -1248 704 -1248 
C 755 -1248 1248 -771 1248 -31 
z
" transform="scale(0.015625)"/>
       <path id="CMR17-6d" d="M 4326 1933 
C 4326 2252 4269 2790 3507 2790 
C 3072 2790 2771 2496 2656 2151 
L 2650 2151 
C 2573 2676 2195 2790 1837 2790 
C 1331 2790 1069 2400 973 2144 
L 966 2144 
L 966 2790 
L 211 2720 
L 211 2554 
C 589 2554 646 2515 646 2208 
L 646 428 
C 646 184 621 153 211 153 
L 211 -13 
C 365 0 646 0 813 0 
C 979 0 1267 0 1421 -13 
L 1421 153 
C 1011 153 986 178 986 428 
L 986 1658 
C 986 2247 1344 2688 1792 2688 
C 2266 2688 2317 2266 2317 1958 
L 2317 428 
C 2317 184 2291 153 1882 153 
L 1882 -13 
C 2035 0 2317 0 2483 0 
C 2650 0 2938 0 3091 -13 
L 3091 153 
C 2682 153 2656 178 2656 428 
L 2656 1658 
C 2656 2247 3014 2688 3462 2688 
C 3936 2688 3987 2266 3987 1958 
L 3987 428 
C 3987 184 3962 153 3552 153 
L 3552 -13 
C 3706 0 3987 0 4154 0 
C 4320 0 4608 0 4762 -13 
L 4762 153 
C 4352 153 4326 178 4326 428 
L 4326 1933 
z
" transform="scale(0.015625)"/>
      </defs>
      <use xlink:href="#CMMI12-78" transform="scale(0.996264)"/>
      <use xlink:href="#CMMI12-3b" transform="translate(55.43406 0)scale(0.996264)"/>
      <use xlink:href="#CMR17-6d" transform="translate(126.809651 0)scale(0.996264)"/>
     </g>
    </g>
   </g>
   <g id="matplotlib.axis_2">
    <g id="ytick_1">
     <g id="line2d_11">
      <path d="M 104.60383 561.250221 
L 830.00383 561.250221 
" clip-path="url(#pa3a08d5e54)" style="fill: none; stroke: #b0b0b0; stroke-width: 0.8; stroke-linecap: square"/>
     </g>
     <g id="line2d_12">
      <defs>
       <path id="m557ee088fb" d="M 0 0 
L -3.5 0 
" style="stroke: #000000; stroke-width: 0.8"/>
      </defs>
      <g>
       <use xlink:href="#m557ee088fb" x="104.60383" y="561.250221" style="stroke: #000000; stroke-width: 0.8"/>
      </g>
     </g>
     <g id="text_7">
      <!-- $\mathdefault{−1}$ -->
      <g transform="translate(60.650456 571.627968)scale(0.3 -0.3)">
       <defs>
        <path id="CMSY10-0" d="M 4218 1472 
C 4326 1472 4442 1472 4442 1600 
C 4442 1728 4326 1728 4218 1728 
L 755 1728 
C 646 1728 531 1728 531 1600 
C 531 1472 646 1472 755 1472 
L 4218 1472 
z
" transform="scale(0.015625)"/>
       </defs>
       <use xlink:href="#CMSY10-0" transform="scale(0.996264)"/>
       <use xlink:href="#CMR17-31" transform="translate(77.487468 0)scale(0.996264)"/>
      </g>
     </g>
    </g>
    <g id="ytick_2">
     <g id="line2d_13">
      <path d="M 104.60383 484.298801 
L 830.00383 484.298801 
" clip-path="url(#pa3a08d5e54)" style="fill: none; stroke: #b0b0b0; stroke-width: 0.8; stroke-linecap: square"/>
     </g>
     <g id="line2d_14">
      <g>
       <use xlink:href="#m557ee088fb" x="104.60383" y="484.298801" style="stroke: #000000; stroke-width: 0.8"/>
      </g>
     </g>
     <g id="text_8">
      <!-- $\mathdefault{0}$ -->
      <g transform="translate(83.896687 494.676549)scale(0.3 -0.3)">
       <use xlink:href="#CMR17-30" transform="scale(0.996264)"/>
      </g>
     </g>
    </g>
    <g id="ytick_3">
     <g id="line2d_15">
      <path d="M 104.60383 407.347382 
L 830.00383 407.347382 
" clip-path="url(#pa3a08d5e54)" style="fill: none; stroke: #b0b0b0; stroke-width: 0.8; stroke-linecap: square"/>
     </g>
     <g id="line2d_16">
      <g>
       <use xlink:href="#m557ee088fb" x="104.60383" y="407.347382" style="stroke: #000000; stroke-width: 0.8"/>
      </g>
     </g>
     <g id="text_9">
      <!-- $\mathdefault{1}$ -->
      <g transform="translate(83.896687 417.725129)scale(0.3 -0.3)">
       <use xlink:href="#CMR17-31" transform="scale(0.996264)"/>
      </g>
     </g>
    </g>
    <g id="ytick_4">
     <g id="line2d_17">
      <path d="M 104.60383 330.395962 
L 830.00383 330.395962 
" clip-path="url(#pa3a08d5e54)" style="fill: none; stroke: #b0b0b0; stroke-width: 0.8; stroke-linecap: square"/>
     </g>
     <g id="line2d_18">
      <g>
       <use xlink:href="#m557ee088fb" x="104.60383" y="330.395962" style="stroke: #000000; stroke-width: 0.8"/>
      </g>
     </g>
     <g id="text_10">
      <!-- $\mathdefault{2}$ -->
      <g transform="translate(83.896687 340.77371)scale(0.3 -0.3)">
       <use xlink:href="#CMR17-32" transform="scale(0.996264)"/>
      </g>
     </g>
    </g>
    <g id="ytick_5">
     <g id="line2d_19">
      <path d="M 104.60383 253.444543 
L 830.00383 253.444543 
" clip-path="url(#pa3a08d5e54)" style="fill: none; stroke: #b0b0b0; stroke-width: 0.8; stroke-linecap: square"/>
     </g>
     <g id="line2d_20">
      <g>
       <use xlink:href="#m557ee088fb" x="104.60383" y="253.444543" style="stroke: #000000; stroke-width: 0.8"/>
      </g>
     </g>
     <g id="text_11">
      <!-- $\mathdefault{3}$ -->
      <g transform="translate(83.896687 263.82229)scale(0.3 -0.3)">
       <use xlink:href="#CMR17-33" transform="scale(0.996264)"/>
      </g>
     </g>
    </g>
    <g id="ytick_6">
     <g id="line2d_21">
      <path d="M 104.60383 176.493123 
L 830.00383 176.493123 
" clip-path="url(#pa3a08d5e54)" style="fill: none; stroke: #b0b0b0; stroke-width: 0.8; stroke-linecap: square"/>
     </g>
     <g id="line2d_22">
      <g>
       <use xlink:href="#m557ee088fb" x="104.60383" y="176.493123" style="stroke: #000000; stroke-width: 0.8"/>
      </g>
     </g>
     <g id="text_12">
      <!-- $\mathdefault{4}$ -->
      <g transform="translate(83.896687 186.870871)scale(0.3 -0.3)">
       <use xlink:href="#CMR17-34" transform="scale(0.996264)"/>
      </g>
     </g>
    </g>
    <g id="ytick_7">
     <g id="line2d_23">
      <path d="M 104.60383 99.541703 
L 830.00383 99.541703 
" clip-path="url(#pa3a08d5e54)" style="fill: none; stroke: #b0b0b0; stroke-width: 0.8; stroke-linecap: square"/>
     </g>
     <g id="line2d_24">
      <g>
       <use xlink:href="#m557ee088fb" x="104.60383" y="99.541703" style="stroke: #000000; stroke-width: 0.8"/>
      </g>
     </g>
     <g id="text_13">
      <!-- $\mathdefault{5}$ -->
      <g transform="translate(83.896687 109.919451)scale(0.3 -0.3)">
       <defs>
        <path id="CMR17-35" d="M 730 3692 
C 794 3666 1056 3584 1325 3584 
C 1920 3584 2246 3911 2432 4100 
C 2432 4157 2432 4192 2394 4192 
C 2387 4192 2374 4192 2323 4163 
C 2099 4058 1837 3973 1517 3973 
C 1325 3973 1037 3999 723 4139 
C 653 4171 640 4171 634 4171 
C 602 4171 595 4164 595 4037 
L 595 2203 
C 595 2089 595 2057 659 2057 
C 691 2057 704 2070 736 2114 
C 941 2401 1222 2522 1542 2522 
C 1766 2522 2246 2382 2246 1289 
C 2246 1085 2246 715 2054 421 
C 1894 159 1645 25 1370 25 
C 947 25 518 320 403 814 
C 429 807 480 795 506 795 
C 589 795 749 840 749 1038 
C 749 1210 627 1280 506 1280 
C 358 1280 262 1190 262 1011 
C 262 454 704 -128 1382 -128 
C 2042 -128 2669 440 2669 1264 
C 2669 2030 2170 2624 1549 2624 
C 1222 2624 947 2503 730 2274 
L 730 3692 
z
" transform="scale(0.015625)"/>
       </defs>
       <use xlink:href="#CMR17-35" transform="scale(0.996264)"/>
      </g>
     </g>
    </g>
    <g id="ytick_8">
     <g id="line2d_25">
      <path d="M 104.60383 22.590284 
L 830.00383 22.590284 
" clip-path="url(#pa3a08d5e54)" style="fill: none; stroke: #b0b0b0; stroke-width: 0.8; stroke-linecap: square"/>
     </g>
     <g id="line2d_26">
      <g>
       <use xlink:href="#m557ee088fb" x="104.60383" y="22.590284" style="stroke: #000000; stroke-width: 0.8"/>
      </g>
     </g>
     <g id="text_14">
      <!-- $\mathdefault{6}$ -->
      <g transform="translate(83.896687 32.968031)scale(0.3 -0.3)">
       <defs>
        <path id="CMR17-36" d="M 678 2176 
C 678 3690 1395 4032 1811 4032 
C 1946 4032 2272 4009 2400 3776 
C 2298 3776 2106 3776 2106 3553 
C 2106 3381 2246 3323 2336 3323 
C 2394 3323 2566 3348 2566 3560 
C 2566 3954 2246 4179 1805 4179 
C 1043 4179 243 3390 243 1984 
C 243 253 966 -128 1478 -128 
C 2099 -128 2688 427 2688 1283 
C 2688 2081 2170 2662 1517 2662 
C 1126 2662 838 2407 678 1960 
L 678 2176 
z
M 1478 25 
C 691 25 691 1200 691 1436 
C 691 1896 909 2560 1504 2560 
C 1613 2560 1926 2560 2138 2120 
C 2253 1870 2253 1609 2253 1289 
C 2253 944 2253 690 2118 434 
C 1978 171 1773 25 1478 25 
z
" transform="scale(0.015625)"/>
       </defs>
       <use xlink:href="#CMR17-36" transform="scale(0.996264)"/>
      </g>
     </g>
    </g>
    <g id="text_15">
     <!-- $\frac{T_{ve}}{T_{{ve}_\infty}}, \; - $ -->
     <g transform="translate(38.349699 363.383519)rotate(-90)scale(0.35 -0.35)">
      <defs>
       <path id="CMMI12-54" d="M 2669 3910 
C 2707 4064 2720 4121 2816 4147 
C 2867 4160 3078 4160 3213 4160 
C 3853 4160 4154 4134 4154 3634 
C 4154 3537 4128 3295 4090 3057 
L 4083 2980 
C 4083 2954 4109 2916 4147 2916 
C 4211 2916 4211 2948 4230 3050 
L 4416 4184 
C 4429 4243 4429 4256 4429 4275 
C 4429 4345 4390 4345 4262 4345 
L 762 4345 
C 614 4345 608 4339 570 4224 
L 179 3070 
C 173 3056 154 2986 154 2980 
C 154 2948 179 2916 218 2916 
C 269 2916 282 2941 307 3024 
C 576 3801 710 4160 1562 4160 
L 1990 4160 
C 2144 4160 2208 4160 2208 4089 
C 2208 4069 2208 4057 2176 3941 
L 1318 499 
C 1254 249 1242 185 563 185 
C 403 185 358 185 358 64 
C 358 0 429 0 461 0 
C 621 0 787 0 947 0 
L 1946 0 
C 2106 0 2278 0 2438 0 
C 2509 0 2573 0 2573 121 
C 2573 185 2528 185 2362 185 
C 1786 185 1786 243 1786 339 
C 1786 346 1786 391 1811 494 
L 2669 3910 
z
" transform="scale(0.015625)"/>
       <path id="CMMI12-76" d="M 2925 2389 
C 2925 2791 2720 2816 2669 2816 
C 2515 2816 2374 2663 2374 2535 
C 2374 2459 2419 2414 2445 2389 
C 2509 2331 2675 2159 2675 1827 
C 2675 1558 2291 64 1523 64 
C 1133 64 1056 390 1056 626 
C 1056 945 1203 1392 1376 1852 
C 1478 2114 1504 2178 1504 2305 
C 1504 2574 1312 2816 998 2816 
C 410 2816 173 1890 173 1839 
C 173 1814 198 1782 243 1782 
C 301 1782 307 1807 333 1897 
C 486 2446 736 2689 979 2689 
C 1037 2689 1146 2689 1146 2478 
C 1146 2312 1075 2127 979 1884 
C 672 1067 672 869 672 715 
C 672 575 691 313 890 134 
C 1120 -64 1440 -64 1498 -64 
C 2560 -64 2925 2024 2925 2389 
z
" transform="scale(0.015625)"/>
       <path id="CMMI12-65" d="M 1146 1479 
C 1318 1479 1754 1479 2061 1595 
C 2547 1783 2592 2158 2592 2274 
C 2592 2558 2349 2816 1926 2816 
C 1254 2816 288 2210 288 1073 
C 288 402 672 -64 1254 -64 
C 2125 -64 2675 609 2675 692 
C 2675 730 2637 762 2611 762 
C 2592 762 2586 756 2528 699 
C 2118 159 1510 64 1267 64 
C 902 64 710 350 710 822 
C 710 911 710 1071 806 1479 
L 1146 1479 
z
M 838 1600 
C 1114 2592 1722 2689 1926 2689 
C 2208 2689 2400 2522 2400 2277 
C 2400 1600 1376 1600 1107 1600 
L 838 1600 
z
" transform="scale(0.015625)"/>
       <path id="CMSY10-31" d="M 3251 1730 
C 2906 2166 2829 2262 2630 2422 
C 2272 2710 1914 2825 1587 2825 
C 838 2825 352 2122 352 1374 
C 352 639 826 -70 1562 -70 
C 2298 -70 2829 511 3142 1022 
C 3488 588 3565 492 3763 332 
C 4122 45 4480 -70 4806 -70 
C 5555 -70 6042 633 6042 1380 
C 6042 2115 5568 2825 4832 2825 
C 4096 2825 3565 2242 3251 1730 
z
M 3418 1514 
C 3680 1975 4154 2620 4877 2620 
C 5555 2620 5901 1955 5901 1380 
C 5901 753 5472 236 4909 236 
C 4538 236 4250 505 4115 638 
C 3955 811 3808 1009 3418 1514 
z
M 2976 1240 
C 2714 780 2240 134 1517 134 
C 838 134 493 799 493 1374 
C 493 2000 922 2518 1485 2518 
C 1856 2518 2144 2249 2278 2115 
C 2438 1943 2586 1744 2976 1240 
z
" transform="scale(0.015625)"/>
      </defs>
      <use xlink:href="#CMMI12-54" transform="translate(25.155742 41.344728)scale(0.697382)"/>
      <use xlink:href="#CMMI12-76" transform="translate(65.178098 30.884032)scale(0.498132)"/>
      <use xlink:href="#CMMI12-65" transform="translate(90.545677 30.884032)scale(0.498132)"/>
      <use xlink:href="#CMMI12-54" transform="translate(0 -34.355253)scale(0.697382)"/>
      <use xlink:href="#CMMI12-76" transform="translate(40.022356 -44.815949)scale(0.498132)"/>
      <use xlink:href="#CMMI12-65" transform="translate(65.389935 -44.815949)scale(0.498132)"/>
      <use xlink:href="#CMSY10-31" transform="translate(87.995928 -52.287899)scale(0.498132)"/>
      <use xlink:href="#CMMI12-3b" transform="translate(140.001043 0)scale(0.996264)"/>
      <use xlink:href="#CMSY10-0" transform="translate(211.376634 0)scale(0.996264)"/>
      <path d="M 0 22.914133 
L 138.805529 22.914133 
L 138.805529 26.899083 
L 0 26.899083 
L 0 22.914133 
z
"/>
     </g>
    </g>
   </g>
   <g id="line2d_27">
    <path d="M 118.037163 410.867958 
L 186.401396 410.787246 
L 189.994093 410.487547 
L 213.94541 407.966546 
L 247.096494 404.821465 
L 276.021824 402.430973 
L 292.302876 401.187891 
L 356.876809 396.651738 
L 375.355902 395.612379 
L 388.838577 394.733322 
L 418.537266 393.141714 
L 434.536086 392.554629 
L 443.594094 392.303281 
L 444.725128 368.371399 
L 445.549924 268.687322 
L 446.374719 205.851193 
L 447.199515 164.337598 
L 448.02431 130.526582 
L 448.849105 102.329977 
L 449.673901 85.553052 
L 450.498696 75.818509 
L 451.323491 71.450485 
L 452.148287 68.411444 
L 452.973082 67.188277 
L 453.797877 66.903842 
L 454.622673 67.086873 
L 455.447468 67.735774 
L 457.097059 70.725375 
L 459.571445 76.322569 
L 462.045831 82.96457 
L 464.520217 89.599096 
L 466.169808 93.757782 
L 467.819398 97.154621 
L 471.11858 103.460095 
L 473.592966 107.490053 
L 476.892147 112.354754 
L 478.541738 114.829585 
L 480.191329 117.649632 
L 481.849366 121.097211 
L 488.412121 136.215198 
L 491.416329 144.762611 
L 494.967625 155.337619 
L 496.979651 160.727239 
L 499.168746 165.821806 
L 501.551472 170.379631 
L 504.144896 174.550181 
L 506.964857 178.654216 
L 510.0338 181.132831 
L 513.368695 183.021171 
L 516.992516 183.869818 
L 520.924194 183.44679 
L 525.183045 181.732723 
L 529.78651 179.724219 
L 534.745909 177.696946 
L 540.063862 175.872574 
L 551.637405 172.213843 
L 563.514458 167.726798 
L 575.391511 163.475475 
L 581.330038 160.783899 
L 587.268564 158.320062 
L 593.207091 156.785834 
L 599.145617 155.938368 
L 605.084144 155.218527 
L 611.022671 154.000517 
L 616.961197 152.624506 
L 628.83825 149.213352 
L 634.776777 151.445164 
L 643.17261 164.060437 
L 651.568443 170.291478 
L 659.964277 174.832331 
L 668.36011 178.468917 
L 676.755943 181.77082 
L 685.151777 186.318027 
L 693.54761 189.668071 
L 701.943443 191.996814 
L 710.339277 193.897945 
L 735.526777 199.004345 
L 752.318443 202.907785 
L 777.505943 206.331862 
L 794.29761 208.257684 
L 827.880943 211.739548 
L 836.276777 212.213601 
L 836.276777 212.213601 
" clip-path="url(#pa3a08d5e54)" style="fill: none; stroke: #ff0000; stroke-width: 3; stroke-linecap: square"/>
   </g>
   <g id="patch_3">
    <path d="M 104.60383 617.04 
L 104.60383 7.2 
" style="fill: none; stroke: #000000; stroke-width: 0.8; stroke-linejoin: miter; stroke-linecap: square"/>
   </g>
   <g id="patch_4">
    <path d="M 830.00383 617.04 
L 830.00383 7.2 
" style="fill: none; stroke: #000000; stroke-width: 0.8; stroke-linejoin: miter; stroke-linecap: square"/>
   </g>
   <g id="patch_5">
    <path d="M 104.60383 617.04 
L 830.00383 617.04 
" style="fill: none; stroke: #000000; stroke-width: 0.8; stroke-linejoin: miter; stroke-linecap: square"/>
   </g>
   <g id="patch_6">
    <path d="M 104.60383 7.2 
L 830.00383 7.2 
" style="fill: none; stroke: #000000; stroke-width: 0.8; stroke-linejoin: miter; stroke-linecap: square"/>
   </g>
   <g id="legend_1">
    <g id="patch_7">
     <path d="M 672.961844 132.764702 
L 805.50383 132.764702 
Q 812.50383 132.764702 812.50383 125.764702 
L 812.50383 31.7 
Q 812.50383 24.7 805.50383 24.7 
L 672.961844 24.7 
Q 665.961844 24.7 665.961844 31.7 
L 665.961844 125.764702 
Q 665.961844 132.764702 672.961844 132.764702 
z
" style="fill: #ffffff; stroke: #cccccc; stroke-linejoin: miter"/>
    </g>
    <g id="patch_8">
     <path d="M 679.961844 63.2 
L 749.961844 63.2 
L 749.961844 38.7 
L 679.961844 38.7 
z
" style="fill: #99ccff; fill-opacity: 0.7"/>
    </g>
    <g id="text_16">
     <!-- $\sigma$ -->
     <g transform="translate(777.961844 63.2)scale(0.35 -0.35)">
      <defs>
       <path id="CMMI12-1b" d="M 3251 2408 
C 3334 2408 3546 2408 3546 2612 
C 3546 2752 3424 2752 3309 2752 
L 1894 2752 
C 934 2752 243 1686 243 932 
C 243 390 595 -64 1171 -64 
C 1926 -64 2752 747 2752 1705 
C 2752 1954 2694 2196 2541 2408 
L 3251 2408 
z
M 1178 64 
C 851 64 614 313 614 754 
C 614 1137 845 2408 1786 2408 
C 2061 2408 2368 2274 2368 1781 
C 2368 1558 2266 1021 2042 652 
C 1811 275 1466 64 1178 64 
z
" transform="scale(0.015625)"/>
      </defs>
      <use xlink:href="#CMMI12-1b" transform="scale(0.996264)"/>
     </g>
    </g>
    <g id="line2d_28">
     <path d="M 679.961844 99.732351 
L 714.961844 99.732351 
L 749.961844 99.732351 
" style="fill: none; stroke: #ff0000; stroke-width: 3; stroke-linecap: square"/>
    </g>
    <g id="text_17">
     <!-- $\mu$ -->
     <g transform="translate(777.961844 111.982351)scale(0.35 -0.35)">
      <defs>
       <path id="CMMI12-16" d="M 922 140 
C 1082 -6 1318 -64 1536 -64 
C 1946 -64 2227 208 2374 405 
C 2438 69 2707 -64 2931 -64 
C 3123 -64 3277 50 3392 277 
C 3494 493 3584 879 3584 903 
C 3584 935 3558 960 3520 960 
C 3462 960 3456 928 3430 834 
C 3334 461 3213 64 2950 64 
C 2765 64 2752 229 2752 358 
C 2752 504 2810 735 2854 926 
L 3034 1615 
C 3059 1737 3130 2023 3162 2139 
C 3200 2292 3270 2567 3270 2592 
C 3270 2688 3194 2752 3098 2752 
C 3040 2752 2906 2726 2854 2535 
L 2406 760 
C 2374 632 2374 619 2291 517 
C 2214 409 1965 64 1562 64 
C 1203 64 1088 326 1088 625 
C 1088 811 1146 1034 1171 1143 
L 1459 2293 
C 1491 2414 1542 2618 1542 2657 
C 1542 2759 1459 2816 1376 2816 
C 1318 2816 1178 2797 1126 2592 
L 198 -1107 
C 192 -1139 179 -1177 179 -1216 
C 179 -1312 256 -1376 352 -1376 
C 538 -1376 576 -1228 621 -1050 
L 922 140 
z
" transform="scale(0.015625)"/>
      </defs>
      <use xlink:href="#CMMI12-16" transform="scale(0.996264)"/>
     </g>
    </g>
   </g>
  </g>
 </g>
 <defs>
  <clipPath id="pa3a08d5e54">
   <rect x="104.60383" y="7.2" width="725.4" height="609.84"/>
  </clipPath>
 </defs>
</svg>
