<?xml version="1.0" encoding="utf-8" standalone="no"?>
<!DOCTYPE svg PUBLIC "-//W3C//DTD SVG 1.1//EN"
  "http://www.w3.org/Graphics/SVG/1.1/DTD/svg11.dtd">
<svg xmlns:xlink="http://www.w3.org/1999/xlink" width="832.437189pt" height="692.806049pt" viewBox="0 0 832.437189 692.806049" xmlns="http://www.w3.org/2000/svg" version="1.1">
 <metadata>
  <rdf:RDF xmlns:dc="http://purl.org/dc/elements/1.1/" xmlns:cc="http://creativecommons.org/ns#" xmlns:rdf="http://www.w3.org/1999/02/22-rdf-syntax-ns#">
   <cc:Work>
    <dc:type rdf:resource="http://purl.org/dc/dcmitype/StillImage"/>
    <dc:date>2025-03-03T10:02:31.846570</dc:date>
    <dc:format>image/svg+xml</dc:format>
    <dc:creator>
     <cc:Agent>
      <dc:title>Matplotlib v3.5.3, https://matplotlib.org/</dc:title>
     </cc:Agent>
    </dc:creator>
   </cc:Work>
  </rdf:RDF>
 </metadata>
 <defs>
  <style type="text/css">*{stroke-linejoin: round; stroke-linecap: butt}</style>
 </defs>
 <g id="figure_1">
  <g id="patch_1">
   <path d="M 0 692.806049 
L 832.437189 692.806049 
L 832.437189 0 
L 0 0 
z
" style="fill: #ffffff"/>
  </g>
  <g id="axes_1">
   <g id="patch_2">
    <path d="M 99.837189 617.04 
L 825.237189 617.04 
L 825.237189 7.2 
L 99.837189 7.2 
z
" style="fill: #ffffff"/>
   </g>
   <g id="PolyCollection_1">
    <path d="M 113.270523 71.042143 
L 113.270523 22.345045 
L 131.527686 22.345045 
L 144.855533 22.345045 
L 154.585105 22.345045 
L 161.68809 22.345045 
L 166.873842 22.345045 
L 170.660233 22.345045 
L 173.425353 22.345045 
L 175.445262 22.345045 
L 176.921529 22.393106 
L 178.100261 24.479888 
L 179.268725 48.68957 
L 180.437189 109.086569 
L 181.634755 152.876737 
L 182.832321 188.222902 
L 184.029887 213.925608 
L 185.227453 239.000939 
L 186.425019 241.235844 
L 187.622584 245.632745 
L 188.82015 250.135622 
L 190.017716 252.50915 
L 191.215282 252.556067 
L 192.412848 253.188641 
L 193.610414 254.266862 
L 194.80798 255.110976 
L 196.005545 255.585927 
L 197.203111 256.247476 
L 198.400677 256.639344 
L 199.598243 257.13678 
L 200.795809 257.500445 
L 201.993375 257.940413 
L 203.190941 258.244594 
L 204.388506 258.499348 
L 205.586072 258.629379 
L 206.783638 258.843792 
L 207.981204 258.928163 
L 209.17877 259.03455 
L 210.376336 259.149922 
L 211.573901 259.284731 
L 212.771467 259.401436 
L 213.969033 259.517177 
L 215.166599 259.55154 
L 216.364165 259.686412 
L 217.561731 259.796043 
L 218.759297 259.903928 
L 219.956862 259.960544 
L 221.154428 259.946617 
L 222.351995 259.888676 
L 223.579731 259.881722 
L 224.851333 259.861753 
L 226.168694 259.847904 
L 227.534333 259.804879 
L 228.950835 259.755507 
L 230.419684 259.72054 
L 231.942649 259.684098 
L 233.52179 259.671209 
L 235.159375 259.659559 
L 236.856834 259.647524 
L 238.615941 259.636697 
L 240.439171 259.616597 
L 242.329853 259.592574 
L 244.291748 259.54159 
L 246.323967 259.517555 
L 248.43108 259.507667 
L 250.616925 259.501174 
L 252.881633 259.472979 
L 255.231027 259.432292 
L 257.666411 259.375717 
L 260.190676 259.297653 
L 262.808896 259.22275 
L 265.523383 259.152035 
L 268.337524 259.090898 
L 271.255184 259.014953 
L 274.280306 258.935988 
L 277.4168 258.868104 
L 280.668634 258.814007 
L 284.040104 258.766075 
L 287.536236 258.756609 
L 291.160924 258.736212 
L 294.918912 258.701383 
L 298.815516 258.677866 
L 302.855789 258.617741 
L 307.044565 258.571219 
L 311.387607 258.499818 
L 315.89077 258.404127 
L 320.559929 258.285535 
L 325.400986 258.179492 
L 330.394807 258.082097 
L 335.53263 257.9927 
L 340.859588 257.894874 
L 346.383145 257.792364 
L 352.110169 257.685575 
L 358.048288 257.586753 
L 364.205329 257.483337 
L 370.589261 257.395235 
L 377.208536 257.243672 
L 384.071936 257.113363 
L 391.188344 256.996692 
L 398.567044 256.880725 
L 406.217767 256.76006 
L 413.770626 256.669018 
L 419.407545 256.596841 
L 423.421802 256.55968 
L 426.280996 256.529531 
L 428.317932 256.520088 
L 429.769446 256.508458 
L 430.910213 256.489977 
L 432.041247 256.479952 
L 433.172282 256.455932 
L 434.303316 256.443304 
L 435.43435 256.427968 
L 436.565385 256.416032 
L 437.696419 256.404029 
L 438.827454 255.354479 
L 439.958488 321.772799 
L 440.783283 405.132721 
L 441.608079 416.403999 
L 442.432874 413.753622 
L 443.257669 411.123141 
L 444.082465 408.419617 
L 444.90726 406.149721 
L 445.732056 404.296945 
L 446.556851 402.710737 
L 447.381646 401.329259 
L 448.206442 400.128983 
L 449.031237 399.120462 
L 449.856032 398.229555 
L 450.680828 397.380994 
L 451.505623 396.697387 
L 452.330418 396.082516 
L 453.155214 395.532943 
L 453.980009 395.018189 
L 454.804804 394.587019 
L 455.6296 394.164217 
L 456.454395 393.758148 
L 457.279191 393.363384 
L 458.103986 392.964411 
L 458.928781 392.630233 
L 459.753577 392.270948 
L 460.578372 391.908312 
L 461.403167 391.589634 
L 462.227963 391.294333 
L 463.052758 391.025831 
L 463.877553 390.754258 
L 464.702349 390.465224 
L 465.527144 390.184024 
L 466.351939 389.917027 
L 467.176735 389.65075 
L 468.00153 389.382821 
L 468.826326 389.102173 
L 469.651121 388.810137 
L 470.475916 388.508964 
L 471.300712 388.177946 
L 472.125507 387.83701 
L 472.950302 387.458324 
L 473.775098 387.025123 
L 474.599893 386.530223 
L 475.424688 386.025737 
L 476.249484 385.368832 
L 477.082726 384.666403 
L 477.96769 383.826662 
L 478.930327 382.883819 
L 479.968268 381.847484 
L 481.095782 380.636366 
L 482.319609 379.413334 
L 483.645481 377.903688 
L 485.08459 375.898455 
L 486.649689 373.595268 
L 488.351088 370.8731 
L 490.200984 368.068734 
L 492.213011 365.438311 
L 494.402105 363.129184 
L 496.784831 361.12687 
L 499.378255 359.274104 
L 502.198217 357.575258 
L 505.267159 357.061042 
L 508.602054 357.126774 
L 512.225875 357.960798 
L 516.157554 359.50101 
L 520.416405 361.389934 
L 525.019869 363.17561 
L 529.979269 364.662968 
L 535.297221 365.873496 
L 540.956768 367.026812 
L 546.870764 368.397617 
L 552.809291 369.829238 
L 558.747817 371.152025 
L 564.686344 372.468954 
L 570.624871 373.991436 
L 576.563397 375.888541 
L 582.501924 377.718554 
L 588.44045 379.02756 
L 594.378977 379.915739 
L 600.317503 380.703499 
L 606.25603 381.940418 
L 612.194557 383.333834 
L 618.133083 384.950691 
L 624.07161 386.684473 
L 630.010136 353.399561 
L 638.40597 244.61381 
L 646.801803 229.094812 
L 655.197636 229.025358 
L 663.59347 226.598601 
L 671.989303 229.171479 
L 680.385136 230.844092 
L 688.78097 231.185035 
L 697.176803 231.559637 
L 705.572636 232.084987 
L 713.96847 232.660314 
L 722.364303 233.304185 
L 730.760136 233.987696 
L 739.15597 234.728629 
L 747.551803 235.470968 
L 755.947636 235.940557 
L 764.34347 236.434343 
L 772.739303 236.92361 
L 781.135136 237.420893 
L 789.53097 237.843482 
L 797.926803 238.255653 
L 806.322636 238.608665 
L 814.71847 239.024748 
L 823.114303 239.258083 
L 831.510136 239.392929 
L 831.510136 255.943157 
L 831.510136 255.943157 
L 823.114303 255.804835 
L 814.71847 255.573015 
L 806.322636 255.219327 
L 797.926803 254.830052 
L 789.53097 254.430837 
L 781.135136 253.91889 
L 772.739303 253.420006 
L 764.34347 252.87773 
L 755.947636 252.42031 
L 747.551803 251.970085 
L 739.15597 251.338473 
L 730.760136 250.827735 
L 722.364303 250.380548 
L 713.96847 249.706147 
L 705.572636 248.887008 
L 697.176803 248.446203 
L 688.78097 247.92205 
L 680.385136 247.281979 
L 671.989303 246.523537 
L 663.59347 247.632768 
L 655.197636 248.571524 
L 646.801803 247.223745 
L 638.40597 263.056727 
L 630.010136 361.657433 
L 624.07161 392.317788 
L 618.133083 390.805505 
L 612.194557 389.262569 
L 606.25603 387.925838 
L 600.317503 386.691566 
L 594.378977 385.787348 
L 588.44045 384.900392 
L 582.501924 383.657638 
L 576.563397 381.858935 
L 570.624871 380.056698 
L 564.686344 378.833128 
L 558.747817 377.695985 
L 552.809291 376.468383 
L 546.870764 375.272031 
L 540.956768 374.264869 
L 535.297221 373.272879 
L 529.979269 372.303138 
L 525.019869 371.19529 
L 520.416405 370.002831 
L 516.157554 368.72617 
L 512.225875 368.099542 
L 508.602054 368.048974 
L 505.267159 368.700715 
L 502.198217 369.928394 
L 499.378255 372.086114 
L 496.784831 374.447159 
L 494.402105 376.859377 
L 492.213011 379.441478 
L 490.200984 382.126242 
L 488.351088 384.885243 
L 486.649689 387.560475 
L 485.08459 389.77388 
L 483.645481 391.647143 
L 482.319609 393.144842 
L 481.095782 394.171874 
L 479.968268 395.148302 
L 478.930327 395.964071 
L 477.96769 396.711546 
L 477.082726 397.373845 
L 476.249484 397.946722 
L 475.424688 398.49638 
L 474.599893 398.945591 
L 473.775098 399.390152 
L 472.950302 399.783935 
L 472.125507 400.140265 
L 471.300712 400.463156 
L 470.475916 400.780866 
L 469.651121 401.069689 
L 468.826326 401.353885 
L 468.00153 401.634185 
L 467.176735 401.910535 
L 466.351939 402.201798 
L 465.527144 402.493878 
L 464.702349 402.801362 
L 463.877553 403.121782 
L 463.052758 403.430776 
L 462.227963 403.736992 
L 461.403167 404.06792 
L 460.578372 404.429007 
L 459.753577 404.83368 
L 458.928781 405.231134 
L 458.103986 405.603649 
L 457.279191 406.056413 
L 456.454395 406.522618 
L 455.6296 407.015728 
L 454.804804 407.536736 
L 453.980009 408.083584 
L 453.155214 408.732415 
L 452.330418 409.428867 
L 451.505623 410.198609 
L 450.680828 411.031151 
L 449.856032 411.964588 
L 449.031237 412.836988 
L 448.206442 413.717402 
L 447.381646 414.721229 
L 446.556851 415.914271 
L 445.732056 417.206649 
L 444.90726 418.937698 
L 444.082465 421.18583 
L 443.257669 423.525131 
L 442.432874 425.331781 
L 441.608079 427.756817 
L 440.783283 452.684798 
L 439.958488 353.212908 
L 438.827454 268.567164 
L 437.696419 270.224313 
L 436.565385 270.231228 
L 435.43435 270.237708 
L 434.303316 270.250146 
L 433.172282 270.261379 
L 432.041247 270.285252 
L 430.910213 270.295013 
L 429.769446 270.314436 
L 428.317932 270.332801 
L 426.280996 270.36813 
L 423.421802 270.418634 
L 419.407545 270.491542 
L 413.770626 270.571861 
L 406.217767 270.660609 
L 398.567044 270.744783 
L 391.188344 270.807822 
L 384.071936 270.853758 
L 377.208536 270.886466 
L 370.589261 270.95461 
L 364.205329 270.96886 
L 358.048288 271.010931 
L 352.110169 271.040753 
L 346.383145 271.059531 
L 340.859588 271.109839 
L 335.53263 271.166346 
L 330.394807 271.240504 
L 325.400986 271.294886 
L 320.559929 271.340406 
L 315.89077 271.390239 
L 311.387607 271.454921 
L 307.044565 271.521171 
L 302.855789 271.577053 
L 298.815516 271.639691 
L 294.918912 271.650594 
L 291.160924 271.669591 
L 287.536236 271.680703 
L 284.040104 271.701154 
L 280.668634 271.746001 
L 277.4168 271.787341 
L 274.280306 271.833509 
L 271.255184 271.88055 
L 268.337524 271.922433 
L 265.523383 271.97435 
L 262.808896 272.0174 
L 260.190676 272.053875 
L 257.666411 272.073783 
L 255.231027 272.109208 
L 252.881633 272.125134 
L 250.616925 272.15518 
L 248.43108 272.167955 
L 246.323967 272.166818 
L 244.291748 272.143867 
L 242.329853 272.118594 
L 240.439171 272.113076 
L 238.615941 272.108144 
L 236.856834 272.094677 
L 235.159375 272.072954 
L 233.52179 272.057169 
L 231.942649 272.035168 
L 230.419684 272.009128 
L 228.950835 271.967465 
L 227.534333 271.935995 
L 226.168694 271.88827 
L 224.851333 271.847575 
L 223.579731 271.840212 
L 222.351995 271.802326 
L 221.154428 271.765337 
L 219.956862 271.674008 
L 218.759297 271.63049 
L 217.561731 271.647333 
L 216.364165 271.655827 
L 215.166599 271.627366 
L 213.969033 271.58522 
L 212.771467 271.515227 
L 211.573901 271.437046 
L 210.376336 271.488678 
L 209.17877 271.467094 
L 207.981204 271.511729 
L 206.783638 271.521608 
L 205.586072 271.577958 
L 204.388506 271.664705 
L 203.190941 271.633958 
L 201.993375 271.694061 
L 200.795809 271.775772 
L 199.598243 271.986359 
L 198.400677 272.05453 
L 197.203111 272.268658 
L 196.005545 272.390448 
L 194.80798 272.886715 
L 193.610414 273.743221 
L 192.412848 274.600375 
L 191.215282 276.274822 
L 190.017716 279.613206 
L 188.82015 278.741148 
L 187.622584 286.07599 
L 186.425019 290.159533 
L 185.227453 286.79782 
L 184.029887 266.241317 
L 182.832321 242.16272 
L 181.634755 207.708193 
L 180.437189 167.136077 
L 179.268725 99.743703 
L 178.100261 75.453233 
L 176.921529 71.09103 
L 175.445262 71.042143 
L 173.425353 71.042143 
L 170.660233 71.042143 
L 166.873842 71.042143 
L 161.68809 71.042143 
L 154.585105 71.042143 
L 144.855533 71.042143 
L 131.527686 71.042143 
L 113.270523 71.042143 
z
" clip-path="url(#p763d869af4)" style="fill: #99ccff; fill-opacity: 0.7"/>
   </g>
   <g id="matplotlib.axis_1">
    <g id="xtick_1">
     <g id="line2d_1">
      <path d="M 180.437189 617.04 
L 180.437189 7.2 
" clip-path="url(#p763d869af4)" style="fill: none; stroke: #b0b0b0; stroke-width: 0.8; stroke-linecap: square"/>
     </g>
     <g id="line2d_2">
      <defs>
       <path id="m680dfb7eee" d="M 0 0 
L 0 3.5 
" style="stroke: #000000; stroke-width: 0.8"/>
      </defs>
      <g>
       <use xlink:href="#m680dfb7eee" x="180.437189" y="617.04" style="stroke: #000000; stroke-width: 0.8"/>
      </g>
     </g>
     <g id="text_1">
      <!-- $\mathdefault{0.0}$ -->
      <g transform="translate(162.66547 644.795495)scale(0.3 -0.3)">
       <defs>
        <path id="CMR17-30" d="M 2688 2025 
C 2688 2416 2682 3080 2413 3591 
C 2176 4039 1798 4198 1466 4198 
C 1158 4198 768 4058 525 3597 
C 269 3118 243 2524 243 2025 
C 243 1661 250 1106 448 619 
C 723 -39 1216 -128 1466 -128 
C 1760 -128 2208 -7 2470 600 
C 2662 1042 2688 1559 2688 2025 
z
M 1466 -26 
C 1056 -26 813 325 723 812 
C 653 1188 653 1738 653 2096 
C 653 2588 653 2997 736 3387 
C 858 3929 1216 4096 1466 4096 
C 1728 4096 2067 3923 2189 3400 
C 2272 3036 2278 2607 2278 2096 
C 2278 1680 2278 1169 2202 792 
C 2067 95 1690 -26 1466 -26 
z
" transform="scale(0.015625)"/>
        <path id="CMMI12-3a" d="M 1178 307 
C 1178 492 1024 619 870 619 
C 685 619 557 466 557 313 
C 557 128 710 0 864 0 
C 1050 0 1178 153 1178 307 
z
" transform="scale(0.015625)"/>
       </defs>
       <use xlink:href="#CMR17-30" transform="scale(0.996264)"/>
       <use xlink:href="#CMMI12-3a" transform="translate(45.690477 0)scale(0.996264)"/>
       <use xlink:href="#CMR17-30" transform="translate(72.787654 0)scale(0.996264)"/>
      </g>
     </g>
    </g>
    <g id="xtick_2">
     <g id="line2d_3">
      <path d="M 314.770523 617.04 
L 314.770523 7.2 
" clip-path="url(#p763d869af4)" style="fill: none; stroke: #b0b0b0; stroke-width: 0.8; stroke-linecap: square"/>
     </g>
     <g id="line2d_4">
      <g>
       <use xlink:href="#m680dfb7eee" x="314.770523" y="617.04" style="stroke: #000000; stroke-width: 0.8"/>
      </g>
     </g>
     <g id="text_2">
      <!-- $\mathdefault{0.1}$ -->
      <g transform="translate(296.998803 644.795495)scale(0.3 -0.3)">
       <defs>
        <path id="CMR17-31" d="M 1702 4058 
C 1702 4192 1696 4192 1606 4192 
C 1357 3916 979 3827 621 3827 
C 602 3827 570 3827 563 3808 
C 557 3795 557 3782 557 3648 
C 755 3648 1088 3686 1344 3839 
L 1344 461 
C 1344 236 1331 160 781 160 
L 589 160 
L 589 0 
C 896 0 1216 0 1523 0 
C 1830 0 2150 0 2458 0 
L 2458 160 
L 2266 160 
C 1715 160 1702 230 1702 458 
L 1702 4058 
z
" transform="scale(0.015625)"/>
       </defs>
       <use xlink:href="#CMR17-30" transform="scale(0.996264)"/>
       <use xlink:href="#CMMI12-3a" transform="translate(45.690477 0)scale(0.996264)"/>
       <use xlink:href="#CMR17-31" transform="translate(72.787654 0)scale(0.996264)"/>
      </g>
     </g>
    </g>
    <g id="xtick_3">
     <g id="line2d_5">
      <path d="M 449.103856 617.04 
L 449.103856 7.2 
" clip-path="url(#p763d869af4)" style="fill: none; stroke: #b0b0b0; stroke-width: 0.8; stroke-linecap: square"/>
     </g>
     <g id="line2d_6">
      <g>
       <use xlink:href="#m680dfb7eee" x="449.103856" y="617.04" style="stroke: #000000; stroke-width: 0.8"/>
      </g>
     </g>
     <g id="text_3">
      <!-- $\mathdefault{0.2}$ -->
      <g transform="translate(431.332136 644.795495)scale(0.3 -0.3)">
       <defs>
        <path id="CMR17-32" d="M 2669 989 
L 2554 989 
C 2490 536 2438 459 2413 420 
C 2381 369 1920 369 1830 369 
L 602 369 
C 832 619 1280 1072 1824 1597 
C 2214 1967 2669 2402 2669 3035 
C 2669 3790 2067 4224 1395 4224 
C 691 4224 262 3604 262 3030 
C 262 2780 448 2748 525 2748 
C 589 2748 781 2787 781 3010 
C 781 3207 614 3264 525 3264 
C 486 3264 448 3258 422 3245 
C 544 3790 915 4058 1306 4058 
C 1862 4058 2227 3617 2227 3035 
C 2227 2479 1901 2000 1536 1584 
L 262 146 
L 262 0 
L 2515 0 
L 2669 989 
z
" transform="scale(0.015625)"/>
       </defs>
       <use xlink:href="#CMR17-30" transform="scale(0.996264)"/>
       <use xlink:href="#CMMI12-3a" transform="translate(45.690477 0)scale(0.996264)"/>
       <use xlink:href="#CMR17-32" transform="translate(72.787654 0)scale(0.996264)"/>
      </g>
     </g>
    </g>
    <g id="xtick_4">
     <g id="line2d_7">
      <path d="M 583.437189 617.04 
L 583.437189 7.2 
" clip-path="url(#p763d869af4)" style="fill: none; stroke: #b0b0b0; stroke-width: 0.8; stroke-linecap: square"/>
     </g>
     <g id="line2d_8">
      <g>
       <use xlink:href="#m680dfb7eee" x="583.437189" y="617.04" style="stroke: #000000; stroke-width: 0.8"/>
      </g>
     </g>
     <g id="text_4">
      <!-- $\mathdefault{0.3}$ -->
      <g transform="translate(565.66547 644.795495)scale(0.3 -0.3)">
       <defs>
        <path id="CMR17-33" d="M 1414 2157 
C 1984 2157 2234 1662 2234 1090 
C 2234 320 1824 25 1453 25 
C 1114 25 563 194 390 693 
C 422 680 454 680 486 680 
C 640 680 755 782 755 948 
C 755 1133 614 1216 486 1216 
C 378 1216 211 1165 211 926 
C 211 335 787 -128 1466 -128 
C 2176 -128 2720 430 2720 1085 
C 2720 1707 2208 2157 1600 2227 
C 2086 2328 2554 2756 2554 3329 
C 2554 3820 2048 4179 1472 4179 
C 890 4179 378 3829 378 3329 
C 378 3110 544 3072 627 3072 
C 762 3072 877 3155 877 3321 
C 877 3486 762 3569 627 3569 
C 602 3569 570 3569 544 3557 
C 730 3959 1235 4032 1459 4032 
C 1683 4032 2106 3925 2106 3320 
C 2106 3143 2080 2828 1862 2550 
C 1670 2304 1453 2304 1242 2284 
C 1210 2284 1062 2269 1037 2269 
C 992 2263 966 2257 966 2208 
C 966 2163 973 2157 1101 2157 
L 1414 2157 
z
" transform="scale(0.015625)"/>
       </defs>
       <use xlink:href="#CMR17-30" transform="scale(0.996264)"/>
       <use xlink:href="#CMMI12-3a" transform="translate(45.690477 0)scale(0.996264)"/>
       <use xlink:href="#CMR17-33" transform="translate(72.787654 0)scale(0.996264)"/>
      </g>
     </g>
    </g>
    <g id="xtick_5">
     <g id="line2d_9">
      <path d="M 717.770523 617.04 
L 717.770523 7.2 
" clip-path="url(#p763d869af4)" style="fill: none; stroke: #b0b0b0; stroke-width: 0.8; stroke-linecap: square"/>
     </g>
     <g id="line2d_10">
      <g>
       <use xlink:href="#m680dfb7eee" x="717.770523" y="617.04" style="stroke: #000000; stroke-width: 0.8"/>
      </g>
     </g>
     <g id="text_5">
      <!-- $\mathdefault{0.4}$ -->
      <g transform="translate(699.998803 644.795495)scale(0.3 -0.3)">
       <defs>
        <path id="CMR17-34" d="M 2150 4122 
C 2150 4256 2144 4256 2029 4256 
L 128 1254 
L 128 1088 
L 1779 1088 
L 1779 457 
C 1779 224 1766 160 1318 160 
L 1197 160 
L 1197 0 
C 1402 0 1747 0 1965 0 
C 2182 0 2528 0 2733 0 
L 2733 160 
L 2611 160 
C 2163 160 2150 224 2150 457 
L 2150 1088 
L 2803 1088 
L 2803 1254 
L 2150 1254 
L 2150 4122 
z
M 1798 3703 
L 1798 1254 
L 256 1254 
L 1798 3703 
z
" transform="scale(0.015625)"/>
       </defs>
       <use xlink:href="#CMR17-30" transform="scale(0.996264)"/>
       <use xlink:href="#CMMI12-3a" transform="translate(45.690477 0)scale(0.996264)"/>
       <use xlink:href="#CMR17-34" transform="translate(72.787654 0)scale(0.996264)"/>
      </g>
     </g>
    </g>
    <g id="text_6">
     <!-- $x, \; \mathrm{m} $ -->
     <g transform="translate(426.884586 678.823697)scale(0.35 -0.35)">
      <defs>
       <path id="CMMI12-78" d="M 3034 2606 
C 2829 2567 2752 2414 2752 2293 
C 2752 2139 2874 2088 2963 2088 
C 3155 2088 3290 2254 3290 2427 
C 3290 2695 2982 2816 2714 2816 
C 2323 2816 2106 2433 2048 2312 
C 1901 2816 1504 2816 1389 2816 
C 736 2816 390 1980 390 1839 
C 390 1814 416 1782 461 1782 
C 512 1782 525 1820 538 1846 
C 755 2555 1184 2689 1370 2689 
C 1658 2689 1715 2420 1715 2267 
C 1715 2127 1677 1980 1600 1673 
L 1382 798 
C 1286 415 1101 64 762 64 
C 730 64 570 64 435 147 
C 666 192 717 383 717 460 
C 717 588 621 664 499 664 
C 346 664 179 530 179 326 
C 179 57 480 -64 755 -64 
C 1062 -64 1280 179 1414 441 
C 1517 64 1837 -64 2074 -64 
C 2726 -64 3072 773 3072 913 
C 3072 945 3046 971 3008 971 
C 2950 971 2944 939 2925 888 
C 2752 326 2381 64 2093 64 
C 1869 64 1747 230 1747 492 
C 1747 632 1773 734 1875 1156 
L 2099 2024 
C 2195 2408 2413 2689 2707 2689 
C 2720 2689 2899 2689 3034 2606 
z
" transform="scale(0.015625)"/>
       <path id="CMMI12-3b" d="M 1248 -31 
C 1248 343 1126 619 864 619 
C 659 619 557 453 557 313 
C 557 172 653 0 870 0 
C 954 0 1024 26 1082 83 
C 1094 96 1101 96 1107 96 
C 1120 96 1120 5 1120 -27 
C 1120 -240 1082 -659 710 -1080 
C 640 -1157 640 -1170 640 -1183 
C 640 -1216 672 -1248 704 -1248 
C 755 -1248 1248 -771 1248 -31 
z
" transform="scale(0.015625)"/>
       <path id="CMR17-6d" d="M 4326 1933 
C 4326 2252 4269 2790 3507 2790 
C 3072 2790 2771 2496 2656 2151 
L 2650 2151 
C 2573 2676 2195 2790 1837 2790 
C 1331 2790 1069 2400 973 2144 
L 966 2144 
L 966 2790 
L 211 2720 
L 211 2554 
C 589 2554 646 2515 646 2208 
L 646 428 
C 646 184 621 153 211 153 
L 211 -13 
C 365 0 646 0 813 0 
C 979 0 1267 0 1421 -13 
L 1421 153 
C 1011 153 986 178 986 428 
L 986 1658 
C 986 2247 1344 2688 1792 2688 
C 2266 2688 2317 2266 2317 1958 
L 2317 428 
C 2317 184 2291 153 1882 153 
L 1882 -13 
C 2035 0 2317 0 2483 0 
C 2650 0 2938 0 3091 -13 
L 3091 153 
C 2682 153 2656 178 2656 428 
L 2656 1658 
C 2656 2247 3014 2688 3462 2688 
C 3936 2688 3987 2266 3987 1958 
L 3987 428 
C 3987 184 3962 153 3552 153 
L 3552 -13 
C 3706 0 3987 0 4154 0 
C 4320 0 4608 0 4762 -13 
L 4762 153 
C 4352 153 4326 178 4326 428 
L 4326 1933 
z
" transform="scale(0.015625)"/>
      </defs>
      <use xlink:href="#CMMI12-78" transform="scale(0.996264)"/>
      <use xlink:href="#CMMI12-3b" transform="translate(55.43406 0)scale(0.996264)"/>
      <use xlink:href="#CMR17-6d" transform="translate(126.809651 0)scale(0.996264)"/>
     </g>
    </g>
   </g>
   <g id="matplotlib.axis_2">
    <g id="ytick_1">
     <g id="line2d_11">
      <path d="M 99.837189 552.163404 
L 825.237189 552.163404 
" clip-path="url(#p763d869af4)" style="fill: none; stroke: #b0b0b0; stroke-width: 0.8; stroke-linecap: square"/>
     </g>
     <g id="line2d_12">
      <defs>
       <path id="mca3d086888" d="M 0 0 
L -3.5 0 
" style="stroke: #000000; stroke-width: 0.8"/>
      </defs>
      <g>
       <use xlink:href="#mca3d086888" x="99.837189" y="552.163404" style="stroke: #000000; stroke-width: 0.8"/>
      </g>
     </g>
     <g id="text_7">
      <!-- $\mathdefault{0.0}$ -->
      <g transform="translate(57.29375 562.541152)scale(0.3 -0.3)">
       <use xlink:href="#CMR17-30" transform="scale(0.996264)"/>
       <use xlink:href="#CMMI12-3a" transform="translate(45.690477 0)scale(0.996264)"/>
       <use xlink:href="#CMR17-30" transform="translate(72.787654 0)scale(0.996264)"/>
      </g>
     </g>
    </g>
    <g id="ytick_2">
     <g id="line2d_13">
      <path d="M 99.837189 448.360851 
L 825.237189 448.360851 
" clip-path="url(#p763d869af4)" style="fill: none; stroke: #b0b0b0; stroke-width: 0.8; stroke-linecap: square"/>
     </g>
     <g id="line2d_14">
      <g>
       <use xlink:href="#mca3d086888" x="99.837189" y="448.360851" style="stroke: #000000; stroke-width: 0.8"/>
      </g>
     </g>
     <g id="text_8">
      <!-- $\mathdefault{0.2}$ -->
      <g transform="translate(57.29375 458.738599)scale(0.3 -0.3)">
       <use xlink:href="#CMR17-30" transform="scale(0.996264)"/>
       <use xlink:href="#CMMI12-3a" transform="translate(45.690477 0)scale(0.996264)"/>
       <use xlink:href="#CMR17-32" transform="translate(72.787654 0)scale(0.996264)"/>
      </g>
     </g>
    </g>
    <g id="ytick_3">
     <g id="line2d_15">
      <path d="M 99.837189 344.558298 
L 825.237189 344.558298 
" clip-path="url(#p763d869af4)" style="fill: none; stroke: #b0b0b0; stroke-width: 0.8; stroke-linecap: square"/>
     </g>
     <g id="line2d_16">
      <g>
       <use xlink:href="#mca3d086888" x="99.837189" y="344.558298" style="stroke: #000000; stroke-width: 0.8"/>
      </g>
     </g>
     <g id="text_9">
      <!-- $\mathdefault{0.4}$ -->
      <g transform="translate(57.29375 354.936045)scale(0.3 -0.3)">
       <use xlink:href="#CMR17-30" transform="scale(0.996264)"/>
       <use xlink:href="#CMMI12-3a" transform="translate(45.690477 0)scale(0.996264)"/>
       <use xlink:href="#CMR17-34" transform="translate(72.787654 0)scale(0.996264)"/>
      </g>
     </g>
    </g>
    <g id="ytick_4">
     <g id="line2d_17">
      <path d="M 99.837189 240.755745 
L 825.237189 240.755745 
" clip-path="url(#p763d869af4)" style="fill: none; stroke: #b0b0b0; stroke-width: 0.8; stroke-linecap: square"/>
     </g>
     <g id="line2d_18">
      <g>
       <use xlink:href="#mca3d086888" x="99.837189" y="240.755745" style="stroke: #000000; stroke-width: 0.8"/>
      </g>
     </g>
     <g id="text_10">
      <!-- $\mathdefault{0.6}$ -->
      <g transform="translate(57.29375 251.133492)scale(0.3 -0.3)">
       <defs>
        <path id="CMR17-36" d="M 678 2176 
C 678 3690 1395 4032 1811 4032 
C 1946 4032 2272 4009 2400 3776 
C 2298 3776 2106 3776 2106 3553 
C 2106 3381 2246 3323 2336 3323 
C 2394 3323 2566 3348 2566 3560 
C 2566 3954 2246 4179 1805 4179 
C 1043 4179 243 3390 243 1984 
C 243 253 966 -128 1478 -128 
C 2099 -128 2688 427 2688 1283 
C 2688 2081 2170 2662 1517 2662 
C 1126 2662 838 2407 678 1960 
L 678 2176 
z
M 1478 25 
C 691 25 691 1200 691 1436 
C 691 1896 909 2560 1504 2560 
C 1613 2560 1926 2560 2138 2120 
C 2253 1870 2253 1609 2253 1289 
C 2253 944 2253 690 2118 434 
C 1978 171 1773 25 1478 25 
z
" transform="scale(0.015625)"/>
       </defs>
       <use xlink:href="#CMR17-30" transform="scale(0.996264)"/>
       <use xlink:href="#CMMI12-3a" transform="translate(45.690477 0)scale(0.996264)"/>
       <use xlink:href="#CMR17-36" transform="translate(72.787654 0)scale(0.996264)"/>
      </g>
     </g>
    </g>
    <g id="ytick_5">
     <g id="line2d_19">
      <path d="M 99.837189 136.953191 
L 825.237189 136.953191 
" clip-path="url(#p763d869af4)" style="fill: none; stroke: #b0b0b0; stroke-width: 0.8; stroke-linecap: square"/>
     </g>
     <g id="line2d_20">
      <g>
       <use xlink:href="#mca3d086888" x="99.837189" y="136.953191" style="stroke: #000000; stroke-width: 0.8"/>
      </g>
     </g>
     <g id="text_11">
      <!-- $\mathdefault{0.8}$ -->
      <g transform="translate(57.29375 147.330939)scale(0.3 -0.3)">
       <defs>
        <path id="CMR17-38" d="M 1741 2264 
C 2144 2467 2554 2773 2554 3263 
C 2554 3841 1990 4179 1472 4179 
C 890 4179 378 3759 378 3180 
C 378 3021 416 2747 666 2505 
C 730 2442 998 2251 1171 2130 
C 883 1983 211 1634 211 934 
C 211 279 838 -128 1459 -128 
C 2144 -128 2720 362 2720 1010 
C 2720 1590 2330 1857 2074 2029 
L 1741 2264 
z
M 902 2822 
C 851 2854 595 3051 595 3351 
C 595 3739 998 4032 1459 4032 
C 1965 4032 2336 3676 2336 3262 
C 2336 2669 1670 2331 1638 2331 
C 1632 2331 1626 2331 1574 2370 
L 902 2822 
z
M 2080 1519 
C 2176 1449 2483 1240 2483 851 
C 2483 381 2010 25 1472 25 
C 890 25 448 438 448 940 
C 448 1443 838 1862 1280 2060 
L 2080 1519 
z
" transform="scale(0.015625)"/>
       </defs>
       <use xlink:href="#CMR17-30" transform="scale(0.996264)"/>
       <use xlink:href="#CMMI12-3a" transform="translate(45.690477 0)scale(0.996264)"/>
       <use xlink:href="#CMR17-38" transform="translate(72.787654 0)scale(0.996264)"/>
      </g>
     </g>
    </g>
    <g id="ytick_6">
     <g id="line2d_21">
      <path d="M 99.837189 33.150638 
L 825.237189 33.150638 
" clip-path="url(#p763d869af4)" style="fill: none; stroke: #b0b0b0; stroke-width: 0.8; stroke-linecap: square"/>
     </g>
     <g id="line2d_22">
      <g>
       <use xlink:href="#mca3d086888" x="99.837189" y="33.150638" style="stroke: #000000; stroke-width: 0.8"/>
      </g>
     </g>
     <g id="text_12">
      <!-- $\mathdefault{1.0}$ -->
      <g transform="translate(57.29375 43.528386)scale(0.3 -0.3)">
       <use xlink:href="#CMR17-31" transform="scale(0.996264)"/>
       <use xlink:href="#CMMI12-3a" transform="translate(45.690477 0)scale(0.996264)"/>
       <use xlink:href="#CMR17-30" transform="translate(72.787654 0)scale(0.996264)"/>
      </g>
     </g>
    </g>
    <g id="text_13">
     <!-- $\frac{M}{M_\infty}, \; -$ -->
     <g transform="translate(37.608171 359.295866)rotate(-90)scale(0.35 -0.35)">
      <defs>
       <path id="CMMI12-4d" d="M 5811 3886 
C 5869 4103 5882 4167 6336 4167 
C 6458 4167 6515 4167 6515 4288 
C 6515 4352 6470 4352 6349 4352 
L 5581 4352 
C 5421 4352 5414 4346 5344 4243 
L 3008 562 
L 2528 4211 
C 2509 4352 2502 4352 2336 4352 
L 1542 4352 
C 1421 4352 1363 4352 1363 4231 
C 1363 4167 1421 4167 1517 4167 
C 1907 4167 1907 4116 1907 4046 
C 1907 4034 1907 3995 1882 3899 
L 1062 634 
C 986 327 838 186 410 186 
C 390 186 314 186 314 73 
C 314 0 371 0 397 0 
C 525 0 851 0 979 0 
L 1286 0 
C 1376 0 1485 0 1574 0 
C 1619 0 1690 0 1690 122 
C 1690 180 1626 186 1600 186 
C 1389 186 1184 224 1184 454 
C 1184 518 1184 524 1210 613 
L 2093 4129 
L 2099 4129 
L 2630 172 
C 2650 19 2656 0 2714 0 
C 2784 0 2816 51 2848 109 
L 5421 4161 
L 5427 4161 
L 4499 473 
C 4442 250 4429 186 3981 186 
C 3859 186 3795 186 3795 70 
C 3795 0 3853 0 3891 0 
C 4000 0 4128 0 4237 0 
L 4992 0 
C 5101 0 5235 0 5344 0 
C 5395 0 5466 0 5466 122 
C 5466 186 5408 186 5312 186 
C 4922 186 4922 234 4922 294 
C 4922 301 4922 345 4934 396 
L 5811 3886 
z
" transform="scale(0.015625)"/>
       <path id="CMSY10-31" d="M 3251 1730 
C 2906 2166 2829 2262 2630 2422 
C 2272 2710 1914 2825 1587 2825 
C 838 2825 352 2122 352 1374 
C 352 639 826 -70 1562 -70 
C 2298 -70 2829 511 3142 1022 
C 3488 588 3565 492 3763 332 
C 4122 45 4480 -70 4806 -70 
C 5555 -70 6042 633 6042 1380 
C 6042 2115 5568 2825 4832 2825 
C 4096 2825 3565 2242 3251 1730 
z
M 3418 1514 
C 3680 1975 4154 2620 4877 2620 
C 5555 2620 5901 1955 5901 1380 
C 5901 753 5472 236 4909 236 
C 4538 236 4250 505 4115 638 
C 3955 811 3808 1009 3418 1514 
z
M 2976 1240 
C 2714 780 2240 134 1517 134 
C 838 134 493 799 493 1374 
C 493 2000 922 2518 1485 2518 
C 1856 2518 2144 2249 2278 2115 
C 2438 1943 2586 1744 2976 1240 
z
" transform="scale(0.015625)"/>
       <path id="CMSY10-0" d="M 4218 1472 
C 4326 1472 4442 1472 4442 1600 
C 4442 1728 4326 1728 4218 1728 
L 755 1728 
C 646 1728 531 1728 531 1600 
C 531 1472 646 1472 755 1472 
L 4218 1472 
z
" transform="scale(0.015625)"/>
      </defs>
      <use xlink:href="#CMMI12-4d" transform="translate(21.513426 39.226102)scale(0.697382)"/>
      <use xlink:href="#CMMI12-4d" transform="translate(0 -34.355253)scale(0.697382)"/>
      <use xlink:href="#CMSY10-31" transform="translate(66.061109 -44.815949)scale(0.498132)"/>
      <use xlink:href="#CMMI12-3b" transform="translate(117.568092 0)scale(0.996264)"/>
      <use xlink:href="#CMSY10-0" transform="translate(188.943683 0)scale(0.996264)"/>
      <path d="M 0 22.914133 
L 116.372578 22.914133 
L 116.372578 26.899083 
L 0 26.899083 
L 0 22.914133 
z
"/>
     </g>
    </g>
   </g>
   <g id="line2d_23">
    <path d="M 113.270523 46.693594 
L 176.921529 46.742068 
L 178.100261 49.96656 
L 179.268725 74.216637 
L 180.437189 138.111323 
L 181.634755 180.292465 
L 182.832321 215.192811 
L 185.227453 262.899379 
L 186.425019 265.697688 
L 187.622584 265.854367 
L 188.82015 264.438385 
L 190.017716 266.061178 
L 191.215282 264.415444 
L 192.412848 263.894508 
L 193.610414 264.005042 
L 196.005545 263.988188 
L 197.203111 264.258067 
L 198.400677 264.346937 
L 199.598243 264.561569 
L 201.993375 264.817237 
L 205.586072 265.103668 
L 210.376336 265.3193 
L 215.166599 265.589453 
L 219.956862 265.817276 
L 223.579731 265.860967 
L 265.523383 265.563193 
L 287.536236 265.218656 
L 307.044565 265.046195 
L 364.205329 264.226098 
L 391.188344 263.902257 
L 437.696419 263.314171 
L 438.827454 261.960821 
L 439.958488 337.492853 
L 440.783283 428.90876 
L 441.608079 422.080408 
L 444.082465 414.802723 
L 444.90726 412.543709 
L 445.732056 410.751797 
L 447.381646 408.025244 
L 449.031237 405.978725 
L 451.505623 403.447998 
L 453.155214 402.132679 
L 454.804804 401.061878 
L 458.103986 399.28403 
L 463.052758 397.228303 
L 472.125507 393.988638 
L 473.775098 393.207637 
L 475.424688 392.261059 
L 477.96769 390.269104 
L 481.095782 387.40412 
L 482.319609 386.279088 
L 483.645481 384.775416 
L 486.649689 380.577871 
L 490.200984 375.097488 
L 492.213011 372.439895 
L 494.402105 369.99428 
L 496.784831 367.787014 
L 499.378255 365.680109 
L 502.198217 363.751826 
L 505.267159 362.880879 
L 508.602054 362.587874 
L 512.225875 363.03017 
L 516.157554 364.11359 
L 520.416405 365.696382 
L 525.019869 367.18545 
L 529.979269 368.483053 
L 564.686344 375.651041 
L 570.624871 377.024067 
L 582.501924 380.688096 
L 588.44045 381.963976 
L 600.317503 383.697532 
L 606.25603 384.933128 
L 612.194557 386.298202 
L 624.07161 389.50113 
L 630.010136 357.528497 
L 638.40597 253.835269 
L 646.801803 238.159278 
L 655.197636 238.798441 
L 663.59347 237.115684 
L 671.989303 237.847508 
L 680.385136 239.063035 
L 705.572636 240.485998 
L 722.364303 241.842366 
L 739.15597 243.033551 
L 747.551803 243.720526 
L 781.135136 245.669891 
L 797.926803 246.542853 
L 814.71847 247.298881 
L 831.510136 247.668043 
L 831.510136 247.668043 
" clip-path="url(#p763d869af4)" style="fill: none; stroke: #ff0000; stroke-width: 3; stroke-linecap: square"/>
   </g>
   <g id="patch_3">
    <path d="M 99.837189 617.04 
L 99.837189 7.2 
" style="fill: none; stroke: #000000; stroke-width: 0.8; stroke-linejoin: miter; stroke-linecap: square"/>
   </g>
   <g id="patch_4">
    <path d="M 825.237189 617.04 
L 825.237189 7.2 
" style="fill: none; stroke: #000000; stroke-width: 0.8; stroke-linejoin: miter; stroke-linecap: square"/>
   </g>
   <g id="patch_5">
    <path d="M 99.837189 617.04 
L 825.237189 617.04 
" style="fill: none; stroke: #000000; stroke-width: 0.8; stroke-linejoin: miter; stroke-linecap: square"/>
   </g>
   <g id="patch_6">
    <path d="M 99.837189 7.2 
L 825.237189 7.2 
" style="fill: none; stroke: #000000; stroke-width: 0.8; stroke-linejoin: miter; stroke-linecap: square"/>
   </g>
   <g id="legend_1">
    <g id="patch_7">
     <path d="M 668.195203 132.764702 
L 800.737189 132.764702 
Q 807.737189 132.764702 807.737189 125.764702 
L 807.737189 31.7 
Q 807.737189 24.7 800.737189 24.7 
L 668.195203 24.7 
Q 661.195203 24.7 661.195203 31.7 
L 661.195203 125.764702 
Q 661.195203 132.764702 668.195203 132.764702 
z
" style="fill: #ffffff; stroke: #cccccc; stroke-linejoin: miter"/>
    </g>
    <g id="patch_8">
     <path d="M 675.195203 63.2 
L 745.195203 63.2 
L 745.195203 38.7 
L 675.195203 38.7 
z
" style="fill: #99ccff; fill-opacity: 0.7"/>
    </g>
    <g id="text_14">
     <!-- $\sigma$ -->
     <g transform="translate(773.195203 63.2)scale(0.35 -0.35)">
      <defs>
       <path id="CMMI12-1b" d="M 3251 2408 
C 3334 2408 3546 2408 3546 2612 
C 3546 2752 3424 2752 3309 2752 
L 1894 2752 
C 934 2752 243 1686 243 932 
C 243 390 595 -64 1171 -64 
C 1926 -64 2752 747 2752 1705 
C 2752 1954 2694 2196 2541 2408 
L 3251 2408 
z
M 1178 64 
C 851 64 614 313 614 754 
C 614 1137 845 2408 1786 2408 
C 2061 2408 2368 2274 2368 1781 
C 2368 1558 2266 1021 2042 652 
C 1811 275 1466 64 1178 64 
z
" transform="scale(0.015625)"/>
      </defs>
      <use xlink:href="#CMMI12-1b" transform="scale(0.996264)"/>
     </g>
    </g>
    <g id="line2d_24">
     <path d="M 675.195203 99.732351 
L 710.195203 99.732351 
L 745.195203 99.732351 
" style="fill: none; stroke: #ff0000; stroke-width: 3; stroke-linecap: square"/>
    </g>
    <g id="text_15">
     <!-- $\mu$ -->
     <g transform="translate(773.195203 111.982351)scale(0.35 -0.35)">
      <defs>
       <path id="CMMI12-16" d="M 922 140 
C 1082 -6 1318 -64 1536 -64 
C 1946 -64 2227 208 2374 405 
C 2438 69 2707 -64 2931 -64 
C 3123 -64 3277 50 3392 277 
C 3494 493 3584 879 3584 903 
C 3584 935 3558 960 3520 960 
C 3462 960 3456 928 3430 834 
C 3334 461 3213 64 2950 64 
C 2765 64 2752 229 2752 358 
C 2752 504 2810 735 2854 926 
L 3034 1615 
C 3059 1737 3130 2023 3162 2139 
C 3200 2292 3270 2567 3270 2592 
C 3270 2688 3194 2752 3098 2752 
C 3040 2752 2906 2726 2854 2535 
L 2406 760 
C 2374 632 2374 619 2291 517 
C 2214 409 1965 64 1562 64 
C 1203 64 1088 326 1088 625 
C 1088 811 1146 1034 1171 1143 
L 1459 2293 
C 1491 2414 1542 2618 1542 2657 
C 1542 2759 1459 2816 1376 2816 
C 1318 2816 1178 2797 1126 2592 
L 198 -1107 
C 192 -1139 179 -1177 179 -1216 
C 179 -1312 256 -1376 352 -1376 
C 538 -1376 576 -1228 621 -1050 
L 922 140 
z
" transform="scale(0.015625)"/>
      </defs>
      <use xlink:href="#CMMI12-16" transform="scale(0.996264)"/>
     </g>
    </g>
   </g>
  </g>
 </g>
 <defs>
  <clipPath id="p763d869af4">
   <rect x="99.837189" y="7.2" width="725.4" height="609.84"/>
  </clipPath>
 </defs>
</svg>
