<?xml version="1.0" encoding="utf-8" standalone="no"?>
<!DOCTYPE svg PUBLIC "-//W3C//DTD SVG 1.1//EN"
  "http://www.w3.org/Graphics/SVG/1.1/DTD/svg11.dtd">
<svg xmlns:xlink="http://www.w3.org/1999/xlink" width="868.00106pt" height="703.183796pt" viewBox="0 0 868.00106 703.183796" xmlns="http://www.w3.org/2000/svg" version="1.1">
 <metadata>
  <rdf:RDF xmlns:dc="http://purl.org/dc/elements/1.1/" xmlns:cc="http://creativecommons.org/ns#" xmlns:rdf="http://www.w3.org/1999/02/22-rdf-syntax-ns#">
   <cc:Work>
    <dc:type rdf:resource="http://purl.org/dc/dcmitype/StillImage"/>
    <dc:date>2025-03-26T12:44:15.195268</dc:date>
    <dc:format>image/svg+xml</dc:format>
    <dc:creator>
     <cc:Agent>
      <dc:title>Matplotlib v3.7.1, https://matplotlib.org/</dc:title>
     </cc:Agent>
    </dc:creator>
   </cc:Work>
  </rdf:RDF>
 </metadata>
 <defs>
  <style type="text/css">*{stroke-linejoin: round; stroke-linecap: butt}</style>
 </defs>
 <g id="figure_1">
  <g id="patch_1">
   <path d="M 0 703.183796 
L 868.00106 703.183796 
L 868.00106 0 
L 0 0 
z
" style="fill: #ffffff"/>
  </g>
  <g id="axes_1">
   <g id="patch_2">
    <path d="M 135.40106 627.417748 
L 860.80106 627.417748 
L 860.80106 17.577748 
L 135.40106 17.577748 
z
" style="fill: #ffffff"/>
   </g>
   <g id="PolyCollection_1">
    <path d="M 148.834393 559.657748 
L 148.834393 559.657748 
L 167.091556 559.657748 
L 180.419404 559.657748 
L 190.148976 559.657748 
L 197.251961 559.657748 
L 202.437713 559.657748 
L 206.224103 559.657748 
L 208.989224 559.657748 
L 211.009132 559.657748 
L 212.4854 559.657748 
L 213.664132 559.657748 
L 214.832596 559.657748 
L 216.00106 559.657748 
L 217.198626 559.657748 
L 218.396192 559.657748 
L 219.593758 559.657748 
L 220.791323 559.657748 
L 221.988889 559.657748 
L 223.186455 559.657748 
L 224.384021 559.657748 
L 225.581587 559.657748 
L 226.779153 559.657748 
L 227.976718 559.657748 
L 229.174284 559.657748 
L 230.37185 559.657748 
L 231.569416 559.657748 
L 232.766982 559.657748 
L 233.964548 559.657748 
L 235.162114 559.657748 
L 236.359679 559.657748 
L 237.557245 559.657748 
L 238.754811 559.657748 
L 239.952377 559.657748 
L 241.149943 559.657748 
L 242.347509 559.657748 
L 243.545075 559.657748 
L 244.74264 559.657748 
L 245.940206 559.657748 
L 247.137772 559.657748 
L 248.335338 559.657748 
L 249.532904 559.657748 
L 250.73047 559.657748 
L 251.928035 559.657748 
L 253.125601 559.657748 
L 254.323167 559.657748 
L 255.520733 559.657748 
L 256.718299 559.657748 
L 257.915866 559.657748 
L 259.143602 559.657748 
L 260.415204 559.657748 
L 261.732564 559.657748 
L 263.098204 559.657748 
L 264.514706 559.657748 
L 265.983555 559.657748 
L 267.506519 559.657748 
L 269.085661 559.657748 
L 270.723246 559.657748 
L 272.420705 559.657748 
L 274.179812 559.657748 
L 276.003041 559.657748 
L 277.893724 559.657748 
L 279.855619 559.657748 
L 281.887838 559.657748 
L 283.994951 559.657748 
L 286.180796 559.657748 
L 288.445503 559.657748 
L 290.794897 559.657748 
L 293.230282 559.657748 
L 295.754546 559.657748 
L 298.372767 559.657748 
L 301.087253 559.657748 
L 303.901395 559.657748 
L 306.819054 559.657748 
L 309.844177 559.657748 
L 312.980671 559.657748 
L 316.232504 559.657748 
L 319.603974 559.657748 
L 323.100106 559.657748 
L 326.724795 559.657748 
L 330.482783 559.657748 
L 334.379387 559.657748 
L 338.419659 559.657748 
L 342.608436 559.657748 
L 346.951477 559.657748 
L 351.45464 559.657748 
L 356.1238 559.657748 
L 360.964856 559.657748 
L 365.958678 559.657748 
L 371.0965 559.657748 
L 376.423458 559.657748 
L 381.947015 559.657748 
L 387.674039 559.657748 
L 393.612158 559.657748 
L 399.7692 559.657748 
L 406.153132 559.657748 
L 412.772406 559.657748 
L 419.635807 559.657748 
L 426.752215 559.657748 
L 434.130915 559.657748 
L 441.781638 559.657748 
L 449.334496 559.657748 
L 454.971416 559.657748 
L 458.985672 559.657748 
L 461.844867 559.657748 
L 463.881803 559.657748 
L 465.333316 559.657748 
L 466.474083 559.657748 
L 467.605118 559.657748 
L 468.736152 559.657748 
L 469.867187 559.657748 
L 470.998221 559.657748 
L 472.129255 559.657748 
L 473.26029 559.657748 
L 474.391324 559.657748 
L 475.522359 559.625194 
L 476.347154 558.928235 
L 477.171949 557.512389 
L 477.996745 555.661761 
L 478.82154 553.558209 
L 479.646335 551.839512 
L 480.471131 550.85486 
L 481.295926 550.348096 
L 482.120721 550.171513 
L 482.945517 550.093778 
L 483.770312 550.108487 
L 484.595108 550.141255 
L 485.419903 550.187899 
L 486.244698 550.237944 
L 487.069494 550.281242 
L 487.894289 550.327963 
L 488.719084 550.385868 
L 489.54388 550.447683 
L 490.368675 550.517563 
L 491.19347 550.58896 
L 492.018266 550.660937 
L 492.843061 550.737728 
L 493.667856 550.824294 
L 494.492652 550.907512 
L 495.317447 550.99963 
L 496.142243 551.088225 
L 496.967038 551.171035 
L 497.791833 551.250132 
L 498.616629 551.317789 
L 499.441424 551.378288 
L 500.266219 551.441204 
L 501.091015 551.501764 
L 501.91581 551.558023 
L 502.740605 551.61122 
L 503.565401 551.659583 
L 504.390196 551.714117 
L 505.214991 551.773163 
L 506.039787 551.835799 
L 506.864582 551.907349 
L 507.689378 551.980999 
L 508.514173 552.061556 
L 509.338968 552.151435 
L 510.163764 552.253819 
L 510.988559 552.361876 
L 511.813354 552.483216 
L 512.646596 552.613152 
L 513.53156 552.766023 
L 514.494197 552.938984 
L 515.532138 553.133011 
L 516.659653 553.356661 
L 517.883479 553.589886 
L 519.209351 553.860427 
L 520.648461 554.167272 
L 522.213559 554.507077 
L 523.914959 554.880276 
L 525.764855 555.243812 
L 527.776881 555.577012 
L 529.965976 555.856024 
L 532.348702 556.075262 
L 534.942126 556.252896 
L 537.762087 556.408762 
L 540.83103 556.495412 
L 544.165925 556.505398 
L 547.789746 556.424649 
L 551.721424 556.257208 
L 555.980275 555.994577 
L 560.58374 555.630909 
L 565.543139 555.216903 
L 570.861092 554.648876 
L 576.520639 553.939593 
L 582.434635 553.085664 
L 588.373162 552.21123 
L 594.311688 551.418986 
L 600.250215 550.644103 
L 606.188741 549.762772 
L 612.127268 548.707214 
L 618.065794 547.619307 
L 624.004321 546.554415 
L 629.942848 545.546731 
L 635.881374 544.45696 
L 641.819901 543.460821 
L 647.758427 542.499968 
L 653.696954 541.639187 
L 659.63548 540.976171 
L 665.574007 540.869164 
L 673.96984 541.401306 
L 682.365674 541.614725 
L 690.761507 541.80654 
L 699.15734 542.008535 
L 707.553174 542.211306 
L 715.949007 542.418114 
L 724.34484 542.582701 
L 732.740674 542.716351 
L 741.136507 542.839314 
L 749.53234 542.956185 
L 757.928174 543.069681 
L 766.324007 543.17365 
L 774.71984 543.275469 
L 783.115674 543.376349 
L 791.511507 543.461522 
L 799.90734 543.544385 
L 808.303174 543.624096 
L 816.699007 543.70201 
L 825.09484 543.77458 
L 833.490674 543.843658 
L 841.886507 543.904323 
L 850.28234 543.96502 
L 858.678174 544.018832 
L 867.074007 544.048666 
L 867.074007 571.276414 
L 867.074007 571.276414 
L 858.678174 571.2917 
L 850.28234 571.313176 
L 841.886507 571.336359 
L 833.490674 571.367636 
L 825.09484 571.405779 
L 816.699007 571.44453 
L 808.303174 571.483183 
L 799.90734 571.515392 
L 791.511507 571.551013 
L 783.115674 571.587554 
L 774.71984 571.605274 
L 766.324007 571.624397 
L 757.928174 571.654726 
L 749.53234 571.692856 
L 741.136507 571.73132 
L 732.740674 571.761992 
L 724.34484 571.775563 
L 715.949007 571.75444 
L 707.553174 571.714312 
L 699.15734 571.748329 
L 690.761507 571.734715 
L 682.365674 571.632328 
L 673.96984 571.429536 
L 665.574007 570.94679 
L 659.63548 570.862752 
L 653.696954 571.161055 
L 647.758427 570.981537 
L 641.819901 570.492638 
L 635.881374 569.752656 
L 629.942848 568.855259 
L 624.004321 568.102129 
L 618.065794 567.433537 
L 612.127268 566.883145 
L 606.188741 566.293885 
L 600.250215 565.724827 
L 594.311688 565.176797 
L 588.373162 564.588321 
L 582.434635 563.882806 
L 576.520639 563.139551 
L 570.861092 562.504012 
L 565.543139 562.026115 
L 560.58374 561.711111 
L 555.980275 561.45566 
L 551.721424 561.300656 
L 547.789746 561.165495 
L 544.165925 561.048837 
L 540.83103 560.954151 
L 537.762087 560.891141 
L 534.942126 560.797777 
L 532.348702 560.723108 
L 529.965976 560.662631 
L 527.776881 560.611278 
L 525.764855 560.554059 
L 523.914959 560.480072 
L 522.213559 560.411901 
L 520.648461 560.360423 
L 519.209351 560.316488 
L 517.883479 560.31086 
L 516.659653 560.312699 
L 515.532138 560.28566 
L 514.494197 560.26019 
L 513.53156 560.226425 
L 512.646596 560.18225 
L 511.813354 560.147662 
L 510.988559 560.099535 
L 510.163764 560.07823 
L 509.338968 560.047445 
L 508.514173 560.016786 
L 507.689378 559.992099 
L 506.864582 559.970197 
L 506.039787 559.947146 
L 505.214991 559.930211 
L 504.390196 559.912405 
L 503.565401 559.89329 
L 502.740605 559.873649 
L 501.91581 559.85739 
L 501.091015 559.845274 
L 500.266219 559.828537 
L 499.441424 559.811716 
L 498.616629 559.811001 
L 497.791833 559.81938 
L 496.967038 559.830619 
L 496.142243 559.843912 
L 495.317447 559.857841 
L 494.492652 559.878319 
L 493.667856 559.906725 
L 492.843061 559.916662 
L 492.018266 559.925779 
L 491.19347 559.941943 
L 490.368675 559.962653 
L 489.54388 559.971781 
L 488.719084 559.98181 
L 487.894289 559.973698 
L 487.069494 559.970022 
L 486.244698 559.959291 
L 485.419903 559.972054 
L 484.595108 560.013842 
L 483.770312 560.098881 
L 482.945517 560.217761 
L 482.120721 560.385521 
L 481.295926 560.600385 
L 480.471131 560.840132 
L 479.646335 561.055599 
L 478.82154 560.976379 
L 477.996745 560.491831 
L 477.171949 560.087207 
L 476.347154 559.821294 
L 475.522359 559.66511 
L 474.391324 559.657748 
L 473.26029 559.657748 
L 472.129255 559.657748 
L 470.998221 559.657748 
L 469.867187 559.657748 
L 468.736152 559.657748 
L 467.605118 559.657748 
L 466.474083 559.657748 
L 465.333316 559.657748 
L 463.881803 559.657748 
L 461.844867 559.657748 
L 458.985672 559.657748 
L 454.971416 559.657748 
L 449.334496 559.657748 
L 441.781638 559.657748 
L 434.130915 559.657748 
L 426.752215 559.657748 
L 419.635807 559.657748 
L 412.772406 559.657748 
L 406.153132 559.657748 
L 399.7692 559.657748 
L 393.612158 559.657748 
L 387.674039 559.657748 
L 381.947015 559.657748 
L 376.423458 559.657748 
L 371.0965 559.657748 
L 365.958678 559.657748 
L 360.964856 559.657748 
L 356.1238 559.657748 
L 351.45464 559.657748 
L 346.951477 559.657748 
L 342.608436 559.657748 
L 338.419659 559.657748 
L 334.379387 559.657748 
L 330.482783 559.657748 
L 326.724795 559.657748 
L 323.100106 559.657748 
L 319.603974 559.657748 
L 316.232504 559.657748 
L 312.980671 559.657748 
L 309.844177 559.657748 
L 306.819054 559.657748 
L 303.901395 559.657748 
L 301.087253 559.657748 
L 298.372767 559.657748 
L 295.754546 559.657748 
L 293.230282 559.657748 
L 290.794897 559.657748 
L 288.445503 559.657748 
L 286.180796 559.657748 
L 283.994951 559.657748 
L 281.887838 559.657748 
L 279.855619 559.657748 
L 277.893724 559.657748 
L 276.003041 559.657748 
L 274.179812 559.657748 
L 272.420705 559.657748 
L 270.723246 559.657748 
L 269.085661 559.657748 
L 267.506519 559.657748 
L 265.983555 559.657748 
L 264.514706 559.657748 
L 263.098204 559.657748 
L 261.732564 559.657748 
L 260.415204 559.657748 
L 259.143602 559.657748 
L 257.915866 559.657748 
L 256.718299 559.657748 
L 255.520733 559.657748 
L 254.323167 559.657748 
L 253.125601 559.657748 
L 251.928035 559.657748 
L 250.73047 559.657748 
L 249.532904 559.657748 
L 248.335338 559.657748 
L 247.137772 559.657748 
L 245.940206 559.657748 
L 244.74264 559.657748 
L 243.545075 559.657748 
L 242.347509 559.657748 
L 241.149943 559.657748 
L 239.952377 559.657748 
L 238.754811 559.657748 
L 237.557245 559.657748 
L 236.359679 559.657748 
L 235.162114 559.657748 
L 233.964548 559.657748 
L 232.766982 559.657748 
L 231.569416 559.657748 
L 230.37185 559.657748 
L 229.174284 559.657748 
L 227.976718 559.657748 
L 226.779153 559.657748 
L 225.581587 559.657748 
L 224.384021 559.657748 
L 223.186455 559.657748 
L 221.988889 559.657748 
L 220.791323 559.657748 
L 219.593758 559.657748 
L 218.396192 559.657748 
L 217.198626 559.657748 
L 216.00106 559.657748 
L 214.832596 559.657748 
L 213.664132 559.657748 
L 212.4854 559.657748 
L 211.009132 559.657748 
L 208.989224 559.657748 
L 206.224103 559.657748 
L 202.437713 559.657748 
L 197.251961 559.657748 
L 190.148976 559.657748 
L 180.419404 559.657748 
L 167.091556 559.657748 
L 148.834393 559.657748 
z
" clip-path="url(#p7d9342e351)" style="fill: #99ccff; fill-opacity: 0.7"/>
   </g>
   <g id="PolyCollection_2">
    <path d="M 148.834393 559.657748 
L 148.834393 559.657748 
L 167.091556 559.657748 
L 180.419404 559.657748 
L 190.148976 559.657748 
L 197.251961 559.657748 
L 202.437713 559.657748 
L 206.224103 559.657748 
L 208.989224 559.657748 
L 211.009132 559.657748 
L 212.4854 559.657748 
L 213.664132 559.657748 
L 214.832596 559.657748 
L 216.00106 559.657748 
L 217.198626 559.657748 
L 218.396192 559.657748 
L 219.593758 559.657748 
L 220.791323 559.657748 
L 221.988889 559.657748 
L 223.186455 559.657748 
L 224.384021 559.657748 
L 225.581587 559.657748 
L 226.779153 559.657748 
L 227.976718 559.657748 
L 229.174284 559.657748 
L 230.37185 559.657748 
L 231.569416 559.657748 
L 232.766982 559.657748 
L 233.964548 559.657748 
L 235.162114 559.657748 
L 236.359679 559.657748 
L 237.557245 559.657748 
L 238.754811 559.657748 
L 239.952377 559.657748 
L 241.149943 559.657748 
L 242.347509 559.657748 
L 243.545075 559.657748 
L 244.74264 559.657748 
L 245.940206 559.657748 
L 247.137772 559.657748 
L 248.335338 559.657748 
L 249.532904 559.657748 
L 250.73047 559.657748 
L 251.928035 559.657748 
L 253.125601 559.657748 
L 254.323167 559.657748 
L 255.520733 559.657748 
L 256.718299 559.657748 
L 257.915866 559.657748 
L 259.143602 559.657748 
L 260.415204 559.657748 
L 261.732564 559.657747 
L 263.098204 559.657747 
L 264.514706 559.657747 
L 265.983555 559.657747 
L 267.506519 559.657747 
L 269.085661 559.657747 
L 270.723246 559.657747 
L 272.420705 559.657747 
L 274.179812 559.657747 
L 276.003041 559.657747 
L 277.893724 559.657747 
L 279.855619 559.657747 
L 281.887838 559.657747 
L 283.994951 559.657747 
L 286.180796 559.657747 
L 288.445503 559.657747 
L 290.794897 559.657747 
L 293.230282 559.657747 
L 295.754546 559.657747 
L 298.372767 559.657747 
L 301.087253 559.657747 
L 303.901395 559.657747 
L 306.819054 559.657747 
L 309.844177 559.657747 
L 312.980671 559.657747 
L 316.232504 559.657747 
L 319.603974 559.657747 
L 323.100106 559.657747 
L 326.724795 559.657747 
L 330.482783 559.657747 
L 334.379387 559.657747 
L 338.419659 559.657747 
L 342.608436 559.657747 
L 346.951477 559.657747 
L 351.45464 559.657747 
L 356.1238 559.657747 
L 360.964856 559.657747 
L 365.958678 559.657747 
L 371.0965 559.657747 
L 376.423458 559.657746 
L 381.947015 559.657746 
L 387.674039 559.657746 
L 393.612158 559.657746 
L 399.7692 559.657746 
L 406.153132 559.657746 
L 412.772406 559.657746 
L 419.635807 559.657745 
L 426.752215 559.657745 
L 434.130915 559.657745 
L 441.781638 559.657745 
L 449.334496 559.657745 
L 454.971416 559.657744 
L 458.985672 559.657744 
L 461.844867 559.657744 
L 463.881803 559.657744 
L 465.333316 559.657744 
L 466.474083 559.657744 
L 467.605118 559.657744 
L 468.736152 559.657744 
L 469.867187 559.657744 
L 470.998221 559.657744 
L 472.129255 559.657744 
L 473.26029 559.657744 
L 474.391324 559.657741 
L 475.522359 559.314028 
L 476.347154 552.489153 
L 477.171949 536.29129 
L 477.996745 514.852825 
L 478.82154 487.423133 
L 479.646335 457.206278 
L 480.471131 429.962616 
L 481.295926 406.595171 
L 482.120721 388.489024 
L 482.945517 371.940917 
L 483.770312 358.068757 
L 484.595108 345.690082 
L 485.419903 334.559879 
L 486.244698 323.786067 
L 487.069494 313.783468 
L 487.894289 304.389128 
L 488.719084 296.021051 
L 489.54388 288.035945 
L 490.368675 281.565684 
L 491.19347 274.973348 
L 492.018266 268.89068 
L 492.843061 263.138386 
L 493.667856 257.828402 
L 494.492652 253.2008 
L 495.317447 248.907381 
L 496.142243 244.639897 
L 496.967038 241.201983 
L 497.791833 238.131943 
L 498.616629 235.32093 
L 499.441424 232.529795 
L 500.266219 229.796674 
L 501.091015 227.281056 
L 501.91581 225.018293 
L 502.740605 222.902054 
L 503.565401 220.843282 
L 504.390196 218.987609 
L 505.214991 217.292375 
L 506.039787 215.735609 
L 506.864582 214.443031 
L 507.689378 213.386758 
L 508.514173 212.334125 
L 509.338968 211.453977 
L 510.163764 210.427047 
L 510.988559 209.397028 
L 511.813354 208.260368 
L 512.646596 207.007555 
L 513.53156 205.718032 
L 514.494197 204.505515 
L 515.532138 203.177146 
L 516.659653 201.982165 
L 517.883479 200.706502 
L 519.209351 199.330983 
L 520.648461 198.108237 
L 522.213559 197.173606 
L 523.914959 196.575006 
L 525.764855 196.155351 
L 527.776881 195.936372 
L 529.965976 195.919918 
L 532.348702 196.103263 
L 534.942126 196.593552 
L 537.762087 198.260349 
L 540.83103 200.818952 
L 544.165925 202.320386 
L 547.789746 202.743628 
L 551.721424 202.177305 
L 555.980275 200.639844 
L 560.58374 198.222577 
L 565.543139 195.525844 
L 570.861092 192.826131 
L 576.520639 190.228065 
L 582.434635 187.716223 
L 588.373162 184.827693 
L 594.311688 181.397212 
L 600.250215 177.264508 
L 606.188741 172.192288 
L 612.127268 164.584779 
L 618.065794 156.249706 
L 624.004321 149.462642 
L 629.942848 144.055376 
L 635.881374 139.055749 
L 641.819901 132.426492 
L 647.758427 125.164444 
L 653.696954 116.610327 
L 659.63548 107.41377 
L 665.574007 102.041513 
L 673.96984 100.868705 
L 682.365674 100.265959 
L 690.761507 99.729477 
L 699.15734 99.18576 
L 707.553174 98.624374 
L 715.949007 97.87355 
L 724.34484 97.317414 
L 732.740674 96.935776 
L 741.136507 96.633872 
L 749.53234 96.370534 
L 757.928174 96.116337 
L 766.324007 95.855777 
L 774.71984 95.568079 
L 783.115674 95.2987 
L 791.511507 95.143192 
L 799.90734 94.990563 
L 808.303174 94.849384 
L 816.699007 94.724519 
L 825.09484 94.610591 
L 833.490674 94.493947 
L 841.886507 94.376154 
L 850.28234 94.239213 
L 858.678174 94.114544 
L 867.074007 94.034658 
L 867.074007 252.389471 
L 867.074007 252.389471 
L 858.678174 252.442842 
L 850.28234 252.523955 
L 841.886507 252.609543 
L 833.490674 252.672517 
L 825.09484 252.73259 
L 816.699007 252.787955 
L 808.303174 252.854774 
L 799.90734 252.938866 
L 791.511507 253.03471 
L 783.115674 253.135628 
L 774.71984 253.348636 
L 766.324007 253.577039 
L 757.928174 253.776581 
L 749.53234 253.969466 
L 741.136507 254.166516 
L 732.740674 254.390224 
L 724.34484 254.684858 
L 715.949007 255.150925 
L 707.553174 255.778348 
L 699.15734 256.110268 
L 690.761507 256.511039 
L 682.365674 257.038969 
L 673.96984 257.700196 
L 665.574007 258.938399 
L 659.63548 264.858239 
L 653.696954 275.162394 
L 647.758427 285.338808 
L 641.819901 294.40684 
L 635.881374 302.721653 
L 629.942848 309.265586 
L 624.004321 315.892342 
L 618.065794 323.751675 
L 612.127268 332.925621 
L 606.188741 341.28893 
L 600.250215 346.827227 
L 594.311688 351.03061 
L 588.373162 354.240895 
L 582.434635 356.55114 
L 576.520639 358.053279 
L 570.861092 359.149358 
L 565.543139 359.905227 
L 560.58374 360.335277 
L 555.980275 360.330678 
L 551.721424 359.466838 
L 547.789746 357.605635 
L 544.165925 354.94135 
L 540.83103 351.583753 
L 537.762087 347.557402 
L 534.942126 344.55414 
L 532.348702 342.879591 
L 529.965976 341.759358 
L 527.776881 341.086631 
L 525.764855 340.785498 
L 523.914959 340.815008 
L 522.213559 341.153175 
L 520.648461 341.956372 
L 519.209351 343.148723 
L 517.883479 344.610624 
L 516.659653 346.033041 
L 515.532138 347.437074 
L 514.494197 349.042938 
L 513.53156 350.548085 
L 512.646596 352.110298 
L 511.813354 353.603139 
L 510.988559 354.983134 
L 510.163764 356.32722 
L 509.338968 357.606182 
L 508.514173 358.703843 
L 507.689378 359.940769 
L 506.864582 361.197602 
L 506.039787 362.692056 
L 505.214991 364.451618 
L 504.390196 366.311088 
L 503.565401 368.29618 
L 502.740605 370.395154 
L 501.91581 372.701492 
L 501.091015 375.208874 
L 500.266219 377.971021 
L 499.441424 380.946012 
L 498.616629 384.071882 
L 497.791833 387.327289 
L 496.967038 390.879349 
L 496.142243 394.79586 
L 495.317447 399.556354 
L 494.492652 404.322606 
L 493.667856 409.246219 
L 492.843061 414.668156 
L 492.018266 420.302823 
L 491.19347 426.099162 
L 490.368675 432.203787 
L 489.54388 437.774661 
L 488.719084 444.49961 
L 487.894289 450.970974 
L 487.069494 458.089295 
L 486.244698 465.014235 
L 485.419903 472.404794 
L 484.595108 479.638698 
L 483.770312 487.321885 
L 482.945517 495.44483 
L 482.120721 504.756505 
L 481.295926 515.010814 
L 480.471131 526.829633 
L 479.646335 540.992358 
L 478.82154 553.29494 
L 477.996745 558.846657 
L 477.171949 561.027627 
L 476.347154 560.641211 
L 475.522359 559.706652 
L 474.391324 559.657752 
L 473.26029 559.65775 
L 472.129255 559.65775 
L 470.998221 559.65775 
L 469.867187 559.657749 
L 468.736152 559.657749 
L 467.605118 559.657749 
L 466.474083 559.657749 
L 465.333316 559.657749 
L 463.881803 559.657749 
L 461.844867 559.657749 
L 458.985672 559.657749 
L 454.971416 559.657749 
L 449.334496 559.657749 
L 441.781638 559.657749 
L 434.130915 559.657749 
L 426.752215 559.657749 
L 419.635807 559.657749 
L 412.772406 559.657749 
L 406.153132 559.657748 
L 399.7692 559.657748 
L 393.612158 559.657748 
L 387.674039 559.657748 
L 381.947015 559.657748 
L 376.423458 559.657748 
L 371.0965 559.657748 
L 365.958678 559.657748 
L 360.964856 559.657748 
L 356.1238 559.657748 
L 351.45464 559.657748 
L 346.951477 559.657748 
L 342.608436 559.657748 
L 338.419659 559.657748 
L 334.379387 559.657748 
L 330.482783 559.657748 
L 326.724795 559.657748 
L 323.100106 559.657748 
L 319.603974 559.657748 
L 316.232504 559.657748 
L 312.980671 559.657748 
L 309.844177 559.657748 
L 306.819054 559.657748 
L 303.901395 559.657748 
L 301.087253 559.657748 
L 298.372767 559.657748 
L 295.754546 559.657748 
L 293.230282 559.657748 
L 290.794897 559.657748 
L 288.445503 559.657748 
L 286.180796 559.657748 
L 283.994951 559.657748 
L 281.887838 559.657748 
L 279.855619 559.657748 
L 277.893724 559.657748 
L 276.003041 559.657748 
L 274.179812 559.657748 
L 272.420705 559.657748 
L 270.723246 559.657748 
L 269.085661 559.657748 
L 267.506519 559.657748 
L 265.983555 559.657748 
L 264.514706 559.657748 
L 263.098204 559.657748 
L 261.732564 559.657748 
L 260.415204 559.657748 
L 259.143602 559.657748 
L 257.915866 559.657748 
L 256.718299 559.657748 
L 255.520733 559.657748 
L 254.323167 559.657748 
L 253.125601 559.657748 
L 251.928035 559.657748 
L 250.73047 559.657748 
L 249.532904 559.657748 
L 248.335338 559.657748 
L 247.137772 559.657748 
L 245.940206 559.657748 
L 244.74264 559.657748 
L 243.545075 559.657748 
L 242.347509 559.657748 
L 241.149943 559.657748 
L 239.952377 559.657748 
L 238.754811 559.657748 
L 237.557245 559.657748 
L 236.359679 559.657748 
L 235.162114 559.657748 
L 233.964548 559.657748 
L 232.766982 559.657748 
L 231.569416 559.657748 
L 230.37185 559.657748 
L 229.174284 559.657748 
L 227.976718 559.657748 
L 226.779153 559.657748 
L 225.581587 559.657748 
L 224.384021 559.657748 
L 223.186455 559.657748 
L 221.988889 559.657748 
L 220.791323 559.657748 
L 219.593758 559.657748 
L 218.396192 559.657748 
L 217.198626 559.657748 
L 216.00106 559.657748 
L 214.832596 559.657748 
L 213.664132 559.657748 
L 212.4854 559.657748 
L 211.009132 559.657748 
L 208.989224 559.657748 
L 206.224103 559.657748 
L 202.437713 559.657748 
L 197.251961 559.657748 
L 190.148976 559.657748 
L 180.419404 559.657748 
L 167.091556 559.657748 
L 148.834393 559.657748 
z
" clip-path="url(#p7d9342e351)" style="fill: #008000; fill-opacity: 0.2"/>
   </g>
   <g id="PolyCollection_3">
    <path d="M 148.834393 559.657748 
L 148.834393 559.657748 
L 167.091556 559.657748 
L 180.419404 559.657748 
L 190.148976 559.657748 
L 197.251961 559.657748 
L 202.437713 559.657748 
L 206.224103 559.657748 
L 208.989224 559.657748 
L 211.009132 559.657748 
L 212.4854 559.657748 
L 213.664132 559.657748 
L 214.832596 559.657748 
L 216.00106 559.657748 
L 217.198626 559.657748 
L 218.396192 559.657748 
L 219.593758 559.657748 
L 220.791323 559.657748 
L 221.988889 559.657748 
L 223.186455 559.657748 
L 224.384021 559.657748 
L 225.581587 559.657748 
L 226.779153 559.657748 
L 227.976718 559.657748 
L 229.174284 559.657748 
L 230.37185 559.657748 
L 231.569416 559.657748 
L 232.766982 559.657748 
L 233.964548 559.657748 
L 235.162114 559.657748 
L 236.359679 559.657748 
L 237.557245 559.657748 
L 238.754811 559.657748 
L 239.952377 559.657748 
L 241.149943 559.657748 
L 242.347509 559.657748 
L 243.545075 559.657748 
L 244.74264 559.657748 
L 245.940206 559.657748 
L 247.137772 559.657748 
L 248.335338 559.657748 
L 249.532904 559.657748 
L 250.73047 559.657748 
L 251.928035 559.657748 
L 253.125601 559.657748 
L 254.323167 559.657748 
L 255.520733 559.657748 
L 256.718299 559.657748 
L 257.915866 559.657748 
L 259.143602 559.657748 
L 260.415204 559.657748 
L 261.732564 559.657748 
L 263.098204 559.657748 
L 264.514706 559.657748 
L 265.983555 559.657748 
L 267.506519 559.657748 
L 269.085661 559.657748 
L 270.723246 559.657748 
L 272.420705 559.657748 
L 274.179812 559.657748 
L 276.003041 559.657748 
L 277.893724 559.657748 
L 279.855619 559.657748 
L 281.887838 559.657748 
L 283.994951 559.657748 
L 286.180796 559.657748 
L 288.445503 559.657748 
L 290.794897 559.657748 
L 293.230282 559.657748 
L 295.754546 559.657748 
L 298.372767 559.657748 
L 301.087253 559.657748 
L 303.901395 559.657748 
L 306.819054 559.657748 
L 309.844177 559.657748 
L 312.980671 559.657748 
L 316.232504 559.657748 
L 319.603974 559.657748 
L 323.100106 559.657748 
L 326.724795 559.657748 
L 330.482783 559.657748 
L 334.379387 559.657748 
L 338.419659 559.657748 
L 342.608436 559.657748 
L 346.951477 559.657748 
L 351.45464 559.657748 
L 356.1238 559.657748 
L 360.964856 559.657748 
L 365.958678 559.657748 
L 371.0965 559.657748 
L 376.423458 559.657748 
L 381.947015 559.657748 
L 387.674039 559.657748 
L 393.612158 559.657748 
L 399.7692 559.657748 
L 406.153132 559.657748 
L 412.772406 559.657748 
L 419.635807 559.657748 
L 426.752215 559.657748 
L 434.130915 559.657748 
L 441.781638 559.657748 
L 449.334496 559.657748 
L 454.971416 559.657748 
L 458.985672 559.657748 
L 461.844867 559.657748 
L 463.881803 559.657748 
L 465.333316 559.657748 
L 466.474083 559.657748 
L 467.605118 559.657748 
L 468.736152 559.657748 
L 469.867187 559.657748 
L 470.998221 559.657748 
L 472.129255 559.657748 
L 473.26029 559.657748 
L 474.391324 559.657748 
L 475.522359 559.5293 
L 476.347154 555.601607 
L 477.171949 546.910759 
L 477.996745 534.702968 
L 478.82154 519.385203 
L 479.646335 503.428419 
L 480.471131 489.660333 
L 481.295926 478.238429 
L 482.120721 469.152403 
L 482.945517 460.655932 
L 483.770312 453.357624 
L 484.595108 446.709324 
L 485.419903 440.594171 
L 486.244698 434.595271 
L 487.069494 428.822563 
L 487.894289 423.554974 
L 488.719084 418.781984 
L 489.54388 414.132404 
L 490.368675 410.275775 
L 491.19347 406.355851 
L 492.018266 402.708193 
L 492.843061 399.282095 
L 493.667856 396.12285 
L 494.492652 393.405489 
L 495.317447 390.808188 
L 496.142243 388.221863 
L 496.967038 386.171389 
L 497.791833 384.37659 
L 498.616629 382.783274 
L 499.441424 381.21798 
L 500.266219 379.702066 
L 501.091015 378.323656 
L 501.91581 377.091471 
L 502.740605 375.984547 
L 503.565401 375.004872 
L 504.390196 374.138725 
L 505.214991 373.388027 
L 506.039787 372.739707 
L 506.864582 372.267472 
L 507.689378 371.93433 
L 508.514173 371.624689 
L 509.338968 371.359396 
L 510.163764 371.080086 
L 510.988559 370.767263 
L 511.813354 370.468089 
L 512.646596 370.119223 
L 513.53156 369.736922 
L 514.494197 369.405318 
L 515.532138 369.055945 
L 516.659653 368.859357 
L 517.883479 368.59684 
L 519.209351 368.335297 
L 520.648461 368.230246 
L 522.213559 368.270026 
L 523.914959 368.509446 
L 525.764855 368.89744 
L 527.776881 369.395598 
L 529.965976 369.963599 
L 532.348702 370.570075 
L 534.942126 371.396722 
L 537.762087 372.879836 
L 540.83103 374.87969 
L 544.165925 376.667737 
L 547.789746 378.18128 
L 551.721424 379.447742 
L 555.980275 380.659872 
L 560.58374 381.784587 
L 565.543139 382.692523 
L 570.861092 383.187478 
L 576.520639 383.097982 
L 582.434635 382.29937 
L 588.373162 380.746858 
L 594.311688 378.875481 
L 600.250215 376.866129 
L 606.188741 375.066078 
L 612.127268 373.079661 
L 618.065794 371.061536 
L 624.004321 368.904861 
L 629.942848 366.639694 
L 635.881374 364.357144 
L 641.819901 363.174435 
L 647.758427 362.639574 
L 653.696954 363.293187 
L 659.63548 363.699168 
L 665.574007 363.25304 
L 673.96984 362.547137 
L 682.365674 362.510052 
L 690.761507 361.928634 
L 699.15734 361.063961 
L 707.553174 360.140348 
L 715.949007 359.80972 
L 724.34484 359.61178 
L 732.740674 359.358365 
L 741.136507 359.05671 
L 749.53234 358.758853 
L 757.928174 358.476937 
L 766.324007 358.243634 
L 774.71984 358.051532 
L 783.115674 357.873498 
L 791.511507 357.639167 
L 799.90734 357.404803 
L 808.303174 357.191665 
L 816.699007 356.963736 
L 825.09484 356.752445 
L 833.490674 356.550864 
L 841.886507 356.394565 
L 850.28234 356.270042 
L 858.678174 356.179134 
L 867.074007 356.114731 
L 867.074007 467.683646 
L 867.074007 467.683646 
L 858.678174 467.59156 
L 850.28234 467.42851 
L 841.886507 467.240407 
L 833.490674 467.049588 
L 825.09484 466.807435 
L 816.699007 466.542987 
L 808.303174 466.24588 
L 799.90734 465.946481 
L 791.511507 465.638739 
L 783.115674 465.320852 
L 774.71984 464.988457 
L 766.324007 464.636397 
L 757.928174 464.255202 
L 749.53234 463.819906 
L 741.136507 463.36311 
L 732.740674 462.887113 
L 724.34484 462.401384 
L 715.949007 461.823232 
L 707.553174 461.067858 
L 699.15734 459.924923 
L 690.761507 458.739079 
L 682.365674 457.790769 
L 673.96984 457.427421 
L 665.574007 455.844503 
L 659.63548 454.606516 
L 653.696954 452.49226 
L 647.758427 452.312077 
L 641.819901 452.219171 
L 635.881374 451.953273 
L 629.942848 450.715437 
L 624.004321 449.6039 
L 618.065794 448.661116 
L 612.127268 448.031536 
L 606.188741 447.659038 
L 600.250215 447.024755 
L 594.311688 446.532314 
L 588.373162 446.322225 
L 582.434635 446.203305 
L 576.520639 446.701626 
L 570.861092 447.97549 
L 565.543139 449.500406 
L 560.58374 450.925076 
L 555.980275 451.789093 
L 551.721424 451.881193 
L 547.789746 451.558517 
L 544.165925 450.817068 
L 540.83103 449.605855 
L 537.762087 448.009146 
L 534.942126 446.815628 
L 532.348702 446.307485 
L 529.965976 446.041343 
L 527.776881 445.963381 
L 525.764855 446.056259 
L 523.914959 446.283852 
L 522.213559 446.728459 
L 520.648461 447.481865 
L 519.209351 448.449761 
L 517.883479 449.613051 
L 516.659653 450.67912 
L 515.532138 451.654526 
L 514.494197 452.752663 
L 513.53156 453.825008 
L 512.646596 454.983211 
L 511.813354 456.097184 
L 510.988559 457.189944 
L 510.163764 458.294071 
L 509.338968 459.425021 
L 508.514173 460.536122 
L 507.689378 461.707446 
L 506.864582 462.879536 
L 506.039787 464.178117 
L 505.214991 465.66595 
L 504.390196 467.208083 
L 503.565401 468.824593 
L 502.740605 470.501462 
L 501.91581 472.264503 
L 501.091015 474.12935 
L 500.266219 476.090993 
L 499.441424 478.142503 
L 498.616629 480.22214 
L 497.791833 482.340652 
L 496.967038 484.633394 
L 496.142243 487.140815 
L 495.317447 490.157219 
L 494.492652 493.1394 
L 493.667856 496.113677 
L 492.843061 499.408881 
L 492.018266 502.790276 
L 491.19347 506.206882 
L 490.368675 509.733576 
L 489.54388 512.89022 
L 488.719084 516.620449 
L 487.894289 520.157477 
L 487.069494 523.961485 
L 486.244698 527.722606 
L 485.419903 531.577364 
L 484.595108 535.266893 
L 483.770312 539.107746 
L 482.945517 543.02554 
L 482.120721 547.366906 
L 481.295926 551.963668 
L 480.471131 556.944299 
L 479.646335 562.130872 
L 478.82154 565.364271 
L 477.996745 564.698415 
L 477.171949 562.813259 
L 476.347154 561.124773 
L 475.522359 559.690148 
L 474.391324 559.657748 
L 473.26029 559.657748 
L 472.129255 559.657748 
L 470.998221 559.657748 
L 469.867187 559.657748 
L 468.736152 559.657748 
L 467.605118 559.657748 
L 466.474083 559.657748 
L 465.333316 559.657748 
L 463.881803 559.657748 
L 461.844867 559.657748 
L 458.985672 559.657748 
L 454.971416 559.657748 
L 449.334496 559.657748 
L 441.781638 559.657748 
L 434.130915 559.657748 
L 426.752215 559.657748 
L 419.635807 559.657748 
L 412.772406 559.657748 
L 406.153132 559.657748 
L 399.7692 559.657748 
L 393.612158 559.657748 
L 387.674039 559.657748 
L 381.947015 559.657748 
L 376.423458 559.657748 
L 371.0965 559.657748 
L 365.958678 559.657748 
L 360.964856 559.657748 
L 356.1238 559.657748 
L 351.45464 559.657748 
L 346.951477 559.657748 
L 342.608436 559.657748 
L 338.419659 559.657748 
L 334.379387 559.657748 
L 330.482783 559.657748 
L 326.724795 559.657748 
L 323.100106 559.657748 
L 319.603974 559.657748 
L 316.232504 559.657748 
L 312.980671 559.657748 
L 309.844177 559.657748 
L 306.819054 559.657748 
L 303.901395 559.657748 
L 301.087253 559.657748 
L 298.372767 559.657748 
L 295.754546 559.657748 
L 293.230282 559.657748 
L 290.794897 559.657748 
L 288.445503 559.657748 
L 286.180796 559.657748 
L 283.994951 559.657748 
L 281.887838 559.657748 
L 279.855619 559.657748 
L 277.893724 559.657748 
L 276.003041 559.657748 
L 274.179812 559.657748 
L 272.420705 559.657748 
L 270.723246 559.657748 
L 269.085661 559.657748 
L 267.506519 559.657748 
L 265.983555 559.657748 
L 264.514706 559.657748 
L 263.098204 559.657748 
L 261.732564 559.657748 
L 260.415204 559.657748 
L 259.143602 559.657748 
L 257.915866 559.657748 
L 256.718299 559.657748 
L 255.520733 559.657748 
L 254.323167 559.657748 
L 253.125601 559.657748 
L 251.928035 559.657748 
L 250.73047 559.657748 
L 249.532904 559.657748 
L 248.335338 559.657748 
L 247.137772 559.657748 
L 245.940206 559.657748 
L 244.74264 559.657748 
L 243.545075 559.657748 
L 242.347509 559.657748 
L 241.149943 559.657748 
L 239.952377 559.657748 
L 238.754811 559.657748 
L 237.557245 559.657748 
L 236.359679 559.657748 
L 235.162114 559.657748 
L 233.964548 559.657748 
L 232.766982 559.657748 
L 231.569416 559.657748 
L 230.37185 559.657748 
L 229.174284 559.657748 
L 227.976718 559.657748 
L 226.779153 559.657748 
L 225.581587 559.657748 
L 224.384021 559.657748 
L 223.186455 559.657748 
L 221.988889 559.657748 
L 220.791323 559.657748 
L 219.593758 559.657748 
L 218.396192 559.657748 
L 217.198626 559.657748 
L 216.00106 559.657748 
L 214.832596 559.657748 
L 213.664132 559.657748 
L 212.4854 559.657748 
L 211.009132 559.657748 
L 208.989224 559.657748 
L 206.224103 559.657748 
L 202.437713 559.657748 
L 197.251961 559.657748 
L 190.148976 559.657748 
L 180.419404 559.657748 
L 167.091556 559.657748 
L 148.834393 559.657748 
z
" clip-path="url(#p7d9342e351)" style="fill: #ffa500; fill-opacity: 0.2"/>
   </g>
   <g id="matplotlib.axis_1">
    <g id="xtick_1">
     <g id="line2d_1">
      <path d="M 216.00106 627.417748 
L 216.00106 17.577748 
" clip-path="url(#p7d9342e351)" style="fill: none; stroke: #b0b0b0; stroke-width: 0.8; stroke-linecap: square"/>
     </g>
     <g id="line2d_2">
      <defs>
       <path id="mc852b897f8" d="M 0 0 
L 0 3.5 
" style="stroke: #000000; stroke-width: 0.8"/>
      </defs>
      <g>
       <use xlink:href="#mc852b897f8" x="216.00106" y="627.417748" style="stroke: #000000; stroke-width: 0.8"/>
      </g>
     </g>
     <g id="text_1">
      <!-- $\mathdefault{0.0}$ -->
      <g transform="translate(198.22934 655.173243) scale(0.3 -0.3)">
       <defs>
        <path id="CMR17-30" d="M 2688 2025 
C 2688 2416 2682 3080 2413 3591 
C 2176 4039 1798 4198 1466 4198 
C 1158 4198 768 4058 525 3597 
C 269 3118 243 2524 243 2025 
C 243 1661 250 1106 448 619 
C 723 -39 1216 -128 1466 -128 
C 1760 -128 2208 -7 2470 600 
C 2662 1042 2688 1559 2688 2025 
z
M 1466 -26 
C 1056 -26 813 325 723 812 
C 653 1188 653 1738 653 2096 
C 653 2588 653 2997 736 3387 
C 858 3929 1216 4096 1466 4096 
C 1728 4096 2067 3923 2189 3400 
C 2272 3036 2278 2607 2278 2096 
C 2278 1680 2278 1169 2202 792 
C 2067 95 1690 -26 1466 -26 
z
" transform="scale(0.015625)"/>
        <path id="CMMI12-3a" d="M 1178 307 
C 1178 492 1024 619 870 619 
C 685 619 557 466 557 313 
C 557 128 710 0 864 0 
C 1050 0 1178 153 1178 307 
z
" transform="scale(0.015625)"/>
       </defs>
       <use xlink:href="#CMR17-30" transform="scale(0.996264)"/>
       <use xlink:href="#CMMI12-3a" transform="translate(45.690477 0) scale(0.996264)"/>
       <use xlink:href="#CMR17-30" transform="translate(72.787654 0) scale(0.996264)"/>
      </g>
     </g>
    </g>
    <g id="xtick_2">
     <g id="line2d_3">
      <path d="M 350.334393 627.417748 
L 350.334393 17.577748 
" clip-path="url(#p7d9342e351)" style="fill: none; stroke: #b0b0b0; stroke-width: 0.8; stroke-linecap: square"/>
     </g>
     <g id="line2d_4">
      <g>
       <use xlink:href="#mc852b897f8" x="350.334393" y="627.417748" style="stroke: #000000; stroke-width: 0.8"/>
      </g>
     </g>
     <g id="text_2">
      <!-- $\mathdefault{0.1}$ -->
      <g transform="translate(332.562674 655.173243) scale(0.3 -0.3)">
       <defs>
        <path id="CMR17-31" d="M 1702 4058 
C 1702 4192 1696 4192 1606 4192 
C 1357 3916 979 3827 621 3827 
C 602 3827 570 3827 563 3808 
C 557 3795 557 3782 557 3648 
C 755 3648 1088 3686 1344 3839 
L 1344 461 
C 1344 236 1331 160 781 160 
L 589 160 
L 589 0 
C 896 0 1216 0 1523 0 
C 1830 0 2150 0 2458 0 
L 2458 160 
L 2266 160 
C 1715 160 1702 230 1702 458 
L 1702 4058 
z
" transform="scale(0.015625)"/>
       </defs>
       <use xlink:href="#CMR17-30" transform="scale(0.996264)"/>
       <use xlink:href="#CMMI12-3a" transform="translate(45.690477 0) scale(0.996264)"/>
       <use xlink:href="#CMR17-31" transform="translate(72.787654 0) scale(0.996264)"/>
      </g>
     </g>
    </g>
    <g id="xtick_3">
     <g id="line2d_5">
      <path d="M 484.667727 627.417748 
L 484.667727 17.577748 
" clip-path="url(#p7d9342e351)" style="fill: none; stroke: #b0b0b0; stroke-width: 0.8; stroke-linecap: square"/>
     </g>
     <g id="line2d_6">
      <g>
       <use xlink:href="#mc852b897f8" x="484.667727" y="627.417748" style="stroke: #000000; stroke-width: 0.8"/>
      </g>
     </g>
     <g id="text_3">
      <!-- $\mathdefault{0.2}$ -->
      <g transform="translate(466.896007 655.173243) scale(0.3 -0.3)">
       <defs>
        <path id="CMR17-32" d="M 2669 989 
L 2554 989 
C 2490 536 2438 459 2413 420 
C 2381 369 1920 369 1830 369 
L 602 369 
C 832 619 1280 1072 1824 1597 
C 2214 1967 2669 2402 2669 3035 
C 2669 3790 2067 4224 1395 4224 
C 691 4224 262 3604 262 3030 
C 262 2780 448 2748 525 2748 
C 589 2748 781 2787 781 3010 
C 781 3207 614 3264 525 3264 
C 486 3264 448 3258 422 3245 
C 544 3790 915 4058 1306 4058 
C 1862 4058 2227 3617 2227 3035 
C 2227 2479 1901 2000 1536 1584 
L 262 146 
L 262 0 
L 2515 0 
L 2669 989 
z
" transform="scale(0.015625)"/>
       </defs>
       <use xlink:href="#CMR17-30" transform="scale(0.996264)"/>
       <use xlink:href="#CMMI12-3a" transform="translate(45.690477 0) scale(0.996264)"/>
       <use xlink:href="#CMR17-32" transform="translate(72.787654 0) scale(0.996264)"/>
      </g>
     </g>
    </g>
    <g id="xtick_4">
     <g id="line2d_7">
      <path d="M 619.00106 627.417748 
L 619.00106 17.577748 
" clip-path="url(#p7d9342e351)" style="fill: none; stroke: #b0b0b0; stroke-width: 0.8; stroke-linecap: square"/>
     </g>
     <g id="line2d_8">
      <g>
       <use xlink:href="#mc852b897f8" x="619.00106" y="627.417748" style="stroke: #000000; stroke-width: 0.8"/>
      </g>
     </g>
     <g id="text_4">
      <!-- $\mathdefault{0.3}$ -->
      <g transform="translate(601.22934 655.173243) scale(0.3 -0.3)">
       <defs>
        <path id="CMR17-33" d="M 1414 2157 
C 1984 2157 2234 1662 2234 1090 
C 2234 320 1824 25 1453 25 
C 1114 25 563 194 390 693 
C 422 680 454 680 486 680 
C 640 680 755 782 755 948 
C 755 1133 614 1216 486 1216 
C 378 1216 211 1165 211 926 
C 211 335 787 -128 1466 -128 
C 2176 -128 2720 430 2720 1085 
C 2720 1707 2208 2157 1600 2227 
C 2086 2328 2554 2756 2554 3329 
C 2554 3820 2048 4179 1472 4179 
C 890 4179 378 3829 378 3329 
C 378 3110 544 3072 627 3072 
C 762 3072 877 3155 877 3321 
C 877 3486 762 3569 627 3569 
C 602 3569 570 3569 544 3557 
C 730 3959 1235 4032 1459 4032 
C 1683 4032 2106 3925 2106 3320 
C 2106 3143 2080 2828 1862 2550 
C 1670 2304 1453 2304 1242 2284 
C 1210 2284 1062 2269 1037 2269 
C 992 2263 966 2257 966 2208 
C 966 2163 973 2157 1101 2157 
L 1414 2157 
z
" transform="scale(0.015625)"/>
       </defs>
       <use xlink:href="#CMR17-30" transform="scale(0.996264)"/>
       <use xlink:href="#CMMI12-3a" transform="translate(45.690477 0) scale(0.996264)"/>
       <use xlink:href="#CMR17-33" transform="translate(72.787654 0) scale(0.996264)"/>
      </g>
     </g>
    </g>
    <g id="xtick_5">
     <g id="line2d_9">
      <path d="M 753.334393 627.417748 
L 753.334393 17.577748 
" clip-path="url(#p7d9342e351)" style="fill: none; stroke: #b0b0b0; stroke-width: 0.8; stroke-linecap: square"/>
     </g>
     <g id="line2d_10">
      <g>
       <use xlink:href="#mc852b897f8" x="753.334393" y="627.417748" style="stroke: #000000; stroke-width: 0.8"/>
      </g>
     </g>
     <g id="text_5">
      <!-- $\mathdefault{0.4}$ -->
      <g transform="translate(735.562674 655.173243) scale(0.3 -0.3)">
       <defs>
        <path id="CMR17-34" d="M 2150 4122 
C 2150 4256 2144 4256 2029 4256 
L 128 1254 
L 128 1088 
L 1779 1088 
L 1779 457 
C 1779 224 1766 160 1318 160 
L 1197 160 
L 1197 0 
C 1402 0 1747 0 1965 0 
C 2182 0 2528 0 2733 0 
L 2733 160 
L 2611 160 
C 2163 160 2150 224 2150 457 
L 2150 1088 
L 2803 1088 
L 2803 1254 
L 2150 1254 
L 2150 4122 
z
M 1798 3703 
L 1798 1254 
L 256 1254 
L 1798 3703 
z
" transform="scale(0.015625)"/>
       </defs>
       <use xlink:href="#CMR17-30" transform="scale(0.996264)"/>
       <use xlink:href="#CMMI12-3a" transform="translate(45.690477 0) scale(0.996264)"/>
       <use xlink:href="#CMR17-34" transform="translate(72.787654 0) scale(0.996264)"/>
      </g>
     </g>
    </g>
    <g id="text_6">
     <!-- $x, \; \mathrm{m} $ -->
     <g transform="translate(462.448457 689.201445) scale(0.35 -0.35)">
      <defs>
       <path id="CMMI12-78" d="M 3034 2606 
C 2829 2567 2752 2414 2752 2293 
C 2752 2139 2874 2088 2963 2088 
C 3155 2088 3290 2254 3290 2427 
C 3290 2695 2982 2816 2714 2816 
C 2323 2816 2106 2433 2048 2312 
C 1901 2816 1504 2816 1389 2816 
C 736 2816 390 1980 390 1839 
C 390 1814 416 1782 461 1782 
C 512 1782 525 1820 538 1846 
C 755 2555 1184 2689 1370 2689 
C 1658 2689 1715 2420 1715 2267 
C 1715 2127 1677 1980 1600 1673 
L 1382 798 
C 1286 415 1101 64 762 64 
C 730 64 570 64 435 147 
C 666 192 717 383 717 460 
C 717 588 621 664 499 664 
C 346 664 179 530 179 326 
C 179 57 480 -64 755 -64 
C 1062 -64 1280 179 1414 441 
C 1517 64 1837 -64 2074 -64 
C 2726 -64 3072 773 3072 913 
C 3072 945 3046 971 3008 971 
C 2950 971 2944 939 2925 888 
C 2752 326 2381 64 2093 64 
C 1869 64 1747 230 1747 492 
C 1747 632 1773 734 1875 1156 
L 2099 2024 
C 2195 2408 2413 2689 2707 2689 
C 2720 2689 2899 2689 3034 2606 
z
" transform="scale(0.015625)"/>
       <path id="CMMI12-3b" d="M 1248 -31 
C 1248 343 1126 619 864 619 
C 659 619 557 453 557 313 
C 557 172 653 0 870 0 
C 954 0 1024 26 1082 83 
C 1094 96 1101 96 1107 96 
C 1120 96 1120 5 1120 -27 
C 1120 -240 1082 -659 710 -1080 
C 640 -1157 640 -1170 640 -1183 
C 640 -1216 672 -1248 704 -1248 
C 755 -1248 1248 -771 1248 -31 
z
" transform="scale(0.015625)"/>
       <path id="CMR17-6d" d="M 4326 1933 
C 4326 2252 4269 2790 3507 2790 
C 3072 2790 2771 2496 2656 2151 
L 2650 2151 
C 2573 2676 2195 2790 1837 2790 
C 1331 2790 1069 2400 973 2144 
L 966 2144 
L 966 2790 
L 211 2720 
L 211 2554 
C 589 2554 646 2515 646 2208 
L 646 428 
C 646 184 621 153 211 153 
L 211 -13 
C 365 0 646 0 813 0 
C 979 0 1267 0 1421 -13 
L 1421 153 
C 1011 153 986 178 986 428 
L 986 1658 
C 986 2247 1344 2688 1792 2688 
C 2266 2688 2317 2266 2317 1958 
L 2317 428 
C 2317 184 2291 153 1882 153 
L 1882 -13 
C 2035 0 2317 0 2483 0 
C 2650 0 2938 0 3091 -13 
L 3091 153 
C 2682 153 2656 178 2656 428 
L 2656 1658 
C 2656 2247 3014 2688 3462 2688 
C 3936 2688 3987 2266 3987 1958 
L 3987 428 
C 3987 184 3962 153 3552 153 
L 3552 -13 
C 3706 0 3987 0 4154 0 
C 4320 0 4608 0 4762 -13 
L 4762 153 
C 4352 153 4326 178 4326 428 
L 4326 1933 
z
" transform="scale(0.015625)"/>
      </defs>
      <use xlink:href="#CMMI12-78" transform="scale(0.996264)"/>
      <use xlink:href="#CMMI12-3b" transform="translate(55.43406 0) scale(0.996264)"/>
      <use xlink:href="#CMR17-6d" transform="translate(126.809651 0) scale(0.996264)"/>
     </g>
    </g>
   </g>
   <g id="matplotlib.axis_2">
    <g id="ytick_1">
     <g id="line2d_11">
      <path d="M 135.40106 627.417748 
L 860.80106 627.417748 
" clip-path="url(#p7d9342e351)" style="fill: none; stroke: #b0b0b0; stroke-width: 0.8; stroke-linecap: square"/>
     </g>
     <g id="line2d_12">
      <defs>
       <path id="m78e390a442" d="M 0 0 
L -3.5 0 
" style="stroke: #000000; stroke-width: 0.8"/>
      </defs>
      <g>
       <use xlink:href="#m78e390a442" x="135.40106" y="627.417748" style="stroke: #000000; stroke-width: 0.8"/>
      </g>
     </g>
     <g id="text_7">
      <!-- $\mathdefault{−0.025}$ -->
      <g transform="translate(42.197103 637.795495) scale(0.3 -0.3)">
       <defs>
        <path id="CMSY10-0" d="M 4218 1472 
C 4326 1472 4442 1472 4442 1600 
C 4442 1728 4326 1728 4218 1728 
L 755 1728 
C 646 1728 531 1728 531 1600 
C 531 1472 646 1472 755 1472 
L 4218 1472 
z
" transform="scale(0.015625)"/>
        <path id="CMR17-35" d="M 730 3692 
C 794 3666 1056 3584 1325 3584 
C 1920 3584 2246 3911 2432 4100 
C 2432 4157 2432 4192 2394 4192 
C 2387 4192 2374 4192 2323 4163 
C 2099 4058 1837 3973 1517 3973 
C 1325 3973 1037 3999 723 4139 
C 653 4171 640 4171 634 4171 
C 602 4171 595 4164 595 4037 
L 595 2203 
C 595 2089 595 2057 659 2057 
C 691 2057 704 2070 736 2114 
C 941 2401 1222 2522 1542 2522 
C 1766 2522 2246 2382 2246 1289 
C 2246 1085 2246 715 2054 421 
C 1894 159 1645 25 1370 25 
C 947 25 518 320 403 814 
C 429 807 480 795 506 795 
C 589 795 749 840 749 1038 
C 749 1210 627 1280 506 1280 
C 358 1280 262 1190 262 1011 
C 262 454 704 -128 1382 -128 
C 2042 -128 2669 440 2669 1264 
C 2669 2030 2170 2624 1549 2624 
C 1222 2624 947 2503 730 2274 
L 730 3692 
z
" transform="scale(0.015625)"/>
       </defs>
       <use xlink:href="#CMSY10-0" transform="scale(0.996264)"/>
       <use xlink:href="#CMR17-30" transform="translate(77.487468 0) scale(0.996264)"/>
       <use xlink:href="#CMMI12-3a" transform="translate(123.177945 0) scale(0.996264)"/>
       <use xlink:href="#CMR17-30" transform="translate(150.275122 0) scale(0.996264)"/>
       <use xlink:href="#CMR17-32" transform="translate(195.965599 0) scale(0.996264)"/>
       <use xlink:href="#CMR17-35" transform="translate(241.656076 0) scale(0.996264)"/>
      </g>
     </g>
    </g>
    <g id="ytick_2">
     <g id="line2d_13">
      <path d="M 135.40106 559.657748 
L 860.80106 559.657748 
" clip-path="url(#p7d9342e351)" style="fill: none; stroke: #b0b0b0; stroke-width: 0.8; stroke-linecap: square"/>
     </g>
     <g id="line2d_14">
      <g>
       <use xlink:href="#m78e390a442" x="135.40106" y="559.657748" style="stroke: #000000; stroke-width: 0.8"/>
      </g>
     </g>
     <g id="text_8">
      <!-- $\mathdefault{0.000}$ -->
      <g transform="translate(65.443334 570.035495) scale(0.3 -0.3)">
       <use xlink:href="#CMR17-30" transform="scale(0.996264)"/>
       <use xlink:href="#CMMI12-3a" transform="translate(45.690477 0) scale(0.996264)"/>
       <use xlink:href="#CMR17-30" transform="translate(72.787654 0) scale(0.996264)"/>
       <use xlink:href="#CMR17-30" transform="translate(118.478131 0) scale(0.996264)"/>
       <use xlink:href="#CMR17-30" transform="translate(164.168608 0) scale(0.996264)"/>
      </g>
     </g>
    </g>
    <g id="ytick_3">
     <g id="line2d_15">
      <path d="M 135.40106 491.897748 
L 860.80106 491.897748 
" clip-path="url(#p7d9342e351)" style="fill: none; stroke: #b0b0b0; stroke-width: 0.8; stroke-linecap: square"/>
     </g>
     <g id="line2d_16">
      <g>
       <use xlink:href="#m78e390a442" x="135.40106" y="491.897748" style="stroke: #000000; stroke-width: 0.8"/>
      </g>
     </g>
     <g id="text_9">
      <!-- $\mathdefault{0.025}$ -->
      <g transform="translate(65.443334 502.275495) scale(0.3 -0.3)">
       <use xlink:href="#CMR17-30" transform="scale(0.996264)"/>
       <use xlink:href="#CMMI12-3a" transform="translate(45.690477 0) scale(0.996264)"/>
       <use xlink:href="#CMR17-30" transform="translate(72.787654 0) scale(0.996264)"/>
       <use xlink:href="#CMR17-32" transform="translate(118.478131 0) scale(0.996264)"/>
       <use xlink:href="#CMR17-35" transform="translate(164.168608 0) scale(0.996264)"/>
      </g>
     </g>
    </g>
    <g id="ytick_4">
     <g id="line2d_17">
      <path d="M 135.40106 424.137748 
L 860.80106 424.137748 
" clip-path="url(#p7d9342e351)" style="fill: none; stroke: #b0b0b0; stroke-width: 0.8; stroke-linecap: square"/>
     </g>
     <g id="line2d_18">
      <g>
       <use xlink:href="#m78e390a442" x="135.40106" y="424.137748" style="stroke: #000000; stroke-width: 0.8"/>
      </g>
     </g>
     <g id="text_10">
      <!-- $\mathdefault{0.050}$ -->
      <g transform="translate(65.443334 434.515495) scale(0.3 -0.3)">
       <use xlink:href="#CMR17-30" transform="scale(0.996264)"/>
       <use xlink:href="#CMMI12-3a" transform="translate(45.690477 0) scale(0.996264)"/>
       <use xlink:href="#CMR17-30" transform="translate(72.787654 0) scale(0.996264)"/>
       <use xlink:href="#CMR17-35" transform="translate(118.478131 0) scale(0.996264)"/>
       <use xlink:href="#CMR17-30" transform="translate(164.168608 0) scale(0.996264)"/>
      </g>
     </g>
    </g>
    <g id="ytick_5">
     <g id="line2d_19">
      <path d="M 135.40106 356.377748 
L 860.80106 356.377748 
" clip-path="url(#p7d9342e351)" style="fill: none; stroke: #b0b0b0; stroke-width: 0.8; stroke-linecap: square"/>
     </g>
     <g id="line2d_20">
      <g>
       <use xlink:href="#m78e390a442" x="135.40106" y="356.377748" style="stroke: #000000; stroke-width: 0.8"/>
      </g>
     </g>
     <g id="text_11">
      <!-- $\mathdefault{0.075}$ -->
      <g transform="translate(65.443334 366.755495) scale(0.3 -0.3)">
       <defs>
        <path id="CMR17-37" d="M 2886 3941 
L 2886 4081 
L 1382 4081 
C 634 4081 621 4165 595 4288 
L 480 4288 
L 294 3094 
L 410 3094 
C 429 3215 474 3540 550 3661 
C 589 3712 1062 3712 1171 3712 
L 2579 3712 
L 1869 2661 
C 1395 1954 1069 999 1069 165 
C 1069 89 1069 -128 1299 -128 
C 1530 -128 1530 89 1530 171 
L 1530 465 
C 1530 1508 1709 2196 2003 2636 
L 2886 3941 
z
" transform="scale(0.015625)"/>
       </defs>
       <use xlink:href="#CMR17-30" transform="scale(0.996264)"/>
       <use xlink:href="#CMMI12-3a" transform="translate(45.690477 0) scale(0.996264)"/>
       <use xlink:href="#CMR17-30" transform="translate(72.787654 0) scale(0.996264)"/>
       <use xlink:href="#CMR17-37" transform="translate(118.478131 0) scale(0.996264)"/>
       <use xlink:href="#CMR17-35" transform="translate(164.168608 0) scale(0.996264)"/>
      </g>
     </g>
    </g>
    <g id="ytick_6">
     <g id="line2d_21">
      <path d="M 135.40106 288.617748 
L 860.80106 288.617748 
" clip-path="url(#p7d9342e351)" style="fill: none; stroke: #b0b0b0; stroke-width: 0.8; stroke-linecap: square"/>
     </g>
     <g id="line2d_22">
      <g>
       <use xlink:href="#m78e390a442" x="135.40106" y="288.617748" style="stroke: #000000; stroke-width: 0.8"/>
      </g>
     </g>
     <g id="text_12">
      <!-- $\mathdefault{0.100}$ -->
      <g transform="translate(65.443334 298.995495) scale(0.3 -0.3)">
       <use xlink:href="#CMR17-30" transform="scale(0.996264)"/>
       <use xlink:href="#CMMI12-3a" transform="translate(45.690477 0) scale(0.996264)"/>
       <use xlink:href="#CMR17-31" transform="translate(72.787654 0) scale(0.996264)"/>
       <use xlink:href="#CMR17-30" transform="translate(118.478131 0) scale(0.996264)"/>
       <use xlink:href="#CMR17-30" transform="translate(164.168608 0) scale(0.996264)"/>
      </g>
     </g>
    </g>
    <g id="ytick_7">
     <g id="line2d_23">
      <path d="M 135.40106 220.857748 
L 860.80106 220.857748 
" clip-path="url(#p7d9342e351)" style="fill: none; stroke: #b0b0b0; stroke-width: 0.8; stroke-linecap: square"/>
     </g>
     <g id="line2d_24">
      <g>
       <use xlink:href="#m78e390a442" x="135.40106" y="220.857748" style="stroke: #000000; stroke-width: 0.8"/>
      </g>
     </g>
     <g id="text_13">
      <!-- $\mathdefault{0.125}$ -->
      <g transform="translate(65.443334 231.235495) scale(0.3 -0.3)">
       <use xlink:href="#CMR17-30" transform="scale(0.996264)"/>
       <use xlink:href="#CMMI12-3a" transform="translate(45.690477 0) scale(0.996264)"/>
       <use xlink:href="#CMR17-31" transform="translate(72.787654 0) scale(0.996264)"/>
       <use xlink:href="#CMR17-32" transform="translate(118.478131 0) scale(0.996264)"/>
       <use xlink:href="#CMR17-35" transform="translate(164.168608 0) scale(0.996264)"/>
      </g>
     </g>
    </g>
    <g id="ytick_8">
     <g id="line2d_25">
      <path d="M 135.40106 153.097748 
L 860.80106 153.097748 
" clip-path="url(#p7d9342e351)" style="fill: none; stroke: #b0b0b0; stroke-width: 0.8; stroke-linecap: square"/>
     </g>
     <g id="line2d_26">
      <g>
       <use xlink:href="#m78e390a442" x="135.40106" y="153.097748" style="stroke: #000000; stroke-width: 0.8"/>
      </g>
     </g>
     <g id="text_14">
      <!-- $\mathdefault{0.150}$ -->
      <g transform="translate(65.443334 163.475495) scale(0.3 -0.3)">
       <use xlink:href="#CMR17-30" transform="scale(0.996264)"/>
       <use xlink:href="#CMMI12-3a" transform="translate(45.690477 0) scale(0.996264)"/>
       <use xlink:href="#CMR17-31" transform="translate(72.787654 0) scale(0.996264)"/>
       <use xlink:href="#CMR17-35" transform="translate(118.478131 0) scale(0.996264)"/>
       <use xlink:href="#CMR17-30" transform="translate(164.168608 0) scale(0.996264)"/>
      </g>
     </g>
    </g>
    <g id="ytick_9">
     <g id="line2d_27">
      <path d="M 135.40106 85.337748 
L 860.80106 85.337748 
" clip-path="url(#p7d9342e351)" style="fill: none; stroke: #b0b0b0; stroke-width: 0.8; stroke-linecap: square"/>
     </g>
     <g id="line2d_28">
      <g>
       <use xlink:href="#m78e390a442" x="135.40106" y="85.337748" style="stroke: #000000; stroke-width: 0.8"/>
      </g>
     </g>
     <g id="text_15">
      <!-- $\mathdefault{0.175}$ -->
      <g transform="translate(65.443334 95.715495) scale(0.3 -0.3)">
       <use xlink:href="#CMR17-30" transform="scale(0.996264)"/>
       <use xlink:href="#CMMI12-3a" transform="translate(45.690477 0) scale(0.996264)"/>
       <use xlink:href="#CMR17-31" transform="translate(72.787654 0) scale(0.996264)"/>
       <use xlink:href="#CMR17-37" transform="translate(118.478131 0) scale(0.996264)"/>
       <use xlink:href="#CMR17-35" transform="translate(164.168608 0) scale(0.996264)"/>
      </g>
     </g>
    </g>
    <g id="ytick_10">
     <g id="line2d_29">
      <path d="M 135.40106 17.577748 
L 860.80106 17.577748 
" clip-path="url(#p7d9342e351)" style="fill: none; stroke: #b0b0b0; stroke-width: 0.8; stroke-linecap: square"/>
     </g>
     <g id="line2d_30">
      <g>
       <use xlink:href="#m78e390a442" x="135.40106" y="17.577748" style="stroke: #000000; stroke-width: 0.8"/>
      </g>
     </g>
     <g id="text_16">
      <!-- $\mathdefault{0.200}$ -->
      <g transform="translate(65.443334 27.955495) scale(0.3 -0.3)">
       <use xlink:href="#CMR17-30" transform="scale(0.996264)"/>
       <use xlink:href="#CMMI12-3a" transform="translate(45.690477 0) scale(0.996264)"/>
       <use xlink:href="#CMR17-32" transform="translate(72.787654 0) scale(0.996264)"/>
       <use xlink:href="#CMR17-30" transform="translate(118.478131 0) scale(0.996264)"/>
       <use xlink:href="#CMR17-30" transform="translate(164.168608 0) scale(0.996264)"/>
      </g>
     </g>
    </g>
    <g id="text_17">
     <!-- $Y$ -->
     <g transform="translate(31.414752 332.402499) rotate(-90) scale(0.35 -0.35)">
      <defs>
       <path id="CMMI12-59" d="M 3763 3645 
L 3910 3791 
C 4192 4078 4429 4149 4653 4167 
C 4723 4173 4781 4179 4781 4288 
C 4781 4352 4717 4352 4704 4352 
C 4627 4352 4544 4352 4467 4352 
L 4205 4352 
C 4019 4352 3821 4352 3642 4352 
C 3597 4352 3526 4352 3526 4226 
C 3526 4166 3590 4160 3610 4160 
C 3802 4160 3802 4064 3802 4026 
C 3802 3956 3750 3860 3622 3713 
L 2099 1969 
L 1376 3911 
C 1338 4000 1338 4013 1338 4026 
C 1338 4160 1600 4160 1677 4160 
C 1754 4160 1824 4160 1824 4279 
C 1824 4352 1766 4352 1728 4352 
C 1619 4352 1491 4352 1382 4352 
L 672 4352 
C 557 4352 435 4352 326 4352 
C 282 4352 211 4352 211 4226 
C 211 4160 269 4160 365 4160 
C 678 4160 736 4102 794 3956 
L 1587 1835 
C 1594 1816 1613 1745 1613 1726 
C 1613 1707 1299 452 1280 388 
C 1229 217 1165 185 755 185 
C 646 185 595 185 595 64 
C 595 0 666 0 685 0 
C 800 0 934 0 1056 0 
L 1811 0 
C 1926 0 2061 0 2176 0 
C 2221 0 2298 0 2298 115 
C 2298 185 2253 185 2144 185 
C 1747 185 1747 230 1747 300 
C 1747 345 1798 548 1830 676 
L 2061 1594 
C 2099 1727 2099 1739 2157 1803 
L 3763 3645 
z
" transform="scale(0.015625)"/>
      </defs>
      <use xlink:href="#CMMI12-59" transform="scale(0.996264)"/>
     </g>
    </g>
   </g>
   <g id="line2d_31">
    <path d="M 148.834393 559.657748 
L 475.522359 559.645152 
L 476.347154 559.374764 
L 477.171949 558.799798 
L 478.82154 557.267294 
L 479.646335 556.447555 
L 480.471131 555.847496 
L 481.295926 555.47424 
L 482.945517 555.15577 
L 485.419903 555.079977 
L 494.492652 555.392915 
L 510.163764 556.166025 
L 514.494197 556.599587 
L 532.348702 558.399185 
L 540.83103 558.724782 
L 547.789746 558.795072 
L 565.543139 558.621509 
L 594.311688 558.297891 
L 606.188741 558.028328 
L 629.942848 557.200995 
L 641.819901 556.976729 
L 653.696954 556.400121 
L 659.63548 555.919462 
L 665.574007 555.907977 
L 673.96984 556.415421 
L 690.761507 556.770627 
L 732.740674 557.239171 
L 808.303174 557.553639 
L 867.074007 557.66254 
L 867.074007 557.66254 
" clip-path="url(#p7d9342e351)" style="fill: none; stroke: #0000ff; stroke-width: 3; stroke-linecap: square"/>
   </g>
   <g id="line2d_32">
    <path d="M 148.834393 559.657748 
L 474.391324 559.657746 
L 475.522359 559.51034 
L 476.347154 556.565182 
L 477.171949 548.659459 
L 477.996745 536.849741 
L 478.82154 520.359036 
L 480.471131 478.396125 
L 481.295926 460.802992 
L 482.945517 433.692874 
L 484.595108 412.66439 
L 487.069494 385.936381 
L 488.719084 370.26033 
L 489.54388 362.905303 
L 493.667856 333.537311 
L 496.142243 319.717878 
L 497.791833 312.729616 
L 500.266219 303.883848 
L 501.91581 298.859893 
L 503.565401 294.569731 
L 505.214991 290.871997 
L 506.039787 289.213833 
L 506.864582 287.820316 
L 512.646596 279.558927 
L 514.494197 276.774226 
L 515.532138 275.30711 
L 517.883479 272.658563 
L 519.209351 271.239853 
L 520.648461 270.032304 
L 522.213559 269.16339 
L 523.914959 268.695007 
L 525.764855 268.470424 
L 527.776881 268.511501 
L 529.965976 268.839638 
L 532.348702 269.491427 
L 534.942126 270.573846 
L 537.762087 272.908875 
L 540.83103 276.201353 
L 544.165925 278.630868 
L 547.789746 280.174632 
L 551.721424 280.822072 
L 555.980275 280.485261 
L 560.58374 279.278927 
L 576.520639 274.140672 
L 582.434635 272.133682 
L 588.373162 269.534294 
L 594.311688 266.213911 
L 600.250215 262.045867 
L 606.188741 256.740609 
L 612.127268 248.7552 
L 618.065794 240.00069 
L 624.004321 232.677492 
L 629.942848 226.660481 
L 635.881374 220.888701 
L 641.819901 213.416666 
L 647.758427 205.251626 
L 653.696954 195.886361 
L 659.63548 186.136005 
L 665.574007 180.489956 
L 673.96984 179.28445 
L 690.761507 178.120258 
L 707.553174 177.201361 
L 715.949007 176.512237 
L 724.34484 176.001136 
L 741.136507 175.400194 
L 791.511507 174.088951 
L 825.09484 173.671591 
L 867.074007 173.212065 
L 867.074007 173.212065 
" clip-path="url(#p7d9342e351)" style="fill: none; stroke: #008000; stroke-width: 3; stroke-linecap: square"/>
   </g>
   <g id="line2d_33">
    <path d="M 148.834393 559.657748 
L 475.522359 559.609724 
L 476.347154 558.36319 
L 477.171949 554.862009 
L 477.996745 549.700692 
L 478.82154 542.374737 
L 480.471131 523.302316 
L 481.295926 515.101048 
L 482.945517 501.840736 
L 484.595108 490.988108 
L 487.894289 471.856225 
L 489.54388 463.511312 
L 493.667856 446.118263 
L 496.142243 437.681339 
L 497.791833 433.358621 
L 500.266219 427.89653 
L 501.91581 424.677987 
L 503.565401 421.914732 
L 505.214991 419.526989 
L 506.039787 418.458912 
L 507.689378 416.820888 
L 510.988559 413.978603 
L 514.494197 411.07899 
L 515.532138 410.355235 
L 519.209351 408.392529 
L 520.648461 407.856055 
L 522.213559 407.499242 
L 523.914959 407.396649 
L 525.764855 407.47685 
L 529.965976 408.002471 
L 532.348702 408.43878 
L 534.942126 409.106175 
L 537.762087 410.444491 
L 540.83103 412.242773 
L 544.165925 413.742402 
L 547.789746 414.869898 
L 551.721424 415.664467 
L 555.980275 416.224482 
L 560.58374 416.354831 
L 565.543139 416.096464 
L 570.861092 415.581484 
L 624.004321 409.254381 
L 635.881374 408.155209 
L 641.819901 407.696803 
L 647.758427 407.475826 
L 653.696954 407.892723 
L 659.63548 409.152842 
L 665.574007 409.548772 
L 673.96984 409.987279 
L 741.136507 411.20991 
L 799.90734 411.675642 
L 858.678174 411.885347 
L 867.074007 411.899189 
L 867.074007 411.899189 
" clip-path="url(#p7d9342e351)" style="fill: none; stroke: #ffa500; stroke-width: 3; stroke-linecap: square"/>
   </g>
   <g id="patch_3">
    <path d="M 135.40106 627.417748 
L 135.40106 17.577748 
" style="fill: none; stroke: #000000; stroke-width: 0.8; stroke-linejoin: miter; stroke-linecap: square"/>
   </g>
   <g id="patch_4">
    <path d="M 860.80106 627.417748 
L 860.80106 17.577748 
" style="fill: none; stroke: #000000; stroke-width: 0.8; stroke-linejoin: miter; stroke-linecap: square"/>
   </g>
   <g id="patch_5">
    <path d="M 135.40106 627.417748 
L 860.80106 627.417748 
" style="fill: none; stroke: #000000; stroke-width: 0.8; stroke-linejoin: miter; stroke-linecap: square"/>
   </g>
   <g id="patch_6">
    <path d="M 135.40106 17.577748 
L 860.80106 17.577748 
" style="fill: none; stroke: #000000; stroke-width: 0.8; stroke-linejoin: miter; stroke-linecap: square"/>
   </g>
   <g id="legend_1">
    <g id="patch_7">
     <path d="M 159.90106 338.271855 
L 440.567374 338.271855 
Q 447.567374 338.271855 447.567374 331.271855 
L 447.567374 42.077748 
Q 447.567374 35.077748 440.567374 35.077748 
L 159.90106 35.077748 
Q 152.90106 35.077748 152.90106 42.077748 
L 152.90106 331.271855 
Q 152.90106 338.271855 159.90106 338.271855 
z
" style="fill: #ffffff; stroke: #cccccc; stroke-linejoin: miter"/>
    </g>
    <g id="patch_8">
     <path d="M 166.90106 73.577748 
L 236.90106 73.577748 
L 236.90106 49.077748 
L 166.90106 49.077748 
z
" style="fill: #99ccff; fill-opacity: 0.7"/>
    </g>
    <g id="text_18">
     <!-- $N: \mu \pm \sigma$ -->
     <g transform="translate(264.90106 73.577748) scale(0.35 -0.35)">
      <defs>
       <path id="CMMI12-4e" d="M 4736 3698 
C 4806 3974 4909 4166 5395 4166 
C 5414 4166 5491 4166 5491 4279 
C 5491 4352 5434 4352 5408 4352 
C 5280 4352 4954 4352 4826 4352 
L 4518 4352 
C 4429 4352 4314 4352 4224 4352 
C 4186 4352 4109 4352 4109 4230 
C 4109 4166 4160 4166 4205 4166 
C 4589 4166 4614 4019 4614 3903 
C 4614 3846 4608 3826 4589 3737 
L 3866 850 
L 2496 4249 
C 2451 4352 2445 4352 2304 4352 
L 1523 4352 
C 1395 4352 1338 4352 1338 4230 
C 1338 4166 1382 4166 1504 4166 
C 1536 4166 1914 4166 1914 4115 
C 1914 4102 1901 4051 1894 4032 
L 1043 635 
C 966 320 813 186 390 186 
C 358 186 294 186 294 67 
C 294 0 358 0 378 0 
C 506 0 832 0 960 0 
L 1267 0 
C 1357 0 1466 0 1555 0 
C 1600 0 1670 0 1670 122 
C 1670 180 1606 186 1581 186 
C 1370 186 1165 224 1165 454 
C 1165 505 1178 562 1190 613 
L 2054 4032 
C 2093 3968 2093 3956 2118 3898 
L 3642 115 
C 3674 38 3686 0 3744 0 
C 3808 0 3814 19 3840 128 
L 4736 3698 
z
" transform="scale(0.015625)"/>
       <path id="CMR17-3a" d="M 1062 2491 
C 1062 2650 934 2752 800 2752 
C 672 2752 538 2650 538 2491 
C 538 2332 666 2230 800 2230 
C 928 2230 1062 2332 1062 2491 
z
M 1062 261 
C 1062 420 934 522 800 522 
C 672 522 538 420 538 261 
C 538 102 666 0 800 0 
C 928 0 1062 102 1062 261 
z
" transform="scale(0.015625)"/>
       <path id="CMMI12-16" d="M 922 140 
C 1082 -6 1318 -64 1536 -64 
C 1946 -64 2227 208 2374 405 
C 2438 69 2707 -64 2931 -64 
C 3123 -64 3277 50 3392 277 
C 3494 493 3584 879 3584 903 
C 3584 935 3558 960 3520 960 
C 3462 960 3456 928 3430 834 
C 3334 461 3213 64 2950 64 
C 2765 64 2752 229 2752 358 
C 2752 504 2810 735 2854 926 
L 3034 1615 
C 3059 1737 3130 2023 3162 2139 
C 3200 2292 3270 2567 3270 2592 
C 3270 2688 3194 2752 3098 2752 
C 3040 2752 2906 2726 2854 2535 
L 2406 760 
C 2374 632 2374 619 2291 517 
C 2214 409 1965 64 1562 64 
C 1203 64 1088 326 1088 625 
C 1088 811 1146 1034 1171 1143 
L 1459 2293 
C 1491 2414 1542 2618 1542 2657 
C 1542 2759 1459 2816 1376 2816 
C 1318 2816 1178 2797 1126 2592 
L 198 -1107 
C 192 -1139 179 -1177 179 -1216 
C 179 -1312 256 -1376 352 -1376 
C 538 -1376 576 -1228 621 -1050 
L 922 140 
z
" transform="scale(0.015625)"/>
       <path id="CMSY10-6" d="M 2618 1984 
L 4397 1984 
C 4506 1984 4621 1984 4621 2112 
C 4621 2240 4506 2240 4397 2240 
L 2618 2240 
L 2618 4018 
C 2618 4121 2618 4256 2490 4256 
C 2362 4256 2362 4140 2362 4038 
L 2362 2240 
L 576 2240 
C 467 2240 352 2240 352 2112 
C 352 1984 467 1984 576 1984 
L 2362 1984 
L 2362 256 
L 576 256 
C 467 256 352 256 352 128 
C 352 0 467 0 576 0 
L 4397 0 
C 4506 0 4621 0 4621 128 
C 4621 256 4506 256 4397 256 
L 2618 256 
L 2618 1984 
z
" transform="scale(0.015625)"/>
       <path id="CMMI12-1b" d="M 3251 2408 
C 3334 2408 3546 2408 3546 2612 
C 3546 2752 3424 2752 3309 2752 
L 1894 2752 
C 934 2752 243 1686 243 932 
C 243 390 595 -64 1171 -64 
C 1926 -64 2752 747 2752 1705 
C 2752 1954 2694 2196 2541 2408 
L 3251 2408 
z
M 1178 64 
C 851 64 614 313 614 754 
C 614 1137 845 2408 1786 2408 
C 2061 2408 2368 2274 2368 1781 
C 2368 1558 2266 1021 2042 652 
C 1811 275 1466 64 1178 64 
z
" transform="scale(0.015625)"/>
      </defs>
      <use xlink:href="#CMMI12-4e" transform="scale(0.996264)"/>
      <use xlink:href="#CMR17-3a" transform="translate(116.195781 0) scale(0.996264)"/>
      <use xlink:href="#CMMI12-16" transform="translate(168.740849 0) scale(0.996264)"/>
      <use xlink:href="#CMSY10-6" transform="translate(249.571477 0) scale(0.996264)"/>
      <use xlink:href="#CMMI12-1b" transform="translate(349.198152 0) scale(0.996264)"/>
     </g>
    </g>
    <g id="line2d_34">
     <path d="M 166.90106 110.110099 
L 201.90106 110.110099 
L 236.90106 110.110099 
" style="fill: none; stroke: #0000ff; stroke-width: 3; stroke-linecap: square"/>
    </g>
    <g id="text_19">
     <!-- $N: \mu$ -->
     <g transform="translate(264.90106 122.360099) scale(0.35 -0.35)">
      <use xlink:href="#CMMI12-4e" transform="scale(0.996264)"/>
      <use xlink:href="#CMR17-3a" transform="translate(116.195781 0) scale(0.996264)"/>
      <use xlink:href="#CMMI12-16" transform="translate(168.740849 0) scale(0.996264)"/>
     </g>
    </g>
    <g id="patch_9">
     <path d="M 166.90106 171.14245 
L 236.90106 171.14245 
L 236.90106 146.64245 
L 166.90106 146.64245 
z
" style="fill: #008000; fill-opacity: 0.2"/>
    </g>
    <g id="text_20">
     <!-- $O: \mu \pm \sigma$ -->
     <g transform="translate(264.90106 171.14245) scale(0.35 -0.35)">
      <defs>
       <path id="CMMI12-4f" d="M 4646 2797 
C 4646 3848 3955 4492 3059 4492 
C 1690 4492 307 3026 307 1554 
C 307 554 973 -128 1901 -128 
C 3245 -128 4646 1268 4646 2797 
z
M 1939 19 
C 1414 19 858 401 858 1395 
C 858 1974 1069 2924 1594 3562 
C 2061 4123 2598 4352 3027 4352 
C 3590 4352 4134 3944 4134 3026 
C 4134 2459 3891 1573 3462 968 
C 2995 318 2413 19 1939 19 
z
" transform="scale(0.015625)"/>
      </defs>
      <use xlink:href="#CMMI12-4f" transform="scale(0.996264)"/>
      <use xlink:href="#CMR17-3a" transform="translate(104.934407 0) scale(0.996264)"/>
      <use xlink:href="#CMMI12-16" transform="translate(157.479475 0) scale(0.996264)"/>
      <use xlink:href="#CMSY10-6" transform="translate(238.310103 0) scale(0.996264)"/>
      <use xlink:href="#CMMI12-1b" transform="translate(337.936778 0) scale(0.996264)"/>
     </g>
    </g>
    <g id="line2d_35">
     <path d="M 166.90106 207.674801 
L 201.90106 207.674801 
L 236.90106 207.674801 
" style="fill: none; stroke: #008000; stroke-width: 3; stroke-linecap: square"/>
    </g>
    <g id="text_21">
     <!-- $O: \mu $ -->
     <g transform="translate(264.90106 219.924801) scale(0.35 -0.35)">
      <use xlink:href="#CMMI12-4f" transform="scale(0.996264)"/>
      <use xlink:href="#CMR17-3a" transform="translate(104.934407 0) scale(0.996264)"/>
      <use xlink:href="#CMMI12-16" transform="translate(157.479475 0) scale(0.996264)"/>
     </g>
    </g>
    <g id="patch_10">
     <path d="M 166.90106 268.707152 
L 236.90106 268.707152 
L 236.90106 244.207152 
L 166.90106 244.207152 
z
" style="fill: #ffa500; fill-opacity: 0.2"/>
    </g>
    <g id="text_22">
     <!-- $NO: \mu \pm \sigma$ -->
     <g transform="translate(264.90106 268.707152) scale(0.35 -0.35)">
      <use xlink:href="#CMMI12-4e" transform="scale(0.996264)"/>
      <use xlink:href="#CMMI12-4f" transform="translate(88.521773 0) scale(0.996264)"/>
      <use xlink:href="#CMR17-3a" transform="translate(193.45618 0) scale(0.996264)"/>
      <use xlink:href="#CMMI12-16" transform="translate(246.001247 0) scale(0.996264)"/>
      <use xlink:href="#CMSY10-6" transform="translate(326.831876 0) scale(0.996264)"/>
      <use xlink:href="#CMMI12-1b" transform="translate(426.45855 0) scale(0.996264)"/>
     </g>
    </g>
    <g id="line2d_36">
     <path d="M 166.90106 305.239504 
L 201.90106 305.239504 
L 236.90106 305.239504 
" style="fill: none; stroke: #ffa500; stroke-width: 3; stroke-linecap: square"/>
    </g>
    <g id="text_23">
     <!-- $NO: \mu$ -->
     <g transform="translate(264.90106 317.489504) scale(0.35 -0.35)">
      <use xlink:href="#CMMI12-4e" transform="scale(0.996264)"/>
      <use xlink:href="#CMMI12-4f" transform="translate(88.521773 0) scale(0.996264)"/>
      <use xlink:href="#CMR17-3a" transform="translate(193.45618 0) scale(0.996264)"/>
      <use xlink:href="#CMMI12-16" transform="translate(246.001247 0) scale(0.996264)"/>
     </g>
    </g>
   </g>
  </g>
 </g>
 <defs>
  <clipPath id="p7d9342e351">
   <rect x="135.40106" y="17.577748" width="725.4" height="609.84"/>
  </clipPath>
 </defs>
</svg>
