<?xml version="1.0" encoding="utf-8" standalone="no"?>
<!DOCTYPE svg PUBLIC "-//W3C//DTD SVG 1.1//EN"
  "http://www.w3.org/Graphics/SVG/1.1/DTD/svg11.dtd">
<!-- Created with matplotlib (https://matplotlib.org/) -->
<svg height="694.684531pt" version="1.1" viewBox="0 0 851.598437 694.684531" width="851.598437pt" xmlns="http://www.w3.org/2000/svg" xmlns:xlink="http://www.w3.org/1999/xlink">
 <metadata>
  <rdf:RDF xmlns:cc="http://creativecommons.org/ns#" xmlns:dc="http://purl.org/dc/elements/1.1/" xmlns:rdf="http://www.w3.org/1999/02/22-rdf-syntax-ns#">
   <cc:Work>
    <dc:type rdf:resource="http://purl.org/dc/dcmitype/StillImage"/>
    <dc:date>2024-07-04T15:58:55.729705</dc:date>
    <dc:format>image/svg+xml</dc:format>
    <dc:creator>
     <cc:Agent>
      <dc:title>Matplotlib v3.3.4, https://matplotlib.org/</dc:title>
     </cc:Agent>
    </dc:creator>
   </cc:Work>
  </rdf:RDF>
 </metadata>
 <defs>
  <style type="text/css">*{stroke-linecap:butt;stroke-linejoin:round;}</style>
 </defs>
 <g id="figure_1">
  <g id="patch_1">
   <path d="M -0 694.684531 
L 851.598437 694.684531 
L 851.598437 0 
L -0 0 
z
" style="fill:#ffffff;"/>
  </g>
  <g id="axes_1">
   <g id="patch_2">
    <path d="M 118.998437 617.04 
L 844.398438 617.04 
L 844.398438 7.2 
L 118.998437 7.2 
z
" style="fill:#ffffff;"/>
   </g>
   <g id="matplotlib.axis_1">
    <g id="xtick_1">
     <g id="line2d_1">
      <path clip-path="url(#p874f54c6a4)" d="M 222.627009 617.04 
L 222.627009 7.2 
" style="fill:none;stroke:#b0b0b0;stroke-linecap:square;stroke-width:0.8;"/>
     </g>
     <g id="line2d_2">
      <defs>
       <path d="M 0 0 
L 0 3.5 
" id="m0ccf80ed39" style="stroke:#000000;stroke-width:0.8;"/>
      </defs>
      <g>
       <use style="stroke:#000000;stroke-width:0.8;" x="222.627009" xlink:href="#m0ccf80ed39" y="617.04"/>
      </g>
     </g>
     <g id="text_1">
      <!-- 0.20 -->
      <g transform="translate(193.435603 645.513438)scale(0.3 -0.3)">
       <defs>
        <path d="M 4.15625 35.296875 
Q 4.15625 48 6.765625 55.734375 
Q 9.375 63.484375 14.515625 67.671875 
Q 19.671875 71.875 27.484375 71.875 
Q 33.25 71.875 37.59375 69.546875 
Q 41.9375 67.234375 44.765625 62.859375 
Q 47.609375 58.5 49.21875 52.21875 
Q 50.828125 45.953125 50.828125 35.296875 
Q 50.828125 22.703125 48.234375 14.96875 
Q 45.65625 7.234375 40.5 3 
Q 35.359375 -1.21875 27.484375 -1.21875 
Q 17.140625 -1.21875 11.234375 6.203125 
Q 4.15625 15.140625 4.15625 35.296875 
z
M 13.1875 35.296875 
Q 13.1875 17.671875 17.3125 11.828125 
Q 21.4375 6 27.484375 6 
Q 33.546875 6 37.671875 11.859375 
Q 41.796875 17.71875 41.796875 35.296875 
Q 41.796875 52.984375 37.671875 58.78125 
Q 33.546875 64.59375 27.390625 64.59375 
Q 21.34375 64.59375 17.71875 59.46875 
Q 13.1875 52.9375 13.1875 35.296875 
z
" id="ArialMT-48"/>
        <path d="M 9.078125 0 
L 9.078125 10.015625 
L 19.09375 10.015625 
L 19.09375 0 
z
" id="ArialMT-46"/>
        <path d="M 50.34375 8.453125 
L 50.34375 0 
L 3.03125 0 
Q 2.9375 3.171875 4.046875 6.109375 
Q 5.859375 10.9375 9.828125 15.625 
Q 13.8125 20.3125 21.34375 26.46875 
Q 33.015625 36.03125 37.109375 41.625 
Q 41.21875 47.21875 41.21875 52.203125 
Q 41.21875 57.421875 37.46875 61 
Q 33.734375 64.59375 27.734375 64.59375 
Q 21.390625 64.59375 17.578125 60.78125 
Q 13.765625 56.984375 13.71875 50.25 
L 4.6875 51.171875 
Q 5.609375 61.28125 11.65625 66.578125 
Q 17.71875 71.875 27.9375 71.875 
Q 38.234375 71.875 44.234375 66.15625 
Q 50.25 60.453125 50.25 52 
Q 50.25 47.703125 48.484375 43.546875 
Q 46.734375 39.40625 42.65625 34.8125 
Q 38.578125 30.21875 29.109375 22.21875 
Q 21.1875 15.578125 18.9375 13.203125 
Q 16.703125 10.84375 15.234375 8.453125 
z
" id="ArialMT-50"/>
       </defs>
       <use xlink:href="#ArialMT-48"/>
       <use x="55.615234" xlink:href="#ArialMT-46"/>
       <use x="83.398438" xlink:href="#ArialMT-50"/>
       <use x="139.013672" xlink:href="#ArialMT-48"/>
      </g>
     </g>
    </g>
    <g id="xtick_2">
     <g id="line2d_3">
      <path clip-path="url(#p874f54c6a4)" d="M 395.341295 617.04 
L 395.341295 7.2 
" style="fill:none;stroke:#b0b0b0;stroke-linecap:square;stroke-width:0.8;"/>
     </g>
     <g id="line2d_4">
      <g>
       <use style="stroke:#000000;stroke-width:0.8;" x="395.341295" xlink:href="#m0ccf80ed39" y="617.04"/>
      </g>
     </g>
     <g id="text_2">
      <!-- 0.25 -->
      <g transform="translate(366.149888 645.513438)scale(0.3 -0.3)">
       <defs>
        <path d="M 4.15625 18.75 
L 13.375 19.53125 
Q 14.40625 12.796875 18.140625 9.390625 
Q 21.875 6 27.15625 6 
Q 33.5 6 37.890625 10.78125 
Q 42.28125 15.578125 42.28125 23.484375 
Q 42.28125 31 38.0625 35.34375 
Q 33.84375 39.703125 27 39.703125 
Q 22.75 39.703125 19.328125 37.765625 
Q 15.921875 35.84375 13.96875 32.765625 
L 5.71875 33.84375 
L 12.640625 70.609375 
L 48.25 70.609375 
L 48.25 62.203125 
L 19.671875 62.203125 
L 15.828125 42.96875 
Q 22.265625 47.46875 29.34375 47.46875 
Q 38.71875 47.46875 45.15625 40.96875 
Q 51.609375 34.46875 51.609375 24.265625 
Q 51.609375 14.546875 45.953125 7.46875 
Q 39.0625 -1.21875 27.15625 -1.21875 
Q 17.390625 -1.21875 11.203125 4.25 
Q 5.03125 9.71875 4.15625 18.75 
z
" id="ArialMT-53"/>
       </defs>
       <use xlink:href="#ArialMT-48"/>
       <use x="55.615234" xlink:href="#ArialMT-46"/>
       <use x="83.398438" xlink:href="#ArialMT-50"/>
       <use x="139.013672" xlink:href="#ArialMT-53"/>
      </g>
     </g>
    </g>
    <g id="xtick_3">
     <g id="line2d_5">
      <path clip-path="url(#p874f54c6a4)" d="M 568.05558 617.04 
L 568.05558 7.2 
" style="fill:none;stroke:#b0b0b0;stroke-linecap:square;stroke-width:0.8;"/>
     </g>
     <g id="line2d_6">
      <g>
       <use style="stroke:#000000;stroke-width:0.8;" x="568.05558" xlink:href="#m0ccf80ed39" y="617.04"/>
      </g>
     </g>
     <g id="text_3">
      <!-- 0.30 -->
      <g transform="translate(538.864174 645.513438)scale(0.3 -0.3)">
       <defs>
        <path d="M 4.203125 18.890625 
L 12.984375 20.0625 
Q 14.5 12.59375 18.140625 9.296875 
Q 21.78125 6 27 6 
Q 33.203125 6 37.46875 10.296875 
Q 41.75 14.59375 41.75 20.953125 
Q 41.75 27 37.796875 30.921875 
Q 33.84375 34.859375 27.734375 34.859375 
Q 25.25 34.859375 21.53125 33.890625 
L 22.515625 41.609375 
Q 23.390625 41.5 23.921875 41.5 
Q 29.546875 41.5 34.03125 44.421875 
Q 38.53125 47.359375 38.53125 53.46875 
Q 38.53125 58.296875 35.25 61.46875 
Q 31.984375 64.65625 26.8125 64.65625 
Q 21.6875 64.65625 18.265625 61.421875 
Q 14.84375 58.203125 13.875 51.765625 
L 5.078125 53.328125 
Q 6.6875 62.15625 12.390625 67.015625 
Q 18.109375 71.875 26.609375 71.875 
Q 32.46875 71.875 37.390625 69.359375 
Q 42.328125 66.84375 44.9375 62.5 
Q 47.5625 58.15625 47.5625 53.265625 
Q 47.5625 48.640625 45.0625 44.828125 
Q 42.578125 41.015625 37.703125 38.765625 
Q 44.046875 37.3125 47.5625 32.6875 
Q 51.078125 28.078125 51.078125 21.140625 
Q 51.078125 11.765625 44.234375 5.25 
Q 37.40625 -1.265625 26.953125 -1.265625 
Q 17.53125 -1.265625 11.296875 4.34375 
Q 5.078125 9.96875 4.203125 18.890625 
z
" id="ArialMT-51"/>
       </defs>
       <use xlink:href="#ArialMT-48"/>
       <use x="55.615234" xlink:href="#ArialMT-46"/>
       <use x="83.398438" xlink:href="#ArialMT-51"/>
       <use x="139.013672" xlink:href="#ArialMT-48"/>
      </g>
     </g>
    </g>
    <g id="xtick_4">
     <g id="line2d_7">
      <path clip-path="url(#p874f54c6a4)" d="M 740.769866 617.04 
L 740.769866 7.2 
" style="fill:none;stroke:#b0b0b0;stroke-linecap:square;stroke-width:0.8;"/>
     </g>
     <g id="line2d_8">
      <g>
       <use style="stroke:#000000;stroke-width:0.8;" x="740.769866" xlink:href="#m0ccf80ed39" y="617.04"/>
      </g>
     </g>
     <g id="text_4">
      <!-- 0.35 -->
      <g transform="translate(711.57846 645.513438)scale(0.3 -0.3)">
       <use xlink:href="#ArialMT-48"/>
       <use x="55.615234" xlink:href="#ArialMT-46"/>
       <use x="83.398438" xlink:href="#ArialMT-51"/>
       <use x="139.013672" xlink:href="#ArialMT-53"/>
      </g>
     </g>
    </g>
    <g id="text_5">
     <!-- X coordinate [m] -->
     <g transform="translate(354.284766 680.528281)scale(0.35 -0.35)">
      <defs>
       <path d="M 0.4375 0 
L 28.125 37.3125 
L 3.71875 71.578125 
L 14.984375 71.578125 
L 27.984375 53.21875 
Q 32.03125 47.515625 33.734375 44.4375 
Q 36.140625 48.34375 39.40625 52.59375 
L 53.8125 71.578125 
L 64.109375 71.578125 
L 38.96875 37.84375 
L 66.0625 0 
L 54.34375 0 
L 36.328125 25.53125 
Q 34.8125 27.734375 33.203125 30.328125 
Q 30.8125 26.421875 29.78125 24.953125 
L 11.8125 0 
z
" id="ArialMT-88"/>
       <path id="ArialMT-32"/>
       <path d="M 40.4375 19 
L 49.078125 17.875 
Q 47.65625 8.9375 41.8125 3.875 
Q 35.984375 -1.171875 27.484375 -1.171875 
Q 16.84375 -1.171875 10.375 5.78125 
Q 3.90625 12.75 3.90625 25.734375 
Q 3.90625 34.125 6.6875 40.421875 
Q 9.46875 46.734375 15.15625 49.875 
Q 20.84375 53.03125 27.546875 53.03125 
Q 35.984375 53.03125 41.359375 48.75 
Q 46.734375 44.484375 48.25 36.625 
L 39.703125 35.296875 
Q 38.484375 40.53125 35.375 43.15625 
Q 32.28125 45.796875 27.875 45.796875 
Q 21.234375 45.796875 17.078125 41.03125 
Q 12.9375 36.28125 12.9375 25.984375 
Q 12.9375 15.53125 16.9375 10.796875 
Q 20.953125 6.0625 27.390625 6.0625 
Q 32.5625 6.0625 36.03125 9.234375 
Q 39.5 12.40625 40.4375 19 
z
" id="ArialMT-99"/>
       <path d="M 3.328125 25.921875 
Q 3.328125 40.328125 11.328125 47.265625 
Q 18.015625 53.03125 27.640625 53.03125 
Q 38.328125 53.03125 45.109375 46.015625 
Q 51.90625 39.015625 51.90625 26.65625 
Q 51.90625 16.65625 48.90625 10.90625 
Q 45.90625 5.171875 40.15625 2 
Q 34.421875 -1.171875 27.640625 -1.171875 
Q 16.75 -1.171875 10.03125 5.8125 
Q 3.328125 12.796875 3.328125 25.921875 
z
M 12.359375 25.921875 
Q 12.359375 15.96875 16.703125 11.015625 
Q 21.046875 6.0625 27.640625 6.0625 
Q 34.1875 6.0625 38.53125 11.03125 
Q 42.875 16.015625 42.875 26.21875 
Q 42.875 35.84375 38.5 40.796875 
Q 34.125 45.75 27.640625 45.75 
Q 21.046875 45.75 16.703125 40.8125 
Q 12.359375 35.890625 12.359375 25.921875 
z
" id="ArialMT-111"/>
       <path d="M 6.5 0 
L 6.5 51.859375 
L 14.40625 51.859375 
L 14.40625 44 
Q 17.4375 49.515625 20 51.265625 
Q 22.5625 53.03125 25.640625 53.03125 
Q 30.078125 53.03125 34.671875 50.203125 
L 31.640625 42.046875 
Q 28.421875 43.953125 25.203125 43.953125 
Q 22.3125 43.953125 20.015625 42.21875 
Q 17.71875 40.484375 16.75 37.40625 
Q 15.28125 32.71875 15.28125 27.15625 
L 15.28125 0 
z
" id="ArialMT-114"/>
       <path d="M 40.234375 0 
L 40.234375 6.546875 
Q 35.296875 -1.171875 25.734375 -1.171875 
Q 19.53125 -1.171875 14.328125 2.25 
Q 9.125 5.671875 6.265625 11.796875 
Q 3.421875 17.921875 3.421875 25.875 
Q 3.421875 33.640625 6 39.96875 
Q 8.59375 46.296875 13.765625 49.65625 
Q 18.953125 53.03125 25.34375 53.03125 
Q 30.03125 53.03125 33.6875 51.046875 
Q 37.359375 49.078125 39.65625 45.90625 
L 39.65625 71.578125 
L 48.390625 71.578125 
L 48.390625 0 
z
M 12.453125 25.875 
Q 12.453125 15.921875 16.640625 10.984375 
Q 20.84375 6.0625 26.5625 6.0625 
Q 32.328125 6.0625 36.34375 10.765625 
Q 40.375 15.484375 40.375 25.140625 
Q 40.375 35.796875 36.265625 40.765625 
Q 32.171875 45.75 26.171875 45.75 
Q 20.3125 45.75 16.375 40.96875 
Q 12.453125 36.1875 12.453125 25.875 
z
" id="ArialMT-100"/>
       <path d="M 6.640625 61.46875 
L 6.640625 71.578125 
L 15.4375 71.578125 
L 15.4375 61.46875 
z
M 6.640625 0 
L 6.640625 51.859375 
L 15.4375 51.859375 
L 15.4375 0 
z
" id="ArialMT-105"/>
       <path d="M 6.59375 0 
L 6.59375 51.859375 
L 14.5 51.859375 
L 14.5 44.484375 
Q 20.21875 53.03125 31 53.03125 
Q 35.6875 53.03125 39.625 51.34375 
Q 43.5625 49.65625 45.515625 46.921875 
Q 47.46875 44.1875 48.25 40.4375 
Q 48.734375 37.984375 48.734375 31.890625 
L 48.734375 0 
L 39.9375 0 
L 39.9375 31.546875 
Q 39.9375 36.921875 38.90625 39.578125 
Q 37.890625 42.234375 35.28125 43.8125 
Q 32.671875 45.40625 29.15625 45.40625 
Q 23.53125 45.40625 19.453125 41.84375 
Q 15.375 38.28125 15.375 28.328125 
L 15.375 0 
z
" id="ArialMT-110"/>
       <path d="M 40.4375 6.390625 
Q 35.546875 2.25 31.03125 0.53125 
Q 26.515625 -1.171875 21.34375 -1.171875 
Q 12.796875 -1.171875 8.203125 3 
Q 3.609375 7.171875 3.609375 13.671875 
Q 3.609375 17.484375 5.34375 20.625 
Q 7.078125 23.78125 9.890625 25.6875 
Q 12.703125 27.59375 16.21875 28.5625 
Q 18.796875 29.25 24.03125 29.890625 
Q 34.671875 31.15625 39.703125 32.90625 
Q 39.75 34.71875 39.75 35.203125 
Q 39.75 40.578125 37.25 42.78125 
Q 33.890625 45.75 27.25 45.75 
Q 21.046875 45.75 18.09375 43.578125 
Q 15.140625 41.40625 13.71875 35.890625 
L 5.125 37.0625 
Q 6.296875 42.578125 8.984375 45.96875 
Q 11.671875 49.359375 16.75 51.1875 
Q 21.828125 53.03125 28.515625 53.03125 
Q 35.15625 53.03125 39.296875 51.46875 
Q 43.453125 49.90625 45.40625 47.53125 
Q 47.359375 45.171875 48.140625 41.546875 
Q 48.578125 39.3125 48.578125 33.453125 
L 48.578125 21.734375 
Q 48.578125 9.46875 49.140625 6.21875 
Q 49.703125 2.984375 51.375 0 
L 42.1875 0 
Q 40.828125 2.734375 40.4375 6.390625 
z
M 39.703125 26.03125 
Q 34.90625 24.078125 25.34375 22.703125 
Q 19.921875 21.921875 17.671875 20.9375 
Q 15.4375 19.96875 14.203125 18.09375 
Q 12.984375 16.21875 12.984375 13.921875 
Q 12.984375 10.40625 15.640625 8.0625 
Q 18.3125 5.71875 23.4375 5.71875 
Q 28.515625 5.71875 32.46875 7.9375 
Q 36.421875 10.15625 38.28125 14.015625 
Q 39.703125 17 39.703125 22.796875 
z
" id="ArialMT-97"/>
       <path d="M 25.78125 7.859375 
L 27.046875 0.09375 
Q 23.34375 -0.6875 20.40625 -0.6875 
Q 15.625 -0.6875 12.984375 0.828125 
Q 10.359375 2.34375 9.28125 4.8125 
Q 8.203125 7.28125 8.203125 15.1875 
L 8.203125 45.015625 
L 1.765625 45.015625 
L 1.765625 51.859375 
L 8.203125 51.859375 
L 8.203125 64.703125 
L 16.9375 69.96875 
L 16.9375 51.859375 
L 25.78125 51.859375 
L 25.78125 45.015625 
L 16.9375 45.015625 
L 16.9375 14.703125 
Q 16.9375 10.9375 17.40625 9.859375 
Q 17.875 8.796875 18.921875 8.15625 
Q 19.96875 7.515625 21.921875 7.515625 
Q 23.390625 7.515625 25.78125 7.859375 
z
" id="ArialMT-116"/>
       <path d="M 42.09375 16.703125 
L 51.171875 15.578125 
Q 49.03125 7.625 43.21875 3.21875 
Q 37.40625 -1.171875 28.375 -1.171875 
Q 17 -1.171875 10.328125 5.828125 
Q 3.65625 12.84375 3.65625 25.484375 
Q 3.65625 38.578125 10.390625 45.796875 
Q 17.140625 53.03125 27.875 53.03125 
Q 38.28125 53.03125 44.875 45.953125 
Q 51.46875 38.875 51.46875 26.03125 
Q 51.46875 25.25 51.421875 23.6875 
L 12.75 23.6875 
Q 13.234375 15.140625 17.578125 10.59375 
Q 21.921875 6.0625 28.421875 6.0625 
Q 33.25 6.0625 36.671875 8.59375 
Q 40.09375 11.140625 42.09375 16.703125 
z
M 13.234375 30.90625 
L 42.1875 30.90625 
Q 41.609375 37.453125 38.875 40.71875 
Q 34.671875 45.796875 27.984375 45.796875 
Q 21.921875 45.796875 17.796875 41.75 
Q 13.671875 37.703125 13.234375 30.90625 
z
" id="ArialMT-101"/>
       <path d="M 6.78125 -19.875 
L 6.78125 71.578125 
L 26.171875 71.578125 
L 26.171875 64.3125 
L 15.578125 64.3125 
L 15.578125 -12.59375 
L 26.171875 -12.59375 
L 26.171875 -19.875 
z
" id="ArialMT-91"/>
       <path d="M 6.59375 0 
L 6.59375 51.859375 
L 14.453125 51.859375 
L 14.453125 44.578125 
Q 16.890625 48.390625 20.9375 50.703125 
Q 25 53.03125 30.171875 53.03125 
Q 35.9375 53.03125 39.625 50.640625 
Q 43.3125 48.25 44.828125 43.953125 
Q 50.984375 53.03125 60.84375 53.03125 
Q 68.5625 53.03125 72.703125 48.75 
Q 76.859375 44.484375 76.859375 35.59375 
L 76.859375 0 
L 68.109375 0 
L 68.109375 32.671875 
Q 68.109375 37.9375 67.25 40.25 
Q 66.40625 42.578125 64.15625 43.984375 
Q 61.921875 45.40625 58.890625 45.40625 
Q 53.421875 45.40625 49.796875 41.765625 
Q 46.1875 38.140625 46.1875 30.125 
L 46.1875 0 
L 37.40625 0 
L 37.40625 33.6875 
Q 37.40625 39.546875 35.25 42.46875 
Q 33.109375 45.40625 28.21875 45.40625 
Q 24.515625 45.40625 21.359375 43.453125 
Q 18.21875 41.5 16.796875 37.734375 
Q 15.375 33.984375 15.375 26.90625 
L 15.375 0 
z
" id="ArialMT-109"/>
       <path d="M 21.296875 -19.875 
L 1.90625 -19.875 
L 1.90625 -12.59375 
L 12.5 -12.59375 
L 12.5 64.3125 
L 1.90625 64.3125 
L 1.90625 71.578125 
L 21.296875 71.578125 
z
" id="ArialMT-93"/>
      </defs>
      <use xlink:href="#ArialMT-88"/>
      <use x="66.699219" xlink:href="#ArialMT-32"/>
      <use x="94.482422" xlink:href="#ArialMT-99"/>
      <use x="144.482422" xlink:href="#ArialMT-111"/>
      <use x="200.097656" xlink:href="#ArialMT-111"/>
      <use x="255.712891" xlink:href="#ArialMT-114"/>
      <use x="289.013672" xlink:href="#ArialMT-100"/>
      <use x="344.628906" xlink:href="#ArialMT-105"/>
      <use x="366.845703" xlink:href="#ArialMT-110"/>
      <use x="422.460938" xlink:href="#ArialMT-97"/>
      <use x="478.076172" xlink:href="#ArialMT-116"/>
      <use x="505.859375" xlink:href="#ArialMT-101"/>
      <use x="561.474609" xlink:href="#ArialMT-32"/>
      <use x="589.257812" xlink:href="#ArialMT-91"/>
      <use x="617.041016" xlink:href="#ArialMT-109"/>
      <use x="700.341797" xlink:href="#ArialMT-93"/>
     </g>
    </g>
   </g>
   <g id="matplotlib.axis_2">
    <g id="ytick_1">
     <g id="line2d_9">
      <path clip-path="url(#p874f54c6a4)" d="M 118.998437 599.103529 
L 844.398438 599.103529 
" style="fill:none;stroke:#b0b0b0;stroke-linecap:square;stroke-width:0.8;"/>
     </g>
     <g id="line2d_10">
      <defs>
       <path d="M 0 0 
L -3.5 0 
" id="mf78e779096" style="stroke:#000000;stroke-width:0.8;"/>
      </defs>
      <g>
       <use style="stroke:#000000;stroke-width:0.8;" x="118.998437" xlink:href="#mf78e779096" y="599.103529"/>
      </g>
     </g>
     <g id="text_6">
      <!-- 0 -->
      <g transform="translate(95.315625 609.840248)scale(0.3 -0.3)">
       <use xlink:href="#ArialMT-48"/>
      </g>
     </g>
    </g>
    <g id="ytick_2">
     <g id="line2d_11">
      <path clip-path="url(#p874f54c6a4)" d="M 118.998437 527.357647 
L 844.398438 527.357647 
" style="fill:none;stroke:#b0b0b0;stroke-linecap:square;stroke-width:0.8;"/>
     </g>
     <g id="line2d_12">
      <g>
       <use style="stroke:#000000;stroke-width:0.8;" x="118.998437" xlink:href="#mf78e779096" y="527.357647"/>
      </g>
     </g>
     <g id="text_7">
      <!-- 20 -->
      <g transform="translate(78.632812 538.094366)scale(0.3 -0.3)">
       <use xlink:href="#ArialMT-50"/>
       <use x="55.615234" xlink:href="#ArialMT-48"/>
      </g>
     </g>
    </g>
    <g id="ytick_3">
     <g id="line2d_13">
      <path clip-path="url(#p874f54c6a4)" d="M 118.998437 455.611765 
L 844.398438 455.611765 
" style="fill:none;stroke:#b0b0b0;stroke-linecap:square;stroke-width:0.8;"/>
     </g>
     <g id="line2d_14">
      <g>
       <use style="stroke:#000000;stroke-width:0.8;" x="118.998437" xlink:href="#mf78e779096" y="455.611765"/>
      </g>
     </g>
     <g id="text_8">
      <!-- 40 -->
      <g transform="translate(78.632812 466.348483)scale(0.3 -0.3)">
       <defs>
        <path d="M 32.328125 0 
L 32.328125 17.140625 
L 1.265625 17.140625 
L 1.265625 25.203125 
L 33.9375 71.578125 
L 41.109375 71.578125 
L 41.109375 25.203125 
L 50.78125 25.203125 
L 50.78125 17.140625 
L 41.109375 17.140625 
L 41.109375 0 
z
M 32.328125 25.203125 
L 32.328125 57.46875 
L 9.90625 25.203125 
z
" id="ArialMT-52"/>
       </defs>
       <use xlink:href="#ArialMT-52"/>
       <use x="55.615234" xlink:href="#ArialMT-48"/>
      </g>
     </g>
    </g>
    <g id="ytick_4">
     <g id="line2d_15">
      <path clip-path="url(#p874f54c6a4)" d="M 118.998437 383.865882 
L 844.398438 383.865882 
" style="fill:none;stroke:#b0b0b0;stroke-linecap:square;stroke-width:0.8;"/>
     </g>
     <g id="line2d_16">
      <g>
       <use style="stroke:#000000;stroke-width:0.8;" x="118.998437" xlink:href="#mf78e779096" y="383.865882"/>
      </g>
     </g>
     <g id="text_9">
      <!-- 60 -->
      <g transform="translate(78.632812 394.602601)scale(0.3 -0.3)">
       <defs>
        <path d="M 49.75 54.046875 
L 41.015625 53.375 
Q 39.84375 58.546875 37.703125 60.890625 
Q 34.125 64.65625 28.90625 64.65625 
Q 24.703125 64.65625 21.53125 62.3125 
Q 17.390625 59.28125 14.984375 53.46875 
Q 12.59375 47.65625 12.5 36.921875 
Q 15.671875 41.75 20.265625 44.09375 
Q 24.859375 46.4375 29.890625 46.4375 
Q 38.671875 46.4375 44.84375 39.96875 
Q 51.03125 33.5 51.03125 23.25 
Q 51.03125 16.5 48.125 10.71875 
Q 45.21875 4.9375 40.140625 1.859375 
Q 35.0625 -1.21875 28.609375 -1.21875 
Q 17.625 -1.21875 10.6875 6.859375 
Q 3.765625 14.9375 3.765625 33.5 
Q 3.765625 54.25 11.421875 63.671875 
Q 18.109375 71.875 29.4375 71.875 
Q 37.890625 71.875 43.28125 67.140625 
Q 48.6875 62.40625 49.75 54.046875 
z
M 13.875 23.1875 
Q 13.875 18.65625 15.796875 14.5 
Q 17.71875 10.359375 21.1875 8.171875 
Q 24.65625 6 28.46875 6 
Q 34.03125 6 38.03125 10.484375 
Q 42.046875 14.984375 42.046875 22.703125 
Q 42.046875 30.125 38.078125 34.390625 
Q 34.125 38.671875 28.125 38.671875 
Q 22.171875 38.671875 18.015625 34.390625 
Q 13.875 30.125 13.875 23.1875 
z
" id="ArialMT-54"/>
       </defs>
       <use xlink:href="#ArialMT-54"/>
       <use x="55.615234" xlink:href="#ArialMT-48"/>
      </g>
     </g>
    </g>
    <g id="ytick_5">
     <g id="line2d_17">
      <path clip-path="url(#p874f54c6a4)" d="M 118.998437 312.12 
L 844.398438 312.12 
" style="fill:none;stroke:#b0b0b0;stroke-linecap:square;stroke-width:0.8;"/>
     </g>
     <g id="line2d_18">
      <g>
       <use style="stroke:#000000;stroke-width:0.8;" x="118.998437" xlink:href="#mf78e779096" y="312.12"/>
      </g>
     </g>
     <g id="text_10">
      <!-- 80 -->
      <g transform="translate(78.632812 322.856719)scale(0.3 -0.3)">
       <defs>
        <path d="M 17.671875 38.8125 
Q 12.203125 40.828125 9.5625 44.53125 
Q 6.9375 48.25 6.9375 53.421875 
Q 6.9375 61.234375 12.546875 66.546875 
Q 18.171875 71.875 27.484375 71.875 
Q 36.859375 71.875 42.578125 66.421875 
Q 48.296875 60.984375 48.296875 53.171875 
Q 48.296875 48.1875 45.671875 44.5 
Q 43.0625 40.828125 37.75 38.8125 
Q 44.34375 36.671875 47.78125 31.875 
Q 51.21875 27.09375 51.21875 20.453125 
Q 51.21875 11.28125 44.71875 5.03125 
Q 38.234375 -1.21875 27.640625 -1.21875 
Q 17.046875 -1.21875 10.546875 5.046875 
Q 4.046875 11.328125 4.046875 20.703125 
Q 4.046875 27.6875 7.59375 32.390625 
Q 11.140625 37.109375 17.671875 38.8125 
z
M 15.921875 53.71875 
Q 15.921875 48.640625 19.1875 45.40625 
Q 22.46875 42.1875 27.6875 42.1875 
Q 32.765625 42.1875 36.015625 45.375 
Q 39.265625 48.578125 39.265625 53.21875 
Q 39.265625 58.0625 35.90625 61.359375 
Q 32.5625 64.65625 27.59375 64.65625 
Q 22.5625 64.65625 19.234375 61.421875 
Q 15.921875 58.203125 15.921875 53.71875 
z
M 13.09375 20.65625 
Q 13.09375 16.890625 14.875 13.375 
Q 16.65625 9.859375 20.171875 7.921875 
Q 23.6875 6 27.734375 6 
Q 34.03125 6 38.125 10.046875 
Q 42.234375 14.109375 42.234375 20.359375 
Q 42.234375 26.703125 38.015625 30.859375 
Q 33.796875 35.015625 27.4375 35.015625 
Q 21.234375 35.015625 17.15625 30.90625 
Q 13.09375 26.8125 13.09375 20.65625 
z
" id="ArialMT-56"/>
       </defs>
       <use xlink:href="#ArialMT-56"/>
       <use x="55.615234" xlink:href="#ArialMT-48"/>
      </g>
     </g>
    </g>
    <g id="ytick_6">
     <g id="line2d_19">
      <path clip-path="url(#p874f54c6a4)" d="M 118.998437 240.374118 
L 844.398438 240.374118 
" style="fill:none;stroke:#b0b0b0;stroke-linecap:square;stroke-width:0.8;"/>
     </g>
     <g id="line2d_20">
      <g>
       <use style="stroke:#000000;stroke-width:0.8;" x="118.998437" xlink:href="#mf78e779096" y="240.374118"/>
      </g>
     </g>
     <g id="text_11">
      <!-- 100 -->
      <g transform="translate(61.95 251.110836)scale(0.3 -0.3)">
       <defs>
        <path d="M 37.25 0 
L 28.46875 0 
L 28.46875 56 
Q 25.296875 52.984375 20.140625 49.953125 
Q 14.984375 46.921875 10.890625 45.40625 
L 10.890625 53.90625 
Q 18.265625 57.375 23.78125 62.296875 
Q 29.296875 67.234375 31.59375 71.875 
L 37.25 71.875 
z
" id="ArialMT-49"/>
       </defs>
       <use xlink:href="#ArialMT-49"/>
       <use x="55.615234" xlink:href="#ArialMT-48"/>
       <use x="111.230469" xlink:href="#ArialMT-48"/>
      </g>
     </g>
    </g>
    <g id="ytick_7">
     <g id="line2d_21">
      <path clip-path="url(#p874f54c6a4)" d="M 118.998437 168.628235 
L 844.398438 168.628235 
" style="fill:none;stroke:#b0b0b0;stroke-linecap:square;stroke-width:0.8;"/>
     </g>
     <g id="line2d_22">
      <g>
       <use style="stroke:#000000;stroke-width:0.8;" x="118.998437" xlink:href="#mf78e779096" y="168.628235"/>
      </g>
     </g>
     <g id="text_12">
      <!-- 120 -->
      <g transform="translate(61.95 179.364954)scale(0.3 -0.3)">
       <use xlink:href="#ArialMT-49"/>
       <use x="55.615234" xlink:href="#ArialMT-50"/>
       <use x="111.230469" xlink:href="#ArialMT-48"/>
      </g>
     </g>
    </g>
    <g id="ytick_8">
     <g id="line2d_23">
      <path clip-path="url(#p874f54c6a4)" d="M 118.998437 96.882353 
L 844.398438 96.882353 
" style="fill:none;stroke:#b0b0b0;stroke-linecap:square;stroke-width:0.8;"/>
     </g>
     <g id="line2d_24">
      <g>
       <use style="stroke:#000000;stroke-width:0.8;" x="118.998437" xlink:href="#mf78e779096" y="96.882353"/>
      </g>
     </g>
     <g id="text_13">
      <!-- 140 -->
      <g transform="translate(61.95 107.619072)scale(0.3 -0.3)">
       <use xlink:href="#ArialMT-49"/>
       <use x="55.615234" xlink:href="#ArialMT-52"/>
       <use x="111.230469" xlink:href="#ArialMT-48"/>
      </g>
     </g>
    </g>
    <g id="ytick_9">
     <g id="line2d_25">
      <path clip-path="url(#p874f54c6a4)" d="M 118.998437 25.136471 
L 844.398438 25.136471 
" style="fill:none;stroke:#b0b0b0;stroke-linecap:square;stroke-width:0.8;"/>
     </g>
     <g id="line2d_26">
      <g>
       <use style="stroke:#000000;stroke-width:0.8;" x="118.998437" xlink:href="#mf78e779096" y="25.136471"/>
      </g>
     </g>
     <g id="text_14">
      <!-- 160 -->
      <g transform="translate(61.95 35.873189)scale(0.3 -0.3)">
       <use xlink:href="#ArialMT-49"/>
       <use x="55.615234" xlink:href="#ArialMT-54"/>
       <use x="111.230469" xlink:href="#ArialMT-48"/>
      </g>
     </g>
    </g>
    <g id="text_15">
     <!-- $\frac{P}{P_\infty}$ [-] -->
     <g transform="translate(40.45 349.745)rotate(-90)scale(0.35 -0.35)">
      <defs>
       <path d="M 16.890625 72.90625 
L 39.703125 72.90625 
Q 49.65625 72.90625 54.875 68.265625 
Q 60.109375 63.625 60.109375 54.6875 
Q 60.109375 42.671875 52.390625 35.984375 
Q 44.671875 29.296875 30.71875 29.296875 
L 18.3125 29.296875 
L 12.59375 0 
L 2.6875 0 
z
M 25.203125 64.796875 
L 19.921875 37.40625 
L 32.328125 37.40625 
Q 40.71875 37.40625 45.203125 41.703125 
Q 49.703125 46 49.703125 54 
Q 49.703125 59.125 46.65625 61.953125 
Q 43.609375 64.796875 38.09375 64.796875 
z
" id="DejaVuSans-Oblique-80"/>
       <path d="M 45.5625 17.046875 
Q 44.046875 18.796875 41.65625 22.90625 
Q 38.375 17.046875 35.5 14.453125 
Q 31.890625 11.328125 26.265625 11.328125 
Q 19.671875 11.328125 15.328125 16.265625 
Q 10.75 21.4375 10.75 29.984375 
Q 10.75 38.1875 15.328125 43.75 
Q 19.4375 48.6875 26.375 48.6875 
Q 29.9375 48.6875 32.5625 47.21875 
Q 35.640625 45.609375 37.75 42.828125 
Q 39.703125 40.328125 41.65625 36.96875 
Q 44.921875 42.828125 47.796875 45.40625 
Q 51.421875 48.53125 57.03125 48.53125 
Q 63.625 48.53125 67.96875 43.609375 
Q 72.5625 38.421875 72.5625 29.890625 
Q 72.5625 21.6875 67.96875 16.109375 
Q 63.875 11.1875 56.9375 11.1875 
Q 53.375 11.1875 50.734375 12.640625 
Q 48.09375 13.96875 45.5625 17.046875 
z
M 25.734375 17.71875 
Q 33.796875 17.71875 38.625 29.4375 
Q 32.421875 42.234375 25.734375 42.234375 
Q 20.84375 42.234375 18.359375 38.71875 
Q 15.671875 34.96875 15.671875 29.984375 
Q 15.671875 24.515625 18.359375 21.140625 
Q 21.09375 17.71875 25.734375 17.71875 
z
M 57.5625 42.140625 
Q 50.296875 42.140625 44.671875 30.421875 
Q 50.828125 17.625 57.5625 17.625 
Q 62.453125 17.625 64.9375 21.140625 
Q 67.625 24.90625 67.625 29.890625 
Q 67.625 35.359375 64.9375 38.71875 
Q 62.203125 42.140625 57.5625 42.140625 
z
" id="DejaVuSans-8734"/>
       <path d="M 3.171875 21.484375 
L 3.171875 30.328125 
L 30.171875 30.328125 
L 30.171875 21.484375 
z
" id="ArialMT-45"/>
      </defs>
      <use transform="translate(21 43.965625)scale(0.7)" xlink:href="#DejaVuSans-Oblique-80"/>
      <use transform="translate(0 -38.31875)scale(0.7)" xlink:href="#DejaVuSans-Oblique-80"/>
      <use transform="translate(42.211914 -49.803125)scale(0.49)" xlink:href="#DejaVuSans-8734"/>
      <use transform="translate(97.443359 0.16875)" xlink:href="#ArialMT-32"/>
      <use transform="translate(125.226562 0.16875)" xlink:href="#ArialMT-91"/>
      <use transform="translate(153.009766 0.16875)" xlink:href="#ArialMT-45"/>
      <use transform="translate(186.310547 0.16875)" xlink:href="#ArialMT-93"/>
      <path d="M 0 18.965625 
L 0 25.215625 
L 84.943359 25.215625 
L 84.943359 18.965625 
L 0 18.965625 
z
"/>
     </g>
    </g>
   </g>
   <g id="line2d_27">
    <path clip-path="url(#p874f54c6a4)" d="M -1 559.129634 
L 73.701407 559.039792 
L 172.909953 558.872971 
L 184.568477 558.696645 
L 190.385226 558.464332 
L 196.201974 558.086257 
L 199.110348 500.783134 
L 201.231251 256.260226 
L 203.352153 96.963847 
L 205.473055 57.652435 
L 207.593958 57.709654 
L 209.71486 80.367087 
L 211.835762 104.83794 
L 213.956665 123.623063 
L 216.077567 136.839675 
L 218.198469 147.602016 
L 220.319372 151.85671 
L 222.440274 154.201818 
L 224.561176 155.754261 
L 226.682079 156.070212 
L 230.923883 156.211127 
L 235.165688 156.03353 
L 239.407493 155.483104 
L 245.7702 154.249463 
L 250.012005 153.658244 
L 256.374712 152.29422 
L 258.495614 151.604209 
L 262.737419 149.893785 
L 264.858321 149.169942 
L 266.979223 148.581753 
L 269.100126 148.117876 
L 271.221028 147.822928 
L 275.462833 147.706151 
L 277.583735 147.758243 
L 279.704637 147.951431 
L 281.82554 148.281426 
L 283.946442 148.726602 
L 286.067344 149.694991 
L 288.188247 151.106437 
L 290.309149 152.977586 
L 292.430051 155.413085 
L 294.572674 158.817044 
L 299.323648 170.437563 
L 301.992639 179.207317 
L 308.038945 203.004339 
L 311.44833 218.82908 
L 315.148897 234.066696 
L 319.173436 254.587897 
L 323.548463 275.945309 
L 328.305339 295.854254 
L 339.108221 335.219123 
L 345.235231 344.463458 
L 351.904035 357.478335 
L 359.155365 369.666277 
L 367.046931 382.423375 
L 375.622376 385.817401 
L 384.940772 390.976417 
L 395.050803 394.429679 
L 406.002134 394.83908 
L 417.839615 394.818323 
L 430.592355 394.454425 
L 444.26709 393.102308 
L 474.02763 386.040607 
L 489.298127 383.349202 
L 504.568624 380.199455 
L 535.109618 375.135047 
L 550.380115 372.283714 
L 565.650612 369.698776 
L 580.921108 367.475336 
L 596.191605 366.327519 
L 642.003096 363.360807 
L 657.273593 362.971982 
L 672.54409 362.913202 
L 687.814587 475.800865 
L 709.403872 581.835382 
L 730.993158 594.767141 
L 752.582444 596.18307 
L 795.761015 596.474655 
L 838.939587 596.491093 
L 852.598437 596.429256 
L 852.598437 596.429256 
" style="fill:none;stroke:#ff0000;stroke-linecap:square;stroke-width:3;"/>
   </g>
   <g id="line2d_28">
    <path clip-path="url(#p874f54c6a4)" d="M -1 559.084961 
L 56.170345 559.211627 
L 163.264324 559.246604 
L 191.741291 559.079716 
L 195.42582 558.607226 
L 197.268084 558.229399 
L 199.110348 529.697708 
L 200.461893 357.426846 
L 201.813439 133.054948 
L 203.164984 43.544838 
L 204.516529 43.840278 
L 205.868074 70.166317 
L 207.219619 90.704371 
L 208.571165 106.105662 
L 209.92271 118.754124 
L 211.274255 128.928677 
L 212.6258 136.520906 
L 213.977345 141.85463 
L 215.32889 145.63517 
L 216.680436 148.491724 
L 218.031981 150.640689 
L 219.383526 152.152129 
L 220.735071 152.965728 
L 222.086616 153.2257 
L 223.438162 153.225999 
L 224.789707 152.947224 
L 227.492797 151.505248 
L 230.195888 150.154315 
L 235.602068 147.812794 
L 238.305159 144.847129 
L 239.656704 144.029042 
L 241.008249 143.612122 
L 246.41443 142.97237 
L 247.765975 142.636298 
L 249.11752 142.008627 
L 251.820611 139.732712 
L 253.172156 139.026099 
L 254.523701 138.564647 
L 258.578336 137.712734 
L 259.929882 137.250616 
L 261.281427 136.626269 
L 262.632972 135.843906 
L 263.984517 135.266989 
L 270.742243 133.582442 
L 274.796879 132.654124 
L 277.499969 132.262263 
L 280.203059 132.108701 
L 282.90615 132.223735 
L 284.257695 132.413937 
L 285.60924 132.720822 
L 286.960785 133.168883 
L 288.312331 133.7912 
L 289.663876 134.626417 
L 291.015421 135.74081 
L 292.366966 137.198838 
L 293.7198 139.058879 
L 295.141278 141.390053 
L 296.660987 144.298156 
L 298.320878 148.496622 
L 300.111367 154.45081 
L 302.049098 161.729526 
L 304.158455 170.667193 
L 306.436865 181.306582 
L 308.916988 194.642274 
L 311.6082 211.374126 
L 314.524861 227.77147 
L 317.70429 244.816126 
L 321.156178 266.672273 
L 324.905361 286.074293 
L 333.433014 323.596286 
L 338.269608 340.247164 
L 343.53359 354.761978 
L 349.263401 368.834775 
L 355.501388 380.807887 
L 362.291694 389.658964 
L 369.67385 396.91003 
L 377.704064 401.384255 
L 386.424041 404.07678 
L 395.880826 404.618241 
L 405.611952 404.63153 
L 415.343077 404.245836 
L 425.074202 403.198034 
L 434.805328 401.523832 
L 444.536453 398.79828 
L 454.267578 395.344939 
L 463.998704 391.519745 
L 473.729829 387.935509 
L 483.460954 384.558675 
L 493.19208 381.52514 
L 502.923205 378.285019 
L 512.65433 375.380574 
L 522.385456 373.585701 
L 541.847706 370.826401 
L 571.041083 366.826644 
L 580.772208 365.653157 
L 590.503333 364.712519 
L 609.965584 363.478939 
L 629.427835 362.699781 
L 648.890085 362.401211 
L 668.352336 362.657068 
L 678.083461 362.976341 
L 687.814587 419.236723 
L 701.449925 527.321763 
L 715.085263 583.535512 
L 728.720602 591.30701 
L 742.35594 594.66236 
L 755.991278 595.965611 
L 769.626617 596.501558 
L 783.261955 596.765564 
L 810.532632 596.923863 
L 852.598437 596.792216 
L 852.598437 596.792216 
" style="fill:none;stroke:#0000ff;stroke-dasharray:19.2,4.8,3,4.8;stroke-dashoffset:0;stroke-width:3;"/>
   </g>
   <g id="line2d_29">
    <path clip-path="url(#p874f54c6a4)" d="M -1 558.849253 
L 94.788996 558.902424 
L 190.22505 558.863773 
L 192.763706 558.706673 
L 195.302363 558.303761 
L 196.571691 557.992367 
L 197.84102 534.464927 
L 199.110348 411.735323 
L 200.96045 92.172176 
L 201.885501 38.761767 
L 202.810552 37.278306 
L 203.735603 66.947476 
L 204.660654 86.298912 
L 205.585705 88.202975 
L 206.510756 88.956515 
L 207.435807 93.930488 
L 208.360857 100.583335 
L 209.285908 105.131672 
L 210.210959 108.980375 
L 211.13601 114.713289 
L 212.061061 121.827361 
L 213.911163 131.653174 
L 214.836214 134.684916 
L 215.761265 136.476692 
L 216.686316 137.790268 
L 217.611367 138.832304 
L 218.536418 139.226609 
L 221.31157 139.761703 
L 223.161672 140.323238 
L 225.011774 140.36607 
L 226.861876 139.833402 
L 228.711978 139.12127 
L 231.487131 137.278841 
L 233.337233 136.800727 
L 235.187334 136.390867 
L 237.037436 135.648068 
L 239.812589 134.143699 
L 241.662691 133.139128 
L 243.512793 132.502674 
L 246.287945 131.598383 
L 248.138047 131.096721 
L 256.463506 129.630385 
L 258.313608 129.324611 
L 262.013811 129.108509 
L 264.788964 128.895502 
L 268.489168 128.497981 
L 272.189371 128.505433 
L 275.889575 128.866172 
L 282.364932 129.932327 
L 286.065135 130.956617 
L 287.915237 131.66678 
L 289.765339 132.6828 
L 290.69039 133.344399 
L 291.615441 134.143888 
L 292.540492 135.123598 
L 293.465543 136.327115 
L 295.454237 139.507801 
L 296.555188 141.723533 
L 297.756397 144.665124 
L 299.069137 148.452254 
L 300.471529 153.471507 
L 301.997229 159.82994 
L 303.662747 168.087386 
L 305.450853 178.14636 
L 307.409202 190.060681 
L 309.519414 204.509124 
L 317.034536 258.803332 
L 323.189056 299.286815 
L 326.682344 318.584521 
L 330.477662 336.581402 
L 334.607926 352.601954 
L 339.106985 367.803001 
L 344.00503 382.536111 
L 349.33692 392.894117 
L 355.141258 401.367854 
L 361.460614 406.267875 
L 368.116987 410.045045 
L 374.777353 411.931517 
L 381.43772 412.981172 
L 388.098087 413.387639 
L 394.758453 413.432995 
L 401.41882 413.27107 
L 408.079187 412.42421 
L 414.739553 410.447147 
L 421.39992 407.817142 
L 428.060287 404.93287 
L 434.720653 401.804814 
L 448.041387 395.369011 
L 454.701753 392.586718 
L 461.36212 390.146231 
L 494.663953 378.786511 
L 501.32432 376.83992 
L 507.984687 375.064644 
L 514.645053 373.438184 
L 541.28652 367.527299 
L 547.946887 366.256345 
L 554.607253 365.275829 
L 567.927987 363.633399 
L 574.588353 362.967758 
L 587.909087 362.019702 
L 601.22982 361.369358 
L 621.21092 360.74304 
L 641.19202 360.114681 
L 654.512753 359.718374 
L 667.833487 359.694415 
L 674.493853 359.778257 
L 681.15422 396.642608 
L 687.814587 469.435369 
L 697.235366 547.934645 
L 706.656145 589.210764 
L 716.076924 595.553343 
L 725.497704 596.478409 
L 734.918483 596.888265 
L 744.339262 597.113588 
L 763.180821 597.253325 
L 819.705496 596.954087 
L 852.598437 596.650093 
L 852.598437 596.650093 
" style="fill:none;stroke:#008000;stroke-dasharray:11.1,4.8;stroke-dashoffset:0;stroke-width:3;"/>
   </g>
   <g id="line2d_30">
    <path clip-path="url(#p874f54c6a4)" d="M -1 558.993628 
L 193.849958 559.017618 
L 195.603422 558.785264 
L 197.356885 558.391783 
L 198.233617 545.869204 
L 199.110348 454.975722 
L 200.395393 188.32459 
L 201.037916 73.404307 
L 201.680438 44.864037 
L 202.322961 54.876045 
L 202.965484 61.352218 
L 203.608006 65.466833 
L 204.893051 75.98894 
L 205.535574 84.92985 
L 206.178096 96.585438 
L 207.463142 110.813293 
L 208.105664 115.523601 
L 208.748187 117.274258 
L 210.675754 120.419076 
L 212.603322 126.93511 
L 213.888367 129.334302 
L 215.173412 130.921142 
L 217.10098 133.820024 
L 217.743503 134.621875 
L 218.386025 134.98118 
L 219.67107 135.143575 
L 220.956116 134.998485 
L 222.241161 134.84024 
L 226.096296 134.642672 
L 227.381341 134.038792 
L 228.666386 133.411086 
L 231.236477 132.379373 
L 233.164044 131.444153 
L 235.091612 130.812129 
L 237.661702 130.257957 
L 243.444405 129.168489 
L 246.657018 128.673827 
L 250.512154 128.326349 
L 255.652334 128.034968 
L 258.864947 127.844907 
L 262.720083 127.922314 
L 273.000444 128.469599 
L 283.280805 129.771367 
L 287.778463 130.643418 
L 289.70603 131.20647 
L 291.633598 131.995728 
L 292.918643 132.724563 
L 294.239249 133.728012 
L 295.732961 135.203492 
L 296.563398 136.241633 
L 297.469869 137.5766 
L 298.468896 139.284212 
L 299.537966 141.550175 
L 300.685666 144.649414 
L 301.938528 148.782785 
L 303.311029 154.315448 
L 304.779785 161.570266 
L 308.127438 180.982099 
L 310.007573 193.72294 
L 314.291882 225.732814 
L 319.353199 266.021977 
L 325.345672 306.603375 
L 328.741284 326.059893 
L 332.442986 343.574323 
L 336.471038 359.963084 
L 340.855041 374.827287 
L 345.478562 386.937997 
L 350.104725 396.67494 
L 354.730887 404.12371 
L 359.35705 409.147534 
L 363.983212 413.253089 
L 368.609375 416.652014 
L 373.235537 418.798755 
L 377.8617 419.437278 
L 387.114025 419.49425 
L 391.740187 419.275273 
L 396.36635 418.630979 
L 400.992512 417.599417 
L 405.618675 416.227424 
L 414.870999 412.8446 
L 419.497162 411.03791 
L 424.123324 409.018504 
L 433.375649 404.537104 
L 442.627974 399.886634 
L 465.758787 388.56974 
L 470.384949 386.211307 
L 475.011112 384.036147 
L 479.637274 382.071046 
L 484.263437 380.232605 
L 493.515762 377.009128 
L 502.768087 374.105624 
L 512.020412 371.487153 
L 521.272737 369.305473 
L 530.525062 367.341955 
L 539.777387 365.712235 
L 549.029712 364.438339 
L 562.908199 362.739678 
L 572.160524 361.826989 
L 581.412849 361.236519 
L 595.291337 360.673755 
L 627.674474 359.700504 
L 641.552962 359.474986 
L 655.431449 359.490345 
L 664.683774 359.712969 
L 673.936099 360.148515 
L 678.562262 360.44061 
L 683.188424 389.195678 
L 687.814587 445.356997 
L 700.768158 563.583909 
L 707.244944 593.523287 
L 713.72173 595.845299 
L 720.198515 596.259313 
L 733.152087 596.794679 
L 746.105658 597.12739 
L 765.536015 597.287995 
L 784.966372 597.268962 
L 817.350301 596.99379 
L 852.598437 596.58485 
L 852.598437 596.58485 
" style="fill:none;stroke:#000000;stroke-dasharray:3,4.95;stroke-dashoffset:0;stroke-width:3;"/>
   </g>
   <g id="line2d_31">
    <path clip-path="url(#p874f54c6a4)" d="M -1 559.040638 
L 151.980151 558.966896 
L 194.837348 558.813827 
L 196.058205 558.559911 
L 197.279062 558.106154 
L 197.889491 549.402203 
L 198.49992 501.629921 
L 199.110348 423.452833 
L 200.450134 144.914879 
L 200.896729 69.691673 
L 201.343324 38.463587 
L 201.789919 38.464545 
L 203.129704 82.719664 
L 203.576299 90.532184 
L 204.022895 95.294136 
L 204.46949 96.086457 
L 206.702465 103.934641 
L 208.042251 107.264739 
L 208.935441 109.628278 
L 211.615012 117.477929 
L 212.954797 120.625033 
L 214.294583 123.62949 
L 215.187773 125.428852 
L 216.080963 126.876921 
L 216.974153 127.783761 
L 218.313939 128.698986 
L 219.653724 129.364198 
L 220.993509 129.707893 
L 222.77989 129.939511 
L 224.119675 129.937334 
L 225.012866 129.796352 
L 226.799246 129.251337 
L 230.818602 127.863627 
L 234.837958 126.817915 
L 237.070934 126.261736 
L 239.750505 125.911664 
L 244.663051 125.511397 
L 248.235812 125.486981 
L 250.022193 125.58054 
L 256.274525 126.360309 
L 284.410018 130.808798 
L 288.429374 131.807866 
L 291.55554 132.797442 
L 293.34192 133.577829 
L 294.815914 134.481418 
L 295.97109 135.399706 
L 297.324069 136.820693 
L 298.103841 137.849003 
L 298.94884 139.210402 
L 299.848077 141.154083 
L 300.817904 143.8317 
L 301.878631 147.202552 
L 303.044485 151.551219 
L 304.290368 157.375606 
L 305.638169 164.769982 
L 307.120758 174.097016 
L 308.718315 185.582735 
L 312.345454 214.279718 
L 319.044404 268.011919 
L 321.689571 287.486231 
L 324.553386 307.28971 
L 327.680276 325.527912 
L 330.895761 342.779171 
L 334.111246 358.255139 
L 337.326731 371.648162 
L 340.542216 382.283047 
L 343.757701 390.748277 
L 346.973185 398.197906 
L 350.18867 404.137343 
L 353.404155 408.680765 
L 356.61964 412.122328 
L 359.835125 415.020491 
L 363.05061 417.268842 
L 366.266095 418.832081 
L 369.48158 419.882618 
L 372.697065 420.546621 
L 375.91255 420.922454 
L 379.128035 421.084073 
L 385.559004 421.050217 
L 388.774489 420.844585 
L 391.989974 420.463463 
L 395.205459 419.894336 
L 398.420944 419.148763 
L 401.636429 418.23345 
L 404.851914 417.139993 
L 411.282884 414.614485 
L 417.713854 411.817917 
L 430.575793 405.920409 
L 437.006763 402.710621 
L 443.437733 399.203496 
L 449.868703 395.560886 
L 462.730642 388.821453 
L 472.377097 384.37235 
L 478.808067 381.605723 
L 488.454522 377.838862 
L 494.885492 375.530104 
L 504.531946 372.433746 
L 514.178401 369.609667 
L 520.609371 367.866012 
L 527.040341 366.327924 
L 536.686796 364.33799 
L 546.33325 362.23998 
L 552.76422 360.892546 
L 555.979705 360.339174 
L 559.19519 359.910689 
L 565.62616 359.406696 
L 572.05713 359.233132 
L 578.4881 359.250194 
L 588.134554 359.500703 
L 613.858434 360.296805 
L 623.504888 360.309837 
L 636.366828 360.070263 
L 655.659738 359.735083 
L 665.306192 359.753825 
L 674.952647 360.144331 
L 678.168132 360.365622 
L 681.383617 379.006305 
L 684.599102 416.018582 
L 687.814587 455.053376 
L 701.449925 573.750937 
L 705.995038 593.942465 
L 710.540151 596.224105 
L 715.085263 596.857862 
L 719.630376 597.228663 
L 728.720602 597.61684 
L 737.810827 597.755282 
L 755.991278 597.720499 
L 787.807068 597.376906 
L 852.598437 596.410044 
L 852.598437 596.410044 
" style="fill:none;stroke:#ffa500;stroke-dasharray:3,4.95;stroke-dashoffset:0;stroke-width:3;"/>
   </g>
   <g id="patch_3">
    <path d="M 118.998437 617.04 
L 118.998437 7.2 
" style="fill:none;stroke:#000000;stroke-linecap:square;stroke-linejoin:miter;stroke-width:0.8;"/>
   </g>
   <g id="patch_4">
    <path d="M 844.398438 617.04 
L 844.398438 7.2 
" style="fill:none;stroke:#000000;stroke-linecap:square;stroke-linejoin:miter;stroke-width:0.8;"/>
   </g>
   <g id="patch_5">
    <path d="M 118.998438 617.04 
L 844.398438 617.04 
" style="fill:none;stroke:#000000;stroke-linecap:square;stroke-linejoin:miter;stroke-width:0.8;"/>
   </g>
   <g id="patch_6">
    <path d="M 118.998438 7.2 
L 844.398438 7.2 
" style="fill:none;stroke:#000000;stroke-linecap:square;stroke-linejoin:miter;stroke-width:0.8;"/>
   </g>
   <g id="legend_1">
    <g id="patch_7">
     <path d="M 595.045313 282.742969 
L 819.898438 282.742969 
Q 826.898438 282.742969 826.898438 275.742969 
L 826.898438 31.7 
Q 826.898438 24.7 819.898438 24.7 
L 595.045313 24.7 
Q 588.045313 24.7 588.045313 31.7 
L 588.045313 275.742969 
Q 588.045313 282.742969 595.045313 282.742969 
z
" style="fill:#ffffff;opacity:0.8;stroke:#cccccc;stroke-linejoin:miter;"/>
    </g>
    <g id="line2d_32">
     <path d="M 602.045313 51.502344 
L 672.045313 51.502344 
" style="fill:none;stroke:#ff0000;stroke-linecap:square;stroke-width:3;"/>
    </g>
    <g id="line2d_33"/>
    <g id="text_16">
     <!-- Level 0 -->
     <g transform="translate(700.045313 63.752344)scale(0.35 -0.35)">
      <defs>
       <path d="M 7.328125 0 
L 7.328125 71.578125 
L 16.796875 71.578125 
L 16.796875 8.453125 
L 52.046875 8.453125 
L 52.046875 0 
z
" id="ArialMT-76"/>
       <path d="M 21 0 
L 1.265625 51.859375 
L 10.546875 51.859375 
L 21.6875 20.796875 
Q 23.484375 15.765625 25 10.359375 
Q 26.171875 14.453125 28.265625 20.21875 
L 39.796875 51.859375 
L 48.828125 51.859375 
L 29.203125 0 
z
" id="ArialMT-118"/>
       <path d="M 6.390625 0 
L 6.390625 71.578125 
L 15.1875 71.578125 
L 15.1875 0 
z
" id="ArialMT-108"/>
      </defs>
      <use xlink:href="#ArialMT-76"/>
      <use x="55.615234" xlink:href="#ArialMT-101"/>
      <use x="111.230469" xlink:href="#ArialMT-118"/>
      <use x="161.230469" xlink:href="#ArialMT-101"/>
      <use x="216.845703" xlink:href="#ArialMT-108"/>
      <use x="239.0625" xlink:href="#ArialMT-32"/>
      <use x="266.845703" xlink:href="#ArialMT-48"/>
     </g>
    </g>
    <g id="line2d_34">
     <path d="M 602.045313 101.010937 
L 672.045313 101.010937 
" style="fill:none;stroke:#0000ff;stroke-dasharray:19.2,4.8,3,4.8;stroke-dashoffset:0;stroke-width:3;"/>
    </g>
    <g id="line2d_35"/>
    <g id="text_17">
     <!-- Level 1 -->
     <g transform="translate(700.045313 113.260937)scale(0.35 -0.35)">
      <use xlink:href="#ArialMT-76"/>
      <use x="55.615234" xlink:href="#ArialMT-101"/>
      <use x="111.230469" xlink:href="#ArialMT-118"/>
      <use x="161.230469" xlink:href="#ArialMT-101"/>
      <use x="216.845703" xlink:href="#ArialMT-108"/>
      <use x="239.0625" xlink:href="#ArialMT-32"/>
      <use x="266.845703" xlink:href="#ArialMT-49"/>
     </g>
    </g>
    <g id="line2d_36">
     <path d="M 602.045313 150.519531 
L 672.045313 150.519531 
" style="fill:none;stroke:#008000;stroke-dasharray:11.1,4.8;stroke-dashoffset:0;stroke-width:3;"/>
    </g>
    <g id="line2d_37"/>
    <g id="text_18">
     <!-- Level 2 -->
     <g transform="translate(700.045313 162.769531)scale(0.35 -0.35)">
      <use xlink:href="#ArialMT-76"/>
      <use x="55.615234" xlink:href="#ArialMT-101"/>
      <use x="111.230469" xlink:href="#ArialMT-118"/>
      <use x="161.230469" xlink:href="#ArialMT-101"/>
      <use x="216.845703" xlink:href="#ArialMT-108"/>
      <use x="239.0625" xlink:href="#ArialMT-32"/>
      <use x="266.845703" xlink:href="#ArialMT-50"/>
     </g>
    </g>
    <g id="line2d_38">
     <path d="M 602.045313 200.028125 
L 672.045313 200.028125 
" style="fill:none;stroke:#000000;stroke-dasharray:3,4.95;stroke-dashoffset:0;stroke-width:3;"/>
    </g>
    <g id="line2d_39"/>
    <g id="text_19">
     <!-- Level 3 -->
     <g transform="translate(700.045313 212.278125)scale(0.35 -0.35)">
      <use xlink:href="#ArialMT-76"/>
      <use x="55.615234" xlink:href="#ArialMT-101"/>
      <use x="111.230469" xlink:href="#ArialMT-118"/>
      <use x="161.230469" xlink:href="#ArialMT-101"/>
      <use x="216.845703" xlink:href="#ArialMT-108"/>
      <use x="239.0625" xlink:href="#ArialMT-32"/>
      <use x="266.845703" xlink:href="#ArialMT-51"/>
     </g>
    </g>
    <g id="line2d_40">
     <path d="M 602.045313 249.536719 
L 672.045313 249.536719 
" style="fill:none;stroke:#ffa500;stroke-dasharray:3,4.95;stroke-dashoffset:0;stroke-width:3;"/>
    </g>
    <g id="line2d_41"/>
    <g id="text_20">
     <!-- Level 4 -->
     <g transform="translate(700.045313 261.786719)scale(0.35 -0.35)">
      <use xlink:href="#ArialMT-76"/>
      <use x="55.615234" xlink:href="#ArialMT-101"/>
      <use x="111.230469" xlink:href="#ArialMT-118"/>
      <use x="161.230469" xlink:href="#ArialMT-101"/>
      <use x="216.845703" xlink:href="#ArialMT-108"/>
      <use x="239.0625" xlink:href="#ArialMT-32"/>
      <use x="266.845703" xlink:href="#ArialMT-52"/>
     </g>
    </g>
   </g>
  </g>
 </g>
 <defs>
  <clipPath id="p874f54c6a4">
   <rect height="609.84" width="725.4" x="118.998437" y="7.2"/>
  </clipPath>
 </defs>
</svg>
