<?xml version="1.0" encoding="utf-8" standalone="no"?>
<!DOCTYPE svg PUBLIC "-//W3C//DTD SVG 1.1//EN"
  "http://www.w3.org/Graphics/SVG/1.1/DTD/svg11.dtd">
<svg xmlns:xlink="http://www.w3.org/1999/xlink" width="832.437189pt" height="692.806049pt" viewBox="0 0 832.437189 692.806049" xmlns="http://www.w3.org/2000/svg" version="1.1">
 <metadata>
  <rdf:RDF xmlns:dc="http://purl.org/dc/elements/1.1/" xmlns:cc="http://creativecommons.org/ns#" xmlns:rdf="http://www.w3.org/1999/02/22-rdf-syntax-ns#">
   <cc:Work>
    <dc:type rdf:resource="http://purl.org/dc/dcmitype/StillImage"/>
    <dc:date>2025-03-03T10:02:40.121509</dc:date>
    <dc:format>image/svg+xml</dc:format>
    <dc:creator>
     <cc:Agent>
      <dc:title>Matplotlib v3.5.3, https://matplotlib.org/</dc:title>
     </cc:Agent>
    </dc:creator>
   </cc:Work>
  </rdf:RDF>
 </metadata>
 <defs>
  <style type="text/css">*{stroke-linejoin: round; stroke-linecap: butt}</style>
 </defs>
 <g id="figure_1">
  <g id="patch_1">
   <path d="M 0 692.806049 
L 832.437189 692.806049 
L 832.437189 0 
L 0 0 
z
" style="fill: #ffffff"/>
  </g>
  <g id="axes_1">
   <g id="patch_2">
    <path d="M 99.837189 617.04 
L 825.237189 617.04 
L 825.237189 7.2 
L 99.837189 7.2 
z
" style="fill: #ffffff"/>
   </g>
   <g id="PolyCollection_1">
    <path d="M 113.270523 72.680983 
L 113.270523 22.684668 
L 131.527686 22.684668 
L 144.855533 22.684668 
L 154.585105 22.684668 
L 161.68809 22.684668 
L 166.873842 22.684668 
L 170.660233 22.684668 
L 173.425353 22.684668 
L 175.445262 22.684509 
L 176.921529 22.729211 
L 178.100261 25.485881 
L 179.268725 47.07083 
L 180.437189 105.186802 
L 181.634755 160.737966 
L 182.832321 214.42386 
L 184.029887 221.441097 
L 185.227453 236.567399 
L 186.425019 237.563713 
L 187.622584 242.867122 
L 188.82015 248.861285 
L 190.017716 251.495898 
L 191.215282 252.347538 
L 192.412848 253.402869 
L 193.610414 254.080511 
L 194.80798 254.882285 
L 196.005545 255.445254 
L 197.203111 256.038901 
L 198.400677 256.360338 
L 199.598243 256.858899 
L 200.795809 257.126356 
L 201.993375 257.549977 
L 203.190941 257.788269 
L 204.388506 258.023354 
L 205.586072 258.213218 
L 206.783638 258.489461 
L 207.981204 258.618145 
L 209.17877 258.739616 
L 210.376336 258.859373 
L 211.573901 258.988465 
L 212.771467 259.044338 
L 213.969033 259.083125 
L 215.166599 259.093346 
L 216.364165 259.171678 
L 217.561731 259.239174 
L 218.759297 259.306984 
L 219.956862 259.320834 
L 221.154428 259.264804 
L 222.351995 259.213559 
L 223.579731 259.179403 
L 224.851333 259.132221 
L 226.168694 259.094039 
L 227.534333 259.025309 
L 228.950835 258.946274 
L 230.419684 258.899129 
L 231.942649 258.846557 
L 233.52179 258.80423 
L 235.159375 258.7852 
L 236.856834 258.759079 
L 238.615941 258.723073 
L 240.439171 258.709239 
L 242.329853 258.683506 
L 244.291748 258.631574 
L 246.323967 258.603167 
L 248.43108 258.589867 
L 250.616925 258.580745 
L 252.881633 258.553264 
L 255.231027 258.521144 
L 257.666411 258.480282 
L 260.190676 258.420017 
L 262.808896 258.370455 
L 265.523383 258.325543 
L 268.337524 258.285849 
L 271.255184 258.24661 
L 274.280306 258.206276 
L 277.4168 258.172145 
L 280.668634 258.136402 
L 284.040104 258.104927 
L 287.536236 258.082727 
L 291.160924 258.052054 
L 294.918912 258.030199 
L 298.815516 257.992917 
L 302.855789 257.913282 
L 307.044565 257.879727 
L 311.387607 257.824988 
L 315.89077 257.764265 
L 320.559929 257.682219 
L 325.400986 257.632531 
L 330.394807 257.566051 
L 335.53263 257.533663 
L 340.859588 257.460623 
L 346.383145 257.400223 
L 352.110169 257.309044 
L 358.048288 257.227236 
L 364.205329 257.147965 
L 370.589261 257.088209 
L 377.208536 256.954129 
L 384.071936 256.84049 
L 391.188344 256.753021 
L 398.567044 256.680699 
L 406.217767 256.602206 
L 413.770626 256.54829 
L 419.407545 256.50961 
L 423.421802 256.499569 
L 426.280996 256.491608 
L 428.317932 256.491924 
L 429.769446 256.485113 
L 430.910213 256.478464 
L 432.041247 256.472647 
L 433.172282 256.465506 
L 434.303316 256.45839 
L 435.43435 256.450629 
L 436.565385 256.44465 
L 437.696419 256.438192 
L 438.827454 255.306363 
L 439.958488 306.280682 
L 440.783283 401.964688 
L 441.608079 416.566674 
L 442.432874 414.091528 
L 443.257669 411.01242 
L 444.082465 408.721444 
L 444.90726 406.976201 
L 445.732056 405.140642 
L 446.556851 403.436196 
L 447.381646 401.983573 
L 448.206442 400.687288 
L 449.031237 399.606851 
L 449.856032 398.675893 
L 450.680828 397.827256 
L 451.505623 397.154088 
L 452.330418 396.518392 
L 453.155214 395.960254 
L 453.980009 395.448804 
L 454.804804 395.030264 
L 455.6296 394.615653 
L 456.454395 394.216403 
L 457.279191 393.832248 
L 458.103986 393.487381 
L 458.928781 393.138354 
L 459.753577 392.756928 
L 460.578372 392.3996 
L 461.403167 392.101394 
L 462.227963 391.820083 
L 463.052758 391.553079 
L 463.877553 391.276985 
L 464.702349 391.008722 
L 465.527144 390.754487 
L 466.351939 390.517054 
L 467.176735 390.279353 
L 468.00153 390.032747 
L 468.826326 389.773408 
L 469.651121 389.502165 
L 470.475916 389.22262 
L 471.300712 388.929657 
L 472.125507 388.632068 
L 472.950302 388.310767 
L 473.775098 387.940465 
L 474.599893 387.541916 
L 475.424688 387.103771 
L 476.249484 386.528131 
L 477.082726 385.889179 
L 477.96769 385.113641 
L 478.930327 384.190686 
L 479.968268 383.171632 
L 481.095782 381.782978 
L 482.319609 380.336842 
L 483.645481 378.516095 
L 485.08459 376.201607 
L 486.649689 373.47184 
L 488.351088 370.674295 
L 490.200984 368.024244 
L 492.213011 365.136001 
L 494.402105 362.355174 
L 496.784831 359.994032 
L 499.378255 358.091058 
L 502.198217 356.972744 
L 505.267159 356.505364 
L 508.602054 356.714831 
L 512.225875 357.685281 
L 516.157554 358.997482 
L 520.416405 360.066693 
L 525.019869 361.089257 
L 529.979269 362.143473 
L 535.297221 363.522672 
L 540.956768 364.967901 
L 546.870764 366.616776 
L 552.809291 368.15273 
L 558.747817 369.601543 
L 564.686344 370.962181 
L 570.624871 372.332068 
L 576.563397 373.710691 
L 582.501924 374.837457 
L 588.44045 375.851869 
L 594.378977 376.629649 
L 600.317503 377.385703 
L 606.25603 378.416938 
L 612.194557 379.492725 
L 618.133083 380.611491 
L 624.07161 381.993079 
L 630.010136 347.349489 
L 638.40597 222.789667 
L 646.801803 206.80827 
L 655.197636 199.157368 
L 663.59347 196.984976 
L 671.989303 201.105338 
L 680.385136 202.976693 
L 688.78097 204.414413 
L 697.176803 206.011108 
L 705.572636 207.40396 
L 713.96847 208.406836 
L 722.364303 209.151983 
L 730.760136 209.91944 
L 739.15597 210.624774 
L 747.551803 211.478887 
L 755.947636 212.145875 
L 764.34347 212.878342 
L 772.739303 213.575387 
L 781.135136 214.232983 
L 789.53097 214.821934 
L 797.926803 215.388066 
L 806.322636 215.861017 
L 814.71847 216.418849 
L 823.114303 216.781552 
L 831.510136 217.115085 
L 831.510136 235.431646 
L 831.510136 235.431646 
L 823.114303 235.151488 
L 814.71847 234.849098 
L 806.322636 234.355482 
L 797.926803 233.892871 
L 789.53097 233.419971 
L 781.135136 232.873031 
L 772.739303 232.316429 
L 764.34347 231.699509 
L 755.947636 231.110517 
L 747.551803 230.544746 
L 739.15597 229.827869 
L 730.760136 229.189139 
L 722.364303 228.724379 
L 713.96847 228.20034 
L 705.572636 227.406044 
L 697.176803 226.473552 
L 688.78097 225.327368 
L 680.385136 223.995439 
L 671.989303 222.717337 
L 663.59347 222.740757 
L 655.197636 223.145658 
L 646.801803 231.153751 
L 638.40597 245.379685 
L 630.010136 358.091452 
L 624.07161 388.267377 
L 618.133083 386.952854 
L 612.194557 385.829202 
L 606.25603 384.673766 
L 600.317503 383.641149 
L 594.378977 382.852685 
L 588.44045 382.052277 
L 582.501924 381.065668 
L 576.563397 379.921599 
L 570.624871 378.673475 
L 564.686344 377.508116 
L 558.747817 376.340661 
L 552.809291 375.03019 
L 546.870764 373.7687 
L 540.956768 372.540776 
L 535.297221 371.243104 
L 529.979269 370.102624 
L 525.019869 369.398486 
L 520.416405 368.882474 
L 516.157554 368.304648 
L 512.225875 367.802139 
L 508.602054 367.580025 
L 505.267159 368.12535 
L 502.198217 369.317926 
L 499.378255 370.920282 
L 496.784831 373.34837 
L 494.402105 376.147303 
L 492.213011 379.184641 
L 490.200984 382.172555 
L 488.351088 384.862306 
L 486.649689 387.631045 
L 485.08459 390.280787 
L 483.645481 392.464656 
L 482.319609 394.211805 
L 481.095782 395.427352 
L 479.968268 396.580749 
L 478.930327 397.383321 
L 477.96769 398.108967 
L 477.082726 398.706932 
L 476.249484 399.214414 
L 475.424688 399.69144 
L 474.599893 400.069084 
L 473.775098 400.415922 
L 472.950302 400.746073 
L 472.125507 401.041743 
L 471.300712 401.31971 
L 470.475916 401.599988 
L 469.651121 401.869938 
L 468.826326 402.134906 
L 468.00153 402.393278 
L 467.176735 402.646685 
L 466.351939 402.908705 
L 465.527144 403.170512 
L 464.702349 403.456372 
L 463.877553 403.76203 
L 463.052758 404.080014 
L 462.227963 404.386832 
L 461.403167 404.705294 
L 460.578372 405.045722 
L 459.753577 405.441662 
L 458.928781 405.858617 
L 458.103986 406.246524 
L 457.279191 406.643754 
L 456.454395 407.100447 
L 455.6296 407.582826 
L 454.804804 408.09101 
L 453.980009 408.625786 
L 453.155214 409.26658 
L 452.330418 409.96457 
L 451.505623 410.74177 
L 450.680828 411.538605 
L 449.856032 412.448239 
L 449.031237 413.345181 
L 448.206442 414.268933 
L 447.381646 415.335147 
L 446.556851 416.570961 
L 445.732056 417.988977 
L 444.90726 419.723384 
L 444.082465 421.540701 
L 443.257669 423.413577 
L 442.432874 425.523625 
L 441.608079 428.034577 
L 440.783283 450.811791 
L 439.958488 346.685201 
L 438.827454 268.791888 
L 437.696419 270.565638 
L 436.565385 270.567465 
L 435.43435 270.568379 
L 434.303316 270.573769 
L 433.172282 270.580033 
L 432.041247 270.587272 
L 430.910213 270.593422 
L 429.769446 270.601226 
L 428.317932 270.615306 
L 426.280996 270.641694 
L 423.421802 270.67115 
L 419.407545 270.719135 
L 413.770626 270.768085 
L 406.217767 270.821442 
L 398.567044 270.863594 
L 391.188344 270.883832 
L 384.071936 270.900085 
L 377.208536 270.915871 
L 370.589261 270.9664 
L 364.205329 270.953435 
L 358.048288 270.972528 
L 352.110169 270.986895 
L 346.383145 270.991097 
L 340.859588 271.003003 
L 335.53263 271.035217 
L 330.394807 271.062065 
L 325.400986 271.084212 
L 320.559929 271.08046 
L 315.89077 271.093253 
L 311.387607 271.122966 
L 307.044565 271.173607 
L 302.855789 271.217868 
L 298.815516 271.299 
L 294.918912 271.324741 
L 291.160924 271.333359 
L 287.536236 271.356469 
L 284.040104 271.391646 
L 280.668634 271.420971 
L 277.4168 271.445703 
L 274.280306 271.457578 
L 271.255184 271.471656 
L 268.337524 271.48124 
L 265.523383 271.517531 
L 262.808896 271.54055 
L 260.190676 271.556629 
L 257.666411 271.561015 
L 255.231027 271.582698 
L 252.881633 271.588537 
L 250.616925 271.617296 
L 248.43108 271.628752 
L 246.323967 271.627762 
L 244.291748 271.605351 
L 242.329853 271.578139 
L 240.439171 271.5728 
L 238.615941 271.563174 
L 236.856834 271.576184 
L 235.159375 271.57316 
L 233.52179 271.571624 
L 231.942649 271.586075 
L 230.419684 271.585194 
L 228.950835 271.563606 
L 227.534333 271.574097 
L 226.168694 271.563323 
L 224.851333 271.557753 
L 223.579731 271.581595 
L 222.351995 271.57208 
L 221.154428 271.519368 
L 219.956862 271.460869 
L 218.759297 271.455705 
L 217.561731 271.505831 
L 216.364165 271.540912 
L 215.166599 271.563534 
L 213.969033 271.4943 
L 212.771467 271.469186 
L 211.573901 271.452746 
L 210.376336 271.553104 
L 209.17877 271.575751 
L 207.981204 271.630275 
L 206.783638 271.628447 
L 205.586072 271.689705 
L 204.388506 271.788178 
L 203.190941 271.795837 
L 201.993375 271.910089 
L 200.795809 271.95822 
L 199.598243 272.189193 
L 198.400677 272.229113 
L 197.203111 272.477648 
L 196.005545 272.617329 
L 194.80798 273.246226 
L 193.610414 274.060372 
L 192.412848 275.422606 
L 191.215282 276.703963 
L 190.017716 279.063963 
L 188.82015 278.391767 
L 187.622584 284.03663 
L 186.425019 290.393287 
L 185.227453 295.397809 
L 184.029887 298.566539 
L 182.832321 290.992001 
L 181.634755 242.746194 
L 180.437189 182.058073 
L 179.268725 99.401896 
L 178.100261 77.510906 
L 176.921529 72.726466 
L 175.445262 72.680824 
L 173.425353 72.680983 
L 170.660233 72.680983 
L 166.873842 72.680983 
L 161.68809 72.680983 
L 154.585105 72.680983 
L 144.855533 72.680983 
L 131.527686 72.680983 
L 113.270523 72.680983 
z
" clip-path="url(#p1893867ce1)" style="fill: #99ccff; fill-opacity: 0.7"/>
   </g>
   <g id="matplotlib.axis_1">
    <g id="xtick_1">
     <g id="line2d_1">
      <path d="M 180.437189 617.04 
L 180.437189 7.2 
" clip-path="url(#p1893867ce1)" style="fill: none; stroke: #b0b0b0; stroke-width: 0.8; stroke-linecap: square"/>
     </g>
     <g id="line2d_2">
      <defs>
       <path id="m2b7dbeda62" d="M 0 0 
L 0 3.5 
" style="stroke: #000000; stroke-width: 0.8"/>
      </defs>
      <g>
       <use xlink:href="#m2b7dbeda62" x="180.437189" y="617.04" style="stroke: #000000; stroke-width: 0.8"/>
      </g>
     </g>
     <g id="text_1">
      <!-- $\mathdefault{0.0}$ -->
      <g transform="translate(162.66547 644.795495)scale(0.3 -0.3)">
       <defs>
        <path id="CMR17-30" d="M 2688 2025 
C 2688 2416 2682 3080 2413 3591 
C 2176 4039 1798 4198 1466 4198 
C 1158 4198 768 4058 525 3597 
C 269 3118 243 2524 243 2025 
C 243 1661 250 1106 448 619 
C 723 -39 1216 -128 1466 -128 
C 1760 -128 2208 -7 2470 600 
C 2662 1042 2688 1559 2688 2025 
z
M 1466 -26 
C 1056 -26 813 325 723 812 
C 653 1188 653 1738 653 2096 
C 653 2588 653 2997 736 3387 
C 858 3929 1216 4096 1466 4096 
C 1728 4096 2067 3923 2189 3400 
C 2272 3036 2278 2607 2278 2096 
C 2278 1680 2278 1169 2202 792 
C 2067 95 1690 -26 1466 -26 
z
" transform="scale(0.015625)"/>
        <path id="CMMI12-3a" d="M 1178 307 
C 1178 492 1024 619 870 619 
C 685 619 557 466 557 313 
C 557 128 710 0 864 0 
C 1050 0 1178 153 1178 307 
z
" transform="scale(0.015625)"/>
       </defs>
       <use xlink:href="#CMR17-30" transform="scale(0.996264)"/>
       <use xlink:href="#CMMI12-3a" transform="translate(45.690477 0)scale(0.996264)"/>
       <use xlink:href="#CMR17-30" transform="translate(72.787654 0)scale(0.996264)"/>
      </g>
     </g>
    </g>
    <g id="xtick_2">
     <g id="line2d_3">
      <path d="M 314.770523 617.04 
L 314.770523 7.2 
" clip-path="url(#p1893867ce1)" style="fill: none; stroke: #b0b0b0; stroke-width: 0.8; stroke-linecap: square"/>
     </g>
     <g id="line2d_4">
      <g>
       <use xlink:href="#m2b7dbeda62" x="314.770523" y="617.04" style="stroke: #000000; stroke-width: 0.8"/>
      </g>
     </g>
     <g id="text_2">
      <!-- $\mathdefault{0.1}$ -->
      <g transform="translate(296.998803 644.795495)scale(0.3 -0.3)">
       <defs>
        <path id="CMR17-31" d="M 1702 4058 
C 1702 4192 1696 4192 1606 4192 
C 1357 3916 979 3827 621 3827 
C 602 3827 570 3827 563 3808 
C 557 3795 557 3782 557 3648 
C 755 3648 1088 3686 1344 3839 
L 1344 461 
C 1344 236 1331 160 781 160 
L 589 160 
L 589 0 
C 896 0 1216 0 1523 0 
C 1830 0 2150 0 2458 0 
L 2458 160 
L 2266 160 
C 1715 160 1702 230 1702 458 
L 1702 4058 
z
" transform="scale(0.015625)"/>
       </defs>
       <use xlink:href="#CMR17-30" transform="scale(0.996264)"/>
       <use xlink:href="#CMMI12-3a" transform="translate(45.690477 0)scale(0.996264)"/>
       <use xlink:href="#CMR17-31" transform="translate(72.787654 0)scale(0.996264)"/>
      </g>
     </g>
    </g>
    <g id="xtick_3">
     <g id="line2d_5">
      <path d="M 449.103856 617.04 
L 449.103856 7.2 
" clip-path="url(#p1893867ce1)" style="fill: none; stroke: #b0b0b0; stroke-width: 0.8; stroke-linecap: square"/>
     </g>
     <g id="line2d_6">
      <g>
       <use xlink:href="#m2b7dbeda62" x="449.103856" y="617.04" style="stroke: #000000; stroke-width: 0.8"/>
      </g>
     </g>
     <g id="text_3">
      <!-- $\mathdefault{0.2}$ -->
      <g transform="translate(431.332136 644.795495)scale(0.3 -0.3)">
       <defs>
        <path id="CMR17-32" d="M 2669 989 
L 2554 989 
C 2490 536 2438 459 2413 420 
C 2381 369 1920 369 1830 369 
L 602 369 
C 832 619 1280 1072 1824 1597 
C 2214 1967 2669 2402 2669 3035 
C 2669 3790 2067 4224 1395 4224 
C 691 4224 262 3604 262 3030 
C 262 2780 448 2748 525 2748 
C 589 2748 781 2787 781 3010 
C 781 3207 614 3264 525 3264 
C 486 3264 448 3258 422 3245 
C 544 3790 915 4058 1306 4058 
C 1862 4058 2227 3617 2227 3035 
C 2227 2479 1901 2000 1536 1584 
L 262 146 
L 262 0 
L 2515 0 
L 2669 989 
z
" transform="scale(0.015625)"/>
       </defs>
       <use xlink:href="#CMR17-30" transform="scale(0.996264)"/>
       <use xlink:href="#CMMI12-3a" transform="translate(45.690477 0)scale(0.996264)"/>
       <use xlink:href="#CMR17-32" transform="translate(72.787654 0)scale(0.996264)"/>
      </g>
     </g>
    </g>
    <g id="xtick_4">
     <g id="line2d_7">
      <path d="M 583.437189 617.04 
L 583.437189 7.2 
" clip-path="url(#p1893867ce1)" style="fill: none; stroke: #b0b0b0; stroke-width: 0.8; stroke-linecap: square"/>
     </g>
     <g id="line2d_8">
      <g>
       <use xlink:href="#m2b7dbeda62" x="583.437189" y="617.04" style="stroke: #000000; stroke-width: 0.8"/>
      </g>
     </g>
     <g id="text_4">
      <!-- $\mathdefault{0.3}$ -->
      <g transform="translate(565.66547 644.795495)scale(0.3 -0.3)">
       <defs>
        <path id="CMR17-33" d="M 1414 2157 
C 1984 2157 2234 1662 2234 1090 
C 2234 320 1824 25 1453 25 
C 1114 25 563 194 390 693 
C 422 680 454 680 486 680 
C 640 680 755 782 755 948 
C 755 1133 614 1216 486 1216 
C 378 1216 211 1165 211 926 
C 211 335 787 -128 1466 -128 
C 2176 -128 2720 430 2720 1085 
C 2720 1707 2208 2157 1600 2227 
C 2086 2328 2554 2756 2554 3329 
C 2554 3820 2048 4179 1472 4179 
C 890 4179 378 3829 378 3329 
C 378 3110 544 3072 627 3072 
C 762 3072 877 3155 877 3321 
C 877 3486 762 3569 627 3569 
C 602 3569 570 3569 544 3557 
C 730 3959 1235 4032 1459 4032 
C 1683 4032 2106 3925 2106 3320 
C 2106 3143 2080 2828 1862 2550 
C 1670 2304 1453 2304 1242 2284 
C 1210 2284 1062 2269 1037 2269 
C 992 2263 966 2257 966 2208 
C 966 2163 973 2157 1101 2157 
L 1414 2157 
z
" transform="scale(0.015625)"/>
       </defs>
       <use xlink:href="#CMR17-30" transform="scale(0.996264)"/>
       <use xlink:href="#CMMI12-3a" transform="translate(45.690477 0)scale(0.996264)"/>
       <use xlink:href="#CMR17-33" transform="translate(72.787654 0)scale(0.996264)"/>
      </g>
     </g>
    </g>
    <g id="xtick_5">
     <g id="line2d_9">
      <path d="M 717.770523 617.04 
L 717.770523 7.2 
" clip-path="url(#p1893867ce1)" style="fill: none; stroke: #b0b0b0; stroke-width: 0.8; stroke-linecap: square"/>
     </g>
     <g id="line2d_10">
      <g>
       <use xlink:href="#m2b7dbeda62" x="717.770523" y="617.04" style="stroke: #000000; stroke-width: 0.8"/>
      </g>
     </g>
     <g id="text_5">
      <!-- $\mathdefault{0.4}$ -->
      <g transform="translate(699.998803 644.795495)scale(0.3 -0.3)">
       <defs>
        <path id="CMR17-34" d="M 2150 4122 
C 2150 4256 2144 4256 2029 4256 
L 128 1254 
L 128 1088 
L 1779 1088 
L 1779 457 
C 1779 224 1766 160 1318 160 
L 1197 160 
L 1197 0 
C 1402 0 1747 0 1965 0 
C 2182 0 2528 0 2733 0 
L 2733 160 
L 2611 160 
C 2163 160 2150 224 2150 457 
L 2150 1088 
L 2803 1088 
L 2803 1254 
L 2150 1254 
L 2150 4122 
z
M 1798 3703 
L 1798 1254 
L 256 1254 
L 1798 3703 
z
" transform="scale(0.015625)"/>
       </defs>
       <use xlink:href="#CMR17-30" transform="scale(0.996264)"/>
       <use xlink:href="#CMMI12-3a" transform="translate(45.690477 0)scale(0.996264)"/>
       <use xlink:href="#CMR17-34" transform="translate(72.787654 0)scale(0.996264)"/>
      </g>
     </g>
    </g>
    <g id="text_6">
     <!-- $x, \; \mathrm{m} $ -->
     <g transform="translate(426.884586 678.823697)scale(0.35 -0.35)">
      <defs>
       <path id="CMMI12-78" d="M 3034 2606 
C 2829 2567 2752 2414 2752 2293 
C 2752 2139 2874 2088 2963 2088 
C 3155 2088 3290 2254 3290 2427 
C 3290 2695 2982 2816 2714 2816 
C 2323 2816 2106 2433 2048 2312 
C 1901 2816 1504 2816 1389 2816 
C 736 2816 390 1980 390 1839 
C 390 1814 416 1782 461 1782 
C 512 1782 525 1820 538 1846 
C 755 2555 1184 2689 1370 2689 
C 1658 2689 1715 2420 1715 2267 
C 1715 2127 1677 1980 1600 1673 
L 1382 798 
C 1286 415 1101 64 762 64 
C 730 64 570 64 435 147 
C 666 192 717 383 717 460 
C 717 588 621 664 499 664 
C 346 664 179 530 179 326 
C 179 57 480 -64 755 -64 
C 1062 -64 1280 179 1414 441 
C 1517 64 1837 -64 2074 -64 
C 2726 -64 3072 773 3072 913 
C 3072 945 3046 971 3008 971 
C 2950 971 2944 939 2925 888 
C 2752 326 2381 64 2093 64 
C 1869 64 1747 230 1747 492 
C 1747 632 1773 734 1875 1156 
L 2099 2024 
C 2195 2408 2413 2689 2707 2689 
C 2720 2689 2899 2689 3034 2606 
z
" transform="scale(0.015625)"/>
       <path id="CMMI12-3b" d="M 1248 -31 
C 1248 343 1126 619 864 619 
C 659 619 557 453 557 313 
C 557 172 653 0 870 0 
C 954 0 1024 26 1082 83 
C 1094 96 1101 96 1107 96 
C 1120 96 1120 5 1120 -27 
C 1120 -240 1082 -659 710 -1080 
C 640 -1157 640 -1170 640 -1183 
C 640 -1216 672 -1248 704 -1248 
C 755 -1248 1248 -771 1248 -31 
z
" transform="scale(0.015625)"/>
       <path id="CMR17-6d" d="M 4326 1933 
C 4326 2252 4269 2790 3507 2790 
C 3072 2790 2771 2496 2656 2151 
L 2650 2151 
C 2573 2676 2195 2790 1837 2790 
C 1331 2790 1069 2400 973 2144 
L 966 2144 
L 966 2790 
L 211 2720 
L 211 2554 
C 589 2554 646 2515 646 2208 
L 646 428 
C 646 184 621 153 211 153 
L 211 -13 
C 365 0 646 0 813 0 
C 979 0 1267 0 1421 -13 
L 1421 153 
C 1011 153 986 178 986 428 
L 986 1658 
C 986 2247 1344 2688 1792 2688 
C 2266 2688 2317 2266 2317 1958 
L 2317 428 
C 2317 184 2291 153 1882 153 
L 1882 -13 
C 2035 0 2317 0 2483 0 
C 2650 0 2938 0 3091 -13 
L 3091 153 
C 2682 153 2656 178 2656 428 
L 2656 1658 
C 2656 2247 3014 2688 3462 2688 
C 3936 2688 3987 2266 3987 1958 
L 3987 428 
C 3987 184 3962 153 3552 153 
L 3552 -13 
C 3706 0 3987 0 4154 0 
C 4320 0 4608 0 4762 -13 
L 4762 153 
C 4352 153 4326 178 4326 428 
L 4326 1933 
z
" transform="scale(0.015625)"/>
      </defs>
      <use xlink:href="#CMMI12-78" transform="scale(0.996264)"/>
      <use xlink:href="#CMMI12-3b" transform="translate(55.43406 0)scale(0.996264)"/>
      <use xlink:href="#CMR17-6d" transform="translate(126.809651 0)scale(0.996264)"/>
     </g>
    </g>
   </g>
   <g id="matplotlib.axis_2">
    <g id="ytick_1">
     <g id="line2d_11">
      <path d="M 99.837189 552.163404 
L 825.237189 552.163404 
" clip-path="url(#p1893867ce1)" style="fill: none; stroke: #b0b0b0; stroke-width: 0.8; stroke-linecap: square"/>
     </g>
     <g id="line2d_12">
      <defs>
       <path id="md7f8b830ec" d="M 0 0 
L -3.5 0 
" style="stroke: #000000; stroke-width: 0.8"/>
      </defs>
      <g>
       <use xlink:href="#md7f8b830ec" x="99.837189" y="552.163404" style="stroke: #000000; stroke-width: 0.8"/>
      </g>
     </g>
     <g id="text_7">
      <!-- $\mathdefault{0.0}$ -->
      <g transform="translate(57.29375 562.541152)scale(0.3 -0.3)">
       <use xlink:href="#CMR17-30" transform="scale(0.996264)"/>
       <use xlink:href="#CMMI12-3a" transform="translate(45.690477 0)scale(0.996264)"/>
       <use xlink:href="#CMR17-30" transform="translate(72.787654 0)scale(0.996264)"/>
      </g>
     </g>
    </g>
    <g id="ytick_2">
     <g id="line2d_13">
      <path d="M 99.837189 448.360851 
L 825.237189 448.360851 
" clip-path="url(#p1893867ce1)" style="fill: none; stroke: #b0b0b0; stroke-width: 0.8; stroke-linecap: square"/>
     </g>
     <g id="line2d_14">
      <g>
       <use xlink:href="#md7f8b830ec" x="99.837189" y="448.360851" style="stroke: #000000; stroke-width: 0.8"/>
      </g>
     </g>
     <g id="text_8">
      <!-- $\mathdefault{0.2}$ -->
      <g transform="translate(57.29375 458.738599)scale(0.3 -0.3)">
       <use xlink:href="#CMR17-30" transform="scale(0.996264)"/>
       <use xlink:href="#CMMI12-3a" transform="translate(45.690477 0)scale(0.996264)"/>
       <use xlink:href="#CMR17-32" transform="translate(72.787654 0)scale(0.996264)"/>
      </g>
     </g>
    </g>
    <g id="ytick_3">
     <g id="line2d_15">
      <path d="M 99.837189 344.558298 
L 825.237189 344.558298 
" clip-path="url(#p1893867ce1)" style="fill: none; stroke: #b0b0b0; stroke-width: 0.8; stroke-linecap: square"/>
     </g>
     <g id="line2d_16">
      <g>
       <use xlink:href="#md7f8b830ec" x="99.837189" y="344.558298" style="stroke: #000000; stroke-width: 0.8"/>
      </g>
     </g>
     <g id="text_9">
      <!-- $\mathdefault{0.4}$ -->
      <g transform="translate(57.29375 354.936045)scale(0.3 -0.3)">
       <use xlink:href="#CMR17-30" transform="scale(0.996264)"/>
       <use xlink:href="#CMMI12-3a" transform="translate(45.690477 0)scale(0.996264)"/>
       <use xlink:href="#CMR17-34" transform="translate(72.787654 0)scale(0.996264)"/>
      </g>
     </g>
    </g>
    <g id="ytick_4">
     <g id="line2d_17">
      <path d="M 99.837189 240.755745 
L 825.237189 240.755745 
" clip-path="url(#p1893867ce1)" style="fill: none; stroke: #b0b0b0; stroke-width: 0.8; stroke-linecap: square"/>
     </g>
     <g id="line2d_18">
      <g>
       <use xlink:href="#md7f8b830ec" x="99.837189" y="240.755745" style="stroke: #000000; stroke-width: 0.8"/>
      </g>
     </g>
     <g id="text_10">
      <!-- $\mathdefault{0.6}$ -->
      <g transform="translate(57.29375 251.133492)scale(0.3 -0.3)">
       <defs>
        <path id="CMR17-36" d="M 678 2176 
C 678 3690 1395 4032 1811 4032 
C 1946 4032 2272 4009 2400 3776 
C 2298 3776 2106 3776 2106 3553 
C 2106 3381 2246 3323 2336 3323 
C 2394 3323 2566 3348 2566 3560 
C 2566 3954 2246 4179 1805 4179 
C 1043 4179 243 3390 243 1984 
C 243 253 966 -128 1478 -128 
C 2099 -128 2688 427 2688 1283 
C 2688 2081 2170 2662 1517 2662 
C 1126 2662 838 2407 678 1960 
L 678 2176 
z
M 1478 25 
C 691 25 691 1200 691 1436 
C 691 1896 909 2560 1504 2560 
C 1613 2560 1926 2560 2138 2120 
C 2253 1870 2253 1609 2253 1289 
C 2253 944 2253 690 2118 434 
C 1978 171 1773 25 1478 25 
z
" transform="scale(0.015625)"/>
       </defs>
       <use xlink:href="#CMR17-30" transform="scale(0.996264)"/>
       <use xlink:href="#CMMI12-3a" transform="translate(45.690477 0)scale(0.996264)"/>
       <use xlink:href="#CMR17-36" transform="translate(72.787654 0)scale(0.996264)"/>
      </g>
     </g>
    </g>
    <g id="ytick_5">
     <g id="line2d_19">
      <path d="M 99.837189 136.953191 
L 825.237189 136.953191 
" clip-path="url(#p1893867ce1)" style="fill: none; stroke: #b0b0b0; stroke-width: 0.8; stroke-linecap: square"/>
     </g>
     <g id="line2d_20">
      <g>
       <use xlink:href="#md7f8b830ec" x="99.837189" y="136.953191" style="stroke: #000000; stroke-width: 0.8"/>
      </g>
     </g>
     <g id="text_11">
      <!-- $\mathdefault{0.8}$ -->
      <g transform="translate(57.29375 147.330939)scale(0.3 -0.3)">
       <defs>
        <path id="CMR17-38" d="M 1741 2264 
C 2144 2467 2554 2773 2554 3263 
C 2554 3841 1990 4179 1472 4179 
C 890 4179 378 3759 378 3180 
C 378 3021 416 2747 666 2505 
C 730 2442 998 2251 1171 2130 
C 883 1983 211 1634 211 934 
C 211 279 838 -128 1459 -128 
C 2144 -128 2720 362 2720 1010 
C 2720 1590 2330 1857 2074 2029 
L 1741 2264 
z
M 902 2822 
C 851 2854 595 3051 595 3351 
C 595 3739 998 4032 1459 4032 
C 1965 4032 2336 3676 2336 3262 
C 2336 2669 1670 2331 1638 2331 
C 1632 2331 1626 2331 1574 2370 
L 902 2822 
z
M 2080 1519 
C 2176 1449 2483 1240 2483 851 
C 2483 381 2010 25 1472 25 
C 890 25 448 438 448 940 
C 448 1443 838 1862 1280 2060 
L 2080 1519 
z
" transform="scale(0.015625)"/>
       </defs>
       <use xlink:href="#CMR17-30" transform="scale(0.996264)"/>
       <use xlink:href="#CMMI12-3a" transform="translate(45.690477 0)scale(0.996264)"/>
       <use xlink:href="#CMR17-38" transform="translate(72.787654 0)scale(0.996264)"/>
      </g>
     </g>
    </g>
    <g id="ytick_6">
     <g id="line2d_21">
      <path d="M 99.837189 33.150638 
L 825.237189 33.150638 
" clip-path="url(#p1893867ce1)" style="fill: none; stroke: #b0b0b0; stroke-width: 0.8; stroke-linecap: square"/>
     </g>
     <g id="line2d_22">
      <g>
       <use xlink:href="#md7f8b830ec" x="99.837189" y="33.150638" style="stroke: #000000; stroke-width: 0.8"/>
      </g>
     </g>
     <g id="text_12">
      <!-- $\mathdefault{1.0}$ -->
      <g transform="translate(57.29375 43.528386)scale(0.3 -0.3)">
       <use xlink:href="#CMR17-31" transform="scale(0.996264)"/>
       <use xlink:href="#CMMI12-3a" transform="translate(45.690477 0)scale(0.996264)"/>
       <use xlink:href="#CMR17-30" transform="translate(72.787654 0)scale(0.996264)"/>
      </g>
     </g>
    </g>
    <g id="text_13">
     <!-- $\frac{M}{M_\infty}, \; -$ -->
     <g transform="translate(37.608171 359.295866)rotate(-90)scale(0.35 -0.35)">
      <defs>
       <path id="CMMI12-4d" d="M 5811 3886 
C 5869 4103 5882 4167 6336 4167 
C 6458 4167 6515 4167 6515 4288 
C 6515 4352 6470 4352 6349 4352 
L 5581 4352 
C 5421 4352 5414 4346 5344 4243 
L 3008 562 
L 2528 4211 
C 2509 4352 2502 4352 2336 4352 
L 1542 4352 
C 1421 4352 1363 4352 1363 4231 
C 1363 4167 1421 4167 1517 4167 
C 1907 4167 1907 4116 1907 4046 
C 1907 4034 1907 3995 1882 3899 
L 1062 634 
C 986 327 838 186 410 186 
C 390 186 314 186 314 73 
C 314 0 371 0 397 0 
C 525 0 851 0 979 0 
L 1286 0 
C 1376 0 1485 0 1574 0 
C 1619 0 1690 0 1690 122 
C 1690 180 1626 186 1600 186 
C 1389 186 1184 224 1184 454 
C 1184 518 1184 524 1210 613 
L 2093 4129 
L 2099 4129 
L 2630 172 
C 2650 19 2656 0 2714 0 
C 2784 0 2816 51 2848 109 
L 5421 4161 
L 5427 4161 
L 4499 473 
C 4442 250 4429 186 3981 186 
C 3859 186 3795 186 3795 70 
C 3795 0 3853 0 3891 0 
C 4000 0 4128 0 4237 0 
L 4992 0 
C 5101 0 5235 0 5344 0 
C 5395 0 5466 0 5466 122 
C 5466 186 5408 186 5312 186 
C 4922 186 4922 234 4922 294 
C 4922 301 4922 345 4934 396 
L 5811 3886 
z
" transform="scale(0.015625)"/>
       <path id="CMSY10-31" d="M 3251 1730 
C 2906 2166 2829 2262 2630 2422 
C 2272 2710 1914 2825 1587 2825 
C 838 2825 352 2122 352 1374 
C 352 639 826 -70 1562 -70 
C 2298 -70 2829 511 3142 1022 
C 3488 588 3565 492 3763 332 
C 4122 45 4480 -70 4806 -70 
C 5555 -70 6042 633 6042 1380 
C 6042 2115 5568 2825 4832 2825 
C 4096 2825 3565 2242 3251 1730 
z
M 3418 1514 
C 3680 1975 4154 2620 4877 2620 
C 5555 2620 5901 1955 5901 1380 
C 5901 753 5472 236 4909 236 
C 4538 236 4250 505 4115 638 
C 3955 811 3808 1009 3418 1514 
z
M 2976 1240 
C 2714 780 2240 134 1517 134 
C 838 134 493 799 493 1374 
C 493 2000 922 2518 1485 2518 
C 1856 2518 2144 2249 2278 2115 
C 2438 1943 2586 1744 2976 1240 
z
" transform="scale(0.015625)"/>
       <path id="CMSY10-0" d="M 4218 1472 
C 4326 1472 4442 1472 4442 1600 
C 4442 1728 4326 1728 4218 1728 
L 755 1728 
C 646 1728 531 1728 531 1600 
C 531 1472 646 1472 755 1472 
L 4218 1472 
z
" transform="scale(0.015625)"/>
      </defs>
      <use xlink:href="#CMMI12-4d" transform="translate(21.513426 39.226102)scale(0.697382)"/>
      <use xlink:href="#CMMI12-4d" transform="translate(0 -34.355253)scale(0.697382)"/>
      <use xlink:href="#CMSY10-31" transform="translate(66.061109 -44.815949)scale(0.498132)"/>
      <use xlink:href="#CMMI12-3b" transform="translate(117.568092 0)scale(0.996264)"/>
      <use xlink:href="#CMSY10-0" transform="translate(188.943683 0)scale(0.996264)"/>
      <path d="M 0 22.914133 
L 116.372578 22.914133 
L 116.372578 26.899083 
L 0 26.899083 
L 0 22.914133 
z
"/>
     </g>
    </g>
   </g>
   <g id="line2d_23">
    <path d="M 113.270523 47.682826 
L 176.921529 47.727839 
L 178.100261 51.498394 
L 179.268725 73.236363 
L 180.437189 143.622437 
L 181.634755 201.74208 
L 182.832321 252.707931 
L 184.029887 260.003818 
L 185.227453 265.982604 
L 186.425019 263.9785 
L 187.622584 263.451876 
L 188.82015 263.626526 
L 190.017716 265.27993 
L 191.215282 264.52575 
L 192.412848 264.412738 
L 193.610414 264.070441 
L 196.005545 264.031291 
L 197.203111 264.258275 
L 198.400677 264.294726 
L 199.598243 264.524046 
L 200.795809 264.542288 
L 201.993375 264.730033 
L 215.166599 265.32844 
L 222.351995 265.39282 
L 364.205329 264.0507 
L 384.071936 263.870288 
L 437.696419 263.501915 
L 438.827454 262.049126 
L 439.958488 326.482942 
L 440.783283 426.38824 
L 441.608079 422.300626 
L 444.082465 415.131073 
L 446.556851 410.003579 
L 448.206442 407.478111 
L 449.856032 405.562066 
L 451.505623 403.947929 
L 453.155214 402.613417 
L 454.804804 401.560637 
L 457.279191 400.238001 
L 462.227963 398.103458 
L 467.176735 396.463019 
L 471.300712 395.124684 
L 473.775098 394.178194 
L 475.424688 393.397606 
L 477.082726 392.298056 
L 478.930327 390.787003 
L 479.968268 389.876191 
L 482.319609 387.274323 
L 483.645481 385.490375 
L 485.08459 383.241197 
L 488.351088 377.768301 
L 492.213011 372.160321 
L 494.402105 369.251238 
L 496.784831 366.671201 
L 499.378255 364.50567 
L 502.198217 363.145335 
L 505.267159 362.315357 
L 508.602054 362.147428 
L 512.225875 362.74371 
L 516.157554 363.651065 
L 520.416405 364.474584 
L 529.979269 366.123048 
L 564.686344 374.235149 
L 582.501924 377.951563 
L 588.44045 378.952073 
L 600.317503 380.513426 
L 612.194557 382.660963 
L 618.133083 383.782173 
L 624.07161 385.130228 
L 630.010136 352.720471 
L 638.40597 234.084676 
L 646.801803 218.981011 
L 655.197636 211.151513 
L 663.59347 209.862867 
L 671.989303 211.911338 
L 680.385136 213.486066 
L 697.176803 216.24233 
L 705.572636 217.405002 
L 713.96847 218.303588 
L 739.15597 220.226321 
L 747.551803 221.011817 
L 797.926803 224.640468 
L 823.114303 225.96652 
L 831.510136 226.273365 
L 831.510136 226.273365 
" clip-path="url(#p1893867ce1)" style="fill: none; stroke: #ff0000; stroke-width: 3; stroke-linecap: square"/>
   </g>
   <g id="patch_3">
    <path d="M 99.837189 617.04 
L 99.837189 7.2 
" style="fill: none; stroke: #000000; stroke-width: 0.8; stroke-linejoin: miter; stroke-linecap: square"/>
   </g>
   <g id="patch_4">
    <path d="M 825.237189 617.04 
L 825.237189 7.2 
" style="fill: none; stroke: #000000; stroke-width: 0.8; stroke-linejoin: miter; stroke-linecap: square"/>
   </g>
   <g id="patch_5">
    <path d="M 99.837189 617.04 
L 825.237189 617.04 
" style="fill: none; stroke: #000000; stroke-width: 0.8; stroke-linejoin: miter; stroke-linecap: square"/>
   </g>
   <g id="patch_6">
    <path d="M 99.837189 7.2 
L 825.237189 7.2 
" style="fill: none; stroke: #000000; stroke-width: 0.8; stroke-linejoin: miter; stroke-linecap: square"/>
   </g>
   <g id="legend_1">
    <g id="patch_7">
     <path d="M 668.195203 132.764702 
L 800.737189 132.764702 
Q 807.737189 132.764702 807.737189 125.764702 
L 807.737189 31.7 
Q 807.737189 24.7 800.737189 24.7 
L 668.195203 24.7 
Q 661.195203 24.7 661.195203 31.7 
L 661.195203 125.764702 
Q 661.195203 132.764702 668.195203 132.764702 
z
" style="fill: #ffffff; stroke: #cccccc; stroke-linejoin: miter"/>
    </g>
    <g id="patch_8">
     <path d="M 675.195203 63.2 
L 745.195203 63.2 
L 745.195203 38.7 
L 675.195203 38.7 
z
" style="fill: #99ccff; fill-opacity: 0.7"/>
    </g>
    <g id="text_14">
     <!-- $\sigma$ -->
     <g transform="translate(773.195203 63.2)scale(0.35 -0.35)">
      <defs>
       <path id="CMMI12-1b" d="M 3251 2408 
C 3334 2408 3546 2408 3546 2612 
C 3546 2752 3424 2752 3309 2752 
L 1894 2752 
C 934 2752 243 1686 243 932 
C 243 390 595 -64 1171 -64 
C 1926 -64 2752 747 2752 1705 
C 2752 1954 2694 2196 2541 2408 
L 3251 2408 
z
M 1178 64 
C 851 64 614 313 614 754 
C 614 1137 845 2408 1786 2408 
C 2061 2408 2368 2274 2368 1781 
C 2368 1558 2266 1021 2042 652 
C 1811 275 1466 64 1178 64 
z
" transform="scale(0.015625)"/>
      </defs>
      <use xlink:href="#CMMI12-1b" transform="scale(0.996264)"/>
     </g>
    </g>
    <g id="line2d_24">
     <path d="M 675.195203 99.732351 
L 710.195203 99.732351 
L 745.195203 99.732351 
" style="fill: none; stroke: #ff0000; stroke-width: 3; stroke-linecap: square"/>
    </g>
    <g id="text_15">
     <!-- $\mu$ -->
     <g transform="translate(773.195203 111.982351)scale(0.35 -0.35)">
      <defs>
       <path id="CMMI12-16" d="M 922 140 
C 1082 -6 1318 -64 1536 -64 
C 1946 -64 2227 208 2374 405 
C 2438 69 2707 -64 2931 -64 
C 3123 -64 3277 50 3392 277 
C 3494 493 3584 879 3584 903 
C 3584 935 3558 960 3520 960 
C 3462 960 3456 928 3430 834 
C 3334 461 3213 64 2950 64 
C 2765 64 2752 229 2752 358 
C 2752 504 2810 735 2854 926 
L 3034 1615 
C 3059 1737 3130 2023 3162 2139 
C 3200 2292 3270 2567 3270 2592 
C 3270 2688 3194 2752 3098 2752 
C 3040 2752 2906 2726 2854 2535 
L 2406 760 
C 2374 632 2374 619 2291 517 
C 2214 409 1965 64 1562 64 
C 1203 64 1088 326 1088 625 
C 1088 811 1146 1034 1171 1143 
L 1459 2293 
C 1491 2414 1542 2618 1542 2657 
C 1542 2759 1459 2816 1376 2816 
C 1318 2816 1178 2797 1126 2592 
L 198 -1107 
C 192 -1139 179 -1177 179 -1216 
C 179 -1312 256 -1376 352 -1376 
C 538 -1376 576 -1228 621 -1050 
L 922 140 
z
" transform="scale(0.015625)"/>
      </defs>
      <use xlink:href="#CMMI12-16" transform="scale(0.996264)"/>
     </g>
    </g>
   </g>
  </g>
 </g>
 <defs>
  <clipPath id="p1893867ce1">
   <rect x="99.837189" y="7.2" width="725.4" height="609.84"/>
  </clipPath>
 </defs>
</svg>
