<?xml version="1.0" encoding="utf-8" standalone="no"?>
<!DOCTYPE svg PUBLIC "-//W3C//DTD SVG 1.1//EN"
  "http://www.w3.org/Graphics/SVG/1.1/DTD/svg11.dtd">
<svg xmlns:xlink="http://www.w3.org/1999/xlink" width="868.00106pt" height="703.183796pt" viewBox="0 0 868.00106 703.183796" xmlns="http://www.w3.org/2000/svg" version="1.1">
 <metadata>
  <rdf:RDF xmlns:dc="http://purl.org/dc/elements/1.1/" xmlns:cc="http://creativecommons.org/ns#" xmlns:rdf="http://www.w3.org/1999/02/22-rdf-syntax-ns#">
   <cc:Work>
    <dc:type rdf:resource="http://purl.org/dc/dcmitype/StillImage"/>
    <dc:date>2025-03-26T12:44:09.295066</dc:date>
    <dc:format>image/svg+xml</dc:format>
    <dc:creator>
     <cc:Agent>
      <dc:title>Matplotlib v3.7.1, https://matplotlib.org/</dc:title>
     </cc:Agent>
    </dc:creator>
   </cc:Work>
  </rdf:RDF>
 </metadata>
 <defs>
  <style type="text/css">*{stroke-linejoin: round; stroke-linecap: butt}</style>
 </defs>
 <g id="figure_1">
  <g id="patch_1">
   <path d="M 0 703.183796 
L 868.00106 703.183796 
L 868.00106 0 
L 0 0 
z
" style="fill: #ffffff"/>
  </g>
  <g id="axes_1">
   <g id="patch_2">
    <path d="M 135.40106 627.417748 
L 860.80106 627.417748 
L 860.80106 17.577748 
L 135.40106 17.577748 
z
" style="fill: #ffffff"/>
   </g>
   <g id="PolyCollection_1">
    <path d="M 148.834393 559.657748 
L 148.834393 559.657748 
L 167.091556 559.657748 
L 180.419404 559.657748 
L 190.148976 559.657748 
L 197.251961 559.657748 
L 202.437713 559.657748 
L 206.224103 559.657748 
L 208.989224 559.657748 
L 211.009132 559.657748 
L 212.4854 559.657748 
L 213.664132 559.657748 
L 214.832596 559.657748 
L 216.00106 559.657748 
L 217.198626 559.657748 
L 218.396192 559.657748 
L 219.593758 559.657748 
L 220.791323 559.657748 
L 221.988889 559.657748 
L 223.186455 559.657748 
L 224.384021 559.657748 
L 225.581587 559.657748 
L 226.779153 559.657748 
L 227.976718 559.657748 
L 229.174284 559.657748 
L 230.37185 559.657748 
L 231.569416 559.657748 
L 232.766982 559.657748 
L 233.964548 559.657748 
L 235.162114 559.657748 
L 236.359679 559.657748 
L 237.557245 559.657748 
L 238.754811 559.657748 
L 239.952377 559.657748 
L 241.149943 559.657748 
L 242.347509 559.657748 
L 243.545075 559.657748 
L 244.74264 559.657748 
L 245.940206 559.657748 
L 247.137772 559.657748 
L 248.335338 559.657748 
L 249.532904 559.657748 
L 250.73047 559.657748 
L 251.928035 559.657748 
L 253.125601 559.657748 
L 254.323167 559.657748 
L 255.520733 559.657748 
L 256.718299 559.657748 
L 257.915866 559.657748 
L 259.143602 559.657748 
L 260.415204 559.657748 
L 261.732564 559.657748 
L 263.098204 559.657748 
L 264.514706 559.657748 
L 265.983555 559.657748 
L 267.506519 559.657748 
L 269.085661 559.657748 
L 270.723246 559.657748 
L 272.420705 559.657748 
L 274.179812 559.657748 
L 276.003041 559.657748 
L 277.893724 559.657748 
L 279.855619 559.657748 
L 281.887838 559.657748 
L 283.994951 559.657748 
L 286.180796 559.657748 
L 288.445503 559.657748 
L 290.794897 559.657748 
L 293.230282 559.657748 
L 295.754546 559.657748 
L 298.372767 559.657748 
L 301.087253 559.657748 
L 303.901395 559.657748 
L 306.819054 559.657748 
L 309.844177 559.657748 
L 312.980671 559.657748 
L 316.232504 559.657748 
L 319.603974 559.657748 
L 323.100106 559.657748 
L 326.724795 559.657748 
L 330.482783 559.657748 
L 334.379387 559.657748 
L 338.419659 559.657748 
L 342.608436 559.657748 
L 346.951477 559.657748 
L 351.45464 559.657748 
L 356.1238 559.657748 
L 360.964856 559.657748 
L 365.958678 559.657748 
L 371.0965 559.657748 
L 376.423458 559.657748 
L 381.947015 559.657748 
L 387.674039 559.657748 
L 393.612158 559.657748 
L 399.7692 559.657748 
L 406.153132 559.657748 
L 412.772406 559.657748 
L 419.635807 559.657748 
L 426.752215 559.657748 
L 434.130915 559.657748 
L 441.781638 559.657748 
L 449.334496 559.657748 
L 454.971416 559.657748 
L 458.985672 559.657748 
L 461.844867 559.657748 
L 463.881803 559.657748 
L 465.333316 559.657748 
L 466.474083 559.657748 
L 467.605118 559.657748 
L 468.736152 559.657748 
L 469.867187 559.657748 
L 470.998221 559.657748 
L 472.129255 559.657748 
L 473.26029 559.657748 
L 474.391324 559.657748 
L 475.522359 559.61367 
L 476.347154 558.830146 
L 477.171949 557.359859 
L 477.996745 555.427604 
L 478.82154 553.41059 
L 479.646335 551.934201 
L 480.471131 551.099516 
L 481.295926 550.638141 
L 482.120721 550.42561 
L 482.945517 550.356828 
L 483.770312 550.378959 
L 484.595108 550.418912 
L 485.419903 550.470168 
L 486.244698 550.517658 
L 487.069494 550.570694 
L 487.894289 550.615167 
L 488.719084 550.670815 
L 489.54388 550.73481 
L 490.368675 550.80757 
L 491.19347 550.885496 
L 492.018266 550.964334 
L 492.843061 551.040386 
L 493.667856 551.119379 
L 494.492652 551.207222 
L 495.317447 551.304979 
L 496.142243 551.397081 
L 496.967038 551.481341 
L 497.791833 551.562508 
L 498.616629 551.634562 
L 499.441424 551.700236 
L 500.266219 551.762718 
L 501.091015 551.821632 
L 501.91581 551.875727 
L 502.740605 551.926748 
L 503.565401 551.974819 
L 504.390196 552.028607 
L 505.214991 552.08641 
L 506.039787 552.147216 
L 506.864582 552.209848 
L 507.689378 552.273676 
L 508.514173 552.339286 
L 509.338968 552.413549 
L 510.163764 552.495772 
L 510.988559 552.586998 
L 511.813354 552.692225 
L 512.646596 552.806828 
L 513.53156 552.9431 
L 514.494197 553.104149 
L 515.532138 553.286667 
L 516.659653 553.517606 
L 517.883479 553.761839 
L 519.209351 554.064109 
L 520.648461 554.39628 
L 522.213559 554.766093 
L 523.914959 555.141965 
L 525.764855 555.485556 
L 527.776881 555.806857 
L 529.965976 556.089546 
L 532.348702 556.318504 
L 534.942126 556.493009 
L 537.762087 556.615851 
L 540.83103 556.69991 
L 544.165925 556.708444 
L 547.789746 556.63205 
L 551.721424 556.4801 
L 555.980275 556.25925 
L 560.58374 555.951596 
L 565.543139 555.593431 
L 570.861092 555.065592 
L 576.520639 554.383442 
L 582.434635 553.553254 
L 588.373162 552.713479 
L 594.311688 551.951133 
L 600.250215 551.225613 
L 606.188741 550.416491 
L 612.127268 549.488536 
L 618.065794 548.594712 
L 624.004321 547.644692 
L 629.942848 546.708434 
L 635.881374 545.674994 
L 641.819901 544.783288 
L 647.758427 543.941085 
L 653.696954 543.339342 
L 659.63548 542.916317 
L 665.574007 542.845138 
L 673.96984 543.275385 
L 682.365674 543.422925 
L 690.761507 543.55459 
L 699.15734 543.702167 
L 707.553174 543.871389 
L 715.949007 544.020041 
L 724.34484 544.126366 
L 732.740674 544.227871 
L 741.136507 544.334337 
L 749.53234 544.43672 
L 757.928174 544.53336 
L 766.324007 544.618787 
L 774.71984 544.694372 
L 783.115674 544.774705 
L 791.511507 544.842257 
L 799.90734 544.916752 
L 808.303174 544.989005 
L 816.699007 545.061427 
L 825.09484 545.133748 
L 833.490674 545.203812 
L 841.886507 545.264428 
L 850.28234 545.326576 
L 858.678174 545.374819 
L 867.074007 545.402059 
L 867.074007 570.279575 
L 867.074007 570.279575 
L 858.678174 570.29643 
L 850.28234 570.323 
L 841.886507 570.342006 
L 833.490674 570.372025 
L 825.09484 570.407076 
L 816.699007 570.443448 
L 808.303174 570.486841 
L 799.90734 570.529777 
L 791.511507 570.576057 
L 783.115674 570.633532 
L 774.71984 570.672056 
L 766.324007 570.718387 
L 757.928174 570.767936 
L 749.53234 570.822131 
L 741.136507 570.872918 
L 732.740674 570.92117 
L 724.34484 570.969625 
L 715.949007 571.017031 
L 707.553174 571.041284 
L 699.15734 571.113309 
L 690.761507 571.174608 
L 682.365674 571.157016 
L 673.96984 571.036605 
L 665.574007 570.705922 
L 659.63548 570.654868 
L 653.696954 570.585559 
L 647.758427 570.159003 
L 641.819901 569.638308 
L 635.881374 569.07961 
L 629.942848 568.316857 
L 624.004321 567.612048 
L 618.065794 566.914663 
L 612.127268 566.236443 
L 606.188741 565.624139 
L 600.250215 565.08421 
L 594.311688 564.596296 
L 588.373162 564.077014 
L 582.434635 563.454074 
L 576.520639 562.825034 
L 570.861092 562.303095 
L 565.543139 561.892663 
L 560.58374 561.608663 
L 555.980275 561.355589 
L 551.721424 561.17357 
L 547.789746 561.045154 
L 544.165925 560.939159 
L 540.83103 560.859149 
L 537.762087 560.802874 
L 534.942126 560.745297 
L 532.348702 560.670906 
L 529.965976 560.59607 
L 527.776881 560.532725 
L 525.764855 560.47946 
L 523.914959 560.417461 
L 522.213559 560.339179 
L 520.648461 560.250024 
L 519.209351 560.17504 
L 517.883479 560.12552 
L 516.659653 560.107059 
L 515.532138 560.071099 
L 514.494197 560.053949 
L 513.53156 560.028683 
L 512.646596 559.999096 
L 511.813354 559.976637 
L 510.988559 559.946416 
L 510.163764 559.937681 
L 509.338968 559.92568 
L 508.514173 559.909692 
L 507.689378 559.89881 
L 506.864582 559.886576 
L 506.039787 559.873842 
L 505.214991 559.860777 
L 504.390196 559.846689 
L 503.565401 559.831036 
L 502.740605 559.814258 
L 501.91581 559.80221 
L 501.091015 559.793809 
L 500.266219 559.782002 
L 499.441424 559.768646 
L 498.616629 559.763318 
L 497.791833 559.766674 
L 496.967038 559.77501 
L 496.142243 559.784916 
L 495.317447 559.792708 
L 494.492652 559.804458 
L 493.667856 559.825284 
L 492.843061 559.841693 
L 492.018266 559.850482 
L 491.19347 559.857859 
L 490.368675 559.869414 
L 489.54388 559.875216 
L 488.719084 559.882473 
L 487.894289 559.87665 
L 487.069494 559.874581 
L 486.244698 559.853646 
L 485.419903 559.865176 
L 484.595108 559.890657 
L 483.770312 559.948812 
L 482.945517 560.036229 
L 482.120721 560.174418 
L 481.295926 560.396282 
L 480.471131 560.61418 
L 479.646335 560.712816 
L 478.82154 560.54413 
L 477.996745 560.188542 
L 477.171949 560.022885 
L 476.347154 559.901558 
L 475.522359 559.672443 
L 474.391324 559.657748 
L 473.26029 559.657748 
L 472.129255 559.657748 
L 470.998221 559.657748 
L 469.867187 559.657748 
L 468.736152 559.657748 
L 467.605118 559.657748 
L 466.474083 559.657748 
L 465.333316 559.657748 
L 463.881803 559.657748 
L 461.844867 559.657748 
L 458.985672 559.657748 
L 454.971416 559.657748 
L 449.334496 559.657748 
L 441.781638 559.657748 
L 434.130915 559.657748 
L 426.752215 559.657748 
L 419.635807 559.657748 
L 412.772406 559.657748 
L 406.153132 559.657748 
L 399.7692 559.657748 
L 393.612158 559.657748 
L 387.674039 559.657748 
L 381.947015 559.657748 
L 376.423458 559.657748 
L 371.0965 559.657748 
L 365.958678 559.657748 
L 360.964856 559.657748 
L 356.1238 559.657748 
L 351.45464 559.657748 
L 346.951477 559.657748 
L 342.608436 559.657748 
L 338.419659 559.657748 
L 334.379387 559.657748 
L 330.482783 559.657748 
L 326.724795 559.657748 
L 323.100106 559.657748 
L 319.603974 559.657748 
L 316.232504 559.657748 
L 312.980671 559.657748 
L 309.844177 559.657748 
L 306.819054 559.657748 
L 303.901395 559.657748 
L 301.087253 559.657748 
L 298.372767 559.657748 
L 295.754546 559.657748 
L 293.230282 559.657748 
L 290.794897 559.657748 
L 288.445503 559.657748 
L 286.180796 559.657748 
L 283.994951 559.657748 
L 281.887838 559.657748 
L 279.855619 559.657748 
L 277.893724 559.657748 
L 276.003041 559.657748 
L 274.179812 559.657748 
L 272.420705 559.657748 
L 270.723246 559.657748 
L 269.085661 559.657748 
L 267.506519 559.657748 
L 265.983555 559.657748 
L 264.514706 559.657748 
L 263.098204 559.657748 
L 261.732564 559.657748 
L 260.415204 559.657748 
L 259.143602 559.657748 
L 257.915866 559.657748 
L 256.718299 559.657748 
L 255.520733 559.657748 
L 254.323167 559.657748 
L 253.125601 559.657748 
L 251.928035 559.657748 
L 250.73047 559.657748 
L 249.532904 559.657748 
L 248.335338 559.657748 
L 247.137772 559.657748 
L 245.940206 559.657748 
L 244.74264 559.657748 
L 243.545075 559.657748 
L 242.347509 559.657748 
L 241.149943 559.657748 
L 239.952377 559.657748 
L 238.754811 559.657748 
L 237.557245 559.657748 
L 236.359679 559.657748 
L 235.162114 559.657748 
L 233.964548 559.657748 
L 232.766982 559.657748 
L 231.569416 559.657748 
L 230.37185 559.657748 
L 229.174284 559.657748 
L 227.976718 559.657748 
L 226.779153 559.657748 
L 225.581587 559.657748 
L 224.384021 559.657748 
L 223.186455 559.657748 
L 221.988889 559.657748 
L 220.791323 559.657748 
L 219.593758 559.657748 
L 218.396192 559.657748 
L 217.198626 559.657748 
L 216.00106 559.657748 
L 214.832596 559.657748 
L 213.664132 559.657748 
L 212.4854 559.657748 
L 211.009132 559.657748 
L 208.989224 559.657748 
L 206.224103 559.657748 
L 202.437713 559.657748 
L 197.251961 559.657748 
L 190.148976 559.657748 
L 180.419404 559.657748 
L 167.091556 559.657748 
L 148.834393 559.657748 
z
" clip-path="url(#pfc077b4a2a)" style="fill: #99ccff; fill-opacity: 0.7"/>
   </g>
   <g id="PolyCollection_2">
    <path d="M 148.834393 559.657748 
L 148.834393 559.657748 
L 167.091556 559.657748 
L 180.419404 559.657748 
L 190.148976 559.657748 
L 197.251961 559.657748 
L 202.437713 559.657748 
L 206.224103 559.657748 
L 208.989224 559.657748 
L 211.009132 559.657748 
L 212.4854 559.657748 
L 213.664132 559.657748 
L 214.832596 559.657748 
L 216.00106 559.657748 
L 217.198626 559.657748 
L 218.396192 559.657748 
L 219.593758 559.657748 
L 220.791323 559.657748 
L 221.988889 559.657748 
L 223.186455 559.657748 
L 224.384021 559.657748 
L 225.581587 559.657748 
L 226.779153 559.657748 
L 227.976718 559.657748 
L 229.174284 559.657748 
L 230.37185 559.657748 
L 231.569416 559.657748 
L 232.766982 559.657748 
L 233.964548 559.657748 
L 235.162114 559.657748 
L 236.359679 559.657748 
L 237.557245 559.657748 
L 238.754811 559.657748 
L 239.952377 559.657748 
L 241.149943 559.657748 
L 242.347509 559.657748 
L 243.545075 559.657748 
L 244.74264 559.657748 
L 245.940206 559.657748 
L 247.137772 559.657748 
L 248.335338 559.657748 
L 249.532904 559.657748 
L 250.73047 559.657748 
L 251.928035 559.657748 
L 253.125601 559.657748 
L 254.323167 559.657748 
L 255.520733 559.657748 
L 256.718299 559.657748 
L 257.915866 559.657748 
L 259.143602 559.657748 
L 260.415204 559.657748 
L 261.732564 559.657748 
L 263.098204 559.657748 
L 264.514706 559.657748 
L 265.983555 559.657748 
L 267.506519 559.657748 
L 269.085661 559.657747 
L 270.723246 559.657747 
L 272.420705 559.657747 
L 274.179812 559.657747 
L 276.003041 559.657747 
L 277.893724 559.657747 
L 279.855619 559.657747 
L 281.887838 559.657747 
L 283.994951 559.657747 
L 286.180796 559.657747 
L 288.445503 559.657747 
L 290.794897 559.657747 
L 293.230282 559.657747 
L 295.754546 559.657747 
L 298.372767 559.657747 
L 301.087253 559.657747 
L 303.901395 559.657747 
L 306.819054 559.657747 
L 309.844177 559.657747 
L 312.980671 559.657747 
L 316.232504 559.657747 
L 319.603974 559.657747 
L 323.100106 559.657747 
L 326.724795 559.657747 
L 330.482783 559.657747 
L 334.379387 559.657747 
L 338.419659 559.657747 
L 342.608436 559.657747 
L 346.951477 559.657747 
L 351.45464 559.657747 
L 356.1238 559.657747 
L 360.964856 559.657747 
L 365.958678 559.657747 
L 371.0965 559.657747 
L 376.423458 559.657747 
L 381.947015 559.657747 
L 387.674039 559.657747 
L 393.612158 559.657747 
L 399.7692 559.657746 
L 406.153132 559.657746 
L 412.772406 559.657746 
L 419.635807 559.657746 
L 426.752215 559.657746 
L 434.130915 559.657746 
L 441.781638 559.657746 
L 449.334496 559.657746 
L 454.971416 559.657745 
L 458.985672 559.657745 
L 461.844867 559.657745 
L 463.881803 559.657745 
L 465.333316 559.657745 
L 466.474083 559.657745 
L 467.605118 559.657745 
L 468.736152 559.657745 
L 469.867187 559.657745 
L 470.998221 559.657745 
L 472.129255 559.657745 
L 473.26029 559.657745 
L 474.391324 559.657743 
L 475.522359 559.236208 
L 476.347154 551.19257 
L 477.171949 533.486183 
L 477.996745 510.07953 
L 478.82154 482.870355 
L 479.646335 456.17542 
L 480.471131 432.175955 
L 481.295926 409.092628 
L 482.120721 389.741266 
L 482.945517 373.109115 
L 483.770312 358.749273 
L 484.595108 346.637926 
L 485.419903 335.783059 
L 486.244698 325.072859 
L 487.069494 315.628046 
L 487.894289 305.908619 
L 488.719084 297.342325 
L 489.54388 289.387079 
L 490.368675 283.086316 
L 491.19347 276.783205 
L 492.018266 271.032896 
L 492.843061 265.938359 
L 493.667856 261.195483 
L 494.492652 256.76364 
L 495.317447 252.580079 
L 496.142243 248.763499 
L 496.967038 245.693053 
L 497.791833 242.83408 
L 498.616629 240.139289 
L 499.441424 237.347528 
L 500.266219 234.835515 
L 501.091015 232.616378 
L 501.91581 230.635085 
L 502.740605 228.77412 
L 503.565401 226.977447 
L 504.390196 225.360686 
L 505.214991 223.827434 
L 506.039787 222.413821 
L 506.864582 220.964049 
L 507.689378 219.780569 
L 508.514173 218.339444 
L 509.338968 217.125479 
L 510.163764 215.92306 
L 510.988559 214.666091 
L 511.813354 213.364868 
L 512.646596 211.964403 
L 513.53156 210.545385 
L 514.494197 209.180266 
L 515.532138 207.752372 
L 516.659653 206.336606 
L 517.883479 204.839394 
L 519.209351 203.514307 
L 520.648461 202.332458 
L 522.213559 201.374194 
L 523.914959 200.651133 
L 525.764855 200.18542 
L 527.776881 200.154599 
L 529.965976 200.618366 
L 532.348702 201.672886 
L 534.942126 202.833174 
L 537.762087 204.818892 
L 540.83103 207.187292 
L 544.165925 208.857253 
L 547.789746 209.58081 
L 551.721424 209.304305 
L 555.980275 208.29096 
L 560.58374 206.807877 
L 565.543139 205.190483 
L 570.861092 203.460213 
L 576.520639 201.591385 
L 582.434635 199.497278 
L 588.373162 197.122533 
L 594.311688 194.002344 
L 600.250215 190.358813 
L 606.188741 186.079876 
L 612.127268 180.792135 
L 618.065794 175.292025 
L 624.004321 169.927805 
L 629.942848 165.344132 
L 635.881374 161.021836 
L 641.819901 155.48985 
L 647.758427 149.174082 
L 653.696954 142.27082 
L 659.63548 134.183292 
L 665.574007 130.052206 
L 673.96984 129.106103 
L 682.365674 128.533608 
L 690.761507 128.071746 
L 699.15734 127.668848 
L 707.553174 127.194119 
L 715.949007 126.713713 
L 724.34484 126.428037 
L 732.740674 126.174363 
L 741.136507 125.921407 
L 749.53234 125.72077 
L 757.928174 125.540333 
L 766.324007 125.372943 
L 774.71984 125.237127 
L 783.115674 125.07641 
L 791.511507 125.025491 
L 799.90734 124.897807 
L 808.303174 124.766545 
L 816.699007 124.624841 
L 825.09484 124.455244 
L 833.490674 124.283071 
L 841.886507 124.120418 
L 850.28234 123.929243 
L 858.678174 123.806389 
L 867.074007 123.728108 
L 867.074007 284.145213 
L 867.074007 284.145213 
L 858.678174 284.197095 
L 850.28234 284.275993 
L 841.886507 284.415087 
L 833.490674 284.522425 
L 825.09484 284.63686 
L 816.699007 284.745945 
L 808.303174 284.827593 
L 799.90734 284.900329 
L 791.511507 284.970236 
L 783.115674 284.965003 
L 774.71984 285.067511 
L 766.324007 285.141002 
L 757.928174 285.242882 
L 749.53234 285.355279 
L 741.136507 285.482561 
L 732.740674 285.655155 
L 724.34484 285.822531 
L 715.949007 286.017323 
L 707.553174 286.377575 
L 699.15734 286.621188 
L 690.761507 286.881081 
L 682.365674 287.337697 
L 673.96984 287.971435 
L 665.574007 288.988087 
L 659.63548 293.603285 
L 653.696954 302.755542 
L 647.758427 311.271403 
L 641.819901 319.163674 
L 635.881374 326.233673 
L 629.942848 331.980344 
L 624.004321 337.632517 
L 618.065794 343.927854 
L 612.127268 350.121373 
L 606.188741 356.043478 
L 600.250215 360.640193 
L 594.311688 364.216797 
L 588.373162 366.995587 
L 582.434635 368.648437 
L 576.520639 369.570589 
L 570.861092 369.751729 
L 565.543139 369.378219 
L 560.58374 368.573935 
L 555.980275 367.50205 
L 551.721424 366.013548 
L 547.789746 363.816049 
L 544.165925 360.844968 
L 540.83103 357.315491 
L 537.762087 353.508816 
L 534.942126 350.197586 
L 532.348702 347.874204 
L 529.965976 345.900977 
L 527.776881 344.767817 
L 525.764855 344.301477 
L 523.914959 344.397061 
L 522.213559 344.878478 
L 520.648461 345.720145 
L 519.209351 346.887758 
L 517.883479 348.304552 
L 516.659653 349.957174 
L 515.532138 351.598322 
L 514.494197 353.315367 
L 513.53156 354.983593 
L 512.646596 356.681636 
L 511.813354 358.339738 
L 510.988559 359.907028 
L 510.163764 361.504497 
L 509.338968 362.968697 
L 508.514173 364.418515 
L 507.689378 366.069195 
L 506.864582 367.471457 
L 506.039787 369.14466 
L 505.214991 370.754698 
L 504.390196 372.435671 
L 503.565401 374.142526 
L 502.740605 375.92957 
L 501.91581 377.942199 
L 501.091015 380.116426 
L 500.266219 382.544885 
L 499.441424 385.244834 
L 498.616629 388.320761 
L 497.791833 391.382027 
L 496.967038 394.66517 
L 496.142243 398.147255 
L 495.317447 402.358153 
L 494.492652 406.924056 
L 493.667856 411.59954 
L 492.843061 416.348593 
L 492.018266 421.20478 
L 491.19347 426.491278 
L 490.368675 432.118883 
L 489.54388 437.419634 
L 488.719084 443.919047 
L 487.894289 450.404054 
L 487.069494 457.623726 
L 486.244698 463.97525 
L 485.419903 471.163164 
L 484.595108 478.000862 
L 483.770312 485.486377 
L 482.945517 494.349298 
L 482.120721 503.940756 
L 481.295926 515.316884 
L 480.471131 526.750516 
L 479.646335 537.626057 
L 478.82154 547.816565 
L 477.996745 555.090029 
L 477.171949 559.891524 
L 476.347154 561.020435 
L 475.522359 559.756081 
L 474.391324 559.657751 
L 473.26029 559.657749 
L 472.129255 559.657749 
L 470.998221 559.657749 
L 469.867187 559.657749 
L 468.736152 559.657749 
L 467.605118 559.657749 
L 466.474083 559.657749 
L 465.333316 559.657749 
L 463.881803 559.657749 
L 461.844867 559.657749 
L 458.985672 559.657749 
L 454.971416 559.657749 
L 449.334496 559.657749 
L 441.781638 559.657749 
L 434.130915 559.657749 
L 426.752215 559.657749 
L 419.635807 559.657749 
L 412.772406 559.657748 
L 406.153132 559.657748 
L 399.7692 559.657748 
L 393.612158 559.657748 
L 387.674039 559.657748 
L 381.947015 559.657748 
L 376.423458 559.657748 
L 371.0965 559.657748 
L 365.958678 559.657748 
L 360.964856 559.657748 
L 356.1238 559.657748 
L 351.45464 559.657748 
L 346.951477 559.657748 
L 342.608436 559.657748 
L 338.419659 559.657748 
L 334.379387 559.657748 
L 330.482783 559.657748 
L 326.724795 559.657748 
L 323.100106 559.657748 
L 319.603974 559.657748 
L 316.232504 559.657748 
L 312.980671 559.657748 
L 309.844177 559.657748 
L 306.819054 559.657748 
L 303.901395 559.657748 
L 301.087253 559.657748 
L 298.372767 559.657748 
L 295.754546 559.657748 
L 293.230282 559.657748 
L 290.794897 559.657748 
L 288.445503 559.657748 
L 286.180796 559.657748 
L 283.994951 559.657748 
L 281.887838 559.657748 
L 279.855619 559.657748 
L 277.893724 559.657748 
L 276.003041 559.657748 
L 274.179812 559.657748 
L 272.420705 559.657748 
L 270.723246 559.657748 
L 269.085661 559.657748 
L 267.506519 559.657748 
L 265.983555 559.657748 
L 264.514706 559.657748 
L 263.098204 559.657748 
L 261.732564 559.657748 
L 260.415204 559.657748 
L 259.143602 559.657748 
L 257.915866 559.657748 
L 256.718299 559.657748 
L 255.520733 559.657748 
L 254.323167 559.657748 
L 253.125601 559.657748 
L 251.928035 559.657748 
L 250.73047 559.657748 
L 249.532904 559.657748 
L 248.335338 559.657748 
L 247.137772 559.657748 
L 245.940206 559.657748 
L 244.74264 559.657748 
L 243.545075 559.657748 
L 242.347509 559.657748 
L 241.149943 559.657748 
L 239.952377 559.657748 
L 238.754811 559.657748 
L 237.557245 559.657748 
L 236.359679 559.657748 
L 235.162114 559.657748 
L 233.964548 559.657748 
L 232.766982 559.657748 
L 231.569416 559.657748 
L 230.37185 559.657748 
L 229.174284 559.657748 
L 227.976718 559.657748 
L 226.779153 559.657748 
L 225.581587 559.657748 
L 224.384021 559.657748 
L 223.186455 559.657748 
L 221.988889 559.657748 
L 220.791323 559.657748 
L 219.593758 559.657748 
L 218.396192 559.657748 
L 217.198626 559.657748 
L 216.00106 559.657748 
L 214.832596 559.657748 
L 213.664132 559.657748 
L 212.4854 559.657748 
L 211.009132 559.657748 
L 208.989224 559.657748 
L 206.224103 559.657748 
L 202.437713 559.657748 
L 197.251961 559.657748 
L 190.148976 559.657748 
L 180.419404 559.657748 
L 167.091556 559.657748 
L 148.834393 559.657748 
z
" clip-path="url(#pfc077b4a2a)" style="fill: #008000; fill-opacity: 0.2"/>
   </g>
   <g id="PolyCollection_3">
    <path d="M 148.834393 559.657748 
L 148.834393 559.657748 
L 167.091556 559.657748 
L 180.419404 559.657748 
L 190.148976 559.657748 
L 197.251961 559.657748 
L 202.437713 559.657748 
L 206.224103 559.657748 
L 208.989224 559.657748 
L 211.009132 559.657748 
L 212.4854 559.657748 
L 213.664132 559.657748 
L 214.832596 559.657748 
L 216.00106 559.657748 
L 217.198626 559.657748 
L 218.396192 559.657748 
L 219.593758 559.657748 
L 220.791323 559.657748 
L 221.988889 559.657748 
L 223.186455 559.657748 
L 224.384021 559.657748 
L 225.581587 559.657748 
L 226.779153 559.657748 
L 227.976718 559.657748 
L 229.174284 559.657748 
L 230.37185 559.657748 
L 231.569416 559.657748 
L 232.766982 559.657748 
L 233.964548 559.657748 
L 235.162114 559.657748 
L 236.359679 559.657748 
L 237.557245 559.657748 
L 238.754811 559.657748 
L 239.952377 559.657748 
L 241.149943 559.657748 
L 242.347509 559.657748 
L 243.545075 559.657748 
L 244.74264 559.657748 
L 245.940206 559.657748 
L 247.137772 559.657748 
L 248.335338 559.657748 
L 249.532904 559.657748 
L 250.73047 559.657748 
L 251.928035 559.657748 
L 253.125601 559.657748 
L 254.323167 559.657748 
L 255.520733 559.657748 
L 256.718299 559.657748 
L 257.915866 559.657748 
L 259.143602 559.657748 
L 260.415204 559.657748 
L 261.732564 559.657748 
L 263.098204 559.657748 
L 264.514706 559.657748 
L 265.983555 559.657748 
L 267.506519 559.657748 
L 269.085661 559.657748 
L 270.723246 559.657748 
L 272.420705 559.657748 
L 274.179812 559.657748 
L 276.003041 559.657748 
L 277.893724 559.657748 
L 279.855619 559.657748 
L 281.887838 559.657748 
L 283.994951 559.657748 
L 286.180796 559.657748 
L 288.445503 559.657748 
L 290.794897 559.657748 
L 293.230282 559.657748 
L 295.754546 559.657748 
L 298.372767 559.657748 
L 301.087253 559.657748 
L 303.901395 559.657748 
L 306.819054 559.657748 
L 309.844177 559.657748 
L 312.980671 559.657748 
L 316.232504 559.657748 
L 319.603974 559.657748 
L 323.100106 559.657748 
L 326.724795 559.657748 
L 330.482783 559.657748 
L 334.379387 559.657748 
L 338.419659 559.657748 
L 342.608436 559.657748 
L 346.951477 559.657748 
L 351.45464 559.657748 
L 356.1238 559.657748 
L 360.964856 559.657748 
L 365.958678 559.657748 
L 371.0965 559.657748 
L 376.423458 559.657748 
L 381.947015 559.657748 
L 387.674039 559.657748 
L 393.612158 559.657748 
L 399.7692 559.657748 
L 406.153132 559.657748 
L 412.772406 559.657748 
L 419.635807 559.657748 
L 426.752215 559.657748 
L 434.130915 559.657748 
L 441.781638 559.657748 
L 449.334496 559.657748 
L 454.971416 559.657748 
L 458.985672 559.657748 
L 461.844867 559.657748 
L 463.881803 559.657748 
L 465.333316 559.657748 
L 466.474083 559.657748 
L 467.605118 559.657748 
L 468.736152 559.657748 
L 469.867187 559.657748 
L 470.998221 559.657748 
L 472.129255 559.657748 
L 473.26029 559.657748 
L 474.391324 559.657748 
L 475.522359 559.468168 
L 476.347154 555.154837 
L 477.171949 546.525514 
L 477.996745 533.763095 
L 478.82154 518.472454 
L 479.646335 503.955542 
L 480.471131 491.512984 
L 481.295926 480.113741 
L 482.120721 470.389384 
L 482.945517 461.782008 
L 483.770312 454.121157 
L 484.595108 447.603181 
L 485.419903 441.667346 
L 486.244698 435.740475 
L 487.069494 430.241284 
L 487.894289 424.732333 
L 488.719084 419.761942 
L 489.54388 415.088841 
L 490.368675 411.248116 
L 491.19347 407.42189 
L 492.018266 403.894039 
L 492.843061 400.761612 
L 493.667856 397.816097 
L 494.492652 395.056581 
L 495.317447 392.374714 
L 496.142243 389.917871 
L 496.967038 387.950297 
L 497.791833 386.131271 
L 498.616629 384.441693 
L 499.441424 382.7225 
L 500.266219 381.225418 
L 501.091015 379.931084 
L 501.91581 378.818178 
L 502.740605 377.822253 
L 503.565401 376.91816 
L 504.390196 376.110357 
L 505.214991 375.361818 
L 506.039787 374.70742 
L 506.864582 374.04427 
L 507.689378 373.556819 
L 508.514173 373.025312 
L 509.338968 372.591942 
L 510.163764 372.185973 
L 510.988559 371.721812 
L 511.813354 371.277484 
L 512.646596 370.800021 
L 513.53156 370.304857 
L 514.494197 369.853113 
L 515.532138 369.390227 
L 516.659653 368.988387 
L 517.883479 368.552418 
L 519.209351 368.396096 
L 520.648461 368.357732 
L 522.213559 368.480815 
L 523.914959 368.752694 
L 525.764855 369.155094 
L 527.776881 369.7427 
L 529.965976 370.57762 
L 532.348702 371.659085 
L 534.942126 372.800663 
L 537.762087 374.467015 
L 540.83103 376.556834 
L 544.165925 378.497405 
L 547.789746 380.229603 
L 551.721424 381.643322 
L 555.980275 382.6889 
L 560.58374 383.764079 
L 565.543139 384.948718 
L 570.861092 385.985966 
L 576.520639 386.660399 
L 582.434635 386.686861 
L 588.373162 385.820529 
L 594.311688 384.397286 
L 600.250215 382.66015 
L 606.188741 380.842693 
L 612.127268 378.818264 
L 618.065794 376.277767 
L 624.004321 373.638307 
L 629.942848 371.057598 
L 635.881374 368.504103 
L 641.819901 366.614181 
L 647.758427 365.496321 
L 653.696954 364.542815 
L 659.63548 363.283778 
L 665.574007 362.183611 
L 673.96984 361.196929 
L 682.365674 361.010465 
L 690.761507 360.263065 
L 699.15734 359.274442 
L 707.553174 358.309913 
L 715.949007 357.850277 
L 724.34484 357.459931 
L 732.740674 357.102678 
L 741.136507 356.746398 
L 749.53234 356.417037 
L 757.928174 356.092145 
L 766.324007 355.796874 
L 774.71984 355.526831 
L 783.115674 355.289075 
L 791.511507 355.000309 
L 799.90734 354.740264 
L 808.303174 354.495077 
L 816.699007 354.250872 
L 825.09484 354.045416 
L 833.490674 353.858423 
L 841.886507 353.709645 
L 850.28234 353.598854 
L 858.678174 353.493287 
L 867.074007 353.419218 
L 867.074007 463.665657 
L 867.074007 463.665657 
L 858.678174 463.592796 
L 850.28234 463.455548 
L 841.886507 463.275077 
L 833.490674 463.087195 
L 825.09484 462.849 
L 816.699007 462.596187 
L 808.303174 462.325285 
L 799.90734 462.056589 
L 791.511507 461.773946 
L 783.115674 461.506737 
L 774.71984 461.232414 
L 766.324007 460.953725 
L 757.928174 460.634137 
L 749.53234 460.259235 
L 741.136507 459.854812 
L 732.740674 459.440021 
L 724.34484 459.054744 
L 715.949007 458.651562 
L 707.553174 458.027589 
L 699.15734 456.975312 
L 690.761507 455.947967 
L 682.365674 455.160788 
L 673.96984 454.872979 
L 665.574007 453.581398 
L 659.63548 452.848277 
L 653.696954 452.180696 
L 647.758427 452.801218 
L 641.819901 452.734953 
L 635.881374 452.79357 
L 629.942848 451.901372 
L 624.004321 451.265205 
L 618.065794 451.072268 
L 612.127268 451.170017 
L 606.188741 451.047971 
L 600.250215 450.866164 
L 594.311688 450.794518 
L 588.373162 450.855965 
L 582.434635 450.967205 
L 576.520639 451.534537 
L 570.861092 452.667323 
L 565.543139 454.030716 
L 560.58374 455.372233 
L 555.980275 456.46079 
L 551.721424 456.831494 
L 547.789746 456.403273 
L 544.165925 455.419355 
L 540.83103 454.014537 
L 537.762087 452.317494 
L 534.942126 450.920528 
L 532.348702 450.077078 
L 529.965976 449.319481 
L 527.776881 448.956609 
L 525.764855 448.940027 
L 523.914959 449.133292 
L 522.213559 449.52249 
L 520.648461 450.165721 
L 519.209351 451.038017 
L 517.883479 452.060397 
L 516.659653 453.268621 
L 515.532138 454.424859 
L 514.494197 455.613597 
L 513.53156 456.783443 
L 512.646596 458.016436 
L 511.813354 459.220077 
L 510.988559 460.417331 
L 510.163764 461.633698 
L 509.338968 462.831405 
L 508.514173 464.056905 
L 507.689378 465.387651 
L 506.864582 466.652956 
L 506.039787 468.079772 
L 505.214991 469.493401 
L 504.390196 470.94799 
L 503.565401 472.414154 
L 502.740605 473.911961 
L 501.91581 475.482024 
L 501.091015 477.138503 
L 500.266219 478.928675 
L 499.441424 480.865256 
L 498.616629 483.002339 
L 497.791833 485.107347 
L 496.967038 487.322356 
L 496.142243 489.63609 
L 495.317447 492.386606 
L 494.492652 495.328593 
L 493.667856 498.229049 
L 492.843061 501.145073 
L 492.018266 504.049791 
L 491.19347 507.17486 
L 490.368675 510.436798 
L 489.54388 513.432235 
L 488.719084 517.025274 
L 487.894289 520.631746 
L 487.069494 524.536153 
L 486.244698 527.886489 
L 485.419903 531.534368 
L 484.595108 534.857 
L 483.770312 538.414669 
L 482.945517 542.575282 
L 482.120721 546.896362 
L 481.295926 551.961563 
L 480.471131 556.898726 
L 479.646335 560.815616 
L 478.82154 563.464309 
L 477.996745 563.848877 
L 477.171949 563.358337 
L 476.347154 561.816323 
L 475.522359 559.726769 
L 474.391324 559.657748 
L 473.26029 559.657748 
L 472.129255 559.657748 
L 470.998221 559.657748 
L 469.867187 559.657748 
L 468.736152 559.657748 
L 467.605118 559.657748 
L 466.474083 559.657748 
L 465.333316 559.657748 
L 463.881803 559.657748 
L 461.844867 559.657748 
L 458.985672 559.657748 
L 454.971416 559.657748 
L 449.334496 559.657748 
L 441.781638 559.657748 
L 434.130915 559.657748 
L 426.752215 559.657748 
L 419.635807 559.657748 
L 412.772406 559.657748 
L 406.153132 559.657748 
L 399.7692 559.657748 
L 393.612158 559.657748 
L 387.674039 559.657748 
L 381.947015 559.657748 
L 376.423458 559.657748 
L 371.0965 559.657748 
L 365.958678 559.657748 
L 360.964856 559.657748 
L 356.1238 559.657748 
L 351.45464 559.657748 
L 346.951477 559.657748 
L 342.608436 559.657748 
L 338.419659 559.657748 
L 334.379387 559.657748 
L 330.482783 559.657748 
L 326.724795 559.657748 
L 323.100106 559.657748 
L 319.603974 559.657748 
L 316.232504 559.657748 
L 312.980671 559.657748 
L 309.844177 559.657748 
L 306.819054 559.657748 
L 303.901395 559.657748 
L 301.087253 559.657748 
L 298.372767 559.657748 
L 295.754546 559.657748 
L 293.230282 559.657748 
L 290.794897 559.657748 
L 288.445503 559.657748 
L 286.180796 559.657748 
L 283.994951 559.657748 
L 281.887838 559.657748 
L 279.855619 559.657748 
L 277.893724 559.657748 
L 276.003041 559.657748 
L 274.179812 559.657748 
L 272.420705 559.657748 
L 270.723246 559.657748 
L 269.085661 559.657748 
L 267.506519 559.657748 
L 265.983555 559.657748 
L 264.514706 559.657748 
L 263.098204 559.657748 
L 261.732564 559.657748 
L 260.415204 559.657748 
L 259.143602 559.657748 
L 257.915866 559.657748 
L 256.718299 559.657748 
L 255.520733 559.657748 
L 254.323167 559.657748 
L 253.125601 559.657748 
L 251.928035 559.657748 
L 250.73047 559.657748 
L 249.532904 559.657748 
L 248.335338 559.657748 
L 247.137772 559.657748 
L 245.940206 559.657748 
L 244.74264 559.657748 
L 243.545075 559.657748 
L 242.347509 559.657748 
L 241.149943 559.657748 
L 239.952377 559.657748 
L 238.754811 559.657748 
L 237.557245 559.657748 
L 236.359679 559.657748 
L 235.162114 559.657748 
L 233.964548 559.657748 
L 232.766982 559.657748 
L 231.569416 559.657748 
L 230.37185 559.657748 
L 229.174284 559.657748 
L 227.976718 559.657748 
L 226.779153 559.657748 
L 225.581587 559.657748 
L 224.384021 559.657748 
L 223.186455 559.657748 
L 221.988889 559.657748 
L 220.791323 559.657748 
L 219.593758 559.657748 
L 218.396192 559.657748 
L 217.198626 559.657748 
L 216.00106 559.657748 
L 214.832596 559.657748 
L 213.664132 559.657748 
L 212.4854 559.657748 
L 211.009132 559.657748 
L 208.989224 559.657748 
L 206.224103 559.657748 
L 202.437713 559.657748 
L 197.251961 559.657748 
L 190.148976 559.657748 
L 180.419404 559.657748 
L 167.091556 559.657748 
L 148.834393 559.657748 
z
" clip-path="url(#pfc077b4a2a)" style="fill: #ffa500; fill-opacity: 0.2"/>
   </g>
   <g id="matplotlib.axis_1">
    <g id="xtick_1">
     <g id="line2d_1">
      <path d="M 216.00106 627.417748 
L 216.00106 17.577748 
" clip-path="url(#pfc077b4a2a)" style="fill: none; stroke: #b0b0b0; stroke-width: 0.8; stroke-linecap: square"/>
     </g>
     <g id="line2d_2">
      <defs>
       <path id="md97c1812b4" d="M 0 0 
L 0 3.5 
" style="stroke: #000000; stroke-width: 0.8"/>
      </defs>
      <g>
       <use xlink:href="#md97c1812b4" x="216.00106" y="627.417748" style="stroke: #000000; stroke-width: 0.8"/>
      </g>
     </g>
     <g id="text_1">
      <!-- $\mathdefault{0.0}$ -->
      <g transform="translate(198.22934 655.173243) scale(0.3 -0.3)">
       <defs>
        <path id="CMR17-30" d="M 2688 2025 
C 2688 2416 2682 3080 2413 3591 
C 2176 4039 1798 4198 1466 4198 
C 1158 4198 768 4058 525 3597 
C 269 3118 243 2524 243 2025 
C 243 1661 250 1106 448 619 
C 723 -39 1216 -128 1466 -128 
C 1760 -128 2208 -7 2470 600 
C 2662 1042 2688 1559 2688 2025 
z
M 1466 -26 
C 1056 -26 813 325 723 812 
C 653 1188 653 1738 653 2096 
C 653 2588 653 2997 736 3387 
C 858 3929 1216 4096 1466 4096 
C 1728 4096 2067 3923 2189 3400 
C 2272 3036 2278 2607 2278 2096 
C 2278 1680 2278 1169 2202 792 
C 2067 95 1690 -26 1466 -26 
z
" transform="scale(0.015625)"/>
        <path id="CMMI12-3a" d="M 1178 307 
C 1178 492 1024 619 870 619 
C 685 619 557 466 557 313 
C 557 128 710 0 864 0 
C 1050 0 1178 153 1178 307 
z
" transform="scale(0.015625)"/>
       </defs>
       <use xlink:href="#CMR17-30" transform="scale(0.996264)"/>
       <use xlink:href="#CMMI12-3a" transform="translate(45.690477 0) scale(0.996264)"/>
       <use xlink:href="#CMR17-30" transform="translate(72.787654 0) scale(0.996264)"/>
      </g>
     </g>
    </g>
    <g id="xtick_2">
     <g id="line2d_3">
      <path d="M 350.334393 627.417748 
L 350.334393 17.577748 
" clip-path="url(#pfc077b4a2a)" style="fill: none; stroke: #b0b0b0; stroke-width: 0.8; stroke-linecap: square"/>
     </g>
     <g id="line2d_4">
      <g>
       <use xlink:href="#md97c1812b4" x="350.334393" y="627.417748" style="stroke: #000000; stroke-width: 0.8"/>
      </g>
     </g>
     <g id="text_2">
      <!-- $\mathdefault{0.1}$ -->
      <g transform="translate(332.562674 655.173243) scale(0.3 -0.3)">
       <defs>
        <path id="CMR17-31" d="M 1702 4058 
C 1702 4192 1696 4192 1606 4192 
C 1357 3916 979 3827 621 3827 
C 602 3827 570 3827 563 3808 
C 557 3795 557 3782 557 3648 
C 755 3648 1088 3686 1344 3839 
L 1344 461 
C 1344 236 1331 160 781 160 
L 589 160 
L 589 0 
C 896 0 1216 0 1523 0 
C 1830 0 2150 0 2458 0 
L 2458 160 
L 2266 160 
C 1715 160 1702 230 1702 458 
L 1702 4058 
z
" transform="scale(0.015625)"/>
       </defs>
       <use xlink:href="#CMR17-30" transform="scale(0.996264)"/>
       <use xlink:href="#CMMI12-3a" transform="translate(45.690477 0) scale(0.996264)"/>
       <use xlink:href="#CMR17-31" transform="translate(72.787654 0) scale(0.996264)"/>
      </g>
     </g>
    </g>
    <g id="xtick_3">
     <g id="line2d_5">
      <path d="M 484.667727 627.417748 
L 484.667727 17.577748 
" clip-path="url(#pfc077b4a2a)" style="fill: none; stroke: #b0b0b0; stroke-width: 0.8; stroke-linecap: square"/>
     </g>
     <g id="line2d_6">
      <g>
       <use xlink:href="#md97c1812b4" x="484.667727" y="627.417748" style="stroke: #000000; stroke-width: 0.8"/>
      </g>
     </g>
     <g id="text_3">
      <!-- $\mathdefault{0.2}$ -->
      <g transform="translate(466.896007 655.173243) scale(0.3 -0.3)">
       <defs>
        <path id="CMR17-32" d="M 2669 989 
L 2554 989 
C 2490 536 2438 459 2413 420 
C 2381 369 1920 369 1830 369 
L 602 369 
C 832 619 1280 1072 1824 1597 
C 2214 1967 2669 2402 2669 3035 
C 2669 3790 2067 4224 1395 4224 
C 691 4224 262 3604 262 3030 
C 262 2780 448 2748 525 2748 
C 589 2748 781 2787 781 3010 
C 781 3207 614 3264 525 3264 
C 486 3264 448 3258 422 3245 
C 544 3790 915 4058 1306 4058 
C 1862 4058 2227 3617 2227 3035 
C 2227 2479 1901 2000 1536 1584 
L 262 146 
L 262 0 
L 2515 0 
L 2669 989 
z
" transform="scale(0.015625)"/>
       </defs>
       <use xlink:href="#CMR17-30" transform="scale(0.996264)"/>
       <use xlink:href="#CMMI12-3a" transform="translate(45.690477 0) scale(0.996264)"/>
       <use xlink:href="#CMR17-32" transform="translate(72.787654 0) scale(0.996264)"/>
      </g>
     </g>
    </g>
    <g id="xtick_4">
     <g id="line2d_7">
      <path d="M 619.00106 627.417748 
L 619.00106 17.577748 
" clip-path="url(#pfc077b4a2a)" style="fill: none; stroke: #b0b0b0; stroke-width: 0.8; stroke-linecap: square"/>
     </g>
     <g id="line2d_8">
      <g>
       <use xlink:href="#md97c1812b4" x="619.00106" y="627.417748" style="stroke: #000000; stroke-width: 0.8"/>
      </g>
     </g>
     <g id="text_4">
      <!-- $\mathdefault{0.3}$ -->
      <g transform="translate(601.22934 655.173243) scale(0.3 -0.3)">
       <defs>
        <path id="CMR17-33" d="M 1414 2157 
C 1984 2157 2234 1662 2234 1090 
C 2234 320 1824 25 1453 25 
C 1114 25 563 194 390 693 
C 422 680 454 680 486 680 
C 640 680 755 782 755 948 
C 755 1133 614 1216 486 1216 
C 378 1216 211 1165 211 926 
C 211 335 787 -128 1466 -128 
C 2176 -128 2720 430 2720 1085 
C 2720 1707 2208 2157 1600 2227 
C 2086 2328 2554 2756 2554 3329 
C 2554 3820 2048 4179 1472 4179 
C 890 4179 378 3829 378 3329 
C 378 3110 544 3072 627 3072 
C 762 3072 877 3155 877 3321 
C 877 3486 762 3569 627 3569 
C 602 3569 570 3569 544 3557 
C 730 3959 1235 4032 1459 4032 
C 1683 4032 2106 3925 2106 3320 
C 2106 3143 2080 2828 1862 2550 
C 1670 2304 1453 2304 1242 2284 
C 1210 2284 1062 2269 1037 2269 
C 992 2263 966 2257 966 2208 
C 966 2163 973 2157 1101 2157 
L 1414 2157 
z
" transform="scale(0.015625)"/>
       </defs>
       <use xlink:href="#CMR17-30" transform="scale(0.996264)"/>
       <use xlink:href="#CMMI12-3a" transform="translate(45.690477 0) scale(0.996264)"/>
       <use xlink:href="#CMR17-33" transform="translate(72.787654 0) scale(0.996264)"/>
      </g>
     </g>
    </g>
    <g id="xtick_5">
     <g id="line2d_9">
      <path d="M 753.334393 627.417748 
L 753.334393 17.577748 
" clip-path="url(#pfc077b4a2a)" style="fill: none; stroke: #b0b0b0; stroke-width: 0.8; stroke-linecap: square"/>
     </g>
     <g id="line2d_10">
      <g>
       <use xlink:href="#md97c1812b4" x="753.334393" y="627.417748" style="stroke: #000000; stroke-width: 0.8"/>
      </g>
     </g>
     <g id="text_5">
      <!-- $\mathdefault{0.4}$ -->
      <g transform="translate(735.562674 655.173243) scale(0.3 -0.3)">
       <defs>
        <path id="CMR17-34" d="M 2150 4122 
C 2150 4256 2144 4256 2029 4256 
L 128 1254 
L 128 1088 
L 1779 1088 
L 1779 457 
C 1779 224 1766 160 1318 160 
L 1197 160 
L 1197 0 
C 1402 0 1747 0 1965 0 
C 2182 0 2528 0 2733 0 
L 2733 160 
L 2611 160 
C 2163 160 2150 224 2150 457 
L 2150 1088 
L 2803 1088 
L 2803 1254 
L 2150 1254 
L 2150 4122 
z
M 1798 3703 
L 1798 1254 
L 256 1254 
L 1798 3703 
z
" transform="scale(0.015625)"/>
       </defs>
       <use xlink:href="#CMR17-30" transform="scale(0.996264)"/>
       <use xlink:href="#CMMI12-3a" transform="translate(45.690477 0) scale(0.996264)"/>
       <use xlink:href="#CMR17-34" transform="translate(72.787654 0) scale(0.996264)"/>
      </g>
     </g>
    </g>
    <g id="text_6">
     <!-- $x, \; \mathrm{m} $ -->
     <g transform="translate(462.448457 689.201445) scale(0.35 -0.35)">
      <defs>
       <path id="CMMI12-78" d="M 3034 2606 
C 2829 2567 2752 2414 2752 2293 
C 2752 2139 2874 2088 2963 2088 
C 3155 2088 3290 2254 3290 2427 
C 3290 2695 2982 2816 2714 2816 
C 2323 2816 2106 2433 2048 2312 
C 1901 2816 1504 2816 1389 2816 
C 736 2816 390 1980 390 1839 
C 390 1814 416 1782 461 1782 
C 512 1782 525 1820 538 1846 
C 755 2555 1184 2689 1370 2689 
C 1658 2689 1715 2420 1715 2267 
C 1715 2127 1677 1980 1600 1673 
L 1382 798 
C 1286 415 1101 64 762 64 
C 730 64 570 64 435 147 
C 666 192 717 383 717 460 
C 717 588 621 664 499 664 
C 346 664 179 530 179 326 
C 179 57 480 -64 755 -64 
C 1062 -64 1280 179 1414 441 
C 1517 64 1837 -64 2074 -64 
C 2726 -64 3072 773 3072 913 
C 3072 945 3046 971 3008 971 
C 2950 971 2944 939 2925 888 
C 2752 326 2381 64 2093 64 
C 1869 64 1747 230 1747 492 
C 1747 632 1773 734 1875 1156 
L 2099 2024 
C 2195 2408 2413 2689 2707 2689 
C 2720 2689 2899 2689 3034 2606 
z
" transform="scale(0.015625)"/>
       <path id="CMMI12-3b" d="M 1248 -31 
C 1248 343 1126 619 864 619 
C 659 619 557 453 557 313 
C 557 172 653 0 870 0 
C 954 0 1024 26 1082 83 
C 1094 96 1101 96 1107 96 
C 1120 96 1120 5 1120 -27 
C 1120 -240 1082 -659 710 -1080 
C 640 -1157 640 -1170 640 -1183 
C 640 -1216 672 -1248 704 -1248 
C 755 -1248 1248 -771 1248 -31 
z
" transform="scale(0.015625)"/>
       <path id="CMR17-6d" d="M 4326 1933 
C 4326 2252 4269 2790 3507 2790 
C 3072 2790 2771 2496 2656 2151 
L 2650 2151 
C 2573 2676 2195 2790 1837 2790 
C 1331 2790 1069 2400 973 2144 
L 966 2144 
L 966 2790 
L 211 2720 
L 211 2554 
C 589 2554 646 2515 646 2208 
L 646 428 
C 646 184 621 153 211 153 
L 211 -13 
C 365 0 646 0 813 0 
C 979 0 1267 0 1421 -13 
L 1421 153 
C 1011 153 986 178 986 428 
L 986 1658 
C 986 2247 1344 2688 1792 2688 
C 2266 2688 2317 2266 2317 1958 
L 2317 428 
C 2317 184 2291 153 1882 153 
L 1882 -13 
C 2035 0 2317 0 2483 0 
C 2650 0 2938 0 3091 -13 
L 3091 153 
C 2682 153 2656 178 2656 428 
L 2656 1658 
C 2656 2247 3014 2688 3462 2688 
C 3936 2688 3987 2266 3987 1958 
L 3987 428 
C 3987 184 3962 153 3552 153 
L 3552 -13 
C 3706 0 3987 0 4154 0 
C 4320 0 4608 0 4762 -13 
L 4762 153 
C 4352 153 4326 178 4326 428 
L 4326 1933 
z
" transform="scale(0.015625)"/>
      </defs>
      <use xlink:href="#CMMI12-78" transform="scale(0.996264)"/>
      <use xlink:href="#CMMI12-3b" transform="translate(55.43406 0) scale(0.996264)"/>
      <use xlink:href="#CMR17-6d" transform="translate(126.809651 0) scale(0.996264)"/>
     </g>
    </g>
   </g>
   <g id="matplotlib.axis_2">
    <g id="ytick_1">
     <g id="line2d_11">
      <path d="M 135.40106 627.417748 
L 860.80106 627.417748 
" clip-path="url(#pfc077b4a2a)" style="fill: none; stroke: #b0b0b0; stroke-width: 0.8; stroke-linecap: square"/>
     </g>
     <g id="line2d_12">
      <defs>
       <path id="me9830f6ada" d="M 0 0 
L -3.5 0 
" style="stroke: #000000; stroke-width: 0.8"/>
      </defs>
      <g>
       <use xlink:href="#me9830f6ada" x="135.40106" y="627.417748" style="stroke: #000000; stroke-width: 0.8"/>
      </g>
     </g>
     <g id="text_7">
      <!-- $\mathdefault{−0.025}$ -->
      <g transform="translate(42.197103 637.795495) scale(0.3 -0.3)">
       <defs>
        <path id="CMSY10-0" d="M 4218 1472 
C 4326 1472 4442 1472 4442 1600 
C 4442 1728 4326 1728 4218 1728 
L 755 1728 
C 646 1728 531 1728 531 1600 
C 531 1472 646 1472 755 1472 
L 4218 1472 
z
" transform="scale(0.015625)"/>
        <path id="CMR17-35" d="M 730 3692 
C 794 3666 1056 3584 1325 3584 
C 1920 3584 2246 3911 2432 4100 
C 2432 4157 2432 4192 2394 4192 
C 2387 4192 2374 4192 2323 4163 
C 2099 4058 1837 3973 1517 3973 
C 1325 3973 1037 3999 723 4139 
C 653 4171 640 4171 634 4171 
C 602 4171 595 4164 595 4037 
L 595 2203 
C 595 2089 595 2057 659 2057 
C 691 2057 704 2070 736 2114 
C 941 2401 1222 2522 1542 2522 
C 1766 2522 2246 2382 2246 1289 
C 2246 1085 2246 715 2054 421 
C 1894 159 1645 25 1370 25 
C 947 25 518 320 403 814 
C 429 807 480 795 506 795 
C 589 795 749 840 749 1038 
C 749 1210 627 1280 506 1280 
C 358 1280 262 1190 262 1011 
C 262 454 704 -128 1382 -128 
C 2042 -128 2669 440 2669 1264 
C 2669 2030 2170 2624 1549 2624 
C 1222 2624 947 2503 730 2274 
L 730 3692 
z
" transform="scale(0.015625)"/>
       </defs>
       <use xlink:href="#CMSY10-0" transform="scale(0.996264)"/>
       <use xlink:href="#CMR17-30" transform="translate(77.487468 0) scale(0.996264)"/>
       <use xlink:href="#CMMI12-3a" transform="translate(123.177945 0) scale(0.996264)"/>
       <use xlink:href="#CMR17-30" transform="translate(150.275122 0) scale(0.996264)"/>
       <use xlink:href="#CMR17-32" transform="translate(195.965599 0) scale(0.996264)"/>
       <use xlink:href="#CMR17-35" transform="translate(241.656076 0) scale(0.996264)"/>
      </g>
     </g>
    </g>
    <g id="ytick_2">
     <g id="line2d_13">
      <path d="M 135.40106 559.657748 
L 860.80106 559.657748 
" clip-path="url(#pfc077b4a2a)" style="fill: none; stroke: #b0b0b0; stroke-width: 0.8; stroke-linecap: square"/>
     </g>
     <g id="line2d_14">
      <g>
       <use xlink:href="#me9830f6ada" x="135.40106" y="559.657748" style="stroke: #000000; stroke-width: 0.8"/>
      </g>
     </g>
     <g id="text_8">
      <!-- $\mathdefault{0.000}$ -->
      <g transform="translate(65.443334 570.035495) scale(0.3 -0.3)">
       <use xlink:href="#CMR17-30" transform="scale(0.996264)"/>
       <use xlink:href="#CMMI12-3a" transform="translate(45.690477 0) scale(0.996264)"/>
       <use xlink:href="#CMR17-30" transform="translate(72.787654 0) scale(0.996264)"/>
       <use xlink:href="#CMR17-30" transform="translate(118.478131 0) scale(0.996264)"/>
       <use xlink:href="#CMR17-30" transform="translate(164.168608 0) scale(0.996264)"/>
      </g>
     </g>
    </g>
    <g id="ytick_3">
     <g id="line2d_15">
      <path d="M 135.40106 491.897748 
L 860.80106 491.897748 
" clip-path="url(#pfc077b4a2a)" style="fill: none; stroke: #b0b0b0; stroke-width: 0.8; stroke-linecap: square"/>
     </g>
     <g id="line2d_16">
      <g>
       <use xlink:href="#me9830f6ada" x="135.40106" y="491.897748" style="stroke: #000000; stroke-width: 0.8"/>
      </g>
     </g>
     <g id="text_9">
      <!-- $\mathdefault{0.025}$ -->
      <g transform="translate(65.443334 502.275495) scale(0.3 -0.3)">
       <use xlink:href="#CMR17-30" transform="scale(0.996264)"/>
       <use xlink:href="#CMMI12-3a" transform="translate(45.690477 0) scale(0.996264)"/>
       <use xlink:href="#CMR17-30" transform="translate(72.787654 0) scale(0.996264)"/>
       <use xlink:href="#CMR17-32" transform="translate(118.478131 0) scale(0.996264)"/>
       <use xlink:href="#CMR17-35" transform="translate(164.168608 0) scale(0.996264)"/>
      </g>
     </g>
    </g>
    <g id="ytick_4">
     <g id="line2d_17">
      <path d="M 135.40106 424.137748 
L 860.80106 424.137748 
" clip-path="url(#pfc077b4a2a)" style="fill: none; stroke: #b0b0b0; stroke-width: 0.8; stroke-linecap: square"/>
     </g>
     <g id="line2d_18">
      <g>
       <use xlink:href="#me9830f6ada" x="135.40106" y="424.137748" style="stroke: #000000; stroke-width: 0.8"/>
      </g>
     </g>
     <g id="text_10">
      <!-- $\mathdefault{0.050}$ -->
      <g transform="translate(65.443334 434.515495) scale(0.3 -0.3)">
       <use xlink:href="#CMR17-30" transform="scale(0.996264)"/>
       <use xlink:href="#CMMI12-3a" transform="translate(45.690477 0) scale(0.996264)"/>
       <use xlink:href="#CMR17-30" transform="translate(72.787654 0) scale(0.996264)"/>
       <use xlink:href="#CMR17-35" transform="translate(118.478131 0) scale(0.996264)"/>
       <use xlink:href="#CMR17-30" transform="translate(164.168608 0) scale(0.996264)"/>
      </g>
     </g>
    </g>
    <g id="ytick_5">
     <g id="line2d_19">
      <path d="M 135.40106 356.377748 
L 860.80106 356.377748 
" clip-path="url(#pfc077b4a2a)" style="fill: none; stroke: #b0b0b0; stroke-width: 0.8; stroke-linecap: square"/>
     </g>
     <g id="line2d_20">
      <g>
       <use xlink:href="#me9830f6ada" x="135.40106" y="356.377748" style="stroke: #000000; stroke-width: 0.8"/>
      </g>
     </g>
     <g id="text_11">
      <!-- $\mathdefault{0.075}$ -->
      <g transform="translate(65.443334 366.755495) scale(0.3 -0.3)">
       <defs>
        <path id="CMR17-37" d="M 2886 3941 
L 2886 4081 
L 1382 4081 
C 634 4081 621 4165 595 4288 
L 480 4288 
L 294 3094 
L 410 3094 
C 429 3215 474 3540 550 3661 
C 589 3712 1062 3712 1171 3712 
L 2579 3712 
L 1869 2661 
C 1395 1954 1069 999 1069 165 
C 1069 89 1069 -128 1299 -128 
C 1530 -128 1530 89 1530 171 
L 1530 465 
C 1530 1508 1709 2196 2003 2636 
L 2886 3941 
z
" transform="scale(0.015625)"/>
       </defs>
       <use xlink:href="#CMR17-30" transform="scale(0.996264)"/>
       <use xlink:href="#CMMI12-3a" transform="translate(45.690477 0) scale(0.996264)"/>
       <use xlink:href="#CMR17-30" transform="translate(72.787654 0) scale(0.996264)"/>
       <use xlink:href="#CMR17-37" transform="translate(118.478131 0) scale(0.996264)"/>
       <use xlink:href="#CMR17-35" transform="translate(164.168608 0) scale(0.996264)"/>
      </g>
     </g>
    </g>
    <g id="ytick_6">
     <g id="line2d_21">
      <path d="M 135.40106 288.617748 
L 860.80106 288.617748 
" clip-path="url(#pfc077b4a2a)" style="fill: none; stroke: #b0b0b0; stroke-width: 0.8; stroke-linecap: square"/>
     </g>
     <g id="line2d_22">
      <g>
       <use xlink:href="#me9830f6ada" x="135.40106" y="288.617748" style="stroke: #000000; stroke-width: 0.8"/>
      </g>
     </g>
     <g id="text_12">
      <!-- $\mathdefault{0.100}$ -->
      <g transform="translate(65.443334 298.995495) scale(0.3 -0.3)">
       <use xlink:href="#CMR17-30" transform="scale(0.996264)"/>
       <use xlink:href="#CMMI12-3a" transform="translate(45.690477 0) scale(0.996264)"/>
       <use xlink:href="#CMR17-31" transform="translate(72.787654 0) scale(0.996264)"/>
       <use xlink:href="#CMR17-30" transform="translate(118.478131 0) scale(0.996264)"/>
       <use xlink:href="#CMR17-30" transform="translate(164.168608 0) scale(0.996264)"/>
      </g>
     </g>
    </g>
    <g id="ytick_7">
     <g id="line2d_23">
      <path d="M 135.40106 220.857748 
L 860.80106 220.857748 
" clip-path="url(#pfc077b4a2a)" style="fill: none; stroke: #b0b0b0; stroke-width: 0.8; stroke-linecap: square"/>
     </g>
     <g id="line2d_24">
      <g>
       <use xlink:href="#me9830f6ada" x="135.40106" y="220.857748" style="stroke: #000000; stroke-width: 0.8"/>
      </g>
     </g>
     <g id="text_13">
      <!-- $\mathdefault{0.125}$ -->
      <g transform="translate(65.443334 231.235495) scale(0.3 -0.3)">
       <use xlink:href="#CMR17-30" transform="scale(0.996264)"/>
       <use xlink:href="#CMMI12-3a" transform="translate(45.690477 0) scale(0.996264)"/>
       <use xlink:href="#CMR17-31" transform="translate(72.787654 0) scale(0.996264)"/>
       <use xlink:href="#CMR17-32" transform="translate(118.478131 0) scale(0.996264)"/>
       <use xlink:href="#CMR17-35" transform="translate(164.168608 0) scale(0.996264)"/>
      </g>
     </g>
    </g>
    <g id="ytick_8">
     <g id="line2d_25">
      <path d="M 135.40106 153.097748 
L 860.80106 153.097748 
" clip-path="url(#pfc077b4a2a)" style="fill: none; stroke: #b0b0b0; stroke-width: 0.8; stroke-linecap: square"/>
     </g>
     <g id="line2d_26">
      <g>
       <use xlink:href="#me9830f6ada" x="135.40106" y="153.097748" style="stroke: #000000; stroke-width: 0.8"/>
      </g>
     </g>
     <g id="text_14">
      <!-- $\mathdefault{0.150}$ -->
      <g transform="translate(65.443334 163.475495) scale(0.3 -0.3)">
       <use xlink:href="#CMR17-30" transform="scale(0.996264)"/>
       <use xlink:href="#CMMI12-3a" transform="translate(45.690477 0) scale(0.996264)"/>
       <use xlink:href="#CMR17-31" transform="translate(72.787654 0) scale(0.996264)"/>
       <use xlink:href="#CMR17-35" transform="translate(118.478131 0) scale(0.996264)"/>
       <use xlink:href="#CMR17-30" transform="translate(164.168608 0) scale(0.996264)"/>
      </g>
     </g>
    </g>
    <g id="ytick_9">
     <g id="line2d_27">
      <path d="M 135.40106 85.337748 
L 860.80106 85.337748 
" clip-path="url(#pfc077b4a2a)" style="fill: none; stroke: #b0b0b0; stroke-width: 0.8; stroke-linecap: square"/>
     </g>
     <g id="line2d_28">
      <g>
       <use xlink:href="#me9830f6ada" x="135.40106" y="85.337748" style="stroke: #000000; stroke-width: 0.8"/>
      </g>
     </g>
     <g id="text_15">
      <!-- $\mathdefault{0.175}$ -->
      <g transform="translate(65.443334 95.715495) scale(0.3 -0.3)">
       <use xlink:href="#CMR17-30" transform="scale(0.996264)"/>
       <use xlink:href="#CMMI12-3a" transform="translate(45.690477 0) scale(0.996264)"/>
       <use xlink:href="#CMR17-31" transform="translate(72.787654 0) scale(0.996264)"/>
       <use xlink:href="#CMR17-37" transform="translate(118.478131 0) scale(0.996264)"/>
       <use xlink:href="#CMR17-35" transform="translate(164.168608 0) scale(0.996264)"/>
      </g>
     </g>
    </g>
    <g id="ytick_10">
     <g id="line2d_29">
      <path d="M 135.40106 17.577748 
L 860.80106 17.577748 
" clip-path="url(#pfc077b4a2a)" style="fill: none; stroke: #b0b0b0; stroke-width: 0.8; stroke-linecap: square"/>
     </g>
     <g id="line2d_30">
      <g>
       <use xlink:href="#me9830f6ada" x="135.40106" y="17.577748" style="stroke: #000000; stroke-width: 0.8"/>
      </g>
     </g>
     <g id="text_16">
      <!-- $\mathdefault{0.200}$ -->
      <g transform="translate(65.443334 27.955495) scale(0.3 -0.3)">
       <use xlink:href="#CMR17-30" transform="scale(0.996264)"/>
       <use xlink:href="#CMMI12-3a" transform="translate(45.690477 0) scale(0.996264)"/>
       <use xlink:href="#CMR17-32" transform="translate(72.787654 0) scale(0.996264)"/>
       <use xlink:href="#CMR17-30" transform="translate(118.478131 0) scale(0.996264)"/>
       <use xlink:href="#CMR17-30" transform="translate(164.168608 0) scale(0.996264)"/>
      </g>
     </g>
    </g>
    <g id="text_17">
     <!-- $Y$ -->
     <g transform="translate(31.414752 332.402499) rotate(-90) scale(0.35 -0.35)">
      <defs>
       <path id="CMMI12-59" d="M 3763 3645 
L 3910 3791 
C 4192 4078 4429 4149 4653 4167 
C 4723 4173 4781 4179 4781 4288 
C 4781 4352 4717 4352 4704 4352 
C 4627 4352 4544 4352 4467 4352 
L 4205 4352 
C 4019 4352 3821 4352 3642 4352 
C 3597 4352 3526 4352 3526 4226 
C 3526 4166 3590 4160 3610 4160 
C 3802 4160 3802 4064 3802 4026 
C 3802 3956 3750 3860 3622 3713 
L 2099 1969 
L 1376 3911 
C 1338 4000 1338 4013 1338 4026 
C 1338 4160 1600 4160 1677 4160 
C 1754 4160 1824 4160 1824 4279 
C 1824 4352 1766 4352 1728 4352 
C 1619 4352 1491 4352 1382 4352 
L 672 4352 
C 557 4352 435 4352 326 4352 
C 282 4352 211 4352 211 4226 
C 211 4160 269 4160 365 4160 
C 678 4160 736 4102 794 3956 
L 1587 1835 
C 1594 1816 1613 1745 1613 1726 
C 1613 1707 1299 452 1280 388 
C 1229 217 1165 185 755 185 
C 646 185 595 185 595 64 
C 595 0 666 0 685 0 
C 800 0 934 0 1056 0 
L 1811 0 
C 1926 0 2061 0 2176 0 
C 2221 0 2298 0 2298 115 
C 2298 185 2253 185 2144 185 
C 1747 185 1747 230 1747 300 
C 1747 345 1798 548 1830 676 
L 2061 1594 
C 2099 1727 2099 1739 2157 1803 
L 3763 3645 
z
" transform="scale(0.015625)"/>
      </defs>
      <use xlink:href="#CMMI12-59" transform="scale(0.996264)"/>
     </g>
    </g>
   </g>
   <g id="line2d_31">
    <path d="M 148.834393 559.657748 
L 475.522359 559.643057 
L 476.347154 559.365852 
L 477.171949 558.691372 
L 478.82154 556.97736 
L 479.646335 556.323508 
L 481.295926 555.517212 
L 482.945517 555.196529 
L 485.419903 555.167672 
L 492.018266 555.407408 
L 510.988559 556.266707 
L 517.883479 556.94368 
L 527.776881 558.169791 
L 532.348702 558.494705 
L 537.762087 558.709362 
L 547.789746 558.838602 
L 570.861092 558.684343 
L 594.311688 558.273714 
L 635.881374 557.377302 
L 659.63548 556.785593 
L 665.574007 556.77553 
L 673.96984 557.155995 
L 690.761507 557.364599 
L 766.324007 557.668587 
L 867.074007 557.840817 
L 867.074007 557.840817 
" clip-path="url(#pfc077b4a2a)" style="fill: none; stroke: #0000ff; stroke-width: 3; stroke-linecap: square"/>
   </g>
   <g id="line2d_32">
    <path d="M 148.834393 559.657748 
L 474.391324 559.657747 
L 475.522359 559.496144 
L 476.347154 556.106503 
L 477.171949 546.688854 
L 477.996745 532.58478 
L 482.120721 446.841011 
L 483.770312 422.117825 
L 485.419903 403.473111 
L 487.069494 386.625886 
L 488.719084 370.630686 
L 489.54388 363.403356 
L 492.018266 346.118838 
L 494.492652 331.843848 
L 496.142243 323.455377 
L 497.791833 317.108054 
L 500.266219 308.6902 
L 501.91581 304.288642 
L 503.565401 300.559986 
L 506.039787 295.77924 
L 506.864582 294.217753 
L 507.689378 292.924882 
L 509.338968 290.047088 
L 511.813354 285.852303 
L 513.53156 282.764489 
L 515.532138 279.675347 
L 517.883479 276.571973 
L 519.209351 275.201033 
L 520.648461 274.026301 
L 522.213559 273.126336 
L 523.914959 272.524097 
L 525.764855 272.243449 
L 527.776881 272.461208 
L 529.965976 273.259672 
L 534.942126 276.51538 
L 537.762087 279.163854 
L 540.83103 282.251391 
L 544.165925 284.851111 
L 547.789746 286.69843 
L 551.721424 287.658926 
L 555.980275 287.896505 
L 560.58374 287.690906 
L 565.543139 287.284351 
L 570.861092 286.605971 
L 576.520639 285.580987 
L 582.434635 284.072858 
L 588.373162 282.05906 
L 594.311688 279.109571 
L 600.250215 275.499503 
L 606.188741 271.061677 
L 612.127268 265.456754 
L 624.004321 253.780161 
L 635.881374 243.627755 
L 641.819901 237.326762 
L 647.758427 230.222743 
L 653.696954 222.513181 
L 659.63548 213.893288 
L 665.574007 209.520147 
L 673.96984 208.538769 
L 682.365674 207.935653 
L 690.761507 207.476413 
L 707.553174 206.785847 
L 715.949007 206.365518 
L 741.136507 205.701984 
L 774.71984 205.152319 
L 791.511507 204.997864 
L 833.490674 204.402748 
L 867.074007 203.93666 
L 867.074007 203.93666 
" clip-path="url(#pfc077b4a2a)" style="fill: none; stroke: #008000; stroke-width: 3; stroke-linecap: square"/>
   </g>
   <g id="line2d_33">
    <path d="M 148.834393 559.657748 
L 475.522359 559.597468 
L 476.347154 558.48558 
L 477.171949 554.941926 
L 477.996745 548.805986 
L 479.646335 532.385579 
L 482.120721 508.642873 
L 483.770312 496.267913 
L 486.244698 481.813482 
L 489.54388 464.260538 
L 492.843061 450.953342 
L 495.317447 442.38066 
L 496.142243 439.776981 
L 497.791833 435.619309 
L 500.266219 430.077046 
L 501.91581 427.150101 
L 503.565401 424.666157 
L 506.039787 421.393596 
L 507.689378 419.472235 
L 509.338968 417.711673 
L 514.494197 412.733355 
L 516.659653 411.128504 
L 517.883479 410.306408 
L 519.209351 409.717057 
L 520.648461 409.261726 
L 522.213559 409.001653 
L 523.914959 408.942993 
L 525.764855 409.04756 
L 527.776881 409.349655 
L 529.965976 409.94855 
L 534.942126 411.860596 
L 537.762087 413.392254 
L 540.83103 415.285685 
L 544.165925 416.95838 
L 547.789746 418.316438 
L 551.721424 419.237408 
L 555.980275 419.574845 
L 565.543139 419.489717 
L 576.520639 419.097468 
L 582.434635 418.827033 
L 588.373162 418.338247 
L 600.250215 416.763157 
L 606.188741 415.945332 
L 612.127268 414.99414 
L 624.004321 412.451756 
L 629.942848 411.479485 
L 635.881374 410.648837 
L 641.819901 409.674567 
L 647.758427 409.14877 
L 653.696954 408.361755 
L 659.63548 408.066028 
L 665.574007 407.882504 
L 682.365674 408.085626 
L 867.074007 408.542437 
L 867.074007 408.542437 
" clip-path="url(#pfc077b4a2a)" style="fill: none; stroke: #ffa500; stroke-width: 3; stroke-linecap: square"/>
   </g>
   <g id="patch_3">
    <path d="M 135.40106 627.417748 
L 135.40106 17.577748 
" style="fill: none; stroke: #000000; stroke-width: 0.8; stroke-linejoin: miter; stroke-linecap: square"/>
   </g>
   <g id="patch_4">
    <path d="M 860.80106 627.417748 
L 860.80106 17.577748 
" style="fill: none; stroke: #000000; stroke-width: 0.8; stroke-linejoin: miter; stroke-linecap: square"/>
   </g>
   <g id="patch_5">
    <path d="M 135.40106 627.417748 
L 860.80106 627.417748 
" style="fill: none; stroke: #000000; stroke-width: 0.8; stroke-linejoin: miter; stroke-linecap: square"/>
   </g>
   <g id="patch_6">
    <path d="M 135.40106 17.577748 
L 860.80106 17.577748 
" style="fill: none; stroke: #000000; stroke-width: 0.8; stroke-linejoin: miter; stroke-linecap: square"/>
   </g>
   <g id="legend_1">
    <g id="patch_7">
     <path d="M 159.90106 338.271855 
L 440.567374 338.271855 
Q 447.567374 338.271855 447.567374 331.271855 
L 447.567374 42.077748 
Q 447.567374 35.077748 440.567374 35.077748 
L 159.90106 35.077748 
Q 152.90106 35.077748 152.90106 42.077748 
L 152.90106 331.271855 
Q 152.90106 338.271855 159.90106 338.271855 
z
" style="fill: #ffffff; stroke: #cccccc; stroke-linejoin: miter"/>
    </g>
    <g id="patch_8">
     <path d="M 166.90106 73.577748 
L 236.90106 73.577748 
L 236.90106 49.077748 
L 166.90106 49.077748 
z
" style="fill: #99ccff; fill-opacity: 0.7"/>
    </g>
    <g id="text_18">
     <!-- $N: \mu \pm \sigma$ -->
     <g transform="translate(264.90106 73.577748) scale(0.35 -0.35)">
      <defs>
       <path id="CMMI12-4e" d="M 4736 3698 
C 4806 3974 4909 4166 5395 4166 
C 5414 4166 5491 4166 5491 4279 
C 5491 4352 5434 4352 5408 4352 
C 5280 4352 4954 4352 4826 4352 
L 4518 4352 
C 4429 4352 4314 4352 4224 4352 
C 4186 4352 4109 4352 4109 4230 
C 4109 4166 4160 4166 4205 4166 
C 4589 4166 4614 4019 4614 3903 
C 4614 3846 4608 3826 4589 3737 
L 3866 850 
L 2496 4249 
C 2451 4352 2445 4352 2304 4352 
L 1523 4352 
C 1395 4352 1338 4352 1338 4230 
C 1338 4166 1382 4166 1504 4166 
C 1536 4166 1914 4166 1914 4115 
C 1914 4102 1901 4051 1894 4032 
L 1043 635 
C 966 320 813 186 390 186 
C 358 186 294 186 294 67 
C 294 0 358 0 378 0 
C 506 0 832 0 960 0 
L 1267 0 
C 1357 0 1466 0 1555 0 
C 1600 0 1670 0 1670 122 
C 1670 180 1606 186 1581 186 
C 1370 186 1165 224 1165 454 
C 1165 505 1178 562 1190 613 
L 2054 4032 
C 2093 3968 2093 3956 2118 3898 
L 3642 115 
C 3674 38 3686 0 3744 0 
C 3808 0 3814 19 3840 128 
L 4736 3698 
z
" transform="scale(0.015625)"/>
       <path id="CMR17-3a" d="M 1062 2491 
C 1062 2650 934 2752 800 2752 
C 672 2752 538 2650 538 2491 
C 538 2332 666 2230 800 2230 
C 928 2230 1062 2332 1062 2491 
z
M 1062 261 
C 1062 420 934 522 800 522 
C 672 522 538 420 538 261 
C 538 102 666 0 800 0 
C 928 0 1062 102 1062 261 
z
" transform="scale(0.015625)"/>
       <path id="CMMI12-16" d="M 922 140 
C 1082 -6 1318 -64 1536 -64 
C 1946 -64 2227 208 2374 405 
C 2438 69 2707 -64 2931 -64 
C 3123 -64 3277 50 3392 277 
C 3494 493 3584 879 3584 903 
C 3584 935 3558 960 3520 960 
C 3462 960 3456 928 3430 834 
C 3334 461 3213 64 2950 64 
C 2765 64 2752 229 2752 358 
C 2752 504 2810 735 2854 926 
L 3034 1615 
C 3059 1737 3130 2023 3162 2139 
C 3200 2292 3270 2567 3270 2592 
C 3270 2688 3194 2752 3098 2752 
C 3040 2752 2906 2726 2854 2535 
L 2406 760 
C 2374 632 2374 619 2291 517 
C 2214 409 1965 64 1562 64 
C 1203 64 1088 326 1088 625 
C 1088 811 1146 1034 1171 1143 
L 1459 2293 
C 1491 2414 1542 2618 1542 2657 
C 1542 2759 1459 2816 1376 2816 
C 1318 2816 1178 2797 1126 2592 
L 198 -1107 
C 192 -1139 179 -1177 179 -1216 
C 179 -1312 256 -1376 352 -1376 
C 538 -1376 576 -1228 621 -1050 
L 922 140 
z
" transform="scale(0.015625)"/>
       <path id="CMSY10-6" d="M 2618 1984 
L 4397 1984 
C 4506 1984 4621 1984 4621 2112 
C 4621 2240 4506 2240 4397 2240 
L 2618 2240 
L 2618 4018 
C 2618 4121 2618 4256 2490 4256 
C 2362 4256 2362 4140 2362 4038 
L 2362 2240 
L 576 2240 
C 467 2240 352 2240 352 2112 
C 352 1984 467 1984 576 1984 
L 2362 1984 
L 2362 256 
L 576 256 
C 467 256 352 256 352 128 
C 352 0 467 0 576 0 
L 4397 0 
C 4506 0 4621 0 4621 128 
C 4621 256 4506 256 4397 256 
L 2618 256 
L 2618 1984 
z
" transform="scale(0.015625)"/>
       <path id="CMMI12-1b" d="M 3251 2408 
C 3334 2408 3546 2408 3546 2612 
C 3546 2752 3424 2752 3309 2752 
L 1894 2752 
C 934 2752 243 1686 243 932 
C 243 390 595 -64 1171 -64 
C 1926 -64 2752 747 2752 1705 
C 2752 1954 2694 2196 2541 2408 
L 3251 2408 
z
M 1178 64 
C 851 64 614 313 614 754 
C 614 1137 845 2408 1786 2408 
C 2061 2408 2368 2274 2368 1781 
C 2368 1558 2266 1021 2042 652 
C 1811 275 1466 64 1178 64 
z
" transform="scale(0.015625)"/>
      </defs>
      <use xlink:href="#CMMI12-4e" transform="scale(0.996264)"/>
      <use xlink:href="#CMR17-3a" transform="translate(116.195781 0) scale(0.996264)"/>
      <use xlink:href="#CMMI12-16" transform="translate(168.740849 0) scale(0.996264)"/>
      <use xlink:href="#CMSY10-6" transform="translate(249.571477 0) scale(0.996264)"/>
      <use xlink:href="#CMMI12-1b" transform="translate(349.198152 0) scale(0.996264)"/>
     </g>
    </g>
    <g id="line2d_34">
     <path d="M 166.90106 110.110099 
L 201.90106 110.110099 
L 236.90106 110.110099 
" style="fill: none; stroke: #0000ff; stroke-width: 3; stroke-linecap: square"/>
    </g>
    <g id="text_19">
     <!-- $N: \mu$ -->
     <g transform="translate(264.90106 122.360099) scale(0.35 -0.35)">
      <use xlink:href="#CMMI12-4e" transform="scale(0.996264)"/>
      <use xlink:href="#CMR17-3a" transform="translate(116.195781 0) scale(0.996264)"/>
      <use xlink:href="#CMMI12-16" transform="translate(168.740849 0) scale(0.996264)"/>
     </g>
    </g>
    <g id="patch_9">
     <path d="M 166.90106 171.14245 
L 236.90106 171.14245 
L 236.90106 146.64245 
L 166.90106 146.64245 
z
" style="fill: #008000; fill-opacity: 0.2"/>
    </g>
    <g id="text_20">
     <!-- $O: \mu \pm \sigma$ -->
     <g transform="translate(264.90106 171.14245) scale(0.35 -0.35)">
      <defs>
       <path id="CMMI12-4f" d="M 4646 2797 
C 4646 3848 3955 4492 3059 4492 
C 1690 4492 307 3026 307 1554 
C 307 554 973 -128 1901 -128 
C 3245 -128 4646 1268 4646 2797 
z
M 1939 19 
C 1414 19 858 401 858 1395 
C 858 1974 1069 2924 1594 3562 
C 2061 4123 2598 4352 3027 4352 
C 3590 4352 4134 3944 4134 3026 
C 4134 2459 3891 1573 3462 968 
C 2995 318 2413 19 1939 19 
z
" transform="scale(0.015625)"/>
      </defs>
      <use xlink:href="#CMMI12-4f" transform="scale(0.996264)"/>
      <use xlink:href="#CMR17-3a" transform="translate(104.934407 0) scale(0.996264)"/>
      <use xlink:href="#CMMI12-16" transform="translate(157.479475 0) scale(0.996264)"/>
      <use xlink:href="#CMSY10-6" transform="translate(238.310103 0) scale(0.996264)"/>
      <use xlink:href="#CMMI12-1b" transform="translate(337.936778 0) scale(0.996264)"/>
     </g>
    </g>
    <g id="line2d_35">
     <path d="M 166.90106 207.674801 
L 201.90106 207.674801 
L 236.90106 207.674801 
" style="fill: none; stroke: #008000; stroke-width: 3; stroke-linecap: square"/>
    </g>
    <g id="text_21">
     <!-- $O: \mu $ -->
     <g transform="translate(264.90106 219.924801) scale(0.35 -0.35)">
      <use xlink:href="#CMMI12-4f" transform="scale(0.996264)"/>
      <use xlink:href="#CMR17-3a" transform="translate(104.934407 0) scale(0.996264)"/>
      <use xlink:href="#CMMI12-16" transform="translate(157.479475 0) scale(0.996264)"/>
     </g>
    </g>
    <g id="patch_10">
     <path d="M 166.90106 268.707152 
L 236.90106 268.707152 
L 236.90106 244.207152 
L 166.90106 244.207152 
z
" style="fill: #ffa500; fill-opacity: 0.2"/>
    </g>
    <g id="text_22">
     <!-- $NO: \mu \pm \sigma$ -->
     <g transform="translate(264.90106 268.707152) scale(0.35 -0.35)">
      <use xlink:href="#CMMI12-4e" transform="scale(0.996264)"/>
      <use xlink:href="#CMMI12-4f" transform="translate(88.521773 0) scale(0.996264)"/>
      <use xlink:href="#CMR17-3a" transform="translate(193.45618 0) scale(0.996264)"/>
      <use xlink:href="#CMMI12-16" transform="translate(246.001247 0) scale(0.996264)"/>
      <use xlink:href="#CMSY10-6" transform="translate(326.831876 0) scale(0.996264)"/>
      <use xlink:href="#CMMI12-1b" transform="translate(426.45855 0) scale(0.996264)"/>
     </g>
    </g>
    <g id="line2d_36">
     <path d="M 166.90106 305.239504 
L 201.90106 305.239504 
L 236.90106 305.239504 
" style="fill: none; stroke: #ffa500; stroke-width: 3; stroke-linecap: square"/>
    </g>
    <g id="text_23">
     <!-- $NO: \mu$ -->
     <g transform="translate(264.90106 317.489504) scale(0.35 -0.35)">
      <use xlink:href="#CMMI12-4e" transform="scale(0.996264)"/>
      <use xlink:href="#CMMI12-4f" transform="translate(88.521773 0) scale(0.996264)"/>
      <use xlink:href="#CMR17-3a" transform="translate(193.45618 0) scale(0.996264)"/>
      <use xlink:href="#CMMI12-16" transform="translate(246.001247 0) scale(0.996264)"/>
     </g>
    </g>
   </g>
  </g>
 </g>
 <defs>
  <clipPath id="pfc077b4a2a">
   <rect x="135.40106" y="17.577748" width="725.4" height="609.84"/>
  </clipPath>
 </defs>
</svg>
