<?xml version="1.0" encoding="utf-8" standalone="no"?>
<!DOCTYPE svg PUBLIC "-//W3C//DTD SVG 1.1//EN"
  "http://www.w3.org/Graphics/SVG/1.1/DTD/svg11.dtd">
<svg xmlns:xlink="http://www.w3.org/1999/xlink" width="814.732464pt" height="692.806049pt" viewBox="0 0 814.732464 692.806049" xmlns="http://www.w3.org/2000/svg" version="1.1">
 <metadata>
  <rdf:RDF xmlns:dc="http://purl.org/dc/elements/1.1/" xmlns:cc="http://creativecommons.org/ns#" xmlns:rdf="http://www.w3.org/1999/02/22-rdf-syntax-ns#">
   <cc:Work>
    <dc:type rdf:resource="http://purl.org/dc/dcmitype/StillImage"/>
    <dc:date>2025-03-26T12:44:09.441762</dc:date>
    <dc:format>image/svg+xml</dc:format>
    <dc:creator>
     <cc:Agent>
      <dc:title>Matplotlib v3.7.1, https://matplotlib.org/</dc:title>
     </cc:Agent>
    </dc:creator>
   </cc:Work>
  </rdf:RDF>
 </metadata>
 <defs>
  <style type="text/css">*{stroke-linejoin: round; stroke-linecap: butt}</style>
 </defs>
 <g id="figure_1">
  <g id="patch_1">
   <path d="M 0 692.806049 
L 814.732464 692.806049 
L 814.732464 0 
L 0 0 
z
" style="fill: #ffffff"/>
  </g>
  <g id="axes_1">
   <g id="patch_2">
    <path d="M 82.132464 617.04 
L 807.532464 617.04 
L 807.532464 7.2 
L 82.132464 7.2 
z
" style="fill: #ffffff"/>
   </g>
   <g id="PolyCollection_1">
    <path d="M 95.565797 522.76974 
L 95.565797 514.981791 
L 113.82296 514.981791 
L 127.150808 514.981791 
L 136.88038 514.981791 
L 143.983365 514.981791 
L 149.169117 514.981791 
L 152.955507 514.981791 
L 155.720628 514.981791 
L 157.740536 514.981833 
L 159.216804 514.967927 
L 160.395535 513.222732 
L 161.564 505.36486 
L 162.732464 462.796494 
L 163.93003 424.508897 
L 165.127596 393.589733 
L 166.325161 386.977525 
L 167.522727 385.281722 
L 168.720293 388.95022 
L 169.917859 392.861341 
L 171.115425 396.3322 
L 172.312991 394.029261 
L 173.510557 394.524166 
L 174.708122 394.276286 
L 175.905688 394.258934 
L 177.103254 393.912602 
L 178.30082 393.598509 
L 179.498386 393.105758 
L 180.695952 392.755181 
L 181.893518 392.239339 
L 183.091083 391.848709 
L 184.288649 391.289868 
L 185.486215 390.943012 
L 186.683781 390.708438 
L 187.881347 390.621962 
L 189.078913 390.451426 
L 190.276478 390.422374 
L 191.474044 390.442741 
L 192.67161 390.340507 
L 193.869176 390.200126 
L 195.066742 390.211598 
L 196.264308 390.279943 
L 197.461874 390.41368 
L 198.659439 390.396657 
L 199.857005 390.354649 
L 201.054571 390.314641 
L 202.252137 390.359214 
L 203.449703 390.526447 
L 204.64727 390.655572 
L 205.875006 390.733073 
L 207.146608 390.808465 
L 208.463968 390.88725 
L 209.829608 391.003356 
L 211.24611 391.127937 
L 212.714959 391.215332 
L 214.237923 391.307785 
L 215.817065 391.385624 
L 217.45465 391.438081 
L 219.152109 391.503261 
L 220.911216 391.578973 
L 222.734445 391.630719 
L 224.625128 391.695811 
L 226.587023 391.796869 
L 228.619242 391.865611 
L 230.726355 391.907665 
L 232.9122 391.939132 
L 235.176907 391.982948 
L 237.526301 392.036488 
L 239.961686 392.098141 
L 242.48595 392.189307 
L 245.104171 392.265537 
L 247.818657 392.336155 
L 250.632799 392.398247 
L 253.550458 392.465434 
L 256.575581 392.536008 
L 259.712074 392.599789 
L 262.963908 392.66451 
L 266.335378 392.723422 
L 269.83151 392.7752 
L 273.456199 392.836037 
L 277.214186 392.889906 
L 281.110791 392.961006 
L 285.151063 393.077562 
L 289.33984 393.13472 
L 293.682881 393.222567 
L 298.186044 393.305233 
L 302.855204 393.419999 
L 307.69626 393.49929 
L 312.690082 393.592965 
L 317.827904 393.653717 
L 323.154862 393.756508 
L 328.678419 393.850868 
L 334.405443 393.97894 
L 340.343562 394.095156 
L 346.500604 394.204397 
L 352.884536 394.293164 
L 359.50381 394.466468 
L 366.367211 394.620072 
L 373.483619 394.744527 
L 380.862319 394.853371 
L 388.513042 394.968025 
L 396.0659 395.049588 
L 401.70282 395.10791 
L 405.717076 395.128964 
L 408.576271 395.145152 
L 410.613207 395.149712 
L 412.06472 395.161044 
L 413.205487 395.171544 
L 414.336522 395.181099 
L 415.467556 395.191955 
L 416.598591 395.202659 
L 417.729625 395.21417 
L 418.860659 395.223924 
L 419.991694 395.234064 
L 421.122728 394.503978 
L 422.253763 236.907066 
L 423.078558 -16.440388 
L 423.903353 55.44927 
L 424.728149 76.274119 
L 425.552944 97.668105 
L 426.377739 115.798322 
L 427.202535 131.473913 
L 428.02733 145.53588 
L 428.852125 157.380551 
L 429.676921 167.081469 
L 430.501716 175.184635 
L 431.326511 181.814936 
L 432.151307 187.667121 
L 432.976102 193.18702 
L 433.800898 197.962497 
L 434.625693 202.606035 
L 435.450488 206.638571 
L 436.275284 210.361908 
L 437.100079 213.403005 
L 437.924874 216.29504 
L 438.74967 218.965159 
L 439.574465 221.418972 
L 440.39926 223.607692 
L 441.224056 225.705218 
L 442.048851 227.78777 
L 442.873646 229.693481 
L 443.698442 231.267584 
L 444.523237 232.72316 
L 445.348033 234.092089 
L 446.172828 235.484627 
L 446.997623 236.755333 
L 447.822419 237.9253 
L 448.647214 238.99684 
L 449.472009 240.033967 
L 450.296805 241.044962 
L 451.1216 242.033252 
L 451.946395 243.02825 
L 452.771191 244.007154 
L 453.595986 245.030127 
L 454.420781 246.002969 
L 455.245577 247.0704 
L 456.070372 248.180336 
L 456.895168 249.356158 
L 457.719963 250.625438 
L 458.544758 252.13167 
L 459.378 253.777134 
L 460.262964 255.663532 
L 461.225601 257.856871 
L 462.263542 260.264921 
L 463.391057 263.409069 
L 464.614883 266.811043 
L 465.940755 271.220054 
L 467.379865 276.309725 
L 468.944963 282.038227 
L 470.646363 287.694561 
L 472.496259 292.901656 
L 474.508285 298.489156 
L 476.69738 303.70895 
L 479.080106 308.074485 
L 481.67353 311.353611 
L 484.493491 312.985253 
L 487.562434 313.63427 
L 490.897329 313.024343 
L 494.52115 311.001514 
L 498.452828 308.620431 
L 502.711679 306.438017 
L 507.315144 304.520645 
L 512.274543 302.44722 
L 517.592496 299.630928 
L 523.252043 296.65613 
L 529.166039 293.711086 
L 535.104565 291.013094 
L 541.043092 288.609063 
L 546.981619 286.638189 
L 552.920145 284.814574 
L 558.858672 283.107408 
L 564.797198 281.786021 
L 570.735725 280.735874 
L 576.674251 279.969546 
L 582.612778 279.207329 
L 588.551305 278.236835 
L 594.489831 277.269389 
L 600.428358 276.445585 
L 606.366884 276.600179 
L 612.305411 334.840736 
L 620.701244 461.381131 
L 629.097078 473.908581 
L 637.492911 479.400848 
L 645.888744 479.250853 
L 654.284578 478.520636 
L 662.680411 477.681236 
L 671.076244 476.797701 
L 679.472078 475.76578 
L 687.867911 474.920203 
L 696.263744 474.171592 
L 704.659578 473.747616 
L 713.055411 473.484837 
L 721.451244 473.242607 
L 729.847078 472.884106 
L 738.242911 472.540516 
L 746.638744 472.120441 
L 755.034578 471.698283 
L 763.430411 471.230792 
L 771.826244 470.858037 
L 780.222078 470.537486 
L 788.617911 470.334889 
L 797.013744 470.035517 
L 805.409578 469.83133 
L 813.805411 469.618344 
L 813.805411 490.183266 
L 813.805411 490.183266 
L 805.409578 490.287586 
L 797.013744 490.424103 
L 788.617911 490.771602 
L 780.222078 491.093124 
L 771.826244 491.353861 
L 763.430411 491.627992 
L 755.034578 491.852701 
L 746.638744 492.183182 
L 738.242911 492.51724 
L 729.847078 492.84663 
L 721.451244 493.392043 
L 713.055411 493.891913 
L 704.659578 494.299419 
L 696.263744 494.551671 
L 687.867911 494.771945 
L 679.472078 495.175029 
L 671.076244 495.583494 
L 662.680411 496.114459 
L 654.284578 496.876868 
L 645.888744 498.355282 
L 637.492911 496.978387 
L 629.097078 494.381047 
L 620.701244 490.913698 
L 612.305411 367.870313 
L 606.366884 314.177755 
L 600.428358 316.414807 
L 594.489831 317.114796 
L 588.551305 317.886596 
L 582.612778 318.582475 
L 576.674251 318.940983 
L 570.735725 319.307758 
L 564.797198 319.920259 
L 558.858672 320.7593 
L 552.920145 322.018669 
L 546.981619 323.410593 
L 541.043092 324.899313 
L 535.104565 326.60271 
L 529.166039 328.393112 
L 523.252043 330.270105 
L 517.592496 332.020241 
L 512.274543 333.631481 
L 507.315144 334.657395 
L 502.711679 335.518805 
L 498.452828 336.541041 
L 494.52115 338.047758 
L 490.897329 339.203536 
L 487.562434 339.301534 
L 484.493491 338.408462 
L 481.67353 336.387509 
L 479.080106 332.64517 
L 476.69738 328.171068 
L 474.508285 322.803561 
L 472.496259 317.217911 
L 470.646363 311.935512 
L 468.944963 306.272473 
L 467.379865 300.57055 
L 465.940755 295.689573 
L 464.614883 291.880901 
L 463.391057 288.838461 
L 462.263542 285.77618 
L 461.225601 283.512663 
L 460.262964 281.410158 
L 459.378 279.574121 
L 458.544758 278.004937 
L 457.719963 276.526927 
L 456.895168 275.343486 
L 456.070372 274.258667 
L 455.245577 273.209788 
L 454.420781 272.211233 
L 453.595986 271.319534 
L 452.771191 270.36181 
L 451.946395 269.433242 
L 451.1216 268.506788 
L 450.296805 267.588689 
L 449.472009 266.67471 
L 448.647214 265.710859 
L 447.822419 264.718231 
L 446.997623 263.616217 
L 446.172828 262.407234 
L 445.348033 261.107015 
L 444.523237 259.844027 
L 443.698442 258.507974 
L 442.873646 257.103881 
L 442.048851 255.39867 
L 441.224056 253.58203 
L 440.39926 251.806636 
L 439.574465 250.00194 
L 438.74967 248.013472 
L 437.924874 245.88345 
L 437.100079 243.613349 
L 436.275284 241.395705 
L 435.450488 238.542595 
L 434.625693 235.503519 
L 433.800898 231.998127 
L 432.976102 228.697268 
L 432.151307 224.39937 
L 431.326511 220.007836 
L 430.501716 215.009501 
L 429.676921 209.060402 
L 428.852125 202.088486 
L 428.02733 193.498603 
L 427.202535 183.164089 
L 426.377739 172.947336 
L 425.552944 160.240028 
L 424.728149 144.059339 
L 423.903353 126.487061 
L 423.078558 144.468038 
L 422.253763 334.841263 
L 421.122728 426.707025 
L 419.991694 423.240967 
L 418.860659 423.241581 
L 417.729625 423.243271 
L 416.598591 423.240583 
L 415.467556 423.2372 
L 414.336522 423.232977 
L 413.205487 423.229324 
L 412.06472 423.223756 
L 410.613207 423.21177 
L 408.576271 423.186648 
L 405.717076 423.160289 
L 401.70282 423.115677 
L 396.0659 423.072417 
L 388.513042 423.026954 
L 380.862319 422.997331 
L 373.483619 422.99391 
L 366.367211 422.993602 
L 359.50381 422.993022 
L 352.884536 422.95371 
L 346.500604 422.980613 
L 340.343562 422.973189 
L 334.405443 422.973693 
L 328.678419 422.986556 
L 323.154862 422.990238 
L 317.827904 422.968025 
L 312.690082 422.954641 
L 307.69626 422.942519 
L 302.855204 422.963015 
L 298.186044 422.965854 
L 293.682881 422.942394 
L 289.33984 422.908882 
L 285.151063 422.873873 
L 281.110791 422.809764 
L 277.214186 422.803758 
L 273.456199 422.815954 
L 269.83151 422.811072 
L 266.335378 422.793485 
L 262.963908 422.77895 
L 259.712074 422.770961 
L 256.575581 422.7772 
L 253.550458 422.781577 
L 250.632799 422.788019 
L 247.818657 422.760663 
L 245.104171 422.750819 
L 242.48595 422.749482 
L 239.961686 422.763636 
L 237.526301 422.751924 
L 235.176907 422.758238 
L 232.9122 422.736269 
L 230.726355 422.736919 
L 228.619242 422.757818 
L 226.587023 422.811394 
L 224.625128 422.875207 
L 222.734445 422.909231 
L 220.911216 422.947586 
L 219.152109 422.961595 
L 217.45465 422.993263 
L 215.817065 423.018817 
L 214.237923 423.027982 
L 212.714959 423.056697 
L 211.24611 423.108814 
L 209.829608 423.12825 
L 208.463968 423.172753 
L 207.146608 423.208732 
L 205.875006 423.197507 
L 204.64727 423.239036 
L 203.449703 423.359706 
L 202.252137 423.516701 
L 201.054571 423.572608 
L 199.857005 423.54276 
L 198.659439 423.525346 
L 197.461874 423.555346 
L 196.264308 423.75235 
L 195.066742 423.868647 
L 193.869176 423.943573 
L 192.67161 423.824257 
L 191.474044 423.810677 
L 190.276478 423.884925 
L 189.078913 423.971466 
L 187.881347 424.011793 
L 186.683781 424.00496 
L 185.486215 424.007451 
L 184.288649 423.793061 
L 183.091083 423.636878 
L 181.893518 423.299113 
L 180.695952 423.268012 
L 179.498386 423.001831 
L 178.30082 423.00546 
L 177.103254 422.618804 
L 175.905688 422.25554 
L 174.708122 421.547897 
L 173.510557 421.148076 
L 172.312991 420.561066 
L 171.115425 421.304673 
L 169.917859 425.265221 
L 168.720293 427.990252 
L 167.522727 427.397215 
L 166.325161 435.98036 
L 165.127596 438.651563 
L 163.93003 469.547739 
L 162.732464 493.301762 
L 161.564 516.353573 
L 160.395535 522.176048 
L 159.216804 522.756428 
L 157.740536 522.769782 
L 155.720628 522.76974 
L 152.955507 522.76974 
L 149.169117 522.76974 
L 143.983365 522.76974 
L 136.88038 522.76974 
L 127.150808 522.76974 
L 113.82296 522.76974 
L 95.565797 522.76974 
z
" clip-path="url(#p9317191327)" style="fill: #99ccff; fill-opacity: 0.7"/>
   </g>
   <g id="matplotlib.axis_1">
    <g id="xtick_1">
     <g id="line2d_1">
      <path d="M 162.732464 617.04 
L 162.732464 7.2 
" clip-path="url(#p9317191327)" style="fill: none; stroke: #b0b0b0; stroke-width: 0.8; stroke-linecap: square"/>
     </g>
     <g id="line2d_2">
      <defs>
       <path id="m6c12176963" d="M 0 0 
L 0 3.5 
" style="stroke: #000000; stroke-width: 0.8"/>
      </defs>
      <g>
       <use xlink:href="#m6c12176963" x="162.732464" y="617.04" style="stroke: #000000; stroke-width: 0.8"/>
      </g>
     </g>
     <g id="text_1">
      <!-- $\mathdefault{0.0}$ -->
      <g transform="translate(144.960744 644.795495) scale(0.3 -0.3)">
       <defs>
        <path id="CMR17-30" d="M 2688 2025 
C 2688 2416 2682 3080 2413 3591 
C 2176 4039 1798 4198 1466 4198 
C 1158 4198 768 4058 525 3597 
C 269 3118 243 2524 243 2025 
C 243 1661 250 1106 448 619 
C 723 -39 1216 -128 1466 -128 
C 1760 -128 2208 -7 2470 600 
C 2662 1042 2688 1559 2688 2025 
z
M 1466 -26 
C 1056 -26 813 325 723 812 
C 653 1188 653 1738 653 2096 
C 653 2588 653 2997 736 3387 
C 858 3929 1216 4096 1466 4096 
C 1728 4096 2067 3923 2189 3400 
C 2272 3036 2278 2607 2278 2096 
C 2278 1680 2278 1169 2202 792 
C 2067 95 1690 -26 1466 -26 
z
" transform="scale(0.015625)"/>
        <path id="CMMI12-3a" d="M 1178 307 
C 1178 492 1024 619 870 619 
C 685 619 557 466 557 313 
C 557 128 710 0 864 0 
C 1050 0 1178 153 1178 307 
z
" transform="scale(0.015625)"/>
       </defs>
       <use xlink:href="#CMR17-30" transform="scale(0.996264)"/>
       <use xlink:href="#CMMI12-3a" transform="translate(45.690477 0) scale(0.996264)"/>
       <use xlink:href="#CMR17-30" transform="translate(72.787654 0) scale(0.996264)"/>
      </g>
     </g>
    </g>
    <g id="xtick_2">
     <g id="line2d_3">
      <path d="M 297.065797 617.04 
L 297.065797 7.2 
" clip-path="url(#p9317191327)" style="fill: none; stroke: #b0b0b0; stroke-width: 0.8; stroke-linecap: square"/>
     </g>
     <g id="line2d_4">
      <g>
       <use xlink:href="#m6c12176963" x="297.065797" y="617.04" style="stroke: #000000; stroke-width: 0.8"/>
      </g>
     </g>
     <g id="text_2">
      <!-- $\mathdefault{0.1}$ -->
      <g transform="translate(279.294078 644.795495) scale(0.3 -0.3)">
       <defs>
        <path id="CMR17-31" d="M 1702 4058 
C 1702 4192 1696 4192 1606 4192 
C 1357 3916 979 3827 621 3827 
C 602 3827 570 3827 563 3808 
C 557 3795 557 3782 557 3648 
C 755 3648 1088 3686 1344 3839 
L 1344 461 
C 1344 236 1331 160 781 160 
L 589 160 
L 589 0 
C 896 0 1216 0 1523 0 
C 1830 0 2150 0 2458 0 
L 2458 160 
L 2266 160 
C 1715 160 1702 230 1702 458 
L 1702 4058 
z
" transform="scale(0.015625)"/>
       </defs>
       <use xlink:href="#CMR17-30" transform="scale(0.996264)"/>
       <use xlink:href="#CMMI12-3a" transform="translate(45.690477 0) scale(0.996264)"/>
       <use xlink:href="#CMR17-31" transform="translate(72.787654 0) scale(0.996264)"/>
      </g>
     </g>
    </g>
    <g id="xtick_3">
     <g id="line2d_5">
      <path d="M 431.399131 617.04 
L 431.399131 7.2 
" clip-path="url(#p9317191327)" style="fill: none; stroke: #b0b0b0; stroke-width: 0.8; stroke-linecap: square"/>
     </g>
     <g id="line2d_6">
      <g>
       <use xlink:href="#m6c12176963" x="431.399131" y="617.04" style="stroke: #000000; stroke-width: 0.8"/>
      </g>
     </g>
     <g id="text_3">
      <!-- $\mathdefault{0.2}$ -->
      <g transform="translate(413.627411 644.795495) scale(0.3 -0.3)">
       <defs>
        <path id="CMR17-32" d="M 2669 989 
L 2554 989 
C 2490 536 2438 459 2413 420 
C 2381 369 1920 369 1830 369 
L 602 369 
C 832 619 1280 1072 1824 1597 
C 2214 1967 2669 2402 2669 3035 
C 2669 3790 2067 4224 1395 4224 
C 691 4224 262 3604 262 3030 
C 262 2780 448 2748 525 2748 
C 589 2748 781 2787 781 3010 
C 781 3207 614 3264 525 3264 
C 486 3264 448 3258 422 3245 
C 544 3790 915 4058 1306 4058 
C 1862 4058 2227 3617 2227 3035 
C 2227 2479 1901 2000 1536 1584 
L 262 146 
L 262 0 
L 2515 0 
L 2669 989 
z
" transform="scale(0.015625)"/>
       </defs>
       <use xlink:href="#CMR17-30" transform="scale(0.996264)"/>
       <use xlink:href="#CMMI12-3a" transform="translate(45.690477 0) scale(0.996264)"/>
       <use xlink:href="#CMR17-32" transform="translate(72.787654 0) scale(0.996264)"/>
      </g>
     </g>
    </g>
    <g id="xtick_4">
     <g id="line2d_7">
      <path d="M 565.732464 617.04 
L 565.732464 7.2 
" clip-path="url(#p9317191327)" style="fill: none; stroke: #b0b0b0; stroke-width: 0.8; stroke-linecap: square"/>
     </g>
     <g id="line2d_8">
      <g>
       <use xlink:href="#m6c12176963" x="565.732464" y="617.04" style="stroke: #000000; stroke-width: 0.8"/>
      </g>
     </g>
     <g id="text_4">
      <!-- $\mathdefault{0.3}$ -->
      <g transform="translate(547.960744 644.795495) scale(0.3 -0.3)">
       <defs>
        <path id="CMR17-33" d="M 1414 2157 
C 1984 2157 2234 1662 2234 1090 
C 2234 320 1824 25 1453 25 
C 1114 25 563 194 390 693 
C 422 680 454 680 486 680 
C 640 680 755 782 755 948 
C 755 1133 614 1216 486 1216 
C 378 1216 211 1165 211 926 
C 211 335 787 -128 1466 -128 
C 2176 -128 2720 430 2720 1085 
C 2720 1707 2208 2157 1600 2227 
C 2086 2328 2554 2756 2554 3329 
C 2554 3820 2048 4179 1472 4179 
C 890 4179 378 3829 378 3329 
C 378 3110 544 3072 627 3072 
C 762 3072 877 3155 877 3321 
C 877 3486 762 3569 627 3569 
C 602 3569 570 3569 544 3557 
C 730 3959 1235 4032 1459 4032 
C 1683 4032 2106 3925 2106 3320 
C 2106 3143 2080 2828 1862 2550 
C 1670 2304 1453 2304 1242 2284 
C 1210 2284 1062 2269 1037 2269 
C 992 2263 966 2257 966 2208 
C 966 2163 973 2157 1101 2157 
L 1414 2157 
z
" transform="scale(0.015625)"/>
       </defs>
       <use xlink:href="#CMR17-30" transform="scale(0.996264)"/>
       <use xlink:href="#CMMI12-3a" transform="translate(45.690477 0) scale(0.996264)"/>
       <use xlink:href="#CMR17-33" transform="translate(72.787654 0) scale(0.996264)"/>
      </g>
     </g>
    </g>
    <g id="xtick_5">
     <g id="line2d_9">
      <path d="M 700.065797 617.04 
L 700.065797 7.2 
" clip-path="url(#p9317191327)" style="fill: none; stroke: #b0b0b0; stroke-width: 0.8; stroke-linecap: square"/>
     </g>
     <g id="line2d_10">
      <g>
       <use xlink:href="#m6c12176963" x="700.065797" y="617.04" style="stroke: #000000; stroke-width: 0.8"/>
      </g>
     </g>
     <g id="text_5">
      <!-- $\mathdefault{0.4}$ -->
      <g transform="translate(682.294078 644.795495) scale(0.3 -0.3)">
       <defs>
        <path id="CMR17-34" d="M 2150 4122 
C 2150 4256 2144 4256 2029 4256 
L 128 1254 
L 128 1088 
L 1779 1088 
L 1779 457 
C 1779 224 1766 160 1318 160 
L 1197 160 
L 1197 0 
C 1402 0 1747 0 1965 0 
C 2182 0 2528 0 2733 0 
L 2733 160 
L 2611 160 
C 2163 160 2150 224 2150 457 
L 2150 1088 
L 2803 1088 
L 2803 1254 
L 2150 1254 
L 2150 4122 
z
M 1798 3703 
L 1798 1254 
L 256 1254 
L 1798 3703 
z
" transform="scale(0.015625)"/>
       </defs>
       <use xlink:href="#CMR17-30" transform="scale(0.996264)"/>
       <use xlink:href="#CMMI12-3a" transform="translate(45.690477 0) scale(0.996264)"/>
       <use xlink:href="#CMR17-34" transform="translate(72.787654 0) scale(0.996264)"/>
      </g>
     </g>
    </g>
    <g id="text_6">
     <!-- $x, \; \mathrm{m} $ -->
     <g transform="translate(409.179861 678.823697) scale(0.35 -0.35)">
      <defs>
       <path id="CMMI12-78" d="M 3034 2606 
C 2829 2567 2752 2414 2752 2293 
C 2752 2139 2874 2088 2963 2088 
C 3155 2088 3290 2254 3290 2427 
C 3290 2695 2982 2816 2714 2816 
C 2323 2816 2106 2433 2048 2312 
C 1901 2816 1504 2816 1389 2816 
C 736 2816 390 1980 390 1839 
C 390 1814 416 1782 461 1782 
C 512 1782 525 1820 538 1846 
C 755 2555 1184 2689 1370 2689 
C 1658 2689 1715 2420 1715 2267 
C 1715 2127 1677 1980 1600 1673 
L 1382 798 
C 1286 415 1101 64 762 64 
C 730 64 570 64 435 147 
C 666 192 717 383 717 460 
C 717 588 621 664 499 664 
C 346 664 179 530 179 326 
C 179 57 480 -64 755 -64 
C 1062 -64 1280 179 1414 441 
C 1517 64 1837 -64 2074 -64 
C 2726 -64 3072 773 3072 913 
C 3072 945 3046 971 3008 971 
C 2950 971 2944 939 2925 888 
C 2752 326 2381 64 2093 64 
C 1869 64 1747 230 1747 492 
C 1747 632 1773 734 1875 1156 
L 2099 2024 
C 2195 2408 2413 2689 2707 2689 
C 2720 2689 2899 2689 3034 2606 
z
" transform="scale(0.015625)"/>
       <path id="CMMI12-3b" d="M 1248 -31 
C 1248 343 1126 619 864 619 
C 659 619 557 453 557 313 
C 557 172 653 0 870 0 
C 954 0 1024 26 1082 83 
C 1094 96 1101 96 1107 96 
C 1120 96 1120 5 1120 -27 
C 1120 -240 1082 -659 710 -1080 
C 640 -1157 640 -1170 640 -1183 
C 640 -1216 672 -1248 704 -1248 
C 755 -1248 1248 -771 1248 -31 
z
" transform="scale(0.015625)"/>
       <path id="CMR17-6d" d="M 4326 1933 
C 4326 2252 4269 2790 3507 2790 
C 3072 2790 2771 2496 2656 2151 
L 2650 2151 
C 2573 2676 2195 2790 1837 2790 
C 1331 2790 1069 2400 973 2144 
L 966 2144 
L 966 2790 
L 211 2720 
L 211 2554 
C 589 2554 646 2515 646 2208 
L 646 428 
C 646 184 621 153 211 153 
L 211 -13 
C 365 0 646 0 813 0 
C 979 0 1267 0 1421 -13 
L 1421 153 
C 1011 153 986 178 986 428 
L 986 1658 
C 986 2247 1344 2688 1792 2688 
C 2266 2688 2317 2266 2317 1958 
L 2317 428 
C 2317 184 2291 153 1882 153 
L 1882 -13 
C 2035 0 2317 0 2483 0 
C 2650 0 2938 0 3091 -13 
L 3091 153 
C 2682 153 2656 178 2656 428 
L 2656 1658 
C 2656 2247 3014 2688 3462 2688 
C 3936 2688 3987 2266 3987 1958 
L 3987 428 
C 3987 184 3962 153 3552 153 
L 3552 -13 
C 3706 0 3987 0 4154 0 
C 4320 0 4608 0 4762 -13 
L 4762 153 
C 4352 153 4326 178 4326 428 
L 4326 1933 
z
" transform="scale(0.015625)"/>
      </defs>
      <use xlink:href="#CMMI12-78" transform="scale(0.996264)"/>
      <use xlink:href="#CMMI12-3b" transform="translate(55.43406 0) scale(0.996264)"/>
      <use xlink:href="#CMR17-6d" transform="translate(126.809651 0) scale(0.996264)"/>
     </g>
    </g>
   </g>
   <g id="matplotlib.axis_2">
    <g id="ytick_1">
     <g id="line2d_11">
      <path d="M 82.132464 583.16 
L 807.532464 583.16 
" clip-path="url(#p9317191327)" style="fill: none; stroke: #b0b0b0; stroke-width: 0.8; stroke-linecap: square"/>
     </g>
     <g id="line2d_12">
      <defs>
       <path id="m2c70bd2614" d="M 0 0 
L -3.5 0 
" style="stroke: #000000; stroke-width: 0.8"/>
      </defs>
      <g>
       <use xlink:href="#m2c70bd2614" x="82.132464" y="583.16" style="stroke: #000000; stroke-width: 0.8"/>
      </g>
     </g>
     <g id="text_7">
      <!-- $\mathdefault{0}$ -->
      <g transform="translate(61.425321 593.537748) scale(0.3 -0.3)">
       <use xlink:href="#CMR17-30" transform="scale(0.996264)"/>
      </g>
     </g>
    </g>
    <g id="ytick_2">
     <g id="line2d_13">
      <path d="M 82.132464 515.4 
L 807.532464 515.4 
" clip-path="url(#p9317191327)" style="fill: none; stroke: #b0b0b0; stroke-width: 0.8; stroke-linecap: square"/>
     </g>
     <g id="line2d_14">
      <g>
       <use xlink:href="#m2c70bd2614" x="82.132464" y="515.4" style="stroke: #000000; stroke-width: 0.8"/>
      </g>
     </g>
     <g id="text_8">
      <!-- $\mathdefault{1}$ -->
      <g transform="translate(61.425321 525.777748) scale(0.3 -0.3)">
       <use xlink:href="#CMR17-31" transform="scale(0.996264)"/>
      </g>
     </g>
    </g>
    <g id="ytick_3">
     <g id="line2d_15">
      <path d="M 82.132464 447.64 
L 807.532464 447.64 
" clip-path="url(#p9317191327)" style="fill: none; stroke: #b0b0b0; stroke-width: 0.8; stroke-linecap: square"/>
     </g>
     <g id="line2d_16">
      <g>
       <use xlink:href="#m2c70bd2614" x="82.132464" y="447.64" style="stroke: #000000; stroke-width: 0.8"/>
      </g>
     </g>
     <g id="text_9">
      <!-- $\mathdefault{2}$ -->
      <g transform="translate(61.425321 458.017748) scale(0.3 -0.3)">
       <use xlink:href="#CMR17-32" transform="scale(0.996264)"/>
      </g>
     </g>
    </g>
    <g id="ytick_4">
     <g id="line2d_17">
      <path d="M 82.132464 379.88 
L 807.532464 379.88 
" clip-path="url(#p9317191327)" style="fill: none; stroke: #b0b0b0; stroke-width: 0.8; stroke-linecap: square"/>
     </g>
     <g id="line2d_18">
      <g>
       <use xlink:href="#m2c70bd2614" x="82.132464" y="379.88" style="stroke: #000000; stroke-width: 0.8"/>
      </g>
     </g>
     <g id="text_10">
      <!-- $\mathdefault{3}$ -->
      <g transform="translate(61.425321 390.257748) scale(0.3 -0.3)">
       <use xlink:href="#CMR17-33" transform="scale(0.996264)"/>
      </g>
     </g>
    </g>
    <g id="ytick_5">
     <g id="line2d_19">
      <path d="M 82.132464 312.12 
L 807.532464 312.12 
" clip-path="url(#p9317191327)" style="fill: none; stroke: #b0b0b0; stroke-width: 0.8; stroke-linecap: square"/>
     </g>
     <g id="line2d_20">
      <g>
       <use xlink:href="#m2c70bd2614" x="82.132464" y="312.12" style="stroke: #000000; stroke-width: 0.8"/>
      </g>
     </g>
     <g id="text_11">
      <!-- $\mathdefault{4}$ -->
      <g transform="translate(61.425321 322.497748) scale(0.3 -0.3)">
       <use xlink:href="#CMR17-34" transform="scale(0.996264)"/>
      </g>
     </g>
    </g>
    <g id="ytick_6">
     <g id="line2d_21">
      <path d="M 82.132464 244.36 
L 807.532464 244.36 
" clip-path="url(#p9317191327)" style="fill: none; stroke: #b0b0b0; stroke-width: 0.8; stroke-linecap: square"/>
     </g>
     <g id="line2d_22">
      <g>
       <use xlink:href="#m2c70bd2614" x="82.132464" y="244.36" style="stroke: #000000; stroke-width: 0.8"/>
      </g>
     </g>
     <g id="text_12">
      <!-- $\mathdefault{5}$ -->
      <g transform="translate(61.425321 254.737748) scale(0.3 -0.3)">
       <defs>
        <path id="CMR17-35" d="M 730 3692 
C 794 3666 1056 3584 1325 3584 
C 1920 3584 2246 3911 2432 4100 
C 2432 4157 2432 4192 2394 4192 
C 2387 4192 2374 4192 2323 4163 
C 2099 4058 1837 3973 1517 3973 
C 1325 3973 1037 3999 723 4139 
C 653 4171 640 4171 634 4171 
C 602 4171 595 4164 595 4037 
L 595 2203 
C 595 2089 595 2057 659 2057 
C 691 2057 704 2070 736 2114 
C 941 2401 1222 2522 1542 2522 
C 1766 2522 2246 2382 2246 1289 
C 2246 1085 2246 715 2054 421 
C 1894 159 1645 25 1370 25 
C 947 25 518 320 403 814 
C 429 807 480 795 506 795 
C 589 795 749 840 749 1038 
C 749 1210 627 1280 506 1280 
C 358 1280 262 1190 262 1011 
C 262 454 704 -128 1382 -128 
C 2042 -128 2669 440 2669 1264 
C 2669 2030 2170 2624 1549 2624 
C 1222 2624 947 2503 730 2274 
L 730 3692 
z
" transform="scale(0.015625)"/>
       </defs>
       <use xlink:href="#CMR17-35" transform="scale(0.996264)"/>
      </g>
     </g>
    </g>
    <g id="ytick_7">
     <g id="line2d_23">
      <path d="M 82.132464 176.6 
L 807.532464 176.6 
" clip-path="url(#p9317191327)" style="fill: none; stroke: #b0b0b0; stroke-width: 0.8; stroke-linecap: square"/>
     </g>
     <g id="line2d_24">
      <g>
       <use xlink:href="#m2c70bd2614" x="82.132464" y="176.6" style="stroke: #000000; stroke-width: 0.8"/>
      </g>
     </g>
     <g id="text_13">
      <!-- $\mathdefault{6}$ -->
      <g transform="translate(61.425321 186.977748) scale(0.3 -0.3)">
       <defs>
        <path id="CMR17-36" d="M 678 2176 
C 678 3690 1395 4032 1811 4032 
C 1946 4032 2272 4009 2400 3776 
C 2298 3776 2106 3776 2106 3553 
C 2106 3381 2246 3323 2336 3323 
C 2394 3323 2566 3348 2566 3560 
C 2566 3954 2246 4179 1805 4179 
C 1043 4179 243 3390 243 1984 
C 243 253 966 -128 1478 -128 
C 2099 -128 2688 427 2688 1283 
C 2688 2081 2170 2662 1517 2662 
C 1126 2662 838 2407 678 1960 
L 678 2176 
z
M 1478 25 
C 691 25 691 1200 691 1436 
C 691 1896 909 2560 1504 2560 
C 1613 2560 1926 2560 2138 2120 
C 2253 1870 2253 1609 2253 1289 
C 2253 944 2253 690 2118 434 
C 1978 171 1773 25 1478 25 
z
" transform="scale(0.015625)"/>
       </defs>
       <use xlink:href="#CMR17-36" transform="scale(0.996264)"/>
      </g>
     </g>
    </g>
    <g id="ytick_8">
     <g id="line2d_25">
      <path d="M 82.132464 108.84 
L 807.532464 108.84 
" clip-path="url(#p9317191327)" style="fill: none; stroke: #b0b0b0; stroke-width: 0.8; stroke-linecap: square"/>
     </g>
     <g id="line2d_26">
      <g>
       <use xlink:href="#m2c70bd2614" x="82.132464" y="108.84" style="stroke: #000000; stroke-width: 0.8"/>
      </g>
     </g>
     <g id="text_14">
      <!-- $\mathdefault{7}$ -->
      <g transform="translate(61.425321 119.217748) scale(0.3 -0.3)">
       <defs>
        <path id="CMR17-37" d="M 2886 3941 
L 2886 4081 
L 1382 4081 
C 634 4081 621 4165 595 4288 
L 480 4288 
L 294 3094 
L 410 3094 
C 429 3215 474 3540 550 3661 
C 589 3712 1062 3712 1171 3712 
L 2579 3712 
L 1869 2661 
C 1395 1954 1069 999 1069 165 
C 1069 89 1069 -128 1299 -128 
C 1530 -128 1530 89 1530 171 
L 1530 465 
C 1530 1508 1709 2196 2003 2636 
L 2886 3941 
z
" transform="scale(0.015625)"/>
       </defs>
       <use xlink:href="#CMR17-37" transform="scale(0.996264)"/>
      </g>
     </g>
    </g>
    <g id="ytick_9">
     <g id="line2d_27">
      <path d="M 82.132464 41.08 
L 807.532464 41.08 
" clip-path="url(#p9317191327)" style="fill: none; stroke: #b0b0b0; stroke-width: 0.8; stroke-linecap: square"/>
     </g>
     <g id="line2d_28">
      <g>
       <use xlink:href="#m2c70bd2614" x="82.132464" y="41.08" style="stroke: #000000; stroke-width: 0.8"/>
      </g>
     </g>
     <g id="text_15">
      <!-- $\mathdefault{8}$ -->
      <g transform="translate(61.425321 51.457748) scale(0.3 -0.3)">
       <defs>
        <path id="CMR17-38" d="M 1741 2264 
C 2144 2467 2554 2773 2554 3263 
C 2554 3841 1990 4179 1472 4179 
C 890 4179 378 3759 378 3180 
C 378 3021 416 2747 666 2505 
C 730 2442 998 2251 1171 2130 
C 883 1983 211 1634 211 934 
C 211 279 838 -128 1459 -128 
C 2144 -128 2720 362 2720 1010 
C 2720 1590 2330 1857 2074 2029 
L 1741 2264 
z
M 902 2822 
C 851 2854 595 3051 595 3351 
C 595 3739 998 4032 1459 4032 
C 1965 4032 2336 3676 2336 3262 
C 2336 2669 1670 2331 1638 2331 
C 1632 2331 1626 2331 1574 2370 
L 902 2822 
z
M 2080 1519 
C 2176 1449 2483 1240 2483 851 
C 2483 381 2010 25 1472 25 
C 890 25 448 438 448 940 
C 448 1443 838 1862 1280 2060 
L 2080 1519 
z
" transform="scale(0.015625)"/>
       </defs>
       <use xlink:href="#CMR17-38" transform="scale(0.996264)"/>
      </g>
     </g>
    </g>
    <g id="text_16">
     <!-- $\frac{T_{tr}}{T_{tr,\infty}}$ -->
     <g transform="translate(38.349699 337.153071) rotate(-90) scale(0.35 -0.35)">
      <defs>
       <path id="CMMI12-54" d="M 2669 3910 
C 2707 4064 2720 4121 2816 4147 
C 2867 4160 3078 4160 3213 4160 
C 3853 4160 4154 4134 4154 3634 
C 4154 3537 4128 3295 4090 3057 
L 4083 2980 
C 4083 2954 4109 2916 4147 2916 
C 4211 2916 4211 2948 4230 3050 
L 4416 4184 
C 4429 4243 4429 4256 4429 4275 
C 4429 4345 4390 4345 4262 4345 
L 762 4345 
C 614 4345 608 4339 570 4224 
L 179 3070 
C 173 3056 154 2986 154 2980 
C 154 2948 179 2916 218 2916 
C 269 2916 282 2941 307 3024 
C 576 3801 710 4160 1562 4160 
L 1990 4160 
C 2144 4160 2208 4160 2208 4089 
C 2208 4069 2208 4057 2176 3941 
L 1318 499 
C 1254 249 1242 185 563 185 
C 403 185 358 185 358 64 
C 358 0 429 0 461 0 
C 621 0 787 0 947 0 
L 1946 0 
C 2106 0 2278 0 2438 0 
C 2509 0 2573 0 2573 121 
C 2573 185 2528 185 2362 185 
C 1786 185 1786 243 1786 339 
C 1786 346 1786 391 1811 494 
L 2669 3910 
z
" transform="scale(0.015625)"/>
       <path id="CMMI12-74" d="M 1286 2566 
L 1875 2566 
C 1997 2566 2061 2566 2061 2681 
C 2061 2752 2022 2752 1894 2752 
L 1331 2752 
L 1568 3692 
C 1594 3781 1594 3794 1594 3840 
C 1594 3943 1510 4000 1427 4000 
C 1376 4000 1229 3981 1178 3775 
L 928 2752 
L 326 2752 
C 198 2752 141 2752 141 2630 
C 141 2566 186 2566 307 2566 
L 877 2566 
L 454 881 
C 403 658 384 594 384 511 
C 384 211 595 -64 954 -64 
C 1600 -64 1946 868 1946 912 
C 1946 951 1920 970 1882 970 
C 1869 970 1843 970 1830 944 
C 1824 938 1818 931 1773 829 
C 1638 511 1344 64 973 64 
C 781 64 768 224 768 364 
C 768 370 768 492 787 568 
L 1286 2566 
z
" transform="scale(0.015625)"/>
       <path id="CMMI12-72" d="M 2490 2612 
C 2291 2574 2189 2433 2189 2293 
C 2189 2139 2310 2088 2400 2088 
C 2579 2088 2726 2242 2726 2433 
C 2726 2638 2528 2816 2208 2816 
C 1952 2816 1658 2701 1389 2312 
C 1344 2650 1088 2816 832 2816 
C 582 2816 454 2625 378 2484 
C 269 2254 173 1871 173 1839 
C 173 1814 198 1782 243 1782 
C 294 1782 301 1788 339 1935 
C 435 2318 557 2689 813 2689 
C 966 2689 1011 2580 1011 2395 
C 1011 2254 947 2005 902 1807 
L 723 1118 
C 698 996 627 709 595 594 
C 550 428 480 128 480 96 
C 480 6 550 -64 646 -64 
C 717 -64 838 -19 877 109 
C 896 160 1133 1124 1171 1271 
C 1203 1411 1242 1546 1274 1686 
C 1299 1775 1325 1878 1344 1961 
C 1363 2018 1536 2331 1696 2472 
C 1773 2542 1939 2689 2202 2689 
C 2304 2689 2406 2670 2490 2612 
z
" transform="scale(0.015625)"/>
       <path id="CMSY10-31" d="M 3251 1730 
C 2906 2166 2829 2262 2630 2422 
C 2272 2710 1914 2825 1587 2825 
C 838 2825 352 2122 352 1374 
C 352 639 826 -70 1562 -70 
C 2298 -70 2829 511 3142 1022 
C 3488 588 3565 492 3763 332 
C 4122 45 4480 -70 4806 -70 
C 5555 -70 6042 633 6042 1380 
C 6042 2115 5568 2825 4832 2825 
C 4096 2825 3565 2242 3251 1730 
z
M 3418 1514 
C 3680 1975 4154 2620 4877 2620 
C 5555 2620 5901 1955 5901 1380 
C 5901 753 5472 236 4909 236 
C 4538 236 4250 505 4115 638 
C 3955 811 3808 1009 3418 1514 
z
M 2976 1240 
C 2714 780 2240 134 1517 134 
C 838 134 493 799 493 1374 
C 493 2000 922 2518 1485 2518 
C 1856 2518 2144 2249 2278 2115 
C 2438 1943 2586 1744 2976 1240 
z
" transform="scale(0.015625)"/>
      </defs>
      <use xlink:href="#CMMI12-54" transform="translate(30.326112 41.344728) scale(0.697382)"/>
      <use xlink:href="#CMMI12-74" transform="translate(70.348467 30.884032) scale(0.498132)"/>
      <use xlink:href="#CMMI12-72" transform="translate(87.961633 30.884032) scale(0.498132)"/>
      <use xlink:href="#CMMI12-54" transform="translate(0 -34.355253) scale(0.697382)"/>
      <use xlink:href="#CMMI12-74" transform="translate(40.022356 -44.815949) scale(0.498132)"/>
      <use xlink:href="#CMMI12-72" transform="translate(57.635521 -44.815949) scale(0.498132)"/>
      <use xlink:href="#CMMI12-3b" transform="translate(78.261102 -44.815949) scale(0.498132)"/>
      <use xlink:href="#CMSY10-31" transform="translate(91.80969 -44.815949) scale(0.498132)"/>
      <path d="M 0 22.914133 
L 142.121159 22.914133 
L 142.121159 26.899083 
L 0 26.899083 
L 0 22.914133 
z
"/>
     </g>
    </g>
   </g>
   <g id="line2d_29">
    <path d="M 95.565797 518.875765 
L 159.216804 518.862177 
L 160.395535 517.69939 
L 161.564 510.859217 
L 163.93003 447.028318 
L 165.127596 416.120648 
L 166.325161 411.478943 
L 167.522727 406.339469 
L 168.720293 408.470236 
L 169.917859 409.063281 
L 171.115425 408.818436 
L 172.312991 407.295164 
L 173.510557 407.836121 
L 174.708122 407.912092 
L 175.905688 408.257237 
L 178.30082 408.301984 
L 179.498386 408.053794 
L 180.695952 408.011597 
L 181.893518 407.769226 
L 183.091083 407.742793 
L 184.288649 407.541464 
L 195.066742 407.040122 
L 204.64727 406.947304 
L 269.83151 407.793136 
L 352.884536 408.623437 
L 373.483619 408.869218 
L 419.991694 409.237516 
L 421.122728 410.605502 
L 422.253763 285.874165 
L 423.078558 64.013825 
L 423.903353 90.968165 
L 425.552944 128.954066 
L 426.377739 144.372829 
L 428.02733 169.517241 
L 428.852125 179.734518 
L 429.676921 188.070936 
L 430.501716 195.097068 
L 432.151307 206.033246 
L 432.976102 210.942144 
L 435.450488 222.590583 
L 436.275284 225.878806 
L 438.74967 233.489316 
L 440.39926 237.707164 
L 442.873646 243.398681 
L 444.523237 246.283593 
L 446.997623 250.185775 
L 448.647214 252.35385 
L 452.771191 257.184482 
L 456.070372 261.219501 
L 457.719963 263.576182 
L 459.378 266.675627 
L 461.225601 270.684767 
L 462.263542 273.02055 
L 465.940755 283.454814 
L 470.646363 299.815036 
L 474.508285 310.646359 
L 476.69738 315.940009 
L 479.080106 320.359828 
L 481.67353 323.87056 
L 484.493491 325.696857 
L 487.562434 326.467902 
L 490.897329 326.113939 
L 494.52115 324.524636 
L 498.452828 322.580736 
L 502.711679 320.978411 
L 512.274543 318.039351 
L 529.166039 311.052099 
L 535.104565 308.807902 
L 541.043092 306.754188 
L 546.981619 305.024391 
L 552.920145 303.416622 
L 558.858672 301.933354 
L 564.797198 300.85314 
L 570.735725 300.021816 
L 582.612778 298.894902 
L 600.428358 296.430196 
L 606.366884 295.388967 
L 612.305411 351.355525 
L 620.701244 476.147414 
L 629.097078 484.144814 
L 637.492911 488.189617 
L 645.888744 488.803067 
L 654.284578 487.698752 
L 671.076244 486.190598 
L 687.867911 484.846074 
L 696.263744 484.361632 
L 721.451244 483.317325 
L 729.847078 482.865368 
L 797.013744 480.22981 
L 813.805411 479.900805 
L 813.805411 479.900805 
" clip-path="url(#p9317191327)" style="fill: none; stroke: #ff0000; stroke-width: 3; stroke-linecap: square"/>
   </g>
   <g id="patch_3">
    <path d="M 82.132464 617.04 
L 82.132464 7.2 
" style="fill: none; stroke: #000000; stroke-width: 0.8; stroke-linejoin: miter; stroke-linecap: square"/>
   </g>
   <g id="patch_4">
    <path d="M 807.532464 617.04 
L 807.532464 7.2 
" style="fill: none; stroke: #000000; stroke-width: 0.8; stroke-linejoin: miter; stroke-linecap: square"/>
   </g>
   <g id="patch_5">
    <path d="M 82.132464 617.04 
L 807.532464 617.04 
" style="fill: none; stroke: #000000; stroke-width: 0.8; stroke-linejoin: miter; stroke-linecap: square"/>
   </g>
   <g id="patch_6">
    <path d="M 82.132464 7.2 
L 807.532464 7.2 
" style="fill: none; stroke: #000000; stroke-width: 0.8; stroke-linejoin: miter; stroke-linecap: square"/>
   </g>
   <g id="legend_1">
    <g id="patch_7">
     <path d="M 588.466537 132.764702 
L 783.032464 132.764702 
Q 790.032464 132.764702 790.032464 125.764702 
L 790.032464 31.7 
Q 790.032464 24.7 783.032464 24.7 
L 588.466537 24.7 
Q 581.466537 24.7 581.466537 31.7 
L 581.466537 125.764702 
Q 581.466537 132.764702 588.466537 132.764702 
z
" style="fill: #ffffff; stroke: #cccccc; stroke-linejoin: miter"/>
    </g>
    <g id="patch_8">
     <path d="M 595.466537 63.2 
L 665.466537 63.2 
L 665.466537 38.7 
L 595.466537 38.7 
z
" style="fill: #99ccff; fill-opacity: 0.7"/>
    </g>
    <g id="text_17">
     <!-- $\mu \pm \sigma$ -->
     <g transform="translate(693.466537 63.2) scale(0.35 -0.35)">
      <defs>
       <path id="CMMI12-16" d="M 922 140 
C 1082 -6 1318 -64 1536 -64 
C 1946 -64 2227 208 2374 405 
C 2438 69 2707 -64 2931 -64 
C 3123 -64 3277 50 3392 277 
C 3494 493 3584 879 3584 903 
C 3584 935 3558 960 3520 960 
C 3462 960 3456 928 3430 834 
C 3334 461 3213 64 2950 64 
C 2765 64 2752 229 2752 358 
C 2752 504 2810 735 2854 926 
L 3034 1615 
C 3059 1737 3130 2023 3162 2139 
C 3200 2292 3270 2567 3270 2592 
C 3270 2688 3194 2752 3098 2752 
C 3040 2752 2906 2726 2854 2535 
L 2406 760 
C 2374 632 2374 619 2291 517 
C 2214 409 1965 64 1562 64 
C 1203 64 1088 326 1088 625 
C 1088 811 1146 1034 1171 1143 
L 1459 2293 
C 1491 2414 1542 2618 1542 2657 
C 1542 2759 1459 2816 1376 2816 
C 1318 2816 1178 2797 1126 2592 
L 198 -1107 
C 192 -1139 179 -1177 179 -1216 
C 179 -1312 256 -1376 352 -1376 
C 538 -1376 576 -1228 621 -1050 
L 922 140 
z
" transform="scale(0.015625)"/>
       <path id="CMSY10-6" d="M 2618 1984 
L 4397 1984 
C 4506 1984 4621 1984 4621 2112 
C 4621 2240 4506 2240 4397 2240 
L 2618 2240 
L 2618 4018 
C 2618 4121 2618 4256 2490 4256 
C 2362 4256 2362 4140 2362 4038 
L 2362 2240 
L 576 2240 
C 467 2240 352 2240 352 2112 
C 352 1984 467 1984 576 1984 
L 2362 1984 
L 2362 256 
L 576 256 
C 467 256 352 256 352 128 
C 352 0 467 0 576 0 
L 4397 0 
C 4506 0 4621 0 4621 128 
C 4621 256 4506 256 4397 256 
L 2618 256 
L 2618 1984 
z
" transform="scale(0.015625)"/>
       <path id="CMMI12-1b" d="M 3251 2408 
C 3334 2408 3546 2408 3546 2612 
C 3546 2752 3424 2752 3309 2752 
L 1894 2752 
C 934 2752 243 1686 243 932 
C 243 390 595 -64 1171 -64 
C 1926 -64 2752 747 2752 1705 
C 2752 1954 2694 2196 2541 2408 
L 3251 2408 
z
M 1178 64 
C 851 64 614 313 614 754 
C 614 1137 845 2408 1786 2408 
C 2061 2408 2368 2274 2368 1781 
C 2368 1558 2266 1021 2042 652 
C 1811 275 1466 64 1178 64 
z
" transform="scale(0.015625)"/>
      </defs>
      <use xlink:href="#CMMI12-16" transform="scale(0.996264)"/>
      <use xlink:href="#CMSY10-6" transform="translate(80.830628 0) scale(0.996264)"/>
      <use xlink:href="#CMMI12-1b" transform="translate(180.457303 0) scale(0.996264)"/>
     </g>
    </g>
    <g id="line2d_30">
     <path d="M 595.466537 99.732351 
L 630.466537 99.732351 
L 665.466537 99.732351 
" style="fill: none; stroke: #ff0000; stroke-width: 3; stroke-linecap: square"/>
    </g>
    <g id="text_18">
     <!-- $\mu$ -->
     <g transform="translate(693.466537 111.982351) scale(0.35 -0.35)">
      <use xlink:href="#CMMI12-16" transform="scale(0.996264)"/>
     </g>
    </g>
   </g>
  </g>
 </g>
 <defs>
  <clipPath id="p9317191327">
   <rect x="82.132464" y="7.2" width="725.4" height="609.84"/>
  </clipPath>
 </defs>
</svg>
