<?xml version="1.0" encoding="utf-8" standalone="no"?>
<!DOCTYPE svg PUBLIC "-//W3C//DTD SVG 1.1//EN"
  "http://www.w3.org/Graphics/SVG/1.1/DTD/svg11.dtd">
<svg xmlns:xlink="http://www.w3.org/1999/xlink" width="837.20383pt" height="692.806049pt" viewBox="0 0 837.20383 692.806049" xmlns="http://www.w3.org/2000/svg" version="1.1">
 <metadata>
  <rdf:RDF xmlns:dc="http://purl.org/dc/elements/1.1/" xmlns:cc="http://creativecommons.org/ns#" xmlns:rdf="http://www.w3.org/1999/02/22-rdf-syntax-ns#">
   <cc:Work>
    <dc:type rdf:resource="http://purl.org/dc/dcmitype/StillImage"/>
    <dc:date>2025-03-03T10:02:39.967520</dc:date>
    <dc:format>image/svg+xml</dc:format>
    <dc:creator>
     <cc:Agent>
      <dc:title>Matplotlib v3.5.3, https://matplotlib.org/</dc:title>
     </cc:Agent>
    </dc:creator>
   </cc:Work>
  </rdf:RDF>
 </metadata>
 <defs>
  <style type="text/css">*{stroke-linejoin: round; stroke-linecap: butt}</style>
 </defs>
 <g id="figure_1">
  <g id="patch_1">
   <path d="M 0 692.806049 
L 837.20383 692.806049 
L 837.20383 0 
L 0 0 
z
" style="fill: #ffffff"/>
  </g>
  <g id="axes_1">
   <g id="patch_2">
    <path d="M 104.60383 617.04 
L 830.00383 617.04 
L 830.00383 7.2 
L 104.60383 7.2 
z
" style="fill: #ffffff"/>
   </g>
   <g id="PolyCollection_1">
    <path d="M 118.037163 415.716802 
L 118.037163 406.872444 
L 136.294326 406.872444 
L 149.622174 406.872444 
L 159.351746 406.872444 
L 166.454731 406.872444 
L 171.640483 406.872444 
L 175.426873 406.872444 
L 178.191993 406.872444 
L 180.211902 406.872444 
L 181.68817 406.872444 
L 182.866901 406.872386 
L 184.035366 406.87202 
L 185.20383 406.840322 
L 186.401396 406.758207 
L 187.598962 406.658482 
L 188.796527 406.538206 
L 189.994093 406.384986 
L 191.191659 406.271984 
L 192.389225 406.155861 
L 193.586791 406.022557 
L 194.784357 405.880308 
L 195.981923 405.738388 
L 197.179488 405.589754 
L 198.377054 405.449635 
L 199.57462 405.313072 
L 200.772186 405.172226 
L 201.969752 405.043354 
L 203.167318 404.904679 
L 204.364883 404.767598 
L 205.562449 404.624461 
L 206.760015 404.477649 
L 207.957581 404.331936 
L 209.155147 404.181208 
L 210.352713 404.034691 
L 211.550279 403.890133 
L 212.747844 403.74966 
L 213.94541 403.610906 
L 215.142976 403.472565 
L 216.340542 403.330834 
L 217.538108 403.185188 
L 218.735674 403.047511 
L 219.933239 402.917698 
L 221.130805 402.773273 
L 222.328371 402.633593 
L 223.525937 402.488726 
L 224.723503 402.354702 
L 225.921069 402.228294 
L 227.118636 402.105044 
L 228.346372 401.976561 
L 229.617974 401.836191 
L 230.935334 401.681742 
L 232.300974 401.536114 
L 233.717476 401.399007 
L 235.186325 401.254596 
L 236.709289 401.105321 
L 238.288431 400.955591 
L 239.926015 400.79637 
L 241.623475 400.633599 
L 243.382582 400.475138 
L 245.205811 400.290536 
L 247.096494 400.109312 
L 249.058389 399.925411 
L 251.090608 399.755946 
L 253.197721 399.56628 
L 255.383566 399.324226 
L 257.648273 399.107233 
L 259.997667 398.880955 
L 262.433052 398.654188 
L 264.957316 398.426089 
L 267.575536 398.187875 
L 270.290023 397.930528 
L 273.104165 397.637147 
L 276.021824 397.360793 
L 279.046947 397.072393 
L 282.18344 396.780092 
L 285.435274 396.468917 
L 288.806744 396.154476 
L 292.302876 395.851908 
L 295.927565 395.548053 
L 299.685552 395.202036 
L 303.582156 394.865183 
L 307.622429 394.523666 
L 311.811205 394.162261 
L 316.154247 393.780763 
L 320.65741 393.418981 
L 325.32657 393.046446 
L 330.167626 392.670131 
L 335.161448 392.266795 
L 340.29927 391.802805 
L 345.626228 391.339254 
L 351.149785 390.86063 
L 356.876809 390.432153 
L 362.814928 390.003966 
L 368.97197 389.582196 
L 375.355902 389.171746 
L 381.975176 388.663796 
L 388.838577 388.165351 
L 395.954985 387.733275 
L 403.333685 387.290911 
L 410.984408 386.783371 
L 418.537266 386.335454 
L 424.174186 385.97729 
L 428.188442 385.738279 
L 431.047637 385.581798 
L 433.084573 385.466376 
L 434.536086 385.392708 
L 435.676853 385.337454 
L 436.807888 385.287447 
L 437.938922 385.242709 
L 439.069956 385.200174 
L 440.200991 385.155846 
L 441.332025 385.113884 
L 442.46306 385.06336 
L 443.594094 384.897749 
L 444.725128 355.810841 
L 445.549924 198.332242 
L 446.374719 142.733279 
L 447.199515 96.96815 
L 448.02431 61.878112 
L 448.849105 40.580725 
L 449.673901 27.4909 
L 450.498696 18.91317 
L 451.323491 15.379307 
L 452.148287 14.654956 
L 452.973082 16.251544 
L 453.797877 18.467362 
L 454.622673 21.333723 
L 455.447468 24.756331 
L 456.272263 28.984677 
L 457.097059 33.637269 
L 457.921854 38.524148 
L 458.74665 43.214515 
L 459.571445 47.56683 
L 460.39624 52.003826 
L 461.221036 56.192494 
L 462.045831 59.935385 
L 462.870626 63.572655 
L 463.695422 66.926439 
L 464.520217 70.175712 
L 465.345012 73.127153 
L 466.169808 75.669618 
L 466.994603 77.980638 
L 467.819398 80.140312 
L 468.644194 82.270745 
L 469.468989 84.248926 
L 470.293785 86.039587 
L 471.11858 87.653916 
L 471.943375 89.17518 
L 472.768171 90.675002 
L 473.592966 92.077049 
L 474.417761 93.427478 
L 475.242557 94.714534 
L 476.067352 96.022613 
L 476.892147 97.232446 
L 477.716943 98.507739 
L 478.541738 99.781284 
L 479.366533 101.084291 
L 480.191329 102.448364 
L 481.016124 104.016414 
L 481.849366 105.687682 
L 482.73433 107.56258 
L 483.696967 109.633092 
L 484.734908 111.899187 
L 485.862423 114.728092 
L 487.086249 117.771557 
L 488.412121 121.770223 
L 489.851231 126.311696 
L 491.416329 131.696595 
L 493.117729 137.548391 
L 494.967625 143.198587 
L 496.979651 148.840929 
L 499.168746 154.283965 
L 501.551472 159.199595 
L 504.144896 163.411435 
L 506.964857 166.534793 
L 510.0338 169.054098 
L 513.368695 170.932086 
L 516.992516 171.619091 
L 520.924194 171.249159 
L 525.183045 170.136831 
L 529.78651 168.658638 
L 534.745909 166.765155 
L 540.063862 164.043616 
L 545.723409 160.835483 
L 551.637405 157.438416 
L 557.575931 154.101982 
L 563.514458 151.014397 
L 569.452985 148.440426 
L 575.391511 146.095914 
L 581.330038 143.849972 
L 587.268564 142.090738 
L 593.207091 140.705468 
L 599.145617 139.735643 
L 605.084144 138.845574 
L 611.022671 137.745248 
L 616.961197 136.556597 
L 622.899724 135.547419 
L 628.83825 134.097185 
L 634.776777 135.365404 
L 643.17261 147.390932 
L 651.568443 152.642912 
L 659.964277 156.140932 
L 668.36011 158.483832 
L 676.755943 160.887731 
L 685.151777 163.503847 
L 693.54761 165.181235 
L 701.943443 166.68444 
L 710.339277 168.170299 
L 718.73511 169.314528 
L 727.130943 170.323116 
L 735.526777 171.290575 
L 743.92261 172.148362 
L 752.318443 173.214254 
L 760.714277 173.556438 
L 769.11011 174.340281 
L 777.505943 175.160346 
L 785.901777 175.995802 
L 794.29761 176.947201 
L 802.693443 177.875014 
L 811.089277 178.742566 
L 819.48511 179.836258 
L 827.880943 180.435608 
L 836.276777 180.879626 
L 836.276777 237.547385 
L 836.276777 237.547385 
L 827.880943 237.015669 
L 819.48511 236.180101 
L 811.089277 234.818505 
L 802.693443 233.690273 
L 794.29761 232.502433 
L 785.901777 231.285647 
L 777.505943 230.223818 
L 769.11011 229.138748 
L 760.714277 228.067139 
L 752.318443 227.388502 
L 743.92261 225.944867 
L 735.526777 224.732152 
L 727.130943 223.395893 
L 718.73511 222.03896 
L 710.339277 220.45868 
L 701.943443 218.55086 
L 693.54761 216.681225 
L 685.151777 214.662108 
L 676.755943 211.545533 
L 668.36011 208.699161 
L 659.964277 205.918126 
L 651.568443 201.865218 
L 643.17261 195.701603 
L 634.776777 182.170124 
L 628.83825 180.018867 
L 622.899724 180.944235 
L 616.961197 181.806653 
L 611.022671 182.758685 
L 605.084144 183.521631 
L 599.145617 183.929263 
L 593.207091 184.426616 
L 587.268564 185.297961 
L 581.330038 186.505158 
L 575.391511 188.225997 
L 569.452985 190.049959 
L 563.514458 192.036184 
L 557.575931 194.28858 
L 551.637405 196.516947 
L 545.723409 198.580904 
L 540.063862 200.254161 
L 534.745909 201.516847 
L 529.78651 202.186518 
L 525.183045 202.533062 
L 520.924194 202.54689 
L 516.992516 202.192121 
L 513.368695 200.917773 
L 510.0338 198.836424 
L 506.964857 196.102754 
L 504.144896 192.553454 
L 501.551472 187.968867 
L 499.168746 182.909656 
L 496.979651 177.3959 
L 494.967625 171.795499 
L 493.117729 166.216567 
L 491.416329 160.574038 
L 489.851231 155.42024 
L 488.412121 151.133316 
L 487.086249 147.745093 
L 485.862423 144.90919 
L 484.734908 142.100329 
L 483.696967 139.879043 
L 482.73433 137.82495 
L 481.849366 135.9711 
L 481.016124 134.361606 
L 480.191329 132.868423 
L 479.366533 131.619138 
L 478.541738 130.472794 
L 477.716943 129.357895 
L 476.892147 128.269517 
L 476.067352 127.300005 
L 475.242557 126.244157 
L 474.417761 125.214876 
L 473.592966 124.201657 
L 472.768171 123.22115 
L 471.943375 122.283043 
L 471.11858 121.331912 
L 470.293785 120.36639 
L 469.468989 119.296425 
L 468.644194 118.138066 
L 467.819398 116.957698 
L 466.994603 115.911556 
L 466.169808 114.854325 
L 465.345012 113.812458 
L 464.520217 112.536586 
L 463.695422 111.337447 
L 462.870626 110.437916 
L 462.045831 109.796264 
L 461.221036 109.475726 
L 460.39624 109.16195 
L 459.571445 109.05373 
L 458.74665 109.438704 
L 457.921854 109.826362 
L 457.097059 110.402436 
L 456.272263 111.316789 
L 455.447468 111.92094 
L 454.622673 113.457088 
L 453.797877 115.815015 
L 452.973082 119.173683 
L 452.148287 123.302506 
L 451.323491 129.186012 
L 450.498696 137.927641 
L 449.673901 149.295377 
L 448.849105 163.441164 
L 448.02431 180.752731 
L 447.199515 204.130877 
L 446.374719 237.301611 
L 445.549924 300.395889 
L 444.725128 387.379314 
L 443.594094 401.77481 
L 442.46306 401.694724 
L 441.332025 401.702057 
L 440.200991 401.7012 
L 439.069956 401.699732 
L 437.938922 401.695168 
L 436.807888 401.690867 
L 435.676853 401.694566 
L 434.536086 401.701911 
L 433.084573 401.720605 
L 431.047637 401.761074 
L 428.188442 401.815437 
L 424.174186 401.911102 
L 418.537266 402.114992 
L 410.984408 402.409864 
L 403.333685 402.778797 
L 395.954985 403.070686 
L 388.838577 403.375992 
L 381.975176 403.724399 
L 375.355902 404.081213 
L 368.97197 404.329395 
L 362.814928 404.596374 
L 356.876809 404.869377 
L 351.149785 405.134725 
L 345.626228 405.44709 
L 340.29927 405.718054 
L 335.161448 406.000139 
L 330.167626 406.231433 
L 325.32657 406.459862 
L 320.65741 406.688549 
L 316.154247 406.907021 
L 311.811205 407.140097 
L 307.622429 407.361806 
L 303.582156 407.565235 
L 299.685552 407.767127 
L 295.927565 407.976054 
L 292.302876 408.159844 
L 288.806744 408.35001 
L 285.435274 408.554762 
L 282.18344 408.764113 
L 279.046947 408.964575 
L 276.021824 409.15734 
L 273.104165 409.334093 
L 270.290023 409.51275 
L 267.575536 409.675219 
L 264.957316 409.826716 
L 262.433052 409.968457 
L 259.997667 410.10083 
L 257.648273 410.218498 
L 255.383566 410.341424 
L 253.197721 410.495781 
L 251.090608 410.620802 
L 249.058389 410.730061 
L 247.096494 410.853833 
L 245.205811 410.969533 
L 243.382582 411.087501 
L 241.623475 411.185569 
L 239.926015 411.290438 
L 238.288431 411.389843 
L 236.709289 411.482361 
L 235.186325 411.579377 
L 233.717476 411.674142 
L 232.300974 411.764408 
L 230.935334 411.857189 
L 229.617974 411.955538 
L 228.346372 412.041569 
L 227.118636 412.126614 
L 225.921069 412.216579 
L 224.723503 412.307311 
L 223.525937 412.392367 
L 222.328371 412.484775 
L 221.130805 412.574353 
L 219.933239 412.678676 
L 218.735674 412.765402 
L 217.538108 412.85856 
L 216.340542 412.95144 
L 215.142976 413.044259 
L 213.94541 413.136052 
L 212.747844 413.236451 
L 211.550279 413.334063 
L 210.352713 413.434998 
L 209.155147 413.540136 
L 207.957581 413.648055 
L 206.760015 413.748817 
L 205.562449 413.852014 
L 204.364883 413.956258 
L 203.167318 414.060664 
L 201.969752 414.165744 
L 200.772186 414.263602 
L 199.57462 414.370026 
L 198.377054 414.473096 
L 197.179488 414.579378 
L 195.981923 414.695721 
L 194.784357 414.809856 
L 193.586791 414.926539 
L 192.389225 415.043308 
L 191.191659 415.144632 
L 189.994093 415.248221 
L 188.796527 415.392616 
L 187.598962 415.507494 
L 186.401396 415.605314 
L 185.20383 415.685027 
L 184.035366 415.716384 
L 182.866901 415.716743 
L 181.68817 415.716802 
L 180.211902 415.716802 
L 178.191993 415.716802 
L 175.426873 415.716802 
L 171.640483 415.716802 
L 166.454731 415.716802 
L 159.351746 415.716802 
L 149.622174 415.716802 
L 136.294326 415.716802 
L 118.037163 415.716802 
z
" clip-path="url(#p822094af8c)" style="fill: #99ccff; fill-opacity: 0.7"/>
   </g>
   <g id="matplotlib.axis_1">
    <g id="xtick_1">
     <g id="line2d_1">
      <path d="M 185.20383 617.04 
L 185.20383 7.2 
" clip-path="url(#p822094af8c)" style="fill: none; stroke: #b0b0b0; stroke-width: 0.8; stroke-linecap: square"/>
     </g>
     <g id="line2d_2">
      <defs>
       <path id="md83ea9cf22" d="M 0 0 
L 0 3.5 
" style="stroke: #000000; stroke-width: 0.8"/>
      </defs>
      <g>
       <use xlink:href="#md83ea9cf22" x="185.20383" y="617.04" style="stroke: #000000; stroke-width: 0.8"/>
      </g>
     </g>
     <g id="text_1">
      <!-- $\mathdefault{0.0}$ -->
      <g transform="translate(167.43211 644.795495)scale(0.3 -0.3)">
       <defs>
        <path id="CMR17-30" d="M 2688 2025 
C 2688 2416 2682 3080 2413 3591 
C 2176 4039 1798 4198 1466 4198 
C 1158 4198 768 4058 525 3597 
C 269 3118 243 2524 243 2025 
C 243 1661 250 1106 448 619 
C 723 -39 1216 -128 1466 -128 
C 1760 -128 2208 -7 2470 600 
C 2662 1042 2688 1559 2688 2025 
z
M 1466 -26 
C 1056 -26 813 325 723 812 
C 653 1188 653 1738 653 2096 
C 653 2588 653 2997 736 3387 
C 858 3929 1216 4096 1466 4096 
C 1728 4096 2067 3923 2189 3400 
C 2272 3036 2278 2607 2278 2096 
C 2278 1680 2278 1169 2202 792 
C 2067 95 1690 -26 1466 -26 
z
" transform="scale(0.015625)"/>
        <path id="CMMI12-3a" d="M 1178 307 
C 1178 492 1024 619 870 619 
C 685 619 557 466 557 313 
C 557 128 710 0 864 0 
C 1050 0 1178 153 1178 307 
z
" transform="scale(0.015625)"/>
       </defs>
       <use xlink:href="#CMR17-30" transform="scale(0.996264)"/>
       <use xlink:href="#CMMI12-3a" transform="translate(45.690477 0)scale(0.996264)"/>
       <use xlink:href="#CMR17-30" transform="translate(72.787654 0)scale(0.996264)"/>
      </g>
     </g>
    </g>
    <g id="xtick_2">
     <g id="line2d_3">
      <path d="M 319.537163 617.04 
L 319.537163 7.2 
" clip-path="url(#p822094af8c)" style="fill: none; stroke: #b0b0b0; stroke-width: 0.8; stroke-linecap: square"/>
     </g>
     <g id="line2d_4">
      <g>
       <use xlink:href="#md83ea9cf22" x="319.537163" y="617.04" style="stroke: #000000; stroke-width: 0.8"/>
      </g>
     </g>
     <g id="text_2">
      <!-- $\mathdefault{0.1}$ -->
      <g transform="translate(301.765444 644.795495)scale(0.3 -0.3)">
       <defs>
        <path id="CMR17-31" d="M 1702 4058 
C 1702 4192 1696 4192 1606 4192 
C 1357 3916 979 3827 621 3827 
C 602 3827 570 3827 563 3808 
C 557 3795 557 3782 557 3648 
C 755 3648 1088 3686 1344 3839 
L 1344 461 
C 1344 236 1331 160 781 160 
L 589 160 
L 589 0 
C 896 0 1216 0 1523 0 
C 1830 0 2150 0 2458 0 
L 2458 160 
L 2266 160 
C 1715 160 1702 230 1702 458 
L 1702 4058 
z
" transform="scale(0.015625)"/>
       </defs>
       <use xlink:href="#CMR17-30" transform="scale(0.996264)"/>
       <use xlink:href="#CMMI12-3a" transform="translate(45.690477 0)scale(0.996264)"/>
       <use xlink:href="#CMR17-31" transform="translate(72.787654 0)scale(0.996264)"/>
      </g>
     </g>
    </g>
    <g id="xtick_3">
     <g id="line2d_5">
      <path d="M 453.870497 617.04 
L 453.870497 7.2 
" clip-path="url(#p822094af8c)" style="fill: none; stroke: #b0b0b0; stroke-width: 0.8; stroke-linecap: square"/>
     </g>
     <g id="line2d_6">
      <g>
       <use xlink:href="#md83ea9cf22" x="453.870497" y="617.04" style="stroke: #000000; stroke-width: 0.8"/>
      </g>
     </g>
     <g id="text_3">
      <!-- $\mathdefault{0.2}$ -->
      <g transform="translate(436.098777 644.795495)scale(0.3 -0.3)">
       <defs>
        <path id="CMR17-32" d="M 2669 989 
L 2554 989 
C 2490 536 2438 459 2413 420 
C 2381 369 1920 369 1830 369 
L 602 369 
C 832 619 1280 1072 1824 1597 
C 2214 1967 2669 2402 2669 3035 
C 2669 3790 2067 4224 1395 4224 
C 691 4224 262 3604 262 3030 
C 262 2780 448 2748 525 2748 
C 589 2748 781 2787 781 3010 
C 781 3207 614 3264 525 3264 
C 486 3264 448 3258 422 3245 
C 544 3790 915 4058 1306 4058 
C 1862 4058 2227 3617 2227 3035 
C 2227 2479 1901 2000 1536 1584 
L 262 146 
L 262 0 
L 2515 0 
L 2669 989 
z
" transform="scale(0.015625)"/>
       </defs>
       <use xlink:href="#CMR17-30" transform="scale(0.996264)"/>
       <use xlink:href="#CMMI12-3a" transform="translate(45.690477 0)scale(0.996264)"/>
       <use xlink:href="#CMR17-32" transform="translate(72.787654 0)scale(0.996264)"/>
      </g>
     </g>
    </g>
    <g id="xtick_4">
     <g id="line2d_7">
      <path d="M 588.20383 617.04 
L 588.20383 7.2 
" clip-path="url(#p822094af8c)" style="fill: none; stroke: #b0b0b0; stroke-width: 0.8; stroke-linecap: square"/>
     </g>
     <g id="line2d_8">
      <g>
       <use xlink:href="#md83ea9cf22" x="588.20383" y="617.04" style="stroke: #000000; stroke-width: 0.8"/>
      </g>
     </g>
     <g id="text_4">
      <!-- $\mathdefault{0.3}$ -->
      <g transform="translate(570.43211 644.795495)scale(0.3 -0.3)">
       <defs>
        <path id="CMR17-33" d="M 1414 2157 
C 1984 2157 2234 1662 2234 1090 
C 2234 320 1824 25 1453 25 
C 1114 25 563 194 390 693 
C 422 680 454 680 486 680 
C 640 680 755 782 755 948 
C 755 1133 614 1216 486 1216 
C 378 1216 211 1165 211 926 
C 211 335 787 -128 1466 -128 
C 2176 -128 2720 430 2720 1085 
C 2720 1707 2208 2157 1600 2227 
C 2086 2328 2554 2756 2554 3329 
C 2554 3820 2048 4179 1472 4179 
C 890 4179 378 3829 378 3329 
C 378 3110 544 3072 627 3072 
C 762 3072 877 3155 877 3321 
C 877 3486 762 3569 627 3569 
C 602 3569 570 3569 544 3557 
C 730 3959 1235 4032 1459 4032 
C 1683 4032 2106 3925 2106 3320 
C 2106 3143 2080 2828 1862 2550 
C 1670 2304 1453 2304 1242 2284 
C 1210 2284 1062 2269 1037 2269 
C 992 2263 966 2257 966 2208 
C 966 2163 973 2157 1101 2157 
L 1414 2157 
z
" transform="scale(0.015625)"/>
       </defs>
       <use xlink:href="#CMR17-30" transform="scale(0.996264)"/>
       <use xlink:href="#CMMI12-3a" transform="translate(45.690477 0)scale(0.996264)"/>
       <use xlink:href="#CMR17-33" transform="translate(72.787654 0)scale(0.996264)"/>
      </g>
     </g>
    </g>
    <g id="xtick_5">
     <g id="line2d_9">
      <path d="M 722.537163 617.04 
L 722.537163 7.2 
" clip-path="url(#p822094af8c)" style="fill: none; stroke: #b0b0b0; stroke-width: 0.8; stroke-linecap: square"/>
     </g>
     <g id="line2d_10">
      <g>
       <use xlink:href="#md83ea9cf22" x="722.537163" y="617.04" style="stroke: #000000; stroke-width: 0.8"/>
      </g>
     </g>
     <g id="text_5">
      <!-- $\mathdefault{0.4}$ -->
      <g transform="translate(704.765444 644.795495)scale(0.3 -0.3)">
       <defs>
        <path id="CMR17-34" d="M 2150 4122 
C 2150 4256 2144 4256 2029 4256 
L 128 1254 
L 128 1088 
L 1779 1088 
L 1779 457 
C 1779 224 1766 160 1318 160 
L 1197 160 
L 1197 0 
C 1402 0 1747 0 1965 0 
C 2182 0 2528 0 2733 0 
L 2733 160 
L 2611 160 
C 2163 160 2150 224 2150 457 
L 2150 1088 
L 2803 1088 
L 2803 1254 
L 2150 1254 
L 2150 4122 
z
M 1798 3703 
L 1798 1254 
L 256 1254 
L 1798 3703 
z
" transform="scale(0.015625)"/>
       </defs>
       <use xlink:href="#CMR17-30" transform="scale(0.996264)"/>
       <use xlink:href="#CMMI12-3a" transform="translate(45.690477 0)scale(0.996264)"/>
       <use xlink:href="#CMR17-34" transform="translate(72.787654 0)scale(0.996264)"/>
      </g>
     </g>
    </g>
    <g id="text_6">
     <!-- $x, \; \mathrm{m} $ -->
     <g transform="translate(431.651226 678.823697)scale(0.35 -0.35)">
      <defs>
       <path id="CMMI12-78" d="M 3034 2606 
C 2829 2567 2752 2414 2752 2293 
C 2752 2139 2874 2088 2963 2088 
C 3155 2088 3290 2254 3290 2427 
C 3290 2695 2982 2816 2714 2816 
C 2323 2816 2106 2433 2048 2312 
C 1901 2816 1504 2816 1389 2816 
C 736 2816 390 1980 390 1839 
C 390 1814 416 1782 461 1782 
C 512 1782 525 1820 538 1846 
C 755 2555 1184 2689 1370 2689 
C 1658 2689 1715 2420 1715 2267 
C 1715 2127 1677 1980 1600 1673 
L 1382 798 
C 1286 415 1101 64 762 64 
C 730 64 570 64 435 147 
C 666 192 717 383 717 460 
C 717 588 621 664 499 664 
C 346 664 179 530 179 326 
C 179 57 480 -64 755 -64 
C 1062 -64 1280 179 1414 441 
C 1517 64 1837 -64 2074 -64 
C 2726 -64 3072 773 3072 913 
C 3072 945 3046 971 3008 971 
C 2950 971 2944 939 2925 888 
C 2752 326 2381 64 2093 64 
C 1869 64 1747 230 1747 492 
C 1747 632 1773 734 1875 1156 
L 2099 2024 
C 2195 2408 2413 2689 2707 2689 
C 2720 2689 2899 2689 3034 2606 
z
" transform="scale(0.015625)"/>
       <path id="CMMI12-3b" d="M 1248 -31 
C 1248 343 1126 619 864 619 
C 659 619 557 453 557 313 
C 557 172 653 0 870 0 
C 954 0 1024 26 1082 83 
C 1094 96 1101 96 1107 96 
C 1120 96 1120 5 1120 -27 
C 1120 -240 1082 -659 710 -1080 
C 640 -1157 640 -1170 640 -1183 
C 640 -1216 672 -1248 704 -1248 
C 755 -1248 1248 -771 1248 -31 
z
" transform="scale(0.015625)"/>
       <path id="CMR17-6d" d="M 4326 1933 
C 4326 2252 4269 2790 3507 2790 
C 3072 2790 2771 2496 2656 2151 
L 2650 2151 
C 2573 2676 2195 2790 1837 2790 
C 1331 2790 1069 2400 973 2144 
L 966 2144 
L 966 2790 
L 211 2720 
L 211 2554 
C 589 2554 646 2515 646 2208 
L 646 428 
C 646 184 621 153 211 153 
L 211 -13 
C 365 0 646 0 813 0 
C 979 0 1267 0 1421 -13 
L 1421 153 
C 1011 153 986 178 986 428 
L 986 1658 
C 986 2247 1344 2688 1792 2688 
C 2266 2688 2317 2266 2317 1958 
L 2317 428 
C 2317 184 2291 153 1882 153 
L 1882 -13 
C 2035 0 2317 0 2483 0 
C 2650 0 2938 0 3091 -13 
L 3091 153 
C 2682 153 2656 178 2656 428 
L 2656 1658 
C 2656 2247 3014 2688 3462 2688 
C 3936 2688 3987 2266 3987 1958 
L 3987 428 
C 3987 184 3962 153 3552 153 
L 3552 -13 
C 3706 0 3987 0 4154 0 
C 4320 0 4608 0 4762 -13 
L 4762 153 
C 4352 153 4326 178 4326 428 
L 4326 1933 
z
" transform="scale(0.015625)"/>
      </defs>
      <use xlink:href="#CMMI12-78" transform="scale(0.996264)"/>
      <use xlink:href="#CMMI12-3b" transform="translate(55.43406 0)scale(0.996264)"/>
      <use xlink:href="#CMR17-6d" transform="translate(126.809651 0)scale(0.996264)"/>
     </g>
    </g>
   </g>
   <g id="matplotlib.axis_2">
    <g id="ytick_1">
     <g id="line2d_11">
      <path d="M 104.60383 561.250221 
L 830.00383 561.250221 
" clip-path="url(#p822094af8c)" style="fill: none; stroke: #b0b0b0; stroke-width: 0.8; stroke-linecap: square"/>
     </g>
     <g id="line2d_12">
      <defs>
       <path id="m6b6b318242" d="M 0 0 
L -3.5 0 
" style="stroke: #000000; stroke-width: 0.8"/>
      </defs>
      <g>
       <use xlink:href="#m6b6b318242" x="104.60383" y="561.250221" style="stroke: #000000; stroke-width: 0.8"/>
      </g>
     </g>
     <g id="text_7">
      <!-- $\mathdefault{−1}$ -->
      <g transform="translate(60.650456 571.627968)scale(0.3 -0.3)">
       <defs>
        <path id="CMSY10-0" d="M 4218 1472 
C 4326 1472 4442 1472 4442 1600 
C 4442 1728 4326 1728 4218 1728 
L 755 1728 
C 646 1728 531 1728 531 1600 
C 531 1472 646 1472 755 1472 
L 4218 1472 
z
" transform="scale(0.015625)"/>
       </defs>
       <use xlink:href="#CMSY10-0" transform="scale(0.996264)"/>
       <use xlink:href="#CMR17-31" transform="translate(77.487468 0)scale(0.996264)"/>
      </g>
     </g>
    </g>
    <g id="ytick_2">
     <g id="line2d_13">
      <path d="M 104.60383 484.298801 
L 830.00383 484.298801 
" clip-path="url(#p822094af8c)" style="fill: none; stroke: #b0b0b0; stroke-width: 0.8; stroke-linecap: square"/>
     </g>
     <g id="line2d_14">
      <g>
       <use xlink:href="#m6b6b318242" x="104.60383" y="484.298801" style="stroke: #000000; stroke-width: 0.8"/>
      </g>
     </g>
     <g id="text_8">
      <!-- $\mathdefault{0}$ -->
      <g transform="translate(83.896687 494.676549)scale(0.3 -0.3)">
       <use xlink:href="#CMR17-30" transform="scale(0.996264)"/>
      </g>
     </g>
    </g>
    <g id="ytick_3">
     <g id="line2d_15">
      <path d="M 104.60383 407.347382 
L 830.00383 407.347382 
" clip-path="url(#p822094af8c)" style="fill: none; stroke: #b0b0b0; stroke-width: 0.8; stroke-linecap: square"/>
     </g>
     <g id="line2d_16">
      <g>
       <use xlink:href="#m6b6b318242" x="104.60383" y="407.347382" style="stroke: #000000; stroke-width: 0.8"/>
      </g>
     </g>
     <g id="text_9">
      <!-- $\mathdefault{1}$ -->
      <g transform="translate(83.896687 417.725129)scale(0.3 -0.3)">
       <use xlink:href="#CMR17-31" transform="scale(0.996264)"/>
      </g>
     </g>
    </g>
    <g id="ytick_4">
     <g id="line2d_17">
      <path d="M 104.60383 330.395962 
L 830.00383 330.395962 
" clip-path="url(#p822094af8c)" style="fill: none; stroke: #b0b0b0; stroke-width: 0.8; stroke-linecap: square"/>
     </g>
     <g id="line2d_18">
      <g>
       <use xlink:href="#m6b6b318242" x="104.60383" y="330.395962" style="stroke: #000000; stroke-width: 0.8"/>
      </g>
     </g>
     <g id="text_10">
      <!-- $\mathdefault{2}$ -->
      <g transform="translate(83.896687 340.77371)scale(0.3 -0.3)">
       <use xlink:href="#CMR17-32" transform="scale(0.996264)"/>
      </g>
     </g>
    </g>
    <g id="ytick_5">
     <g id="line2d_19">
      <path d="M 104.60383 253.444543 
L 830.00383 253.444543 
" clip-path="url(#p822094af8c)" style="fill: none; stroke: #b0b0b0; stroke-width: 0.8; stroke-linecap: square"/>
     </g>
     <g id="line2d_20">
      <g>
       <use xlink:href="#m6b6b318242" x="104.60383" y="253.444543" style="stroke: #000000; stroke-width: 0.8"/>
      </g>
     </g>
     <g id="text_11">
      <!-- $\mathdefault{3}$ -->
      <g transform="translate(83.896687 263.82229)scale(0.3 -0.3)">
       <use xlink:href="#CMR17-33" transform="scale(0.996264)"/>
      </g>
     </g>
    </g>
    <g id="ytick_6">
     <g id="line2d_21">
      <path d="M 104.60383 176.493123 
L 830.00383 176.493123 
" clip-path="url(#p822094af8c)" style="fill: none; stroke: #b0b0b0; stroke-width: 0.8; stroke-linecap: square"/>
     </g>
     <g id="line2d_22">
      <g>
       <use xlink:href="#m6b6b318242" x="104.60383" y="176.493123" style="stroke: #000000; stroke-width: 0.8"/>
      </g>
     </g>
     <g id="text_12">
      <!-- $\mathdefault{4}$ -->
      <g transform="translate(83.896687 186.870871)scale(0.3 -0.3)">
       <use xlink:href="#CMR17-34" transform="scale(0.996264)"/>
      </g>
     </g>
    </g>
    <g id="ytick_7">
     <g id="line2d_23">
      <path d="M 104.60383 99.541703 
L 830.00383 99.541703 
" clip-path="url(#p822094af8c)" style="fill: none; stroke: #b0b0b0; stroke-width: 0.8; stroke-linecap: square"/>
     </g>
     <g id="line2d_24">
      <g>
       <use xlink:href="#m6b6b318242" x="104.60383" y="99.541703" style="stroke: #000000; stroke-width: 0.8"/>
      </g>
     </g>
     <g id="text_13">
      <!-- $\mathdefault{5}$ -->
      <g transform="translate(83.896687 109.919451)scale(0.3 -0.3)">
       <defs>
        <path id="CMR17-35" d="M 730 3692 
C 794 3666 1056 3584 1325 3584 
C 1920 3584 2246 3911 2432 4100 
C 2432 4157 2432 4192 2394 4192 
C 2387 4192 2374 4192 2323 4163 
C 2099 4058 1837 3973 1517 3973 
C 1325 3973 1037 3999 723 4139 
C 653 4171 640 4171 634 4171 
C 602 4171 595 4164 595 4037 
L 595 2203 
C 595 2089 595 2057 659 2057 
C 691 2057 704 2070 736 2114 
C 941 2401 1222 2522 1542 2522 
C 1766 2522 2246 2382 2246 1289 
C 2246 1085 2246 715 2054 421 
C 1894 159 1645 25 1370 25 
C 947 25 518 320 403 814 
C 429 807 480 795 506 795 
C 589 795 749 840 749 1038 
C 749 1210 627 1280 506 1280 
C 358 1280 262 1190 262 1011 
C 262 454 704 -128 1382 -128 
C 2042 -128 2669 440 2669 1264 
C 2669 2030 2170 2624 1549 2624 
C 1222 2624 947 2503 730 2274 
L 730 3692 
z
" transform="scale(0.015625)"/>
       </defs>
       <use xlink:href="#CMR17-35" transform="scale(0.996264)"/>
      </g>
     </g>
    </g>
    <g id="ytick_8">
     <g id="line2d_25">
      <path d="M 104.60383 22.590284 
L 830.00383 22.590284 
" clip-path="url(#p822094af8c)" style="fill: none; stroke: #b0b0b0; stroke-width: 0.8; stroke-linecap: square"/>
     </g>
     <g id="line2d_26">
      <g>
       <use xlink:href="#m6b6b318242" x="104.60383" y="22.590284" style="stroke: #000000; stroke-width: 0.8"/>
      </g>
     </g>
     <g id="text_14">
      <!-- $\mathdefault{6}$ -->
      <g transform="translate(83.896687 32.968031)scale(0.3 -0.3)">
       <defs>
        <path id="CMR17-36" d="M 678 2176 
C 678 3690 1395 4032 1811 4032 
C 1946 4032 2272 4009 2400 3776 
C 2298 3776 2106 3776 2106 3553 
C 2106 3381 2246 3323 2336 3323 
C 2394 3323 2566 3348 2566 3560 
C 2566 3954 2246 4179 1805 4179 
C 1043 4179 243 3390 243 1984 
C 243 253 966 -128 1478 -128 
C 2099 -128 2688 427 2688 1283 
C 2688 2081 2170 2662 1517 2662 
C 1126 2662 838 2407 678 1960 
L 678 2176 
z
M 1478 25 
C 691 25 691 1200 691 1436 
C 691 1896 909 2560 1504 2560 
C 1613 2560 1926 2560 2138 2120 
C 2253 1870 2253 1609 2253 1289 
C 2253 944 2253 690 2118 434 
C 1978 171 1773 25 1478 25 
z
" transform="scale(0.015625)"/>
       </defs>
       <use xlink:href="#CMR17-36" transform="scale(0.996264)"/>
      </g>
     </g>
    </g>
    <g id="text_15">
     <!-- $\frac{T_{ve}}{T_{{ve}_\infty}}, \; - $ -->
     <g transform="translate(38.349699 363.383519)rotate(-90)scale(0.35 -0.35)">
      <defs>
       <path id="CMMI12-54" d="M 2669 3910 
C 2707 4064 2720 4121 2816 4147 
C 2867 4160 3078 4160 3213 4160 
C 3853 4160 4154 4134 4154 3634 
C 4154 3537 4128 3295 4090 3057 
L 4083 2980 
C 4083 2954 4109 2916 4147 2916 
C 4211 2916 4211 2948 4230 3050 
L 4416 4184 
C 4429 4243 4429 4256 4429 4275 
C 4429 4345 4390 4345 4262 4345 
L 762 4345 
C 614 4345 608 4339 570 4224 
L 179 3070 
C 173 3056 154 2986 154 2980 
C 154 2948 179 2916 218 2916 
C 269 2916 282 2941 307 3024 
C 576 3801 710 4160 1562 4160 
L 1990 4160 
C 2144 4160 2208 4160 2208 4089 
C 2208 4069 2208 4057 2176 3941 
L 1318 499 
C 1254 249 1242 185 563 185 
C 403 185 358 185 358 64 
C 358 0 429 0 461 0 
C 621 0 787 0 947 0 
L 1946 0 
C 2106 0 2278 0 2438 0 
C 2509 0 2573 0 2573 121 
C 2573 185 2528 185 2362 185 
C 1786 185 1786 243 1786 339 
C 1786 346 1786 391 1811 494 
L 2669 3910 
z
" transform="scale(0.015625)"/>
       <path id="CMMI12-76" d="M 2925 2389 
C 2925 2791 2720 2816 2669 2816 
C 2515 2816 2374 2663 2374 2535 
C 2374 2459 2419 2414 2445 2389 
C 2509 2331 2675 2159 2675 1827 
C 2675 1558 2291 64 1523 64 
C 1133 64 1056 390 1056 626 
C 1056 945 1203 1392 1376 1852 
C 1478 2114 1504 2178 1504 2305 
C 1504 2574 1312 2816 998 2816 
C 410 2816 173 1890 173 1839 
C 173 1814 198 1782 243 1782 
C 301 1782 307 1807 333 1897 
C 486 2446 736 2689 979 2689 
C 1037 2689 1146 2689 1146 2478 
C 1146 2312 1075 2127 979 1884 
C 672 1067 672 869 672 715 
C 672 575 691 313 890 134 
C 1120 -64 1440 -64 1498 -64 
C 2560 -64 2925 2024 2925 2389 
z
" transform="scale(0.015625)"/>
       <path id="CMMI12-65" d="M 1146 1479 
C 1318 1479 1754 1479 2061 1595 
C 2547 1783 2592 2158 2592 2274 
C 2592 2558 2349 2816 1926 2816 
C 1254 2816 288 2210 288 1073 
C 288 402 672 -64 1254 -64 
C 2125 -64 2675 609 2675 692 
C 2675 730 2637 762 2611 762 
C 2592 762 2586 756 2528 699 
C 2118 159 1510 64 1267 64 
C 902 64 710 350 710 822 
C 710 911 710 1071 806 1479 
L 1146 1479 
z
M 838 1600 
C 1114 2592 1722 2689 1926 2689 
C 2208 2689 2400 2522 2400 2277 
C 2400 1600 1376 1600 1107 1600 
L 838 1600 
z
" transform="scale(0.015625)"/>
       <path id="CMSY10-31" d="M 3251 1730 
C 2906 2166 2829 2262 2630 2422 
C 2272 2710 1914 2825 1587 2825 
C 838 2825 352 2122 352 1374 
C 352 639 826 -70 1562 -70 
C 2298 -70 2829 511 3142 1022 
C 3488 588 3565 492 3763 332 
C 4122 45 4480 -70 4806 -70 
C 5555 -70 6042 633 6042 1380 
C 6042 2115 5568 2825 4832 2825 
C 4096 2825 3565 2242 3251 1730 
z
M 3418 1514 
C 3680 1975 4154 2620 4877 2620 
C 5555 2620 5901 1955 5901 1380 
C 5901 753 5472 236 4909 236 
C 4538 236 4250 505 4115 638 
C 3955 811 3808 1009 3418 1514 
z
M 2976 1240 
C 2714 780 2240 134 1517 134 
C 838 134 493 799 493 1374 
C 493 2000 922 2518 1485 2518 
C 1856 2518 2144 2249 2278 2115 
C 2438 1943 2586 1744 2976 1240 
z
" transform="scale(0.015625)"/>
      </defs>
      <use xlink:href="#CMMI12-54" transform="translate(25.155742 41.344728)scale(0.697382)"/>
      <use xlink:href="#CMMI12-76" transform="translate(65.178098 30.884032)scale(0.498132)"/>
      <use xlink:href="#CMMI12-65" transform="translate(90.545677 30.884032)scale(0.498132)"/>
      <use xlink:href="#CMMI12-54" transform="translate(0 -34.355253)scale(0.697382)"/>
      <use xlink:href="#CMMI12-76" transform="translate(40.022356 -44.815949)scale(0.498132)"/>
      <use xlink:href="#CMMI12-65" transform="translate(65.389935 -44.815949)scale(0.498132)"/>
      <use xlink:href="#CMSY10-31" transform="translate(87.995928 -52.287899)scale(0.498132)"/>
      <use xlink:href="#CMMI12-3b" transform="translate(140.001043 0)scale(0.996264)"/>
      <use xlink:href="#CMSY10-0" transform="translate(211.376634 0)scale(0.996264)"/>
      <path d="M 0 22.914133 
L 138.805529 22.914133 
L 138.805529 26.899083 
L 0 26.899083 
L 0 22.914133 
z
"/>
     </g>
    </g>
   </g>
   <g id="line2d_27">
    <path d="M 118.037163 411.294623 
L 185.20383 411.262675 
L 188.796527 410.965411 
L 193.586791 410.474548 
L 213.94541 408.373479 
L 236.709289 406.293841 
L 307.622429 400.942736 
L 351.149785 397.997678 
L 388.838577 395.770672 
L 431.047637 393.671436 
L 440.200991 393.428523 
L 443.594094 393.33628 
L 444.725128 371.595078 
L 445.549924 249.364066 
L 446.374719 190.017445 
L 447.199515 150.549514 
L 448.02431 121.315421 
L 448.849105 102.010944 
L 449.673901 88.393139 
L 450.498696 78.420406 
L 451.323491 72.282659 
L 452.148287 68.978731 
L 452.973082 67.712613 
L 453.797877 67.141189 
L 454.622673 67.395406 
L 455.447468 68.338635 
L 457.097059 72.019853 
L 465.345012 93.469805 
L 466.994603 96.946097 
L 470.293785 103.202988 
L 472.768171 106.948076 
L 480.191329 117.658394 
L 481.849366 120.829391 
L 484.734908 126.999758 
L 488.412121 136.451769 
L 489.851231 140.865968 
L 493.117729 151.882479 
L 494.967625 157.497043 
L 496.979651 163.118415 
L 499.168746 168.596811 
L 501.551472 173.584231 
L 504.144896 177.982444 
L 506.964857 181.318774 
L 510.0338 183.945261 
L 513.368695 185.924929 
L 516.992516 186.905606 
L 520.924194 186.898024 
L 525.183045 186.334947 
L 529.78651 185.422578 
L 534.745909 184.141001 
L 540.063862 182.148888 
L 545.723409 179.708194 
L 563.514458 171.52529 
L 569.452985 169.245193 
L 581.330038 165.177565 
L 587.268564 163.69435 
L 593.207091 162.566042 
L 605.084144 161.183602 
L 611.022671 160.251966 
L 616.961197 159.181625 
L 622.899724 158.245827 
L 628.83825 157.058026 
L 634.776777 158.767764 
L 643.17261 171.546268 
L 651.568443 177.254065 
L 659.964277 181.029529 
L 676.755943 186.216632 
L 685.151777 189.082978 
L 693.54761 190.93123 
L 710.339277 194.31449 
L 718.73511 195.676744 
L 735.526777 198.011364 
L 743.92261 199.046615 
L 752.318443 200.301378 
L 760.714277 200.811789 
L 785.901777 203.640725 
L 802.693443 205.782644 
L 811.089277 206.780535 
L 819.48511 208.008179 
L 827.880943 208.725638 
L 836.276777 209.213505 
L 836.276777 209.213505 
" clip-path="url(#p822094af8c)" style="fill: none; stroke: #ff0000; stroke-width: 3; stroke-linecap: square"/>
   </g>
   <g id="patch_3">
    <path d="M 104.60383 617.04 
L 104.60383 7.2 
" style="fill: none; stroke: #000000; stroke-width: 0.8; stroke-linejoin: miter; stroke-linecap: square"/>
   </g>
   <g id="patch_4">
    <path d="M 830.00383 617.04 
L 830.00383 7.2 
" style="fill: none; stroke: #000000; stroke-width: 0.8; stroke-linejoin: miter; stroke-linecap: square"/>
   </g>
   <g id="patch_5">
    <path d="M 104.60383 617.04 
L 830.00383 617.04 
" style="fill: none; stroke: #000000; stroke-width: 0.8; stroke-linejoin: miter; stroke-linecap: square"/>
   </g>
   <g id="patch_6">
    <path d="M 104.60383 7.2 
L 830.00383 7.2 
" style="fill: none; stroke: #000000; stroke-width: 0.8; stroke-linejoin: miter; stroke-linecap: square"/>
   </g>
   <g id="legend_1">
    <g id="patch_7">
     <path d="M 672.961844 132.764702 
L 805.50383 132.764702 
Q 812.50383 132.764702 812.50383 125.764702 
L 812.50383 31.7 
Q 812.50383 24.7 805.50383 24.7 
L 672.961844 24.7 
Q 665.961844 24.7 665.961844 31.7 
L 665.961844 125.764702 
Q 665.961844 132.764702 672.961844 132.764702 
z
" style="fill: #ffffff; stroke: #cccccc; stroke-linejoin: miter"/>
    </g>
    <g id="patch_8">
     <path d="M 679.961844 63.2 
L 749.961844 63.2 
L 749.961844 38.7 
L 679.961844 38.7 
z
" style="fill: #99ccff; fill-opacity: 0.7"/>
    </g>
    <g id="text_16">
     <!-- $\sigma$ -->
     <g transform="translate(777.961844 63.2)scale(0.35 -0.35)">
      <defs>
       <path id="CMMI12-1b" d="M 3251 2408 
C 3334 2408 3546 2408 3546 2612 
C 3546 2752 3424 2752 3309 2752 
L 1894 2752 
C 934 2752 243 1686 243 932 
C 243 390 595 -64 1171 -64 
C 1926 -64 2752 747 2752 1705 
C 2752 1954 2694 2196 2541 2408 
L 3251 2408 
z
M 1178 64 
C 851 64 614 313 614 754 
C 614 1137 845 2408 1786 2408 
C 2061 2408 2368 2274 2368 1781 
C 2368 1558 2266 1021 2042 652 
C 1811 275 1466 64 1178 64 
z
" transform="scale(0.015625)"/>
      </defs>
      <use xlink:href="#CMMI12-1b" transform="scale(0.996264)"/>
     </g>
    </g>
    <g id="line2d_28">
     <path d="M 679.961844 99.732351 
L 714.961844 99.732351 
L 749.961844 99.732351 
" style="fill: none; stroke: #ff0000; stroke-width: 3; stroke-linecap: square"/>
    </g>
    <g id="text_17">
     <!-- $\mu$ -->
     <g transform="translate(777.961844 111.982351)scale(0.35 -0.35)">
      <defs>
       <path id="CMMI12-16" d="M 922 140 
C 1082 -6 1318 -64 1536 -64 
C 1946 -64 2227 208 2374 405 
C 2438 69 2707 -64 2931 -64 
C 3123 -64 3277 50 3392 277 
C 3494 493 3584 879 3584 903 
C 3584 935 3558 960 3520 960 
C 3462 960 3456 928 3430 834 
C 3334 461 3213 64 2950 64 
C 2765 64 2752 229 2752 358 
C 2752 504 2810 735 2854 926 
L 3034 1615 
C 3059 1737 3130 2023 3162 2139 
C 3200 2292 3270 2567 3270 2592 
C 3270 2688 3194 2752 3098 2752 
C 3040 2752 2906 2726 2854 2535 
L 2406 760 
C 2374 632 2374 619 2291 517 
C 2214 409 1965 64 1562 64 
C 1203 64 1088 326 1088 625 
C 1088 811 1146 1034 1171 1143 
L 1459 2293 
C 1491 2414 1542 2618 1542 2657 
C 1542 2759 1459 2816 1376 2816 
C 1318 2816 1178 2797 1126 2592 
L 198 -1107 
C 192 -1139 179 -1177 179 -1216 
C 179 -1312 256 -1376 352 -1376 
C 538 -1376 576 -1228 621 -1050 
L 922 140 
z
" transform="scale(0.015625)"/>
      </defs>
      <use xlink:href="#CMMI12-16" transform="scale(0.996264)"/>
     </g>
    </g>
   </g>
  </g>
 </g>
 <defs>
  <clipPath id="p822094af8c">
   <rect x="104.60383" y="7.2" width="725.4" height="609.84"/>
  </clipPath>
 </defs>
</svg>
