<?xml version="1.0" encoding="utf-8" standalone="no"?>
<!DOCTYPE svg PUBLIC "-//W3C//DTD SVG 1.1//EN"
  "http://www.w3.org/Graphics/SVG/1.1/DTD/svg11.dtd">
<svg xmlns:xlink="http://www.w3.org/1999/xlink" width="868.00106pt" height="703.183796pt" viewBox="0 0 868.00106 703.183796" xmlns="http://www.w3.org/2000/svg" version="1.1">
 <metadata>
  <rdf:RDF xmlns:dc="http://purl.org/dc/elements/1.1/" xmlns:cc="http://creativecommons.org/ns#" xmlns:rdf="http://www.w3.org/1999/02/22-rdf-syntax-ns#">
   <cc:Work>
    <dc:type rdf:resource="http://purl.org/dc/dcmitype/StillImage"/>
    <dc:date>2025-03-26T12:44:20.804771</dc:date>
    <dc:format>image/svg+xml</dc:format>
    <dc:creator>
     <cc:Agent>
      <dc:title>Matplotlib v3.7.1, https://matplotlib.org/</dc:title>
     </cc:Agent>
    </dc:creator>
   </cc:Work>
  </rdf:RDF>
 </metadata>
 <defs>
  <style type="text/css">*{stroke-linejoin: round; stroke-linecap: butt}</style>
 </defs>
 <g id="figure_1">
  <g id="patch_1">
   <path d="M 0 703.183796 
L 868.00106 703.183796 
L 868.00106 0 
L 0 0 
z
" style="fill: #ffffff"/>
  </g>
  <g id="axes_1">
   <g id="patch_2">
    <path d="M 135.40106 627.417748 
L 860.80106 627.417748 
L 860.80106 17.577748 
L 135.40106 17.577748 
z
" style="fill: #ffffff"/>
   </g>
   <g id="PolyCollection_1">
    <path d="M 148.834393 559.657748 
L 148.834393 559.657748 
L 167.091556 559.657748 
L 180.419404 559.657748 
L 190.148976 559.657748 
L 197.251961 559.657748 
L 202.437713 559.657748 
L 206.224103 559.657748 
L 208.989224 559.657748 
L 211.009132 559.657748 
L 212.4854 559.657748 
L 213.664132 559.657748 
L 214.832596 559.657748 
L 216.00106 559.657748 
L 217.198626 559.657748 
L 218.396192 559.657748 
L 219.593758 559.657748 
L 220.791323 559.657748 
L 221.988889 559.657748 
L 223.186455 559.657748 
L 224.384021 559.657748 
L 225.581587 559.657748 
L 226.779153 559.657748 
L 227.976718 559.657748 
L 229.174284 559.657748 
L 230.37185 559.657748 
L 231.569416 559.657748 
L 232.766982 559.657748 
L 233.964548 559.657748 
L 235.162114 559.657748 
L 236.359679 559.657748 
L 237.557245 559.657748 
L 238.754811 559.657748 
L 239.952377 559.657748 
L 241.149943 559.657748 
L 242.347509 559.657748 
L 243.545075 559.657748 
L 244.74264 559.657748 
L 245.940206 559.657748 
L 247.137772 559.657748 
L 248.335338 559.657748 
L 249.532904 559.657748 
L 250.73047 559.657748 
L 251.928035 559.657748 
L 253.125601 559.657748 
L 254.323167 559.657748 
L 255.520733 559.657748 
L 256.718299 559.657748 
L 257.915866 559.657748 
L 259.143602 559.657748 
L 260.415204 559.657748 
L 261.732564 559.657748 
L 263.098204 559.657748 
L 264.514706 559.657748 
L 265.983555 559.657748 
L 267.506519 559.657748 
L 269.085661 559.657748 
L 270.723246 559.657748 
L 272.420705 559.657748 
L 274.179812 559.657748 
L 276.003041 559.657748 
L 277.893724 559.657748 
L 279.855619 559.657748 
L 281.887838 559.657748 
L 283.994951 559.657748 
L 286.180796 559.657748 
L 288.445503 559.657748 
L 290.794897 559.657748 
L 293.230282 559.657748 
L 295.754546 559.657748 
L 298.372767 559.657748 
L 301.087253 559.657748 
L 303.901395 559.657748 
L 306.819054 559.657748 
L 309.844177 559.657748 
L 312.980671 559.657748 
L 316.232504 559.657748 
L 319.603974 559.657748 
L 323.100106 559.657748 
L 326.724795 559.657748 
L 330.482783 559.657748 
L 334.379387 559.657748 
L 338.419659 559.657748 
L 342.608436 559.657748 
L 346.951477 559.657748 
L 351.45464 559.657748 
L 356.1238 559.657748 
L 360.964856 559.657748 
L 365.958678 559.657748 
L 371.0965 559.657748 
L 376.423458 559.657748 
L 381.947015 559.657748 
L 387.674039 559.657748 
L 393.612158 559.657748 
L 399.7692 559.657748 
L 406.153132 559.657748 
L 412.772406 559.657748 
L 419.635807 559.657748 
L 426.752215 559.657748 
L 434.130915 559.657748 
L 441.781638 559.657748 
L 449.334496 559.657748 
L 454.971416 559.657748 
L 458.985672 559.657748 
L 461.844867 559.657748 
L 463.881803 559.657748 
L 465.333316 559.657748 
L 466.474083 559.657748 
L 467.605118 559.657748 
L 468.736152 559.657748 
L 469.867187 559.657748 
L 470.998221 559.657748 
L 472.129255 559.657748 
L 473.26029 559.657748 
L 474.391324 559.657748 
L 475.522359 559.618911 
L 476.347154 558.98597 
L 477.171949 557.9102 
L 477.996745 556.022689 
L 478.82154 553.885833 
L 479.646335 552.204141 
L 480.471131 551.303383 
L 481.295926 550.796668 
L 482.120721 550.499843 
L 482.945517 550.349978 
L 483.770312 550.290895 
L 484.595108 550.267422 
L 485.419903 550.265601 
L 486.244698 550.275669 
L 487.069494 550.292938 
L 487.894289 550.330247 
L 488.719084 550.380094 
L 489.54388 550.442031 
L 490.368675 550.51275 
L 491.19347 550.590573 
L 492.018266 550.669045 
L 492.843061 550.7506 
L 493.667856 550.840066 
L 494.492652 550.93713 
L 495.317447 551.029374 
L 496.142243 551.117292 
L 496.967038 551.201207 
L 497.791833 551.281422 
L 498.616629 551.357455 
L 499.441424 551.425977 
L 500.266219 551.486249 
L 501.091015 551.549313 
L 501.91581 551.609855 
L 502.740605 551.667506 
L 503.565401 551.723022 
L 504.390196 551.78638 
L 505.214991 551.853893 
L 506.039787 551.92448 
L 506.864582 551.99641 
L 507.689378 552.070881 
L 508.514173 552.148439 
L 509.338968 552.235868 
L 510.163764 552.333912 
L 510.988559 552.442192 
L 511.813354 552.557424 
L 512.646596 552.689005 
L 513.53156 552.836906 
L 514.494197 553.01362 
L 515.532138 553.203931 
L 516.659653 553.423254 
L 517.883479 553.66272 
L 519.209351 553.945842 
L 520.648461 554.249516 
L 522.213559 554.580503 
L 523.914959 554.951725 
L 525.764855 555.304376 
L 527.776881 555.630971 
L 529.965976 555.908066 
L 532.348702 556.128547 
L 534.942126 556.294896 
L 537.762087 556.44882 
L 540.83103 556.538348 
L 544.165925 556.540928 
L 547.789746 556.458793 
L 551.721424 556.296202 
L 555.980275 556.042652 
L 560.58374 555.686639 
L 565.543139 555.294994 
L 570.861092 554.748431 
L 576.520639 554.065473 
L 582.434635 553.208384 
L 588.373162 552.325316 
L 594.311688 551.530295 
L 600.250215 550.782429 
L 606.188741 549.920701 
L 612.127268 548.870988 
L 618.065794 547.803068 
L 624.004321 546.718769 
L 629.942848 545.64635 
L 635.881374 544.513006 
L 641.819901 543.486802 
L 647.758427 542.500352 
L 653.696954 541.633569 
L 659.63548 540.991185 
L 665.574007 540.864503 
L 673.96984 541.361258 
L 682.365674 541.531204 
L 690.761507 541.684292 
L 699.15734 541.859672 
L 707.553174 542.03758 
L 715.949007 542.235093 
L 724.34484 542.397433 
L 732.740674 542.533722 
L 741.136507 542.659649 
L 749.53234 542.784579 
L 757.928174 542.907865 
L 766.324007 543.016458 
L 774.71984 543.119879 
L 783.115674 543.220366 
L 791.511507 543.308659 
L 799.90734 543.394655 
L 808.303174 543.477647 
L 816.699007 543.560451 
L 825.09484 543.636827 
L 833.490674 543.70993 
L 841.886507 543.774295 
L 850.28234 543.837463 
L 858.678174 543.894464 
L 867.074007 543.930161 
L 867.074007 568.111683 
L 867.074007 568.111683 
L 858.678174 568.123338 
L 850.28234 568.144724 
L 841.886507 568.171243 
L 833.490674 568.204777 
L 825.09484 568.244233 
L 816.699007 568.285623 
L 808.303174 568.324558 
L 799.90734 568.366926 
L 791.511507 568.409294 
L 783.115674 568.456022 
L 774.71984 568.482891 
L 766.324007 568.512576 
L 757.928174 568.548388 
L 749.53234 568.586279 
L 741.136507 568.627011 
L 732.740674 568.666049 
L 724.34484 568.688251 
L 715.949007 568.683832 
L 707.553174 568.670864 
L 699.15734 568.753646 
L 690.761507 568.804835 
L 682.365674 568.777045 
L 673.96984 568.645251 
L 665.574007 568.268476 
L 659.63548 568.274565 
L 653.696954 568.472137 
L 647.758427 568.407156 
L 641.819901 567.980322 
L 635.881374 567.441869 
L 629.942848 566.736333 
L 624.004321 566.161904 
L 618.065794 565.60971 
L 612.127268 565.117144 
L 606.188741 564.643748 
L 600.250215 564.181998 
L 594.311688 563.749332 
L 588.373162 563.292378 
L 582.434635 562.765195 
L 576.520639 562.233159 
L 570.861092 561.776261 
L 565.543139 561.419943 
L 560.58374 561.19035 
L 555.980275 561.006687 
L 551.721424 560.882454 
L 547.789746 560.783115 
L 544.165925 560.694484 
L 540.83103 560.627604 
L 537.762087 560.578391 
L 534.942126 560.50176 
L 532.348702 560.450678 
L 529.965976 560.395688 
L 527.776881 560.346957 
L 525.764855 560.297215 
L 523.914959 560.235848 
L 522.213559 560.172041 
L 520.648461 560.133886 
L 519.209351 560.098146 
L 517.883479 560.072407 
L 516.659653 560.066787 
L 515.532138 560.052005 
L 514.494197 560.036605 
L 513.53156 560.008434 
L 512.646596 559.979294 
L 511.813354 559.949506 
L 510.988559 559.918989 
L 510.163764 559.90034 
L 509.338968 559.879796 
L 508.514173 559.857603 
L 507.689378 559.841011 
L 506.864582 559.823972 
L 506.039787 559.808248 
L 505.214991 559.792387 
L 504.390196 559.775726 
L 503.565401 559.757329 
L 502.740605 559.739268 
L 501.91581 559.725997 
L 501.091015 559.71645 
L 500.266219 559.707654 
L 499.441424 559.704057 
L 498.616629 559.703115 
L 497.791833 559.706523 
L 496.967038 559.720665 
L 496.142243 559.736171 
L 495.317447 559.756648 
L 494.492652 559.781864 
L 493.667856 559.800702 
L 492.843061 559.813533 
L 492.018266 559.823669 
L 491.19347 559.837721 
L 490.368675 559.855609 
L 489.54388 559.86759 
L 488.719084 559.880615 
L 487.894289 559.88763 
L 487.069494 559.8988 
L 486.244698 559.913148 
L 485.419903 559.96292 
L 484.595108 560.041192 
L 483.770312 560.156235 
L 482.945517 560.30464 
L 482.120721 560.505089 
L 481.295926 560.800889 
L 480.471131 561.037825 
L 479.646335 561.148307 
L 478.82154 561.056111 
L 477.996745 560.634631 
L 477.171949 560.228818 
L 476.347154 559.829257 
L 475.522359 559.663846 
L 474.391324 559.657748 
L 473.26029 559.657748 
L 472.129255 559.657748 
L 470.998221 559.657748 
L 469.867187 559.657748 
L 468.736152 559.657748 
L 467.605118 559.657748 
L 466.474083 559.657748 
L 465.333316 559.657748 
L 463.881803 559.657748 
L 461.844867 559.657748 
L 458.985672 559.657748 
L 454.971416 559.657748 
L 449.334496 559.657748 
L 441.781638 559.657748 
L 434.130915 559.657748 
L 426.752215 559.657748 
L 419.635807 559.657748 
L 412.772406 559.657748 
L 406.153132 559.657748 
L 399.7692 559.657748 
L 393.612158 559.657748 
L 387.674039 559.657748 
L 381.947015 559.657748 
L 376.423458 559.657748 
L 371.0965 559.657748 
L 365.958678 559.657748 
L 360.964856 559.657748 
L 356.1238 559.657748 
L 351.45464 559.657748 
L 346.951477 559.657748 
L 342.608436 559.657748 
L 338.419659 559.657748 
L 334.379387 559.657748 
L 330.482783 559.657748 
L 326.724795 559.657748 
L 323.100106 559.657748 
L 319.603974 559.657748 
L 316.232504 559.657748 
L 312.980671 559.657748 
L 309.844177 559.657748 
L 306.819054 559.657748 
L 303.901395 559.657748 
L 301.087253 559.657748 
L 298.372767 559.657748 
L 295.754546 559.657748 
L 293.230282 559.657748 
L 290.794897 559.657748 
L 288.445503 559.657748 
L 286.180796 559.657748 
L 283.994951 559.657748 
L 281.887838 559.657748 
L 279.855619 559.657748 
L 277.893724 559.657748 
L 276.003041 559.657748 
L 274.179812 559.657748 
L 272.420705 559.657748 
L 270.723246 559.657748 
L 269.085661 559.657748 
L 267.506519 559.657748 
L 265.983555 559.657748 
L 264.514706 559.657748 
L 263.098204 559.657748 
L 261.732564 559.657748 
L 260.415204 559.657748 
L 259.143602 559.657748 
L 257.915866 559.657748 
L 256.718299 559.657748 
L 255.520733 559.657748 
L 254.323167 559.657748 
L 253.125601 559.657748 
L 251.928035 559.657748 
L 250.73047 559.657748 
L 249.532904 559.657748 
L 248.335338 559.657748 
L 247.137772 559.657748 
L 245.940206 559.657748 
L 244.74264 559.657748 
L 243.545075 559.657748 
L 242.347509 559.657748 
L 241.149943 559.657748 
L 239.952377 559.657748 
L 238.754811 559.657748 
L 237.557245 559.657748 
L 236.359679 559.657748 
L 235.162114 559.657748 
L 233.964548 559.657748 
L 232.766982 559.657748 
L 231.569416 559.657748 
L 230.37185 559.657748 
L 229.174284 559.657748 
L 227.976718 559.657748 
L 226.779153 559.657748 
L 225.581587 559.657748 
L 224.384021 559.657748 
L 223.186455 559.657748 
L 221.988889 559.657748 
L 220.791323 559.657748 
L 219.593758 559.657748 
L 218.396192 559.657748 
L 217.198626 559.657748 
L 216.00106 559.657748 
L 214.832596 559.657748 
L 213.664132 559.657748 
L 212.4854 559.657748 
L 211.009132 559.657748 
L 208.989224 559.657748 
L 206.224103 559.657748 
L 202.437713 559.657748 
L 197.251961 559.657748 
L 190.148976 559.657748 
L 180.419404 559.657748 
L 167.091556 559.657748 
L 148.834393 559.657748 
z
" clip-path="url(#p503239ae12)" style="fill: #99ccff; fill-opacity: 0.7"/>
   </g>
   <g id="PolyCollection_2">
    <path d="M 148.834393 559.657748 
L 148.834393 559.657748 
L 167.091556 559.657748 
L 180.419404 559.657748 
L 190.148976 559.657748 
L 197.251961 559.657748 
L 202.437713 559.657748 
L 206.224103 559.657748 
L 208.989224 559.657748 
L 211.009132 559.657748 
L 212.4854 559.657748 
L 213.664132 559.657748 
L 214.832596 559.657748 
L 216.00106 559.657748 
L 217.198626 559.657748 
L 218.396192 559.657748 
L 219.593758 559.657748 
L 220.791323 559.657748 
L 221.988889 559.657748 
L 223.186455 559.657748 
L 224.384021 559.657748 
L 225.581587 559.657748 
L 226.779153 559.657748 
L 227.976718 559.657748 
L 229.174284 559.657748 
L 230.37185 559.657748 
L 231.569416 559.657748 
L 232.766982 559.657748 
L 233.964548 559.657748 
L 235.162114 559.657748 
L 236.359679 559.657748 
L 237.557245 559.657748 
L 238.754811 559.657748 
L 239.952377 559.657748 
L 241.149943 559.657748 
L 242.347509 559.657748 
L 243.545075 559.657748 
L 244.74264 559.657748 
L 245.940206 559.657748 
L 247.137772 559.657748 
L 248.335338 559.657748 
L 249.532904 559.657748 
L 250.73047 559.657748 
L 251.928035 559.657748 
L 253.125601 559.657748 
L 254.323167 559.657748 
L 255.520733 559.657748 
L 256.718299 559.657748 
L 257.915866 559.657748 
L 259.143602 559.657748 
L 260.415204 559.657748 
L 261.732564 559.657748 
L 263.098204 559.657748 
L 264.514706 559.657748 
L 265.983555 559.657748 
L 267.506519 559.657747 
L 269.085661 559.657747 
L 270.723246 559.657747 
L 272.420705 559.657747 
L 274.179812 559.657747 
L 276.003041 559.657747 
L 277.893724 559.657747 
L 279.855619 559.657747 
L 281.887838 559.657747 
L 283.994951 559.657747 
L 286.180796 559.657747 
L 288.445503 559.657747 
L 290.794897 559.657747 
L 293.230282 559.657747 
L 295.754546 559.657747 
L 298.372767 559.657747 
L 301.087253 559.657747 
L 303.901395 559.657747 
L 306.819054 559.657747 
L 309.844177 559.657747 
L 312.980671 559.657747 
L 316.232504 559.657747 
L 319.603974 559.657747 
L 323.100106 559.657747 
L 326.724795 559.657747 
L 330.482783 559.657747 
L 334.379387 559.657747 
L 338.419659 559.657747 
L 342.608436 559.657747 
L 346.951477 559.657747 
L 351.45464 559.657747 
L 356.1238 559.657747 
L 360.964856 559.657747 
L 365.958678 559.657747 
L 371.0965 559.657747 
L 376.423458 559.657747 
L 381.947015 559.657747 
L 387.674039 559.657747 
L 393.612158 559.657746 
L 399.7692 559.657746 
L 406.153132 559.657746 
L 412.772406 559.657746 
L 419.635807 559.657746 
L 426.752215 559.657746 
L 434.130915 559.657746 
L 441.781638 559.657746 
L 449.334496 559.657746 
L 454.971416 559.657745 
L 458.985672 559.657745 
L 461.844867 559.657745 
L 463.881803 559.657745 
L 465.333316 559.657745 
L 466.474083 559.657745 
L 467.605118 559.657745 
L 468.736152 559.657745 
L 469.867187 559.657745 
L 470.998221 559.657745 
L 472.129255 559.657745 
L 473.26029 559.657745 
L 474.391324 559.657743 
L 475.522359 559.243489 
L 476.347154 552.710606 
L 477.171949 542.218471 
L 477.996745 522.24217 
L 478.82154 496.113799 
L 479.646335 465.38256 
L 480.471131 438.458103 
L 481.295926 415.900059 
L 482.120721 395.870811 
L 482.945517 378.974631 
L 483.770312 364.321159 
L 484.595108 351.090538 
L 485.419903 339.09642 
L 486.244698 327.820815 
L 487.069494 318.100926 
L 487.894289 308.839685 
L 488.719084 300.711089 
L 489.54388 292.658928 
L 490.368675 286.415848 
L 491.19347 280.262368 
L 492.018266 274.700341 
L 492.843061 269.205813 
L 493.667856 264.100447 
L 494.492652 259.273668 
L 495.317447 254.978383 
L 496.142243 250.710998 
L 496.967038 247.326438 
L 497.791833 244.12575 
L 498.616629 241.252666 
L 499.441424 238.358393 
L 500.266219 235.72977 
L 501.091015 233.288585 
L 501.91581 231.116562 
L 502.740605 229.078764 
L 503.565401 227.130223 
L 504.390196 225.357705 
L 505.214991 223.725184 
L 506.039787 222.15916 
L 506.864582 220.724974 
L 507.689378 219.520282 
L 508.514173 218.446994 
L 509.338968 217.319517 
L 510.163764 216.208478 
L 510.988559 215.157624 
L 511.813354 213.854069 
L 512.646596 212.606992 
L 513.53156 211.234337 
L 514.494197 209.768087 
L 515.532138 208.413803 
L 516.659653 207.010108 
L 517.883479 205.75604 
L 519.209351 204.241339 
L 520.648461 202.928367 
L 522.213559 201.97946 
L 523.914959 201.295628 
L 525.764855 200.779603 
L 527.776881 200.409107 
L 529.965976 200.341538 
L 532.348702 200.685533 
L 534.942126 201.296588 
L 537.762087 202.845877 
L 540.83103 205.231715 
L 544.165925 206.958825 
L 547.789746 207.658066 
L 551.721424 207.355721 
L 555.980275 206.189996 
L 560.58374 204.158002 
L 565.543139 201.843109 
L 570.861092 199.609845 
L 576.520639 197.460977 
L 582.434635 194.767013 
L 588.373162 192.022623 
L 594.311688 188.838416 
L 600.250215 185.517291 
L 606.188741 181.178888 
L 612.127268 173.97798 
L 618.065794 167.249347 
L 624.004321 160.996801 
L 629.942848 155.323829 
L 635.881374 151.169372 
L 641.819901 145.53875 
L 647.758427 138.122262 
L 653.696954 128.314585 
L 659.63548 119.088127 
L 665.574007 113.33633 
L 673.96984 112.241556 
L 682.365674 111.640056 
L 690.761507 111.118634 
L 699.15734 110.60325 
L 707.553174 110.060573 
L 715.949007 109.326094 
L 724.34484 108.742611 
L 732.740674 108.320621 
L 741.136507 107.977764 
L 749.53234 107.665087 
L 757.928174 107.372627 
L 766.324007 107.083588 
L 774.71984 106.784229 
L 783.115674 106.505717 
L 791.511507 106.350943 
L 799.90734 106.186095 
L 808.303174 106.048222 
L 816.699007 105.899659 
L 825.09484 105.76996 
L 833.490674 105.62868 
L 841.886507 105.491829 
L 850.28234 105.344549 
L 858.678174 105.206214 
L 867.074007 105.111923 
L 867.074007 267.435392 
L 867.074007 267.435392 
L 858.678174 267.500393 
L 850.28234 267.588956 
L 841.886507 267.67976 
L 833.490674 267.75701 
L 825.09484 267.836025 
L 816.699007 267.901292 
L 808.303174 267.984934 
L 799.90734 268.060622 
L 791.511507 268.163407 
L 783.115674 268.260112 
L 774.71984 268.477936 
L 766.324007 268.70965 
L 757.928174 268.929136 
L 749.53234 269.149594 
L 741.136507 269.388924 
L 732.740674 269.650104 
L 724.34484 269.980521 
L 715.949007 270.472724 
L 707.553174 271.087234 
L 699.15734 271.390476 
L 690.761507 271.764715 
L 682.365674 272.283028 
L 673.96984 272.95407 
L 665.574007 274.138759 
L 659.63548 280.378862 
L 653.696954 290.671656 
L 647.758427 302.27754 
L 641.819901 311.501803 
L 635.881374 318.770631 
L 629.942848 324.502229 
L 624.004321 331.486125 
L 618.065794 338.905784 
L 612.127268 346.546345 
L 606.188741 354.434757 
L 600.250215 359.112751 
L 594.311688 362.358923 
L 588.373162 365.237802 
L 582.434635 367.308248 
L 576.520639 368.828323 
L 570.861092 369.285586 
L 565.543139 369.427457 
L 560.58374 369.307438 
L 555.980275 368.768108 
L 551.721424 367.39786 
L 547.789746 365.158034 
L 544.165925 362.150313 
L 540.83103 358.516542 
L 537.762087 354.654408 
L 534.942126 351.741531 
L 532.348702 349.923049 
L 529.965976 348.613578 
L 527.776881 347.965306 
L 525.764855 347.791197 
L 523.914959 347.88748 
L 522.213559 348.292291 
L 520.648461 349.096035 
L 519.209351 350.368864 
L 517.883479 351.941714 
L 516.659653 353.328715 
L 515.532138 354.965149 
L 514.494197 356.591226 
L 513.53156 358.367165 
L 512.646596 359.990807 
L 511.813354 361.48822 
L 510.988559 363.02316 
L 510.163764 364.395866 
L 509.338968 365.741675 
L 508.514173 367.066989 
L 507.689378 368.335084 
L 506.864582 369.735807 
L 506.039787 371.364687 
L 505.214991 373.101914 
L 504.390196 374.854615 
L 503.565401 376.682568 
L 502.740605 378.616274 
L 501.91581 380.771291 
L 501.091015 383.11678 
L 500.266219 385.772862 
L 499.441424 388.60376 
L 498.616629 391.761652 
L 497.791833 394.952486 
L 496.967038 398.535909 
L 496.142243 402.286836 
L 495.317447 406.909353 
L 494.492652 411.541564 
L 493.667856 416.549097 
L 492.843061 421.624804 
L 492.018266 426.850316 
L 491.19347 431.944016 
L 490.368675 437.396085 
L 489.54388 442.498622 
L 488.719084 448.890539 
L 487.894289 455.047427 
L 487.069494 461.869137 
L 486.244698 468.278509 
L 485.419903 475.852409 
L 484.595108 483.52215 
L 483.770312 491.52152 
L 482.945517 499.700709 
L 482.120721 508.875793 
L 481.295926 520.413719 
L 480.471131 531.277575 
L 479.646335 544.212453 
L 478.82154 557.01536 
L 477.996745 562.219905 
L 477.171949 563.493405 
L 476.347154 560.934106 
L 475.522359 559.686668 
L 474.391324 559.657751 
L 473.26029 559.657749 
L 472.129255 559.657749 
L 470.998221 559.657749 
L 469.867187 559.657749 
L 468.736152 559.657749 
L 467.605118 559.657749 
L 466.474083 559.657749 
L 465.333316 559.657749 
L 463.881803 559.657749 
L 461.844867 559.657749 
L 458.985672 559.657749 
L 454.971416 559.657749 
L 449.334496 559.657749 
L 441.781638 559.657749 
L 434.130915 559.657748 
L 426.752215 559.657748 
L 419.635807 559.657748 
L 412.772406 559.657748 
L 406.153132 559.657748 
L 399.7692 559.657748 
L 393.612158 559.657748 
L 387.674039 559.657748 
L 381.947015 559.657748 
L 376.423458 559.657748 
L 371.0965 559.657748 
L 365.958678 559.657748 
L 360.964856 559.657748 
L 356.1238 559.657748 
L 351.45464 559.657748 
L 346.951477 559.657748 
L 342.608436 559.657748 
L 338.419659 559.657748 
L 334.379387 559.657748 
L 330.482783 559.657748 
L 326.724795 559.657748 
L 323.100106 559.657748 
L 319.603974 559.657748 
L 316.232504 559.657748 
L 312.980671 559.657748 
L 309.844177 559.657748 
L 306.819054 559.657748 
L 303.901395 559.657748 
L 301.087253 559.657748 
L 298.372767 559.657748 
L 295.754546 559.657748 
L 293.230282 559.657748 
L 290.794897 559.657748 
L 288.445503 559.657748 
L 286.180796 559.657748 
L 283.994951 559.657748 
L 281.887838 559.657748 
L 279.855619 559.657748 
L 277.893724 559.657748 
L 276.003041 559.657748 
L 274.179812 559.657748 
L 272.420705 559.657748 
L 270.723246 559.657748 
L 269.085661 559.657748 
L 267.506519 559.657748 
L 265.983555 559.657748 
L 264.514706 559.657748 
L 263.098204 559.657748 
L 261.732564 559.657748 
L 260.415204 559.657748 
L 259.143602 559.657748 
L 257.915866 559.657748 
L 256.718299 559.657748 
L 255.520733 559.657748 
L 254.323167 559.657748 
L 253.125601 559.657748 
L 251.928035 559.657748 
L 250.73047 559.657748 
L 249.532904 559.657748 
L 248.335338 559.657748 
L 247.137772 559.657748 
L 245.940206 559.657748 
L 244.74264 559.657748 
L 243.545075 559.657748 
L 242.347509 559.657748 
L 241.149943 559.657748 
L 239.952377 559.657748 
L 238.754811 559.657748 
L 237.557245 559.657748 
L 236.359679 559.657748 
L 235.162114 559.657748 
L 233.964548 559.657748 
L 232.766982 559.657748 
L 231.569416 559.657748 
L 230.37185 559.657748 
L 229.174284 559.657748 
L 227.976718 559.657748 
L 226.779153 559.657748 
L 225.581587 559.657748 
L 224.384021 559.657748 
L 223.186455 559.657748 
L 221.988889 559.657748 
L 220.791323 559.657748 
L 219.593758 559.657748 
L 218.396192 559.657748 
L 217.198626 559.657748 
L 216.00106 559.657748 
L 214.832596 559.657748 
L 213.664132 559.657748 
L 212.4854 559.657748 
L 211.009132 559.657748 
L 208.989224 559.657748 
L 206.224103 559.657748 
L 202.437713 559.657748 
L 197.251961 559.657748 
L 190.148976 559.657748 
L 180.419404 559.657748 
L 167.091556 559.657748 
L 148.834393 559.657748 
z
" clip-path="url(#p503239ae12)" style="fill: #008000; fill-opacity: 0.2"/>
   </g>
   <g id="PolyCollection_3">
    <path d="M 148.834393 559.657748 
L 148.834393 559.657748 
L 167.091556 559.657748 
L 180.419404 559.657748 
L 190.148976 559.657748 
L 197.251961 559.657748 
L 202.437713 559.657748 
L 206.224103 559.657748 
L 208.989224 559.657748 
L 211.009132 559.657748 
L 212.4854 559.657748 
L 213.664132 559.657748 
L 214.832596 559.657748 
L 216.00106 559.657748 
L 217.198626 559.657748 
L 218.396192 559.657748 
L 219.593758 559.657748 
L 220.791323 559.657748 
L 221.988889 559.657748 
L 223.186455 559.657748 
L 224.384021 559.657748 
L 225.581587 559.657748 
L 226.779153 559.657748 
L 227.976718 559.657748 
L 229.174284 559.657748 
L 230.37185 559.657748 
L 231.569416 559.657748 
L 232.766982 559.657748 
L 233.964548 559.657748 
L 235.162114 559.657748 
L 236.359679 559.657748 
L 237.557245 559.657748 
L 238.754811 559.657748 
L 239.952377 559.657748 
L 241.149943 559.657748 
L 242.347509 559.657748 
L 243.545075 559.657748 
L 244.74264 559.657748 
L 245.940206 559.657748 
L 247.137772 559.657748 
L 248.335338 559.657748 
L 249.532904 559.657748 
L 250.73047 559.657748 
L 251.928035 559.657748 
L 253.125601 559.657748 
L 254.323167 559.657748 
L 255.520733 559.657748 
L 256.718299 559.657748 
L 257.915866 559.657748 
L 259.143602 559.657748 
L 260.415204 559.657748 
L 261.732564 559.657748 
L 263.098204 559.657748 
L 264.514706 559.657748 
L 265.983555 559.657748 
L 267.506519 559.657748 
L 269.085661 559.657748 
L 270.723246 559.657748 
L 272.420705 559.657748 
L 274.179812 559.657748 
L 276.003041 559.657748 
L 277.893724 559.657748 
L 279.855619 559.657748 
L 281.887838 559.657748 
L 283.994951 559.657748 
L 286.180796 559.657748 
L 288.445503 559.657748 
L 290.794897 559.657748 
L 293.230282 559.657748 
L 295.754546 559.657748 
L 298.372767 559.657748 
L 301.087253 559.657748 
L 303.901395 559.657748 
L 306.819054 559.657748 
L 309.844177 559.657748 
L 312.980671 559.657748 
L 316.232504 559.657748 
L 319.603974 559.657748 
L 323.100106 559.657748 
L 326.724795 559.657748 
L 330.482783 559.657748 
L 334.379387 559.657748 
L 338.419659 559.657748 
L 342.608436 559.657748 
L 346.951477 559.657748 
L 351.45464 559.657748 
L 356.1238 559.657748 
L 360.964856 559.657748 
L 365.958678 559.657748 
L 371.0965 559.657748 
L 376.423458 559.657748 
L 381.947015 559.657748 
L 387.674039 559.657748 
L 393.612158 559.657748 
L 399.7692 559.657748 
L 406.153132 559.657748 
L 412.772406 559.657748 
L 419.635807 559.657748 
L 426.752215 559.657748 
L 434.130915 559.657748 
L 441.781638 559.657748 
L 449.334496 559.657748 
L 454.971416 559.657748 
L 458.985672 559.657748 
L 461.844867 559.657748 
L 463.881803 559.657748 
L 465.333316 559.657748 
L 466.474083 559.657748 
L 467.605118 559.657748 
L 468.736152 559.657748 
L 469.867187 559.657748 
L 470.998221 559.657748 
L 472.129255 559.657748 
L 473.26029 559.657748 
L 474.391324 559.657748 
L 475.522359 559.491577 
L 476.347154 555.961858 
L 477.171949 550.198419 
L 477.996745 538.567282 
L 478.82154 523.674551 
L 479.646335 507.441411 
L 480.471131 493.965464 
L 481.295926 483.061574 
L 482.120721 473.279852 
L 482.945517 464.820683 
L 483.770312 457.38692 
L 484.595108 450.616908 
L 485.419903 444.371378 
L 486.244698 438.397115 
L 487.069494 433.06458 
L 487.894289 427.803118 
L 488.719084 423.015619 
L 489.54388 418.328075 
L 490.368675 414.586432 
L 491.19347 410.851398 
L 492.018266 407.431337 
L 492.843061 404.015456 
L 493.667856 400.818811 
L 494.492652 397.760989 
L 495.317447 394.986374 
L 496.142243 392.230752 
L 496.967038 390.095308 
L 497.791833 388.121123 
L 498.616629 386.3689 
L 499.441424 384.572705 
L 500.266219 383.000748 
L 501.091015 381.626285 
L 501.91581 380.439951 
L 502.740605 379.383178 
L 503.565401 378.461068 
L 504.390196 377.660756 
L 505.214991 376.934107 
L 506.039787 376.25405 
L 506.864582 375.701283 
L 507.689378 375.312838 
L 508.514173 375.020314 
L 509.338968 374.691585 
L 510.163764 374.353463 
L 510.988559 373.981134 
L 511.813354 373.555017 
L 512.646596 373.16537 
L 513.53156 372.714618 
L 514.494197 372.196301 
L 515.532138 371.736376 
L 516.659653 371.328411 
L 517.883479 371.064642 
L 519.209351 370.732454 
L 520.648461 370.552221 
L 522.213559 370.608821 
L 523.914959 370.892896 
L 525.764855 371.321493 
L 527.776881 371.851179 
L 529.965976 372.523498 
L 532.348702 373.387537 
L 534.942126 374.435506 
L 537.762087 376.099345 
L 540.83103 378.344932 
L 544.165925 380.532859 
L 547.789746 382.652634 
L 551.721424 384.613816 
L 555.980275 386.229507 
L 560.58374 387.418576 
L 565.543139 388.058694 
L 570.861092 388.611593 
L 576.520639 388.773403 
L 582.434635 388.375574 
L 588.373162 387.249933 
L 594.311688 385.521704 
L 600.250215 383.525984 
L 606.188741 381.285078 
L 612.127268 378.690477 
L 618.065794 376.204116 
L 624.004321 373.683678 
L 629.942848 371.063888 
L 635.881374 368.219283 
L 641.819901 365.682255 
L 647.758427 363.833137 
L 653.696954 363.356729 
L 659.63548 363.06543 
L 665.574007 362.179752 
L 673.96984 361.310659 
L 682.365674 361.088988 
L 690.761507 360.357939 
L 699.15734 359.386293 
L 707.553174 358.369921 
L 715.949007 358.00256 
L 724.34484 357.778711 
L 732.740674 357.52095 
L 741.136507 357.208637 
L 749.53234 356.922389 
L 757.928174 356.660035 
L 766.324007 356.416618 
L 774.71984 356.207143 
L 783.115674 356.01607 
L 791.511507 355.756573 
L 799.90734 355.508542 
L 808.303174 355.268087 
L 816.699007 355.039261 
L 825.09484 354.815067 
L 833.490674 354.610895 
L 841.886507 354.449985 
L 850.28234 354.328914 
L 858.678174 354.250766 
L 867.074007 354.205607 
L 867.074007 464.570315 
L 867.074007 464.570315 
L 858.678174 464.466734 
L 850.28234 464.298433 
L 841.886507 464.108348 
L 833.490674 463.917191 
L 825.09484 463.682322 
L 816.699007 463.435835 
L 808.303174 463.150313 
L 799.90734 462.869118 
L 791.511507 462.569328 
L 783.115674 462.268464 
L 774.71984 461.94978 
L 766.324007 461.616949 
L 757.928174 461.24953 
L 749.53234 460.82048 
L 741.136507 460.37157 
L 732.740674 459.9119 
L 724.34484 459.439027 
L 715.949007 458.896177 
L 707.553174 458.193697 
L 699.15734 457.168943 
L 690.761507 456.112312 
L 682.365674 455.277144 
L 673.96984 454.996864 
L 665.574007 453.585509 
L 659.63548 452.615791 
L 653.696954 450.954907 
L 647.758427 450.965384 
L 641.819901 451.287436 
L 635.881374 451.67204 
L 629.942848 450.725319 
L 624.004321 450.060404 
L 618.065794 449.497178 
L 612.127268 449.093838 
L 606.188741 449.558067 
L 600.250215 449.522519 
L 594.311688 449.588885 
L 588.373162 449.950959 
L 582.434635 450.451208 
L 576.520639 451.673719 
L 570.861092 453.54357 
L 565.543139 455.582229 
L 560.58374 457.678854 
L 555.980275 458.90363 
L 551.721424 458.958043 
L 547.789746 458.189003 
L 544.165925 456.960914 
L 540.83103 455.40219 
L 537.762087 453.600279 
L 534.942126 452.237828 
L 532.348702 451.506926 
L 529.965976 450.97821 
L 527.776881 450.793102 
L 525.764855 450.856268 
L 523.914959 451.044865 
L 522.213559 451.454051 
L 520.648461 452.206414 
L 519.209351 453.271156 
L 517.883479 454.515225 
L 516.659653 455.586551 
L 515.532138 456.799654 
L 514.494197 458.008656 
L 513.53156 459.287341 
L 512.646596 460.497365 
L 511.813354 461.65104 
L 510.988559 462.851738 
L 510.163764 464.00309 
L 509.338968 465.167096 
L 508.514173 466.321991 
L 507.689378 467.459556 
L 506.864582 468.673053 
L 506.039787 470.034329 
L 505.214991 471.511654 
L 504.390196 472.983708 
L 503.565401 474.485448 
L 502.740605 476.066456 
L 501.91581 477.742564 
L 501.091015 479.521247 
L 500.266219 481.450267 
L 499.441424 483.518959 
L 498.616629 485.774065 
L 497.791833 487.975321 
L 496.967038 490.367135 
L 496.142243 492.875157 
L 495.317447 495.950679 
L 494.492652 498.995617 
L 493.667856 502.208171 
L 492.843061 505.39809 
L 492.018266 508.633289 
L 491.19347 511.67068 
L 490.368675 514.855128 
L 489.54388 517.716839 
L 488.719084 521.236777 
L 487.894289 524.66563 
L 487.069494 528.327113 
L 486.244698 531.414567 
L 485.419903 535.117614 
L 484.595108 538.802707 
L 483.770312 542.532371 
L 482.945517 546.301042 
L 482.120721 550.305936 
L 481.295926 555.231955 
L 480.471131 559.362835 
L 479.646335 563.952198 
L 478.82154 567.484724 
L 477.996745 566.584535 
L 477.171949 564.171814 
L 476.347154 560.91936 
L 475.522359 559.685596 
L 474.391324 559.657748 
L 473.26029 559.657748 
L 472.129255 559.657748 
L 470.998221 559.657748 
L 469.867187 559.657748 
L 468.736152 559.657748 
L 467.605118 559.657748 
L 466.474083 559.657748 
L 465.333316 559.657748 
L 463.881803 559.657748 
L 461.844867 559.657748 
L 458.985672 559.657748 
L 454.971416 559.657748 
L 449.334496 559.657748 
L 441.781638 559.657748 
L 434.130915 559.657748 
L 426.752215 559.657748 
L 419.635807 559.657748 
L 412.772406 559.657748 
L 406.153132 559.657748 
L 399.7692 559.657748 
L 393.612158 559.657748 
L 387.674039 559.657748 
L 381.947015 559.657748 
L 376.423458 559.657748 
L 371.0965 559.657748 
L 365.958678 559.657748 
L 360.964856 559.657748 
L 356.1238 559.657748 
L 351.45464 559.657748 
L 346.951477 559.657748 
L 342.608436 559.657748 
L 338.419659 559.657748 
L 334.379387 559.657748 
L 330.482783 559.657748 
L 326.724795 559.657748 
L 323.100106 559.657748 
L 319.603974 559.657748 
L 316.232504 559.657748 
L 312.980671 559.657748 
L 309.844177 559.657748 
L 306.819054 559.657748 
L 303.901395 559.657748 
L 301.087253 559.657748 
L 298.372767 559.657748 
L 295.754546 559.657748 
L 293.230282 559.657748 
L 290.794897 559.657748 
L 288.445503 559.657748 
L 286.180796 559.657748 
L 283.994951 559.657748 
L 281.887838 559.657748 
L 279.855619 559.657748 
L 277.893724 559.657748 
L 276.003041 559.657748 
L 274.179812 559.657748 
L 272.420705 559.657748 
L 270.723246 559.657748 
L 269.085661 559.657748 
L 267.506519 559.657748 
L 265.983555 559.657748 
L 264.514706 559.657748 
L 263.098204 559.657748 
L 261.732564 559.657748 
L 260.415204 559.657748 
L 259.143602 559.657748 
L 257.915866 559.657748 
L 256.718299 559.657748 
L 255.520733 559.657748 
L 254.323167 559.657748 
L 253.125601 559.657748 
L 251.928035 559.657748 
L 250.73047 559.657748 
L 249.532904 559.657748 
L 248.335338 559.657748 
L 247.137772 559.657748 
L 245.940206 559.657748 
L 244.74264 559.657748 
L 243.545075 559.657748 
L 242.347509 559.657748 
L 241.149943 559.657748 
L 239.952377 559.657748 
L 238.754811 559.657748 
L 237.557245 559.657748 
L 236.359679 559.657748 
L 235.162114 559.657748 
L 233.964548 559.657748 
L 232.766982 559.657748 
L 231.569416 559.657748 
L 230.37185 559.657748 
L 229.174284 559.657748 
L 227.976718 559.657748 
L 226.779153 559.657748 
L 225.581587 559.657748 
L 224.384021 559.657748 
L 223.186455 559.657748 
L 221.988889 559.657748 
L 220.791323 559.657748 
L 219.593758 559.657748 
L 218.396192 559.657748 
L 217.198626 559.657748 
L 216.00106 559.657748 
L 214.832596 559.657748 
L 213.664132 559.657748 
L 212.4854 559.657748 
L 211.009132 559.657748 
L 208.989224 559.657748 
L 206.224103 559.657748 
L 202.437713 559.657748 
L 197.251961 559.657748 
L 190.148976 559.657748 
L 180.419404 559.657748 
L 167.091556 559.657748 
L 148.834393 559.657748 
z
" clip-path="url(#p503239ae12)" style="fill: #ffa500; fill-opacity: 0.2"/>
   </g>
   <g id="matplotlib.axis_1">
    <g id="xtick_1">
     <g id="line2d_1">
      <path d="M 216.00106 627.417748 
L 216.00106 17.577748 
" clip-path="url(#p503239ae12)" style="fill: none; stroke: #b0b0b0; stroke-width: 0.8; stroke-linecap: square"/>
     </g>
     <g id="line2d_2">
      <defs>
       <path id="mc011a0eb4e" d="M 0 0 
L 0 3.5 
" style="stroke: #000000; stroke-width: 0.8"/>
      </defs>
      <g>
       <use xlink:href="#mc011a0eb4e" x="216.00106" y="627.417748" style="stroke: #000000; stroke-width: 0.8"/>
      </g>
     </g>
     <g id="text_1">
      <!-- $\mathdefault{0.0}$ -->
      <g transform="translate(198.22934 655.173243) scale(0.3 -0.3)">
       <defs>
        <path id="CMR17-30" d="M 2688 2025 
C 2688 2416 2682 3080 2413 3591 
C 2176 4039 1798 4198 1466 4198 
C 1158 4198 768 4058 525 3597 
C 269 3118 243 2524 243 2025 
C 243 1661 250 1106 448 619 
C 723 -39 1216 -128 1466 -128 
C 1760 -128 2208 -7 2470 600 
C 2662 1042 2688 1559 2688 2025 
z
M 1466 -26 
C 1056 -26 813 325 723 812 
C 653 1188 653 1738 653 2096 
C 653 2588 653 2997 736 3387 
C 858 3929 1216 4096 1466 4096 
C 1728 4096 2067 3923 2189 3400 
C 2272 3036 2278 2607 2278 2096 
C 2278 1680 2278 1169 2202 792 
C 2067 95 1690 -26 1466 -26 
z
" transform="scale(0.015625)"/>
        <path id="CMMI12-3a" d="M 1178 307 
C 1178 492 1024 619 870 619 
C 685 619 557 466 557 313 
C 557 128 710 0 864 0 
C 1050 0 1178 153 1178 307 
z
" transform="scale(0.015625)"/>
       </defs>
       <use xlink:href="#CMR17-30" transform="scale(0.996264)"/>
       <use xlink:href="#CMMI12-3a" transform="translate(45.690477 0) scale(0.996264)"/>
       <use xlink:href="#CMR17-30" transform="translate(72.787654 0) scale(0.996264)"/>
      </g>
     </g>
    </g>
    <g id="xtick_2">
     <g id="line2d_3">
      <path d="M 350.334393 627.417748 
L 350.334393 17.577748 
" clip-path="url(#p503239ae12)" style="fill: none; stroke: #b0b0b0; stroke-width: 0.8; stroke-linecap: square"/>
     </g>
     <g id="line2d_4">
      <g>
       <use xlink:href="#mc011a0eb4e" x="350.334393" y="627.417748" style="stroke: #000000; stroke-width: 0.8"/>
      </g>
     </g>
     <g id="text_2">
      <!-- $\mathdefault{0.1}$ -->
      <g transform="translate(332.562674 655.173243) scale(0.3 -0.3)">
       <defs>
        <path id="CMR17-31" d="M 1702 4058 
C 1702 4192 1696 4192 1606 4192 
C 1357 3916 979 3827 621 3827 
C 602 3827 570 3827 563 3808 
C 557 3795 557 3782 557 3648 
C 755 3648 1088 3686 1344 3839 
L 1344 461 
C 1344 236 1331 160 781 160 
L 589 160 
L 589 0 
C 896 0 1216 0 1523 0 
C 1830 0 2150 0 2458 0 
L 2458 160 
L 2266 160 
C 1715 160 1702 230 1702 458 
L 1702 4058 
z
" transform="scale(0.015625)"/>
       </defs>
       <use xlink:href="#CMR17-30" transform="scale(0.996264)"/>
       <use xlink:href="#CMMI12-3a" transform="translate(45.690477 0) scale(0.996264)"/>
       <use xlink:href="#CMR17-31" transform="translate(72.787654 0) scale(0.996264)"/>
      </g>
     </g>
    </g>
    <g id="xtick_3">
     <g id="line2d_5">
      <path d="M 484.667727 627.417748 
L 484.667727 17.577748 
" clip-path="url(#p503239ae12)" style="fill: none; stroke: #b0b0b0; stroke-width: 0.8; stroke-linecap: square"/>
     </g>
     <g id="line2d_6">
      <g>
       <use xlink:href="#mc011a0eb4e" x="484.667727" y="627.417748" style="stroke: #000000; stroke-width: 0.8"/>
      </g>
     </g>
     <g id="text_3">
      <!-- $\mathdefault{0.2}$ -->
      <g transform="translate(466.896007 655.173243) scale(0.3 -0.3)">
       <defs>
        <path id="CMR17-32" d="M 2669 989 
L 2554 989 
C 2490 536 2438 459 2413 420 
C 2381 369 1920 369 1830 369 
L 602 369 
C 832 619 1280 1072 1824 1597 
C 2214 1967 2669 2402 2669 3035 
C 2669 3790 2067 4224 1395 4224 
C 691 4224 262 3604 262 3030 
C 262 2780 448 2748 525 2748 
C 589 2748 781 2787 781 3010 
C 781 3207 614 3264 525 3264 
C 486 3264 448 3258 422 3245 
C 544 3790 915 4058 1306 4058 
C 1862 4058 2227 3617 2227 3035 
C 2227 2479 1901 2000 1536 1584 
L 262 146 
L 262 0 
L 2515 0 
L 2669 989 
z
" transform="scale(0.015625)"/>
       </defs>
       <use xlink:href="#CMR17-30" transform="scale(0.996264)"/>
       <use xlink:href="#CMMI12-3a" transform="translate(45.690477 0) scale(0.996264)"/>
       <use xlink:href="#CMR17-32" transform="translate(72.787654 0) scale(0.996264)"/>
      </g>
     </g>
    </g>
    <g id="xtick_4">
     <g id="line2d_7">
      <path d="M 619.00106 627.417748 
L 619.00106 17.577748 
" clip-path="url(#p503239ae12)" style="fill: none; stroke: #b0b0b0; stroke-width: 0.8; stroke-linecap: square"/>
     </g>
     <g id="line2d_8">
      <g>
       <use xlink:href="#mc011a0eb4e" x="619.00106" y="627.417748" style="stroke: #000000; stroke-width: 0.8"/>
      </g>
     </g>
     <g id="text_4">
      <!-- $\mathdefault{0.3}$ -->
      <g transform="translate(601.22934 655.173243) scale(0.3 -0.3)">
       <defs>
        <path id="CMR17-33" d="M 1414 2157 
C 1984 2157 2234 1662 2234 1090 
C 2234 320 1824 25 1453 25 
C 1114 25 563 194 390 693 
C 422 680 454 680 486 680 
C 640 680 755 782 755 948 
C 755 1133 614 1216 486 1216 
C 378 1216 211 1165 211 926 
C 211 335 787 -128 1466 -128 
C 2176 -128 2720 430 2720 1085 
C 2720 1707 2208 2157 1600 2227 
C 2086 2328 2554 2756 2554 3329 
C 2554 3820 2048 4179 1472 4179 
C 890 4179 378 3829 378 3329 
C 378 3110 544 3072 627 3072 
C 762 3072 877 3155 877 3321 
C 877 3486 762 3569 627 3569 
C 602 3569 570 3569 544 3557 
C 730 3959 1235 4032 1459 4032 
C 1683 4032 2106 3925 2106 3320 
C 2106 3143 2080 2828 1862 2550 
C 1670 2304 1453 2304 1242 2284 
C 1210 2284 1062 2269 1037 2269 
C 992 2263 966 2257 966 2208 
C 966 2163 973 2157 1101 2157 
L 1414 2157 
z
" transform="scale(0.015625)"/>
       </defs>
       <use xlink:href="#CMR17-30" transform="scale(0.996264)"/>
       <use xlink:href="#CMMI12-3a" transform="translate(45.690477 0) scale(0.996264)"/>
       <use xlink:href="#CMR17-33" transform="translate(72.787654 0) scale(0.996264)"/>
      </g>
     </g>
    </g>
    <g id="xtick_5">
     <g id="line2d_9">
      <path d="M 753.334393 627.417748 
L 753.334393 17.577748 
" clip-path="url(#p503239ae12)" style="fill: none; stroke: #b0b0b0; stroke-width: 0.8; stroke-linecap: square"/>
     </g>
     <g id="line2d_10">
      <g>
       <use xlink:href="#mc011a0eb4e" x="753.334393" y="627.417748" style="stroke: #000000; stroke-width: 0.8"/>
      </g>
     </g>
     <g id="text_5">
      <!-- $\mathdefault{0.4}$ -->
      <g transform="translate(735.562674 655.173243) scale(0.3 -0.3)">
       <defs>
        <path id="CMR17-34" d="M 2150 4122 
C 2150 4256 2144 4256 2029 4256 
L 128 1254 
L 128 1088 
L 1779 1088 
L 1779 457 
C 1779 224 1766 160 1318 160 
L 1197 160 
L 1197 0 
C 1402 0 1747 0 1965 0 
C 2182 0 2528 0 2733 0 
L 2733 160 
L 2611 160 
C 2163 160 2150 224 2150 457 
L 2150 1088 
L 2803 1088 
L 2803 1254 
L 2150 1254 
L 2150 4122 
z
M 1798 3703 
L 1798 1254 
L 256 1254 
L 1798 3703 
z
" transform="scale(0.015625)"/>
       </defs>
       <use xlink:href="#CMR17-30" transform="scale(0.996264)"/>
       <use xlink:href="#CMMI12-3a" transform="translate(45.690477 0) scale(0.996264)"/>
       <use xlink:href="#CMR17-34" transform="translate(72.787654 0) scale(0.996264)"/>
      </g>
     </g>
    </g>
    <g id="text_6">
     <!-- $x, \; \mathrm{m} $ -->
     <g transform="translate(462.448457 689.201445) scale(0.35 -0.35)">
      <defs>
       <path id="CMMI12-78" d="M 3034 2606 
C 2829 2567 2752 2414 2752 2293 
C 2752 2139 2874 2088 2963 2088 
C 3155 2088 3290 2254 3290 2427 
C 3290 2695 2982 2816 2714 2816 
C 2323 2816 2106 2433 2048 2312 
C 1901 2816 1504 2816 1389 2816 
C 736 2816 390 1980 390 1839 
C 390 1814 416 1782 461 1782 
C 512 1782 525 1820 538 1846 
C 755 2555 1184 2689 1370 2689 
C 1658 2689 1715 2420 1715 2267 
C 1715 2127 1677 1980 1600 1673 
L 1382 798 
C 1286 415 1101 64 762 64 
C 730 64 570 64 435 147 
C 666 192 717 383 717 460 
C 717 588 621 664 499 664 
C 346 664 179 530 179 326 
C 179 57 480 -64 755 -64 
C 1062 -64 1280 179 1414 441 
C 1517 64 1837 -64 2074 -64 
C 2726 -64 3072 773 3072 913 
C 3072 945 3046 971 3008 971 
C 2950 971 2944 939 2925 888 
C 2752 326 2381 64 2093 64 
C 1869 64 1747 230 1747 492 
C 1747 632 1773 734 1875 1156 
L 2099 2024 
C 2195 2408 2413 2689 2707 2689 
C 2720 2689 2899 2689 3034 2606 
z
" transform="scale(0.015625)"/>
       <path id="CMMI12-3b" d="M 1248 -31 
C 1248 343 1126 619 864 619 
C 659 619 557 453 557 313 
C 557 172 653 0 870 0 
C 954 0 1024 26 1082 83 
C 1094 96 1101 96 1107 96 
C 1120 96 1120 5 1120 -27 
C 1120 -240 1082 -659 710 -1080 
C 640 -1157 640 -1170 640 -1183 
C 640 -1216 672 -1248 704 -1248 
C 755 -1248 1248 -771 1248 -31 
z
" transform="scale(0.015625)"/>
       <path id="CMR17-6d" d="M 4326 1933 
C 4326 2252 4269 2790 3507 2790 
C 3072 2790 2771 2496 2656 2151 
L 2650 2151 
C 2573 2676 2195 2790 1837 2790 
C 1331 2790 1069 2400 973 2144 
L 966 2144 
L 966 2790 
L 211 2720 
L 211 2554 
C 589 2554 646 2515 646 2208 
L 646 428 
C 646 184 621 153 211 153 
L 211 -13 
C 365 0 646 0 813 0 
C 979 0 1267 0 1421 -13 
L 1421 153 
C 1011 153 986 178 986 428 
L 986 1658 
C 986 2247 1344 2688 1792 2688 
C 2266 2688 2317 2266 2317 1958 
L 2317 428 
C 2317 184 2291 153 1882 153 
L 1882 -13 
C 2035 0 2317 0 2483 0 
C 2650 0 2938 0 3091 -13 
L 3091 153 
C 2682 153 2656 178 2656 428 
L 2656 1658 
C 2656 2247 3014 2688 3462 2688 
C 3936 2688 3987 2266 3987 1958 
L 3987 428 
C 3987 184 3962 153 3552 153 
L 3552 -13 
C 3706 0 3987 0 4154 0 
C 4320 0 4608 0 4762 -13 
L 4762 153 
C 4352 153 4326 178 4326 428 
L 4326 1933 
z
" transform="scale(0.015625)"/>
      </defs>
      <use xlink:href="#CMMI12-78" transform="scale(0.996264)"/>
      <use xlink:href="#CMMI12-3b" transform="translate(55.43406 0) scale(0.996264)"/>
      <use xlink:href="#CMR17-6d" transform="translate(126.809651 0) scale(0.996264)"/>
     </g>
    </g>
   </g>
   <g id="matplotlib.axis_2">
    <g id="ytick_1">
     <g id="line2d_11">
      <path d="M 135.40106 627.417748 
L 860.80106 627.417748 
" clip-path="url(#p503239ae12)" style="fill: none; stroke: #b0b0b0; stroke-width: 0.8; stroke-linecap: square"/>
     </g>
     <g id="line2d_12">
      <defs>
       <path id="mf24c45a073" d="M 0 0 
L -3.5 0 
" style="stroke: #000000; stroke-width: 0.8"/>
      </defs>
      <g>
       <use xlink:href="#mf24c45a073" x="135.40106" y="627.417748" style="stroke: #000000; stroke-width: 0.8"/>
      </g>
     </g>
     <g id="text_7">
      <!-- $\mathdefault{−0.025}$ -->
      <g transform="translate(42.197103 637.795495) scale(0.3 -0.3)">
       <defs>
        <path id="CMSY10-0" d="M 4218 1472 
C 4326 1472 4442 1472 4442 1600 
C 4442 1728 4326 1728 4218 1728 
L 755 1728 
C 646 1728 531 1728 531 1600 
C 531 1472 646 1472 755 1472 
L 4218 1472 
z
" transform="scale(0.015625)"/>
        <path id="CMR17-35" d="M 730 3692 
C 794 3666 1056 3584 1325 3584 
C 1920 3584 2246 3911 2432 4100 
C 2432 4157 2432 4192 2394 4192 
C 2387 4192 2374 4192 2323 4163 
C 2099 4058 1837 3973 1517 3973 
C 1325 3973 1037 3999 723 4139 
C 653 4171 640 4171 634 4171 
C 602 4171 595 4164 595 4037 
L 595 2203 
C 595 2089 595 2057 659 2057 
C 691 2057 704 2070 736 2114 
C 941 2401 1222 2522 1542 2522 
C 1766 2522 2246 2382 2246 1289 
C 2246 1085 2246 715 2054 421 
C 1894 159 1645 25 1370 25 
C 947 25 518 320 403 814 
C 429 807 480 795 506 795 
C 589 795 749 840 749 1038 
C 749 1210 627 1280 506 1280 
C 358 1280 262 1190 262 1011 
C 262 454 704 -128 1382 -128 
C 2042 -128 2669 440 2669 1264 
C 2669 2030 2170 2624 1549 2624 
C 1222 2624 947 2503 730 2274 
L 730 3692 
z
" transform="scale(0.015625)"/>
       </defs>
       <use xlink:href="#CMSY10-0" transform="scale(0.996264)"/>
       <use xlink:href="#CMR17-30" transform="translate(77.487468 0) scale(0.996264)"/>
       <use xlink:href="#CMMI12-3a" transform="translate(123.177945 0) scale(0.996264)"/>
       <use xlink:href="#CMR17-30" transform="translate(150.275122 0) scale(0.996264)"/>
       <use xlink:href="#CMR17-32" transform="translate(195.965599 0) scale(0.996264)"/>
       <use xlink:href="#CMR17-35" transform="translate(241.656076 0) scale(0.996264)"/>
      </g>
     </g>
    </g>
    <g id="ytick_2">
     <g id="line2d_13">
      <path d="M 135.40106 559.657748 
L 860.80106 559.657748 
" clip-path="url(#p503239ae12)" style="fill: none; stroke: #b0b0b0; stroke-width: 0.8; stroke-linecap: square"/>
     </g>
     <g id="line2d_14">
      <g>
       <use xlink:href="#mf24c45a073" x="135.40106" y="559.657748" style="stroke: #000000; stroke-width: 0.8"/>
      </g>
     </g>
     <g id="text_8">
      <!-- $\mathdefault{0.000}$ -->
      <g transform="translate(65.443334 570.035495) scale(0.3 -0.3)">
       <use xlink:href="#CMR17-30" transform="scale(0.996264)"/>
       <use xlink:href="#CMMI12-3a" transform="translate(45.690477 0) scale(0.996264)"/>
       <use xlink:href="#CMR17-30" transform="translate(72.787654 0) scale(0.996264)"/>
       <use xlink:href="#CMR17-30" transform="translate(118.478131 0) scale(0.996264)"/>
       <use xlink:href="#CMR17-30" transform="translate(164.168608 0) scale(0.996264)"/>
      </g>
     </g>
    </g>
    <g id="ytick_3">
     <g id="line2d_15">
      <path d="M 135.40106 491.897748 
L 860.80106 491.897748 
" clip-path="url(#p503239ae12)" style="fill: none; stroke: #b0b0b0; stroke-width: 0.8; stroke-linecap: square"/>
     </g>
     <g id="line2d_16">
      <g>
       <use xlink:href="#mf24c45a073" x="135.40106" y="491.897748" style="stroke: #000000; stroke-width: 0.8"/>
      </g>
     </g>
     <g id="text_9">
      <!-- $\mathdefault{0.025}$ -->
      <g transform="translate(65.443334 502.275495) scale(0.3 -0.3)">
       <use xlink:href="#CMR17-30" transform="scale(0.996264)"/>
       <use xlink:href="#CMMI12-3a" transform="translate(45.690477 0) scale(0.996264)"/>
       <use xlink:href="#CMR17-30" transform="translate(72.787654 0) scale(0.996264)"/>
       <use xlink:href="#CMR17-32" transform="translate(118.478131 0) scale(0.996264)"/>
       <use xlink:href="#CMR17-35" transform="translate(164.168608 0) scale(0.996264)"/>
      </g>
     </g>
    </g>
    <g id="ytick_4">
     <g id="line2d_17">
      <path d="M 135.40106 424.137748 
L 860.80106 424.137748 
" clip-path="url(#p503239ae12)" style="fill: none; stroke: #b0b0b0; stroke-width: 0.8; stroke-linecap: square"/>
     </g>
     <g id="line2d_18">
      <g>
       <use xlink:href="#mf24c45a073" x="135.40106" y="424.137748" style="stroke: #000000; stroke-width: 0.8"/>
      </g>
     </g>
     <g id="text_10">
      <!-- $\mathdefault{0.050}$ -->
      <g transform="translate(65.443334 434.515495) scale(0.3 -0.3)">
       <use xlink:href="#CMR17-30" transform="scale(0.996264)"/>
       <use xlink:href="#CMMI12-3a" transform="translate(45.690477 0) scale(0.996264)"/>
       <use xlink:href="#CMR17-30" transform="translate(72.787654 0) scale(0.996264)"/>
       <use xlink:href="#CMR17-35" transform="translate(118.478131 0) scale(0.996264)"/>
       <use xlink:href="#CMR17-30" transform="translate(164.168608 0) scale(0.996264)"/>
      </g>
     </g>
    </g>
    <g id="ytick_5">
     <g id="line2d_19">
      <path d="M 135.40106 356.377748 
L 860.80106 356.377748 
" clip-path="url(#p503239ae12)" style="fill: none; stroke: #b0b0b0; stroke-width: 0.8; stroke-linecap: square"/>
     </g>
     <g id="line2d_20">
      <g>
       <use xlink:href="#mf24c45a073" x="135.40106" y="356.377748" style="stroke: #000000; stroke-width: 0.8"/>
      </g>
     </g>
     <g id="text_11">
      <!-- $\mathdefault{0.075}$ -->
      <g transform="translate(65.443334 366.755495) scale(0.3 -0.3)">
       <defs>
        <path id="CMR17-37" d="M 2886 3941 
L 2886 4081 
L 1382 4081 
C 634 4081 621 4165 595 4288 
L 480 4288 
L 294 3094 
L 410 3094 
C 429 3215 474 3540 550 3661 
C 589 3712 1062 3712 1171 3712 
L 2579 3712 
L 1869 2661 
C 1395 1954 1069 999 1069 165 
C 1069 89 1069 -128 1299 -128 
C 1530 -128 1530 89 1530 171 
L 1530 465 
C 1530 1508 1709 2196 2003 2636 
L 2886 3941 
z
" transform="scale(0.015625)"/>
       </defs>
       <use xlink:href="#CMR17-30" transform="scale(0.996264)"/>
       <use xlink:href="#CMMI12-3a" transform="translate(45.690477 0) scale(0.996264)"/>
       <use xlink:href="#CMR17-30" transform="translate(72.787654 0) scale(0.996264)"/>
       <use xlink:href="#CMR17-37" transform="translate(118.478131 0) scale(0.996264)"/>
       <use xlink:href="#CMR17-35" transform="translate(164.168608 0) scale(0.996264)"/>
      </g>
     </g>
    </g>
    <g id="ytick_6">
     <g id="line2d_21">
      <path d="M 135.40106 288.617748 
L 860.80106 288.617748 
" clip-path="url(#p503239ae12)" style="fill: none; stroke: #b0b0b0; stroke-width: 0.8; stroke-linecap: square"/>
     </g>
     <g id="line2d_22">
      <g>
       <use xlink:href="#mf24c45a073" x="135.40106" y="288.617748" style="stroke: #000000; stroke-width: 0.8"/>
      </g>
     </g>
     <g id="text_12">
      <!-- $\mathdefault{0.100}$ -->
      <g transform="translate(65.443334 298.995495) scale(0.3 -0.3)">
       <use xlink:href="#CMR17-30" transform="scale(0.996264)"/>
       <use xlink:href="#CMMI12-3a" transform="translate(45.690477 0) scale(0.996264)"/>
       <use xlink:href="#CMR17-31" transform="translate(72.787654 0) scale(0.996264)"/>
       <use xlink:href="#CMR17-30" transform="translate(118.478131 0) scale(0.996264)"/>
       <use xlink:href="#CMR17-30" transform="translate(164.168608 0) scale(0.996264)"/>
      </g>
     </g>
    </g>
    <g id="ytick_7">
     <g id="line2d_23">
      <path d="M 135.40106 220.857748 
L 860.80106 220.857748 
" clip-path="url(#p503239ae12)" style="fill: none; stroke: #b0b0b0; stroke-width: 0.8; stroke-linecap: square"/>
     </g>
     <g id="line2d_24">
      <g>
       <use xlink:href="#mf24c45a073" x="135.40106" y="220.857748" style="stroke: #000000; stroke-width: 0.8"/>
      </g>
     </g>
     <g id="text_13">
      <!-- $\mathdefault{0.125}$ -->
      <g transform="translate(65.443334 231.235495) scale(0.3 -0.3)">
       <use xlink:href="#CMR17-30" transform="scale(0.996264)"/>
       <use xlink:href="#CMMI12-3a" transform="translate(45.690477 0) scale(0.996264)"/>
       <use xlink:href="#CMR17-31" transform="translate(72.787654 0) scale(0.996264)"/>
       <use xlink:href="#CMR17-32" transform="translate(118.478131 0) scale(0.996264)"/>
       <use xlink:href="#CMR17-35" transform="translate(164.168608 0) scale(0.996264)"/>
      </g>
     </g>
    </g>
    <g id="ytick_8">
     <g id="line2d_25">
      <path d="M 135.40106 153.097748 
L 860.80106 153.097748 
" clip-path="url(#p503239ae12)" style="fill: none; stroke: #b0b0b0; stroke-width: 0.8; stroke-linecap: square"/>
     </g>
     <g id="line2d_26">
      <g>
       <use xlink:href="#mf24c45a073" x="135.40106" y="153.097748" style="stroke: #000000; stroke-width: 0.8"/>
      </g>
     </g>
     <g id="text_14">
      <!-- $\mathdefault{0.150}$ -->
      <g transform="translate(65.443334 163.475495) scale(0.3 -0.3)">
       <use xlink:href="#CMR17-30" transform="scale(0.996264)"/>
       <use xlink:href="#CMMI12-3a" transform="translate(45.690477 0) scale(0.996264)"/>
       <use xlink:href="#CMR17-31" transform="translate(72.787654 0) scale(0.996264)"/>
       <use xlink:href="#CMR17-35" transform="translate(118.478131 0) scale(0.996264)"/>
       <use xlink:href="#CMR17-30" transform="translate(164.168608 0) scale(0.996264)"/>
      </g>
     </g>
    </g>
    <g id="ytick_9">
     <g id="line2d_27">
      <path d="M 135.40106 85.337748 
L 860.80106 85.337748 
" clip-path="url(#p503239ae12)" style="fill: none; stroke: #b0b0b0; stroke-width: 0.8; stroke-linecap: square"/>
     </g>
     <g id="line2d_28">
      <g>
       <use xlink:href="#mf24c45a073" x="135.40106" y="85.337748" style="stroke: #000000; stroke-width: 0.8"/>
      </g>
     </g>
     <g id="text_15">
      <!-- $\mathdefault{0.175}$ -->
      <g transform="translate(65.443334 95.715495) scale(0.3 -0.3)">
       <use xlink:href="#CMR17-30" transform="scale(0.996264)"/>
       <use xlink:href="#CMMI12-3a" transform="translate(45.690477 0) scale(0.996264)"/>
       <use xlink:href="#CMR17-31" transform="translate(72.787654 0) scale(0.996264)"/>
       <use xlink:href="#CMR17-37" transform="translate(118.478131 0) scale(0.996264)"/>
       <use xlink:href="#CMR17-35" transform="translate(164.168608 0) scale(0.996264)"/>
      </g>
     </g>
    </g>
    <g id="ytick_10">
     <g id="line2d_29">
      <path d="M 135.40106 17.577748 
L 860.80106 17.577748 
" clip-path="url(#p503239ae12)" style="fill: none; stroke: #b0b0b0; stroke-width: 0.8; stroke-linecap: square"/>
     </g>
     <g id="line2d_30">
      <g>
       <use xlink:href="#mf24c45a073" x="135.40106" y="17.577748" style="stroke: #000000; stroke-width: 0.8"/>
      </g>
     </g>
     <g id="text_16">
      <!-- $\mathdefault{0.200}$ -->
      <g transform="translate(65.443334 27.955495) scale(0.3 -0.3)">
       <use xlink:href="#CMR17-30" transform="scale(0.996264)"/>
       <use xlink:href="#CMMI12-3a" transform="translate(45.690477 0) scale(0.996264)"/>
       <use xlink:href="#CMR17-32" transform="translate(72.787654 0) scale(0.996264)"/>
       <use xlink:href="#CMR17-30" transform="translate(118.478131 0) scale(0.996264)"/>
       <use xlink:href="#CMR17-30" transform="translate(164.168608 0) scale(0.996264)"/>
      </g>
     </g>
    </g>
    <g id="text_17">
     <!-- $Y$ -->
     <g transform="translate(31.414752 332.402499) rotate(-90) scale(0.35 -0.35)">
      <defs>
       <path id="CMMI12-59" d="M 3763 3645 
L 3910 3791 
C 4192 4078 4429 4149 4653 4167 
C 4723 4173 4781 4179 4781 4288 
C 4781 4352 4717 4352 4704 4352 
C 4627 4352 4544 4352 4467 4352 
L 4205 4352 
C 4019 4352 3821 4352 3642 4352 
C 3597 4352 3526 4352 3526 4226 
C 3526 4166 3590 4160 3610 4160 
C 3802 4160 3802 4064 3802 4026 
C 3802 3956 3750 3860 3622 3713 
L 2099 1969 
L 1376 3911 
C 1338 4000 1338 4013 1338 4026 
C 1338 4160 1600 4160 1677 4160 
C 1754 4160 1824 4160 1824 4279 
C 1824 4352 1766 4352 1728 4352 
C 1619 4352 1491 4352 1382 4352 
L 672 4352 
C 557 4352 435 4352 326 4352 
C 282 4352 211 4352 211 4226 
C 211 4160 269 4160 365 4160 
C 678 4160 736 4102 794 3956 
L 1587 1835 
C 1594 1816 1613 1745 1613 1726 
C 1613 1707 1299 452 1280 388 
C 1229 217 1165 185 755 185 
C 646 185 595 185 595 64 
C 595 0 666 0 685 0 
C 800 0 934 0 1056 0 
L 1811 0 
C 1926 0 2061 0 2176 0 
C 2221 0 2298 0 2298 115 
C 2298 185 2253 185 2144 185 
C 1747 185 1747 230 1747 300 
C 1747 345 1798 548 1830 676 
L 2061 1594 
C 2099 1727 2099 1739 2157 1803 
L 3763 3645 
z
" transform="scale(0.015625)"/>
      </defs>
      <use xlink:href="#CMMI12-59" transform="scale(0.996264)"/>
     </g>
    </g>
   </g>
   <g id="line2d_31">
    <path d="M 148.834393 559.657748 
L 475.522359 559.641379 
L 477.171949 559.069509 
L 478.82154 557.470972 
L 479.646335 556.676224 
L 480.471131 556.170604 
L 482.120721 555.502466 
L 483.770312 555.223565 
L 486.244698 555.094409 
L 491.19347 555.214147 
L 507.689378 555.955946 
L 512.646596 556.33415 
L 522.213559 557.376272 
L 527.776881 557.988964 
L 532.348702 558.289612 
L 540.83103 558.582976 
L 551.721424 558.589328 
L 576.520639 558.149316 
L 606.188741 557.282224 
L 629.942848 556.191342 
L 647.758427 555.453754 
L 659.63548 554.632875 
L 665.574007 554.566489 
L 673.96984 555.003255 
L 690.761507 555.244564 
L 783.115674 555.838194 
L 867.074007 556.020922 
L 867.074007 556.020922 
" clip-path="url(#p503239ae12)" style="fill: none; stroke: #0000ff; stroke-width: 3; stroke-linecap: square"/>
   </g>
   <g id="line2d_32">
    <path d="M 148.834393 559.657748 
L 474.391324 559.657747 
L 475.522359 559.465079 
L 476.347154 556.822356 
L 477.171949 552.855938 
L 477.996745 542.231038 
L 478.82154 526.56458 
L 480.471131 484.867839 
L 482.120721 452.373302 
L 483.770312 427.92134 
L 485.419903 407.474414 
L 486.244698 398.049662 
L 488.719084 374.800814 
L 489.54388 367.578775 
L 492.843061 345.415309 
L 494.492652 335.407616 
L 496.142243 326.498917 
L 497.791833 319.539118 
L 500.266219 310.751316 
L 501.91581 305.943927 
L 503.565401 301.906395 
L 506.039787 296.761924 
L 507.689378 293.927683 
L 510.988559 289.090392 
L 514.494197 283.179656 
L 516.659653 280.169412 
L 520.648461 276.012201 
L 522.213559 275.135876 
L 523.914959 274.591554 
L 525.764855 274.2854 
L 527.776881 274.187206 
L 529.965976 274.477558 
L 532.348702 275.304291 
L 534.942126 276.51906 
L 537.762087 278.750143 
L 540.83103 281.874129 
L 544.165925 284.554569 
L 547.789746 286.40805 
L 551.721424 287.37679 
L 555.980275 287.479052 
L 560.58374 286.73272 
L 576.520639 283.14465 
L 582.434635 281.037631 
L 588.373162 278.630212 
L 594.311688 275.598669 
L 600.250215 272.315021 
L 606.188741 267.806822 
L 612.127268 260.262162 
L 618.065794 253.077565 
L 624.004321 246.241463 
L 629.942848 239.913029 
L 635.881374 234.970002 
L 641.819901 228.520276 
L 647.758427 220.199901 
L 653.696954 209.493121 
L 659.63548 199.733494 
L 665.574007 193.737545 
L 673.96984 192.597813 
L 682.365674 191.961542 
L 699.15734 190.996863 
L 707.553174 190.573904 
L 715.949007 189.899409 
L 724.34484 189.361566 
L 741.136507 188.683344 
L 783.115674 187.382914 
L 858.678174 186.353303 
L 867.074007 186.273658 
L 867.074007 186.273658 
" clip-path="url(#p503239ae12)" style="fill: none; stroke: #008000; stroke-width: 3; stroke-linecap: square"/>
   </g>
   <g id="line2d_33">
    <path d="M 148.834393 559.657748 
L 475.522359 559.588586 
L 477.171949 557.185117 
L 477.996745 552.575909 
L 478.82154 545.579637 
L 480.471131 526.66415 
L 482.120721 511.792894 
L 483.770312 499.959645 
L 486.244698 484.905841 
L 489.54388 468.022457 
L 494.492652 448.378303 
L 496.142243 442.552955 
L 497.791833 438.048222 
L 500.266219 432.225507 
L 501.91581 429.091258 
L 503.565401 426.473258 
L 506.039787 423.14419 
L 507.689378 421.386197 
L 510.988559 418.416436 
L 514.494197 415.102479 
L 516.659653 413.457481 
L 520.648461 411.379318 
L 522.213559 411.031436 
L 523.914959 410.968881 
L 527.776881 411.32214 
L 529.965976 411.750854 
L 532.348702 412.447231 
L 534.942126 413.336667 
L 537.762087 414.849812 
L 540.83103 416.873561 
L 544.165925 418.746887 
L 547.789746 420.420819 
L 551.721424 421.785929 
L 555.980275 422.566568 
L 560.58374 422.548715 
L 582.434635 419.413391 
L 588.373162 418.600446 
L 606.188741 415.421572 
L 612.127268 413.892157 
L 624.004321 411.872041 
L 635.881374 409.945661 
L 641.819901 408.484846 
L 647.758427 407.399261 
L 653.696954 407.155818 
L 659.63548 407.840611 
L 665.574007 407.88263 
L 673.96984 408.153761 
L 707.553174 408.281809 
L 732.740674 408.716425 
L 791.511507 409.16295 
L 867.074007 409.387961 
L 867.074007 409.387961 
" clip-path="url(#p503239ae12)" style="fill: none; stroke: #ffa500; stroke-width: 3; stroke-linecap: square"/>
   </g>
   <g id="patch_3">
    <path d="M 135.40106 627.417748 
L 135.40106 17.577748 
" style="fill: none; stroke: #000000; stroke-width: 0.8; stroke-linejoin: miter; stroke-linecap: square"/>
   </g>
   <g id="patch_4">
    <path d="M 860.80106 627.417748 
L 860.80106 17.577748 
" style="fill: none; stroke: #000000; stroke-width: 0.8; stroke-linejoin: miter; stroke-linecap: square"/>
   </g>
   <g id="patch_5">
    <path d="M 135.40106 627.417748 
L 860.80106 627.417748 
" style="fill: none; stroke: #000000; stroke-width: 0.8; stroke-linejoin: miter; stroke-linecap: square"/>
   </g>
   <g id="patch_6">
    <path d="M 135.40106 17.577748 
L 860.80106 17.577748 
" style="fill: none; stroke: #000000; stroke-width: 0.8; stroke-linejoin: miter; stroke-linecap: square"/>
   </g>
   <g id="legend_1">
    <g id="patch_7">
     <path d="M 159.90106 338.271855 
L 440.567374 338.271855 
Q 447.567374 338.271855 447.567374 331.271855 
L 447.567374 42.077748 
Q 447.567374 35.077748 440.567374 35.077748 
L 159.90106 35.077748 
Q 152.90106 35.077748 152.90106 42.077748 
L 152.90106 331.271855 
Q 152.90106 338.271855 159.90106 338.271855 
z
" style="fill: #ffffff; stroke: #cccccc; stroke-linejoin: miter"/>
    </g>
    <g id="patch_8">
     <path d="M 166.90106 73.577748 
L 236.90106 73.577748 
L 236.90106 49.077748 
L 166.90106 49.077748 
z
" style="fill: #99ccff; fill-opacity: 0.7"/>
    </g>
    <g id="text_18">
     <!-- $N: \mu \pm \sigma$ -->
     <g transform="translate(264.90106 73.577748) scale(0.35 -0.35)">
      <defs>
       <path id="CMMI12-4e" d="M 4736 3698 
C 4806 3974 4909 4166 5395 4166 
C 5414 4166 5491 4166 5491 4279 
C 5491 4352 5434 4352 5408 4352 
C 5280 4352 4954 4352 4826 4352 
L 4518 4352 
C 4429 4352 4314 4352 4224 4352 
C 4186 4352 4109 4352 4109 4230 
C 4109 4166 4160 4166 4205 4166 
C 4589 4166 4614 4019 4614 3903 
C 4614 3846 4608 3826 4589 3737 
L 3866 850 
L 2496 4249 
C 2451 4352 2445 4352 2304 4352 
L 1523 4352 
C 1395 4352 1338 4352 1338 4230 
C 1338 4166 1382 4166 1504 4166 
C 1536 4166 1914 4166 1914 4115 
C 1914 4102 1901 4051 1894 4032 
L 1043 635 
C 966 320 813 186 390 186 
C 358 186 294 186 294 67 
C 294 0 358 0 378 0 
C 506 0 832 0 960 0 
L 1267 0 
C 1357 0 1466 0 1555 0 
C 1600 0 1670 0 1670 122 
C 1670 180 1606 186 1581 186 
C 1370 186 1165 224 1165 454 
C 1165 505 1178 562 1190 613 
L 2054 4032 
C 2093 3968 2093 3956 2118 3898 
L 3642 115 
C 3674 38 3686 0 3744 0 
C 3808 0 3814 19 3840 128 
L 4736 3698 
z
" transform="scale(0.015625)"/>
       <path id="CMR17-3a" d="M 1062 2491 
C 1062 2650 934 2752 800 2752 
C 672 2752 538 2650 538 2491 
C 538 2332 666 2230 800 2230 
C 928 2230 1062 2332 1062 2491 
z
M 1062 261 
C 1062 420 934 522 800 522 
C 672 522 538 420 538 261 
C 538 102 666 0 800 0 
C 928 0 1062 102 1062 261 
z
" transform="scale(0.015625)"/>
       <path id="CMMI12-16" d="M 922 140 
C 1082 -6 1318 -64 1536 -64 
C 1946 -64 2227 208 2374 405 
C 2438 69 2707 -64 2931 -64 
C 3123 -64 3277 50 3392 277 
C 3494 493 3584 879 3584 903 
C 3584 935 3558 960 3520 960 
C 3462 960 3456 928 3430 834 
C 3334 461 3213 64 2950 64 
C 2765 64 2752 229 2752 358 
C 2752 504 2810 735 2854 926 
L 3034 1615 
C 3059 1737 3130 2023 3162 2139 
C 3200 2292 3270 2567 3270 2592 
C 3270 2688 3194 2752 3098 2752 
C 3040 2752 2906 2726 2854 2535 
L 2406 760 
C 2374 632 2374 619 2291 517 
C 2214 409 1965 64 1562 64 
C 1203 64 1088 326 1088 625 
C 1088 811 1146 1034 1171 1143 
L 1459 2293 
C 1491 2414 1542 2618 1542 2657 
C 1542 2759 1459 2816 1376 2816 
C 1318 2816 1178 2797 1126 2592 
L 198 -1107 
C 192 -1139 179 -1177 179 -1216 
C 179 -1312 256 -1376 352 -1376 
C 538 -1376 576 -1228 621 -1050 
L 922 140 
z
" transform="scale(0.015625)"/>
       <path id="CMSY10-6" d="M 2618 1984 
L 4397 1984 
C 4506 1984 4621 1984 4621 2112 
C 4621 2240 4506 2240 4397 2240 
L 2618 2240 
L 2618 4018 
C 2618 4121 2618 4256 2490 4256 
C 2362 4256 2362 4140 2362 4038 
L 2362 2240 
L 576 2240 
C 467 2240 352 2240 352 2112 
C 352 1984 467 1984 576 1984 
L 2362 1984 
L 2362 256 
L 576 256 
C 467 256 352 256 352 128 
C 352 0 467 0 576 0 
L 4397 0 
C 4506 0 4621 0 4621 128 
C 4621 256 4506 256 4397 256 
L 2618 256 
L 2618 1984 
z
" transform="scale(0.015625)"/>
       <path id="CMMI12-1b" d="M 3251 2408 
C 3334 2408 3546 2408 3546 2612 
C 3546 2752 3424 2752 3309 2752 
L 1894 2752 
C 934 2752 243 1686 243 932 
C 243 390 595 -64 1171 -64 
C 1926 -64 2752 747 2752 1705 
C 2752 1954 2694 2196 2541 2408 
L 3251 2408 
z
M 1178 64 
C 851 64 614 313 614 754 
C 614 1137 845 2408 1786 2408 
C 2061 2408 2368 2274 2368 1781 
C 2368 1558 2266 1021 2042 652 
C 1811 275 1466 64 1178 64 
z
" transform="scale(0.015625)"/>
      </defs>
      <use xlink:href="#CMMI12-4e" transform="scale(0.996264)"/>
      <use xlink:href="#CMR17-3a" transform="translate(116.195781 0) scale(0.996264)"/>
      <use xlink:href="#CMMI12-16" transform="translate(168.740849 0) scale(0.996264)"/>
      <use xlink:href="#CMSY10-6" transform="translate(249.571477 0) scale(0.996264)"/>
      <use xlink:href="#CMMI12-1b" transform="translate(349.198152 0) scale(0.996264)"/>
     </g>
    </g>
    <g id="line2d_34">
     <path d="M 166.90106 110.110099 
L 201.90106 110.110099 
L 236.90106 110.110099 
" style="fill: none; stroke: #0000ff; stroke-width: 3; stroke-linecap: square"/>
    </g>
    <g id="text_19">
     <!-- $N: \mu$ -->
     <g transform="translate(264.90106 122.360099) scale(0.35 -0.35)">
      <use xlink:href="#CMMI12-4e" transform="scale(0.996264)"/>
      <use xlink:href="#CMR17-3a" transform="translate(116.195781 0) scale(0.996264)"/>
      <use xlink:href="#CMMI12-16" transform="translate(168.740849 0) scale(0.996264)"/>
     </g>
    </g>
    <g id="patch_9">
     <path d="M 166.90106 171.14245 
L 236.90106 171.14245 
L 236.90106 146.64245 
L 166.90106 146.64245 
z
" style="fill: #008000; fill-opacity: 0.2"/>
    </g>
    <g id="text_20">
     <!-- $O: \mu \pm \sigma$ -->
     <g transform="translate(264.90106 171.14245) scale(0.35 -0.35)">
      <defs>
       <path id="CMMI12-4f" d="M 4646 2797 
C 4646 3848 3955 4492 3059 4492 
C 1690 4492 307 3026 307 1554 
C 307 554 973 -128 1901 -128 
C 3245 -128 4646 1268 4646 2797 
z
M 1939 19 
C 1414 19 858 401 858 1395 
C 858 1974 1069 2924 1594 3562 
C 2061 4123 2598 4352 3027 4352 
C 3590 4352 4134 3944 4134 3026 
C 4134 2459 3891 1573 3462 968 
C 2995 318 2413 19 1939 19 
z
" transform="scale(0.015625)"/>
      </defs>
      <use xlink:href="#CMMI12-4f" transform="scale(0.996264)"/>
      <use xlink:href="#CMR17-3a" transform="translate(104.934407 0) scale(0.996264)"/>
      <use xlink:href="#CMMI12-16" transform="translate(157.479475 0) scale(0.996264)"/>
      <use xlink:href="#CMSY10-6" transform="translate(238.310103 0) scale(0.996264)"/>
      <use xlink:href="#CMMI12-1b" transform="translate(337.936778 0) scale(0.996264)"/>
     </g>
    </g>
    <g id="line2d_35">
     <path d="M 166.90106 207.674801 
L 201.90106 207.674801 
L 236.90106 207.674801 
" style="fill: none; stroke: #008000; stroke-width: 3; stroke-linecap: square"/>
    </g>
    <g id="text_21">
     <!-- $O: \mu $ -->
     <g transform="translate(264.90106 219.924801) scale(0.35 -0.35)">
      <use xlink:href="#CMMI12-4f" transform="scale(0.996264)"/>
      <use xlink:href="#CMR17-3a" transform="translate(104.934407 0) scale(0.996264)"/>
      <use xlink:href="#CMMI12-16" transform="translate(157.479475 0) scale(0.996264)"/>
     </g>
    </g>
    <g id="patch_10">
     <path d="M 166.90106 268.707152 
L 236.90106 268.707152 
L 236.90106 244.207152 
L 166.90106 244.207152 
z
" style="fill: #ffa500; fill-opacity: 0.2"/>
    </g>
    <g id="text_22">
     <!-- $NO: \mu \pm \sigma$ -->
     <g transform="translate(264.90106 268.707152) scale(0.35 -0.35)">
      <use xlink:href="#CMMI12-4e" transform="scale(0.996264)"/>
      <use xlink:href="#CMMI12-4f" transform="translate(88.521773 0) scale(0.996264)"/>
      <use xlink:href="#CMR17-3a" transform="translate(193.45618 0) scale(0.996264)"/>
      <use xlink:href="#CMMI12-16" transform="translate(246.001247 0) scale(0.996264)"/>
      <use xlink:href="#CMSY10-6" transform="translate(326.831876 0) scale(0.996264)"/>
      <use xlink:href="#CMMI12-1b" transform="translate(426.45855 0) scale(0.996264)"/>
     </g>
    </g>
    <g id="line2d_36">
     <path d="M 166.90106 305.239504 
L 201.90106 305.239504 
L 236.90106 305.239504 
" style="fill: none; stroke: #ffa500; stroke-width: 3; stroke-linecap: square"/>
    </g>
    <g id="text_23">
     <!-- $NO: \mu$ -->
     <g transform="translate(264.90106 317.489504) scale(0.35 -0.35)">
      <use xlink:href="#CMMI12-4e" transform="scale(0.996264)"/>
      <use xlink:href="#CMMI12-4f" transform="translate(88.521773 0) scale(0.996264)"/>
      <use xlink:href="#CMR17-3a" transform="translate(193.45618 0) scale(0.996264)"/>
      <use xlink:href="#CMMI12-16" transform="translate(246.001247 0) scale(0.996264)"/>
     </g>
    </g>
   </g>
  </g>
 </g>
 <defs>
  <clipPath id="p503239ae12">
   <rect x="135.40106" y="17.577748" width="725.4" height="609.84"/>
  </clipPath>
 </defs>
</svg>
