<?xml version="1.0" encoding="utf-8" standalone="no"?>
<!DOCTYPE svg PUBLIC "-//W3C//DTD SVG 1.1//EN"
  "http://www.w3.org/Graphics/SVG/1.1/DTD/svg11.dtd">
<svg xmlns:xlink="http://www.w3.org/1999/xlink" width="865.325987pt" height="703.183796pt" viewBox="0 0 865.325987 703.183796" xmlns="http://www.w3.org/2000/svg" version="1.1">
 <metadata>
  <rdf:RDF xmlns:dc="http://purl.org/dc/elements/1.1/" xmlns:cc="http://creativecommons.org/ns#" xmlns:rdf="http://www.w3.org/1999/02/22-rdf-syntax-ns#">
   <cc:Work>
    <dc:type rdf:resource="http://purl.org/dc/dcmitype/StillImage"/>
    <dc:date>2025-03-03T10:02:09.113933</dc:date>
    <dc:format>image/svg+xml</dc:format>
    <dc:creator>
     <cc:Agent>
      <dc:title>Matplotlib v3.5.3, https://matplotlib.org/</dc:title>
     </cc:Agent>
    </dc:creator>
   </cc:Work>
  </rdf:RDF>
 </metadata>
 <defs>
  <style type="text/css">*{stroke-linejoin: round; stroke-linecap: butt}</style>
 </defs>
 <g id="figure_1">
  <g id="patch_1">
   <path d="M 0 703.183796 
L 865.325987 703.183796 
L 865.325987 0 
L 0 0 
z
" style="fill: #ffffff"/>
  </g>
  <g id="axes_1">
   <g id="patch_2">
    <path d="M 114.954267 627.417748 
L 840.354267 627.417748 
L 840.354267 17.577748 
L 114.954267 17.577748 
z
" style="fill: #ffffff"/>
   </g>
   <g id="PolyCollection_1">
    <path d="M 127.907839 557.147423 
L 127.907839 555.978503 
L 145.51296 555.978503 
L 158.364813 555.978503 
L 167.746901 555.978503 
L 174.596207 555.978503 
L 179.596754 555.978503 
L 183.247916 555.978503 
L 185.914282 555.978503 
L 187.862052 555.978217 
L 189.285595 555.974236 
L 190.422229 554.802628 
L 191.548963 553.479267 
L 192.675696 543.401278 
L 193.830492 534.984374 
L 194.985287 526.338739 
L 196.140083 517.342626 
L 197.294879 513.265896 
L 198.449674 510.011266 
L 199.60447 509.560809 
L 200.759265 515.885074 
L 201.914061 515.746883 
L 203.068857 517.110252 
L 204.223652 518.087923 
L 205.378448 518.408562 
L 206.533244 519.146355 
L 207.688039 519.281574 
L 208.842835 519.342224 
L 209.997631 519.417713 
L 211.152426 519.406124 
L 212.307222 519.27422 
L 213.462018 519.16042 
L 214.616813 519.047998 
L 215.771609 519.020234 
L 216.926404 519.103867 
L 218.0812 519.087211 
L 219.235996 519.185987 
L 220.390791 519.270578 
L 221.545587 519.244397 
L 222.700383 519.132822 
L 223.855178 519.155433 
L 225.009974 519.263517 
L 226.16477 519.443093 
L 227.319565 519.486518 
L 228.474361 519.49386 
L 229.629156 519.487903 
L 230.783952 519.55163 
L 231.938748 519.709054 
L 233.093545 519.808415 
L 234.277433 519.848716 
L 235.503621 519.84378 
L 236.773932 519.863793 
L 238.090799 519.882794 
L 239.456712 519.895881 
L 240.873102 519.904518 
L 242.341674 519.904805 
L 243.864418 519.90096 
L 245.443518 519.892847 
L 247.080354 519.892755 
L 248.776635 519.888569 
L 250.534749 519.88302 
L 252.357908 519.887127 
L 254.249735 519.912466 
L 256.209375 519.926949 
L 258.241233 519.919011 
L 260.349013 519.906295 
L 262.532838 519.895561 
L 264.798325 519.900148 
L 267.146731 519.913977 
L 269.580844 519.95299 
L 272.105556 519.993234 
L 274.723097 520.029449 
L 277.436733 520.052676 
L 280.250191 520.086104 
L 283.167273 520.121625 
L 286.191749 520.141577 
L 289.327446 520.157286 
L 292.578506 520.15993 
L 295.949776 520.159821 
L 299.445012 520.163961 
L 303.068786 520.165912 
L 306.826225 520.166599 
L 310.722202 520.165019 
L 314.76138 520.15211 
L 318.949313 520.14753 
L 323.291649 520.142279 
L 327.794052 520.152264 
L 332.462214 520.153898 
L 337.277685 520.149853 
L 342.232014 520.132828 
L 347.368723 520.126066 
L 352.69501 520.118923 
L 358.217498 520.117512 
L 363.943541 520.107946 
L 369.880688 520.09697 
L 376.036622 520.097707 
L 382.419494 520.10541 
L 389.037774 520.113007 
L 395.900024 520.114155 
L 403.015199 520.115232 
L 410.392682 520.121588 
L 417.675795 520.120171 
L 423.111397 520.117759 
L 426.982287 520.101633 
L 429.739367 520.092171 
L 431.703555 520.081817 
L 433.103229 520.079635 
L 434.203254 520.080546 
L 435.293895 520.081507 
L 436.384535 520.08234 
L 437.475175 520.083409 
L 438.565816 520.084978 
L 439.656456 520.086756 
L 440.747096 520.087172 
L 441.837736 517.196095 
L 442.928377 304.556452 
L 443.723715 -20.477235 
L 444.519054 44.400258 
L 445.314392 40.955887 
L 446.10973 62.911681 
L 446.905069 73.70153 
L 447.700407 80.821206 
L 448.495745 85.009237 
L 449.291084 88.580046 
L 450.086422 91.515697 
L 450.881761 93.66387 
L 451.677099 94.878873 
L 452.472437 95.210664 
L 453.267776 95.411132 
L 454.063114 95.393285 
L 454.858453 95.410858 
L 455.653791 95.546946 
L 456.449129 95.702098 
L 457.244468 95.842937 
L 458.039806 95.99351 
L 458.835144 96.186799 
L 459.630483 96.287096 
L 460.425821 96.473689 
L 461.22116 96.678693 
L 462.016498 96.956382 
L 462.811836 97.191823 
L 463.607175 97.517837 
L 464.402513 97.843654 
L 465.197851 98.24376 
L 465.99319 98.727837 
L 466.788528 99.211351 
L 467.583867 99.859795 
L 468.379205 100.582852 
L 469.174543 101.380847 
L 469.969882 102.35954 
L 470.76522 103.56991 
L 471.560558 104.963255 
L 472.355897 106.472095 
L 473.151235 108.462627 
L 473.946574 110.672466 
L 474.741912 113.003327 
L 475.53725 116.174535 
L 476.332589 119.847142 
L 477.127927 124.049583 
L 477.923266 129.177194 
L 478.726749 135.32493 
L 479.580107 142.149909 
L 480.508364 150.695931 
L 481.509236 159.74241 
L 482.596482 170.379378 
L 483.7766 182.228333 
L 485.05512 197.922056 
L 486.442833 215.851513 
L 487.952035 236.224543 
L 489.59267 260.811673 
L 491.376498 283.715862 
L 493.316667 304.35686 
L 495.427579 321.625407 
L 497.725208 336.369579 
L 500.226009 348.506516 
L 502.945258 360.968742 
L 505.904595 367.944838 
L 509.120387 372.40643 
L 512.614786 373.811996 
L 516.406047 372.91772 
L 520.512797 369.955147 
L 524.951852 366.369228 
L 529.73413 362.76029 
L 534.862155 358.685471 
L 540.319576 354.496994 
L 546.022358 349.078816 
L 551.748794 343.21016 
L 557.47523 338.748046 
L 563.201667 335.233401 
L 568.928103 332.412116 
L 574.654539 329.83611 
L 580.380976 328.213925 
L 586.107412 327.254015 
L 591.833848 326.57524 
L 597.560285 325.960899 
L 603.286721 325.314832 
L 609.013157 324.98465 
L 614.739594 325.265763 
L 620.46603 331.564986 
L 626.192466 436.609473 
L 634.288448 546.235766 
L 642.384431 556.643001 
L 650.480413 557.796598 
L 658.576395 557.791347 
L 666.672377 557.761422 
L 674.768359 557.637345 
L 682.864341 557.555254 
L 690.960323 557.472908 
L 699.056306 557.389465 
L 707.152288 557.299765 
L 715.24827 557.222058 
L 723.344252 557.158329 
L 731.440234 557.104533 
L 739.536216 557.051281 
L 747.632198 557.005244 
L 755.728181 556.957703 
L 763.824163 556.911727 
L 771.920145 556.862569 
L 780.016127 556.821254 
L 788.112109 556.783724 
L 796.208091 556.756225 
L 804.304073 556.72486 
L 812.400056 556.696762 
L 820.496038 556.675959 
L 820.496038 558.300145 
L 820.496038 558.300145 
L 812.400056 558.301709 
L 804.304073 558.302606 
L 796.208091 558.305301 
L 788.112109 558.307223 
L 780.016127 558.300163 
L 771.920145 558.295233 
L 763.824163 558.285734 
L 755.728181 558.280852 
L 747.632198 558.272652 
L 739.536216 558.268343 
L 731.440234 558.28601 
L 723.344252 558.306461 
L 715.24827 558.319778 
L 707.152288 558.331325 
L 699.056306 558.344444 
L 690.960323 558.348957 
L 682.864341 558.371125 
L 674.768359 558.452921 
L 666.672377 558.631215 
L 658.576395 558.746494 
L 650.480413 558.803772 
L 642.384431 559.935454 
L 634.288448 569.095395 
L 626.192466 482.278189 
L 620.46603 400.382723 
L 614.739594 405.428278 
L 609.013157 404.819184 
L 603.286721 404.775995 
L 597.560285 405.110522 
L 591.833848 405.437169 
L 586.107412 405.673098 
L 580.380976 406.003257 
L 574.654539 406.799919 
L 568.928103 408.550568 
L 563.201667 410.515648 
L 557.47523 413.139189 
L 551.748794 416.621616 
L 546.022358 421.383037 
L 540.319576 425.676727 
L 534.862155 428.801086 
L 529.73413 432.069393 
L 524.951852 435.068075 
L 520.512797 438.461306 
L 516.406047 441.695587 
L 512.614786 443.551155 
L 509.120387 443.065398 
L 505.904595 440.643546 
L 502.945258 436.604008 
L 500.226009 428.211878 
L 497.725208 419.771648 
L 495.427579 409.685238 
L 493.316667 397.574163 
L 491.376498 383.395562 
L 489.59267 366.752627 
L 487.952035 349.168 
L 486.442833 334.998825 
L 485.05512 322.825052 
L 483.7766 312.69295 
L 482.596482 306.083318 
L 481.509236 299.528735 
L 480.508364 293.931836 
L 479.580107 288.288041 
L 478.726749 283.692692 
L 477.923266 279.433491 
L 477.127927 275.652161 
L 476.332589 272.611996 
L 475.53725 269.88123 
L 474.741912 267.387032 
L 473.946574 265.58812 
L 473.151235 263.809212 
L 472.355897 262.13994 
L 471.560558 260.866986 
L 470.76522 259.667452 
L 469.969882 258.573864 
L 469.174543 257.635615 
L 468.379205 256.748929 
L 467.583867 255.951379 
L 466.788528 255.168613 
L 465.99319 254.491805 
L 465.197851 253.820294 
L 464.402513 253.293484 
L 463.607175 252.955212 
L 462.811836 252.632884 
L 462.016498 252.478196 
L 461.22116 252.404001 
L 460.425821 252.428453 
L 459.630483 252.36884 
L 458.835144 252.24877 
L 458.039806 251.965059 
L 457.244468 251.704327 
L 456.449129 251.310365 
L 455.653791 250.729715 
L 454.858453 249.908901 
L 454.063114 249.007474 
L 453.267776 248.061818 
L 452.472437 247.278826 
L 451.677099 246.896644 
L 450.881761 246.29839 
L 450.086422 245.723912 
L 449.291084 245.143582 
L 448.495745 245.144981 
L 447.700407 245.920249 
L 446.905069 242.764255 
L 446.10973 238.205841 
L 445.314392 238.581561 
L 444.519054 228.231608 
L 443.723715 194.32318 
L 442.928377 422.598101 
L 441.837736 538.088644 
L 440.747096 533.351981 
L 439.656456 533.353667 
L 438.565816 533.354348 
L 437.475175 533.35312 
L 436.384535 533.351136 
L 435.293895 533.348692 
L 434.203254 533.345916 
L 433.103229 533.342398 
L 431.703555 533.3367 
L 429.739367 533.321537 
L 426.982287 533.30874 
L 423.111397 533.285665 
L 417.675795 533.271042 
L 410.392682 533.261601 
L 403.015199 533.268753 
L 395.900024 533.278851 
L 389.037774 533.28649 
L 382.419494 533.296349 
L 376.036622 533.293351 
L 369.880688 533.283639 
L 363.943541 533.267601 
L 358.217498 533.251529 
L 352.69501 533.244278 
L 347.368723 533.229562 
L 342.232014 533.214557 
L 337.277685 533.190023 
L 332.462214 533.176528 
L 327.794052 533.1692 
L 323.291649 533.171018 
L 318.949313 533.158395 
L 314.76138 533.14273 
L 310.722202 533.123663 
L 306.826225 533.111455 
L 303.068786 533.108333 
L 299.445012 533.106322 
L 295.949776 533.100995 
L 292.578506 533.089563 
L 289.327446 533.084591 
L 286.191749 533.077323 
L 283.167273 533.078567 
L 280.250191 533.069483 
L 277.436733 533.059332 
L 274.723097 533.027741 
L 272.105556 533.000952 
L 269.580844 532.975868 
L 267.146731 532.967878 
L 264.798325 532.936719 
L 262.532838 532.916777 
L 260.349013 532.889894 
L 258.241233 532.873856 
L 256.209375 532.876173 
L 254.249735 532.903917 
L 252.357908 532.952126 
L 250.534749 532.980044 
L 248.776635 533.012849 
L 247.080354 533.048195 
L 245.443518 533.087468 
L 243.864418 533.116493 
L 242.341674 533.144915 
L 240.873102 533.18916 
L 239.456712 533.237332 
L 238.090799 533.28009 
L 236.773932 533.334417 
L 235.503621 533.356972 
L 234.277433 533.377576 
L 233.093545 533.409223 
L 231.938748 533.501589 
L 230.783952 533.62137 
L 229.629156 533.658069 
L 228.474361 533.619003 
L 227.319565 533.592887 
L 226.16477 533.614393 
L 225.009974 533.76067 
L 223.855178 533.860437 
L 222.700383 533.943707 
L 221.545587 533.903516 
L 220.390791 533.950512 
L 219.235996 534.086492 
L 218.0812 534.216756 
L 216.926404 534.263654 
L 215.771609 534.331791 
L 214.616813 534.462066 
L 213.462018 534.378034 
L 212.307222 534.160239 
L 211.152426 534.246566 
L 209.997631 534.197654 
L 208.842835 533.912229 
L 207.688039 534.531558 
L 206.533244 534.362835 
L 205.378448 535.067824 
L 204.223652 535.183357 
L 203.068857 534.216347 
L 201.914061 532.43518 
L 200.759265 531.790662 
L 199.60447 532.087016 
L 198.449674 528.215609 
L 197.294879 531.190172 
L 196.140083 531.376716 
L 194.985287 539.808537 
L 193.830492 545.309507 
L 192.675696 551.681628 
L 191.548963 556.140127 
L 190.422229 557.08628 
L 189.285595 557.143526 
L 187.862052 557.147163 
L 185.914282 557.147423 
L 183.247916 557.147423 
L 179.596754 557.147423 
L 174.596207 557.147423 
L 167.746901 557.147423 
L 158.364813 557.147423 
L 145.51296 557.147423 
L 127.907839 557.147423 
z
" clip-path="url(#p0fbeb6b9e9)" style="fill: #99ccff; fill-opacity: 0.7"/>
   </g>
   <g id="matplotlib.axis_1">
    <g id="xtick_1">
     <g id="line2d_1">
      <path d="M 192.675696 627.417748 
L 192.675696 17.577748 
" clip-path="url(#p0fbeb6b9e9)" style="fill: none; stroke: #b0b0b0; stroke-width: 0.8; stroke-linecap: square"/>
     </g>
     <g id="line2d_2">
      <defs>
       <path id="mb26eb6140c" d="M 0 0 
L 0 3.5 
" style="stroke: #000000; stroke-width: 0.8"/>
      </defs>
      <g>
       <use xlink:href="#mb26eb6140c" x="192.675696" y="627.417748" style="stroke: #000000; stroke-width: 0.8"/>
      </g>
     </g>
     <g id="text_1">
      <!-- $\mathdefault{0.0}$ -->
      <g transform="translate(174.903976 655.173243)scale(0.3 -0.3)">
       <defs>
        <path id="CMR17-30" d="M 2688 2025 
C 2688 2416 2682 3080 2413 3591 
C 2176 4039 1798 4198 1466 4198 
C 1158 4198 768 4058 525 3597 
C 269 3118 243 2524 243 2025 
C 243 1661 250 1106 448 619 
C 723 -39 1216 -128 1466 -128 
C 1760 -128 2208 -7 2470 600 
C 2662 1042 2688 1559 2688 2025 
z
M 1466 -26 
C 1056 -26 813 325 723 812 
C 653 1188 653 1738 653 2096 
C 653 2588 653 2997 736 3387 
C 858 3929 1216 4096 1466 4096 
C 1728 4096 2067 3923 2189 3400 
C 2272 3036 2278 2607 2278 2096 
C 2278 1680 2278 1169 2202 792 
C 2067 95 1690 -26 1466 -26 
z
" transform="scale(0.015625)"/>
        <path id="CMMI12-3a" d="M 1178 307 
C 1178 492 1024 619 870 619 
C 685 619 557 466 557 313 
C 557 128 710 0 864 0 
C 1050 0 1178 153 1178 307 
z
" transform="scale(0.015625)"/>
       </defs>
       <use xlink:href="#CMR17-30" transform="scale(0.996264)"/>
       <use xlink:href="#CMMI12-3a" transform="translate(45.690477 0)scale(0.996264)"/>
       <use xlink:href="#CMR17-30" transform="translate(72.787654 0)scale(0.996264)"/>
      </g>
     </g>
    </g>
    <g id="xtick_2">
     <g id="line2d_3">
      <path d="M 322.21141 627.417748 
L 322.21141 17.577748 
" clip-path="url(#p0fbeb6b9e9)" style="fill: none; stroke: #b0b0b0; stroke-width: 0.8; stroke-linecap: square"/>
     </g>
     <g id="line2d_4">
      <g>
       <use xlink:href="#mb26eb6140c" x="322.21141" y="627.417748" style="stroke: #000000; stroke-width: 0.8"/>
      </g>
     </g>
     <g id="text_2">
      <!-- $\mathdefault{0.1}$ -->
      <g transform="translate(304.439691 655.173243)scale(0.3 -0.3)">
       <defs>
        <path id="CMR17-31" d="M 1702 4058 
C 1702 4192 1696 4192 1606 4192 
C 1357 3916 979 3827 621 3827 
C 602 3827 570 3827 563 3808 
C 557 3795 557 3782 557 3648 
C 755 3648 1088 3686 1344 3839 
L 1344 461 
C 1344 236 1331 160 781 160 
L 589 160 
L 589 0 
C 896 0 1216 0 1523 0 
C 1830 0 2150 0 2458 0 
L 2458 160 
L 2266 160 
C 1715 160 1702 230 1702 458 
L 1702 4058 
z
" transform="scale(0.015625)"/>
       </defs>
       <use xlink:href="#CMR17-30" transform="scale(0.996264)"/>
       <use xlink:href="#CMMI12-3a" transform="translate(45.690477 0)scale(0.996264)"/>
       <use xlink:href="#CMR17-31" transform="translate(72.787654 0)scale(0.996264)"/>
      </g>
     </g>
    </g>
    <g id="xtick_3">
     <g id="line2d_5">
      <path d="M 451.747125 627.417748 
L 451.747125 17.577748 
" clip-path="url(#p0fbeb6b9e9)" style="fill: none; stroke: #b0b0b0; stroke-width: 0.8; stroke-linecap: square"/>
     </g>
     <g id="line2d_6">
      <g>
       <use xlink:href="#mb26eb6140c" x="451.747125" y="627.417748" style="stroke: #000000; stroke-width: 0.8"/>
      </g>
     </g>
     <g id="text_3">
      <!-- $\mathdefault{0.2}$ -->
      <g transform="translate(433.975405 655.173243)scale(0.3 -0.3)">
       <defs>
        <path id="CMR17-32" d="M 2669 989 
L 2554 989 
C 2490 536 2438 459 2413 420 
C 2381 369 1920 369 1830 369 
L 602 369 
C 832 619 1280 1072 1824 1597 
C 2214 1967 2669 2402 2669 3035 
C 2669 3790 2067 4224 1395 4224 
C 691 4224 262 3604 262 3030 
C 262 2780 448 2748 525 2748 
C 589 2748 781 2787 781 3010 
C 781 3207 614 3264 525 3264 
C 486 3264 448 3258 422 3245 
C 544 3790 915 4058 1306 4058 
C 1862 4058 2227 3617 2227 3035 
C 2227 2479 1901 2000 1536 1584 
L 262 146 
L 262 0 
L 2515 0 
L 2669 989 
z
" transform="scale(0.015625)"/>
       </defs>
       <use xlink:href="#CMR17-30" transform="scale(0.996264)"/>
       <use xlink:href="#CMMI12-3a" transform="translate(45.690477 0)scale(0.996264)"/>
       <use xlink:href="#CMR17-32" transform="translate(72.787654 0)scale(0.996264)"/>
      </g>
     </g>
    </g>
    <g id="xtick_4">
     <g id="line2d_7">
      <path d="M 581.282839 627.417748 
L 581.282839 17.577748 
" clip-path="url(#p0fbeb6b9e9)" style="fill: none; stroke: #b0b0b0; stroke-width: 0.8; stroke-linecap: square"/>
     </g>
     <g id="line2d_8">
      <g>
       <use xlink:href="#mb26eb6140c" x="581.282839" y="627.417748" style="stroke: #000000; stroke-width: 0.8"/>
      </g>
     </g>
     <g id="text_4">
      <!-- $\mathdefault{0.3}$ -->
      <g transform="translate(563.511119 655.173243)scale(0.3 -0.3)">
       <defs>
        <path id="CMR17-33" d="M 1414 2157 
C 1984 2157 2234 1662 2234 1090 
C 2234 320 1824 25 1453 25 
C 1114 25 563 194 390 693 
C 422 680 454 680 486 680 
C 640 680 755 782 755 948 
C 755 1133 614 1216 486 1216 
C 378 1216 211 1165 211 926 
C 211 335 787 -128 1466 -128 
C 2176 -128 2720 430 2720 1085 
C 2720 1707 2208 2157 1600 2227 
C 2086 2328 2554 2756 2554 3329 
C 2554 3820 2048 4179 1472 4179 
C 890 4179 378 3829 378 3329 
C 378 3110 544 3072 627 3072 
C 762 3072 877 3155 877 3321 
C 877 3486 762 3569 627 3569 
C 602 3569 570 3569 544 3557 
C 730 3959 1235 4032 1459 4032 
C 1683 4032 2106 3925 2106 3320 
C 2106 3143 2080 2828 1862 2550 
C 1670 2304 1453 2304 1242 2284 
C 1210 2284 1062 2269 1037 2269 
C 992 2263 966 2257 966 2208 
C 966 2163 973 2157 1101 2157 
L 1414 2157 
z
" transform="scale(0.015625)"/>
       </defs>
       <use xlink:href="#CMR17-30" transform="scale(0.996264)"/>
       <use xlink:href="#CMMI12-3a" transform="translate(45.690477 0)scale(0.996264)"/>
       <use xlink:href="#CMR17-33" transform="translate(72.787654 0)scale(0.996264)"/>
      </g>
     </g>
    </g>
    <g id="xtick_5">
     <g id="line2d_9">
      <path d="M 710.818553 627.417748 
L 710.818553 17.577748 
" clip-path="url(#p0fbeb6b9e9)" style="fill: none; stroke: #b0b0b0; stroke-width: 0.8; stroke-linecap: square"/>
     </g>
     <g id="line2d_10">
      <g>
       <use xlink:href="#mb26eb6140c" x="710.818553" y="627.417748" style="stroke: #000000; stroke-width: 0.8"/>
      </g>
     </g>
     <g id="text_5">
      <!-- $\mathdefault{0.4}$ -->
      <g transform="translate(693.046833 655.173243)scale(0.3 -0.3)">
       <defs>
        <path id="CMR17-34" d="M 2150 4122 
C 2150 4256 2144 4256 2029 4256 
L 128 1254 
L 128 1088 
L 1779 1088 
L 1779 457 
C 1779 224 1766 160 1318 160 
L 1197 160 
L 1197 0 
C 1402 0 1747 0 1965 0 
C 2182 0 2528 0 2733 0 
L 2733 160 
L 2611 160 
C 2163 160 2150 224 2150 457 
L 2150 1088 
L 2803 1088 
L 2803 1254 
L 2150 1254 
L 2150 4122 
z
M 1798 3703 
L 1798 1254 
L 256 1254 
L 1798 3703 
z
" transform="scale(0.015625)"/>
       </defs>
       <use xlink:href="#CMR17-30" transform="scale(0.996264)"/>
       <use xlink:href="#CMMI12-3a" transform="translate(45.690477 0)scale(0.996264)"/>
       <use xlink:href="#CMR17-34" transform="translate(72.787654 0)scale(0.996264)"/>
      </g>
     </g>
    </g>
    <g id="xtick_6">
     <g id="line2d_11">
      <path d="M 840.354267 627.417748 
L 840.354267 17.577748 
" clip-path="url(#p0fbeb6b9e9)" style="fill: none; stroke: #b0b0b0; stroke-width: 0.8; stroke-linecap: square"/>
     </g>
     <g id="line2d_12">
      <g>
       <use xlink:href="#mb26eb6140c" x="840.354267" y="627.417748" style="stroke: #000000; stroke-width: 0.8"/>
      </g>
     </g>
     <g id="text_6">
      <!-- $\mathdefault{0.5}$ -->
      <g transform="translate(822.582548 655.173243)scale(0.3 -0.3)">
       <defs>
        <path id="CMR17-35" d="M 730 3692 
C 794 3666 1056 3584 1325 3584 
C 1920 3584 2246 3911 2432 4100 
C 2432 4157 2432 4192 2394 4192 
C 2387 4192 2374 4192 2323 4163 
C 2099 4058 1837 3973 1517 3973 
C 1325 3973 1037 3999 723 4139 
C 653 4171 640 4171 634 4171 
C 602 4171 595 4164 595 4037 
L 595 2203 
C 595 2089 595 2057 659 2057 
C 691 2057 704 2070 736 2114 
C 941 2401 1222 2522 1542 2522 
C 1766 2522 2246 2382 2246 1289 
C 2246 1085 2246 715 2054 421 
C 1894 159 1645 25 1370 25 
C 947 25 518 320 403 814 
C 429 807 480 795 506 795 
C 589 795 749 840 749 1038 
C 749 1210 627 1280 506 1280 
C 358 1280 262 1190 262 1011 
C 262 454 704 -128 1382 -128 
C 2042 -128 2669 440 2669 1264 
C 2669 2030 2170 2624 1549 2624 
C 1222 2624 947 2503 730 2274 
L 730 3692 
z
" transform="scale(0.015625)"/>
       </defs>
       <use xlink:href="#CMR17-30" transform="scale(0.996264)"/>
       <use xlink:href="#CMMI12-3a" transform="translate(45.690477 0)scale(0.996264)"/>
       <use xlink:href="#CMR17-35" transform="translate(72.787654 0)scale(0.996264)"/>
      </g>
     </g>
    </g>
    <g id="text_7">
     <!-- $x, \; \mathrm{m} $ -->
     <g transform="translate(442.001664 689.201445)scale(0.35 -0.35)">
      <defs>
       <path id="CMMI12-78" d="M 3034 2606 
C 2829 2567 2752 2414 2752 2293 
C 2752 2139 2874 2088 2963 2088 
C 3155 2088 3290 2254 3290 2427 
C 3290 2695 2982 2816 2714 2816 
C 2323 2816 2106 2433 2048 2312 
C 1901 2816 1504 2816 1389 2816 
C 736 2816 390 1980 390 1839 
C 390 1814 416 1782 461 1782 
C 512 1782 525 1820 538 1846 
C 755 2555 1184 2689 1370 2689 
C 1658 2689 1715 2420 1715 2267 
C 1715 2127 1677 1980 1600 1673 
L 1382 798 
C 1286 415 1101 64 762 64 
C 730 64 570 64 435 147 
C 666 192 717 383 717 460 
C 717 588 621 664 499 664 
C 346 664 179 530 179 326 
C 179 57 480 -64 755 -64 
C 1062 -64 1280 179 1414 441 
C 1517 64 1837 -64 2074 -64 
C 2726 -64 3072 773 3072 913 
C 3072 945 3046 971 3008 971 
C 2950 971 2944 939 2925 888 
C 2752 326 2381 64 2093 64 
C 1869 64 1747 230 1747 492 
C 1747 632 1773 734 1875 1156 
L 2099 2024 
C 2195 2408 2413 2689 2707 2689 
C 2720 2689 2899 2689 3034 2606 
z
" transform="scale(0.015625)"/>
       <path id="CMMI12-3b" d="M 1248 -31 
C 1248 343 1126 619 864 619 
C 659 619 557 453 557 313 
C 557 172 653 0 870 0 
C 954 0 1024 26 1082 83 
C 1094 96 1101 96 1107 96 
C 1120 96 1120 5 1120 -27 
C 1120 -240 1082 -659 710 -1080 
C 640 -1157 640 -1170 640 -1183 
C 640 -1216 672 -1248 704 -1248 
C 755 -1248 1248 -771 1248 -31 
z
" transform="scale(0.015625)"/>
       <path id="CMR17-6d" d="M 4326 1933 
C 4326 2252 4269 2790 3507 2790 
C 3072 2790 2771 2496 2656 2151 
L 2650 2151 
C 2573 2676 2195 2790 1837 2790 
C 1331 2790 1069 2400 973 2144 
L 966 2144 
L 966 2790 
L 211 2720 
L 211 2554 
C 589 2554 646 2515 646 2208 
L 646 428 
C 646 184 621 153 211 153 
L 211 -13 
C 365 0 646 0 813 0 
C 979 0 1267 0 1421 -13 
L 1421 153 
C 1011 153 986 178 986 428 
L 986 1658 
C 986 2247 1344 2688 1792 2688 
C 2266 2688 2317 2266 2317 1958 
L 2317 428 
C 2317 184 2291 153 1882 153 
L 1882 -13 
C 2035 0 2317 0 2483 0 
C 2650 0 2938 0 3091 -13 
L 3091 153 
C 2682 153 2656 178 2656 428 
L 2656 1658 
C 2656 2247 3014 2688 3462 2688 
C 3936 2688 3987 2266 3987 1958 
L 3987 428 
C 3987 184 3962 153 3552 153 
L 3552 -13 
C 3706 0 3987 0 4154 0 
C 4320 0 4608 0 4762 -13 
L 4762 153 
C 4352 153 4326 178 4326 428 
L 4326 1933 
z
" transform="scale(0.015625)"/>
      </defs>
      <use xlink:href="#CMMI12-78" transform="scale(0.996264)"/>
      <use xlink:href="#CMMI12-3b" transform="translate(55.43406 0)scale(0.996264)"/>
      <use xlink:href="#CMR17-6d" transform="translate(126.809651 0)scale(0.996264)"/>
     </g>
    </g>
   </g>
   <g id="matplotlib.axis_2">
    <g id="ytick_1">
     <g id="line2d_13">
      <path d="M 114.954267 627.417748 
L 840.354267 627.417748 
" clip-path="url(#p0fbeb6b9e9)" style="fill: none; stroke: #b0b0b0; stroke-width: 0.8; stroke-linecap: square"/>
     </g>
     <g id="line2d_14">
      <defs>
       <path id="m409fec585e" d="M 0 0 
L -3.5 0 
" style="stroke: #000000; stroke-width: 0.8"/>
      </defs>
      <g>
       <use xlink:href="#m409fec585e" x="114.954267" y="627.417748" style="stroke: #000000; stroke-width: 0.8"/>
      </g>
     </g>
     <g id="text_8">
      <!-- $\mathdefault{−25}$ -->
      <g transform="translate(57.29375 637.795495)scale(0.3 -0.3)">
       <defs>
        <path id="CMSY10-0" d="M 4218 1472 
C 4326 1472 4442 1472 4442 1600 
C 4442 1728 4326 1728 4218 1728 
L 755 1728 
C 646 1728 531 1728 531 1600 
C 531 1472 646 1472 755 1472 
L 4218 1472 
z
" transform="scale(0.015625)"/>
       </defs>
       <use xlink:href="#CMSY10-0" transform="scale(0.996264)"/>
       <use xlink:href="#CMR17-32" transform="translate(77.487468 0)scale(0.996264)"/>
       <use xlink:href="#CMR17-35" transform="translate(123.177945 0)scale(0.996264)"/>
      </g>
     </g>
    </g>
    <g id="ytick_2">
     <g id="line2d_15">
      <path d="M 114.954267 559.657748 
L 840.354267 559.657748 
" clip-path="url(#p0fbeb6b9e9)" style="fill: none; stroke: #b0b0b0; stroke-width: 0.8; stroke-linecap: square"/>
     </g>
     <g id="line2d_16">
      <g>
       <use xlink:href="#m409fec585e" x="114.954267" y="559.657748" style="stroke: #000000; stroke-width: 0.8"/>
      </g>
     </g>
     <g id="text_9">
      <!-- $\mathdefault{0}$ -->
      <g transform="translate(94.247124 570.035495)scale(0.3 -0.3)">
       <use xlink:href="#CMR17-30" transform="scale(0.996264)"/>
      </g>
     </g>
    </g>
    <g id="ytick_3">
     <g id="line2d_17">
      <path d="M 114.954267 491.897748 
L 840.354267 491.897748 
" clip-path="url(#p0fbeb6b9e9)" style="fill: none; stroke: #b0b0b0; stroke-width: 0.8; stroke-linecap: square"/>
     </g>
     <g id="line2d_18">
      <g>
       <use xlink:href="#m409fec585e" x="114.954267" y="491.897748" style="stroke: #000000; stroke-width: 0.8"/>
      </g>
     </g>
     <g id="text_10">
      <!-- $\mathdefault{25}$ -->
      <g transform="translate(80.539981 502.275495)scale(0.3 -0.3)">
       <use xlink:href="#CMR17-32" transform="scale(0.996264)"/>
       <use xlink:href="#CMR17-35" transform="translate(45.690477 0)scale(0.996264)"/>
      </g>
     </g>
    </g>
    <g id="ytick_4">
     <g id="line2d_19">
      <path d="M 114.954267 424.137748 
L 840.354267 424.137748 
" clip-path="url(#p0fbeb6b9e9)" style="fill: none; stroke: #b0b0b0; stroke-width: 0.8; stroke-linecap: square"/>
     </g>
     <g id="line2d_20">
      <g>
       <use xlink:href="#m409fec585e" x="114.954267" y="424.137748" style="stroke: #000000; stroke-width: 0.8"/>
      </g>
     </g>
     <g id="text_11">
      <!-- $\mathdefault{50}$ -->
      <g transform="translate(80.539981 434.515495)scale(0.3 -0.3)">
       <use xlink:href="#CMR17-35" transform="scale(0.996264)"/>
       <use xlink:href="#CMR17-30" transform="translate(45.690477 0)scale(0.996264)"/>
      </g>
     </g>
    </g>
    <g id="ytick_5">
     <g id="line2d_21">
      <path d="M 114.954267 356.377748 
L 840.354267 356.377748 
" clip-path="url(#p0fbeb6b9e9)" style="fill: none; stroke: #b0b0b0; stroke-width: 0.8; stroke-linecap: square"/>
     </g>
     <g id="line2d_22">
      <g>
       <use xlink:href="#m409fec585e" x="114.954267" y="356.377748" style="stroke: #000000; stroke-width: 0.8"/>
      </g>
     </g>
     <g id="text_12">
      <!-- $\mathdefault{75}$ -->
      <g transform="translate(80.539981 366.755495)scale(0.3 -0.3)">
       <defs>
        <path id="CMR17-37" d="M 2886 3941 
L 2886 4081 
L 1382 4081 
C 634 4081 621 4165 595 4288 
L 480 4288 
L 294 3094 
L 410 3094 
C 429 3215 474 3540 550 3661 
C 589 3712 1062 3712 1171 3712 
L 2579 3712 
L 1869 2661 
C 1395 1954 1069 999 1069 165 
C 1069 89 1069 -128 1299 -128 
C 1530 -128 1530 89 1530 171 
L 1530 465 
C 1530 1508 1709 2196 2003 2636 
L 2886 3941 
z
" transform="scale(0.015625)"/>
       </defs>
       <use xlink:href="#CMR17-37" transform="scale(0.996264)"/>
       <use xlink:href="#CMR17-35" transform="translate(45.690477 0)scale(0.996264)"/>
      </g>
     </g>
    </g>
    <g id="ytick_6">
     <g id="line2d_23">
      <path d="M 114.954267 288.617748 
L 840.354267 288.617748 
" clip-path="url(#p0fbeb6b9e9)" style="fill: none; stroke: #b0b0b0; stroke-width: 0.8; stroke-linecap: square"/>
     </g>
     <g id="line2d_24">
      <g>
       <use xlink:href="#m409fec585e" x="114.954267" y="288.617748" style="stroke: #000000; stroke-width: 0.8"/>
      </g>
     </g>
     <g id="text_13">
      <!-- $\mathdefault{100}$ -->
      <g transform="translate(66.832838 298.995495)scale(0.3 -0.3)">
       <use xlink:href="#CMR17-31" transform="scale(0.996264)"/>
       <use xlink:href="#CMR17-30" transform="translate(45.690477 0)scale(0.996264)"/>
       <use xlink:href="#CMR17-30" transform="translate(91.380954 0)scale(0.996264)"/>
      </g>
     </g>
    </g>
    <g id="ytick_7">
     <g id="line2d_25">
      <path d="M 114.954267 220.857748 
L 840.354267 220.857748 
" clip-path="url(#p0fbeb6b9e9)" style="fill: none; stroke: #b0b0b0; stroke-width: 0.8; stroke-linecap: square"/>
     </g>
     <g id="line2d_26">
      <g>
       <use xlink:href="#m409fec585e" x="114.954267" y="220.857748" style="stroke: #000000; stroke-width: 0.8"/>
      </g>
     </g>
     <g id="text_14">
      <!-- $\mathdefault{125}$ -->
      <g transform="translate(66.832838 231.235495)scale(0.3 -0.3)">
       <use xlink:href="#CMR17-31" transform="scale(0.996264)"/>
       <use xlink:href="#CMR17-32" transform="translate(45.690477 0)scale(0.996264)"/>
       <use xlink:href="#CMR17-35" transform="translate(91.380954 0)scale(0.996264)"/>
      </g>
     </g>
    </g>
    <g id="ytick_8">
     <g id="line2d_27">
      <path d="M 114.954267 153.097748 
L 840.354267 153.097748 
" clip-path="url(#p0fbeb6b9e9)" style="fill: none; stroke: #b0b0b0; stroke-width: 0.8; stroke-linecap: square"/>
     </g>
     <g id="line2d_28">
      <g>
       <use xlink:href="#m409fec585e" x="114.954267" y="153.097748" style="stroke: #000000; stroke-width: 0.8"/>
      </g>
     </g>
     <g id="text_15">
      <!-- $\mathdefault{150}$ -->
      <g transform="translate(66.832838 163.475495)scale(0.3 -0.3)">
       <use xlink:href="#CMR17-31" transform="scale(0.996264)"/>
       <use xlink:href="#CMR17-35" transform="translate(45.690477 0)scale(0.996264)"/>
       <use xlink:href="#CMR17-30" transform="translate(91.380954 0)scale(0.996264)"/>
      </g>
     </g>
    </g>
    <g id="ytick_9">
     <g id="line2d_29">
      <path d="M 114.954267 85.337748 
L 840.354267 85.337748 
" clip-path="url(#p0fbeb6b9e9)" style="fill: none; stroke: #b0b0b0; stroke-width: 0.8; stroke-linecap: square"/>
     </g>
     <g id="line2d_30">
      <g>
       <use xlink:href="#m409fec585e" x="114.954267" y="85.337748" style="stroke: #000000; stroke-width: 0.8"/>
      </g>
     </g>
     <g id="text_16">
      <!-- $\mathdefault{175}$ -->
      <g transform="translate(66.832838 95.715495)scale(0.3 -0.3)">
       <use xlink:href="#CMR17-31" transform="scale(0.996264)"/>
       <use xlink:href="#CMR17-37" transform="translate(45.690477 0)scale(0.996264)"/>
       <use xlink:href="#CMR17-35" transform="translate(91.380954 0)scale(0.996264)"/>
      </g>
     </g>
    </g>
    <g id="ytick_10">
     <g id="line2d_31">
      <path d="M 114.954267 17.577748 
L 840.354267 17.577748 
" clip-path="url(#p0fbeb6b9e9)" style="fill: none; stroke: #b0b0b0; stroke-width: 0.8; stroke-linecap: square"/>
     </g>
     <g id="line2d_32">
      <g>
       <use xlink:href="#m409fec585e" x="114.954267" y="17.577748" style="stroke: #000000; stroke-width: 0.8"/>
      </g>
     </g>
     <g id="text_17">
      <!-- $\mathdefault{200}$ -->
      <g transform="translate(66.832838 27.955495)scale(0.3 -0.3)">
       <use xlink:href="#CMR17-32" transform="scale(0.996264)"/>
       <use xlink:href="#CMR17-30" transform="translate(45.690477 0)scale(0.996264)"/>
       <use xlink:href="#CMR17-30" transform="translate(91.380954 0)scale(0.996264)"/>
      </g>
     </g>
    </g>
    <g id="text_18">
     <!-- $\frac{P}{P_\infty}, \; -$ -->
     <g transform="translate(37.608171 365.815348)rotate(-90)scale(0.35 -0.35)">
      <defs>
       <path id="CMMI12-50" d="M 1894 2023 
L 2970 2023 
C 3853 2023 4736 2673 4736 3401 
C 4736 3898 4314 4352 3507 4352 
L 1530 4352 
C 1408 4352 1350 4352 1350 4231 
C 1350 4167 1408 4167 1504 4167 
C 1894 4167 1894 4116 1894 4046 
C 1894 4034 1894 3995 1869 3899 
L 1005 472 
C 947 249 934 185 486 185 
C 365 185 301 185 301 70 
C 301 0 358 0 397 0 
C 518 0 646 0 768 0 
L 1517 0 
C 1638 0 1773 0 1894 0 
C 1946 0 2016 0 2016 121 
C 2016 185 1958 185 1862 185 
C 1478 185 1472 230 1472 293 
C 1472 325 1478 369 1485 401 
L 1894 2023 
z
M 2355 3930 
C 2413 4167 2438 4167 2688 4167 
L 3322 4167 
C 3802 4167 4198 4013 4198 3535 
C 4198 3369 4115 2827 3821 2534 
C 3712 2419 3405 2176 2822 2176 
L 1920 2176 
L 2355 3930 
z
" transform="scale(0.015625)"/>
       <path id="CMSY10-31" d="M 3251 1730 
C 2906 2166 2829 2262 2630 2422 
C 2272 2710 1914 2825 1587 2825 
C 838 2825 352 2122 352 1374 
C 352 639 826 -70 1562 -70 
C 2298 -70 2829 511 3142 1022 
C 3488 588 3565 492 3763 332 
C 4122 45 4480 -70 4806 -70 
C 5555 -70 6042 633 6042 1380 
C 6042 2115 5568 2825 4832 2825 
C 4096 2825 3565 2242 3251 1730 
z
M 3418 1514 
C 3680 1975 4154 2620 4877 2620 
C 5555 2620 5901 1955 5901 1380 
C 5901 753 5472 236 4909 236 
C 4538 236 4250 505 4115 638 
C 3955 811 3808 1009 3418 1514 
z
M 2976 1240 
C 2714 780 2240 134 1517 134 
C 838 134 493 799 493 1374 
C 493 2000 922 2518 1485 2518 
C 1856 2518 2144 2249 2278 2115 
C 2438 1943 2586 1744 2976 1240 
z
" transform="scale(0.015625)"/>
      </defs>
      <use xlink:href="#CMMI12-50" transform="translate(20.413759 39.226102)scale(0.697382)"/>
      <use xlink:href="#CMMI12-50" transform="translate(0 -34.355253)scale(0.697382)"/>
      <use xlink:href="#CMSY10-31" transform="translate(44.013857 -44.815949)scale(0.498132)"/>
      <use xlink:href="#CMMI12-3b" transform="translate(95.52084 0)scale(0.996264)"/>
      <use xlink:href="#CMSY10-0" transform="translate(166.896431 0)scale(0.996264)"/>
      <path d="M 0 22.914133 
L 94.325327 22.914133 
L 94.325327 26.899083 
L 0 26.899083 
L 0 22.914133 
z
"/>
     </g>
    </g>
   </g>
   <g id="line2d_33">
    <path d="M 127.907839 556.562963 
L 189.285595 556.558881 
L 190.422229 555.944454 
L 191.548963 554.809697 
L 194.985287 533.073638 
L 196.140083 524.359671 
L 197.294879 522.228034 
L 198.449674 519.113437 
L 199.60447 520.823912 
L 200.759265 523.837868 
L 201.914061 524.091031 
L 203.068857 525.663299 
L 204.223652 526.63564 
L 207.688039 526.906566 
L 208.842835 526.627227 
L 209.997631 526.807684 
L 211.152426 526.826345 
L 212.307222 526.71723 
L 214.616813 526.755032 
L 216.926404 526.683761 
L 226.16477 526.528743 
L 239.456712 526.566607 
L 258.241233 526.396433 
L 272.105556 526.497093 
L 289.327446 526.620939 
L 440.747096 526.719576 
L 441.837736 527.64237 
L 442.928377 363.577276 
L 443.723715 86.922973 
L 444.519054 136.315933 
L 445.314392 139.768724 
L 446.10973 150.558761 
L 446.905069 158.232893 
L 447.700407 163.370727 
L 450.881761 169.98113 
L 451.677099 170.887759 
L 452.472437 171.244745 
L 455.653791 173.13833 
L 457.244468 173.773632 
L 459.630483 174.327968 
L 462.811836 174.912354 
L 464.402513 175.568569 
L 465.99319 176.609821 
L 467.583867 177.905587 
L 469.174543 179.508231 
L 469.969882 180.466702 
L 471.560558 182.915121 
L 472.355897 184.306018 
L 473.946574 188.130293 
L 474.741912 190.195179 
L 476.332589 196.229569 
L 477.127927 199.850872 
L 477.923266 204.305343 
L 479.580107 215.218975 
L 483.7766 247.460642 
L 486.442833 275.425169 
L 487.952035 292.696271 
L 489.59267 313.78215 
L 491.376498 333.555712 
L 493.316667 350.965511 
L 495.427579 365.655322 
L 497.725208 378.070614 
L 500.226009 388.359197 
L 502.945258 398.786375 
L 505.904595 404.294192 
L 509.120387 407.735914 
L 512.614786 408.681575 
L 516.406047 407.306654 
L 520.512797 404.208226 
L 524.951852 400.718652 
L 540.319576 390.08686 
L 546.022358 385.230927 
L 551.748794 379.915888 
L 557.47523 375.943618 
L 563.201667 372.874525 
L 568.928103 370.481342 
L 574.654539 368.318015 
L 580.380976 367.108591 
L 586.107412 366.463556 
L 603.286721 365.045414 
L 609.013157 364.901917 
L 614.739594 365.34702 
L 620.46603 365.973855 
L 626.192466 459.443831 
L 634.288448 557.66558 
L 642.384431 558.289228 
L 658.576395 558.268921 
L 731.440234 557.695271 
L 788.112109 557.545474 
L 820.496038 557.488052 
L 820.496038 557.488052 
" clip-path="url(#p0fbeb6b9e9)" style="fill: none; stroke: #ff0000; stroke-width: 3; stroke-linecap: square"/>
   </g>
   <g id="line2d_34">
    <defs>
     <path id="m3f833eb745" d="M -0 7.071068 
L 4.242641 0 
L -0 -7.071068 
L -4.242641 -0 
z
" style="stroke: #000000; stroke-width: 1.5; stroke-linejoin: miter"/>
    </defs>
    <g clip-path="url(#p0fbeb6b9e9)">
     <use xlink:href="#m3f833eb745" x="195.753772" y="550.220422" style="fill: #ffffff; stroke: #000000; stroke-width: 1.5; stroke-linejoin: miter"/>
     <use xlink:href="#m3f833eb745" x="200.8839" y="531.34577" style="fill: #ffffff; stroke: #000000; stroke-width: 1.5; stroke-linejoin: miter"/>
     <use xlink:href="#m3f833eb745" x="214.735243" y="525.683374" style="fill: #ffffff; stroke: #000000; stroke-width: 1.5; stroke-linejoin: miter"/>
     <use xlink:href="#m3f833eb745" x="279.88786" y="525.673559" style="fill: #ffffff; stroke: #000000; stroke-width: 1.5; stroke-linejoin: miter"/>
     <use xlink:href="#m3f833eb745" x="340.936375" y="525.690849" style="fill: #ffffff; stroke: #000000; stroke-width: 1.5; stroke-linejoin: miter"/>
     <use xlink:href="#m3f833eb745" x="394.802712" y="525.683374" style="fill: #ffffff; stroke: #000000; stroke-width: 1.5; stroke-linejoin: miter"/>
     <use xlink:href="#m3f833eb745" x="442.512895" y="525.681034" style="fill: #ffffff; stroke: #000000; stroke-width: 1.5; stroke-linejoin: miter"/>
     <use xlink:href="#m3f833eb745" x="444.051934" y="155.740199" style="fill: #ffffff; stroke: #000000; stroke-width: 1.5; stroke-linejoin: miter"/>
     <use xlink:href="#m3f833eb745" x="448.669048" y="208.589224" style="fill: #ffffff; stroke: #000000; stroke-width: 1.5; stroke-linejoin: miter"/>
     <use xlink:href="#m3f833eb745" x="462.007379" y="193.489502" style="fill: #ffffff; stroke: #000000; stroke-width: 1.5; stroke-linejoin: miter"/>
     <use xlink:href="#m3f833eb745" x="471.754621" y="187.827107" style="fill: #ffffff; stroke: #000000; stroke-width: 1.5; stroke-linejoin: miter"/>
     <use xlink:href="#m3f833eb745" x="480.98885" y="202.926828" style="fill: #ffffff; stroke: #000000; stroke-width: 1.5; stroke-linejoin: miter"/>
     <use xlink:href="#m3f833eb745" x="485.092952" y="263.325714" style="fill: #ffffff; stroke: #000000; stroke-width: 1.5; stroke-linejoin: miter"/>
     <use xlink:href="#m3f833eb745" x="489.197054" y="340.711787" style="fill: #ffffff; stroke: #000000; stroke-width: 1.5; stroke-linejoin: miter"/>
     <use xlink:href="#m3f833eb745" x="493.814168" y="404.885603" style="fill: #ffffff; stroke: #000000; stroke-width: 1.5; stroke-linejoin: miter"/>
     <use xlink:href="#m3f833eb745" x="507.152499" y="429.42265" style="fill: #ffffff; stroke: #000000; stroke-width: 1.5; stroke-linejoin: miter"/>
     <use xlink:href="#m3f833eb745" x="532.803136" y="419.985324" style="fill: #ffffff; stroke: #000000; stroke-width: 1.5; stroke-linejoin: miter"/>
     <use xlink:href="#m3f833eb745" x="552.29762" y="380.348555" style="fill: #ffffff; stroke: #000000; stroke-width: 1.5; stroke-linejoin: miter"/>
     <use xlink:href="#m3f833eb745" x="583.591396" y="374.68616" style="fill: #ffffff; stroke: #000000; stroke-width: 1.5; stroke-linejoin: miter"/>
     <use xlink:href="#m3f833eb745" x="609.755045" y="374.68616" style="fill: #ffffff; stroke: #000000; stroke-width: 1.5; stroke-linejoin: miter"/>
     <use xlink:href="#m3f833eb745" x="625.65844" y="376.573625" style="fill: #ffffff; stroke: #000000; stroke-width: 1.5; stroke-linejoin: miter"/>
     <use xlink:href="#m3f833eb745" x="627.197478" y="552.107887" style="fill: #ffffff; stroke: #000000; stroke-width: 1.5; stroke-linejoin: miter"/>
     <use xlink:href="#m3f833eb745" x="664.647407" y="555.882817" style="fill: #ffffff; stroke: #000000; stroke-width: 1.5; stroke-linejoin: miter"/>
    </g>
   </g>
   <g id="patch_3">
    <path d="M 114.954267 627.417748 
L 114.954267 17.577748 
" style="fill: none; stroke: #000000; stroke-width: 0.8; stroke-linejoin: miter; stroke-linecap: square"/>
   </g>
   <g id="patch_4">
    <path d="M 840.354267 627.417748 
L 840.354267 17.577748 
" style="fill: none; stroke: #000000; stroke-width: 0.8; stroke-linejoin: miter; stroke-linecap: square"/>
   </g>
   <g id="patch_5">
    <path d="M 114.954267 627.417748 
L 840.354267 627.417748 
" style="fill: none; stroke: #000000; stroke-width: 0.8; stroke-linejoin: miter; stroke-linecap: square"/>
   </g>
   <g id="patch_6">
    <path d="M 114.954267 17.577748 
L 840.354267 17.577748 
" style="fill: none; stroke: #000000; stroke-width: 0.8; stroke-linejoin: miter; stroke-linecap: square"/>
   </g>
   <g id="legend_1">
    <g id="patch_7">
     <path d="M 515.72315 191.924801 
L 815.854267 191.924801 
Q 822.854267 191.924801 822.854267 184.924801 
L 822.854267 42.077748 
Q 822.854267 35.077748 815.854267 35.077748 
L 515.72315 35.077748 
Q 508.72315 35.077748 508.72315 42.077748 
L 508.72315 184.924801 
Q 508.72315 191.924801 515.72315 191.924801 
z
" style="fill: #ffffff; stroke: #cccccc; stroke-linejoin: miter"/>
    </g>
    <g id="patch_8">
     <path d="M 522.72315 73.577748 
L 592.72315 73.577748 
L 592.72315 49.077748 
L 522.72315 49.077748 
z
" style="fill: #99ccff; fill-opacity: 0.7"/>
    </g>
    <g id="text_19">
     <!-- $\sigma$ -->
     <g transform="translate(620.72315 73.577748)scale(0.35 -0.35)">
      <defs>
       <path id="CMMI12-1b" d="M 3251 2408 
C 3334 2408 3546 2408 3546 2612 
C 3546 2752 3424 2752 3309 2752 
L 1894 2752 
C 934 2752 243 1686 243 932 
C 243 390 595 -64 1171 -64 
C 1926 -64 2752 747 2752 1705 
C 2752 1954 2694 2196 2541 2408 
L 3251 2408 
z
M 1178 64 
C 851 64 614 313 614 754 
C 614 1137 845 2408 1786 2408 
C 2061 2408 2368 2274 2368 1781 
C 2368 1558 2266 1021 2042 652 
C 1811 275 1466 64 1178 64 
z
" transform="scale(0.015625)"/>
      </defs>
      <use xlink:href="#CMMI12-1b" transform="scale(0.996264)"/>
     </g>
    </g>
    <g id="line2d_35">
     <path d="M 522.72315 110.110099 
L 557.72315 110.110099 
L 592.72315 110.110099 
" style="fill: none; stroke: #ff0000; stroke-width: 3; stroke-linecap: square"/>
    </g>
    <g id="text_20">
     <!-- $\mu$ -->
     <g transform="translate(620.72315 122.360099)scale(0.35 -0.35)">
      <defs>
       <path id="CMMI12-16" d="M 922 140 
C 1082 -6 1318 -64 1536 -64 
C 1946 -64 2227 208 2374 405 
C 2438 69 2707 -64 2931 -64 
C 3123 -64 3277 50 3392 277 
C 3494 493 3584 879 3584 903 
C 3584 935 3558 960 3520 960 
C 3462 960 3456 928 3430 834 
C 3334 461 3213 64 2950 64 
C 2765 64 2752 229 2752 358 
C 2752 504 2810 735 2854 926 
L 3034 1615 
C 3059 1737 3130 2023 3162 2139 
C 3200 2292 3270 2567 3270 2592 
C 3270 2688 3194 2752 3098 2752 
C 3040 2752 2906 2726 2854 2535 
L 2406 760 
C 2374 632 2374 619 2291 517 
C 2214 409 1965 64 1562 64 
C 1203 64 1088 326 1088 625 
C 1088 811 1146 1034 1171 1143 
L 1459 2293 
C 1491 2414 1542 2618 1542 2657 
C 1542 2759 1459 2816 1376 2816 
C 1318 2816 1178 2797 1126 2592 
L 198 -1107 
C 192 -1139 179 -1177 179 -1216 
C 179 -1312 256 -1376 352 -1376 
C 538 -1376 576 -1228 621 -1050 
L 922 140 
z
" transform="scale(0.015625)"/>
      </defs>
      <use xlink:href="#CMMI12-16" transform="scale(0.996264)"/>
     </g>
    </g>
    <g id="line2d_36">
     <g>
      <use xlink:href="#m3f833eb745" x="557.72315" y="158.89245" style="fill: #ffffff; stroke: #000000; stroke-width: 1.5; stroke-linejoin: miter"/>
     </g>
    </g>
    <g id="text_21">
     <!-- $\mathrm{Garbacz} \, \mathrm{et} \, \mathrm{al}.$ -->
     <g transform="translate(620.72315 171.14245)scale(0.35 -0.35)">
      <defs>
       <path id="CMR17-47" d="M 3974 1233 
C 3974 1473 3994 1505 4390 1505 
L 4390 1670 
C 4237 1664 3891 1664 3718 1664 
C 3539 1664 3040 1664 2797 1664 
L 2797 1505 
L 2989 1505 
C 3539 1505 3552 1434 3552 1201 
L 3552 774 
C 3552 63 2720 63 2522 63 
C 1862 63 781 511 781 2160 
C 781 3808 1843 4250 2464 4250 
C 3187 4250 3712 3626 3834 2741 
C 3846 2664 3846 2651 3904 2651 
C 3974 2651 3974 2664 3974 2779 
L 3974 4288 
C 3974 4402 3968 4409 3930 4409 
C 3904 4409 3898 4402 3853 4326 
L 3571 3791 
C 3258 4187 2874 4416 2381 4416 
C 1286 4416 294 3456 294 2148 
C 294 845 1267 -128 2394 -128 
C 2912 -128 3418 56 3616 417 
C 3725 158 3904 -20 3936 -20 
C 3968 -20 3974 -13 3974 100 
L 3974 1233 
z
" transform="scale(0.015625)"/>
       <path id="CMR17-61" d="M 2304 1653 
C 2304 2072 2304 2294 2035 2543 
C 1798 2752 1523 2816 1306 2816 
C 800 2816 435 2407 435 1971 
C 435 1728 627 1728 666 1728 
C 749 1728 896 1778 896 1954 
C 896 2112 774 2181 666 2181 
C 640 2181 608 2174 589 2168 
C 723 2592 1069 2714 1293 2714 
C 1613 2714 1965 2429 1965 1885 
L 1965 1600 
C 1587 1600 1133 1549 774 1357 
C 371 1133 256 813 256 570 
C 256 77 832 -64 1171 -64 
C 1523 -64 1850 139 1990 511 
C 2003 233 2182 -18 2464 -18 
C 2598 -18 2938 70 2938 567 
L 2938 920 
L 2822 920 
L 2822 562 
C 2822 178 2650 128 2566 128 
C 2304 128 2304 458 2304 738 
L 2304 1653 
z
M 1965 870 
C 1965 317 1568 38 1216 38 
C 896 38 646 275 646 570 
C 646 761 730 1100 1101 1305 
C 1408 1478 1760 1504 1965 1504 
L 1965 870 
z
" transform="scale(0.015625)"/>
       <path id="CMR17-72" d="M 960 1497 
C 960 2112 1222 2688 1702 2688 
C 1747 2688 1792 2682 1837 2662 
C 1837 2662 1696 2617 1696 2452 
C 1696 2298 1818 2234 1914 2234 
C 1990 2234 2131 2279 2131 2458 
C 2131 2663 1926 2790 1709 2790 
C 1222 2790 1011 2317 947 2093 
L 941 2093 
L 941 2790 
L 198 2720 
L 198 2554 
C 576 2554 634 2515 634 2208 
L 634 428 
C 634 184 608 153 198 153 
L 198 -13 
C 352 0 646 0 813 0 
C 998 0 1325 0 1498 -13 
L 1498 153 
C 1037 153 960 153 960 440 
L 960 1497 
z
" transform="scale(0.015625)"/>
       <path id="CMR17-62" d="M 960 4396 
L 198 4326 
L 198 4160 
C 576 4160 634 4122 634 3817 
L 634 -13 
L 749 -13 
L 934 441 
C 1120 141 1395 -64 1766 -64 
C 2406 -64 3053 500 3053 1370 
C 3053 2188 2477 2790 1830 2790 
C 1434 2790 1152 2579 960 2330 
L 960 4396 
z
M 973 2004 
C 973 2118 973 2138 1062 2272 
C 1312 2657 1670 2688 1792 2688 
C 1984 2688 2643 2585 2643 1376 
C 2643 108 1888 38 1734 38 
C 1536 38 1248 114 1043 486 
C 973 608 973 621 973 735 
L 973 2004 
z
" transform="scale(0.015625)"/>
       <path id="CMR17-63" d="M 2234 2240 
C 2112 2240 1933 2240 1933 2017 
C 1933 1838 2080 1787 2163 1787 
C 2208 1787 2394 1807 2394 2024 
C 2394 2467 1958 2803 1466 2803 
C 787 2803 211 2178 211 1363 
C 211 516 813 -64 1466 -64 
C 2259 -64 2458 677 2458 748 
C 2458 774 2451 793 2406 793 
C 2362 793 2355 787 2330 703 
C 2163 180 1798 51 1523 51 
C 1114 51 621 427 621 1369 
C 621 2338 1094 2688 1472 2688 
C 1722 2688 2093 2573 2234 2240 
z
" transform="scale(0.015625)"/>
       <path id="CMR17-7a" d="M 2310 2605 
C 2362 2670 2362 2682 2362 2695 
C 2362 2752 2336 2752 2221 2752 
L 275 2752 
L 211 1760 
L 326 1760 
C 371 2381 442 2650 1178 2650 
L 1958 2650 
L 128 96 
C 128 0 134 0 269 0 
L 2291 0 
L 2381 1152 
L 2266 1152 
C 2214 442 2131 115 1350 115 
L 531 115 
L 2310 2605 
z
" transform="scale(0.015625)"/>
       <path id="CMR17-65" d="M 2438 1472 
C 2464 1498 2464 1511 2464 1576 
C 2464 2238 2118 2816 1389 2816 
C 710 2816 173 2169 173 1383 
C 173 551 781 -64 1459 -64 
C 2176 -64 2458 607 2458 740 
C 2458 784 2419 784 2406 784 
C 2362 784 2355 771 2330 696 
C 2189 265 1837 51 1504 51 
C 1229 51 954 203 781 480 
C 582 803 582 1176 582 1472 
L 2438 1472 
z
M 589 1568 
C 634 2505 1126 2714 1382 2714 
C 1818 2714 2112 2297 2118 1568 
L 589 1568 
z
" transform="scale(0.015625)"/>
       <path id="CMR17-74" d="M 966 2560 
L 1862 2560 
L 1862 2725 
L 966 2725 
L 966 3904 
L 851 3904 
C 838 3245 614 2668 70 2668 
L 70 2560 
L 627 2560 
L 627 771 
C 627 650 627 -64 1370 -64 
C 1747 -64 1965 306 1965 777 
L 1965 1140 
L 1850 1140 
L 1850 783 
C 1850 344 1677 51 1408 51 
C 1222 51 966 178 966 758 
L 966 2560 
z
" transform="scale(0.015625)"/>
       <path id="CMR17-6c" d="M 979 4396 
L 218 4326 
L 218 4160 
C 595 4160 653 4122 653 3817 
L 653 426 
C 653 184 627 153 218 153 
L 218 -13 
C 371 0 653 0 813 0 
C 979 0 1261 0 1414 -13 
L 1414 153 
C 1005 153 979 178 979 426 
L 979 4396 
z
" transform="scale(0.015625)"/>
      </defs>
      <use xlink:href="#CMR17-47" transform="scale(0.996264)"/>
      <use xlink:href="#CMR17-61" transform="translate(72.355346 0)scale(0.996264)"/>
      <use xlink:href="#CMR17-72" transform="translate(118.045823 0)scale(0.996264)"/>
      <use xlink:href="#CMR17-62" transform="translate(153.326591 0)scale(0.996264)"/>
      <use xlink:href="#CMR17-61" transform="translate(204.221961 0)scale(0.996264)"/>
      <use xlink:href="#CMR17-63" transform="translate(249.912438 0)scale(0.996264)"/>
      <use xlink:href="#CMR17-7a" transform="translate(290.398098 0)scale(0.996264)"/>
      <use xlink:href="#CMR17-65" transform="translate(347.488164 0)scale(0.996264)"/>
      <use xlink:href="#CMR17-74" transform="translate(387.973824 0)scale(0.996264)"/>
      <use xlink:href="#CMR17-61" transform="translate(439.858997 0)scale(0.996264)"/>
      <use xlink:href="#CMR17-6c" transform="translate(485.549475 0)scale(0.996264)"/>
      <use xlink:href="#CMMI12-3a" transform="translate(510.420533 0)scale(0.996264)"/>
     </g>
    </g>
   </g>
  </g>
 </g>
 <defs>
  <clipPath id="p0fbeb6b9e9">
   <rect x="114.954267" y="17.577748" width="725.4" height="609.84"/>
  </clipPath>
 </defs>
</svg>
