<?xml version="1.0" encoding="utf-8" standalone="no"?>
<!DOCTYPE svg PUBLIC "-//W3C//DTD SVG 1.1//EN"
  "http://www.w3.org/Graphics/SVG/1.1/DTD/svg11.dtd">
<svg xmlns:xlink="http://www.w3.org/1999/xlink" width="817.340543pt" height="692.806049pt" viewBox="0 0 817.340543 692.806049" xmlns="http://www.w3.org/2000/svg" version="1.1">
 <metadata>
  <rdf:RDF xmlns:dc="http://purl.org/dc/elements/1.1/" xmlns:cc="http://creativecommons.org/ns#" xmlns:rdf="http://www.w3.org/1999/02/22-rdf-syntax-ns#">
   <cc:Work>
    <dc:type rdf:resource="http://purl.org/dc/dcmitype/StillImage"/>
    <dc:date>2025-03-03T10:02:09.457335</dc:date>
    <dc:format>image/svg+xml</dc:format>
    <dc:creator>
     <cc:Agent>
      <dc:title>Matplotlib v3.5.3, https://matplotlib.org/</dc:title>
     </cc:Agent>
    </dc:creator>
   </cc:Work>
  </rdf:RDF>
 </metadata>
 <defs>
  <style type="text/css">*{stroke-linejoin: round; stroke-linecap: butt}</style>
 </defs>
 <g id="figure_1">
  <g id="patch_1">
   <path d="M 0 692.806049 
L 817.340543 692.806049 
L 817.340543 0 
L 0 0 
z
" style="fill: #ffffff"/>
  </g>
  <g id="axes_1">
   <g id="patch_2">
    <path d="M 84.740543 617.04 
L 810.140543 617.04 
L 810.140543 7.2 
L 84.740543 7.2 
z
" style="fill: #ffffff"/>
   </g>
   <g id="PolyCollection_1">
    <path d="M 98.173876 44.703285 
L 98.173876 27.519824 
L 116.431039 27.519824 
L 129.758886 27.519824 
L 139.488459 27.519824 
L 146.591443 27.519824 
L 151.777195 27.519824 
L 155.563586 27.519824 
L 158.328706 27.519824 
L 160.348615 27.519824 
L 161.824883 27.519824 
L 163.003614 27.519824 
L 164.172078 27.519824 
L 165.340543 27.519824 
L 166.538108 27.519824 
L 167.735674 27.519824 
L 168.93324 27.519824 
L 170.130806 27.519824 
L 171.328372 27.519824 
L 172.525938 27.519824 
L 173.723503 27.519824 
L 174.921069 27.519824 
L 176.118635 27.519824 
L 177.316201 27.519824 
L 178.513767 27.519824 
L 179.711333 27.519824 
L 180.908899 27.519824 
L 182.106464 27.519824 
L 183.30403 27.519824 
L 184.501596 27.519824 
L 185.699162 27.519824 
L 186.896728 27.519824 
L 188.094294 27.519824 
L 189.29186 27.519824 
L 190.489425 27.519824 
L 191.686991 27.519824 
L 192.884557 27.519824 
L 194.082123 27.519824 
L 195.279689 27.519824 
L 196.477255 27.519824 
L 197.67482 27.519824 
L 198.872386 27.519824 
L 200.069952 27.519824 
L 201.267518 27.519824 
L 202.465084 27.519824 
L 203.66265 27.519824 
L 204.860216 27.519824 
L 206.057781 27.519824 
L 207.255348 27.519824 
L 208.483084 27.519824 
L 209.754687 27.519824 
L 211.072047 27.519824 
L 212.437687 27.519824 
L 213.854188 27.519824 
L 215.323037 27.519824 
L 216.846002 27.519824 
L 218.425143 27.519824 
L 220.062728 27.519824 
L 221.760188 27.519824 
L 223.519294 27.519824 
L 225.342524 27.519824 
L 227.233206 27.519824 
L 229.195102 27.519824 
L 231.22732 27.519824 
L 233.334433 27.519824 
L 235.520279 27.519824 
L 237.784986 27.519824 
L 240.13438 27.519824 
L 242.569764 27.519824 
L 245.094029 27.519824 
L 247.712249 27.519824 
L 250.426736 27.519824 
L 253.240878 27.519824 
L 256.158537 27.519824 
L 259.183659 27.519824 
L 262.320153 27.519824 
L 265.571987 27.519824 
L 268.943457 27.519824 
L 272.439589 27.519824 
L 276.064277 27.519824 
L 279.822265 27.519824 
L 283.718869 27.519824 
L 287.759142 27.519824 
L 291.947918 27.519824 
L 296.29096 27.519824 
L 300.794123 27.519824 
L 305.463282 27.519824 
L 310.304339 27.519824 
L 315.29816 27.519824 
L 320.435983 27.519824 
L 325.762941 27.519824 
L 331.286498 27.519824 
L 337.013522 27.519824 
L 342.951641 27.519824 
L 349.108683 27.519824 
L 355.492614 27.519824 
L 362.111889 27.519824 
L 368.97529 27.519824 
L 376.091697 27.519824 
L 383.470397 27.519824 
L 391.12112 27.519824 
L 398.673979 27.519824 
L 404.310899 27.519824 
L 408.325155 27.519824 
L 411.18435 27.519824 
L 413.221285 27.519824 
L 414.672799 27.519824 
L 415.813566 27.519824 
L 416.9446 27.519824 
L 418.075635 27.519824 
L 419.206669 27.519824 
L 420.337704 27.519824 
L 421.468738 27.519824 
L 422.599772 27.519824 
L 423.730807 27.519824 
L 424.861841 27.532497 
L 425.686637 27.716188 
L 426.511432 27.864282 
L 427.336227 28.362946 
L 428.161023 29.003368 
L 428.985818 29.992562 
L 429.810613 30.926636 
L 430.635409 31.724544 
L 431.460204 32.560936 
L 432.284999 33.239648 
L 433.109795 33.850915 
L 433.93459 34.432576 
L 434.759385 34.987034 
L 435.584181 35.529017 
L 436.408976 35.986524 
L 437.233772 36.491493 
L 438.058567 36.959864 
L 438.883362 37.435142 
L 439.708158 37.820401 
L 440.532953 38.237199 
L 441.357748 38.63031 
L 442.182544 39.041557 
L 443.007339 39.442827 
L 443.832134 39.843592 
L 444.65693 40.221786 
L 445.481725 40.601455 
L 446.30652 40.908014 
L 447.131316 41.19867 
L 447.956111 41.462265 
L 448.780907 41.731231 
L 449.605702 41.97582 
L 450.430497 42.199978 
L 451.255293 42.404174 
L 452.080088 42.594067 
L 452.904883 42.77015 
L 453.729679 42.934602 
L 454.554474 43.093948 
L 455.379269 43.252196 
L 456.204065 43.395273 
L 457.02886 43.518773 
L 457.853655 43.631848 
L 458.678451 43.745616 
L 459.503246 43.8596 
L 460.328042 43.972205 
L 461.152837 44.088058 
L 461.986079 44.196826 
L 462.871043 44.311173 
L 463.83368 44.431281 
L 464.871621 44.543631 
L 465.999135 44.652134 
L 467.222962 44.741837 
L 468.548834 44.841372 
L 469.987944 44.915134 
L 471.553042 44.948452 
L 473.254441 44.933423 
L 475.104338 44.894633 
L 477.116364 44.844612 
L 479.305458 44.771148 
L 481.688184 44.663622 
L 484.281608 44.537038 
L 487.10157 44.329091 
L 490.170512 44.073021 
L 493.505407 43.845628 
L 497.129228 43.655164 
L 501.060907 43.517174 
L 505.319758 43.470887 
L 509.923223 43.546212 
L 514.882622 43.717214 
L 520.200574 43.896087 
L 525.860121 44.089897 
L 531.774117 44.278981 
L 537.712644 44.453662 
L 543.651171 44.642461 
L 549.589697 44.817404 
L 555.528224 45.010394 
L 561.46675 45.289529 
L 567.405277 45.493924 
L 573.343803 45.682507 
L 579.28233 45.860626 
L 585.220857 46.016002 
L 591.159383 46.26553 
L 597.09791 46.490167 
L 603.036436 46.655529 
L 608.974963 46.651846 
L 614.913489 46.620051 
L 623.309323 46.402036 
L 631.705156 46.332105 
L 640.100989 46.243887 
L 648.496823 46.150448 
L 656.892656 46.062225 
L 665.288489 45.97137 
L 673.684323 45.896303 
L 682.080156 45.83456 
L 690.475989 45.777878 
L 698.871823 45.722482 
L 707.267656 45.668552 
L 715.663489 45.621411 
L 724.059323 45.576987 
L 732.455156 45.533333 
L 740.850989 45.497161 
L 749.246823 45.459673 
L 757.642656 45.42479 
L 766.038489 45.388035 
L 774.434323 45.35643 
L 782.830156 45.325432 
L 791.225989 45.29896 
L 799.621823 45.271678 
L 808.017656 45.247117 
L 816.413489 45.231541 
L 816.413489 66.28377 
L 816.413489 66.28377 
L 808.017656 66.281857 
L 799.621823 66.277985 
L 791.225989 66.26904 
L 782.830156 66.254537 
L 774.434323 66.236314 
L 766.038489 66.216796 
L 757.642656 66.198769 
L 749.246823 66.179766 
L 740.850989 66.160328 
L 732.455156 66.140366 
L 724.059323 66.132176 
L 715.663489 66.122718 
L 707.267656 66.110369 
L 698.871823 66.099897 
L 690.475989 66.087138 
L 682.080156 66.071908 
L 673.684323 66.067281 
L 665.288489 66.076267 
L 656.892656 66.083111 
L 648.496823 66.021259 
L 640.100989 65.971451 
L 631.705156 65.944338 
L 623.309323 65.962037 
L 614.913489 66.044019 
L 608.974963 65.987316 
L 603.036436 65.930208 
L 597.09791 65.821556 
L 591.159383 65.627318 
L 585.220857 65.383828 
L 579.28233 65.189394 
L 573.343803 64.991932 
L 567.405277 64.79556 
L 561.46675 64.587846 
L 555.528224 64.333328 
L 549.589697 64.145701 
L 543.651171 63.980409 
L 537.712644 63.819376 
L 531.774117 63.697206 
L 525.860121 63.598338 
L 520.200574 63.519654 
L 514.882622 63.463198 
L 509.923223 63.410014 
L 505.319758 63.43501 
L 501.060907 63.548347 
L 497.129228 63.732867 
L 493.505407 63.960254 
L 490.170512 64.217045 
L 487.10157 64.500999 
L 484.281608 64.730593 
L 481.688184 64.88301 
L 479.305458 65.021945 
L 477.116364 65.141814 
L 475.104338 65.249987 
L 473.254441 65.351269 
L 471.553042 65.436525 
L 469.987944 65.481656 
L 468.548834 65.491051 
L 467.222962 65.476907 
L 465.999135 65.465924 
L 464.871621 65.435273 
L 463.83368 65.39496 
L 462.871043 65.346265 
L 461.986079 65.301328 
L 461.152837 65.261237 
L 460.328042 65.213695 
L 459.503246 65.170713 
L 458.678451 65.129567 
L 457.853655 65.088118 
L 457.02886 65.04851 
L 456.204065 64.997264 
L 455.379269 64.925775 
L 454.554474 64.838892 
L 453.729679 64.747364 
L 452.904883 64.647453 
L 452.080088 64.532003 
L 451.255293 64.401098 
L 450.430497 64.255422 
L 449.605702 64.08811 
L 448.780907 63.897192 
L 447.956111 63.6811 
L 447.131316 63.472636 
L 446.30652 63.238217 
L 445.481725 62.985833 
L 444.65693 62.65868 
L 443.832134 62.331384 
L 443.007339 61.973605 
L 442.182544 61.601465 
L 441.357748 61.205036 
L 440.532953 60.812674 
L 439.708158 60.385377 
L 438.883362 59.965515 
L 438.058567 59.433672 
L 437.233772 58.892201 
L 436.408976 58.295056 
L 435.584181 57.706782 
L 434.759385 57.035356 
L 433.93459 56.334165 
L 433.109795 55.573891 
L 432.284999 54.737508 
L 431.460204 53.773726 
L 430.635409 52.624227 
L 429.810613 51.355381 
L 428.985818 49.774771 
L 428.161023 47.883961 
L 427.336227 46.32843 
L 426.511432 45.28676 
L 425.686637 44.942696 
L 424.861841 44.716522 
L 423.730807 44.703285 
L 422.599772 44.703285 
L 421.468738 44.703285 
L 420.337704 44.703285 
L 419.206669 44.703285 
L 418.075635 44.703285 
L 416.9446 44.703285 
L 415.813566 44.703285 
L 414.672799 44.703285 
L 413.221285 44.703285 
L 411.18435 44.703285 
L 408.325155 44.703285 
L 404.310899 44.703285 
L 398.673979 44.703285 
L 391.12112 44.703285 
L 383.470397 44.703285 
L 376.091697 44.703285 
L 368.97529 44.703285 
L 362.111889 44.703285 
L 355.492614 44.703285 
L 349.108683 44.703285 
L 342.951641 44.703285 
L 337.013522 44.703285 
L 331.286498 44.703285 
L 325.762941 44.703285 
L 320.435983 44.703285 
L 315.29816 44.703285 
L 310.304339 44.703285 
L 305.463282 44.703285 
L 300.794123 44.703285 
L 296.29096 44.703285 
L 291.947918 44.703285 
L 287.759142 44.703285 
L 283.718869 44.703285 
L 279.822265 44.703285 
L 276.064277 44.703285 
L 272.439589 44.703285 
L 268.943457 44.703285 
L 265.571987 44.703285 
L 262.320153 44.703285 
L 259.183659 44.703285 
L 256.158537 44.703285 
L 253.240878 44.703285 
L 250.426736 44.703285 
L 247.712249 44.703285 
L 245.094029 44.703285 
L 242.569764 44.703285 
L 240.13438 44.703285 
L 237.784986 44.703285 
L 235.520279 44.703285 
L 233.334433 44.703285 
L 231.22732 44.703285 
L 229.195102 44.703285 
L 227.233206 44.703285 
L 225.342524 44.703285 
L 223.519294 44.703285 
L 221.760188 44.703285 
L 220.062728 44.703285 
L 218.425143 44.703285 
L 216.846002 44.703285 
L 215.323037 44.703285 
L 213.854188 44.703285 
L 212.437687 44.703285 
L 211.072047 44.703285 
L 209.754687 44.703285 
L 208.483084 44.703285 
L 207.255348 44.703285 
L 206.057781 44.703285 
L 204.860216 44.703285 
L 203.66265 44.703285 
L 202.465084 44.703285 
L 201.267518 44.703285 
L 200.069952 44.703285 
L 198.872386 44.703285 
L 197.67482 44.703285 
L 196.477255 44.703285 
L 195.279689 44.703285 
L 194.082123 44.703285 
L 192.884557 44.703285 
L 191.686991 44.703285 
L 190.489425 44.703285 
L 189.29186 44.703285 
L 188.094294 44.703285 
L 186.896728 44.703285 
L 185.699162 44.703285 
L 184.501596 44.703285 
L 183.30403 44.703285 
L 182.106464 44.703285 
L 180.908899 44.703285 
L 179.711333 44.703285 
L 178.513767 44.703285 
L 177.316201 44.703285 
L 176.118635 44.703285 
L 174.921069 44.703285 
L 173.723503 44.703285 
L 172.525938 44.703285 
L 171.328372 44.703285 
L 170.130806 44.703285 
L 168.93324 44.703285 
L 167.735674 44.703285 
L 166.538108 44.703285 
L 165.340543 44.703285 
L 164.172078 44.703285 
L 163.003614 44.703285 
L 161.824883 44.703285 
L 160.348615 44.703285 
L 158.328706 44.703285 
L 155.563586 44.703285 
L 151.777195 44.703285 
L 146.591443 44.703285 
L 139.488459 44.703285 
L 129.758886 44.703285 
L 116.431039 44.703285 
L 98.173876 44.703285 
z
" clip-path="url(#p3a80954d1a)" style="fill: #008000; fill-opacity: 0.2"/>
   </g>
   <g id="PolyCollection_2">
    <path d="M 98.173876 448.770827 
L 98.173876 431.587366 
L 116.431039 431.587366 
L 129.758886 431.587366 
L 139.488459 431.587366 
L 146.591443 431.587366 
L 151.777195 431.587366 
L 155.563586 431.587366 
L 158.328706 431.587366 
L 160.348615 431.587366 
L 161.824883 431.587366 
L 163.003614 431.587366 
L 164.172078 431.587366 
L 165.340543 431.587366 
L 166.538108 431.587366 
L 167.735674 431.587366 
L 168.93324 431.587366 
L 170.130806 431.587366 
L 171.328372 431.587366 
L 172.525938 431.587366 
L 173.723503 431.587366 
L 174.921069 431.587366 
L 176.118635 431.587366 
L 177.316201 431.587366 
L 178.513767 431.587366 
L 179.711333 431.587366 
L 180.908899 431.587366 
L 182.106464 431.587366 
L 183.30403 431.587366 
L 184.501596 431.587366 
L 185.699162 431.587366 
L 186.896728 431.587366 
L 188.094294 431.587366 
L 189.29186 431.587366 
L 190.489425 431.587366 
L 191.686991 431.587366 
L 192.884557 431.587366 
L 194.082123 431.587366 
L 195.279689 431.587366 
L 196.477255 431.587366 
L 197.67482 431.587366 
L 198.872386 431.587366 
L 200.069952 431.587366 
L 201.267518 431.587366 
L 202.465084 431.587366 
L 203.66265 431.587366 
L 204.860216 431.587366 
L 206.057781 431.587366 
L 207.255348 431.587366 
L 208.483084 431.587366 
L 209.754687 431.587366 
L 211.072047 431.587366 
L 212.437687 431.587366 
L 213.854188 431.587366 
L 215.323037 431.587366 
L 216.846002 431.587366 
L 218.425143 431.587366 
L 220.062728 431.587366 
L 221.760188 431.587366 
L 223.519294 431.587366 
L 225.342524 431.587366 
L 227.233206 431.587366 
L 229.195102 431.587366 
L 231.22732 431.587366 
L 233.334433 431.587366 
L 235.520279 431.587366 
L 237.784986 431.587366 
L 240.13438 431.587366 
L 242.569764 431.587366 
L 245.094029 431.587366 
L 247.712249 431.587366 
L 250.426736 431.587366 
L 253.240878 431.587366 
L 256.158537 431.587366 
L 259.183659 431.587366 
L 262.320153 431.587366 
L 265.571987 431.587366 
L 268.943457 431.587366 
L 272.439589 431.587366 
L 276.064277 431.587366 
L 279.822265 431.587366 
L 283.718869 431.587366 
L 287.759142 431.587366 
L 291.947918 431.587366 
L 296.29096 431.587366 
L 300.794123 431.587366 
L 305.463282 431.587366 
L 310.304339 431.587366 
L 315.29816 431.587366 
L 320.435983 431.587366 
L 325.762941 431.587366 
L 331.286498 431.587366 
L 337.013522 431.587366 
L 342.951641 431.587366 
L 349.108683 431.587366 
L 355.492614 431.587366 
L 362.111889 431.587366 
L 368.97529 431.587366 
L 376.091697 431.587366 
L 383.470397 431.587366 
L 391.12112 431.587366 
L 398.673979 431.587366 
L 404.310899 431.587366 
L 408.325155 431.587366 
L 411.18435 431.587366 
L 413.221285 431.587366 
L 414.672799 431.587366 
L 415.813566 431.587366 
L 416.9446 431.587366 
L 418.075635 431.587366 
L 419.206669 431.587366 
L 420.337704 431.587366 
L 421.468738 431.587366 
L 422.599772 431.587366 
L 423.730807 431.587366 
L 424.861841 431.65013 
L 425.686637 432.447531 
L 426.511432 433.141698 
L 427.336227 434.946013 
L 428.161023 437.402415 
L 428.985818 441.942298 
L 429.810613 446.374389 
L 430.635409 450.063436 
L 431.460204 453.969085 
L 432.284999 457.084611 
L 433.109795 459.877297 
L 433.93459 462.59656 
L 434.759385 465.210665 
L 435.584181 467.794031 
L 436.408976 469.972508 
L 437.233772 472.333758 
L 438.058567 474.480322 
L 438.883362 476.698929 
L 439.708158 478.476802 
L 440.532953 480.390582 
L 441.357748 482.186271 
L 442.182544 484.044739 
L 443.007339 485.854999 
L 443.832134 487.648629 
L 444.65693 489.317661 
L 445.481725 490.988435 
L 446.30652 492.34747 
L 447.131316 493.645733 
L 447.956111 494.814577 
L 448.780907 495.98241 
L 449.605702 497.038074 
L 450.430497 498.028152 
L 451.255293 498.915074 
L 452.080088 499.737697 
L 452.904883 500.490453 
L 453.729679 501.2028 
L 454.554474 501.890166 
L 455.379269 502.573719 
L 456.204065 503.211346 
L 457.02886 503.767464 
L 457.853655 504.277438 
L 458.678451 504.803924 
L 459.503246 505.335924 
L 460.328042 505.869903 
L 461.152837 506.456273 
L 461.986079 507.02461 
L 462.871043 507.633841 
L 463.83368 508.290849 
L 464.871621 508.898317 
L 465.999135 509.510316 
L 467.222962 510.038295 
L 468.548834 510.644888 
L 469.987944 511.146305 
L 471.553042 511.476663 
L 473.254441 511.650844 
L 475.104338 511.713267 
L 477.116364 511.68939 
L 479.305458 511.505755 
L 481.688184 511.100043 
L 484.281608 510.537263 
L 487.10157 509.600829 
L 490.170512 508.363731 
L 493.505407 507.245851 
L 497.129228 506.375813 
L 501.060907 505.811566 
L 505.319758 505.62235 
L 509.923223 505.860005 
L 514.882622 506.379325 
L 520.200574 507.063554 
L 525.860121 507.921537 
L 531.774117 509.09859 
L 537.712644 510.37146 
L 543.651171 511.8026 
L 549.589697 513.271416 
L 555.528224 515.140789 
L 561.46675 517.954395 
L 567.405277 520.589163 
L 573.343803 523.12448 
L 579.28233 525.520352 
L 585.220857 527.557163 
L 591.159383 530.098926 
L 597.09791 533.100645 
L 603.036436 536.597465 
L 608.974963 539.587996 
L 614.913489 541.509747 
L 623.309323 541.928257 
L 631.705156 542.148979 
L 640.100989 542.376377 
L 648.496823 542.589018 
L 656.892656 542.792644 
L 665.288489 543.002335 
L 673.684323 543.159328 
L 682.080156 543.276932 
L 690.475989 543.382388 
L 698.871823 543.476509 
L 707.267656 543.562378 
L 715.663489 543.647996 
L 724.059323 543.733706 
L 732.455156 543.813162 
L 740.850989 543.867209 
L 749.246823 543.922821 
L 757.642656 543.969015 
L 766.038489 544.01649 
L 774.434323 544.059416 
L 782.830156 544.10465 
L 791.225989 544.14446 
L 799.621823 544.181639 
L 808.017656 544.212122 
L 816.413489 544.233835 
L 816.413489 577.637855 
L 816.413489 577.637855 
L 808.017656 577.625448 
L 799.621823 577.608313 
L 791.225989 577.591896 
L 782.830156 577.578992 
L 774.434323 577.569925 
L 766.038489 577.564102 
L 757.642656 577.557797 
L 749.246823 577.552909 
L 740.850989 577.544608 
L 732.455156 577.537565 
L 724.059323 577.502979 
L 715.663489 577.464793 
L 707.267656 577.43261 
L 698.871823 577.405571 
L 690.475989 577.375801 
L 682.080156 577.341342 
L 673.684323 577.289141 
L 665.288489 577.205 
L 656.892656 577.103072 
L 648.496823 577.082643 
L 640.100989 577.070469 
L 631.705156 577.035797 
L 623.309323 576.925997 
L 614.913489 576.814539 
L 608.974963 575.555112 
L 603.036436 573.542659 
L 597.09791 571.268517 
L 591.159383 569.531009 
L 585.220857 568.223201 
L 579.28233 567.358174 
L 573.343803 566.106325 
L 567.405277 564.723233 
L 561.46675 563.236143 
L 555.528224 561.597597 
L 549.589697 560.753042 
L 543.651171 560.1804 
L 537.712644 559.700332 
L 531.774117 559.460305 
L 525.860121 559.285225 
L 520.200574 559.206764 
L 514.882622 559.047615 
L 509.923223 558.77571 
L 505.319758 558.610841 
L 501.060907 558.69775 
L 497.129228 559.037031 
L 493.505407 559.629375 
L 490.170512 560.47089 
L 487.10157 561.472107 
L 484.281608 562.153489 
L 481.688184 562.490188 
L 479.305458 562.722488 
L 477.116364 562.815214 
L 475.104338 562.805279 
L 473.254441 562.738736 
L 471.553042 562.605278 
L 469.987944 562.370172 
L 468.548834 562.006303 
L 467.222962 561.566975 
L 465.999135 561.202156 
L 464.871621 560.774498 
L 463.83368 560.351429 
L 462.871043 559.889998 
L 461.986079 559.465605 
L 461.152837 559.084044 
L 460.328042 558.68363 
L 459.503246 558.355953 
L 458.678451 558.020495 
L 457.853655 557.683229 
L 457.02886 557.366717 
L 456.204065 557.001645 
L 455.379269 556.551912 
L 454.554474 556.049601 
L 453.729679 555.52341 
L 452.904883 554.950212 
L 452.080088 554.313847 
L 451.255293 553.632031 
L 450.430497 552.8951 
L 449.605702 552.058897 
L 448.780907 551.143951 
L 447.956111 550.125067 
L 447.131316 549.117953 
L 446.30652 547.989922 
L 445.481725 546.789706 
L 444.65693 545.265454 
L 443.832134 543.731096 
L 443.007339 542.015869 
L 442.182544 540.208443 
L 441.357748 538.268158 
L 440.532953 536.309709 
L 439.708158 534.150843 
L 438.883362 531.970165 
L 438.058567 529.177436 
L 437.233772 526.353635 
L 436.408976 523.165585 
L 435.584181 519.853837 
L 434.759385 516.044143 
L 433.93459 512.012383 
L 433.109795 507.58797 
L 432.284999 502.710459 
L 431.460204 497.114314 
L 430.635409 490.526332 
L 429.810613 483.181455 
L 428.985818 474.435243 
L 428.161023 464.576912 
L 427.336227 456.703602 
L 426.511432 451.540877 
L 425.686637 449.766246 
L 424.861841 448.830306 
L 423.730807 448.770827 
L 422.599772 448.770827 
L 421.468738 448.770827 
L 420.337704 448.770827 
L 419.206669 448.770827 
L 418.075635 448.770827 
L 416.9446 448.770827 
L 415.813566 448.770827 
L 414.672799 448.770827 
L 413.221285 448.770827 
L 411.18435 448.770827 
L 408.325155 448.770827 
L 404.310899 448.770827 
L 398.673979 448.770827 
L 391.12112 448.770827 
L 383.470397 448.770827 
L 376.091697 448.770827 
L 368.97529 448.770827 
L 362.111889 448.770827 
L 355.492614 448.770827 
L 349.108683 448.770827 
L 342.951641 448.770827 
L 337.013522 448.770827 
L 331.286498 448.770827 
L 325.762941 448.770827 
L 320.435983 448.770827 
L 315.29816 448.770827 
L 310.304339 448.770827 
L 305.463282 448.770827 
L 300.794123 448.770827 
L 296.29096 448.770827 
L 291.947918 448.770827 
L 287.759142 448.770827 
L 283.718869 448.770827 
L 279.822265 448.770827 
L 276.064277 448.770827 
L 272.439589 448.770827 
L 268.943457 448.770827 
L 265.571987 448.770827 
L 262.320153 448.770827 
L 259.183659 448.770827 
L 256.158537 448.770827 
L 253.240878 448.770827 
L 250.426736 448.770827 
L 247.712249 448.770827 
L 245.094029 448.770827 
L 242.569764 448.770827 
L 240.13438 448.770827 
L 237.784986 448.770827 
L 235.520279 448.770827 
L 233.334433 448.770827 
L 231.22732 448.770827 
L 229.195102 448.770827 
L 227.233206 448.770827 
L 225.342524 448.770827 
L 223.519294 448.770827 
L 221.760188 448.770827 
L 220.062728 448.770827 
L 218.425143 448.770827 
L 216.846002 448.770827 
L 215.323037 448.770827 
L 213.854188 448.770827 
L 212.437687 448.770827 
L 211.072047 448.770827 
L 209.754687 448.770827 
L 208.483084 448.770827 
L 207.255348 448.770827 
L 206.057781 448.770827 
L 204.860216 448.770827 
L 203.66265 448.770827 
L 202.465084 448.770827 
L 201.267518 448.770827 
L 200.069952 448.770827 
L 198.872386 448.770827 
L 197.67482 448.770827 
L 196.477255 448.770827 
L 195.279689 448.770827 
L 194.082123 448.770827 
L 192.884557 448.770827 
L 191.686991 448.770827 
L 190.489425 448.770827 
L 189.29186 448.770827 
L 188.094294 448.770827 
L 186.896728 448.770827 
L 185.699162 448.770827 
L 184.501596 448.770827 
L 183.30403 448.770827 
L 182.106464 448.770827 
L 180.908899 448.770827 
L 179.711333 448.770827 
L 178.513767 448.770827 
L 177.316201 448.770827 
L 176.118635 448.770827 
L 174.921069 448.770827 
L 173.723503 448.770827 
L 172.525938 448.770827 
L 171.328372 448.770827 
L 170.130806 448.770827 
L 168.93324 448.770827 
L 167.735674 448.770827 
L 166.538108 448.770827 
L 165.340543 448.770827 
L 164.172078 448.770827 
L 163.003614 448.770827 
L 161.824883 448.770827 
L 160.348615 448.770827 
L 158.328706 448.770827 
L 155.563586 448.770827 
L 151.777195 448.770827 
L 146.591443 448.770827 
L 139.488459 448.770827 
L 129.758886 448.770827 
L 116.431039 448.770827 
L 98.173876 448.770827 
z
" clip-path="url(#p3a80954d1a)" style="fill: #99ccff; fill-opacity: 0.7"/>
   </g>
   <g id="matplotlib.axis_1">
    <g id="xtick_1">
     <g id="line2d_1">
      <path d="M 165.340543 617.04 
L 165.340543 7.2 
" clip-path="url(#p3a80954d1a)" style="fill: none; stroke: #b0b0b0; stroke-width: 0.8; stroke-linecap: square"/>
     </g>
     <g id="line2d_2">
      <defs>
       <path id="m6de935a8e3" d="M 0 0 
L 0 3.5 
" style="stroke: #000000; stroke-width: 0.8"/>
      </defs>
      <g>
       <use xlink:href="#m6de935a8e3" x="165.340543" y="617.04" style="stroke: #000000; stroke-width: 0.8"/>
      </g>
     </g>
     <g id="text_1">
      <!-- $\mathdefault{0.0}$ -->
      <g transform="translate(147.568823 644.795495)scale(0.3 -0.3)">
       <defs>
        <path id="CMR17-30" d="M 2688 2025 
C 2688 2416 2682 3080 2413 3591 
C 2176 4039 1798 4198 1466 4198 
C 1158 4198 768 4058 525 3597 
C 269 3118 243 2524 243 2025 
C 243 1661 250 1106 448 619 
C 723 -39 1216 -128 1466 -128 
C 1760 -128 2208 -7 2470 600 
C 2662 1042 2688 1559 2688 2025 
z
M 1466 -26 
C 1056 -26 813 325 723 812 
C 653 1188 653 1738 653 2096 
C 653 2588 653 2997 736 3387 
C 858 3929 1216 4096 1466 4096 
C 1728 4096 2067 3923 2189 3400 
C 2272 3036 2278 2607 2278 2096 
C 2278 1680 2278 1169 2202 792 
C 2067 95 1690 -26 1466 -26 
z
" transform="scale(0.015625)"/>
        <path id="CMMI12-3a" d="M 1178 307 
C 1178 492 1024 619 870 619 
C 685 619 557 466 557 313 
C 557 128 710 0 864 0 
C 1050 0 1178 153 1178 307 
z
" transform="scale(0.015625)"/>
       </defs>
       <use xlink:href="#CMR17-30" transform="scale(0.996264)"/>
       <use xlink:href="#CMMI12-3a" transform="translate(45.690477 0)scale(0.996264)"/>
       <use xlink:href="#CMR17-30" transform="translate(72.787654 0)scale(0.996264)"/>
      </g>
     </g>
    </g>
    <g id="xtick_2">
     <g id="line2d_3">
      <path d="M 299.673876 617.04 
L 299.673876 7.2 
" clip-path="url(#p3a80954d1a)" style="fill: none; stroke: #b0b0b0; stroke-width: 0.8; stroke-linecap: square"/>
     </g>
     <g id="line2d_4">
      <g>
       <use xlink:href="#m6de935a8e3" x="299.673876" y="617.04" style="stroke: #000000; stroke-width: 0.8"/>
      </g>
     </g>
     <g id="text_2">
      <!-- $\mathdefault{0.1}$ -->
      <g transform="translate(281.902156 644.795495)scale(0.3 -0.3)">
       <defs>
        <path id="CMR17-31" d="M 1702 4058 
C 1702 4192 1696 4192 1606 4192 
C 1357 3916 979 3827 621 3827 
C 602 3827 570 3827 563 3808 
C 557 3795 557 3782 557 3648 
C 755 3648 1088 3686 1344 3839 
L 1344 461 
C 1344 236 1331 160 781 160 
L 589 160 
L 589 0 
C 896 0 1216 0 1523 0 
C 1830 0 2150 0 2458 0 
L 2458 160 
L 2266 160 
C 1715 160 1702 230 1702 458 
L 1702 4058 
z
" transform="scale(0.015625)"/>
       </defs>
       <use xlink:href="#CMR17-30" transform="scale(0.996264)"/>
       <use xlink:href="#CMMI12-3a" transform="translate(45.690477 0)scale(0.996264)"/>
       <use xlink:href="#CMR17-31" transform="translate(72.787654 0)scale(0.996264)"/>
      </g>
     </g>
    </g>
    <g id="xtick_3">
     <g id="line2d_5">
      <path d="M 434.007209 617.04 
L 434.007209 7.2 
" clip-path="url(#p3a80954d1a)" style="fill: none; stroke: #b0b0b0; stroke-width: 0.8; stroke-linecap: square"/>
     </g>
     <g id="line2d_6">
      <g>
       <use xlink:href="#m6de935a8e3" x="434.007209" y="617.04" style="stroke: #000000; stroke-width: 0.8"/>
      </g>
     </g>
     <g id="text_3">
      <!-- $\mathdefault{0.2}$ -->
      <g transform="translate(416.23549 644.795495)scale(0.3 -0.3)">
       <defs>
        <path id="CMR17-32" d="M 2669 989 
L 2554 989 
C 2490 536 2438 459 2413 420 
C 2381 369 1920 369 1830 369 
L 602 369 
C 832 619 1280 1072 1824 1597 
C 2214 1967 2669 2402 2669 3035 
C 2669 3790 2067 4224 1395 4224 
C 691 4224 262 3604 262 3030 
C 262 2780 448 2748 525 2748 
C 589 2748 781 2787 781 3010 
C 781 3207 614 3264 525 3264 
C 486 3264 448 3258 422 3245 
C 544 3790 915 4058 1306 4058 
C 1862 4058 2227 3617 2227 3035 
C 2227 2479 1901 2000 1536 1584 
L 262 146 
L 262 0 
L 2515 0 
L 2669 989 
z
" transform="scale(0.015625)"/>
       </defs>
       <use xlink:href="#CMR17-30" transform="scale(0.996264)"/>
       <use xlink:href="#CMMI12-3a" transform="translate(45.690477 0)scale(0.996264)"/>
       <use xlink:href="#CMR17-32" transform="translate(72.787654 0)scale(0.996264)"/>
      </g>
     </g>
    </g>
    <g id="xtick_4">
     <g id="line2d_7">
      <path d="M 568.340543 617.04 
L 568.340543 7.2 
" clip-path="url(#p3a80954d1a)" style="fill: none; stroke: #b0b0b0; stroke-width: 0.8; stroke-linecap: square"/>
     </g>
     <g id="line2d_8">
      <g>
       <use xlink:href="#m6de935a8e3" x="568.340543" y="617.04" style="stroke: #000000; stroke-width: 0.8"/>
      </g>
     </g>
     <g id="text_4">
      <!-- $\mathdefault{0.3}$ -->
      <g transform="translate(550.568823 644.795495)scale(0.3 -0.3)">
       <defs>
        <path id="CMR17-33" d="M 1414 2157 
C 1984 2157 2234 1662 2234 1090 
C 2234 320 1824 25 1453 25 
C 1114 25 563 194 390 693 
C 422 680 454 680 486 680 
C 640 680 755 782 755 948 
C 755 1133 614 1216 486 1216 
C 378 1216 211 1165 211 926 
C 211 335 787 -128 1466 -128 
C 2176 -128 2720 430 2720 1085 
C 2720 1707 2208 2157 1600 2227 
C 2086 2328 2554 2756 2554 3329 
C 2554 3820 2048 4179 1472 4179 
C 890 4179 378 3829 378 3329 
C 378 3110 544 3072 627 3072 
C 762 3072 877 3155 877 3321 
C 877 3486 762 3569 627 3569 
C 602 3569 570 3569 544 3557 
C 730 3959 1235 4032 1459 4032 
C 1683 4032 2106 3925 2106 3320 
C 2106 3143 2080 2828 1862 2550 
C 1670 2304 1453 2304 1242 2284 
C 1210 2284 1062 2269 1037 2269 
C 992 2263 966 2257 966 2208 
C 966 2163 973 2157 1101 2157 
L 1414 2157 
z
" transform="scale(0.015625)"/>
       </defs>
       <use xlink:href="#CMR17-30" transform="scale(0.996264)"/>
       <use xlink:href="#CMMI12-3a" transform="translate(45.690477 0)scale(0.996264)"/>
       <use xlink:href="#CMR17-33" transform="translate(72.787654 0)scale(0.996264)"/>
      </g>
     </g>
    </g>
    <g id="xtick_5">
     <g id="line2d_9">
      <path d="M 702.673876 617.04 
L 702.673876 7.2 
" clip-path="url(#p3a80954d1a)" style="fill: none; stroke: #b0b0b0; stroke-width: 0.8; stroke-linecap: square"/>
     </g>
     <g id="line2d_10">
      <g>
       <use xlink:href="#m6de935a8e3" x="702.673876" y="617.04" style="stroke: #000000; stroke-width: 0.8"/>
      </g>
     </g>
     <g id="text_5">
      <!-- $\mathdefault{0.4}$ -->
      <g transform="translate(684.902156 644.795495)scale(0.3 -0.3)">
       <defs>
        <path id="CMR17-34" d="M 2150 4122 
C 2150 4256 2144 4256 2029 4256 
L 128 1254 
L 128 1088 
L 1779 1088 
L 1779 457 
C 1779 224 1766 160 1318 160 
L 1197 160 
L 1197 0 
C 1402 0 1747 0 1965 0 
C 2182 0 2528 0 2733 0 
L 2733 160 
L 2611 160 
C 2163 160 2150 224 2150 457 
L 2150 1088 
L 2803 1088 
L 2803 1254 
L 2150 1254 
L 2150 4122 
z
M 1798 3703 
L 1798 1254 
L 256 1254 
L 1798 3703 
z
" transform="scale(0.015625)"/>
       </defs>
       <use xlink:href="#CMR17-30" transform="scale(0.996264)"/>
       <use xlink:href="#CMMI12-3a" transform="translate(45.690477 0)scale(0.996264)"/>
       <use xlink:href="#CMR17-34" transform="translate(72.787654 0)scale(0.996264)"/>
      </g>
     </g>
    </g>
    <g id="text_6">
     <!-- $x, \; \mathrm{m} $ -->
     <g transform="translate(411.787939 678.823697)scale(0.35 -0.35)">
      <defs>
       <path id="CMMI12-78" d="M 3034 2606 
C 2829 2567 2752 2414 2752 2293 
C 2752 2139 2874 2088 2963 2088 
C 3155 2088 3290 2254 3290 2427 
C 3290 2695 2982 2816 2714 2816 
C 2323 2816 2106 2433 2048 2312 
C 1901 2816 1504 2816 1389 2816 
C 736 2816 390 1980 390 1839 
C 390 1814 416 1782 461 1782 
C 512 1782 525 1820 538 1846 
C 755 2555 1184 2689 1370 2689 
C 1658 2689 1715 2420 1715 2267 
C 1715 2127 1677 1980 1600 1673 
L 1382 798 
C 1286 415 1101 64 762 64 
C 730 64 570 64 435 147 
C 666 192 717 383 717 460 
C 717 588 621 664 499 664 
C 346 664 179 530 179 326 
C 179 57 480 -64 755 -64 
C 1062 -64 1280 179 1414 441 
C 1517 64 1837 -64 2074 -64 
C 2726 -64 3072 773 3072 913 
C 3072 945 3046 971 3008 971 
C 2950 971 2944 939 2925 888 
C 2752 326 2381 64 2093 64 
C 1869 64 1747 230 1747 492 
C 1747 632 1773 734 1875 1156 
L 2099 2024 
C 2195 2408 2413 2689 2707 2689 
C 2720 2689 2899 2689 3034 2606 
z
" transform="scale(0.015625)"/>
       <path id="CMMI12-3b" d="M 1248 -31 
C 1248 343 1126 619 864 619 
C 659 619 557 453 557 313 
C 557 172 653 0 870 0 
C 954 0 1024 26 1082 83 
C 1094 96 1101 96 1107 96 
C 1120 96 1120 5 1120 -27 
C 1120 -240 1082 -659 710 -1080 
C 640 -1157 640 -1170 640 -1183 
C 640 -1216 672 -1248 704 -1248 
C 755 -1248 1248 -771 1248 -31 
z
" transform="scale(0.015625)"/>
       <path id="CMR17-6d" d="M 4326 1933 
C 4326 2252 4269 2790 3507 2790 
C 3072 2790 2771 2496 2656 2151 
L 2650 2151 
C 2573 2676 2195 2790 1837 2790 
C 1331 2790 1069 2400 973 2144 
L 966 2144 
L 966 2790 
L 211 2720 
L 211 2554 
C 589 2554 646 2515 646 2208 
L 646 428 
C 646 184 621 153 211 153 
L 211 -13 
C 365 0 646 0 813 0 
C 979 0 1267 0 1421 -13 
L 1421 153 
C 1011 153 986 178 986 428 
L 986 1658 
C 986 2247 1344 2688 1792 2688 
C 2266 2688 2317 2266 2317 1958 
L 2317 428 
C 2317 184 2291 153 1882 153 
L 1882 -13 
C 2035 0 2317 0 2483 0 
C 2650 0 2938 0 3091 -13 
L 3091 153 
C 2682 153 2656 178 2656 428 
L 2656 1658 
C 2656 2247 3014 2688 3462 2688 
C 3936 2688 3987 2266 3987 1958 
L 3987 428 
C 3987 184 3962 153 3552 153 
L 3552 -13 
C 3706 0 3987 0 4154 0 
C 4320 0 4608 0 4762 -13 
L 4762 153 
C 4352 153 4326 178 4326 428 
L 4326 1933 
z
" transform="scale(0.015625)"/>
      </defs>
      <use xlink:href="#CMMI12-78" transform="scale(0.996264)"/>
      <use xlink:href="#CMMI12-3b" transform="translate(55.43406 0)scale(0.996264)"/>
      <use xlink:href="#CMR17-6d" transform="translate(126.809651 0)scale(0.996264)"/>
     </g>
    </g>
   </g>
   <g id="matplotlib.axis_2">
    <g id="ytick_1">
     <g id="line2d_11">
      <path d="M 84.740543 598.997396 
L 810.140543 598.997396 
" clip-path="url(#p3a80954d1a)" style="fill: none; stroke: #b0b0b0; stroke-width: 0.8; stroke-linecap: square"/>
     </g>
     <g id="line2d_12">
      <defs>
       <path id="m64ff9da45d" d="M 0 0 
L -3.5 0 
" style="stroke: #000000; stroke-width: 0.8"/>
      </defs>
      <g>
       <use xlink:href="#m64ff9da45d" x="84.740543" y="598.997396" style="stroke: #000000; stroke-width: 0.8"/>
      </g>
     </g>
     <g id="text_7">
      <!-- $\mathdefault{0.0}$ -->
      <g transform="translate(42.197103 609.375144)scale(0.3 -0.3)">
       <use xlink:href="#CMR17-30" transform="scale(0.996264)"/>
       <use xlink:href="#CMMI12-3a" transform="translate(45.690477 0)scale(0.996264)"/>
       <use xlink:href="#CMR17-30" transform="translate(72.787654 0)scale(0.996264)"/>
      </g>
     </g>
    </g>
    <g id="ytick_2">
     <g id="line2d_13">
      <path d="M 84.740543 526.826982 
L 810.140543 526.826982 
" clip-path="url(#p3a80954d1a)" style="fill: none; stroke: #b0b0b0; stroke-width: 0.8; stroke-linecap: square"/>
     </g>
     <g id="line2d_14">
      <g>
       <use xlink:href="#m64ff9da45d" x="84.740543" y="526.826982" style="stroke: #000000; stroke-width: 0.8"/>
      </g>
     </g>
     <g id="text_8">
      <!-- $\mathdefault{0.1}$ -->
      <g transform="translate(42.197103 537.20473)scale(0.3 -0.3)">
       <use xlink:href="#CMR17-30" transform="scale(0.996264)"/>
       <use xlink:href="#CMMI12-3a" transform="translate(45.690477 0)scale(0.996264)"/>
       <use xlink:href="#CMR17-31" transform="translate(72.787654 0)scale(0.996264)"/>
      </g>
     </g>
    </g>
    <g id="ytick_3">
     <g id="line2d_15">
      <path d="M 84.740543 454.656568 
L 810.140543 454.656568 
" clip-path="url(#p3a80954d1a)" style="fill: none; stroke: #b0b0b0; stroke-width: 0.8; stroke-linecap: square"/>
     </g>
     <g id="line2d_16">
      <g>
       <use xlink:href="#m64ff9da45d" x="84.740543" y="454.656568" style="stroke: #000000; stroke-width: 0.8"/>
      </g>
     </g>
     <g id="text_9">
      <!-- $\mathdefault{0.2}$ -->
      <g transform="translate(42.197103 465.034316)scale(0.3 -0.3)">
       <use xlink:href="#CMR17-30" transform="scale(0.996264)"/>
       <use xlink:href="#CMMI12-3a" transform="translate(45.690477 0)scale(0.996264)"/>
       <use xlink:href="#CMR17-32" transform="translate(72.787654 0)scale(0.996264)"/>
      </g>
     </g>
    </g>
    <g id="ytick_4">
     <g id="line2d_17">
      <path d="M 84.740543 382.486154 
L 810.140543 382.486154 
" clip-path="url(#p3a80954d1a)" style="fill: none; stroke: #b0b0b0; stroke-width: 0.8; stroke-linecap: square"/>
     </g>
     <g id="line2d_18">
      <g>
       <use xlink:href="#m64ff9da45d" x="84.740543" y="382.486154" style="stroke: #000000; stroke-width: 0.8"/>
      </g>
     </g>
     <g id="text_10">
      <!-- $\mathdefault{0.3}$ -->
      <g transform="translate(42.197103 392.863901)scale(0.3 -0.3)">
       <use xlink:href="#CMR17-30" transform="scale(0.996264)"/>
       <use xlink:href="#CMMI12-3a" transform="translate(45.690477 0)scale(0.996264)"/>
       <use xlink:href="#CMR17-33" transform="translate(72.787654 0)scale(0.996264)"/>
      </g>
     </g>
    </g>
    <g id="ytick_5">
     <g id="line2d_19">
      <path d="M 84.740543 310.31574 
L 810.140543 310.31574 
" clip-path="url(#p3a80954d1a)" style="fill: none; stroke: #b0b0b0; stroke-width: 0.8; stroke-linecap: square"/>
     </g>
     <g id="line2d_20">
      <g>
       <use xlink:href="#m64ff9da45d" x="84.740543" y="310.31574" style="stroke: #000000; stroke-width: 0.8"/>
      </g>
     </g>
     <g id="text_11">
      <!-- $\mathdefault{0.4}$ -->
      <g transform="translate(42.197103 320.693487)scale(0.3 -0.3)">
       <use xlink:href="#CMR17-30" transform="scale(0.996264)"/>
       <use xlink:href="#CMMI12-3a" transform="translate(45.690477 0)scale(0.996264)"/>
       <use xlink:href="#CMR17-34" transform="translate(72.787654 0)scale(0.996264)"/>
      </g>
     </g>
    </g>
    <g id="ytick_6">
     <g id="line2d_21">
      <path d="M 84.740543 238.145325 
L 810.140543 238.145325 
" clip-path="url(#p3a80954d1a)" style="fill: none; stroke: #b0b0b0; stroke-width: 0.8; stroke-linecap: square"/>
     </g>
     <g id="line2d_22">
      <g>
       <use xlink:href="#m64ff9da45d" x="84.740543" y="238.145325" style="stroke: #000000; stroke-width: 0.8"/>
      </g>
     </g>
     <g id="text_12">
      <!-- $\mathdefault{0.5}$ -->
      <g transform="translate(42.197103 248.523073)scale(0.3 -0.3)">
       <defs>
        <path id="CMR17-35" d="M 730 3692 
C 794 3666 1056 3584 1325 3584 
C 1920 3584 2246 3911 2432 4100 
C 2432 4157 2432 4192 2394 4192 
C 2387 4192 2374 4192 2323 4163 
C 2099 4058 1837 3973 1517 3973 
C 1325 3973 1037 3999 723 4139 
C 653 4171 640 4171 634 4171 
C 602 4171 595 4164 595 4037 
L 595 2203 
C 595 2089 595 2057 659 2057 
C 691 2057 704 2070 736 2114 
C 941 2401 1222 2522 1542 2522 
C 1766 2522 2246 2382 2246 1289 
C 2246 1085 2246 715 2054 421 
C 1894 159 1645 25 1370 25 
C 947 25 518 320 403 814 
C 429 807 480 795 506 795 
C 589 795 749 840 749 1038 
C 749 1210 627 1280 506 1280 
C 358 1280 262 1190 262 1011 
C 262 454 704 -128 1382 -128 
C 2042 -128 2669 440 2669 1264 
C 2669 2030 2170 2624 1549 2624 
C 1222 2624 947 2503 730 2274 
L 730 3692 
z
" transform="scale(0.015625)"/>
       </defs>
       <use xlink:href="#CMR17-30" transform="scale(0.996264)"/>
       <use xlink:href="#CMMI12-3a" transform="translate(45.690477 0)scale(0.996264)"/>
       <use xlink:href="#CMR17-35" transform="translate(72.787654 0)scale(0.996264)"/>
      </g>
     </g>
    </g>
    <g id="ytick_7">
     <g id="line2d_23">
      <path d="M 84.740543 165.974911 
L 810.140543 165.974911 
" clip-path="url(#p3a80954d1a)" style="fill: none; stroke: #b0b0b0; stroke-width: 0.8; stroke-linecap: square"/>
     </g>
     <g id="line2d_24">
      <g>
       <use xlink:href="#m64ff9da45d" x="84.740543" y="165.974911" style="stroke: #000000; stroke-width: 0.8"/>
      </g>
     </g>
     <g id="text_13">
      <!-- $\mathdefault{0.6}$ -->
      <g transform="translate(42.197103 176.352659)scale(0.3 -0.3)">
       <defs>
        <path id="CMR17-36" d="M 678 2176 
C 678 3690 1395 4032 1811 4032 
C 1946 4032 2272 4009 2400 3776 
C 2298 3776 2106 3776 2106 3553 
C 2106 3381 2246 3323 2336 3323 
C 2394 3323 2566 3348 2566 3560 
C 2566 3954 2246 4179 1805 4179 
C 1043 4179 243 3390 243 1984 
C 243 253 966 -128 1478 -128 
C 2099 -128 2688 427 2688 1283 
C 2688 2081 2170 2662 1517 2662 
C 1126 2662 838 2407 678 1960 
L 678 2176 
z
M 1478 25 
C 691 25 691 1200 691 1436 
C 691 1896 909 2560 1504 2560 
C 1613 2560 1926 2560 2138 2120 
C 2253 1870 2253 1609 2253 1289 
C 2253 944 2253 690 2118 434 
C 1978 171 1773 25 1478 25 
z
" transform="scale(0.015625)"/>
       </defs>
       <use xlink:href="#CMR17-30" transform="scale(0.996264)"/>
       <use xlink:href="#CMMI12-3a" transform="translate(45.690477 0)scale(0.996264)"/>
       <use xlink:href="#CMR17-36" transform="translate(72.787654 0)scale(0.996264)"/>
      </g>
     </g>
    </g>
    <g id="ytick_8">
     <g id="line2d_25">
      <path d="M 84.740543 93.804497 
L 810.140543 93.804497 
" clip-path="url(#p3a80954d1a)" style="fill: none; stroke: #b0b0b0; stroke-width: 0.8; stroke-linecap: square"/>
     </g>
     <g id="line2d_26">
      <g>
       <use xlink:href="#m64ff9da45d" x="84.740543" y="93.804497" style="stroke: #000000; stroke-width: 0.8"/>
      </g>
     </g>
     <g id="text_14">
      <!-- $\mathdefault{0.7}$ -->
      <g transform="translate(42.197103 104.182245)scale(0.3 -0.3)">
       <defs>
        <path id="CMR17-37" d="M 2886 3941 
L 2886 4081 
L 1382 4081 
C 634 4081 621 4165 595 4288 
L 480 4288 
L 294 3094 
L 410 3094 
C 429 3215 474 3540 550 3661 
C 589 3712 1062 3712 1171 3712 
L 2579 3712 
L 1869 2661 
C 1395 1954 1069 999 1069 165 
C 1069 89 1069 -128 1299 -128 
C 1530 -128 1530 89 1530 171 
L 1530 465 
C 1530 1508 1709 2196 2003 2636 
L 2886 3941 
z
" transform="scale(0.015625)"/>
       </defs>
       <use xlink:href="#CMR17-30" transform="scale(0.996264)"/>
       <use xlink:href="#CMMI12-3a" transform="translate(45.690477 0)scale(0.996264)"/>
       <use xlink:href="#CMR17-37" transform="translate(72.787654 0)scale(0.996264)"/>
      </g>
     </g>
    </g>
    <g id="ytick_9">
     <g id="line2d_27">
      <path d="M 84.740543 21.634083 
L 810.140543 21.634083 
" clip-path="url(#p3a80954d1a)" style="fill: none; stroke: #b0b0b0; stroke-width: 0.8; stroke-linecap: square"/>
     </g>
     <g id="line2d_28">
      <g>
       <use xlink:href="#m64ff9da45d" x="84.740543" y="21.634083" style="stroke: #000000; stroke-width: 0.8"/>
      </g>
     </g>
     <g id="text_15">
      <!-- $\mathdefault{0.8}$ -->
      <g transform="translate(42.197103 32.01183)scale(0.3 -0.3)">
       <defs>
        <path id="CMR17-38" d="M 1741 2264 
C 2144 2467 2554 2773 2554 3263 
C 2554 3841 1990 4179 1472 4179 
C 890 4179 378 3759 378 3180 
C 378 3021 416 2747 666 2505 
C 730 2442 998 2251 1171 2130 
C 883 1983 211 1634 211 934 
C 211 279 838 -128 1459 -128 
C 2144 -128 2720 362 2720 1010 
C 2720 1590 2330 1857 2074 2029 
L 1741 2264 
z
M 902 2822 
C 851 2854 595 3051 595 3351 
C 595 3739 998 4032 1459 4032 
C 1965 4032 2336 3676 2336 3262 
C 2336 2669 1670 2331 1638 2331 
C 1632 2331 1626 2331 1574 2370 
L 902 2822 
z
M 2080 1519 
C 2176 1449 2483 1240 2483 851 
C 2483 381 2010 25 1472 25 
C 890 25 448 438 448 940 
C 448 1443 838 1862 1280 2060 
L 2080 1519 
z
" transform="scale(0.015625)"/>
       </defs>
       <use xlink:href="#CMR17-30" transform="scale(0.996264)"/>
       <use xlink:href="#CMMI12-3a" transform="translate(45.690477 0)scale(0.996264)"/>
       <use xlink:href="#CMR17-38" transform="translate(72.787654 0)scale(0.996264)"/>
      </g>
     </g>
    </g>
    <g id="text_16">
     <!-- $Y, \; - $ -->
     <g transform="translate(31.414752 349.024174)rotate(-90)scale(0.35 -0.35)">
      <defs>
       <path id="CMMI12-59" d="M 3763 3645 
L 3910 3791 
C 4192 4078 4429 4149 4653 4167 
C 4723 4173 4781 4179 4781 4288 
C 4781 4352 4717 4352 4704 4352 
C 4627 4352 4544 4352 4467 4352 
L 4205 4352 
C 4019 4352 3821 4352 3642 4352 
C 3597 4352 3526 4352 3526 4226 
C 3526 4166 3590 4160 3610 4160 
C 3802 4160 3802 4064 3802 4026 
C 3802 3956 3750 3860 3622 3713 
L 2099 1969 
L 1376 3911 
C 1338 4000 1338 4013 1338 4026 
C 1338 4160 1600 4160 1677 4160 
C 1754 4160 1824 4160 1824 4279 
C 1824 4352 1766 4352 1728 4352 
C 1619 4352 1491 4352 1382 4352 
L 672 4352 
C 557 4352 435 4352 326 4352 
C 282 4352 211 4352 211 4226 
C 211 4160 269 4160 365 4160 
C 678 4160 736 4102 794 3956 
L 1587 1835 
C 1594 1816 1613 1745 1613 1726 
C 1613 1707 1299 452 1280 388 
C 1229 217 1165 185 755 185 
C 646 185 595 185 595 64 
C 595 0 666 0 685 0 
C 800 0 934 0 1056 0 
L 1811 0 
C 1926 0 2061 0 2176 0 
C 2221 0 2298 0 2298 115 
C 2298 185 2253 185 2144 185 
C 1747 185 1747 230 1747 300 
C 1747 345 1798 548 1830 676 
L 2061 1594 
C 2099 1727 2099 1739 2157 1803 
L 3763 3645 
z
" transform="scale(0.015625)"/>
       <path id="CMSY10-0" d="M 4218 1472 
C 4326 1472 4442 1472 4442 1600 
C 4442 1728 4326 1728 4218 1728 
L 755 1728 
C 646 1728 531 1728 531 1600 
C 531 1472 646 1472 755 1472 
L 4218 1472 
z
" transform="scale(0.015625)"/>
      </defs>
      <use xlink:href="#CMMI12-59" transform="scale(0.996264)"/>
      <use xlink:href="#CMMI12-3b" transform="translate(62.018043 0)scale(0.996264)"/>
      <use xlink:href="#CMSY10-0" transform="translate(133.393634 0)scale(0.996264)"/>
     </g>
    </g>
   </g>
   <g id="line2d_29">
    <path d="M 98.173876 36.111555 
L 424.861841 36.12451 
L 426.511432 36.575521 
L 427.336227 37.345688 
L 428.161023 38.443664 
L 429.810613 41.141008 
L 431.460204 43.167331 
L 433.109795 44.712403 
L 435.584181 46.617899 
L 439.708158 49.102889 
L 443.007339 50.708216 
L 445.481725 51.793644 
L 448.780907 52.814211 
L 451.255293 53.402636 
L 454.554474 53.96642 
L 457.853655 54.359983 
L 465.999135 55.059029 
L 471.553042 55.192489 
L 479.305458 54.896547 
L 487.10157 54.415045 
L 493.505407 53.902941 
L 501.060907 53.532761 
L 505.319758 53.452948 
L 514.882622 53.590206 
L 543.651171 54.311435 
L 555.528224 54.671861 
L 567.405277 55.144742 
L 603.036436 56.292869 
L 614.913489 56.332035 
L 631.705156 56.138222 
L 749.246823 55.81972 
L 816.413489 55.757656 
L 816.413489 55.757656 
" clip-path="url(#p3a80954d1a)" style="fill: none; stroke: #008000; stroke-width: 3; stroke-linecap: square"/>
   </g>
   <g id="line2d_30">
    <path d="M 98.173876 440.179096 
L 424.861841 440.240218 
L 425.686637 441.106888 
L 426.511432 442.341287 
L 427.336227 445.824807 
L 428.161023 450.989663 
L 429.810613 464.777922 
L 431.460204 475.541699 
L 433.109795 483.732634 
L 434.759385 490.627404 
L 435.584181 493.823934 
L 438.058567 501.828879 
L 438.883362 504.334547 
L 442.182544 512.126591 
L 444.65693 517.291558 
L 445.481725 518.889071 
L 447.131316 521.381843 
L 449.605702 524.548485 
L 451.255293 526.273553 
L 452.904883 527.720333 
L 455.379269 529.562816 
L 457.02886 530.567091 
L 460.328042 532.276766 
L 463.83368 534.321139 
L 465.999135 535.356236 
L 469.987944 536.758238 
L 471.553042 537.040971 
L 475.104338 537.259273 
L 477.116364 537.252302 
L 479.305458 537.114121 
L 484.281608 536.345376 
L 487.10157 535.536468 
L 490.170512 534.41731 
L 493.505407 533.437613 
L 497.129228 532.706422 
L 501.060907 532.254658 
L 505.319758 532.116595 
L 509.923223 532.317858 
L 525.860121 533.603381 
L 537.712644 535.035896 
L 549.589697 537.012229 
L 555.528224 538.369193 
L 561.46675 540.595269 
L 573.343803 544.615402 
L 579.28233 546.439263 
L 585.220857 547.890182 
L 591.159383 549.814967 
L 597.09791 552.184581 
L 603.036436 555.070062 
L 608.974963 557.571554 
L 614.913489 559.162143 
L 631.705156 559.592388 
L 682.080156 560.309137 
L 740.850989 560.705908 
L 816.413489 560.935845 
L 816.413489 560.935845 
" clip-path="url(#p3a80954d1a)" style="fill: none; stroke: #0000ff; stroke-width: 3; stroke-linecap: square"/>
   </g>
   <g id="patch_3">
    <path d="M 84.740543 617.04 
L 84.740543 7.2 
" style="fill: none; stroke: #000000; stroke-width: 0.8; stroke-linejoin: miter; stroke-linecap: square"/>
   </g>
   <g id="patch_4">
    <path d="M 810.140543 617.04 
L 810.140543 7.2 
" style="fill: none; stroke: #000000; stroke-width: 0.8; stroke-linejoin: miter; stroke-linecap: square"/>
   </g>
   <g id="patch_5">
    <path d="M 84.740543 617.04 
L 810.140543 617.04 
" style="fill: none; stroke: #000000; stroke-width: 0.8; stroke-linejoin: miter; stroke-linecap: square"/>
   </g>
   <g id="patch_6">
    <path d="M 84.740543 7.2 
L 810.140543 7.2 
" style="fill: none; stroke: #000000; stroke-width: 0.8; stroke-linejoin: miter; stroke-linecap: square"/>
   </g>
   <g id="legend_1">
    <g id="patch_7">
     <path d="M 581.822552 422.396524 
L 785.640543 422.396524 
Q 792.640543 422.396524 792.640543 415.396524 
L 792.640543 208.843476 
Q 792.640543 201.843476 785.640543 201.843476 
L 581.822552 201.843476 
Q 574.822552 201.843476 574.822552 208.843476 
L 574.822552 415.396524 
Q 574.822552 422.396524 581.822552 422.396524 
z
" style="fill: #ffffff; stroke: #cccccc; stroke-linejoin: miter"/>
    </g>
    <g id="patch_8">
     <path d="M 588.822552 241.965124 
L 658.822552 241.965124 
L 658.822552 217.465124 
L 588.822552 217.465124 
z
" style="fill: #008000; fill-opacity: 0.2"/>
    </g>
    <g id="text_17">
     <!-- $\sigma \left[ Y_{N_2} \right]$ -->
     <g transform="translate(686.822552 241.965124)scale(0.35 -0.35)">
      <defs>
       <path id="CMMI12-1b" d="M 3251 2408 
C 3334 2408 3546 2408 3546 2612 
C 3546 2752 3424 2752 3309 2752 
L 1894 2752 
C 934 2752 243 1686 243 932 
C 243 390 595 -64 1171 -64 
C 1926 -64 2752 747 2752 1705 
C 2752 1954 2694 2196 2541 2408 
L 3251 2408 
z
M 1178 64 
C 851 64 614 313 614 754 
C 614 1137 845 2408 1786 2408 
C 2061 2408 2368 2274 2368 1781 
C 2368 1558 2266 1021 2042 652 
C 1811 275 1466 64 1178 64 
z
" transform="scale(0.015625)"/>
       <path id="CMR17-5b" d="M 1504 -1600 
L 1504 -1377 
L 902 -1377 
L 902 4544 
L 1504 4544 
L 1504 4767 
L 678 4767 
L 678 -1600 
L 1504 -1600 
z
" transform="scale(0.015625)"/>
       <path id="CMMI12-4e" d="M 4736 3698 
C 4806 3974 4909 4166 5395 4166 
C 5414 4166 5491 4166 5491 4279 
C 5491 4352 5434 4352 5408 4352 
C 5280 4352 4954 4352 4826 4352 
L 4518 4352 
C 4429 4352 4314 4352 4224 4352 
C 4186 4352 4109 4352 4109 4230 
C 4109 4166 4160 4166 4205 4166 
C 4589 4166 4614 4019 4614 3903 
C 4614 3846 4608 3826 4589 3737 
L 3866 850 
L 2496 4249 
C 2451 4352 2445 4352 2304 4352 
L 1523 4352 
C 1395 4352 1338 4352 1338 4230 
C 1338 4166 1382 4166 1504 4166 
C 1536 4166 1914 4166 1914 4115 
C 1914 4102 1901 4051 1894 4032 
L 1043 635 
C 966 320 813 186 390 186 
C 358 186 294 186 294 67 
C 294 0 358 0 378 0 
C 506 0 832 0 960 0 
L 1267 0 
C 1357 0 1466 0 1555 0 
C 1600 0 1670 0 1670 122 
C 1670 180 1606 186 1581 186 
C 1370 186 1165 224 1165 454 
C 1165 505 1178 562 1190 613 
L 2054 4032 
C 2093 3968 2093 3956 2118 3898 
L 3642 115 
C 3674 38 3686 0 3744 0 
C 3808 0 3814 19 3840 128 
L 4736 3698 
z
" transform="scale(0.015625)"/>
       <path id="CMR17-5d" d="M 915 4767 
L 90 4767 
L 90 4544 
L 691 4544 
L 691 -1377 
L 90 -1377 
L 90 -1600 
L 915 -1600 
L 915 4767 
z
" transform="scale(0.015625)"/>
      </defs>
      <use xlink:href="#CMMI12-1b" transform="scale(0.996264)"/>
      <use xlink:href="#CMR17-5b" transform="translate(75.624459 0.003177)scale(0.996264)"/>
      <use xlink:href="#CMMI12-59" transform="translate(100.495517 0)scale(0.996264)"/>
      <use xlink:href="#CMMI12-4e" transform="translate(157.094125 -14.943915)scale(0.697382)"/>
      <use xlink:href="#CMR17-32" transform="translate(211.774465 -25.404611)scale(0.498132)"/>
      <use xlink:href="#CMR17-5d" transform="translate(235.615967 0.003177)scale(0.996264)"/>
     </g>
    </g>
    <g id="line2d_31">
     <path d="M 588.822552 282.228386 
L 623.822552 282.228386 
L 658.822552 282.228386 
" style="fill: none; stroke: #008000; stroke-width: 3; stroke-linecap: square"/>
    </g>
    <g id="text_18">
     <!-- $\mu \left[ Y_{N_2} \right]$ -->
     <g transform="translate(686.822552 294.478386)scale(0.35 -0.35)">
      <defs>
       <path id="CMMI12-16" d="M 922 140 
C 1082 -6 1318 -64 1536 -64 
C 1946 -64 2227 208 2374 405 
C 2438 69 2707 -64 2931 -64 
C 3123 -64 3277 50 3392 277 
C 3494 493 3584 879 3584 903 
C 3584 935 3558 960 3520 960 
C 3462 960 3456 928 3430 834 
C 3334 461 3213 64 2950 64 
C 2765 64 2752 229 2752 358 
C 2752 504 2810 735 2854 926 
L 3034 1615 
C 3059 1737 3130 2023 3162 2139 
C 3200 2292 3270 2567 3270 2592 
C 3270 2688 3194 2752 3098 2752 
C 3040 2752 2906 2726 2854 2535 
L 2406 760 
C 2374 632 2374 619 2291 517 
C 2214 409 1965 64 1562 64 
C 1203 64 1088 326 1088 625 
C 1088 811 1146 1034 1171 1143 
L 1459 2293 
C 1491 2414 1542 2618 1542 2657 
C 1542 2759 1459 2816 1376 2816 
C 1318 2816 1178 2797 1126 2592 
L 198 -1107 
C 192 -1139 179 -1177 179 -1216 
C 179 -1312 256 -1376 352 -1376 
C 538 -1376 576 -1228 621 -1050 
L 922 140 
z
" transform="scale(0.015625)"/>
      </defs>
      <use xlink:href="#CMMI12-16" transform="scale(0.996264)"/>
      <use xlink:href="#CMR17-5b" transform="translate(75.295827 0.003177)scale(0.996264)"/>
      <use xlink:href="#CMMI12-59" transform="translate(100.166885 0)scale(0.996264)"/>
      <use xlink:href="#CMMI12-4e" transform="translate(156.765492 -14.943915)scale(0.697382)"/>
      <use xlink:href="#CMR17-32" transform="translate(211.445832 -25.404611)scale(0.498132)"/>
      <use xlink:href="#CMR17-5d" transform="translate(235.287335 0.003177)scale(0.996264)"/>
     </g>
    </g>
    <g id="patch_9">
     <path d="M 588.822552 346.991648 
L 658.822552 346.991648 
L 658.822552 322.491648 
L 588.822552 322.491648 
z
" style="fill: #99ccff; fill-opacity: 0.7"/>
    </g>
    <g id="text_19">
     <!-- $\sigma \left[ Y_{O_2} \right]$ -->
     <g transform="translate(686.822552 346.991648)scale(0.35 -0.35)">
      <defs>
       <path id="CMMI12-4f" d="M 4646 2797 
C 4646 3848 3955 4492 3059 4492 
C 1690 4492 307 3026 307 1554 
C 307 554 973 -128 1901 -128 
C 3245 -128 4646 1268 4646 2797 
z
M 1939 19 
C 1414 19 858 401 858 1395 
C 858 1974 1069 2924 1594 3562 
C 2061 4123 2598 4352 3027 4352 
C 3590 4352 4134 3944 4134 3026 
C 4134 2459 3891 1573 3462 968 
C 2995 318 2413 19 1939 19 
z
" transform="scale(0.015625)"/>
      </defs>
      <use xlink:href="#CMMI12-1b" transform="scale(0.996264)"/>
      <use xlink:href="#CMR17-5b" transform="translate(75.624459 0.003177)scale(0.996264)"/>
      <use xlink:href="#CMMI12-59" transform="translate(100.495517 0)scale(0.996264)"/>
      <use xlink:href="#CMMI12-4f" transform="translate(157.094125 -14.943915)scale(0.697382)"/>
      <use xlink:href="#CMR17-32" transform="translate(209.279366 -25.404611)scale(0.498132)"/>
      <use xlink:href="#CMR17-5d" transform="translate(233.120868 0.003177)scale(0.996264)"/>
     </g>
    </g>
    <g id="line2d_32">
     <path d="M 588.822552 387.25491 
L 623.822552 387.25491 
L 658.822552 387.25491 
" style="fill: none; stroke: #0000ff; stroke-width: 3; stroke-linecap: square"/>
    </g>
    <g id="text_20">
     <!-- $\mu \left[ Y_{O_2} \right]$ -->
     <g transform="translate(686.822552 399.50491)scale(0.35 -0.35)">
      <use xlink:href="#CMMI12-16" transform="scale(0.996264)"/>
      <use xlink:href="#CMR17-5b" transform="translate(75.295827 0.003177)scale(0.996264)"/>
      <use xlink:href="#CMMI12-59" transform="translate(100.166885 0)scale(0.996264)"/>
      <use xlink:href="#CMMI12-4f" transform="translate(156.765492 -14.943915)scale(0.697382)"/>
      <use xlink:href="#CMR17-32" transform="translate(208.950733 -25.404611)scale(0.498132)"/>
      <use xlink:href="#CMR17-5d" transform="translate(232.792236 0.003177)scale(0.996264)"/>
     </g>
    </g>
   </g>
  </g>
 </g>
 <defs>
  <clipPath id="p3a80954d1a">
   <rect x="84.740543" y="7.2" width="725.4" height="609.84"/>
  </clipPath>
 </defs>
</svg>
