<?xml version="1.0" encoding="utf-8" standalone="no"?>
<!DOCTYPE svg PUBLIC "-//W3C//DTD SVG 1.1//EN"
  "http://www.w3.org/Graphics/SVG/1.1/DTD/svg11.dtd">
<svg xmlns:xlink="http://www.w3.org/1999/xlink" width="837.978695pt" height="692.806049pt" viewBox="0 0 837.978695 692.806049" xmlns="http://www.w3.org/2000/svg" version="1.1">
 <metadata>
  <rdf:RDF xmlns:dc="http://purl.org/dc/elements/1.1/" xmlns:cc="http://creativecommons.org/ns#" xmlns:rdf="http://www.w3.org/1999/02/22-rdf-syntax-ns#">
   <cc:Work>
    <dc:type rdf:resource="http://purl.org/dc/dcmitype/StillImage"/>
    <dc:date>2025-03-26T12:44:21.073954</dc:date>
    <dc:format>image/svg+xml</dc:format>
    <dc:creator>
     <cc:Agent>
      <dc:title>Matplotlib v3.7.1, https://matplotlib.org/</dc:title>
     </cc:Agent>
    </dc:creator>
   </cc:Work>
  </rdf:RDF>
 </metadata>
 <defs>
  <style type="text/css">*{stroke-linejoin: round; stroke-linecap: butt}</style>
 </defs>
 <g id="figure_1">
  <g id="patch_1">
   <path d="M 0 692.806049 
L 837.978695 692.806049 
L 837.978695 0 
L 0 0 
z
" style="fill: #ffffff"/>
  </g>
  <g id="axes_1">
   <g id="patch_2">
    <path d="M 105.378695 617.04 
L 830.778695 617.04 
L 830.778695 7.2 
L 105.378695 7.2 
z
" style="fill: #ffffff"/>
   </g>
   <g id="PolyCollection_1">
    <path d="M 118.812028 415.499922 
L 118.812028 406.675352 
L 137.069191 406.675352 
L 150.397039 406.675352 
L 160.126611 406.675352 
L 167.229596 406.675352 
L 172.415348 406.675352 
L 176.201738 406.675352 
L 178.966859 406.675352 
L 180.986768 406.675352 
L 182.463035 406.675351 
L 183.641767 406.675017 
L 184.810231 406.674662 
L 185.978695 406.646795 
L 187.176261 406.59586 
L 188.373827 406.52138 
L 189.571393 406.423163 
L 190.768959 406.326357 
L 191.966524 406.17143 
L 193.16409 406.072804 
L 194.361656 405.948525 
L 195.559222 405.835663 
L 196.756788 405.734084 
L 197.954354 405.597474 
L 199.151919 405.441523 
L 200.349485 405.308747 
L 201.547051 405.15646 
L 202.744617 405.015807 
L 203.942183 404.866904 
L 205.139749 404.720189 
L 206.337315 404.56514 
L 207.53488 404.418387 
L 208.732446 404.268201 
L 209.930012 404.109972 
L 211.127578 403.956686 
L 212.325144 403.80468 
L 213.52271 403.650379 
L 214.720275 403.500833 
L 215.917841 403.344752 
L 217.115407 403.18359 
L 218.312973 403.031192 
L 219.510539 402.888568 
L 220.708105 402.752684 
L 221.905671 402.60223 
L 223.103236 402.455614 
L 224.300802 402.303831 
L 225.498368 402.163682 
L 226.695934 402.032957 
L 227.893501 401.907405 
L 229.121237 401.768685 
L 230.392839 401.619907 
L 231.710199 401.473027 
L 233.075839 401.318585 
L 234.492341 401.170221 
L 235.96119 401.009677 
L 237.484154 400.839298 
L 239.063296 400.669781 
L 240.700881 400.509882 
L 242.39834 400.346756 
L 244.157447 400.181275 
L 245.980677 400.005798 
L 247.871359 399.829125 
L 249.833254 399.649625 
L 251.865473 399.476184 
L 253.972586 399.285333 
L 256.158431 399.070636 
L 258.423138 398.867965 
L 260.772533 398.638306 
L 263.207917 398.397741 
L 265.732182 398.155522 
L 268.350402 397.890766 
L 271.064888 397.626604 
L 273.87903 397.361512 
L 276.79669 397.086629 
L 279.821812 396.808754 
L 282.958306 396.506646 
L 286.21014 396.218052 
L 289.58161 395.910255 
L 293.077741 395.621818 
L 296.70243 395.321865 
L 300.460418 394.986576 
L 304.357022 394.643177 
L 308.397294 394.282763 
L 312.586071 393.940356 
L 316.929112 393.575789 
L 321.432276 393.228734 
L 326.101435 392.872165 
L 330.942491 392.492659 
L 335.936313 392.091038 
L 341.074136 391.645644 
L 346.401093 391.177861 
L 351.92465 390.698549 
L 357.651675 390.288702 
L 363.589793 389.878167 
L 369.746835 389.457428 
L 376.130767 388.999854 
L 382.750041 388.525212 
L 389.613442 387.997184 
L 396.72985 387.52978 
L 404.10855 387.041184 
L 411.759273 386.535693 
L 419.312132 386.145743 
L 424.949051 385.831522 
L 428.963308 385.621125 
L 431.822502 385.486351 
L 433.859438 385.385047 
L 435.310951 385.317587 
L 436.451718 385.265134 
L 437.582753 385.21672 
L 438.713787 385.167845 
L 439.844822 385.118401 
L 440.975856 385.061673 
L 442.106891 385.013325 
L 443.237925 384.948119 
L 444.368959 384.764301 
L 445.499994 356.837214 
L 446.324789 243.433277 
L 447.149584 176.401548 
L 447.97438 122.922665 
L 448.799175 81.572381 
L 449.623971 52.767531 
L 450.448766 36.573836 
L 451.273561 26.980351 
L 452.098357 21.57281 
L 452.923152 19.515238 
L 453.747947 19.696169 
L 454.572743 20.856091 
L 455.397538 23.130921 
L 456.222333 25.807227 
L 457.047129 28.680517 
L 457.871924 33.146615 
L 458.696719 37.741294 
L 459.521515 42.237494 
L 460.34631 46.326614 
L 461.171106 50.522872 
L 461.995901 54.429549 
L 462.820696 58.35335 
L 463.645492 61.990503 
L 464.470287 65.454975 
L 465.295082 68.585975 
L 466.119878 71.531944 
L 466.944673 74.011233 
L 467.769468 76.282853 
L 468.594264 78.419818 
L 469.419059 80.553521 
L 470.243854 82.517895 
L 471.06865 84.429011 
L 471.893445 86.188991 
L 472.718241 87.858454 
L 473.543036 89.506935 
L 474.367831 91.067031 
L 475.192627 92.555871 
L 476.017422 94.013647 
L 476.842217 95.416181 
L 477.667013 96.766071 
L 478.491808 98.062467 
L 479.316603 99.471938 
L 480.141399 100.954624 
L 480.966194 102.48331 
L 481.790989 104.191768 
L 482.624231 105.997999 
L 483.509195 107.952904 
L 484.471832 110.231066 
L 485.509773 112.537862 
L 486.637288 115.144595 
L 487.861115 117.915786 
L 489.186987 121.799733 
L 490.626096 125.89247 
L 492.191194 130.333851 
L 493.892594 135.707293 
L 495.74249 141.083983 
L 497.754516 146.497872 
L 499.943611 151.51853 
L 502.326337 156.032728 
L 504.919761 159.809942 
L 507.739723 163.769957 
L 510.808665 166.139044 
L 514.14356 167.643517 
L 517.767381 168.123824 
L 521.699059 167.614463 
L 525.957911 165.584429 
L 530.561375 162.942556 
L 535.520774 160.513839 
L 540.838727 158.096448 
L 546.498274 155.778396 
L 552.41227 152.937282 
L 558.350797 150.005857 
L 564.289323 147.452855 
L 570.22785 145.32647 
L 576.166376 143.155492 
L 582.104903 140.322969 
L 588.043429 138.090692 
L 593.981956 136.413563 
L 599.920483 135.166023 
L 605.859009 134.418005 
L 611.797536 133.386077 
L 617.736062 131.949098 
L 623.674589 130.035143 
L 629.613115 127.998679 
L 635.551642 129.444152 
L 643.947475 141.509204 
L 652.343309 147.27141 
L 660.739142 151.388285 
L 669.134975 154.615764 
L 677.530809 157.492024 
L 685.926642 161.632164 
L 694.322475 164.829068 
L 702.718309 167.026477 
L 711.114142 168.771844 
L 719.509975 170.434516 
L 727.905809 172.036251 
L 736.301642 173.606467 
L 744.697475 175.332422 
L 753.093309 177.015371 
L 761.489142 177.897442 
L 769.884975 178.819733 
L 778.280809 179.689339 
L 786.676642 180.572623 
L 795.072475 181.31431 
L 803.468309 182.031666 
L 811.864142 182.70681 
L 820.259975 183.459728 
L 828.655809 184.07606 
L 837.051642 184.556787 
L 837.051642 242.798312 
L 837.051642 242.798312 
L 828.655809 242.200583 
L 820.259975 241.315981 
L 811.864142 240.277378 
L 803.468309 239.315947 
L 795.072475 238.340529 
L 786.676642 237.333867 
L 778.280809 236.20139 
L 769.884975 235.029696 
L 761.489142 233.781819 
L 753.093309 232.532508 
L 744.697475 230.494851 
L 736.301642 228.433137 
L 727.905809 226.500767 
L 719.509975 224.540587 
L 711.114142 222.451288 
L 702.718309 220.234204 
L 694.322475 217.581493 
L 685.926642 213.949405 
L 677.530809 209.343791 
L 669.134975 206.233906 
L 660.739142 202.672813 
L 652.343309 198.002324 
L 643.947475 191.350674 
L 635.551642 177.712561 
L 629.613115 175.316362 
L 623.674589 176.829683 
L 617.736062 178.649588 
L 611.797536 179.829542 
L 605.859009 180.50805 
L 599.920483 180.76702 
L 593.981956 181.556725 
L 588.043429 182.732191 
L 582.104903 184.448975 
L 576.166376 186.652004 
L 570.22785 188.197294 
L 564.289323 189.604901 
L 558.350797 191.256505 
L 552.41227 193.065588 
L 546.498274 194.528492 
L 540.838727 195.251531 
L 535.520774 196.102967 
L 530.561375 197.137612 
L 525.957911 198.513741 
L 521.699059 199.416706 
L 517.767381 199.203708 
L 514.14356 198.046474 
L 510.808665 196.261838 
L 507.739723 193.574024 
L 504.919761 189.211553 
L 502.326337 185.153729 
L 499.943611 180.423414 
L 497.754516 175.231571 
L 495.74249 169.791123 
L 493.892594 164.399183 
L 492.191194 159.214742 
L 490.626096 154.988167 
L 489.186987 151.172271 
L 487.861115 147.944325 
L 486.637288 145.50039 
L 485.509773 143.00535 
L 484.471832 140.799263 
L 483.509195 138.600095 
L 482.624231 136.706657 
L 481.790989 135.002474 
L 480.966194 133.393025 
L 480.141399 131.996239 
L 479.316603 130.671045 
L 478.491808 129.425247 
L 477.667013 128.340901 
L 476.842217 127.249115 
L 476.017422 126.107801 
L 475.192627 124.928294 
L 474.367831 123.789231 
L 473.543036 122.667769 
L 472.718241 121.633578 
L 471.893445 120.560393 
L 471.06865 119.480994 
L 470.243854 118.333475 
L 469.419059 117.219547 
L 468.594264 115.99076 
L 467.769468 114.850235 
L 466.944673 113.734685 
L 466.119878 112.66281 
L 465.295082 111.32573 
L 464.470287 110.21285 
L 463.645492 109.170604 
L 462.820696 108.398199 
L 461.995901 107.839697 
L 461.171106 107.77338 
L 460.34631 107.923071 
L 459.521515 108.563732 
L 458.696719 109.094325 
L 457.871924 110.021111 
L 457.047129 111.332148 
L 456.222333 113.07385 
L 455.397538 115.285257 
L 454.572743 118.530649 
L 453.747947 123.115608 
L 452.923152 128.840183 
L 452.098357 136.096232 
L 451.273561 146.837755 
L 450.448766 159.153262 
L 449.623971 175.92442 
L 448.799175 199.344571 
L 447.97438 228.167571 
L 447.149584 266.223077 
L 446.324789 338.489268 
L 445.499994 388.799277 
L 444.368959 401.773633 
L 443.237925 401.703885 
L 442.106891 401.724747 
L 440.975856 401.728889 
L 439.844822 401.73753 
L 438.713787 401.737798 
L 437.582753 401.735236 
L 436.451718 401.736121 
L 435.310951 401.739519 
L 433.859438 401.750128 
L 431.822502 401.774546 
L 428.963308 401.805283 
L 424.949051 401.872317 
L 419.312132 402.033049 
L 411.759273 402.268204 
L 404.10855 402.633636 
L 396.72985 402.970827 
L 389.613442 403.310985 
L 382.750041 403.690481 
L 376.130767 404.020515 
L 369.746835 404.315671 
L 363.589793 404.581942 
L 357.651675 404.833198 
L 351.92465 405.073493 
L 346.401093 405.388896 
L 341.074136 405.663718 
L 335.936313 405.926981 
L 330.942491 406.152104 
L 326.101435 406.38026 
L 321.432276 406.591326 
L 316.929112 406.792548 
L 312.586071 407.003671 
L 308.397294 407.201568 
L 304.357022 407.422861 
L 300.460418 407.631539 
L 296.70243 407.830063 
L 293.077741 408.008924 
L 289.58161 408.184134 
L 286.21014 408.379388 
L 282.958306 408.564632 
L 279.821812 408.773692 
L 276.79669 408.95759 
L 273.87903 409.13082 
L 271.064888 409.283441 
L 268.350402 409.452198 
L 265.732182 409.630699 
L 263.207917 409.785166 
L 260.772533 409.929501 
L 258.423138 410.048118 
L 256.158431 410.156023 
L 253.972586 410.280059 
L 251.865473 410.405892 
L 249.833254 410.518603 
L 247.871359 410.63767 
L 245.980677 410.74797 
L 244.157447 410.85544 
L 242.39834 410.958809 
L 240.700881 411.061983 
L 239.063296 411.159701 
L 237.484154 411.271001 
L 235.96119 411.387866 
L 234.492341 411.497725 
L 233.075839 411.595967 
L 231.710199 411.693996 
L 230.392839 411.783956 
L 229.121237 411.876472 
L 227.893501 411.970881 
L 226.695934 412.062392 
L 225.498368 412.155429 
L 224.300802 412.243859 
L 223.103236 412.341335 
L 221.905671 412.43609 
L 220.708105 412.544959 
L 219.510539 412.636211 
L 218.312973 412.732457 
L 217.115407 412.829208 
L 215.917841 412.936769 
L 214.720275 413.041125 
L 213.52271 413.149487 
L 212.325144 413.257204 
L 211.127578 413.363525 
L 209.930012 413.473729 
L 208.732446 413.585862 
L 207.53488 413.687131 
L 206.337315 413.784431 
L 205.139749 413.900339 
L 203.942183 414.010122 
L 202.744617 414.121148 
L 201.547051 414.22782 
L 200.349485 414.343533 
L 199.151919 414.441009 
L 197.954354 414.561965 
L 196.756788 414.667404 
L 195.559222 414.741505 
L 194.361656 414.828365 
L 193.16409 414.936495 
L 191.966524 415.019829 
L 190.768959 415.164478 
L 189.571393 415.25376 
L 188.373827 415.349265 
L 187.176261 415.421586 
L 185.978695 415.471709 
L 184.810231 415.499238 
L 183.641767 415.499587 
L 182.463035 415.499921 
L 180.986768 415.499922 
L 178.966859 415.499922 
L 176.201738 415.499922 
L 172.415348 415.499922 
L 167.229596 415.499922 
L 160.126611 415.499922 
L 150.397039 415.499922 
L 137.069191 415.499922 
L 118.812028 415.499922 
z
" clip-path="url(#p1b8730d898)" style="fill: #99ccff; fill-opacity: 0.7"/>
   </g>
   <g id="matplotlib.axis_1">
    <g id="xtick_1">
     <g id="line2d_1">
      <path d="M 185.978695 617.04 
L 185.978695 7.2 
" clip-path="url(#p1b8730d898)" style="fill: none; stroke: #b0b0b0; stroke-width: 0.8; stroke-linecap: square"/>
     </g>
     <g id="line2d_2">
      <defs>
       <path id="m9e941679a8" d="M 0 0 
L 0 3.5 
" style="stroke: #000000; stroke-width: 0.8"/>
      </defs>
      <g>
       <use xlink:href="#m9e941679a8" x="185.978695" y="617.04" style="stroke: #000000; stroke-width: 0.8"/>
      </g>
     </g>
     <g id="text_1">
      <!-- $\mathdefault{0.0}$ -->
      <g transform="translate(168.206975 644.795495) scale(0.3 -0.3)">
       <defs>
        <path id="CMR17-30" d="M 2688 2025 
C 2688 2416 2682 3080 2413 3591 
C 2176 4039 1798 4198 1466 4198 
C 1158 4198 768 4058 525 3597 
C 269 3118 243 2524 243 2025 
C 243 1661 250 1106 448 619 
C 723 -39 1216 -128 1466 -128 
C 1760 -128 2208 -7 2470 600 
C 2662 1042 2688 1559 2688 2025 
z
M 1466 -26 
C 1056 -26 813 325 723 812 
C 653 1188 653 1738 653 2096 
C 653 2588 653 2997 736 3387 
C 858 3929 1216 4096 1466 4096 
C 1728 4096 2067 3923 2189 3400 
C 2272 3036 2278 2607 2278 2096 
C 2278 1680 2278 1169 2202 792 
C 2067 95 1690 -26 1466 -26 
z
" transform="scale(0.015625)"/>
        <path id="CMMI12-3a" d="M 1178 307 
C 1178 492 1024 619 870 619 
C 685 619 557 466 557 313 
C 557 128 710 0 864 0 
C 1050 0 1178 153 1178 307 
z
" transform="scale(0.015625)"/>
       </defs>
       <use xlink:href="#CMR17-30" transform="scale(0.996264)"/>
       <use xlink:href="#CMMI12-3a" transform="translate(45.690477 0) scale(0.996264)"/>
       <use xlink:href="#CMR17-30" transform="translate(72.787654 0) scale(0.996264)"/>
      </g>
     </g>
    </g>
    <g id="xtick_2">
     <g id="line2d_3">
      <path d="M 320.312028 617.04 
L 320.312028 7.2 
" clip-path="url(#p1b8730d898)" style="fill: none; stroke: #b0b0b0; stroke-width: 0.8; stroke-linecap: square"/>
     </g>
     <g id="line2d_4">
      <g>
       <use xlink:href="#m9e941679a8" x="320.312028" y="617.04" style="stroke: #000000; stroke-width: 0.8"/>
      </g>
     </g>
     <g id="text_2">
      <!-- $\mathdefault{0.1}$ -->
      <g transform="translate(302.540309 644.795495) scale(0.3 -0.3)">
       <defs>
        <path id="CMR17-31" d="M 1702 4058 
C 1702 4192 1696 4192 1606 4192 
C 1357 3916 979 3827 621 3827 
C 602 3827 570 3827 563 3808 
C 557 3795 557 3782 557 3648 
C 755 3648 1088 3686 1344 3839 
L 1344 461 
C 1344 236 1331 160 781 160 
L 589 160 
L 589 0 
C 896 0 1216 0 1523 0 
C 1830 0 2150 0 2458 0 
L 2458 160 
L 2266 160 
C 1715 160 1702 230 1702 458 
L 1702 4058 
z
" transform="scale(0.015625)"/>
       </defs>
       <use xlink:href="#CMR17-30" transform="scale(0.996264)"/>
       <use xlink:href="#CMMI12-3a" transform="translate(45.690477 0) scale(0.996264)"/>
       <use xlink:href="#CMR17-31" transform="translate(72.787654 0) scale(0.996264)"/>
      </g>
     </g>
    </g>
    <g id="xtick_3">
     <g id="line2d_5">
      <path d="M 454.645362 617.04 
L 454.645362 7.2 
" clip-path="url(#p1b8730d898)" style="fill: none; stroke: #b0b0b0; stroke-width: 0.8; stroke-linecap: square"/>
     </g>
     <g id="line2d_6">
      <g>
       <use xlink:href="#m9e941679a8" x="454.645362" y="617.04" style="stroke: #000000; stroke-width: 0.8"/>
      </g>
     </g>
     <g id="text_3">
      <!-- $\mathdefault{0.2}$ -->
      <g transform="translate(436.873642 644.795495) scale(0.3 -0.3)">
       <defs>
        <path id="CMR17-32" d="M 2669 989 
L 2554 989 
C 2490 536 2438 459 2413 420 
C 2381 369 1920 369 1830 369 
L 602 369 
C 832 619 1280 1072 1824 1597 
C 2214 1967 2669 2402 2669 3035 
C 2669 3790 2067 4224 1395 4224 
C 691 4224 262 3604 262 3030 
C 262 2780 448 2748 525 2748 
C 589 2748 781 2787 781 3010 
C 781 3207 614 3264 525 3264 
C 486 3264 448 3258 422 3245 
C 544 3790 915 4058 1306 4058 
C 1862 4058 2227 3617 2227 3035 
C 2227 2479 1901 2000 1536 1584 
L 262 146 
L 262 0 
L 2515 0 
L 2669 989 
z
" transform="scale(0.015625)"/>
       </defs>
       <use xlink:href="#CMR17-30" transform="scale(0.996264)"/>
       <use xlink:href="#CMMI12-3a" transform="translate(45.690477 0) scale(0.996264)"/>
       <use xlink:href="#CMR17-32" transform="translate(72.787654 0) scale(0.996264)"/>
      </g>
     </g>
    </g>
    <g id="xtick_4">
     <g id="line2d_7">
      <path d="M 588.978695 617.04 
L 588.978695 7.2 
" clip-path="url(#p1b8730d898)" style="fill: none; stroke: #b0b0b0; stroke-width: 0.8; stroke-linecap: square"/>
     </g>
     <g id="line2d_8">
      <g>
       <use xlink:href="#m9e941679a8" x="588.978695" y="617.04" style="stroke: #000000; stroke-width: 0.8"/>
      </g>
     </g>
     <g id="text_4">
      <!-- $\mathdefault{0.3}$ -->
      <g transform="translate(571.206975 644.795495) scale(0.3 -0.3)">
       <defs>
        <path id="CMR17-33" d="M 1414 2157 
C 1984 2157 2234 1662 2234 1090 
C 2234 320 1824 25 1453 25 
C 1114 25 563 194 390 693 
C 422 680 454 680 486 680 
C 640 680 755 782 755 948 
C 755 1133 614 1216 486 1216 
C 378 1216 211 1165 211 926 
C 211 335 787 -128 1466 -128 
C 2176 -128 2720 430 2720 1085 
C 2720 1707 2208 2157 1600 2227 
C 2086 2328 2554 2756 2554 3329 
C 2554 3820 2048 4179 1472 4179 
C 890 4179 378 3829 378 3329 
C 378 3110 544 3072 627 3072 
C 762 3072 877 3155 877 3321 
C 877 3486 762 3569 627 3569 
C 602 3569 570 3569 544 3557 
C 730 3959 1235 4032 1459 4032 
C 1683 4032 2106 3925 2106 3320 
C 2106 3143 2080 2828 1862 2550 
C 1670 2304 1453 2304 1242 2284 
C 1210 2284 1062 2269 1037 2269 
C 992 2263 966 2257 966 2208 
C 966 2163 973 2157 1101 2157 
L 1414 2157 
z
" transform="scale(0.015625)"/>
       </defs>
       <use xlink:href="#CMR17-30" transform="scale(0.996264)"/>
       <use xlink:href="#CMMI12-3a" transform="translate(45.690477 0) scale(0.996264)"/>
       <use xlink:href="#CMR17-33" transform="translate(72.787654 0) scale(0.996264)"/>
      </g>
     </g>
    </g>
    <g id="xtick_5">
     <g id="line2d_9">
      <path d="M 723.312028 617.04 
L 723.312028 7.2 
" clip-path="url(#p1b8730d898)" style="fill: none; stroke: #b0b0b0; stroke-width: 0.8; stroke-linecap: square"/>
     </g>
     <g id="line2d_10">
      <g>
       <use xlink:href="#m9e941679a8" x="723.312028" y="617.04" style="stroke: #000000; stroke-width: 0.8"/>
      </g>
     </g>
     <g id="text_5">
      <!-- $\mathdefault{0.4}$ -->
      <g transform="translate(705.540309 644.795495) scale(0.3 -0.3)">
       <defs>
        <path id="CMR17-34" d="M 2150 4122 
C 2150 4256 2144 4256 2029 4256 
L 128 1254 
L 128 1088 
L 1779 1088 
L 1779 457 
C 1779 224 1766 160 1318 160 
L 1197 160 
L 1197 0 
C 1402 0 1747 0 1965 0 
C 2182 0 2528 0 2733 0 
L 2733 160 
L 2611 160 
C 2163 160 2150 224 2150 457 
L 2150 1088 
L 2803 1088 
L 2803 1254 
L 2150 1254 
L 2150 4122 
z
M 1798 3703 
L 1798 1254 
L 256 1254 
L 1798 3703 
z
" transform="scale(0.015625)"/>
       </defs>
       <use xlink:href="#CMR17-30" transform="scale(0.996264)"/>
       <use xlink:href="#CMMI12-3a" transform="translate(45.690477 0) scale(0.996264)"/>
       <use xlink:href="#CMR17-34" transform="translate(72.787654 0) scale(0.996264)"/>
      </g>
     </g>
    </g>
    <g id="text_6">
     <!-- $x, \; \mathrm{m} $ -->
     <g transform="translate(432.426092 678.823697) scale(0.35 -0.35)">
      <defs>
       <path id="CMMI12-78" d="M 3034 2606 
C 2829 2567 2752 2414 2752 2293 
C 2752 2139 2874 2088 2963 2088 
C 3155 2088 3290 2254 3290 2427 
C 3290 2695 2982 2816 2714 2816 
C 2323 2816 2106 2433 2048 2312 
C 1901 2816 1504 2816 1389 2816 
C 736 2816 390 1980 390 1839 
C 390 1814 416 1782 461 1782 
C 512 1782 525 1820 538 1846 
C 755 2555 1184 2689 1370 2689 
C 1658 2689 1715 2420 1715 2267 
C 1715 2127 1677 1980 1600 1673 
L 1382 798 
C 1286 415 1101 64 762 64 
C 730 64 570 64 435 147 
C 666 192 717 383 717 460 
C 717 588 621 664 499 664 
C 346 664 179 530 179 326 
C 179 57 480 -64 755 -64 
C 1062 -64 1280 179 1414 441 
C 1517 64 1837 -64 2074 -64 
C 2726 -64 3072 773 3072 913 
C 3072 945 3046 971 3008 971 
C 2950 971 2944 939 2925 888 
C 2752 326 2381 64 2093 64 
C 1869 64 1747 230 1747 492 
C 1747 632 1773 734 1875 1156 
L 2099 2024 
C 2195 2408 2413 2689 2707 2689 
C 2720 2689 2899 2689 3034 2606 
z
" transform="scale(0.015625)"/>
       <path id="CMMI12-3b" d="M 1248 -31 
C 1248 343 1126 619 864 619 
C 659 619 557 453 557 313 
C 557 172 653 0 870 0 
C 954 0 1024 26 1082 83 
C 1094 96 1101 96 1107 96 
C 1120 96 1120 5 1120 -27 
C 1120 -240 1082 -659 710 -1080 
C 640 -1157 640 -1170 640 -1183 
C 640 -1216 672 -1248 704 -1248 
C 755 -1248 1248 -771 1248 -31 
z
" transform="scale(0.015625)"/>
       <path id="CMR17-6d" d="M 4326 1933 
C 4326 2252 4269 2790 3507 2790 
C 3072 2790 2771 2496 2656 2151 
L 2650 2151 
C 2573 2676 2195 2790 1837 2790 
C 1331 2790 1069 2400 973 2144 
L 966 2144 
L 966 2790 
L 211 2720 
L 211 2554 
C 589 2554 646 2515 646 2208 
L 646 428 
C 646 184 621 153 211 153 
L 211 -13 
C 365 0 646 0 813 0 
C 979 0 1267 0 1421 -13 
L 1421 153 
C 1011 153 986 178 986 428 
L 986 1658 
C 986 2247 1344 2688 1792 2688 
C 2266 2688 2317 2266 2317 1958 
L 2317 428 
C 2317 184 2291 153 1882 153 
L 1882 -13 
C 2035 0 2317 0 2483 0 
C 2650 0 2938 0 3091 -13 
L 3091 153 
C 2682 153 2656 178 2656 428 
L 2656 1658 
C 2656 2247 3014 2688 3462 2688 
C 3936 2688 3987 2266 3987 1958 
L 3987 428 
C 3987 184 3962 153 3552 153 
L 3552 -13 
C 3706 0 3987 0 4154 0 
C 4320 0 4608 0 4762 -13 
L 4762 153 
C 4352 153 4326 178 4326 428 
L 4326 1933 
z
" transform="scale(0.015625)"/>
      </defs>
      <use xlink:href="#CMMI12-78" transform="scale(0.996264)"/>
      <use xlink:href="#CMMI12-3b" transform="translate(55.43406 0) scale(0.996264)"/>
      <use xlink:href="#CMR17-6d" transform="translate(126.809651 0) scale(0.996264)"/>
     </g>
    </g>
   </g>
   <g id="matplotlib.axis_2">
    <g id="ytick_1">
     <g id="line2d_11">
      <path d="M 105.378695 561.250221 
L 830.778695 561.250221 
" clip-path="url(#p1b8730d898)" style="fill: none; stroke: #b0b0b0; stroke-width: 0.8; stroke-linecap: square"/>
     </g>
     <g id="line2d_12">
      <defs>
       <path id="mbd80a68d3e" d="M 0 0 
L -3.5 0 
" style="stroke: #000000; stroke-width: 0.8"/>
      </defs>
      <g>
       <use xlink:href="#mbd80a68d3e" x="105.378695" y="561.250221" style="stroke: #000000; stroke-width: 0.8"/>
      </g>
     </g>
     <g id="text_7">
      <!-- $\mathdefault{−1}$ -->
      <g transform="translate(61.425321 571.627968) scale(0.3 -0.3)">
       <defs>
        <path id="CMSY10-0" d="M 4218 1472 
C 4326 1472 4442 1472 4442 1600 
C 4442 1728 4326 1728 4218 1728 
L 755 1728 
C 646 1728 531 1728 531 1600 
C 531 1472 646 1472 755 1472 
L 4218 1472 
z
" transform="scale(0.015625)"/>
       </defs>
       <use xlink:href="#CMSY10-0" transform="scale(0.996264)"/>
       <use xlink:href="#CMR17-31" transform="translate(77.487468 0) scale(0.996264)"/>
      </g>
     </g>
    </g>
    <g id="ytick_2">
     <g id="line2d_13">
      <path d="M 105.378695 484.298801 
L 830.778695 484.298801 
" clip-path="url(#p1b8730d898)" style="fill: none; stroke: #b0b0b0; stroke-width: 0.8; stroke-linecap: square"/>
     </g>
     <g id="line2d_14">
      <g>
       <use xlink:href="#mbd80a68d3e" x="105.378695" y="484.298801" style="stroke: #000000; stroke-width: 0.8"/>
      </g>
     </g>
     <g id="text_8">
      <!-- $\mathdefault{0}$ -->
      <g transform="translate(84.671552 494.676549) scale(0.3 -0.3)">
       <use xlink:href="#CMR17-30" transform="scale(0.996264)"/>
      </g>
     </g>
    </g>
    <g id="ytick_3">
     <g id="line2d_15">
      <path d="M 105.378695 407.347382 
L 830.778695 407.347382 
" clip-path="url(#p1b8730d898)" style="fill: none; stroke: #b0b0b0; stroke-width: 0.8; stroke-linecap: square"/>
     </g>
     <g id="line2d_16">
      <g>
       <use xlink:href="#mbd80a68d3e" x="105.378695" y="407.347382" style="stroke: #000000; stroke-width: 0.8"/>
      </g>
     </g>
     <g id="text_9">
      <!-- $\mathdefault{1}$ -->
      <g transform="translate(84.671552 417.725129) scale(0.3 -0.3)">
       <use xlink:href="#CMR17-31" transform="scale(0.996264)"/>
      </g>
     </g>
    </g>
    <g id="ytick_4">
     <g id="line2d_17">
      <path d="M 105.378695 330.395962 
L 830.778695 330.395962 
" clip-path="url(#p1b8730d898)" style="fill: none; stroke: #b0b0b0; stroke-width: 0.8; stroke-linecap: square"/>
     </g>
     <g id="line2d_18">
      <g>
       <use xlink:href="#mbd80a68d3e" x="105.378695" y="330.395962" style="stroke: #000000; stroke-width: 0.8"/>
      </g>
     </g>
     <g id="text_10">
      <!-- $\mathdefault{2}$ -->
      <g transform="translate(84.671552 340.77371) scale(0.3 -0.3)">
       <use xlink:href="#CMR17-32" transform="scale(0.996264)"/>
      </g>
     </g>
    </g>
    <g id="ytick_5">
     <g id="line2d_19">
      <path d="M 105.378695 253.444543 
L 830.778695 253.444543 
" clip-path="url(#p1b8730d898)" style="fill: none; stroke: #b0b0b0; stroke-width: 0.8; stroke-linecap: square"/>
     </g>
     <g id="line2d_20">
      <g>
       <use xlink:href="#mbd80a68d3e" x="105.378695" y="253.444543" style="stroke: #000000; stroke-width: 0.8"/>
      </g>
     </g>
     <g id="text_11">
      <!-- $\mathdefault{3}$ -->
      <g transform="translate(84.671552 263.82229) scale(0.3 -0.3)">
       <use xlink:href="#CMR17-33" transform="scale(0.996264)"/>
      </g>
     </g>
    </g>
    <g id="ytick_6">
     <g id="line2d_21">
      <path d="M 105.378695 176.493123 
L 830.778695 176.493123 
" clip-path="url(#p1b8730d898)" style="fill: none; stroke: #b0b0b0; stroke-width: 0.8; stroke-linecap: square"/>
     </g>
     <g id="line2d_22">
      <g>
       <use xlink:href="#mbd80a68d3e" x="105.378695" y="176.493123" style="stroke: #000000; stroke-width: 0.8"/>
      </g>
     </g>
     <g id="text_12">
      <!-- $\mathdefault{4}$ -->
      <g transform="translate(84.671552 186.870871) scale(0.3 -0.3)">
       <use xlink:href="#CMR17-34" transform="scale(0.996264)"/>
      </g>
     </g>
    </g>
    <g id="ytick_7">
     <g id="line2d_23">
      <path d="M 105.378695 99.541703 
L 830.778695 99.541703 
" clip-path="url(#p1b8730d898)" style="fill: none; stroke: #b0b0b0; stroke-width: 0.8; stroke-linecap: square"/>
     </g>
     <g id="line2d_24">
      <g>
       <use xlink:href="#mbd80a68d3e" x="105.378695" y="99.541703" style="stroke: #000000; stroke-width: 0.8"/>
      </g>
     </g>
     <g id="text_13">
      <!-- $\mathdefault{5}$ -->
      <g transform="translate(84.671552 109.919451) scale(0.3 -0.3)">
       <defs>
        <path id="CMR17-35" d="M 730 3692 
C 794 3666 1056 3584 1325 3584 
C 1920 3584 2246 3911 2432 4100 
C 2432 4157 2432 4192 2394 4192 
C 2387 4192 2374 4192 2323 4163 
C 2099 4058 1837 3973 1517 3973 
C 1325 3973 1037 3999 723 4139 
C 653 4171 640 4171 634 4171 
C 602 4171 595 4164 595 4037 
L 595 2203 
C 595 2089 595 2057 659 2057 
C 691 2057 704 2070 736 2114 
C 941 2401 1222 2522 1542 2522 
C 1766 2522 2246 2382 2246 1289 
C 2246 1085 2246 715 2054 421 
C 1894 159 1645 25 1370 25 
C 947 25 518 320 403 814 
C 429 807 480 795 506 795 
C 589 795 749 840 749 1038 
C 749 1210 627 1280 506 1280 
C 358 1280 262 1190 262 1011 
C 262 454 704 -128 1382 -128 
C 2042 -128 2669 440 2669 1264 
C 2669 2030 2170 2624 1549 2624 
C 1222 2624 947 2503 730 2274 
L 730 3692 
z
" transform="scale(0.015625)"/>
       </defs>
       <use xlink:href="#CMR17-35" transform="scale(0.996264)"/>
      </g>
     </g>
    </g>
    <g id="ytick_8">
     <g id="line2d_25">
      <path d="M 105.378695 22.590284 
L 830.778695 22.590284 
" clip-path="url(#p1b8730d898)" style="fill: none; stroke: #b0b0b0; stroke-width: 0.8; stroke-linecap: square"/>
     </g>
     <g id="line2d_26">
      <g>
       <use xlink:href="#mbd80a68d3e" x="105.378695" y="22.590284" style="stroke: #000000; stroke-width: 0.8"/>
      </g>
     </g>
     <g id="text_14">
      <!-- $\mathdefault{6}$ -->
      <g transform="translate(84.671552 32.968031) scale(0.3 -0.3)">
       <defs>
        <path id="CMR17-36" d="M 678 2176 
C 678 3690 1395 4032 1811 4032 
C 1946 4032 2272 4009 2400 3776 
C 2298 3776 2106 3776 2106 3553 
C 2106 3381 2246 3323 2336 3323 
C 2394 3323 2566 3348 2566 3560 
C 2566 3954 2246 4179 1805 4179 
C 1043 4179 243 3390 243 1984 
C 243 253 966 -128 1478 -128 
C 2099 -128 2688 427 2688 1283 
C 2688 2081 2170 2662 1517 2662 
C 1126 2662 838 2407 678 1960 
L 678 2176 
z
M 1478 25 
C 691 25 691 1200 691 1436 
C 691 1896 909 2560 1504 2560 
C 1613 2560 1926 2560 2138 2120 
C 2253 1870 2253 1609 2253 1289 
C 2253 944 2253 690 2118 434 
C 1978 171 1773 25 1478 25 
z
" transform="scale(0.015625)"/>
       </defs>
       <use xlink:href="#CMR17-36" transform="scale(0.996264)"/>
      </g>
     </g>
    </g>
    <g id="text_15">
     <!-- $\frac{T_{ve}}{T_{ve,\infty}}$ -->
     <g transform="translate(38.349699 338.856674) rotate(-90) scale(0.35 -0.35)">
      <defs>
       <path id="CMMI12-54" d="M 2669 3910 
C 2707 4064 2720 4121 2816 4147 
C 2867 4160 3078 4160 3213 4160 
C 3853 4160 4154 4134 4154 3634 
C 4154 3537 4128 3295 4090 3057 
L 4083 2980 
C 4083 2954 4109 2916 4147 2916 
C 4211 2916 4211 2948 4230 3050 
L 4416 4184 
C 4429 4243 4429 4256 4429 4275 
C 4429 4345 4390 4345 4262 4345 
L 762 4345 
C 614 4345 608 4339 570 4224 
L 179 3070 
C 173 3056 154 2986 154 2980 
C 154 2948 179 2916 218 2916 
C 269 2916 282 2941 307 3024 
C 576 3801 710 4160 1562 4160 
L 1990 4160 
C 2144 4160 2208 4160 2208 4089 
C 2208 4069 2208 4057 2176 3941 
L 1318 499 
C 1254 249 1242 185 563 185 
C 403 185 358 185 358 64 
C 358 0 429 0 461 0 
C 621 0 787 0 947 0 
L 1946 0 
C 2106 0 2278 0 2438 0 
C 2509 0 2573 0 2573 121 
C 2573 185 2528 185 2362 185 
C 1786 185 1786 243 1786 339 
C 1786 346 1786 391 1811 494 
L 2669 3910 
z
" transform="scale(0.015625)"/>
       <path id="CMMI12-76" d="M 2925 2389 
C 2925 2791 2720 2816 2669 2816 
C 2515 2816 2374 2663 2374 2535 
C 2374 2459 2419 2414 2445 2389 
C 2509 2331 2675 2159 2675 1827 
C 2675 1558 2291 64 1523 64 
C 1133 64 1056 390 1056 626 
C 1056 945 1203 1392 1376 1852 
C 1478 2114 1504 2178 1504 2305 
C 1504 2574 1312 2816 998 2816 
C 410 2816 173 1890 173 1839 
C 173 1814 198 1782 243 1782 
C 301 1782 307 1807 333 1897 
C 486 2446 736 2689 979 2689 
C 1037 2689 1146 2689 1146 2478 
C 1146 2312 1075 2127 979 1884 
C 672 1067 672 869 672 715 
C 672 575 691 313 890 134 
C 1120 -64 1440 -64 1498 -64 
C 2560 -64 2925 2024 2925 2389 
z
" transform="scale(0.015625)"/>
       <path id="CMMI12-65" d="M 1146 1479 
C 1318 1479 1754 1479 2061 1595 
C 2547 1783 2592 2158 2592 2274 
C 2592 2558 2349 2816 1926 2816 
C 1254 2816 288 2210 288 1073 
C 288 402 672 -64 1254 -64 
C 2125 -64 2675 609 2675 692 
C 2675 730 2637 762 2611 762 
C 2592 762 2586 756 2528 699 
C 2118 159 1510 64 1267 64 
C 902 64 710 350 710 822 
C 710 911 710 1071 806 1479 
L 1146 1479 
z
M 838 1600 
C 1114 2592 1722 2689 1926 2689 
C 2208 2689 2400 2522 2400 2277 
C 2400 1600 1376 1600 1107 1600 
L 838 1600 
z
" transform="scale(0.015625)"/>
       <path id="CMSY10-31" d="M 3251 1730 
C 2906 2166 2829 2262 2630 2422 
C 2272 2710 1914 2825 1587 2825 
C 838 2825 352 2122 352 1374 
C 352 639 826 -70 1562 -70 
C 2298 -70 2829 511 3142 1022 
C 3488 588 3565 492 3763 332 
C 4122 45 4480 -70 4806 -70 
C 5555 -70 6042 633 6042 1380 
C 6042 2115 5568 2825 4832 2825 
C 4096 2825 3565 2242 3251 1730 
z
M 3418 1514 
C 3680 1975 4154 2620 4877 2620 
C 5555 2620 5901 1955 5901 1380 
C 5901 753 5472 236 4909 236 
C 4538 236 4250 505 4115 638 
C 3955 811 3808 1009 3418 1514 
z
M 2976 1240 
C 2714 780 2240 134 1517 134 
C 838 134 493 799 493 1374 
C 493 2000 922 2518 1485 2518 
C 1856 2518 2144 2249 2278 2115 
C 2438 1943 2586 1744 2976 1240 
z
" transform="scale(0.015625)"/>
      </defs>
      <use xlink:href="#CMMI12-54" transform="translate(31.680971 41.344728) scale(0.697382)"/>
      <use xlink:href="#CMMI12-76" transform="translate(71.703326 30.884032) scale(0.498132)"/>
      <use xlink:href="#CMMI12-65" transform="translate(97.070905 30.884032) scale(0.498132)"/>
      <use xlink:href="#CMMI12-54" transform="translate(0 -34.355253) scale(0.697382)"/>
      <use xlink:href="#CMMI12-76" transform="translate(40.022356 -44.815949) scale(0.498132)"/>
      <use xlink:href="#CMMI12-65" transform="translate(65.389935 -44.815949) scale(0.498132)"/>
      <use xlink:href="#CMMI12-3b" transform="translate(87.995928 -44.815949) scale(0.498132)"/>
      <use xlink:href="#CMSY10-31" transform="translate(101.544516 -44.815949) scale(0.498132)"/>
      <path d="M 0 22.914133 
L 151.855986 22.914133 
L 151.855986 26.899083 
L 0 26.899083 
L 0 22.914133 
z
"/>
     </g>
    </g>
   </g>
   <g id="line2d_27">
    <path d="M 118.812028 411.087637 
L 187.176261 411.008723 
L 190.768959 410.745417 
L 194.361656 410.388445 
L 201.547051 409.69214 
L 239.063296 405.914741 
L 289.58161 402.047194 
L 363.589793 397.230055 
L 382.750041 396.107846 
L 396.72985 395.250304 
L 419.312132 394.089396 
L 433.859438 393.567588 
L 444.368959 393.268967 
L 445.499994 372.818246 
L 446.324789 290.961273 
L 447.149584 221.312313 
L 447.97438 175.545118 
L 448.799175 140.458476 
L 449.623971 114.345975 
L 450.448766 97.863549 
L 451.273561 86.909053 
L 452.098357 78.834521 
L 452.923152 74.17771 
L 453.747947 71.405888 
L 454.572743 69.69337 
L 455.397538 69.208089 
L 456.222333 69.440539 
L 457.047129 70.006333 
L 457.871924 71.583863 
L 461.171106 79.148126 
L 462.820696 83.375775 
L 466.119878 92.097377 
L 468.594264 97.205289 
L 470.243854 100.425685 
L 471.893445 103.374692 
L 476.017422 110.060724 
L 480.141399 116.475432 
L 481.790989 119.597121 
L 483.509195 123.276499 
L 486.637288 130.322493 
L 487.861115 132.930056 
L 492.191194 144.774297 
L 495.74249 155.437553 
L 497.754516 160.864722 
L 499.943611 165.970972 
L 502.326337 170.593229 
L 507.739723 178.671991 
L 510.808665 181.200441 
L 514.14356 182.844996 
L 517.767381 183.663766 
L 521.699059 183.515584 
L 525.957911 182.049085 
L 530.561375 180.040084 
L 535.520774 178.308403 
L 540.838727 176.673989 
L 546.498274 175.153444 
L 552.41227 173.001435 
L 558.350797 170.631181 
L 564.289323 168.528878 
L 576.166376 164.903748 
L 582.104903 162.385972 
L 588.043429 160.411441 
L 593.981956 158.985144 
L 599.920483 157.966521 
L 605.859009 157.463028 
L 611.797536 156.60781 
L 617.736062 155.299343 
L 629.613115 151.65752 
L 635.551642 153.578357 
L 643.947475 166.429939 
L 652.343309 172.636867 
L 660.739142 177.030549 
L 669.134975 180.424835 
L 677.530809 183.417907 
L 685.926642 187.790785 
L 694.322475 191.20528 
L 702.718309 193.630341 
L 719.509975 197.487552 
L 744.697475 202.913636 
L 753.093309 204.773939 
L 786.676642 208.953245 
L 820.259975 212.387855 
L 828.655809 213.138322 
L 837.051642 213.677549 
L 837.051642 213.677549 
" clip-path="url(#p1b8730d898)" style="fill: none; stroke: #ff0000; stroke-width: 3; stroke-linecap: square"/>
   </g>
   <g id="patch_3">
    <path d="M 105.378695 617.04 
L 105.378695 7.2 
" style="fill: none; stroke: #000000; stroke-width: 0.8; stroke-linejoin: miter; stroke-linecap: square"/>
   </g>
   <g id="patch_4">
    <path d="M 830.778695 617.04 
L 830.778695 7.2 
" style="fill: none; stroke: #000000; stroke-width: 0.8; stroke-linejoin: miter; stroke-linecap: square"/>
   </g>
   <g id="patch_5">
    <path d="M 105.378695 617.04 
L 830.778695 617.04 
" style="fill: none; stroke: #000000; stroke-width: 0.8; stroke-linejoin: miter; stroke-linecap: square"/>
   </g>
   <g id="patch_6">
    <path d="M 105.378695 7.2 
L 830.778695 7.2 
" style="fill: none; stroke: #000000; stroke-width: 0.8; stroke-linejoin: miter; stroke-linecap: square"/>
   </g>
   <g id="legend_1">
    <g id="patch_7">
     <path d="M 611.712768 132.764702 
L 806.278695 132.764702 
Q 813.278695 132.764702 813.278695 125.764702 
L 813.278695 31.7 
Q 813.278695 24.7 806.278695 24.7 
L 611.712768 24.7 
Q 604.712768 24.7 604.712768 31.7 
L 604.712768 125.764702 
Q 604.712768 132.764702 611.712768 132.764702 
z
" style="fill: #ffffff; stroke: #cccccc; stroke-linejoin: miter"/>
    </g>
    <g id="patch_8">
     <path d="M 618.712768 63.2 
L 688.712768 63.2 
L 688.712768 38.7 
L 618.712768 38.7 
z
" style="fill: #99ccff; fill-opacity: 0.7"/>
    </g>
    <g id="text_16">
     <!-- $\mu \pm \sigma$ -->
     <g transform="translate(716.712768 63.2) scale(0.35 -0.35)">
      <defs>
       <path id="CMMI12-16" d="M 922 140 
C 1082 -6 1318 -64 1536 -64 
C 1946 -64 2227 208 2374 405 
C 2438 69 2707 -64 2931 -64 
C 3123 -64 3277 50 3392 277 
C 3494 493 3584 879 3584 903 
C 3584 935 3558 960 3520 960 
C 3462 960 3456 928 3430 834 
C 3334 461 3213 64 2950 64 
C 2765 64 2752 229 2752 358 
C 2752 504 2810 735 2854 926 
L 3034 1615 
C 3059 1737 3130 2023 3162 2139 
C 3200 2292 3270 2567 3270 2592 
C 3270 2688 3194 2752 3098 2752 
C 3040 2752 2906 2726 2854 2535 
L 2406 760 
C 2374 632 2374 619 2291 517 
C 2214 409 1965 64 1562 64 
C 1203 64 1088 326 1088 625 
C 1088 811 1146 1034 1171 1143 
L 1459 2293 
C 1491 2414 1542 2618 1542 2657 
C 1542 2759 1459 2816 1376 2816 
C 1318 2816 1178 2797 1126 2592 
L 198 -1107 
C 192 -1139 179 -1177 179 -1216 
C 179 -1312 256 -1376 352 -1376 
C 538 -1376 576 -1228 621 -1050 
L 922 140 
z
" transform="scale(0.015625)"/>
       <path id="CMSY10-6" d="M 2618 1984 
L 4397 1984 
C 4506 1984 4621 1984 4621 2112 
C 4621 2240 4506 2240 4397 2240 
L 2618 2240 
L 2618 4018 
C 2618 4121 2618 4256 2490 4256 
C 2362 4256 2362 4140 2362 4038 
L 2362 2240 
L 576 2240 
C 467 2240 352 2240 352 2112 
C 352 1984 467 1984 576 1984 
L 2362 1984 
L 2362 256 
L 576 256 
C 467 256 352 256 352 128 
C 352 0 467 0 576 0 
L 4397 0 
C 4506 0 4621 0 4621 128 
C 4621 256 4506 256 4397 256 
L 2618 256 
L 2618 1984 
z
" transform="scale(0.015625)"/>
       <path id="CMMI12-1b" d="M 3251 2408 
C 3334 2408 3546 2408 3546 2612 
C 3546 2752 3424 2752 3309 2752 
L 1894 2752 
C 934 2752 243 1686 243 932 
C 243 390 595 -64 1171 -64 
C 1926 -64 2752 747 2752 1705 
C 2752 1954 2694 2196 2541 2408 
L 3251 2408 
z
M 1178 64 
C 851 64 614 313 614 754 
C 614 1137 845 2408 1786 2408 
C 2061 2408 2368 2274 2368 1781 
C 2368 1558 2266 1021 2042 652 
C 1811 275 1466 64 1178 64 
z
" transform="scale(0.015625)"/>
      </defs>
      <use xlink:href="#CMMI12-16" transform="scale(0.996264)"/>
      <use xlink:href="#CMSY10-6" transform="translate(80.830628 0) scale(0.996264)"/>
      <use xlink:href="#CMMI12-1b" transform="translate(180.457303 0) scale(0.996264)"/>
     </g>
    </g>
    <g id="line2d_28">
     <path d="M 618.712768 99.732351 
L 653.712768 99.732351 
L 688.712768 99.732351 
" style="fill: none; stroke: #ff0000; stroke-width: 3; stroke-linecap: square"/>
    </g>
    <g id="text_17">
     <!-- $\mu$ -->
     <g transform="translate(716.712768 111.982351) scale(0.35 -0.35)">
      <use xlink:href="#CMMI12-16" transform="scale(0.996264)"/>
     </g>
    </g>
   </g>
  </g>
 </g>
 <defs>
  <clipPath id="p1b8730d898">
   <rect x="105.378695" y="7.2" width="725.4" height="609.84"/>
  </clipPath>
 </defs>
</svg>
