<?xml version="1.0" encoding="utf-8" standalone="no"?>
<!DOCTYPE svg PUBLIC "-//W3C//DTD SVG 1.1//EN"
  "http://www.w3.org/Graphics/SVG/1.1/DTD/svg11.dtd">
<svg xmlns:xlink="http://www.w3.org/1999/xlink" width="832.437189pt" height="692.806049pt" viewBox="0 0 832.437189 692.806049" xmlns="http://www.w3.org/2000/svg" version="1.1">
 <metadata>
  <rdf:RDF xmlns:dc="http://purl.org/dc/elements/1.1/" xmlns:cc="http://creativecommons.org/ns#" xmlns:rdf="http://www.w3.org/1999/02/22-rdf-syntax-ns#">
   <cc:Work>
    <dc:type rdf:resource="http://purl.org/dc/dcmitype/StillImage"/>
    <dc:date>2025-03-26T12:44:21.194322</dc:date>
    <dc:format>image/svg+xml</dc:format>
    <dc:creator>
     <cc:Agent>
      <dc:title>Matplotlib v3.7.1, https://matplotlib.org/</dc:title>
     </cc:Agent>
    </dc:creator>
   </cc:Work>
  </rdf:RDF>
 </metadata>
 <defs>
  <style type="text/css">*{stroke-linejoin: round; stroke-linecap: butt}</style>
 </defs>
 <g id="figure_1">
  <g id="patch_1">
   <path d="M 0 692.806049 
L 832.437189 692.806049 
L 832.437189 0 
L 0 0 
z
" style="fill: #ffffff"/>
  </g>
  <g id="axes_1">
   <g id="patch_2">
    <path d="M 99.837189 617.04 
L 825.237189 617.04 
L 825.237189 7.2 
L 99.837189 7.2 
z
" style="fill: #ffffff"/>
   </g>
   <g id="PolyCollection_1">
    <path d="M 113.270523 73.744871 
L 113.270523 22.793897 
L 131.527686 22.793897 
L 144.855533 22.793897 
L 154.585105 22.793897 
L 161.68809 22.793897 
L 166.873842 22.793897 
L 170.660233 22.793897 
L 173.425353 22.793897 
L 175.445262 22.798874 
L 176.921529 22.868558 
L 178.100261 28.858176 
L 179.268725 48.235601 
L 180.437189 100.383984 
L 181.634755 145.460476 
L 182.832321 181.938397 
L 184.029887 218.879314 
L 185.227453 230.971695 
L 186.425019 244.382493 
L 187.622584 245.412632 
L 188.82015 250.906524 
L 190.017716 253.212609 
L 191.215282 253.04313 
L 192.412848 253.168931 
L 193.610414 254.1185 
L 194.80798 255.300679 
L 196.005545 255.638812 
L 197.203111 256.355212 
L 198.400677 256.580029 
L 199.598243 256.957837 
L 200.795809 257.577849 
L 201.993375 257.969026 
L 203.190941 258.301133 
L 204.388506 258.595289 
L 205.586072 258.784132 
L 206.783638 259.034233 
L 207.981204 259.157407 
L 209.17877 259.27808 
L 210.376336 259.455504 
L 211.573901 259.6161 
L 212.771467 259.708234 
L 213.969033 259.748291 
L 215.166599 259.74483 
L 216.364165 259.811981 
L 217.561731 259.881935 
L 218.759297 259.950242 
L 219.956862 259.971505 
L 221.154428 259.926017 
L 222.351995 259.904569 
L 223.579731 259.904744 
L 224.851333 259.938781 
L 226.168694 259.933102 
L 227.534333 259.932864 
L 228.950835 259.926397 
L 230.419684 259.92464 
L 231.942649 259.927513 
L 233.52179 259.933369 
L 235.159375 259.949866 
L 236.856834 259.959601 
L 238.615941 259.975985 
L 240.439171 259.990624 
L 242.329853 259.986695 
L 244.291748 259.957939 
L 246.323967 259.926784 
L 248.43108 259.912848 
L 250.616925 259.89669 
L 252.881633 259.870301 
L 255.231027 259.820892 
L 257.666411 259.747507 
L 260.190676 259.653506 
L 262.808896 259.55392 
L 265.523383 259.464463 
L 268.337524 259.392852 
L 271.255184 259.311548 
L 274.280306 259.229229 
L 277.4168 259.159966 
L 280.668634 259.100454 
L 284.040104 259.055967 
L 287.536236 259.01112 
L 291.160924 258.953014 
L 294.918912 258.889972 
L 298.815516 258.825692 
L 302.855789 258.748782 
L 307.044565 258.685936 
L 311.387607 258.599901 
L 315.89077 258.514742 
L 320.559929 258.407762 
L 325.400986 258.307257 
L 330.394807 258.214785 
L 335.53263 258.134894 
L 340.859588 258.040971 
L 346.383145 257.938689 
L 352.110169 257.83098 
L 358.048288 257.732935 
L 364.205329 257.63243 
L 370.589261 257.523098 
L 377.208536 257.402518 
L 384.071936 257.283714 
L 391.188344 257.189662 
L 398.567044 257.104324 
L 406.217767 257.000101 
L 413.770626 256.914191 
L 419.407545 256.839347 
L 423.421802 256.80704 
L 426.280996 256.787899 
L 428.317932 256.777254 
L 429.769446 256.761741 
L 430.910213 256.74459 
L 432.041247 256.728951 
L 433.172282 256.714433 
L 434.303316 256.700578 
L 435.43435 256.683725 
L 436.565385 256.669111 
L 437.696419 256.65544 
L 438.827454 255.416823 
L 439.958488 318.661347 
L 440.783283 395.621471 
L 441.608079 415.990682 
L 442.432874 414.122171 
L 443.257669 410.903648 
L 444.082465 408.151018 
L 444.90726 406.266987 
L 445.732056 404.762164 
L 446.556851 403.214649 
L 447.381646 401.873475 
L 448.206442 400.64205 
L 449.031237 399.551096 
L 449.856032 398.647712 
L 450.680828 397.841236 
L 451.505623 397.170963 
L 452.330418 396.565992 
L 453.155214 396.030168 
L 453.980009 395.515184 
L 454.804804 395.102732 
L 455.6296 394.684423 
L 456.454395 394.28246 
L 457.279191 393.885507 
L 458.103986 393.49261 
L 458.928781 393.115193 
L 459.753577 392.77487 
L 460.578372 392.436357 
L 461.403167 392.144493 
L 462.227963 391.865263 
L 463.052758 391.57546 
L 463.877553 391.280201 
L 464.702349 391.010767 
L 465.527144 390.72843 
L 466.351939 390.456033 
L 467.176735 390.181231 
L 468.00153 389.893409 
L 468.826326 389.588078 
L 469.651121 389.269945 
L 470.475916 388.941865 
L 471.300712 388.600941 
L 472.125507 388.244878 
L 472.950302 387.879126 
L 473.775098 387.445469 
L 474.599893 386.965924 
L 475.424688 386.440461 
L 476.249484 385.832202 
L 477.082726 385.137489 
L 477.96769 384.358676 
L 478.930327 383.425802 
L 479.968268 382.425494 
L 481.095782 381.283046 
L 482.319609 380.049508 
L 483.645481 378.434966 
L 485.08459 376.473479 
L 486.649689 374.209982 
L 488.351088 371.403139 
L 490.200984 368.664563 
L 492.213011 366.068032 
L 494.402105 363.733206 
L 496.784831 361.667511 
L 499.378255 359.99104 
L 502.198217 358.318686 
L 505.267159 357.801486 
L 508.602054 357.886893 
L 512.225875 358.675413 
L 516.157554 360.061807 
L 520.416405 361.774563 
L 525.019869 363.469582 
L 529.979269 364.744121 
L 535.297221 365.859839 
L 540.956768 366.888079 
L 546.870764 368.453062 
L 552.809291 369.966044 
L 558.747817 371.176945 
L 564.686344 372.217662 
L 570.624871 373.47801 
L 576.563397 375.268421 
L 582.501924 376.83016 
L 588.44045 378.117555 
L 594.378977 379.190935 
L 600.317503 379.888286 
L 606.25603 380.890304 
L 612.194557 382.256775 
L 618.133083 384.147255 
L 624.07161 385.820576 
L 630.010136 350.574914 
L 638.40597 244.430005 
L 646.801803 229.39568 
L 655.197636 228.85168 
L 663.59347 226.573476 
L 671.989303 229.348542 
L 680.385136 231.503613 
L 688.78097 231.814807 
L 697.176803 232.17258 
L 705.572636 232.71711 
L 713.96847 233.362993 
L 722.364303 234.079047 
L 730.760136 234.782786 
L 739.15597 235.376865 
L 747.551803 235.915071 
L 755.947636 236.424625 
L 764.34347 236.882365 
L 772.739303 237.40791 
L 781.135136 237.864611 
L 789.53097 238.317717 
L 797.926803 238.68105 
L 806.322636 239.031208 
L 814.71847 239.386467 
L 823.114303 239.632006 
L 831.510136 239.789578 
L 831.510136 255.917111 
L 831.510136 255.917111 
L 823.114303 255.740975 
L 814.71847 255.540135 
L 806.322636 255.179426 
L 797.926803 254.794882 
L 789.53097 254.410951 
L 781.135136 253.910082 
L 772.739303 253.454042 
L 764.34347 252.901902 
L 755.947636 252.435075 
L 747.551803 251.927446 
L 739.15597 251.290703 
L 730.760136 250.703278 
L 722.364303 250.116417 
L 713.96847 249.508978 
L 705.572636 248.836876 
L 697.176803 248.300152 
L 688.78097 247.835757 
L 680.385136 247.509499 
L 671.989303 246.946734 
L 663.59347 249.00501 
L 655.197636 249.606398 
L 646.801803 250.274725 
L 638.40597 262.333229 
L 630.010136 361.812988 
L 624.07161 391.661548 
L 618.133083 390.081001 
L 612.194557 388.350643 
L 606.25603 386.972581 
L 600.317503 385.904391 
L 594.378977 385.192757 
L 588.44045 384.211295 
L 582.501924 383.059765 
L 576.563397 381.659155 
L 570.624871 379.870767 
L 564.686344 378.719522 
L 558.747817 377.706235 
L 552.809291 376.563505 
L 546.870764 375.378942 
L 540.956768 374.279919 
L 535.297221 373.426573 
L 529.979269 372.567453 
L 525.019869 371.55524 
L 520.416405 370.326002 
L 516.157554 369.182962 
L 512.225875 368.713961 
L 508.602054 368.710315 
L 505.267159 369.405605 
L 502.198217 370.608748 
L 499.378255 372.815596 
L 496.784831 375.106101 
L 494.402105 377.605286 
L 492.213011 380.184882 
L 490.200984 382.861832 
L 488.351088 385.593778 
L 486.649689 388.376765 
L 485.08459 390.570919 
L 483.645481 392.398716 
L 482.319609 393.96642 
L 481.095782 394.991355 
L 479.968268 395.90513 
L 478.930327 396.679315 
L 477.96769 397.423045 
L 477.082726 398.028699 
L 476.249484 398.595984 
L 475.424688 399.108934 
L 474.599893 399.575134 
L 473.775098 399.999399 
L 472.950302 400.389453 
L 472.125507 400.72847 
L 471.300712 401.062557 
L 470.475916 401.3888 
L 469.651121 401.705491 
L 468.826326 402.015165 
L 468.00153 402.318824 
L 467.176735 402.613592 
L 466.351939 402.911908 
L 465.527144 403.207141 
L 464.702349 403.520304 
L 463.877553 403.825737 
L 463.052758 404.160834 
L 462.227963 404.485978 
L 461.403167 404.798445 
L 460.578372 405.130308 
L 459.753577 405.507776 
L 458.928781 405.883644 
L 458.103986 406.300801 
L 457.279191 406.748251 
L 456.454395 407.219736 
L 455.6296 407.710287 
L 454.804804 408.22822 
L 453.980009 408.759174 
L 453.155214 409.404424 
L 452.330418 410.080191 
L 451.505623 410.823996 
L 450.680828 411.609663 
L 449.856032 412.475701 
L 449.031237 413.330345 
L 448.206442 414.249616 
L 447.381646 415.217577 
L 446.556851 416.291351 
L 445.732056 417.485049 
L 444.90726 418.856814 
L 444.082465 420.716821 
L 443.257669 423.148533 
L 442.432874 425.375957 
L 441.608079 427.114961 
L 440.783283 441.811364 
L 439.958488 349.117843 
L 438.827454 269.152475 
L 437.696419 271.026016 
L 436.565385 271.034873 
L 435.43435 271.044311 
L 434.303316 271.058417 
L 433.172282 271.070781 
L 432.041247 271.084853 
L 430.910213 271.10066 
L 429.769446 271.118845 
L 428.317932 271.141497 
L 426.280996 271.178931 
L 423.421802 271.219084 
L 419.407545 271.288739 
L 413.770626 271.373959 
L 406.217767 271.459816 
L 398.567044 271.527953 
L 391.188344 271.561918 
L 384.071936 271.585182 
L 377.208536 271.605519 
L 370.589261 271.64135 
L 364.205329 271.676443 
L 358.048288 271.714742 
L 352.110169 271.744152 
L 346.383145 271.76301 
L 340.859588 271.812481 
L 335.53263 271.866318 
L 330.394807 271.93521 
L 325.400986 271.986686 
L 320.559929 272.027661 
L 315.89077 272.0667 
L 311.387607 272.12285 
L 307.044565 272.203896 
L 302.855789 272.277873 
L 298.815516 272.356901 
L 294.918912 272.409287 
L 291.160924 272.46061 
L 287.536236 272.507827 
L 284.040104 272.562969 
L 280.668634 272.604703 
L 277.4168 272.650249 
L 274.280306 272.697258 
L 271.255184 272.747408 
L 268.337524 272.794384 
L 265.523383 272.857047 
L 262.808896 272.917082 
L 260.190676 272.974919 
L 257.666411 273.006253 
L 255.231027 273.055263 
L 252.881633 273.075941 
L 250.616925 273.104024 
L 248.43108 273.118519 
L 246.323967 273.119256 
L 244.291748 273.100233 
L 242.329853 273.047638 
L 240.439171 273.018705 
L 238.615941 272.978369 
L 236.856834 272.936411 
L 235.159375 272.893479 
L 233.52179 272.852303 
L 231.942649 272.815118 
L 230.419684 272.755348 
L 228.950835 272.684785 
L 227.534333 272.615626 
L 226.168694 272.529918 
L 224.851333 272.487407 
L 223.579731 272.430919 
L 222.351995 272.387783 
L 221.154428 272.298885 
L 219.956862 272.228005 
L 218.759297 272.212994 
L 217.561731 272.250893 
L 216.364165 272.268249 
L 215.166599 272.288101 
L 213.969033 272.213511 
L 212.771467 272.150983 
L 211.573901 272.053333 
L 210.376336 272.104283 
L 209.17877 272.056214 
L 207.981204 272.102711 
L 206.783638 272.070709 
L 205.586072 272.12686 
L 204.388506 272.194571 
L 203.190941 272.138114 
L 201.993375 272.178868 
L 200.795809 272.313744 
L 199.598243 272.271084 
L 198.400677 272.454079 
L 197.203111 272.867837 
L 196.005545 272.969202 
L 194.80798 273.532759 
L 193.610414 274.446027 
L 192.412848 275.338186 
L 191.215282 277.472162 
L 190.017716 280.512703 
L 188.82015 280.700958 
L 187.622584 292.904595 
L 186.425019 291.506844 
L 185.227453 287.361105 
L 184.029887 271.965448 
L 182.832321 239.103062 
L 181.634755 203.850489 
L 180.437189 164.242083 
L 179.268725 103.078473 
L 178.100261 84.137209 
L 176.921529 73.82249 
L 175.445262 73.75006 
L 173.425353 73.744871 
L 170.660233 73.744871 
L 166.873842 73.744871 
L 161.68809 73.744871 
L 154.585105 73.744871 
L 144.855533 73.744871 
L 131.527686 73.744871 
L 113.270523 73.744871 
z
" clip-path="url(#p2cfb6054bb)" style="fill: #99ccff; fill-opacity: 0.7"/>
   </g>
   <g id="matplotlib.axis_1">
    <g id="xtick_1">
     <g id="line2d_1">
      <path d="M 180.437189 617.04 
L 180.437189 7.2 
" clip-path="url(#p2cfb6054bb)" style="fill: none; stroke: #b0b0b0; stroke-width: 0.8; stroke-linecap: square"/>
     </g>
     <g id="line2d_2">
      <defs>
       <path id="mcb02663417" d="M 0 0 
L 0 3.5 
" style="stroke: #000000; stroke-width: 0.8"/>
      </defs>
      <g>
       <use xlink:href="#mcb02663417" x="180.437189" y="617.04" style="stroke: #000000; stroke-width: 0.8"/>
      </g>
     </g>
     <g id="text_1">
      <!-- $\mathdefault{0.0}$ -->
      <g transform="translate(162.66547 644.795495) scale(0.3 -0.3)">
       <defs>
        <path id="CMR17-30" d="M 2688 2025 
C 2688 2416 2682 3080 2413 3591 
C 2176 4039 1798 4198 1466 4198 
C 1158 4198 768 4058 525 3597 
C 269 3118 243 2524 243 2025 
C 243 1661 250 1106 448 619 
C 723 -39 1216 -128 1466 -128 
C 1760 -128 2208 -7 2470 600 
C 2662 1042 2688 1559 2688 2025 
z
M 1466 -26 
C 1056 -26 813 325 723 812 
C 653 1188 653 1738 653 2096 
C 653 2588 653 2997 736 3387 
C 858 3929 1216 4096 1466 4096 
C 1728 4096 2067 3923 2189 3400 
C 2272 3036 2278 2607 2278 2096 
C 2278 1680 2278 1169 2202 792 
C 2067 95 1690 -26 1466 -26 
z
" transform="scale(0.015625)"/>
        <path id="CMMI12-3a" d="M 1178 307 
C 1178 492 1024 619 870 619 
C 685 619 557 466 557 313 
C 557 128 710 0 864 0 
C 1050 0 1178 153 1178 307 
z
" transform="scale(0.015625)"/>
       </defs>
       <use xlink:href="#CMR17-30" transform="scale(0.996264)"/>
       <use xlink:href="#CMMI12-3a" transform="translate(45.690477 0) scale(0.996264)"/>
       <use xlink:href="#CMR17-30" transform="translate(72.787654 0) scale(0.996264)"/>
      </g>
     </g>
    </g>
    <g id="xtick_2">
     <g id="line2d_3">
      <path d="M 314.770523 617.04 
L 314.770523 7.2 
" clip-path="url(#p2cfb6054bb)" style="fill: none; stroke: #b0b0b0; stroke-width: 0.8; stroke-linecap: square"/>
     </g>
     <g id="line2d_4">
      <g>
       <use xlink:href="#mcb02663417" x="314.770523" y="617.04" style="stroke: #000000; stroke-width: 0.8"/>
      </g>
     </g>
     <g id="text_2">
      <!-- $\mathdefault{0.1}$ -->
      <g transform="translate(296.998803 644.795495) scale(0.3 -0.3)">
       <defs>
        <path id="CMR17-31" d="M 1702 4058 
C 1702 4192 1696 4192 1606 4192 
C 1357 3916 979 3827 621 3827 
C 602 3827 570 3827 563 3808 
C 557 3795 557 3782 557 3648 
C 755 3648 1088 3686 1344 3839 
L 1344 461 
C 1344 236 1331 160 781 160 
L 589 160 
L 589 0 
C 896 0 1216 0 1523 0 
C 1830 0 2150 0 2458 0 
L 2458 160 
L 2266 160 
C 1715 160 1702 230 1702 458 
L 1702 4058 
z
" transform="scale(0.015625)"/>
       </defs>
       <use xlink:href="#CMR17-30" transform="scale(0.996264)"/>
       <use xlink:href="#CMMI12-3a" transform="translate(45.690477 0) scale(0.996264)"/>
       <use xlink:href="#CMR17-31" transform="translate(72.787654 0) scale(0.996264)"/>
      </g>
     </g>
    </g>
    <g id="xtick_3">
     <g id="line2d_5">
      <path d="M 449.103856 617.04 
L 449.103856 7.2 
" clip-path="url(#p2cfb6054bb)" style="fill: none; stroke: #b0b0b0; stroke-width: 0.8; stroke-linecap: square"/>
     </g>
     <g id="line2d_6">
      <g>
       <use xlink:href="#mcb02663417" x="449.103856" y="617.04" style="stroke: #000000; stroke-width: 0.8"/>
      </g>
     </g>
     <g id="text_3">
      <!-- $\mathdefault{0.2}$ -->
      <g transform="translate(431.332136 644.795495) scale(0.3 -0.3)">
       <defs>
        <path id="CMR17-32" d="M 2669 989 
L 2554 989 
C 2490 536 2438 459 2413 420 
C 2381 369 1920 369 1830 369 
L 602 369 
C 832 619 1280 1072 1824 1597 
C 2214 1967 2669 2402 2669 3035 
C 2669 3790 2067 4224 1395 4224 
C 691 4224 262 3604 262 3030 
C 262 2780 448 2748 525 2748 
C 589 2748 781 2787 781 3010 
C 781 3207 614 3264 525 3264 
C 486 3264 448 3258 422 3245 
C 544 3790 915 4058 1306 4058 
C 1862 4058 2227 3617 2227 3035 
C 2227 2479 1901 2000 1536 1584 
L 262 146 
L 262 0 
L 2515 0 
L 2669 989 
z
" transform="scale(0.015625)"/>
       </defs>
       <use xlink:href="#CMR17-30" transform="scale(0.996264)"/>
       <use xlink:href="#CMMI12-3a" transform="translate(45.690477 0) scale(0.996264)"/>
       <use xlink:href="#CMR17-32" transform="translate(72.787654 0) scale(0.996264)"/>
      </g>
     </g>
    </g>
    <g id="xtick_4">
     <g id="line2d_7">
      <path d="M 583.437189 617.04 
L 583.437189 7.2 
" clip-path="url(#p2cfb6054bb)" style="fill: none; stroke: #b0b0b0; stroke-width: 0.8; stroke-linecap: square"/>
     </g>
     <g id="line2d_8">
      <g>
       <use xlink:href="#mcb02663417" x="583.437189" y="617.04" style="stroke: #000000; stroke-width: 0.8"/>
      </g>
     </g>
     <g id="text_4">
      <!-- $\mathdefault{0.3}$ -->
      <g transform="translate(565.66547 644.795495) scale(0.3 -0.3)">
       <defs>
        <path id="CMR17-33" d="M 1414 2157 
C 1984 2157 2234 1662 2234 1090 
C 2234 320 1824 25 1453 25 
C 1114 25 563 194 390 693 
C 422 680 454 680 486 680 
C 640 680 755 782 755 948 
C 755 1133 614 1216 486 1216 
C 378 1216 211 1165 211 926 
C 211 335 787 -128 1466 -128 
C 2176 -128 2720 430 2720 1085 
C 2720 1707 2208 2157 1600 2227 
C 2086 2328 2554 2756 2554 3329 
C 2554 3820 2048 4179 1472 4179 
C 890 4179 378 3829 378 3329 
C 378 3110 544 3072 627 3072 
C 762 3072 877 3155 877 3321 
C 877 3486 762 3569 627 3569 
C 602 3569 570 3569 544 3557 
C 730 3959 1235 4032 1459 4032 
C 1683 4032 2106 3925 2106 3320 
C 2106 3143 2080 2828 1862 2550 
C 1670 2304 1453 2304 1242 2284 
C 1210 2284 1062 2269 1037 2269 
C 992 2263 966 2257 966 2208 
C 966 2163 973 2157 1101 2157 
L 1414 2157 
z
" transform="scale(0.015625)"/>
       </defs>
       <use xlink:href="#CMR17-30" transform="scale(0.996264)"/>
       <use xlink:href="#CMMI12-3a" transform="translate(45.690477 0) scale(0.996264)"/>
       <use xlink:href="#CMR17-33" transform="translate(72.787654 0) scale(0.996264)"/>
      </g>
     </g>
    </g>
    <g id="xtick_5">
     <g id="line2d_9">
      <path d="M 717.770523 617.04 
L 717.770523 7.2 
" clip-path="url(#p2cfb6054bb)" style="fill: none; stroke: #b0b0b0; stroke-width: 0.8; stroke-linecap: square"/>
     </g>
     <g id="line2d_10">
      <g>
       <use xlink:href="#mcb02663417" x="717.770523" y="617.04" style="stroke: #000000; stroke-width: 0.8"/>
      </g>
     </g>
     <g id="text_5">
      <!-- $\mathdefault{0.4}$ -->
      <g transform="translate(699.998803 644.795495) scale(0.3 -0.3)">
       <defs>
        <path id="CMR17-34" d="M 2150 4122 
C 2150 4256 2144 4256 2029 4256 
L 128 1254 
L 128 1088 
L 1779 1088 
L 1779 457 
C 1779 224 1766 160 1318 160 
L 1197 160 
L 1197 0 
C 1402 0 1747 0 1965 0 
C 2182 0 2528 0 2733 0 
L 2733 160 
L 2611 160 
C 2163 160 2150 224 2150 457 
L 2150 1088 
L 2803 1088 
L 2803 1254 
L 2150 1254 
L 2150 4122 
z
M 1798 3703 
L 1798 1254 
L 256 1254 
L 1798 3703 
z
" transform="scale(0.015625)"/>
       </defs>
       <use xlink:href="#CMR17-30" transform="scale(0.996264)"/>
       <use xlink:href="#CMMI12-3a" transform="translate(45.690477 0) scale(0.996264)"/>
       <use xlink:href="#CMR17-34" transform="translate(72.787654 0) scale(0.996264)"/>
      </g>
     </g>
    </g>
    <g id="text_6">
     <!-- $x, \; \mathrm{m} $ -->
     <g transform="translate(426.884586 678.823697) scale(0.35 -0.35)">
      <defs>
       <path id="CMMI12-78" d="M 3034 2606 
C 2829 2567 2752 2414 2752 2293 
C 2752 2139 2874 2088 2963 2088 
C 3155 2088 3290 2254 3290 2427 
C 3290 2695 2982 2816 2714 2816 
C 2323 2816 2106 2433 2048 2312 
C 1901 2816 1504 2816 1389 2816 
C 736 2816 390 1980 390 1839 
C 390 1814 416 1782 461 1782 
C 512 1782 525 1820 538 1846 
C 755 2555 1184 2689 1370 2689 
C 1658 2689 1715 2420 1715 2267 
C 1715 2127 1677 1980 1600 1673 
L 1382 798 
C 1286 415 1101 64 762 64 
C 730 64 570 64 435 147 
C 666 192 717 383 717 460 
C 717 588 621 664 499 664 
C 346 664 179 530 179 326 
C 179 57 480 -64 755 -64 
C 1062 -64 1280 179 1414 441 
C 1517 64 1837 -64 2074 -64 
C 2726 -64 3072 773 3072 913 
C 3072 945 3046 971 3008 971 
C 2950 971 2944 939 2925 888 
C 2752 326 2381 64 2093 64 
C 1869 64 1747 230 1747 492 
C 1747 632 1773 734 1875 1156 
L 2099 2024 
C 2195 2408 2413 2689 2707 2689 
C 2720 2689 2899 2689 3034 2606 
z
" transform="scale(0.015625)"/>
       <path id="CMMI12-3b" d="M 1248 -31 
C 1248 343 1126 619 864 619 
C 659 619 557 453 557 313 
C 557 172 653 0 870 0 
C 954 0 1024 26 1082 83 
C 1094 96 1101 96 1107 96 
C 1120 96 1120 5 1120 -27 
C 1120 -240 1082 -659 710 -1080 
C 640 -1157 640 -1170 640 -1183 
C 640 -1216 672 -1248 704 -1248 
C 755 -1248 1248 -771 1248 -31 
z
" transform="scale(0.015625)"/>
       <path id="CMR17-6d" d="M 4326 1933 
C 4326 2252 4269 2790 3507 2790 
C 3072 2790 2771 2496 2656 2151 
L 2650 2151 
C 2573 2676 2195 2790 1837 2790 
C 1331 2790 1069 2400 973 2144 
L 966 2144 
L 966 2790 
L 211 2720 
L 211 2554 
C 589 2554 646 2515 646 2208 
L 646 428 
C 646 184 621 153 211 153 
L 211 -13 
C 365 0 646 0 813 0 
C 979 0 1267 0 1421 -13 
L 1421 153 
C 1011 153 986 178 986 428 
L 986 1658 
C 986 2247 1344 2688 1792 2688 
C 2266 2688 2317 2266 2317 1958 
L 2317 428 
C 2317 184 2291 153 1882 153 
L 1882 -13 
C 2035 0 2317 0 2483 0 
C 2650 0 2938 0 3091 -13 
L 3091 153 
C 2682 153 2656 178 2656 428 
L 2656 1658 
C 2656 2247 3014 2688 3462 2688 
C 3936 2688 3987 2266 3987 1958 
L 3987 428 
C 3987 184 3962 153 3552 153 
L 3552 -13 
C 3706 0 3987 0 4154 0 
C 4320 0 4608 0 4762 -13 
L 4762 153 
C 4352 153 4326 178 4326 428 
L 4326 1933 
z
" transform="scale(0.015625)"/>
      </defs>
      <use xlink:href="#CMMI12-78" transform="scale(0.996264)"/>
      <use xlink:href="#CMMI12-3b" transform="translate(55.43406 0) scale(0.996264)"/>
      <use xlink:href="#CMR17-6d" transform="translate(126.809651 0) scale(0.996264)"/>
     </g>
    </g>
   </g>
   <g id="matplotlib.axis_2">
    <g id="ytick_1">
     <g id="line2d_11">
      <path d="M 99.837189 552.163404 
L 825.237189 552.163404 
" clip-path="url(#p2cfb6054bb)" style="fill: none; stroke: #b0b0b0; stroke-width: 0.8; stroke-linecap: square"/>
     </g>
     <g id="line2d_12">
      <defs>
       <path id="ma51e573834" d="M 0 0 
L -3.5 0 
" style="stroke: #000000; stroke-width: 0.8"/>
      </defs>
      <g>
       <use xlink:href="#ma51e573834" x="99.837189" y="552.163404" style="stroke: #000000; stroke-width: 0.8"/>
      </g>
     </g>
     <g id="text_7">
      <!-- $\mathdefault{0.0}$ -->
      <g transform="translate(57.29375 562.541152) scale(0.3 -0.3)">
       <use xlink:href="#CMR17-30" transform="scale(0.996264)"/>
       <use xlink:href="#CMMI12-3a" transform="translate(45.690477 0) scale(0.996264)"/>
       <use xlink:href="#CMR17-30" transform="translate(72.787654 0) scale(0.996264)"/>
      </g>
     </g>
    </g>
    <g id="ytick_2">
     <g id="line2d_13">
      <path d="M 99.837189 448.360851 
L 825.237189 448.360851 
" clip-path="url(#p2cfb6054bb)" style="fill: none; stroke: #b0b0b0; stroke-width: 0.8; stroke-linecap: square"/>
     </g>
     <g id="line2d_14">
      <g>
       <use xlink:href="#ma51e573834" x="99.837189" y="448.360851" style="stroke: #000000; stroke-width: 0.8"/>
      </g>
     </g>
     <g id="text_8">
      <!-- $\mathdefault{0.2}$ -->
      <g transform="translate(57.29375 458.738599) scale(0.3 -0.3)">
       <use xlink:href="#CMR17-30" transform="scale(0.996264)"/>
       <use xlink:href="#CMMI12-3a" transform="translate(45.690477 0) scale(0.996264)"/>
       <use xlink:href="#CMR17-32" transform="translate(72.787654 0) scale(0.996264)"/>
      </g>
     </g>
    </g>
    <g id="ytick_3">
     <g id="line2d_15">
      <path d="M 99.837189 344.558298 
L 825.237189 344.558298 
" clip-path="url(#p2cfb6054bb)" style="fill: none; stroke: #b0b0b0; stroke-width: 0.8; stroke-linecap: square"/>
     </g>
     <g id="line2d_16">
      <g>
       <use xlink:href="#ma51e573834" x="99.837189" y="344.558298" style="stroke: #000000; stroke-width: 0.8"/>
      </g>
     </g>
     <g id="text_9">
      <!-- $\mathdefault{0.4}$ -->
      <g transform="translate(57.29375 354.936045) scale(0.3 -0.3)">
       <use xlink:href="#CMR17-30" transform="scale(0.996264)"/>
       <use xlink:href="#CMMI12-3a" transform="translate(45.690477 0) scale(0.996264)"/>
       <use xlink:href="#CMR17-34" transform="translate(72.787654 0) scale(0.996264)"/>
      </g>
     </g>
    </g>
    <g id="ytick_4">
     <g id="line2d_17">
      <path d="M 99.837189 240.755745 
L 825.237189 240.755745 
" clip-path="url(#p2cfb6054bb)" style="fill: none; stroke: #b0b0b0; stroke-width: 0.8; stroke-linecap: square"/>
     </g>
     <g id="line2d_18">
      <g>
       <use xlink:href="#ma51e573834" x="99.837189" y="240.755745" style="stroke: #000000; stroke-width: 0.8"/>
      </g>
     </g>
     <g id="text_10">
      <!-- $\mathdefault{0.6}$ -->
      <g transform="translate(57.29375 251.133492) scale(0.3 -0.3)">
       <defs>
        <path id="CMR17-36" d="M 678 2176 
C 678 3690 1395 4032 1811 4032 
C 1946 4032 2272 4009 2400 3776 
C 2298 3776 2106 3776 2106 3553 
C 2106 3381 2246 3323 2336 3323 
C 2394 3323 2566 3348 2566 3560 
C 2566 3954 2246 4179 1805 4179 
C 1043 4179 243 3390 243 1984 
C 243 253 966 -128 1478 -128 
C 2099 -128 2688 427 2688 1283 
C 2688 2081 2170 2662 1517 2662 
C 1126 2662 838 2407 678 1960 
L 678 2176 
z
M 1478 25 
C 691 25 691 1200 691 1436 
C 691 1896 909 2560 1504 2560 
C 1613 2560 1926 2560 2138 2120 
C 2253 1870 2253 1609 2253 1289 
C 2253 944 2253 690 2118 434 
C 1978 171 1773 25 1478 25 
z
" transform="scale(0.015625)"/>
       </defs>
       <use xlink:href="#CMR17-30" transform="scale(0.996264)"/>
       <use xlink:href="#CMMI12-3a" transform="translate(45.690477 0) scale(0.996264)"/>
       <use xlink:href="#CMR17-36" transform="translate(72.787654 0) scale(0.996264)"/>
      </g>
     </g>
    </g>
    <g id="ytick_5">
     <g id="line2d_19">
      <path d="M 99.837189 136.953191 
L 825.237189 136.953191 
" clip-path="url(#p2cfb6054bb)" style="fill: none; stroke: #b0b0b0; stroke-width: 0.8; stroke-linecap: square"/>
     </g>
     <g id="line2d_20">
      <g>
       <use xlink:href="#ma51e573834" x="99.837189" y="136.953191" style="stroke: #000000; stroke-width: 0.8"/>
      </g>
     </g>
     <g id="text_11">
      <!-- $\mathdefault{0.8}$ -->
      <g transform="translate(57.29375 147.330939) scale(0.3 -0.3)">
       <defs>
        <path id="CMR17-38" d="M 1741 2264 
C 2144 2467 2554 2773 2554 3263 
C 2554 3841 1990 4179 1472 4179 
C 890 4179 378 3759 378 3180 
C 378 3021 416 2747 666 2505 
C 730 2442 998 2251 1171 2130 
C 883 1983 211 1634 211 934 
C 211 279 838 -128 1459 -128 
C 2144 -128 2720 362 2720 1010 
C 2720 1590 2330 1857 2074 2029 
L 1741 2264 
z
M 902 2822 
C 851 2854 595 3051 595 3351 
C 595 3739 998 4032 1459 4032 
C 1965 4032 2336 3676 2336 3262 
C 2336 2669 1670 2331 1638 2331 
C 1632 2331 1626 2331 1574 2370 
L 902 2822 
z
M 2080 1519 
C 2176 1449 2483 1240 2483 851 
C 2483 381 2010 25 1472 25 
C 890 25 448 438 448 940 
C 448 1443 838 1862 1280 2060 
L 2080 1519 
z
" transform="scale(0.015625)"/>
       </defs>
       <use xlink:href="#CMR17-30" transform="scale(0.996264)"/>
       <use xlink:href="#CMMI12-3a" transform="translate(45.690477 0) scale(0.996264)"/>
       <use xlink:href="#CMR17-38" transform="translate(72.787654 0) scale(0.996264)"/>
      </g>
     </g>
    </g>
    <g id="ytick_6">
     <g id="line2d_21">
      <path d="M 99.837189 33.150638 
L 825.237189 33.150638 
" clip-path="url(#p2cfb6054bb)" style="fill: none; stroke: #b0b0b0; stroke-width: 0.8; stroke-linecap: square"/>
     </g>
     <g id="line2d_22">
      <g>
       <use xlink:href="#ma51e573834" x="99.837189" y="33.150638" style="stroke: #000000; stroke-width: 0.8"/>
      </g>
     </g>
     <g id="text_12">
      <!-- $\mathdefault{1.0}$ -->
      <g transform="translate(57.29375 43.528386) scale(0.3 -0.3)">
       <use xlink:href="#CMR17-31" transform="scale(0.996264)"/>
       <use xlink:href="#CMMI12-3a" transform="translate(45.690477 0) scale(0.996264)"/>
       <use xlink:href="#CMR17-30" transform="translate(72.787654 0) scale(0.996264)"/>
      </g>
     </g>
    </g>
    <g id="text_13">
     <!-- $\frac{M}{M_\infty}$ -->
     <g transform="translate(37.608171 332.647088) rotate(-90) scale(0.35 -0.35)">
      <defs>
       <path id="CMMI12-4d" d="M 5811 3886 
C 5869 4103 5882 4167 6336 4167 
C 6458 4167 6515 4167 6515 4288 
C 6515 4352 6470 4352 6349 4352 
L 5581 4352 
C 5421 4352 5414 4346 5344 4243 
L 3008 562 
L 2528 4211 
C 2509 4352 2502 4352 2336 4352 
L 1542 4352 
C 1421 4352 1363 4352 1363 4231 
C 1363 4167 1421 4167 1517 4167 
C 1907 4167 1907 4116 1907 4046 
C 1907 4034 1907 3995 1882 3899 
L 1062 634 
C 986 327 838 186 410 186 
C 390 186 314 186 314 73 
C 314 0 371 0 397 0 
C 525 0 851 0 979 0 
L 1286 0 
C 1376 0 1485 0 1574 0 
C 1619 0 1690 0 1690 122 
C 1690 180 1626 186 1600 186 
C 1389 186 1184 224 1184 454 
C 1184 518 1184 524 1210 613 
L 2093 4129 
L 2099 4129 
L 2630 172 
C 2650 19 2656 0 2714 0 
C 2784 0 2816 51 2848 109 
L 5421 4161 
L 5427 4161 
L 4499 473 
C 4442 250 4429 186 3981 186 
C 3859 186 3795 186 3795 70 
C 3795 0 3853 0 3891 0 
C 4000 0 4128 0 4237 0 
L 4992 0 
C 5101 0 5235 0 5344 0 
C 5395 0 5466 0 5466 122 
C 5466 186 5408 186 5312 186 
C 4922 186 4922 234 4922 294 
C 4922 301 4922 345 4934 396 
L 5811 3886 
z
" transform="scale(0.015625)"/>
       <path id="CMSY10-31" d="M 3251 1730 
C 2906 2166 2829 2262 2630 2422 
C 2272 2710 1914 2825 1587 2825 
C 838 2825 352 2122 352 1374 
C 352 639 826 -70 1562 -70 
C 2298 -70 2829 511 3142 1022 
C 3488 588 3565 492 3763 332 
C 4122 45 4480 -70 4806 -70 
C 5555 -70 6042 633 6042 1380 
C 6042 2115 5568 2825 4832 2825 
C 4096 2825 3565 2242 3251 1730 
z
M 3418 1514 
C 3680 1975 4154 2620 4877 2620 
C 5555 2620 5901 1955 5901 1380 
C 5901 753 5472 236 4909 236 
C 4538 236 4250 505 4115 638 
C 3955 811 3808 1009 3418 1514 
z
M 2976 1240 
C 2714 780 2240 134 1517 134 
C 838 134 493 799 493 1374 
C 493 2000 922 2518 1485 2518 
C 1856 2518 2144 2249 2278 2115 
C 2438 1943 2586 1744 2976 1240 
z
" transform="scale(0.015625)"/>
      </defs>
      <use xlink:href="#CMMI12-4d" transform="translate(21.513426 39.226102) scale(0.697382)"/>
      <use xlink:href="#CMMI12-4d" transform="translate(0 -34.355253) scale(0.697382)"/>
      <use xlink:href="#CMSY10-31" transform="translate(66.061109 -44.815949) scale(0.498132)"/>
      <path d="M 0 22.914133 
L 116.372578 22.914133 
L 116.372578 26.899083 
L 0 26.899083 
L 0 22.914133 
z
"/>
     </g>
    </g>
   </g>
   <g id="line2d_23">
    <path d="M 113.270523 48.269384 
L 176.921529 48.345524 
L 178.100261 56.497692 
L 179.268725 75.657037 
L 180.437189 132.313034 
L 181.634755 174.655483 
L 184.029887 245.422381 
L 185.227453 259.1664 
L 186.425019 267.944669 
L 187.622584 269.158614 
L 188.82015 265.803741 
L 190.017716 266.862656 
L 191.215282 265.257646 
L 192.412848 264.253558 
L 196.005545 264.304007 
L 197.203111 264.611524 
L 198.400677 264.517054 
L 199.598243 264.614461 
L 200.795809 264.945796 
L 207.981204 265.630059 
L 211.573901 265.834716 
L 215.166599 266.016466 
L 246.323967 266.52302 
L 257.666411 266.37688 
L 284.040104 265.809468 
L 391.188344 264.37579 
L 426.280996 263.983415 
L 437.696419 263.840728 
L 438.827454 262.284649 
L 439.958488 333.889595 
L 440.783283 418.716417 
L 441.608079 421.552821 
L 442.432874 419.749064 
L 444.082465 414.43392 
L 444.90726 412.5619 
L 446.556851 409.753 
L 448.206442 407.445833 
L 449.856032 405.561706 
L 451.505623 403.997479 
L 453.155214 402.717296 
L 454.804804 401.665476 
L 458.103986 399.896706 
L 460.578372 398.783333 
L 467.176735 396.397411 
L 471.300712 394.831749 
L 473.775098 393.722434 
L 475.424688 392.774698 
L 477.082726 391.583094 
L 478.930327 390.052558 
L 481.095782 388.1372 
L 482.319609 387.007964 
L 485.08459 383.522199 
L 486.649689 381.293374 
L 488.351088 378.498458 
L 490.200984 375.763198 
L 492.213011 373.126457 
L 494.402105 370.669246 
L 496.784831 368.386806 
L 499.378255 366.403318 
L 502.198217 364.463717 
L 505.267159 363.603546 
L 508.602054 363.298604 
L 512.225875 363.694687 
L 516.157554 364.622385 
L 525.019869 367.512411 
L 529.979269 368.655787 
L 540.956768 370.583999 
L 552.809291 373.264774 
L 558.747817 374.44159 
L 564.686344 375.468592 
L 570.624871 376.674389 
L 576.563397 378.463788 
L 582.501924 379.944963 
L 588.44045 381.164425 
L 594.378977 382.191846 
L 600.317503 382.896338 
L 606.25603 383.931442 
L 612.194557 385.303709 
L 618.133083 387.114128 
L 624.07161 388.741062 
L 630.010136 356.193951 
L 638.40597 253.381617 
L 646.801803 239.835202 
L 655.197636 239.229039 
L 663.59347 237.789243 
L 671.989303 238.147638 
L 680.385136 239.506556 
L 697.176803 240.236366 
L 705.572636 240.776993 
L 739.15597 243.333784 
L 755.947636 244.42985 
L 806.322636 247.105317 
L 814.71847 247.463301 
L 831.510136 247.853345 
L 831.510136 247.853345 
" clip-path="url(#p2cfb6054bb)" style="fill: none; stroke: #ff0000; stroke-width: 3; stroke-linecap: square"/>
   </g>
   <g id="patch_3">
    <path d="M 99.837189 617.04 
L 99.837189 7.2 
" style="fill: none; stroke: #000000; stroke-width: 0.8; stroke-linejoin: miter; stroke-linecap: square"/>
   </g>
   <g id="patch_4">
    <path d="M 825.237189 617.04 
L 825.237189 7.2 
" style="fill: none; stroke: #000000; stroke-width: 0.8; stroke-linejoin: miter; stroke-linecap: square"/>
   </g>
   <g id="patch_5">
    <path d="M 99.837189 617.04 
L 825.237189 617.04 
" style="fill: none; stroke: #000000; stroke-width: 0.8; stroke-linejoin: miter; stroke-linecap: square"/>
   </g>
   <g id="patch_6">
    <path d="M 99.837189 7.2 
L 825.237189 7.2 
" style="fill: none; stroke: #000000; stroke-width: 0.8; stroke-linejoin: miter; stroke-linecap: square"/>
   </g>
   <g id="legend_1">
    <g id="patch_7">
     <path d="M 606.171262 132.764702 
L 800.737189 132.764702 
Q 807.737189 132.764702 807.737189 125.764702 
L 807.737189 31.7 
Q 807.737189 24.7 800.737189 24.7 
L 606.171262 24.7 
Q 599.171262 24.7 599.171262 31.7 
L 599.171262 125.764702 
Q 599.171262 132.764702 606.171262 132.764702 
z
" style="fill: #ffffff; stroke: #cccccc; stroke-linejoin: miter"/>
    </g>
    <g id="patch_8">
     <path d="M 613.171262 63.2 
L 683.171262 63.2 
L 683.171262 38.7 
L 613.171262 38.7 
z
" style="fill: #99ccff; fill-opacity: 0.7"/>
    </g>
    <g id="text_14">
     <!-- $\mu \pm \sigma$ -->
     <g transform="translate(711.171262 63.2) scale(0.35 -0.35)">
      <defs>
       <path id="CMMI12-16" d="M 922 140 
C 1082 -6 1318 -64 1536 -64 
C 1946 -64 2227 208 2374 405 
C 2438 69 2707 -64 2931 -64 
C 3123 -64 3277 50 3392 277 
C 3494 493 3584 879 3584 903 
C 3584 935 3558 960 3520 960 
C 3462 960 3456 928 3430 834 
C 3334 461 3213 64 2950 64 
C 2765 64 2752 229 2752 358 
C 2752 504 2810 735 2854 926 
L 3034 1615 
C 3059 1737 3130 2023 3162 2139 
C 3200 2292 3270 2567 3270 2592 
C 3270 2688 3194 2752 3098 2752 
C 3040 2752 2906 2726 2854 2535 
L 2406 760 
C 2374 632 2374 619 2291 517 
C 2214 409 1965 64 1562 64 
C 1203 64 1088 326 1088 625 
C 1088 811 1146 1034 1171 1143 
L 1459 2293 
C 1491 2414 1542 2618 1542 2657 
C 1542 2759 1459 2816 1376 2816 
C 1318 2816 1178 2797 1126 2592 
L 198 -1107 
C 192 -1139 179 -1177 179 -1216 
C 179 -1312 256 -1376 352 -1376 
C 538 -1376 576 -1228 621 -1050 
L 922 140 
z
" transform="scale(0.015625)"/>
       <path id="CMSY10-6" d="M 2618 1984 
L 4397 1984 
C 4506 1984 4621 1984 4621 2112 
C 4621 2240 4506 2240 4397 2240 
L 2618 2240 
L 2618 4018 
C 2618 4121 2618 4256 2490 4256 
C 2362 4256 2362 4140 2362 4038 
L 2362 2240 
L 576 2240 
C 467 2240 352 2240 352 2112 
C 352 1984 467 1984 576 1984 
L 2362 1984 
L 2362 256 
L 576 256 
C 467 256 352 256 352 128 
C 352 0 467 0 576 0 
L 4397 0 
C 4506 0 4621 0 4621 128 
C 4621 256 4506 256 4397 256 
L 2618 256 
L 2618 1984 
z
" transform="scale(0.015625)"/>
       <path id="CMMI12-1b" d="M 3251 2408 
C 3334 2408 3546 2408 3546 2612 
C 3546 2752 3424 2752 3309 2752 
L 1894 2752 
C 934 2752 243 1686 243 932 
C 243 390 595 -64 1171 -64 
C 1926 -64 2752 747 2752 1705 
C 2752 1954 2694 2196 2541 2408 
L 3251 2408 
z
M 1178 64 
C 851 64 614 313 614 754 
C 614 1137 845 2408 1786 2408 
C 2061 2408 2368 2274 2368 1781 
C 2368 1558 2266 1021 2042 652 
C 1811 275 1466 64 1178 64 
z
" transform="scale(0.015625)"/>
      </defs>
      <use xlink:href="#CMMI12-16" transform="scale(0.996264)"/>
      <use xlink:href="#CMSY10-6" transform="translate(80.830628 0) scale(0.996264)"/>
      <use xlink:href="#CMMI12-1b" transform="translate(180.457303 0) scale(0.996264)"/>
     </g>
    </g>
    <g id="line2d_24">
     <path d="M 613.171262 99.732351 
L 648.171262 99.732351 
L 683.171262 99.732351 
" style="fill: none; stroke: #ff0000; stroke-width: 3; stroke-linecap: square"/>
    </g>
    <g id="text_15">
     <!-- $\mu$ -->
     <g transform="translate(711.171262 111.982351) scale(0.35 -0.35)">
      <use xlink:href="#CMMI12-16" transform="scale(0.996264)"/>
     </g>
    </g>
   </g>
  </g>
 </g>
 <defs>
  <clipPath id="p2cfb6054bb">
   <rect x="99.837189" y="7.2" width="725.4" height="609.84"/>
  </clipPath>
 </defs>
</svg>
