<?xml version="1.0" encoding="utf-8" standalone="no"?>
<!DOCTYPE svg PUBLIC "-//W3C//DTD SVG 1.1//EN"
  "http://www.w3.org/Graphics/SVG/1.1/DTD/svg11.dtd">
<svg xmlns:xlink="http://www.w3.org/1999/xlink" width="814.732464pt" height="692.806049pt" viewBox="0 0 814.732464 692.806049" xmlns="http://www.w3.org/2000/svg" version="1.1">
 <metadata>
  <rdf:RDF xmlns:dc="http://purl.org/dc/elements/1.1/" xmlns:cc="http://creativecommons.org/ns#" xmlns:rdf="http://www.w3.org/1999/02/22-rdf-syntax-ns#">
   <cc:Work>
    <dc:type rdf:resource="http://purl.org/dc/dcmitype/StillImage"/>
    <dc:date>2025-03-26T12:44:20.946610</dc:date>
    <dc:format>image/svg+xml</dc:format>
    <dc:creator>
     <cc:Agent>
      <dc:title>Matplotlib v3.7.1, https://matplotlib.org/</dc:title>
     </cc:Agent>
    </dc:creator>
   </cc:Work>
  </rdf:RDF>
 </metadata>
 <defs>
  <style type="text/css">*{stroke-linejoin: round; stroke-linecap: butt}</style>
 </defs>
 <g id="figure_1">
  <g id="patch_1">
   <path d="M 0 692.806049 
L 814.732464 692.806049 
L 814.732464 0 
L 0 0 
z
" style="fill: #ffffff"/>
  </g>
  <g id="axes_1">
   <g id="patch_2">
    <path d="M 82.132464 617.04 
L 807.532464 617.04 
L 807.532464 7.2 
L 82.132464 7.2 
z
" style="fill: #ffffff"/>
   </g>
   <g id="PolyCollection_1">
    <path d="M 95.565797 522.578765 
L 95.565797 514.808241 
L 113.82296 514.808241 
L 127.150808 514.808241 
L 136.88038 514.808241 
L 143.983365 514.808241 
L 149.169117 514.808241 
L 152.955507 514.808241 
L 155.720628 514.808241 
L 157.740536 514.80658 
L 159.216804 514.783433 
L 160.395535 510.061809 
L 161.564 503.596666 
L 162.732464 472.307954 
L 163.93003 450.112661 
L 165.127596 428.382941 
L 166.325161 406.584245 
L 167.522727 395.208299 
L 168.720293 388.198391 
L 169.917859 386.022101 
L 171.115425 394.491254 
L 172.312991 392.877295 
L 173.510557 393.936032 
L 174.708122 394.274266 
L 175.905688 393.661594 
L 177.103254 393.232517 
L 178.30082 392.833636 
L 179.498386 392.240706 
L 180.695952 392.006926 
L 181.893518 391.601625 
L 183.091083 390.878303 
L 184.288649 390.361296 
L 185.486215 389.905527 
L 186.683781 389.592102 
L 187.881347 389.48099 
L 189.078913 389.307633 
L 190.276478 389.266996 
L 191.474044 389.290383 
L 192.67161 389.123146 
L 193.869176 388.934172 
L 195.066742 388.884098 
L 196.264308 388.933061 
L 197.461874 389.079923 
L 198.659439 389.064081 
L 199.857005 389.0054 
L 201.054571 388.952364 
L 202.252137 388.991044 
L 203.449703 389.158745 
L 204.64727 389.26326 
L 205.875006 389.31033 
L 207.146608 389.302812 
L 208.463968 389.349883 
L 209.829608 389.39637 
L 211.24611 389.445888 
L 212.714959 389.489862 
L 214.237923 389.527073 
L 215.817065 389.555698 
L 217.45465 389.570867 
L 219.152109 389.599426 
L 220.911216 389.620799 
L 222.734445 389.644081 
L 224.625128 389.68756 
L 226.587023 389.768245 
L 228.619242 389.844034 
L 230.726355 389.88811 
L 232.9122 389.922328 
L 235.176907 389.963829 
L 237.526301 390.034804 
L 239.961686 390.127769 
L 242.48595 390.252978 
L 245.104171 390.378561 
L 247.818657 390.492464 
L 250.632799 390.584325 
L 253.550458 390.695641 
L 256.575581 390.810005 
L 259.712074 390.914905 
L 262.963908 391.004954 
L 266.335378 391.079142 
L 269.83151 391.153731 
L 273.456199 391.242821 
L 277.214186 391.342728 
L 281.110791 391.442537 
L 285.151063 391.555481 
L 289.33984 391.64039 
L 293.682881 391.758155 
L 298.186044 391.867126 
L 302.855204 392.010501 
L 307.69626 392.140086 
L 312.690082 392.263651 
L 317.827904 392.369148 
L 323.154862 392.494735 
L 328.678419 392.63149 
L 334.405443 392.778721 
L 340.343562 392.913301 
L 346.500604 393.045862 
L 352.884536 393.189817 
L 359.50381 393.350005 
L 366.367211 393.513595 
L 373.483619 393.649747 
L 380.862319 393.776208 
L 388.513042 393.91831 
L 396.0659 394.030989 
L 401.70282 394.124249 
L 405.717076 394.164541 
L 408.576271 394.189652 
L 410.613207 394.203471 
L 412.06472 394.222763 
L 413.205487 394.24358 
L 414.336522 394.26283 
L 415.467556 394.281139 
L 416.598591 394.298371 
L 417.729625 394.319033 
L 418.860659 394.337604 
L 419.991694 394.355481 
L 421.122728 393.489068 
L 422.253763 232.414993 
L 423.078558 7.703902 
L 423.903353 51.403625 
L 424.728149 69.056156 
L 425.552944 91.727494 
L 426.377739 114.00806 
L 427.202535 130.892453 
L 428.02733 143.919021 
L 428.852125 155.598525 
L 429.676921 165.050164 
L 430.501716 173.020186 
L 431.326511 180.029292 
L 432.151307 186.130936 
L 432.976102 191.810282 
L 433.800898 196.666378 
L 434.625693 201.135011 
L 435.450488 205.065016 
L 436.275284 208.806016 
L 437.100079 211.807688 
L 437.924874 214.716049 
L 438.74967 217.389628 
L 439.574465 219.932855 
L 440.39926 222.319762 
L 441.224056 224.556317 
L 442.048851 226.544926 
L 442.873646 228.49483 
L 443.698442 230.103273 
L 444.523237 231.603427 
L 445.348033 233.033533 
L 446.172828 234.481027 
L 446.997623 235.784713 
L 447.822419 237.067665 
L 448.647214 238.250481 
L 449.472009 239.39694 
L 450.296805 240.54015 
L 451.1216 241.656367 
L 451.946395 242.768104 
L 452.771191 243.881888 
L 453.595986 244.999461 
L 454.420781 246.099795 
L 455.245577 247.1859 
L 456.070372 248.397864 
L 456.895168 249.715751 
L 457.719963 251.137102 
L 458.544758 252.713866 
L 459.378 254.464513 
L 460.262964 256.35976 
L 461.225601 258.619803 
L 462.263542 260.965007 
L 463.391057 263.595892 
L 464.614883 266.535743 
L 465.940755 270.584982 
L 467.379865 274.937678 
L 468.944963 279.733535 
L 470.646363 285.451084 
L 472.496259 290.782366 
L 474.508285 295.825623 
L 476.69738 300.250009 
L 479.080106 304.201338 
L 481.67353 307.374288 
L 484.493491 310.173163 
L 487.562434 310.822669 
L 490.897329 310.448546 
L 494.52115 308.758017 
L 498.452828 306.318013 
L 502.711679 303.009857 
L 507.315144 299.811987 
L 512.274543 297.291129 
L 517.592496 295.045703 
L 523.252043 292.909457 
L 529.166039 290.228324 
L 535.104565 287.648542 
L 541.043092 285.604705 
L 546.981619 283.994619 
L 552.920145 282.286342 
L 558.858672 279.981991 
L 564.797198 278.228176 
L 570.735725 276.927704 
L 576.674251 275.935254 
L 582.612778 275.316843 
L 588.551305 274.402622 
L 594.489831 273.18712 
L 600.428358 271.586025 
L 606.366884 271.536215 
L 612.305411 330.620792 
L 620.701244 450.965237 
L 629.097078 463.687416 
L 637.492911 465.883651 
L 645.888744 465.78661 
L 654.284578 465.876491 
L 662.680411 465.082524 
L 671.076244 464.683129 
L 679.472078 464.000279 
L 687.867911 463.337442 
L 696.263744 462.608422 
L 704.659578 462.082809 
L 713.055411 461.705046 
L 721.451244 461.438288 
L 729.847078 461.107392 
L 738.242911 460.7388 
L 746.638744 460.364303 
L 755.034578 459.942595 
L 763.430411 459.501096 
L 771.826244 459.121891 
L 780.222078 458.828841 
L 788.617911 458.640846 
L 797.013744 458.413462 
L 805.409578 458.227409 
L 813.805411 458.05194 
L 813.805411 478.421397 
L 813.805411 478.421397 
L 805.409578 478.483138 
L 797.013744 478.608715 
L 788.617911 478.875934 
L 780.222078 479.191301 
L 771.826244 479.403848 
L 763.430411 479.678447 
L 755.034578 479.863914 
L 746.638744 480.188882 
L 738.242911 480.447823 
L 729.847078 480.786637 
L 721.451244 481.248117 
L 713.055411 481.774351 
L 704.659578 482.267641 
L 696.263744 482.638267 
L 687.867911 482.817201 
L 679.472078 482.9292 
L 671.076244 482.868802 
L 662.680411 482.922223 
L 654.284578 483.941795 
L 645.888744 484.712583 
L 637.492911 482.887049 
L 629.097078 483.794428 
L 620.701244 479.347004 
L 612.305411 364.651422 
L 606.366884 310.214488 
L 600.428358 312.779436 
L 594.489831 314.310503 
L 588.551305 315.306166 
L 582.612778 315.936971 
L 576.674251 316.149049 
L 570.735725 316.757456 
L 564.797198 317.628988 
L 558.858672 318.93851 
L 552.920145 320.705899 
L 546.981619 321.909477 
L 541.043092 322.929183 
L 535.104565 324.192679 
L 529.166039 325.831296 
L 523.252043 327.418302 
L 517.592496 328.31096 
L 512.274543 329.29 
L 507.315144 330.606525 
L 502.711679 332.61779 
L 498.452828 334.771062 
L 494.52115 336.346932 
L 490.897329 337.091732 
L 487.562434 336.881927 
L 484.493491 335.839259 
L 481.67353 332.631321 
L 479.080106 329.078476 
L 476.69738 324.939028 
L 474.508285 320.277559 
L 472.496259 315.173183 
L 470.646363 309.62547 
L 468.944963 303.858072 
L 467.379865 299.096293 
L 465.940755 294.958978 
L 464.614883 291.575769 
L 463.391057 289.098513 
L 462.263542 286.642116 
L 461.225601 284.488109 
L 460.262964 282.390271 
L 459.378 280.599906 
L 458.544758 278.968834 
L 457.719963 277.448857 
L 456.895168 276.129839 
L 456.070372 274.896191 
L 455.245577 273.734816 
L 454.420781 272.727373 
L 453.595986 271.707355 
L 452.771191 270.651702 
L 451.946395 269.584201 
L 451.1216 268.531566 
L 450.296805 267.474552 
L 449.472009 266.432726 
L 448.647214 265.339776 
L 447.822419 264.219733 
L 446.997623 262.995962 
L 446.172828 261.74155 
L 445.348033 260.353326 
L 444.523237 258.964962 
L 443.698442 257.525914 
L 442.873646 256.028744 
L 442.048851 254.238059 
L 441.224056 252.464726 
L 440.39926 250.489994 
L 439.574465 248.422701 
L 438.74967 246.280017 
L 437.924874 244.114355 
L 437.100079 241.800252 
L 436.275284 239.51979 
L 435.450488 236.568027 
L 434.625693 233.616616 
L 433.800898 230.220545 
L 432.976102 226.534482 
L 432.151307 222.131435 
L 431.326511 217.381076 
L 430.501716 211.877454 
L 429.676921 205.860874 
L 428.852125 199.060109 
L 428.02733 190.694361 
L 427.202535 181.733984 
L 426.377739 170.160074 
L 425.552944 154.223094 
L 424.728149 137.735532 
L 423.903353 123.755992 
L 423.078558 161.341214 
L 422.253763 321.954849 
L 421.122728 426.49816 
L 419.991694 423.091404 
L 418.860659 423.084206 
L 417.729625 423.07714 
L 416.598591 423.0651 
L 415.467556 423.054693 
L 414.336522 423.042419 
L 413.205487 423.028799 
L 412.06472 423.01263 
L 410.613207 422.99216 
L 408.576271 422.956473 
L 405.717076 422.919674 
L 401.70282 422.853262 
L 396.0659 422.774162 
L 388.513042 422.697665 
L 380.862319 422.642727 
L 373.483619 422.624891 
L 366.367211 422.617124 
L 359.50381 422.611675 
L 352.884536 422.590066 
L 346.500604 422.563554 
L 340.343562 422.534418 
L 334.405443 422.519368 
L 328.678419 422.516206 
L 323.154862 422.477548 
L 317.827904 422.434861 
L 312.690082 422.374099 
L 307.69626 422.336327 
L 302.855204 422.306085 
L 298.186044 422.285036 
L 293.682881 422.238095 
L 289.33984 422.175625 
L 285.151063 422.113488 
L 281.110791 422.054749 
L 277.214186 422.020961 
L 273.456199 421.988381 
L 269.83151 421.953837 
L 266.335378 421.911361 
L 262.963908 421.880789 
L 259.712074 421.845869 
L 256.575581 421.811251 
L 253.550458 421.769214 
L 250.632799 421.730143 
L 247.818657 421.670193 
L 245.104171 421.614829 
L 242.48595 421.562289 
L 239.961686 421.542669 
L 237.526301 421.498678 
L 235.176907 421.488973 
L 232.9122 421.471373 
L 230.726355 421.46982 
L 228.619242 421.493444 
L 226.587023 421.54664 
L 224.625128 421.637706 
L 222.734445 421.69783 
L 220.911216 421.768011 
L 219.152109 421.839898 
L 217.45465 421.909931 
L 215.817065 421.973888 
L 214.237923 422.033832 
L 212.714959 422.120677 
L 211.24611 422.21928 
L 209.829608 422.315257 
L 208.463968 422.431526 
L 207.146608 422.499763 
L 205.875006 422.573859 
L 204.64727 422.648888 
L 203.449703 422.798561 
L 202.252137 422.962123 
L 201.054571 423.024359 
L 199.857005 422.997269 
L 198.659439 422.985196 
L 197.461874 423.003824 
L 196.264308 423.185303 
L 195.066742 423.309898 
L 193.869176 423.427997 
L 192.67161 423.343186 
L 191.474044 423.388666 
L 190.276478 423.454132 
L 189.078913 423.531728 
L 187.881347 423.545106 
L 186.683781 423.539924 
L 185.486215 423.595703 
L 184.288649 423.465835 
L 183.091083 423.254248 
L 181.893518 423.256377 
L 180.695952 423.098481 
L 179.498386 422.713899 
L 178.30082 422.833495 
L 177.103254 422.26671 
L 175.905688 422.2738 
L 174.708122 421.893763 
L 173.510557 420.518883 
L 172.312991 418.812531 
L 171.115425 419.046557 
L 169.917859 422.783151 
L 168.720293 421.966023 
L 167.522727 431.2319 
L 166.325161 437.500187 
L 165.127596 458.906933 
L 163.93003 476.3661 
L 162.732464 496.626698 
L 161.564 516.049087 
L 160.395535 521.509411 
L 159.216804 522.555867 
L 157.740536 522.577241 
L 155.720628 522.578765 
L 152.955507 522.578765 
L 149.169117 522.578765 
L 143.983365 522.578765 
L 136.88038 522.578765 
L 127.150808 522.578765 
L 113.82296 522.578765 
L 95.565797 522.578765 
z
" clip-path="url(#p92121f926d)" style="fill: #99ccff; fill-opacity: 0.7"/>
   </g>
   <g id="matplotlib.axis_1">
    <g id="xtick_1">
     <g id="line2d_1">
      <path d="M 162.732464 617.04 
L 162.732464 7.2 
" clip-path="url(#p92121f926d)" style="fill: none; stroke: #b0b0b0; stroke-width: 0.8; stroke-linecap: square"/>
     </g>
     <g id="line2d_2">
      <defs>
       <path id="medd5f9a1de" d="M 0 0 
L 0 3.5 
" style="stroke: #000000; stroke-width: 0.8"/>
      </defs>
      <g>
       <use xlink:href="#medd5f9a1de" x="162.732464" y="617.04" style="stroke: #000000; stroke-width: 0.8"/>
      </g>
     </g>
     <g id="text_1">
      <!-- $\mathdefault{0.0}$ -->
      <g transform="translate(144.960744 644.795495) scale(0.3 -0.3)">
       <defs>
        <path id="CMR17-30" d="M 2688 2025 
C 2688 2416 2682 3080 2413 3591 
C 2176 4039 1798 4198 1466 4198 
C 1158 4198 768 4058 525 3597 
C 269 3118 243 2524 243 2025 
C 243 1661 250 1106 448 619 
C 723 -39 1216 -128 1466 -128 
C 1760 -128 2208 -7 2470 600 
C 2662 1042 2688 1559 2688 2025 
z
M 1466 -26 
C 1056 -26 813 325 723 812 
C 653 1188 653 1738 653 2096 
C 653 2588 653 2997 736 3387 
C 858 3929 1216 4096 1466 4096 
C 1728 4096 2067 3923 2189 3400 
C 2272 3036 2278 2607 2278 2096 
C 2278 1680 2278 1169 2202 792 
C 2067 95 1690 -26 1466 -26 
z
" transform="scale(0.015625)"/>
        <path id="CMMI12-3a" d="M 1178 307 
C 1178 492 1024 619 870 619 
C 685 619 557 466 557 313 
C 557 128 710 0 864 0 
C 1050 0 1178 153 1178 307 
z
" transform="scale(0.015625)"/>
       </defs>
       <use xlink:href="#CMR17-30" transform="scale(0.996264)"/>
       <use xlink:href="#CMMI12-3a" transform="translate(45.690477 0) scale(0.996264)"/>
       <use xlink:href="#CMR17-30" transform="translate(72.787654 0) scale(0.996264)"/>
      </g>
     </g>
    </g>
    <g id="xtick_2">
     <g id="line2d_3">
      <path d="M 297.065797 617.04 
L 297.065797 7.2 
" clip-path="url(#p92121f926d)" style="fill: none; stroke: #b0b0b0; stroke-width: 0.8; stroke-linecap: square"/>
     </g>
     <g id="line2d_4">
      <g>
       <use xlink:href="#medd5f9a1de" x="297.065797" y="617.04" style="stroke: #000000; stroke-width: 0.8"/>
      </g>
     </g>
     <g id="text_2">
      <!-- $\mathdefault{0.1}$ -->
      <g transform="translate(279.294078 644.795495) scale(0.3 -0.3)">
       <defs>
        <path id="CMR17-31" d="M 1702 4058 
C 1702 4192 1696 4192 1606 4192 
C 1357 3916 979 3827 621 3827 
C 602 3827 570 3827 563 3808 
C 557 3795 557 3782 557 3648 
C 755 3648 1088 3686 1344 3839 
L 1344 461 
C 1344 236 1331 160 781 160 
L 589 160 
L 589 0 
C 896 0 1216 0 1523 0 
C 1830 0 2150 0 2458 0 
L 2458 160 
L 2266 160 
C 1715 160 1702 230 1702 458 
L 1702 4058 
z
" transform="scale(0.015625)"/>
       </defs>
       <use xlink:href="#CMR17-30" transform="scale(0.996264)"/>
       <use xlink:href="#CMMI12-3a" transform="translate(45.690477 0) scale(0.996264)"/>
       <use xlink:href="#CMR17-31" transform="translate(72.787654 0) scale(0.996264)"/>
      </g>
     </g>
    </g>
    <g id="xtick_3">
     <g id="line2d_5">
      <path d="M 431.399131 617.04 
L 431.399131 7.2 
" clip-path="url(#p92121f926d)" style="fill: none; stroke: #b0b0b0; stroke-width: 0.8; stroke-linecap: square"/>
     </g>
     <g id="line2d_6">
      <g>
       <use xlink:href="#medd5f9a1de" x="431.399131" y="617.04" style="stroke: #000000; stroke-width: 0.8"/>
      </g>
     </g>
     <g id="text_3">
      <!-- $\mathdefault{0.2}$ -->
      <g transform="translate(413.627411 644.795495) scale(0.3 -0.3)">
       <defs>
        <path id="CMR17-32" d="M 2669 989 
L 2554 989 
C 2490 536 2438 459 2413 420 
C 2381 369 1920 369 1830 369 
L 602 369 
C 832 619 1280 1072 1824 1597 
C 2214 1967 2669 2402 2669 3035 
C 2669 3790 2067 4224 1395 4224 
C 691 4224 262 3604 262 3030 
C 262 2780 448 2748 525 2748 
C 589 2748 781 2787 781 3010 
C 781 3207 614 3264 525 3264 
C 486 3264 448 3258 422 3245 
C 544 3790 915 4058 1306 4058 
C 1862 4058 2227 3617 2227 3035 
C 2227 2479 1901 2000 1536 1584 
L 262 146 
L 262 0 
L 2515 0 
L 2669 989 
z
" transform="scale(0.015625)"/>
       </defs>
       <use xlink:href="#CMR17-30" transform="scale(0.996264)"/>
       <use xlink:href="#CMMI12-3a" transform="translate(45.690477 0) scale(0.996264)"/>
       <use xlink:href="#CMR17-32" transform="translate(72.787654 0) scale(0.996264)"/>
      </g>
     </g>
    </g>
    <g id="xtick_4">
     <g id="line2d_7">
      <path d="M 565.732464 617.04 
L 565.732464 7.2 
" clip-path="url(#p92121f926d)" style="fill: none; stroke: #b0b0b0; stroke-width: 0.8; stroke-linecap: square"/>
     </g>
     <g id="line2d_8">
      <g>
       <use xlink:href="#medd5f9a1de" x="565.732464" y="617.04" style="stroke: #000000; stroke-width: 0.8"/>
      </g>
     </g>
     <g id="text_4">
      <!-- $\mathdefault{0.3}$ -->
      <g transform="translate(547.960744 644.795495) scale(0.3 -0.3)">
       <defs>
        <path id="CMR17-33" d="M 1414 2157 
C 1984 2157 2234 1662 2234 1090 
C 2234 320 1824 25 1453 25 
C 1114 25 563 194 390 693 
C 422 680 454 680 486 680 
C 640 680 755 782 755 948 
C 755 1133 614 1216 486 1216 
C 378 1216 211 1165 211 926 
C 211 335 787 -128 1466 -128 
C 2176 -128 2720 430 2720 1085 
C 2720 1707 2208 2157 1600 2227 
C 2086 2328 2554 2756 2554 3329 
C 2554 3820 2048 4179 1472 4179 
C 890 4179 378 3829 378 3329 
C 378 3110 544 3072 627 3072 
C 762 3072 877 3155 877 3321 
C 877 3486 762 3569 627 3569 
C 602 3569 570 3569 544 3557 
C 730 3959 1235 4032 1459 4032 
C 1683 4032 2106 3925 2106 3320 
C 2106 3143 2080 2828 1862 2550 
C 1670 2304 1453 2304 1242 2284 
C 1210 2284 1062 2269 1037 2269 
C 992 2263 966 2257 966 2208 
C 966 2163 973 2157 1101 2157 
L 1414 2157 
z
" transform="scale(0.015625)"/>
       </defs>
       <use xlink:href="#CMR17-30" transform="scale(0.996264)"/>
       <use xlink:href="#CMMI12-3a" transform="translate(45.690477 0) scale(0.996264)"/>
       <use xlink:href="#CMR17-33" transform="translate(72.787654 0) scale(0.996264)"/>
      </g>
     </g>
    </g>
    <g id="xtick_5">
     <g id="line2d_9">
      <path d="M 700.065797 617.04 
L 700.065797 7.2 
" clip-path="url(#p92121f926d)" style="fill: none; stroke: #b0b0b0; stroke-width: 0.8; stroke-linecap: square"/>
     </g>
     <g id="line2d_10">
      <g>
       <use xlink:href="#medd5f9a1de" x="700.065797" y="617.04" style="stroke: #000000; stroke-width: 0.8"/>
      </g>
     </g>
     <g id="text_5">
      <!-- $\mathdefault{0.4}$ -->
      <g transform="translate(682.294078 644.795495) scale(0.3 -0.3)">
       <defs>
        <path id="CMR17-34" d="M 2150 4122 
C 2150 4256 2144 4256 2029 4256 
L 128 1254 
L 128 1088 
L 1779 1088 
L 1779 457 
C 1779 224 1766 160 1318 160 
L 1197 160 
L 1197 0 
C 1402 0 1747 0 1965 0 
C 2182 0 2528 0 2733 0 
L 2733 160 
L 2611 160 
C 2163 160 2150 224 2150 457 
L 2150 1088 
L 2803 1088 
L 2803 1254 
L 2150 1254 
L 2150 4122 
z
M 1798 3703 
L 1798 1254 
L 256 1254 
L 1798 3703 
z
" transform="scale(0.015625)"/>
       </defs>
       <use xlink:href="#CMR17-30" transform="scale(0.996264)"/>
       <use xlink:href="#CMMI12-3a" transform="translate(45.690477 0) scale(0.996264)"/>
       <use xlink:href="#CMR17-34" transform="translate(72.787654 0) scale(0.996264)"/>
      </g>
     </g>
    </g>
    <g id="text_6">
     <!-- $x, \; \mathrm{m} $ -->
     <g transform="translate(409.179861 678.823697) scale(0.35 -0.35)">
      <defs>
       <path id="CMMI12-78" d="M 3034 2606 
C 2829 2567 2752 2414 2752 2293 
C 2752 2139 2874 2088 2963 2088 
C 3155 2088 3290 2254 3290 2427 
C 3290 2695 2982 2816 2714 2816 
C 2323 2816 2106 2433 2048 2312 
C 1901 2816 1504 2816 1389 2816 
C 736 2816 390 1980 390 1839 
C 390 1814 416 1782 461 1782 
C 512 1782 525 1820 538 1846 
C 755 2555 1184 2689 1370 2689 
C 1658 2689 1715 2420 1715 2267 
C 1715 2127 1677 1980 1600 1673 
L 1382 798 
C 1286 415 1101 64 762 64 
C 730 64 570 64 435 147 
C 666 192 717 383 717 460 
C 717 588 621 664 499 664 
C 346 664 179 530 179 326 
C 179 57 480 -64 755 -64 
C 1062 -64 1280 179 1414 441 
C 1517 64 1837 -64 2074 -64 
C 2726 -64 3072 773 3072 913 
C 3072 945 3046 971 3008 971 
C 2950 971 2944 939 2925 888 
C 2752 326 2381 64 2093 64 
C 1869 64 1747 230 1747 492 
C 1747 632 1773 734 1875 1156 
L 2099 2024 
C 2195 2408 2413 2689 2707 2689 
C 2720 2689 2899 2689 3034 2606 
z
" transform="scale(0.015625)"/>
       <path id="CMMI12-3b" d="M 1248 -31 
C 1248 343 1126 619 864 619 
C 659 619 557 453 557 313 
C 557 172 653 0 870 0 
C 954 0 1024 26 1082 83 
C 1094 96 1101 96 1107 96 
C 1120 96 1120 5 1120 -27 
C 1120 -240 1082 -659 710 -1080 
C 640 -1157 640 -1170 640 -1183 
C 640 -1216 672 -1248 704 -1248 
C 755 -1248 1248 -771 1248 -31 
z
" transform="scale(0.015625)"/>
       <path id="CMR17-6d" d="M 4326 1933 
C 4326 2252 4269 2790 3507 2790 
C 3072 2790 2771 2496 2656 2151 
L 2650 2151 
C 2573 2676 2195 2790 1837 2790 
C 1331 2790 1069 2400 973 2144 
L 966 2144 
L 966 2790 
L 211 2720 
L 211 2554 
C 589 2554 646 2515 646 2208 
L 646 428 
C 646 184 621 153 211 153 
L 211 -13 
C 365 0 646 0 813 0 
C 979 0 1267 0 1421 -13 
L 1421 153 
C 1011 153 986 178 986 428 
L 986 1658 
C 986 2247 1344 2688 1792 2688 
C 2266 2688 2317 2266 2317 1958 
L 2317 428 
C 2317 184 2291 153 1882 153 
L 1882 -13 
C 2035 0 2317 0 2483 0 
C 2650 0 2938 0 3091 -13 
L 3091 153 
C 2682 153 2656 178 2656 428 
L 2656 1658 
C 2656 2247 3014 2688 3462 2688 
C 3936 2688 3987 2266 3987 1958 
L 3987 428 
C 3987 184 3962 153 3552 153 
L 3552 -13 
C 3706 0 3987 0 4154 0 
C 4320 0 4608 0 4762 -13 
L 4762 153 
C 4352 153 4326 178 4326 428 
L 4326 1933 
z
" transform="scale(0.015625)"/>
      </defs>
      <use xlink:href="#CMMI12-78" transform="scale(0.996264)"/>
      <use xlink:href="#CMMI12-3b" transform="translate(55.43406 0) scale(0.996264)"/>
      <use xlink:href="#CMR17-6d" transform="translate(126.809651 0) scale(0.996264)"/>
     </g>
    </g>
   </g>
   <g id="matplotlib.axis_2">
    <g id="ytick_1">
     <g id="line2d_11">
      <path d="M 82.132464 583.16 
L 807.532464 583.16 
" clip-path="url(#p92121f926d)" style="fill: none; stroke: #b0b0b0; stroke-width: 0.8; stroke-linecap: square"/>
     </g>
     <g id="line2d_12">
      <defs>
       <path id="mce063b6977" d="M 0 0 
L -3.5 0 
" style="stroke: #000000; stroke-width: 0.8"/>
      </defs>
      <g>
       <use xlink:href="#mce063b6977" x="82.132464" y="583.16" style="stroke: #000000; stroke-width: 0.8"/>
      </g>
     </g>
     <g id="text_7">
      <!-- $\mathdefault{0}$ -->
      <g transform="translate(61.425321 593.537748) scale(0.3 -0.3)">
       <use xlink:href="#CMR17-30" transform="scale(0.996264)"/>
      </g>
     </g>
    </g>
    <g id="ytick_2">
     <g id="line2d_13">
      <path d="M 82.132464 515.4 
L 807.532464 515.4 
" clip-path="url(#p92121f926d)" style="fill: none; stroke: #b0b0b0; stroke-width: 0.8; stroke-linecap: square"/>
     </g>
     <g id="line2d_14">
      <g>
       <use xlink:href="#mce063b6977" x="82.132464" y="515.4" style="stroke: #000000; stroke-width: 0.8"/>
      </g>
     </g>
     <g id="text_8">
      <!-- $\mathdefault{1}$ -->
      <g transform="translate(61.425321 525.777748) scale(0.3 -0.3)">
       <use xlink:href="#CMR17-31" transform="scale(0.996264)"/>
      </g>
     </g>
    </g>
    <g id="ytick_3">
     <g id="line2d_15">
      <path d="M 82.132464 447.64 
L 807.532464 447.64 
" clip-path="url(#p92121f926d)" style="fill: none; stroke: #b0b0b0; stroke-width: 0.8; stroke-linecap: square"/>
     </g>
     <g id="line2d_16">
      <g>
       <use xlink:href="#mce063b6977" x="82.132464" y="447.64" style="stroke: #000000; stroke-width: 0.8"/>
      </g>
     </g>
     <g id="text_9">
      <!-- $\mathdefault{2}$ -->
      <g transform="translate(61.425321 458.017748) scale(0.3 -0.3)">
       <use xlink:href="#CMR17-32" transform="scale(0.996264)"/>
      </g>
     </g>
    </g>
    <g id="ytick_4">
     <g id="line2d_17">
      <path d="M 82.132464 379.88 
L 807.532464 379.88 
" clip-path="url(#p92121f926d)" style="fill: none; stroke: #b0b0b0; stroke-width: 0.8; stroke-linecap: square"/>
     </g>
     <g id="line2d_18">
      <g>
       <use xlink:href="#mce063b6977" x="82.132464" y="379.88" style="stroke: #000000; stroke-width: 0.8"/>
      </g>
     </g>
     <g id="text_10">
      <!-- $\mathdefault{3}$ -->
      <g transform="translate(61.425321 390.257748) scale(0.3 -0.3)">
       <use xlink:href="#CMR17-33" transform="scale(0.996264)"/>
      </g>
     </g>
    </g>
    <g id="ytick_5">
     <g id="line2d_19">
      <path d="M 82.132464 312.12 
L 807.532464 312.12 
" clip-path="url(#p92121f926d)" style="fill: none; stroke: #b0b0b0; stroke-width: 0.8; stroke-linecap: square"/>
     </g>
     <g id="line2d_20">
      <g>
       <use xlink:href="#mce063b6977" x="82.132464" y="312.12" style="stroke: #000000; stroke-width: 0.8"/>
      </g>
     </g>
     <g id="text_11">
      <!-- $\mathdefault{4}$ -->
      <g transform="translate(61.425321 322.497748) scale(0.3 -0.3)">
       <use xlink:href="#CMR17-34" transform="scale(0.996264)"/>
      </g>
     </g>
    </g>
    <g id="ytick_6">
     <g id="line2d_21">
      <path d="M 82.132464 244.36 
L 807.532464 244.36 
" clip-path="url(#p92121f926d)" style="fill: none; stroke: #b0b0b0; stroke-width: 0.8; stroke-linecap: square"/>
     </g>
     <g id="line2d_22">
      <g>
       <use xlink:href="#mce063b6977" x="82.132464" y="244.36" style="stroke: #000000; stroke-width: 0.8"/>
      </g>
     </g>
     <g id="text_12">
      <!-- $\mathdefault{5}$ -->
      <g transform="translate(61.425321 254.737748) scale(0.3 -0.3)">
       <defs>
        <path id="CMR17-35" d="M 730 3692 
C 794 3666 1056 3584 1325 3584 
C 1920 3584 2246 3911 2432 4100 
C 2432 4157 2432 4192 2394 4192 
C 2387 4192 2374 4192 2323 4163 
C 2099 4058 1837 3973 1517 3973 
C 1325 3973 1037 3999 723 4139 
C 653 4171 640 4171 634 4171 
C 602 4171 595 4164 595 4037 
L 595 2203 
C 595 2089 595 2057 659 2057 
C 691 2057 704 2070 736 2114 
C 941 2401 1222 2522 1542 2522 
C 1766 2522 2246 2382 2246 1289 
C 2246 1085 2246 715 2054 421 
C 1894 159 1645 25 1370 25 
C 947 25 518 320 403 814 
C 429 807 480 795 506 795 
C 589 795 749 840 749 1038 
C 749 1210 627 1280 506 1280 
C 358 1280 262 1190 262 1011 
C 262 454 704 -128 1382 -128 
C 2042 -128 2669 440 2669 1264 
C 2669 2030 2170 2624 1549 2624 
C 1222 2624 947 2503 730 2274 
L 730 3692 
z
" transform="scale(0.015625)"/>
       </defs>
       <use xlink:href="#CMR17-35" transform="scale(0.996264)"/>
      </g>
     </g>
    </g>
    <g id="ytick_7">
     <g id="line2d_23">
      <path d="M 82.132464 176.6 
L 807.532464 176.6 
" clip-path="url(#p92121f926d)" style="fill: none; stroke: #b0b0b0; stroke-width: 0.8; stroke-linecap: square"/>
     </g>
     <g id="line2d_24">
      <g>
       <use xlink:href="#mce063b6977" x="82.132464" y="176.6" style="stroke: #000000; stroke-width: 0.8"/>
      </g>
     </g>
     <g id="text_13">
      <!-- $\mathdefault{6}$ -->
      <g transform="translate(61.425321 186.977748) scale(0.3 -0.3)">
       <defs>
        <path id="CMR17-36" d="M 678 2176 
C 678 3690 1395 4032 1811 4032 
C 1946 4032 2272 4009 2400 3776 
C 2298 3776 2106 3776 2106 3553 
C 2106 3381 2246 3323 2336 3323 
C 2394 3323 2566 3348 2566 3560 
C 2566 3954 2246 4179 1805 4179 
C 1043 4179 243 3390 243 1984 
C 243 253 966 -128 1478 -128 
C 2099 -128 2688 427 2688 1283 
C 2688 2081 2170 2662 1517 2662 
C 1126 2662 838 2407 678 1960 
L 678 2176 
z
M 1478 25 
C 691 25 691 1200 691 1436 
C 691 1896 909 2560 1504 2560 
C 1613 2560 1926 2560 2138 2120 
C 2253 1870 2253 1609 2253 1289 
C 2253 944 2253 690 2118 434 
C 1978 171 1773 25 1478 25 
z
" transform="scale(0.015625)"/>
       </defs>
       <use xlink:href="#CMR17-36" transform="scale(0.996264)"/>
      </g>
     </g>
    </g>
    <g id="ytick_8">
     <g id="line2d_25">
      <path d="M 82.132464 108.84 
L 807.532464 108.84 
" clip-path="url(#p92121f926d)" style="fill: none; stroke: #b0b0b0; stroke-width: 0.8; stroke-linecap: square"/>
     </g>
     <g id="line2d_26">
      <g>
       <use xlink:href="#mce063b6977" x="82.132464" y="108.84" style="stroke: #000000; stroke-width: 0.8"/>
      </g>
     </g>
     <g id="text_14">
      <!-- $\mathdefault{7}$ -->
      <g transform="translate(61.425321 119.217748) scale(0.3 -0.3)">
       <defs>
        <path id="CMR17-37" d="M 2886 3941 
L 2886 4081 
L 1382 4081 
C 634 4081 621 4165 595 4288 
L 480 4288 
L 294 3094 
L 410 3094 
C 429 3215 474 3540 550 3661 
C 589 3712 1062 3712 1171 3712 
L 2579 3712 
L 1869 2661 
C 1395 1954 1069 999 1069 165 
C 1069 89 1069 -128 1299 -128 
C 1530 -128 1530 89 1530 171 
L 1530 465 
C 1530 1508 1709 2196 2003 2636 
L 2886 3941 
z
" transform="scale(0.015625)"/>
       </defs>
       <use xlink:href="#CMR17-37" transform="scale(0.996264)"/>
      </g>
     </g>
    </g>
    <g id="ytick_9">
     <g id="line2d_27">
      <path d="M 82.132464 41.08 
L 807.532464 41.08 
" clip-path="url(#p92121f926d)" style="fill: none; stroke: #b0b0b0; stroke-width: 0.8; stroke-linecap: square"/>
     </g>
     <g id="line2d_28">
      <g>
       <use xlink:href="#mce063b6977" x="82.132464" y="41.08" style="stroke: #000000; stroke-width: 0.8"/>
      </g>
     </g>
     <g id="text_15">
      <!-- $\mathdefault{8}$ -->
      <g transform="translate(61.425321 51.457748) scale(0.3 -0.3)">
       <defs>
        <path id="CMR17-38" d="M 1741 2264 
C 2144 2467 2554 2773 2554 3263 
C 2554 3841 1990 4179 1472 4179 
C 890 4179 378 3759 378 3180 
C 378 3021 416 2747 666 2505 
C 730 2442 998 2251 1171 2130 
C 883 1983 211 1634 211 934 
C 211 279 838 -128 1459 -128 
C 2144 -128 2720 362 2720 1010 
C 2720 1590 2330 1857 2074 2029 
L 1741 2264 
z
M 902 2822 
C 851 2854 595 3051 595 3351 
C 595 3739 998 4032 1459 4032 
C 1965 4032 2336 3676 2336 3262 
C 2336 2669 1670 2331 1638 2331 
C 1632 2331 1626 2331 1574 2370 
L 902 2822 
z
M 2080 1519 
C 2176 1449 2483 1240 2483 851 
C 2483 381 2010 25 1472 25 
C 890 25 448 438 448 940 
C 448 1443 838 1862 1280 2060 
L 2080 1519 
z
" transform="scale(0.015625)"/>
       </defs>
       <use xlink:href="#CMR17-38" transform="scale(0.996264)"/>
      </g>
     </g>
    </g>
    <g id="text_16">
     <!-- $\frac{T_{tr}}{T_{tr,\infty}}$ -->
     <g transform="translate(38.349699 337.153071) rotate(-90) scale(0.35 -0.35)">
      <defs>
       <path id="CMMI12-54" d="M 2669 3910 
C 2707 4064 2720 4121 2816 4147 
C 2867 4160 3078 4160 3213 4160 
C 3853 4160 4154 4134 4154 3634 
C 4154 3537 4128 3295 4090 3057 
L 4083 2980 
C 4083 2954 4109 2916 4147 2916 
C 4211 2916 4211 2948 4230 3050 
L 4416 4184 
C 4429 4243 4429 4256 4429 4275 
C 4429 4345 4390 4345 4262 4345 
L 762 4345 
C 614 4345 608 4339 570 4224 
L 179 3070 
C 173 3056 154 2986 154 2980 
C 154 2948 179 2916 218 2916 
C 269 2916 282 2941 307 3024 
C 576 3801 710 4160 1562 4160 
L 1990 4160 
C 2144 4160 2208 4160 2208 4089 
C 2208 4069 2208 4057 2176 3941 
L 1318 499 
C 1254 249 1242 185 563 185 
C 403 185 358 185 358 64 
C 358 0 429 0 461 0 
C 621 0 787 0 947 0 
L 1946 0 
C 2106 0 2278 0 2438 0 
C 2509 0 2573 0 2573 121 
C 2573 185 2528 185 2362 185 
C 1786 185 1786 243 1786 339 
C 1786 346 1786 391 1811 494 
L 2669 3910 
z
" transform="scale(0.015625)"/>
       <path id="CMMI12-74" d="M 1286 2566 
L 1875 2566 
C 1997 2566 2061 2566 2061 2681 
C 2061 2752 2022 2752 1894 2752 
L 1331 2752 
L 1568 3692 
C 1594 3781 1594 3794 1594 3840 
C 1594 3943 1510 4000 1427 4000 
C 1376 4000 1229 3981 1178 3775 
L 928 2752 
L 326 2752 
C 198 2752 141 2752 141 2630 
C 141 2566 186 2566 307 2566 
L 877 2566 
L 454 881 
C 403 658 384 594 384 511 
C 384 211 595 -64 954 -64 
C 1600 -64 1946 868 1946 912 
C 1946 951 1920 970 1882 970 
C 1869 970 1843 970 1830 944 
C 1824 938 1818 931 1773 829 
C 1638 511 1344 64 973 64 
C 781 64 768 224 768 364 
C 768 370 768 492 787 568 
L 1286 2566 
z
" transform="scale(0.015625)"/>
       <path id="CMMI12-72" d="M 2490 2612 
C 2291 2574 2189 2433 2189 2293 
C 2189 2139 2310 2088 2400 2088 
C 2579 2088 2726 2242 2726 2433 
C 2726 2638 2528 2816 2208 2816 
C 1952 2816 1658 2701 1389 2312 
C 1344 2650 1088 2816 832 2816 
C 582 2816 454 2625 378 2484 
C 269 2254 173 1871 173 1839 
C 173 1814 198 1782 243 1782 
C 294 1782 301 1788 339 1935 
C 435 2318 557 2689 813 2689 
C 966 2689 1011 2580 1011 2395 
C 1011 2254 947 2005 902 1807 
L 723 1118 
C 698 996 627 709 595 594 
C 550 428 480 128 480 96 
C 480 6 550 -64 646 -64 
C 717 -64 838 -19 877 109 
C 896 160 1133 1124 1171 1271 
C 1203 1411 1242 1546 1274 1686 
C 1299 1775 1325 1878 1344 1961 
C 1363 2018 1536 2331 1696 2472 
C 1773 2542 1939 2689 2202 2689 
C 2304 2689 2406 2670 2490 2612 
z
" transform="scale(0.015625)"/>
       <path id="CMSY10-31" d="M 3251 1730 
C 2906 2166 2829 2262 2630 2422 
C 2272 2710 1914 2825 1587 2825 
C 838 2825 352 2122 352 1374 
C 352 639 826 -70 1562 -70 
C 2298 -70 2829 511 3142 1022 
C 3488 588 3565 492 3763 332 
C 4122 45 4480 -70 4806 -70 
C 5555 -70 6042 633 6042 1380 
C 6042 2115 5568 2825 4832 2825 
C 4096 2825 3565 2242 3251 1730 
z
M 3418 1514 
C 3680 1975 4154 2620 4877 2620 
C 5555 2620 5901 1955 5901 1380 
C 5901 753 5472 236 4909 236 
C 4538 236 4250 505 4115 638 
C 3955 811 3808 1009 3418 1514 
z
M 2976 1240 
C 2714 780 2240 134 1517 134 
C 838 134 493 799 493 1374 
C 493 2000 922 2518 1485 2518 
C 1856 2518 2144 2249 2278 2115 
C 2438 1943 2586 1744 2976 1240 
z
" transform="scale(0.015625)"/>
      </defs>
      <use xlink:href="#CMMI12-54" transform="translate(30.326112 41.344728) scale(0.697382)"/>
      <use xlink:href="#CMMI12-74" transform="translate(70.348467 30.884032) scale(0.498132)"/>
      <use xlink:href="#CMMI12-72" transform="translate(87.961633 30.884032) scale(0.498132)"/>
      <use xlink:href="#CMMI12-54" transform="translate(0 -34.355253) scale(0.697382)"/>
      <use xlink:href="#CMMI12-74" transform="translate(40.022356 -44.815949) scale(0.498132)"/>
      <use xlink:href="#CMMI12-72" transform="translate(57.635521 -44.815949) scale(0.498132)"/>
      <use xlink:href="#CMMI12-3b" transform="translate(78.261102 -44.815949) scale(0.498132)"/>
      <use xlink:href="#CMSY10-31" transform="translate(91.80969 -44.815949) scale(0.498132)"/>
      <path d="M 0 22.914133 
L 142.121159 22.914133 
L 142.121159 26.899083 
L 0 26.899083 
L 0 22.914133 
z
"/>
     </g>
    </g>
   </g>
   <g id="line2d_29">
    <path d="M 95.565797 518.693503 
L 159.216804 518.66965 
L 160.395535 515.78561 
L 161.564 509.822877 
L 162.732464 484.467326 
L 166.325161 422.042216 
L 168.720293 405.082207 
L 169.917859 404.402626 
L 171.115425 406.768906 
L 172.312991 405.844913 
L 173.510557 407.227458 
L 174.708122 408.084014 
L 178.30082 407.833565 
L 179.498386 407.477302 
L 180.695952 407.552704 
L 181.893518 407.429001 
L 183.091083 407.066275 
L 187.881347 406.513048 
L 192.67161 406.233166 
L 199.857005 406.001335 
L 235.176907 405.726401 
L 245.104171 405.996695 
L 262.963908 406.442872 
L 401.70282 408.488755 
L 419.991694 408.723442 
L 421.122728 409.993614 
L 422.253763 277.184921 
L 423.078558 84.522558 
L 423.903353 87.579809 
L 424.728149 103.395844 
L 426.377739 142.084067 
L 427.202535 156.313218 
L 428.852125 177.329317 
L 429.676921 185.455519 
L 431.326511 198.705184 
L 432.976102 209.172382 
L 434.625693 217.375813 
L 436.275284 224.162903 
L 438.74967 231.834823 
L 440.39926 236.404878 
L 442.048851 240.391492 
L 442.873646 242.261787 
L 445.348033 246.693429 
L 446.997623 249.390338 
L 448.647214 251.795129 
L 453.595986 258.353408 
L 456.070372 261.647028 
L 457.719963 264.29298 
L 459.378 267.53221 
L 461.225601 271.553956 
L 464.614883 279.055756 
L 467.379865 287.016985 
L 468.944963 291.795803 
L 470.646363 297.538277 
L 472.496259 302.977774 
L 474.508285 308.051591 
L 476.69738 312.594518 
L 479.080106 316.639907 
L 481.67353 320.002805 
L 484.493491 323.006211 
L 487.562434 323.852298 
L 490.897329 323.770139 
L 494.52115 322.552474 
L 498.452828 320.544538 
L 502.711679 317.813824 
L 507.315144 315.209256 
L 512.274543 313.290565 
L 517.592496 311.678332 
L 523.252043 310.16388 
L 535.104565 305.920611 
L 541.043092 304.266944 
L 546.981619 302.952048 
L 552.920145 301.49612 
L 558.858672 299.46025 
L 564.797198 297.928582 
L 570.735725 296.84258 
L 576.674251 296.042151 
L 582.612778 295.626907 
L 588.551305 294.854394 
L 594.489831 293.748811 
L 600.428358 292.18273 
L 606.366884 290.875352 
L 612.305411 347.636107 
L 620.701244 465.156121 
L 629.097078 473.740922 
L 637.492911 474.38535 
L 645.888744 475.249596 
L 654.284578 474.909143 
L 662.680411 474.002373 
L 679.472078 473.464739 
L 696.263744 472.623344 
L 721.451244 471.343202 
L 738.242911 470.593311 
L 788.617911 468.75839 
L 805.409578 468.355274 
L 813.805411 468.236669 
L 813.805411 468.236669 
" clip-path="url(#p92121f926d)" style="fill: none; stroke: #ff0000; stroke-width: 3; stroke-linecap: square"/>
   </g>
   <g id="patch_3">
    <path d="M 82.132464 617.04 
L 82.132464 7.2 
" style="fill: none; stroke: #000000; stroke-width: 0.8; stroke-linejoin: miter; stroke-linecap: square"/>
   </g>
   <g id="patch_4">
    <path d="M 807.532464 617.04 
L 807.532464 7.2 
" style="fill: none; stroke: #000000; stroke-width: 0.8; stroke-linejoin: miter; stroke-linecap: square"/>
   </g>
   <g id="patch_5">
    <path d="M 82.132464 617.04 
L 807.532464 617.04 
" style="fill: none; stroke: #000000; stroke-width: 0.8; stroke-linejoin: miter; stroke-linecap: square"/>
   </g>
   <g id="patch_6">
    <path d="M 82.132464 7.2 
L 807.532464 7.2 
" style="fill: none; stroke: #000000; stroke-width: 0.8; stroke-linejoin: miter; stroke-linecap: square"/>
   </g>
   <g id="legend_1">
    <g id="patch_7">
     <path d="M 588.466537 132.764702 
L 783.032464 132.764702 
Q 790.032464 132.764702 790.032464 125.764702 
L 790.032464 31.7 
Q 790.032464 24.7 783.032464 24.7 
L 588.466537 24.7 
Q 581.466537 24.7 581.466537 31.7 
L 581.466537 125.764702 
Q 581.466537 132.764702 588.466537 132.764702 
z
" style="fill: #ffffff; stroke: #cccccc; stroke-linejoin: miter"/>
    </g>
    <g id="patch_8">
     <path d="M 595.466537 63.2 
L 665.466537 63.2 
L 665.466537 38.7 
L 595.466537 38.7 
z
" style="fill: #99ccff; fill-opacity: 0.7"/>
    </g>
    <g id="text_17">
     <!-- $\mu \pm \sigma$ -->
     <g transform="translate(693.466537 63.2) scale(0.35 -0.35)">
      <defs>
       <path id="CMMI12-16" d="M 922 140 
C 1082 -6 1318 -64 1536 -64 
C 1946 -64 2227 208 2374 405 
C 2438 69 2707 -64 2931 -64 
C 3123 -64 3277 50 3392 277 
C 3494 493 3584 879 3584 903 
C 3584 935 3558 960 3520 960 
C 3462 960 3456 928 3430 834 
C 3334 461 3213 64 2950 64 
C 2765 64 2752 229 2752 358 
C 2752 504 2810 735 2854 926 
L 3034 1615 
C 3059 1737 3130 2023 3162 2139 
C 3200 2292 3270 2567 3270 2592 
C 3270 2688 3194 2752 3098 2752 
C 3040 2752 2906 2726 2854 2535 
L 2406 760 
C 2374 632 2374 619 2291 517 
C 2214 409 1965 64 1562 64 
C 1203 64 1088 326 1088 625 
C 1088 811 1146 1034 1171 1143 
L 1459 2293 
C 1491 2414 1542 2618 1542 2657 
C 1542 2759 1459 2816 1376 2816 
C 1318 2816 1178 2797 1126 2592 
L 198 -1107 
C 192 -1139 179 -1177 179 -1216 
C 179 -1312 256 -1376 352 -1376 
C 538 -1376 576 -1228 621 -1050 
L 922 140 
z
" transform="scale(0.015625)"/>
       <path id="CMSY10-6" d="M 2618 1984 
L 4397 1984 
C 4506 1984 4621 1984 4621 2112 
C 4621 2240 4506 2240 4397 2240 
L 2618 2240 
L 2618 4018 
C 2618 4121 2618 4256 2490 4256 
C 2362 4256 2362 4140 2362 4038 
L 2362 2240 
L 576 2240 
C 467 2240 352 2240 352 2112 
C 352 1984 467 1984 576 1984 
L 2362 1984 
L 2362 256 
L 576 256 
C 467 256 352 256 352 128 
C 352 0 467 0 576 0 
L 4397 0 
C 4506 0 4621 0 4621 128 
C 4621 256 4506 256 4397 256 
L 2618 256 
L 2618 1984 
z
" transform="scale(0.015625)"/>
       <path id="CMMI12-1b" d="M 3251 2408 
C 3334 2408 3546 2408 3546 2612 
C 3546 2752 3424 2752 3309 2752 
L 1894 2752 
C 934 2752 243 1686 243 932 
C 243 390 595 -64 1171 -64 
C 1926 -64 2752 747 2752 1705 
C 2752 1954 2694 2196 2541 2408 
L 3251 2408 
z
M 1178 64 
C 851 64 614 313 614 754 
C 614 1137 845 2408 1786 2408 
C 2061 2408 2368 2274 2368 1781 
C 2368 1558 2266 1021 2042 652 
C 1811 275 1466 64 1178 64 
z
" transform="scale(0.015625)"/>
      </defs>
      <use xlink:href="#CMMI12-16" transform="scale(0.996264)"/>
      <use xlink:href="#CMSY10-6" transform="translate(80.830628 0) scale(0.996264)"/>
      <use xlink:href="#CMMI12-1b" transform="translate(180.457303 0) scale(0.996264)"/>
     </g>
    </g>
    <g id="line2d_30">
     <path d="M 595.466537 99.732351 
L 630.466537 99.732351 
L 665.466537 99.732351 
" style="fill: none; stroke: #ff0000; stroke-width: 3; stroke-linecap: square"/>
    </g>
    <g id="text_18">
     <!-- $\mu$ -->
     <g transform="translate(693.466537 111.982351) scale(0.35 -0.35)">
      <use xlink:href="#CMMI12-16" transform="scale(0.996264)"/>
     </g>
    </g>
   </g>
  </g>
 </g>
 <defs>
  <clipPath id="p92121f926d">
   <rect x="82.132464" y="7.2" width="725.4" height="609.84"/>
  </clipPath>
 </defs>
</svg>
