<?xml version="1.0" encoding="utf-8" standalone="no"?>
<!DOCTYPE svg PUBLIC "-//W3C//DTD SVG 1.1//EN"
  "http://www.w3.org/Graphics/SVG/1.1/DTD/svg11.dtd">
<svg xmlns:xlink="http://www.w3.org/1999/xlink" width="817.340543pt" height="692.806049pt" viewBox="0 0 817.340543 692.806049" xmlns="http://www.w3.org/2000/svg" version="1.1">
 <metadata>
  <rdf:RDF xmlns:dc="http://purl.org/dc/elements/1.1/" xmlns:cc="http://creativecommons.org/ns#" xmlns:rdf="http://www.w3.org/1999/02/22-rdf-syntax-ns#">
   <cc:Work>
    <dc:type rdf:resource="http://purl.org/dc/dcmitype/StillImage"/>
    <dc:date>2025-03-26T16:04:26.853980</dc:date>
    <dc:format>image/svg+xml</dc:format>
    <dc:creator>
     <cc:Agent>
      <dc:title>Matplotlib v3.7.1, https://matplotlib.org/</dc:title>
     </cc:Agent>
    </dc:creator>
   </cc:Work>
  </rdf:RDF>
 </metadata>
 <defs>
  <style type="text/css">*{stroke-linejoin: round; stroke-linecap: butt}</style>
 </defs>
 <g id="figure_1">
  <g id="patch_1">
   <path d="M 0 692.806049 
L 817.340543 692.806049 
L 817.340543 0 
L 0 0 
z
" style="fill: #ffffff"/>
  </g>
  <g id="axes_1">
   <g id="patch_2">
    <path d="M 84.740543 617.04 
L 810.140543 617.04 
L 810.140543 7.2 
L 84.740543 7.2 
z
" style="fill: #ffffff"/>
   </g>
   <g id="PolyCollection_1">
    <path d="M 9.178043 23.357471 
L 9.178043 605.312308 
L 29.717351 605.312308 
L 44.711179 605.312308 
L 55.656948 605.312308 
L 63.647806 605.312308 
L 69.481777 605.312308 
L 73.741466 605.312308 
L 76.852227 605.312308 
L 79.124624 605.312308 
L 80.785425 605.312308 
L 82.111498 605.312308 
L 83.42602 605.312308 
L 84.740543 605.312308 
L 86.087804 605.312308 
L 87.435066 605.312308 
L 88.782327 605.312308 
L 90.129589 605.312308 
L 91.47685 605.312308 
L 92.824112 605.312308 
L 94.171374 605.312308 
L 95.518635 605.312308 
L 96.865897 605.312308 
L 98.213158 605.312308 
L 99.56042 605.312308 
L 100.907682 605.312308 
L 102.254943 605.312308 
L 103.602205 605.312308 
L 104.949466 605.312308 
L 106.296728 605.312308 
L 107.643989 605.312308 
L 108.991251 605.312308 
L 110.338513 605.312308 
L 111.685774 605.312308 
L 113.033036 605.312308 
L 114.380297 605.312308 
L 115.727559 605.312308 
L 117.07482 605.312308 
L 118.422082 605.312308 
L 119.769344 605.312308 
L 121.116605 605.312308 
L 122.463867 605.312308 
L 123.811128 605.312308 
L 125.15839 605.312308 
L 126.505652 605.312308 
L 127.852913 605.312308 
L 129.200175 605.312308 
L 130.547436 605.312308 
L 131.894699 605.312308 
L 133.275902 605.312308 
L 134.706455 605.312308 
L 136.188485 605.312308 
L 137.72483 605.312308 
L 139.318394 605.312308 
L 140.970849 605.312308 
L 142.684184 605.312308 
L 144.460719 605.312308 
L 146.303001 605.312308 
L 148.212643 605.312308 
L 150.191638 605.312308 
L 152.242772 605.312308 
L 154.369789 605.312308 
L 156.576921 605.312308 
L 158.863167 605.312308 
L 161.23367 605.312308 
L 163.692746 605.312308 
L 166.240541 605.312308 
L 168.88361 605.312308 
L 171.623417 605.312308 
L 174.463215 605.312308 
L 177.408712 605.312308 
L 180.46251 605.312308 
L 183.628419 605.312308 
L 186.910786 605.312308 
L 190.314049 605.312308 
L 193.842604 605.312308 
L 197.500918 605.312308 
L 201.293821 605.312308 
L 205.22697 605.312308 
L 209.304744 605.312308 
L 213.53248 605.312308 
L 217.91616 605.312308 
L 222.461467 605.312308 
L 227.17384 605.312308 
L 232.059762 605.312308 
L 237.125821 605.312308 
L 242.378625 605.312308 
L 247.824813 605.312308 
L 253.442863 605.312308 
L 259.222913 605.312308 
L 265.21574 605.312308 
L 271.429742 605.312308 
L 277.872644 605.312308 
L 284.553028 605.312308 
L 291.4797 605.312308 
L 298.661623 605.312308 
L 306.108307 605.312308 
L 313.829633 605.312308 
L 321.835592 605.312308 
L 330.136629 605.312308 
L 338.743693 605.312308 
L 347.240659 605.312308 
L 353.582193 605.312308 
L 358.098232 605.312308 
L 361.314826 605.312308 
L 363.606378 605.312308 
L 365.239331 605.312308 
L 366.522694 605.312308 
L 367.795107 605.312308 
L 369.067521 605.312308 
L 370.339935 605.312308 
L 371.612349 605.312308 
L 372.884762 605.312308 
L 374.157176 605.312308 
L 375.42959 605.312308 
L 376.702003 605.312308 
L 377.629898 605.312308 
L 378.557793 605.312308 
L 379.485688 605.312308 
L 380.413583 605.312308 
L 381.341477 605.312308 
L 382.269372 605.312308 
L 383.197267 605.312308 
L 384.125162 605.312308 
L 385.053056 605.312308 
L 385.980951 605.312308 
L 386.908846 605.312308 
L 387.836741 605.312308 
L 388.764636 605.312308 
L 389.69253 605.312308 
L 390.620425 605.312308 
L 391.54832 605.312308 
L 392.476215 605.312308 
L 393.404109 605.312308 
L 394.332004 605.312308 
L 395.259899 605.312308 
L 396.187794 605.312308 
L 397.115689 605.312308 
L 398.043583 605.312308 
L 398.971478 605.312308 
L 399.899373 605.312308 
L 400.827268 605.312308 
L 401.755162 605.312308 
L 402.683057 605.312308 
L 403.610952 605.312308 
L 404.538847 605.312308 
L 405.466742 605.312308 
L 406.394636 605.312308 
L 407.322531 605.312308 
L 408.250426 605.312308 
L 409.178321 605.312308 
L 410.106215 605.312308 
L 411.03411 605.312308 
L 411.962005 605.312308 
L 412.8899 605.312308 
L 413.817795 605.312308 
L 414.745689 605.312308 
L 415.673584 605.312308 
L 416.601479 605.312308 
L 417.529374 605.312308 
L 418.466771 605.312308 
L 419.462355 605.312308 
L 420.545322 605.312308 
L 421.713006 605.312308 
L 422.98146 605.312308 
L 424.358264 605.312308 
L 425.84987 605.312308 
L 427.468869 605.312308 
L 429.229604 605.312308 
L 431.143679 605.312308 
L 433.224812 605.312308 
L 435.488341 605.312308 
L 437.951073 605.312308 
L 440.63164 605.312308 
L 443.549241 605.312308 
L 446.721698 605.312308 
L 450.174259 605.312308 
L 453.926016 605.312308 
L 458.002814 605.312308 
L 462.425952 605.312308 
L 467.21716 605.312308 
L 472.396058 605.312308 
L 477.975382 605.312308 
L 483.958078 605.312308 
L 490.325069 605.312308 
L 496.978314 605.312308 
L 503.659157 605.312308 
L 510.339999 605.312308 
L 517.020842 605.312308 
L 523.701684 605.312308 
L 530.382526 605.312308 
L 537.063369 605.312308 
L 543.744211 605.312308 
L 550.425053 605.312308 
L 557.105896 605.312308 
L 563.786738 605.312308 
L 570.467581 605.312308 
L 577.148423 605.312308 
L 583.829265 605.312308 
L 590.510108 605.312308 
L 599.95542 605.312308 
L 609.400733 605.312308 
L 618.846045 605.312308 
L 628.291358 605.312308 
L 637.73667 605.312308 
L 647.181983 605.312308 
L 656.627295 605.312308 
L 666.072608 605.312308 
L 675.51792 605.312308 
L 684.963233 605.312308 
L 694.408545 605.312308 
L 703.853858 605.312308 
L 713.29917 605.312308 
L 722.744483 605.312308 
L 732.189795 605.312308 
L 741.635108 605.312308 
L 751.08042 605.312308 
L 760.525733 605.312308 
L 769.971045 605.312308 
L 779.416358 605.312308 
L 788.86167 605.312308 
L 798.306983 605.312308 
L 807.752295 605.312308 
L 817.197608 605.312308 
L 817.197608 217.295539 
L 817.197608 217.295539 
L 807.752295 217.45572 
L 798.306983 217.527048 
L 788.86167 218.004497 
L 779.416358 218.256682 
L 769.971045 219.001952 
L 760.525733 219.546689 
L 751.08042 220.401151 
L 741.635108 221.269513 
L 732.189795 222.099331 
L 722.744483 223.400018 
L 713.29917 224.350381 
L 703.853858 226.238304 
L 694.408545 227.515341 
L 684.963233 229.758824 
L 675.51792 231.048754 
L 666.072608 233.14997 
L 656.627295 233.620004 
L 647.181983 235.04674 
L 637.73667 233.84567 
L 628.291358 233.030197 
L 618.846045 228.386597 
L 609.400733 227.906318 
L 599.95542 220.097351 
L 590.510108 224.769119 
L 583.829265 214.524139 
L 577.148423 218.507936 
L 570.467581 205.968725 
L 563.786738 203.635624 
L 557.105896 192.9728 
L 550.425053 188.005454 
L 543.744211 179.074197 
L 537.063369 175.855546 
L 530.382526 168.01678 
L 523.701684 166.526107 
L 517.020842 161.71505 
L 510.339999 161.511055 
L 503.659157 160.178457 
L 496.978314 157.613726 
L 490.325069 153.982601 
L 483.958078 149.638797 
L 477.975382 144.918236 
L 472.396058 140.03299 
L 467.21716 135.014273 
L 462.425952 130.090686 
L 458.002814 125.543049 
L 453.926016 121.352995 
L 450.174259 117.611463 
L 446.721698 113.893674 
L 443.549241 110.312492 
L 440.63164 106.835171 
L 437.951073 103.544969 
L 435.488341 100.345517 
L 433.224812 97.436893 
L 431.143679 94.755471 
L 429.229604 92.421593 
L 427.468869 90.569111 
L 425.84987 89.209751 
L 424.358264 90.915712 
L 422.98146 95.953025 
L 421.713006 99.977665 
L 420.545322 104.219521 
L 419.462355 107.356667 
L 418.466771 110.260391 
L 417.529374 112.381869 
L 416.601479 114.172553 
L 415.673584 115.52707 
L 414.745689 116.687218 
L 413.817795 117.662979 
L 412.8899 118.621375 
L 411.962005 119.617821 
L 411.03411 120.766802 
L 410.106215 122.108757 
L 409.178321 123.741598 
L 408.250426 125.59773 
L 407.322531 127.761776 
L 406.394636 130.099669 
L 405.466742 132.592955 
L 404.538847 135.13604 
L 403.610952 137.556668 
L 402.683057 139.863944 
L 401.755162 141.774532 
L 400.827268 143.433526 
L 399.899373 144.567329 
L 398.971478 145.416171 
L 398.043583 145.92362 
L 397.115689 146.276926 
L 396.187794 146.799607 
L 395.259899 147.442819 
L 394.332004 148.833573 
L 393.404109 150.547991 
L 392.476215 153.271522 
L 391.54832 156.258961 
L 390.620425 160.0243 
L 389.69253 163.906841 
L 388.764636 168.150696 
L 387.836741 172.875881 
L 386.908846 178.224542 
L 385.980951 184.883228 
L 385.053056 193.497839 
L 384.125162 203.974669 
L 383.197267 217.642619 
L 382.269372 233.369503 
L 381.341477 251.891092 
L 380.413583 270.717396 
L 379.485688 286.616247 
L 378.557793 140.447378 
L 377.629898 146.143502 
L 376.702003 216.335709 
L 375.42959 67.295294 
L 374.157176 61.631897 
L 372.884762 56.222728 
L 371.612349 50.906291 
L 370.339935 46.104089 
L 369.067521 41.415265 
L 367.795107 37.277733 
L 366.522694 34.4372 
L 365.239331 32.154339 
L 363.606378 30.253032 
L 361.314826 32.485505 
L 358.098232 32.194287 
L 353.582193 33.69268 
L 347.240659 34.10157 
L 338.743693 35.299676 
L 330.136629 36.123939 
L 321.835592 37.279671 
L 313.829633 38.276929 
L 306.108307 39.433459 
L 298.661623 40.450904 
L 291.4797 41.580871 
L 284.553028 42.556381 
L 277.872644 43.642628 
L 271.429742 44.585618 
L 265.21574 45.630162 
L 259.222913 46.559557 
L 253.442863 47.57072 
L 247.824813 48.491145 
L 242.378625 49.456336 
L 237.125821 50.320945 
L 232.059762 51.178796 
L 227.17384 51.885428 
L 222.461467 52.544095 
L 217.91616 52.991154 
L 213.53248 53.375948 
L 209.304744 53.507506 
L 205.22697 53.590546 
L 201.293821 53.436056 
L 197.500918 53.248163 
L 193.842604 52.9068 
L 190.314049 52.565238 
L 186.910786 52.209588 
L 183.628419 51.90395 
L 180.46251 51.752419 
L 177.408712 51.698365 
L 174.463215 51.946893 
L 171.623417 52.33093 
L 168.88361 53.109411 
L 166.240541 54.096513 
L 163.692746 55.487824 
L 161.23367 57.14501 
L 158.863167 59.157593 
L 156.576921 61.424797 
L 154.369789 63.962495 
L 152.242772 66.709765 
L 150.191638 69.664881 
L 148.212643 72.790164 
L 146.303001 76.071361 
L 144.460719 79.483921 
L 142.684184 83.000943 
L 140.970849 86.591934 
L 139.318394 90.207447 
L 137.72483 93.76332 
L 136.188485 97.143971 
L 134.706455 100.206539 
L 133.275902 102.780499 
L 131.894699 104.692195 
L 130.547436 105.766751 
L 129.200175 105.870984 
L 127.852913 104.981653 
L 126.505652 102.91464 
L 125.15839 99.454421 
L 123.811128 94.361234 
L 122.463867 87.301848 
L 121.116605 77.850479 
L 119.769344 65.494685 
L 118.422082 50.062823 
L 117.07482 32.251953 
L 115.727559 32.002822 
L 114.380297 33.538147 
L 113.033036 34.673146 
L 111.685774 37.503065 
L 110.338513 39.312855 
L 108.991251 40.211378 
L 107.643989 40.398351 
L 106.296728 41.160861 
L 104.949466 43.43991 
L 103.602205 48.546796 
L 102.254943 58.479449 
L 100.907682 73.521668 
L 99.56042 94.333208 
L 98.213158 118.08158 
L 96.865897 134.20642 
L 95.518635 146.218063 
L 94.171374 139.549575 
L 92.824112 130.87926 
L 91.47685 242.730114 
L 90.129589 242.705912 
L 88.782327 217.974072 
L 87.435066 188.41698 
L 86.087804 159.58785 
L 84.740543 133.928509 
L 83.42602 104.527992 
L 82.111498 88.4796 
L 80.785425 66.101455 
L 79.124624 54.849261 
L 76.852227 43.193949 
L 73.741466 36.33572 
L 69.481777 31.043557 
L 63.647806 27.668301 
L 55.656948 25.547045 
L 44.711179 24.358251 
L 29.717351 23.612549 
L 9.178043 23.357471 
z
" clip-path="url(#pdce386e4a6)" style="fill: #1f77b4"/>
   </g>
   <g id="PolyCollection_2">
    <path d="M 9.178043 23.296775 
L 9.178043 23.357471 
L 29.717351 23.612549 
L 44.711179 24.358251 
L 55.656948 25.547045 
L 63.647806 27.668301 
L 69.481777 31.043557 
L 73.741466 36.33572 
L 76.852227 43.193949 
L 79.124624 54.849261 
L 80.785425 66.101455 
L 82.111498 88.4796 
L 83.42602 104.527992 
L 84.740543 133.928509 
L 86.087804 159.58785 
L 87.435066 188.41698 
L 88.782327 217.974072 
L 90.129589 242.705912 
L 91.47685 242.730114 
L 92.824112 130.87926 
L 94.171374 139.549575 
L 95.518635 146.218063 
L 96.865897 134.20642 
L 98.213158 118.08158 
L 99.56042 94.333208 
L 100.907682 73.521668 
L 102.254943 58.479449 
L 103.602205 48.546796 
L 104.949466 43.43991 
L 106.296728 41.160861 
L 107.643989 40.398351 
L 108.991251 40.211378 
L 110.338513 39.312855 
L 111.685774 37.503065 
L 113.033036 34.673146 
L 114.380297 33.538147 
L 115.727559 32.002822 
L 117.07482 32.251953 
L 118.422082 50.062823 
L 119.769344 65.494685 
L 121.116605 77.850479 
L 122.463867 87.301848 
L 123.811128 94.361234 
L 125.15839 99.454421 
L 126.505652 102.91464 
L 127.852913 104.981653 
L 129.200175 105.870984 
L 130.547436 105.766751 
L 131.894699 104.692195 
L 133.275902 102.780499 
L 134.706455 100.206539 
L 136.188485 97.143971 
L 137.72483 93.76332 
L 139.318394 90.207447 
L 140.970849 86.591934 
L 142.684184 83.000943 
L 144.460719 79.483921 
L 146.303001 76.071361 
L 148.212643 72.790164 
L 150.191638 69.664881 
L 152.242772 66.709765 
L 154.369789 63.962495 
L 156.576921 61.424797 
L 158.863167 59.157593 
L 161.23367 57.14501 
L 163.692746 55.487824 
L 166.240541 54.096513 
L 168.88361 53.109411 
L 171.623417 52.33093 
L 174.463215 51.946893 
L 177.408712 51.698365 
L 180.46251 51.752419 
L 183.628419 51.90395 
L 186.910786 52.209588 
L 190.314049 52.565238 
L 193.842604 52.9068 
L 197.500918 53.248163 
L 201.293821 53.436056 
L 205.22697 53.590546 
L 209.304744 53.507506 
L 213.53248 53.375948 
L 217.91616 52.991154 
L 222.461467 52.544095 
L 227.17384 51.885428 
L 232.059762 51.178796 
L 237.125821 50.320945 
L 242.378625 49.456336 
L 247.824813 48.491145 
L 253.442863 47.57072 
L 259.222913 46.559557 
L 265.21574 45.630162 
L 271.429742 44.585618 
L 277.872644 43.642628 
L 284.553028 42.556381 
L 291.4797 41.580871 
L 298.661623 40.450904 
L 306.108307 39.433459 
L 313.829633 38.276929 
L 321.835592 37.279671 
L 330.136629 36.123939 
L 338.743693 35.299676 
L 347.240659 34.10157 
L 353.582193 33.69268 
L 358.098232 32.194287 
L 361.314826 32.485505 
L 363.606378 30.253032 
L 365.239331 32.154339 
L 366.522694 34.4372 
L 367.795107 37.277733 
L 369.067521 41.415265 
L 370.339935 46.104089 
L 371.612349 50.906291 
L 372.884762 56.222728 
L 374.157176 61.631897 
L 375.42959 67.295294 
L 376.702003 216.335709 
L 377.629898 146.143502 
L 378.557793 140.447378 
L 379.485688 286.616247 
L 380.413583 270.717396 
L 381.341477 251.891092 
L 382.269372 233.369503 
L 383.197267 217.642619 
L 384.125162 203.974669 
L 385.053056 193.497839 
L 385.980951 184.883228 
L 386.908846 178.224542 
L 387.836741 172.875881 
L 388.764636 168.150696 
L 389.69253 163.906841 
L 390.620425 160.0243 
L 391.54832 156.258961 
L 392.476215 153.271522 
L 393.404109 150.547991 
L 394.332004 148.833573 
L 395.259899 147.442819 
L 396.187794 146.799607 
L 397.115689 146.276926 
L 398.043583 145.92362 
L 398.971478 145.416171 
L 399.899373 144.567329 
L 400.827268 143.433526 
L 401.755162 141.774532 
L 402.683057 139.863944 
L 403.610952 137.556668 
L 404.538847 135.13604 
L 405.466742 132.592955 
L 406.394636 130.099669 
L 407.322531 127.761776 
L 408.250426 125.59773 
L 409.178321 123.741598 
L 410.106215 122.108757 
L 411.03411 120.766802 
L 411.962005 119.617821 
L 412.8899 118.621375 
L 413.817795 117.662979 
L 414.745689 116.687218 
L 415.673584 115.52707 
L 416.601479 114.172553 
L 417.529374 112.381869 
L 418.466771 110.260391 
L 419.462355 107.356667 
L 420.545322 104.219521 
L 421.713006 99.977665 
L 422.98146 95.953025 
L 424.358264 90.915712 
L 425.84987 89.209751 
L 427.468869 90.569111 
L 429.229604 92.421593 
L 431.143679 94.755471 
L 433.224812 97.436893 
L 435.488341 100.345517 
L 437.951073 103.544969 
L 440.63164 106.835171 
L 443.549241 110.312492 
L 446.721698 113.893674 
L 450.174259 117.611463 
L 453.926016 121.352995 
L 458.002814 125.543049 
L 462.425952 130.090686 
L 467.21716 135.014273 
L 472.396058 140.03299 
L 477.975382 144.918236 
L 483.958078 149.638797 
L 490.325069 153.982601 
L 496.978314 157.613726 
L 503.659157 160.178457 
L 510.339999 161.511055 
L 517.020842 161.71505 
L 523.701684 166.526107 
L 530.382526 168.01678 
L 537.063369 175.855546 
L 543.744211 179.074197 
L 550.425053 188.005454 
L 557.105896 192.9728 
L 563.786738 203.635624 
L 570.467581 205.968725 
L 577.148423 218.507936 
L 583.829265 214.524139 
L 590.510108 224.769119 
L 599.95542 220.097351 
L 609.400733 227.906318 
L 618.846045 228.386597 
L 628.291358 233.030197 
L 637.73667 233.84567 
L 647.181983 235.04674 
L 656.627295 233.620004 
L 666.072608 233.14997 
L 675.51792 231.048754 
L 684.963233 229.758824 
L 694.408545 227.515341 
L 703.853858 226.238304 
L 713.29917 224.350381 
L 722.744483 223.400018 
L 732.189795 222.099331 
L 741.635108 221.269513 
L 751.08042 220.401151 
L 760.525733 219.546689 
L 769.971045 219.001952 
L 779.416358 218.256682 
L 788.86167 218.004497 
L 798.306983 217.527048 
L 807.752295 217.45572 
L 817.197608 217.295539 
L 817.197608 184.086153 
L 817.197608 184.086153 
L 807.752295 184.144587 
L 798.306983 184.040911 
L 788.86167 184.279653 
L 779.416358 184.231532 
L 769.971045 184.72095 
L 760.525733 184.928164 
L 751.08042 185.524276 
L 741.635108 186.050713 
L 732.189795 186.449704 
L 722.744483 187.277755 
L 713.29917 187.351922 
L 703.853858 188.383329 
L 694.408545 188.162154 
L 684.963233 189.049043 
L 675.51792 188.211936 
L 666.072608 188.584544 
L 656.627295 186.288802 
L 647.181983 185.589324 
L 637.73667 180.941289 
L 628.291358 177.598483 
L 618.846045 169.291157 
L 609.400733 166.470744 
L 599.95542 155.476288 
L 590.510108 160.381059 
L 583.829265 149.220372 
L 577.148423 156.76946 
L 570.467581 146.909106 
L 563.786738 149.485112 
L 557.105896 142.984288 
L 550.425053 141.03162 
L 543.744211 135.744455 
L 537.063369 134.224485 
L 530.382526 129.875236 
L 523.701684 130.395257 
L 517.020842 129.014912 
L 510.339999 131.529662 
L 503.659157 132.915635 
L 496.978314 132.230485 
L 490.325069 129.624663 
L 483.958078 126.39537 
L 477.975382 121.867423 
L 472.396058 118.009776 
L 467.21716 113.745757 
L 462.425952 110.391989 
L 458.002814 107.976013 
L 453.926016 105.810955 
L 450.174259 104.96102 
L 446.721698 102.339915 
L 443.549241 101.134527 
L 440.63164 96.837758 
L 437.951073 94.559447 
L 435.488341 89.391305 
L 433.224812 85.901531 
L 431.143679 80.89255 
L 429.229604 76.998244 
L 427.468869 72.898932 
L 425.84987 69.623746 
L 424.358264 69.3983 
L 422.98146 72.827973 
L 421.713006 75.360295 
L 420.545322 78.391877 
L 419.462355 80.495053 
L 418.466771 82.68558 
L 417.529374 84.237366 
L 416.601479 85.716371 
L 415.673584 86.8368 
L 414.745689 87.843907 
L 413.817795 88.695074 
L 412.8899 89.397571 
L 411.962005 90.147459 
L 411.03411 90.785807 
L 410.106215 91.601622 
L 409.178321 92.44566 
L 408.250426 93.452662 
L 407.322531 94.610028 
L 406.394636 95.823703 
L 405.466742 97.179341 
L 404.538847 98.45424 
L 403.610952 99.733195 
L 402.683057 100.836646 
L 401.755162 101.75565 
L 400.827268 102.498227 
L 399.899373 102.908741 
L 398.971478 103.229076 
L 398.043583 103.263048 
L 397.115689 103.272835 
L 396.187794 103.375723 
L 395.259899 103.388596 
L 394.332004 104.126339 
L 393.404109 104.477807 
L 392.476215 106.086156 
L 391.54832 106.852836 
L 390.620425 109.08305 
L 389.69253 110.049636 
L 388.764636 112.543675 
L 387.836741 113.748311 
L 386.908846 116.675268 
L 385.980951 118.769302 
L 385.053056 123.291093 
L 384.125162 127.516388 
L 383.197267 134.831495 
L 382.269372 142.377225 
L 381.341477 152.26236 
L 380.413583 162.273163 
L 379.485688 171.259491 
L 378.557793 103.82286 
L 377.629898 146.143502 
L 376.702003 216.335709 
L 375.42959 67.295294 
L 374.157176 61.631897 
L 372.884762 56.222728 
L 371.612349 50.906291 
L 370.339935 46.104089 
L 369.067521 41.415265 
L 367.795107 37.277733 
L 366.522694 33.318984 
L 365.239331 29.876264 
L 363.606378 27.418696 
L 361.314826 29.721566 
L 358.098232 29.742896 
L 353.582193 31.68421 
L 347.240659 32.710464 
L 338.743693 34.485853 
L 330.136629 36.038078 
L 321.835592 37.279671 
L 313.829633 38.276929 
L 306.108307 39.433459 
L 298.661623 40.450904 
L 291.4797 41.580871 
L 284.553028 42.556381 
L 277.872644 43.642628 
L 271.429742 44.585618 
L 265.21574 45.630162 
L 259.222913 46.559557 
L 253.442863 47.57072 
L 247.824813 48.491145 
L 242.378625 49.456336 
L 237.125821 50.320945 
L 232.059762 51.178796 
L 227.17384 51.885428 
L 222.461467 52.544095 
L 217.91616 52.991154 
L 213.53248 53.375948 
L 209.304744 53.507506 
L 205.22697 53.590546 
L 201.293821 53.436056 
L 197.500918 53.248163 
L 193.842604 52.9068 
L 190.314049 52.565238 
L 186.910786 52.209588 
L 183.628419 51.90395 
L 180.46251 51.752419 
L 177.408712 51.698365 
L 174.463215 51.946893 
L 171.623417 52.33093 
L 168.88361 53.109411 
L 166.240541 54.096513 
L 163.692746 55.487824 
L 161.23367 57.14501 
L 158.863167 59.157593 
L 156.576921 61.424797 
L 154.369789 63.962495 
L 152.242772 66.709765 
L 150.191638 69.664881 
L 148.212643 72.790164 
L 146.303001 76.071361 
L 144.460719 79.483921 
L 142.684184 83.000943 
L 140.970849 86.591934 
L 139.318394 90.207447 
L 137.72483 93.76332 
L 136.188485 97.143971 
L 134.706455 100.206539 
L 133.275902 102.780499 
L 131.894699 104.692195 
L 130.547436 105.766751 
L 129.200175 105.870984 
L 127.852913 104.981653 
L 126.505652 102.91464 
L 125.15839 99.454421 
L 123.811128 94.361234 
L 122.463867 87.301848 
L 121.116605 77.850479 
L 119.769344 65.494685 
L 118.422082 50.062823 
L 117.07482 32.251953 
L 115.727559 31.084329 
L 114.380297 30.879667 
L 113.033036 30.562799 
L 111.685774 32.491948 
L 110.338513 33.769423 
L 108.991251 33.976369 
L 107.643989 33.758284 
L 106.296728 32.716762 
L 104.949466 33.051279 
L 103.602205 33.884587 
L 102.254943 38.465589 
L 100.907682 45.752254 
L 99.56042 57.794582 
L 98.213158 73.654139 
L 96.865897 88.452468 
L 95.518635 103.935436 
L 94.171374 106.934209 
L 92.824112 103.026407 
L 91.47685 191.468269 
L 90.129589 196.825887 
L 88.782327 183.127692 
L 87.435066 163.734667 
L 86.087804 144.396803 
L 84.740543 122.776276 
L 83.42602 102.357115 
L 82.111498 82.89978 
L 80.785425 66.101455 
L 79.124624 51.762168 
L 76.852227 43.193949 
L 73.741466 34.424484 
L 69.481777 31.043557 
L 63.647806 26.703128 
L 55.656948 25.547045 
L 44.711179 24.03134 
L 29.717351 23.612549 
L 9.178043 23.296775 
z
" clip-path="url(#pdce386e4a6)" style="fill: #ff7f0e"/>
   </g>
   <g id="PolyCollection_3">
    <path d="M 9.178043 23.29675 
L 9.178043 23.296775 
L 29.717351 23.612549 
L 44.711179 24.03134 
L 55.656948 25.547045 
L 63.647806 26.703128 
L 69.481777 31.043557 
L 73.741466 34.424484 
L 76.852227 43.193949 
L 79.124624 51.762168 
L 80.785425 66.101455 
L 82.111498 82.89978 
L 83.42602 102.357115 
L 84.740543 122.776276 
L 86.087804 144.396803 
L 87.435066 163.734667 
L 88.782327 183.127692 
L 90.129589 196.825887 
L 91.47685 191.468269 
L 92.824112 103.026407 
L 94.171374 106.934209 
L 95.518635 103.935436 
L 96.865897 88.452468 
L 98.213158 73.654139 
L 99.56042 57.794582 
L 100.907682 45.752254 
L 102.254943 38.465589 
L 103.602205 33.884587 
L 104.949466 33.051279 
L 106.296728 32.716762 
L 107.643989 33.758284 
L 108.991251 33.976369 
L 110.338513 33.769423 
L 111.685774 32.491948 
L 113.033036 30.562799 
L 114.380297 30.879667 
L 115.727559 31.084329 
L 117.07482 32.251953 
L 118.422082 50.062823 
L 119.769344 65.494685 
L 121.116605 77.850479 
L 122.463867 87.301848 
L 123.811128 94.361234 
L 125.15839 99.454421 
L 126.505652 102.91464 
L 127.852913 104.981653 
L 129.200175 105.870984 
L 130.547436 105.766751 
L 131.894699 104.692195 
L 133.275902 102.780499 
L 134.706455 100.206539 
L 136.188485 97.143971 
L 137.72483 93.76332 
L 139.318394 90.207447 
L 140.970849 86.591934 
L 142.684184 83.000943 
L 144.460719 79.483921 
L 146.303001 76.071361 
L 148.212643 72.790164 
L 150.191638 69.664881 
L 152.242772 66.709765 
L 154.369789 63.962495 
L 156.576921 61.424797 
L 158.863167 59.157593 
L 161.23367 57.14501 
L 163.692746 55.487824 
L 166.240541 54.096513 
L 168.88361 53.109411 
L 171.623417 52.33093 
L 174.463215 51.946893 
L 177.408712 51.698365 
L 180.46251 51.752419 
L 183.628419 51.90395 
L 186.910786 52.209588 
L 190.314049 52.565238 
L 193.842604 52.9068 
L 197.500918 53.248163 
L 201.293821 53.436056 
L 205.22697 53.590546 
L 209.304744 53.507506 
L 213.53248 53.375948 
L 217.91616 52.991154 
L 222.461467 52.544095 
L 227.17384 51.885428 
L 232.059762 51.178796 
L 237.125821 50.320945 
L 242.378625 49.456336 
L 247.824813 48.491145 
L 253.442863 47.57072 
L 259.222913 46.559557 
L 265.21574 45.630162 
L 271.429742 44.585618 
L 277.872644 43.642628 
L 284.553028 42.556381 
L 291.4797 41.580871 
L 298.661623 40.450904 
L 306.108307 39.433459 
L 313.829633 38.276929 
L 321.835592 37.279671 
L 330.136629 36.038078 
L 338.743693 34.485853 
L 347.240659 32.710464 
L 353.582193 31.68421 
L 358.098232 29.742896 
L 361.314826 29.721566 
L 363.606378 27.418696 
L 365.239331 29.876264 
L 366.522694 33.318984 
L 367.795107 37.277733 
L 369.067521 41.415265 
L 370.339935 46.104089 
L 371.612349 50.906291 
L 372.884762 56.222728 
L 374.157176 61.631897 
L 375.42959 67.295294 
L 376.702003 216.335709 
L 377.629898 146.143502 
L 378.557793 103.82286 
L 379.485688 171.259491 
L 380.413583 162.273163 
L 381.341477 152.26236 
L 382.269372 142.377225 
L 383.197267 134.831495 
L 384.125162 127.516388 
L 385.053056 123.291093 
L 385.980951 118.769302 
L 386.908846 116.675268 
L 387.836741 113.748311 
L 388.764636 112.543675 
L 389.69253 110.049636 
L 390.620425 109.08305 
L 391.54832 106.852836 
L 392.476215 106.086156 
L 393.404109 104.477807 
L 394.332004 104.126339 
L 395.259899 103.388596 
L 396.187794 103.375723 
L 397.115689 103.272835 
L 398.043583 103.263048 
L 398.971478 103.229076 
L 399.899373 102.908741 
L 400.827268 102.498227 
L 401.755162 101.75565 
L 402.683057 100.836646 
L 403.610952 99.733195 
L 404.538847 98.45424 
L 405.466742 97.179341 
L 406.394636 95.823703 
L 407.322531 94.610028 
L 408.250426 93.452662 
L 409.178321 92.44566 
L 410.106215 91.601622 
L 411.03411 90.785807 
L 411.962005 90.147459 
L 412.8899 89.397571 
L 413.817795 88.695074 
L 414.745689 87.843907 
L 415.673584 86.8368 
L 416.601479 85.716371 
L 417.529374 84.237366 
L 418.466771 82.68558 
L 419.462355 80.495053 
L 420.545322 78.391877 
L 421.713006 75.360295 
L 422.98146 72.827973 
L 424.358264 69.3983 
L 425.84987 69.623746 
L 427.468869 72.898932 
L 429.229604 76.998244 
L 431.143679 80.89255 
L 433.224812 85.901531 
L 435.488341 89.391305 
L 437.951073 94.559447 
L 440.63164 96.837758 
L 443.549241 101.134527 
L 446.721698 102.339915 
L 450.174259 104.96102 
L 453.926016 105.810955 
L 458.002814 107.976013 
L 462.425952 110.391989 
L 467.21716 113.745757 
L 472.396058 118.009776 
L 477.975382 121.867423 
L 483.958078 126.39537 
L 490.325069 129.624663 
L 496.978314 132.230485 
L 503.659157 132.915635 
L 510.339999 131.529662 
L 517.020842 129.014912 
L 523.701684 130.395257 
L 530.382526 129.875236 
L 537.063369 134.224485 
L 543.744211 135.744455 
L 550.425053 141.03162 
L 557.105896 142.984288 
L 563.786738 149.485112 
L 570.467581 146.909106 
L 577.148423 156.76946 
L 583.829265 149.220372 
L 590.510108 160.381059 
L 599.95542 155.476288 
L 609.400733 166.470744 
L 618.846045 169.291157 
L 628.291358 177.598483 
L 637.73667 180.941289 
L 647.181983 185.589324 
L 656.627295 186.288802 
L 666.072608 188.584544 
L 675.51792 188.211936 
L 684.963233 189.049043 
L 694.408545 188.162154 
L 703.853858 188.383329 
L 713.29917 187.351922 
L 722.744483 187.277755 
L 732.189795 186.449704 
L 741.635108 186.050713 
L 751.08042 185.524276 
L 760.525733 184.928164 
L 769.971045 184.72095 
L 779.416358 184.231532 
L 788.86167 184.279653 
L 798.306983 184.040911 
L 807.752295 184.144587 
L 817.197608 184.086153 
L 817.197608 58.604263 
L 817.197608 58.604263 
L 807.752295 58.670278 
L 798.306983 58.823852 
L 788.86167 59.009653 
L 779.416358 59.280926 
L 769.971045 59.553319 
L 760.525733 59.884583 
L 751.08042 60.196767 
L 741.635108 60.49889 
L 732.189795 60.771485 
L 722.744483 60.943639 
L 713.29917 61.089763 
L 703.853858 61.059275 
L 694.408545 60.990895 
L 684.963233 60.739272 
L 675.51792 60.498415 
L 666.072608 60.078284 
L 656.627295 59.731103 
L 647.181983 59.137994 
L 637.73667 58.585523 
L 628.291358 57.601837 
L 618.846045 56.736972 
L 609.400733 55.504641 
L 599.95542 55.102555 
L 590.510108 52.816754 
L 583.829265 52.066884 
L 577.148423 49.703943 
L 570.467581 48.998755 
L 563.786738 47.353518 
L 557.105896 46.266759 
L 550.425053 44.58823 
L 543.744211 42.947098 
L 537.063369 40.821108 
L 530.382526 38.880003 
L 523.701684 36.706326 
L 517.020842 36.989666 
L 510.339999 36.754369 
L 503.659157 40.172426 
L 496.978314 37.892882 
L 490.325069 38.304491 
L 483.958078 36.545782 
L 477.975382 37.34251 
L 472.396058 39.149676 
L 467.21716 42.546876 
L 462.425952 46.937148 
L 458.002814 51.652853 
L 453.926016 56.179635 
L 450.174259 59.442549 
L 446.721698 61.254725 
L 443.549241 60.75052 
L 440.63164 58.843815 
L 437.951073 55.687606 
L 435.488341 51.424634 
L 433.224812 46.96622 
L 431.143679 41.859465 
L 429.229604 36.672545 
L 427.468869 31.585377 
L 425.84987 26.004614 
L 424.358264 24.110877 
L 422.98146 24.972605 
L 421.713006 25.721095 
L 420.545322 26.417823 
L 419.462355 26.959742 
L 418.466771 27.493665 
L 417.529374 27.817383 
L 416.601479 28.199635 
L 415.673584 28.335775 
L 414.745689 28.573533 
L 413.817795 28.582247 
L 412.8899 28.689728 
L 411.962005 28.637447 
L 411.03411 28.660748 
L 410.106215 28.589751 
L 409.178321 28.590677 
L 408.250426 28.529421 
L 407.322531 28.54383 
L 406.394636 28.512575 
L 405.466742 28.54595 
L 404.538847 28.545335 
L 403.610952 28.591483 
L 402.683057 28.603426 
L 401.755162 28.653737 
L 400.827268 28.660121 
L 399.899373 28.722834 
L 398.971478 28.724528 
L 398.043583 28.844991 
L 397.115689 28.870484 
L 396.187794 29.130774 
L 395.259899 29.262493 
L 394.332004 29.747049 
L 393.404109 30.157342 
L 392.476215 30.967804 
L 391.54832 31.882329 
L 390.620425 33.182885 
L 389.69253 34.759666 
L 388.764636 36.662688 
L 387.836741 38.916048 
L 386.908846 41.482255 
L 385.980951 44.339177 
L 385.053056 47.359596 
L 384.125162 50.400369 
L 383.197267 53.155335 
L 382.269372 55.611687 
L 381.341477 57.787055 
L 380.413583 59.78104 
L 379.485688 60.402601 
L 378.557793 62.24526 
L 377.629898 146.143502 
L 376.702003 216.335709 
L 375.42959 67.295294 
L 374.157176 61.631897 
L 372.884762 56.222728 
L 371.612349 50.906291 
L 370.339935 46.104089 
L 369.067521 41.415265 
L 367.795107 37.277733 
L 366.522694 33.318984 
L 365.239331 29.876264 
L 363.606378 27.418696 
L 361.314826 29.721566 
L 358.098232 29.742896 
L 353.582193 31.68421 
L 347.240659 32.710464 
L 338.743693 34.485853 
L 330.136629 36.038078 
L 321.835592 37.279671 
L 313.829633 38.276929 
L 306.108307 39.433459 
L 298.661623 40.450904 
L 291.4797 41.580871 
L 284.553028 42.556381 
L 277.872644 43.642628 
L 271.429742 44.585618 
L 265.21574 45.630162 
L 259.222913 46.559557 
L 253.442863 47.57072 
L 247.824813 48.491145 
L 242.378625 49.456336 
L 237.125821 50.320945 
L 232.059762 51.178796 
L 227.17384 51.885428 
L 222.461467 52.544095 
L 217.91616 52.991154 
L 213.53248 53.375948 
L 209.304744 53.507506 
L 205.22697 53.590546 
L 201.293821 53.436056 
L 197.500918 53.248163 
L 193.842604 52.9068 
L 190.314049 52.565238 
L 186.910786 52.209588 
L 183.628419 51.90395 
L 180.46251 51.752419 
L 177.408712 51.698365 
L 174.463215 51.946893 
L 171.623417 52.33093 
L 168.88361 53.109411 
L 166.240541 54.096513 
L 163.692746 55.487824 
L 161.23367 57.14501 
L 158.863167 59.157593 
L 156.576921 61.424797 
L 154.369789 63.962495 
L 152.242772 66.709765 
L 150.191638 69.664881 
L 148.212643 72.790164 
L 146.303001 76.071361 
L 144.460719 79.483921 
L 142.684184 83.000943 
L 140.970849 86.591934 
L 139.318394 90.207447 
L 137.72483 93.76332 
L 136.188485 97.143971 
L 134.706455 100.206539 
L 133.275902 102.780499 
L 131.894699 104.692195 
L 130.547436 105.766751 
L 129.200175 105.870984 
L 127.852913 104.981653 
L 126.505652 102.91464 
L 125.15839 99.454421 
L 123.811128 94.361234 
L 122.463867 87.301848 
L 121.116605 77.850479 
L 119.769344 65.494685 
L 118.422082 50.062823 
L 117.07482 32.251953 
L 115.727559 31.084329 
L 114.380297 30.879667 
L 113.033036 30.562799 
L 111.685774 30.077796 
L 110.338513 29.48942 
L 108.991251 28.827437 
L 107.643989 28.133984 
L 106.296728 27.440172 
L 104.949466 26.790621 
L 103.602205 26.225937 
L 102.254943 25.771289 
L 100.907682 25.439553 
L 99.56042 25.160149 
L 98.213158 24.832853 
L 96.865897 24.154606 
L 95.518635 23.508261 
L 94.171374 22.627357 
L 92.824112 22.431025 
L 91.47685 26.680454 
L 90.129589 27.76473 
L 88.782327 28.934056 
L 87.435066 29.534891 
L 86.087804 30.57555 
L 84.740543 30.812496 
L 83.42602 31.09406 
L 82.111498 30.703557 
L 80.785425 30.144909 
L 79.124624 29.224078 
L 76.852227 28.236153 
L 73.741466 27.188585 
L 69.481777 26.188044 
L 63.647806 25.271325 
L 55.656948 24.515723 
L 44.711179 23.901782 
L 29.717351 23.510219 
L 9.178043 23.29675 
z
" clip-path="url(#pdce386e4a6)" style="fill: #2ca02c"/>
   </g>
   <g id="PolyCollection_4">
    <path d="M 9.178043 18.927692 
L 9.178043 23.29675 
L 29.717351 23.510219 
L 44.711179 23.901782 
L 55.656948 24.515723 
L 63.647806 25.271325 
L 69.481777 26.188044 
L 73.741466 27.188585 
L 76.852227 28.236153 
L 79.124624 29.224078 
L 80.785425 30.144909 
L 82.111498 30.703557 
L 83.42602 31.09406 
L 84.740543 30.812496 
L 86.087804 30.57555 
L 87.435066 29.534891 
L 88.782327 28.934056 
L 90.129589 27.76473 
L 91.47685 26.680454 
L 92.824112 22.431025 
L 94.171374 22.627357 
L 95.518635 23.508261 
L 96.865897 24.154606 
L 98.213158 24.832853 
L 99.56042 25.160149 
L 100.907682 25.439553 
L 102.254943 25.771289 
L 103.602205 26.225937 
L 104.949466 26.790621 
L 106.296728 27.440172 
L 107.643989 28.133984 
L 108.991251 28.827437 
L 110.338513 29.48942 
L 111.685774 30.077796 
L 113.033036 30.562799 
L 114.380297 30.879667 
L 115.727559 31.084329 
L 117.07482 32.251953 
L 118.422082 50.062823 
L 119.769344 65.494685 
L 121.116605 77.850479 
L 122.463867 87.301848 
L 123.811128 94.361234 
L 125.15839 99.454421 
L 126.505652 102.91464 
L 127.852913 104.981653 
L 129.200175 105.870984 
L 130.547436 105.766751 
L 131.894699 104.692195 
L 133.275902 102.780499 
L 134.706455 100.206539 
L 136.188485 97.143971 
L 137.72483 93.76332 
L 139.318394 90.207447 
L 140.970849 86.591934 
L 142.684184 83.000943 
L 144.460719 79.483921 
L 146.303001 76.071361 
L 148.212643 72.790164 
L 150.191638 69.664881 
L 152.242772 66.709765 
L 154.369789 63.962495 
L 156.576921 61.424797 
L 158.863167 59.157593 
L 161.23367 57.14501 
L 163.692746 55.487824 
L 166.240541 54.096513 
L 168.88361 53.109411 
L 171.623417 52.33093 
L 174.463215 51.946893 
L 177.408712 51.698365 
L 180.46251 51.752419 
L 183.628419 51.90395 
L 186.910786 52.209588 
L 190.314049 52.565238 
L 193.842604 52.9068 
L 197.500918 53.248163 
L 201.293821 53.436056 
L 205.22697 53.590546 
L 209.304744 53.507506 
L 213.53248 53.375948 
L 217.91616 52.991154 
L 222.461467 52.544095 
L 227.17384 51.885428 
L 232.059762 51.178796 
L 237.125821 50.320945 
L 242.378625 49.456336 
L 247.824813 48.491145 
L 253.442863 47.57072 
L 259.222913 46.559557 
L 265.21574 45.630162 
L 271.429742 44.585618 
L 277.872644 43.642628 
L 284.553028 42.556381 
L 291.4797 41.580871 
L 298.661623 40.450904 
L 306.108307 39.433459 
L 313.829633 38.276929 
L 321.835592 37.279671 
L 330.136629 36.038078 
L 338.743693 34.485853 
L 347.240659 32.710464 
L 353.582193 31.68421 
L 358.098232 29.742896 
L 361.314826 29.721566 
L 363.606378 27.418696 
L 365.239331 29.876264 
L 366.522694 33.318984 
L 367.795107 37.277733 
L 369.067521 41.415265 
L 370.339935 46.104089 
L 371.612349 50.906291 
L 372.884762 56.222728 
L 374.157176 61.631897 
L 375.42959 67.295294 
L 376.702003 216.335709 
L 377.629898 146.143502 
L 378.557793 62.24526 
L 379.485688 60.402601 
L 380.413583 59.78104 
L 381.341477 57.787055 
L 382.269372 55.611687 
L 383.197267 53.155335 
L 384.125162 50.400369 
L 385.053056 47.359596 
L 385.980951 44.339177 
L 386.908846 41.482255 
L 387.836741 38.916048 
L 388.764636 36.662688 
L 389.69253 34.759666 
L 390.620425 33.182885 
L 391.54832 31.882329 
L 392.476215 30.967804 
L 393.404109 30.157342 
L 394.332004 29.747049 
L 395.259899 29.262493 
L 396.187794 29.130774 
L 397.115689 28.870484 
L 398.043583 28.844991 
L 398.971478 28.724528 
L 399.899373 28.722834 
L 400.827268 28.660121 
L 401.755162 28.653737 
L 402.683057 28.603426 
L 403.610952 28.591483 
L 404.538847 28.545335 
L 405.466742 28.54595 
L 406.394636 28.512575 
L 407.322531 28.54383 
L 408.250426 28.529421 
L 409.178321 28.590677 
L 410.106215 28.589751 
L 411.03411 28.660748 
L 411.962005 28.637447 
L 412.8899 28.689728 
L 413.817795 28.582247 
L 414.745689 28.573533 
L 415.673584 28.335775 
L 416.601479 28.199635 
L 417.529374 27.817383 
L 418.466771 27.493665 
L 419.462355 26.959742 
L 420.545322 26.417823 
L 421.713006 25.721095 
L 422.98146 24.972605 
L 424.358264 24.110877 
L 425.84987 26.004614 
L 427.468869 31.585377 
L 429.229604 36.672545 
L 431.143679 41.859465 
L 433.224812 46.96622 
L 435.488341 51.424634 
L 437.951073 55.687606 
L 440.63164 58.843815 
L 443.549241 60.75052 
L 446.721698 61.254725 
L 450.174259 59.442549 
L 453.926016 56.179635 
L 458.002814 51.652853 
L 462.425952 46.937148 
L 467.21716 42.546876 
L 472.396058 39.149676 
L 477.975382 37.34251 
L 483.958078 36.545782 
L 490.325069 38.304491 
L 496.978314 37.892882 
L 503.659157 40.172426 
L 510.339999 36.754369 
L 517.020842 36.989666 
L 523.701684 36.706326 
L 530.382526 38.880003 
L 537.063369 40.821108 
L 543.744211 42.947098 
L 550.425053 44.58823 
L 557.105896 46.266759 
L 563.786738 47.353518 
L 570.467581 48.998755 
L 577.148423 49.703943 
L 583.829265 52.066884 
L 590.510108 52.816754 
L 599.95542 55.102555 
L 609.400733 55.504641 
L 618.846045 56.736972 
L 628.291358 57.601837 
L 637.73667 58.585523 
L 647.181983 59.137994 
L 656.627295 59.731103 
L 666.072608 60.078284 
L 675.51792 60.498415 
L 684.963233 60.739272 
L 694.408545 60.990895 
L 703.853858 61.059275 
L 713.29917 61.089763 
L 722.744483 60.943639 
L 732.189795 60.771485 
L 741.635108 60.49889 
L 751.08042 60.196767 
L 760.525733 59.884583 
L 769.971045 59.553319 
L 779.416358 59.280926 
L 788.86167 59.009653 
L 798.306983 58.823852 
L 807.752295 58.670278 
L 817.197608 58.604263 
L 817.197608 18.927692 
L 817.197608 18.927692 
L 807.752295 18.927692 
L 798.306983 18.927692 
L 788.86167 18.927692 
L 779.416358 18.927692 
L 769.971045 18.927692 
L 760.525733 18.927692 
L 751.08042 18.927692 
L 741.635108 18.927692 
L 732.189795 18.927692 
L 722.744483 18.927692 
L 713.29917 18.927692 
L 703.853858 18.927692 
L 694.408545 18.927692 
L 684.963233 18.927692 
L 675.51792 18.927692 
L 666.072608 18.927692 
L 656.627295 18.927692 
L 647.181983 18.927692 
L 637.73667 18.927692 
L 628.291358 18.927692 
L 618.846045 18.927692 
L 609.400733 18.927692 
L 599.95542 18.927692 
L 590.510108 18.927692 
L 583.829265 18.927692 
L 577.148423 18.927692 
L 570.467581 18.927692 
L 563.786738 18.927692 
L 557.105896 18.927692 
L 550.425053 18.927692 
L 543.744211 18.927692 
L 537.063369 18.927692 
L 530.382526 18.927692 
L 523.701684 18.927692 
L 517.020842 21.253613 
L 510.339999 23.276115 
L 503.659157 28.869489 
L 496.978314 28.621104 
L 490.325069 30.898111 
L 483.958078 30.857658 
L 477.975382 33.158968 
L 472.396058 36.355818 
L 467.21716 40.822706 
L 462.425952 46.256047 
L 458.002814 51.540181 
L 453.926016 56.179635 
L 450.174259 59.442549 
L 446.721698 61.254725 
L 443.549241 60.75052 
L 440.63164 58.843815 
L 437.951073 55.687606 
L 435.488341 51.424634 
L 433.224812 46.233158 
L 431.143679 40.436297 
L 429.229604 34.316389 
L 427.468869 28.32141 
L 425.84987 21.744041 
L 424.358264 18.927692 
L 422.98146 18.927692 
L 421.713006 18.927692 
L 420.545322 18.927692 
L 419.462355 18.927692 
L 418.466771 18.927692 
L 417.529374 18.927692 
L 416.601479 18.927692 
L 415.673584 18.927692 
L 414.745689 18.927692 
L 413.817795 18.927692 
L 412.8899 18.927692 
L 411.962005 18.927692 
L 411.03411 18.927692 
L 410.106215 18.927692 
L 409.178321 18.927692 
L 408.250426 18.927692 
L 407.322531 18.927692 
L 406.394636 18.927692 
L 405.466742 18.927692 
L 404.538847 18.927692 
L 403.610952 18.927692 
L 402.683057 18.927692 
L 401.755162 18.927692 
L 400.827268 18.927692 
L 399.899373 18.927692 
L 398.971478 18.927692 
L 398.043583 18.927692 
L 397.115689 18.927692 
L 396.187794 18.927692 
L 395.259899 18.927692 
L 394.332004 18.927692 
L 393.404109 18.927692 
L 392.476215 18.927692 
L 391.54832 18.927692 
L 390.620425 18.927692 
L 389.69253 18.927692 
L 388.764636 18.927692 
L 387.836741 18.927692 
L 386.908846 18.927692 
L 385.980951 18.927692 
L 385.053056 18.927692 
L 384.125162 18.927692 
L 383.197267 18.927692 
L 382.269372 18.927692 
L 381.341477 18.927692 
L 380.413583 18.927692 
L 379.485688 18.927692 
L 378.557793 18.927692 
L 377.629898 18.927692 
L 376.702003 18.927692 
L 375.42959 18.927692 
L 374.157176 18.927692 
L 372.884762 18.927692 
L 371.612349 18.927692 
L 370.339935 18.927692 
L 369.067521 18.927692 
L 367.795107 18.927692 
L 366.522694 18.927692 
L 365.239331 18.927692 
L 363.606378 19.595645 
L 361.314826 24.620501 
L 358.098232 26.958127 
L 353.582193 30.855531 
L 347.240659 32.710464 
L 338.743693 34.485853 
L 330.136629 36.038078 
L 321.835592 37.279671 
L 313.829633 38.276929 
L 306.108307 39.433459 
L 298.661623 40.450904 
L 291.4797 41.580871 
L 284.553028 42.556381 
L 277.872644 43.642628 
L 271.429742 44.585618 
L 265.21574 45.630162 
L 259.222913 46.559557 
L 253.442863 47.57072 
L 247.824813 48.491145 
L 242.378625 49.456336 
L 237.125821 50.320945 
L 232.059762 51.178796 
L 227.17384 51.885428 
L 222.461467 52.544095 
L 217.91616 52.991154 
L 213.53248 53.375948 
L 209.304744 53.507506 
L 205.22697 53.590546 
L 201.293821 53.436056 
L 197.500918 53.248163 
L 193.842604 52.9068 
L 190.314049 52.565238 
L 186.910786 52.209588 
L 183.628419 51.90395 
L 180.46251 51.752419 
L 177.408712 51.698365 
L 174.463215 51.946893 
L 171.623417 52.33093 
L 168.88361 53.109411 
L 166.240541 54.096513 
L 163.692746 55.487824 
L 161.23367 57.14501 
L 158.863167 59.157593 
L 156.576921 61.424797 
L 154.369789 63.962495 
L 152.242772 66.709765 
L 150.191638 69.664881 
L 148.212643 72.790164 
L 146.303001 76.071361 
L 144.460719 79.483921 
L 142.684184 83.000943 
L 140.970849 86.591934 
L 139.318394 90.207447 
L 137.72483 93.76332 
L 136.188485 97.143971 
L 134.706455 100.206539 
L 133.275902 102.780499 
L 131.894699 104.692195 
L 130.547436 104.922209 
L 129.200175 103.967731 
L 127.852913 101.921011 
L 126.505652 98.622027 
L 125.15839 93.866855 
L 123.811128 87.453826 
L 122.463867 79.090431 
L 121.116605 68.406691 
L 119.769344 54.949507 
L 118.422082 38.609001 
L 117.07482 20.122924 
L 115.727559 18.927692 
L 114.380297 18.927692 
L 113.033036 18.927692 
L 111.685774 18.927692 
L 110.338513 18.927692 
L 108.991251 18.927692 
L 107.643989 18.927692 
L 106.296728 18.927692 
L 104.949466 18.927692 
L 103.602205 18.927692 
L 102.254943 18.927692 
L 100.907682 18.927692 
L 99.56042 18.927692 
L 98.213158 18.927692 
L 96.865897 18.927692 
L 95.518635 18.927692 
L 94.171374 18.927692 
L 92.824112 18.927692 
L 91.47685 18.927692 
L 90.129589 18.927692 
L 88.782327 18.927692 
L 87.435066 18.927692 
L 86.087804 18.927692 
L 84.740543 18.927692 
L 83.42602 18.927692 
L 82.111498 18.927692 
L 80.785425 18.927692 
L 79.124624 18.927692 
L 76.852227 18.927692 
L 73.741466 18.927692 
L 69.481777 18.927692 
L 63.647806 18.927692 
L 55.656948 18.927692 
L 44.711179 18.927692 
L 29.717351 18.927692 
L 9.178043 18.927692 
z
" clip-path="url(#pdce386e4a6)" style="fill: #d62728"/>
   </g>
   <g id="matplotlib.axis_1">
    <g id="xtick_1">
     <g id="line2d_1">
      <path d="M 84.740543 617.04 
L 84.740543 7.2 
" clip-path="url(#pdce386e4a6)" style="fill: none; stroke: #b0b0b0; stroke-width: 0.8; stroke-linecap: square"/>
     </g>
     <g id="line2d_2">
      <defs>
       <path id="m663fecf555" d="M 0 0 
L 0 3.5 
" style="stroke: #000000; stroke-width: 0.8"/>
      </defs>
      <g>
       <use xlink:href="#m663fecf555" x="84.740543" y="617.04" style="stroke: #000000; stroke-width: 0.8"/>
      </g>
     </g>
     <g id="text_1">
      <!-- $\mathdefault{0.0}$ -->
      <g transform="translate(66.968823 644.795495) scale(0.3 -0.3)">
       <defs>
        <path id="CMR17-30" d="M 2688 2025 
C 2688 2416 2682 3080 2413 3591 
C 2176 4039 1798 4198 1466 4198 
C 1158 4198 768 4058 525 3597 
C 269 3118 243 2524 243 2025 
C 243 1661 250 1106 448 619 
C 723 -39 1216 -128 1466 -128 
C 1760 -128 2208 -7 2470 600 
C 2662 1042 2688 1559 2688 2025 
z
M 1466 -26 
C 1056 -26 813 325 723 812 
C 653 1188 653 1738 653 2096 
C 653 2588 653 2997 736 3387 
C 858 3929 1216 4096 1466 4096 
C 1728 4096 2067 3923 2189 3400 
C 2272 3036 2278 2607 2278 2096 
C 2278 1680 2278 1169 2202 792 
C 2067 95 1690 -26 1466 -26 
z
" transform="scale(0.015625)"/>
        <path id="CMMI12-3a" d="M 1178 307 
C 1178 492 1024 619 870 619 
C 685 619 557 466 557 313 
C 557 128 710 0 864 0 
C 1050 0 1178 153 1178 307 
z
" transform="scale(0.015625)"/>
       </defs>
       <use xlink:href="#CMR17-30" transform="scale(0.996264)"/>
       <use xlink:href="#CMMI12-3a" transform="translate(45.690477 0) scale(0.996264)"/>
       <use xlink:href="#CMR17-30" transform="translate(72.787654 0) scale(0.996264)"/>
      </g>
     </g>
    </g>
    <g id="xtick_2">
     <g id="line2d_3">
      <path d="M 235.865543 617.04 
L 235.865543 7.2 
" clip-path="url(#pdce386e4a6)" style="fill: none; stroke: #b0b0b0; stroke-width: 0.8; stroke-linecap: square"/>
     </g>
     <g id="line2d_4">
      <g>
       <use xlink:href="#m663fecf555" x="235.865543" y="617.04" style="stroke: #000000; stroke-width: 0.8"/>
      </g>
     </g>
     <g id="text_2">
      <!-- $\mathdefault{0.1}$ -->
      <g transform="translate(218.093823 644.795495) scale(0.3 -0.3)">
       <defs>
        <path id="CMR17-31" d="M 1702 4058 
C 1702 4192 1696 4192 1606 4192 
C 1357 3916 979 3827 621 3827 
C 602 3827 570 3827 563 3808 
C 557 3795 557 3782 557 3648 
C 755 3648 1088 3686 1344 3839 
L 1344 461 
C 1344 236 1331 160 781 160 
L 589 160 
L 589 0 
C 896 0 1216 0 1523 0 
C 1830 0 2150 0 2458 0 
L 2458 160 
L 2266 160 
C 1715 160 1702 230 1702 458 
L 1702 4058 
z
" transform="scale(0.015625)"/>
       </defs>
       <use xlink:href="#CMR17-30" transform="scale(0.996264)"/>
       <use xlink:href="#CMMI12-3a" transform="translate(45.690477 0) scale(0.996264)"/>
       <use xlink:href="#CMR17-31" transform="translate(72.787654 0) scale(0.996264)"/>
      </g>
     </g>
    </g>
    <g id="xtick_3">
     <g id="line2d_5">
      <path d="M 386.990543 617.04 
L 386.990543 7.2 
" clip-path="url(#pdce386e4a6)" style="fill: none; stroke: #b0b0b0; stroke-width: 0.8; stroke-linecap: square"/>
     </g>
     <g id="line2d_6">
      <g>
       <use xlink:href="#m663fecf555" x="386.990543" y="617.04" style="stroke: #000000; stroke-width: 0.8"/>
      </g>
     </g>
     <g id="text_3">
      <!-- $\mathdefault{0.2}$ -->
      <g transform="translate(369.218823 644.795495) scale(0.3 -0.3)">
       <defs>
        <path id="CMR17-32" d="M 2669 989 
L 2554 989 
C 2490 536 2438 459 2413 420 
C 2381 369 1920 369 1830 369 
L 602 369 
C 832 619 1280 1072 1824 1597 
C 2214 1967 2669 2402 2669 3035 
C 2669 3790 2067 4224 1395 4224 
C 691 4224 262 3604 262 3030 
C 262 2780 448 2748 525 2748 
C 589 2748 781 2787 781 3010 
C 781 3207 614 3264 525 3264 
C 486 3264 448 3258 422 3245 
C 544 3790 915 4058 1306 4058 
C 1862 4058 2227 3617 2227 3035 
C 2227 2479 1901 2000 1536 1584 
L 262 146 
L 262 0 
L 2515 0 
L 2669 989 
z
" transform="scale(0.015625)"/>
       </defs>
       <use xlink:href="#CMR17-30" transform="scale(0.996264)"/>
       <use xlink:href="#CMMI12-3a" transform="translate(45.690477 0) scale(0.996264)"/>
       <use xlink:href="#CMR17-32" transform="translate(72.787654 0) scale(0.996264)"/>
      </g>
     </g>
    </g>
    <g id="xtick_4">
     <g id="line2d_7">
      <path d="M 538.115543 617.04 
L 538.115543 7.2 
" clip-path="url(#pdce386e4a6)" style="fill: none; stroke: #b0b0b0; stroke-width: 0.8; stroke-linecap: square"/>
     </g>
     <g id="line2d_8">
      <g>
       <use xlink:href="#m663fecf555" x="538.115543" y="617.04" style="stroke: #000000; stroke-width: 0.8"/>
      </g>
     </g>
     <g id="text_4">
      <!-- $\mathdefault{0.3}$ -->
      <g transform="translate(520.343823 644.795495) scale(0.3 -0.3)">
       <defs>
        <path id="CMR17-33" d="M 1414 2157 
C 1984 2157 2234 1662 2234 1090 
C 2234 320 1824 25 1453 25 
C 1114 25 563 194 390 693 
C 422 680 454 680 486 680 
C 640 680 755 782 755 948 
C 755 1133 614 1216 486 1216 
C 378 1216 211 1165 211 926 
C 211 335 787 -128 1466 -128 
C 2176 -128 2720 430 2720 1085 
C 2720 1707 2208 2157 1600 2227 
C 2086 2328 2554 2756 2554 3329 
C 2554 3820 2048 4179 1472 4179 
C 890 4179 378 3829 378 3329 
C 378 3110 544 3072 627 3072 
C 762 3072 877 3155 877 3321 
C 877 3486 762 3569 627 3569 
C 602 3569 570 3569 544 3557 
C 730 3959 1235 4032 1459 4032 
C 1683 4032 2106 3925 2106 3320 
C 2106 3143 2080 2828 1862 2550 
C 1670 2304 1453 2304 1242 2284 
C 1210 2284 1062 2269 1037 2269 
C 992 2263 966 2257 966 2208 
C 966 2163 973 2157 1101 2157 
L 1414 2157 
z
" transform="scale(0.015625)"/>
       </defs>
       <use xlink:href="#CMR17-30" transform="scale(0.996264)"/>
       <use xlink:href="#CMMI12-3a" transform="translate(45.690477 0) scale(0.996264)"/>
       <use xlink:href="#CMR17-33" transform="translate(72.787654 0) scale(0.996264)"/>
      </g>
     </g>
    </g>
    <g id="xtick_5">
     <g id="line2d_9">
      <path d="M 689.240543 617.04 
L 689.240543 7.2 
" clip-path="url(#pdce386e4a6)" style="fill: none; stroke: #b0b0b0; stroke-width: 0.8; stroke-linecap: square"/>
     </g>
     <g id="line2d_10">
      <g>
       <use xlink:href="#m663fecf555" x="689.240543" y="617.04" style="stroke: #000000; stroke-width: 0.8"/>
      </g>
     </g>
     <g id="text_5">
      <!-- $\mathdefault{0.4}$ -->
      <g transform="translate(671.468823 644.795495) scale(0.3 -0.3)">
       <defs>
        <path id="CMR17-34" d="M 2150 4122 
C 2150 4256 2144 4256 2029 4256 
L 128 1254 
L 128 1088 
L 1779 1088 
L 1779 457 
C 1779 224 1766 160 1318 160 
L 1197 160 
L 1197 0 
C 1402 0 1747 0 1965 0 
C 2182 0 2528 0 2733 0 
L 2733 160 
L 2611 160 
C 2163 160 2150 224 2150 457 
L 2150 1088 
L 2803 1088 
L 2803 1254 
L 2150 1254 
L 2150 4122 
z
M 1798 3703 
L 1798 1254 
L 256 1254 
L 1798 3703 
z
" transform="scale(0.015625)"/>
       </defs>
       <use xlink:href="#CMR17-30" transform="scale(0.996264)"/>
       <use xlink:href="#CMMI12-3a" transform="translate(45.690477 0) scale(0.996264)"/>
       <use xlink:href="#CMR17-34" transform="translate(72.787654 0) scale(0.996264)"/>
      </g>
     </g>
    </g>
    <g id="text_6">
     <!-- $x, \; \mathrm{m} $ -->
     <g transform="translate(411.787939 678.823697) scale(0.35 -0.35)">
      <defs>
       <path id="CMMI12-78" d="M 3034 2606 
C 2829 2567 2752 2414 2752 2293 
C 2752 2139 2874 2088 2963 2088 
C 3155 2088 3290 2254 3290 2427 
C 3290 2695 2982 2816 2714 2816 
C 2323 2816 2106 2433 2048 2312 
C 1901 2816 1504 2816 1389 2816 
C 736 2816 390 1980 390 1839 
C 390 1814 416 1782 461 1782 
C 512 1782 525 1820 538 1846 
C 755 2555 1184 2689 1370 2689 
C 1658 2689 1715 2420 1715 2267 
C 1715 2127 1677 1980 1600 1673 
L 1382 798 
C 1286 415 1101 64 762 64 
C 730 64 570 64 435 147 
C 666 192 717 383 717 460 
C 717 588 621 664 499 664 
C 346 664 179 530 179 326 
C 179 57 480 -64 755 -64 
C 1062 -64 1280 179 1414 441 
C 1517 64 1837 -64 2074 -64 
C 2726 -64 3072 773 3072 913 
C 3072 945 3046 971 3008 971 
C 2950 971 2944 939 2925 888 
C 2752 326 2381 64 2093 64 
C 1869 64 1747 230 1747 492 
C 1747 632 1773 734 1875 1156 
L 2099 2024 
C 2195 2408 2413 2689 2707 2689 
C 2720 2689 2899 2689 3034 2606 
z
" transform="scale(0.015625)"/>
       <path id="CMMI12-3b" d="M 1248 -31 
C 1248 343 1126 619 864 619 
C 659 619 557 453 557 313 
C 557 172 653 0 870 0 
C 954 0 1024 26 1082 83 
C 1094 96 1101 96 1107 96 
C 1120 96 1120 5 1120 -27 
C 1120 -240 1082 -659 710 -1080 
C 640 -1157 640 -1170 640 -1183 
C 640 -1216 672 -1248 704 -1248 
C 755 -1248 1248 -771 1248 -31 
z
" transform="scale(0.015625)"/>
       <path id="CMR17-6d" d="M 4326 1933 
C 4326 2252 4269 2790 3507 2790 
C 3072 2790 2771 2496 2656 2151 
L 2650 2151 
C 2573 2676 2195 2790 1837 2790 
C 1331 2790 1069 2400 973 2144 
L 966 2144 
L 966 2790 
L 211 2720 
L 211 2554 
C 589 2554 646 2515 646 2208 
L 646 428 
C 646 184 621 153 211 153 
L 211 -13 
C 365 0 646 0 813 0 
C 979 0 1267 0 1421 -13 
L 1421 153 
C 1011 153 986 178 986 428 
L 986 1658 
C 986 2247 1344 2688 1792 2688 
C 2266 2688 2317 2266 2317 1958 
L 2317 428 
C 2317 184 2291 153 1882 153 
L 1882 -13 
C 2035 0 2317 0 2483 0 
C 2650 0 2938 0 3091 -13 
L 3091 153 
C 2682 153 2656 178 2656 428 
L 2656 1658 
C 2656 2247 3014 2688 3462 2688 
C 3936 2688 3987 2266 3987 1958 
L 3987 428 
C 3987 184 3962 153 3552 153 
L 3552 -13 
C 3706 0 3987 0 4154 0 
C 4320 0 4608 0 4762 -13 
L 4762 153 
C 4352 153 4326 178 4326 428 
L 4326 1933 
z
" transform="scale(0.015625)"/>
      </defs>
      <use xlink:href="#CMMI12-78" transform="scale(0.996264)"/>
      <use xlink:href="#CMMI12-3b" transform="translate(55.43406 0) scale(0.996264)"/>
      <use xlink:href="#CMR17-6d" transform="translate(126.809651 0) scale(0.996264)"/>
     </g>
    </g>
   </g>
   <g id="matplotlib.axis_2">
    <g id="ytick_1">
     <g id="line2d_11">
      <path d="M 84.740543 605.312308 
L 810.140543 605.312308 
" clip-path="url(#pdce386e4a6)" style="fill: none; stroke: #b0b0b0; stroke-width: 0.8; stroke-linecap: square"/>
     </g>
     <g id="line2d_12">
      <defs>
       <path id="mb2836d4108" d="M 0 0 
L -3.5 0 
" style="stroke: #000000; stroke-width: 0.8"/>
      </defs>
      <g>
       <use xlink:href="#mb2836d4108" x="84.740543" y="605.312308" style="stroke: #000000; stroke-width: 0.8"/>
      </g>
     </g>
     <g id="text_7">
      <!-- $\mathdefault{0.0}$ -->
      <g transform="translate(42.197103 615.690055) scale(0.3 -0.3)">
       <use xlink:href="#CMR17-30" transform="scale(0.996264)"/>
       <use xlink:href="#CMMI12-3a" transform="translate(45.690477 0) scale(0.996264)"/>
       <use xlink:href="#CMR17-30" transform="translate(72.787654 0) scale(0.996264)"/>
      </g>
     </g>
    </g>
    <g id="ytick_2">
     <g id="line2d_13">
      <path d="M 84.740543 488.035385 
L 810.140543 488.035385 
" clip-path="url(#pdce386e4a6)" style="fill: none; stroke: #b0b0b0; stroke-width: 0.8; stroke-linecap: square"/>
     </g>
     <g id="line2d_14">
      <g>
       <use xlink:href="#mb2836d4108" x="84.740543" y="488.035385" style="stroke: #000000; stroke-width: 0.8"/>
      </g>
     </g>
     <g id="text_8">
      <!-- $\mathdefault{0.2}$ -->
      <g transform="translate(42.197103 498.413132) scale(0.3 -0.3)">
       <use xlink:href="#CMR17-30" transform="scale(0.996264)"/>
       <use xlink:href="#CMMI12-3a" transform="translate(45.690477 0) scale(0.996264)"/>
       <use xlink:href="#CMR17-32" transform="translate(72.787654 0) scale(0.996264)"/>
      </g>
     </g>
    </g>
    <g id="ytick_3">
     <g id="line2d_15">
      <path d="M 84.740543 370.758462 
L 810.140543 370.758462 
" clip-path="url(#pdce386e4a6)" style="fill: none; stroke: #b0b0b0; stroke-width: 0.8; stroke-linecap: square"/>
     </g>
     <g id="line2d_16">
      <g>
       <use xlink:href="#mb2836d4108" x="84.740543" y="370.758462" style="stroke: #000000; stroke-width: 0.8"/>
      </g>
     </g>
     <g id="text_9">
      <!-- $\mathdefault{0.4}$ -->
      <g transform="translate(42.197103 381.136209) scale(0.3 -0.3)">
       <use xlink:href="#CMR17-30" transform="scale(0.996264)"/>
       <use xlink:href="#CMMI12-3a" transform="translate(45.690477 0) scale(0.996264)"/>
       <use xlink:href="#CMR17-34" transform="translate(72.787654 0) scale(0.996264)"/>
      </g>
     </g>
    </g>
    <g id="ytick_4">
     <g id="line2d_17">
      <path d="M 84.740543 253.481538 
L 810.140543 253.481538 
" clip-path="url(#pdce386e4a6)" style="fill: none; stroke: #b0b0b0; stroke-width: 0.8; stroke-linecap: square"/>
     </g>
     <g id="line2d_18">
      <g>
       <use xlink:href="#mb2836d4108" x="84.740543" y="253.481538" style="stroke: #000000; stroke-width: 0.8"/>
      </g>
     </g>
     <g id="text_10">
      <!-- $\mathdefault{0.6}$ -->
      <g transform="translate(42.197103 263.859286) scale(0.3 -0.3)">
       <defs>
        <path id="CMR17-36" d="M 678 2176 
C 678 3690 1395 4032 1811 4032 
C 1946 4032 2272 4009 2400 3776 
C 2298 3776 2106 3776 2106 3553 
C 2106 3381 2246 3323 2336 3323 
C 2394 3323 2566 3348 2566 3560 
C 2566 3954 2246 4179 1805 4179 
C 1043 4179 243 3390 243 1984 
C 243 253 966 -128 1478 -128 
C 2099 -128 2688 427 2688 1283 
C 2688 2081 2170 2662 1517 2662 
C 1126 2662 838 2407 678 1960 
L 678 2176 
z
M 1478 25 
C 691 25 691 1200 691 1436 
C 691 1896 909 2560 1504 2560 
C 1613 2560 1926 2560 2138 2120 
C 2253 1870 2253 1609 2253 1289 
C 2253 944 2253 690 2118 434 
C 1978 171 1773 25 1478 25 
z
" transform="scale(0.015625)"/>
       </defs>
       <use xlink:href="#CMR17-30" transform="scale(0.996264)"/>
       <use xlink:href="#CMMI12-3a" transform="translate(45.690477 0) scale(0.996264)"/>
       <use xlink:href="#CMR17-36" transform="translate(72.787654 0) scale(0.996264)"/>
      </g>
     </g>
    </g>
    <g id="ytick_5">
     <g id="line2d_19">
      <path d="M 84.740543 136.204615 
L 810.140543 136.204615 
" clip-path="url(#pdce386e4a6)" style="fill: none; stroke: #b0b0b0; stroke-width: 0.8; stroke-linecap: square"/>
     </g>
     <g id="line2d_20">
      <g>
       <use xlink:href="#mb2836d4108" x="84.740543" y="136.204615" style="stroke: #000000; stroke-width: 0.8"/>
      </g>
     </g>
     <g id="text_11">
      <!-- $\mathdefault{0.8}$ -->
      <g transform="translate(42.197103 146.582363) scale(0.3 -0.3)">
       <defs>
        <path id="CMR17-38" d="M 1741 2264 
C 2144 2467 2554 2773 2554 3263 
C 2554 3841 1990 4179 1472 4179 
C 890 4179 378 3759 378 3180 
C 378 3021 416 2747 666 2505 
C 730 2442 998 2251 1171 2130 
C 883 1983 211 1634 211 934 
C 211 279 838 -128 1459 -128 
C 2144 -128 2720 362 2720 1010 
C 2720 1590 2330 1857 2074 2029 
L 1741 2264 
z
M 902 2822 
C 851 2854 595 3051 595 3351 
C 595 3739 998 4032 1459 4032 
C 1965 4032 2336 3676 2336 3262 
C 2336 2669 1670 2331 1638 2331 
C 1632 2331 1626 2331 1574 2370 
L 902 2822 
z
M 2080 1519 
C 2176 1449 2483 1240 2483 851 
C 2483 381 2010 25 1472 25 
C 890 25 448 438 448 940 
C 448 1443 838 1862 1280 2060 
L 2080 1519 
z
" transform="scale(0.015625)"/>
       </defs>
       <use xlink:href="#CMR17-30" transform="scale(0.996264)"/>
       <use xlink:href="#CMMI12-3a" transform="translate(45.690477 0) scale(0.996264)"/>
       <use xlink:href="#CMR17-38" transform="translate(72.787654 0) scale(0.996264)"/>
      </g>
     </g>
    </g>
    <g id="ytick_6">
     <g id="line2d_21">
      <path d="M 84.740543 18.927692 
L 810.140543 18.927692 
" clip-path="url(#pdce386e4a6)" style="fill: none; stroke: #b0b0b0; stroke-width: 0.8; stroke-linecap: square"/>
     </g>
     <g id="line2d_22">
      <g>
       <use xlink:href="#mb2836d4108" x="84.740543" y="18.927692" style="stroke: #000000; stroke-width: 0.8"/>
      </g>
     </g>
     <g id="text_12">
      <!-- $\mathdefault{1.0}$ -->
      <g transform="translate(42.197103 29.30544) scale(0.3 -0.3)">
       <use xlink:href="#CMR17-31" transform="scale(0.996264)"/>
       <use xlink:href="#CMMI12-3a" transform="translate(45.690477 0) scale(0.996264)"/>
       <use xlink:href="#CMR17-30" transform="translate(72.787654 0) scale(0.996264)"/>
      </g>
     </g>
    </g>
    <g id="text_13">
     <!-- $S_1$ -->
     <g transform="translate(31.414752 328.216088) rotate(-90) scale(0.35 -0.35)">
      <defs>
       <path id="CMMI12-53" d="M 4064 4423 
C 4064 4480 4019 4480 4006 4480 
C 3981 4480 3974 4474 3898 4378 
C 3859 4333 3597 4001 3590 3995 
C 3379 4410 2957 4480 2688 4480 
C 1875 4480 1139 3743 1139 3025 
C 1139 2549 1427 2269 1741 2161 
C 1811 2135 2189 2033 2381 1989 
C 2707 1900 2790 1875 2925 1735 
C 2950 1703 3078 1557 3078 1258 
C 3078 667 2528 57 1888 57 
C 1363 57 781 280 781 991 
C 781 1112 806 1265 826 1328 
C 826 1348 832 1378 832 1391 
C 832 1417 819 1449 768 1449 
C 710 1449 704 1436 678 1328 
L 352 24 
C 352 18 326 -64 326 -71 
C 326 -128 378 -128 390 -128 
C 416 -128 422 -122 499 -26 
L 794 356 
C 947 126 1280 -128 1875 -128 
C 2701 -128 3456 666 3456 1460 
C 3456 1728 3392 1963 3149 2197 
C 3014 2331 2899 2363 2310 2516 
C 1882 2630 1824 2649 1709 2751 
C 1600 2858 1517 3011 1517 3227 
C 1517 3761 2061 4308 2669 4308 
C 3296 4308 3590 3926 3590 3323 
C 3590 3158 3558 2986 3558 2961 
C 3558 2903 3610 2903 3629 2903 
C 3686 2903 3693 2922 3718 3024 
L 4064 4423 
z
" transform="scale(0.015625)"/>
      </defs>
      <use xlink:href="#CMMI12-53" transform="scale(0.996264)"/>
      <use xlink:href="#CMR17-31" transform="translate(59.994488 -14.943915) scale(0.697382)"/>
     </g>
    </g>
   </g>
   <g id="patch_3">
    <path d="M 84.740543 617.04 
L 84.740543 7.2 
" style="fill: none; stroke: #000000; stroke-width: 0.8; stroke-linejoin: miter; stroke-linecap: square"/>
   </g>
   <g id="patch_4">
    <path d="M 810.140543 617.04 
L 810.140543 7.2 
" style="fill: none; stroke: #000000; stroke-width: 0.8; stroke-linejoin: miter; stroke-linecap: square"/>
   </g>
   <g id="patch_5">
    <path d="M 84.740543 617.04 
L 810.140543 617.04 
" style="fill: none; stroke: #000000; stroke-width: 0.8; stroke-linejoin: miter; stroke-linecap: square"/>
   </g>
   <g id="patch_6">
    <path d="M 84.740543 7.2 
L 810.140543 7.2 
" style="fill: none; stroke: #000000; stroke-width: 0.8; stroke-linejoin: miter; stroke-linecap: square"/>
   </g>
   <g id="legend_1">
    <g id="patch_7">
     <path d="M 109.240543 599.54 
L 268.183996 599.54 
Q 275.183996 599.54 275.183996 592.54 
L 275.183996 398.801333 
Q 275.183996 391.801333 268.183996 391.801333 
L 109.240543 391.801333 
Q 102.240543 391.801333 102.240543 398.801333 
L 102.240543 592.54 
Q 102.240543 599.54 109.240543 599.54 
z
" style="fill: #ffffff; stroke: #cccccc; stroke-linejoin: miter"/>
    </g>
    <g id="patch_8">
     <path d="M 116.240543 430.301333 
L 186.240543 430.301333 
L 186.240543 405.801333 
L 116.240543 405.801333 
z
" style="fill: #1f77b4"/>
    </g>
    <g id="text_14">
     <!-- $M$ -->
     <g transform="translate(214.240543 430.301333) scale(0.35 -0.35)">
      <defs>
       <path id="CMMI12-4d" d="M 5811 3886 
C 5869 4103 5882 4167 6336 4167 
C 6458 4167 6515 4167 6515 4288 
C 6515 4352 6470 4352 6349 4352 
L 5581 4352 
C 5421 4352 5414 4346 5344 4243 
L 3008 562 
L 2528 4211 
C 2509 4352 2502 4352 2336 4352 
L 1542 4352 
C 1421 4352 1363 4352 1363 4231 
C 1363 4167 1421 4167 1517 4167 
C 1907 4167 1907 4116 1907 4046 
C 1907 4034 1907 3995 1882 3899 
L 1062 634 
C 986 327 838 186 410 186 
C 390 186 314 186 314 73 
C 314 0 371 0 397 0 
C 525 0 851 0 979 0 
L 1286 0 
C 1376 0 1485 0 1574 0 
C 1619 0 1690 0 1690 122 
C 1690 180 1626 186 1600 186 
C 1389 186 1184 224 1184 454 
C 1184 518 1184 524 1210 613 
L 2093 4129 
L 2099 4129 
L 2630 172 
C 2650 19 2656 0 2714 0 
C 2784 0 2816 51 2848 109 
L 5421 4161 
L 5427 4161 
L 4499 473 
C 4442 250 4429 186 3981 186 
C 3859 186 3795 186 3795 70 
C 3795 0 3853 0 3891 0 
C 4000 0 4128 0 4237 0 
L 4992 0 
C 5101 0 5235 0 5344 0 
C 5395 0 5466 0 5466 122 
C 5466 186 5408 186 5312 186 
C 4922 186 4922 234 4922 294 
C 4922 301 4922 345 4934 396 
L 5811 3886 
z
" transform="scale(0.015625)"/>
      </defs>
      <use xlink:href="#CMMI12-4d" transform="scale(0.996264)"/>
     </g>
    </g>
    <g id="patch_9">
     <path d="M 116.240543 479.083684 
L 186.240543 479.083684 
L 186.240543 454.583684 
L 116.240543 454.583684 
z
" style="fill: #ff7f0e"/>
    </g>
    <g id="text_15">
     <!-- $P$ -->
     <g transform="translate(214.240543 479.083684) scale(0.35 -0.35)">
      <defs>
       <path id="CMMI12-50" d="M 1894 2023 
L 2970 2023 
C 3853 2023 4736 2673 4736 3401 
C 4736 3898 4314 4352 3507 4352 
L 1530 4352 
C 1408 4352 1350 4352 1350 4231 
C 1350 4167 1408 4167 1504 4167 
C 1894 4167 1894 4116 1894 4046 
C 1894 4034 1894 3995 1869 3899 
L 1005 472 
C 947 249 934 185 486 185 
C 365 185 301 185 301 70 
C 301 0 358 0 397 0 
C 518 0 646 0 768 0 
L 1517 0 
C 1638 0 1773 0 1894 0 
C 1946 0 2016 0 2016 121 
C 2016 185 1958 185 1862 185 
C 1478 185 1472 230 1472 293 
C 1472 325 1478 369 1485 401 
L 1894 2023 
z
M 2355 3930 
C 2413 4167 2438 4167 2688 4167 
L 3322 4167 
C 3802 4167 4198 4013 4198 3535 
C 4198 3369 4115 2827 3821 2534 
C 3712 2419 3405 2176 2822 2176 
L 1920 2176 
L 2355 3930 
z
" transform="scale(0.015625)"/>
      </defs>
      <use xlink:href="#CMMI12-50" transform="scale(0.996264)"/>
     </g>
    </g>
    <g id="patch_10">
     <path d="M 116.240543 527.866035 
L 186.240543 527.866035 
L 186.240543 503.366035 
L 116.240543 503.366035 
z
" style="fill: #2ca02c"/>
    </g>
    <g id="text_16">
     <!-- $T$ -->
     <g transform="translate(214.240543 527.866035) scale(0.35 -0.35)">
      <defs>
       <path id="CMMI12-54" d="M 2669 3910 
C 2707 4064 2720 4121 2816 4147 
C 2867 4160 3078 4160 3213 4160 
C 3853 4160 4154 4134 4154 3634 
C 4154 3537 4128 3295 4090 3057 
L 4083 2980 
C 4083 2954 4109 2916 4147 2916 
C 4211 2916 4211 2948 4230 3050 
L 4416 4184 
C 4429 4243 4429 4256 4429 4275 
C 4429 4345 4390 4345 4262 4345 
L 762 4345 
C 614 4345 608 4339 570 4224 
L 179 3070 
C 173 3056 154 2986 154 2980 
C 154 2948 179 2916 218 2916 
C 269 2916 282 2941 307 3024 
C 576 3801 710 4160 1562 4160 
L 1990 4160 
C 2144 4160 2208 4160 2208 4089 
C 2208 4069 2208 4057 2176 3941 
L 1318 499 
C 1254 249 1242 185 563 185 
C 403 185 358 185 358 64 
C 358 0 429 0 461 0 
C 621 0 787 0 947 0 
L 1946 0 
C 2106 0 2278 0 2438 0 
C 2509 0 2573 0 2573 121 
C 2573 185 2528 185 2362 185 
C 1786 185 1786 243 1786 339 
C 1786 346 1786 391 1811 494 
L 2669 3910 
z
" transform="scale(0.015625)"/>
      </defs>
      <use xlink:href="#CMMI12-54" transform="scale(0.996264)"/>
     </g>
    </g>
    <g id="patch_11">
     <path d="M 116.240543 576.648386 
L 186.240543 576.648386 
L 186.240543 552.148386 
L 116.240543 552.148386 
z
" style="fill: #d62728"/>
    </g>
    <g id="text_17">
     <!-- $Y_{N_2}$ -->
     <g transform="translate(214.240543 576.648386) scale(0.35 -0.35)">
      <defs>
       <path id="CMMI12-59" d="M 3763 3645 
L 3910 3791 
C 4192 4078 4429 4149 4653 4167 
C 4723 4173 4781 4179 4781 4288 
C 4781 4352 4717 4352 4704 4352 
C 4627 4352 4544 4352 4467 4352 
L 4205 4352 
C 4019 4352 3821 4352 3642 4352 
C 3597 4352 3526 4352 3526 4226 
C 3526 4166 3590 4160 3610 4160 
C 3802 4160 3802 4064 3802 4026 
C 3802 3956 3750 3860 3622 3713 
L 2099 1969 
L 1376 3911 
C 1338 4000 1338 4013 1338 4026 
C 1338 4160 1600 4160 1677 4160 
C 1754 4160 1824 4160 1824 4279 
C 1824 4352 1766 4352 1728 4352 
C 1619 4352 1491 4352 1382 4352 
L 672 4352 
C 557 4352 435 4352 326 4352 
C 282 4352 211 4352 211 4226 
C 211 4160 269 4160 365 4160 
C 678 4160 736 4102 794 3956 
L 1587 1835 
C 1594 1816 1613 1745 1613 1726 
C 1613 1707 1299 452 1280 388 
C 1229 217 1165 185 755 185 
C 646 185 595 185 595 64 
C 595 0 666 0 685 0 
C 800 0 934 0 1056 0 
L 1811 0 
C 1926 0 2061 0 2176 0 
C 2221 0 2298 0 2298 115 
C 2298 185 2253 185 2144 185 
C 1747 185 1747 230 1747 300 
C 1747 345 1798 548 1830 676 
L 2061 1594 
C 2099 1727 2099 1739 2157 1803 
L 3763 3645 
z
" transform="scale(0.015625)"/>
       <path id="CMMI12-4e" d="M 4736 3698 
C 4806 3974 4909 4166 5395 4166 
C 5414 4166 5491 4166 5491 4279 
C 5491 4352 5434 4352 5408 4352 
C 5280 4352 4954 4352 4826 4352 
L 4518 4352 
C 4429 4352 4314 4352 4224 4352 
C 4186 4352 4109 4352 4109 4230 
C 4109 4166 4160 4166 4205 4166 
C 4589 4166 4614 4019 4614 3903 
C 4614 3846 4608 3826 4589 3737 
L 3866 850 
L 2496 4249 
C 2451 4352 2445 4352 2304 4352 
L 1523 4352 
C 1395 4352 1338 4352 1338 4230 
C 1338 4166 1382 4166 1504 4166 
C 1536 4166 1914 4166 1914 4115 
C 1914 4102 1901 4051 1894 4032 
L 1043 635 
C 966 320 813 186 390 186 
C 358 186 294 186 294 67 
C 294 0 358 0 378 0 
C 506 0 832 0 960 0 
L 1267 0 
C 1357 0 1466 0 1555 0 
C 1600 0 1670 0 1670 122 
C 1670 180 1606 186 1581 186 
C 1370 186 1165 224 1165 454 
C 1165 505 1178 562 1190 613 
L 2054 4032 
C 2093 3968 2093 3956 2118 3898 
L 3642 115 
C 3674 38 3686 0 3744 0 
C 3808 0 3814 19 3840 128 
L 4736 3698 
z
" transform="scale(0.015625)"/>
      </defs>
      <use xlink:href="#CMMI12-59" transform="scale(0.996264)"/>
      <use xlink:href="#CMMI12-4e" transform="translate(56.598607 -14.943915) scale(0.697382)"/>
      <use xlink:href="#CMR17-32" transform="translate(111.278947 -25.404611) scale(0.498132)"/>
     </g>
    </g>
   </g>
  </g>
 </g>
 <defs>
  <clipPath id="pdce386e4a6">
   <rect x="84.740543" y="7.2" width="725.4" height="609.84"/>
  </clipPath>
 </defs>
</svg>
