<?xml version="1.0" encoding="utf-8" standalone="no"?>
<!DOCTYPE svg PUBLIC "-//W3C//DTD SVG 1.1//EN"
  "http://www.w3.org/Graphics/SVG/1.1/DTD/svg11.dtd">
<svg xmlns:xlink="http://www.w3.org/1999/xlink" width="1006.579543pt" height="692.806049pt" viewBox="0 0 1006.579543 692.806049" xmlns="http://www.w3.org/2000/svg" version="1.1">
 <metadata>
  <rdf:RDF xmlns:dc="http://purl.org/dc/elements/1.1/" xmlns:cc="http://creativecommons.org/ns#" xmlns:rdf="http://www.w3.org/1999/02/22-rdf-syntax-ns#">
   <cc:Work>
    <dc:type rdf:resource="http://purl.org/dc/dcmitype/StillImage"/>
    <dc:date>2025-03-19T17:00:09.973135</dc:date>
    <dc:format>image/svg+xml</dc:format>
    <dc:creator>
     <cc:Agent>
      <dc:title>Matplotlib v3.7.1, https://matplotlib.org/</dc:title>
     </cc:Agent>
    </dc:creator>
   </cc:Work>
  </rdf:RDF>
 </metadata>
 <defs>
  <style type="text/css">*{stroke-linejoin: round; stroke-linecap: butt}</style>
 </defs>
 <g id="figure_1">
  <g id="patch_1">
   <path d="M 0 692.806049 
L 1006.579543 692.806049 
L 1006.579543 0 
L 0 0 
z
" style="fill: #ffffff"/>
  </g>
  <g id="axes_1">
   <g id="patch_2">
    <path d="M 84.740543 617.04 
L 810.140543 617.04 
L 810.140543 7.2 
L 84.740543 7.2 
z
" style="fill: #ffffff"/>
   </g>
   <g id="PolyCollection_1">
    <path d="M -529.448308 588.808179 
L -529.448308 605.312308 
L -495.096852 605.312308 
L -470.020065 605.312308 
L -451.713553 605.312308 
L -438.349052 605.312308 
L -428.591888 605.312308 
L -421.467669 605.312308 
L -416.265003 605.312308 
L -412.590478 605.312308 
L -409.686832 605.312308 
L -407.299147 605.312308 
L -405.270505 605.312308 
L -403.072001 605.312308 
L -398.565481 605.312308 
L -396.186796 605.312308 
L -394.058962 605.312308 
L -390.922497 605.312308 
L -389.091157 605.312308 
L -387.299183 605.312308 
L -385.412233 605.312308 
L -383.576184 605.312308 
L -381.599488 605.312308 
L -379.522844 605.312308 
L -377.56533 605.312308 
L -375.421053 605.312308 
L -371.565972 605.312308 
L -367.817411 605.312308 
L -364.205423 605.312308 
L -359.357271 605.312308 
L -353.500286 605.312308 
L -347.827253 605.312308 
L -341.099117 605.312308 
L -333.220948 605.312308 
L -324.207906 605.312308 
L -317.23335 605.312308 
L -309.136536 605.312308 
L -300.04293 605.312308 
L -290.176287 605.312308 
L -280.15491 605.312308 
L -271.026505 605.312308 
L -262.34492 605.312308 
L -252.808781 605.312308 
L -242.979512 605.312308 
L -232.21126 605.312308 
L -220.601654 605.312308 
L -208.138839 605.312308 
L -194.741629 605.312308 
L -184.102111 605.312308 
L -172.737355 605.312308 
L -156.684456 605.312308 
L -139.426428 605.312308 
L -120.921779 605.312308 
L -100.248303 605.312308 
L -80.063608 605.312308 
L -57.306163 605.312308 
L -32.8402 605.312308 
L -19.15079 605.312308 
L -6.190095 605.312308 
L 7.346541 605.312308 
L 21.74163 605.312308 
L 35.952583 605.312308 
L 46.558634 605.312308 
L 54.11159 605.312308 
L 60.663623 605.312308 
L 65.823188 605.312308 
L 70.329362 605.312308 
L 74.585519 605.312308 
L 76.713598 605.312308 
L 78.841677 605.312308 
L 80.001573 605.312308 
L 80.969755 605.312308 
L 82.059253 605.312308 
L 83.097834 605.312308 
L 83.685868 605.312308 
L 84.220205 605.312308 
L 84.764872 605.312308 
L 85.225913 605.312308 
L 86.027166 605.312308 
L 86.777793 605.312308 
L 87.491218 605.312308 
L 88.329672 605.312308 
L 89.070566 605.312308 
L 89.881552 605.312308 
L 90.650672 605.312308 
L 91.433432 605.312308 
L 92.133786 605.312308 
L 92.985312 605.312308 
L 94.537191 605.312308 
L 96.089071 605.312308 
L 97.640951 605.312308 
L 99.192831 605.312308 
L 100.74471 605.312308 
L 102.29659 605.312308 
L 103.84847 605.312308 
L 105.40035 605.312308 
L 106.952229 605.312308 
L 108.433259 605.312308 
L 110.055989 605.312308 
L 112.962733 605.312308 
L 116.263508 605.312308 
L 118.591328 605.312308 
L 120.919147 605.312308 
L 124.022907 605.312308 
L 127.036494 605.312308 
L 130.230426 605.312308 
L 133.038057 605.312308 
L 135.721678 605.312308 
L 138.198775 605.312308 
L 141.093584 605.312308 
L 144.197344 605.312308 
L 148.250379 605.312308 
L 151.956743 605.312308 
L 155.282911 605.312308 
L 158.552717 605.312308 
L 161.599563 605.312308 
L 164.929764 605.312308 
L 169.071981 605.312308 
L 173.076952 605.312308 
L 176.278192 605.312308 
L 179.758833 605.312308 
L 183.544527 605.312308 
L 187.663381 605.312308 
L 189.869124 605.312308 
L 192.146559 605.312308 
L 194.613169 605.312308 
L 197.026171 605.312308 
L 199.713424 605.312308 
L 202.332023 605.312308 
L 205.357336 605.312308 
L 208.106339 605.312308 
L 211.07825 605.312308 
L 214.381055 605.312308 
L 217.737788 605.312308 
L 221.199394 605.312308 
L 225.065245 605.312308 
L 228.596977 605.312308 
L 232.586933 605.312308 
L 236.610147 605.312308 
L 240.86269 605.312308 
L 245.271717 605.312308 
L 249.948745 605.312308 
L 254.602991 605.312308 
L 259.398301 605.312308 
L 264.608895 605.312308 
L 269.738225 605.312308 
L 275.25752 605.312308 
L 280.716619 605.312308 
L 286.3849 605.312308 
L 291.782077 605.312308 
L 297.558434 605.312308 
L 303.057226 605.312308 
L 308.731968 605.312308 
L 314.142785 605.312308 
L 319.905503 605.312308 
L 325.773245 605.312308 
L 331.079037 605.312308 
L 337.010885 605.312308 
L 342.252571 605.312308 
L 347.429469 605.312308 
L 353.426105 605.312308 
L 359.335448 605.312308 
L 364.59964 605.312308 
L 370.212322 605.312308 
L 375.773174 605.312308 
L 381.339482 605.312308 
L 386.946708 605.312308 
L 392.862189 605.312308 
L 398.120243 605.312308 
L 404.191215 605.312308 
L 409.293777 605.312308 
L 412.672977 605.312308 
L 415.595258 605.312308 
L 418.168668 605.312308 
L 420.467311 605.312308 
L 423.386704 605.312308 
L 426.224573 605.312308 
L 428.977008 605.312308 
L 431.640846 605.312308 
L 433.884815 605.312308 
L 435.235125 605.312308 
L 436.424242 605.312308 
L 437.889819 605.312308 
L 439.352535 605.312308 
L 440.946539 605.312308 
L 442.81438 605.312308 
L 443.644707 605.312308 
L 444.5312 605.312308 
L 445.471711 605.312308 
L 446.462678 605.312308 
L 448.378493 605.312308 
L 450.336871 605.312308 
L 452.293982 605.312308 
L 454.400914 605.312308 
L 456.41365 605.312308 
L 458.611418 605.312308 
L 460.59169 605.312308 
L 462.794601 605.312308 
L 464.676411 605.312308 
L 466.817509 605.312308 
L 470.687113 605.312308 
L 474.408457 605.312308 
L 478.134105 605.312308 
L 482.013867 605.312308 
L 486.040684 605.312308 
L 490.205495 605.312308 
L 495.614525 605.312308 
L 501.796071 605.312308 
L 507.52673 605.312308 
L 513.550093 605.312308 
L 521.799572 605.312308 
L 529.347131 605.312308 
L 537.59661 605.312308 
L 553.393648 605.312308 
L 569.190687 605.312308 
L 584.987725 605.312308 
L 600.784763 605.312308 
L 616.581802 605.312308 
L 632.37884 605.312308 
L 648.175878 605.312308 
L 663.972917 605.312308 
L 695.566993 605.312308 
L 715.341255 605.312308 
L 736.014122 605.312308 
L 756.176981 605.312308 
L 774.552185 605.312308 
L 790.349223 605.312308 
L 805.043246 605.312308 
L 821.9433 605.312308 
L 821.9433 321.677834 
L 821.9433 321.677834 
L 805.043246 321.8058 
L 790.349223 322.055584 
L 774.552185 322.387064 
L 756.176981 322.876971 
L 736.014122 323.485292 
L 715.341255 324.194729 
L 695.566993 324.970484 
L 663.972917 326.187915 
L 648.175878 327.031976 
L 632.37884 327.788554 
L 616.581802 328.884632 
L 600.784763 330.166545 
L 584.987725 331.598676 
L 569.190687 333.233219 
L 553.393648 335.244361 
L 537.59661 337.527377 
L 529.347131 339.283423 
L 521.799572 340.913912 
L 513.550093 343.004747 
L 507.52673 344.670404 
L 501.796071 346.603977 
L 495.614525 348.70707 
L 490.205495 350.695587 
L 486.040684 352.462075 
L 482.013867 354.26024 
L 478.134105 355.941746 
L 474.408457 357.661368 
L 470.687113 359.612509 
L 466.817509 361.71144 
L 464.676411 362.933588 
L 462.794601 364.070284 
L 460.59169 365.323564 
L 458.611418 366.508879 
L 456.41365 367.953564 
L 454.400914 369.342597 
L 452.293982 370.813366 
L 450.336871 372.261945 
L 448.378493 373.763851 
L 446.462678 375.323902 
L 445.471711 376.350837 
L 444.5312 377.438076 
L 443.644707 378.513478 
L 442.81438 379.632203 
L 440.946539 382.134303 
L 439.352535 384.387921 
L 437.889819 386.617995 
L 436.424242 388.78119 
L 435.235125 390.777216 
L 433.884815 392.747033 
L 431.640846 395.830246 
L 428.977008 399.43334 
L 426.224573 402.677069 
L 423.386704 405.884198 
L 420.467311 408.23244 
L 418.168668 410.201746 
L 415.595258 411.171442 
L 412.672977 412.475573 
L 409.293777 413.109481 
L 404.191215 415.922948 
L 398.120243 419.124773 
L 392.862189 422.027338 
L 386.946708 425.384109 
L 381.339482 428.252515 
L 375.773174 431.338215 
L 370.212322 433.108284 
L 364.59964 435.149402 
L 359.335448 435.593236 
L 353.426105 436.334581 
L 347.429469 434.710449 
L 342.252571 433.29204 
L 337.010885 430.110212 
L 331.079037 426.509392 
L 325.773245 421.080054 
L 319.905503 415.882448 
L 314.142785 409.67221 
L 308.731968 404.394907 
L 303.057226 398.597924 
L 297.558434 392.660356 
L 291.782077 385.689641 
L 286.3849 378.792651 
L 280.716619 371.314889 
L 275.25752 363.738446 
L 269.738225 356.063838 
L 264.608895 348.625498 
L 259.398301 341.400168 
L 254.602991 334.526755 
L 249.948745 328.265654 
L 245.271717 321.847203 
L 240.86269 316.267414 
L 236.610147 310.875902 
L 232.586933 306.228307 
L 228.596977 301.608035 
L 225.065245 298.223429 
L 221.199394 294.315184 
L 217.737788 291.676183 
L 214.381055 288.833578 
L 211.07825 286.831836 
L 208.106339 284.606955 
L 205.357336 283.218127 
L 202.332023 281.063076 
L 199.713424 279.425374 
L 197.026171 277.462657 
L 194.613169 275.681369 
L 192.146559 273.578215 
L 189.869124 271.565152 
L 187.663381 269.33779 
L 183.544527 266.356384 
L 179.758833 263.744163 
L 176.278192 261.300353 
L 173.076952 259.102322 
L 169.071981 256.651295 
L 164.929764 254.227136 
L 161.599563 251.632411 
L 158.552717 248.679071 
L 155.282911 245.324243 
L 151.956743 241.518216 
L 148.250379 237.029815 
L 144.197344 232.823109 
L 141.093584 230.468924 
L 138.198775 228.572446 
L 135.721678 227.155514 
L 133.038057 225.777876 
L 130.230426 225.21761 
L 127.036494 224.191304 
L 124.022907 224.540132 
L 120.919147 223.663619 
L 118.591328 224.938416 
L 116.263508 225.085831 
L 112.962733 229.443342 
L 110.055989 231.71787 
L 108.433259 235.117746 
L 106.952229 238.747561 
L 105.40035 241.684422 
L 103.84847 249.510767 
L 102.29659 256.645458 
L 100.74471 268.700678 
L 99.192831 281.973154 
L 97.640951 300.07202 
L 96.089071 328.82131 
L 94.537191 363.281022 
L 92.985312 402.297277 
L 92.133786 420.745159 
L 91.433432 437.715255 
L 90.650672 457.86365 
L 89.881552 479.087038 
L 89.070566 493.416152 
L 88.329672 507.975514 
L 87.491218 585.771764 
L 86.777793 590.532215 
L 86.027166 557.238721 
L 85.225913 513.819876 
L 84.764872 494.868451 
L 84.220205 478.286008 
L 83.685868 477.544343 
L 83.097834 473.607862 
L 82.059253 475.448315 
L 80.969755 486.42172 
L 80.001573 492.211088 
L 78.841677 502.654404 
L 76.713598 524.574842 
L 74.585519 545.390423 
L 70.329362 564.402476 
L 65.823188 571.385786 
L 60.663623 576.128001 
L 54.11159 576.338588 
L 46.558634 576.489369 
L 35.952583 574.830733 
L 21.74163 573.144895 
L 7.346541 570.72904 
L -6.190095 568.95042 
L -19.15079 567.551454 
L -32.8402 564.209754 
L -57.306163 560.708858 
L -80.063608 558.026626 
L -100.248303 555.657392 
L -120.921779 553.28446 
L -139.426428 551.57105 
L -156.684456 550.026803 
L -172.737355 549.3768 
L -184.102111 547.972658 
L -194.741629 546.478746 
L -208.138839 545.89574 
L -220.601654 545.394187 
L -232.21126 545.264813 
L -242.979512 545.205444 
L -252.808781 545.564955 
L -262.34492 545.771141 
L -271.026505 546.732444 
L -280.15491 547.03827 
L -290.176287 547.857197 
L -300.04293 548.16045 
L -309.136536 548.794399 
L -317.23335 547.959516 
L -324.207906 548.195923 
L -333.220948 547.94062 
L -341.099117 550.415355 
L -347.827253 553.365527 
L -353.500286 557.512606 
L -359.357271 562.671675 
L -364.205423 569.915147 
L -367.817411 575.844528 
L -371.565972 583.483607 
L -375.421053 591.50334 
L -377.56533 596.956944 
L -379.522844 600.67671 
L -381.599488 603.529356 
L -383.576184 603.556346 
L -385.412233 600.663668 
L -387.299183 599.605811 
L -389.091157 600.396628 
L -390.922497 600.143253 
L -394.058962 604.245697 
L -396.186796 599.489409 
L -398.565481 597.326611 
L -403.072001 584.983255 
L -405.270505 579.256077 
L -407.299147 579.287635 
L -409.686832 579.972832 
L -412.590478 585.907475 
L -416.265003 590.638108 
L -421.467669 598.261596 
L -428.591888 602.891164 
L -438.349052 600.948518 
L -451.713553 596.893191 
L -470.020065 592.564092 
L -495.096852 590.238597 
L -529.448308 588.808179 
z
" clip-path="url(#p79e3ccdf2d)" style="fill: #1f77b4"/>
   </g>
   <g id="PolyCollection_2">
    <path d="M -529.448308 528.44983 
L -529.448308 588.808179 
L -495.096852 590.238597 
L -470.020065 592.564092 
L -451.713553 596.893191 
L -438.349052 600.948518 
L -428.591888 602.891164 
L -421.467669 598.261596 
L -416.265003 590.638108 
L -412.590478 585.907475 
L -409.686832 579.972832 
L -407.299147 579.287635 
L -405.270505 579.256077 
L -403.072001 584.983255 
L -398.565481 597.326611 
L -396.186796 599.489409 
L -394.058962 604.245697 
L -390.922497 600.143253 
L -389.091157 600.396628 
L -387.299183 599.605811 
L -385.412233 600.663668 
L -383.576184 603.556346 
L -381.599488 603.529356 
L -379.522844 600.67671 
L -377.56533 596.956944 
L -375.421053 591.50334 
L -371.565972 583.483607 
L -367.817411 575.844528 
L -364.205423 569.915147 
L -359.357271 562.671675 
L -353.500286 557.512606 
L -347.827253 553.365527 
L -341.099117 550.415355 
L -333.220948 547.94062 
L -324.207906 548.195923 
L -317.23335 547.959516 
L -309.136536 548.794399 
L -300.04293 548.16045 
L -290.176287 547.857197 
L -280.15491 547.03827 
L -271.026505 546.732444 
L -262.34492 545.771141 
L -252.808781 545.564955 
L -242.979512 545.205444 
L -232.21126 545.264813 
L -220.601654 545.394187 
L -208.138839 545.89574 
L -194.741629 546.478746 
L -184.102111 547.972658 
L -172.737355 549.3768 
L -156.684456 550.026803 
L -139.426428 551.57105 
L -120.921779 553.28446 
L -100.248303 555.657392 
L -80.063608 558.026626 
L -57.306163 560.708858 
L -32.8402 564.209754 
L -19.15079 567.551454 
L -6.190095 568.95042 
L 7.346541 570.72904 
L 21.74163 573.144895 
L 35.952583 574.830733 
L 46.558634 576.489369 
L 54.11159 576.338588 
L 60.663623 576.128001 
L 65.823188 571.385786 
L 70.329362 564.402476 
L 74.585519 545.390423 
L 76.713598 524.574842 
L 78.841677 502.654404 
L 80.001573 492.211088 
L 80.969755 486.42172 
L 82.059253 475.448315 
L 83.097834 473.607862 
L 83.685868 477.544343 
L 84.220205 478.286008 
L 84.764872 494.868451 
L 85.225913 513.819876 
L 86.027166 557.238721 
L 86.777793 590.532215 
L 87.491218 585.771764 
L 88.329672 507.975514 
L 89.070566 493.416152 
L 89.881552 479.087038 
L 90.650672 457.86365 
L 91.433432 437.715255 
L 92.133786 420.745159 
L 92.985312 402.297277 
L 94.537191 363.281022 
L 96.089071 328.82131 
L 97.640951 300.07202 
L 99.192831 281.973154 
L 100.74471 268.700678 
L 102.29659 256.645458 
L 103.84847 249.510767 
L 105.40035 241.684422 
L 106.952229 238.747561 
L 108.433259 235.117746 
L 110.055989 231.71787 
L 112.962733 229.443342 
L 116.263508 225.085831 
L 118.591328 224.938416 
L 120.919147 223.663619 
L 124.022907 224.540132 
L 127.036494 224.191304 
L 130.230426 225.21761 
L 133.038057 225.777876 
L 135.721678 227.155514 
L 138.198775 228.572446 
L 141.093584 230.468924 
L 144.197344 232.823109 
L 148.250379 237.029815 
L 151.956743 241.518216 
L 155.282911 245.324243 
L 158.552717 248.679071 
L 161.599563 251.632411 
L 164.929764 254.227136 
L 169.071981 256.651295 
L 173.076952 259.102322 
L 176.278192 261.300353 
L 179.758833 263.744163 
L 183.544527 266.356384 
L 187.663381 269.33779 
L 189.869124 271.565152 
L 192.146559 273.578215 
L 194.613169 275.681369 
L 197.026171 277.462657 
L 199.713424 279.425374 
L 202.332023 281.063076 
L 205.357336 283.218127 
L 208.106339 284.606955 
L 211.07825 286.831836 
L 214.381055 288.833578 
L 217.737788 291.676183 
L 221.199394 294.315184 
L 225.065245 298.223429 
L 228.596977 301.608035 
L 232.586933 306.228307 
L 236.610147 310.875902 
L 240.86269 316.267414 
L 245.271717 321.847203 
L 249.948745 328.265654 
L 254.602991 334.526755 
L 259.398301 341.400168 
L 264.608895 348.625498 
L 269.738225 356.063838 
L 275.25752 363.738446 
L 280.716619 371.314889 
L 286.3849 378.792651 
L 291.782077 385.689641 
L 297.558434 392.660356 
L 303.057226 398.597924 
L 308.731968 404.394907 
L 314.142785 409.67221 
L 319.905503 415.882448 
L 325.773245 421.080054 
L 331.079037 426.509392 
L 337.010885 430.110212 
L 342.252571 433.29204 
L 347.429469 434.710449 
L 353.426105 436.334581 
L 359.335448 435.593236 
L 364.59964 435.149402 
L 370.212322 433.108284 
L 375.773174 431.338215 
L 381.339482 428.252515 
L 386.946708 425.384109 
L 392.862189 422.027338 
L 398.120243 419.124773 
L 404.191215 415.922948 
L 409.293777 413.109481 
L 412.672977 412.475573 
L 415.595258 411.171442 
L 418.168668 410.201746 
L 420.467311 408.23244 
L 423.386704 405.884198 
L 426.224573 402.677069 
L 428.977008 399.43334 
L 431.640846 395.830246 
L 433.884815 392.747033 
L 435.235125 390.777216 
L 436.424242 388.78119 
L 437.889819 386.617995 
L 439.352535 384.387921 
L 440.946539 382.134303 
L 442.81438 379.632203 
L 443.644707 378.513478 
L 444.5312 377.438076 
L 445.471711 376.350837 
L 446.462678 375.323902 
L 448.378493 373.763851 
L 450.336871 372.261945 
L 452.293982 370.813366 
L 454.400914 369.342597 
L 456.41365 367.953564 
L 458.611418 366.508879 
L 460.59169 365.323564 
L 462.794601 364.070284 
L 464.676411 362.933588 
L 466.817509 361.71144 
L 470.687113 359.612509 
L 474.408457 357.661368 
L 478.134105 355.941746 
L 482.013867 354.26024 
L 486.040684 352.462075 
L 490.205495 350.695587 
L 495.614525 348.70707 
L 501.796071 346.603977 
L 507.52673 344.670404 
L 513.550093 343.004747 
L 521.799572 340.913912 
L 529.347131 339.283423 
L 537.59661 337.527377 
L 553.393648 335.244361 
L 569.190687 333.233219 
L 584.987725 331.598676 
L 600.784763 330.166545 
L 616.581802 328.884632 
L 632.37884 327.788554 
L 648.175878 327.031976 
L 663.972917 326.187915 
L 695.566993 324.970484 
L 715.341255 324.194729 
L 736.014122 323.485292 
L 756.176981 322.876971 
L 774.552185 322.387064 
L 790.349223 322.055584 
L 805.043246 321.8058 
L 821.9433 321.677834 
L 821.9433 277.001152 
L 821.9433 277.001152 
L 805.043246 277.112642 
L 790.349223 277.33614 
L 774.552185 277.631772 
L 756.176981 278.072579 
L 736.014122 278.628251 
L 715.341255 279.301197 
L 695.566993 280.000169 
L 663.972917 281.232929 
L 648.175878 282.018681 
L 632.37884 282.724287 
L 616.581802 283.747717 
L 600.784763 284.991353 
L 584.987725 286.342251 
L 569.190687 287.945947 
L 553.393648 289.916816 
L 537.59661 292.223393 
L 529.347131 293.906196 
L 521.799572 295.482259 
L 513.550093 297.502037 
L 507.52673 299.09523 
L 501.796071 300.918501 
L 495.614525 302.941328 
L 490.205495 304.801987 
L 486.040684 306.466593 
L 482.013867 308.140394 
L 478.134105 309.703159 
L 474.408457 311.277442 
L 470.687113 313.094062 
L 466.817509 315.031142 
L 464.676411 316.130987 
L 462.794601 317.099503 
L 460.59169 318.216322 
L 458.611418 319.216722 
L 456.41365 320.489523 
L 454.400914 321.657097 
L 452.293982 322.914787 
L 450.336871 324.098696 
L 448.378493 325.336199 
L 446.462678 326.579106 
L 445.471711 327.259368 
L 444.5312 327.944672 
L 443.644707 328.574779 
L 442.81438 329.192566 
L 440.946539 331.258452 
L 439.352535 333.003918 
L 437.889819 334.73771 
L 436.424242 336.360385 
L 435.235125 337.841037 
L 433.884815 339.294079 
L 431.640846 342.193516 
L 428.977008 345.861972 
L 426.224573 349.276766 
L 423.386704 353.020883 
L 420.467311 355.981275 
L 418.168668 359.042642 
L 415.595258 361.127755 
L 412.672977 364.171652 
L 409.293777 366.506291 
L 404.191215 371.730557 
L 398.120243 377.224838 
L 392.862189 382.97587 
L 386.946708 388.829671 
L 381.339482 393.108575 
L 375.773174 397.686227 
L 370.212322 400.599619 
L 364.59964 403.89526 
L 359.335448 405.639727 
L 353.426105 407.946682 
L 347.429469 407.400491 
L 342.252571 406.980875 
L 337.010885 404.917486 
L 331.079037 402.64081 
L 325.773245 398.680839 
L 319.905503 395.519899 
L 314.142785 390.358733 
L 308.731968 386.4103 
L 303.057226 381.062534 
L 297.558434 375.514601 
L 291.782077 368.752761 
L 286.3849 361.902211 
L 280.716619 354.373107 
L 275.25752 346.536209 
L 269.738225 338.576741 
L 264.608895 330.622855 
L 259.398301 322.960759 
L 254.602991 315.484019 
L 249.948745 308.829858 
L 245.271717 301.890192 
L 240.86269 296.164594 
L 236.610147 290.405149 
L 232.586933 285.948627 
L 228.596977 281.09965 
L 225.065245 278.217728 
L 221.199394 274.192969 
L 217.737788 272.292289 
L 214.381055 269.470114 
L 211.07825 268.35605 
L 208.106339 266.357143 
L 205.357336 265.88689 
L 202.332023 264.207194 
L 199.713424 263.162949 
L 197.026171 261.824658 
L 194.613169 260.485357 
L 192.146559 258.856813 
L 189.869124 257.333533 
L 187.663381 255.623641 
L 183.544527 253.162028 
L 179.758833 250.951664 
L 176.278192 248.795248 
L 173.076952 246.66591 
L 169.071981 244.022072 
L 164.929764 241.171149 
L 161.599563 238.156065 
L 158.552717 234.747625 
L 155.282911 230.668628 
L 151.956743 226.005227 
L 148.250379 220.288944 
L 144.197344 214.952723 
L 141.093584 210.91627 
L 138.198775 207.718498 
L 135.721678 205.125952 
L 133.038057 202.673031 
L 130.230426 200.573251 
L 127.036494 198.067039 
L 124.022907 196.815699 
L 120.919147 194.109538 
L 118.591328 194.230222 
L 116.263508 192.614065 
L 112.962733 194.892101 
L 110.055989 194.257133 
L 108.433259 196.858725 
L 106.952229 199.77181 
L 105.40035 200.768844 
L 103.84847 208.741599 
L 102.29659 214.375122 
L 100.74471 226.801995 
L 99.192831 239.040862 
L 97.640951 257.511966 
L 96.089071 286.702529 
L 94.537191 320.850138 
L 92.985312 357.810636 
L 92.133786 374.425287 
L 91.433432 390.259702 
L 90.650672 410.265747 
L 89.881552 431.521559 
L 89.070566 443.322984 
L 88.329672 455.787607 
L 87.491218 530.722284 
L 86.777793 528.515898 
L 86.027166 488.568762 
L 85.225913 435.697734 
L 84.764872 416.080841 
L 84.220205 398.245365 
L 83.685868 395.495879 
L 83.097834 389.060254 
L 82.059253 397.590904 
L 80.969755 404.307617 
L 80.001573 419.109164 
L 78.841677 427.513689 
L 76.713598 456.285053 
L 74.585519 475.72128 
L 70.329362 497.966827 
L 65.823188 504.320538 
L 60.663623 509.483367 
L 54.11159 509.99199 
L 46.558634 510.380151 
L 35.952583 508.853764 
L 21.74163 507.450549 
L 7.346541 505.112707 
L -6.190095 503.461499 
L -19.15079 502.157486 
L -32.8402 498.952797 
L -57.306163 495.683956 
L -80.063608 493.181169 
L -100.248303 491.067031 
L -120.921779 489.025171 
L -139.426428 487.606539 
L -156.684456 486.43946 
L -172.737355 486.019679 
L -184.102111 484.962818 
L -194.741629 483.785916 
L -208.138839 483.567503 
L -220.601654 483.34634 
L -232.21126 483.558689 
L -242.979512 483.735068 
L -252.808781 484.430165 
L -262.34492 484.86725 
L -271.026505 486.148489 
L -280.15491 486.682928 
L -290.176287 487.787209 
L -300.04293 488.539338 
L -309.136536 489.70396 
L -317.23335 489.161265 
L -324.207906 489.640561 
L -333.220948 489.432148 
L -341.099117 491.761097 
L -347.827253 494.115059 
L -353.500286 497.57366 
L -359.357271 502.327699 
L -364.205423 509.467525 
L -367.817411 515.080344 
L -371.565972 522.801293 
L -375.421053 530.581932 
L -377.56533 536.550001 
L -379.522844 540.483948 
L -381.599488 543.53098 
L -383.576184 544.147269 
L -385.412233 542.165559 
L -387.299183 541.375318 
L -389.091157 542.267685 
L -390.922497 542.816196 
L -394.058962 548.151394 
L -396.186796 543.147554 
L -398.565481 540.720297 
L -403.072001 529.822413 
L -405.270505 522.152435 
L -407.299147 522.518891 
L -409.686832 521.109824 
L -412.590478 527.119972 
L -416.265003 530.214951 
L -421.467669 538.248108 
L -428.591888 541.88421 
L -438.349052 540.355797 
L -451.713553 536.100347 
L -470.020065 532.02102 
L -495.096852 529.810437 
L -529.448308 528.44983 
z
" clip-path="url(#p79e3ccdf2d)" style="fill: #ff7f0e"/>
   </g>
   <g id="PolyCollection_3">
    <path d="M -529.448308 34.877017 
L -529.448308 528.44983 
L -495.096852 529.810437 
L -470.020065 532.02102 
L -451.713553 536.100347 
L -438.349052 540.355797 
L -428.591888 541.88421 
L -421.467669 538.248108 
L -416.265003 530.214951 
L -412.590478 527.119972 
L -409.686832 521.109824 
L -407.299147 522.518891 
L -405.270505 522.152435 
L -403.072001 529.822413 
L -398.565481 540.720297 
L -396.186796 543.147554 
L -394.058962 548.151394 
L -390.922497 542.816196 
L -389.091157 542.267685 
L -387.299183 541.375318 
L -385.412233 542.165559 
L -383.576184 544.147269 
L -381.599488 543.53098 
L -379.522844 540.483948 
L -377.56533 536.550001 
L -375.421053 530.581932 
L -371.565972 522.801293 
L -367.817411 515.080344 
L -364.205423 509.467525 
L -359.357271 502.327699 
L -353.500286 497.57366 
L -347.827253 494.115059 
L -341.099117 491.761097 
L -333.220948 489.432148 
L -324.207906 489.640561 
L -317.23335 489.161265 
L -309.136536 489.70396 
L -300.04293 488.539338 
L -290.176287 487.787209 
L -280.15491 486.682928 
L -271.026505 486.148489 
L -262.34492 484.86725 
L -252.808781 484.430165 
L -242.979512 483.735068 
L -232.21126 483.558689 
L -220.601654 483.34634 
L -208.138839 483.567503 
L -194.741629 483.785916 
L -184.102111 484.962818 
L -172.737355 486.019679 
L -156.684456 486.43946 
L -139.426428 487.606539 
L -120.921779 489.025171 
L -100.248303 491.067031 
L -80.063608 493.181169 
L -57.306163 495.683956 
L -32.8402 498.952797 
L -19.15079 502.157486 
L -6.190095 503.461499 
L 7.346541 505.112707 
L 21.74163 507.450549 
L 35.952583 508.853764 
L 46.558634 510.380151 
L 54.11159 509.99199 
L 60.663623 509.483367 
L 65.823188 504.320538 
L 70.329362 497.966827 
L 74.585519 475.72128 
L 76.713598 456.285053 
L 78.841677 427.513689 
L 80.001573 419.109164 
L 80.969755 404.307617 
L 82.059253 397.590904 
L 83.097834 389.060254 
L 83.685868 395.495879 
L 84.220205 398.245365 
L 84.764872 416.080841 
L 85.225913 435.697734 
L 86.027166 488.568762 
L 86.777793 528.515898 
L 87.491218 530.722284 
L 88.329672 455.787607 
L 89.070566 443.322984 
L 89.881552 431.521559 
L 90.650672 410.265747 
L 91.433432 390.259702 
L 92.133786 374.425287 
L 92.985312 357.810636 
L 94.537191 320.850138 
L 96.089071 286.702529 
L 97.640951 257.511966 
L 99.192831 239.040862 
L 100.74471 226.801995 
L 102.29659 214.375122 
L 103.84847 208.741599 
L 105.40035 200.768844 
L 106.952229 199.77181 
L 108.433259 196.858725 
L 110.055989 194.257133 
L 112.962733 194.892101 
L 116.263508 192.614065 
L 118.591328 194.230222 
L 120.919147 194.109538 
L 124.022907 196.815699 
L 127.036494 198.067039 
L 130.230426 200.573251 
L 133.038057 202.673031 
L 135.721678 205.125952 
L 138.198775 207.718498 
L 141.093584 210.91627 
L 144.197344 214.952723 
L 148.250379 220.288944 
L 151.956743 226.005227 
L 155.282911 230.668628 
L 158.552717 234.747625 
L 161.599563 238.156065 
L 164.929764 241.171149 
L 169.071981 244.022072 
L 173.076952 246.66591 
L 176.278192 248.795248 
L 179.758833 250.951664 
L 183.544527 253.162028 
L 187.663381 255.623641 
L 189.869124 257.333533 
L 192.146559 258.856813 
L 194.613169 260.485357 
L 197.026171 261.824658 
L 199.713424 263.162949 
L 202.332023 264.207194 
L 205.357336 265.88689 
L 208.106339 266.357143 
L 211.07825 268.35605 
L 214.381055 269.470114 
L 217.737788 272.292289 
L 221.199394 274.192969 
L 225.065245 278.217728 
L 228.596977 281.09965 
L 232.586933 285.948627 
L 236.610147 290.405149 
L 240.86269 296.164594 
L 245.271717 301.890192 
L 249.948745 308.829858 
L 254.602991 315.484019 
L 259.398301 322.960759 
L 264.608895 330.622855 
L 269.738225 338.576741 
L 275.25752 346.536209 
L 280.716619 354.373107 
L 286.3849 361.902211 
L 291.782077 368.752761 
L 297.558434 375.514601 
L 303.057226 381.062534 
L 308.731968 386.4103 
L 314.142785 390.358733 
L 319.905503 395.519899 
L 325.773245 398.680839 
L 331.079037 402.64081 
L 337.010885 404.917486 
L 342.252571 406.980875 
L 347.429469 407.400491 
L 353.426105 407.946682 
L 359.335448 405.639727 
L 364.59964 403.89526 
L 370.212322 400.599619 
L 375.773174 397.686227 
L 381.339482 393.108575 
L 386.946708 388.829671 
L 392.862189 382.97587 
L 398.120243 377.224838 
L 404.191215 371.730557 
L 409.293777 366.506291 
L 412.672977 364.171652 
L 415.595258 361.127755 
L 418.168668 359.042642 
L 420.467311 355.981275 
L 423.386704 353.020883 
L 426.224573 349.276766 
L 428.977008 345.861972 
L 431.640846 342.193516 
L 433.884815 339.294079 
L 435.235125 337.841037 
L 436.424242 336.360385 
L 437.889819 334.73771 
L 439.352535 333.003918 
L 440.946539 331.258452 
L 442.81438 329.192566 
L 443.644707 328.574779 
L 444.5312 327.944672 
L 445.471711 327.259368 
L 446.462678 326.579106 
L 448.378493 325.336199 
L 450.336871 324.098696 
L 452.293982 322.914787 
L 454.400914 321.657097 
L 456.41365 320.489523 
L 458.611418 319.216722 
L 460.59169 318.216322 
L 462.794601 317.099503 
L 464.676411 316.130987 
L 466.817509 315.031142 
L 470.687113 313.094062 
L 474.408457 311.277442 
L 478.134105 309.703159 
L 482.013867 308.140394 
L 486.040684 306.466593 
L 490.205495 304.801987 
L 495.614525 302.941328 
L 501.796071 300.918501 
L 507.52673 299.09523 
L 513.550093 297.502037 
L 521.799572 295.482259 
L 529.347131 293.906196 
L 537.59661 292.223393 
L 553.393648 289.916816 
L 569.190687 287.945947 
L 584.987725 286.342251 
L 600.784763 284.991353 
L 616.581802 283.747717 
L 632.37884 282.724287 
L 648.175878 282.018681 
L 663.972917 281.232929 
L 695.566993 280.000169 
L 715.341255 279.301197 
L 736.014122 278.628251 
L 756.176981 278.072579 
L 774.552185 277.631772 
L 790.349223 277.33614 
L 805.043246 277.112642 
L 821.9433 277.001152 
L 821.9433 212.289906 
L 821.9433 212.289906 
L 805.043246 212.403439 
L 790.349223 212.631688 
L 774.552185 212.911613 
L 756.176981 213.302719 
L 736.014122 213.779971 
L 715.341255 214.369203 
L 695.566993 214.901004 
L 663.972917 215.913547 
L 648.175878 216.574728 
L 632.37884 216.786417 
L 616.581802 217.678373 
L 600.784763 218.752662 
L 584.987725 219.610075 
L 569.190687 220.724291 
L 553.393648 222.27382 
L 537.59661 224.19777 
L 529.347131 225.847362 
L 521.799572 227.297148 
L 513.550093 228.709592 
L 507.52673 229.684188 
L 501.796071 231.053556 
L 495.614525 232.466459 
L 490.205495 233.625931 
L 486.040684 234.891593 
L 482.013867 236.076535 
L 478.134105 237.040413 
L 474.408457 237.913715 
L 470.687113 239.121668 
L 466.817509 240.387763 
L 464.676411 241.084297 
L 462.794601 241.699634 
L 460.59169 242.34439 
L 458.611418 242.911038 
L 456.41365 243.718748 
L 454.400914 244.434396 
L 452.293982 245.07597 
L 450.336871 245.636252 
L 448.378493 246.067987 
L 446.462678 246.446865 
L 445.471711 246.308426 
L 444.5312 246.079051 
L 443.644707 245.634402 
L 442.81438 245.030107 
L 440.946539 245.634629 
L 439.352535 245.732097 
L 437.889819 245.391827 
L 436.424242 244.648346 
L 435.235125 243.373012 
L 433.884815 241.653833 
L 431.640846 240.445719 
L 428.977008 240.077177 
L 426.224573 239.132167 
L 423.386704 238.183749 
L 420.467311 236.1425 
L 418.168668 233.837554 
L 415.595258 230.482348 
L 412.672977 228.14763 
L 409.293777 225.299062 
L 404.191215 226.990501 
L 398.120243 229.846373 
L 392.862189 233.266114 
L 386.946708 237.871208 
L 381.339482 241.153959 
L 375.773174 244.791588 
L 370.212322 247.46819 
L 364.59964 250.776442 
L 359.335448 252.618003 
L 353.426105 256.027516 
L 347.429469 256.908464 
L 342.252571 257.236429 
L 337.010885 255.861756 
L 331.079037 255.303501 
L 325.773245 254.446487 
L 319.905503 256.073397 
L 314.142785 254.0613 
L 308.731968 253.953525 
L 303.057226 251.081338 
L 297.558434 247.552458 
L 291.782077 242.410206 
L 286.3849 236.965762 
L 280.716619 230.013538 
L 275.25752 222.919125 
L 269.738225 214.693283 
L 264.608895 206.512183 
L 259.398301 197.82936 
L 254.602991 189.297392 
L 249.948745 181.18053 
L 245.271717 172.492848 
L 240.86269 164.943673 
L 236.610147 157.208373 
L 232.586933 150.785905 
L 228.596977 143.987955 
L 225.065245 139.489061 
L 221.199394 133.427724 
L 217.737788 130.068173 
L 214.381055 125.644925 
L 211.07825 123.248963 
L 208.106339 120.266616 
L 205.357336 119.197996 
L 202.332023 116.746695 
L 199.713424 114.801175 
L 197.026171 112.653945 
L 194.613169 110.861253 
L 192.146559 108.845199 
L 189.869124 107.202449 
L 187.663381 105.455252 
L 183.544527 102.533264 
L 179.758833 100.191766 
L 176.278192 98.193475 
L 173.076952 96.394437 
L 169.071981 94.151618 
L 164.929764 91.33654 
L 161.599563 88.266978 
L 158.552717 84.44267 
L 155.282911 79.506522 
L 151.956743 73.962445 
L 148.250379 68.323553 
L 144.197344 62.830985 
L 141.093584 57.870078 
L 138.198775 54.09538 
L 135.721678 51.541906 
L 133.038057 49.069385 
L 130.230426 47.184743 
L 127.036494 44.889788 
L 124.022907 44.567448 
L 120.919147 43.609022 
L 118.591328 45.889689 
L 116.263508 46.588885 
L 112.962733 48.080986 
L 110.055989 47.933666 
L 108.433259 54.239174 
L 106.952229 61.857721 
L 105.40035 66.802272 
L 103.84847 78.990086 
L 102.29659 89.107244 
L 100.74471 106.32447 
L 99.192831 123.712098 
L 97.640951 147.91314 
L 96.089071 180.936659 
L 94.537191 218.906125 
L 92.985312 259.721431 
L 92.133786 285.788117 
L 91.433432 311.124246 
L 90.650672 340.615909 
L 89.881552 370.864319 
L 89.070566 391.741083 
L 88.329672 412.595764 
L 87.491218 493.528083 
L 86.777793 495.945873 
L 86.027166 459.741132 
L 85.225913 411.038132 
L 84.764872 394.428962 
L 84.220205 378.972517 
L 83.685868 377.748842 
L 83.097834 374.032875 
L 82.059253 381.532622 
L 80.969755 390.73176 
L 80.001573 403.357895 
L 78.841677 413.433115 
L 76.713598 442.52083 
L 74.585519 463.436704 
L 70.329362 483.871955 
L 65.823188 490.638387 
L 60.663623 492.820088 
L 54.11159 491.512091 
L 46.558634 489.20178 
L 35.952583 486.113148 
L 21.74163 482.493252 
L 7.346541 478.519438 
L -6.190095 475.541155 
L -19.15079 473.161569 
L -32.8402 468.206781 
L -57.306163 462.709419 
L -80.063608 458.488945 
L -100.248303 454.695011 
L -120.921779 450.829124 
L -139.426428 447.899613 
L -156.684456 445.235091 
L -172.737355 443.695937 
L -184.102111 441.266325 
L -194.741629 438.660676 
L -208.138839 437.087405 
L -220.601654 435.607166 
L -232.21126 434.523353 
L -242.979512 433.55885 
L -252.808781 432.938991 
L -262.34492 432.251365 
L -271.026505 432.36929 
L -280.15491 431.804575 
L -290.176287 431.74403 
L -300.04293 431.479941 
L -309.136536 431.655386 
L -317.23335 430.377089 
L -324.207906 429.579435 
L -333.220948 428.482208 
L -341.099117 431.480763 
L -347.827253 435.091358 
L -353.500286 440.091827 
L -359.357271 446.26129 
L -364.205423 454.657218 
L -367.817411 461.600757 
L -371.565972 470.478318 
L -375.421053 481.124587 
L -377.56533 489.980833 
L -379.522844 496.775602 
L -381.599488 505.02593 
L -383.576184 511.348898 
L -385.412233 519.041471 
L -387.299183 529.94018 
L -389.091157 531.609721 
L -390.922497 506.768851 
L -394.058962 435.544078 
L -396.186796 333.258633 
L -398.565481 228.528253 
L -403.072001 44.284322 
L -405.270505 125.40724 
L -407.299147 244.548253 
L -409.686832 225.386085 
L -412.590478 38.951934 
L -416.265003 43.465459 
L -421.467669 52.397515 
L -428.591888 55.184136 
L -438.349052 52.159519 
L -451.713553 45.861356 
L -470.020065 40.128772 
L -495.096852 36.722418 
L -529.448308 34.877017 
z
" clip-path="url(#p79e3ccdf2d)" style="fill: #2ca02c"/>
   </g>
   <g id="PolyCollection_4">
    <path d="M -529.448308 34.390673 
L -529.448308 34.877017 
L -495.096852 36.722418 
L -470.020065 40.128772 
L -451.713553 45.861356 
L -438.349052 52.159519 
L -428.591888 55.184136 
L -421.467669 52.397515 
L -416.265003 43.465459 
L -412.590478 38.951934 
L -409.686832 225.386085 
L -407.299147 244.548253 
L -405.270505 125.40724 
L -403.072001 44.284322 
L -398.565481 228.528253 
L -396.186796 333.258633 
L -394.058962 435.544078 
L -390.922497 506.768851 
L -389.091157 531.609721 
L -387.299183 529.94018 
L -385.412233 519.041471 
L -383.576184 511.348898 
L -381.599488 505.02593 
L -379.522844 496.775602 
L -377.56533 489.980833 
L -375.421053 481.124587 
L -371.565972 470.478318 
L -367.817411 461.600757 
L -364.205423 454.657218 
L -359.357271 446.26129 
L -353.500286 440.091827 
L -347.827253 435.091358 
L -341.099117 431.480763 
L -333.220948 428.482208 
L -324.207906 429.579435 
L -317.23335 430.377089 
L -309.136536 431.655386 
L -300.04293 431.479941 
L -290.176287 431.74403 
L -280.15491 431.804575 
L -271.026505 432.36929 
L -262.34492 432.251365 
L -252.808781 432.938991 
L -242.979512 433.55885 
L -232.21126 434.523353 
L -220.601654 435.607166 
L -208.138839 437.087405 
L -194.741629 438.660676 
L -184.102111 441.266325 
L -172.737355 443.695937 
L -156.684456 445.235091 
L -139.426428 447.899613 
L -120.921779 450.829124 
L -100.248303 454.695011 
L -80.063608 458.488945 
L -57.306163 462.709419 
L -32.8402 468.206781 
L -19.15079 473.161569 
L -6.190095 475.541155 
L 7.346541 478.519438 
L 21.74163 482.493252 
L 35.952583 486.113148 
L 46.558634 489.20178 
L 54.11159 491.512091 
L 60.663623 492.820088 
L 65.823188 490.638387 
L 70.329362 483.871955 
L 74.585519 463.436704 
L 76.713598 442.52083 
L 78.841677 413.433115 
L 80.001573 403.357895 
L 80.969755 390.73176 
L 82.059253 381.532622 
L 83.097834 374.032875 
L 83.685868 377.748842 
L 84.220205 378.972517 
L 84.764872 394.428962 
L 85.225913 411.038132 
L 86.027166 459.741132 
L 86.777793 495.945873 
L 87.491218 493.528083 
L 88.329672 412.595764 
L 89.070566 391.741083 
L 89.881552 370.864319 
L 90.650672 340.615909 
L 91.433432 311.124246 
L 92.133786 285.788117 
L 92.985312 259.721431 
L 94.537191 218.906125 
L 96.089071 180.936659 
L 97.640951 147.91314 
L 99.192831 123.712098 
L 100.74471 106.32447 
L 102.29659 89.107244 
L 103.84847 78.990086 
L 105.40035 66.802272 
L 106.952229 61.857721 
L 108.433259 54.239174 
L 110.055989 47.933666 
L 112.962733 48.080986 
L 116.263508 46.588885 
L 118.591328 45.889689 
L 120.919147 43.609022 
L 124.022907 44.567448 
L 127.036494 44.889788 
L 130.230426 47.184743 
L 133.038057 49.069385 
L 135.721678 51.541906 
L 138.198775 54.09538 
L 141.093584 57.870078 
L 144.197344 62.830985 
L 148.250379 68.323553 
L 151.956743 73.962445 
L 155.282911 79.506522 
L 158.552717 84.44267 
L 161.599563 88.266978 
L 164.929764 91.33654 
L 169.071981 94.151618 
L 173.076952 96.394437 
L 176.278192 98.193475 
L 179.758833 100.191766 
L 183.544527 102.533264 
L 187.663381 105.455252 
L 189.869124 107.202449 
L 192.146559 108.845199 
L 194.613169 110.861253 
L 197.026171 112.653945 
L 199.713424 114.801175 
L 202.332023 116.746695 
L 205.357336 119.197996 
L 208.106339 120.266616 
L 211.07825 123.248963 
L 214.381055 125.644925 
L 217.737788 130.068173 
L 221.199394 133.427724 
L 225.065245 139.489061 
L 228.596977 143.987955 
L 232.586933 150.785905 
L 236.610147 157.208373 
L 240.86269 164.943673 
L 245.271717 172.492848 
L 249.948745 181.18053 
L 254.602991 189.297392 
L 259.398301 197.82936 
L 264.608895 206.512183 
L 269.738225 214.693283 
L 275.25752 222.919125 
L 280.716619 230.013538 
L 286.3849 236.965762 
L 291.782077 242.410206 
L 297.558434 247.552458 
L 303.057226 251.081338 
L 308.731968 253.953525 
L 314.142785 254.0613 
L 319.905503 256.073397 
L 325.773245 254.446487 
L 331.079037 255.303501 
L 337.010885 255.861756 
L 342.252571 257.236429 
L 347.429469 256.908464 
L 353.426105 256.027516 
L 359.335448 252.618003 
L 364.59964 250.776442 
L 370.212322 247.46819 
L 375.773174 244.791588 
L 381.339482 241.153959 
L 386.946708 237.871208 
L 392.862189 233.266114 
L 398.120243 229.846373 
L 404.191215 226.990501 
L 409.293777 225.299062 
L 412.672977 228.14763 
L 415.595258 230.482348 
L 418.168668 233.837554 
L 420.467311 236.1425 
L 423.386704 238.183749 
L 426.224573 239.132167 
L 428.977008 240.077177 
L 431.640846 240.445719 
L 433.884815 241.653833 
L 435.235125 243.373012 
L 436.424242 244.648346 
L 437.889819 245.391827 
L 439.352535 245.732097 
L 440.946539 245.634629 
L 442.81438 245.030107 
L 443.644707 245.634402 
L 444.5312 246.079051 
L 445.471711 246.308426 
L 446.462678 246.446865 
L 448.378493 246.067987 
L 450.336871 245.636252 
L 452.293982 245.07597 
L 454.400914 244.434396 
L 456.41365 243.718748 
L 458.611418 242.911038 
L 460.59169 242.34439 
L 462.794601 241.699634 
L 464.676411 241.084297 
L 466.817509 240.387763 
L 470.687113 239.121668 
L 474.408457 237.913715 
L 478.134105 237.040413 
L 482.013867 236.076535 
L 486.040684 234.891593 
L 490.205495 233.625931 
L 495.614525 232.466459 
L 501.796071 231.053556 
L 507.52673 229.684188 
L 513.550093 228.709592 
L 521.799572 227.297148 
L 529.347131 225.847362 
L 537.59661 224.19777 
L 553.393648 222.27382 
L 569.190687 220.724291 
L 584.987725 219.610075 
L 600.784763 218.752662 
L 616.581802 217.678373 
L 632.37884 216.786417 
L 648.175878 216.574728 
L 663.972917 215.913547 
L 695.566993 214.901004 
L 715.341255 214.369203 
L 736.014122 213.779971 
L 756.176981 213.302719 
L 774.552185 212.911613 
L 790.349223 212.631688 
L 805.043246 212.403439 
L 821.9433 212.289906 
L 821.9433 206.868206 
L 821.9433 206.868206 
L 805.043246 206.949102 
L 790.349223 207.132501 
L 774.552185 207.333243 
L 756.176981 207.577486 
L 736.014122 207.845172 
L 715.341255 208.167819 
L 695.566993 208.395089 
L 663.972917 208.77837 
L 648.175878 209.144703 
L 632.37884 208.982912 
L 616.581802 209.534919 
L 600.784763 210.272374 
L 584.987725 210.775036 
L 569.190687 211.541244 
L 553.393648 212.754735 
L 537.59661 214.359027 
L 529.347131 215.934919 
L 521.799572 217.346363 
L 513.550093 218.727592 
L 507.52673 219.742026 
L 501.796071 221.164414 
L 495.614525 222.620469 
L 490.205495 223.84287 
L 486.040684 225.201107 
L 482.013867 226.490271 
L 478.134105 227.539746 
L 474.408457 228.507178 
L 470.687113 229.781057 
L 466.817509 231.106873 
L 464.676411 231.947384 
L 462.794601 232.736675 
L 460.59169 233.536845 
L 458.611418 234.288875 
L 456.41365 235.249236 
L 454.400914 236.148993 
L 452.293982 236.95991 
L 450.336871 237.72112 
L 448.378493 238.325452 
L 446.462678 238.90087 
L 445.471711 239.073737 
L 444.5312 239.183611 
L 443.644707 239.107478 
L 442.81438 238.901953 
L 440.946539 239.705395 
L 439.352535 240.074909 
L 437.889819 239.983736 
L 436.424242 239.511833 
L 435.235125 238.512418 
L 433.884815 237.043418 
L 431.640846 235.690768 
L 428.977008 235.080048 
L 426.224573 233.832153 
L 423.386704 232.463236 
L 420.467311 229.945989 
L 418.168668 227.074926 
L 415.595258 223.118285 
L 412.672977 220.040498 
L 409.293777 216.430956 
L 404.191215 217.215389 
L 398.120243 219.17456 
L 392.862189 221.652867 
L 386.946708 225.390813 
L 381.339482 228.559805 
L 375.773174 232.076217 
L 370.212322 234.718916 
L 364.59964 237.964517 
L 359.335448 239.792869 
L 353.426105 243.077032 
L 347.429469 243.923425 
L 342.252571 244.258647 
L 337.010885 242.89083 
L 331.079037 242.239224 
L 325.773245 240.965329 
L 319.905503 242.068012 
L 314.142785 239.752446 
L 308.731968 239.331419 
L 303.057226 236.32329 
L 297.558434 232.727355 
L 291.782077 227.643052 
L 286.3849 222.272514 
L 280.716619 215.528593 
L 275.25752 208.630479 
L 269.738225 200.725632 
L 264.608895 192.836655 
L 259.398301 184.546697 
L 254.602991 176.37147 
L 249.948745 168.67373 
L 245.271717 160.398141 
L 240.86269 153.303882 
L 236.610147 145.972229 
L 232.586933 140.011668 
L 228.596977 133.615652 
L 225.065245 129.566957 
L 221.199394 123.903193 
L 217.737788 121.023314 
L 214.381055 116.950756 
L 211.07825 115.036272 
L 208.106339 112.377678 
L 205.357336 111.732934 
L 202.332023 109.642048 
L 199.713424 108.072038 
L 197.026171 106.329045 
L 194.613169 104.848812 
L 192.146559 103.168016 
L 189.869124 101.880318 
L 187.663381 100.489387 
L 183.544527 98.225477 
L 179.758833 96.59928 
L 176.278192 95.197334 
L 173.076952 94.037021 
L 169.071981 92.549219 
L 164.929764 90.597365 
L 161.599563 88.170032 
L 158.552717 83.912035 
L 155.282911 78.393313 
L 151.956743 72.243397 
L 148.250379 66.122894 
L 144.197344 60.160983 
L 141.093584 55.086217 
L 138.198775 51.172799 
L 135.721678 48.59937 
L 133.038057 46.078722 
L 130.230426 44.185176 
L 127.036494 41.893487 
L 124.022907 41.560369 
L 120.919147 40.613459 
L 118.591328 42.870473 
L 116.263508 43.557981 
L 112.962733 44.938151 
L 110.055989 44.699479 
L 108.433259 50.850722 
L 106.952229 58.375924 
L 105.40035 63.095906 
L 103.84847 74.949852 
L 102.29659 84.609023 
L 100.74471 101.347067 
L 99.192831 117.996406 
L 97.640951 141.547798 
L 96.089071 172.656 
L 94.537191 208.564979 
L 92.985312 246.754161 
L 92.133786 272.271919 
L 91.433432 296.794135 
L 90.650672 325.87609 
L 89.881552 355.262661 
L 89.070566 375.746733 
L 88.329672 395.739954 
L 87.491218 475.916778 
L 86.777793 477.163603 
L 86.027166 440.562838 
L 85.225913 391.123388 
L 84.764872 374.757184 
L 84.220205 358.924101 
L 83.685868 358.131801 
L 83.097834 354.220826 
L 82.059253 362.559418 
L 80.969755 372.243883 
L 80.001573 386.174788 
L 78.841677 397.138444 
L 76.713598 427.684347 
L 74.585519 449.675685 
L 70.329362 472.333397 
L 65.823188 479.976387 
L 60.663623 483.821209 
L 54.11159 483.73941 
L 46.558634 482.799621 
L 35.952583 480.340829 
L 21.74163 477.883449 
L 7.346541 474.3584 
L -6.190095 472.036419 
L -19.15079 469.957095 
L -32.8402 465.478339 
L -57.306163 460.521741 
L -80.063608 456.818221 
L -100.248303 453.201449 
L -120.921779 449.858257 
L -139.426428 446.88698 
L -156.684456 444.596202 
L -172.737355 442.991872 
L -184.102111 440.84907 
L -194.741629 438.106772 
L -208.138839 436.772952 
L -220.601654 435.167056 
L -232.21126 434.272188 
L -242.979512 433.172876 
L -252.808781 432.698923 
L -262.34492 431.8693 
L -271.026505 432.096347 
L -280.15491 431.366576 
L -290.176287 431.345295 
L -300.04293 430.927031 
L -309.136536 431.138742 
L -317.23335 429.677557 
L -324.207906 428.875596 
L -333.220948 427.649642 
L -341.099117 430.525539 
L -347.827253 433.856663 
L -353.500286 438.677086 
L -359.357271 444.688871 
L -364.205423 453.102346 
L -367.817411 459.857306 
L -371.565972 468.94492 
L -375.421053 479.418741 
L -377.56533 488.456436 
L -379.522844 495.029195 
L -381.599488 503.524307 
L -383.576184 509.530826 
L -385.412233 517.579306 
L -387.299183 528.143977 
L -389.091157 530.223171 
L -390.922497 504.999877 
L -394.058962 434.336296 
L -396.186796 331.689152 
L -398.565481 227.513149 
L -403.072001 43.025319 
L -405.270505 124.750844 
L -407.299147 243.541609 
L -409.686832 225.00652 
L -412.590478 38.292014 
L -416.265003 43.393261 
L -421.467669 52.102505 
L -428.591888 54.973031 
L -438.349052 52.108772 
L -451.713553 45.440221 
L -470.020065 39.805264 
L -495.096852 36.203032 
L -529.448308 34.390673 
z
" clip-path="url(#p79e3ccdf2d)" style="fill: #d62728"/>
   </g>
   <g id="matplotlib.axis_1">
    <g id="xtick_1">
     <g id="line2d_1">
      <path d="M 102.433225 617.04 
L 102.433225 7.2 
" clip-path="url(#p79e3ccdf2d)" style="fill: none; stroke: #b0b0b0; stroke-width: 0.8; stroke-linecap: square"/>
     </g>
     <g id="line2d_2">
      <defs>
       <path id="m71c2c02e53" d="M 0 0 
L 0 3.5 
" style="stroke: #000000; stroke-width: 0.8"/>
      </defs>
      <g>
       <use xlink:href="#m71c2c02e53" x="102.433225" y="617.04" style="stroke: #000000; stroke-width: 0.8"/>
      </g>
     </g>
     <g id="text_1">
      <!-- $\mathdefault{0.20}$ -->
      <g transform="translate(77.807934 644.795495) scale(0.3 -0.3)">
       <defs>
        <path id="CMR17-30" d="M 2688 2025 
C 2688 2416 2682 3080 2413 3591 
C 2176 4039 1798 4198 1466 4198 
C 1158 4198 768 4058 525 3597 
C 269 3118 243 2524 243 2025 
C 243 1661 250 1106 448 619 
C 723 -39 1216 -128 1466 -128 
C 1760 -128 2208 -7 2470 600 
C 2662 1042 2688 1559 2688 2025 
z
M 1466 -26 
C 1056 -26 813 325 723 812 
C 653 1188 653 1738 653 2096 
C 653 2588 653 2997 736 3387 
C 858 3929 1216 4096 1466 4096 
C 1728 4096 2067 3923 2189 3400 
C 2272 3036 2278 2607 2278 2096 
C 2278 1680 2278 1169 2202 792 
C 2067 95 1690 -26 1466 -26 
z
" transform="scale(0.015625)"/>
        <path id="CMMI12-3a" d="M 1178 307 
C 1178 492 1024 619 870 619 
C 685 619 557 466 557 313 
C 557 128 710 0 864 0 
C 1050 0 1178 153 1178 307 
z
" transform="scale(0.015625)"/>
        <path id="CMR17-32" d="M 2669 989 
L 2554 989 
C 2490 536 2438 459 2413 420 
C 2381 369 1920 369 1830 369 
L 602 369 
C 832 619 1280 1072 1824 1597 
C 2214 1967 2669 2402 2669 3035 
C 2669 3790 2067 4224 1395 4224 
C 691 4224 262 3604 262 3030 
C 262 2780 448 2748 525 2748 
C 589 2748 781 2787 781 3010 
C 781 3207 614 3264 525 3264 
C 486 3264 448 3258 422 3245 
C 544 3790 915 4058 1306 4058 
C 1862 4058 2227 3617 2227 3035 
C 2227 2479 1901 2000 1536 1584 
L 262 146 
L 262 0 
L 2515 0 
L 2669 989 
z
" transform="scale(0.015625)"/>
       </defs>
       <use xlink:href="#CMR17-30" transform="scale(0.996264)"/>
       <use xlink:href="#CMMI12-3a" transform="translate(45.690477 0) scale(0.996264)"/>
       <use xlink:href="#CMR17-32" transform="translate(72.787654 0) scale(0.996264)"/>
       <use xlink:href="#CMR17-30" transform="translate(118.478131 0) scale(0.996264)"/>
      </g>
     </g>
    </g>
    <g id="xtick_2">
     <g id="line2d_3">
      <path d="M 228.809532 617.04 
L 228.809532 7.2 
" clip-path="url(#p79e3ccdf2d)" style="fill: none; stroke: #b0b0b0; stroke-width: 0.8; stroke-linecap: square"/>
     </g>
     <g id="line2d_4">
      <g>
       <use xlink:href="#m71c2c02e53" x="228.809532" y="617.04" style="stroke: #000000; stroke-width: 0.8"/>
      </g>
     </g>
     <g id="text_2">
      <!-- $\mathdefault{0.25}$ -->
      <g transform="translate(204.184241 644.795495) scale(0.3 -0.3)">
       <defs>
        <path id="CMR17-35" d="M 730 3692 
C 794 3666 1056 3584 1325 3584 
C 1920 3584 2246 3911 2432 4100 
C 2432 4157 2432 4192 2394 4192 
C 2387 4192 2374 4192 2323 4163 
C 2099 4058 1837 3973 1517 3973 
C 1325 3973 1037 3999 723 4139 
C 653 4171 640 4171 634 4171 
C 602 4171 595 4164 595 4037 
L 595 2203 
C 595 2089 595 2057 659 2057 
C 691 2057 704 2070 736 2114 
C 941 2401 1222 2522 1542 2522 
C 1766 2522 2246 2382 2246 1289 
C 2246 1085 2246 715 2054 421 
C 1894 159 1645 25 1370 25 
C 947 25 518 320 403 814 
C 429 807 480 795 506 795 
C 589 795 749 840 749 1038 
C 749 1210 627 1280 506 1280 
C 358 1280 262 1190 262 1011 
C 262 454 704 -128 1382 -128 
C 2042 -128 2669 440 2669 1264 
C 2669 2030 2170 2624 1549 2624 
C 1222 2624 947 2503 730 2274 
L 730 3692 
z
" transform="scale(0.015625)"/>
       </defs>
       <use xlink:href="#CMR17-30" transform="scale(0.996264)"/>
       <use xlink:href="#CMMI12-3a" transform="translate(45.690477 0) scale(0.996264)"/>
       <use xlink:href="#CMR17-32" transform="translate(72.787654 0) scale(0.996264)"/>
       <use xlink:href="#CMR17-35" transform="translate(118.478131 0) scale(0.996264)"/>
      </g>
     </g>
    </g>
    <g id="xtick_3">
     <g id="line2d_5">
      <path d="M 355.185839 617.04 
L 355.185839 7.2 
" clip-path="url(#p79e3ccdf2d)" style="fill: none; stroke: #b0b0b0; stroke-width: 0.8; stroke-linecap: square"/>
     </g>
     <g id="line2d_6">
      <g>
       <use xlink:href="#m71c2c02e53" x="355.185839" y="617.04" style="stroke: #000000; stroke-width: 0.8"/>
      </g>
     </g>
     <g id="text_3">
      <!-- $\mathdefault{0.30}$ -->
      <g transform="translate(330.560547 644.795495) scale(0.3 -0.3)">
       <defs>
        <path id="CMR17-33" d="M 1414 2157 
C 1984 2157 2234 1662 2234 1090 
C 2234 320 1824 25 1453 25 
C 1114 25 563 194 390 693 
C 422 680 454 680 486 680 
C 640 680 755 782 755 948 
C 755 1133 614 1216 486 1216 
C 378 1216 211 1165 211 926 
C 211 335 787 -128 1466 -128 
C 2176 -128 2720 430 2720 1085 
C 2720 1707 2208 2157 1600 2227 
C 2086 2328 2554 2756 2554 3329 
C 2554 3820 2048 4179 1472 4179 
C 890 4179 378 3829 378 3329 
C 378 3110 544 3072 627 3072 
C 762 3072 877 3155 877 3321 
C 877 3486 762 3569 627 3569 
C 602 3569 570 3569 544 3557 
C 730 3959 1235 4032 1459 4032 
C 1683 4032 2106 3925 2106 3320 
C 2106 3143 2080 2828 1862 2550 
C 1670 2304 1453 2304 1242 2284 
C 1210 2284 1062 2269 1037 2269 
C 992 2263 966 2257 966 2208 
C 966 2163 973 2157 1101 2157 
L 1414 2157 
z
" transform="scale(0.015625)"/>
       </defs>
       <use xlink:href="#CMR17-30" transform="scale(0.996264)"/>
       <use xlink:href="#CMMI12-3a" transform="translate(45.690477 0) scale(0.996264)"/>
       <use xlink:href="#CMR17-33" transform="translate(72.787654 0) scale(0.996264)"/>
       <use xlink:href="#CMR17-30" transform="translate(118.478131 0) scale(0.996264)"/>
      </g>
     </g>
    </g>
    <g id="xtick_4">
     <g id="line2d_7">
      <path d="M 481.562145 617.04 
L 481.562145 7.2 
" clip-path="url(#p79e3ccdf2d)" style="fill: none; stroke: #b0b0b0; stroke-width: 0.8; stroke-linecap: square"/>
     </g>
     <g id="line2d_8">
      <g>
       <use xlink:href="#m71c2c02e53" x="481.562145" y="617.04" style="stroke: #000000; stroke-width: 0.8"/>
      </g>
     </g>
     <g id="text_4">
      <!-- $\mathdefault{0.35}$ -->
      <g transform="translate(456.936854 644.795495) scale(0.3 -0.3)">
       <use xlink:href="#CMR17-30" transform="scale(0.996264)"/>
       <use xlink:href="#CMMI12-3a" transform="translate(45.690477 0) scale(0.996264)"/>
       <use xlink:href="#CMR17-33" transform="translate(72.787654 0) scale(0.996264)"/>
       <use xlink:href="#CMR17-35" transform="translate(118.478131 0) scale(0.996264)"/>
      </g>
     </g>
    </g>
    <g id="xtick_5">
     <g id="line2d_9">
      <path d="M 607.938452 617.04 
L 607.938452 7.2 
" clip-path="url(#p79e3ccdf2d)" style="fill: none; stroke: #b0b0b0; stroke-width: 0.8; stroke-linecap: square"/>
     </g>
     <g id="line2d_10">
      <g>
       <use xlink:href="#m71c2c02e53" x="607.938452" y="617.04" style="stroke: #000000; stroke-width: 0.8"/>
      </g>
     </g>
     <g id="text_5">
      <!-- $\mathdefault{0.40}$ -->
      <g transform="translate(583.313161 644.795495) scale(0.3 -0.3)">
       <defs>
        <path id="CMR17-34" d="M 2150 4122 
C 2150 4256 2144 4256 2029 4256 
L 128 1254 
L 128 1088 
L 1779 1088 
L 1779 457 
C 1779 224 1766 160 1318 160 
L 1197 160 
L 1197 0 
C 1402 0 1747 0 1965 0 
C 2182 0 2528 0 2733 0 
L 2733 160 
L 2611 160 
C 2163 160 2150 224 2150 457 
L 2150 1088 
L 2803 1088 
L 2803 1254 
L 2150 1254 
L 2150 4122 
z
M 1798 3703 
L 1798 1254 
L 256 1254 
L 1798 3703 
z
" transform="scale(0.015625)"/>
       </defs>
       <use xlink:href="#CMR17-30" transform="scale(0.996264)"/>
       <use xlink:href="#CMMI12-3a" transform="translate(45.690477 0) scale(0.996264)"/>
       <use xlink:href="#CMR17-34" transform="translate(72.787654 0) scale(0.996264)"/>
       <use xlink:href="#CMR17-30" transform="translate(118.478131 0) scale(0.996264)"/>
      </g>
     </g>
    </g>
    <g id="xtick_6">
     <g id="line2d_11">
      <path d="M 734.314759 617.04 
L 734.314759 7.2 
" clip-path="url(#p79e3ccdf2d)" style="fill: none; stroke: #b0b0b0; stroke-width: 0.8; stroke-linecap: square"/>
     </g>
     <g id="line2d_12">
      <g>
       <use xlink:href="#m71c2c02e53" x="734.314759" y="617.04" style="stroke: #000000; stroke-width: 0.8"/>
      </g>
     </g>
     <g id="text_6">
      <!-- $\mathdefault{0.45}$ -->
      <g transform="translate(709.689467 644.795495) scale(0.3 -0.3)">
       <use xlink:href="#CMR17-30" transform="scale(0.996264)"/>
       <use xlink:href="#CMMI12-3a" transform="translate(45.690477 0) scale(0.996264)"/>
       <use xlink:href="#CMR17-34" transform="translate(72.787654 0) scale(0.996264)"/>
       <use xlink:href="#CMR17-35" transform="translate(118.478131 0) scale(0.996264)"/>
      </g>
     </g>
    </g>
    <g id="text_7">
     <!-- $x, \; m $ -->
     <g transform="translate(410.316604 678.823697) scale(0.35 -0.35)">
      <defs>
       <path id="CMMI12-78" d="M 3034 2606 
C 2829 2567 2752 2414 2752 2293 
C 2752 2139 2874 2088 2963 2088 
C 3155 2088 3290 2254 3290 2427 
C 3290 2695 2982 2816 2714 2816 
C 2323 2816 2106 2433 2048 2312 
C 1901 2816 1504 2816 1389 2816 
C 736 2816 390 1980 390 1839 
C 390 1814 416 1782 461 1782 
C 512 1782 525 1820 538 1846 
C 755 2555 1184 2689 1370 2689 
C 1658 2689 1715 2420 1715 2267 
C 1715 2127 1677 1980 1600 1673 
L 1382 798 
C 1286 415 1101 64 762 64 
C 730 64 570 64 435 147 
C 666 192 717 383 717 460 
C 717 588 621 664 499 664 
C 346 664 179 530 179 326 
C 179 57 480 -64 755 -64 
C 1062 -64 1280 179 1414 441 
C 1517 64 1837 -64 2074 -64 
C 2726 -64 3072 773 3072 913 
C 3072 945 3046 971 3008 971 
C 2950 971 2944 939 2925 888 
C 2752 326 2381 64 2093 64 
C 1869 64 1747 230 1747 492 
C 1747 632 1773 734 1875 1156 
L 2099 2024 
C 2195 2408 2413 2689 2707 2689 
C 2720 2689 2899 2689 3034 2606 
z
" transform="scale(0.015625)"/>
       <path id="CMMI12-3b" d="M 1248 -31 
C 1248 343 1126 619 864 619 
C 659 619 557 453 557 313 
C 557 172 653 0 870 0 
C 954 0 1024 26 1082 83 
C 1094 96 1101 96 1107 96 
C 1120 96 1120 5 1120 -27 
C 1120 -240 1082 -659 710 -1080 
C 640 -1157 640 -1170 640 -1183 
C 640 -1216 672 -1248 704 -1248 
C 755 -1248 1248 -771 1248 -31 
z
" transform="scale(0.015625)"/>
       <path id="CMMI12-6d" d="M 1318 1871 
C 1331 1910 1491 2229 1728 2433 
C 1894 2586 2112 2689 2362 2689 
C 2618 2689 2707 2497 2707 2242 
C 2707 2203 2707 2076 2630 1775 
L 2470 1118 
C 2419 926 2298 453 2285 383 
C 2259 287 2221 121 2221 96 
C 2221 6 2291 -64 2387 -64 
C 2579 -64 2611 83 2669 313 
L 3053 1839 
C 3066 1890 3398 2689 4102 2689 
C 4358 2689 4448 2497 4448 2242 
C 4448 1884 4198 1188 4058 805 
C 4000 651 3968 568 3968 453 
C 3968 166 4166 -64 4474 -64 
C 5069 -64 5293 875 5293 913 
C 5293 945 5267 971 5229 971 
C 5171 971 5165 952 5133 843 
C 4986 332 4749 64 4493 64 
C 4429 64 4326 64 4326 269 
C 4326 436 4403 640 4429 710 
C 4544 1018 4832 1773 4832 2145 
C 4832 2528 4608 2816 4122 2816 
C 3693 2816 3347 2574 3091 2197 
C 3072 2542 2861 2816 2381 2816 
C 1811 2816 1510 2415 1395 2255 
C 1376 2618 1114 2816 832 2816 
C 646 2816 499 2727 378 2484 
C 262 2254 173 1865 173 1839 
C 173 1814 198 1782 243 1782 
C 294 1782 301 1788 339 1935 
C 435 2312 557 2689 813 2689 
C 960 2689 1011 2586 1011 2395 
C 1011 2254 947 2005 902 1807 
L 723 1118 
C 698 996 627 709 595 594 
C 550 428 480 128 480 96 
C 480 6 550 -64 646 -64 
C 723 -64 813 -26 864 70 
C 877 102 934 326 966 453 
L 1107 1028 
L 1318 1871 
z
" transform="scale(0.015625)"/>
      </defs>
      <use xlink:href="#CMMI12-78" transform="scale(0.996264)"/>
      <use xlink:href="#CMMI12-3b" transform="translate(55.43406 0) scale(0.996264)"/>
      <use xlink:href="#CMMI12-6d" transform="translate(126.809651 0) scale(0.996264)"/>
     </g>
    </g>
   </g>
   <g id="matplotlib.axis_2">
    <g id="ytick_1">
     <g id="line2d_13">
      <path d="M 84.740543 605.312308 
L 810.140543 605.312308 
" clip-path="url(#p79e3ccdf2d)" style="fill: none; stroke: #b0b0b0; stroke-width: 0.8; stroke-linecap: square"/>
     </g>
     <g id="line2d_14">
      <defs>
       <path id="m9f61182971" d="M 0 0 
L -3.5 0 
" style="stroke: #000000; stroke-width: 0.8"/>
      </defs>
      <g>
       <use xlink:href="#m9f61182971" x="84.740543" y="605.312308" style="stroke: #000000; stroke-width: 0.8"/>
      </g>
     </g>
     <g id="text_8">
      <!-- $\mathdefault{0.0}$ -->
      <g transform="translate(42.197103 615.690055) scale(0.3 -0.3)">
       <use xlink:href="#CMR17-30" transform="scale(0.996264)"/>
       <use xlink:href="#CMMI12-3a" transform="translate(45.690477 0) scale(0.996264)"/>
       <use xlink:href="#CMR17-30" transform="translate(72.787654 0) scale(0.996264)"/>
      </g>
     </g>
    </g>
    <g id="ytick_2">
     <g id="line2d_15">
      <path d="M 84.740543 488.035385 
L 810.140543 488.035385 
" clip-path="url(#p79e3ccdf2d)" style="fill: none; stroke: #b0b0b0; stroke-width: 0.8; stroke-linecap: square"/>
     </g>
     <g id="line2d_16">
      <g>
       <use xlink:href="#m9f61182971" x="84.740543" y="488.035385" style="stroke: #000000; stroke-width: 0.8"/>
      </g>
     </g>
     <g id="text_9">
      <!-- $\mathdefault{0.2}$ -->
      <g transform="translate(42.197103 498.413132) scale(0.3 -0.3)">
       <use xlink:href="#CMR17-30" transform="scale(0.996264)"/>
       <use xlink:href="#CMMI12-3a" transform="translate(45.690477 0) scale(0.996264)"/>
       <use xlink:href="#CMR17-32" transform="translate(72.787654 0) scale(0.996264)"/>
      </g>
     </g>
    </g>
    <g id="ytick_3">
     <g id="line2d_17">
      <path d="M 84.740543 370.758462 
L 810.140543 370.758462 
" clip-path="url(#p79e3ccdf2d)" style="fill: none; stroke: #b0b0b0; stroke-width: 0.8; stroke-linecap: square"/>
     </g>
     <g id="line2d_18">
      <g>
       <use xlink:href="#m9f61182971" x="84.740543" y="370.758462" style="stroke: #000000; stroke-width: 0.8"/>
      </g>
     </g>
     <g id="text_10">
      <!-- $\mathdefault{0.4}$ -->
      <g transform="translate(42.197103 381.136209) scale(0.3 -0.3)">
       <use xlink:href="#CMR17-30" transform="scale(0.996264)"/>
       <use xlink:href="#CMMI12-3a" transform="translate(45.690477 0) scale(0.996264)"/>
       <use xlink:href="#CMR17-34" transform="translate(72.787654 0) scale(0.996264)"/>
      </g>
     </g>
    </g>
    <g id="ytick_4">
     <g id="line2d_19">
      <path d="M 84.740543 253.481538 
L 810.140543 253.481538 
" clip-path="url(#p79e3ccdf2d)" style="fill: none; stroke: #b0b0b0; stroke-width: 0.8; stroke-linecap: square"/>
     </g>
     <g id="line2d_20">
      <g>
       <use xlink:href="#m9f61182971" x="84.740543" y="253.481538" style="stroke: #000000; stroke-width: 0.8"/>
      </g>
     </g>
     <g id="text_11">
      <!-- $\mathdefault{0.6}$ -->
      <g transform="translate(42.197103 263.859286) scale(0.3 -0.3)">
       <defs>
        <path id="CMR17-36" d="M 678 2176 
C 678 3690 1395 4032 1811 4032 
C 1946 4032 2272 4009 2400 3776 
C 2298 3776 2106 3776 2106 3553 
C 2106 3381 2246 3323 2336 3323 
C 2394 3323 2566 3348 2566 3560 
C 2566 3954 2246 4179 1805 4179 
C 1043 4179 243 3390 243 1984 
C 243 253 966 -128 1478 -128 
C 2099 -128 2688 427 2688 1283 
C 2688 2081 2170 2662 1517 2662 
C 1126 2662 838 2407 678 1960 
L 678 2176 
z
M 1478 25 
C 691 25 691 1200 691 1436 
C 691 1896 909 2560 1504 2560 
C 1613 2560 1926 2560 2138 2120 
C 2253 1870 2253 1609 2253 1289 
C 2253 944 2253 690 2118 434 
C 1978 171 1773 25 1478 25 
z
" transform="scale(0.015625)"/>
       </defs>
       <use xlink:href="#CMR17-30" transform="scale(0.996264)"/>
       <use xlink:href="#CMMI12-3a" transform="translate(45.690477 0) scale(0.996264)"/>
       <use xlink:href="#CMR17-36" transform="translate(72.787654 0) scale(0.996264)"/>
      </g>
     </g>
    </g>
    <g id="ytick_5">
     <g id="line2d_21">
      <path d="M 84.740543 136.204615 
L 810.140543 136.204615 
" clip-path="url(#p79e3ccdf2d)" style="fill: none; stroke: #b0b0b0; stroke-width: 0.8; stroke-linecap: square"/>
     </g>
     <g id="line2d_22">
      <g>
       <use xlink:href="#m9f61182971" x="84.740543" y="136.204615" style="stroke: #000000; stroke-width: 0.8"/>
      </g>
     </g>
     <g id="text_12">
      <!-- $\mathdefault{0.8}$ -->
      <g transform="translate(42.197103 146.582363) scale(0.3 -0.3)">
       <defs>
        <path id="CMR17-38" d="M 1741 2264 
C 2144 2467 2554 2773 2554 3263 
C 2554 3841 1990 4179 1472 4179 
C 890 4179 378 3759 378 3180 
C 378 3021 416 2747 666 2505 
C 730 2442 998 2251 1171 2130 
C 883 1983 211 1634 211 934 
C 211 279 838 -128 1459 -128 
C 2144 -128 2720 362 2720 1010 
C 2720 1590 2330 1857 2074 2029 
L 1741 2264 
z
M 902 2822 
C 851 2854 595 3051 595 3351 
C 595 3739 998 4032 1459 4032 
C 1965 4032 2336 3676 2336 3262 
C 2336 2669 1670 2331 1638 2331 
C 1632 2331 1626 2331 1574 2370 
L 902 2822 
z
M 2080 1519 
C 2176 1449 2483 1240 2483 851 
C 2483 381 2010 25 1472 25 
C 890 25 448 438 448 940 
C 448 1443 838 1862 1280 2060 
L 2080 1519 
z
" transform="scale(0.015625)"/>
       </defs>
       <use xlink:href="#CMR17-30" transform="scale(0.996264)"/>
       <use xlink:href="#CMMI12-3a" transform="translate(45.690477 0) scale(0.996264)"/>
       <use xlink:href="#CMR17-38" transform="translate(72.787654 0) scale(0.996264)"/>
      </g>
     </g>
    </g>
    <g id="ytick_6">
     <g id="line2d_23">
      <path d="M 84.740543 18.927692 
L 810.140543 18.927692 
" clip-path="url(#p79e3ccdf2d)" style="fill: none; stroke: #b0b0b0; stroke-width: 0.8; stroke-linecap: square"/>
     </g>
     <g id="line2d_24">
      <g>
       <use xlink:href="#m9f61182971" x="84.740543" y="18.927692" style="stroke: #000000; stroke-width: 0.8"/>
      </g>
     </g>
     <g id="text_13">
      <!-- $\mathdefault{1.0}$ -->
      <g transform="translate(42.197103 29.30544) scale(0.3 -0.3)">
       <defs>
        <path id="CMR17-31" d="M 1702 4058 
C 1702 4192 1696 4192 1606 4192 
C 1357 3916 979 3827 621 3827 
C 602 3827 570 3827 563 3808 
C 557 3795 557 3782 557 3648 
C 755 3648 1088 3686 1344 3839 
L 1344 461 
C 1344 236 1331 160 781 160 
L 589 160 
L 589 0 
C 896 0 1216 0 1523 0 
C 1830 0 2150 0 2458 0 
L 2458 160 
L 2266 160 
C 1715 160 1702 230 1702 458 
L 1702 4058 
z
" transform="scale(0.015625)"/>
       </defs>
       <use xlink:href="#CMR17-31" transform="scale(0.996264)"/>
       <use xlink:href="#CMMI12-3a" transform="translate(45.690477 0) scale(0.996264)"/>
       <use xlink:href="#CMR17-30" transform="translate(72.787654 0) scale(0.996264)"/>
      </g>
     </g>
    </g>
    <g id="text_14">
     <!-- $S_1, \; -$ -->
     <g transform="translate(31.414752 354.516175) rotate(-90) scale(0.35 -0.35)">
      <defs>
       <path id="CMMI12-53" d="M 4064 4423 
C 4064 4480 4019 4480 4006 4480 
C 3981 4480 3974 4474 3898 4378 
C 3859 4333 3597 4001 3590 3995 
C 3379 4410 2957 4480 2688 4480 
C 1875 4480 1139 3743 1139 3025 
C 1139 2549 1427 2269 1741 2161 
C 1811 2135 2189 2033 2381 1989 
C 2707 1900 2790 1875 2925 1735 
C 2950 1703 3078 1557 3078 1258 
C 3078 667 2528 57 1888 57 
C 1363 57 781 280 781 991 
C 781 1112 806 1265 826 1328 
C 826 1348 832 1378 832 1391 
C 832 1417 819 1449 768 1449 
C 710 1449 704 1436 678 1328 
L 352 24 
C 352 18 326 -64 326 -71 
C 326 -128 378 -128 390 -128 
C 416 -128 422 -122 499 -26 
L 794 356 
C 947 126 1280 -128 1875 -128 
C 2701 -128 3456 666 3456 1460 
C 3456 1728 3392 1963 3149 2197 
C 3014 2331 2899 2363 2310 2516 
C 1882 2630 1824 2649 1709 2751 
C 1600 2858 1517 3011 1517 3227 
C 1517 3761 2061 4308 2669 4308 
C 3296 4308 3590 3926 3590 3323 
C 3590 3158 3558 2986 3558 2961 
C 3558 2903 3610 2903 3629 2903 
C 3686 2903 3693 2922 3718 3024 
L 4064 4423 
z
" transform="scale(0.015625)"/>
       <path id="CMSY10-0" d="M 4218 1472 
C 4326 1472 4442 1472 4442 1600 
C 4442 1728 4326 1728 4218 1728 
L 755 1728 
C 646 1728 531 1728 531 1600 
C 531 1472 646 1472 755 1472 
L 4218 1472 
z
" transform="scale(0.015625)"/>
      </defs>
      <use xlink:href="#CMMI12-53" transform="scale(0.996264)"/>
      <use xlink:href="#CMR17-31" transform="translate(59.994488 -14.943915) scale(0.697382)"/>
      <use xlink:href="#CMMI12-3b" transform="translate(92.475802 0) scale(0.996264)"/>
      <use xlink:href="#CMSY10-0" transform="translate(163.851393 0) scale(0.996264)"/>
     </g>
    </g>
   </g>
   <g id="patch_3">
    <path d="M 84.740543 617.04 
L 84.740543 7.2 
" style="fill: none; stroke: #000000; stroke-width: 0.8; stroke-linejoin: miter; stroke-linecap: square"/>
   </g>
   <g id="patch_4">
    <path d="M 810.140543 617.04 
L 810.140543 7.2 
" style="fill: none; stroke: #000000; stroke-width: 0.8; stroke-linejoin: miter; stroke-linecap: square"/>
   </g>
   <g id="patch_5">
    <path d="M 84.740543 617.04 
L 810.140543 617.04 
" style="fill: none; stroke: #000000; stroke-width: 0.8; stroke-linejoin: miter; stroke-linecap: square"/>
   </g>
   <g id="patch_6">
    <path d="M 84.740543 7.2 
L 810.140543 7.2 
" style="fill: none; stroke: #000000; stroke-width: 0.8; stroke-linejoin: miter; stroke-linecap: square"/>
   </g>
   <g id="legend_1">
    <g id="patch_7">
     <path d="M 833.436089 232.438667 
L 992.379543 232.438667 
Q 999.379543 232.438667 999.379543 225.438667 
L 999.379543 31.7 
Q 999.379543 24.7 992.379543 24.7 
L 833.436089 24.7 
Q 826.436089 24.7 826.436089 31.7 
L 826.436089 225.438667 
Q 826.436089 232.438667 833.436089 232.438667 
z
" style="fill: #ffffff; opacity: 0.8; stroke: #cccccc; stroke-linejoin: miter"/>
    </g>
    <g id="patch_8">
     <path d="M 840.436089 63.2 
L 910.436089 63.2 
L 910.436089 38.7 
L 840.436089 38.7 
z
" style="fill: #1f77b4"/>
    </g>
    <g id="text_15">
     <!-- $M$ -->
     <g transform="translate(938.436089 63.2) scale(0.35 -0.35)">
      <defs>
       <path id="CMMI12-4d" d="M 5811 3886 
C 5869 4103 5882 4167 6336 4167 
C 6458 4167 6515 4167 6515 4288 
C 6515 4352 6470 4352 6349 4352 
L 5581 4352 
C 5421 4352 5414 4346 5344 4243 
L 3008 562 
L 2528 4211 
C 2509 4352 2502 4352 2336 4352 
L 1542 4352 
C 1421 4352 1363 4352 1363 4231 
C 1363 4167 1421 4167 1517 4167 
C 1907 4167 1907 4116 1907 4046 
C 1907 4034 1907 3995 1882 3899 
L 1062 634 
C 986 327 838 186 410 186 
C 390 186 314 186 314 73 
C 314 0 371 0 397 0 
C 525 0 851 0 979 0 
L 1286 0 
C 1376 0 1485 0 1574 0 
C 1619 0 1690 0 1690 122 
C 1690 180 1626 186 1600 186 
C 1389 186 1184 224 1184 454 
C 1184 518 1184 524 1210 613 
L 2093 4129 
L 2099 4129 
L 2630 172 
C 2650 19 2656 0 2714 0 
C 2784 0 2816 51 2848 109 
L 5421 4161 
L 5427 4161 
L 4499 473 
C 4442 250 4429 186 3981 186 
C 3859 186 3795 186 3795 70 
C 3795 0 3853 0 3891 0 
C 4000 0 4128 0 4237 0 
L 4992 0 
C 5101 0 5235 0 5344 0 
C 5395 0 5466 0 5466 122 
C 5466 186 5408 186 5312 186 
C 4922 186 4922 234 4922 294 
C 4922 301 4922 345 4934 396 
L 5811 3886 
z
" transform="scale(0.015625)"/>
      </defs>
      <use xlink:href="#CMMI12-4d" transform="scale(0.996264)"/>
     </g>
    </g>
    <g id="patch_9">
     <path d="M 840.436089 111.982351 
L 910.436089 111.982351 
L 910.436089 87.482351 
L 840.436089 87.482351 
z
" style="fill: #ff7f0e"/>
    </g>
    <g id="text_16">
     <!-- $P$ -->
     <g transform="translate(938.436089 111.982351) scale(0.35 -0.35)">
      <defs>
       <path id="CMMI12-50" d="M 1894 2023 
L 2970 2023 
C 3853 2023 4736 2673 4736 3401 
C 4736 3898 4314 4352 3507 4352 
L 1530 4352 
C 1408 4352 1350 4352 1350 4231 
C 1350 4167 1408 4167 1504 4167 
C 1894 4167 1894 4116 1894 4046 
C 1894 4034 1894 3995 1869 3899 
L 1005 472 
C 947 249 934 185 486 185 
C 365 185 301 185 301 70 
C 301 0 358 0 397 0 
C 518 0 646 0 768 0 
L 1517 0 
C 1638 0 1773 0 1894 0 
C 1946 0 2016 0 2016 121 
C 2016 185 1958 185 1862 185 
C 1478 185 1472 230 1472 293 
C 1472 325 1478 369 1485 401 
L 1894 2023 
z
M 2355 3930 
C 2413 4167 2438 4167 2688 4167 
L 3322 4167 
C 3802 4167 4198 4013 4198 3535 
C 4198 3369 4115 2827 3821 2534 
C 3712 2419 3405 2176 2822 2176 
L 1920 2176 
L 2355 3930 
z
" transform="scale(0.015625)"/>
      </defs>
      <use xlink:href="#CMMI12-50" transform="scale(0.996264)"/>
     </g>
    </g>
    <g id="patch_10">
     <path d="M 840.436089 160.764702 
L 910.436089 160.764702 
L 910.436089 136.264702 
L 840.436089 136.264702 
z
" style="fill: #2ca02c"/>
    </g>
    <g id="text_17">
     <!-- $T$ -->
     <g transform="translate(938.436089 160.764702) scale(0.35 -0.35)">
      <defs>
       <path id="CMMI12-54" d="M 2669 3910 
C 2707 4064 2720 4121 2816 4147 
C 2867 4160 3078 4160 3213 4160 
C 3853 4160 4154 4134 4154 3634 
C 4154 3537 4128 3295 4090 3057 
L 4083 2980 
C 4083 2954 4109 2916 4147 2916 
C 4211 2916 4211 2948 4230 3050 
L 4416 4184 
C 4429 4243 4429 4256 4429 4275 
C 4429 4345 4390 4345 4262 4345 
L 762 4345 
C 614 4345 608 4339 570 4224 
L 179 3070 
C 173 3056 154 2986 154 2980 
C 154 2948 179 2916 218 2916 
C 269 2916 282 2941 307 3024 
C 576 3801 710 4160 1562 4160 
L 1990 4160 
C 2144 4160 2208 4160 2208 4089 
C 2208 4069 2208 4057 2176 3941 
L 1318 499 
C 1254 249 1242 185 563 185 
C 403 185 358 185 358 64 
C 358 0 429 0 461 0 
C 621 0 787 0 947 0 
L 1946 0 
C 2106 0 2278 0 2438 0 
C 2509 0 2573 0 2573 121 
C 2573 185 2528 185 2362 185 
C 1786 185 1786 243 1786 339 
C 1786 346 1786 391 1811 494 
L 2669 3910 
z
" transform="scale(0.015625)"/>
      </defs>
      <use xlink:href="#CMMI12-54" transform="scale(0.996264)"/>
     </g>
    </g>
    <g id="patch_11">
     <path d="M 840.436089 209.547054 
L 910.436089 209.547054 
L 910.436089 185.047054 
L 840.436089 185.047054 
z
" style="fill: #d62728"/>
    </g>
    <g id="text_18">
     <!-- $Y_{N_2}$ -->
     <g transform="translate(938.436089 209.547054) scale(0.35 -0.35)">
      <defs>
       <path id="CMMI12-59" d="M 3763 3645 
L 3910 3791 
C 4192 4078 4429 4149 4653 4167 
C 4723 4173 4781 4179 4781 4288 
C 4781 4352 4717 4352 4704 4352 
C 4627 4352 4544 4352 4467 4352 
L 4205 4352 
C 4019 4352 3821 4352 3642 4352 
C 3597 4352 3526 4352 3526 4226 
C 3526 4166 3590 4160 3610 4160 
C 3802 4160 3802 4064 3802 4026 
C 3802 3956 3750 3860 3622 3713 
L 2099 1969 
L 1376 3911 
C 1338 4000 1338 4013 1338 4026 
C 1338 4160 1600 4160 1677 4160 
C 1754 4160 1824 4160 1824 4279 
C 1824 4352 1766 4352 1728 4352 
C 1619 4352 1491 4352 1382 4352 
L 672 4352 
C 557 4352 435 4352 326 4352 
C 282 4352 211 4352 211 4226 
C 211 4160 269 4160 365 4160 
C 678 4160 736 4102 794 3956 
L 1587 1835 
C 1594 1816 1613 1745 1613 1726 
C 1613 1707 1299 452 1280 388 
C 1229 217 1165 185 755 185 
C 646 185 595 185 595 64 
C 595 0 666 0 685 0 
C 800 0 934 0 1056 0 
L 1811 0 
C 1926 0 2061 0 2176 0 
C 2221 0 2298 0 2298 115 
C 2298 185 2253 185 2144 185 
C 1747 185 1747 230 1747 300 
C 1747 345 1798 548 1830 676 
L 2061 1594 
C 2099 1727 2099 1739 2157 1803 
L 3763 3645 
z
" transform="scale(0.015625)"/>
       <path id="CMMI12-4e" d="M 4736 3698 
C 4806 3974 4909 4166 5395 4166 
C 5414 4166 5491 4166 5491 4279 
C 5491 4352 5434 4352 5408 4352 
C 5280 4352 4954 4352 4826 4352 
L 4518 4352 
C 4429 4352 4314 4352 4224 4352 
C 4186 4352 4109 4352 4109 4230 
C 4109 4166 4160 4166 4205 4166 
C 4589 4166 4614 4019 4614 3903 
C 4614 3846 4608 3826 4589 3737 
L 3866 850 
L 2496 4249 
C 2451 4352 2445 4352 2304 4352 
L 1523 4352 
C 1395 4352 1338 4352 1338 4230 
C 1338 4166 1382 4166 1504 4166 
C 1536 4166 1914 4166 1914 4115 
C 1914 4102 1901 4051 1894 4032 
L 1043 635 
C 966 320 813 186 390 186 
C 358 186 294 186 294 67 
C 294 0 358 0 378 0 
C 506 0 832 0 960 0 
L 1267 0 
C 1357 0 1466 0 1555 0 
C 1600 0 1670 0 1670 122 
C 1670 180 1606 186 1581 186 
C 1370 186 1165 224 1165 454 
C 1165 505 1178 562 1190 613 
L 2054 4032 
C 2093 3968 2093 3956 2118 3898 
L 3642 115 
C 3674 38 3686 0 3744 0 
C 3808 0 3814 19 3840 128 
L 4736 3698 
z
" transform="scale(0.015625)"/>
      </defs>
      <use xlink:href="#CMMI12-59" transform="scale(0.996264)"/>
      <use xlink:href="#CMMI12-4e" transform="translate(56.598607 -14.943915) scale(0.697382)"/>
      <use xlink:href="#CMR17-32" transform="translate(111.278947 -25.404611) scale(0.498132)"/>
     </g>
    </g>
   </g>
  </g>
 </g>
 <defs>
  <clipPath id="p79e3ccdf2d">
   <rect x="84.740543" y="7.2" width="725.4" height="609.84"/>
  </clipPath>
 </defs>
</svg>
