<?xml version="1.0" encoding="utf-8" standalone="no"?>
<!DOCTYPE svg PUBLIC "-//W3C//DTD SVG 1.1//EN"
  "http://www.w3.org/Graphics/SVG/1.1/DTD/svg11.dtd">
<svg xmlns:xlink="http://www.w3.org/1999/xlink" width="1006.579543pt" height="692.806049pt" viewBox="0 0 1006.579543 692.806049" xmlns="http://www.w3.org/2000/svg" version="1.1">
 <metadata>
  <rdf:RDF xmlns:dc="http://purl.org/dc/elements/1.1/" xmlns:cc="http://creativecommons.org/ns#" xmlns:rdf="http://www.w3.org/1999/02/22-rdf-syntax-ns#">
   <cc:Work>
    <dc:type rdf:resource="http://purl.org/dc/dcmitype/StillImage"/>
    <dc:date>2025-03-19T17:00:10.548818</dc:date>
    <dc:format>image/svg+xml</dc:format>
    <dc:creator>
     <cc:Agent>
      <dc:title>Matplotlib v3.7.1, https://matplotlib.org/</dc:title>
     </cc:Agent>
    </dc:creator>
   </cc:Work>
  </rdf:RDF>
 </metadata>
 <defs>
  <style type="text/css">*{stroke-linejoin: round; stroke-linecap: butt}</style>
 </defs>
 <g id="figure_1">
  <g id="patch_1">
   <path d="M 0 692.806049 
L 1006.579543 692.806049 
L 1006.579543 0 
L 0 0 
z
" style="fill: #ffffff"/>
  </g>
  <g id="axes_1">
   <g id="patch_2">
    <path d="M 84.740543 617.04 
L 810.140543 617.04 
L 810.140543 7.2 
L 84.740543 7.2 
z
" style="fill: #ffffff"/>
   </g>
   <g id="PolyCollection_1">
    <path d="M 9.178043 605.312308 
L 9.178043 605.312308 
L 29.717351 605.312308 
L 44.711179 605.312308 
L 55.656948 605.312308 
L 63.647806 605.312308 
L 69.481777 605.312308 
L 73.741466 605.312308 
L 76.852227 605.312308 
L 79.049287 605.312308 
L 80.785425 605.312308 
L 82.213061 605.312308 
L 83.42602 605.312308 
L 84.740543 605.312308 
L 87.435066 605.312308 
L 88.857321 605.312308 
L 90.129589 605.312308 
L 92.004934 605.312308 
L 93.099922 605.312308 
L 94.171374 605.312308 
L 95.299612 605.312308 
L 96.397416 605.312308 
L 97.579316 605.312308 
L 98.820976 605.312308 
L 99.991406 605.312308 
L 101.273505 605.312308 
L 103.578522 605.312308 
L 105.819849 605.312308 
L 107.979517 605.312308 
L 110.878308 605.312308 
L 114.380297 605.312308 
L 117.772298 605.312308 
L 121.795163 605.312308 
L 126.505652 605.312308 
L 131.894699 605.312308 
L 136.064903 605.312308 
L 140.906123 605.312308 
L 146.343341 605.312308 
L 152.242772 605.312308 
L 158.23472 605.312308 
L 163.692746 605.312308 
L 168.88361 605.312308 
L 174.585426 605.312308 
L 180.46251 605.312308 
L 186.901027 605.312308 
L 193.842604 605.312308 
L 201.294329 605.312308 
L 209.304744 605.312308 
L 215.666289 605.312308 
L 222.461467 605.312308 
L 232.059762 605.312308 
L 242.378625 605.312308 
L 253.442863 605.312308 
L 265.803879 605.312308 
L 277.872644 605.312308 
L 291.4797 605.312308 
L 306.108307 605.312308 
L 314.293433 605.312308 
L 322.042849 605.312308 
L 330.136629 605.312308 
L 338.743693 605.312308 
L 347.240659 605.312308 
L 353.582193 605.312308 
L 358.098232 605.312308 
L 362.015801 605.312308 
L 365.100791 605.312308 
L 367.795107 605.312308 
L 370.339935 605.312308 
L 371.612349 605.312308 
L 372.884762 605.312308 
L 373.578284 605.312308 
L 374.157176 605.312308 
L 374.808605 605.312308 
L 375.42959 605.312308 
L 375.781185 605.312308 
L 376.100674 605.312308 
L 376.42634 605.312308 
L 376.702003 605.312308 
L 377.181086 605.312308 
L 377.629898 605.312308 
L 378.056467 605.312308 
L 378.557793 605.312308 
L 379.000786 605.312308 
L 379.485688 605.312308 
L 379.945558 605.312308 
L 380.413583 605.312308 
L 380.832336 605.312308 
L 381.341477 605.312308 
L 382.269372 605.312308 
L 383.197267 605.312308 
L 384.125162 605.312308 
L 385.053056 605.312308 
L 385.980951 605.312308 
L 386.908846 605.312308 
L 387.836741 605.312308 
L 388.764636 605.312308 
L 389.69253 605.312308 
L 390.578063 605.312308 
L 391.54832 605.312308 
L 393.28631 605.312308 
L 395.259899 605.312308 
L 396.651741 605.312308 
L 398.043583 605.312308 
L 399.899373 605.312308 
L 401.701247 605.312308 
L 403.610952 605.312308 
L 405.289681 605.312308 
L 406.894263 605.312308 
L 408.375361 605.312308 
L 410.106215 605.312308 
L 411.962005 605.312308 
L 414.385383 605.312308 
L 416.601479 605.312308 
L 418.59025 605.312308 
L 420.545322 605.312308 
L 422.367082 605.312308 
L 424.358264 605.312308 
L 426.834965 605.312308 
L 429.229604 605.312308 
L 431.143679 605.312308 
L 433.224812 605.312308 
L 435.488341 605.312308 
L 437.951073 605.312308 
L 439.269923 605.312308 
L 440.63164 605.312308 
L 442.106467 605.312308 
L 443.549241 605.312308 
L 445.155995 605.312308 
L 446.721698 605.312308 
L 448.530584 605.312308 
L 450.174259 605.312308 
L 451.951214 605.312308 
L 453.926016 605.312308 
L 455.933062 605.312308 
L 458.002814 605.312308 
L 460.314271 605.312308 
L 462.425952 605.312308 
L 464.811613 605.312308 
L 467.21716 605.312308 
L 469.759827 605.312308 
L 472.396058 605.312308 
L 475.19253 605.312308 
L 477.975382 605.312308 
L 480.842577 605.312308 
L 483.958078 605.312308 
L 487.02499 605.312308 
L 490.325069 605.312308 
L 493.589155 605.312308 
L 496.978314 605.312308 
L 500.205377 605.312308 
L 503.659157 605.312308 
L 506.946976 605.312308 
L 510.339999 605.312308 
L 513.575217 605.312308 
L 517.020842 605.312308 
L 520.529262 605.312308 
L 523.701684 605.312308 
L 527.248435 605.312308 
L 530.382526 605.312308 
L 533.47788 605.312308 
L 537.063369 605.312308 
L 540.596663 605.312308 
L 543.744211 605.312308 
L 547.100127 605.312308 
L 550.425053 605.312308 
L 553.753242 605.312308 
L 557.105896 605.312308 
L 560.64286 605.312308 
L 563.786738 605.312308 
L 567.416674 605.312308 
L 570.467581 605.312308 
L 572.48806 605.312308 
L 574.235341 605.312308 
L 575.774026 605.312308 
L 577.148423 605.312308 
L 578.893977 605.312308 
L 580.590786 605.312308 
L 582.236512 605.312308 
L 583.829265 605.312308 
L 585.170972 605.312308 
L 585.978345 605.312308 
L 586.689338 605.312308 
L 587.565631 605.312308 
L 588.440213 605.312308 
L 589.393295 605.312308 
L 590.510108 605.312308 
L 591.006574 605.312308 
L 591.536623 605.312308 
L 592.09897 605.312308 
L 592.691486 605.312308 
L 593.836984 605.312308 
L 595.007931 605.312308 
L 596.17812 605.312308 
L 597.43789 605.312308 
L 598.641338 605.312308 
L 599.95542 605.312308 
L 601.139458 605.312308 
L 602.456615 605.312308 
L 603.58178 605.312308 
L 604.861979 605.312308 
L 607.17568 605.312308 
L 609.400733 605.312308 
L 611.62836 605.312308 
L 613.948134 605.312308 
L 616.355835 605.312308 
L 618.846045 605.312308 
L 622.080194 605.312308 
L 625.776244 605.312308 
L 629.202701 605.312308 
L 632.80417 605.312308 
L 637.73667 605.312308 
L 642.249482 605.312308 
L 647.181983 605.312308 
L 656.627295 605.312308 
L 666.072608 605.312308 
L 675.51792 605.312308 
L 684.963233 605.312308 
L 694.408545 605.312308 
L 703.853858 605.312308 
L 713.29917 605.312308 
L 722.744483 605.312308 
L 741.635108 605.312308 
L 753.458468 605.312308 
L 765.81912 605.312308 
L 777.874829 605.312308 
L 788.86167 605.312308 
L 798.306983 605.312308 
L 807.092784 605.312308 
L 817.197608 605.312308 
L 817.197608 226.430608 
L 817.197608 226.430608 
L 807.092784 226.425752 
L 798.306983 226.423746 
L 788.86167 226.456617 
L 777.874829 226.430943 
L 765.81912 226.41469 
L 753.458468 226.369995 
L 741.635108 226.315515 
L 722.744483 226.22701 
L 713.29917 226.238674 
L 703.853858 226.229994 
L 694.408545 226.252219 
L 684.963233 226.261943 
L 675.51792 226.249005 
L 666.072608 226.278075 
L 656.627295 226.347173 
L 647.181983 226.442749 
L 642.249482 226.577738 
L 637.73667 226.635007 
L 632.80417 226.742922 
L 629.202701 226.822545 
L 625.776244 226.958274 
L 622.080194 227.056798 
L 618.846045 227.167072 
L 616.355835 227.252802 
L 613.948134 227.337632 
L 611.62836 227.38169 
L 609.400733 227.429374 
L 607.17568 227.462946 
L 604.861979 227.508264 
L 603.58178 227.513778 
L 602.456615 227.536358 
L 601.139458 227.534041 
L 599.95542 227.547213 
L 598.641338 227.562386 
L 597.43789 227.591314 
L 596.17812 227.601689 
L 595.007931 227.629322 
L 593.836984 227.656161 
L 592.691486 227.70509 
L 592.09897 227.761568 
L 591.536623 227.846445 
L 591.006574 227.968175 
L 590.510108 228.120669 
L 589.393295 228.334785 
L 588.440213 228.572763 
L 587.565631 228.793273 
L 586.689338 229.017803 
L 585.978345 229.28997 
L 585.170972 229.522753 
L 583.829265 229.490665 
L 582.236512 229.592472 
L 580.590786 229.437823 
L 578.893977 229.474542 
L 577.148423 229.030865 
L 575.774026 228.827252 
L 574.235341 227.751491 
L 572.48806 227.134826 
L 570.467581 225.220267 
L 567.416674 224.174164 
L 563.786738 221.991961 
L 560.64286 220.463896 
L 557.105896 219.810865 
L 553.753242 220.444505 
L 550.425053 221.229233 
L 547.100127 222.118838 
L 543.744211 223.31484 
L 540.596663 224.485452 
L 537.063369 225.997488 
L 533.47788 227.538541 
L 530.382526 228.736027 
L 527.248435 229.728573 
L 523.701684 230.635458 
L 520.529262 231.599793 
L 517.020842 232.361442 
L 513.575217 233.681552 
L 510.339999 234.451091 
L 506.946976 235.370704 
L 503.659157 236.052753 
L 500.205377 236.670203 
L 496.978314 237.347995 
L 493.589155 238.02145 
L 490.325069 238.96685 
L 487.02499 240.019668 
L 483.958078 241.17667 
L 480.842577 242.380936 
L 477.975382 243.320702 
L 475.19253 244.177563 
L 472.396058 244.657854 
L 469.759827 245.053548 
L 467.21716 246.115519 
L 464.811613 247.216029 
L 462.425952 248.215472 
L 460.314271 249.747644 
L 458.002814 250.974651 
L 455.933062 253.16649 
L 453.926016 254.683606 
L 451.951214 257.221503 
L 450.174259 258.795961 
L 448.530584 260.728046 
L 446.721698 262.019297 
L 445.155995 262.771379 
L 443.549241 263.299412 
L 442.106467 263.751316 
L 440.63164 263.97561 
L 439.269923 263.874135 
L 437.951073 263.573688 
L 435.488341 263.561137 
L 433.224812 263.167432 
L 431.143679 262.782673 
L 429.229604 262.228969 
L 426.834965 261.500472 
L 424.358264 260.424058 
L 422.367082 259.024133 
L 420.545322 257.13507 
L 418.59025 254.977512 
L 416.601479 252.651038 
L 414.385383 250.555797 
L 411.962005 248.858391 
L 410.106215 248.402148 
L 408.375361 247.856387 
L 406.894263 247.339094 
L 405.289681 246.734784 
L 403.610952 246.787053 
L 401.701247 246.8969 
L 399.899373 248.567411 
L 398.043583 250.272768 
L 396.651741 252.425626 
L 395.259899 254.332808 
L 393.28631 259.20575 
L 391.54832 260.927543 
L 390.578063 265.203566 
L 389.69253 269.634222 
L 388.764636 270.565535 
L 387.836741 277.830929 
L 386.908846 282.887411 
L 385.980951 292.126388 
L 385.053056 302.193177 
L 384.125162 315.685 
L 383.197267 342.546798 
L 382.269372 376.687113 
L 381.341477 404.973182 
L 380.832336 413.500564 
L 380.413583 425.750287 
L 379.945558 430.408654 
L 379.485688 441.929161 
L 379.000786 457.562417 
L 378.557793 486.386807 
L 378.056467 506.013372 
L 377.629898 509.721499 
L 377.181086 517.688284 
L 376.702003 527.067807 
L 376.42634 537.836087 
L 376.100674 547.251992 
L 375.781185 556.192234 
L 375.42959 564.451339 
L 374.808605 574.307267 
L 374.157176 581.980169 
L 373.578284 588.284371 
L 372.884762 592.557293 
L 371.612349 594.78206 
L 370.339935 596.534967 
L 367.795107 598.504588 
L 365.100791 599.986587 
L 362.015801 601.386578 
L 358.098232 602.591502 
L 353.582193 603.330136 
L 347.240659 603.90016 
L 338.743693 604.321825 
L 330.136629 604.63672 
L 322.042849 604.826631 
L 314.293433 605.003328 
L 306.108307 605.120864 
L 291.4797 605.233217 
L 277.872644 605.284681 
L 265.803879 605.30359 
L 253.442863 605.310263 
L 242.378625 605.311804 
L 232.059762 605.312197 
L 222.461467 605.312286 
L 215.666289 605.312301 
L 209.304744 605.312306 
L 201.294329 605.312307 
L 193.842604 605.312307 
L 186.901027 605.312307 
L 180.46251 605.312307 
L 174.585426 605.312307 
L 168.88361 605.312307 
L 163.692746 605.312307 
L 158.23472 605.312307 
L 152.242772 605.312307 
L 146.343341 605.312307 
L 140.906123 605.312307 
L 136.064903 605.312307 
L 131.894699 605.312308 
L 126.505652 605.312308 
L 121.795163 605.312308 
L 117.772298 605.312308 
L 114.380297 605.312308 
L 110.878308 605.312308 
L 107.979517 605.312308 
L 105.819849 605.312308 
L 103.578522 605.312308 
L 101.273505 605.312308 
L 99.991406 605.312308 
L 98.820976 605.312308 
L 97.579316 605.312308 
L 96.397416 605.312308 
L 95.299612 605.312308 
L 94.171374 605.312308 
L 93.099922 605.312308 
L 92.004934 605.312308 
L 90.129589 605.312308 
L 88.857321 605.312308 
L 87.435066 605.312308 
L 84.740543 605.312308 
L 83.42602 605.312308 
L 82.213061 605.312308 
L 80.785425 605.312308 
L 79.049287 605.312308 
L 76.852227 605.312308 
L 73.741466 605.312308 
L 69.481777 605.312308 
L 63.647806 605.312308 
L 55.656948 605.312308 
L 44.711179 605.312308 
L 29.717351 605.312308 
L 9.178043 605.312308 
z
" clip-path="url(#p88bb2bbc65)" style="fill: #1f77b4"/>
   </g>
   <g id="PolyCollection_2">
    <path d="M 9.178043 605.312308 
L 9.178043 605.312308 
L 29.717351 605.312308 
L 44.711179 605.312308 
L 55.656948 605.312308 
L 63.647806 605.312308 
L 69.481777 605.312308 
L 73.741466 605.312308 
L 76.852227 605.312308 
L 79.049287 605.312308 
L 80.785425 605.312308 
L 82.213061 605.312308 
L 83.42602 605.312308 
L 84.740543 605.312308 
L 87.435066 605.312308 
L 88.857321 605.312308 
L 90.129589 605.312308 
L 92.004934 605.312308 
L 93.099922 605.312308 
L 94.171374 605.312308 
L 95.299612 605.312308 
L 96.397416 605.312308 
L 97.579316 605.312308 
L 98.820976 605.312308 
L 99.991406 605.312308 
L 101.273505 605.312308 
L 103.578522 605.312308 
L 105.819849 605.312308 
L 107.979517 605.312308 
L 110.878308 605.312308 
L 114.380297 605.312308 
L 117.772298 605.312308 
L 121.795163 605.312308 
L 126.505652 605.312308 
L 131.894699 605.312308 
L 136.064903 605.312307 
L 140.906123 605.312307 
L 146.343341 605.312307 
L 152.242772 605.312307 
L 158.23472 605.312307 
L 163.692746 605.312307 
L 168.88361 605.312307 
L 174.585426 605.312307 
L 180.46251 605.312307 
L 186.901027 605.312307 
L 193.842604 605.312307 
L 201.294329 605.312307 
L 209.304744 605.312306 
L 215.666289 605.312301 
L 222.461467 605.312286 
L 232.059762 605.312197 
L 242.378625 605.311804 
L 253.442863 605.310263 
L 265.803879 605.30359 
L 277.872644 605.284681 
L 291.4797 605.233217 
L 306.108307 605.120864 
L 314.293433 605.003328 
L 322.042849 604.826631 
L 330.136629 604.63672 
L 338.743693 604.321825 
L 347.240659 603.90016 
L 353.582193 603.330136 
L 358.098232 602.591502 
L 362.015801 601.386578 
L 365.100791 599.986587 
L 367.795107 598.504588 
L 370.339935 596.534967 
L 371.612349 594.78206 
L 372.884762 592.557293 
L 373.578284 588.284371 
L 374.157176 581.980169 
L 374.808605 574.307267 
L 375.42959 564.451339 
L 375.781185 556.192234 
L 376.100674 547.251992 
L 376.42634 537.836087 
L 376.702003 527.067807 
L 377.181086 517.688284 
L 377.629898 509.721499 
L 378.056467 506.013372 
L 378.557793 486.386807 
L 379.000786 457.562417 
L 379.485688 441.929161 
L 379.945558 430.408654 
L 380.413583 425.750287 
L 380.832336 413.500564 
L 381.341477 404.973182 
L 382.269372 376.687113 
L 383.197267 342.546798 
L 384.125162 315.685 
L 385.053056 302.193177 
L 385.980951 292.126388 
L 386.908846 282.887411 
L 387.836741 277.830929 
L 388.764636 270.565535 
L 389.69253 269.634222 
L 390.578063 265.203566 
L 391.54832 260.927543 
L 393.28631 259.20575 
L 395.259899 254.332808 
L 396.651741 252.425626 
L 398.043583 250.272768 
L 399.899373 248.567411 
L 401.701247 246.8969 
L 403.610952 246.787053 
L 405.289681 246.734784 
L 406.894263 247.339094 
L 408.375361 247.856387 
L 410.106215 248.402148 
L 411.962005 248.858391 
L 414.385383 250.555797 
L 416.601479 252.651038 
L 418.59025 254.977512 
L 420.545322 257.13507 
L 422.367082 259.024133 
L 424.358264 260.424058 
L 426.834965 261.500472 
L 429.229604 262.228969 
L 431.143679 262.782673 
L 433.224812 263.167432 
L 435.488341 263.561137 
L 437.951073 263.573688 
L 439.269923 263.874135 
L 440.63164 263.97561 
L 442.106467 263.751316 
L 443.549241 263.299412 
L 445.155995 262.771379 
L 446.721698 262.019297 
L 448.530584 260.728046 
L 450.174259 258.795961 
L 451.951214 257.221503 
L 453.926016 254.683606 
L 455.933062 253.16649 
L 458.002814 250.974651 
L 460.314271 249.747644 
L 462.425952 248.215472 
L 464.811613 247.216029 
L 467.21716 246.115519 
L 469.759827 245.053548 
L 472.396058 244.657854 
L 475.19253 244.177563 
L 477.975382 243.320702 
L 480.842577 242.380936 
L 483.958078 241.17667 
L 487.02499 240.019668 
L 490.325069 238.96685 
L 493.589155 238.02145 
L 496.978314 237.347995 
L 500.205377 236.670203 
L 503.659157 236.052753 
L 506.946976 235.370704 
L 510.339999 234.451091 
L 513.575217 233.681552 
L 517.020842 232.361442 
L 520.529262 231.599793 
L 523.701684 230.635458 
L 527.248435 229.728573 
L 530.382526 228.736027 
L 533.47788 227.538541 
L 537.063369 225.997488 
L 540.596663 224.485452 
L 543.744211 223.31484 
L 547.100127 222.118838 
L 550.425053 221.229233 
L 553.753242 220.444505 
L 557.105896 219.810865 
L 560.64286 220.463896 
L 563.786738 221.991961 
L 567.416674 224.174164 
L 570.467581 225.220267 
L 572.48806 227.134826 
L 574.235341 227.751491 
L 575.774026 228.827252 
L 577.148423 229.030865 
L 578.893977 229.474542 
L 580.590786 229.437823 
L 582.236512 229.592472 
L 583.829265 229.490665 
L 585.170972 229.522753 
L 585.978345 229.28997 
L 586.689338 229.017803 
L 587.565631 228.793273 
L 588.440213 228.572763 
L 589.393295 228.334785 
L 590.510108 228.120669 
L 591.006574 227.968175 
L 591.536623 227.846445 
L 592.09897 227.761568 
L 592.691486 227.70509 
L 593.836984 227.656161 
L 595.007931 227.629322 
L 596.17812 227.601689 
L 597.43789 227.591314 
L 598.641338 227.562386 
L 599.95542 227.547213 
L 601.139458 227.534041 
L 602.456615 227.536358 
L 603.58178 227.513778 
L 604.861979 227.508264 
L 607.17568 227.462946 
L 609.400733 227.429374 
L 611.62836 227.38169 
L 613.948134 227.337632 
L 616.355835 227.252802 
L 618.846045 227.167072 
L 622.080194 227.056798 
L 625.776244 226.958274 
L 629.202701 226.822545 
L 632.80417 226.742922 
L 637.73667 226.635007 
L 642.249482 226.577738 
L 647.181983 226.442749 
L 656.627295 226.347173 
L 666.072608 226.278075 
L 675.51792 226.249005 
L 684.963233 226.261943 
L 694.408545 226.252219 
L 703.853858 226.229994 
L 713.29917 226.238674 
L 722.744483 226.22701 
L 741.635108 226.315515 
L 753.458468 226.369995 
L 765.81912 226.41469 
L 777.874829 226.430943 
L 788.86167 226.456617 
L 798.306983 226.423746 
L 807.092784 226.425752 
L 817.197608 226.430608 
L 817.197608 221.140672 
L 817.197608 221.140672 
L 807.092784 221.137401 
L 798.306983 221.13401 
L 788.86167 221.172038 
L 777.874829 221.145385 
L 765.81912 221.135058 
L 753.458468 221.088225 
L 741.635108 221.038183 
L 722.744483 220.935332 
L 713.29917 220.954069 
L 703.853858 220.951102 
L 694.408545 220.979171 
L 684.963233 220.972765 
L 675.51792 220.96471 
L 666.072608 220.977801 
L 656.627295 221.04021 
L 647.181983 221.103734 
L 642.249482 221.238206 
L 637.73667 221.275471 
L 632.80417 221.367022 
L 629.202701 221.415961 
L 625.776244 221.536118 
L 622.080194 221.590556 
L 618.846045 221.672611 
L 616.355835 221.730524 
L 613.948134 221.793714 
L 611.62836 221.813219 
L 609.400733 221.837219 
L 607.17568 221.853651 
L 604.861979 221.873591 
L 603.58178 221.88534 
L 602.456615 221.931304 
L 601.139458 221.927151 
L 599.95542 221.957412 
L 598.641338 222.008871 
L 597.43789 222.090097 
L 596.17812 222.128107 
L 595.007931 222.199368 
L 593.836984 222.303416 
L 592.691486 222.43755 
L 592.09897 222.562543 
L 591.536623 222.715123 
L 591.006574 222.902086 
L 590.510108 223.104015 
L 589.393295 223.371605 
L 588.440213 223.62647 
L 587.565631 223.791525 
L 586.689338 223.904998 
L 585.978345 224.077724 
L 585.170972 224.143263 
L 583.829265 223.776769 
L 582.236512 223.591722 
L 580.590786 222.934298 
L 578.893977 222.55701 
L 577.148423 221.449107 
L 575.774026 220.737097 
L 574.235341 218.882215 
L 572.48806 217.713244 
L 570.467581 214.975246 
L 567.416674 213.38852 
L 563.786738 210.419931 
L 560.64286 208.431179 
L 557.105896 207.142919 
L 553.753242 207.503085 
L 550.425053 208.06465 
L 547.100127 208.695409 
L 543.744211 209.673107 
L 540.596663 210.739848 
L 537.063369 212.166178 
L 533.47788 213.54696 
L 530.382526 214.606161 
L 527.248435 215.468994 
L 523.701684 216.227427 
L 520.529262 216.936256 
L 517.020842 217.55082 
L 513.575217 218.607212 
L 510.339999 219.229943 
L 506.946976 219.876104 
L 503.659157 220.367705 
L 500.205377 220.735196 
L 496.978314 221.259126 
L 493.589155 221.71126 
L 490.325069 222.551139 
L 487.02499 223.428503 
L 483.958078 224.532292 
L 480.842577 225.622999 
L 477.975382 226.591201 
L 475.19253 227.411243 
L 472.396058 228.015622 
L 469.759827 228.434561 
L 467.21716 229.738056 
L 464.811613 230.903241 
L 462.425952 232.210746 
L 460.314271 233.82805 
L 458.002814 235.379825 
L 455.933062 237.680582 
L 453.926016 239.497175 
L 451.951214 242.09885 
L 450.174259 243.97765 
L 448.530584 245.94691 
L 446.721698 247.48474 
L 445.155995 248.148587 
L 443.549241 248.75505 
L 442.106467 249.113748 
L 440.63164 249.38154 
L 439.269923 249.145254 
L 437.951073 248.809656 
L 435.488341 248.681387 
L 433.224812 248.180962 
L 431.143679 247.627247 
L 429.229604 246.882957 
L 426.834965 245.900285 
L 424.358264 244.583843 
L 422.367082 242.933434 
L 420.545322 240.847628 
L 418.59025 238.492786 
L 416.601479 235.815178 
L 414.385383 233.128735 
L 411.962005 230.647173 
L 410.106215 229.859483 
L 408.375361 228.810116 
L 406.894263 227.79438 
L 405.289681 226.56669 
L 403.610952 226.004628 
L 401.701247 225.371894 
L 399.899373 226.284576 
L 398.043583 227.132552 
L 396.651741 228.435141 
L 395.259899 229.44282 
L 393.28631 233.431485 
L 391.54832 234.278896 
L 390.578063 237.483036 
L 389.69253 240.975904 
L 388.764636 241.185726 
L 387.836741 247.715245 
L 386.908846 252.212091 
L 385.980951 260.96598 
L 385.053056 270.661994 
L 384.125162 284.016621 
L 383.197267 310.087297 
L 382.269372 343.295101 
L 381.341477 370.145433 
L 380.832336 379.36335 
L 380.413583 392.622741 
L 379.945558 398.582161 
L 379.485688 411.619028 
L 379.000786 429.539146 
L 378.557793 461.910402 
L 378.056467 484.465382 
L 377.629898 490.514667 
L 377.181086 500.053881 
L 376.702003 510.603804 
L 376.42634 522.654267 
L 376.100674 533.210141 
L 375.781185 543.322857 
L 375.42959 552.635085 
L 374.808605 563.195188 
L 374.157176 571.563644 
L 373.578284 578.543778 
L 372.884762 583.484493 
L 371.612349 586.492203 
L 370.339935 588.949004 
L 367.795107 592.072623 
L 365.100791 594.370413 
L 362.015801 596.303885 
L 358.098232 598.047255 
L 353.582193 599.299459 
L 347.240659 600.309099 
L 338.743693 601.15404 
L 330.136629 601.834229 
L 322.042849 602.261368 
L 314.293433 602.646255 
L 306.108307 603.071908 
L 291.4797 603.598563 
L 277.872644 603.930236 
L 265.803879 604.196488 
L 253.442863 604.448579 
L 242.378625 604.609281 
L 232.059762 604.742606 
L 222.461467 604.849819 
L 215.666289 604.934279 
L 209.304744 605.003832 
L 201.294329 605.065087 
L 193.842604 605.113886 
L 186.901027 605.153928 
L 180.46251 605.185409 
L 174.585426 605.211402 
L 168.88361 605.231777 
L 163.692746 605.248672 
L 158.23472 605.267379 
L 152.242772 605.280907 
L 146.343341 605.290551 
L 140.906123 605.297617 
L 136.064903 605.302383 
L 131.894699 605.306127 
L 126.505652 605.309089 
L 121.795163 605.310668 
L 117.772298 605.311348 
L 114.380297 605.311657 
L 110.878308 605.311898 
L 107.979517 605.312064 
L 105.819849 605.312129 
L 103.578522 605.312183 
L 101.273505 605.312217 
L 99.991406 605.312232 
L 98.820976 605.312245 
L 97.579316 605.312254 
L 96.397416 605.312263 
L 95.299612 605.31227 
L 94.171374 605.312277 
L 93.099922 605.312281 
L 92.004934 605.312286 
L 90.129589 605.312293 
L 88.857321 605.312296 
L 87.435066 605.312298 
L 84.740543 605.312303 
L 83.42602 605.312305 
L 82.213061 605.312305 
L 80.785425 605.312306 
L 79.049287 605.312307 
L 76.852227 605.312307 
L 73.741466 605.312307 
L 69.481777 605.312307 
L 63.647806 605.312308 
L 55.656948 605.312308 
L 44.711179 605.312308 
L 29.717351 605.312308 
L 9.178043 605.312308 
z
" clip-path="url(#p88bb2bbc65)" style="fill: #ff7f0e"/>
   </g>
   <g id="PolyCollection_3">
    <path d="M 9.178043 605.312308 
L 9.178043 605.312308 
L 29.717351 605.312308 
L 44.711179 605.312308 
L 55.656948 605.312308 
L 63.647806 605.312308 
L 69.481777 605.312307 
L 73.741466 605.312307 
L 76.852227 605.312307 
L 79.049287 605.312307 
L 80.785425 605.312306 
L 82.213061 605.312305 
L 83.42602 605.312305 
L 84.740543 605.312303 
L 87.435066 605.312298 
L 88.857321 605.312296 
L 90.129589 605.312293 
L 92.004934 605.312286 
L 93.099922 605.312281 
L 94.171374 605.312277 
L 95.299612 605.31227 
L 96.397416 605.312263 
L 97.579316 605.312254 
L 98.820976 605.312245 
L 99.991406 605.312232 
L 101.273505 605.312217 
L 103.578522 605.312183 
L 105.819849 605.312129 
L 107.979517 605.312064 
L 110.878308 605.311898 
L 114.380297 605.311657 
L 117.772298 605.311348 
L 121.795163 605.310668 
L 126.505652 605.309089 
L 131.894699 605.306127 
L 136.064903 605.302383 
L 140.906123 605.297617 
L 146.343341 605.290551 
L 152.242772 605.280907 
L 158.23472 605.267379 
L 163.692746 605.248672 
L 168.88361 605.231777 
L 174.585426 605.211402 
L 180.46251 605.185409 
L 186.901027 605.153928 
L 193.842604 605.113886 
L 201.294329 605.065087 
L 209.304744 605.003832 
L 215.666289 604.934279 
L 222.461467 604.849819 
L 232.059762 604.742606 
L 242.378625 604.609281 
L 253.442863 604.448579 
L 265.803879 604.196488 
L 277.872644 603.930236 
L 291.4797 603.598563 
L 306.108307 603.071908 
L 314.293433 602.646255 
L 322.042849 602.261368 
L 330.136629 601.834229 
L 338.743693 601.15404 
L 347.240659 600.309099 
L 353.582193 599.299459 
L 358.098232 598.047255 
L 362.015801 596.303885 
L 365.100791 594.370413 
L 367.795107 592.072623 
L 370.339935 588.949004 
L 371.612349 586.492203 
L 372.884762 583.484493 
L 373.578284 578.543778 
L 374.157176 571.563644 
L 374.808605 563.195188 
L 375.42959 552.635085 
L 375.781185 543.322857 
L 376.100674 533.210141 
L 376.42634 522.654267 
L 376.702003 510.603804 
L 377.181086 500.053881 
L 377.629898 490.514667 
L 378.056467 484.465382 
L 378.557793 461.910402 
L 379.000786 429.539146 
L 379.485688 411.619028 
L 379.945558 398.582161 
L 380.413583 392.622741 
L 380.832336 379.36335 
L 381.341477 370.145433 
L 382.269372 343.295101 
L 383.197267 310.087297 
L 384.125162 284.016621 
L 385.053056 270.661994 
L 385.980951 260.96598 
L 386.908846 252.212091 
L 387.836741 247.715245 
L 388.764636 241.185726 
L 389.69253 240.975904 
L 390.578063 237.483036 
L 391.54832 234.278896 
L 393.28631 233.431485 
L 395.259899 229.44282 
L 396.651741 228.435141 
L 398.043583 227.132552 
L 399.899373 226.284576 
L 401.701247 225.371894 
L 403.610952 226.004628 
L 405.289681 226.56669 
L 406.894263 227.79438 
L 408.375361 228.810116 
L 410.106215 229.859483 
L 411.962005 230.647173 
L 414.385383 233.128735 
L 416.601479 235.815178 
L 418.59025 238.492786 
L 420.545322 240.847628 
L 422.367082 242.933434 
L 424.358264 244.583843 
L 426.834965 245.900285 
L 429.229604 246.882957 
L 431.143679 247.627247 
L 433.224812 248.180962 
L 435.488341 248.681387 
L 437.951073 248.809656 
L 439.269923 249.145254 
L 440.63164 249.38154 
L 442.106467 249.113748 
L 443.549241 248.75505 
L 445.155995 248.148587 
L 446.721698 247.48474 
L 448.530584 245.94691 
L 450.174259 243.97765 
L 451.951214 242.09885 
L 453.926016 239.497175 
L 455.933062 237.680582 
L 458.002814 235.379825 
L 460.314271 233.82805 
L 462.425952 232.210746 
L 464.811613 230.903241 
L 467.21716 229.738056 
L 469.759827 228.434561 
L 472.396058 228.015622 
L 475.19253 227.411243 
L 477.975382 226.591201 
L 480.842577 225.622999 
L 483.958078 224.532292 
L 487.02499 223.428503 
L 490.325069 222.551139 
L 493.589155 221.71126 
L 496.978314 221.259126 
L 500.205377 220.735196 
L 503.659157 220.367705 
L 506.946976 219.876104 
L 510.339999 219.229943 
L 513.575217 218.607212 
L 517.020842 217.55082 
L 520.529262 216.936256 
L 523.701684 216.227427 
L 527.248435 215.468994 
L 530.382526 214.606161 
L 533.47788 213.54696 
L 537.063369 212.166178 
L 540.596663 210.739848 
L 543.744211 209.673107 
L 547.100127 208.695409 
L 550.425053 208.06465 
L 553.753242 207.503085 
L 557.105896 207.142919 
L 560.64286 208.431179 
L 563.786738 210.419931 
L 567.416674 213.38852 
L 570.467581 214.975246 
L 572.48806 217.713244 
L 574.235341 218.882215 
L 575.774026 220.737097 
L 577.148423 221.449107 
L 578.893977 222.55701 
L 580.590786 222.934298 
L 582.236512 223.591722 
L 583.829265 223.776769 
L 585.170972 224.143263 
L 585.978345 224.077724 
L 586.689338 223.904998 
L 587.565631 223.791525 
L 588.440213 223.62647 
L 589.393295 223.371605 
L 590.510108 223.104015 
L 591.006574 222.902086 
L 591.536623 222.715123 
L 592.09897 222.562543 
L 592.691486 222.43755 
L 593.836984 222.303416 
L 595.007931 222.199368 
L 596.17812 222.128107 
L 597.43789 222.090097 
L 598.641338 222.008871 
L 599.95542 221.957412 
L 601.139458 221.927151 
L 602.456615 221.931304 
L 603.58178 221.88534 
L 604.861979 221.873591 
L 607.17568 221.853651 
L 609.400733 221.837219 
L 611.62836 221.813219 
L 613.948134 221.793714 
L 616.355835 221.730524 
L 618.846045 221.672611 
L 622.080194 221.590556 
L 625.776244 221.536118 
L 629.202701 221.415961 
L 632.80417 221.367022 
L 637.73667 221.275471 
L 642.249482 221.238206 
L 647.181983 221.103734 
L 656.627295 221.04021 
L 666.072608 220.977801 
L 675.51792 220.96471 
L 684.963233 220.972765 
L 694.408545 220.979171 
L 703.853858 220.951102 
L 713.29917 220.954069 
L 722.744483 220.935332 
L 741.635108 221.038183 
L 753.458468 221.088225 
L 765.81912 221.135058 
L 777.874829 221.145385 
L 788.86167 221.172038 
L 798.306983 221.13401 
L 807.092784 221.137401 
L 817.197608 221.140672 
L 817.197608 63.959699 
L 817.197608 63.959699 
L 807.092784 63.933916 
L 798.306983 63.91455 
L 788.86167 63.915938 
L 777.874829 63.874468 
L 765.81912 63.837193 
L 753.458468 63.755459 
L 741.635108 63.674366 
L 722.744483 63.458856 
L 713.29917 63.424843 
L 703.853858 63.297987 
L 694.408545 63.250096 
L 684.963233 63.111014 
L 675.51792 63.016055 
L 666.072608 62.927481 
L 656.627295 62.976807 
L 647.181983 62.984874 
L 642.249482 63.146196 
L 637.73667 63.165459 
L 632.80417 63.348339 
L 629.202701 63.430413 
L 625.776244 63.616368 
L 622.080194 63.7519 
L 618.846045 63.893991 
L 616.355835 63.994879 
L 613.948134 64.075091 
L 611.62836 64.115987 
L 609.400733 64.144411 
L 607.17568 64.155811 
L 604.861979 64.177001 
L 603.58178 64.18223 
L 602.456615 64.226654 
L 601.139458 64.23269 
L 599.95542 64.278424 
L 598.641338 64.318894 
L 597.43789 64.395384 
L 596.17812 64.45067 
L 595.007931 64.54056 
L 593.836984 64.649728 
L 592.691486 64.789008 
L 592.09897 64.933224 
L 591.536623 65.100704 
L 591.006574 65.278855 
L 590.510108 65.462509 
L 589.393295 65.66385 
L 588.440213 65.845337 
L 587.565631 65.896763 
L 586.689338 65.926534 
L 585.978345 65.761556 
L 585.170972 65.551495 
L 583.829265 64.946604 
L 582.236512 64.330708 
L 580.590786 63.389004 
L 578.893977 62.29769 
L 577.148423 60.972109 
L 575.774026 59.256217 
L 574.235341 57.230785 
L 572.48806 54.708716 
L 570.467581 51.68151 
L 567.416674 48.329048 
L 563.786738 44.693968 
L 560.64286 40.908468 
L 557.105896 39.018077 
L 553.753242 38.548148 
L 550.425053 38.341531 
L 547.100127 38.918681 
L 543.744211 39.555725 
L 540.596663 40.753013 
L 537.063369 41.642267 
L 533.47788 43.527161 
L 530.382526 44.260869 
L 527.248435 45.051265 
L 523.701684 44.877816 
L 520.529262 45.075229 
L 517.020842 44.757922 
L 513.575217 44.991606 
L 510.339999 44.677189 
L 506.946976 44.74845 
L 503.659157 44.286762 
L 500.205377 44.160445 
L 496.978314 43.984122 
L 493.589155 44.092769 
L 490.325069 44.453919 
L 487.02499 45.060529 
L 483.958078 45.782316 
L 480.842577 46.709934 
L 477.975382 47.491588 
L 475.19253 48.314 
L 472.396058 48.810945 
L 469.759827 49.293557 
L 467.21716 50.714883 
L 464.811613 51.851284 
L 462.425952 52.739024 
L 460.314271 53.938909 
L 458.002814 54.496229 
L 455.933062 56.06048 
L 453.926016 56.781822 
L 451.951214 58.774916 
L 450.174259 60.249991 
L 448.530584 62.061685 
L 446.721698 63.690534 
L 445.155995 64.455197 
L 443.549241 65.07431 
L 442.106467 65.828141 
L 440.63164 66.360008 
L 439.269923 66.761424 
L 437.951073 66.999824 
L 435.488341 68.032321 
L 433.224812 68.532046 
L 431.143679 69.41124 
L 429.229604 70.131386 
L 426.834965 70.630699 
L 424.358264 71.083496 
L 422.367082 70.595508 
L 420.545322 70.310577 
L 418.59025 68.533286 
L 416.601479 67.145184 
L 414.385383 65.834975 
L 411.962005 65.568394 
L 410.106215 64.432223 
L 408.375361 64.286004 
L 406.894263 64.025142 
L 405.289681 63.906775 
L 403.610952 65.808793 
L 401.701247 66.740451 
L 399.899373 72.361617 
L 398.043583 75.936992 
L 396.651741 82.707147 
L 395.259899 86.589525 
L 393.28631 92.954813 
L 391.54832 94.969167 
L 390.578063 101.27454 
L 389.69253 110.469055 
L 388.764636 111.177558 
L 387.836741 122.887926 
L 386.908846 128.84578 
L 385.980951 142.636989 
L 385.053056 156.175846 
L 384.125162 175.88866 
L 383.197267 204.022135 
L 382.269372 239.828772 
L 381.341477 266.615343 
L 380.832336 286.435457 
L 380.413583 311.021183 
L 379.945558 327.976827 
L 379.485688 352.964289 
L 379.000786 380.875273 
L 378.557793 426.374605 
L 378.056467 454.249945 
L 377.629898 466.692577 
L 377.181086 479.614744 
L 376.702003 494.140251 
L 376.42634 510.131251 
L 376.100674 523.572017 
L 375.781185 535.328224 
L 375.42959 545.476029 
L 374.808605 556.300458 
L 374.157176 565.153847 
L 373.578284 572.807456 
L 372.884762 578.357689 
L 371.612349 582.300791 
L 370.339935 585.651672 
L 367.795107 590.162599 
L 365.100791 592.962406 
L 362.015801 595.195385 
L 358.098232 597.310574 
L 353.582193 598.770849 
L 347.240659 599.949603 
L 338.743693 600.903565 
L 330.136629 601.671007 
L 322.042849 602.12438 
L 314.293433 602.534428 
L 306.108307 603.001398 
L 291.4797 603.562841 
L 277.872644 603.908467 
L 265.803879 604.184158 
L 253.442863 604.442735 
L 242.378625 604.606105 
L 232.059762 604.74076 
L 222.461467 604.848861 
L 215.666289 604.933749 
L 209.304744 605.00357 
L 201.294329 605.064949 
L 193.842604 605.113822 
L 186.901027 605.153896 
L 180.46251 605.185395 
L 174.585426 605.211396 
L 168.88361 605.231775 
L 163.692746 605.248671 
L 158.23472 605.267379 
L 152.242772 605.280907 
L 146.343341 605.290551 
L 140.906123 605.297617 
L 136.064903 605.302383 
L 131.894699 605.306126 
L 126.505652 605.309089 
L 121.795163 605.310668 
L 117.772298 605.311348 
L 114.380297 605.311657 
L 110.878308 605.311898 
L 107.979517 605.312064 
L 105.819849 605.312129 
L 103.578522 605.312183 
L 101.273505 605.312217 
L 99.991406 605.312232 
L 98.820976 605.312245 
L 97.579316 605.312254 
L 96.397416 605.312263 
L 95.299612 605.31227 
L 94.171374 605.312277 
L 93.099922 605.312281 
L 92.004934 605.312286 
L 90.129589 605.312293 
L 88.857321 605.312296 
L 87.435066 605.312298 
L 84.740543 605.312303 
L 83.42602 605.312305 
L 82.213061 605.312305 
L 80.785425 605.312306 
L 79.049287 605.312307 
L 76.852227 605.312307 
L 73.741466 605.312307 
L 69.481777 605.312307 
L 63.647806 605.312308 
L 55.656948 605.312308 
L 44.711179 605.312308 
L 29.717351 605.312308 
L 9.178043 605.312308 
z
" clip-path="url(#p88bb2bbc65)" style="fill: #2ca02c"/>
   </g>
   <g id="PolyCollection_4">
    <path d="M 9.178043 18.927692 
L 9.178043 605.312308 
L 29.717351 605.312308 
L 44.711179 605.312308 
L 55.656948 605.312308 
L 63.647806 605.312308 
L 69.481777 605.312307 
L 73.741466 605.312307 
L 76.852227 605.312307 
L 79.049287 605.312307 
L 80.785425 605.312306 
L 82.213061 605.312305 
L 83.42602 605.312305 
L 84.740543 605.312303 
L 87.435066 605.312298 
L 88.857321 605.312296 
L 90.129589 605.312293 
L 92.004934 605.312286 
L 93.099922 605.312281 
L 94.171374 605.312277 
L 95.299612 605.31227 
L 96.397416 605.312263 
L 97.579316 605.312254 
L 98.820976 605.312245 
L 99.991406 605.312232 
L 101.273505 605.312217 
L 103.578522 605.312183 
L 105.819849 605.312129 
L 107.979517 605.312064 
L 110.878308 605.311898 
L 114.380297 605.311657 
L 117.772298 605.311348 
L 121.795163 605.310668 
L 126.505652 605.309089 
L 131.894699 605.306126 
L 136.064903 605.302383 
L 140.906123 605.297617 
L 146.343341 605.290551 
L 152.242772 605.280907 
L 158.23472 605.267379 
L 163.692746 605.248671 
L 168.88361 605.231775 
L 174.585426 605.211396 
L 180.46251 605.185395 
L 186.901027 605.153896 
L 193.842604 605.113822 
L 201.294329 605.064949 
L 209.304744 605.00357 
L 215.666289 604.933749 
L 222.461467 604.848861 
L 232.059762 604.74076 
L 242.378625 604.606105 
L 253.442863 604.442735 
L 265.803879 604.184158 
L 277.872644 603.908467 
L 291.4797 603.562841 
L 306.108307 603.001398 
L 314.293433 602.534428 
L 322.042849 602.12438 
L 330.136629 601.671007 
L 338.743693 600.903565 
L 347.240659 599.949603 
L 353.582193 598.770849 
L 358.098232 597.310574 
L 362.015801 595.195385 
L 365.100791 592.962406 
L 367.795107 590.162599 
L 370.339935 585.651672 
L 371.612349 582.300791 
L 372.884762 578.357689 
L 373.578284 572.807456 
L 374.157176 565.153847 
L 374.808605 556.300458 
L 375.42959 545.476029 
L 375.781185 535.328224 
L 376.100674 523.572017 
L 376.42634 510.131251 
L 376.702003 494.140251 
L 377.181086 479.614744 
L 377.629898 466.692577 
L 378.056467 454.249945 
L 378.557793 426.374605 
L 379.000786 380.875273 
L 379.485688 352.964289 
L 379.945558 327.976827 
L 380.413583 311.021183 
L 380.832336 286.435457 
L 381.341477 266.615343 
L 382.269372 239.828772 
L 383.197267 204.022135 
L 384.125162 175.88866 
L 385.053056 156.175846 
L 385.980951 142.636989 
L 386.908846 128.84578 
L 387.836741 122.887926 
L 388.764636 111.177558 
L 389.69253 110.469055 
L 390.578063 101.27454 
L 391.54832 94.969167 
L 393.28631 92.954813 
L 395.259899 86.589525 
L 396.651741 82.707147 
L 398.043583 75.936992 
L 399.899373 72.361617 
L 401.701247 66.740451 
L 403.610952 65.808793 
L 405.289681 63.906775 
L 406.894263 64.025142 
L 408.375361 64.286004 
L 410.106215 64.432223 
L 411.962005 65.568394 
L 414.385383 65.834975 
L 416.601479 67.145184 
L 418.59025 68.533286 
L 420.545322 70.310577 
L 422.367082 70.595508 
L 424.358264 71.083496 
L 426.834965 70.630699 
L 429.229604 70.131386 
L 431.143679 69.41124 
L 433.224812 68.532046 
L 435.488341 68.032321 
L 437.951073 66.999824 
L 439.269923 66.761424 
L 440.63164 66.360008 
L 442.106467 65.828141 
L 443.549241 65.07431 
L 445.155995 64.455197 
L 446.721698 63.690534 
L 448.530584 62.061685 
L 450.174259 60.249991 
L 451.951214 58.774916 
L 453.926016 56.781822 
L 455.933062 56.06048 
L 458.002814 54.496229 
L 460.314271 53.938909 
L 462.425952 52.739024 
L 464.811613 51.851284 
L 467.21716 50.714883 
L 469.759827 49.293557 
L 472.396058 48.810945 
L 475.19253 48.314 
L 477.975382 47.491588 
L 480.842577 46.709934 
L 483.958078 45.782316 
L 487.02499 45.060529 
L 490.325069 44.453919 
L 493.589155 44.092769 
L 496.978314 43.984122 
L 500.205377 44.160445 
L 503.659157 44.286762 
L 506.946976 44.74845 
L 510.339999 44.677189 
L 513.575217 44.991606 
L 517.020842 44.757922 
L 520.529262 45.075229 
L 523.701684 44.877816 
L 527.248435 45.051265 
L 530.382526 44.260869 
L 533.47788 43.527161 
L 537.063369 41.642267 
L 540.596663 40.753013 
L 543.744211 39.555725 
L 547.100127 38.918681 
L 550.425053 38.341531 
L 553.753242 38.548148 
L 557.105896 39.018077 
L 560.64286 40.908468 
L 563.786738 44.693968 
L 567.416674 48.329048 
L 570.467581 51.68151 
L 572.48806 54.708716 
L 574.235341 57.230785 
L 575.774026 59.256217 
L 577.148423 60.972109 
L 578.893977 62.29769 
L 580.590786 63.389004 
L 582.236512 64.330708 
L 583.829265 64.946604 
L 585.170972 65.551495 
L 585.978345 65.761556 
L 586.689338 65.926534 
L 587.565631 65.896763 
L 588.440213 65.845337 
L 589.393295 65.66385 
L 590.510108 65.462509 
L 591.006574 65.278855 
L 591.536623 65.100704 
L 592.09897 64.933224 
L 592.691486 64.789008 
L 593.836984 64.649728 
L 595.007931 64.54056 
L 596.17812 64.45067 
L 597.43789 64.395384 
L 598.641338 64.318894 
L 599.95542 64.278424 
L 601.139458 64.23269 
L 602.456615 64.226654 
L 603.58178 64.18223 
L 604.861979 64.177001 
L 607.17568 64.155811 
L 609.400733 64.144411 
L 611.62836 64.115987 
L 613.948134 64.075091 
L 616.355835 63.994879 
L 618.846045 63.893991 
L 622.080194 63.7519 
L 625.776244 63.616368 
L 629.202701 63.430413 
L 632.80417 63.348339 
L 637.73667 63.165459 
L 642.249482 63.146196 
L 647.181983 62.984874 
L 656.627295 62.976807 
L 666.072608 62.927481 
L 675.51792 63.016055 
L 684.963233 63.111014 
L 694.408545 63.250096 
L 703.853858 63.297987 
L 713.29917 63.424843 
L 722.744483 63.458856 
L 741.635108 63.674366 
L 753.458468 63.755459 
L 765.81912 63.837193 
L 777.874829 63.874468 
L 788.86167 63.915938 
L 798.306983 63.91455 
L 807.092784 63.933916 
L 817.197608 63.959699 
L 817.197608 35.207801 
L 817.197608 35.207801 
L 807.092784 35.146117 
L 798.306983 35.068129 
L 788.86167 35.022139 
L 777.874829 34.953473 
L 765.81912 34.921621 
L 753.458468 34.890554 
L 741.635108 34.855247 
L 722.744483 34.742485 
L 713.29917 34.765086 
L 703.853858 34.741737 
L 694.408545 34.740628 
L 684.963233 34.626126 
L 675.51792 34.589681 
L 666.072608 34.513826 
L 656.627295 34.623021 
L 647.181983 34.618057 
L 642.249482 34.824451 
L 637.73667 34.848282 
L 632.80417 35.046652 
L 629.202701 35.114289 
L 625.776244 35.300907 
L 622.080194 35.374977 
L 618.846045 35.508854 
L 616.355835 35.552829 
L 613.948134 35.619564 
L 611.62836 35.641051 
L 609.400733 35.663197 
L 607.17568 35.682964 
L 604.861979 35.69398 
L 603.58178 35.71905 
L 602.456615 35.775785 
L 601.139458 35.773625 
L 599.95542 35.812111 
L 598.641338 35.828415 
L 597.43789 35.882953 
L 596.17812 35.905685 
L 595.007931 35.968873 
L 593.836984 36.080903 
L 592.691486 36.214897 
L 592.09897 36.357248 
L 591.536623 36.513827 
L 591.006574 36.687473 
L 590.510108 36.88456 
L 589.393295 37.108424 
L 588.440213 37.30598 
L 587.565631 37.329562 
L 586.689338 37.337443 
L 585.978345 37.318721 
L 585.170972 37.366104 
L 583.829265 37.069861 
L 582.236512 37.167447 
L 580.590786 36.578126 
L 578.893977 36.61007 
L 577.148423 35.410743 
L 575.774026 35.028657 
L 574.235341 33.170359 
L 572.48806 32.041645 
L 570.467581 29.344653 
L 567.416674 27.315965 
L 563.786738 23.742447 
L 560.64286 21.081429 
L 557.105896 18.927692 
L 553.753242 18.927692 
L 550.425053 18.927692 
L 547.100127 18.927692 
L 543.744211 18.927692 
L 540.596663 18.927692 
L 537.063369 18.927692 
L 533.47788 18.927692 
L 530.382526 18.927692 
L 527.248435 18.927692 
L 523.701684 18.927692 
L 520.529262 18.927692 
L 517.020842 18.927692 
L 513.575217 18.927692 
L 510.339999 18.927692 
L 506.946976 18.927692 
L 503.659157 18.927692 
L 500.205377 18.927692 
L 496.978314 18.927692 
L 493.589155 18.927692 
L 490.325069 18.927692 
L 487.02499 18.927692 
L 483.958078 18.927692 
L 480.842577 18.927692 
L 477.975382 18.927692 
L 475.19253 18.927692 
L 472.396058 18.927692 
L 469.759827 18.927692 
L 467.21716 20.229416 
L 464.811613 20.855721 
L 462.425952 21.531043 
L 460.314271 21.706617 
L 458.002814 21.943339 
L 455.933062 22.492579 
L 453.926016 23.342412 
L 451.951214 25.031115 
L 450.174259 27.117048 
L 448.530584 29.13012 
L 446.721698 31.374978 
L 445.155995 32.220479 
L 443.549241 32.993992 
L 442.106467 33.876172 
L 440.63164 34.574486 
L 439.269923 35.112927 
L 437.951073 35.399268 
L 435.488341 36.726685 
L 433.224812 37.325293 
L 431.143679 38.261321 
L 429.229604 39.050895 
L 426.834965 39.425943 
L 424.358264 39.8365 
L 422.367082 39.328087 
L 420.545322 39.305889 
L 418.59025 37.961606 
L 416.601479 37.338692 
L 414.385383 37.308619 
L 411.962005 38.416137 
L 410.106215 38.481859 
L 408.375361 39.214055 
L 406.894263 40.105521 
L 405.289681 40.739188 
L 403.610952 42.911813 
L 401.701247 44.739311 
L 399.899373 50.126465 
L 398.043583 55.00744 
L 396.651741 61.166093 
L 395.259899 65.161427 
L 393.28631 68.689371 
L 391.54832 68.25029 
L 390.578063 71.065166 
L 389.69253 76.463 
L 388.764636 73.117444 
L 387.836741 81.271575 
L 386.908846 82.199933 
L 385.980951 93.551247 
L 385.053056 102.249778 
L 384.125162 119.156595 
L 383.197267 138.215685 
L 382.269372 159.481035 
L 381.341477 161.137189 
L 380.832336 149.774 
L 380.413583 134.700052 
L 379.945558 97.283391 
L 379.485688 57.057607 
L 379.000786 18.927692 
L 378.557793 18.927692 
L 378.056467 18.927692 
L 377.629898 18.927692 
L 377.181086 18.927692 
L 376.702003 18.927692 
L 376.42634 18.927692 
L 376.100674 18.927692 
L 375.781185 18.927692 
L 375.42959 18.927692 
L 374.808605 18.927692 
L 374.157176 18.927692 
L 373.578284 18.927692 
L 372.884762 18.927692 
L 371.612349 18.927692 
L 370.339935 18.927692 
L 367.795107 18.927692 
L 365.100791 18.927692 
L 362.015801 18.927692 
L 358.098232 18.927692 
L 353.582193 18.927692 
L 347.240659 18.927692 
L 338.743693 18.927692 
L 330.136629 18.927692 
L 322.042849 18.927692 
L 314.293433 18.927692 
L 306.108307 18.927692 
L 291.4797 18.927692 
L 277.872644 18.927692 
L 265.803879 18.927692 
L 253.442863 18.927692 
L 242.378625 18.927692 
L 232.059762 18.927692 
L 222.461467 18.927692 
L 215.666289 18.927692 
L 209.304744 18.927692 
L 201.294329 18.927692 
L 193.842604 18.927692 
L 186.901027 18.927692 
L 180.46251 18.927692 
L 174.585426 18.927692 
L 168.88361 18.927692 
L 163.692746 18.927692 
L 158.23472 18.927692 
L 152.242772 18.927692 
L 146.343341 18.927692 
L 140.906123 18.927692 
L 136.064903 18.927692 
L 131.894699 18.927692 
L 126.505652 18.927692 
L 121.795163 18.927692 
L 117.772298 18.927692 
L 114.380297 18.927692 
L 110.878308 18.927692 
L 107.979517 18.927692 
L 105.819849 18.927692 
L 103.578522 18.927692 
L 101.273505 18.927692 
L 99.991406 18.927692 
L 98.820976 18.927692 
L 97.579316 18.927692 
L 96.397416 18.927692 
L 95.299612 18.927692 
L 94.171374 18.927692 
L 93.099922 18.927692 
L 92.004934 18.927692 
L 90.129589 18.927692 
L 88.857321 18.927692 
L 87.435066 18.927692 
L 84.740543 18.927692 
L 83.42602 18.927692 
L 82.213061 18.927692 
L 80.785425 18.927692 
L 79.049287 18.927692 
L 76.852227 18.927692 
L 73.741466 18.927692 
L 69.481777 18.927692 
L 63.647806 18.927692 
L 55.656948 18.927692 
L 44.711179 18.927692 
L 29.717351 18.927692 
L 9.178043 18.927692 
z
" clip-path="url(#p88bb2bbc65)" style="fill: #d62728"/>
   </g>
   <g id="matplotlib.axis_1">
    <g id="xtick_1">
     <g id="line2d_1">
      <path d="M 84.740543 617.04 
L 84.740543 7.2 
" clip-path="url(#p88bb2bbc65)" style="fill: none; stroke: #b0b0b0; stroke-width: 0.8; stroke-linecap: square"/>
     </g>
     <g id="line2d_2">
      <defs>
       <path id="m3225586efd" d="M 0 0 
L 0 3.5 
" style="stroke: #000000; stroke-width: 0.8"/>
      </defs>
      <g>
       <use xlink:href="#m3225586efd" x="84.740543" y="617.04" style="stroke: #000000; stroke-width: 0.8"/>
      </g>
     </g>
     <g id="text_1">
      <!-- $\mathdefault{0.0}$ -->
      <g transform="translate(66.968823 644.795495) scale(0.3 -0.3)">
       <defs>
        <path id="CMR17-30" d="M 2688 2025 
C 2688 2416 2682 3080 2413 3591 
C 2176 4039 1798 4198 1466 4198 
C 1158 4198 768 4058 525 3597 
C 269 3118 243 2524 243 2025 
C 243 1661 250 1106 448 619 
C 723 -39 1216 -128 1466 -128 
C 1760 -128 2208 -7 2470 600 
C 2662 1042 2688 1559 2688 2025 
z
M 1466 -26 
C 1056 -26 813 325 723 812 
C 653 1188 653 1738 653 2096 
C 653 2588 653 2997 736 3387 
C 858 3929 1216 4096 1466 4096 
C 1728 4096 2067 3923 2189 3400 
C 2272 3036 2278 2607 2278 2096 
C 2278 1680 2278 1169 2202 792 
C 2067 95 1690 -26 1466 -26 
z
" transform="scale(0.015625)"/>
        <path id="CMMI12-3a" d="M 1178 307 
C 1178 492 1024 619 870 619 
C 685 619 557 466 557 313 
C 557 128 710 0 864 0 
C 1050 0 1178 153 1178 307 
z
" transform="scale(0.015625)"/>
       </defs>
       <use xlink:href="#CMR17-30" transform="scale(0.996264)"/>
       <use xlink:href="#CMMI12-3a" transform="translate(45.690477 0) scale(0.996264)"/>
       <use xlink:href="#CMR17-30" transform="translate(72.787654 0) scale(0.996264)"/>
      </g>
     </g>
    </g>
    <g id="xtick_2">
     <g id="line2d_3">
      <path d="M 235.865543 617.04 
L 235.865543 7.2 
" clip-path="url(#p88bb2bbc65)" style="fill: none; stroke: #b0b0b0; stroke-width: 0.8; stroke-linecap: square"/>
     </g>
     <g id="line2d_4">
      <g>
       <use xlink:href="#m3225586efd" x="235.865543" y="617.04" style="stroke: #000000; stroke-width: 0.8"/>
      </g>
     </g>
     <g id="text_2">
      <!-- $\mathdefault{0.1}$ -->
      <g transform="translate(218.093823 644.795495) scale(0.3 -0.3)">
       <defs>
        <path id="CMR17-31" d="M 1702 4058 
C 1702 4192 1696 4192 1606 4192 
C 1357 3916 979 3827 621 3827 
C 602 3827 570 3827 563 3808 
C 557 3795 557 3782 557 3648 
C 755 3648 1088 3686 1344 3839 
L 1344 461 
C 1344 236 1331 160 781 160 
L 589 160 
L 589 0 
C 896 0 1216 0 1523 0 
C 1830 0 2150 0 2458 0 
L 2458 160 
L 2266 160 
C 1715 160 1702 230 1702 458 
L 1702 4058 
z
" transform="scale(0.015625)"/>
       </defs>
       <use xlink:href="#CMR17-30" transform="scale(0.996264)"/>
       <use xlink:href="#CMMI12-3a" transform="translate(45.690477 0) scale(0.996264)"/>
       <use xlink:href="#CMR17-31" transform="translate(72.787654 0) scale(0.996264)"/>
      </g>
     </g>
    </g>
    <g id="xtick_3">
     <g id="line2d_5">
      <path d="M 386.990543 617.04 
L 386.990543 7.2 
" clip-path="url(#p88bb2bbc65)" style="fill: none; stroke: #b0b0b0; stroke-width: 0.8; stroke-linecap: square"/>
     </g>
     <g id="line2d_6">
      <g>
       <use xlink:href="#m3225586efd" x="386.990543" y="617.04" style="stroke: #000000; stroke-width: 0.8"/>
      </g>
     </g>
     <g id="text_3">
      <!-- $\mathdefault{0.2}$ -->
      <g transform="translate(369.218823 644.795495) scale(0.3 -0.3)">
       <defs>
        <path id="CMR17-32" d="M 2669 989 
L 2554 989 
C 2490 536 2438 459 2413 420 
C 2381 369 1920 369 1830 369 
L 602 369 
C 832 619 1280 1072 1824 1597 
C 2214 1967 2669 2402 2669 3035 
C 2669 3790 2067 4224 1395 4224 
C 691 4224 262 3604 262 3030 
C 262 2780 448 2748 525 2748 
C 589 2748 781 2787 781 3010 
C 781 3207 614 3264 525 3264 
C 486 3264 448 3258 422 3245 
C 544 3790 915 4058 1306 4058 
C 1862 4058 2227 3617 2227 3035 
C 2227 2479 1901 2000 1536 1584 
L 262 146 
L 262 0 
L 2515 0 
L 2669 989 
z
" transform="scale(0.015625)"/>
       </defs>
       <use xlink:href="#CMR17-30" transform="scale(0.996264)"/>
       <use xlink:href="#CMMI12-3a" transform="translate(45.690477 0) scale(0.996264)"/>
       <use xlink:href="#CMR17-32" transform="translate(72.787654 0) scale(0.996264)"/>
      </g>
     </g>
    </g>
    <g id="xtick_4">
     <g id="line2d_7">
      <path d="M 538.115543 617.04 
L 538.115543 7.2 
" clip-path="url(#p88bb2bbc65)" style="fill: none; stroke: #b0b0b0; stroke-width: 0.8; stroke-linecap: square"/>
     </g>
     <g id="line2d_8">
      <g>
       <use xlink:href="#m3225586efd" x="538.115543" y="617.04" style="stroke: #000000; stroke-width: 0.8"/>
      </g>
     </g>
     <g id="text_4">
      <!-- $\mathdefault{0.3}$ -->
      <g transform="translate(520.343823 644.795495) scale(0.3 -0.3)">
       <defs>
        <path id="CMR17-33" d="M 1414 2157 
C 1984 2157 2234 1662 2234 1090 
C 2234 320 1824 25 1453 25 
C 1114 25 563 194 390 693 
C 422 680 454 680 486 680 
C 640 680 755 782 755 948 
C 755 1133 614 1216 486 1216 
C 378 1216 211 1165 211 926 
C 211 335 787 -128 1466 -128 
C 2176 -128 2720 430 2720 1085 
C 2720 1707 2208 2157 1600 2227 
C 2086 2328 2554 2756 2554 3329 
C 2554 3820 2048 4179 1472 4179 
C 890 4179 378 3829 378 3329 
C 378 3110 544 3072 627 3072 
C 762 3072 877 3155 877 3321 
C 877 3486 762 3569 627 3569 
C 602 3569 570 3569 544 3557 
C 730 3959 1235 4032 1459 4032 
C 1683 4032 2106 3925 2106 3320 
C 2106 3143 2080 2828 1862 2550 
C 1670 2304 1453 2304 1242 2284 
C 1210 2284 1062 2269 1037 2269 
C 992 2263 966 2257 966 2208 
C 966 2163 973 2157 1101 2157 
L 1414 2157 
z
" transform="scale(0.015625)"/>
       </defs>
       <use xlink:href="#CMR17-30" transform="scale(0.996264)"/>
       <use xlink:href="#CMMI12-3a" transform="translate(45.690477 0) scale(0.996264)"/>
       <use xlink:href="#CMR17-33" transform="translate(72.787654 0) scale(0.996264)"/>
      </g>
     </g>
    </g>
    <g id="xtick_5">
     <g id="line2d_9">
      <path d="M 689.240543 617.04 
L 689.240543 7.2 
" clip-path="url(#p88bb2bbc65)" style="fill: none; stroke: #b0b0b0; stroke-width: 0.8; stroke-linecap: square"/>
     </g>
     <g id="line2d_10">
      <g>
       <use xlink:href="#m3225586efd" x="689.240543" y="617.04" style="stroke: #000000; stroke-width: 0.8"/>
      </g>
     </g>
     <g id="text_5">
      <!-- $\mathdefault{0.4}$ -->
      <g transform="translate(671.468823 644.795495) scale(0.3 -0.3)">
       <defs>
        <path id="CMR17-34" d="M 2150 4122 
C 2150 4256 2144 4256 2029 4256 
L 128 1254 
L 128 1088 
L 1779 1088 
L 1779 457 
C 1779 224 1766 160 1318 160 
L 1197 160 
L 1197 0 
C 1402 0 1747 0 1965 0 
C 2182 0 2528 0 2733 0 
L 2733 160 
L 2611 160 
C 2163 160 2150 224 2150 457 
L 2150 1088 
L 2803 1088 
L 2803 1254 
L 2150 1254 
L 2150 4122 
z
M 1798 3703 
L 1798 1254 
L 256 1254 
L 1798 3703 
z
" transform="scale(0.015625)"/>
       </defs>
       <use xlink:href="#CMR17-30" transform="scale(0.996264)"/>
       <use xlink:href="#CMMI12-3a" transform="translate(45.690477 0) scale(0.996264)"/>
       <use xlink:href="#CMR17-34" transform="translate(72.787654 0) scale(0.996264)"/>
      </g>
     </g>
    </g>
    <g id="text_6">
     <!-- $x, \; m $ -->
     <g transform="translate(410.316604 678.823697) scale(0.35 -0.35)">
      <defs>
       <path id="CMMI12-78" d="M 3034 2606 
C 2829 2567 2752 2414 2752 2293 
C 2752 2139 2874 2088 2963 2088 
C 3155 2088 3290 2254 3290 2427 
C 3290 2695 2982 2816 2714 2816 
C 2323 2816 2106 2433 2048 2312 
C 1901 2816 1504 2816 1389 2816 
C 736 2816 390 1980 390 1839 
C 390 1814 416 1782 461 1782 
C 512 1782 525 1820 538 1846 
C 755 2555 1184 2689 1370 2689 
C 1658 2689 1715 2420 1715 2267 
C 1715 2127 1677 1980 1600 1673 
L 1382 798 
C 1286 415 1101 64 762 64 
C 730 64 570 64 435 147 
C 666 192 717 383 717 460 
C 717 588 621 664 499 664 
C 346 664 179 530 179 326 
C 179 57 480 -64 755 -64 
C 1062 -64 1280 179 1414 441 
C 1517 64 1837 -64 2074 -64 
C 2726 -64 3072 773 3072 913 
C 3072 945 3046 971 3008 971 
C 2950 971 2944 939 2925 888 
C 2752 326 2381 64 2093 64 
C 1869 64 1747 230 1747 492 
C 1747 632 1773 734 1875 1156 
L 2099 2024 
C 2195 2408 2413 2689 2707 2689 
C 2720 2689 2899 2689 3034 2606 
z
" transform="scale(0.015625)"/>
       <path id="CMMI12-3b" d="M 1248 -31 
C 1248 343 1126 619 864 619 
C 659 619 557 453 557 313 
C 557 172 653 0 870 0 
C 954 0 1024 26 1082 83 
C 1094 96 1101 96 1107 96 
C 1120 96 1120 5 1120 -27 
C 1120 -240 1082 -659 710 -1080 
C 640 -1157 640 -1170 640 -1183 
C 640 -1216 672 -1248 704 -1248 
C 755 -1248 1248 -771 1248 -31 
z
" transform="scale(0.015625)"/>
       <path id="CMMI12-6d" d="M 1318 1871 
C 1331 1910 1491 2229 1728 2433 
C 1894 2586 2112 2689 2362 2689 
C 2618 2689 2707 2497 2707 2242 
C 2707 2203 2707 2076 2630 1775 
L 2470 1118 
C 2419 926 2298 453 2285 383 
C 2259 287 2221 121 2221 96 
C 2221 6 2291 -64 2387 -64 
C 2579 -64 2611 83 2669 313 
L 3053 1839 
C 3066 1890 3398 2689 4102 2689 
C 4358 2689 4448 2497 4448 2242 
C 4448 1884 4198 1188 4058 805 
C 4000 651 3968 568 3968 453 
C 3968 166 4166 -64 4474 -64 
C 5069 -64 5293 875 5293 913 
C 5293 945 5267 971 5229 971 
C 5171 971 5165 952 5133 843 
C 4986 332 4749 64 4493 64 
C 4429 64 4326 64 4326 269 
C 4326 436 4403 640 4429 710 
C 4544 1018 4832 1773 4832 2145 
C 4832 2528 4608 2816 4122 2816 
C 3693 2816 3347 2574 3091 2197 
C 3072 2542 2861 2816 2381 2816 
C 1811 2816 1510 2415 1395 2255 
C 1376 2618 1114 2816 832 2816 
C 646 2816 499 2727 378 2484 
C 262 2254 173 1865 173 1839 
C 173 1814 198 1782 243 1782 
C 294 1782 301 1788 339 1935 
C 435 2312 557 2689 813 2689 
C 960 2689 1011 2586 1011 2395 
C 1011 2254 947 2005 902 1807 
L 723 1118 
C 698 996 627 709 595 594 
C 550 428 480 128 480 96 
C 480 6 550 -64 646 -64 
C 723 -64 813 -26 864 70 
C 877 102 934 326 966 453 
L 1107 1028 
L 1318 1871 
z
" transform="scale(0.015625)"/>
      </defs>
      <use xlink:href="#CMMI12-78" transform="scale(0.996264)"/>
      <use xlink:href="#CMMI12-3b" transform="translate(55.43406 0) scale(0.996264)"/>
      <use xlink:href="#CMMI12-6d" transform="translate(126.809651 0) scale(0.996264)"/>
     </g>
    </g>
   </g>
   <g id="matplotlib.axis_2">
    <g id="ytick_1">
     <g id="line2d_11">
      <path d="M 84.740543 605.312308 
L 810.140543 605.312308 
" clip-path="url(#p88bb2bbc65)" style="fill: none; stroke: #b0b0b0; stroke-width: 0.8; stroke-linecap: square"/>
     </g>
     <g id="line2d_12">
      <defs>
       <path id="m191c61446e" d="M 0 0 
L -3.5 0 
" style="stroke: #000000; stroke-width: 0.8"/>
      </defs>
      <g>
       <use xlink:href="#m191c61446e" x="84.740543" y="605.312308" style="stroke: #000000; stroke-width: 0.8"/>
      </g>
     </g>
     <g id="text_7">
      <!-- $\mathdefault{0.0}$ -->
      <g transform="translate(42.197103 615.690055) scale(0.3 -0.3)">
       <use xlink:href="#CMR17-30" transform="scale(0.996264)"/>
       <use xlink:href="#CMMI12-3a" transform="translate(45.690477 0) scale(0.996264)"/>
       <use xlink:href="#CMR17-30" transform="translate(72.787654 0) scale(0.996264)"/>
      </g>
     </g>
    </g>
    <g id="ytick_2">
     <g id="line2d_13">
      <path d="M 84.740543 488.035385 
L 810.140543 488.035385 
" clip-path="url(#p88bb2bbc65)" style="fill: none; stroke: #b0b0b0; stroke-width: 0.8; stroke-linecap: square"/>
     </g>
     <g id="line2d_14">
      <g>
       <use xlink:href="#m191c61446e" x="84.740543" y="488.035385" style="stroke: #000000; stroke-width: 0.8"/>
      </g>
     </g>
     <g id="text_8">
      <!-- $\mathdefault{0.2}$ -->
      <g transform="translate(42.197103 498.413132) scale(0.3 -0.3)">
       <use xlink:href="#CMR17-30" transform="scale(0.996264)"/>
       <use xlink:href="#CMMI12-3a" transform="translate(45.690477 0) scale(0.996264)"/>
       <use xlink:href="#CMR17-32" transform="translate(72.787654 0) scale(0.996264)"/>
      </g>
     </g>
    </g>
    <g id="ytick_3">
     <g id="line2d_15">
      <path d="M 84.740543 370.758462 
L 810.140543 370.758462 
" clip-path="url(#p88bb2bbc65)" style="fill: none; stroke: #b0b0b0; stroke-width: 0.8; stroke-linecap: square"/>
     </g>
     <g id="line2d_16">
      <g>
       <use xlink:href="#m191c61446e" x="84.740543" y="370.758462" style="stroke: #000000; stroke-width: 0.8"/>
      </g>
     </g>
     <g id="text_9">
      <!-- $\mathdefault{0.4}$ -->
      <g transform="translate(42.197103 381.136209) scale(0.3 -0.3)">
       <use xlink:href="#CMR17-30" transform="scale(0.996264)"/>
       <use xlink:href="#CMMI12-3a" transform="translate(45.690477 0) scale(0.996264)"/>
       <use xlink:href="#CMR17-34" transform="translate(72.787654 0) scale(0.996264)"/>
      </g>
     </g>
    </g>
    <g id="ytick_4">
     <g id="line2d_17">
      <path d="M 84.740543 253.481538 
L 810.140543 253.481538 
" clip-path="url(#p88bb2bbc65)" style="fill: none; stroke: #b0b0b0; stroke-width: 0.8; stroke-linecap: square"/>
     </g>
     <g id="line2d_18">
      <g>
       <use xlink:href="#m191c61446e" x="84.740543" y="253.481538" style="stroke: #000000; stroke-width: 0.8"/>
      </g>
     </g>
     <g id="text_10">
      <!-- $\mathdefault{0.6}$ -->
      <g transform="translate(42.197103 263.859286) scale(0.3 -0.3)">
       <defs>
        <path id="CMR17-36" d="M 678 2176 
C 678 3690 1395 4032 1811 4032 
C 1946 4032 2272 4009 2400 3776 
C 2298 3776 2106 3776 2106 3553 
C 2106 3381 2246 3323 2336 3323 
C 2394 3323 2566 3348 2566 3560 
C 2566 3954 2246 4179 1805 4179 
C 1043 4179 243 3390 243 1984 
C 243 253 966 -128 1478 -128 
C 2099 -128 2688 427 2688 1283 
C 2688 2081 2170 2662 1517 2662 
C 1126 2662 838 2407 678 1960 
L 678 2176 
z
M 1478 25 
C 691 25 691 1200 691 1436 
C 691 1896 909 2560 1504 2560 
C 1613 2560 1926 2560 2138 2120 
C 2253 1870 2253 1609 2253 1289 
C 2253 944 2253 690 2118 434 
C 1978 171 1773 25 1478 25 
z
" transform="scale(0.015625)"/>
       </defs>
       <use xlink:href="#CMR17-30" transform="scale(0.996264)"/>
       <use xlink:href="#CMMI12-3a" transform="translate(45.690477 0) scale(0.996264)"/>
       <use xlink:href="#CMR17-36" transform="translate(72.787654 0) scale(0.996264)"/>
      </g>
     </g>
    </g>
    <g id="ytick_5">
     <g id="line2d_19">
      <path d="M 84.740543 136.204615 
L 810.140543 136.204615 
" clip-path="url(#p88bb2bbc65)" style="fill: none; stroke: #b0b0b0; stroke-width: 0.8; stroke-linecap: square"/>
     </g>
     <g id="line2d_20">
      <g>
       <use xlink:href="#m191c61446e" x="84.740543" y="136.204615" style="stroke: #000000; stroke-width: 0.8"/>
      </g>
     </g>
     <g id="text_11">
      <!-- $\mathdefault{0.8}$ -->
      <g transform="translate(42.197103 146.582363) scale(0.3 -0.3)">
       <defs>
        <path id="CMR17-38" d="M 1741 2264 
C 2144 2467 2554 2773 2554 3263 
C 2554 3841 1990 4179 1472 4179 
C 890 4179 378 3759 378 3180 
C 378 3021 416 2747 666 2505 
C 730 2442 998 2251 1171 2130 
C 883 1983 211 1634 211 934 
C 211 279 838 -128 1459 -128 
C 2144 -128 2720 362 2720 1010 
C 2720 1590 2330 1857 2074 2029 
L 1741 2264 
z
M 902 2822 
C 851 2854 595 3051 595 3351 
C 595 3739 998 4032 1459 4032 
C 1965 4032 2336 3676 2336 3262 
C 2336 2669 1670 2331 1638 2331 
C 1632 2331 1626 2331 1574 2370 
L 902 2822 
z
M 2080 1519 
C 2176 1449 2483 1240 2483 851 
C 2483 381 2010 25 1472 25 
C 890 25 448 438 448 940 
C 448 1443 838 1862 1280 2060 
L 2080 1519 
z
" transform="scale(0.015625)"/>
       </defs>
       <use xlink:href="#CMR17-30" transform="scale(0.996264)"/>
       <use xlink:href="#CMMI12-3a" transform="translate(45.690477 0) scale(0.996264)"/>
       <use xlink:href="#CMR17-38" transform="translate(72.787654 0) scale(0.996264)"/>
      </g>
     </g>
    </g>
    <g id="ytick_6">
     <g id="line2d_21">
      <path d="M 84.740543 18.927692 
L 810.140543 18.927692 
" clip-path="url(#p88bb2bbc65)" style="fill: none; stroke: #b0b0b0; stroke-width: 0.8; stroke-linecap: square"/>
     </g>
     <g id="line2d_22">
      <g>
       <use xlink:href="#m191c61446e" x="84.740543" y="18.927692" style="stroke: #000000; stroke-width: 0.8"/>
      </g>
     </g>
     <g id="text_12">
      <!-- $\mathdefault{1.0}$ -->
      <g transform="translate(42.197103 29.30544) scale(0.3 -0.3)">
       <use xlink:href="#CMR17-31" transform="scale(0.996264)"/>
       <use xlink:href="#CMMI12-3a" transform="translate(45.690477 0) scale(0.996264)"/>
       <use xlink:href="#CMR17-30" transform="translate(72.787654 0) scale(0.996264)"/>
      </g>
     </g>
    </g>
    <g id="text_13">
     <!-- $S_1, \; -$ -->
     <g transform="translate(31.414752 354.516175) rotate(-90) scale(0.35 -0.35)">
      <defs>
       <path id="CMMI12-53" d="M 4064 4423 
C 4064 4480 4019 4480 4006 4480 
C 3981 4480 3974 4474 3898 4378 
C 3859 4333 3597 4001 3590 3995 
C 3379 4410 2957 4480 2688 4480 
C 1875 4480 1139 3743 1139 3025 
C 1139 2549 1427 2269 1741 2161 
C 1811 2135 2189 2033 2381 1989 
C 2707 1900 2790 1875 2925 1735 
C 2950 1703 3078 1557 3078 1258 
C 3078 667 2528 57 1888 57 
C 1363 57 781 280 781 991 
C 781 1112 806 1265 826 1328 
C 826 1348 832 1378 832 1391 
C 832 1417 819 1449 768 1449 
C 710 1449 704 1436 678 1328 
L 352 24 
C 352 18 326 -64 326 -71 
C 326 -128 378 -128 390 -128 
C 416 -128 422 -122 499 -26 
L 794 356 
C 947 126 1280 -128 1875 -128 
C 2701 -128 3456 666 3456 1460 
C 3456 1728 3392 1963 3149 2197 
C 3014 2331 2899 2363 2310 2516 
C 1882 2630 1824 2649 1709 2751 
C 1600 2858 1517 3011 1517 3227 
C 1517 3761 2061 4308 2669 4308 
C 3296 4308 3590 3926 3590 3323 
C 3590 3158 3558 2986 3558 2961 
C 3558 2903 3610 2903 3629 2903 
C 3686 2903 3693 2922 3718 3024 
L 4064 4423 
z
" transform="scale(0.015625)"/>
       <path id="CMSY10-0" d="M 4218 1472 
C 4326 1472 4442 1472 4442 1600 
C 4442 1728 4326 1728 4218 1728 
L 755 1728 
C 646 1728 531 1728 531 1600 
C 531 1472 646 1472 755 1472 
L 4218 1472 
z
" transform="scale(0.015625)"/>
      </defs>
      <use xlink:href="#CMMI12-53" transform="scale(0.996264)"/>
      <use xlink:href="#CMR17-31" transform="translate(59.994488 -14.943915) scale(0.697382)"/>
      <use xlink:href="#CMMI12-3b" transform="translate(92.475802 0) scale(0.996264)"/>
      <use xlink:href="#CMSY10-0" transform="translate(163.851393 0) scale(0.996264)"/>
     </g>
    </g>
   </g>
   <g id="patch_3">
    <path d="M 84.740543 617.04 
L 84.740543 7.2 
" style="fill: none; stroke: #000000; stroke-width: 0.8; stroke-linejoin: miter; stroke-linecap: square"/>
   </g>
   <g id="patch_4">
    <path d="M 810.140543 617.04 
L 810.140543 7.2 
" style="fill: none; stroke: #000000; stroke-width: 0.8; stroke-linejoin: miter; stroke-linecap: square"/>
   </g>
   <g id="patch_5">
    <path d="M 84.740543 617.04 
L 810.140543 617.04 
" style="fill: none; stroke: #000000; stroke-width: 0.8; stroke-linejoin: miter; stroke-linecap: square"/>
   </g>
   <g id="patch_6">
    <path d="M 84.740543 7.2 
L 810.140543 7.2 
" style="fill: none; stroke: #000000; stroke-width: 0.8; stroke-linejoin: miter; stroke-linecap: square"/>
   </g>
   <g id="legend_1">
    <g id="patch_7">
     <path d="M 833.436089 232.438667 
L 992.379543 232.438667 
Q 999.379543 232.438667 999.379543 225.438667 
L 999.379543 31.7 
Q 999.379543 24.7 992.379543 24.7 
L 833.436089 24.7 
Q 826.436089 24.7 826.436089 31.7 
L 826.436089 225.438667 
Q 826.436089 232.438667 833.436089 232.438667 
z
" style="fill: #ffffff; opacity: 0.8; stroke: #cccccc; stroke-linejoin: miter"/>
    </g>
    <g id="patch_8">
     <path d="M 840.436089 63.2 
L 910.436089 63.2 
L 910.436089 38.7 
L 840.436089 38.7 
z
" style="fill: #1f77b4"/>
    </g>
    <g id="text_14">
     <!-- $M$ -->
     <g transform="translate(938.436089 63.2) scale(0.35 -0.35)">
      <defs>
       <path id="CMMI12-4d" d="M 5811 3886 
C 5869 4103 5882 4167 6336 4167 
C 6458 4167 6515 4167 6515 4288 
C 6515 4352 6470 4352 6349 4352 
L 5581 4352 
C 5421 4352 5414 4346 5344 4243 
L 3008 562 
L 2528 4211 
C 2509 4352 2502 4352 2336 4352 
L 1542 4352 
C 1421 4352 1363 4352 1363 4231 
C 1363 4167 1421 4167 1517 4167 
C 1907 4167 1907 4116 1907 4046 
C 1907 4034 1907 3995 1882 3899 
L 1062 634 
C 986 327 838 186 410 186 
C 390 186 314 186 314 73 
C 314 0 371 0 397 0 
C 525 0 851 0 979 0 
L 1286 0 
C 1376 0 1485 0 1574 0 
C 1619 0 1690 0 1690 122 
C 1690 180 1626 186 1600 186 
C 1389 186 1184 224 1184 454 
C 1184 518 1184 524 1210 613 
L 2093 4129 
L 2099 4129 
L 2630 172 
C 2650 19 2656 0 2714 0 
C 2784 0 2816 51 2848 109 
L 5421 4161 
L 5427 4161 
L 4499 473 
C 4442 250 4429 186 3981 186 
C 3859 186 3795 186 3795 70 
C 3795 0 3853 0 3891 0 
C 4000 0 4128 0 4237 0 
L 4992 0 
C 5101 0 5235 0 5344 0 
C 5395 0 5466 0 5466 122 
C 5466 186 5408 186 5312 186 
C 4922 186 4922 234 4922 294 
C 4922 301 4922 345 4934 396 
L 5811 3886 
z
" transform="scale(0.015625)"/>
      </defs>
      <use xlink:href="#CMMI12-4d" transform="scale(0.996264)"/>
     </g>
    </g>
    <g id="patch_9">
     <path d="M 840.436089 111.982351 
L 910.436089 111.982351 
L 910.436089 87.482351 
L 840.436089 87.482351 
z
" style="fill: #ff7f0e"/>
    </g>
    <g id="text_15">
     <!-- $P$ -->
     <g transform="translate(938.436089 111.982351) scale(0.35 -0.35)">
      <defs>
       <path id="CMMI12-50" d="M 1894 2023 
L 2970 2023 
C 3853 2023 4736 2673 4736 3401 
C 4736 3898 4314 4352 3507 4352 
L 1530 4352 
C 1408 4352 1350 4352 1350 4231 
C 1350 4167 1408 4167 1504 4167 
C 1894 4167 1894 4116 1894 4046 
C 1894 4034 1894 3995 1869 3899 
L 1005 472 
C 947 249 934 185 486 185 
C 365 185 301 185 301 70 
C 301 0 358 0 397 0 
C 518 0 646 0 768 0 
L 1517 0 
C 1638 0 1773 0 1894 0 
C 1946 0 2016 0 2016 121 
C 2016 185 1958 185 1862 185 
C 1478 185 1472 230 1472 293 
C 1472 325 1478 369 1485 401 
L 1894 2023 
z
M 2355 3930 
C 2413 4167 2438 4167 2688 4167 
L 3322 4167 
C 3802 4167 4198 4013 4198 3535 
C 4198 3369 4115 2827 3821 2534 
C 3712 2419 3405 2176 2822 2176 
L 1920 2176 
L 2355 3930 
z
" transform="scale(0.015625)"/>
      </defs>
      <use xlink:href="#CMMI12-50" transform="scale(0.996264)"/>
     </g>
    </g>
    <g id="patch_10">
     <path d="M 840.436089 160.764702 
L 910.436089 160.764702 
L 910.436089 136.264702 
L 840.436089 136.264702 
z
" style="fill: #2ca02c"/>
    </g>
    <g id="text_16">
     <!-- $T$ -->
     <g transform="translate(938.436089 160.764702) scale(0.35 -0.35)">
      <defs>
       <path id="CMMI12-54" d="M 2669 3910 
C 2707 4064 2720 4121 2816 4147 
C 2867 4160 3078 4160 3213 4160 
C 3853 4160 4154 4134 4154 3634 
C 4154 3537 4128 3295 4090 3057 
L 4083 2980 
C 4083 2954 4109 2916 4147 2916 
C 4211 2916 4211 2948 4230 3050 
L 4416 4184 
C 4429 4243 4429 4256 4429 4275 
C 4429 4345 4390 4345 4262 4345 
L 762 4345 
C 614 4345 608 4339 570 4224 
L 179 3070 
C 173 3056 154 2986 154 2980 
C 154 2948 179 2916 218 2916 
C 269 2916 282 2941 307 3024 
C 576 3801 710 4160 1562 4160 
L 1990 4160 
C 2144 4160 2208 4160 2208 4089 
C 2208 4069 2208 4057 2176 3941 
L 1318 499 
C 1254 249 1242 185 563 185 
C 403 185 358 185 358 64 
C 358 0 429 0 461 0 
C 621 0 787 0 947 0 
L 1946 0 
C 2106 0 2278 0 2438 0 
C 2509 0 2573 0 2573 121 
C 2573 185 2528 185 2362 185 
C 1786 185 1786 243 1786 339 
C 1786 346 1786 391 1811 494 
L 2669 3910 
z
" transform="scale(0.015625)"/>
      </defs>
      <use xlink:href="#CMMI12-54" transform="scale(0.996264)"/>
     </g>
    </g>
    <g id="patch_11">
     <path d="M 840.436089 209.547054 
L 910.436089 209.547054 
L 910.436089 185.047054 
L 840.436089 185.047054 
z
" style="fill: #d62728"/>
    </g>
    <g id="text_17">
     <!-- $Y_{N_2}$ -->
     <g transform="translate(938.436089 209.547054) scale(0.35 -0.35)">
      <defs>
       <path id="CMMI12-59" d="M 3763 3645 
L 3910 3791 
C 4192 4078 4429 4149 4653 4167 
C 4723 4173 4781 4179 4781 4288 
C 4781 4352 4717 4352 4704 4352 
C 4627 4352 4544 4352 4467 4352 
L 4205 4352 
C 4019 4352 3821 4352 3642 4352 
C 3597 4352 3526 4352 3526 4226 
C 3526 4166 3590 4160 3610 4160 
C 3802 4160 3802 4064 3802 4026 
C 3802 3956 3750 3860 3622 3713 
L 2099 1969 
L 1376 3911 
C 1338 4000 1338 4013 1338 4026 
C 1338 4160 1600 4160 1677 4160 
C 1754 4160 1824 4160 1824 4279 
C 1824 4352 1766 4352 1728 4352 
C 1619 4352 1491 4352 1382 4352 
L 672 4352 
C 557 4352 435 4352 326 4352 
C 282 4352 211 4352 211 4226 
C 211 4160 269 4160 365 4160 
C 678 4160 736 4102 794 3956 
L 1587 1835 
C 1594 1816 1613 1745 1613 1726 
C 1613 1707 1299 452 1280 388 
C 1229 217 1165 185 755 185 
C 646 185 595 185 595 64 
C 595 0 666 0 685 0 
C 800 0 934 0 1056 0 
L 1811 0 
C 1926 0 2061 0 2176 0 
C 2221 0 2298 0 2298 115 
C 2298 185 2253 185 2144 185 
C 1747 185 1747 230 1747 300 
C 1747 345 1798 548 1830 676 
L 2061 1594 
C 2099 1727 2099 1739 2157 1803 
L 3763 3645 
z
" transform="scale(0.015625)"/>
       <path id="CMMI12-4e" d="M 4736 3698 
C 4806 3974 4909 4166 5395 4166 
C 5414 4166 5491 4166 5491 4279 
C 5491 4352 5434 4352 5408 4352 
C 5280 4352 4954 4352 4826 4352 
L 4518 4352 
C 4429 4352 4314 4352 4224 4352 
C 4186 4352 4109 4352 4109 4230 
C 4109 4166 4160 4166 4205 4166 
C 4589 4166 4614 4019 4614 3903 
C 4614 3846 4608 3826 4589 3737 
L 3866 850 
L 2496 4249 
C 2451 4352 2445 4352 2304 4352 
L 1523 4352 
C 1395 4352 1338 4352 1338 4230 
C 1338 4166 1382 4166 1504 4166 
C 1536 4166 1914 4166 1914 4115 
C 1914 4102 1901 4051 1894 4032 
L 1043 635 
C 966 320 813 186 390 186 
C 358 186 294 186 294 67 
C 294 0 358 0 378 0 
C 506 0 832 0 960 0 
L 1267 0 
C 1357 0 1466 0 1555 0 
C 1600 0 1670 0 1670 122 
C 1670 180 1606 186 1581 186 
C 1370 186 1165 224 1165 454 
C 1165 505 1178 562 1190 613 
L 2054 4032 
C 2093 3968 2093 3956 2118 3898 
L 3642 115 
C 3674 38 3686 0 3744 0 
C 3808 0 3814 19 3840 128 
L 4736 3698 
z
" transform="scale(0.015625)"/>
      </defs>
      <use xlink:href="#CMMI12-59" transform="scale(0.996264)"/>
      <use xlink:href="#CMMI12-4e" transform="translate(56.598607 -14.943915) scale(0.697382)"/>
      <use xlink:href="#CMR17-32" transform="translate(111.278947 -25.404611) scale(0.498132)"/>
     </g>
    </g>
   </g>
  </g>
 </g>
 <defs>
  <clipPath id="p88bb2bbc65">
   <rect x="84.740543" y="7.2" width="725.4" height="609.84"/>
  </clipPath>
 </defs>
</svg>
