<?xml version="1.0" encoding="utf-8" standalone="no"?>
<!DOCTYPE svg PUBLIC "-//W3C//DTD SVG 1.1//EN"
  "http://www.w3.org/Graphics/SVG/1.1/DTD/svg11.dtd">
<svg xmlns:xlink="http://www.w3.org/1999/xlink" width="817.340543pt" height="692.806049pt" viewBox="0 0 817.340543 692.806049" xmlns="http://www.w3.org/2000/svg" version="1.1">
 <metadata>
  <rdf:RDF xmlns:dc="http://purl.org/dc/elements/1.1/" xmlns:cc="http://creativecommons.org/ns#" xmlns:rdf="http://www.w3.org/1999/02/22-rdf-syntax-ns#">
   <cc:Work>
    <dc:type rdf:resource="http://purl.org/dc/dcmitype/StillImage"/>
    <dc:date>2025-03-26T16:04:26.188065</dc:date>
    <dc:format>image/svg+xml</dc:format>
    <dc:creator>
     <cc:Agent>
      <dc:title>Matplotlib v3.7.1, https://matplotlib.org/</dc:title>
     </cc:Agent>
    </dc:creator>
   </cc:Work>
  </rdf:RDF>
 </metadata>
 <defs>
  <style type="text/css">*{stroke-linejoin: round; stroke-linecap: butt}</style>
 </defs>
 <g id="figure_1">
  <g id="patch_1">
   <path d="M 0 692.806049 
L 817.340543 692.806049 
L 817.340543 0 
L 0 0 
z
" style="fill: #ffffff"/>
  </g>
  <g id="axes_1">
   <g id="patch_2">
    <path d="M 84.740543 617.04 
L 810.140543 617.04 
L 810.140543 7.2 
L 84.740543 7.2 
z
" style="fill: #ffffff"/>
   </g>
   <g id="PolyCollection_1">
    <path d="M 9.178043 605.312308 
L 9.178043 605.312308 
L 29.717351 605.312308 
L 44.711179 605.312308 
L 55.656948 605.312308 
L 63.647806 605.312308 
L 69.481777 605.312308 
L 73.741466 605.312308 
L 76.852227 605.312308 
L 79.124624 605.312308 
L 80.785425 605.312308 
L 82.111498 605.312308 
L 83.42602 605.312308 
L 84.740543 605.312308 
L 86.087804 605.312308 
L 87.435066 605.312308 
L 88.782327 605.312308 
L 90.129589 605.312308 
L 91.47685 605.312308 
L 92.824112 605.312308 
L 94.171374 605.312308 
L 95.518635 605.312308 
L 96.865897 605.312308 
L 98.213158 605.312308 
L 99.56042 605.312308 
L 100.907682 605.312308 
L 102.254943 605.312308 
L 103.602205 605.312308 
L 104.949466 605.312308 
L 106.296728 605.312308 
L 107.643989 605.312308 
L 108.991251 605.312308 
L 110.338513 605.312308 
L 111.685774 605.312308 
L 113.033036 605.312308 
L 114.380297 605.312308 
L 115.727559 605.312308 
L 117.07482 605.312308 
L 118.422082 605.312308 
L 119.769344 605.312308 
L 121.116605 605.312308 
L 122.463867 605.312308 
L 123.811128 605.312308 
L 125.15839 605.312308 
L 126.505652 605.312308 
L 127.852913 605.312308 
L 129.200175 605.312308 
L 130.547436 605.312308 
L 131.894699 605.312308 
L 133.275902 605.312308 
L 134.706455 605.312308 
L 136.188485 605.312308 
L 137.72483 605.312308 
L 139.318394 605.312308 
L 140.970849 605.312308 
L 142.684184 605.312308 
L 144.460719 605.312308 
L 146.303001 605.312308 
L 148.212643 605.312308 
L 150.191638 605.312308 
L 152.242772 605.312308 
L 154.369789 605.312308 
L 156.576921 605.312308 
L 158.863167 605.312308 
L 161.23367 605.312308 
L 163.692746 605.312308 
L 166.240541 605.312308 
L 168.88361 605.312308 
L 171.623417 605.312308 
L 174.463215 605.312308 
L 177.408712 605.312308 
L 180.46251 605.312308 
L 183.628419 605.312308 
L 186.910786 605.312308 
L 190.314049 605.312308 
L 193.842604 605.312308 
L 197.500918 605.312308 
L 201.293821 605.312308 
L 205.22697 605.312308 
L 209.304744 605.312308 
L 213.53248 605.312308 
L 217.91616 605.312308 
L 222.461467 605.312308 
L 227.17384 605.312308 
L 232.059762 605.312308 
L 237.125821 605.312308 
L 242.378625 605.312308 
L 247.824813 605.312308 
L 253.442863 605.312308 
L 259.222913 605.312308 
L 265.21574 605.312308 
L 271.429742 605.312308 
L 277.872644 605.312308 
L 284.553028 605.312308 
L 291.4797 605.312308 
L 298.661623 605.312308 
L 306.108307 605.312308 
L 313.829633 605.312308 
L 321.835592 605.312308 
L 330.136629 605.312308 
L 338.743693 605.312308 
L 347.240659 605.312308 
L 353.582193 605.312308 
L 358.098232 605.312308 
L 361.314826 605.312308 
L 363.606378 605.312308 
L 365.239331 605.312308 
L 366.522694 605.312308 
L 367.795107 605.312308 
L 369.067521 605.312308 
L 370.339935 605.312308 
L 371.612349 605.312308 
L 372.884762 605.312308 
L 374.157176 605.312308 
L 375.42959 605.312308 
L 376.702003 605.312308 
L 377.629898 605.312308 
L 378.557793 605.312308 
L 379.485688 605.312308 
L 380.413583 605.312308 
L 381.341477 605.312308 
L 382.269372 605.312308 
L 383.197267 605.312308 
L 384.125162 605.312308 
L 385.053056 605.312308 
L 385.980951 605.312308 
L 386.908846 605.312308 
L 387.836741 605.312308 
L 388.764636 605.312308 
L 389.69253 605.312308 
L 390.620425 605.312308 
L 391.54832 605.312308 
L 392.476215 605.312308 
L 393.404109 605.312308 
L 394.332004 605.312308 
L 395.259899 605.312308 
L 396.187794 605.312308 
L 397.115689 605.312308 
L 398.043583 605.312308 
L 398.971478 605.312308 
L 399.899373 605.312308 
L 400.827268 605.312308 
L 401.755162 605.312308 
L 402.683057 605.312308 
L 403.610952 605.312308 
L 404.538847 605.312308 
L 405.466742 605.312308 
L 406.394636 605.312308 
L 407.322531 605.312308 
L 408.250426 605.312308 
L 409.178321 605.312308 
L 410.106215 605.312308 
L 411.03411 605.312308 
L 411.962005 605.312308 
L 412.8899 605.312308 
L 413.817795 605.312308 
L 414.745689 605.312308 
L 415.673584 605.312308 
L 416.601479 605.312308 
L 417.529374 605.312308 
L 418.466771 605.312308 
L 419.462355 605.312308 
L 420.545322 605.312308 
L 421.713006 605.312308 
L 422.98146 605.312308 
L 424.358264 605.312308 
L 425.84987 605.312308 
L 427.468869 605.312308 
L 429.229604 605.312308 
L 431.143679 605.312308 
L 433.224812 605.312308 
L 435.488341 605.312308 
L 437.951073 605.312308 
L 440.63164 605.312308 
L 443.549241 605.312308 
L 446.721698 605.312308 
L 450.174259 605.312308 
L 453.926016 605.312308 
L 458.002814 605.312308 
L 462.425952 605.312308 
L 467.21716 605.312308 
L 472.396058 605.312308 
L 477.975382 605.312308 
L 483.958078 605.312308 
L 490.325069 605.312308 
L 496.978314 605.312308 
L 503.659157 605.312308 
L 510.339999 605.312308 
L 517.020842 605.312308 
L 523.701684 605.312308 
L 530.382526 605.312308 
L 537.063369 605.312308 
L 543.744211 605.312308 
L 550.425053 605.312308 
L 557.105896 605.312308 
L 563.786738 605.312308 
L 570.467581 605.312308 
L 577.148423 605.312308 
L 583.829265 605.312308 
L 590.510108 605.312308 
L 599.95542 605.312308 
L 609.400733 605.312308 
L 618.846045 605.312308 
L 628.291358 605.312308 
L 637.73667 605.312308 
L 647.181983 605.312308 
L 656.627295 605.312308 
L 666.072608 605.312308 
L 675.51792 605.312308 
L 684.963233 605.312308 
L 694.408545 605.312308 
L 703.853858 605.312308 
L 713.29917 605.312308 
L 722.744483 605.312308 
L 732.189795 605.312308 
L 741.635108 605.312308 
L 751.08042 605.312308 
L 760.525733 605.312308 
L 769.971045 605.312308 
L 779.416358 605.312308 
L 788.86167 605.312308 
L 798.306983 605.312308 
L 807.752295 605.312308 
L 817.197608 605.312308 
L 817.197608 605.312308 
L 817.197608 605.312308 
L 807.752295 605.312308 
L 798.306983 605.312308 
L 788.86167 605.312308 
L 779.416358 605.197528 
L 769.971045 604.941733 
L 760.525733 604.637557 
L 751.08042 604.280573 
L 741.635108 603.874688 
L 732.189795 603.413735 
L 722.744483 602.900365 
L 713.29917 602.326889 
L 703.853858 601.692738 
L 694.408545 600.987175 
L 684.963233 600.206635 
L 675.51792 599.339494 
L 666.072608 598.378364 
L 656.627295 597.309653 
L 647.181983 596.12243 
L 637.73667 594.80248 
L 628.291358 593.335437 
L 618.846045 591.709051 
L 609.400733 589.912809 
L 599.95542 587.931032 
L 590.510108 585.752551 
L 583.829265 583.357895 
L 577.148423 580.731615 
L 570.467581 577.873123 
L 563.786738 574.780894 
L 557.105896 571.469524 
L 550.425053 567.976047 
L 543.744211 564.368781 
L 537.063369 560.724662 
L 530.382526 557.088765 
L 523.701684 553.4692 
L 517.020842 549.910421 
L 510.339999 546.457851 
L 503.659157 543.143531 
L 496.978314 539.960793 
L 490.325069 536.923994 
L 483.958078 534.029535 
L 477.975382 531.277331 
L 472.396058 528.666154 
L 467.21716 526.197879 
L 462.425952 523.858822 
L 458.002814 521.624072 
L 453.926016 519.468738 
L 450.174259 517.359329 
L 446.721698 515.248025 
L 443.549241 513.097187 
L 440.63164 510.881479 
L 437.951073 508.589319 
L 435.488341 506.210305 
L 433.224812 503.740513 
L 431.143679 501.183517 
L 429.229604 498.543322 
L 427.468869 495.830418 
L 425.84987 493.054897 
L 424.358264 490.236858 
L 422.98146 487.397015 
L 421.713006 484.55401 
L 420.545322 481.727445 
L 419.462355 478.937615 
L 418.466771 476.201357 
L 417.529374 473.534022 
L 416.601479 470.948669 
L 415.673584 468.458135 
L 414.745689 466.069714 
L 413.817795 463.788683 
L 412.8899 461.615281 
L 411.962005 459.5478 
L 411.03411 457.585697 
L 410.106215 455.722681 
L 409.178321 453.958658 
L 408.250426 452.298212 
L 407.322531 450.75361 
L 406.394636 449.338123 
L 405.466742 448.066902 
L 404.538847 446.955861 
L 403.610952 446.02219 
L 402.683057 445.280726 
L 401.755162 444.742893 
L 400.827268 444.421052 
L 399.899373 444.328489 
L 398.971478 444.471289 
L 398.043583 444.87314 
L 397.115689 445.560443 
L 396.187794 446.560524 
L 395.259899 447.897454 
L 394.332004 449.602813 
L 393.404109 451.714108 
L 392.476215 454.283628 
L 391.54832 457.367462 
L 390.620425 461.031361 
L 389.69253 465.369901 
L 388.764636 470.512179 
L 387.836741 476.548405 
L 386.908846 483.589105 
L 385.980951 491.689018 
L 385.053056 500.814777 
L 384.125162 511.020558 
L 383.197267 522.660538 
L 382.269372 534.842952 
L 381.341477 546.984719 
L 380.413583 557.991162 
L 379.485688 566.862128 
L 378.557793 573.761693 
L 377.629898 579.542361 
L 376.702003 584.122097 
L 375.42959 587.881848 
L 374.157176 591.042936 
L 372.884762 593.70254 
L 371.612349 595.949534 
L 370.339935 597.843438 
L 369.067521 599.415247 
L 367.795107 600.729908 
L 366.522694 601.779056 
L 365.239331 602.653671 
L 363.606378 603.310641 
L 361.314826 603.86358 
L 358.098232 604.244729 
L 353.582193 604.575134 
L 347.240659 604.778288 
L 338.743693 604.963921 
L 330.136629 605.062673 
L 321.835592 605.160244 
L 313.829633 605.203642 
L 306.108307 605.251412 
L 298.661623 605.268425 
L 291.4797 605.290131 
L 284.553028 605.295935 
L 277.872644 605.30506 
L 271.429742 605.306691 
L 265.21574 605.31023 
L 259.222913 605.310546 
L 253.442863 605.311808 
L 247.824813 605.311806 
L 242.378625 605.312219 
L 237.125821 605.31218 
L 232.059762 605.312303 
L 227.17384 605.312279 
L 222.461467 605.312308 
L 217.91616 605.312302 
L 213.53248 605.312308 
L 209.304744 605.312307 
L 205.22697 605.312308 
L 201.293821 605.312308 
L 197.500918 605.312308 
L 193.842604 605.312308 
L 190.314049 605.312308 
L 186.910786 605.312308 
L 183.628419 605.312308 
L 180.46251 605.312308 
L 177.408712 605.312308 
L 174.463215 605.312308 
L 171.623417 605.312308 
L 168.88361 605.312308 
L 166.240541 605.312308 
L 163.692746 605.312308 
L 161.23367 605.312308 
L 158.863167 605.312308 
L 156.576921 605.312308 
L 154.369789 605.312308 
L 152.242772 605.312308 
L 150.191638 605.312308 
L 148.212643 605.312308 
L 146.303001 605.312308 
L 144.460719 605.312308 
L 142.684184 605.312308 
L 140.970849 605.312308 
L 139.318394 605.312308 
L 137.72483 605.312308 
L 136.188485 605.312308 
L 134.706455 605.312308 
L 133.275902 605.312308 
L 131.894699 605.312308 
L 130.547436 605.312308 
L 129.200175 605.312308 
L 127.852913 605.312308 
L 126.505652 605.312308 
L 125.15839 605.312308 
L 123.811128 605.312308 
L 122.463867 605.312308 
L 121.116605 605.312308 
L 119.769344 605.312308 
L 118.422082 605.312308 
L 117.07482 605.312308 
L 115.727559 605.312308 
L 114.380297 605.312308 
L 113.033036 605.312308 
L 111.685774 605.312308 
L 110.338513 605.312308 
L 108.991251 605.312308 
L 107.643989 605.312308 
L 106.296728 605.312308 
L 104.949466 605.312308 
L 103.602205 605.312308 
L 102.254943 605.312308 
L 100.907682 605.312308 
L 99.56042 605.312308 
L 98.213158 605.312308 
L 96.865897 605.312308 
L 95.518635 605.312308 
L 94.171374 605.312308 
L 92.824112 605.312308 
L 91.47685 605.312308 
L 90.129589 605.312308 
L 88.782327 605.312308 
L 87.435066 605.312308 
L 86.087804 605.312308 
L 84.740543 605.312308 
L 83.42602 605.312308 
L 82.111498 605.312308 
L 80.785425 605.312308 
L 79.124624 605.312308 
L 76.852227 605.312308 
L 73.741466 605.312308 
L 69.481777 605.312308 
L 63.647806 605.312308 
L 55.656948 605.312308 
L 44.711179 605.312308 
L 29.717351 605.312308 
L 9.178043 605.312308 
z
" clip-path="url(#pce920b4d39)" style="fill: #1f77b4"/>
   </g>
   <g id="PolyCollection_2">
    <path d="M 9.178043 605.312308 
L 9.178043 605.312308 
L 29.717351 605.312308 
L 44.711179 605.312308 
L 55.656948 605.312308 
L 63.647806 605.312308 
L 69.481777 605.312308 
L 73.741466 605.312308 
L 76.852227 605.312308 
L 79.124624 605.312308 
L 80.785425 605.312308 
L 82.111498 605.312308 
L 83.42602 605.312308 
L 84.740543 605.312308 
L 86.087804 605.312308 
L 87.435066 605.312308 
L 88.782327 605.312308 
L 90.129589 605.312308 
L 91.47685 605.312308 
L 92.824112 605.312308 
L 94.171374 605.312308 
L 95.518635 605.312308 
L 96.865897 605.312308 
L 98.213158 605.312308 
L 99.56042 605.312308 
L 100.907682 605.312308 
L 102.254943 605.312308 
L 103.602205 605.312308 
L 104.949466 605.312308 
L 106.296728 605.312308 
L 107.643989 605.312308 
L 108.991251 605.312308 
L 110.338513 605.312308 
L 111.685774 605.312308 
L 113.033036 605.312308 
L 114.380297 605.312308 
L 115.727559 605.312308 
L 117.07482 605.312308 
L 118.422082 605.312308 
L 119.769344 605.312308 
L 121.116605 605.312308 
L 122.463867 605.312308 
L 123.811128 605.312308 
L 125.15839 605.312308 
L 126.505652 605.312308 
L 127.852913 605.312308 
L 129.200175 605.312308 
L 130.547436 605.312308 
L 131.894699 605.312308 
L 133.275902 605.312308 
L 134.706455 605.312308 
L 136.188485 605.312308 
L 137.72483 605.312308 
L 139.318394 605.312308 
L 140.970849 605.312308 
L 142.684184 605.312308 
L 144.460719 605.312308 
L 146.303001 605.312308 
L 148.212643 605.312308 
L 150.191638 605.312308 
L 152.242772 605.312308 
L 154.369789 605.312308 
L 156.576921 605.312308 
L 158.863167 605.312308 
L 161.23367 605.312308 
L 163.692746 605.312308 
L 166.240541 605.312308 
L 168.88361 605.312308 
L 171.623417 605.312308 
L 174.463215 605.312308 
L 177.408712 605.312308 
L 180.46251 605.312308 
L 183.628419 605.312308 
L 186.910786 605.312308 
L 190.314049 605.312308 
L 193.842604 605.312308 
L 197.500918 605.312308 
L 201.293821 605.312308 
L 205.22697 605.312308 
L 209.304744 605.312307 
L 213.53248 605.312308 
L 217.91616 605.312302 
L 222.461467 605.312308 
L 227.17384 605.312279 
L 232.059762 605.312303 
L 237.125821 605.31218 
L 242.378625 605.312219 
L 247.824813 605.311806 
L 253.442863 605.311808 
L 259.222913 605.310546 
L 265.21574 605.31023 
L 271.429742 605.306691 
L 277.872644 605.30506 
L 284.553028 605.295935 
L 291.4797 605.290131 
L 298.661623 605.268425 
L 306.108307 605.251412 
L 313.829633 605.203642 
L 321.835592 605.160244 
L 330.136629 605.062673 
L 338.743693 604.963921 
L 347.240659 604.778288 
L 353.582193 604.575134 
L 358.098232 604.244729 
L 361.314826 603.86358 
L 363.606378 603.310641 
L 365.239331 602.653671 
L 366.522694 601.779056 
L 367.795107 600.729908 
L 369.067521 599.415247 
L 370.339935 597.843438 
L 371.612349 595.949534 
L 372.884762 593.70254 
L 374.157176 591.042936 
L 375.42959 587.881848 
L 376.702003 584.122097 
L 377.629898 579.542361 
L 378.557793 573.761693 
L 379.485688 566.862128 
L 380.413583 557.991162 
L 381.341477 546.984719 
L 382.269372 534.842952 
L 383.197267 522.660538 
L 384.125162 511.020558 
L 385.053056 500.814777 
L 385.980951 491.689018 
L 386.908846 483.589105 
L 387.836741 476.548405 
L 388.764636 470.512179 
L 389.69253 465.369901 
L 390.620425 461.031361 
L 391.54832 457.367462 
L 392.476215 454.283628 
L 393.404109 451.714108 
L 394.332004 449.602813 
L 395.259899 447.897454 
L 396.187794 446.560524 
L 397.115689 445.560443 
L 398.043583 444.87314 
L 398.971478 444.471289 
L 399.899373 444.328489 
L 400.827268 444.421052 
L 401.755162 444.742893 
L 402.683057 445.280726 
L 403.610952 446.02219 
L 404.538847 446.955861 
L 405.466742 448.066902 
L 406.394636 449.338123 
L 407.322531 450.75361 
L 408.250426 452.298212 
L 409.178321 453.958658 
L 410.106215 455.722681 
L 411.03411 457.585697 
L 411.962005 459.5478 
L 412.8899 461.615281 
L 413.817795 463.788683 
L 414.745689 466.069714 
L 415.673584 468.458135 
L 416.601479 470.948669 
L 417.529374 473.534022 
L 418.466771 476.201357 
L 419.462355 478.937615 
L 420.545322 481.727445 
L 421.713006 484.55401 
L 422.98146 487.397015 
L 424.358264 490.236858 
L 425.84987 493.054897 
L 427.468869 495.830418 
L 429.229604 498.543322 
L 431.143679 501.183517 
L 433.224812 503.740513 
L 435.488341 506.210305 
L 437.951073 508.589319 
L 440.63164 510.881479 
L 443.549241 513.097187 
L 446.721698 515.248025 
L 450.174259 517.359329 
L 453.926016 519.468738 
L 458.002814 521.624072 
L 462.425952 523.858822 
L 467.21716 526.197879 
L 472.396058 528.666154 
L 477.975382 531.277331 
L 483.958078 534.029535 
L 490.325069 536.923994 
L 496.978314 539.960793 
L 503.659157 543.143531 
L 510.339999 546.457851 
L 517.020842 549.910421 
L 523.701684 553.4692 
L 530.382526 557.088765 
L 537.063369 560.724662 
L 543.744211 564.368781 
L 550.425053 567.976047 
L 557.105896 571.469524 
L 563.786738 574.780894 
L 570.467581 577.873123 
L 577.148423 580.731615 
L 583.829265 583.357895 
L 590.510108 585.752551 
L 599.95542 587.931032 
L 609.400733 589.912809 
L 618.846045 591.709051 
L 628.291358 593.335437 
L 637.73667 594.80248 
L 647.181983 596.12243 
L 656.627295 597.309653 
L 666.072608 598.378364 
L 675.51792 599.339494 
L 684.963233 600.206635 
L 694.408545 600.987175 
L 703.853858 601.692738 
L 713.29917 602.326889 
L 722.744483 602.900365 
L 732.189795 603.413735 
L 741.635108 603.874688 
L 751.08042 604.280573 
L 760.525733 604.637557 
L 769.971045 604.941733 
L 779.416358 605.197528 
L 788.86167 605.312308 
L 798.306983 605.312308 
L 807.752295 605.312308 
L 817.197608 605.312308 
L 817.197608 590.597403 
L 817.197608 590.597403 
L 807.752295 590.601033 
L 798.306983 590.609566 
L 788.86167 590.62065 
L 779.416358 590.523261 
L 769.971045 590.286566 
L 760.525733 590.009269 
L 751.08042 589.680341 
L 741.635108 589.311758 
L 732.189795 588.889123 
L 722.744483 588.424695 
L 713.29917 587.901476 
L 703.853858 587.329426 
L 694.408545 586.68805 
L 684.963233 585.984543 
L 675.51792 585.197934 
L 666.072608 584.33106 
L 656.627295 583.361999 
L 647.181983 582.288829 
L 637.73667 581.090555 
L 628.291358 579.760178 
L 618.846045 578.280401 
L 609.400733 576.647011 
L 599.95542 574.841076 
L 590.510108 572.855382 
L 583.829265 570.668504 
L 577.148423 568.268358 
L 570.467581 565.653287 
L 563.786738 562.821132 
L 557.105896 559.784215 
L 550.425053 556.582273 
L 543.744211 553.28559 
L 537.063369 549.971502 
L 530.382526 546.686435 
L 523.701684 543.439125 
L 517.020842 540.269408 
L 510.339999 537.224294 
L 503.659157 534.336003 
L 496.978314 531.595834 
L 490.325069 529.016495 
L 483.958078 526.589581 
L 477.975382 524.308955 
L 472.396058 522.168611 
L 467.21716 520.166612 
L 462.425952 518.285763 
L 458.002814 516.499109 
L 453.926016 514.778879 
L 450.174259 513.086721 
L 446.721698 511.368234 
L 443.549241 509.58299 
L 440.63164 507.704971 
L 437.951073 505.719696 
L 435.488341 503.61496 
L 433.224812 501.38729 
L 431.143679 499.038588 
L 429.229604 496.575741 
L 427.468869 494.007063 
L 425.84987 491.348359 
L 424.358264 488.615619 
L 422.98146 485.837678 
L 421.713006 483.027852 
L 420.545322 480.214422 
L 419.462355 477.413014 
L 418.466771 474.646469 
L 417.529374 471.929037 
L 416.601479 469.278351 
L 415.673584 466.707976 
L 414.745689 464.228288 
L 413.817795 461.846332 
L 412.8899 459.564234 
L 411.962005 457.382999 
L 411.03411 455.302452 
L 410.106215 453.320685 
L 409.178321 451.435233 
L 408.250426 449.659269 
L 407.322531 447.995486 
L 406.394636 446.474986 
L 405.466742 445.088599 
L 404.538847 443.887358 
L 403.610952 442.842768 
L 402.683057 442.025439 
L 401.755162 441.383293 
L 400.827268 440.995054 
L 399.899373 440.809767 
L 398.971478 440.892784 
L 398.043583 441.2182 
L 397.115689 441.853591 
L 396.187794 442.796386 
L 395.259899 444.094362 
L 394.332004 445.764166 
L 393.404109 447.857253 
L 392.476215 450.416124 
L 391.54832 453.510022 
L 390.620425 457.189138 
L 389.69253 461.566618 
L 388.764636 466.75503 
L 387.836741 472.860833 
L 386.908846 479.98253 
L 385.980951 488.184613 
L 385.053056 497.427422 
L 384.125162 507.769625 
L 383.197267 519.562756 
L 382.269372 531.914759 
L 381.341477 544.239484 
L 380.413583 555.438053 
L 379.485688 564.501315 
L 378.557793 571.59171 
L 377.629898 577.5773 
L 376.702003 582.351213 
L 375.42959 586.282472 
L 374.157176 589.6156 
L 372.884762 592.422791 
L 371.612349 594.826706 
L 370.339935 596.845539 
L 369.067521 598.560335 
L 367.795107 599.975674 
L 366.522694 601.152487 
L 365.239331 602.102654 
L 363.606378 602.870778 
L 361.314826 603.475502 
L 358.098232 603.95065 
L 353.582193 604.312497 
L 347.240659 604.592669 
L 338.743693 604.793953 
L 330.136629 604.953692 
L 321.835592 605.055855 
L 313.829633 605.145819 
L 306.108307 605.191325 
L 298.661623 605.242561 
L 291.4797 605.258452 
L 284.553028 605.288435 
L 277.872644 605.290506 
L 271.429742 605.306691 
L 265.21574 605.30522 
L 259.222913 605.310546 
L 253.442863 605.311561 
L 247.824813 605.311806 
L 242.378625 605.312219 
L 237.125821 605.31218 
L 232.059762 605.312303 
L 227.17384 605.312279 
L 222.461467 605.312308 
L 217.91616 605.312302 
L 213.53248 605.312308 
L 209.304744 605.312307 
L 205.22697 605.312308 
L 201.293821 605.312308 
L 197.500918 605.312308 
L 193.842604 605.312308 
L 190.314049 605.312308 
L 186.910786 605.312308 
L 183.628419 605.312308 
L 180.46251 605.312308 
L 177.408712 605.312308 
L 174.463215 605.312308 
L 171.623417 605.312308 
L 168.88361 605.312308 
L 166.240541 605.312308 
L 163.692746 605.312308 
L 161.23367 605.312308 
L 158.863167 605.312308 
L 156.576921 605.312308 
L 154.369789 605.312308 
L 152.242772 605.312308 
L 150.191638 605.312308 
L 148.212643 605.312308 
L 146.303001 605.312308 
L 144.460719 605.312308 
L 142.684184 605.312308 
L 140.970849 605.312308 
L 139.318394 605.312308 
L 137.72483 605.312308 
L 136.188485 605.312308 
L 134.706455 605.312308 
L 133.275902 605.312308 
L 131.894699 605.312308 
L 130.547436 605.312308 
L 129.200175 605.312308 
L 127.852913 605.312308 
L 126.505652 605.312308 
L 125.15839 605.312308 
L 123.811128 605.312308 
L 122.463867 605.312308 
L 121.116605 605.312308 
L 119.769344 605.312308 
L 118.422082 605.312308 
L 117.07482 605.312308 
L 115.727559 605.312308 
L 114.380297 605.312308 
L 113.033036 605.312308 
L 111.685774 605.312308 
L 110.338513 605.312308 
L 108.991251 605.312308 
L 107.643989 605.312308 
L 106.296728 605.312308 
L 104.949466 605.312308 
L 103.602205 605.312308 
L 102.254943 605.312308 
L 100.907682 605.312308 
L 99.56042 605.312308 
L 98.213158 605.312308 
L 96.865897 605.312308 
L 95.518635 605.312308 
L 94.171374 605.312308 
L 92.824112 605.312308 
L 91.47685 605.312308 
L 90.129589 605.312308 
L 88.782327 605.312308 
L 87.435066 605.312308 
L 86.087804 605.312308 
L 84.740543 605.312308 
L 83.42602 605.312308 
L 82.111498 605.312308 
L 80.785425 605.312308 
L 79.124624 605.312308 
L 76.852227 605.312308 
L 73.741466 605.312308 
L 69.481777 605.312308 
L 63.647806 605.312308 
L 55.656948 605.312308 
L 44.711179 605.312308 
L 29.717351 605.312308 
L 9.178043 605.312308 
z
" clip-path="url(#pce920b4d39)" style="fill: #ff7f0e"/>
   </g>
   <g id="PolyCollection_3">
    <path d="M 9.178043 605.312308 
L 9.178043 605.312308 
L 29.717351 605.312308 
L 44.711179 605.312308 
L 55.656948 605.312308 
L 63.647806 605.312308 
L 69.481777 605.312308 
L 73.741466 605.312308 
L 76.852227 605.312308 
L 79.124624 605.312308 
L 80.785425 605.312308 
L 82.111498 605.312308 
L 83.42602 605.312308 
L 84.740543 605.312308 
L 86.087804 605.312308 
L 87.435066 605.312308 
L 88.782327 605.312308 
L 90.129589 605.312308 
L 91.47685 605.312308 
L 92.824112 605.312308 
L 94.171374 605.312308 
L 95.518635 605.312308 
L 96.865897 605.312308 
L 98.213158 605.312308 
L 99.56042 605.312308 
L 100.907682 605.312308 
L 102.254943 605.312308 
L 103.602205 605.312308 
L 104.949466 605.312308 
L 106.296728 605.312308 
L 107.643989 605.312308 
L 108.991251 605.312308 
L 110.338513 605.312308 
L 111.685774 605.312308 
L 113.033036 605.312308 
L 114.380297 605.312308 
L 115.727559 605.312308 
L 117.07482 605.312308 
L 118.422082 605.312308 
L 119.769344 605.312308 
L 121.116605 605.312308 
L 122.463867 605.312308 
L 123.811128 605.312308 
L 125.15839 605.312308 
L 126.505652 605.312308 
L 127.852913 605.312308 
L 129.200175 605.312308 
L 130.547436 605.312308 
L 131.894699 605.312308 
L 133.275902 605.312308 
L 134.706455 605.312308 
L 136.188485 605.312308 
L 137.72483 605.312308 
L 139.318394 605.312308 
L 140.970849 605.312308 
L 142.684184 605.312308 
L 144.460719 605.312308 
L 146.303001 605.312308 
L 148.212643 605.312308 
L 150.191638 605.312308 
L 152.242772 605.312308 
L 154.369789 605.312308 
L 156.576921 605.312308 
L 158.863167 605.312308 
L 161.23367 605.312308 
L 163.692746 605.312308 
L 166.240541 605.312308 
L 168.88361 605.312308 
L 171.623417 605.312308 
L 174.463215 605.312308 
L 177.408712 605.312308 
L 180.46251 605.312308 
L 183.628419 605.312308 
L 186.910786 605.312308 
L 190.314049 605.312308 
L 193.842604 605.312308 
L 197.500918 605.312308 
L 201.293821 605.312308 
L 205.22697 605.312308 
L 209.304744 605.312307 
L 213.53248 605.312308 
L 217.91616 605.312302 
L 222.461467 605.312308 
L 227.17384 605.312279 
L 232.059762 605.312303 
L 237.125821 605.31218 
L 242.378625 605.312219 
L 247.824813 605.311806 
L 253.442863 605.311561 
L 259.222913 605.310546 
L 265.21574 605.30522 
L 271.429742 605.306691 
L 277.872644 605.290506 
L 284.553028 605.288435 
L 291.4797 605.258452 
L 298.661623 605.242561 
L 306.108307 605.191325 
L 313.829633 605.145819 
L 321.835592 605.055855 
L 330.136629 604.953692 
L 338.743693 604.793953 
L 347.240659 604.592669 
L 353.582193 604.312497 
L 358.098232 603.95065 
L 361.314826 603.475502 
L 363.606378 602.870778 
L 365.239331 602.102654 
L 366.522694 601.152487 
L 367.795107 599.975674 
L 369.067521 598.560335 
L 370.339935 596.845539 
L 371.612349 594.826706 
L 372.884762 592.422791 
L 374.157176 589.6156 
L 375.42959 586.282472 
L 376.702003 582.351213 
L 377.629898 577.5773 
L 378.557793 571.59171 
L 379.485688 564.501315 
L 380.413583 555.438053 
L 381.341477 544.239484 
L 382.269372 531.914759 
L 383.197267 519.562756 
L 384.125162 507.769625 
L 385.053056 497.427422 
L 385.980951 488.184613 
L 386.908846 479.98253 
L 387.836741 472.860833 
L 388.764636 466.75503 
L 389.69253 461.566618 
L 390.620425 457.189138 
L 391.54832 453.510022 
L 392.476215 450.416124 
L 393.404109 447.857253 
L 394.332004 445.764166 
L 395.259899 444.094362 
L 396.187794 442.796386 
L 397.115689 441.853591 
L 398.043583 441.2182 
L 398.971478 440.892784 
L 399.899373 440.809767 
L 400.827268 440.995054 
L 401.755162 441.383293 
L 402.683057 442.025439 
L 403.610952 442.842768 
L 404.538847 443.887358 
L 405.466742 445.088599 
L 406.394636 446.474986 
L 407.322531 447.995486 
L 408.250426 449.659269 
L 409.178321 451.435233 
L 410.106215 453.320685 
L 411.03411 455.302452 
L 411.962005 457.382999 
L 412.8899 459.564234 
L 413.817795 461.846332 
L 414.745689 464.228288 
L 415.673584 466.707976 
L 416.601479 469.278351 
L 417.529374 471.929037 
L 418.466771 474.646469 
L 419.462355 477.413014 
L 420.545322 480.214422 
L 421.713006 483.027852 
L 422.98146 485.837678 
L 424.358264 488.615619 
L 425.84987 491.348359 
L 427.468869 494.007063 
L 429.229604 496.575741 
L 431.143679 499.038588 
L 433.224812 501.38729 
L 435.488341 503.61496 
L 437.951073 505.719696 
L 440.63164 507.704971 
L 443.549241 509.58299 
L 446.721698 511.368234 
L 450.174259 513.086721 
L 453.926016 514.778879 
L 458.002814 516.499109 
L 462.425952 518.285763 
L 467.21716 520.166612 
L 472.396058 522.168611 
L 477.975382 524.308955 
L 483.958078 526.589581 
L 490.325069 529.016495 
L 496.978314 531.595834 
L 503.659157 534.336003 
L 510.339999 537.224294 
L 517.020842 540.269408 
L 523.701684 543.439125 
L 530.382526 546.686435 
L 537.063369 549.971502 
L 543.744211 553.28559 
L 550.425053 556.582273 
L 557.105896 559.784215 
L 563.786738 562.821132 
L 570.467581 565.653287 
L 577.148423 568.268358 
L 583.829265 570.668504 
L 590.510108 572.855382 
L 599.95542 574.841076 
L 609.400733 576.647011 
L 618.846045 578.280401 
L 628.291358 579.760178 
L 637.73667 581.090555 
L 647.181983 582.288829 
L 656.627295 583.361999 
L 666.072608 584.33106 
L 675.51792 585.197934 
L 684.963233 585.984543 
L 694.408545 586.68805 
L 703.853858 587.329426 
L 713.29917 587.901476 
L 722.744483 588.424695 
L 732.189795 588.889123 
L 741.635108 589.311758 
L 751.08042 589.680341 
L 760.525733 590.009269 
L 769.971045 590.286566 
L 779.416358 590.523261 
L 788.86167 590.62065 
L 798.306983 590.609566 
L 807.752295 590.601033 
L 817.197608 590.597403 
L 817.197608 590.597403 
L 817.197608 590.597403 
L 807.752295 590.601033 
L 798.306983 590.609566 
L 788.86167 590.62065 
L 779.416358 590.523261 
L 769.971045 590.286566 
L 760.525733 590.009269 
L 751.08042 589.680341 
L 741.635108 589.311758 
L 732.189795 588.889123 
L 722.744483 588.424695 
L 713.29917 587.901476 
L 703.853858 587.329426 
L 694.408545 586.68805 
L 684.963233 585.984543 
L 675.51792 585.197934 
L 666.072608 584.33106 
L 656.627295 583.361999 
L 647.181983 582.288829 
L 637.73667 581.090555 
L 628.291358 579.760178 
L 618.846045 578.280401 
L 609.400733 576.647011 
L 599.95542 574.841076 
L 590.510108 572.855382 
L 583.829265 570.668504 
L 577.148423 568.268358 
L 570.467581 565.653287 
L 563.786738 562.821132 
L 557.105896 557.976157 
L 550.425053 552.11452 
L 543.744211 546.169852 
L 537.063369 540.285755 
L 530.382526 534.572523 
L 523.701684 529.139503 
L 517.020842 523.963413 
L 510.339999 519.25351 
L 503.659157 514.828057 
L 496.978314 510.929823 
L 490.325069 507.149335 
L 483.958078 503.858736 
L 477.975382 500.509758 
L 472.396058 497.521158 
L 467.21716 494.406746 
L 462.425952 491.527284 
L 458.002814 488.50174 
L 453.926016 485.644695 
L 450.174259 482.618117 
L 446.721698 479.688793 
L 443.549241 476.517182 
L 440.63164 473.38544 
L 437.951073 470.016564 
L 435.488341 466.653836 
L 433.224812 463.093668 
L 431.143679 459.524413 
L 429.229604 455.818193 
L 427.468869 452.104203 
L 425.84987 448.307742 
L 424.358264 444.511671 
L 422.98146 440.683826 
L 421.713006 436.868788 
L 420.545322 433.055354 
L 419.462355 429.27559 
L 418.466771 425.527036 
L 417.529374 421.833621 
L 416.601479 418.196389 
L 415.673584 414.638937 
L 414.745689 411.163022 
L 413.817795 407.788712 
L 412.8899 404.516707 
L 411.962005 401.365415 
L 411.03411 398.344885 
L 410.106215 395.471293 
L 409.178321 392.764743 
L 408.250426 390.254438 
L 407.322531 387.969016 
L 406.394636 385.9537 
L 405.466742 384.197853 
L 404.538847 382.781157 
L 403.610952 381.613404 
L 402.683057 380.843093 
L 401.755162 380.275261 
L 400.827268 380.14271 
L 399.899373 380.159971 
L 398.971478 380.644003 
L 398.043583 381.238645 
L 397.115689 382.383311 
L 396.187794 383.64027 
L 395.259899 385.57043 
L 394.332004 387.657599 
L 393.404109 390.577013 
L 392.476215 393.797842 
L 391.54832 398.034084 
L 390.620425 402.836249 
L 389.69253 408.862852 
L 388.764636 415.886642 
L 387.836741 424.374136 
L 386.908846 434.246779 
L 385.980951 445.737546 
L 385.053056 458.721343 
L 384.125162 473.291282 
L 383.197267 489.716789 
L 382.269372 506.972951 
L 381.341477 524.207218 
L 380.413583 540.146109 
L 379.485688 553.250214 
L 378.557793 563.79578 
L 377.629898 572.253598 
L 376.702003 579.27338 
L 375.42959 584.261836 
L 374.157176 588.929163 
L 372.884762 591.950669 
L 371.612349 594.826706 
L 370.339935 596.845539 
L 369.067521 598.560335 
L 367.795107 599.975674 
L 366.522694 601.152487 
L 365.239331 602.102654 
L 363.606378 602.870778 
L 361.314826 603.475502 
L 358.098232 603.95065 
L 353.582193 604.312497 
L 347.240659 604.592669 
L 338.743693 604.793953 
L 330.136629 604.953692 
L 321.835592 605.055855 
L 313.829633 605.145819 
L 306.108307 605.191325 
L 298.661623 605.242561 
L 291.4797 605.258452 
L 284.553028 605.288435 
L 277.872644 605.290506 
L 271.429742 605.306691 
L 265.21574 605.30522 
L 259.222913 605.310546 
L 253.442863 605.311561 
L 247.824813 605.311806 
L 242.378625 605.312219 
L 237.125821 605.31218 
L 232.059762 605.312303 
L 227.17384 605.312279 
L 222.461467 605.312308 
L 217.91616 605.312302 
L 213.53248 605.312308 
L 209.304744 605.312307 
L 205.22697 605.312308 
L 201.293821 605.312308 
L 197.500918 605.312308 
L 193.842604 605.312308 
L 190.314049 605.312308 
L 186.910786 605.312308 
L 183.628419 605.312308 
L 180.46251 605.312308 
L 177.408712 605.312308 
L 174.463215 605.312308 
L 171.623417 605.312308 
L 168.88361 605.312308 
L 166.240541 605.312308 
L 163.692746 605.312308 
L 161.23367 605.312308 
L 158.863167 605.312308 
L 156.576921 605.312308 
L 154.369789 605.312308 
L 152.242772 605.312308 
L 150.191638 605.312308 
L 148.212643 605.312308 
L 146.303001 605.312308 
L 144.460719 605.312308 
L 142.684184 605.312308 
L 140.970849 605.312308 
L 139.318394 605.312308 
L 137.72483 605.312308 
L 136.188485 605.312308 
L 134.706455 605.312308 
L 133.275902 605.312308 
L 131.894699 605.312308 
L 130.547436 605.312308 
L 129.200175 605.312308 
L 127.852913 605.312308 
L 126.505652 605.312308 
L 125.15839 605.312308 
L 123.811128 605.312308 
L 122.463867 605.312308 
L 121.116605 605.312308 
L 119.769344 605.312308 
L 118.422082 605.312308 
L 117.07482 605.312308 
L 115.727559 605.312308 
L 114.380297 605.312308 
L 113.033036 605.312308 
L 111.685774 605.312308 
L 110.338513 605.312308 
L 108.991251 605.312308 
L 107.643989 605.312308 
L 106.296728 605.312308 
L 104.949466 605.312308 
L 103.602205 605.312308 
L 102.254943 605.312308 
L 100.907682 605.312308 
L 99.56042 605.312308 
L 98.213158 605.312308 
L 96.865897 605.312308 
L 95.518635 605.312308 
L 94.171374 605.312308 
L 92.824112 605.312308 
L 91.47685 605.312308 
L 90.129589 605.312308 
L 88.782327 605.312308 
L 87.435066 605.312308 
L 86.087804 605.312308 
L 84.740543 605.312308 
L 83.42602 605.312308 
L 82.111498 605.312308 
L 80.785425 605.312308 
L 79.124624 605.312308 
L 76.852227 605.312308 
L 73.741466 605.312308 
L 69.481777 605.312308 
L 63.647806 605.312308 
L 55.656948 605.312308 
L 44.711179 605.312308 
L 29.717351 605.312308 
L 9.178043 605.312308 
z
" clip-path="url(#pce920b4d39)" style="fill: #2ca02c"/>
   </g>
   <g id="PolyCollection_4">
    <path d="M 9.178043 18.927692 
L 9.178043 605.312308 
L 29.717351 605.312308 
L 44.711179 605.312308 
L 55.656948 605.312308 
L 63.647806 605.312308 
L 69.481777 605.312308 
L 73.741466 605.312308 
L 76.852227 605.312308 
L 79.124624 605.312308 
L 80.785425 605.312308 
L 82.111498 605.312308 
L 83.42602 605.312308 
L 84.740543 605.312308 
L 86.087804 605.312308 
L 87.435066 605.312308 
L 88.782327 605.312308 
L 90.129589 605.312308 
L 91.47685 605.312308 
L 92.824112 605.312308 
L 94.171374 605.312308 
L 95.518635 605.312308 
L 96.865897 605.312308 
L 98.213158 605.312308 
L 99.56042 605.312308 
L 100.907682 605.312308 
L 102.254943 605.312308 
L 103.602205 605.312308 
L 104.949466 605.312308 
L 106.296728 605.312308 
L 107.643989 605.312308 
L 108.991251 605.312308 
L 110.338513 605.312308 
L 111.685774 605.312308 
L 113.033036 605.312308 
L 114.380297 605.312308 
L 115.727559 605.312308 
L 117.07482 605.312308 
L 118.422082 605.312308 
L 119.769344 605.312308 
L 121.116605 605.312308 
L 122.463867 605.312308 
L 123.811128 605.312308 
L 125.15839 605.312308 
L 126.505652 605.312308 
L 127.852913 605.312308 
L 129.200175 605.312308 
L 130.547436 605.312308 
L 131.894699 605.312308 
L 133.275902 605.312308 
L 134.706455 605.312308 
L 136.188485 605.312308 
L 137.72483 605.312308 
L 139.318394 605.312308 
L 140.970849 605.312308 
L 142.684184 605.312308 
L 144.460719 605.312308 
L 146.303001 605.312308 
L 148.212643 605.312308 
L 150.191638 605.312308 
L 152.242772 605.312308 
L 154.369789 605.312308 
L 156.576921 605.312308 
L 158.863167 605.312308 
L 161.23367 605.312308 
L 163.692746 605.312308 
L 166.240541 605.312308 
L 168.88361 605.312308 
L 171.623417 605.312308 
L 174.463215 605.312308 
L 177.408712 605.312308 
L 180.46251 605.312308 
L 183.628419 605.312308 
L 186.910786 605.312308 
L 190.314049 605.312308 
L 193.842604 605.312308 
L 197.500918 605.312308 
L 201.293821 605.312308 
L 205.22697 605.312308 
L 209.304744 605.312307 
L 213.53248 605.312308 
L 217.91616 605.312302 
L 222.461467 605.312308 
L 227.17384 605.312279 
L 232.059762 605.312303 
L 237.125821 605.31218 
L 242.378625 605.312219 
L 247.824813 605.311806 
L 253.442863 605.311561 
L 259.222913 605.310546 
L 265.21574 605.30522 
L 271.429742 605.306691 
L 277.872644 605.290506 
L 284.553028 605.288435 
L 291.4797 605.258452 
L 298.661623 605.242561 
L 306.108307 605.191325 
L 313.829633 605.145819 
L 321.835592 605.055855 
L 330.136629 604.953692 
L 338.743693 604.793953 
L 347.240659 604.592669 
L 353.582193 604.312497 
L 358.098232 603.95065 
L 361.314826 603.475502 
L 363.606378 602.870778 
L 365.239331 602.102654 
L 366.522694 601.152487 
L 367.795107 599.975674 
L 369.067521 598.560335 
L 370.339935 596.845539 
L 371.612349 594.826706 
L 372.884762 591.950669 
L 374.157176 588.929163 
L 375.42959 584.261836 
L 376.702003 579.27338 
L 377.629898 572.253598 
L 378.557793 563.79578 
L 379.485688 553.250214 
L 380.413583 540.146109 
L 381.341477 524.207218 
L 382.269372 506.972951 
L 383.197267 489.716789 
L 384.125162 473.291282 
L 385.053056 458.721343 
L 385.980951 445.737546 
L 386.908846 434.246779 
L 387.836741 424.374136 
L 388.764636 415.886642 
L 389.69253 408.862852 
L 390.620425 402.836249 
L 391.54832 398.034084 
L 392.476215 393.797842 
L 393.404109 390.577013 
L 394.332004 387.657599 
L 395.259899 385.57043 
L 396.187794 383.64027 
L 397.115689 382.383311 
L 398.043583 381.238645 
L 398.971478 380.644003 
L 399.899373 380.159971 
L 400.827268 380.14271 
L 401.755162 380.275261 
L 402.683057 380.843093 
L 403.610952 381.613404 
L 404.538847 382.781157 
L 405.466742 384.197853 
L 406.394636 385.9537 
L 407.322531 387.969016 
L 408.250426 390.254438 
L 409.178321 392.764743 
L 410.106215 395.471293 
L 411.03411 398.344885 
L 411.962005 401.365415 
L 412.8899 404.516707 
L 413.817795 407.788712 
L 414.745689 411.163022 
L 415.673584 414.638937 
L 416.601479 418.196389 
L 417.529374 421.833621 
L 418.466771 425.527036 
L 419.462355 429.27559 
L 420.545322 433.055354 
L 421.713006 436.868788 
L 422.98146 440.683826 
L 424.358264 444.511671 
L 425.84987 448.307742 
L 427.468869 452.104203 
L 429.229604 455.818193 
L 431.143679 459.524413 
L 433.224812 463.093668 
L 435.488341 466.653836 
L 437.951073 470.016564 
L 440.63164 473.38544 
L 443.549241 476.517182 
L 446.721698 479.688793 
L 450.174259 482.618117 
L 453.926016 485.644695 
L 458.002814 488.50174 
L 462.425952 491.527284 
L 467.21716 494.406746 
L 472.396058 497.521158 
L 477.975382 500.509758 
L 483.958078 503.858736 
L 490.325069 507.149335 
L 496.978314 510.929823 
L 503.659157 514.828057 
L 510.339999 519.25351 
L 517.020842 523.963413 
L 523.701684 529.139503 
L 530.382526 534.572523 
L 537.063369 540.285755 
L 543.744211 546.169852 
L 550.425053 552.11452 
L 557.105896 557.976157 
L 563.786738 562.821132 
L 570.467581 565.653287 
L 577.148423 568.268358 
L 583.829265 570.668504 
L 590.510108 572.855382 
L 599.95542 574.841076 
L 609.400733 576.647011 
L 618.846045 578.280401 
L 628.291358 579.760178 
L 637.73667 581.090555 
L 647.181983 582.288829 
L 656.627295 583.361999 
L 666.072608 584.33106 
L 675.51792 585.197934 
L 684.963233 585.984543 
L 694.408545 586.68805 
L 703.853858 587.329426 
L 713.29917 587.901476 
L 722.744483 588.424695 
L 732.189795 588.889123 
L 741.635108 589.311758 
L 751.08042 589.680341 
L 760.525733 590.009269 
L 769.971045 590.286566 
L 779.416358 590.523261 
L 788.86167 590.62065 
L 798.306983 590.609566 
L 807.752295 590.601033 
L 817.197608 590.597403 
L 817.197608 76.73965 
L 817.197608 76.73965 
L 807.752295 76.69182 
L 798.306983 76.637447 
L 788.86167 76.495909 
L 779.416358 76.259188 
L 769.971045 75.787298 
L 760.525733 75.298491 
L 751.08042 74.695128 
L 741.635108 74.085325 
L 732.189795 73.381644 
L 722.744483 72.694282 
L 713.29917 71.862486 
L 703.853858 71.063633 
L 694.408545 70.02889 
L 684.963233 68.981075 
L 675.51792 67.678852 
L 666.072608 66.244726 
L 656.627295 64.645356 
L 647.181983 62.824745 
L 637.73667 61.005765 
L 628.291358 59.075338 
L 618.846045 57.384982 
L 609.400733 55.903465 
L 599.95542 54.879546 
L 590.510108 54.256389 
L 583.829265 54.213958 
L 577.148423 54.323262 
L 570.467581 55.027857 
L 563.786738 55.437517 
L 557.105896 54.742643 
L 550.425053 53.06027 
L 543.744211 51.79858 
L 537.063369 51.029969 
L 530.382526 49.644348 
L 523.701684 48.955913 
L 517.020842 46.461053 
L 510.339999 44.93623 
L 503.659157 41.732619 
L 496.978314 39.692097 
L 490.325069 36.925874 
L 483.958078 35.257382 
L 477.975382 33.641538 
L 472.396058 32.814651 
L 467.21716 32.279227 
L 462.425952 32.053415 
L 458.002814 32.161353 
L 453.926016 32.120536 
L 450.174259 32.520118 
L 446.721698 32.481326 
L 443.549241 32.904167 
L 440.63164 32.945813 
L 437.951073 33.338188 
L 435.488341 33.585455 
L 433.224812 33.992759 
L 431.143679 34.378167 
L 429.229604 34.772632 
L 427.468869 35.106958 
L 425.84987 35.379798 
L 424.358264 35.487393 
L 422.98146 35.493657 
L 421.713006 35.231228 
L 420.545322 34.808746 
L 419.462355 34.130867 
L 418.466771 33.311909 
L 417.529374 32.346744 
L 416.601479 31.298763 
L 415.673584 30.195421 
L 414.745689 29.051458 
L 413.817795 27.866092 
L 412.8899 26.665269 
L 411.962005 25.417633 
L 411.03411 24.217328 
L 410.106215 23.049148 
L 409.178321 22.026201 
L 408.250426 21.253953 
L 407.322531 20.746259 
L 406.394636 20.754203 
L 405.466742 21.052606 
L 404.538847 21.994077 
L 403.610952 23.104999 
L 402.683057 24.82735 
L 401.755162 26.531957 
L 400.827268 28.732866 
L 399.899373 30.77512 
L 398.971478 33.131962 
L 398.043583 35.22022 
L 397.115689 37.434315 
L 396.187794 39.395356 
L 395.259899 41.302471 
L 394.332004 43.234359 
L 393.404109 44.992043 
L 392.476215 47.263707 
L 391.54832 49.420231 
L 390.620425 52.456436 
L 389.69253 55.493045 
L 388.764636 59.331982 
L 387.836741 62.89395 
L 386.908846 66.684518 
L 385.980951 69.214563 
L 385.053056 70.801782 
L 384.125162 69.827042 
L 383.197267 67.364891 
L 382.269372 61.306406 
L 381.341477 52.463515 
L 380.413583 40.635969 
L 379.485688 29.00941 
L 378.557793 19.074917 
L 377.629898 18.927692 
L 376.702003 18.927692 
L 375.42959 18.927692 
L 374.157176 18.927692 
L 372.884762 18.927692 
L 371.612349 18.927692 
L 370.339935 18.927692 
L 369.067521 18.927692 
L 367.795107 18.927692 
L 366.522694 18.927692 
L 365.239331 18.927692 
L 363.606378 18.927692 
L 361.314826 18.927692 
L 358.098232 18.927692 
L 353.582193 18.927692 
L 347.240659 18.927692 
L 338.743693 18.927692 
L 330.136629 18.927692 
L 321.835592 18.927692 
L 313.829633 18.927692 
L 306.108307 18.927692 
L 298.661623 18.927692 
L 291.4797 18.927692 
L 284.553028 18.927692 
L 277.872644 18.927692 
L 271.429742 18.927692 
L 265.21574 18.927692 
L 259.222913 18.927692 
L 253.442863 18.927692 
L 247.824813 18.927692 
L 242.378625 18.927692 
L 237.125821 18.927692 
L 232.059762 18.927692 
L 227.17384 18.927692 
L 222.461467 18.927692 
L 217.91616 18.927692 
L 213.53248 18.927692 
L 209.304744 18.927692 
L 205.22697 18.927692 
L 201.293821 18.927692 
L 197.500918 18.927692 
L 193.842604 18.927692 
L 190.314049 18.927692 
L 186.910786 18.927692 
L 183.628419 18.927692 
L 180.46251 18.927692 
L 177.408712 18.927692 
L 174.463215 18.927692 
L 171.623417 18.927692 
L 168.88361 18.927692 
L 166.240541 18.927692 
L 163.692746 18.927692 
L 161.23367 18.927692 
L 158.863167 18.927692 
L 156.576921 18.927692 
L 154.369789 18.927692 
L 152.242772 18.927692 
L 150.191638 18.927692 
L 148.212643 18.927692 
L 146.303001 18.927692 
L 144.460719 18.927692 
L 142.684184 18.927692 
L 140.970849 18.927692 
L 139.318394 18.927692 
L 137.72483 18.927692 
L 136.188485 18.927692 
L 134.706455 18.927692 
L 133.275902 18.927692 
L 131.894699 18.927692 
L 130.547436 18.927692 
L 129.200175 18.927692 
L 127.852913 18.927692 
L 126.505652 18.927692 
L 125.15839 18.927692 
L 123.811128 18.927692 
L 122.463867 18.927692 
L 121.116605 18.927692 
L 119.769344 18.927692 
L 118.422082 18.927692 
L 117.07482 18.927692 
L 115.727559 18.927692 
L 114.380297 18.927692 
L 113.033036 18.927692 
L 111.685774 18.927692 
L 110.338513 18.927692 
L 108.991251 18.927692 
L 107.643989 18.927692 
L 106.296728 18.927692 
L 104.949466 18.927692 
L 103.602205 18.927692 
L 102.254943 18.927692 
L 100.907682 18.927692 
L 99.56042 18.927692 
L 98.213158 18.927692 
L 96.865897 18.927692 
L 95.518635 18.927692 
L 94.171374 18.927692 
L 92.824112 18.927692 
L 91.47685 18.927692 
L 90.129589 18.927692 
L 88.782327 18.927692 
L 87.435066 18.927692 
L 86.087804 18.927692 
L 84.740543 18.927692 
L 83.42602 18.927692 
L 82.111498 18.927692 
L 80.785425 18.927692 
L 79.124624 18.927692 
L 76.852227 18.927692 
L 73.741466 18.927692 
L 69.481777 18.927692 
L 63.647806 18.927692 
L 55.656948 18.927692 
L 44.711179 18.927692 
L 29.717351 18.927692 
L 9.178043 18.927692 
z
" clip-path="url(#pce920b4d39)" style="fill: #d62728"/>
   </g>
   <g id="matplotlib.axis_1">
    <g id="xtick_1">
     <g id="line2d_1">
      <path d="M 84.740543 617.04 
L 84.740543 7.2 
" clip-path="url(#pce920b4d39)" style="fill: none; stroke: #b0b0b0; stroke-width: 0.8; stroke-linecap: square"/>
     </g>
     <g id="line2d_2">
      <defs>
       <path id="m1f7dd7293f" d="M 0 0 
L 0 3.5 
" style="stroke: #000000; stroke-width: 0.8"/>
      </defs>
      <g>
       <use xlink:href="#m1f7dd7293f" x="84.740543" y="617.04" style="stroke: #000000; stroke-width: 0.8"/>
      </g>
     </g>
     <g id="text_1">
      <!-- $\mathdefault{0.0}$ -->
      <g transform="translate(66.968823 644.795495) scale(0.3 -0.3)">
       <defs>
        <path id="CMR17-30" d="M 2688 2025 
C 2688 2416 2682 3080 2413 3591 
C 2176 4039 1798 4198 1466 4198 
C 1158 4198 768 4058 525 3597 
C 269 3118 243 2524 243 2025 
C 243 1661 250 1106 448 619 
C 723 -39 1216 -128 1466 -128 
C 1760 -128 2208 -7 2470 600 
C 2662 1042 2688 1559 2688 2025 
z
M 1466 -26 
C 1056 -26 813 325 723 812 
C 653 1188 653 1738 653 2096 
C 653 2588 653 2997 736 3387 
C 858 3929 1216 4096 1466 4096 
C 1728 4096 2067 3923 2189 3400 
C 2272 3036 2278 2607 2278 2096 
C 2278 1680 2278 1169 2202 792 
C 2067 95 1690 -26 1466 -26 
z
" transform="scale(0.015625)"/>
        <path id="CMMI12-3a" d="M 1178 307 
C 1178 492 1024 619 870 619 
C 685 619 557 466 557 313 
C 557 128 710 0 864 0 
C 1050 0 1178 153 1178 307 
z
" transform="scale(0.015625)"/>
       </defs>
       <use xlink:href="#CMR17-30" transform="scale(0.996264)"/>
       <use xlink:href="#CMMI12-3a" transform="translate(45.690477 0) scale(0.996264)"/>
       <use xlink:href="#CMR17-30" transform="translate(72.787654 0) scale(0.996264)"/>
      </g>
     </g>
    </g>
    <g id="xtick_2">
     <g id="line2d_3">
      <path d="M 235.865543 617.04 
L 235.865543 7.2 
" clip-path="url(#pce920b4d39)" style="fill: none; stroke: #b0b0b0; stroke-width: 0.8; stroke-linecap: square"/>
     </g>
     <g id="line2d_4">
      <g>
       <use xlink:href="#m1f7dd7293f" x="235.865543" y="617.04" style="stroke: #000000; stroke-width: 0.8"/>
      </g>
     </g>
     <g id="text_2">
      <!-- $\mathdefault{0.1}$ -->
      <g transform="translate(218.093823 644.795495) scale(0.3 -0.3)">
       <defs>
        <path id="CMR17-31" d="M 1702 4058 
C 1702 4192 1696 4192 1606 4192 
C 1357 3916 979 3827 621 3827 
C 602 3827 570 3827 563 3808 
C 557 3795 557 3782 557 3648 
C 755 3648 1088 3686 1344 3839 
L 1344 461 
C 1344 236 1331 160 781 160 
L 589 160 
L 589 0 
C 896 0 1216 0 1523 0 
C 1830 0 2150 0 2458 0 
L 2458 160 
L 2266 160 
C 1715 160 1702 230 1702 458 
L 1702 4058 
z
" transform="scale(0.015625)"/>
       </defs>
       <use xlink:href="#CMR17-30" transform="scale(0.996264)"/>
       <use xlink:href="#CMMI12-3a" transform="translate(45.690477 0) scale(0.996264)"/>
       <use xlink:href="#CMR17-31" transform="translate(72.787654 0) scale(0.996264)"/>
      </g>
     </g>
    </g>
    <g id="xtick_3">
     <g id="line2d_5">
      <path d="M 386.990543 617.04 
L 386.990543 7.2 
" clip-path="url(#pce920b4d39)" style="fill: none; stroke: #b0b0b0; stroke-width: 0.8; stroke-linecap: square"/>
     </g>
     <g id="line2d_6">
      <g>
       <use xlink:href="#m1f7dd7293f" x="386.990543" y="617.04" style="stroke: #000000; stroke-width: 0.8"/>
      </g>
     </g>
     <g id="text_3">
      <!-- $\mathdefault{0.2}$ -->
      <g transform="translate(369.218823 644.795495) scale(0.3 -0.3)">
       <defs>
        <path id="CMR17-32" d="M 2669 989 
L 2554 989 
C 2490 536 2438 459 2413 420 
C 2381 369 1920 369 1830 369 
L 602 369 
C 832 619 1280 1072 1824 1597 
C 2214 1967 2669 2402 2669 3035 
C 2669 3790 2067 4224 1395 4224 
C 691 4224 262 3604 262 3030 
C 262 2780 448 2748 525 2748 
C 589 2748 781 2787 781 3010 
C 781 3207 614 3264 525 3264 
C 486 3264 448 3258 422 3245 
C 544 3790 915 4058 1306 4058 
C 1862 4058 2227 3617 2227 3035 
C 2227 2479 1901 2000 1536 1584 
L 262 146 
L 262 0 
L 2515 0 
L 2669 989 
z
" transform="scale(0.015625)"/>
       </defs>
       <use xlink:href="#CMR17-30" transform="scale(0.996264)"/>
       <use xlink:href="#CMMI12-3a" transform="translate(45.690477 0) scale(0.996264)"/>
       <use xlink:href="#CMR17-32" transform="translate(72.787654 0) scale(0.996264)"/>
      </g>
     </g>
    </g>
    <g id="xtick_4">
     <g id="line2d_7">
      <path d="M 538.115543 617.04 
L 538.115543 7.2 
" clip-path="url(#pce920b4d39)" style="fill: none; stroke: #b0b0b0; stroke-width: 0.8; stroke-linecap: square"/>
     </g>
     <g id="line2d_8">
      <g>
       <use xlink:href="#m1f7dd7293f" x="538.115543" y="617.04" style="stroke: #000000; stroke-width: 0.8"/>
      </g>
     </g>
     <g id="text_4">
      <!-- $\mathdefault{0.3}$ -->
      <g transform="translate(520.343823 644.795495) scale(0.3 -0.3)">
       <defs>
        <path id="CMR17-33" d="M 1414 2157 
C 1984 2157 2234 1662 2234 1090 
C 2234 320 1824 25 1453 25 
C 1114 25 563 194 390 693 
C 422 680 454 680 486 680 
C 640 680 755 782 755 948 
C 755 1133 614 1216 486 1216 
C 378 1216 211 1165 211 926 
C 211 335 787 -128 1466 -128 
C 2176 -128 2720 430 2720 1085 
C 2720 1707 2208 2157 1600 2227 
C 2086 2328 2554 2756 2554 3329 
C 2554 3820 2048 4179 1472 4179 
C 890 4179 378 3829 378 3329 
C 378 3110 544 3072 627 3072 
C 762 3072 877 3155 877 3321 
C 877 3486 762 3569 627 3569 
C 602 3569 570 3569 544 3557 
C 730 3959 1235 4032 1459 4032 
C 1683 4032 2106 3925 2106 3320 
C 2106 3143 2080 2828 1862 2550 
C 1670 2304 1453 2304 1242 2284 
C 1210 2284 1062 2269 1037 2269 
C 992 2263 966 2257 966 2208 
C 966 2163 973 2157 1101 2157 
L 1414 2157 
z
" transform="scale(0.015625)"/>
       </defs>
       <use xlink:href="#CMR17-30" transform="scale(0.996264)"/>
       <use xlink:href="#CMMI12-3a" transform="translate(45.690477 0) scale(0.996264)"/>
       <use xlink:href="#CMR17-33" transform="translate(72.787654 0) scale(0.996264)"/>
      </g>
     </g>
    </g>
    <g id="xtick_5">
     <g id="line2d_9">
      <path d="M 689.240543 617.04 
L 689.240543 7.2 
" clip-path="url(#pce920b4d39)" style="fill: none; stroke: #b0b0b0; stroke-width: 0.8; stroke-linecap: square"/>
     </g>
     <g id="line2d_10">
      <g>
       <use xlink:href="#m1f7dd7293f" x="689.240543" y="617.04" style="stroke: #000000; stroke-width: 0.8"/>
      </g>
     </g>
     <g id="text_5">
      <!-- $\mathdefault{0.4}$ -->
      <g transform="translate(671.468823 644.795495) scale(0.3 -0.3)">
       <defs>
        <path id="CMR17-34" d="M 2150 4122 
C 2150 4256 2144 4256 2029 4256 
L 128 1254 
L 128 1088 
L 1779 1088 
L 1779 457 
C 1779 224 1766 160 1318 160 
L 1197 160 
L 1197 0 
C 1402 0 1747 0 1965 0 
C 2182 0 2528 0 2733 0 
L 2733 160 
L 2611 160 
C 2163 160 2150 224 2150 457 
L 2150 1088 
L 2803 1088 
L 2803 1254 
L 2150 1254 
L 2150 4122 
z
M 1798 3703 
L 1798 1254 
L 256 1254 
L 1798 3703 
z
" transform="scale(0.015625)"/>
       </defs>
       <use xlink:href="#CMR17-30" transform="scale(0.996264)"/>
       <use xlink:href="#CMMI12-3a" transform="translate(45.690477 0) scale(0.996264)"/>
       <use xlink:href="#CMR17-34" transform="translate(72.787654 0) scale(0.996264)"/>
      </g>
     </g>
    </g>
    <g id="text_6">
     <!-- $x, \; \mathrm{m} $ -->
     <g transform="translate(411.787939 678.823697) scale(0.35 -0.35)">
      <defs>
       <path id="CMMI12-78" d="M 3034 2606 
C 2829 2567 2752 2414 2752 2293 
C 2752 2139 2874 2088 2963 2088 
C 3155 2088 3290 2254 3290 2427 
C 3290 2695 2982 2816 2714 2816 
C 2323 2816 2106 2433 2048 2312 
C 1901 2816 1504 2816 1389 2816 
C 736 2816 390 1980 390 1839 
C 390 1814 416 1782 461 1782 
C 512 1782 525 1820 538 1846 
C 755 2555 1184 2689 1370 2689 
C 1658 2689 1715 2420 1715 2267 
C 1715 2127 1677 1980 1600 1673 
L 1382 798 
C 1286 415 1101 64 762 64 
C 730 64 570 64 435 147 
C 666 192 717 383 717 460 
C 717 588 621 664 499 664 
C 346 664 179 530 179 326 
C 179 57 480 -64 755 -64 
C 1062 -64 1280 179 1414 441 
C 1517 64 1837 -64 2074 -64 
C 2726 -64 3072 773 3072 913 
C 3072 945 3046 971 3008 971 
C 2950 971 2944 939 2925 888 
C 2752 326 2381 64 2093 64 
C 1869 64 1747 230 1747 492 
C 1747 632 1773 734 1875 1156 
L 2099 2024 
C 2195 2408 2413 2689 2707 2689 
C 2720 2689 2899 2689 3034 2606 
z
" transform="scale(0.015625)"/>
       <path id="CMMI12-3b" d="M 1248 -31 
C 1248 343 1126 619 864 619 
C 659 619 557 453 557 313 
C 557 172 653 0 870 0 
C 954 0 1024 26 1082 83 
C 1094 96 1101 96 1107 96 
C 1120 96 1120 5 1120 -27 
C 1120 -240 1082 -659 710 -1080 
C 640 -1157 640 -1170 640 -1183 
C 640 -1216 672 -1248 704 -1248 
C 755 -1248 1248 -771 1248 -31 
z
" transform="scale(0.015625)"/>
       <path id="CMR17-6d" d="M 4326 1933 
C 4326 2252 4269 2790 3507 2790 
C 3072 2790 2771 2496 2656 2151 
L 2650 2151 
C 2573 2676 2195 2790 1837 2790 
C 1331 2790 1069 2400 973 2144 
L 966 2144 
L 966 2790 
L 211 2720 
L 211 2554 
C 589 2554 646 2515 646 2208 
L 646 428 
C 646 184 621 153 211 153 
L 211 -13 
C 365 0 646 0 813 0 
C 979 0 1267 0 1421 -13 
L 1421 153 
C 1011 153 986 178 986 428 
L 986 1658 
C 986 2247 1344 2688 1792 2688 
C 2266 2688 2317 2266 2317 1958 
L 2317 428 
C 2317 184 2291 153 1882 153 
L 1882 -13 
C 2035 0 2317 0 2483 0 
C 2650 0 2938 0 3091 -13 
L 3091 153 
C 2682 153 2656 178 2656 428 
L 2656 1658 
C 2656 2247 3014 2688 3462 2688 
C 3936 2688 3987 2266 3987 1958 
L 3987 428 
C 3987 184 3962 153 3552 153 
L 3552 -13 
C 3706 0 3987 0 4154 0 
C 4320 0 4608 0 4762 -13 
L 4762 153 
C 4352 153 4326 178 4326 428 
L 4326 1933 
z
" transform="scale(0.015625)"/>
      </defs>
      <use xlink:href="#CMMI12-78" transform="scale(0.996264)"/>
      <use xlink:href="#CMMI12-3b" transform="translate(55.43406 0) scale(0.996264)"/>
      <use xlink:href="#CMR17-6d" transform="translate(126.809651 0) scale(0.996264)"/>
     </g>
    </g>
   </g>
   <g id="matplotlib.axis_2">
    <g id="ytick_1">
     <g id="line2d_11">
      <path d="M 84.740543 605.312308 
L 810.140543 605.312308 
" clip-path="url(#pce920b4d39)" style="fill: none; stroke: #b0b0b0; stroke-width: 0.8; stroke-linecap: square"/>
     </g>
     <g id="line2d_12">
      <defs>
       <path id="m5d3a55f1fd" d="M 0 0 
L -3.5 0 
" style="stroke: #000000; stroke-width: 0.8"/>
      </defs>
      <g>
       <use xlink:href="#m5d3a55f1fd" x="84.740543" y="605.312308" style="stroke: #000000; stroke-width: 0.8"/>
      </g>
     </g>
     <g id="text_7">
      <!-- $\mathdefault{0.0}$ -->
      <g transform="translate(42.197103 615.690055) scale(0.3 -0.3)">
       <use xlink:href="#CMR17-30" transform="scale(0.996264)"/>
       <use xlink:href="#CMMI12-3a" transform="translate(45.690477 0) scale(0.996264)"/>
       <use xlink:href="#CMR17-30" transform="translate(72.787654 0) scale(0.996264)"/>
      </g>
     </g>
    </g>
    <g id="ytick_2">
     <g id="line2d_13">
      <path d="M 84.740543 488.035385 
L 810.140543 488.035385 
" clip-path="url(#pce920b4d39)" style="fill: none; stroke: #b0b0b0; stroke-width: 0.8; stroke-linecap: square"/>
     </g>
     <g id="line2d_14">
      <g>
       <use xlink:href="#m5d3a55f1fd" x="84.740543" y="488.035385" style="stroke: #000000; stroke-width: 0.8"/>
      </g>
     </g>
     <g id="text_8">
      <!-- $\mathdefault{0.2}$ -->
      <g transform="translate(42.197103 498.413132) scale(0.3 -0.3)">
       <use xlink:href="#CMR17-30" transform="scale(0.996264)"/>
       <use xlink:href="#CMMI12-3a" transform="translate(45.690477 0) scale(0.996264)"/>
       <use xlink:href="#CMR17-32" transform="translate(72.787654 0) scale(0.996264)"/>
      </g>
     </g>
    </g>
    <g id="ytick_3">
     <g id="line2d_15">
      <path d="M 84.740543 370.758462 
L 810.140543 370.758462 
" clip-path="url(#pce920b4d39)" style="fill: none; stroke: #b0b0b0; stroke-width: 0.8; stroke-linecap: square"/>
     </g>
     <g id="line2d_16">
      <g>
       <use xlink:href="#m5d3a55f1fd" x="84.740543" y="370.758462" style="stroke: #000000; stroke-width: 0.8"/>
      </g>
     </g>
     <g id="text_9">
      <!-- $\mathdefault{0.4}$ -->
      <g transform="translate(42.197103 381.136209) scale(0.3 -0.3)">
       <use xlink:href="#CMR17-30" transform="scale(0.996264)"/>
       <use xlink:href="#CMMI12-3a" transform="translate(45.690477 0) scale(0.996264)"/>
       <use xlink:href="#CMR17-34" transform="translate(72.787654 0) scale(0.996264)"/>
      </g>
     </g>
    </g>
    <g id="ytick_4">
     <g id="line2d_17">
      <path d="M 84.740543 253.481538 
L 810.140543 253.481538 
" clip-path="url(#pce920b4d39)" style="fill: none; stroke: #b0b0b0; stroke-width: 0.8; stroke-linecap: square"/>
     </g>
     <g id="line2d_18">
      <g>
       <use xlink:href="#m5d3a55f1fd" x="84.740543" y="253.481538" style="stroke: #000000; stroke-width: 0.8"/>
      </g>
     </g>
     <g id="text_10">
      <!-- $\mathdefault{0.6}$ -->
      <g transform="translate(42.197103 263.859286) scale(0.3 -0.3)">
       <defs>
        <path id="CMR17-36" d="M 678 2176 
C 678 3690 1395 4032 1811 4032 
C 1946 4032 2272 4009 2400 3776 
C 2298 3776 2106 3776 2106 3553 
C 2106 3381 2246 3323 2336 3323 
C 2394 3323 2566 3348 2566 3560 
C 2566 3954 2246 4179 1805 4179 
C 1043 4179 243 3390 243 1984 
C 243 253 966 -128 1478 -128 
C 2099 -128 2688 427 2688 1283 
C 2688 2081 2170 2662 1517 2662 
C 1126 2662 838 2407 678 1960 
L 678 2176 
z
M 1478 25 
C 691 25 691 1200 691 1436 
C 691 1896 909 2560 1504 2560 
C 1613 2560 1926 2560 2138 2120 
C 2253 1870 2253 1609 2253 1289 
C 2253 944 2253 690 2118 434 
C 1978 171 1773 25 1478 25 
z
" transform="scale(0.015625)"/>
       </defs>
       <use xlink:href="#CMR17-30" transform="scale(0.996264)"/>
       <use xlink:href="#CMMI12-3a" transform="translate(45.690477 0) scale(0.996264)"/>
       <use xlink:href="#CMR17-36" transform="translate(72.787654 0) scale(0.996264)"/>
      </g>
     </g>
    </g>
    <g id="ytick_5">
     <g id="line2d_19">
      <path d="M 84.740543 136.204615 
L 810.140543 136.204615 
" clip-path="url(#pce920b4d39)" style="fill: none; stroke: #b0b0b0; stroke-width: 0.8; stroke-linecap: square"/>
     </g>
     <g id="line2d_20">
      <g>
       <use xlink:href="#m5d3a55f1fd" x="84.740543" y="136.204615" style="stroke: #000000; stroke-width: 0.8"/>
      </g>
     </g>
     <g id="text_11">
      <!-- $\mathdefault{0.8}$ -->
      <g transform="translate(42.197103 146.582363) scale(0.3 -0.3)">
       <defs>
        <path id="CMR17-38" d="M 1741 2264 
C 2144 2467 2554 2773 2554 3263 
C 2554 3841 1990 4179 1472 4179 
C 890 4179 378 3759 378 3180 
C 378 3021 416 2747 666 2505 
C 730 2442 998 2251 1171 2130 
C 883 1983 211 1634 211 934 
C 211 279 838 -128 1459 -128 
C 2144 -128 2720 362 2720 1010 
C 2720 1590 2330 1857 2074 2029 
L 1741 2264 
z
M 902 2822 
C 851 2854 595 3051 595 3351 
C 595 3739 998 4032 1459 4032 
C 1965 4032 2336 3676 2336 3262 
C 2336 2669 1670 2331 1638 2331 
C 1632 2331 1626 2331 1574 2370 
L 902 2822 
z
M 2080 1519 
C 2176 1449 2483 1240 2483 851 
C 2483 381 2010 25 1472 25 
C 890 25 448 438 448 940 
C 448 1443 838 1862 1280 2060 
L 2080 1519 
z
" transform="scale(0.015625)"/>
       </defs>
       <use xlink:href="#CMR17-30" transform="scale(0.996264)"/>
       <use xlink:href="#CMMI12-3a" transform="translate(45.690477 0) scale(0.996264)"/>
       <use xlink:href="#CMR17-38" transform="translate(72.787654 0) scale(0.996264)"/>
      </g>
     </g>
    </g>
    <g id="ytick_6">
     <g id="line2d_21">
      <path d="M 84.740543 18.927692 
L 810.140543 18.927692 
" clip-path="url(#pce920b4d39)" style="fill: none; stroke: #b0b0b0; stroke-width: 0.8; stroke-linecap: square"/>
     </g>
     <g id="line2d_22">
      <g>
       <use xlink:href="#m5d3a55f1fd" x="84.740543" y="18.927692" style="stroke: #000000; stroke-width: 0.8"/>
      </g>
     </g>
     <g id="text_12">
      <!-- $\mathdefault{1.0}$ -->
      <g transform="translate(42.197103 29.30544) scale(0.3 -0.3)">
       <use xlink:href="#CMR17-31" transform="scale(0.996264)"/>
       <use xlink:href="#CMMI12-3a" transform="translate(45.690477 0) scale(0.996264)"/>
       <use xlink:href="#CMR17-30" transform="translate(72.787654 0) scale(0.996264)"/>
      </g>
     </g>
    </g>
    <g id="text_13">
     <!-- $S_1$ -->
     <g transform="translate(31.414752 328.216088) rotate(-90) scale(0.35 -0.35)">
      <defs>
       <path id="CMMI12-53" d="M 4064 4423 
C 4064 4480 4019 4480 4006 4480 
C 3981 4480 3974 4474 3898 4378 
C 3859 4333 3597 4001 3590 3995 
C 3379 4410 2957 4480 2688 4480 
C 1875 4480 1139 3743 1139 3025 
C 1139 2549 1427 2269 1741 2161 
C 1811 2135 2189 2033 2381 1989 
C 2707 1900 2790 1875 2925 1735 
C 2950 1703 3078 1557 3078 1258 
C 3078 667 2528 57 1888 57 
C 1363 57 781 280 781 991 
C 781 1112 806 1265 826 1328 
C 826 1348 832 1378 832 1391 
C 832 1417 819 1449 768 1449 
C 710 1449 704 1436 678 1328 
L 352 24 
C 352 18 326 -64 326 -71 
C 326 -128 378 -128 390 -128 
C 416 -128 422 -122 499 -26 
L 794 356 
C 947 126 1280 -128 1875 -128 
C 2701 -128 3456 666 3456 1460 
C 3456 1728 3392 1963 3149 2197 
C 3014 2331 2899 2363 2310 2516 
C 1882 2630 1824 2649 1709 2751 
C 1600 2858 1517 3011 1517 3227 
C 1517 3761 2061 4308 2669 4308 
C 3296 4308 3590 3926 3590 3323 
C 3590 3158 3558 2986 3558 2961 
C 3558 2903 3610 2903 3629 2903 
C 3686 2903 3693 2922 3718 3024 
L 4064 4423 
z
" transform="scale(0.015625)"/>
      </defs>
      <use xlink:href="#CMMI12-53" transform="scale(0.996264)"/>
      <use xlink:href="#CMR17-31" transform="translate(59.994488 -14.943915) scale(0.697382)"/>
     </g>
    </g>
   </g>
   <g id="patch_3">
    <path d="M 84.740543 617.04 
L 84.740543 7.2 
" style="fill: none; stroke: #000000; stroke-width: 0.8; stroke-linejoin: miter; stroke-linecap: square"/>
   </g>
   <g id="patch_4">
    <path d="M 810.140543 617.04 
L 810.140543 7.2 
" style="fill: none; stroke: #000000; stroke-width: 0.8; stroke-linejoin: miter; stroke-linecap: square"/>
   </g>
   <g id="patch_5">
    <path d="M 84.740543 617.04 
L 810.140543 617.04 
" style="fill: none; stroke: #000000; stroke-width: 0.8; stroke-linejoin: miter; stroke-linecap: square"/>
   </g>
   <g id="patch_6">
    <path d="M 84.740543 7.2 
L 810.140543 7.2 
" style="fill: none; stroke: #000000; stroke-width: 0.8; stroke-linejoin: miter; stroke-linecap: square"/>
   </g>
   <g id="legend_1">
    <g id="patch_7">
     <path d="M 109.240543 232.438667 
L 268.183996 232.438667 
Q 275.183996 232.438667 275.183996 225.438667 
L 275.183996 31.7 
Q 275.183996 24.7 268.183996 24.7 
L 109.240543 24.7 
Q 102.240543 24.7 102.240543 31.7 
L 102.240543 225.438667 
Q 102.240543 232.438667 109.240543 232.438667 
z
" style="fill: #ffffff; stroke: #cccccc; stroke-linejoin: miter"/>
    </g>
    <g id="patch_8">
     <path d="M 116.240543 63.2 
L 186.240543 63.2 
L 186.240543 38.7 
L 116.240543 38.7 
z
" style="fill: #1f77b4"/>
    </g>
    <g id="text_14">
     <!-- $M$ -->
     <g transform="translate(214.240543 63.2) scale(0.35 -0.35)">
      <defs>
       <path id="CMMI12-4d" d="M 5811 3886 
C 5869 4103 5882 4167 6336 4167 
C 6458 4167 6515 4167 6515 4288 
C 6515 4352 6470 4352 6349 4352 
L 5581 4352 
C 5421 4352 5414 4346 5344 4243 
L 3008 562 
L 2528 4211 
C 2509 4352 2502 4352 2336 4352 
L 1542 4352 
C 1421 4352 1363 4352 1363 4231 
C 1363 4167 1421 4167 1517 4167 
C 1907 4167 1907 4116 1907 4046 
C 1907 4034 1907 3995 1882 3899 
L 1062 634 
C 986 327 838 186 410 186 
C 390 186 314 186 314 73 
C 314 0 371 0 397 0 
C 525 0 851 0 979 0 
L 1286 0 
C 1376 0 1485 0 1574 0 
C 1619 0 1690 0 1690 122 
C 1690 180 1626 186 1600 186 
C 1389 186 1184 224 1184 454 
C 1184 518 1184 524 1210 613 
L 2093 4129 
L 2099 4129 
L 2630 172 
C 2650 19 2656 0 2714 0 
C 2784 0 2816 51 2848 109 
L 5421 4161 
L 5427 4161 
L 4499 473 
C 4442 250 4429 186 3981 186 
C 3859 186 3795 186 3795 70 
C 3795 0 3853 0 3891 0 
C 4000 0 4128 0 4237 0 
L 4992 0 
C 5101 0 5235 0 5344 0 
C 5395 0 5466 0 5466 122 
C 5466 186 5408 186 5312 186 
C 4922 186 4922 234 4922 294 
C 4922 301 4922 345 4934 396 
L 5811 3886 
z
" transform="scale(0.015625)"/>
      </defs>
      <use xlink:href="#CMMI12-4d" transform="scale(0.996264)"/>
     </g>
    </g>
    <g id="patch_9">
     <path d="M 116.240543 111.982351 
L 186.240543 111.982351 
L 186.240543 87.482351 
L 116.240543 87.482351 
z
" style="fill: #ff7f0e"/>
    </g>
    <g id="text_15">
     <!-- $P$ -->
     <g transform="translate(214.240543 111.982351) scale(0.35 -0.35)">
      <defs>
       <path id="CMMI12-50" d="M 1894 2023 
L 2970 2023 
C 3853 2023 4736 2673 4736 3401 
C 4736 3898 4314 4352 3507 4352 
L 1530 4352 
C 1408 4352 1350 4352 1350 4231 
C 1350 4167 1408 4167 1504 4167 
C 1894 4167 1894 4116 1894 4046 
C 1894 4034 1894 3995 1869 3899 
L 1005 472 
C 947 249 934 185 486 185 
C 365 185 301 185 301 70 
C 301 0 358 0 397 0 
C 518 0 646 0 768 0 
L 1517 0 
C 1638 0 1773 0 1894 0 
C 1946 0 2016 0 2016 121 
C 2016 185 1958 185 1862 185 
C 1478 185 1472 230 1472 293 
C 1472 325 1478 369 1485 401 
L 1894 2023 
z
M 2355 3930 
C 2413 4167 2438 4167 2688 4167 
L 3322 4167 
C 3802 4167 4198 4013 4198 3535 
C 4198 3369 4115 2827 3821 2534 
C 3712 2419 3405 2176 2822 2176 
L 1920 2176 
L 2355 3930 
z
" transform="scale(0.015625)"/>
      </defs>
      <use xlink:href="#CMMI12-50" transform="scale(0.996264)"/>
     </g>
    </g>
    <g id="patch_10">
     <path d="M 116.240543 160.764702 
L 186.240543 160.764702 
L 186.240543 136.264702 
L 116.240543 136.264702 
z
" style="fill: #2ca02c"/>
    </g>
    <g id="text_16">
     <!-- $T$ -->
     <g transform="translate(214.240543 160.764702) scale(0.35 -0.35)">
      <defs>
       <path id="CMMI12-54" d="M 2669 3910 
C 2707 4064 2720 4121 2816 4147 
C 2867 4160 3078 4160 3213 4160 
C 3853 4160 4154 4134 4154 3634 
C 4154 3537 4128 3295 4090 3057 
L 4083 2980 
C 4083 2954 4109 2916 4147 2916 
C 4211 2916 4211 2948 4230 3050 
L 4416 4184 
C 4429 4243 4429 4256 4429 4275 
C 4429 4345 4390 4345 4262 4345 
L 762 4345 
C 614 4345 608 4339 570 4224 
L 179 3070 
C 173 3056 154 2986 154 2980 
C 154 2948 179 2916 218 2916 
C 269 2916 282 2941 307 3024 
C 576 3801 710 4160 1562 4160 
L 1990 4160 
C 2144 4160 2208 4160 2208 4089 
C 2208 4069 2208 4057 2176 3941 
L 1318 499 
C 1254 249 1242 185 563 185 
C 403 185 358 185 358 64 
C 358 0 429 0 461 0 
C 621 0 787 0 947 0 
L 1946 0 
C 2106 0 2278 0 2438 0 
C 2509 0 2573 0 2573 121 
C 2573 185 2528 185 2362 185 
C 1786 185 1786 243 1786 339 
C 1786 346 1786 391 1811 494 
L 2669 3910 
z
" transform="scale(0.015625)"/>
      </defs>
      <use xlink:href="#CMMI12-54" transform="scale(0.996264)"/>
     </g>
    </g>
    <g id="patch_11">
     <path d="M 116.240543 209.547054 
L 186.240543 209.547054 
L 186.240543 185.047054 
L 116.240543 185.047054 
z
" style="fill: #d62728"/>
    </g>
    <g id="text_17">
     <!-- $Y_{N_2}$ -->
     <g transform="translate(214.240543 209.547054) scale(0.35 -0.35)">
      <defs>
       <path id="CMMI12-59" d="M 3763 3645 
L 3910 3791 
C 4192 4078 4429 4149 4653 4167 
C 4723 4173 4781 4179 4781 4288 
C 4781 4352 4717 4352 4704 4352 
C 4627 4352 4544 4352 4467 4352 
L 4205 4352 
C 4019 4352 3821 4352 3642 4352 
C 3597 4352 3526 4352 3526 4226 
C 3526 4166 3590 4160 3610 4160 
C 3802 4160 3802 4064 3802 4026 
C 3802 3956 3750 3860 3622 3713 
L 2099 1969 
L 1376 3911 
C 1338 4000 1338 4013 1338 4026 
C 1338 4160 1600 4160 1677 4160 
C 1754 4160 1824 4160 1824 4279 
C 1824 4352 1766 4352 1728 4352 
C 1619 4352 1491 4352 1382 4352 
L 672 4352 
C 557 4352 435 4352 326 4352 
C 282 4352 211 4352 211 4226 
C 211 4160 269 4160 365 4160 
C 678 4160 736 4102 794 3956 
L 1587 1835 
C 1594 1816 1613 1745 1613 1726 
C 1613 1707 1299 452 1280 388 
C 1229 217 1165 185 755 185 
C 646 185 595 185 595 64 
C 595 0 666 0 685 0 
C 800 0 934 0 1056 0 
L 1811 0 
C 1926 0 2061 0 2176 0 
C 2221 0 2298 0 2298 115 
C 2298 185 2253 185 2144 185 
C 1747 185 1747 230 1747 300 
C 1747 345 1798 548 1830 676 
L 2061 1594 
C 2099 1727 2099 1739 2157 1803 
L 3763 3645 
z
" transform="scale(0.015625)"/>
       <path id="CMMI12-4e" d="M 4736 3698 
C 4806 3974 4909 4166 5395 4166 
C 5414 4166 5491 4166 5491 4279 
C 5491 4352 5434 4352 5408 4352 
C 5280 4352 4954 4352 4826 4352 
L 4518 4352 
C 4429 4352 4314 4352 4224 4352 
C 4186 4352 4109 4352 4109 4230 
C 4109 4166 4160 4166 4205 4166 
C 4589 4166 4614 4019 4614 3903 
C 4614 3846 4608 3826 4589 3737 
L 3866 850 
L 2496 4249 
C 2451 4352 2445 4352 2304 4352 
L 1523 4352 
C 1395 4352 1338 4352 1338 4230 
C 1338 4166 1382 4166 1504 4166 
C 1536 4166 1914 4166 1914 4115 
C 1914 4102 1901 4051 1894 4032 
L 1043 635 
C 966 320 813 186 390 186 
C 358 186 294 186 294 67 
C 294 0 358 0 378 0 
C 506 0 832 0 960 0 
L 1267 0 
C 1357 0 1466 0 1555 0 
C 1600 0 1670 0 1670 122 
C 1670 180 1606 186 1581 186 
C 1370 186 1165 224 1165 454 
C 1165 505 1178 562 1190 613 
L 2054 4032 
C 2093 3968 2093 3956 2118 3898 
L 3642 115 
C 3674 38 3686 0 3744 0 
C 3808 0 3814 19 3840 128 
L 4736 3698 
z
" transform="scale(0.015625)"/>
      </defs>
      <use xlink:href="#CMMI12-59" transform="scale(0.996264)"/>
      <use xlink:href="#CMMI12-4e" transform="translate(56.598607 -14.943915) scale(0.697382)"/>
      <use xlink:href="#CMR17-32" transform="translate(111.278947 -25.404611) scale(0.498132)"/>
     </g>
    </g>
   </g>
  </g>
 </g>
 <defs>
  <clipPath id="pce920b4d39">
   <rect x="84.740543" y="7.2" width="725.4" height="609.84"/>
  </clipPath>
 </defs>
</svg>
