<?xml version="1.0" encoding="utf-8" standalone="no"?>
<!DOCTYPE svg PUBLIC "-//W3C//DTD SVG 1.1//EN"
  "http://www.w3.org/Graphics/SVG/1.1/DTD/svg11.dtd">
<svg xmlns:xlink="http://www.w3.org/1999/xlink" width="1006.579543pt" height="692.806049pt" viewBox="0 0 1006.579543 692.806049" xmlns="http://www.w3.org/2000/svg" version="1.1">
 <metadata>
  <rdf:RDF xmlns:dc="http://purl.org/dc/elements/1.1/" xmlns:cc="http://creativecommons.org/ns#" xmlns:rdf="http://www.w3.org/1999/02/22-rdf-syntax-ns#">
   <cc:Work>
    <dc:type rdf:resource="http://purl.org/dc/dcmitype/StillImage"/>
    <dc:date>2025-03-19T17:00:11.589394</dc:date>
    <dc:format>image/svg+xml</dc:format>
    <dc:creator>
     <cc:Agent>
      <dc:title>Matplotlib v3.7.1, https://matplotlib.org/</dc:title>
     </cc:Agent>
    </dc:creator>
   </cc:Work>
  </rdf:RDF>
 </metadata>
 <defs>
  <style type="text/css">*{stroke-linejoin: round; stroke-linecap: butt}</style>
 </defs>
 <g id="figure_1">
  <g id="patch_1">
   <path d="M 0 692.806049 
L 1006.579543 692.806049 
L 1006.579543 0 
L 0 0 
z
" style="fill: #ffffff"/>
  </g>
  <g id="axes_1">
   <g id="patch_2">
    <path d="M 84.740543 617.04 
L 810.140543 617.04 
L 810.140543 7.2 
L 84.740543 7.2 
z
" style="fill: #ffffff"/>
   </g>
   <g id="PolyCollection_1">
    <path d="M 9.178043 51.114505 
L 9.178043 605.312308 
L 29.717351 605.312308 
L 44.711179 605.312308 
L 55.656948 605.312308 
L 63.647806 605.312308 
L 69.481777 605.312308 
L 73.741466 605.312308 
L 76.852227 605.312308 
L 79.049287 605.312308 
L 80.785425 605.312308 
L 82.213061 605.312308 
L 83.42602 605.312308 
L 84.740543 605.312308 
L 87.435066 605.312308 
L 88.857321 605.312308 
L 90.129589 605.312308 
L 92.004934 605.312308 
L 93.099922 605.312308 
L 94.171374 605.312308 
L 95.299612 605.312308 
L 96.397416 605.312308 
L 97.579316 605.312308 
L 98.820976 605.312308 
L 99.991406 605.312308 
L 101.273505 605.312308 
L 103.578522 605.312308 
L 105.819849 605.312308 
L 107.979517 605.312308 
L 110.878308 605.312308 
L 114.380297 605.312308 
L 117.772298 605.312308 
L 121.795163 605.312308 
L 126.505652 605.312308 
L 131.894699 605.312308 
L 136.064903 605.312308 
L 140.906123 605.312308 
L 146.343341 605.312308 
L 152.242772 605.312308 
L 158.23472 605.312308 
L 163.692746 605.312308 
L 168.88361 605.312308 
L 174.585426 605.312308 
L 180.46251 605.312308 
L 186.901027 605.312308 
L 193.842604 605.312308 
L 201.294329 605.312308 
L 209.304744 605.312308 
L 215.666289 605.312308 
L 222.461467 605.312308 
L 232.059762 605.312308 
L 242.378625 605.312308 
L 253.442863 605.312308 
L 265.803879 605.312308 
L 277.872644 605.312308 
L 291.4797 605.312308 
L 306.108307 605.312308 
L 314.293433 605.312308 
L 322.042849 605.312308 
L 330.136629 605.312308 
L 338.743693 605.312308 
L 347.240659 605.312308 
L 353.582193 605.312308 
L 358.098232 605.312308 
L 362.015801 605.312308 
L 365.100791 605.312308 
L 367.795107 605.312308 
L 370.339935 605.312308 
L 371.612349 605.312308 
L 372.884762 605.312308 
L 373.578284 605.312308 
L 374.157176 605.312308 
L 374.808605 605.312308 
L 375.42959 605.312308 
L 375.781185 605.312308 
L 376.100674 605.312308 
L 376.42634 605.312308 
L 376.702003 605.312308 
L 377.181086 605.312308 
L 377.629898 605.312308 
L 378.056467 605.312308 
L 378.557793 605.312308 
L 379.000786 605.312308 
L 379.485688 605.312308 
L 379.945558 605.312308 
L 380.413583 605.312308 
L 380.832336 605.312308 
L 381.341477 605.312308 
L 382.269372 605.312308 
L 383.197267 605.312308 
L 384.125162 605.312308 
L 385.053056 605.312308 
L 385.980951 605.312308 
L 386.908846 605.312308 
L 387.836741 605.312308 
L 388.764636 605.312308 
L 389.69253 605.312308 
L 390.578063 605.312308 
L 391.54832 605.312308 
L 393.28631 605.312308 
L 395.259899 605.312308 
L 396.651741 605.312308 
L 398.043583 605.312308 
L 399.899373 605.312308 
L 401.701247 605.312308 
L 403.610952 605.312308 
L 405.289681 605.312308 
L 406.894263 605.312308 
L 408.375361 605.312308 
L 410.106215 605.312308 
L 411.962005 605.312308 
L 414.385383 605.312308 
L 416.601479 605.312308 
L 418.59025 605.312308 
L 420.545322 605.312308 
L 422.367082 605.312308 
L 424.358264 605.312308 
L 426.834965 605.312308 
L 429.229604 605.312308 
L 431.143679 605.312308 
L 433.224812 605.312308 
L 435.488341 605.312308 
L 437.951073 605.312308 
L 439.269923 605.312308 
L 440.63164 605.312308 
L 442.106467 605.312308 
L 443.549241 605.312308 
L 445.155995 605.312308 
L 446.721698 605.312308 
L 448.530584 605.312308 
L 450.174259 605.312308 
L 451.951214 605.312308 
L 453.926016 605.312308 
L 455.933062 605.312308 
L 458.002814 605.312308 
L 460.314271 605.312308 
L 462.425952 605.312308 
L 464.811613 605.312308 
L 467.21716 605.312308 
L 469.759827 605.312308 
L 472.396058 605.312308 
L 475.19253 605.312308 
L 477.975382 605.312308 
L 480.842577 605.312308 
L 483.958078 605.312308 
L 487.02499 605.312308 
L 490.325069 605.312308 
L 493.589155 605.312308 
L 496.978314 605.312308 
L 500.205377 605.312308 
L 503.659157 605.312308 
L 506.946976 605.312308 
L 510.339999 605.312308 
L 513.575217 605.312308 
L 517.020842 605.312308 
L 520.529262 605.312308 
L 523.701684 605.312308 
L 527.248435 605.312308 
L 530.382526 605.312308 
L 533.47788 605.312308 
L 537.063369 605.312308 
L 540.596663 605.312308 
L 543.744211 605.312308 
L 547.100127 605.312308 
L 550.425053 605.312308 
L 553.753242 605.312308 
L 557.105896 605.312308 
L 560.64286 605.312308 
L 563.786738 605.312308 
L 567.416674 605.312308 
L 570.467581 605.312308 
L 572.48806 605.312308 
L 574.235341 605.312308 
L 575.774026 605.312308 
L 577.148423 605.312308 
L 578.893977 605.312308 
L 580.590786 605.312308 
L 582.236512 605.312308 
L 583.829265 605.312308 
L 585.170972 605.312308 
L 585.978345 605.312308 
L 586.689338 605.312308 
L 587.565631 605.312308 
L 588.440213 605.312308 
L 589.393295 605.312308 
L 590.510108 605.312308 
L 591.006574 605.312308 
L 591.536623 605.312308 
L 592.09897 605.312308 
L 592.691486 605.312308 
L 593.836984 605.312308 
L 595.007931 605.312308 
L 596.17812 605.312308 
L 597.43789 605.312308 
L 598.641338 605.312308 
L 599.95542 605.312308 
L 601.139458 605.312308 
L 602.456615 605.312308 
L 603.58178 605.312308 
L 604.861979 605.312308 
L 607.17568 605.312308 
L 609.400733 605.312308 
L 611.62836 605.312308 
L 613.948134 605.312308 
L 616.355835 605.312308 
L 618.846045 605.312308 
L 622.080194 605.312308 
L 625.776244 605.312308 
L 629.202701 605.312308 
L 632.80417 605.312308 
L 637.73667 605.312308 
L 642.249482 605.312308 
L 647.181983 605.312308 
L 656.627295 605.312308 
L 666.072608 605.312308 
L 675.51792 605.312308 
L 684.963233 605.312308 
L 694.408545 605.312308 
L 703.853858 605.312308 
L 713.29917 605.312308 
L 722.744483 605.312308 
L 741.635108 605.312308 
L 753.458468 605.312308 
L 765.81912 605.312308 
L 777.874829 605.312308 
L 788.86167 605.312308 
L 798.306983 605.312308 
L 807.092784 605.312308 
L 817.197608 605.312308 
L 817.197608 226.586811 
L 817.197608 226.586811 
L 807.092784 226.661693 
L 798.306983 226.79975 
L 788.86167 226.989986 
L 777.874829 227.309008 
L 765.81912 227.612063 
L 753.458468 227.930869 
L 741.635108 228.327367 
L 722.744483 228.516416 
L 713.29917 228.671889 
L 703.853858 229.19337 
L 694.408545 229.253763 
L 684.963233 229.220753 
L 675.51792 228.664673 
L 666.072608 227.709157 
L 656.627295 226.40907 
L 647.181983 224.729064 
L 642.249482 223.596021 
L 637.73667 222.328022 
L 632.80417 220.088115 
L 629.202701 217.986009 
L 625.776244 215.619602 
L 622.080194 213.25459 
L 618.846045 211.026123 
L 616.355835 208.9002 
L 613.948134 207.685294 
L 611.62836 205.997592 
L 609.400733 204.979536 
L 607.17568 202.95751 
L 604.861979 202.375073 
L 603.58178 201.047961 
L 602.456615 201.746486 
L 601.139458 200.331319 
L 599.95542 200.821007 
L 598.641338 199.48846 
L 597.43789 198.916765 
L 596.17812 197.434338 
L 595.007931 196.177714 
L 593.836984 195.594928 
L 592.691486 195.331081 
L 592.09897 195.128525 
L 591.536623 195.109996 
L 591.006574 195.033629 
L 590.510108 195.140577 
L 589.393295 195.093937 
L 588.440213 195.27603 
L 587.565631 194.062069 
L 586.689338 193.174525 
L 585.978345 192.70107 
L 585.170972 192.38413 
L 583.829265 190.666203 
L 582.236512 190.018209 
L 580.590786 187.879281 
L 578.893977 186.107976 
L 577.148423 183.337532 
L 575.774026 180.715658 
L 574.235341 177.279233 
L 572.48806 174.211534 
L 570.467581 170.189377 
L 567.416674 166.987587 
L 563.786738 162.698318 
L 560.64286 159.665458 
L 557.105896 155.606806 
L 553.753242 152.92206 
L 550.425053 150.606902 
L 547.100127 147.786255 
L 543.744211 147.941272 
L 540.596663 152.214535 
L 537.063369 155.743099 
L 533.47788 158.51981 
L 530.382526 160.853686 
L 527.248435 162.598966 
L 523.701684 163.890185 
L 520.529262 165.03543 
L 517.020842 165.698797 
L 513.575217 165.62179 
L 510.339999 165.378855 
L 506.946976 163.715896 
L 503.659157 162.07763 
L 500.205377 159.864252 
L 496.978314 157.659381 
L 493.589155 155.088147 
L 490.325069 152.36116 
L 487.02499 149.485988 
L 483.958078 146.479255 
L 480.842577 143.533763 
L 477.975382 140.70546 
L 475.19253 138.1058 
L 472.396058 135.597356 
L 469.759827 133.306488 
L 467.21716 131.00597 
L 464.811613 129.000245 
L 462.425952 126.787806 
L 460.314271 125.012391 
L 458.002814 122.886008 
L 455.933062 121.187304 
L 453.926016 119.232903 
L 451.951214 117.59477 
L 450.174259 115.796161 
L 448.530584 114.217521 
L 446.721698 112.494306 
L 445.155995 111.389933 
L 443.549241 110.188645 
L 442.106467 109.191354 
L 440.63164 108.170941 
L 439.269923 107.313709 
L 437.951073 106.494738 
L 435.488341 105.448349 
L 433.224812 104.414816 
L 431.143679 103.769299 
L 429.229604 103.082707 
L 426.834965 102.434313 
L 424.358264 101.85832 
L 422.367082 101.812916 
L 420.545322 102.956482 
L 418.59025 107.039895 
L 416.601479 111.516135 
L 414.385383 117.264334 
L 411.962005 123.425406 
L 410.106215 127.888592 
L 408.375361 132.423645 
L 406.894263 136.80913 
L 405.289681 141.046802 
L 403.610952 145.061888 
L 401.701247 149.007024 
L 399.899373 152.757477 
L 398.043583 156.78599 
L 396.651741 159.981824 
L 395.259899 162.948692 
L 393.28631 164.440753 
L 391.54832 166.248241 
L 390.578063 168.166975 
L 389.69253 169.89888 
L 388.764636 171.319298 
L 387.836741 172.39835 
L 386.908846 173.248488 
L 385.980951 173.646114 
L 385.053056 173.840816 
L 384.125162 173.299286 
L 383.197267 173.495546 
L 382.269372 173.389084 
L 381.341477 172.81012 
L 380.832336 170.130343 
L 380.413583 166.85792 
L 379.945558 162.552448 
L 379.485688 157.586059 
L 379.000786 151.634001 
L 378.557793 145.092964 
L 378.056467 137.739731 
L 377.629898 128.698003 
L 377.181086 118.566454 
L 376.702003 111.998368 
L 376.42634 104.94265 
L 376.100674 98.032138 
L 375.781185 90.739418 
L 375.42959 83.955251 
L 374.808605 77.595292 
L 374.157176 71.303031 
L 373.578284 65.264238 
L 372.884762 59.331839 
L 371.612349 53.451298 
L 370.339935 49.439834 
L 367.795107 46.456841 
L 365.100791 44.041227 
L 362.015801 42.083658 
L 358.098232 39.113533 
L 353.582193 37.314751 
L 347.240659 34.69336 
L 338.743693 33.077553 
L 330.136629 30.802539 
L 322.042849 29.914639 
L 314.293433 29.05775 
L 306.108307 30.276579 
L 291.4797 30.85169 
L 277.872644 32.647025 
L 265.803879 34.356138 
L 253.442863 35.670359 
L 242.378625 37.182403 
L 232.059762 38.479177 
L 222.461467 39.507876 
L 215.666289 40.713576 
L 209.304744 42.074541 
L 201.294329 42.990056 
L 193.842604 44.037537 
L 186.901027 44.740239 
L 180.46251 45.562984 
L 174.585426 46.106797 
L 168.88361 46.7335 
L 163.692746 46.897332 
L 158.23472 46.450269 
L 152.242772 45.495004 
L 146.343341 44.109901 
L 140.906123 41.999175 
L 136.064903 39.225229 
L 131.894699 37.719854 
L 126.505652 34.925754 
L 121.795163 30.590475 
L 117.772298 29.789458 
L 114.380297 31.689657 
L 110.878308 36.869208 
L 107.979517 41.114346 
L 105.819849 44.005204 
L 103.578522 46.188534 
L 101.273505 48.813123 
L 99.991406 51.13778 
L 98.820976 53.267724 
L 97.579316 55.860501 
L 96.397416 58.24036 
L 95.299612 60.704496 
L 94.171374 62.820124 
L 93.099922 65.307542 
L 92.004934 67.486491 
L 90.129589 70.414948 
L 88.857321 71.903829 
L 87.435066 73.005485 
L 84.740543 72.078419 
L 83.42602 71.298011 
L 82.213061 68.92635 
L 80.785425 67.337648 
L 79.049287 63.961295 
L 76.852227 61.860634 
L 73.741466 58.318295 
L 69.481777 56.263655 
L 63.647806 54.311627 
L 55.656948 53.391901 
L 44.711179 52.088732 
L 29.717351 51.566959 
L 9.178043 51.114505 
z
" clip-path="url(#p8c623184e6)" style="fill: #1f77b4"/>
   </g>
   <g id="PolyCollection_2">
    <path d="M 9.178043 45.318545 
L 9.178043 51.114505 
L 29.717351 51.566959 
L 44.711179 52.088732 
L 55.656948 53.391901 
L 63.647806 54.311627 
L 69.481777 56.263655 
L 73.741466 58.318295 
L 76.852227 61.860634 
L 79.049287 63.961295 
L 80.785425 67.337648 
L 82.213061 68.92635 
L 83.42602 71.298011 
L 84.740543 72.078419 
L 87.435066 73.005485 
L 88.857321 71.903829 
L 90.129589 70.414948 
L 92.004934 67.486491 
L 93.099922 65.307542 
L 94.171374 62.820124 
L 95.299612 60.704496 
L 96.397416 58.24036 
L 97.579316 55.860501 
L 98.820976 53.267724 
L 99.991406 51.13778 
L 101.273505 48.813123 
L 103.578522 46.188534 
L 105.819849 44.005204 
L 107.979517 41.114346 
L 110.878308 36.869208 
L 114.380297 31.689657 
L 117.772298 29.789458 
L 121.795163 30.590475 
L 126.505652 34.925754 
L 131.894699 37.719854 
L 136.064903 39.225229 
L 140.906123 41.999175 
L 146.343341 44.109901 
L 152.242772 45.495004 
L 158.23472 46.450269 
L 163.692746 46.897332 
L 168.88361 46.7335 
L 174.585426 46.106797 
L 180.46251 45.562984 
L 186.901027 44.740239 
L 193.842604 44.037537 
L 201.294329 42.990056 
L 209.304744 42.074541 
L 215.666289 40.713576 
L 222.461467 39.507876 
L 232.059762 38.479177 
L 242.378625 37.182403 
L 253.442863 35.670359 
L 265.803879 34.356138 
L 277.872644 32.647025 
L 291.4797 30.85169 
L 306.108307 30.276579 
L 314.293433 29.05775 
L 322.042849 29.914639 
L 330.136629 30.802539 
L 338.743693 33.077553 
L 347.240659 34.69336 
L 353.582193 37.314751 
L 358.098232 39.113533 
L 362.015801 42.083658 
L 365.100791 44.041227 
L 367.795107 46.456841 
L 370.339935 49.439834 
L 371.612349 53.451298 
L 372.884762 59.331839 
L 373.578284 65.264238 
L 374.157176 71.303031 
L 374.808605 77.595292 
L 375.42959 83.955251 
L 375.781185 90.739418 
L 376.100674 98.032138 
L 376.42634 104.94265 
L 376.702003 111.998368 
L 377.181086 118.566454 
L 377.629898 128.698003 
L 378.056467 137.739731 
L 378.557793 145.092964 
L 379.000786 151.634001 
L 379.485688 157.586059 
L 379.945558 162.552448 
L 380.413583 166.85792 
L 380.832336 170.130343 
L 381.341477 172.81012 
L 382.269372 173.389084 
L 383.197267 173.495546 
L 384.125162 173.299286 
L 385.053056 173.840816 
L 385.980951 173.646114 
L 386.908846 173.248488 
L 387.836741 172.39835 
L 388.764636 171.319298 
L 389.69253 169.89888 
L 390.578063 168.166975 
L 391.54832 166.248241 
L 393.28631 164.440753 
L 395.259899 162.948692 
L 396.651741 159.981824 
L 398.043583 156.78599 
L 399.899373 152.757477 
L 401.701247 149.007024 
L 403.610952 145.061888 
L 405.289681 141.046802 
L 406.894263 136.80913 
L 408.375361 132.423645 
L 410.106215 127.888592 
L 411.962005 123.425406 
L 414.385383 117.264334 
L 416.601479 111.516135 
L 418.59025 107.039895 
L 420.545322 102.956482 
L 422.367082 101.812916 
L 424.358264 101.85832 
L 426.834965 102.434313 
L 429.229604 103.082707 
L 431.143679 103.769299 
L 433.224812 104.414816 
L 435.488341 105.448349 
L 437.951073 106.494738 
L 439.269923 107.313709 
L 440.63164 108.170941 
L 442.106467 109.191354 
L 443.549241 110.188645 
L 445.155995 111.389933 
L 446.721698 112.494306 
L 448.530584 114.217521 
L 450.174259 115.796161 
L 451.951214 117.59477 
L 453.926016 119.232903 
L 455.933062 121.187304 
L 458.002814 122.886008 
L 460.314271 125.012391 
L 462.425952 126.787806 
L 464.811613 129.000245 
L 467.21716 131.00597 
L 469.759827 133.306488 
L 472.396058 135.597356 
L 475.19253 138.1058 
L 477.975382 140.70546 
L 480.842577 143.533763 
L 483.958078 146.479255 
L 487.02499 149.485988 
L 490.325069 152.36116 
L 493.589155 155.088147 
L 496.978314 157.659381 
L 500.205377 159.864252 
L 503.659157 162.07763 
L 506.946976 163.715896 
L 510.339999 165.378855 
L 513.575217 165.62179 
L 517.020842 165.698797 
L 520.529262 165.03543 
L 523.701684 163.890185 
L 527.248435 162.598966 
L 530.382526 160.853686 
L 533.47788 158.51981 
L 537.063369 155.743099 
L 540.596663 152.214535 
L 543.744211 147.941272 
L 547.100127 147.786255 
L 550.425053 150.606902 
L 553.753242 152.92206 
L 557.105896 155.606806 
L 560.64286 159.665458 
L 563.786738 162.698318 
L 567.416674 166.987587 
L 570.467581 170.189377 
L 572.48806 174.211534 
L 574.235341 177.279233 
L 575.774026 180.715658 
L 577.148423 183.337532 
L 578.893977 186.107976 
L 580.590786 187.879281 
L 582.236512 190.018209 
L 583.829265 190.666203 
L 585.170972 192.38413 
L 585.978345 192.70107 
L 586.689338 193.174525 
L 587.565631 194.062069 
L 588.440213 195.27603 
L 589.393295 195.093937 
L 590.510108 195.140577 
L 591.006574 195.033629 
L 591.536623 195.109996 
L 592.09897 195.128525 
L 592.691486 195.331081 
L 593.836984 195.594928 
L 595.007931 196.177714 
L 596.17812 197.434338 
L 597.43789 198.916765 
L 598.641338 199.48846 
L 599.95542 200.821007 
L 601.139458 200.331319 
L 602.456615 201.746486 
L 603.58178 201.047961 
L 604.861979 202.375073 
L 607.17568 202.95751 
L 609.400733 204.979536 
L 611.62836 205.997592 
L 613.948134 207.685294 
L 616.355835 208.9002 
L 618.846045 211.026123 
L 622.080194 213.25459 
L 625.776244 215.619602 
L 629.202701 217.986009 
L 632.80417 220.088115 
L 637.73667 222.328022 
L 642.249482 223.596021 
L 647.181983 224.729064 
L 656.627295 226.40907 
L 666.072608 227.709157 
L 675.51792 228.664673 
L 684.963233 229.220753 
L 694.408545 229.253763 
L 703.853858 229.19337 
L 713.29917 228.671889 
L 722.744483 228.516416 
L 741.635108 228.327367 
L 753.458468 227.930869 
L 765.81912 227.612063 
L 777.874829 227.309008 
L 788.86167 226.989986 
L 798.306983 226.79975 
L 807.092784 226.661693 
L 817.197608 226.586811 
L 817.197608 195.508514 
L 817.197608 195.508514 
L 807.092784 195.525435 
L 798.306983 195.53415 
L 788.86167 195.523702 
L 777.874829 195.592755 
L 765.81912 195.574083 
L 753.458468 195.504867 
L 741.635108 195.459374 
L 722.744483 195.147982 
L 713.29917 194.681629 
L 703.853858 194.541504 
L 694.408545 193.875313 
L 684.963233 193.031655 
L 675.51792 191.618087 
L 666.072608 189.774678 
L 656.627295 187.602284 
L 647.181983 185.109934 
L 642.249482 183.08854 
L 637.73667 180.9746 
L 632.80417 178.28532 
L 629.202701 175.827336 
L 625.776244 173.285779 
L 622.080194 171.19123 
L 618.846045 169.43626 
L 616.355835 167.293563 
L 613.948134 166.334498 
L 611.62836 164.8687 
L 609.400733 164.420762 
L 607.17568 162.929577 
L 604.861979 163.100696 
L 603.58178 161.379258 
L 602.456615 161.759744 
L 601.139458 159.938526 
L 599.95542 160.060541 
L 598.641338 158.209917 
L 597.43789 157.167308 
L 596.17812 155.071874 
L 595.007931 152.887149 
L 593.836984 150.972847 
L 592.691486 149.055311 
L 592.09897 147.0343 
L 591.536623 145.190007 
L 591.006574 143.320312 
L 590.510108 141.883935 
L 589.393295 141.141091 
L 588.440213 140.920336 
L 587.565631 139.375677 
L 586.689338 138.466135 
L 585.978345 138.193205 
L 585.170972 138.354488 
L 583.829265 137.257699 
L 582.236512 137.73618 
L 580.590786 136.516732 
L 578.893977 136.517325 
L 577.148423 135.294766 
L 575.774026 135.221202 
L 574.235341 134.100931 
L 572.48806 134.221953 
L 570.467581 133.069255 
L 567.416674 133.084225 
L 563.786738 131.576105 
L 560.64286 131.302958 
L 557.105896 129.744554 
L 553.753242 129.24863 
L 550.425053 128.885478 
L 547.100127 128.035385 
L 543.744211 129.853755 
L 540.596663 136.2842 
L 537.063369 141.395258 
L 533.47788 146.202416 
L 530.382526 149.966857 
L 527.248435 153.456667 
L 523.701684 156.269264 
L 520.529262 159.311224 
L 517.020842 161.844039 
L 513.575217 163.480395 
L 510.339999 164.870234 
L 506.946976 162.88591 
L 503.659157 160.127232 
L 500.205377 157.008998 
L 496.978314 154.097301 
L 493.589155 151.064553 
L 490.325069 148.105211 
L 487.02499 145.248882 
L 483.958078 142.479724 
L 480.842577 139.996173 
L 477.975382 137.787721 
L 475.19253 135.974728 
L 472.396058 134.419386 
L 469.759827 133.160983 
L 467.21716 130.038595 
L 464.811613 127.099008 
L 462.425952 123.687893 
L 460.314271 121.065698 
L 458.002814 117.88741 
L 455.933062 115.332393 
L 453.926016 112.578002 
L 451.951214 110.36016 
L 450.174259 107.707985 
L 448.530584 105.56477 
L 446.721698 102.985214 
L 445.155995 101.928784 
L 443.549241 100.593643 
L 442.106467 99.264476 
L 440.63164 97.753375 
L 439.269923 96.358674 
L 437.951073 94.893033 
L 435.488341 92.384394 
L 433.224812 89.934386 
L 431.143679 87.763979 
L 429.229604 85.543529 
L 426.834965 83.027328 
L 424.358264 80.615429 
L 422.367082 78.919066 
L 420.545322 78.542919 
L 418.59025 81.286499 
L 416.601479 84.345492 
L 414.385383 88.017005 
L 411.962005 91.943964 
L 410.106215 94.97832 
L 408.375361 97.929169 
L 406.894263 100.639046 
L 405.289681 103.243589 
L 403.610952 105.654331 
L 401.701247 108.011696 
L 399.899373 110.167522 
L 398.043583 112.410745 
L 396.651741 114.120527 
L 395.259899 115.673401 
L 393.28631 116.519229 
L 391.54832 117.492588 
L 390.578063 118.306024 
L 389.69253 119.036377 
L 388.764636 119.773075 
L 387.836741 120.301214 
L 386.908846 120.737671 
L 385.980951 120.860347 
L 385.053056 120.968717 
L 384.125162 120.503777 
L 383.197267 120.783777 
L 382.269372 120.75007 
L 381.341477 120.167838 
L 380.832336 118.315082 
L 380.413583 116.1256 
L 379.945558 113.267191 
L 379.485688 110.04472 
L 379.000786 106.319921 
L 378.557793 102.345915 
L 378.056467 97.932126 
L 377.629898 92.908244 
L 377.181086 87.857922 
L 376.702003 84.199681 
L 376.42634 80.126543 
L 376.100674 75.508446 
L 375.781185 70.472292 
L 375.42959 65.681371 
L 374.808605 60.838561 
L 374.157176 56.069616 
L 373.578284 51.318715 
L 372.884762 46.816094 
L 371.612349 42.062484 
L 370.339935 39.517134 
L 367.795107 38.304212 
L 365.100791 37.387091 
L 362.015801 35.544831 
L 358.098232 33.703641 
L 353.582193 32.339649 
L 347.240659 30.908716 
L 338.743693 29.6948 
L 330.136629 28.438356 
L 322.042849 27.820881 
L 314.293433 27.706445 
L 306.108307 29.537128 
L 291.4797 30.698165 
L 277.872644 31.938811 
L 265.803879 32.95641 
L 253.442863 33.674951 
L 242.378625 34.579197 
L 232.059762 35.334518 
L 222.461467 35.815915 
L 215.666289 36.495657 
L 209.304744 37.304593 
L 201.294329 37.778128 
L 193.842604 38.343959 
L 186.901027 38.699383 
L 180.46251 39.146609 
L 174.585426 39.45059 
L 168.88361 39.845787 
L 163.692746 39.958883 
L 158.23472 39.775118 
L 152.242772 39.292314 
L 146.343341 38.695146 
L 140.906123 37.636299 
L 136.064903 36.309206 
L 131.894699 36.185985 
L 126.505652 33.999912 
L 121.795163 26.021298 
L 117.772298 22.189921 
L 114.380297 21.870608 
L 110.878308 25.590781 
L 107.979517 28.805429 
L 105.819849 30.778872 
L 103.578522 32.539552 
L 101.273505 34.435294 
L 99.991406 36.363664 
L 98.820976 38.219266 
L 97.579316 40.491886 
L 96.397416 42.710631 
L 95.299612 45.263603 
L 94.171374 47.560137 
L 93.099922 50.177184 
L 92.004934 52.52832 
L 90.129589 55.731397 
L 88.857321 57.735818 
L 87.435066 59.163836 
L 84.740543 59.379807 
L 83.42602 58.912639 
L 82.213061 57.947698 
L 80.785425 56.471528 
L 79.049287 54.638728 
L 76.852227 52.576462 
L 73.741466 50.420854 
L 69.481777 48.400232 
L 63.647806 47.546009 
L 55.656948 46.656913 
L 44.711179 46.044092 
L 29.717351 45.536403 
L 9.178043 45.318545 
z
" clip-path="url(#p8c623184e6)" style="fill: #ff7f0e"/>
   </g>
   <g id="PolyCollection_3">
    <path d="M 9.178043 20.653539 
L 9.178043 45.318545 
L 29.717351 45.536403 
L 44.711179 46.044092 
L 55.656948 46.656913 
L 63.647806 47.546009 
L 69.481777 48.400232 
L 73.741466 50.420854 
L 76.852227 52.576462 
L 79.049287 54.638728 
L 80.785425 56.471528 
L 82.213061 57.947698 
L 83.42602 58.912639 
L 84.740543 59.379807 
L 87.435066 59.163836 
L 88.857321 57.735818 
L 90.129589 55.731397 
L 92.004934 52.52832 
L 93.099922 50.177184 
L 94.171374 47.560137 
L 95.299612 45.263603 
L 96.397416 42.710631 
L 97.579316 40.491886 
L 98.820976 38.219266 
L 99.991406 36.363664 
L 101.273505 34.435294 
L 103.578522 32.539552 
L 105.819849 30.778872 
L 107.979517 28.805429 
L 110.878308 25.590781 
L 114.380297 21.870608 
L 117.772298 22.189921 
L 121.795163 26.021298 
L 126.505652 33.999912 
L 131.894699 36.185985 
L 136.064903 36.309206 
L 140.906123 37.636299 
L 146.343341 38.695146 
L 152.242772 39.292314 
L 158.23472 39.775118 
L 163.692746 39.958883 
L 168.88361 39.845787 
L 174.585426 39.45059 
L 180.46251 39.146609 
L 186.901027 38.699383 
L 193.842604 38.343959 
L 201.294329 37.778128 
L 209.304744 37.304593 
L 215.666289 36.495657 
L 222.461467 35.815915 
L 232.059762 35.334518 
L 242.378625 34.579197 
L 253.442863 33.674951 
L 265.803879 32.95641 
L 277.872644 31.938811 
L 291.4797 30.698165 
L 306.108307 29.537128 
L 314.293433 27.706445 
L 322.042849 27.820881 
L 330.136629 28.438356 
L 338.743693 29.6948 
L 347.240659 30.908716 
L 353.582193 32.339649 
L 358.098232 33.703641 
L 362.015801 35.544831 
L 365.100791 37.387091 
L 367.795107 38.304212 
L 370.339935 39.517134 
L 371.612349 42.062484 
L 372.884762 46.816094 
L 373.578284 51.318715 
L 374.157176 56.069616 
L 374.808605 60.838561 
L 375.42959 65.681371 
L 375.781185 70.472292 
L 376.100674 75.508446 
L 376.42634 80.126543 
L 376.702003 84.199681 
L 377.181086 87.857922 
L 377.629898 92.908244 
L 378.056467 97.932126 
L 378.557793 102.345915 
L 379.000786 106.319921 
L 379.485688 110.04472 
L 379.945558 113.267191 
L 380.413583 116.1256 
L 380.832336 118.315082 
L 381.341477 120.167838 
L 382.269372 120.75007 
L 383.197267 120.783777 
L 384.125162 120.503777 
L 385.053056 120.968717 
L 385.980951 120.860347 
L 386.908846 120.737671 
L 387.836741 120.301214 
L 388.764636 119.773075 
L 389.69253 119.036377 
L 390.578063 118.306024 
L 391.54832 117.492588 
L 393.28631 116.519229 
L 395.259899 115.673401 
L 396.651741 114.120527 
L 398.043583 112.410745 
L 399.899373 110.167522 
L 401.701247 108.011696 
L 403.610952 105.654331 
L 405.289681 103.243589 
L 406.894263 100.639046 
L 408.375361 97.929169 
L 410.106215 94.97832 
L 411.962005 91.943964 
L 414.385383 88.017005 
L 416.601479 84.345492 
L 418.59025 81.286499 
L 420.545322 78.542919 
L 422.367082 78.919066 
L 424.358264 80.615429 
L 426.834965 83.027328 
L 429.229604 85.543529 
L 431.143679 87.763979 
L 433.224812 89.934386 
L 435.488341 92.384394 
L 437.951073 94.893033 
L 439.269923 96.358674 
L 440.63164 97.753375 
L 442.106467 99.264476 
L 443.549241 100.593643 
L 445.155995 101.928784 
L 446.721698 102.985214 
L 448.530584 105.56477 
L 450.174259 107.707985 
L 451.951214 110.36016 
L 453.926016 112.578002 
L 455.933062 115.332393 
L 458.002814 117.88741 
L 460.314271 121.065698 
L 462.425952 123.687893 
L 464.811613 127.099008 
L 467.21716 130.038595 
L 469.759827 133.160983 
L 472.396058 134.419386 
L 475.19253 135.974728 
L 477.975382 137.787721 
L 480.842577 139.996173 
L 483.958078 142.479724 
L 487.02499 145.248882 
L 490.325069 148.105211 
L 493.589155 151.064553 
L 496.978314 154.097301 
L 500.205377 157.008998 
L 503.659157 160.127232 
L 506.946976 162.88591 
L 510.339999 164.870234 
L 513.575217 163.480395 
L 517.020842 161.844039 
L 520.529262 159.311224 
L 523.701684 156.269264 
L 527.248435 153.456667 
L 530.382526 149.966857 
L 533.47788 146.202416 
L 537.063369 141.395258 
L 540.596663 136.2842 
L 543.744211 129.853755 
L 547.100127 128.035385 
L 550.425053 128.885478 
L 553.753242 129.24863 
L 557.105896 129.744554 
L 560.64286 131.302958 
L 563.786738 131.576105 
L 567.416674 133.084225 
L 570.467581 133.069255 
L 572.48806 134.221953 
L 574.235341 134.100931 
L 575.774026 135.221202 
L 577.148423 135.294766 
L 578.893977 136.517325 
L 580.590786 136.516732 
L 582.236512 137.73618 
L 583.829265 137.257699 
L 585.170972 138.354488 
L 585.978345 138.193205 
L 586.689338 138.466135 
L 587.565631 139.375677 
L 588.440213 140.920336 
L 589.393295 141.141091 
L 590.510108 141.883935 
L 591.006574 143.320312 
L 591.536623 145.190007 
L 592.09897 147.0343 
L 592.691486 149.055311 
L 593.836984 150.972847 
L 595.007931 152.887149 
L 596.17812 155.071874 
L 597.43789 157.167308 
L 598.641338 158.209917 
L 599.95542 160.060541 
L 601.139458 159.938526 
L 602.456615 161.759744 
L 603.58178 161.379258 
L 604.861979 163.100696 
L 607.17568 162.929577 
L 609.400733 164.420762 
L 611.62836 164.8687 
L 613.948134 166.334498 
L 616.355835 167.293563 
L 618.846045 169.43626 
L 622.080194 171.19123 
L 625.776244 173.285779 
L 629.202701 175.827336 
L 632.80417 178.28532 
L 637.73667 180.9746 
L 642.249482 183.08854 
L 647.181983 185.109934 
L 656.627295 187.602284 
L 666.072608 189.774678 
L 675.51792 191.618087 
L 684.963233 193.031655 
L 694.408545 193.875313 
L 703.853858 194.541504 
L 713.29917 194.681629 
L 722.744483 195.147982 
L 741.635108 195.459374 
L 753.458468 195.504867 
L 765.81912 195.574083 
L 777.874829 195.592755 
L 788.86167 195.523702 
L 798.306983 195.53415 
L 807.092784 195.525435 
L 817.197608 195.508514 
L 817.197608 73.181898 
L 817.197608 73.181898 
L 807.092784 73.190734 
L 798.306983 73.213126 
L 788.86167 73.277512 
L 777.874829 73.373529 
L 765.81912 73.523277 
L 753.458468 73.704146 
L 741.635108 73.887652 
L 722.744483 74.246662 
L 713.29917 74.442958 
L 703.853858 74.817914 
L 694.408545 74.919554 
L 684.963233 75.077063 
L 675.51792 75.369763 
L 666.072608 75.538769 
L 656.627295 75.659548 
L 647.181983 75.589827 
L 642.249482 75.449757 
L 637.73667 75.216612 
L 632.80417 74.616588 
L 629.202701 73.877239 
L 625.776244 73.109789 
L 622.080194 72.009198 
L 618.846045 70.862589 
L 616.355835 70.177515 
L 613.948134 69.422004 
L 611.62836 68.755724 
L 609.400733 67.823507 
L 607.17568 66.910208 
L 604.861979 65.847851 
L 603.58178 65.684001 
L 602.456615 65.340516 
L 601.139458 65.095157 
L 599.95542 64.54289 
L 598.641338 63.98285 
L 597.43789 63.174754 
L 596.17812 62.118428 
L 595.007931 60.86228 
L 593.836984 59.832701 
L 592.691486 58.693891 
L 592.09897 57.388807 
L 591.536623 56.096339 
L 591.006574 54.864475 
L 590.510108 53.683926 
L 589.393295 53.045975 
L 588.440213 52.393533 
L 587.565631 50.865022 
L 586.689338 49.435819 
L 585.978345 49.406118 
L 585.170972 49.536331 
L 583.829265 48.118739 
L 582.236512 48.871845 
L 580.590786 48.068345 
L 578.893977 48.841671 
L 577.148423 48.52578 
L 575.774026 49.371274 
L 574.235341 49.345454 
L 572.48806 50.31962 
L 570.467581 50.404541 
L 567.416674 51.398427 
L 563.786738 51.373276 
L 560.64286 52.262537 
L 557.105896 52.128554 
L 553.753242 52.432268 
L 550.425053 52.608829 
L 547.100127 52.21912 
L 543.744211 54.729316 
L 540.596663 62.143094 
L 537.063369 67.988668 
L 533.47788 73.504623 
L 530.382526 77.491059 
L 527.248435 80.786856 
L 523.701684 83.343262 
L 520.529262 86.833035 
L 517.020842 89.95299 
L 513.575217 91.615566 
L 510.339999 93.039525 
L 506.946976 91.366684 
L 503.659157 88.588339 
L 500.205377 85.895345 
L 496.978314 83.288521 
L 493.589155 80.972905 
L 490.325069 78.700344 
L 487.02499 76.883372 
L 483.958078 75.181929 
L 480.842577 74.014749 
L 477.975382 73.203125 
L 475.19253 72.984644 
L 472.396058 73.13065 
L 469.759827 73.725261 
L 467.21716 72.532425 
L 464.811613 71.655067 
L 462.425952 70.130769 
L 460.314271 69.481677 
L 458.002814 68.13292 
L 455.933062 67.220759 
L 453.926016 66.29206 
L 451.951214 65.655631 
L 450.174259 64.467386 
L 448.530584 63.599277 
L 446.721698 62.09841 
L 445.155995 62.352987 
L 443.549241 62.051119 
L 442.106467 61.490831 
L 440.63164 60.47413 
L 439.269923 59.29189 
L 437.951073 57.80039 
L 435.488341 54.495935 
L 433.224812 51.051539 
L 431.143679 47.621879 
L 429.229604 43.916045 
L 426.834965 39.303359 
L 424.358264 34.48978 
L 422.367082 30.351688 
L 420.545322 27.496805 
L 418.59025 27.816538 
L 416.601479 28.167897 
L 414.385383 28.514485 
L 411.962005 29.007251 
L 410.106215 29.38789 
L 408.375361 29.807017 
L 406.894263 30.22403 
L 405.289681 30.657628 
L 403.610952 31.069301 
L 401.701247 31.517557 
L 399.899373 32.001771 
L 398.043583 32.634893 
L 396.651741 33.248987 
L 395.259899 33.909289 
L 393.28631 34.248278 
L 391.54832 34.792818 
L 390.578063 35.689731 
L 389.69253 36.745388 
L 388.764636 37.794232 
L 387.836741 38.947481 
L 386.908846 40.212965 
L 385.980951 41.598635 
L 385.053056 43.095005 
L 384.125162 44.704322 
L 383.197267 46.416742 
L 382.269372 48.114916 
L 381.341477 49.745625 
L 380.832336 51.530539 
L 380.413583 53.341953 
L 379.945558 55.006485 
L 379.485688 56.568902 
L 379.000786 57.922503 
L 378.557793 59.043436 
L 378.056467 59.683269 
L 377.629898 60.237125 
L 377.181086 60.486745 
L 376.702003 60.186101 
L 376.42634 59.761442 
L 376.100674 58.244267 
L 375.781185 56.330207 
L 375.42959 54.266935 
L 374.808605 51.748623 
L 374.157176 49.32025 
L 373.578284 46.529194 
L 372.884762 44.046348 
L 371.612349 41.109573 
L 370.339935 38.635078 
L 367.795107 34.99382 
L 365.100791 32.455627 
L 362.015801 30.309305 
L 358.098232 27.918534 
L 353.582193 26.103787 
L 347.240659 24.099845 
L 338.743693 22.556861 
L 330.136629 20.899379 
L 322.042849 19.81069 
L 314.293433 19.09494 
L 306.108307 20.328154 
L 291.4797 21.501661 
L 277.872644 22.400299 
L 265.803879 23.212658 
L 253.442863 23.934795 
L 242.378625 24.553733 
L 232.059762 25.018669 
L 222.461467 25.471145 
L 215.666289 25.804241 
L 209.304744 26.173592 
L 201.294329 26.348878 
L 193.842604 26.627078 
L 186.901027 26.66971 
L 180.46251 26.854006 
L 174.585426 26.784001 
L 168.88361 26.890022 
L 163.692746 26.690136 
L 158.23472 26.551043 
L 152.242772 26.133128 
L 146.343341 25.741329 
L 140.906123 25.049812 
L 136.064903 24.395043 
L 131.894699 25.008045 
L 126.505652 24.849309 
L 121.795163 20.324945 
L 117.772298 19.779099 
L 114.380297 21.675766 
L 110.878308 22.796211 
L 107.979517 23.491275 
L 105.819849 23.633828 
L 103.578522 23.532884 
L 101.273505 23.40607 
L 99.991406 23.489601 
L 98.820976 23.324401 
L 97.579316 23.36887 
L 96.397416 23.196566 
L 95.299612 23.293033 
L 94.171374 23.085259 
L 93.099922 23.283802 
L 92.004934 23.101829 
L 90.129589 23.334724 
L 88.857321 23.289072 
L 87.435066 23.477058 
L 84.740543 23.266467 
L 83.42602 22.823715 
L 82.213061 22.254915 
L 80.785425 21.570812 
L 79.049287 20.794781 
L 76.852227 20.159922 
L 73.741466 19.455683 
L 69.481777 18.973498 
L 63.647806 19.554982 
L 55.656948 19.950757 
L 44.711179 20.330326 
L 29.717351 20.523947 
L 9.178043 20.653539 
z
" clip-path="url(#p8c623184e6)" style="fill: #2ca02c"/>
   </g>
   <g id="PolyCollection_4">
    <path d="M 9.178043 18.927692 
L 9.178043 20.653539 
L 29.717351 20.523947 
L 44.711179 20.330326 
L 55.656948 19.950757 
L 63.647806 19.554982 
L 69.481777 18.973498 
L 73.741466 19.455683 
L 76.852227 20.159922 
L 79.049287 20.794781 
L 80.785425 21.570812 
L 82.213061 22.254915 
L 83.42602 22.823715 
L 84.740543 23.266467 
L 87.435066 23.477058 
L 88.857321 23.289072 
L 90.129589 23.334724 
L 92.004934 23.101829 
L 93.099922 23.283802 
L 94.171374 23.085259 
L 95.299612 23.293033 
L 96.397416 23.196566 
L 97.579316 23.36887 
L 98.820976 23.324401 
L 99.991406 23.489601 
L 101.273505 23.40607 
L 103.578522 23.532884 
L 105.819849 23.633828 
L 107.979517 23.491275 
L 110.878308 22.796211 
L 114.380297 21.675766 
L 117.772298 19.779099 
L 121.795163 20.324945 
L 126.505652 24.849309 
L 131.894699 25.008045 
L 136.064903 24.395043 
L 140.906123 25.049812 
L 146.343341 25.741329 
L 152.242772 26.133128 
L 158.23472 26.551043 
L 163.692746 26.690136 
L 168.88361 26.890022 
L 174.585426 26.784001 
L 180.46251 26.854006 
L 186.901027 26.66971 
L 193.842604 26.627078 
L 201.294329 26.348878 
L 209.304744 26.173592 
L 215.666289 25.804241 
L 222.461467 25.471145 
L 232.059762 25.018669 
L 242.378625 24.553733 
L 253.442863 23.934795 
L 265.803879 23.212658 
L 277.872644 22.400299 
L 291.4797 21.501661 
L 306.108307 20.328154 
L 314.293433 19.09494 
L 322.042849 19.81069 
L 330.136629 20.899379 
L 338.743693 22.556861 
L 347.240659 24.099845 
L 353.582193 26.103787 
L 358.098232 27.918534 
L 362.015801 30.309305 
L 365.100791 32.455627 
L 367.795107 34.99382 
L 370.339935 38.635078 
L 371.612349 41.109573 
L 372.884762 44.046348 
L 373.578284 46.529194 
L 374.157176 49.32025 
L 374.808605 51.748623 
L 375.42959 54.266935 
L 375.781185 56.330207 
L 376.100674 58.244267 
L 376.42634 59.761442 
L 376.702003 60.186101 
L 377.181086 60.486745 
L 377.629898 60.237125 
L 378.056467 59.683269 
L 378.557793 59.043436 
L 379.000786 57.922503 
L 379.485688 56.568902 
L 379.945558 55.006485 
L 380.413583 53.341953 
L 380.832336 51.530539 
L 381.341477 49.745625 
L 382.269372 48.114916 
L 383.197267 46.416742 
L 384.125162 44.704322 
L 385.053056 43.095005 
L 385.980951 41.598635 
L 386.908846 40.212965 
L 387.836741 38.947481 
L 388.764636 37.794232 
L 389.69253 36.745388 
L 390.578063 35.689731 
L 391.54832 34.792818 
L 393.28631 34.248278 
L 395.259899 33.909289 
L 396.651741 33.248987 
L 398.043583 32.634893 
L 399.899373 32.001771 
L 401.701247 31.517557 
L 403.610952 31.069301 
L 405.289681 30.657628 
L 406.894263 30.22403 
L 408.375361 29.807017 
L 410.106215 29.38789 
L 411.962005 29.007251 
L 414.385383 28.514485 
L 416.601479 28.167897 
L 418.59025 27.816538 
L 420.545322 27.496805 
L 422.367082 30.351688 
L 424.358264 34.48978 
L 426.834965 39.303359 
L 429.229604 43.916045 
L 431.143679 47.621879 
L 433.224812 51.051539 
L 435.488341 54.495935 
L 437.951073 57.80039 
L 439.269923 59.29189 
L 440.63164 60.47413 
L 442.106467 61.490831 
L 443.549241 62.051119 
L 445.155995 62.352987 
L 446.721698 62.09841 
L 448.530584 63.599277 
L 450.174259 64.467386 
L 451.951214 65.655631 
L 453.926016 66.29206 
L 455.933062 67.220759 
L 458.002814 68.13292 
L 460.314271 69.481677 
L 462.425952 70.130769 
L 464.811613 71.655067 
L 467.21716 72.532425 
L 469.759827 73.725261 
L 472.396058 73.13065 
L 475.19253 72.984644 
L 477.975382 73.203125 
L 480.842577 74.014749 
L 483.958078 75.181929 
L 487.02499 76.883372 
L 490.325069 78.700344 
L 493.589155 80.972905 
L 496.978314 83.288521 
L 500.205377 85.895345 
L 503.659157 88.588339 
L 506.946976 91.366684 
L 510.339999 93.039525 
L 513.575217 91.615566 
L 517.020842 89.95299 
L 520.529262 86.833035 
L 523.701684 83.343262 
L 527.248435 80.786856 
L 530.382526 77.491059 
L 533.47788 73.504623 
L 537.063369 67.988668 
L 540.596663 62.143094 
L 543.744211 54.729316 
L 547.100127 52.21912 
L 550.425053 52.608829 
L 553.753242 52.432268 
L 557.105896 52.128554 
L 560.64286 52.262537 
L 563.786738 51.373276 
L 567.416674 51.398427 
L 570.467581 50.404541 
L 572.48806 50.31962 
L 574.235341 49.345454 
L 575.774026 49.371274 
L 577.148423 48.52578 
L 578.893977 48.841671 
L 580.590786 48.068345 
L 582.236512 48.871845 
L 583.829265 48.118739 
L 585.170972 49.536331 
L 585.978345 49.406118 
L 586.689338 49.435819 
L 587.565631 50.865022 
L 588.440213 52.393533 
L 589.393295 53.045975 
L 590.510108 53.683926 
L 591.006574 54.864475 
L 591.536623 56.096339 
L 592.09897 57.388807 
L 592.691486 58.693891 
L 593.836984 59.832701 
L 595.007931 60.86228 
L 596.17812 62.118428 
L 597.43789 63.174754 
L 598.641338 63.98285 
L 599.95542 64.54289 
L 601.139458 65.095157 
L 602.456615 65.340516 
L 603.58178 65.684001 
L 604.861979 65.847851 
L 607.17568 66.910208 
L 609.400733 67.823507 
L 611.62836 68.755724 
L 613.948134 69.422004 
L 616.355835 70.177515 
L 618.846045 70.862589 
L 622.080194 72.009198 
L 625.776244 73.109789 
L 629.202701 73.877239 
L 632.80417 74.616588 
L 637.73667 75.216612 
L 642.249482 75.449757 
L 647.181983 75.589827 
L 656.627295 75.659548 
L 666.072608 75.538769 
L 675.51792 75.369763 
L 684.963233 75.077063 
L 694.408545 74.919554 
L 703.853858 74.817914 
L 713.29917 74.442958 
L 722.744483 74.246662 
L 741.635108 73.887652 
L 753.458468 73.704146 
L 765.81912 73.523277 
L 777.874829 73.373529 
L 788.86167 73.277512 
L 798.306983 73.213126 
L 807.092784 73.190734 
L 817.197608 73.181898 
L 817.197608 18.927692 
L 817.197608 18.927692 
L 807.092784 18.927692 
L 798.306983 18.927692 
L 788.86167 18.927692 
L 777.874829 18.927692 
L 765.81912 18.927692 
L 753.458468 18.927692 
L 741.635108 18.927692 
L 722.744483 18.927692 
L 713.29917 18.927692 
L 703.853858 18.927692 
L 694.408545 18.927692 
L 684.963233 18.927692 
L 675.51792 18.927692 
L 666.072608 18.927692 
L 656.627295 18.927692 
L 647.181983 18.927692 
L 642.249482 18.927692 
L 637.73667 18.927692 
L 632.80417 18.927692 
L 629.202701 18.927692 
L 625.776244 18.927692 
L 622.080194 18.927692 
L 618.846045 18.927692 
L 616.355835 18.927692 
L 613.948134 18.927692 
L 611.62836 18.927692 
L 609.400733 18.927692 
L 607.17568 18.927692 
L 604.861979 18.927692 
L 603.58178 18.927692 
L 602.456615 18.927692 
L 601.139458 18.927692 
L 599.95542 18.927692 
L 598.641338 18.927692 
L 597.43789 18.927692 
L 596.17812 18.927692 
L 595.007931 18.927692 
L 593.836984 18.927692 
L 592.691486 18.927692 
L 592.09897 18.927692 
L 591.536623 18.927692 
L 591.006574 18.927692 
L 590.510108 18.927692 
L 589.393295 18.927692 
L 588.440213 18.927692 
L 587.565631 18.927692 
L 586.689338 18.927692 
L 585.978345 18.927692 
L 585.170972 18.927692 
L 583.829265 18.927692 
L 582.236512 18.927692 
L 580.590786 18.927692 
L 578.893977 18.927692 
L 577.148423 18.927692 
L 575.774026 18.927692 
L 574.235341 18.927692 
L 572.48806 18.927692 
L 570.467581 18.927692 
L 567.416674 18.927692 
L 563.786738 18.927692 
L 560.64286 18.927692 
L 557.105896 18.927692 
L 553.753242 18.927692 
L 550.425053 18.927692 
L 547.100127 18.927692 
L 543.744211 22.206127 
L 540.596663 30.532398 
L 537.063369 37.378825 
L 533.47788 44.249499 
L 530.382526 49.572381 
L 527.248435 54.07215 
L 523.701684 57.861246 
L 520.529262 62.593399 
L 517.020842 66.70445 
L 513.575217 69.551574 
L 510.339999 71.899699 
L 506.946976 71.428878 
L 503.659157 69.768428 
L 500.205377 68.240444 
L 496.978314 66.671618 
L 493.589155 65.430316 
L 490.325069 64.063676 
L 487.02499 63.141783 
L 483.958078 62.207377 
L 480.842577 61.751964 
L 477.975382 61.594459 
L 475.19253 61.96714 
L 472.396058 62.774984 
L 469.759827 63.833543 
L 467.21716 63.41721 
L 464.811613 62.772475 
L 462.425952 62.164431 
L 460.314271 61.363049 
L 458.002814 61.120409 
L 455.933062 59.846833 
L 453.926016 60.009185 
L 451.951214 58.919494 
L 450.174259 58.651103 
L 448.530584 57.277254 
L 446.721698 56.442595 
L 445.155995 56.550744 
L 443.549241 56.16538 
L 442.106467 55.703547 
L 440.63164 54.801786 
L 439.269923 53.356302 
L 437.951073 51.586572 
L 435.488341 48.351985 
L 433.224812 44.590974 
L 431.143679 40.996078 
L 429.229604 36.874628 
L 426.834965 31.927608 
L 424.358264 26.727782 
L 422.367082 22.149847 
L 420.545322 18.927692 
L 418.59025 18.927692 
L 416.601479 18.927692 
L 414.385383 18.927692 
L 411.962005 18.927692 
L 410.106215 18.927692 
L 408.375361 18.927692 
L 406.894263 18.927692 
L 405.289681 18.927692 
L 403.610952 18.927692 
L 401.701247 18.927692 
L 399.899373 18.927692 
L 398.043583 18.927692 
L 396.651741 18.927692 
L 395.259899 18.927692 
L 393.28631 18.927692 
L 391.54832 18.927692 
L 390.578063 18.927692 
L 389.69253 18.927692 
L 388.764636 18.927692 
L 387.836741 18.927692 
L 386.908846 18.927692 
L 385.980951 18.927692 
L 385.053056 18.927692 
L 384.125162 18.927692 
L 383.197267 18.927692 
L 382.269372 18.927692 
L 381.341477 18.927692 
L 380.832336 18.927692 
L 380.413583 18.927692 
L 379.945558 18.927692 
L 379.485688 18.927692 
L 379.000786 18.927692 
L 378.557793 18.927692 
L 378.056467 18.927692 
L 377.629898 18.927692 
L 377.181086 18.927692 
L 376.702003 18.927692 
L 376.42634 18.927692 
L 376.100674 18.927692 
L 375.781185 18.927692 
L 375.42959 18.927692 
L 374.808605 18.927692 
L 374.157176 18.927692 
L 373.578284 18.927692 
L 372.884762 18.927692 
L 371.612349 18.927692 
L 370.339935 18.927692 
L 367.795107 18.927692 
L 365.100791 18.927692 
L 362.015801 18.927692 
L 358.098232 18.927692 
L 353.582193 18.927692 
L 347.240659 18.927692 
L 338.743693 18.927692 
L 330.136629 18.927692 
L 322.042849 18.927692 
L 314.293433 18.927692 
L 306.108307 18.927692 
L 291.4797 18.927692 
L 277.872644 18.927692 
L 265.803879 18.927692 
L 253.442863 18.927692 
L 242.378625 18.927692 
L 232.059762 18.927692 
L 222.461467 18.927692 
L 215.666289 18.927692 
L 209.304744 18.927692 
L 201.294329 18.927692 
L 193.842604 18.927692 
L 186.901027 18.927692 
L 180.46251 18.927692 
L 174.585426 18.927692 
L 168.88361 18.927692 
L 163.692746 18.927692 
L 158.23472 18.927692 
L 152.242772 18.927692 
L 146.343341 18.927692 
L 140.906123 18.927692 
L 136.064903 18.927692 
L 131.894699 20.134279 
L 126.505652 20.997517 
L 121.795163 18.927692 
L 117.772298 18.927692 
L 114.380297 18.927692 
L 110.878308 18.927692 
L 107.979517 18.927692 
L 105.819849 18.927692 
L 103.578522 18.927692 
L 101.273505 18.927692 
L 99.991406 18.927692 
L 98.820976 18.927692 
L 97.579316 18.927692 
L 96.397416 18.927692 
L 95.299612 18.927692 
L 94.171374 18.927692 
L 93.099922 18.927692 
L 92.004934 18.927692 
L 90.129589 18.927692 
L 88.857321 18.927692 
L 87.435066 18.927692 
L 84.740543 18.927692 
L 83.42602 18.927692 
L 82.213061 18.927692 
L 80.785425 18.927692 
L 79.049287 18.927692 
L 76.852227 18.927692 
L 73.741466 18.927692 
L 69.481777 18.927692 
L 63.647806 18.927692 
L 55.656948 18.927692 
L 44.711179 18.927692 
L 29.717351 18.927692 
L 9.178043 18.927692 
z
" clip-path="url(#p8c623184e6)" style="fill: #d62728"/>
   </g>
   <g id="matplotlib.axis_1">
    <g id="xtick_1">
     <g id="line2d_1">
      <path d="M 84.740543 617.04 
L 84.740543 7.2 
" clip-path="url(#p8c623184e6)" style="fill: none; stroke: #b0b0b0; stroke-width: 0.8; stroke-linecap: square"/>
     </g>
     <g id="line2d_2">
      <defs>
       <path id="m9f8132e724" d="M 0 0 
L 0 3.5 
" style="stroke: #000000; stroke-width: 0.8"/>
      </defs>
      <g>
       <use xlink:href="#m9f8132e724" x="84.740543" y="617.04" style="stroke: #000000; stroke-width: 0.8"/>
      </g>
     </g>
     <g id="text_1">
      <!-- $\mathdefault{0.0}$ -->
      <g transform="translate(66.968823 644.795495) scale(0.3 -0.3)">
       <defs>
        <path id="CMR17-30" d="M 2688 2025 
C 2688 2416 2682 3080 2413 3591 
C 2176 4039 1798 4198 1466 4198 
C 1158 4198 768 4058 525 3597 
C 269 3118 243 2524 243 2025 
C 243 1661 250 1106 448 619 
C 723 -39 1216 -128 1466 -128 
C 1760 -128 2208 -7 2470 600 
C 2662 1042 2688 1559 2688 2025 
z
M 1466 -26 
C 1056 -26 813 325 723 812 
C 653 1188 653 1738 653 2096 
C 653 2588 653 2997 736 3387 
C 858 3929 1216 4096 1466 4096 
C 1728 4096 2067 3923 2189 3400 
C 2272 3036 2278 2607 2278 2096 
C 2278 1680 2278 1169 2202 792 
C 2067 95 1690 -26 1466 -26 
z
" transform="scale(0.015625)"/>
        <path id="CMMI12-3a" d="M 1178 307 
C 1178 492 1024 619 870 619 
C 685 619 557 466 557 313 
C 557 128 710 0 864 0 
C 1050 0 1178 153 1178 307 
z
" transform="scale(0.015625)"/>
       </defs>
       <use xlink:href="#CMR17-30" transform="scale(0.996264)"/>
       <use xlink:href="#CMMI12-3a" transform="translate(45.690477 0) scale(0.996264)"/>
       <use xlink:href="#CMR17-30" transform="translate(72.787654 0) scale(0.996264)"/>
      </g>
     </g>
    </g>
    <g id="xtick_2">
     <g id="line2d_3">
      <path d="M 235.865543 617.04 
L 235.865543 7.2 
" clip-path="url(#p8c623184e6)" style="fill: none; stroke: #b0b0b0; stroke-width: 0.8; stroke-linecap: square"/>
     </g>
     <g id="line2d_4">
      <g>
       <use xlink:href="#m9f8132e724" x="235.865543" y="617.04" style="stroke: #000000; stroke-width: 0.8"/>
      </g>
     </g>
     <g id="text_2">
      <!-- $\mathdefault{0.1}$ -->
      <g transform="translate(218.093823 644.795495) scale(0.3 -0.3)">
       <defs>
        <path id="CMR17-31" d="M 1702 4058 
C 1702 4192 1696 4192 1606 4192 
C 1357 3916 979 3827 621 3827 
C 602 3827 570 3827 563 3808 
C 557 3795 557 3782 557 3648 
C 755 3648 1088 3686 1344 3839 
L 1344 461 
C 1344 236 1331 160 781 160 
L 589 160 
L 589 0 
C 896 0 1216 0 1523 0 
C 1830 0 2150 0 2458 0 
L 2458 160 
L 2266 160 
C 1715 160 1702 230 1702 458 
L 1702 4058 
z
" transform="scale(0.015625)"/>
       </defs>
       <use xlink:href="#CMR17-30" transform="scale(0.996264)"/>
       <use xlink:href="#CMMI12-3a" transform="translate(45.690477 0) scale(0.996264)"/>
       <use xlink:href="#CMR17-31" transform="translate(72.787654 0) scale(0.996264)"/>
      </g>
     </g>
    </g>
    <g id="xtick_3">
     <g id="line2d_5">
      <path d="M 386.990543 617.04 
L 386.990543 7.2 
" clip-path="url(#p8c623184e6)" style="fill: none; stroke: #b0b0b0; stroke-width: 0.8; stroke-linecap: square"/>
     </g>
     <g id="line2d_6">
      <g>
       <use xlink:href="#m9f8132e724" x="386.990543" y="617.04" style="stroke: #000000; stroke-width: 0.8"/>
      </g>
     </g>
     <g id="text_3">
      <!-- $\mathdefault{0.2}$ -->
      <g transform="translate(369.218823 644.795495) scale(0.3 -0.3)">
       <defs>
        <path id="CMR17-32" d="M 2669 989 
L 2554 989 
C 2490 536 2438 459 2413 420 
C 2381 369 1920 369 1830 369 
L 602 369 
C 832 619 1280 1072 1824 1597 
C 2214 1967 2669 2402 2669 3035 
C 2669 3790 2067 4224 1395 4224 
C 691 4224 262 3604 262 3030 
C 262 2780 448 2748 525 2748 
C 589 2748 781 2787 781 3010 
C 781 3207 614 3264 525 3264 
C 486 3264 448 3258 422 3245 
C 544 3790 915 4058 1306 4058 
C 1862 4058 2227 3617 2227 3035 
C 2227 2479 1901 2000 1536 1584 
L 262 146 
L 262 0 
L 2515 0 
L 2669 989 
z
" transform="scale(0.015625)"/>
       </defs>
       <use xlink:href="#CMR17-30" transform="scale(0.996264)"/>
       <use xlink:href="#CMMI12-3a" transform="translate(45.690477 0) scale(0.996264)"/>
       <use xlink:href="#CMR17-32" transform="translate(72.787654 0) scale(0.996264)"/>
      </g>
     </g>
    </g>
    <g id="xtick_4">
     <g id="line2d_7">
      <path d="M 538.115543 617.04 
L 538.115543 7.2 
" clip-path="url(#p8c623184e6)" style="fill: none; stroke: #b0b0b0; stroke-width: 0.8; stroke-linecap: square"/>
     </g>
     <g id="line2d_8">
      <g>
       <use xlink:href="#m9f8132e724" x="538.115543" y="617.04" style="stroke: #000000; stroke-width: 0.8"/>
      </g>
     </g>
     <g id="text_4">
      <!-- $\mathdefault{0.3}$ -->
      <g transform="translate(520.343823 644.795495) scale(0.3 -0.3)">
       <defs>
        <path id="CMR17-33" d="M 1414 2157 
C 1984 2157 2234 1662 2234 1090 
C 2234 320 1824 25 1453 25 
C 1114 25 563 194 390 693 
C 422 680 454 680 486 680 
C 640 680 755 782 755 948 
C 755 1133 614 1216 486 1216 
C 378 1216 211 1165 211 926 
C 211 335 787 -128 1466 -128 
C 2176 -128 2720 430 2720 1085 
C 2720 1707 2208 2157 1600 2227 
C 2086 2328 2554 2756 2554 3329 
C 2554 3820 2048 4179 1472 4179 
C 890 4179 378 3829 378 3329 
C 378 3110 544 3072 627 3072 
C 762 3072 877 3155 877 3321 
C 877 3486 762 3569 627 3569 
C 602 3569 570 3569 544 3557 
C 730 3959 1235 4032 1459 4032 
C 1683 4032 2106 3925 2106 3320 
C 2106 3143 2080 2828 1862 2550 
C 1670 2304 1453 2304 1242 2284 
C 1210 2284 1062 2269 1037 2269 
C 992 2263 966 2257 966 2208 
C 966 2163 973 2157 1101 2157 
L 1414 2157 
z
" transform="scale(0.015625)"/>
       </defs>
       <use xlink:href="#CMR17-30" transform="scale(0.996264)"/>
       <use xlink:href="#CMMI12-3a" transform="translate(45.690477 0) scale(0.996264)"/>
       <use xlink:href="#CMR17-33" transform="translate(72.787654 0) scale(0.996264)"/>
      </g>
     </g>
    </g>
    <g id="xtick_5">
     <g id="line2d_9">
      <path d="M 689.240543 617.04 
L 689.240543 7.2 
" clip-path="url(#p8c623184e6)" style="fill: none; stroke: #b0b0b0; stroke-width: 0.8; stroke-linecap: square"/>
     </g>
     <g id="line2d_10">
      <g>
       <use xlink:href="#m9f8132e724" x="689.240543" y="617.04" style="stroke: #000000; stroke-width: 0.8"/>
      </g>
     </g>
     <g id="text_5">
      <!-- $\mathdefault{0.4}$ -->
      <g transform="translate(671.468823 644.795495) scale(0.3 -0.3)">
       <defs>
        <path id="CMR17-34" d="M 2150 4122 
C 2150 4256 2144 4256 2029 4256 
L 128 1254 
L 128 1088 
L 1779 1088 
L 1779 457 
C 1779 224 1766 160 1318 160 
L 1197 160 
L 1197 0 
C 1402 0 1747 0 1965 0 
C 2182 0 2528 0 2733 0 
L 2733 160 
L 2611 160 
C 2163 160 2150 224 2150 457 
L 2150 1088 
L 2803 1088 
L 2803 1254 
L 2150 1254 
L 2150 4122 
z
M 1798 3703 
L 1798 1254 
L 256 1254 
L 1798 3703 
z
" transform="scale(0.015625)"/>
       </defs>
       <use xlink:href="#CMR17-30" transform="scale(0.996264)"/>
       <use xlink:href="#CMMI12-3a" transform="translate(45.690477 0) scale(0.996264)"/>
       <use xlink:href="#CMR17-34" transform="translate(72.787654 0) scale(0.996264)"/>
      </g>
     </g>
    </g>
    <g id="text_6">
     <!-- $x, \; m $ -->
     <g transform="translate(410.316604 678.823697) scale(0.35 -0.35)">
      <defs>
       <path id="CMMI12-78" d="M 3034 2606 
C 2829 2567 2752 2414 2752 2293 
C 2752 2139 2874 2088 2963 2088 
C 3155 2088 3290 2254 3290 2427 
C 3290 2695 2982 2816 2714 2816 
C 2323 2816 2106 2433 2048 2312 
C 1901 2816 1504 2816 1389 2816 
C 736 2816 390 1980 390 1839 
C 390 1814 416 1782 461 1782 
C 512 1782 525 1820 538 1846 
C 755 2555 1184 2689 1370 2689 
C 1658 2689 1715 2420 1715 2267 
C 1715 2127 1677 1980 1600 1673 
L 1382 798 
C 1286 415 1101 64 762 64 
C 730 64 570 64 435 147 
C 666 192 717 383 717 460 
C 717 588 621 664 499 664 
C 346 664 179 530 179 326 
C 179 57 480 -64 755 -64 
C 1062 -64 1280 179 1414 441 
C 1517 64 1837 -64 2074 -64 
C 2726 -64 3072 773 3072 913 
C 3072 945 3046 971 3008 971 
C 2950 971 2944 939 2925 888 
C 2752 326 2381 64 2093 64 
C 1869 64 1747 230 1747 492 
C 1747 632 1773 734 1875 1156 
L 2099 2024 
C 2195 2408 2413 2689 2707 2689 
C 2720 2689 2899 2689 3034 2606 
z
" transform="scale(0.015625)"/>
       <path id="CMMI12-3b" d="M 1248 -31 
C 1248 343 1126 619 864 619 
C 659 619 557 453 557 313 
C 557 172 653 0 870 0 
C 954 0 1024 26 1082 83 
C 1094 96 1101 96 1107 96 
C 1120 96 1120 5 1120 -27 
C 1120 -240 1082 -659 710 -1080 
C 640 -1157 640 -1170 640 -1183 
C 640 -1216 672 -1248 704 -1248 
C 755 -1248 1248 -771 1248 -31 
z
" transform="scale(0.015625)"/>
       <path id="CMMI12-6d" d="M 1318 1871 
C 1331 1910 1491 2229 1728 2433 
C 1894 2586 2112 2689 2362 2689 
C 2618 2689 2707 2497 2707 2242 
C 2707 2203 2707 2076 2630 1775 
L 2470 1118 
C 2419 926 2298 453 2285 383 
C 2259 287 2221 121 2221 96 
C 2221 6 2291 -64 2387 -64 
C 2579 -64 2611 83 2669 313 
L 3053 1839 
C 3066 1890 3398 2689 4102 2689 
C 4358 2689 4448 2497 4448 2242 
C 4448 1884 4198 1188 4058 805 
C 4000 651 3968 568 3968 453 
C 3968 166 4166 -64 4474 -64 
C 5069 -64 5293 875 5293 913 
C 5293 945 5267 971 5229 971 
C 5171 971 5165 952 5133 843 
C 4986 332 4749 64 4493 64 
C 4429 64 4326 64 4326 269 
C 4326 436 4403 640 4429 710 
C 4544 1018 4832 1773 4832 2145 
C 4832 2528 4608 2816 4122 2816 
C 3693 2816 3347 2574 3091 2197 
C 3072 2542 2861 2816 2381 2816 
C 1811 2816 1510 2415 1395 2255 
C 1376 2618 1114 2816 832 2816 
C 646 2816 499 2727 378 2484 
C 262 2254 173 1865 173 1839 
C 173 1814 198 1782 243 1782 
C 294 1782 301 1788 339 1935 
C 435 2312 557 2689 813 2689 
C 960 2689 1011 2586 1011 2395 
C 1011 2254 947 2005 902 1807 
L 723 1118 
C 698 996 627 709 595 594 
C 550 428 480 128 480 96 
C 480 6 550 -64 646 -64 
C 723 -64 813 -26 864 70 
C 877 102 934 326 966 453 
L 1107 1028 
L 1318 1871 
z
" transform="scale(0.015625)"/>
      </defs>
      <use xlink:href="#CMMI12-78" transform="scale(0.996264)"/>
      <use xlink:href="#CMMI12-3b" transform="translate(55.43406 0) scale(0.996264)"/>
      <use xlink:href="#CMMI12-6d" transform="translate(126.809651 0) scale(0.996264)"/>
     </g>
    </g>
   </g>
   <g id="matplotlib.axis_2">
    <g id="ytick_1">
     <g id="line2d_11">
      <path d="M 84.740543 605.312308 
L 810.140543 605.312308 
" clip-path="url(#p8c623184e6)" style="fill: none; stroke: #b0b0b0; stroke-width: 0.8; stroke-linecap: square"/>
     </g>
     <g id="line2d_12">
      <defs>
       <path id="md105d77c31" d="M 0 0 
L -3.5 0 
" style="stroke: #000000; stroke-width: 0.8"/>
      </defs>
      <g>
       <use xlink:href="#md105d77c31" x="84.740543" y="605.312308" style="stroke: #000000; stroke-width: 0.8"/>
      </g>
     </g>
     <g id="text_7">
      <!-- $\mathdefault{0.0}$ -->
      <g transform="translate(42.197103 615.690055) scale(0.3 -0.3)">
       <use xlink:href="#CMR17-30" transform="scale(0.996264)"/>
       <use xlink:href="#CMMI12-3a" transform="translate(45.690477 0) scale(0.996264)"/>
       <use xlink:href="#CMR17-30" transform="translate(72.787654 0) scale(0.996264)"/>
      </g>
     </g>
    </g>
    <g id="ytick_2">
     <g id="line2d_13">
      <path d="M 84.740543 488.035385 
L 810.140543 488.035385 
" clip-path="url(#p8c623184e6)" style="fill: none; stroke: #b0b0b0; stroke-width: 0.8; stroke-linecap: square"/>
     </g>
     <g id="line2d_14">
      <g>
       <use xlink:href="#md105d77c31" x="84.740543" y="488.035385" style="stroke: #000000; stroke-width: 0.8"/>
      </g>
     </g>
     <g id="text_8">
      <!-- $\mathdefault{0.2}$ -->
      <g transform="translate(42.197103 498.413132) scale(0.3 -0.3)">
       <use xlink:href="#CMR17-30" transform="scale(0.996264)"/>
       <use xlink:href="#CMMI12-3a" transform="translate(45.690477 0) scale(0.996264)"/>
       <use xlink:href="#CMR17-32" transform="translate(72.787654 0) scale(0.996264)"/>
      </g>
     </g>
    </g>
    <g id="ytick_3">
     <g id="line2d_15">
      <path d="M 84.740543 370.758462 
L 810.140543 370.758462 
" clip-path="url(#p8c623184e6)" style="fill: none; stroke: #b0b0b0; stroke-width: 0.8; stroke-linecap: square"/>
     </g>
     <g id="line2d_16">
      <g>
       <use xlink:href="#md105d77c31" x="84.740543" y="370.758462" style="stroke: #000000; stroke-width: 0.8"/>
      </g>
     </g>
     <g id="text_9">
      <!-- $\mathdefault{0.4}$ -->
      <g transform="translate(42.197103 381.136209) scale(0.3 -0.3)">
       <use xlink:href="#CMR17-30" transform="scale(0.996264)"/>
       <use xlink:href="#CMMI12-3a" transform="translate(45.690477 0) scale(0.996264)"/>
       <use xlink:href="#CMR17-34" transform="translate(72.787654 0) scale(0.996264)"/>
      </g>
     </g>
    </g>
    <g id="ytick_4">
     <g id="line2d_17">
      <path d="M 84.740543 253.481538 
L 810.140543 253.481538 
" clip-path="url(#p8c623184e6)" style="fill: none; stroke: #b0b0b0; stroke-width: 0.8; stroke-linecap: square"/>
     </g>
     <g id="line2d_18">
      <g>
       <use xlink:href="#md105d77c31" x="84.740543" y="253.481538" style="stroke: #000000; stroke-width: 0.8"/>
      </g>
     </g>
     <g id="text_10">
      <!-- $\mathdefault{0.6}$ -->
      <g transform="translate(42.197103 263.859286) scale(0.3 -0.3)">
       <defs>
        <path id="CMR17-36" d="M 678 2176 
C 678 3690 1395 4032 1811 4032 
C 1946 4032 2272 4009 2400 3776 
C 2298 3776 2106 3776 2106 3553 
C 2106 3381 2246 3323 2336 3323 
C 2394 3323 2566 3348 2566 3560 
C 2566 3954 2246 4179 1805 4179 
C 1043 4179 243 3390 243 1984 
C 243 253 966 -128 1478 -128 
C 2099 -128 2688 427 2688 1283 
C 2688 2081 2170 2662 1517 2662 
C 1126 2662 838 2407 678 1960 
L 678 2176 
z
M 1478 25 
C 691 25 691 1200 691 1436 
C 691 1896 909 2560 1504 2560 
C 1613 2560 1926 2560 2138 2120 
C 2253 1870 2253 1609 2253 1289 
C 2253 944 2253 690 2118 434 
C 1978 171 1773 25 1478 25 
z
" transform="scale(0.015625)"/>
       </defs>
       <use xlink:href="#CMR17-30" transform="scale(0.996264)"/>
       <use xlink:href="#CMMI12-3a" transform="translate(45.690477 0) scale(0.996264)"/>
       <use xlink:href="#CMR17-36" transform="translate(72.787654 0) scale(0.996264)"/>
      </g>
     </g>
    </g>
    <g id="ytick_5">
     <g id="line2d_19">
      <path d="M 84.740543 136.204615 
L 810.140543 136.204615 
" clip-path="url(#p8c623184e6)" style="fill: none; stroke: #b0b0b0; stroke-width: 0.8; stroke-linecap: square"/>
     </g>
     <g id="line2d_20">
      <g>
       <use xlink:href="#md105d77c31" x="84.740543" y="136.204615" style="stroke: #000000; stroke-width: 0.8"/>
      </g>
     </g>
     <g id="text_11">
      <!-- $\mathdefault{0.8}$ -->
      <g transform="translate(42.197103 146.582363) scale(0.3 -0.3)">
       <defs>
        <path id="CMR17-38" d="M 1741 2264 
C 2144 2467 2554 2773 2554 3263 
C 2554 3841 1990 4179 1472 4179 
C 890 4179 378 3759 378 3180 
C 378 3021 416 2747 666 2505 
C 730 2442 998 2251 1171 2130 
C 883 1983 211 1634 211 934 
C 211 279 838 -128 1459 -128 
C 2144 -128 2720 362 2720 1010 
C 2720 1590 2330 1857 2074 2029 
L 1741 2264 
z
M 902 2822 
C 851 2854 595 3051 595 3351 
C 595 3739 998 4032 1459 4032 
C 1965 4032 2336 3676 2336 3262 
C 2336 2669 1670 2331 1638 2331 
C 1632 2331 1626 2331 1574 2370 
L 902 2822 
z
M 2080 1519 
C 2176 1449 2483 1240 2483 851 
C 2483 381 2010 25 1472 25 
C 890 25 448 438 448 940 
C 448 1443 838 1862 1280 2060 
L 2080 1519 
z
" transform="scale(0.015625)"/>
       </defs>
       <use xlink:href="#CMR17-30" transform="scale(0.996264)"/>
       <use xlink:href="#CMMI12-3a" transform="translate(45.690477 0) scale(0.996264)"/>
       <use xlink:href="#CMR17-38" transform="translate(72.787654 0) scale(0.996264)"/>
      </g>
     </g>
    </g>
    <g id="ytick_6">
     <g id="line2d_21">
      <path d="M 84.740543 18.927692 
L 810.140543 18.927692 
" clip-path="url(#p8c623184e6)" style="fill: none; stroke: #b0b0b0; stroke-width: 0.8; stroke-linecap: square"/>
     </g>
     <g id="line2d_22">
      <g>
       <use xlink:href="#md105d77c31" x="84.740543" y="18.927692" style="stroke: #000000; stroke-width: 0.8"/>
      </g>
     </g>
     <g id="text_12">
      <!-- $\mathdefault{1.0}$ -->
      <g transform="translate(42.197103 29.30544) scale(0.3 -0.3)">
       <use xlink:href="#CMR17-31" transform="scale(0.996264)"/>
       <use xlink:href="#CMMI12-3a" transform="translate(45.690477 0) scale(0.996264)"/>
       <use xlink:href="#CMR17-30" transform="translate(72.787654 0) scale(0.996264)"/>
      </g>
     </g>
    </g>
    <g id="text_13">
     <!-- $S_1, \; -$ -->
     <g transform="translate(31.414752 354.516175) rotate(-90) scale(0.35 -0.35)">
      <defs>
       <path id="CMMI12-53" d="M 4064 4423 
C 4064 4480 4019 4480 4006 4480 
C 3981 4480 3974 4474 3898 4378 
C 3859 4333 3597 4001 3590 3995 
C 3379 4410 2957 4480 2688 4480 
C 1875 4480 1139 3743 1139 3025 
C 1139 2549 1427 2269 1741 2161 
C 1811 2135 2189 2033 2381 1989 
C 2707 1900 2790 1875 2925 1735 
C 2950 1703 3078 1557 3078 1258 
C 3078 667 2528 57 1888 57 
C 1363 57 781 280 781 991 
C 781 1112 806 1265 826 1328 
C 826 1348 832 1378 832 1391 
C 832 1417 819 1449 768 1449 
C 710 1449 704 1436 678 1328 
L 352 24 
C 352 18 326 -64 326 -71 
C 326 -128 378 -128 390 -128 
C 416 -128 422 -122 499 -26 
L 794 356 
C 947 126 1280 -128 1875 -128 
C 2701 -128 3456 666 3456 1460 
C 3456 1728 3392 1963 3149 2197 
C 3014 2331 2899 2363 2310 2516 
C 1882 2630 1824 2649 1709 2751 
C 1600 2858 1517 3011 1517 3227 
C 1517 3761 2061 4308 2669 4308 
C 3296 4308 3590 3926 3590 3323 
C 3590 3158 3558 2986 3558 2961 
C 3558 2903 3610 2903 3629 2903 
C 3686 2903 3693 2922 3718 3024 
L 4064 4423 
z
" transform="scale(0.015625)"/>
       <path id="CMSY10-0" d="M 4218 1472 
C 4326 1472 4442 1472 4442 1600 
C 4442 1728 4326 1728 4218 1728 
L 755 1728 
C 646 1728 531 1728 531 1600 
C 531 1472 646 1472 755 1472 
L 4218 1472 
z
" transform="scale(0.015625)"/>
      </defs>
      <use xlink:href="#CMMI12-53" transform="scale(0.996264)"/>
      <use xlink:href="#CMR17-31" transform="translate(59.994488 -14.943915) scale(0.697382)"/>
      <use xlink:href="#CMMI12-3b" transform="translate(92.475802 0) scale(0.996264)"/>
      <use xlink:href="#CMSY10-0" transform="translate(163.851393 0) scale(0.996264)"/>
     </g>
    </g>
   </g>
   <g id="patch_3">
    <path d="M 84.740543 617.04 
L 84.740543 7.2 
" style="fill: none; stroke: #000000; stroke-width: 0.8; stroke-linejoin: miter; stroke-linecap: square"/>
   </g>
   <g id="patch_4">
    <path d="M 810.140543 617.04 
L 810.140543 7.2 
" style="fill: none; stroke: #000000; stroke-width: 0.8; stroke-linejoin: miter; stroke-linecap: square"/>
   </g>
   <g id="patch_5">
    <path d="M 84.740543 617.04 
L 810.140543 617.04 
" style="fill: none; stroke: #000000; stroke-width: 0.8; stroke-linejoin: miter; stroke-linecap: square"/>
   </g>
   <g id="patch_6">
    <path d="M 84.740543 7.2 
L 810.140543 7.2 
" style="fill: none; stroke: #000000; stroke-width: 0.8; stroke-linejoin: miter; stroke-linecap: square"/>
   </g>
   <g id="legend_1">
    <g id="patch_7">
     <path d="M 833.436089 232.438667 
L 992.379543 232.438667 
Q 999.379543 232.438667 999.379543 225.438667 
L 999.379543 31.7 
Q 999.379543 24.7 992.379543 24.7 
L 833.436089 24.7 
Q 826.436089 24.7 826.436089 31.7 
L 826.436089 225.438667 
Q 826.436089 232.438667 833.436089 232.438667 
z
" style="fill: #ffffff; opacity: 0.8; stroke: #cccccc; stroke-linejoin: miter"/>
    </g>
    <g id="patch_8">
     <path d="M 840.436089 63.2 
L 910.436089 63.2 
L 910.436089 38.7 
L 840.436089 38.7 
z
" style="fill: #1f77b4"/>
    </g>
    <g id="text_14">
     <!-- $M$ -->
     <g transform="translate(938.436089 63.2) scale(0.35 -0.35)">
      <defs>
       <path id="CMMI12-4d" d="M 5811 3886 
C 5869 4103 5882 4167 6336 4167 
C 6458 4167 6515 4167 6515 4288 
C 6515 4352 6470 4352 6349 4352 
L 5581 4352 
C 5421 4352 5414 4346 5344 4243 
L 3008 562 
L 2528 4211 
C 2509 4352 2502 4352 2336 4352 
L 1542 4352 
C 1421 4352 1363 4352 1363 4231 
C 1363 4167 1421 4167 1517 4167 
C 1907 4167 1907 4116 1907 4046 
C 1907 4034 1907 3995 1882 3899 
L 1062 634 
C 986 327 838 186 410 186 
C 390 186 314 186 314 73 
C 314 0 371 0 397 0 
C 525 0 851 0 979 0 
L 1286 0 
C 1376 0 1485 0 1574 0 
C 1619 0 1690 0 1690 122 
C 1690 180 1626 186 1600 186 
C 1389 186 1184 224 1184 454 
C 1184 518 1184 524 1210 613 
L 2093 4129 
L 2099 4129 
L 2630 172 
C 2650 19 2656 0 2714 0 
C 2784 0 2816 51 2848 109 
L 5421 4161 
L 5427 4161 
L 4499 473 
C 4442 250 4429 186 3981 186 
C 3859 186 3795 186 3795 70 
C 3795 0 3853 0 3891 0 
C 4000 0 4128 0 4237 0 
L 4992 0 
C 5101 0 5235 0 5344 0 
C 5395 0 5466 0 5466 122 
C 5466 186 5408 186 5312 186 
C 4922 186 4922 234 4922 294 
C 4922 301 4922 345 4934 396 
L 5811 3886 
z
" transform="scale(0.015625)"/>
      </defs>
      <use xlink:href="#CMMI12-4d" transform="scale(0.996264)"/>
     </g>
    </g>
    <g id="patch_9">
     <path d="M 840.436089 111.982351 
L 910.436089 111.982351 
L 910.436089 87.482351 
L 840.436089 87.482351 
z
" style="fill: #ff7f0e"/>
    </g>
    <g id="text_15">
     <!-- $P$ -->
     <g transform="translate(938.436089 111.982351) scale(0.35 -0.35)">
      <defs>
       <path id="CMMI12-50" d="M 1894 2023 
L 2970 2023 
C 3853 2023 4736 2673 4736 3401 
C 4736 3898 4314 4352 3507 4352 
L 1530 4352 
C 1408 4352 1350 4352 1350 4231 
C 1350 4167 1408 4167 1504 4167 
C 1894 4167 1894 4116 1894 4046 
C 1894 4034 1894 3995 1869 3899 
L 1005 472 
C 947 249 934 185 486 185 
C 365 185 301 185 301 70 
C 301 0 358 0 397 0 
C 518 0 646 0 768 0 
L 1517 0 
C 1638 0 1773 0 1894 0 
C 1946 0 2016 0 2016 121 
C 2016 185 1958 185 1862 185 
C 1478 185 1472 230 1472 293 
C 1472 325 1478 369 1485 401 
L 1894 2023 
z
M 2355 3930 
C 2413 4167 2438 4167 2688 4167 
L 3322 4167 
C 3802 4167 4198 4013 4198 3535 
C 4198 3369 4115 2827 3821 2534 
C 3712 2419 3405 2176 2822 2176 
L 1920 2176 
L 2355 3930 
z
" transform="scale(0.015625)"/>
      </defs>
      <use xlink:href="#CMMI12-50" transform="scale(0.996264)"/>
     </g>
    </g>
    <g id="patch_10">
     <path d="M 840.436089 160.764702 
L 910.436089 160.764702 
L 910.436089 136.264702 
L 840.436089 136.264702 
z
" style="fill: #2ca02c"/>
    </g>
    <g id="text_16">
     <!-- $T$ -->
     <g transform="translate(938.436089 160.764702) scale(0.35 -0.35)">
      <defs>
       <path id="CMMI12-54" d="M 2669 3910 
C 2707 4064 2720 4121 2816 4147 
C 2867 4160 3078 4160 3213 4160 
C 3853 4160 4154 4134 4154 3634 
C 4154 3537 4128 3295 4090 3057 
L 4083 2980 
C 4083 2954 4109 2916 4147 2916 
C 4211 2916 4211 2948 4230 3050 
L 4416 4184 
C 4429 4243 4429 4256 4429 4275 
C 4429 4345 4390 4345 4262 4345 
L 762 4345 
C 614 4345 608 4339 570 4224 
L 179 3070 
C 173 3056 154 2986 154 2980 
C 154 2948 179 2916 218 2916 
C 269 2916 282 2941 307 3024 
C 576 3801 710 4160 1562 4160 
L 1990 4160 
C 2144 4160 2208 4160 2208 4089 
C 2208 4069 2208 4057 2176 3941 
L 1318 499 
C 1254 249 1242 185 563 185 
C 403 185 358 185 358 64 
C 358 0 429 0 461 0 
C 621 0 787 0 947 0 
L 1946 0 
C 2106 0 2278 0 2438 0 
C 2509 0 2573 0 2573 121 
C 2573 185 2528 185 2362 185 
C 1786 185 1786 243 1786 339 
C 1786 346 1786 391 1811 494 
L 2669 3910 
z
" transform="scale(0.015625)"/>
      </defs>
      <use xlink:href="#CMMI12-54" transform="scale(0.996264)"/>
     </g>
    </g>
    <g id="patch_11">
     <path d="M 840.436089 209.547054 
L 910.436089 209.547054 
L 910.436089 185.047054 
L 840.436089 185.047054 
z
" style="fill: #d62728"/>
    </g>
    <g id="text_17">
     <!-- $Y_{N_2}$ -->
     <g transform="translate(938.436089 209.547054) scale(0.35 -0.35)">
      <defs>
       <path id="CMMI12-59" d="M 3763 3645 
L 3910 3791 
C 4192 4078 4429 4149 4653 4167 
C 4723 4173 4781 4179 4781 4288 
C 4781 4352 4717 4352 4704 4352 
C 4627 4352 4544 4352 4467 4352 
L 4205 4352 
C 4019 4352 3821 4352 3642 4352 
C 3597 4352 3526 4352 3526 4226 
C 3526 4166 3590 4160 3610 4160 
C 3802 4160 3802 4064 3802 4026 
C 3802 3956 3750 3860 3622 3713 
L 2099 1969 
L 1376 3911 
C 1338 4000 1338 4013 1338 4026 
C 1338 4160 1600 4160 1677 4160 
C 1754 4160 1824 4160 1824 4279 
C 1824 4352 1766 4352 1728 4352 
C 1619 4352 1491 4352 1382 4352 
L 672 4352 
C 557 4352 435 4352 326 4352 
C 282 4352 211 4352 211 4226 
C 211 4160 269 4160 365 4160 
C 678 4160 736 4102 794 3956 
L 1587 1835 
C 1594 1816 1613 1745 1613 1726 
C 1613 1707 1299 452 1280 388 
C 1229 217 1165 185 755 185 
C 646 185 595 185 595 64 
C 595 0 666 0 685 0 
C 800 0 934 0 1056 0 
L 1811 0 
C 1926 0 2061 0 2176 0 
C 2221 0 2298 0 2298 115 
C 2298 185 2253 185 2144 185 
C 1747 185 1747 230 1747 300 
C 1747 345 1798 548 1830 676 
L 2061 1594 
C 2099 1727 2099 1739 2157 1803 
L 3763 3645 
z
" transform="scale(0.015625)"/>
       <path id="CMMI12-4e" d="M 4736 3698 
C 4806 3974 4909 4166 5395 4166 
C 5414 4166 5491 4166 5491 4279 
C 5491 4352 5434 4352 5408 4352 
C 5280 4352 4954 4352 4826 4352 
L 4518 4352 
C 4429 4352 4314 4352 4224 4352 
C 4186 4352 4109 4352 4109 4230 
C 4109 4166 4160 4166 4205 4166 
C 4589 4166 4614 4019 4614 3903 
C 4614 3846 4608 3826 4589 3737 
L 3866 850 
L 2496 4249 
C 2451 4352 2445 4352 2304 4352 
L 1523 4352 
C 1395 4352 1338 4352 1338 4230 
C 1338 4166 1382 4166 1504 4166 
C 1536 4166 1914 4166 1914 4115 
C 1914 4102 1901 4051 1894 4032 
L 1043 635 
C 966 320 813 186 390 186 
C 358 186 294 186 294 67 
C 294 0 358 0 378 0 
C 506 0 832 0 960 0 
L 1267 0 
C 1357 0 1466 0 1555 0 
C 1600 0 1670 0 1670 122 
C 1670 180 1606 186 1581 186 
C 1370 186 1165 224 1165 454 
C 1165 505 1178 562 1190 613 
L 2054 4032 
C 2093 3968 2093 3956 2118 3898 
L 3642 115 
C 3674 38 3686 0 3744 0 
C 3808 0 3814 19 3840 128 
L 4736 3698 
z
" transform="scale(0.015625)"/>
      </defs>
      <use xlink:href="#CMMI12-59" transform="scale(0.996264)"/>
      <use xlink:href="#CMMI12-4e" transform="translate(56.598607 -14.943915) scale(0.697382)"/>
      <use xlink:href="#CMR17-32" transform="translate(111.278947 -25.404611) scale(0.498132)"/>
     </g>
    </g>
   </g>
  </g>
 </g>
 <defs>
  <clipPath id="p8c623184e6">
   <rect x="84.740543" y="7.2" width="725.4" height="609.84"/>
  </clipPath>
 </defs>
</svg>
