<?xml version="1.0" encoding="utf-8" standalone="no"?>
<!DOCTYPE svg PUBLIC "-//W3C//DTD SVG 1.1//EN"
  "http://www.w3.org/Graphics/SVG/1.1/DTD/svg11.dtd">
<svg xmlns:xlink="http://www.w3.org/1999/xlink" width="1006.579543pt" height="692.806049pt" viewBox="0 0 1006.579543 692.806049" xmlns="http://www.w3.org/2000/svg" version="1.1">
 <metadata>
  <rdf:RDF xmlns:dc="http://purl.org/dc/elements/1.1/" xmlns:cc="http://creativecommons.org/ns#" xmlns:rdf="http://www.w3.org/1999/02/22-rdf-syntax-ns#">
   <cc:Work>
    <dc:type rdf:resource="http://purl.org/dc/dcmitype/StillImage"/>
    <dc:date>2025-03-19T17:00:09.324008</dc:date>
    <dc:format>image/svg+xml</dc:format>
    <dc:creator>
     <cc:Agent>
      <dc:title>Matplotlib v3.7.1, https://matplotlib.org/</dc:title>
     </cc:Agent>
    </dc:creator>
   </cc:Work>
  </rdf:RDF>
 </metadata>
 <defs>
  <style type="text/css">*{stroke-linejoin: round; stroke-linecap: butt}</style>
 </defs>
 <g id="figure_1">
  <g id="patch_1">
   <path d="M 0 692.806049 
L 1006.579543 692.806049 
L 1006.579543 0 
L 0 0 
z
" style="fill: #ffffff"/>
  </g>
  <g id="axes_1">
   <g id="patch_2">
    <path d="M 84.740543 617.04 
L 810.140543 617.04 
L 810.140543 7.2 
L 84.740543 7.2 
z
" style="fill: #ffffff"/>
   </g>
   <g id="PolyCollection_1">
    <path d="M -529.448308 555.434542 
L -529.448308 605.312308 
L -495.096852 605.312308 
L -470.020065 605.312308 
L -451.713553 605.312308 
L -438.349052 605.312308 
L -428.591888 605.312308 
L -421.467669 605.312308 
L -416.265003 605.312308 
L -412.590478 605.312308 
L -409.686832 605.312308 
L -407.299147 605.312308 
L -405.270505 605.312308 
L -403.072001 605.312308 
L -398.565481 605.312308 
L -396.186796 605.312308 
L -394.058962 605.312308 
L -390.922497 605.312308 
L -389.091157 605.312308 
L -387.299183 605.312308 
L -385.412233 605.312308 
L -383.576184 605.312308 
L -381.599488 605.312308 
L -379.522844 605.312308 
L -377.56533 605.312308 
L -375.421053 605.312308 
L -371.565972 605.312308 
L -367.817411 605.312308 
L -364.205423 605.312308 
L -359.357271 605.312308 
L -353.500286 605.312308 
L -347.827253 605.312308 
L -341.099117 605.312308 
L -333.220948 605.312308 
L -324.207906 605.312308 
L -317.23335 605.312308 
L -309.136536 605.312308 
L -300.04293 605.312308 
L -290.176287 605.312308 
L -280.15491 605.312308 
L -271.026505 605.312308 
L -262.34492 605.312308 
L -252.808781 605.312308 
L -242.979512 605.312308 
L -232.21126 605.312308 
L -220.601654 605.312308 
L -208.138839 605.312308 
L -194.741629 605.312308 
L -184.102111 605.312308 
L -172.737355 605.312308 
L -156.684456 605.312308 
L -139.426428 605.312308 
L -120.921779 605.312308 
L -100.248303 605.312308 
L -80.063608 605.312308 
L -57.306163 605.312308 
L -32.8402 605.312308 
L -19.15079 605.312308 
L -6.190095 605.312308 
L 7.346541 605.312308 
L 21.74163 605.312308 
L 35.952583 605.312308 
L 46.558634 605.312308 
L 54.11159 605.312308 
L 60.663623 605.312308 
L 65.823188 605.312308 
L 70.329362 605.312308 
L 74.585519 605.312308 
L 76.713598 605.312308 
L 78.841677 605.312308 
L 80.001573 605.312308 
L 80.969755 605.312308 
L 82.059253 605.312308 
L 83.097834 605.312308 
L 83.685868 605.312308 
L 84.220205 605.312308 
L 84.764872 605.312308 
L 85.225913 605.312308 
L 86.027166 605.312308 
L 86.777793 605.312308 
L 87.491218 605.312308 
L 88.329672 605.312308 
L 89.070566 605.312308 
L 89.881552 605.312308 
L 90.650672 605.312308 
L 91.433432 605.312308 
L 92.133786 605.312308 
L 92.985312 605.312308 
L 94.537191 605.312308 
L 96.089071 605.312308 
L 97.640951 605.312308 
L 99.192831 605.312308 
L 100.74471 605.312308 
L 102.29659 605.312308 
L 103.84847 605.312308 
L 105.40035 605.312308 
L 106.952229 605.312308 
L 108.433259 605.312308 
L 110.055989 605.312308 
L 112.962733 605.312308 
L 116.263508 605.312308 
L 118.591328 605.312308 
L 120.919147 605.312308 
L 124.022907 605.312308 
L 127.036494 605.312308 
L 130.230426 605.312308 
L 133.038057 605.312308 
L 135.721678 605.312308 
L 138.198775 605.312308 
L 141.093584 605.312308 
L 144.197344 605.312308 
L 148.250379 605.312308 
L 151.956743 605.312308 
L 155.282911 605.312308 
L 158.552717 605.312308 
L 161.599563 605.312308 
L 164.929764 605.312308 
L 169.071981 605.312308 
L 173.076952 605.312308 
L 176.278192 605.312308 
L 179.758833 605.312308 
L 183.544527 605.312308 
L 187.663381 605.312308 
L 189.869124 605.312308 
L 192.146559 605.312308 
L 194.613169 605.312308 
L 197.026171 605.312308 
L 199.713424 605.312308 
L 202.332023 605.312308 
L 205.357336 605.312308 
L 208.106339 605.312308 
L 211.07825 605.312308 
L 214.381055 605.312308 
L 217.737788 605.312308 
L 221.199394 605.312308 
L 225.065245 605.312308 
L 228.596977 605.312308 
L 232.586933 605.312308 
L 236.610147 605.312308 
L 240.86269 605.312308 
L 245.271717 605.312308 
L 249.948745 605.312308 
L 254.602991 605.312308 
L 259.398301 605.312308 
L 264.608895 605.312308 
L 269.738225 605.312308 
L 275.25752 605.312308 
L 280.716619 605.312308 
L 286.3849 605.312308 
L 291.782077 605.312308 
L 297.558434 605.312308 
L 303.057226 605.312308 
L 308.731968 605.312308 
L 314.142785 605.312308 
L 319.905503 605.312308 
L 325.773245 605.312308 
L 331.079037 605.312308 
L 337.010885 605.312308 
L 342.252571 605.312308 
L 347.429469 605.312308 
L 353.426105 605.312308 
L 359.335448 605.312308 
L 364.59964 605.312308 
L 370.212322 605.312308 
L 375.773174 605.312308 
L 381.339482 605.312308 
L 386.946708 605.312308 
L 392.862189 605.312308 
L 398.120243 605.312308 
L 404.191215 605.312308 
L 409.293777 605.312308 
L 412.672977 605.312308 
L 415.595258 605.312308 
L 418.168668 605.312308 
L 420.467311 605.312308 
L 423.386704 605.312308 
L 426.224573 605.312308 
L 428.977008 605.312308 
L 431.640846 605.312308 
L 433.884815 605.312308 
L 435.235125 605.312308 
L 436.424242 605.312308 
L 437.889819 605.312308 
L 439.352535 605.312308 
L 440.946539 605.312308 
L 442.81438 605.312308 
L 443.644707 605.312308 
L 444.5312 605.312308 
L 445.471711 605.312308 
L 446.462678 605.312308 
L 448.378493 605.312308 
L 450.336871 605.312308 
L 452.293982 605.312308 
L 454.400914 605.312308 
L 456.41365 605.312308 
L 458.611418 605.312308 
L 460.59169 605.312308 
L 462.794601 605.312308 
L 464.676411 605.312308 
L 466.817509 605.312308 
L 470.687113 605.312308 
L 474.408457 605.312308 
L 478.134105 605.312308 
L 482.013867 605.312308 
L 486.040684 605.312308 
L 490.205495 605.312308 
L 495.614525 605.312308 
L 501.796071 605.312308 
L 507.52673 605.312308 
L 513.550093 605.312308 
L 521.799572 605.312308 
L 529.347131 605.312308 
L 537.59661 605.312308 
L 553.393648 605.312308 
L 569.190687 605.312308 
L 584.987725 605.312308 
L 600.784763 605.312308 
L 616.581802 605.312308 
L 632.37884 605.312308 
L 648.175878 605.312308 
L 663.972917 605.312308 
L 695.566993 605.312308 
L 715.341255 605.312308 
L 736.014122 605.312308 
L 756.176981 605.312308 
L 774.552185 605.312308 
L 790.349223 605.312308 
L 805.043246 605.312308 
L 821.9433 605.312308 
L 821.9433 416.99796 
L 821.9433 416.99796 
L 805.043246 416.830393 
L 790.349223 416.54328 
L 774.552185 416.119152 
L 756.176981 415.423709 
L 736.014122 414.549073 
L 715.341255 413.537631 
L 695.566993 412.546415 
L 663.972917 410.788673 
L 648.175878 410.140338 
L 632.37884 409.362528 
L 616.581802 408.846558 
L 600.784763 408.259239 
L 584.987725 407.208231 
L 569.190687 405.968046 
L 553.393648 404.613997 
L 537.59661 402.98665 
L 529.347131 402.259381 
L 521.799572 401.433146 
L 513.550093 399.724229 
L 507.52673 398.442636 
L 501.796071 396.990838 
L 495.614525 395.570392 
L 490.205495 394.017771 
L 486.040684 393.276599 
L 482.013867 392.289689 
L 478.134105 391.580093 
L 474.408457 390.719713 
L 470.687113 389.941895 
L 466.817509 389.119488 
L 464.676411 388.800528 
L 462.794601 388.606279 
L 460.59169 388.256186 
L 458.611418 388.050026 
L 456.41365 387.7894 
L 454.400914 387.596107 
L 452.293982 387.381125 
L 450.336871 387.113189 
L 448.378493 386.96047 
L 446.462678 386.646685 
L 445.471711 386.571597 
L 444.5312 386.347929 
L 443.644707 386.142295 
L 442.81438 385.870542 
L 440.946539 385.394241 
L 439.352535 384.930143 
L 437.889819 384.675078 
L 436.424242 384.210524 
L 435.235125 384.441691 
L 433.884815 383.979048 
L 431.640846 384.209331 
L 428.977008 383.348064 
L 426.224573 383.461252 
L 423.386704 381.72393 
L 420.467311 380.702047 
L 418.168668 377.587256 
L 415.595258 374.63255 
L 412.672977 369.774914 
L 409.293777 364.690986 
L 404.191215 358.342531 
L 398.120243 351.881088 
L 392.862189 344.784174 
L 386.946708 338.047683 
L 381.339482 331.06548 
L 375.773174 325.581015 
L 370.212322 320.327021 
L 364.59964 317.457586 
L 359.335448 314.715909 
L 353.426105 314.337794 
L 347.429469 313.486871 
L 342.252571 314.329834 
L 337.010885 314.476209 
L 331.079037 315.50736 
L 325.773245 314.740567 
L 319.905503 314.893102 
L 314.142785 313.557177 
L 308.731968 313.579776 
L 303.057226 312.016529 
L 297.558434 312.074918 
L 291.782077 310.581642 
L 286.3849 310.019759 
L 280.716619 308.812498 
L 275.25752 307.857071 
L 269.738225 307.094975 
L 264.608895 306.519126 
L 259.398301 306.829851 
L 254.602991 307.423675 
L 249.948745 309.183594 
L 245.271717 310.995163 
L 240.86269 313.788619 
L 236.610147 316.2804 
L 232.586933 319.516212 
L 228.596977 321.895665 
L 225.065245 325.252728 
L 221.199394 327.638097 
L 217.737788 331.062076 
L 214.381055 334.043213 
L 211.07825 338.044038 
L 208.106339 341.740592 
L 205.357336 346.204097 
L 202.332023 350.139739 
L 199.713424 353.951864 
L 197.026171 356.973301 
L 194.613169 360.419823 
L 192.146559 362.226195 
L 189.869124 364.629106 
L 187.663381 364.781893 
L 183.544527 365.52193 
L 179.758833 363.625235 
L 176.278192 362.025119 
L 173.076952 358.145877 
L 169.071981 353.606041 
L 164.929764 347.139504 
L 161.599563 341.742673 
L 158.552717 336.036813 
L 155.282911 330.683474 
L 151.956743 325.242948 
L 148.250379 319.21079 
L 144.197344 313.882509 
L 141.093584 309.931404 
L 138.198775 306.981263 
L 135.721678 304.147812 
L 133.038057 302.169556 
L 130.230426 300.122864 
L 127.036494 298.380392 
L 124.022907 296.667214 
L 120.919147 294.536408 
L 118.591328 293.174728 
L 116.263508 291.68536 
L 112.962733 291.120208 
L 110.055989 290.091307 
L 108.433259 289.245403 
L 106.952229 288.843758 
L 105.40035 287.159922 
L 103.84847 286.082444 
L 102.29659 284.330774 
L 100.74471 282.643925 
L 99.192831 281.363094 
L 97.640951 279.67675 
L 96.089071 282.682521 
L 94.537191 289.505951 
L 92.985312 307.178402 
L 92.133786 315.865937 
L 91.433432 327.308847 
L 90.650672 343.976928 
L 89.881552 364.042849 
L 89.070566 392.563467 
L 88.329672 418.916598 
L 87.491218 496.313158 
L 86.777793 547.562317 
L 86.027166 564.883433 
L 85.225913 550.661154 
L 84.764872 541.12222 
L 84.220205 520.503491 
L 83.685868 537.512945 
L 83.097834 548.434964 
L 82.059253 564.450149 
L 80.969755 573.570955 
L 80.001573 582.427661 
L 78.841677 584.242847 
L 76.713598 587.420687 
L 74.585519 581.773814 
L 70.329362 573.655751 
L 65.823188 561.761208 
L 60.663623 559.392875 
L 54.11159 556.453501 
L 46.558634 554.910587 
L 35.952583 554.811169 
L 21.74163 553.068053 
L 7.346541 553.518156 
L -6.190095 551.278493 
L -19.15079 552.058048 
L -32.8402 548.718512 
L -57.306163 547.09898 
L -80.063608 543.388803 
L -100.248303 540.666267 
L -120.921779 536.791776 
L -139.426428 533.090497 
L -156.684456 530.3505 
L -172.737355 526.973166 
L -184.102111 524.892559 
L -194.741629 522.461871 
L -208.138839 521.048814 
L -220.601654 520.163806 
L -232.21126 519.607153 
L -242.979512 519.59625 
L -252.808781 520.048651 
L -262.34492 520.444457 
L -271.026505 521.884947 
L -280.15491 522.499852 
L -290.176287 524.390226 
L -300.04293 525.145958 
L -309.136536 526.840198 
L -317.23335 526.916585 
L -324.207906 528.248588 
L -333.220948 527.907698 
L -341.099117 528.324964 
L -347.827253 526.240645 
L -353.500286 525.039336 
L -359.357271 523.000703 
L -364.205423 523.319945 
L -367.817411 523.314355 
L -371.565972 525.339794 
L -375.421053 527.12862 
L -377.56533 528.744478 
L -379.522844 531.089052 
L -381.599488 534.561625 
L -383.576184 536.999704 
L -385.412233 543.983575 
L -387.299183 546.44695 
L -389.091157 558.756286 
L -390.922497 564.236293 
L -394.058962 589.867028 
L -396.186796 603.521855 
L -398.565481 576.802018 
L -403.072001 593.181537 
L -405.270505 599.225032 
L -407.299147 587.581092 
L -409.686832 574.206031 
L -412.590478 571.282319 
L -416.265003 560.384845 
L -421.467669 562.201262 
L -428.591888 555.906214 
L -438.349052 558.238674 
L -451.713553 555.579613 
L -470.020065 556.254237 
L -495.096852 555.454456 
L -529.448308 555.434542 
z
" clip-path="url(#pcfea906bd5)" style="fill: #1f77b4"/>
   </g>
   <g id="PolyCollection_2">
    <path d="M -529.448308 501.782762 
L -529.448308 555.434542 
L -495.096852 555.454456 
L -470.020065 556.254237 
L -451.713553 555.579613 
L -438.349052 558.238674 
L -428.591888 555.906214 
L -421.467669 562.201262 
L -416.265003 560.384845 
L -412.590478 571.282319 
L -409.686832 574.206031 
L -407.299147 587.581092 
L -405.270505 599.225032 
L -403.072001 593.181537 
L -398.565481 576.802018 
L -396.186796 603.521855 
L -394.058962 589.867028 
L -390.922497 564.236293 
L -389.091157 558.756286 
L -387.299183 546.44695 
L -385.412233 543.983575 
L -383.576184 536.999704 
L -381.599488 534.561625 
L -379.522844 531.089052 
L -377.56533 528.744478 
L -375.421053 527.12862 
L -371.565972 525.339794 
L -367.817411 523.314355 
L -364.205423 523.319945 
L -359.357271 523.000703 
L -353.500286 525.039336 
L -347.827253 526.240645 
L -341.099117 528.324964 
L -333.220948 527.907698 
L -324.207906 528.248588 
L -317.23335 526.916585 
L -309.136536 526.840198 
L -300.04293 525.145958 
L -290.176287 524.390226 
L -280.15491 522.499852 
L -271.026505 521.884947 
L -262.34492 520.444457 
L -252.808781 520.048651 
L -242.979512 519.59625 
L -232.21126 519.607153 
L -220.601654 520.163806 
L -208.138839 521.048814 
L -194.741629 522.461871 
L -184.102111 524.892559 
L -172.737355 526.973166 
L -156.684456 530.3505 
L -139.426428 533.090497 
L -120.921779 536.791776 
L -100.248303 540.666267 
L -80.063608 543.388803 
L -57.306163 547.09898 
L -32.8402 548.718512 
L -19.15079 552.058048 
L -6.190095 551.278493 
L 7.346541 553.518156 
L 21.74163 553.068053 
L 35.952583 554.811169 
L 46.558634 554.910587 
L 54.11159 556.453501 
L 60.663623 559.392875 
L 65.823188 561.761208 
L 70.329362 573.655751 
L 74.585519 581.773814 
L 76.713598 587.420687 
L 78.841677 584.242847 
L 80.001573 582.427661 
L 80.969755 573.570955 
L 82.059253 564.450149 
L 83.097834 548.434964 
L 83.685868 537.512945 
L 84.220205 520.503491 
L 84.764872 541.12222 
L 85.225913 550.661154 
L 86.027166 564.883433 
L 86.777793 547.562317 
L 87.491218 496.313158 
L 88.329672 418.916598 
L 89.070566 392.563467 
L 89.881552 364.042849 
L 90.650672 343.976928 
L 91.433432 327.308847 
L 92.133786 315.865937 
L 92.985312 307.178402 
L 94.537191 289.505951 
L 96.089071 282.682521 
L 97.640951 279.67675 
L 99.192831 281.363094 
L 100.74471 282.643925 
L 102.29659 284.330774 
L 103.84847 286.082444 
L 105.40035 287.159922 
L 106.952229 288.843758 
L 108.433259 289.245403 
L 110.055989 290.091307 
L 112.962733 291.120208 
L 116.263508 291.68536 
L 118.591328 293.174728 
L 120.919147 294.536408 
L 124.022907 296.667214 
L 127.036494 298.380392 
L 130.230426 300.122864 
L 133.038057 302.169556 
L 135.721678 304.147812 
L 138.198775 306.981263 
L 141.093584 309.931404 
L 144.197344 313.882509 
L 148.250379 319.21079 
L 151.956743 325.242948 
L 155.282911 330.683474 
L 158.552717 336.036813 
L 161.599563 341.742673 
L 164.929764 347.139504 
L 169.071981 353.606041 
L 173.076952 358.145877 
L 176.278192 362.025119 
L 179.758833 363.625235 
L 183.544527 365.52193 
L 187.663381 364.781893 
L 189.869124 364.629106 
L 192.146559 362.226195 
L 194.613169 360.419823 
L 197.026171 356.973301 
L 199.713424 353.951864 
L 202.332023 350.139739 
L 205.357336 346.204097 
L 208.106339 341.740592 
L 211.07825 338.044038 
L 214.381055 334.043213 
L 217.737788 331.062076 
L 221.199394 327.638097 
L 225.065245 325.252728 
L 228.596977 321.895665 
L 232.586933 319.516212 
L 236.610147 316.2804 
L 240.86269 313.788619 
L 245.271717 310.995163 
L 249.948745 309.183594 
L 254.602991 307.423675 
L 259.398301 306.829851 
L 264.608895 306.519126 
L 269.738225 307.094975 
L 275.25752 307.857071 
L 280.716619 308.812498 
L 286.3849 310.019759 
L 291.782077 310.581642 
L 297.558434 312.074918 
L 303.057226 312.016529 
L 308.731968 313.579776 
L 314.142785 313.557177 
L 319.905503 314.893102 
L 325.773245 314.740567 
L 331.079037 315.50736 
L 337.010885 314.476209 
L 342.252571 314.329834 
L 347.429469 313.486871 
L 353.426105 314.337794 
L 359.335448 314.715909 
L 364.59964 317.457586 
L 370.212322 320.327021 
L 375.773174 325.581015 
L 381.339482 331.06548 
L 386.946708 338.047683 
L 392.862189 344.784174 
L 398.120243 351.881088 
L 404.191215 358.342531 
L 409.293777 364.690986 
L 412.672977 369.774914 
L 415.595258 374.63255 
L 418.168668 377.587256 
L 420.467311 380.702047 
L 423.386704 381.72393 
L 426.224573 383.461252 
L 428.977008 383.348064 
L 431.640846 384.209331 
L 433.884815 383.979048 
L 435.235125 384.441691 
L 436.424242 384.210524 
L 437.889819 384.675078 
L 439.352535 384.930143 
L 440.946539 385.394241 
L 442.81438 385.870542 
L 443.644707 386.142295 
L 444.5312 386.347929 
L 445.471711 386.571597 
L 446.462678 386.646685 
L 448.378493 386.96047 
L 450.336871 387.113189 
L 452.293982 387.381125 
L 454.400914 387.596107 
L 456.41365 387.7894 
L 458.611418 388.050026 
L 460.59169 388.256186 
L 462.794601 388.606279 
L 464.676411 388.800528 
L 466.817509 389.119488 
L 470.687113 389.941895 
L 474.408457 390.719713 
L 478.134105 391.580093 
L 482.013867 392.289689 
L 486.040684 393.276599 
L 490.205495 394.017771 
L 495.614525 395.570392 
L 501.796071 396.990838 
L 507.52673 398.442636 
L 513.550093 399.724229 
L 521.799572 401.433146 
L 529.347131 402.259381 
L 537.59661 402.98665 
L 553.393648 404.613997 
L 569.190687 405.968046 
L 584.987725 407.208231 
L 600.784763 408.259239 
L 616.581802 408.846558 
L 632.37884 409.362528 
L 648.175878 410.140338 
L 663.972917 410.788673 
L 695.566993 412.546415 
L 715.341255 413.537631 
L 736.014122 414.549073 
L 756.176981 415.423709 
L 774.552185 416.119152 
L 790.349223 416.54328 
L 805.043246 416.830393 
L 821.9433 416.99796 
L 821.9433 402.151136 
L 821.9433 402.151136 
L 805.043246 401.991551 
L 790.349223 401.720739 
L 774.552185 401.319099 
L 756.176981 400.656844 
L 736.014122 399.819941 
L 715.341255 398.856843 
L 695.566993 397.918647 
L 663.972917 396.227575 
L 648.175878 395.64257 
L 632.37884 394.940647 
L 616.581802 394.506558 
L 600.784763 393.999939 
L 584.987725 393.052632 
L 569.190687 391.931866 
L 553.393648 390.699286 
L 537.59661 389.208536 
L 529.347131 388.591833 
L 521.799572 387.877584 
L 513.550093 386.314758 
L 507.52673 385.171478 
L 501.796071 383.843088 
L 495.614525 382.558197 
L 490.205495 381.135829 
L 486.040684 380.493576 
L 482.013867 379.631726 
L 478.134105 379.007637 
L 474.408457 378.274622 
L 470.687113 377.564422 
L 466.817509 376.870907 
L 464.676411 376.628015 
L 462.794601 376.513343 
L 460.59169 376.293976 
L 458.611418 376.219768 
L 456.41365 376.043748 
L 454.400914 375.943832 
L 452.293982 375.880831 
L 450.336871 375.770146 
L 448.378493 375.717016 
L 446.462678 375.51102 
L 445.471711 375.613317 
L 444.5312 375.574031 
L 443.644707 375.56341 
L 442.81438 375.493313 
L 440.946539 375.140831 
L 439.352535 374.819417 
L 437.889819 374.769105 
L 436.424242 374.513522 
L 435.235125 374.89178 
L 433.884815 374.565709 
L 431.640846 374.961595 
L 428.977008 374.113478 
L 426.224573 374.357705 
L 423.386704 372.611004 
L 420.467311 371.680419 
L 418.168668 368.541717 
L 415.595258 365.639735 
L 412.672977 360.752944 
L 409.293777 355.692111 
L 404.191215 349.322098 
L 398.120243 342.877884 
L 392.862189 335.775729 
L 386.946708 329.065167 
L 381.339482 322.29854 
L 375.773174 317.050849 
L 370.212322 312.053563 
L 364.59964 309.456169 
L 359.335448 307.009188 
L 353.426105 306.915611 
L 347.429469 306.365873 
L 342.252571 307.5407 
L 337.010885 308.025409 
L 331.079037 309.379089 
L 325.773245 308.909076 
L 319.905503 309.32451 
L 314.142785 308.29534 
L 308.731968 308.606195 
L 303.057226 307.261964 
L 297.558434 307.529246 
L 291.782077 306.248904 
L 286.3849 305.88148 
L 280.716619 304.864901 
L 275.25752 304.088246 
L 269.738225 303.496046 
L 264.608895 303.077267 
L 259.398301 303.532839 
L 254.602991 304.258081 
L 249.948745 306.134948 
L 245.271717 308.054215 
L 240.86269 310.933468 
L 236.610147 313.498821 
L 232.586933 316.774503 
L 228.596977 319.207343 
L 225.065245 322.578353 
L 221.199394 324.979671 
L 217.737788 328.415556 
L 214.381055 331.36237 
L 211.07825 335.33757 
L 208.106339 339.003697 
L 205.357336 343.435738 
L 202.332023 347.336546 
L 199.713424 350.954805 
L 197.026171 353.801662 
L 194.613169 357.077511 
L 192.146559 358.739232 
L 189.869124 361.021249 
L 187.663381 361.075585 
L 183.544527 361.8675 
L 179.758833 360.054652 
L 176.278192 358.51166 
L 173.076952 354.728397 
L 169.071981 350.300736 
L 164.929764 343.92451 
L 161.599563 338.562661 
L 158.552717 332.840375 
L 155.282911 327.433681 
L 151.956743 321.88697 
L 148.250379 315.726726 
L 144.197344 310.168157 
L 141.093584 305.876714 
L 138.198775 302.590065 
L 135.721678 299.405187 
L 133.038057 296.985798 
L 130.230426 294.365538 
L 127.036494 291.873616 
L 124.022907 289.290804 
L 120.919147 286.049311 
L 118.591328 283.707437 
L 116.263508 281.045617 
L 112.962733 278.795488 
L 110.055989 276.017431 
L 108.433259 273.869766 
L 106.952229 272.147906 
L 105.40035 268.939898 
L 103.84847 266.247334 
L 102.29659 262.756392 
L 100.74471 259.228536 
L 99.192831 255.995801 
L 97.640951 252.264255 
L 96.089071 252.92307 
L 94.537191 257.28525 
L 92.985312 272.411201 
L 92.133786 279.673181 
L 91.433432 289.918987 
L 90.650672 305.326766 
L 89.881552 324.200353 
L 89.070566 351.55216 
L 88.329672 376.870198 
L 87.491218 453.042376 
L 86.777793 503.242368 
L 86.027166 519.590577 
L 85.225913 504.396116 
L 84.764872 494.593605 
L 84.220205 473.685879 
L 83.685868 490.451462 
L 83.097834 501.117987 
L 82.059253 516.95419 
L 80.969755 525.688173 
L 80.001573 534.522211 
L 78.841677 536.122404 
L 76.713598 538.862906 
L 74.585519 532.785845 
L 70.329362 523.857216 
L 65.823188 511.135953 
L 60.663623 508.430813 
L 54.11159 505.610338 
L 46.558634 504.185779 
L 35.952583 504.404493 
L 21.74163 502.831447 
L 7.346541 503.65777 
L -6.190095 501.514319 
L -19.15079 502.409694 
L -32.8402 499.450489 
L -57.306163 498.110438 
L -80.063608 494.659158 
L -100.248303 492.320167 
L -120.921779 488.830041 
L -139.426428 485.637185 
L -156.684456 483.250451 
L -172.737355 480.383624 
L -184.102111 478.656416 
L -194.741629 476.689838 
L -208.138839 475.65746 
L -220.601654 475.228105 
L -232.21126 475.027392 
L -242.979512 475.413216 
L -252.808781 476.180915 
L -262.34492 476.920512 
L -271.026505 478.605314 
L -280.15491 479.458743 
L -290.176287 481.522982 
L -300.04293 482.275947 
L -309.136536 483.803913 
L -317.23335 483.570882 
L -324.207906 484.47807 
L -333.220948 482.93049 
L -341.099117 481.822953 
L -347.827253 478.146367 
L -353.500286 475.380813 
L -359.357271 471.430087 
L -364.205423 470.25838 
L -367.817411 469.359843 
L -371.565972 470.478678 
L -375.421053 471.350338 
L -377.56533 472.667258 
L -379.522844 474.821782 
L -381.599488 478.13526 
L -383.576184 480.474292 
L -385.412233 487.487646 
L -387.299183 489.952224 
L -389.091157 502.370331 
L -390.922497 508.013651 
L -394.058962 533.488158 
L -396.186796 547.377298 
L -398.565481 520.876493 
L -403.072001 537.315086 
L -405.270505 543.564674 
L -407.299147 532.21741 
L -409.686832 519.072173 
L -412.590478 516.659519 
L -416.265003 506.087072 
L -421.467669 507.838892 
L -428.591888 501.744995 
L -438.349052 504.247348 
L -451.713553 501.725156 
L -470.020065 502.502392 
L -495.096852 501.770014 
L -529.448308 501.782762 
z
" clip-path="url(#pcfea906bd5)" style="fill: #ff7f0e"/>
   </g>
   <g id="PolyCollection_3">
    <path d="M -529.448308 34.464145 
L -529.448308 501.782762 
L -495.096852 501.770014 
L -470.020065 502.502392 
L -451.713553 501.725156 
L -438.349052 504.247348 
L -428.591888 501.744995 
L -421.467669 507.838892 
L -416.265003 506.087072 
L -412.590478 516.659519 
L -409.686832 519.072173 
L -407.299147 532.21741 
L -405.270505 543.564674 
L -403.072001 537.315086 
L -398.565481 520.876493 
L -396.186796 547.377298 
L -394.058962 533.488158 
L -390.922497 508.013651 
L -389.091157 502.370331 
L -387.299183 489.952224 
L -385.412233 487.487646 
L -383.576184 480.474292 
L -381.599488 478.13526 
L -379.522844 474.821782 
L -377.56533 472.667258 
L -375.421053 471.350338 
L -371.565972 470.478678 
L -367.817411 469.359843 
L -364.205423 470.25838 
L -359.357271 471.430087 
L -353.500286 475.380813 
L -347.827253 478.146367 
L -341.099117 481.822953 
L -333.220948 482.93049 
L -324.207906 484.47807 
L -317.23335 483.570882 
L -309.136536 483.803913 
L -300.04293 482.275947 
L -290.176287 481.522982 
L -280.15491 479.458743 
L -271.026505 478.605314 
L -262.34492 476.920512 
L -252.808781 476.180915 
L -242.979512 475.413216 
L -232.21126 475.027392 
L -220.601654 475.228105 
L -208.138839 475.65746 
L -194.741629 476.689838 
L -184.102111 478.656416 
L -172.737355 480.383624 
L -156.684456 483.250451 
L -139.426428 485.637185 
L -120.921779 488.830041 
L -100.248303 492.320167 
L -80.063608 494.659158 
L -57.306163 498.110438 
L -32.8402 499.450489 
L -19.15079 502.409694 
L -6.190095 501.514319 
L 7.346541 503.65777 
L 21.74163 502.831447 
L 35.952583 504.404493 
L 46.558634 504.185779 
L 54.11159 505.610338 
L 60.663623 508.430813 
L 65.823188 511.135953 
L 70.329362 523.857216 
L 74.585519 532.785845 
L 76.713598 538.862906 
L 78.841677 536.122404 
L 80.001573 534.522211 
L 80.969755 525.688173 
L 82.059253 516.95419 
L 83.097834 501.117987 
L 83.685868 490.451462 
L 84.220205 473.685879 
L 84.764872 494.593605 
L 85.225913 504.396116 
L 86.027166 519.590577 
L 86.777793 503.242368 
L 87.491218 453.042376 
L 88.329672 376.870198 
L 89.070566 351.55216 
L 89.881552 324.200353 
L 90.650672 305.326766 
L 91.433432 289.918987 
L 92.133786 279.673181 
L 92.985312 272.411201 
L 94.537191 257.28525 
L 96.089071 252.92307 
L 97.640951 252.264255 
L 99.192831 255.995801 
L 100.74471 259.228536 
L 102.29659 262.756392 
L 103.84847 266.247334 
L 105.40035 268.939898 
L 106.952229 272.147906 
L 108.433259 273.869766 
L 110.055989 276.017431 
L 112.962733 278.795488 
L 116.263508 281.045617 
L 118.591328 283.707437 
L 120.919147 286.049311 
L 124.022907 289.290804 
L 127.036494 291.873616 
L 130.230426 294.365538 
L 133.038057 296.985798 
L 135.721678 299.405187 
L 138.198775 302.590065 
L 141.093584 305.876714 
L 144.197344 310.168157 
L 148.250379 315.726726 
L 151.956743 321.88697 
L 155.282911 327.433681 
L 158.552717 332.840375 
L 161.599563 338.562661 
L 164.929764 343.92451 
L 169.071981 350.300736 
L 173.076952 354.728397 
L 176.278192 358.51166 
L 179.758833 360.054652 
L 183.544527 361.8675 
L 187.663381 361.075585 
L 189.869124 361.021249 
L 192.146559 358.739232 
L 194.613169 357.077511 
L 197.026171 353.801662 
L 199.713424 350.954805 
L 202.332023 347.336546 
L 205.357336 343.435738 
L 208.106339 339.003697 
L 211.07825 335.33757 
L 214.381055 331.36237 
L 217.737788 328.415556 
L 221.199394 324.979671 
L 225.065245 322.578353 
L 228.596977 319.207343 
L 232.586933 316.774503 
L 236.610147 313.498821 
L 240.86269 310.933468 
L 245.271717 308.054215 
L 249.948745 306.134948 
L 254.602991 304.258081 
L 259.398301 303.532839 
L 264.608895 303.077267 
L 269.738225 303.496046 
L 275.25752 304.088246 
L 280.716619 304.864901 
L 286.3849 305.88148 
L 291.782077 306.248904 
L 297.558434 307.529246 
L 303.057226 307.261964 
L 308.731968 308.606195 
L 314.142785 308.29534 
L 319.905503 309.32451 
L 325.773245 308.909076 
L 331.079037 309.379089 
L 337.010885 308.025409 
L 342.252571 307.5407 
L 347.429469 306.365873 
L 353.426105 306.915611 
L 359.335448 307.009188 
L 364.59964 309.456169 
L 370.212322 312.053563 
L 375.773174 317.050849 
L 381.339482 322.29854 
L 386.946708 329.065167 
L 392.862189 335.775729 
L 398.120243 342.877884 
L 404.191215 349.322098 
L 409.293777 355.692111 
L 412.672977 360.752944 
L 415.595258 365.639735 
L 418.168668 368.541717 
L 420.467311 371.680419 
L 423.386704 372.611004 
L 426.224573 374.357705 
L 428.977008 374.113478 
L 431.640846 374.961595 
L 433.884815 374.565709 
L 435.235125 374.89178 
L 436.424242 374.513522 
L 437.889819 374.769105 
L 439.352535 374.819417 
L 440.946539 375.140831 
L 442.81438 375.493313 
L 443.644707 375.56341 
L 444.5312 375.574031 
L 445.471711 375.613317 
L 446.462678 375.51102 
L 448.378493 375.717016 
L 450.336871 375.770146 
L 452.293982 375.880831 
L 454.400914 375.943832 
L 456.41365 376.043748 
L 458.611418 376.219768 
L 460.59169 376.293976 
L 462.794601 376.513343 
L 464.676411 376.628015 
L 466.817509 376.870907 
L 470.687113 377.564422 
L 474.408457 378.274622 
L 478.134105 379.007637 
L 482.013867 379.631726 
L 486.040684 380.493576 
L 490.205495 381.135829 
L 495.614525 382.558197 
L 501.796071 383.843088 
L 507.52673 385.171478 
L 513.550093 386.314758 
L 521.799572 387.877584 
L 529.347131 388.591833 
L 537.59661 389.208536 
L 553.393648 390.699286 
L 569.190687 391.931866 
L 584.987725 393.052632 
L 600.784763 393.999939 
L 616.581802 394.506558 
L 632.37884 394.940647 
L 648.175878 395.64257 
L 663.972917 396.227575 
L 695.566993 397.918647 
L 715.341255 398.856843 
L 736.014122 399.819941 
L 756.176981 400.656844 
L 774.552185 401.319099 
L 790.349223 401.720739 
L 805.043246 401.991551 
L 821.9433 402.151136 
L 821.9433 260.395087 
L 821.9433 260.395087 
L 805.043246 260.101768 
L 790.349223 259.60914 
L 774.552185 258.920074 
L 756.176981 257.860533 
L 736.014122 256.555981 
L 715.341255 255.072803 
L 695.566993 253.671953 
L 663.972917 251.150658 
L 648.175878 250.140865 
L 632.37884 249.231284 
L 616.581802 248.300727 
L 600.784763 247.261842 
L 584.987725 246.049292 
L 569.190687 244.577874 
L 553.393648 242.974461 
L 537.59661 241.028752 
L 529.347131 240.115318 
L 521.799572 239.16233 
L 513.550093 237.680782 
L 507.52673 236.631881 
L 501.796071 235.366482 
L 495.614525 234.177016 
L 490.205495 232.863475 
L 486.040684 232.190245 
L 482.013867 231.328715 
L 478.134105 230.680622 
L 474.408457 229.976062 
L 470.687113 229.28637 
L 466.817509 228.670022 
L 464.676411 228.335893 
L 462.794601 228.166602 
L 460.59169 227.889051 
L 458.611418 227.791825 
L 456.41365 227.552265 
L 454.400914 227.416857 
L 452.293982 227.335637 
L 450.336871 227.214275 
L 448.378493 227.079656 
L 446.462678 226.785734 
L 445.471711 226.748475 
L 444.5312 226.535596 
L 443.644707 226.293142 
L 442.81438 225.932123 
L 440.946539 225.275878 
L 439.352535 224.554939 
L 437.889819 224.131301 
L 436.424242 223.406811 
L 435.235125 223.144253 
L 433.884815 222.086434 
L 431.640846 222.027678 
L 428.977008 220.473383 
L 426.224573 220.139019 
L 423.386704 217.538847 
L 420.467311 215.88522 
L 418.168668 211.870275 
L 415.595258 208.218759 
L 412.672977 202.354409 
L 409.293777 196.399553 
L 404.191215 188.89153 
L 398.120243 181.330858 
L 392.862189 172.9884 
L 386.946708 165.018672 
L 381.339482 156.376913 
L 375.773174 149.22628 
L 370.212322 142.383888 
L 364.59964 137.933116 
L 359.335448 133.430628 
L 353.426105 131.306544 
L 347.429469 128.716969 
L 342.252571 127.790533 
L 337.010885 126.044758 
L 331.079037 125.235953 
L 325.773245 122.968198 
L 319.905503 121.801785 
L 314.142785 119.108886 
L 308.731968 117.994848 
L 303.057226 114.745997 
L 297.558434 112.984307 
L 291.782077 109.873127 
L 286.3849 107.57475 
L 280.716619 104.773941 
L 275.25752 102.368881 
L 269.738225 100.21153 
L 264.608895 98.361187 
L 259.398301 97.540221 
L 254.602991 97.043429 
L 249.948745 97.677194 
L 245.271717 98.4451 
L 240.86269 100.083835 
L 236.610147 101.344642 
L 232.586933 102.863452 
L 228.596977 103.919908 
L 225.065245 105.441248 
L 221.199394 106.12136 
L 217.737788 107.988628 
L 214.381055 108.839625 
L 211.07825 111.092087 
L 208.106339 113.164372 
L 205.357336 116.084181 
L 202.332023 118.560063 
L 199.713424 120.382125 
L 197.026171 121.716249 
L 194.613169 123.662819 
L 192.146559 124.299342 
L 189.869124 125.758696 
L 187.663381 125.31947 
L 183.544527 125.882846 
L 179.758833 124.154461 
L 176.278192 122.94811 
L 173.076952 119.948297 
L 169.071981 116.860447 
L 164.929764 112.242734 
L 161.599563 108.643567 
L 158.552717 104.398132 
L 155.282911 100.179174 
L 151.956743 95.840957 
L 148.250379 92.139772 
L 144.197344 89.252741 
L 141.093584 86.542537 
L 138.198775 85.148148 
L 135.721678 83.9827 
L 133.038057 83.467098 
L 130.230426 82.809506 
L 127.036494 82.082911 
L 124.022907 81.567801 
L 120.919147 80.787968 
L 118.591328 80.755198 
L 116.263508 80.246075 
L 112.962733 76.74866 
L 110.055989 73.688924 
L 108.433259 74.064578 
L 106.952229 75.985073 
L 105.40035 76.150863 
L 103.84847 77.289081 
L 102.29659 78.097793 
L 100.74471 79.431212 
L 99.192831 81.604825 
L 97.640951 83.900608 
L 96.089071 90.396178 
L 94.537191 99.010922 
L 92.985312 115.887814 
L 92.133786 132.23744 
L 91.433432 152.418397 
L 90.650672 177.864604 
L 89.881552 206.424055 
L 89.070566 244.123376 
L 88.329672 279.109416 
L 87.491218 360.083163 
L 86.777793 411.861725 
L 86.027166 429.012421 
L 85.225913 414.653365 
L 84.764872 405.989859 
L 84.220205 383.966267 
L 83.685868 405.582527 
L 83.097834 421.333745 
L 82.059253 442.935615 
L 80.969755 460.244471 
L 80.001573 469.650383 
L 78.841677 476.385908 
L 76.713598 483.95345 
L 74.585519 480.192644 
L 70.329362 471.484709 
L 65.823188 460.417663 
L 60.663623 458.420307 
L 54.11159 457.843457 
L 46.558634 456.284871 
L 35.952583 457.124752 
L 21.74163 455.156038 
L 7.346541 455.85973 
L -6.190095 453.251233 
L -19.15079 453.856768 
L -32.8402 449.879738 
L -57.306163 447.637441 
L -80.063608 443.129469 
L -100.248303 439.644197 
L -120.921779 434.834686 
L -139.426428 430.309378 
L -156.684456 426.713523 
L -172.737355 422.984892 
L -184.102111 420.029445 
L -194.741629 416.662464 
L -208.138839 414.499703 
L -220.601654 413.032359 
L -232.21126 411.821781 
L -242.979512 411.292286 
L -252.808781 410.822891 
L -262.34492 410.440572 
L -271.026505 410.872484 
L -280.15491 410.651866 
L -290.176287 411.658814 
L -300.04293 411.085025 
L -309.136536 411.282807 
L -317.23335 410.140125 
L -324.207906 409.716214 
L -333.220948 406.905797 
L -341.099117 405.838299 
L -347.827253 403.392457 
L -353.500286 403.074821 
L -359.357271 402.333041 
L -364.205423 404.738363 
L -367.817411 408.435504 
L -371.565972 414.508877 
L -375.421053 423.417163 
L -377.56533 429.965158 
L -379.522844 437.241412 
L -381.599488 446.826305 
L -383.576184 455.934114 
L -385.412233 471.917754 
L -387.299183 485.101344 
L -389.091157 487.596984 
L -390.922497 471.340693 
L -394.058962 427.001816 
L -396.186796 347.672928 
L -398.565481 220.729519 
L -403.072001 58.017047 
L -405.270505 127.663744 
L -407.299147 297.890454 
L -409.686832 255.043477 
L -412.590478 20.030423 
L -416.265003 19.446389 
L -421.467669 26.723357 
L -428.591888 25.98379 
L -438.349052 31.705187 
L -451.713553 31.60742 
L -470.020065 33.439208 
L -495.096852 34.066672 
L -529.448308 34.464145 
z
" clip-path="url(#pcfea906bd5)" style="fill: #2ca02c"/>
   </g>
   <g id="PolyCollection_4">
    <path d="M -529.448308 34.393962 
L -529.448308 34.464145 
L -495.096852 34.066672 
L -470.020065 33.439208 
L -451.713553 31.60742 
L -438.349052 31.705187 
L -428.591888 25.98379 
L -421.467669 26.723357 
L -416.265003 19.446389 
L -412.590478 20.030423 
L -409.686832 255.043477 
L -407.299147 297.890454 
L -405.270505 127.663744 
L -403.072001 58.017047 
L -398.565481 220.729519 
L -396.186796 347.672928 
L -394.058962 427.001816 
L -390.922497 471.340693 
L -389.091157 487.596984 
L -387.299183 485.101344 
L -385.412233 471.917754 
L -383.576184 455.934114 
L -381.599488 446.826305 
L -379.522844 437.241412 
L -377.56533 429.965158 
L -375.421053 423.417163 
L -371.565972 414.508877 
L -367.817411 408.435504 
L -364.205423 404.738363 
L -359.357271 402.333041 
L -353.500286 403.074821 
L -347.827253 403.392457 
L -341.099117 405.838299 
L -333.220948 406.905797 
L -324.207906 409.716214 
L -317.23335 410.140125 
L -309.136536 411.282807 
L -300.04293 411.085025 
L -290.176287 411.658814 
L -280.15491 410.651866 
L -271.026505 410.872484 
L -262.34492 410.440572 
L -252.808781 410.822891 
L -242.979512 411.292286 
L -232.21126 411.821781 
L -220.601654 413.032359 
L -208.138839 414.499703 
L -194.741629 416.662464 
L -184.102111 420.029445 
L -172.737355 422.984892 
L -156.684456 426.713523 
L -139.426428 430.309378 
L -120.921779 434.834686 
L -100.248303 439.644197 
L -80.063608 443.129469 
L -57.306163 447.637441 
L -32.8402 449.879738 
L -19.15079 453.856768 
L -6.190095 453.251233 
L 7.346541 455.85973 
L 21.74163 455.156038 
L 35.952583 457.124752 
L 46.558634 456.284871 
L 54.11159 457.843457 
L 60.663623 458.420307 
L 65.823188 460.417663 
L 70.329362 471.484709 
L 74.585519 480.192644 
L 76.713598 483.95345 
L 78.841677 476.385908 
L 80.001573 469.650383 
L 80.969755 460.244471 
L 82.059253 442.935615 
L 83.097834 421.333745 
L 83.685868 405.582527 
L 84.220205 383.966267 
L 84.764872 405.989859 
L 85.225913 414.653365 
L 86.027166 429.012421 
L 86.777793 411.861725 
L 87.491218 360.083163 
L 88.329672 279.109416 
L 89.070566 244.123376 
L 89.881552 206.424055 
L 90.650672 177.864604 
L 91.433432 152.418397 
L 92.133786 132.23744 
L 92.985312 115.887814 
L 94.537191 99.010922 
L 96.089071 90.396178 
L 97.640951 83.900608 
L 99.192831 81.604825 
L 100.74471 79.431212 
L 102.29659 78.097793 
L 103.84847 77.289081 
L 105.40035 76.150863 
L 106.952229 75.985073 
L 108.433259 74.064578 
L 110.055989 73.688924 
L 112.962733 76.74866 
L 116.263508 80.246075 
L 118.591328 80.755198 
L 120.919147 80.787968 
L 124.022907 81.567801 
L 127.036494 82.082911 
L 130.230426 82.809506 
L 133.038057 83.467098 
L 135.721678 83.9827 
L 138.198775 85.148148 
L 141.093584 86.542537 
L 144.197344 89.252741 
L 148.250379 92.139772 
L 151.956743 95.840957 
L 155.282911 100.179174 
L 158.552717 104.398132 
L 161.599563 108.643567 
L 164.929764 112.242734 
L 169.071981 116.860447 
L 173.076952 119.948297 
L 176.278192 122.94811 
L 179.758833 124.154461 
L 183.544527 125.882846 
L 187.663381 125.31947 
L 189.869124 125.758696 
L 192.146559 124.299342 
L 194.613169 123.662819 
L 197.026171 121.716249 
L 199.713424 120.382125 
L 202.332023 118.560063 
L 205.357336 116.084181 
L 208.106339 113.164372 
L 211.07825 111.092087 
L 214.381055 108.839625 
L 217.737788 107.988628 
L 221.199394 106.12136 
L 225.065245 105.441248 
L 228.596977 103.919908 
L 232.586933 102.863452 
L 236.610147 101.344642 
L 240.86269 100.083835 
L 245.271717 98.4451 
L 249.948745 97.677194 
L 254.602991 97.043429 
L 259.398301 97.540221 
L 264.608895 98.361187 
L 269.738225 100.21153 
L 275.25752 102.368881 
L 280.716619 104.773941 
L 286.3849 107.57475 
L 291.782077 109.873127 
L 297.558434 112.984307 
L 303.057226 114.745997 
L 308.731968 117.994848 
L 314.142785 119.108886 
L 319.905503 121.801785 
L 325.773245 122.968198 
L 331.079037 125.235953 
L 337.010885 126.044758 
L 342.252571 127.790533 
L 347.429469 128.716969 
L 353.426105 131.306544 
L 359.335448 133.430628 
L 364.59964 137.933116 
L 370.212322 142.383888 
L 375.773174 149.22628 
L 381.339482 156.376913 
L 386.946708 165.018672 
L 392.862189 172.9884 
L 398.120243 181.330858 
L 404.191215 188.89153 
L 409.293777 196.399553 
L 412.672977 202.354409 
L 415.595258 208.218759 
L 418.168668 211.870275 
L 420.467311 215.88522 
L 423.386704 217.538847 
L 426.224573 220.139019 
L 428.977008 220.473383 
L 431.640846 222.027678 
L 433.884815 222.086434 
L 435.235125 223.144253 
L 436.424242 223.406811 
L 437.889819 224.131301 
L 439.352535 224.554939 
L 440.946539 225.275878 
L 442.81438 225.932123 
L 443.644707 226.293142 
L 444.5312 226.535596 
L 445.471711 226.748475 
L 446.462678 226.785734 
L 448.378493 227.079656 
L 450.336871 227.214275 
L 452.293982 227.335637 
L 454.400914 227.416857 
L 456.41365 227.552265 
L 458.611418 227.791825 
L 460.59169 227.889051 
L 462.794601 228.166602 
L 464.676411 228.335893 
L 466.817509 228.670022 
L 470.687113 229.28637 
L 474.408457 229.976062 
L 478.134105 230.680622 
L 482.013867 231.328715 
L 486.040684 232.190245 
L 490.205495 232.863475 
L 495.614525 234.177016 
L 501.796071 235.366482 
L 507.52673 236.631881 
L 513.550093 237.680782 
L 521.799572 239.16233 
L 529.347131 240.115318 
L 537.59661 241.028752 
L 553.393648 242.974461 
L 569.190687 244.577874 
L 584.987725 246.049292 
L 600.784763 247.261842 
L 616.581802 248.300727 
L 632.37884 249.231284 
L 648.175878 250.140865 
L 663.972917 251.150658 
L 695.566993 253.671953 
L 715.341255 255.072803 
L 736.014122 256.555981 
L 756.176981 257.860533 
L 774.552185 258.920074 
L 790.349223 259.60914 
L 805.043246 260.101768 
L 821.9433 260.395087 
L 821.9433 244.490425 
L 821.9433 244.490425 
L 805.043246 244.208006 
L 790.349223 243.730288 
L 774.552185 243.073972 
L 756.176981 242.054612 
L 736.014122 240.820132 
L 715.341255 239.419206 
L 695.566993 238.104537 
L 663.972917 235.764596 
L 648.175878 234.861572 
L 632.37884 234.041944 
L 616.581802 233.205423 
L 600.784763 232.280905 
L 584.987725 231.110198 
L 569.190687 229.671313 
L 553.393648 228.096572 
L 537.59661 226.173228 
L 529.347131 225.259976 
L 521.799572 224.290803 
L 513.550093 222.712658 
L 507.52673 221.568203 
L 501.796071 220.22341 
L 495.614525 218.936827 
L 490.205495 217.519771 
L 486.040684 216.796664 
L 482.013867 215.849016 
L 478.134105 215.157032 
L 474.408457 214.357328 
L 470.687113 213.634398 
L 466.817509 212.919546 
L 464.676411 212.582681 
L 462.794601 212.417912 
L 460.59169 212.105833 
L 458.611418 211.9864 
L 456.41365 211.777094 
L 454.400914 211.679681 
L 452.293982 211.585531 
L 450.336871 211.463708 
L 448.378493 211.385249 
L 446.462678 211.153831 
L 445.471711 211.160158 
L 444.5312 210.997995 
L 443.644707 210.813459 
L 442.81438 210.515417 
L 440.946539 209.940106 
L 439.352535 209.302654 
L 437.889819 208.883989 
L 436.424242 208.159652 
L 435.235125 207.948019 
L 433.884815 206.927593 
L 431.640846 206.71569 
L 428.977008 205.116991 
L 426.224573 204.607092 
L 423.386704 201.915405 
L 420.467311 200.058867 
L 418.168668 195.89537 
L 415.595258 192.01009 
L 412.672977 185.981086 
L 409.293777 179.79476 
L 404.191215 172.154224 
L 398.120243 164.414967 
L 392.862189 155.941784 
L 386.946708 147.787108 
L 381.339482 139.05907 
L 375.773174 131.796989 
L 370.212322 124.796308 
L 364.59964 120.162528 
L 359.335448 115.487867 
L 353.426105 113.185697 
L 347.429469 110.390247 
L 342.252571 109.240561 
L 337.010885 107.283653 
L 331.079037 106.297311 
L 325.773245 103.898166 
L 319.905503 102.73292 
L 314.142785 99.954623 
L 308.731968 98.858193 
L 303.057226 95.481235 
L 297.558434 93.583187 
L 291.782077 90.337861 
L 286.3849 87.880394 
L 280.716619 84.908617 
L 275.25752 82.338285 
L 269.738225 79.99583 
L 264.608895 77.943864 
L 259.398301 76.914663 
L 254.602991 76.187483 
L 249.948745 76.582335 
L 245.271717 77.117154 
L 240.86269 78.519683 
L 236.610147 79.552259 
L 232.586933 80.837265 
L 228.596977 81.73324 
L 225.065245 83.0841 
L 221.199394 83.647632 
L 217.737788 85.446274 
L 214.381055 86.188555 
L 211.07825 88.405693 
L 208.106339 90.452723 
L 205.357336 93.38526 
L 202.332023 95.891819 
L 199.713424 97.679092 
L 197.026171 99.036141 
L 194.613169 101.025457 
L 192.146559 101.762846 
L 189.869124 103.37373 
L 187.663381 103.134505 
L 183.544527 104.037558 
L 179.758833 102.69688 
L 176.278192 101.848361 
L 173.076952 99.262142 
L 169.071981 96.560348 
L 164.929764 92.326529 
L 161.599563 89.105785 
L 158.552717 85.202859 
L 155.282911 81.264854 
L 151.956743 77.205088 
L 148.250379 74.238301 
L 144.197344 72.116536 
L 141.093584 69.613391 
L 138.198775 68.649164 
L 135.721678 68.119347 
L 133.038057 68.2266 
L 130.230426 68.191565 
L 127.036494 68.078038 
L 124.022907 68.176931 
L 120.919147 68.091066 
L 118.591328 68.721838 
L 116.263508 68.932581 
L 112.962733 65.869364 
L 110.055989 63.278201 
L 108.433259 64.634529 
L 106.952229 67.577312 
L 105.40035 68.227524 
L 103.84847 69.9339 
L 102.29659 71.382735 
L 100.74471 73.476759 
L 99.192831 76.470536 
L 97.640951 79.737213 
L 96.089071 87.026419 
L 94.537191 96.812081 
L 92.985312 115.10303 
L 92.133786 132.07667 
L 91.433432 151.37005 
L 90.650672 175.594147 
L 89.881552 202.991118 
L 89.070566 240.037966 
L 88.329672 274.409209 
L 87.491218 353.993493 
L 86.777793 405.641231 
L 86.027166 421.491381 
L 85.225913 407.30512 
L 84.764872 397.854244 
L 84.220205 375.033383 
L 83.685868 396.749058 
L 83.097834 412.665805 
L 82.059253 433.57565 
L 80.969755 451.814685 
L 80.001573 460.794275 
L 78.841677 468.660362 
L 76.713598 475.924899 
L 74.585519 473.349182 
L 70.329362 465.563196 
L 65.823188 454.159393 
L 60.663623 453.52428 
L 54.11159 453.060536 
L 46.558634 452.837325 
L 35.952583 453.396997 
L 21.74163 452.63195 
L 7.346541 453.03295 
L -6.190095 451.065331 
L -19.15079 451.994747 
L -32.8402 447.924414 
L -57.306163 446.191992 
L -80.063608 442.020685 
L -100.248303 438.610103 
L -120.921779 434.314052 
L -139.426428 429.513802 
L -156.684456 426.381654 
L -172.737355 422.437992 
L -184.102111 419.814957 
L -194.741629 416.208219 
L -208.138839 414.338625 
L -220.601654 412.664737 
L -232.21126 411.691875 
L -242.979512 410.96377 
L -252.808781 410.688517 
L -262.34492 410.10048 
L -271.026505 410.700856 
L -280.15491 410.285159 
L -290.176287 411.32328 
L -300.04293 410.583451 
L -309.136536 410.852046 
L -317.23335 409.434194 
L -324.207906 409.0326 
L -333.220948 405.956114 
L -341.099117 404.786175 
L -347.827253 401.913213 
L -353.500286 401.490918 
L -359.357271 400.431505 
L -364.205423 402.930027 
L -367.817411 406.331006 
L -371.565972 412.683383 
L -375.421053 421.313714 
L -377.56533 428.140445 
L -379.522844 435.079138 
L -381.599488 445.008532 
L -383.576184 453.710172 
L -385.412233 470.135225 
L -387.299183 482.885723 
L -389.091157 485.875852 
L -390.922497 469.154259 
L -394.058962 425.45743 
L -396.186796 345.681864 
L -398.565481 219.362856 
L -403.072001 56.351273 
L -405.270505 126.636828 
L -407.299147 296.462555 
L -409.686832 254.258316 
L -412.590478 18.927692 
L -416.265003 18.927692 
L -421.467669 25.947779 
L -428.591888 25.699973 
L -438.349052 31.241553 
L -451.713553 31.495979 
L -470.020065 33.221038 
L -495.096852 34.031863 
L -529.448308 34.393962 
z
" clip-path="url(#pcfea906bd5)" style="fill: #d62728"/>
   </g>
   <g id="matplotlib.axis_1">
    <g id="xtick_1">
     <g id="line2d_1">
      <path d="M 102.433225 617.04 
L 102.433225 7.2 
" clip-path="url(#pcfea906bd5)" style="fill: none; stroke: #b0b0b0; stroke-width: 0.8; stroke-linecap: square"/>
     </g>
     <g id="line2d_2">
      <defs>
       <path id="m514c4084fa" d="M 0 0 
L 0 3.5 
" style="stroke: #000000; stroke-width: 0.8"/>
      </defs>
      <g>
       <use xlink:href="#m514c4084fa" x="102.433225" y="617.04" style="stroke: #000000; stroke-width: 0.8"/>
      </g>
     </g>
     <g id="text_1">
      <!-- $\mathdefault{0.20}$ -->
      <g transform="translate(77.807934 644.795495) scale(0.3 -0.3)">
       <defs>
        <path id="CMR17-30" d="M 2688 2025 
C 2688 2416 2682 3080 2413 3591 
C 2176 4039 1798 4198 1466 4198 
C 1158 4198 768 4058 525 3597 
C 269 3118 243 2524 243 2025 
C 243 1661 250 1106 448 619 
C 723 -39 1216 -128 1466 -128 
C 1760 -128 2208 -7 2470 600 
C 2662 1042 2688 1559 2688 2025 
z
M 1466 -26 
C 1056 -26 813 325 723 812 
C 653 1188 653 1738 653 2096 
C 653 2588 653 2997 736 3387 
C 858 3929 1216 4096 1466 4096 
C 1728 4096 2067 3923 2189 3400 
C 2272 3036 2278 2607 2278 2096 
C 2278 1680 2278 1169 2202 792 
C 2067 95 1690 -26 1466 -26 
z
" transform="scale(0.015625)"/>
        <path id="CMMI12-3a" d="M 1178 307 
C 1178 492 1024 619 870 619 
C 685 619 557 466 557 313 
C 557 128 710 0 864 0 
C 1050 0 1178 153 1178 307 
z
" transform="scale(0.015625)"/>
        <path id="CMR17-32" d="M 2669 989 
L 2554 989 
C 2490 536 2438 459 2413 420 
C 2381 369 1920 369 1830 369 
L 602 369 
C 832 619 1280 1072 1824 1597 
C 2214 1967 2669 2402 2669 3035 
C 2669 3790 2067 4224 1395 4224 
C 691 4224 262 3604 262 3030 
C 262 2780 448 2748 525 2748 
C 589 2748 781 2787 781 3010 
C 781 3207 614 3264 525 3264 
C 486 3264 448 3258 422 3245 
C 544 3790 915 4058 1306 4058 
C 1862 4058 2227 3617 2227 3035 
C 2227 2479 1901 2000 1536 1584 
L 262 146 
L 262 0 
L 2515 0 
L 2669 989 
z
" transform="scale(0.015625)"/>
       </defs>
       <use xlink:href="#CMR17-30" transform="scale(0.996264)"/>
       <use xlink:href="#CMMI12-3a" transform="translate(45.690477 0) scale(0.996264)"/>
       <use xlink:href="#CMR17-32" transform="translate(72.787654 0) scale(0.996264)"/>
       <use xlink:href="#CMR17-30" transform="translate(118.478131 0) scale(0.996264)"/>
      </g>
     </g>
    </g>
    <g id="xtick_2">
     <g id="line2d_3">
      <path d="M 228.809532 617.04 
L 228.809532 7.2 
" clip-path="url(#pcfea906bd5)" style="fill: none; stroke: #b0b0b0; stroke-width: 0.8; stroke-linecap: square"/>
     </g>
     <g id="line2d_4">
      <g>
       <use xlink:href="#m514c4084fa" x="228.809532" y="617.04" style="stroke: #000000; stroke-width: 0.8"/>
      </g>
     </g>
     <g id="text_2">
      <!-- $\mathdefault{0.25}$ -->
      <g transform="translate(204.184241 644.795495) scale(0.3 -0.3)">
       <defs>
        <path id="CMR17-35" d="M 730 3692 
C 794 3666 1056 3584 1325 3584 
C 1920 3584 2246 3911 2432 4100 
C 2432 4157 2432 4192 2394 4192 
C 2387 4192 2374 4192 2323 4163 
C 2099 4058 1837 3973 1517 3973 
C 1325 3973 1037 3999 723 4139 
C 653 4171 640 4171 634 4171 
C 602 4171 595 4164 595 4037 
L 595 2203 
C 595 2089 595 2057 659 2057 
C 691 2057 704 2070 736 2114 
C 941 2401 1222 2522 1542 2522 
C 1766 2522 2246 2382 2246 1289 
C 2246 1085 2246 715 2054 421 
C 1894 159 1645 25 1370 25 
C 947 25 518 320 403 814 
C 429 807 480 795 506 795 
C 589 795 749 840 749 1038 
C 749 1210 627 1280 506 1280 
C 358 1280 262 1190 262 1011 
C 262 454 704 -128 1382 -128 
C 2042 -128 2669 440 2669 1264 
C 2669 2030 2170 2624 1549 2624 
C 1222 2624 947 2503 730 2274 
L 730 3692 
z
" transform="scale(0.015625)"/>
       </defs>
       <use xlink:href="#CMR17-30" transform="scale(0.996264)"/>
       <use xlink:href="#CMMI12-3a" transform="translate(45.690477 0) scale(0.996264)"/>
       <use xlink:href="#CMR17-32" transform="translate(72.787654 0) scale(0.996264)"/>
       <use xlink:href="#CMR17-35" transform="translate(118.478131 0) scale(0.996264)"/>
      </g>
     </g>
    </g>
    <g id="xtick_3">
     <g id="line2d_5">
      <path d="M 355.185839 617.04 
L 355.185839 7.2 
" clip-path="url(#pcfea906bd5)" style="fill: none; stroke: #b0b0b0; stroke-width: 0.8; stroke-linecap: square"/>
     </g>
     <g id="line2d_6">
      <g>
       <use xlink:href="#m514c4084fa" x="355.185839" y="617.04" style="stroke: #000000; stroke-width: 0.8"/>
      </g>
     </g>
     <g id="text_3">
      <!-- $\mathdefault{0.30}$ -->
      <g transform="translate(330.560547 644.795495) scale(0.3 -0.3)">
       <defs>
        <path id="CMR17-33" d="M 1414 2157 
C 1984 2157 2234 1662 2234 1090 
C 2234 320 1824 25 1453 25 
C 1114 25 563 194 390 693 
C 422 680 454 680 486 680 
C 640 680 755 782 755 948 
C 755 1133 614 1216 486 1216 
C 378 1216 211 1165 211 926 
C 211 335 787 -128 1466 -128 
C 2176 -128 2720 430 2720 1085 
C 2720 1707 2208 2157 1600 2227 
C 2086 2328 2554 2756 2554 3329 
C 2554 3820 2048 4179 1472 4179 
C 890 4179 378 3829 378 3329 
C 378 3110 544 3072 627 3072 
C 762 3072 877 3155 877 3321 
C 877 3486 762 3569 627 3569 
C 602 3569 570 3569 544 3557 
C 730 3959 1235 4032 1459 4032 
C 1683 4032 2106 3925 2106 3320 
C 2106 3143 2080 2828 1862 2550 
C 1670 2304 1453 2304 1242 2284 
C 1210 2284 1062 2269 1037 2269 
C 992 2263 966 2257 966 2208 
C 966 2163 973 2157 1101 2157 
L 1414 2157 
z
" transform="scale(0.015625)"/>
       </defs>
       <use xlink:href="#CMR17-30" transform="scale(0.996264)"/>
       <use xlink:href="#CMMI12-3a" transform="translate(45.690477 0) scale(0.996264)"/>
       <use xlink:href="#CMR17-33" transform="translate(72.787654 0) scale(0.996264)"/>
       <use xlink:href="#CMR17-30" transform="translate(118.478131 0) scale(0.996264)"/>
      </g>
     </g>
    </g>
    <g id="xtick_4">
     <g id="line2d_7">
      <path d="M 481.562145 617.04 
L 481.562145 7.2 
" clip-path="url(#pcfea906bd5)" style="fill: none; stroke: #b0b0b0; stroke-width: 0.8; stroke-linecap: square"/>
     </g>
     <g id="line2d_8">
      <g>
       <use xlink:href="#m514c4084fa" x="481.562145" y="617.04" style="stroke: #000000; stroke-width: 0.8"/>
      </g>
     </g>
     <g id="text_4">
      <!-- $\mathdefault{0.35}$ -->
      <g transform="translate(456.936854 644.795495) scale(0.3 -0.3)">
       <use xlink:href="#CMR17-30" transform="scale(0.996264)"/>
       <use xlink:href="#CMMI12-3a" transform="translate(45.690477 0) scale(0.996264)"/>
       <use xlink:href="#CMR17-33" transform="translate(72.787654 0) scale(0.996264)"/>
       <use xlink:href="#CMR17-35" transform="translate(118.478131 0) scale(0.996264)"/>
      </g>
     </g>
    </g>
    <g id="xtick_5">
     <g id="line2d_9">
      <path d="M 607.938452 617.04 
L 607.938452 7.2 
" clip-path="url(#pcfea906bd5)" style="fill: none; stroke: #b0b0b0; stroke-width: 0.8; stroke-linecap: square"/>
     </g>
     <g id="line2d_10">
      <g>
       <use xlink:href="#m514c4084fa" x="607.938452" y="617.04" style="stroke: #000000; stroke-width: 0.8"/>
      </g>
     </g>
     <g id="text_5">
      <!-- $\mathdefault{0.40}$ -->
      <g transform="translate(583.313161 644.795495) scale(0.3 -0.3)">
       <defs>
        <path id="CMR17-34" d="M 2150 4122 
C 2150 4256 2144 4256 2029 4256 
L 128 1254 
L 128 1088 
L 1779 1088 
L 1779 457 
C 1779 224 1766 160 1318 160 
L 1197 160 
L 1197 0 
C 1402 0 1747 0 1965 0 
C 2182 0 2528 0 2733 0 
L 2733 160 
L 2611 160 
C 2163 160 2150 224 2150 457 
L 2150 1088 
L 2803 1088 
L 2803 1254 
L 2150 1254 
L 2150 4122 
z
M 1798 3703 
L 1798 1254 
L 256 1254 
L 1798 3703 
z
" transform="scale(0.015625)"/>
       </defs>
       <use xlink:href="#CMR17-30" transform="scale(0.996264)"/>
       <use xlink:href="#CMMI12-3a" transform="translate(45.690477 0) scale(0.996264)"/>
       <use xlink:href="#CMR17-34" transform="translate(72.787654 0) scale(0.996264)"/>
       <use xlink:href="#CMR17-30" transform="translate(118.478131 0) scale(0.996264)"/>
      </g>
     </g>
    </g>
    <g id="xtick_6">
     <g id="line2d_11">
      <path d="M 734.314759 617.04 
L 734.314759 7.2 
" clip-path="url(#pcfea906bd5)" style="fill: none; stroke: #b0b0b0; stroke-width: 0.8; stroke-linecap: square"/>
     </g>
     <g id="line2d_12">
      <g>
       <use xlink:href="#m514c4084fa" x="734.314759" y="617.04" style="stroke: #000000; stroke-width: 0.8"/>
      </g>
     </g>
     <g id="text_6">
      <!-- $\mathdefault{0.45}$ -->
      <g transform="translate(709.689467 644.795495) scale(0.3 -0.3)">
       <use xlink:href="#CMR17-30" transform="scale(0.996264)"/>
       <use xlink:href="#CMMI12-3a" transform="translate(45.690477 0) scale(0.996264)"/>
       <use xlink:href="#CMR17-34" transform="translate(72.787654 0) scale(0.996264)"/>
       <use xlink:href="#CMR17-35" transform="translate(118.478131 0) scale(0.996264)"/>
      </g>
     </g>
    </g>
    <g id="text_7">
     <!-- $x, \; m $ -->
     <g transform="translate(410.316604 678.823697) scale(0.35 -0.35)">
      <defs>
       <path id="CMMI12-78" d="M 3034 2606 
C 2829 2567 2752 2414 2752 2293 
C 2752 2139 2874 2088 2963 2088 
C 3155 2088 3290 2254 3290 2427 
C 3290 2695 2982 2816 2714 2816 
C 2323 2816 2106 2433 2048 2312 
C 1901 2816 1504 2816 1389 2816 
C 736 2816 390 1980 390 1839 
C 390 1814 416 1782 461 1782 
C 512 1782 525 1820 538 1846 
C 755 2555 1184 2689 1370 2689 
C 1658 2689 1715 2420 1715 2267 
C 1715 2127 1677 1980 1600 1673 
L 1382 798 
C 1286 415 1101 64 762 64 
C 730 64 570 64 435 147 
C 666 192 717 383 717 460 
C 717 588 621 664 499 664 
C 346 664 179 530 179 326 
C 179 57 480 -64 755 -64 
C 1062 -64 1280 179 1414 441 
C 1517 64 1837 -64 2074 -64 
C 2726 -64 3072 773 3072 913 
C 3072 945 3046 971 3008 971 
C 2950 971 2944 939 2925 888 
C 2752 326 2381 64 2093 64 
C 1869 64 1747 230 1747 492 
C 1747 632 1773 734 1875 1156 
L 2099 2024 
C 2195 2408 2413 2689 2707 2689 
C 2720 2689 2899 2689 3034 2606 
z
" transform="scale(0.015625)"/>
       <path id="CMMI12-3b" d="M 1248 -31 
C 1248 343 1126 619 864 619 
C 659 619 557 453 557 313 
C 557 172 653 0 870 0 
C 954 0 1024 26 1082 83 
C 1094 96 1101 96 1107 96 
C 1120 96 1120 5 1120 -27 
C 1120 -240 1082 -659 710 -1080 
C 640 -1157 640 -1170 640 -1183 
C 640 -1216 672 -1248 704 -1248 
C 755 -1248 1248 -771 1248 -31 
z
" transform="scale(0.015625)"/>
       <path id="CMMI12-6d" d="M 1318 1871 
C 1331 1910 1491 2229 1728 2433 
C 1894 2586 2112 2689 2362 2689 
C 2618 2689 2707 2497 2707 2242 
C 2707 2203 2707 2076 2630 1775 
L 2470 1118 
C 2419 926 2298 453 2285 383 
C 2259 287 2221 121 2221 96 
C 2221 6 2291 -64 2387 -64 
C 2579 -64 2611 83 2669 313 
L 3053 1839 
C 3066 1890 3398 2689 4102 2689 
C 4358 2689 4448 2497 4448 2242 
C 4448 1884 4198 1188 4058 805 
C 4000 651 3968 568 3968 453 
C 3968 166 4166 -64 4474 -64 
C 5069 -64 5293 875 5293 913 
C 5293 945 5267 971 5229 971 
C 5171 971 5165 952 5133 843 
C 4986 332 4749 64 4493 64 
C 4429 64 4326 64 4326 269 
C 4326 436 4403 640 4429 710 
C 4544 1018 4832 1773 4832 2145 
C 4832 2528 4608 2816 4122 2816 
C 3693 2816 3347 2574 3091 2197 
C 3072 2542 2861 2816 2381 2816 
C 1811 2816 1510 2415 1395 2255 
C 1376 2618 1114 2816 832 2816 
C 646 2816 499 2727 378 2484 
C 262 2254 173 1865 173 1839 
C 173 1814 198 1782 243 1782 
C 294 1782 301 1788 339 1935 
C 435 2312 557 2689 813 2689 
C 960 2689 1011 2586 1011 2395 
C 1011 2254 947 2005 902 1807 
L 723 1118 
C 698 996 627 709 595 594 
C 550 428 480 128 480 96 
C 480 6 550 -64 646 -64 
C 723 -64 813 -26 864 70 
C 877 102 934 326 966 453 
L 1107 1028 
L 1318 1871 
z
" transform="scale(0.015625)"/>
      </defs>
      <use xlink:href="#CMMI12-78" transform="scale(0.996264)"/>
      <use xlink:href="#CMMI12-3b" transform="translate(55.43406 0) scale(0.996264)"/>
      <use xlink:href="#CMMI12-6d" transform="translate(126.809651 0) scale(0.996264)"/>
     </g>
    </g>
   </g>
   <g id="matplotlib.axis_2">
    <g id="ytick_1">
     <g id="line2d_13">
      <path d="M 84.740543 605.312308 
L 810.140543 605.312308 
" clip-path="url(#pcfea906bd5)" style="fill: none; stroke: #b0b0b0; stroke-width: 0.8; stroke-linecap: square"/>
     </g>
     <g id="line2d_14">
      <defs>
       <path id="mcb248525ac" d="M 0 0 
L -3.5 0 
" style="stroke: #000000; stroke-width: 0.8"/>
      </defs>
      <g>
       <use xlink:href="#mcb248525ac" x="84.740543" y="605.312308" style="stroke: #000000; stroke-width: 0.8"/>
      </g>
     </g>
     <g id="text_8">
      <!-- $\mathdefault{0.0}$ -->
      <g transform="translate(42.197103 615.690055) scale(0.3 -0.3)">
       <use xlink:href="#CMR17-30" transform="scale(0.996264)"/>
       <use xlink:href="#CMMI12-3a" transform="translate(45.690477 0) scale(0.996264)"/>
       <use xlink:href="#CMR17-30" transform="translate(72.787654 0) scale(0.996264)"/>
      </g>
     </g>
    </g>
    <g id="ytick_2">
     <g id="line2d_15">
      <path d="M 84.740543 488.035385 
L 810.140543 488.035385 
" clip-path="url(#pcfea906bd5)" style="fill: none; stroke: #b0b0b0; stroke-width: 0.8; stroke-linecap: square"/>
     </g>
     <g id="line2d_16">
      <g>
       <use xlink:href="#mcb248525ac" x="84.740543" y="488.035385" style="stroke: #000000; stroke-width: 0.8"/>
      </g>
     </g>
     <g id="text_9">
      <!-- $\mathdefault{0.2}$ -->
      <g transform="translate(42.197103 498.413132) scale(0.3 -0.3)">
       <use xlink:href="#CMR17-30" transform="scale(0.996264)"/>
       <use xlink:href="#CMMI12-3a" transform="translate(45.690477 0) scale(0.996264)"/>
       <use xlink:href="#CMR17-32" transform="translate(72.787654 0) scale(0.996264)"/>
      </g>
     </g>
    </g>
    <g id="ytick_3">
     <g id="line2d_17">
      <path d="M 84.740543 370.758462 
L 810.140543 370.758462 
" clip-path="url(#pcfea906bd5)" style="fill: none; stroke: #b0b0b0; stroke-width: 0.8; stroke-linecap: square"/>
     </g>
     <g id="line2d_18">
      <g>
       <use xlink:href="#mcb248525ac" x="84.740543" y="370.758462" style="stroke: #000000; stroke-width: 0.8"/>
      </g>
     </g>
     <g id="text_10">
      <!-- $\mathdefault{0.4}$ -->
      <g transform="translate(42.197103 381.136209) scale(0.3 -0.3)">
       <use xlink:href="#CMR17-30" transform="scale(0.996264)"/>
       <use xlink:href="#CMMI12-3a" transform="translate(45.690477 0) scale(0.996264)"/>
       <use xlink:href="#CMR17-34" transform="translate(72.787654 0) scale(0.996264)"/>
      </g>
     </g>
    </g>
    <g id="ytick_4">
     <g id="line2d_19">
      <path d="M 84.740543 253.481538 
L 810.140543 253.481538 
" clip-path="url(#pcfea906bd5)" style="fill: none; stroke: #b0b0b0; stroke-width: 0.8; stroke-linecap: square"/>
     </g>
     <g id="line2d_20">
      <g>
       <use xlink:href="#mcb248525ac" x="84.740543" y="253.481538" style="stroke: #000000; stroke-width: 0.8"/>
      </g>
     </g>
     <g id="text_11">
      <!-- $\mathdefault{0.6}$ -->
      <g transform="translate(42.197103 263.859286) scale(0.3 -0.3)">
       <defs>
        <path id="CMR17-36" d="M 678 2176 
C 678 3690 1395 4032 1811 4032 
C 1946 4032 2272 4009 2400 3776 
C 2298 3776 2106 3776 2106 3553 
C 2106 3381 2246 3323 2336 3323 
C 2394 3323 2566 3348 2566 3560 
C 2566 3954 2246 4179 1805 4179 
C 1043 4179 243 3390 243 1984 
C 243 253 966 -128 1478 -128 
C 2099 -128 2688 427 2688 1283 
C 2688 2081 2170 2662 1517 2662 
C 1126 2662 838 2407 678 1960 
L 678 2176 
z
M 1478 25 
C 691 25 691 1200 691 1436 
C 691 1896 909 2560 1504 2560 
C 1613 2560 1926 2560 2138 2120 
C 2253 1870 2253 1609 2253 1289 
C 2253 944 2253 690 2118 434 
C 1978 171 1773 25 1478 25 
z
" transform="scale(0.015625)"/>
       </defs>
       <use xlink:href="#CMR17-30" transform="scale(0.996264)"/>
       <use xlink:href="#CMMI12-3a" transform="translate(45.690477 0) scale(0.996264)"/>
       <use xlink:href="#CMR17-36" transform="translate(72.787654 0) scale(0.996264)"/>
      </g>
     </g>
    </g>
    <g id="ytick_5">
     <g id="line2d_21">
      <path d="M 84.740543 136.204615 
L 810.140543 136.204615 
" clip-path="url(#pcfea906bd5)" style="fill: none; stroke: #b0b0b0; stroke-width: 0.8; stroke-linecap: square"/>
     </g>
     <g id="line2d_22">
      <g>
       <use xlink:href="#mcb248525ac" x="84.740543" y="136.204615" style="stroke: #000000; stroke-width: 0.8"/>
      </g>
     </g>
     <g id="text_12">
      <!-- $\mathdefault{0.8}$ -->
      <g transform="translate(42.197103 146.582363) scale(0.3 -0.3)">
       <defs>
        <path id="CMR17-38" d="M 1741 2264 
C 2144 2467 2554 2773 2554 3263 
C 2554 3841 1990 4179 1472 4179 
C 890 4179 378 3759 378 3180 
C 378 3021 416 2747 666 2505 
C 730 2442 998 2251 1171 2130 
C 883 1983 211 1634 211 934 
C 211 279 838 -128 1459 -128 
C 2144 -128 2720 362 2720 1010 
C 2720 1590 2330 1857 2074 2029 
L 1741 2264 
z
M 902 2822 
C 851 2854 595 3051 595 3351 
C 595 3739 998 4032 1459 4032 
C 1965 4032 2336 3676 2336 3262 
C 2336 2669 1670 2331 1638 2331 
C 1632 2331 1626 2331 1574 2370 
L 902 2822 
z
M 2080 1519 
C 2176 1449 2483 1240 2483 851 
C 2483 381 2010 25 1472 25 
C 890 25 448 438 448 940 
C 448 1443 838 1862 1280 2060 
L 2080 1519 
z
" transform="scale(0.015625)"/>
       </defs>
       <use xlink:href="#CMR17-30" transform="scale(0.996264)"/>
       <use xlink:href="#CMMI12-3a" transform="translate(45.690477 0) scale(0.996264)"/>
       <use xlink:href="#CMR17-38" transform="translate(72.787654 0) scale(0.996264)"/>
      </g>
     </g>
    </g>
    <g id="ytick_6">
     <g id="line2d_23">
      <path d="M 84.740543 18.927692 
L 810.140543 18.927692 
" clip-path="url(#pcfea906bd5)" style="fill: none; stroke: #b0b0b0; stroke-width: 0.8; stroke-linecap: square"/>
     </g>
     <g id="line2d_24">
      <g>
       <use xlink:href="#mcb248525ac" x="84.740543" y="18.927692" style="stroke: #000000; stroke-width: 0.8"/>
      </g>
     </g>
     <g id="text_13">
      <!-- $\mathdefault{1.0}$ -->
      <g transform="translate(42.197103 29.30544) scale(0.3 -0.3)">
       <defs>
        <path id="CMR17-31" d="M 1702 4058 
C 1702 4192 1696 4192 1606 4192 
C 1357 3916 979 3827 621 3827 
C 602 3827 570 3827 563 3808 
C 557 3795 557 3782 557 3648 
C 755 3648 1088 3686 1344 3839 
L 1344 461 
C 1344 236 1331 160 781 160 
L 589 160 
L 589 0 
C 896 0 1216 0 1523 0 
C 1830 0 2150 0 2458 0 
L 2458 160 
L 2266 160 
C 1715 160 1702 230 1702 458 
L 1702 4058 
z
" transform="scale(0.015625)"/>
       </defs>
       <use xlink:href="#CMR17-31" transform="scale(0.996264)"/>
       <use xlink:href="#CMMI12-3a" transform="translate(45.690477 0) scale(0.996264)"/>
       <use xlink:href="#CMR17-30" transform="translate(72.787654 0) scale(0.996264)"/>
      </g>
     </g>
    </g>
    <g id="text_14">
     <!-- $S_1, \; -$ -->
     <g transform="translate(31.414752 354.516175) rotate(-90) scale(0.35 -0.35)">
      <defs>
       <path id="CMMI12-53" d="M 4064 4423 
C 4064 4480 4019 4480 4006 4480 
C 3981 4480 3974 4474 3898 4378 
C 3859 4333 3597 4001 3590 3995 
C 3379 4410 2957 4480 2688 4480 
C 1875 4480 1139 3743 1139 3025 
C 1139 2549 1427 2269 1741 2161 
C 1811 2135 2189 2033 2381 1989 
C 2707 1900 2790 1875 2925 1735 
C 2950 1703 3078 1557 3078 1258 
C 3078 667 2528 57 1888 57 
C 1363 57 781 280 781 991 
C 781 1112 806 1265 826 1328 
C 826 1348 832 1378 832 1391 
C 832 1417 819 1449 768 1449 
C 710 1449 704 1436 678 1328 
L 352 24 
C 352 18 326 -64 326 -71 
C 326 -128 378 -128 390 -128 
C 416 -128 422 -122 499 -26 
L 794 356 
C 947 126 1280 -128 1875 -128 
C 2701 -128 3456 666 3456 1460 
C 3456 1728 3392 1963 3149 2197 
C 3014 2331 2899 2363 2310 2516 
C 1882 2630 1824 2649 1709 2751 
C 1600 2858 1517 3011 1517 3227 
C 1517 3761 2061 4308 2669 4308 
C 3296 4308 3590 3926 3590 3323 
C 3590 3158 3558 2986 3558 2961 
C 3558 2903 3610 2903 3629 2903 
C 3686 2903 3693 2922 3718 3024 
L 4064 4423 
z
" transform="scale(0.015625)"/>
       <path id="CMSY10-0" d="M 4218 1472 
C 4326 1472 4442 1472 4442 1600 
C 4442 1728 4326 1728 4218 1728 
L 755 1728 
C 646 1728 531 1728 531 1600 
C 531 1472 646 1472 755 1472 
L 4218 1472 
z
" transform="scale(0.015625)"/>
      </defs>
      <use xlink:href="#CMMI12-53" transform="scale(0.996264)"/>
      <use xlink:href="#CMR17-31" transform="translate(59.994488 -14.943915) scale(0.697382)"/>
      <use xlink:href="#CMMI12-3b" transform="translate(92.475802 0) scale(0.996264)"/>
      <use xlink:href="#CMSY10-0" transform="translate(163.851393 0) scale(0.996264)"/>
     </g>
    </g>
   </g>
   <g id="patch_3">
    <path d="M 84.740543 617.04 
L 84.740543 7.2 
" style="fill: none; stroke: #000000; stroke-width: 0.8; stroke-linejoin: miter; stroke-linecap: square"/>
   </g>
   <g id="patch_4">
    <path d="M 810.140543 617.04 
L 810.140543 7.2 
" style="fill: none; stroke: #000000; stroke-width: 0.8; stroke-linejoin: miter; stroke-linecap: square"/>
   </g>
   <g id="patch_5">
    <path d="M 84.740543 617.04 
L 810.140543 617.04 
" style="fill: none; stroke: #000000; stroke-width: 0.8; stroke-linejoin: miter; stroke-linecap: square"/>
   </g>
   <g id="patch_6">
    <path d="M 84.740543 7.2 
L 810.140543 7.2 
" style="fill: none; stroke: #000000; stroke-width: 0.8; stroke-linejoin: miter; stroke-linecap: square"/>
   </g>
   <g id="legend_1">
    <g id="patch_7">
     <path d="M 833.436089 232.438667 
L 992.379543 232.438667 
Q 999.379543 232.438667 999.379543 225.438667 
L 999.379543 31.7 
Q 999.379543 24.7 992.379543 24.7 
L 833.436089 24.7 
Q 826.436089 24.7 826.436089 31.7 
L 826.436089 225.438667 
Q 826.436089 232.438667 833.436089 232.438667 
z
" style="fill: #ffffff; opacity: 0.8; stroke: #cccccc; stroke-linejoin: miter"/>
    </g>
    <g id="patch_8">
     <path d="M 840.436089 63.2 
L 910.436089 63.2 
L 910.436089 38.7 
L 840.436089 38.7 
z
" style="fill: #1f77b4"/>
    </g>
    <g id="text_15">
     <!-- $M$ -->
     <g transform="translate(938.436089 63.2) scale(0.35 -0.35)">
      <defs>
       <path id="CMMI12-4d" d="M 5811 3886 
C 5869 4103 5882 4167 6336 4167 
C 6458 4167 6515 4167 6515 4288 
C 6515 4352 6470 4352 6349 4352 
L 5581 4352 
C 5421 4352 5414 4346 5344 4243 
L 3008 562 
L 2528 4211 
C 2509 4352 2502 4352 2336 4352 
L 1542 4352 
C 1421 4352 1363 4352 1363 4231 
C 1363 4167 1421 4167 1517 4167 
C 1907 4167 1907 4116 1907 4046 
C 1907 4034 1907 3995 1882 3899 
L 1062 634 
C 986 327 838 186 410 186 
C 390 186 314 186 314 73 
C 314 0 371 0 397 0 
C 525 0 851 0 979 0 
L 1286 0 
C 1376 0 1485 0 1574 0 
C 1619 0 1690 0 1690 122 
C 1690 180 1626 186 1600 186 
C 1389 186 1184 224 1184 454 
C 1184 518 1184 524 1210 613 
L 2093 4129 
L 2099 4129 
L 2630 172 
C 2650 19 2656 0 2714 0 
C 2784 0 2816 51 2848 109 
L 5421 4161 
L 5427 4161 
L 4499 473 
C 4442 250 4429 186 3981 186 
C 3859 186 3795 186 3795 70 
C 3795 0 3853 0 3891 0 
C 4000 0 4128 0 4237 0 
L 4992 0 
C 5101 0 5235 0 5344 0 
C 5395 0 5466 0 5466 122 
C 5466 186 5408 186 5312 186 
C 4922 186 4922 234 4922 294 
C 4922 301 4922 345 4934 396 
L 5811 3886 
z
" transform="scale(0.015625)"/>
      </defs>
      <use xlink:href="#CMMI12-4d" transform="scale(0.996264)"/>
     </g>
    </g>
    <g id="patch_9">
     <path d="M 840.436089 111.982351 
L 910.436089 111.982351 
L 910.436089 87.482351 
L 840.436089 87.482351 
z
" style="fill: #ff7f0e"/>
    </g>
    <g id="text_16">
     <!-- $P$ -->
     <g transform="translate(938.436089 111.982351) scale(0.35 -0.35)">
      <defs>
       <path id="CMMI12-50" d="M 1894 2023 
L 2970 2023 
C 3853 2023 4736 2673 4736 3401 
C 4736 3898 4314 4352 3507 4352 
L 1530 4352 
C 1408 4352 1350 4352 1350 4231 
C 1350 4167 1408 4167 1504 4167 
C 1894 4167 1894 4116 1894 4046 
C 1894 4034 1894 3995 1869 3899 
L 1005 472 
C 947 249 934 185 486 185 
C 365 185 301 185 301 70 
C 301 0 358 0 397 0 
C 518 0 646 0 768 0 
L 1517 0 
C 1638 0 1773 0 1894 0 
C 1946 0 2016 0 2016 121 
C 2016 185 1958 185 1862 185 
C 1478 185 1472 230 1472 293 
C 1472 325 1478 369 1485 401 
L 1894 2023 
z
M 2355 3930 
C 2413 4167 2438 4167 2688 4167 
L 3322 4167 
C 3802 4167 4198 4013 4198 3535 
C 4198 3369 4115 2827 3821 2534 
C 3712 2419 3405 2176 2822 2176 
L 1920 2176 
L 2355 3930 
z
" transform="scale(0.015625)"/>
      </defs>
      <use xlink:href="#CMMI12-50" transform="scale(0.996264)"/>
     </g>
    </g>
    <g id="patch_10">
     <path d="M 840.436089 160.764702 
L 910.436089 160.764702 
L 910.436089 136.264702 
L 840.436089 136.264702 
z
" style="fill: #2ca02c"/>
    </g>
    <g id="text_17">
     <!-- $T$ -->
     <g transform="translate(938.436089 160.764702) scale(0.35 -0.35)">
      <defs>
       <path id="CMMI12-54" d="M 2669 3910 
C 2707 4064 2720 4121 2816 4147 
C 2867 4160 3078 4160 3213 4160 
C 3853 4160 4154 4134 4154 3634 
C 4154 3537 4128 3295 4090 3057 
L 4083 2980 
C 4083 2954 4109 2916 4147 2916 
C 4211 2916 4211 2948 4230 3050 
L 4416 4184 
C 4429 4243 4429 4256 4429 4275 
C 4429 4345 4390 4345 4262 4345 
L 762 4345 
C 614 4345 608 4339 570 4224 
L 179 3070 
C 173 3056 154 2986 154 2980 
C 154 2948 179 2916 218 2916 
C 269 2916 282 2941 307 3024 
C 576 3801 710 4160 1562 4160 
L 1990 4160 
C 2144 4160 2208 4160 2208 4089 
C 2208 4069 2208 4057 2176 3941 
L 1318 499 
C 1254 249 1242 185 563 185 
C 403 185 358 185 358 64 
C 358 0 429 0 461 0 
C 621 0 787 0 947 0 
L 1946 0 
C 2106 0 2278 0 2438 0 
C 2509 0 2573 0 2573 121 
C 2573 185 2528 185 2362 185 
C 1786 185 1786 243 1786 339 
C 1786 346 1786 391 1811 494 
L 2669 3910 
z
" transform="scale(0.015625)"/>
      </defs>
      <use xlink:href="#CMMI12-54" transform="scale(0.996264)"/>
     </g>
    </g>
    <g id="patch_11">
     <path d="M 840.436089 209.547054 
L 910.436089 209.547054 
L 910.436089 185.047054 
L 840.436089 185.047054 
z
" style="fill: #d62728"/>
    </g>
    <g id="text_18">
     <!-- $Y_{N_2}$ -->
     <g transform="translate(938.436089 209.547054) scale(0.35 -0.35)">
      <defs>
       <path id="CMMI12-59" d="M 3763 3645 
L 3910 3791 
C 4192 4078 4429 4149 4653 4167 
C 4723 4173 4781 4179 4781 4288 
C 4781 4352 4717 4352 4704 4352 
C 4627 4352 4544 4352 4467 4352 
L 4205 4352 
C 4019 4352 3821 4352 3642 4352 
C 3597 4352 3526 4352 3526 4226 
C 3526 4166 3590 4160 3610 4160 
C 3802 4160 3802 4064 3802 4026 
C 3802 3956 3750 3860 3622 3713 
L 2099 1969 
L 1376 3911 
C 1338 4000 1338 4013 1338 4026 
C 1338 4160 1600 4160 1677 4160 
C 1754 4160 1824 4160 1824 4279 
C 1824 4352 1766 4352 1728 4352 
C 1619 4352 1491 4352 1382 4352 
L 672 4352 
C 557 4352 435 4352 326 4352 
C 282 4352 211 4352 211 4226 
C 211 4160 269 4160 365 4160 
C 678 4160 736 4102 794 3956 
L 1587 1835 
C 1594 1816 1613 1745 1613 1726 
C 1613 1707 1299 452 1280 388 
C 1229 217 1165 185 755 185 
C 646 185 595 185 595 64 
C 595 0 666 0 685 0 
C 800 0 934 0 1056 0 
L 1811 0 
C 1926 0 2061 0 2176 0 
C 2221 0 2298 0 2298 115 
C 2298 185 2253 185 2144 185 
C 1747 185 1747 230 1747 300 
C 1747 345 1798 548 1830 676 
L 2061 1594 
C 2099 1727 2099 1739 2157 1803 
L 3763 3645 
z
" transform="scale(0.015625)"/>
       <path id="CMMI12-4e" d="M 4736 3698 
C 4806 3974 4909 4166 5395 4166 
C 5414 4166 5491 4166 5491 4279 
C 5491 4352 5434 4352 5408 4352 
C 5280 4352 4954 4352 4826 4352 
L 4518 4352 
C 4429 4352 4314 4352 4224 4352 
C 4186 4352 4109 4352 4109 4230 
C 4109 4166 4160 4166 4205 4166 
C 4589 4166 4614 4019 4614 3903 
C 4614 3846 4608 3826 4589 3737 
L 3866 850 
L 2496 4249 
C 2451 4352 2445 4352 2304 4352 
L 1523 4352 
C 1395 4352 1338 4352 1338 4230 
C 1338 4166 1382 4166 1504 4166 
C 1536 4166 1914 4166 1914 4115 
C 1914 4102 1901 4051 1894 4032 
L 1043 635 
C 966 320 813 186 390 186 
C 358 186 294 186 294 67 
C 294 0 358 0 378 0 
C 506 0 832 0 960 0 
L 1267 0 
C 1357 0 1466 0 1555 0 
C 1600 0 1670 0 1670 122 
C 1670 180 1606 186 1581 186 
C 1370 186 1165 224 1165 454 
C 1165 505 1178 562 1190 613 
L 2054 4032 
C 2093 3968 2093 3956 2118 3898 
L 3642 115 
C 3674 38 3686 0 3744 0 
C 3808 0 3814 19 3840 128 
L 4736 3698 
z
" transform="scale(0.015625)"/>
      </defs>
      <use xlink:href="#CMMI12-59" transform="scale(0.996264)"/>
      <use xlink:href="#CMMI12-4e" transform="translate(56.598607 -14.943915) scale(0.697382)"/>
      <use xlink:href="#CMR17-32" transform="translate(111.278947 -25.404611) scale(0.498132)"/>
     </g>
    </g>
   </g>
  </g>
 </g>
 <defs>
  <clipPath id="pcfea906bd5">
   <rect x="84.740543" y="7.2" width="725.4" height="609.84"/>
  </clipPath>
 </defs>
</svg>
