<?xml version="1.0" encoding="utf-8" standalone="no"?>
<!DOCTYPE svg PUBLIC "-//W3C//DTD SVG 1.1//EN"
  "http://www.w3.org/Graphics/SVG/1.1/DTD/svg11.dtd">
<svg xmlns:xlink="http://www.w3.org/1999/xlink" width="817.340543pt" height="692.806049pt" viewBox="0 0 817.340543 692.806049" xmlns="http://www.w3.org/2000/svg" version="1.1">
 <metadata>
  <rdf:RDF xmlns:dc="http://purl.org/dc/elements/1.1/" xmlns:cc="http://creativecommons.org/ns#" xmlns:rdf="http://www.w3.org/1999/02/22-rdf-syntax-ns#">
   <cc:Work>
    <dc:type rdf:resource="http://purl.org/dc/dcmitype/StillImage"/>
    <dc:date>2025-03-26T16:04:26.727843</dc:date>
    <dc:format>image/svg+xml</dc:format>
    <dc:creator>
     <cc:Agent>
      <dc:title>Matplotlib v3.7.1, https://matplotlib.org/</dc:title>
     </cc:Agent>
    </dc:creator>
   </cc:Work>
  </rdf:RDF>
 </metadata>
 <defs>
  <style type="text/css">*{stroke-linejoin: round; stroke-linecap: butt}</style>
 </defs>
 <g id="figure_1">
  <g id="patch_1">
   <path d="M 0 692.806049 
L 817.340543 692.806049 
L 817.340543 0 
L 0 0 
z
" style="fill: #ffffff"/>
  </g>
  <g id="axes_1">
   <g id="patch_2">
    <path d="M 84.740543 617.04 
L 810.140543 617.04 
L 810.140543 7.2 
L 84.740543 7.2 
z
" style="fill: #ffffff"/>
   </g>
   <g id="PolyCollection_1">
    <path d="M 9.178043 605.309897 
L 9.178043 605.312308 
L 29.717351 605.312308 
L 44.711179 605.312308 
L 55.656948 605.312308 
L 63.647806 605.312308 
L 69.481777 605.312308 
L 73.741466 605.312308 
L 76.852227 605.312308 
L 79.124624 605.312308 
L 80.785425 605.312308 
L 82.111498 605.312308 
L 83.42602 605.312308 
L 84.740543 605.312308 
L 86.087804 605.312308 
L 87.435066 605.312308 
L 88.782327 605.312308 
L 90.129589 605.312308 
L 91.47685 605.312308 
L 92.824112 605.312308 
L 94.171374 605.312308 
L 95.518635 605.312308 
L 96.865897 605.312308 
L 98.213158 605.312308 
L 99.56042 605.312308 
L 100.907682 605.312308 
L 102.254943 605.312308 
L 103.602205 605.312308 
L 104.949466 605.312308 
L 106.296728 605.312308 
L 107.643989 605.312308 
L 108.991251 605.312308 
L 110.338513 605.312308 
L 111.685774 605.312308 
L 113.033036 605.312308 
L 114.380297 605.312308 
L 115.727559 605.312308 
L 117.07482 605.312308 
L 118.422082 605.312308 
L 119.769344 605.312308 
L 121.116605 605.312308 
L 122.463867 605.312308 
L 123.811128 605.312308 
L 125.15839 605.312308 
L 126.505652 605.312308 
L 127.852913 605.312308 
L 129.200175 605.312308 
L 130.547436 605.312308 
L 131.894699 605.312308 
L 133.275902 605.312308 
L 134.706455 605.312308 
L 136.188485 605.312308 
L 137.72483 605.312308 
L 139.318394 605.312308 
L 140.970849 605.312308 
L 142.684184 605.312308 
L 144.460719 605.312308 
L 146.303001 605.312308 
L 148.212643 605.312308 
L 150.191638 605.312308 
L 152.242772 605.312308 
L 154.369789 605.312308 
L 156.576921 605.312308 
L 158.863167 605.312308 
L 161.23367 605.312308 
L 163.692746 605.312308 
L 166.240541 605.312308 
L 168.88361 605.312308 
L 171.623417 605.312308 
L 174.463215 605.312308 
L 177.408712 605.312308 
L 180.46251 605.312308 
L 183.628419 605.312308 
L 186.910786 605.312308 
L 190.314049 605.312308 
L 193.842604 605.312308 
L 197.500918 605.312308 
L 201.293821 605.312308 
L 205.22697 605.312308 
L 209.304744 605.312308 
L 213.53248 605.312308 
L 217.91616 605.312308 
L 222.461467 605.312308 
L 227.17384 605.312308 
L 232.059762 605.312308 
L 237.125821 605.312308 
L 242.378625 605.312308 
L 247.824813 605.312308 
L 253.442863 605.312308 
L 259.222913 605.312308 
L 265.21574 605.312308 
L 271.429742 605.312308 
L 277.872644 605.312308 
L 284.553028 605.312308 
L 291.4797 605.312308 
L 298.661623 605.312308 
L 306.108307 605.312308 
L 313.829633 605.312308 
L 321.835592 605.312308 
L 330.136629 605.312308 
L 338.743693 605.312308 
L 347.240659 605.312308 
L 353.582193 605.312308 
L 358.098232 605.312308 
L 361.314826 605.312308 
L 363.606378 605.312308 
L 365.239331 605.312308 
L 366.522694 605.312308 
L 367.795107 605.312308 
L 369.067521 605.312308 
L 370.339935 605.312308 
L 371.612349 605.312308 
L 372.884762 605.312308 
L 374.157176 605.312308 
L 375.42959 605.312308 
L 376.702003 605.312308 
L 377.629898 605.312308 
L 378.557793 605.312308 
L 379.485688 605.312308 
L 380.413583 605.312308 
L 381.341477 605.312308 
L 382.269372 605.312308 
L 383.197267 605.312308 
L 384.125162 605.312308 
L 385.053056 605.312308 
L 385.980951 605.312308 
L 386.908846 605.312308 
L 387.836741 605.312308 
L 388.764636 605.312308 
L 389.69253 605.312308 
L 390.620425 605.312308 
L 391.54832 605.312308 
L 392.476215 605.312308 
L 393.404109 605.312308 
L 394.332004 605.312308 
L 395.259899 605.312308 
L 396.187794 605.312308 
L 397.115689 605.312308 
L 398.043583 605.312308 
L 398.971478 605.312308 
L 399.899373 605.312308 
L 400.827268 605.312308 
L 401.755162 605.312308 
L 402.683057 605.312308 
L 403.610952 605.312308 
L 404.538847 605.312308 
L 405.466742 605.312308 
L 406.394636 605.312308 
L 407.322531 605.312308 
L 408.250426 605.312308 
L 409.178321 605.312308 
L 410.106215 605.312308 
L 411.03411 605.312308 
L 411.962005 605.312308 
L 412.8899 605.312308 
L 413.817795 605.312308 
L 414.745689 605.312308 
L 415.673584 605.312308 
L 416.601479 605.312308 
L 417.529374 605.312308 
L 418.466771 605.312308 
L 419.462355 605.312308 
L 420.545322 605.312308 
L 421.713006 605.312308 
L 422.98146 605.312308 
L 424.358264 605.312308 
L 425.84987 605.312308 
L 427.468869 605.312308 
L 429.229604 605.312308 
L 431.143679 605.312308 
L 433.224812 605.312308 
L 435.488341 605.312308 
L 437.951073 605.312308 
L 440.63164 605.312308 
L 443.549241 605.312308 
L 446.721698 605.312308 
L 450.174259 605.312308 
L 453.926016 605.312308 
L 458.002814 605.312308 
L 462.425952 605.312308 
L 467.21716 605.312308 
L 472.396058 605.312308 
L 477.975382 605.312308 
L 483.958078 605.312308 
L 490.325069 605.312308 
L 496.978314 605.312308 
L 503.659157 605.312308 
L 510.339999 605.312308 
L 517.020842 605.312308 
L 523.701684 605.312308 
L 530.382526 605.312308 
L 537.063369 605.312308 
L 543.744211 605.312308 
L 550.425053 605.312308 
L 557.105896 605.312308 
L 563.786738 605.312308 
L 570.467581 605.312308 
L 577.148423 605.312308 
L 583.829265 605.312308 
L 590.510108 605.312308 
L 599.95542 605.312308 
L 609.400733 605.312308 
L 618.846045 605.312308 
L 628.291358 605.312308 
L 637.73667 605.312308 
L 647.181983 605.312308 
L 656.627295 605.312308 
L 666.072608 605.312308 
L 675.51792 605.312308 
L 684.963233 605.312308 
L 694.408545 605.312308 
L 703.853858 605.312308 
L 713.29917 605.312308 
L 722.744483 605.312308 
L 732.189795 605.312308 
L 741.635108 605.312308 
L 751.08042 605.312308 
L 760.525733 605.312308 
L 769.971045 605.312308 
L 779.416358 605.312308 
L 788.86167 605.312308 
L 798.306983 605.312308 
L 807.752295 605.312308 
L 817.197608 605.312308 
L 817.197608 373.975731 
L 817.197608 373.975731 
L 807.752295 373.746048 
L 798.306983 373.33452 
L 788.86167 372.751875 
L 779.416358 372.124593 
L 769.971045 371.45698 
L 760.525733 370.899139 
L 751.08042 370.39011 
L 741.635108 370.079675 
L 732.189795 369.752774 
L 722.744483 369.621294 
L 713.29917 369.246276 
L 703.853858 368.990915 
L 694.408545 368.170481 
L 684.963233 367.330717 
L 675.51792 365.616383 
L 666.072608 363.673093 
L 656.627295 360.672034 
L 647.181983 357.245278 
L 637.73667 352.869608 
L 628.291358 348.102126 
L 618.846045 342.799836 
L 609.400733 337.653898 
L 599.95542 332.825462 
L 590.510108 329.144833 
L 583.829265 326.330286 
L 577.148423 325.288942 
L 570.467581 324.806506 
L 563.786738 326.097426 
L 557.105896 327.895189 
L 550.425053 331.081377 
L 543.744211 334.750129 
L 537.063369 339.47102 
L 530.382526 344.837334 
L 523.701684 351.085486 
L 517.020842 358.196336 
L 510.339999 366.383786 
L 503.659157 375.900136 
L 496.978314 387.195509 
L 490.325069 400.843795 
L 483.958078 417.63184 
L 477.975382 438.933742 
L 472.396058 465.19382 
L 467.21716 495.005646 
L 462.425952 526.224695 
L 458.002814 556.084003 
L 453.926016 581.28438 
L 450.174259 600.140162 
L 446.721698 605.312308 
L 443.549241 605.312308 
L 440.63164 605.312308 
L 437.951073 605.312308 
L 435.488341 605.312308 
L 433.224812 605.312308 
L 431.143679 605.312308 
L 429.229604 605.312308 
L 427.468869 605.312308 
L 425.84987 605.312308 
L 424.358264 605.312308 
L 422.98146 605.312308 
L 421.713006 604.401408 
L 420.545322 599.179595 
L 419.462355 593.527058 
L 418.466771 588.059514 
L 417.529374 582.789433 
L 416.601479 578.001417 
L 415.673584 573.672877 
L 414.745689 569.775013 
L 413.817795 566.121847 
L 412.8899 562.672219 
L 411.962005 559.181906 
L 411.03411 555.864106 
L 410.106215 552.243491 
L 409.178321 548.604516 
L 408.250426 544.627226 
L 407.322531 540.596032 
L 406.394636 536.073518 
L 405.466742 531.225231 
L 404.538847 525.589668 
L 403.610952 519.180504 
L 402.683057 511.653025 
L 401.755162 502.916006 
L 400.827268 493.630556 
L 399.899373 484.031463 
L 398.971478 473.723184 
L 398.043583 462.528253 
L 397.115689 450.163455 
L 396.187794 436.761868 
L 395.259899 422.453747 
L 394.332004 407.23252 
L 393.404109 391.484842 
L 392.476215 375.32371 
L 391.54832 358.619114 
L 390.620425 341.788659 
L 389.69253 325.393978 
L 388.764636 309.941402 
L 387.836741 295.944283 
L 386.908846 283.944955 
L 385.980951 274.527355 
L 385.053056 267.097321 
L 384.125162 263.334979 
L 383.197267 260.738018 
L 382.269372 263.153382 
L 381.341477 266.398513 
L 380.413583 274.999692 
L 379.485688 286.97416 
L 378.557793 304.234238 
L 377.629898 332.627196 
L 376.702003 360.75517 
L 375.42959 392.863496 
L 374.157176 412.133292 
L 372.884762 426.516197 
L 371.612349 437.454706 
L 370.339935 444.967719 
L 369.067521 451.05159 
L 367.795107 454.432832 
L 366.522694 457.556625 
L 365.239331 458.94899 
L 363.606378 460.527471 
L 361.314826 461.374385 
L 358.098232 462.489449 
L 353.582193 463.438418 
L 347.240659 464.680455 
L 338.743693 465.947343 
L 330.136629 467.604496 
L 321.835592 469.440286 
L 313.829633 471.551612 
L 306.108307 473.653919 
L 298.661623 475.953534 
L 291.4797 478.257935 
L 284.553028 480.69005 
L 277.872644 483.146604 
L 271.429742 485.698379 
L 265.21574 488.258817 
L 259.222913 490.880036 
L 253.442863 493.463769 
L 247.824813 496.089576 
L 242.378625 498.688341 
L 237.125821 501.213604 
L 232.059762 503.700421 
L 227.17384 506.062348 
L 222.461467 508.492128 
L 217.91616 510.765622 
L 213.53248 513.175778 
L 209.304744 515.393689 
L 205.22697 517.741104 
L 201.293821 519.923562 
L 197.500918 522.221916 
L 193.842604 524.44826 
L 190.314049 526.765446 
L 186.910786 529.105675 
L 183.628419 531.442015 
L 180.46251 533.789186 
L 177.408712 536.085903 
L 174.463215 538.390855 
L 171.623417 540.611041 
L 168.88361 542.84331 
L 166.240541 544.976235 
L 163.692746 547.131705 
L 161.23367 549.181296 
L 158.863167 551.235108 
L 156.576921 553.153731 
L 154.369789 555.038176 
L 152.242772 556.771945 
L 150.191638 558.440974 
L 148.212643 559.966062 
L 146.303001 561.402263 
L 144.460719 562.74736 
L 142.684184 563.989212 
L 140.970849 565.24979 
L 139.318394 566.379167 
L 137.72483 567.653863 
L 136.188485 568.744195 
L 134.706455 570.048342 
L 133.275902 571.085723 
L 131.894699 572.3144 
L 130.547436 573.168816 
L 129.200175 574.178721 
L 127.852913 574.751727 
L 126.505652 575.515796 
L 125.15839 575.862758 
L 123.811128 576.480247 
L 122.463867 576.765428 
L 121.116605 577.377507 
L 119.769344 577.76252 
L 118.422082 578.447755 
L 117.07482 578.989551 
L 115.727559 579.725824 
L 114.380297 580.383332 
L 113.033036 581.103592 
L 111.685774 581.815873 
L 110.338513 582.492858 
L 108.991251 583.244061 
L 107.643989 583.906254 
L 106.296728 584.7084 
L 104.949466 585.392564 
L 103.602205 586.253656 
L 102.254943 586.964412 
L 100.907682 587.887865 
L 99.56042 588.637293 
L 98.213158 589.661465 
L 96.865897 590.519129 
L 95.518635 591.710651 
L 94.171374 592.771712 
L 92.824112 594.167832 
L 91.47685 595.440492 
L 90.129589 596.965734 
L 88.782327 598.274781 
L 87.435066 599.733267 
L 86.087804 600.846787 
L 84.740543 602.053634 
L 83.42602 602.827739 
L 82.111498 603.6846 
L 80.785425 604.116125 
L 79.124624 604.632403 
L 76.852227 604.825108 
L 73.741466 605.082161 
L 69.481777 605.149984 
L 63.647806 605.251797 
L 55.656948 605.27012 
L 44.711179 605.30066 
L 29.717351 605.304254 
L 9.178043 605.309897 
z
" clip-path="url(#pcf11ef7528)" style="fill: #1f77b4"/>
   </g>
   <g id="PolyCollection_2">
    <path d="M 9.178043 605.247371 
L 9.178043 605.309897 
L 29.717351 605.304254 
L 44.711179 605.30066 
L 55.656948 605.27012 
L 63.647806 605.251797 
L 69.481777 605.149984 
L 73.741466 605.082161 
L 76.852227 604.825108 
L 79.124624 604.632403 
L 80.785425 604.116125 
L 82.111498 603.6846 
L 83.42602 602.827739 
L 84.740543 602.053634 
L 86.087804 600.846787 
L 87.435066 599.733267 
L 88.782327 598.274781 
L 90.129589 596.965734 
L 91.47685 595.440492 
L 92.824112 594.167832 
L 94.171374 592.771712 
L 95.518635 591.710651 
L 96.865897 590.519129 
L 98.213158 589.661465 
L 99.56042 588.637293 
L 100.907682 587.887865 
L 102.254943 586.964412 
L 103.602205 586.253656 
L 104.949466 585.392564 
L 106.296728 584.7084 
L 107.643989 583.906254 
L 108.991251 583.244061 
L 110.338513 582.492858 
L 111.685774 581.815873 
L 113.033036 581.103592 
L 114.380297 580.383332 
L 115.727559 579.725824 
L 117.07482 578.989551 
L 118.422082 578.447755 
L 119.769344 577.76252 
L 121.116605 577.377507 
L 122.463867 576.765428 
L 123.811128 576.480247 
L 125.15839 575.862758 
L 126.505652 575.515796 
L 127.852913 574.751727 
L 129.200175 574.178721 
L 130.547436 573.168816 
L 131.894699 572.3144 
L 133.275902 571.085723 
L 134.706455 570.048342 
L 136.188485 568.744195 
L 137.72483 567.653863 
L 139.318394 566.379167 
L 140.970849 565.24979 
L 142.684184 563.989212 
L 144.460719 562.74736 
L 146.303001 561.402263 
L 148.212643 559.966062 
L 150.191638 558.440974 
L 152.242772 556.771945 
L 154.369789 555.038176 
L 156.576921 553.153731 
L 158.863167 551.235108 
L 161.23367 549.181296 
L 163.692746 547.131705 
L 166.240541 544.976235 
L 168.88361 542.84331 
L 171.623417 540.611041 
L 174.463215 538.390855 
L 177.408712 536.085903 
L 180.46251 533.789186 
L 183.628419 531.442015 
L 186.910786 529.105675 
L 190.314049 526.765446 
L 193.842604 524.44826 
L 197.500918 522.221916 
L 201.293821 519.923562 
L 205.22697 517.741104 
L 209.304744 515.393689 
L 213.53248 513.175778 
L 217.91616 510.765622 
L 222.461467 508.492128 
L 227.17384 506.062348 
L 232.059762 503.700421 
L 237.125821 501.213604 
L 242.378625 498.688341 
L 247.824813 496.089576 
L 253.442863 493.463769 
L 259.222913 490.880036 
L 265.21574 488.258817 
L 271.429742 485.698379 
L 277.872644 483.146604 
L 284.553028 480.69005 
L 291.4797 478.257935 
L 298.661623 475.953534 
L 306.108307 473.653919 
L 313.829633 471.551612 
L 321.835592 469.440286 
L 330.136629 467.604496 
L 338.743693 465.947343 
L 347.240659 464.680455 
L 353.582193 463.438418 
L 358.098232 462.489449 
L 361.314826 461.374385 
L 363.606378 460.527471 
L 365.239331 458.94899 
L 366.522694 457.556625 
L 367.795107 454.432832 
L 369.067521 451.05159 
L 370.339935 444.967719 
L 371.612349 437.454706 
L 372.884762 426.516197 
L 374.157176 412.133292 
L 375.42959 392.863496 
L 376.702003 360.75517 
L 377.629898 332.627196 
L 378.557793 304.234238 
L 379.485688 286.97416 
L 380.413583 274.999692 
L 381.341477 266.398513 
L 382.269372 263.153382 
L 383.197267 260.738018 
L 384.125162 263.334979 
L 385.053056 267.097321 
L 385.980951 274.527355 
L 386.908846 283.944955 
L 387.836741 295.944283 
L 388.764636 309.941402 
L 389.69253 325.393978 
L 390.620425 341.788659 
L 391.54832 358.619114 
L 392.476215 375.32371 
L 393.404109 391.484842 
L 394.332004 407.23252 
L 395.259899 422.453747 
L 396.187794 436.761868 
L 397.115689 450.163455 
L 398.043583 462.528253 
L 398.971478 473.723184 
L 399.899373 484.031463 
L 400.827268 493.630556 
L 401.755162 502.916006 
L 402.683057 511.653025 
L 403.610952 519.180504 
L 404.538847 525.589668 
L 405.466742 531.225231 
L 406.394636 536.073518 
L 407.322531 540.596032 
L 408.250426 544.627226 
L 409.178321 548.604516 
L 410.106215 552.243491 
L 411.03411 555.864106 
L 411.962005 559.181906 
L 412.8899 562.672219 
L 413.817795 566.121847 
L 414.745689 569.775013 
L 415.673584 573.672877 
L 416.601479 578.001417 
L 417.529374 582.789433 
L 418.466771 588.059514 
L 419.462355 593.527058 
L 420.545322 599.179595 
L 421.713006 604.401408 
L 422.98146 605.312308 
L 424.358264 605.312308 
L 425.84987 605.312308 
L 427.468869 605.312308 
L 429.229604 605.312308 
L 431.143679 605.312308 
L 433.224812 605.312308 
L 435.488341 605.312308 
L 437.951073 605.312308 
L 440.63164 605.312308 
L 443.549241 605.312308 
L 446.721698 605.312308 
L 450.174259 600.140162 
L 453.926016 581.28438 
L 458.002814 556.084003 
L 462.425952 526.224695 
L 467.21716 495.005646 
L 472.396058 465.19382 
L 477.975382 438.933742 
L 483.958078 417.63184 
L 490.325069 400.843795 
L 496.978314 387.195509 
L 503.659157 375.900136 
L 510.339999 366.383786 
L 517.020842 358.196336 
L 523.701684 351.085486 
L 530.382526 344.837334 
L 537.063369 339.47102 
L 543.744211 334.750129 
L 550.425053 331.081377 
L 557.105896 327.895189 
L 563.786738 326.097426 
L 570.467581 324.806506 
L 577.148423 325.288942 
L 583.829265 326.330286 
L 590.510108 329.144833 
L 599.95542 332.825462 
L 609.400733 337.653898 
L 618.846045 342.799836 
L 628.291358 348.102126 
L 637.73667 352.869608 
L 647.181983 357.245278 
L 656.627295 360.672034 
L 666.072608 363.673093 
L 675.51792 365.616383 
L 684.963233 367.330717 
L 694.408545 368.170481 
L 703.853858 368.990915 
L 713.29917 369.246276 
L 722.744483 369.621294 
L 732.189795 369.752774 
L 741.635108 370.079675 
L 751.08042 370.39011 
L 760.525733 370.899139 
L 769.971045 371.45698 
L 779.416358 372.124593 
L 788.86167 372.751875 
L 798.306983 373.33452 
L 807.752295 373.746048 
L 817.197608 373.975731 
L 817.197608 269.555759 
L 817.197608 269.555759 
L 807.752295 269.43189 
L 798.306983 269.234439 
L 788.86167 268.978138 
L 779.416358 268.792875 
L 769.971045 268.6914 
L 760.525733 268.830366 
L 751.08042 269.160063 
L 741.635108 269.838558 
L 732.189795 270.66138 
L 722.744483 271.849924 
L 713.29917 272.975486 
L 703.853858 274.407552 
L 694.408545 275.474401 
L 684.963233 276.734612 
L 675.51792 277.339182 
L 666.072608 277.932909 
L 656.627295 277.669833 
L 647.181983 277.147057 
L 637.73667 275.798897 
L 628.291358 274.127129 
L 618.846045 271.878581 
L 609.400733 269.59397 
L 599.95542 267.293407 
L 590.510108 265.6447 
L 583.829265 264.232815 
L 577.148423 263.997133 
L 570.467581 263.781716 
L 563.786738 264.832682 
L 557.105896 265.813305 
L 550.425053 267.544002 
L 543.744211 269.072026 
L 537.063369 270.9134 
L 530.382526 272.592987 
L 523.701684 274.300493 
L 517.020842 275.980184 
L 510.339999 277.79935 
L 503.659157 279.847469 
L 496.978314 282.37745 
L 490.325069 285.8181 
L 483.958078 290.622457 
L 477.975382 297.490795 
L 472.396058 305.746901 
L 467.21716 314.024283 
L 462.425952 322.261145 
L 458.002814 331.370863 
L 453.926016 340.140268 
L 450.174259 346.653824 
L 446.721698 342.434956 
L 443.549241 335.579889 
L 440.63164 330.57575 
L 437.951073 326.968475 
L 435.488341 324.425607 
L 433.224812 322.698099 
L 431.143679 321.582352 
L 429.229604 320.955138 
L 427.468869 320.718117 
L 425.84987 320.846738 
L 424.358264 321.322001 
L 422.98146 322.02977 
L 421.713006 321.92507 
L 420.545322 317.483384 
L 419.462355 312.509799 
L 418.466771 307.576263 
L 417.529374 302.698475 
L 416.601479 298.156257 
L 415.673584 293.982506 
L 414.745689 290.162061 
L 413.817795 286.605228 
L 412.8899 283.267903 
L 411.962005 280.361524 
L 411.03411 278.594876 
L 410.106215 276.815286 
L 409.178321 275.127236 
L 408.250426 273.47326 
L 407.322531 271.997012 
L 406.394636 270.580141 
L 405.466742 269.371944 
L 404.538847 268.279705 
L 403.610952 267.454913 
L 402.683057 266.937992 
L 401.755162 266.933004 
L 400.827268 269.950642 
L 399.899373 276.794108 
L 398.971478 286.470572 
L 398.043583 297.493506 
L 397.115689 307.730782 
L 396.187794 315.670617 
L 395.259899 320.240568 
L 394.332004 321.217035 
L 393.404109 318.673244 
L 392.476215 313.050504 
L 391.54832 304.528149 
L 390.620425 293.852042 
L 389.69253 281.932954 
L 388.764636 269.64879 
L 387.836741 257.798278 
L 386.908846 247.173116 
L 385.980951 238.502671 
L 385.053056 231.337279 
L 384.125162 227.337427 
L 383.197267 223.986273 
L 382.269372 225.202078 
L 381.341477 226.943156 
L 380.413583 233.891167 
L 379.485688 244.22125 
L 378.557793 259.871841 
L 377.629898 286.780444 
L 376.702003 313.257012 
L 375.42959 344.197553 
L 374.157176 361.931539 
L 372.884762 375.436353 
L 371.612349 385.203874 
L 370.339935 392.374342 
L 369.067521 397.402244 
L 367.795107 400.958984 
L 366.522694 403.173043 
L 365.239331 405.081388 
L 363.606378 406.069607 
L 361.314826 407.526976 
L 358.098232 408.472894 
L 353.582193 410.00521 
L 347.240659 411.448069 
L 338.743693 413.315539 
L 330.136629 415.463909 
L 321.835592 418.029759 
L 313.829633 420.844627 
L 306.108307 423.721427 
L 298.661623 426.814855 
L 291.4797 429.958368 
L 284.553028 433.264903 
L 277.872644 436.638669 
L 271.429742 440.148079 
L 265.21574 443.708596 
L 259.222913 447.368198 
L 253.442863 451.028861 
L 247.824813 454.775408 
L 242.378625 458.53412 
L 237.125821 462.22652 
L 232.059762 465.880338 
L 227.17384 469.402399 
L 222.461467 472.976877 
L 217.91616 476.37238 
L 213.53248 479.875703 
L 209.304744 483.151925 
L 205.22697 486.516415 
L 201.293821 489.67506 
L 197.500918 492.907812 
L 193.842604 496.027975 
L 190.314049 499.204392 
L 186.910786 502.373364 
L 183.628419 505.49747 
L 180.46251 508.595757 
L 177.408712 511.610118 
L 174.463215 514.60232 
L 171.623417 517.483324 
L 168.88361 520.351179 
L 166.240541 523.097569 
L 163.692746 525.845197 
L 161.23367 528.468521 
L 158.863167 531.07982 
L 156.576921 533.541983 
L 154.369789 535.958757 
L 152.242772 538.21456 
L 150.191638 540.399163 
L 148.212643 542.431125 
L 146.303001 544.36919 
L 144.460719 546.205382 
L 142.684184 547.932335 
L 140.970849 549.662979 
L 139.318394 551.255838 
L 137.72483 552.975419 
L 136.188485 554.504833 
L 134.706455 556.229214 
L 133.275902 557.683083 
L 131.894699 559.314217 
L 130.547436 560.572145 
L 129.200175 561.979997 
L 127.852913 562.957698 
L 126.505652 564.130284 
L 125.15839 564.897391 
L 123.811128 565.947515 
L 122.463867 566.681573 
L 121.116605 567.762205 
L 119.769344 568.633749 
L 118.422082 569.828044 
L 117.07482 570.895717 
L 115.727559 572.178937 
L 114.380297 573.391827 
L 113.033036 574.679822 
L 111.685774 575.952139 
L 110.338513 577.188396 
L 108.991251 578.471662 
L 107.643989 579.655661 
L 106.296728 580.936492 
L 104.949466 582.086702 
L 103.602205 583.356961 
L 102.254943 584.466056 
L 100.907682 585.718158 
L 99.56042 586.794116 
L 98.213158 588.063487 
L 96.865897 589.180049 
L 95.518635 590.540444 
L 94.171374 591.80298 
L 92.824112 593.306933 
L 91.47685 594.734997 
L 90.129589 596.325447 
L 88.782327 597.754121 
L 87.435066 599.251281 
L 86.087804 600.45789 
L 84.740543 601.68843 
L 83.42602 602.536599 
L 82.111498 603.409183 
L 80.785425 603.900584 
L 79.124624 604.428258 
L 76.852227 604.668874 
L 73.741466 604.93461 
L 69.481777 605.038821 
L 63.647806 605.147003 
L 55.656948 605.189909 
L 44.711179 605.224395 
L 29.717351 605.240388 
L 9.178043 605.247371 
z
" clip-path="url(#pcf11ef7528)" style="fill: #ff7f0e"/>
   </g>
   <g id="PolyCollection_3">
    <path d="M 9.178043 18.927692 
L 9.178043 605.247371 
L 29.717351 605.240388 
L 44.711179 605.224395 
L 55.656948 605.189909 
L 63.647806 605.147003 
L 69.481777 605.038821 
L 73.741466 604.93461 
L 76.852227 604.668874 
L 79.124624 604.428258 
L 80.785425 603.900584 
L 82.111498 603.409183 
L 83.42602 602.536599 
L 84.740543 601.68843 
L 86.087804 600.45789 
L 87.435066 599.251281 
L 88.782327 597.754121 
L 90.129589 596.325447 
L 91.47685 594.734997 
L 92.824112 593.306933 
L 94.171374 591.80298 
L 95.518635 590.540444 
L 96.865897 589.180049 
L 98.213158 588.063487 
L 99.56042 586.794116 
L 100.907682 585.718158 
L 102.254943 584.466056 
L 103.602205 583.356961 
L 104.949466 582.086702 
L 106.296728 580.936492 
L 107.643989 579.655661 
L 108.991251 578.471662 
L 110.338513 577.188396 
L 111.685774 575.952139 
L 113.033036 574.679822 
L 114.380297 573.391827 
L 115.727559 572.178937 
L 117.07482 570.895717 
L 118.422082 569.828044 
L 119.769344 568.633749 
L 121.116605 567.762205 
L 122.463867 566.681573 
L 123.811128 565.947515 
L 125.15839 564.897391 
L 126.505652 564.130284 
L 127.852913 562.957698 
L 129.200175 561.979997 
L 130.547436 560.572145 
L 131.894699 559.314217 
L 133.275902 557.683083 
L 134.706455 556.229214 
L 136.188485 554.504833 
L 137.72483 552.975419 
L 139.318394 551.255838 
L 140.970849 549.662979 
L 142.684184 547.932335 
L 144.460719 546.205382 
L 146.303001 544.36919 
L 148.212643 542.431125 
L 150.191638 540.399163 
L 152.242772 538.21456 
L 154.369789 535.958757 
L 156.576921 533.541983 
L 158.863167 531.07982 
L 161.23367 528.468521 
L 163.692746 525.845197 
L 166.240541 523.097569 
L 168.88361 520.351179 
L 171.623417 517.483324 
L 174.463215 514.60232 
L 177.408712 511.610118 
L 180.46251 508.595757 
L 183.628419 505.49747 
L 186.910786 502.373364 
L 190.314049 499.204392 
L 193.842604 496.027975 
L 197.500918 492.907812 
L 201.293821 489.67506 
L 205.22697 486.516415 
L 209.304744 483.151925 
L 213.53248 479.875703 
L 217.91616 476.37238 
L 222.461467 472.976877 
L 227.17384 469.402399 
L 232.059762 465.880338 
L 237.125821 462.22652 
L 242.378625 458.53412 
L 247.824813 454.775408 
L 253.442863 451.028861 
L 259.222913 447.368198 
L 265.21574 443.708596 
L 271.429742 440.148079 
L 277.872644 436.638669 
L 284.553028 433.264903 
L 291.4797 429.958368 
L 298.661623 426.814855 
L 306.108307 423.721427 
L 313.829633 420.844627 
L 321.835592 418.029759 
L 330.136629 415.463909 
L 338.743693 413.315539 
L 347.240659 411.448069 
L 353.582193 410.00521 
L 358.098232 408.472894 
L 361.314826 407.526976 
L 363.606378 406.069607 
L 365.239331 405.081388 
L 366.522694 403.173043 
L 367.795107 400.958984 
L 369.067521 397.402244 
L 370.339935 392.374342 
L 371.612349 385.203874 
L 372.884762 375.436353 
L 374.157176 361.931539 
L 375.42959 344.197553 
L 376.702003 313.257012 
L 377.629898 286.780444 
L 378.557793 259.871841 
L 379.485688 244.22125 
L 380.413583 233.891167 
L 381.341477 226.943156 
L 382.269372 225.202078 
L 383.197267 223.986273 
L 384.125162 227.337427 
L 385.053056 231.337279 
L 385.980951 238.502671 
L 386.908846 247.173116 
L 387.836741 257.798278 
L 388.764636 269.64879 
L 389.69253 281.932954 
L 390.620425 293.852042 
L 391.54832 304.528149 
L 392.476215 313.050504 
L 393.404109 318.673244 
L 394.332004 321.217035 
L 395.259899 320.240568 
L 396.187794 315.670617 
L 397.115689 307.730782 
L 398.043583 297.493506 
L 398.971478 286.470572 
L 399.899373 276.794108 
L 400.827268 269.950642 
L 401.755162 266.933004 
L 402.683057 266.937992 
L 403.610952 267.454913 
L 404.538847 268.279705 
L 405.466742 269.371944 
L 406.394636 270.580141 
L 407.322531 271.997012 
L 408.250426 273.47326 
L 409.178321 275.127236 
L 410.106215 276.815286 
L 411.03411 278.594876 
L 411.962005 280.361524 
L 412.8899 283.267903 
L 413.817795 286.605228 
L 414.745689 290.162061 
L 415.673584 293.982506 
L 416.601479 298.156257 
L 417.529374 302.698475 
L 418.466771 307.576263 
L 419.462355 312.509799 
L 420.545322 317.483384 
L 421.713006 321.92507 
L 422.98146 322.02977 
L 424.358264 321.322001 
L 425.84987 320.846738 
L 427.468869 320.718117 
L 429.229604 320.955138 
L 431.143679 321.582352 
L 433.224812 322.698099 
L 435.488341 324.425607 
L 437.951073 326.968475 
L 440.63164 330.57575 
L 443.549241 335.579889 
L 446.721698 342.434956 
L 450.174259 346.653824 
L 453.926016 340.140268 
L 458.002814 331.370863 
L 462.425952 322.261145 
L 467.21716 314.024283 
L 472.396058 305.746901 
L 477.975382 297.490795 
L 483.958078 290.622457 
L 490.325069 285.8181 
L 496.978314 282.37745 
L 503.659157 279.847469 
L 510.339999 277.79935 
L 517.020842 275.980184 
L 523.701684 274.300493 
L 530.382526 272.592987 
L 537.063369 270.9134 
L 543.744211 269.072026 
L 550.425053 267.544002 
L 557.105896 265.813305 
L 563.786738 264.832682 
L 570.467581 263.781716 
L 577.148423 263.997133 
L 583.829265 264.232815 
L 590.510108 265.6447 
L 599.95542 267.293407 
L 609.400733 269.59397 
L 618.846045 271.878581 
L 628.291358 274.127129 
L 637.73667 275.798897 
L 647.181983 277.147057 
L 656.627295 277.669833 
L 666.072608 277.932909 
L 675.51792 277.339182 
L 684.963233 276.734612 
L 694.408545 275.474401 
L 703.853858 274.407552 
L 713.29917 272.975486 
L 722.744483 271.849924 
L 732.189795 270.66138 
L 741.635108 269.838558 
L 751.08042 269.160063 
L 760.525733 268.830366 
L 769.971045 268.6914 
L 779.416358 268.792875 
L 788.86167 268.978138 
L 798.306983 269.234439 
L 807.752295 269.43189 
L 817.197608 269.555759 
L 817.197608 85.936005 
L 817.197608 85.936005 
L 807.752295 85.805946 
L 798.306983 85.628525 
L 788.86167 85.35199 
L 779.416358 85.203143 
L 769.971045 85.062182 
L 760.525733 85.246749 
L 751.08042 85.509162 
L 741.635108 86.230718 
L 732.189795 86.947537 
L 722.744483 88.159846 
L 713.29917 89.130051 
L 703.853858 90.545252 
L 694.408545 91.400866 
L 684.963233 92.576394 
L 675.51792 92.911966 
L 666.072608 93.326632 
L 656.627295 92.732927 
L 647.181983 91.920751 
L 637.73667 90.172437 
L 628.291358 88.107826 
L 618.846045 85.38803 
L 609.400733 82.622399 
L 599.95542 79.7919 
L 590.510108 77.601027 
L 583.829265 75.617967 
L 577.148423 74.815678 
L 570.467581 74.028998 
L 563.786738 74.546961 
L 557.105896 74.994975 
L 550.425053 76.280224 
L 543.744211 77.353861 
L 537.063369 78.896931 
L 530.382526 80.21393 
L 523.701684 81.801343 
L 517.020842 83.214397 
L 510.339999 85.10449 
L 503.659157 86.975667 
L 496.978314 89.735866 
L 490.325069 93.103951 
L 483.958078 98.193371 
L 477.975382 105.107033 
L 472.396058 113.582379 
L 467.21716 121.920228 
L 462.425952 130.240748 
L 458.002814 139.199834 
L 453.926016 147.902009 
L 450.174259 154.011587 
L 446.721698 149.392379 
L 443.549241 141.79543 
L 440.63164 135.777452 
L 437.951073 130.751614 
L 435.488341 126.486731 
L 433.224812 122.836079 
L 431.143679 119.746119 
L 429.229604 117.198687 
L 427.468869 115.218654 
L 425.84987 113.699915 
L 424.358264 112.649713 
L 422.98146 112.023456 
L 421.713006 110.78837 
L 420.545322 105.343692 
L 419.462355 99.557001 
L 418.466771 93.85171 
L 417.529374 88.399716 
L 416.601479 83.263813 
L 415.673584 78.679195 
L 414.745689 74.400349 
L 413.817795 70.509177 
L 412.8899 66.796326 
L 411.962005 63.798051 
L 411.03411 62.584924 
L 410.106215 61.343369 
L 409.178321 60.080497 
L 408.250426 58.779307 
L 407.322531 57.459033 
L 406.394636 56.099727 
L 405.466742 54.724681 
L 404.538847 53.318138 
L 403.610952 51.901927 
L 402.683057 50.486288 
L 401.755162 49.112526 
L 400.827268 51.651005 
L 399.899373 59.043994 
L 398.971478 69.469069 
L 398.043583 81.486384 
L 397.115689 92.9741 
L 396.187794 102.466385 
L 395.259899 108.921998 
L 394.332004 112.138666 
L 393.404109 112.197842 
L 392.476215 109.518304 
L 391.54832 104.211434 
L 390.620425 96.927858 
L 389.69253 88.556889 
L 388.764636 79.95331 
L 387.836741 71.737622 
L 386.908846 64.585858 
L 385.980951 59.137908 
L 385.053056 54.845323 
L 384.125162 53.287927 
L 383.197267 51.899117 
L 382.269372 54.599919 
L 381.341477 57.366505 
L 380.413583 64.989435 
L 379.485688 75.719476 
L 378.557793 91.571669 
L 377.629898 118.548573 
L 376.702003 60.97985 
L 375.42959 22.039921 
L 374.157176 30.899661 
L 372.884762 37.812703 
L 371.612349 41.612831 
L 370.339935 43.285836 
L 369.067521 43.208893 
L 367.795107 42.003737 
L 366.522694 39.758172 
L 365.239331 37.473264 
L 363.606378 34.49887 
L 361.314826 32.187806 
L 358.098232 29.525514 
L 353.582193 27.577018 
L 347.240659 25.636178 
L 338.743693 24.197536 
L 330.136629 23.332458 
L 321.835592 23.173471 
L 313.829633 23.290984 
L 306.108307 23.142515 
L 298.661623 23.190333 
L 291.4797 23.06769 
L 284.553028 23.054029 
L 277.872644 22.950837 
L 271.429742 22.899399 
L 265.21574 22.805595 
L 259.222913 22.737572 
L 253.442863 22.651955 
L 247.824813 22.779806 
L 242.378625 23.120848 
L 237.125821 23.379799 
L 232.059762 23.596469 
L 227.17384 23.689639 
L 222.461467 23.827401 
L 217.91616 23.761104 
L 213.53248 23.783327 
L 209.304744 23.57028 
L 205.22697 23.456021 
L 201.293821 23.150963 
L 197.500918 22.939246 
L 193.842604 22.635853 
L 190.314049 22.530334 
L 186.910786 22.618098 
L 183.628419 22.717034 
L 180.46251 22.827265 
L 177.408712 22.945926 
L 174.463215 23.072457 
L 171.623417 23.203777 
L 168.88361 23.339645 
L 166.240541 23.477436 
L 163.692746 23.616162 
L 161.23367 23.752339 
L 158.863167 23.885172 
L 156.576921 24.011536 
L 154.369789 24.130529 
L 152.242772 24.239099 
L 150.191638 24.336033 
L 148.212643 24.419329 
L 146.303001 24.487869 
L 144.460719 24.540877 
L 142.684184 24.576659 
L 140.970849 24.59635 
L 139.318394 24.596993 
L 137.72483 24.582286 
L 136.188485 24.547487 
L 134.706455 24.497372 
L 133.275902 24.425999 
L 131.894699 24.338834 
L 130.547436 24.230049 
L 129.200175 24.106018 
L 127.852913 23.961803 
L 126.505652 23.804912 
L 125.15839 23.631092 
L 123.811128 23.447753 
L 122.463867 23.250746 
L 121.116605 23.046544 
L 119.769344 22.83207 
L 118.422082 22.612791 
L 117.07482 22.387223 
L 115.727559 22.159449 
L 114.380297 21.929988 
L 113.033036 21.701785 
L 111.685774 21.477041 
L 110.338513 21.257354 
L 108.991251 21.04583 
L 107.643989 20.841931 
L 106.296728 20.649117 
L 104.949466 20.464643 
L 103.602205 20.293754 
L 102.254943 20.130847 
L 100.907682 19.984406 
L 99.56042 19.843935 
L 98.213158 19.723062 
L 96.865897 19.604486 
L 95.518635 19.508922 
L 94.171374 19.410726 
L 92.824112 19.338997 
L 91.47685 19.259077 
L 90.129589 19.208517 
L 88.782327 19.144601 
L 87.435066 19.111357 
L 86.087804 19.061396 
L 84.740543 19.041321 
L 83.42602 19.003472 
L 82.111498 18.99294 
L 80.785425 18.965248 
L 79.124624 18.961089 
L 76.852227 18.941605 
L 73.741466 18.941131 
L 69.481777 18.928143 
L 63.647806 18.929264 
L 55.656948 18.927692 
L 44.711179 18.927692 
L 29.717351 18.927692 
L 9.178043 18.927692 
z
" clip-path="url(#pcf11ef7528)" style="fill: #2ca02c"/>
   </g>
   <g id="PolyCollection_4">
    <path d="M 9.178043 18.927692 
L 9.178043 18.927692 
L 29.717351 18.927692 
L 44.711179 18.927692 
L 55.656948 18.927692 
L 63.647806 18.929264 
L 69.481777 18.928143 
L 73.741466 18.941131 
L 76.852227 18.941605 
L 79.124624 18.961089 
L 80.785425 18.965248 
L 82.111498 18.99294 
L 83.42602 19.003472 
L 84.740543 19.041321 
L 86.087804 19.061396 
L 87.435066 19.111357 
L 88.782327 19.144601 
L 90.129589 19.208517 
L 91.47685 19.259077 
L 92.824112 19.338997 
L 94.171374 19.410726 
L 95.518635 19.508922 
L 96.865897 19.604486 
L 98.213158 19.723062 
L 99.56042 19.843935 
L 100.907682 19.984406 
L 102.254943 20.130847 
L 103.602205 20.293754 
L 104.949466 20.464643 
L 106.296728 20.649117 
L 107.643989 20.841931 
L 108.991251 21.04583 
L 110.338513 21.257354 
L 111.685774 21.477041 
L 113.033036 21.701785 
L 114.380297 21.929988 
L 115.727559 22.159449 
L 117.07482 22.387223 
L 118.422082 22.612791 
L 119.769344 22.83207 
L 121.116605 23.046544 
L 122.463867 23.250746 
L 123.811128 23.447753 
L 125.15839 23.631092 
L 126.505652 23.804912 
L 127.852913 23.961803 
L 129.200175 24.106018 
L 130.547436 24.230049 
L 131.894699 24.338834 
L 133.275902 24.425999 
L 134.706455 24.497372 
L 136.188485 24.547487 
L 137.72483 24.582286 
L 139.318394 24.596993 
L 140.970849 24.59635 
L 142.684184 24.576659 
L 144.460719 24.540877 
L 146.303001 24.487869 
L 148.212643 24.419329 
L 150.191638 24.336033 
L 152.242772 24.239099 
L 154.369789 24.130529 
L 156.576921 24.011536 
L 158.863167 23.885172 
L 161.23367 23.752339 
L 163.692746 23.616162 
L 166.240541 23.477436 
L 168.88361 23.339645 
L 171.623417 23.203777 
L 174.463215 23.072457 
L 177.408712 22.945926 
L 180.46251 22.827265 
L 183.628419 22.717034 
L 186.910786 22.618098 
L 190.314049 22.530334 
L 193.842604 22.635853 
L 197.500918 22.939246 
L 201.293821 23.150963 
L 205.22697 23.456021 
L 209.304744 23.57028 
L 213.53248 23.783327 
L 217.91616 23.761104 
L 222.461467 23.827401 
L 227.17384 23.689639 
L 232.059762 23.596469 
L 237.125821 23.379799 
L 242.378625 23.120848 
L 247.824813 22.779806 
L 253.442863 22.651955 
L 259.222913 22.737572 
L 265.21574 22.805595 
L 271.429742 22.899399 
L 277.872644 22.950837 
L 284.553028 23.054029 
L 291.4797 23.06769 
L 298.661623 23.190333 
L 306.108307 23.142515 
L 313.829633 23.290984 
L 321.835592 23.173471 
L 330.136629 23.332458 
L 338.743693 24.197536 
L 347.240659 25.636178 
L 353.582193 27.577018 
L 358.098232 29.525514 
L 361.314826 32.187806 
L 363.606378 34.49887 
L 365.239331 37.473264 
L 366.522694 39.758172 
L 367.795107 42.003737 
L 369.067521 43.208893 
L 370.339935 43.285836 
L 371.612349 41.612831 
L 372.884762 37.812703 
L 374.157176 30.899661 
L 375.42959 22.039921 
L 376.702003 60.97985 
L 377.629898 118.548573 
L 378.557793 91.571669 
L 379.485688 75.719476 
L 380.413583 64.989435 
L 381.341477 57.366505 
L 382.269372 54.599919 
L 383.197267 51.899117 
L 384.125162 53.287927 
L 385.053056 54.845323 
L 385.980951 59.137908 
L 386.908846 64.585858 
L 387.836741 71.737622 
L 388.764636 79.95331 
L 389.69253 88.556889 
L 390.620425 96.927858 
L 391.54832 104.211434 
L 392.476215 109.518304 
L 393.404109 112.197842 
L 394.332004 112.138666 
L 395.259899 108.921998 
L 396.187794 102.466385 
L 397.115689 92.9741 
L 398.043583 81.486384 
L 398.971478 69.469069 
L 399.899373 59.043994 
L 400.827268 51.651005 
L 401.755162 49.112526 
L 402.683057 50.486288 
L 403.610952 51.901927 
L 404.538847 53.318138 
L 405.466742 54.724681 
L 406.394636 56.099727 
L 407.322531 57.459033 
L 408.250426 58.779307 
L 409.178321 60.080497 
L 410.106215 61.343369 
L 411.03411 62.584924 
L 411.962005 63.798051 
L 412.8899 66.796326 
L 413.817795 70.509177 
L 414.745689 74.400349 
L 415.673584 78.679195 
L 416.601479 83.263813 
L 417.529374 88.399716 
L 418.466771 93.85171 
L 419.462355 99.557001 
L 420.545322 105.343692 
L 421.713006 110.78837 
L 422.98146 112.023456 
L 424.358264 112.649713 
L 425.84987 113.699915 
L 427.468869 115.218654 
L 429.229604 117.198687 
L 431.143679 119.746119 
L 433.224812 122.836079 
L 435.488341 126.486731 
L 437.951073 130.751614 
L 440.63164 135.777452 
L 443.549241 141.79543 
L 446.721698 149.392379 
L 450.174259 154.011587 
L 453.926016 147.902009 
L 458.002814 139.199834 
L 462.425952 130.240748 
L 467.21716 121.920228 
L 472.396058 113.582379 
L 477.975382 105.107033 
L 483.958078 98.193371 
L 490.325069 93.103951 
L 496.978314 89.735866 
L 503.659157 86.975667 
L 510.339999 85.10449 
L 517.020842 83.214397 
L 523.701684 81.801343 
L 530.382526 80.21393 
L 537.063369 78.896931 
L 543.744211 77.353861 
L 550.425053 76.280224 
L 557.105896 74.994975 
L 563.786738 74.546961 
L 570.467581 74.028998 
L 577.148423 74.815678 
L 583.829265 75.617967 
L 590.510108 77.601027 
L 599.95542 79.7919 
L 609.400733 82.622399 
L 618.846045 85.38803 
L 628.291358 88.107826 
L 637.73667 90.172437 
L 647.181983 91.920751 
L 656.627295 92.732927 
L 666.072608 93.326632 
L 675.51792 92.911966 
L 684.963233 92.576394 
L 694.408545 91.400866 
L 703.853858 90.545252 
L 713.29917 89.130051 
L 722.744483 88.159846 
L 732.189795 86.947537 
L 741.635108 86.230718 
L 751.08042 85.509162 
L 760.525733 85.246749 
L 769.971045 85.062182 
L 779.416358 85.203143 
L 788.86167 85.35199 
L 798.306983 85.628525 
L 807.752295 85.805946 
L 817.197608 85.936005 
L 817.197608 63.247842 
L 817.197608 63.247842 
L 807.752295 63.116531 
L 798.306983 62.936324 
L 788.86167 62.65697 
L 779.416358 62.503961 
L 769.971045 62.361308 
L 760.525733 62.542733 
L 751.08042 62.808727 
L 741.635108 63.530597 
L 732.189795 64.260331 
L 722.744483 65.478775 
L 713.29917 66.472983 
L 703.853858 67.902272 
L 694.408545 68.791755 
L 684.963233 69.98926 
L 675.51792 70.364825 
L 666.072608 70.803788 
L 656.627295 70.25105 
L 647.181983 69.448603 
L 637.73667 67.740094 
L 628.291358 65.634845 
L 618.846045 62.965888 
L 609.400733 60.062127 
L 599.95542 57.297351 
L 590.510108 54.845498 
L 583.829265 52.899837 
L 577.148423 51.739383 
L 570.467581 50.860309 
L 563.786738 50.969755 
L 557.105896 51.124427 
L 550.425053 51.924008 
L 543.744211 52.504623 
L 537.063369 53.430833 
L 530.382526 54.071535 
L 523.701684 54.890096 
L 517.020842 55.448661 
L 510.339999 56.365021 
L 503.659157 57.131654 
L 496.978314 58.615726 
L 490.325069 60.502723 
L 483.958078 63.902426 
L 477.975382 68.939593 
L 472.396058 75.36572 
L 467.21716 81.579055 
L 462.425952 87.912399 
L 458.002814 95.132212 
L 453.926016 102.297528 
L 450.174259 107.029974 
L 446.721698 101.178635 
L 443.549241 92.496681 
L 440.63164 85.553028 
L 437.951073 79.745171 
L 435.488341 74.850199 
L 433.224812 70.713122 
L 431.143679 67.267286 
L 429.229604 64.483863 
L 427.468869 62.377973 
L 425.84987 60.82759 
L 424.358264 59.850452 
L 422.98146 59.411663 
L 421.713006 58.473009 
L 420.545322 53.427384 
L 419.462355 48.136526 
L 418.466771 43.018023 
L 417.529374 38.235464 
L 416.601479 33.842768 
L 415.673584 30.065157 
L 414.745689 26.64682 
L 413.817795 23.65872 
L 412.8899 20.891109 
L 411.962005 18.927692 
L 411.03411 18.927692 
L 410.106215 18.927692 
L 409.178321 18.927692 
L 408.250426 18.927692 
L 407.322531 18.927692 
L 406.394636 18.927692 
L 405.466742 18.927692 
L 404.538847 18.927692 
L 403.610952 18.927692 
L 402.683057 18.927692 
L 401.755162 18.927692 
L 400.827268 23.000807 
L 399.899373 32.086897 
L 398.971478 44.246106 
L 398.043583 58.007374 
L 397.115689 71.209374 
L 396.187794 82.380208 
L 395.259899 90.473328 
L 394.332004 95.282787 
L 393.404109 96.886907 
L 392.476215 95.701403 
L 391.54832 91.82941 
L 390.620425 85.89417 
L 389.69253 78.758388 
L 388.764636 71.258271 
L 387.836741 64.013354 
L 386.908846 57.714539 
L 385.980951 53.009349 
L 385.053056 49.36474 
L 384.125162 48.348789 
L 383.197267 47.443551 
L 382.269372 50.49835 
L 381.341477 53.622664 
L 380.413583 61.410804 
L 379.485688 72.405445 
L 378.557793 88.285571 
L 377.629898 115.425581 
L 376.702003 57.817299 
L 375.42959 18.927692 
L 374.157176 27.709872 
L 372.884762 34.57523 
L 371.612349 38.26845 
L 370.339935 39.860931 
L 369.067521 39.641735 
L 367.795107 38.362862 
L 366.522694 35.945979 
L 365.239331 33.62587 
L 363.606378 30.454554 
L 361.314826 28.168542 
L 358.098232 25.290509 
L 353.582193 23.429931 
L 347.240659 21.276109 
L 338.743693 19.971543 
L 330.136629 18.927692 
L 321.835592 18.927692 
L 313.829633 18.927692 
L 306.108307 18.927692 
L 298.661623 18.927692 
L 291.4797 18.927692 
L 284.553028 18.927692 
L 277.872644 18.927692 
L 271.429742 18.927692 
L 265.21574 18.927692 
L 259.222913 18.927692 
L 253.442863 18.927692 
L 247.824813 19.126296 
L 242.378625 19.543602 
L 237.125821 19.864377 
L 232.059762 20.139126 
L 227.17384 20.27496 
L 222.461467 20.447876 
L 217.91616 20.400254 
L 213.53248 20.431536 
L 209.304744 20.210636 
L 205.22697 20.077071 
L 201.293821 19.735984 
L 197.500918 19.475849 
L 193.842604 19.108515 
L 190.314049 18.927692 
L 186.910786 18.927692 
L 183.628419 18.927692 
L 180.46251 18.927692 
L 177.408712 18.927692 
L 174.463215 18.927692 
L 171.623417 18.927692 
L 168.88361 18.927692 
L 166.240541 18.927692 
L 163.692746 18.927692 
L 161.23367 18.927692 
L 158.863167 18.927692 
L 156.576921 18.927692 
L 154.369789 18.927692 
L 152.242772 18.927692 
L 150.191638 18.927692 
L 148.212643 18.927692 
L 146.303001 18.927692 
L 144.460719 18.927692 
L 142.684184 18.927692 
L 140.970849 18.927692 
L 139.318394 18.927692 
L 137.72483 18.927692 
L 136.188485 18.927692 
L 134.706455 18.927692 
L 133.275902 18.927692 
L 131.894699 18.927692 
L 130.547436 18.927692 
L 129.200175 18.927692 
L 127.852913 18.927692 
L 126.505652 18.927692 
L 125.15839 18.927692 
L 123.811128 18.927692 
L 122.463867 18.927692 
L 121.116605 18.927692 
L 119.769344 18.927692 
L 118.422082 18.927692 
L 117.07482 18.927692 
L 115.727559 18.927692 
L 114.380297 18.927692 
L 113.033036 18.927692 
L 111.685774 18.927692 
L 110.338513 18.927692 
L 108.991251 18.927692 
L 107.643989 18.927692 
L 106.296728 18.927692 
L 104.949466 18.927692 
L 103.602205 18.927692 
L 102.254943 18.927692 
L 100.907682 18.927692 
L 99.56042 18.927692 
L 98.213158 18.927692 
L 96.865897 18.927692 
L 95.518635 18.927692 
L 94.171374 18.927692 
L 92.824112 18.927692 
L 91.47685 18.927692 
L 90.129589 18.927692 
L 88.782327 18.927692 
L 87.435066 18.927692 
L 86.087804 18.927692 
L 84.740543 18.927692 
L 83.42602 18.927692 
L 82.111498 18.927692 
L 80.785425 18.927692 
L 79.124624 18.927692 
L 76.852227 18.927692 
L 73.741466 18.927692 
L 69.481777 18.927692 
L 63.647806 18.927692 
L 55.656948 18.927692 
L 44.711179 18.927692 
L 29.717351 18.927692 
L 9.178043 18.927692 
z
" clip-path="url(#pcf11ef7528)" style="fill: #d62728"/>
   </g>
   <g id="matplotlib.axis_1">
    <g id="xtick_1">
     <g id="line2d_1">
      <path d="M 84.740543 617.04 
L 84.740543 7.2 
" clip-path="url(#pcf11ef7528)" style="fill: none; stroke: #b0b0b0; stroke-width: 0.8; stroke-linecap: square"/>
     </g>
     <g id="line2d_2">
      <defs>
       <path id="m8c4d3617e4" d="M 0 0 
L 0 3.5 
" style="stroke: #000000; stroke-width: 0.8"/>
      </defs>
      <g>
       <use xlink:href="#m8c4d3617e4" x="84.740543" y="617.04" style="stroke: #000000; stroke-width: 0.8"/>
      </g>
     </g>
     <g id="text_1">
      <!-- $\mathdefault{0.0}$ -->
      <g transform="translate(66.968823 644.795495) scale(0.3 -0.3)">
       <defs>
        <path id="CMR17-30" d="M 2688 2025 
C 2688 2416 2682 3080 2413 3591 
C 2176 4039 1798 4198 1466 4198 
C 1158 4198 768 4058 525 3597 
C 269 3118 243 2524 243 2025 
C 243 1661 250 1106 448 619 
C 723 -39 1216 -128 1466 -128 
C 1760 -128 2208 -7 2470 600 
C 2662 1042 2688 1559 2688 2025 
z
M 1466 -26 
C 1056 -26 813 325 723 812 
C 653 1188 653 1738 653 2096 
C 653 2588 653 2997 736 3387 
C 858 3929 1216 4096 1466 4096 
C 1728 4096 2067 3923 2189 3400 
C 2272 3036 2278 2607 2278 2096 
C 2278 1680 2278 1169 2202 792 
C 2067 95 1690 -26 1466 -26 
z
" transform="scale(0.015625)"/>
        <path id="CMMI12-3a" d="M 1178 307 
C 1178 492 1024 619 870 619 
C 685 619 557 466 557 313 
C 557 128 710 0 864 0 
C 1050 0 1178 153 1178 307 
z
" transform="scale(0.015625)"/>
       </defs>
       <use xlink:href="#CMR17-30" transform="scale(0.996264)"/>
       <use xlink:href="#CMMI12-3a" transform="translate(45.690477 0) scale(0.996264)"/>
       <use xlink:href="#CMR17-30" transform="translate(72.787654 0) scale(0.996264)"/>
      </g>
     </g>
    </g>
    <g id="xtick_2">
     <g id="line2d_3">
      <path d="M 235.865543 617.04 
L 235.865543 7.2 
" clip-path="url(#pcf11ef7528)" style="fill: none; stroke: #b0b0b0; stroke-width: 0.8; stroke-linecap: square"/>
     </g>
     <g id="line2d_4">
      <g>
       <use xlink:href="#m8c4d3617e4" x="235.865543" y="617.04" style="stroke: #000000; stroke-width: 0.8"/>
      </g>
     </g>
     <g id="text_2">
      <!-- $\mathdefault{0.1}$ -->
      <g transform="translate(218.093823 644.795495) scale(0.3 -0.3)">
       <defs>
        <path id="CMR17-31" d="M 1702 4058 
C 1702 4192 1696 4192 1606 4192 
C 1357 3916 979 3827 621 3827 
C 602 3827 570 3827 563 3808 
C 557 3795 557 3782 557 3648 
C 755 3648 1088 3686 1344 3839 
L 1344 461 
C 1344 236 1331 160 781 160 
L 589 160 
L 589 0 
C 896 0 1216 0 1523 0 
C 1830 0 2150 0 2458 0 
L 2458 160 
L 2266 160 
C 1715 160 1702 230 1702 458 
L 1702 4058 
z
" transform="scale(0.015625)"/>
       </defs>
       <use xlink:href="#CMR17-30" transform="scale(0.996264)"/>
       <use xlink:href="#CMMI12-3a" transform="translate(45.690477 0) scale(0.996264)"/>
       <use xlink:href="#CMR17-31" transform="translate(72.787654 0) scale(0.996264)"/>
      </g>
     </g>
    </g>
    <g id="xtick_3">
     <g id="line2d_5">
      <path d="M 386.990543 617.04 
L 386.990543 7.2 
" clip-path="url(#pcf11ef7528)" style="fill: none; stroke: #b0b0b0; stroke-width: 0.8; stroke-linecap: square"/>
     </g>
     <g id="line2d_6">
      <g>
       <use xlink:href="#m8c4d3617e4" x="386.990543" y="617.04" style="stroke: #000000; stroke-width: 0.8"/>
      </g>
     </g>
     <g id="text_3">
      <!-- $\mathdefault{0.2}$ -->
      <g transform="translate(369.218823 644.795495) scale(0.3 -0.3)">
       <defs>
        <path id="CMR17-32" d="M 2669 989 
L 2554 989 
C 2490 536 2438 459 2413 420 
C 2381 369 1920 369 1830 369 
L 602 369 
C 832 619 1280 1072 1824 1597 
C 2214 1967 2669 2402 2669 3035 
C 2669 3790 2067 4224 1395 4224 
C 691 4224 262 3604 262 3030 
C 262 2780 448 2748 525 2748 
C 589 2748 781 2787 781 3010 
C 781 3207 614 3264 525 3264 
C 486 3264 448 3258 422 3245 
C 544 3790 915 4058 1306 4058 
C 1862 4058 2227 3617 2227 3035 
C 2227 2479 1901 2000 1536 1584 
L 262 146 
L 262 0 
L 2515 0 
L 2669 989 
z
" transform="scale(0.015625)"/>
       </defs>
       <use xlink:href="#CMR17-30" transform="scale(0.996264)"/>
       <use xlink:href="#CMMI12-3a" transform="translate(45.690477 0) scale(0.996264)"/>
       <use xlink:href="#CMR17-32" transform="translate(72.787654 0) scale(0.996264)"/>
      </g>
     </g>
    </g>
    <g id="xtick_4">
     <g id="line2d_7">
      <path d="M 538.115543 617.04 
L 538.115543 7.2 
" clip-path="url(#pcf11ef7528)" style="fill: none; stroke: #b0b0b0; stroke-width: 0.8; stroke-linecap: square"/>
     </g>
     <g id="line2d_8">
      <g>
       <use xlink:href="#m8c4d3617e4" x="538.115543" y="617.04" style="stroke: #000000; stroke-width: 0.8"/>
      </g>
     </g>
     <g id="text_4">
      <!-- $\mathdefault{0.3}$ -->
      <g transform="translate(520.343823 644.795495) scale(0.3 -0.3)">
       <defs>
        <path id="CMR17-33" d="M 1414 2157 
C 1984 2157 2234 1662 2234 1090 
C 2234 320 1824 25 1453 25 
C 1114 25 563 194 390 693 
C 422 680 454 680 486 680 
C 640 680 755 782 755 948 
C 755 1133 614 1216 486 1216 
C 378 1216 211 1165 211 926 
C 211 335 787 -128 1466 -128 
C 2176 -128 2720 430 2720 1085 
C 2720 1707 2208 2157 1600 2227 
C 2086 2328 2554 2756 2554 3329 
C 2554 3820 2048 4179 1472 4179 
C 890 4179 378 3829 378 3329 
C 378 3110 544 3072 627 3072 
C 762 3072 877 3155 877 3321 
C 877 3486 762 3569 627 3569 
C 602 3569 570 3569 544 3557 
C 730 3959 1235 4032 1459 4032 
C 1683 4032 2106 3925 2106 3320 
C 2106 3143 2080 2828 1862 2550 
C 1670 2304 1453 2304 1242 2284 
C 1210 2284 1062 2269 1037 2269 
C 992 2263 966 2257 966 2208 
C 966 2163 973 2157 1101 2157 
L 1414 2157 
z
" transform="scale(0.015625)"/>
       </defs>
       <use xlink:href="#CMR17-30" transform="scale(0.996264)"/>
       <use xlink:href="#CMMI12-3a" transform="translate(45.690477 0) scale(0.996264)"/>
       <use xlink:href="#CMR17-33" transform="translate(72.787654 0) scale(0.996264)"/>
      </g>
     </g>
    </g>
    <g id="xtick_5">
     <g id="line2d_9">
      <path d="M 689.240543 617.04 
L 689.240543 7.2 
" clip-path="url(#pcf11ef7528)" style="fill: none; stroke: #b0b0b0; stroke-width: 0.8; stroke-linecap: square"/>
     </g>
     <g id="line2d_10">
      <g>
       <use xlink:href="#m8c4d3617e4" x="689.240543" y="617.04" style="stroke: #000000; stroke-width: 0.8"/>
      </g>
     </g>
     <g id="text_5">
      <!-- $\mathdefault{0.4}$ -->
      <g transform="translate(671.468823 644.795495) scale(0.3 -0.3)">
       <defs>
        <path id="CMR17-34" d="M 2150 4122 
C 2150 4256 2144 4256 2029 4256 
L 128 1254 
L 128 1088 
L 1779 1088 
L 1779 457 
C 1779 224 1766 160 1318 160 
L 1197 160 
L 1197 0 
C 1402 0 1747 0 1965 0 
C 2182 0 2528 0 2733 0 
L 2733 160 
L 2611 160 
C 2163 160 2150 224 2150 457 
L 2150 1088 
L 2803 1088 
L 2803 1254 
L 2150 1254 
L 2150 4122 
z
M 1798 3703 
L 1798 1254 
L 256 1254 
L 1798 3703 
z
" transform="scale(0.015625)"/>
       </defs>
       <use xlink:href="#CMR17-30" transform="scale(0.996264)"/>
       <use xlink:href="#CMMI12-3a" transform="translate(45.690477 0) scale(0.996264)"/>
       <use xlink:href="#CMR17-34" transform="translate(72.787654 0) scale(0.996264)"/>
      </g>
     </g>
    </g>
    <g id="text_6">
     <!-- $x, \; \mathrm{m} $ -->
     <g transform="translate(411.787939 678.823697) scale(0.35 -0.35)">
      <defs>
       <path id="CMMI12-78" d="M 3034 2606 
C 2829 2567 2752 2414 2752 2293 
C 2752 2139 2874 2088 2963 2088 
C 3155 2088 3290 2254 3290 2427 
C 3290 2695 2982 2816 2714 2816 
C 2323 2816 2106 2433 2048 2312 
C 1901 2816 1504 2816 1389 2816 
C 736 2816 390 1980 390 1839 
C 390 1814 416 1782 461 1782 
C 512 1782 525 1820 538 1846 
C 755 2555 1184 2689 1370 2689 
C 1658 2689 1715 2420 1715 2267 
C 1715 2127 1677 1980 1600 1673 
L 1382 798 
C 1286 415 1101 64 762 64 
C 730 64 570 64 435 147 
C 666 192 717 383 717 460 
C 717 588 621 664 499 664 
C 346 664 179 530 179 326 
C 179 57 480 -64 755 -64 
C 1062 -64 1280 179 1414 441 
C 1517 64 1837 -64 2074 -64 
C 2726 -64 3072 773 3072 913 
C 3072 945 3046 971 3008 971 
C 2950 971 2944 939 2925 888 
C 2752 326 2381 64 2093 64 
C 1869 64 1747 230 1747 492 
C 1747 632 1773 734 1875 1156 
L 2099 2024 
C 2195 2408 2413 2689 2707 2689 
C 2720 2689 2899 2689 3034 2606 
z
" transform="scale(0.015625)"/>
       <path id="CMMI12-3b" d="M 1248 -31 
C 1248 343 1126 619 864 619 
C 659 619 557 453 557 313 
C 557 172 653 0 870 0 
C 954 0 1024 26 1082 83 
C 1094 96 1101 96 1107 96 
C 1120 96 1120 5 1120 -27 
C 1120 -240 1082 -659 710 -1080 
C 640 -1157 640 -1170 640 -1183 
C 640 -1216 672 -1248 704 -1248 
C 755 -1248 1248 -771 1248 -31 
z
" transform="scale(0.015625)"/>
       <path id="CMR17-6d" d="M 4326 1933 
C 4326 2252 4269 2790 3507 2790 
C 3072 2790 2771 2496 2656 2151 
L 2650 2151 
C 2573 2676 2195 2790 1837 2790 
C 1331 2790 1069 2400 973 2144 
L 966 2144 
L 966 2790 
L 211 2720 
L 211 2554 
C 589 2554 646 2515 646 2208 
L 646 428 
C 646 184 621 153 211 153 
L 211 -13 
C 365 0 646 0 813 0 
C 979 0 1267 0 1421 -13 
L 1421 153 
C 1011 153 986 178 986 428 
L 986 1658 
C 986 2247 1344 2688 1792 2688 
C 2266 2688 2317 2266 2317 1958 
L 2317 428 
C 2317 184 2291 153 1882 153 
L 1882 -13 
C 2035 0 2317 0 2483 0 
C 2650 0 2938 0 3091 -13 
L 3091 153 
C 2682 153 2656 178 2656 428 
L 2656 1658 
C 2656 2247 3014 2688 3462 2688 
C 3936 2688 3987 2266 3987 1958 
L 3987 428 
C 3987 184 3962 153 3552 153 
L 3552 -13 
C 3706 0 3987 0 4154 0 
C 4320 0 4608 0 4762 -13 
L 4762 153 
C 4352 153 4326 178 4326 428 
L 4326 1933 
z
" transform="scale(0.015625)"/>
      </defs>
      <use xlink:href="#CMMI12-78" transform="scale(0.996264)"/>
      <use xlink:href="#CMMI12-3b" transform="translate(55.43406 0) scale(0.996264)"/>
      <use xlink:href="#CMR17-6d" transform="translate(126.809651 0) scale(0.996264)"/>
     </g>
    </g>
   </g>
   <g id="matplotlib.axis_2">
    <g id="ytick_1">
     <g id="line2d_11">
      <path d="M 84.740543 605.312308 
L 810.140543 605.312308 
" clip-path="url(#pcf11ef7528)" style="fill: none; stroke: #b0b0b0; stroke-width: 0.8; stroke-linecap: square"/>
     </g>
     <g id="line2d_12">
      <defs>
       <path id="m7e3929a659" d="M 0 0 
L -3.5 0 
" style="stroke: #000000; stroke-width: 0.8"/>
      </defs>
      <g>
       <use xlink:href="#m7e3929a659" x="84.740543" y="605.312308" style="stroke: #000000; stroke-width: 0.8"/>
      </g>
     </g>
     <g id="text_7">
      <!-- $\mathdefault{0.0}$ -->
      <g transform="translate(42.197103 615.690055) scale(0.3 -0.3)">
       <use xlink:href="#CMR17-30" transform="scale(0.996264)"/>
       <use xlink:href="#CMMI12-3a" transform="translate(45.690477 0) scale(0.996264)"/>
       <use xlink:href="#CMR17-30" transform="translate(72.787654 0) scale(0.996264)"/>
      </g>
     </g>
    </g>
    <g id="ytick_2">
     <g id="line2d_13">
      <path d="M 84.740543 488.035385 
L 810.140543 488.035385 
" clip-path="url(#pcf11ef7528)" style="fill: none; stroke: #b0b0b0; stroke-width: 0.8; stroke-linecap: square"/>
     </g>
     <g id="line2d_14">
      <g>
       <use xlink:href="#m7e3929a659" x="84.740543" y="488.035385" style="stroke: #000000; stroke-width: 0.8"/>
      </g>
     </g>
     <g id="text_8">
      <!-- $\mathdefault{0.2}$ -->
      <g transform="translate(42.197103 498.413132) scale(0.3 -0.3)">
       <use xlink:href="#CMR17-30" transform="scale(0.996264)"/>
       <use xlink:href="#CMMI12-3a" transform="translate(45.690477 0) scale(0.996264)"/>
       <use xlink:href="#CMR17-32" transform="translate(72.787654 0) scale(0.996264)"/>
      </g>
     </g>
    </g>
    <g id="ytick_3">
     <g id="line2d_15">
      <path d="M 84.740543 370.758462 
L 810.140543 370.758462 
" clip-path="url(#pcf11ef7528)" style="fill: none; stroke: #b0b0b0; stroke-width: 0.8; stroke-linecap: square"/>
     </g>
     <g id="line2d_16">
      <g>
       <use xlink:href="#m7e3929a659" x="84.740543" y="370.758462" style="stroke: #000000; stroke-width: 0.8"/>
      </g>
     </g>
     <g id="text_9">
      <!-- $\mathdefault{0.4}$ -->
      <g transform="translate(42.197103 381.136209) scale(0.3 -0.3)">
       <use xlink:href="#CMR17-30" transform="scale(0.996264)"/>
       <use xlink:href="#CMMI12-3a" transform="translate(45.690477 0) scale(0.996264)"/>
       <use xlink:href="#CMR17-34" transform="translate(72.787654 0) scale(0.996264)"/>
      </g>
     </g>
    </g>
    <g id="ytick_4">
     <g id="line2d_17">
      <path d="M 84.740543 253.481538 
L 810.140543 253.481538 
" clip-path="url(#pcf11ef7528)" style="fill: none; stroke: #b0b0b0; stroke-width: 0.8; stroke-linecap: square"/>
     </g>
     <g id="line2d_18">
      <g>
       <use xlink:href="#m7e3929a659" x="84.740543" y="253.481538" style="stroke: #000000; stroke-width: 0.8"/>
      </g>
     </g>
     <g id="text_10">
      <!-- $\mathdefault{0.6}$ -->
      <g transform="translate(42.197103 263.859286) scale(0.3 -0.3)">
       <defs>
        <path id="CMR17-36" d="M 678 2176 
C 678 3690 1395 4032 1811 4032 
C 1946 4032 2272 4009 2400 3776 
C 2298 3776 2106 3776 2106 3553 
C 2106 3381 2246 3323 2336 3323 
C 2394 3323 2566 3348 2566 3560 
C 2566 3954 2246 4179 1805 4179 
C 1043 4179 243 3390 243 1984 
C 243 253 966 -128 1478 -128 
C 2099 -128 2688 427 2688 1283 
C 2688 2081 2170 2662 1517 2662 
C 1126 2662 838 2407 678 1960 
L 678 2176 
z
M 1478 25 
C 691 25 691 1200 691 1436 
C 691 1896 909 2560 1504 2560 
C 1613 2560 1926 2560 2138 2120 
C 2253 1870 2253 1609 2253 1289 
C 2253 944 2253 690 2118 434 
C 1978 171 1773 25 1478 25 
z
" transform="scale(0.015625)"/>
       </defs>
       <use xlink:href="#CMR17-30" transform="scale(0.996264)"/>
       <use xlink:href="#CMMI12-3a" transform="translate(45.690477 0) scale(0.996264)"/>
       <use xlink:href="#CMR17-36" transform="translate(72.787654 0) scale(0.996264)"/>
      </g>
     </g>
    </g>
    <g id="ytick_5">
     <g id="line2d_19">
      <path d="M 84.740543 136.204615 
L 810.140543 136.204615 
" clip-path="url(#pcf11ef7528)" style="fill: none; stroke: #b0b0b0; stroke-width: 0.8; stroke-linecap: square"/>
     </g>
     <g id="line2d_20">
      <g>
       <use xlink:href="#m7e3929a659" x="84.740543" y="136.204615" style="stroke: #000000; stroke-width: 0.8"/>
      </g>
     </g>
     <g id="text_11">
      <!-- $\mathdefault{0.8}$ -->
      <g transform="translate(42.197103 146.582363) scale(0.3 -0.3)">
       <defs>
        <path id="CMR17-38" d="M 1741 2264 
C 2144 2467 2554 2773 2554 3263 
C 2554 3841 1990 4179 1472 4179 
C 890 4179 378 3759 378 3180 
C 378 3021 416 2747 666 2505 
C 730 2442 998 2251 1171 2130 
C 883 1983 211 1634 211 934 
C 211 279 838 -128 1459 -128 
C 2144 -128 2720 362 2720 1010 
C 2720 1590 2330 1857 2074 2029 
L 1741 2264 
z
M 902 2822 
C 851 2854 595 3051 595 3351 
C 595 3739 998 4032 1459 4032 
C 1965 4032 2336 3676 2336 3262 
C 2336 2669 1670 2331 1638 2331 
C 1632 2331 1626 2331 1574 2370 
L 902 2822 
z
M 2080 1519 
C 2176 1449 2483 1240 2483 851 
C 2483 381 2010 25 1472 25 
C 890 25 448 438 448 940 
C 448 1443 838 1862 1280 2060 
L 2080 1519 
z
" transform="scale(0.015625)"/>
       </defs>
       <use xlink:href="#CMR17-30" transform="scale(0.996264)"/>
       <use xlink:href="#CMMI12-3a" transform="translate(45.690477 0) scale(0.996264)"/>
       <use xlink:href="#CMR17-38" transform="translate(72.787654 0) scale(0.996264)"/>
      </g>
     </g>
    </g>
    <g id="ytick_6">
     <g id="line2d_21">
      <path d="M 84.740543 18.927692 
L 810.140543 18.927692 
" clip-path="url(#pcf11ef7528)" style="fill: none; stroke: #b0b0b0; stroke-width: 0.8; stroke-linecap: square"/>
     </g>
     <g id="line2d_22">
      <g>
       <use xlink:href="#m7e3929a659" x="84.740543" y="18.927692" style="stroke: #000000; stroke-width: 0.8"/>
      </g>
     </g>
     <g id="text_12">
      <!-- $\mathdefault{1.0}$ -->
      <g transform="translate(42.197103 29.30544) scale(0.3 -0.3)">
       <use xlink:href="#CMR17-31" transform="scale(0.996264)"/>
       <use xlink:href="#CMMI12-3a" transform="translate(45.690477 0) scale(0.996264)"/>
       <use xlink:href="#CMR17-30" transform="translate(72.787654 0) scale(0.996264)"/>
      </g>
     </g>
    </g>
    <g id="text_13">
     <!-- $S_1$ -->
     <g transform="translate(31.414752 328.216088) rotate(-90) scale(0.35 -0.35)">
      <defs>
       <path id="CMMI12-53" d="M 4064 4423 
C 4064 4480 4019 4480 4006 4480 
C 3981 4480 3974 4474 3898 4378 
C 3859 4333 3597 4001 3590 3995 
C 3379 4410 2957 4480 2688 4480 
C 1875 4480 1139 3743 1139 3025 
C 1139 2549 1427 2269 1741 2161 
C 1811 2135 2189 2033 2381 1989 
C 2707 1900 2790 1875 2925 1735 
C 2950 1703 3078 1557 3078 1258 
C 3078 667 2528 57 1888 57 
C 1363 57 781 280 781 991 
C 781 1112 806 1265 826 1328 
C 826 1348 832 1378 832 1391 
C 832 1417 819 1449 768 1449 
C 710 1449 704 1436 678 1328 
L 352 24 
C 352 18 326 -64 326 -71 
C 326 -128 378 -128 390 -128 
C 416 -128 422 -122 499 -26 
L 794 356 
C 947 126 1280 -128 1875 -128 
C 2701 -128 3456 666 3456 1460 
C 3456 1728 3392 1963 3149 2197 
C 3014 2331 2899 2363 2310 2516 
C 1882 2630 1824 2649 1709 2751 
C 1600 2858 1517 3011 1517 3227 
C 1517 3761 2061 4308 2669 4308 
C 3296 4308 3590 3926 3590 3323 
C 3590 3158 3558 2986 3558 2961 
C 3558 2903 3610 2903 3629 2903 
C 3686 2903 3693 2922 3718 3024 
L 4064 4423 
z
" transform="scale(0.015625)"/>
      </defs>
      <use xlink:href="#CMMI12-53" transform="scale(0.996264)"/>
      <use xlink:href="#CMR17-31" transform="translate(59.994488 -14.943915) scale(0.697382)"/>
     </g>
    </g>
   </g>
   <g id="patch_3">
    <path d="M 84.740543 617.04 
L 84.740543 7.2 
" style="fill: none; stroke: #000000; stroke-width: 0.8; stroke-linejoin: miter; stroke-linecap: square"/>
   </g>
   <g id="patch_4">
    <path d="M 810.140543 617.04 
L 810.140543 7.2 
" style="fill: none; stroke: #000000; stroke-width: 0.8; stroke-linejoin: miter; stroke-linecap: square"/>
   </g>
   <g id="patch_5">
    <path d="M 84.740543 617.04 
L 810.140543 617.04 
" style="fill: none; stroke: #000000; stroke-width: 0.8; stroke-linejoin: miter; stroke-linecap: square"/>
   </g>
   <g id="patch_6">
    <path d="M 84.740543 7.2 
L 810.140543 7.2 
" style="fill: none; stroke: #000000; stroke-width: 0.8; stroke-linejoin: miter; stroke-linecap: square"/>
   </g>
   <g id="legend_1">
    <g id="patch_7">
     <path d="M 109.240543 354.406667 
L 268.183996 354.406667 
Q 275.183996 354.406667 275.183996 347.406667 
L 275.183996 153.668 
Q 275.183996 146.668 268.183996 146.668 
L 109.240543 146.668 
Q 102.240543 146.668 102.240543 153.668 
L 102.240543 347.406667 
Q 102.240543 354.406667 109.240543 354.406667 
z
" style="fill: #ffffff; stroke: #cccccc; stroke-linejoin: miter"/>
    </g>
    <g id="patch_8">
     <path d="M 116.240543 185.168 
L 186.240543 185.168 
L 186.240543 160.668 
L 116.240543 160.668 
z
" style="fill: #1f77b4"/>
    </g>
    <g id="text_14">
     <!-- $M$ -->
     <g transform="translate(214.240543 185.168) scale(0.35 -0.35)">
      <defs>
       <path id="CMMI12-4d" d="M 5811 3886 
C 5869 4103 5882 4167 6336 4167 
C 6458 4167 6515 4167 6515 4288 
C 6515 4352 6470 4352 6349 4352 
L 5581 4352 
C 5421 4352 5414 4346 5344 4243 
L 3008 562 
L 2528 4211 
C 2509 4352 2502 4352 2336 4352 
L 1542 4352 
C 1421 4352 1363 4352 1363 4231 
C 1363 4167 1421 4167 1517 4167 
C 1907 4167 1907 4116 1907 4046 
C 1907 4034 1907 3995 1882 3899 
L 1062 634 
C 986 327 838 186 410 186 
C 390 186 314 186 314 73 
C 314 0 371 0 397 0 
C 525 0 851 0 979 0 
L 1286 0 
C 1376 0 1485 0 1574 0 
C 1619 0 1690 0 1690 122 
C 1690 180 1626 186 1600 186 
C 1389 186 1184 224 1184 454 
C 1184 518 1184 524 1210 613 
L 2093 4129 
L 2099 4129 
L 2630 172 
C 2650 19 2656 0 2714 0 
C 2784 0 2816 51 2848 109 
L 5421 4161 
L 5427 4161 
L 4499 473 
C 4442 250 4429 186 3981 186 
C 3859 186 3795 186 3795 70 
C 3795 0 3853 0 3891 0 
C 4000 0 4128 0 4237 0 
L 4992 0 
C 5101 0 5235 0 5344 0 
C 5395 0 5466 0 5466 122 
C 5466 186 5408 186 5312 186 
C 4922 186 4922 234 4922 294 
C 4922 301 4922 345 4934 396 
L 5811 3886 
z
" transform="scale(0.015625)"/>
      </defs>
      <use xlink:href="#CMMI12-4d" transform="scale(0.996264)"/>
     </g>
    </g>
    <g id="patch_9">
     <path d="M 116.240543 233.950351 
L 186.240543 233.950351 
L 186.240543 209.450351 
L 116.240543 209.450351 
z
" style="fill: #ff7f0e"/>
    </g>
    <g id="text_15">
     <!-- $P$ -->
     <g transform="translate(214.240543 233.950351) scale(0.35 -0.35)">
      <defs>
       <path id="CMMI12-50" d="M 1894 2023 
L 2970 2023 
C 3853 2023 4736 2673 4736 3401 
C 4736 3898 4314 4352 3507 4352 
L 1530 4352 
C 1408 4352 1350 4352 1350 4231 
C 1350 4167 1408 4167 1504 4167 
C 1894 4167 1894 4116 1894 4046 
C 1894 4034 1894 3995 1869 3899 
L 1005 472 
C 947 249 934 185 486 185 
C 365 185 301 185 301 70 
C 301 0 358 0 397 0 
C 518 0 646 0 768 0 
L 1517 0 
C 1638 0 1773 0 1894 0 
C 1946 0 2016 0 2016 121 
C 2016 185 1958 185 1862 185 
C 1478 185 1472 230 1472 293 
C 1472 325 1478 369 1485 401 
L 1894 2023 
z
M 2355 3930 
C 2413 4167 2438 4167 2688 4167 
L 3322 4167 
C 3802 4167 4198 4013 4198 3535 
C 4198 3369 4115 2827 3821 2534 
C 3712 2419 3405 2176 2822 2176 
L 1920 2176 
L 2355 3930 
z
" transform="scale(0.015625)"/>
      </defs>
      <use xlink:href="#CMMI12-50" transform="scale(0.996264)"/>
     </g>
    </g>
    <g id="patch_10">
     <path d="M 116.240543 282.732702 
L 186.240543 282.732702 
L 186.240543 258.232702 
L 116.240543 258.232702 
z
" style="fill: #2ca02c"/>
    </g>
    <g id="text_16">
     <!-- $T$ -->
     <g transform="translate(214.240543 282.732702) scale(0.35 -0.35)">
      <defs>
       <path id="CMMI12-54" d="M 2669 3910 
C 2707 4064 2720 4121 2816 4147 
C 2867 4160 3078 4160 3213 4160 
C 3853 4160 4154 4134 4154 3634 
C 4154 3537 4128 3295 4090 3057 
L 4083 2980 
C 4083 2954 4109 2916 4147 2916 
C 4211 2916 4211 2948 4230 3050 
L 4416 4184 
C 4429 4243 4429 4256 4429 4275 
C 4429 4345 4390 4345 4262 4345 
L 762 4345 
C 614 4345 608 4339 570 4224 
L 179 3070 
C 173 3056 154 2986 154 2980 
C 154 2948 179 2916 218 2916 
C 269 2916 282 2941 307 3024 
C 576 3801 710 4160 1562 4160 
L 1990 4160 
C 2144 4160 2208 4160 2208 4089 
C 2208 4069 2208 4057 2176 3941 
L 1318 499 
C 1254 249 1242 185 563 185 
C 403 185 358 185 358 64 
C 358 0 429 0 461 0 
C 621 0 787 0 947 0 
L 1946 0 
C 2106 0 2278 0 2438 0 
C 2509 0 2573 0 2573 121 
C 2573 185 2528 185 2362 185 
C 1786 185 1786 243 1786 339 
C 1786 346 1786 391 1811 494 
L 2669 3910 
z
" transform="scale(0.015625)"/>
      </defs>
      <use xlink:href="#CMMI12-54" transform="scale(0.996264)"/>
     </g>
    </g>
    <g id="patch_11">
     <path d="M 116.240543 331.515054 
L 186.240543 331.515054 
L 186.240543 307.015054 
L 116.240543 307.015054 
z
" style="fill: #d62728"/>
    </g>
    <g id="text_17">
     <!-- $Y_{N_2}$ -->
     <g transform="translate(214.240543 331.515054) scale(0.35 -0.35)">
      <defs>
       <path id="CMMI12-59" d="M 3763 3645 
L 3910 3791 
C 4192 4078 4429 4149 4653 4167 
C 4723 4173 4781 4179 4781 4288 
C 4781 4352 4717 4352 4704 4352 
C 4627 4352 4544 4352 4467 4352 
L 4205 4352 
C 4019 4352 3821 4352 3642 4352 
C 3597 4352 3526 4352 3526 4226 
C 3526 4166 3590 4160 3610 4160 
C 3802 4160 3802 4064 3802 4026 
C 3802 3956 3750 3860 3622 3713 
L 2099 1969 
L 1376 3911 
C 1338 4000 1338 4013 1338 4026 
C 1338 4160 1600 4160 1677 4160 
C 1754 4160 1824 4160 1824 4279 
C 1824 4352 1766 4352 1728 4352 
C 1619 4352 1491 4352 1382 4352 
L 672 4352 
C 557 4352 435 4352 326 4352 
C 282 4352 211 4352 211 4226 
C 211 4160 269 4160 365 4160 
C 678 4160 736 4102 794 3956 
L 1587 1835 
C 1594 1816 1613 1745 1613 1726 
C 1613 1707 1299 452 1280 388 
C 1229 217 1165 185 755 185 
C 646 185 595 185 595 64 
C 595 0 666 0 685 0 
C 800 0 934 0 1056 0 
L 1811 0 
C 1926 0 2061 0 2176 0 
C 2221 0 2298 0 2298 115 
C 2298 185 2253 185 2144 185 
C 1747 185 1747 230 1747 300 
C 1747 345 1798 548 1830 676 
L 2061 1594 
C 2099 1727 2099 1739 2157 1803 
L 3763 3645 
z
" transform="scale(0.015625)"/>
       <path id="CMMI12-4e" d="M 4736 3698 
C 4806 3974 4909 4166 5395 4166 
C 5414 4166 5491 4166 5491 4279 
C 5491 4352 5434 4352 5408 4352 
C 5280 4352 4954 4352 4826 4352 
L 4518 4352 
C 4429 4352 4314 4352 4224 4352 
C 4186 4352 4109 4352 4109 4230 
C 4109 4166 4160 4166 4205 4166 
C 4589 4166 4614 4019 4614 3903 
C 4614 3846 4608 3826 4589 3737 
L 3866 850 
L 2496 4249 
C 2451 4352 2445 4352 2304 4352 
L 1523 4352 
C 1395 4352 1338 4352 1338 4230 
C 1338 4166 1382 4166 1504 4166 
C 1536 4166 1914 4166 1914 4115 
C 1914 4102 1901 4051 1894 4032 
L 1043 635 
C 966 320 813 186 390 186 
C 358 186 294 186 294 67 
C 294 0 358 0 378 0 
C 506 0 832 0 960 0 
L 1267 0 
C 1357 0 1466 0 1555 0 
C 1600 0 1670 0 1670 122 
C 1670 180 1606 186 1581 186 
C 1370 186 1165 224 1165 454 
C 1165 505 1178 562 1190 613 
L 2054 4032 
C 2093 3968 2093 3956 2118 3898 
L 3642 115 
C 3674 38 3686 0 3744 0 
C 3808 0 3814 19 3840 128 
L 4736 3698 
z
" transform="scale(0.015625)"/>
      </defs>
      <use xlink:href="#CMMI12-59" transform="scale(0.996264)"/>
      <use xlink:href="#CMMI12-4e" transform="translate(56.598607 -14.943915) scale(0.697382)"/>
      <use xlink:href="#CMR17-32" transform="translate(111.278947 -25.404611) scale(0.498132)"/>
     </g>
    </g>
   </g>
  </g>
 </g>
 <defs>
  <clipPath id="pcf11ef7528">
   <rect x="84.740543" y="7.2" width="725.4" height="609.84"/>
  </clipPath>
 </defs>
</svg>
