<?xml version="1.0" encoding="utf-8" standalone="no"?>
<!DOCTYPE svg PUBLIC "-//W3C//DTD SVG 1.1//EN"
  "http://www.w3.org/Graphics/SVG/1.1/DTD/svg11.dtd">
<svg xmlns:xlink="http://www.w3.org/1999/xlink" width="817.340543pt" height="692.806049pt" viewBox="0 0 817.340543 692.806049" xmlns="http://www.w3.org/2000/svg" version="1.1">
 <metadata>
  <rdf:RDF xmlns:dc="http://purl.org/dc/elements/1.1/" xmlns:cc="http://creativecommons.org/ns#" xmlns:rdf="http://www.w3.org/1999/02/22-rdf-syntax-ns#">
   <cc:Work>
    <dc:type rdf:resource="http://purl.org/dc/dcmitype/StillImage"/>
    <dc:date>2025-03-26T16:04:25.917853</dc:date>
    <dc:format>image/svg+xml</dc:format>
    <dc:creator>
     <cc:Agent>
      <dc:title>Matplotlib v3.7.1, https://matplotlib.org/</dc:title>
     </cc:Agent>
    </dc:creator>
   </cc:Work>
  </rdf:RDF>
 </metadata>
 <defs>
  <style type="text/css">*{stroke-linejoin: round; stroke-linecap: butt}</style>
 </defs>
 <g id="figure_1">
  <g id="patch_1">
   <path d="M 0 692.806049 
L 817.340543 692.806049 
L 817.340543 0 
L 0 0 
z
" style="fill: #ffffff"/>
  </g>
  <g id="axes_1">
   <g id="patch_2">
    <path d="M 84.740543 617.04 
L 810.140543 617.04 
L 810.140543 7.2 
L 84.740543 7.2 
z
" style="fill: #ffffff"/>
   </g>
   <g id="PolyCollection_1">
    <path d="M -529.448308 605.312308 
L -529.448308 605.312308 
L -495.096852 605.312308 
L -470.020065 605.312308 
L -451.713553 605.312308 
L -438.349052 605.312308 
L -428.591888 605.312308 
L -421.467669 605.312308 
L -416.265003 605.312308 
L -412.464478 605.312308 
L -409.686832 605.312308 
L -407.469009 605.312308 
L -405.270505 605.312308 
L -403.072001 605.312308 
L -400.818741 605.312308 
L -398.565481 605.312308 
L -396.312222 605.312308 
L -394.058962 605.312308 
L -391.805702 605.312308 
L -389.552442 605.312308 
L -387.299183 605.312308 
L -385.045923 605.312308 
L -382.792663 605.312308 
L -380.539403 605.312308 
L -378.286143 605.312308 
L -376.032884 605.312308 
L -373.779624 605.312308 
L -371.526364 605.312308 
L -369.273104 605.312308 
L -367.019844 605.312308 
L -364.766585 605.312308 
L -362.513325 605.312308 
L -360.260065 605.312308 
L -358.006805 605.312308 
L -355.753546 605.312308 
L -353.500286 605.312308 
L -351.247026 605.312308 
L -348.993766 605.312308 
L -346.740506 605.312308 
L -344.487247 605.312308 
L -342.233987 605.312308 
L -339.980727 605.312308 
L -337.727467 605.312308 
L -335.474207 605.312308 
L -333.220948 605.312308 
L -330.967688 605.312308 
L -328.714428 605.312308 
L -326.461168 605.312308 
L -324.207906 605.312308 
L -321.89788 605.312308 
L -319.505319 605.312308 
L -317.026662 605.312308 
L -314.457166 605.312308 
L -311.79197 605.312308 
L -309.028283 605.312308 
L -306.162775 605.312308 
L -303.191567 605.312308 
L -300.110397 605.312308 
L -296.916571 605.312308 
L -293.606754 605.312308 
L -290.176287 605.312308 
L -286.618905 605.312308 
L -282.927535 605.312308 
L -279.103848 605.312308 
L -275.139245 605.312308 
L -271.026505 605.312308 
L -266.765383 605.312308 
L -262.34492 605.312308 
L -257.762664 605.312308 
L -253.013176 605.312308 
L -248.086908 605.312308 
L -242.979512 605.312308 
L -237.684611 605.312308 
L -232.194938 605.312308 
L -226.503071 605.312308 
L -220.601654 605.312308 
L -214.483221 605.312308 
L -208.139688 605.312308 
L -201.5616 605.312308 
L -194.741629 605.312308 
L -187.670851 605.312308 
L -180.339261 605.312308 
L -172.737355 605.312308 
L -164.856033 605.312308 
L -156.684456 605.312308 
L -148.211606 605.312308 
L -139.426428 605.312308 
L -130.31782 605.312308 
L -120.921779 605.312308 
L -111.254796 605.312308 
L -101.231949 605.312308 
L -90.839193 605.312308 
L -80.063608 605.312308 
L -68.890841 605.312308 
L -57.306163 605.312308 
L -45.294584 605.312308 
L -32.8402 605.312308 
L -19.926484 605.312308 
L -6.536727 605.312308 
L 7.346541 605.312308 
L 21.74163 605.312308 
L 35.952583 605.312308 
L 46.558634 605.312308 
L 54.11159 605.312308 
L 59.49126 605.312308 
L 63.323822 605.312308 
L 66.054892 605.312308 
L 68.201283 605.312308 
L 70.329362 605.312308 
L 72.457441 605.312308 
L 74.585519 605.312308 
L 76.713598 605.312308 
L 78.841677 605.312308 
L 80.969755 605.312308 
L 83.097834 605.312308 
L 85.225913 605.312308 
L 86.777793 605.312308 
L 88.329672 605.312308 
L 89.881552 605.312308 
L 91.433432 605.312308 
L 92.985312 605.312308 
L 94.537191 605.312308 
L 96.089071 605.312308 
L 97.640951 605.312308 
L 99.192831 605.312308 
L 100.74471 605.312308 
L 102.29659 605.312308 
L 103.84847 605.312308 
L 105.40035 605.312308 
L 106.952229 605.312308 
L 108.504109 605.312308 
L 110.055989 605.312308 
L 111.607869 605.312308 
L 113.159749 605.312308 
L 114.711628 605.312308 
L 116.263508 605.312308 
L 117.815388 605.312308 
L 119.367268 605.312308 
L 120.919147 605.312308 
L 122.471027 605.312308 
L 124.022907 605.312308 
L 125.574787 605.312308 
L 127.126666 605.312308 
L 128.678546 605.312308 
L 130.230426 605.312308 
L 131.782306 605.312308 
L 133.334185 605.312308 
L 134.886065 605.312308 
L 136.437945 605.312308 
L 137.989825 605.312308 
L 139.541705 605.312308 
L 141.093584 605.312308 
L 142.645464 605.312308 
L 144.197344 605.312308 
L 145.749224 605.312308 
L 147.301103 605.312308 
L 148.852983 605.312308 
L 150.404863 605.312308 
L 151.956743 605.312308 
L 153.508622 605.312308 
L 155.076395 605.312308 
L 156.741484 605.312308 
L 158.552717 605.312308 
L 160.505638 605.312308 
L 162.627094 605.312308 
L 164.929764 605.312308 
L 167.424436 605.312308 
L 170.132168 605.312308 
L 173.076952 605.312308 
L 176.278192 605.312308 
L 179.758833 605.312308 
L 183.544527 605.312308 
L 187.663381 605.312308 
L 192.146559 605.312308 
L 197.026171 605.312308 
L 202.332023 605.312308 
L 208.106339 605.312308 
L 214.381055 605.312308 
L 221.199394 605.312308 
L 228.596977 605.312308 
L 236.610147 605.312308 
L 245.271717 605.312308 
L 254.602991 605.312308 
L 264.608895 605.312308 
L 275.25752 605.312308 
L 286.3849 605.312308 
L 297.558434 605.312308 
L 308.731968 605.312308 
L 319.905503 605.312308 
L 331.079037 605.312308 
L 342.252571 605.312308 
L 353.426105 605.312308 
L 364.59964 605.312308 
L 375.773174 605.312308 
L 386.946708 605.312308 
L 398.120243 605.312308 
L 409.293777 605.312308 
L 420.467311 605.312308 
L 431.640846 605.312308 
L 442.81438 605.312308 
L 458.611418 605.312308 
L 474.408457 605.312308 
L 490.205495 605.312308 
L 506.002533 605.312308 
L 521.799572 605.312308 
L 537.59661 605.312308 
L 553.393648 605.312308 
L 569.190687 605.312308 
L 584.987725 605.312308 
L 600.784763 605.312308 
L 616.581802 605.312308 
L 632.37884 605.312308 
L 648.175878 605.312308 
L 663.972917 605.312308 
L 679.769955 605.312308 
L 695.566993 605.312308 
L 711.364032 605.312308 
L 727.16107 605.312308 
L 742.958108 605.312308 
L 758.755147 605.312308 
L 774.552185 605.312308 
L 790.349223 605.312308 
L 806.146262 605.312308 
L 821.9433 605.312308 
L 821.9433 214.878952 
L 821.9433 214.878952 
L 806.146262 214.873324 
L 790.349223 214.86164 
L 774.552185 214.844485 
L 758.755147 214.8214 
L 742.958108 214.791174 
L 727.16107 214.756232 
L 711.364032 214.710085 
L 695.566993 214.66256 
L 679.769955 214.600542 
L 663.972917 214.54303 
L 648.175878 214.475117 
L 632.37884 214.417669 
L 616.581802 214.366954 
L 600.784763 214.324532 
L 584.987725 214.319772 
L 569.190687 214.292174 
L 553.393648 214.346672 
L 537.59661 214.27902 
L 521.799572 214.361604 
L 506.002533 214.115496 
L 490.205495 214.123464 
L 474.408457 213.524575 
L 458.611418 213.288098 
L 442.81438 212.254592 
L 431.640846 211.632467 
L 420.467311 210.274393 
L 409.293777 209.324771 
L 398.120243 207.95837 
L 386.946708 207.071208 
L 375.773174 206.145746 
L 364.59964 207.059281 
L 353.426105 208.176661 
L 342.252571 209.427093 
L 331.079037 210.810066 
L 319.905503 212.279377 
L 308.731968 213.882142 
L 297.558434 215.52614 
L 286.3849 217.275614 
L 275.25752 219.045761 
L 264.608895 220.895054 
L 254.602991 222.747708 
L 245.271717 224.616221 
L 236.610147 226.398678 
L 228.596977 228.911471 
L 221.199394 231.409468 
L 214.381055 233.607099 
L 208.106339 235.338975 
L 202.332023 236.672843 
L 197.026171 237.427251 
L 192.146559 237.780817 
L 187.663381 237.591464 
L 183.544527 237.059628 
L 179.758833 236.107221 
L 176.278192 234.916153 
L 173.076952 233.49963 
L 170.132168 231.987346 
L 167.424436 230.426724 
L 164.929764 228.880749 
L 162.627094 227.39608 
L 160.505638 225.99049 
L 158.552717 224.699534 
L 156.741484 223.511245 
L 155.076395 222.695624 
L 153.508622 222.017495 
L 151.956743 221.42209 
L 150.404863 220.903551 
L 148.852983 220.449335 
L 147.301103 220.080008 
L 145.749224 219.738778 
L 144.197344 219.483869 
L 142.645464 219.206526 
L 141.093584 219.002796 
L 139.541705 218.727071 
L 137.989825 218.493291 
L 136.437945 218.167824 
L 134.886065 217.84592 
L 133.334185 217.454224 
L 131.782306 217.034448 
L 130.230426 216.601291 
L 128.678546 216.122604 
L 127.126666 215.705595 
L 125.574787 215.233374 
L 124.022907 215.069584 
L 122.471027 215.201004 
L 120.919147 215.717227 
L 119.367268 216.178791 
L 117.815388 216.903415 
L 116.263508 217.699838 
L 114.711628 218.608523 
L 113.159749 219.833906 
L 111.607869 221.082149 
L 110.055989 222.941426 
L 108.504109 224.852861 
L 106.952229 227.579965 
L 105.40035 230.59165 
L 103.84847 234.481474 
L 102.29659 238.84799 
L 100.74471 244.17306 
L 99.192831 250.179988 
L 97.640951 257.43229 
L 96.089071 266.034726 
L 94.537191 276.462462 
L 92.985312 288.94252 
L 91.433432 304.930956 
L 89.881552 325.754419 
L 88.329672 354.221441 
L 86.777793 412.774948 
L 85.225913 444.210824 
L 83.097834 475.580853 
L 80.969755 495.164455 
L 78.841677 509.09351 
L 76.713598 519.599382 
L 74.585519 526.734427 
L 72.457441 532.494651 
L 70.329362 535.426807 
L 68.201283 538.219302 
L 66.054892 538.938925 
L 63.323822 539.917575 
L 59.49126 539.835191 
L 54.11159 539.908162 
L 46.558634 539.657265 
L 35.952583 539.415171 
L 21.74163 539.166655 
L 7.346541 538.846587 
L -6.536727 538.610709 
L -19.926484 538.248607 
L -32.8402 537.980513 
L -45.294584 537.557455 
L -57.306163 537.201878 
L -68.890841 536.706696 
L -80.063608 536.2357 
L -90.839193 535.682255 
L -101.231949 535.109195 
L -111.254796 534.527192 
L -120.921779 533.895085 
L -130.31782 533.3155 
L -139.426428 532.681787 
L -148.211606 532.132677 
L -156.684456 531.554403 
L -164.856033 531.059208 
L -172.737355 530.582228 
L -180.339261 530.159303 
L -187.670851 529.810871 
L -194.741629 529.470123 
L -201.5616 529.254299 
L -208.139688 528.996346 
L -214.483221 528.897453 
L -220.601654 528.713454 
L -226.503071 528.701157 
L -232.194938 528.574016 
L -237.684611 528.611384 
L -242.979512 528.521106 
L -248.086908 528.576221 
L -253.013176 528.506536 
L -257.762664 528.559425 
L -262.34492 528.502554 
L -266.765383 528.54345 
L -271.026505 528.498118 
L -275.139245 528.519885 
L -279.103848 528.484245 
L -282.927535 528.478391 
L -286.618905 528.445808 
L -290.176287 528.406634 
L -293.606754 528.368097 
L -296.916571 528.29935 
L -300.110397 528.250514 
L -303.191567 528.166907 
L -306.162775 528.112826 
L -309.028283 528.035021 
L -311.79197 527.987889 
L -314.457166 527.935264 
L -317.026662 527.907999 
L -319.505319 527.893546 
L -321.89788 527.894694 
L -324.207906 527.923388 
L -326.461168 527.957344 
L -328.714428 528.028438 
L -330.967688 528.099183 
L -333.220948 528.210264 
L -335.474207 528.322364 
L -337.727467 528.468696 
L -339.980727 528.615659 
L -342.233987 528.771341 
L -344.487247 528.899031 
L -346.740506 528.963485 
L -348.993766 528.899834 
L -351.247026 528.612319 
L -353.500286 527.984522 
L -355.753546 526.841796 
L -358.006805 525.010169 
L -360.260065 522.241233 
L -362.513325 518.316784 
L -364.766585 512.950425 
L -367.019844 505.907422 
L -369.273104 496.946901 
L -371.526364 485.931258 
L -373.779624 472.965645 
L -376.032884 458.64801 
L -378.286143 444.40915 
L -380.539403 432.340215 
L -382.792663 423.879001 
L -385.045923 419.295395 
L -387.299183 417.103157 
L -389.552442 417.992449 
L -391.805702 421.317194 
L -394.058962 427.855218 
L -396.312222 436.77078 
L -398.565481 448.493061 
L -400.818741 465.209684 
L -403.072001 496.261686 
L -405.270505 533.706296 
L -407.469009 557.203037 
L -409.686832 579.14279 
L -412.464478 592.019522 
L -416.265003 601.654134 
L -421.467669 605.312308 
L -428.591888 605.312308 
L -438.349052 605.312308 
L -451.713553 605.312308 
L -470.020065 605.312308 
L -495.096852 605.312308 
L -529.448308 605.312308 
z
" clip-path="url(#p877f2db128)" style="fill: #1f77b4"/>
   </g>
   <g id="PolyCollection_2">
    <path d="M -529.448308 605.02172 
L -529.448308 605.312308 
L -495.096852 605.312308 
L -470.020065 605.312308 
L -451.713553 605.312308 
L -438.349052 605.312308 
L -428.591888 605.312308 
L -421.467669 605.312308 
L -416.265003 601.654134 
L -412.464478 592.019522 
L -409.686832 579.14279 
L -407.469009 557.203037 
L -405.270505 533.706296 
L -403.072001 496.261686 
L -400.818741 465.209684 
L -398.565481 448.493061 
L -396.312222 436.77078 
L -394.058962 427.855218 
L -391.805702 421.317194 
L -389.552442 417.992449 
L -387.299183 417.103157 
L -385.045923 419.295395 
L -382.792663 423.879001 
L -380.539403 432.340215 
L -378.286143 444.40915 
L -376.032884 458.64801 
L -373.779624 472.965645 
L -371.526364 485.931258 
L -369.273104 496.946901 
L -367.019844 505.907422 
L -364.766585 512.950425 
L -362.513325 518.316784 
L -360.260065 522.241233 
L -358.006805 525.010169 
L -355.753546 526.841796 
L -353.500286 527.984522 
L -351.247026 528.612319 
L -348.993766 528.899834 
L -346.740506 528.963485 
L -344.487247 528.899031 
L -342.233987 528.771341 
L -339.980727 528.615659 
L -337.727467 528.468696 
L -335.474207 528.322364 
L -333.220948 528.210264 
L -330.967688 528.099183 
L -328.714428 528.028438 
L -326.461168 527.957344 
L -324.207906 527.923388 
L -321.89788 527.894694 
L -319.505319 527.893546 
L -317.026662 527.907999 
L -314.457166 527.935264 
L -311.79197 527.987889 
L -309.028283 528.035021 
L -306.162775 528.112826 
L -303.191567 528.166907 
L -300.110397 528.250514 
L -296.916571 528.29935 
L -293.606754 528.368097 
L -290.176287 528.406634 
L -286.618905 528.445808 
L -282.927535 528.478391 
L -279.103848 528.484245 
L -275.139245 528.519885 
L -271.026505 528.498118 
L -266.765383 528.54345 
L -262.34492 528.502554 
L -257.762664 528.559425 
L -253.013176 528.506536 
L -248.086908 528.576221 
L -242.979512 528.521106 
L -237.684611 528.611384 
L -232.194938 528.574016 
L -226.503071 528.701157 
L -220.601654 528.713454 
L -214.483221 528.897453 
L -208.139688 528.996346 
L -201.5616 529.254299 
L -194.741629 529.470123 
L -187.670851 529.810871 
L -180.339261 530.159303 
L -172.737355 530.582228 
L -164.856033 531.059208 
L -156.684456 531.554403 
L -148.211606 532.132677 
L -139.426428 532.681787 
L -130.31782 533.3155 
L -120.921779 533.895085 
L -111.254796 534.527192 
L -101.231949 535.109195 
L -90.839193 535.682255 
L -80.063608 536.2357 
L -68.890841 536.706696 
L -57.306163 537.201878 
L -45.294584 537.557455 
L -32.8402 537.980513 
L -19.926484 538.248607 
L -6.536727 538.610709 
L 7.346541 538.846587 
L 21.74163 539.166655 
L 35.952583 539.415171 
L 46.558634 539.657265 
L 54.11159 539.908162 
L 59.49126 539.835191 
L 63.323822 539.917575 
L 66.054892 538.938925 
L 68.201283 538.219302 
L 70.329362 535.426807 
L 72.457441 532.494651 
L 74.585519 526.734427 
L 76.713598 519.599382 
L 78.841677 509.09351 
L 80.969755 495.164455 
L 83.097834 475.580853 
L 85.225913 444.210824 
L 86.777793 412.774948 
L 88.329672 354.221441 
L 89.881552 325.754419 
L 91.433432 304.930956 
L 92.985312 288.94252 
L 94.537191 276.462462 
L 96.089071 266.034726 
L 97.640951 257.43229 
L 99.192831 250.179988 
L 100.74471 244.17306 
L 102.29659 238.84799 
L 103.84847 234.481474 
L 105.40035 230.59165 
L 106.952229 227.579965 
L 108.504109 224.852861 
L 110.055989 222.941426 
L 111.607869 221.082149 
L 113.159749 219.833906 
L 114.711628 218.608523 
L 116.263508 217.699838 
L 117.815388 216.903415 
L 119.367268 216.178791 
L 120.919147 215.717227 
L 122.471027 215.201004 
L 124.022907 215.069584 
L 125.574787 215.233374 
L 127.126666 215.705595 
L 128.678546 216.122604 
L 130.230426 216.601291 
L 131.782306 217.034448 
L 133.334185 217.454224 
L 134.886065 217.84592 
L 136.437945 218.167824 
L 137.989825 218.493291 
L 139.541705 218.727071 
L 141.093584 219.002796 
L 142.645464 219.206526 
L 144.197344 219.483869 
L 145.749224 219.738778 
L 147.301103 220.080008 
L 148.852983 220.449335 
L 150.404863 220.903551 
L 151.956743 221.42209 
L 153.508622 222.017495 
L 155.076395 222.695624 
L 156.741484 223.511245 
L 158.552717 224.699534 
L 160.505638 225.99049 
L 162.627094 227.39608 
L 164.929764 228.880749 
L 167.424436 230.426724 
L 170.132168 231.987346 
L 173.076952 233.49963 
L 176.278192 234.916153 
L 179.758833 236.107221 
L 183.544527 237.059628 
L 187.663381 237.591464 
L 192.146559 237.780817 
L 197.026171 237.427251 
L 202.332023 236.672843 
L 208.106339 235.338975 
L 214.381055 233.607099 
L 221.199394 231.409468 
L 228.596977 228.911471 
L 236.610147 226.398678 
L 245.271717 224.616221 
L 254.602991 222.747708 
L 264.608895 220.895054 
L 275.25752 219.045761 
L 286.3849 217.275614 
L 297.558434 215.52614 
L 308.731968 213.882142 
L 319.905503 212.279377 
L 331.079037 210.810066 
L 342.252571 209.427093 
L 353.426105 208.176661 
L 364.59964 207.059281 
L 375.773174 206.145746 
L 386.946708 207.071208 
L 398.120243 207.95837 
L 409.293777 209.324771 
L 420.467311 210.274393 
L 431.640846 211.632467 
L 442.81438 212.254592 
L 458.611418 213.288098 
L 474.408457 213.524575 
L 490.205495 214.123464 
L 506.002533 214.115496 
L 521.799572 214.361604 
L 537.59661 214.27902 
L 553.393648 214.346672 
L 569.190687 214.292174 
L 584.987725 214.319772 
L 600.784763 214.324532 
L 616.581802 214.366954 
L 632.37884 214.417669 
L 648.175878 214.475117 
L 663.972917 214.54303 
L 679.769955 214.600542 
L 695.566993 214.66256 
L 711.364032 214.710085 
L 727.16107 214.756232 
L 742.958108 214.791174 
L 758.755147 214.8214 
L 774.552185 214.844485 
L 790.349223 214.86164 
L 806.146262 214.873324 
L 821.9433 214.878952 
L 821.9433 209.230371 
L 821.9433 209.230371 
L 806.146262 209.220523 
L 790.349223 209.201342 
L 774.552185 209.170517 
L 758.755147 209.13053 
L 742.958108 209.074182 
L 727.16107 209.009088 
L 711.364032 208.919498 
L 695.566993 208.822828 
L 679.769955 208.693555 
L 663.972917 208.560412 
L 648.175878 208.393689 
L 632.37884 208.225328 
L 616.581802 208.035897 
L 600.784763 207.838235 
L 584.987725 207.64695 
L 569.190687 207.411893 
L 553.393648 207.225721 
L 537.59661 206.892718 
L 521.799572 206.676555 
L 506.002533 206.104966 
L 490.205495 205.756117 
L 474.408457 204.774177 
L 458.611418 204.127583 
L 442.81438 202.661529 
L 431.640846 201.58626 
L 420.467311 199.755969 
L 409.293777 198.32419 
L 398.120243 196.479416 
L 386.946708 195.127249 
L 375.773174 193.76089 
L 364.59964 194.304116 
L 353.426105 195.077914 
L 342.252571 196.009967 
L 331.079037 197.098597 
L 319.905503 198.306671 
L 308.731968 199.670277 
L 297.558434 201.115429 
L 286.3849 202.684097 
L 275.25752 204.315448 
L 264.608895 206.035043 
L 254.602991 207.797458 
L 245.271717 209.578583 
L 236.610147 211.306747 
L 228.596977 213.800595 
L 221.199394 216.31179 
L 214.381055 218.520311 
L 208.106339 220.268824 
L 202.332023 221.607723 
L 197.026171 222.361247 
L 192.146559 222.693258 
L 187.663381 222.468532 
L 183.544527 221.873495 
L 179.758833 220.836356 
L 176.278192 219.528726 
L 173.076952 217.968361 
L 170.132168 216.279415 
L 167.424436 214.512756 
L 164.929764 212.729348 
L 162.627094 210.978941 
L 160.505638 209.279862 
L 158.552717 207.67122 
L 156.741484 206.142013 
L 155.076395 204.976255 
L 153.508622 203.929118 
L 151.956743 202.944658 
L 150.404863 202.014296 
L 148.852983 201.127783 
L 147.301103 200.29937 
L 145.749224 199.478085 
L 144.197344 198.711599 
L 142.645464 197.90217 
L 141.093584 197.13061 
L 139.541705 196.267546 
L 137.989825 195.410088 
L 136.437945 194.43967 
L 134.886065 193.436246 
L 133.334185 192.33302 
L 131.782306 191.161639 
L 130.230426 189.931919 
L 128.678546 188.610912 
L 127.126666 187.286533 
L 125.574787 185.852345 
L 124.022907 184.661479 
L 122.471027 183.731588 
L 120.919147 183.121001 
L 119.367268 182.388969 
L 117.815388 181.847788 
L 116.263508 181.299244 
L 114.711628 180.776026 
L 113.159749 180.47666 
L 111.607869 180.102413 
L 110.055989 180.241586 
L 108.504109 180.353824 
L 106.952229 181.228568 
L 105.40035 182.371383 
L 103.84847 184.381172 
L 102.29659 186.869834 
L 100.74471 190.346323 
L 99.192831 194.544725 
L 97.640951 200.040033 
L 96.089071 206.964648 
L 94.537191 215.762869 
L 92.985312 226.672947 
L 91.433432 241.139142 
L 89.881552 260.483572 
L 88.329672 287.521694 
L 86.777793 344.697571 
L 85.225913 374.828576 
L 83.097834 404.971801 
L 80.969755 423.480495 
L 78.841677 436.460218 
L 76.713598 446.129873 
L 74.585519 452.546 
L 72.457441 457.681734 
L 70.329362 460.108367 
L 68.201283 462.465704 
L 66.054892 462.878801 
L 63.323822 463.593147 
L 59.49126 463.383136 
L 54.11159 463.350997 
L 46.558634 463.122282 
L 35.952583 462.929802 
L 21.74163 462.83491 
L 7.346541 462.707632 
L -6.536727 462.743813 
L -19.926484 462.696684 
L -32.8402 462.804095 
L -45.294584 462.797654 
L -57.306163 462.906012 
L -68.890841 462.910999 
L -80.063608 462.976679 
L -90.839193 462.989489 
L -101.231949 463.009937 
L -111.254796 463.044232 
L -120.921779 463.048431 
L -130.31782 463.121693 
L -139.426428 463.154338 
L -148.211606 463.282095 
L -156.684456 463.388599 
L -164.856033 463.583805 
L -172.737355 463.800479 
L -180.339261 464.072426 
L -187.670851 464.418455 
L -194.741629 464.770527 
L -201.5616 465.244947 
L -208.139688 465.673607 
L -214.483221 466.256979 
L -220.601654 466.750413 
L -226.503071 467.410551 
L -232.194938 467.950796 
L -237.684611 468.650714 
L -242.979512 469.218059 
L -248.086908 469.92585 
L -253.013176 470.503976 
L -257.762664 471.19988 
L -262.34492 471.781201 
L -266.765383 472.455271 
L -271.026505 473.038012 
L -275.139245 473.682926 
L -279.103848 474.265613 
L -282.927535 474.873574 
L -286.618905 475.450532 
L -290.176287 476.016973 
L -293.606754 476.580577 
L -296.916571 477.11079 
L -300.110397 477.658263 
L -303.191567 478.168887 
L -306.162775 478.707734 
L -309.028283 479.22263 
L -311.79197 479.769345 
L -314.457166 480.313347 
L -317.026662 480.887421 
L -319.505319 481.481251 
L -321.89788 482.100303 
L -324.207906 482.75961 
L -326.461168 483.440517 
L -328.714428 484.179033 
L -330.967688 484.942083 
L -333.220948 485.775101 
L -335.474207 486.643754 
L -337.727467 487.586504 
L -339.980727 488.575335 
L -342.233987 489.623976 
L -344.487247 490.701162 
L -346.740506 491.776933 
L -348.993766 492.791558 
L -351.247026 493.654092 
L -353.500286 494.25271 
L -355.753546 494.416865 
L -358.006805 493.975658 
L -360.260065 492.682617 
L -362.513325 490.320182 
L -364.766585 486.601067 
L -367.019844 481.286329 
L -369.273104 474.128298 
L -371.526364 464.979546 
L -373.779624 453.927824 
L -376.032884 441.542587 
L -378.286143 429.206619 
L -380.539403 418.954474 
L -382.792663 412.161713 
L -385.045923 409.07915 
L -387.299183 408.237105 
L -389.552442 410.330295 
L -391.805702 414.76292 
L -394.058962 422.251576 
L -396.312222 432.109246 
L -398.565481 444.500269 
L -400.818741 462.093994 
L -403.072001 493.386138 
L -405.270505 531.793556 
L -407.469009 555.022745 
L -409.686832 578.066624 
L -412.464478 590.514192 
L -416.265003 600.984967 
L -421.467669 604.261715 
L -428.591888 604.893006 
L -438.349052 604.632823 
L -451.713553 605.029877 
L -470.020065 604.883429 
L -495.096852 605.072034 
L -529.448308 605.02172 
z
" clip-path="url(#p877f2db128)" style="fill: #ff7f0e"/>
   </g>
   <g id="PolyCollection_3">
    <path d="M -529.448308 18.927692 
L -529.448308 605.02172 
L -495.096852 605.072034 
L -470.020065 604.883429 
L -451.713553 605.029877 
L -438.349052 604.632823 
L -428.591888 604.893006 
L -421.467669 604.261715 
L -416.265003 600.984967 
L -412.464478 590.514192 
L -409.686832 578.066624 
L -407.469009 555.022745 
L -405.270505 531.793556 
L -403.072001 493.386138 
L -400.818741 462.093994 
L -398.565481 444.500269 
L -396.312222 432.109246 
L -394.058962 422.251576 
L -391.805702 414.76292 
L -389.552442 410.330295 
L -387.299183 408.237105 
L -385.045923 409.07915 
L -382.792663 412.161713 
L -380.539403 418.954474 
L -378.286143 429.206619 
L -376.032884 441.542587 
L -373.779624 453.927824 
L -371.526364 464.979546 
L -369.273104 474.128298 
L -367.019844 481.286329 
L -364.766585 486.601067 
L -362.513325 490.320182 
L -360.260065 492.682617 
L -358.006805 493.975658 
L -355.753546 494.416865 
L -353.500286 494.25271 
L -351.247026 493.654092 
L -348.993766 492.791558 
L -346.740506 491.776933 
L -344.487247 490.701162 
L -342.233987 489.623976 
L -339.980727 488.575335 
L -337.727467 487.586504 
L -335.474207 486.643754 
L -333.220948 485.775101 
L -330.967688 484.942083 
L -328.714428 484.179033 
L -326.461168 483.440517 
L -324.207906 482.75961 
L -321.89788 482.100303 
L -319.505319 481.481251 
L -317.026662 480.887421 
L -314.457166 480.313347 
L -311.79197 479.769345 
L -309.028283 479.22263 
L -306.162775 478.707734 
L -303.191567 478.168887 
L -300.110397 477.658263 
L -296.916571 477.11079 
L -293.606754 476.580577 
L -290.176287 476.016973 
L -286.618905 475.450532 
L -282.927535 474.873574 
L -279.103848 474.265613 
L -275.139245 473.682926 
L -271.026505 473.038012 
L -266.765383 472.455271 
L -262.34492 471.781201 
L -257.762664 471.19988 
L -253.013176 470.503976 
L -248.086908 469.92585 
L -242.979512 469.218059 
L -237.684611 468.650714 
L -232.194938 467.950796 
L -226.503071 467.410551 
L -220.601654 466.750413 
L -214.483221 466.256979 
L -208.139688 465.673607 
L -201.5616 465.244947 
L -194.741629 464.770527 
L -187.670851 464.418455 
L -180.339261 464.072426 
L -172.737355 463.800479 
L -164.856033 463.583805 
L -156.684456 463.388599 
L -148.211606 463.282095 
L -139.426428 463.154338 
L -130.31782 463.121693 
L -120.921779 463.048431 
L -111.254796 463.044232 
L -101.231949 463.009937 
L -90.839193 462.989489 
L -80.063608 462.976679 
L -68.890841 462.910999 
L -57.306163 462.906012 
L -45.294584 462.797654 
L -32.8402 462.804095 
L -19.926484 462.696684 
L -6.536727 462.743813 
L 7.346541 462.707632 
L 21.74163 462.83491 
L 35.952583 462.929802 
L 46.558634 463.122282 
L 54.11159 463.350997 
L 59.49126 463.383136 
L 63.323822 463.593147 
L 66.054892 462.878801 
L 68.201283 462.465704 
L 70.329362 460.108367 
L 72.457441 457.681734 
L 74.585519 452.546 
L 76.713598 446.129873 
L 78.841677 436.460218 
L 80.969755 423.480495 
L 83.097834 404.971801 
L 85.225913 374.828576 
L 86.777793 344.697571 
L 88.329672 287.521694 
L 89.881552 260.483572 
L 91.433432 241.139142 
L 92.985312 226.672947 
L 94.537191 215.762869 
L 96.089071 206.964648 
L 97.640951 200.040033 
L 99.192831 194.544725 
L 100.74471 190.346323 
L 102.29659 186.869834 
L 103.84847 184.381172 
L 105.40035 182.371383 
L 106.952229 181.228568 
L 108.504109 180.353824 
L 110.055989 180.241586 
L 111.607869 180.102413 
L 113.159749 180.47666 
L 114.711628 180.776026 
L 116.263508 181.299244 
L 117.815388 181.847788 
L 119.367268 182.388969 
L 120.919147 183.121001 
L 122.471027 183.731588 
L 124.022907 184.661479 
L 125.574787 185.852345 
L 127.126666 187.286533 
L 128.678546 188.610912 
L 130.230426 189.931919 
L 131.782306 191.161639 
L 133.334185 192.33302 
L 134.886065 193.436246 
L 136.437945 194.43967 
L 137.989825 195.410088 
L 139.541705 196.267546 
L 141.093584 197.13061 
L 142.645464 197.90217 
L 144.197344 198.711599 
L 145.749224 199.478085 
L 147.301103 200.29937 
L 148.852983 201.127783 
L 150.404863 202.014296 
L 151.956743 202.944658 
L 153.508622 203.929118 
L 155.076395 204.976255 
L 156.741484 206.142013 
L 158.552717 207.67122 
L 160.505638 209.279862 
L 162.627094 210.978941 
L 164.929764 212.729348 
L 167.424436 214.512756 
L 170.132168 216.279415 
L 173.076952 217.968361 
L 176.278192 219.528726 
L 179.758833 220.836356 
L 183.544527 221.873495 
L 187.663381 222.468532 
L 192.146559 222.693258 
L 197.026171 222.361247 
L 202.332023 221.607723 
L 208.106339 220.268824 
L 214.381055 218.520311 
L 221.199394 216.31179 
L 228.596977 213.800595 
L 236.610147 211.306747 
L 245.271717 209.578583 
L 254.602991 207.797458 
L 264.608895 206.035043 
L 275.25752 204.315448 
L 286.3849 202.684097 
L 297.558434 201.115429 
L 308.731968 199.670277 
L 319.905503 198.306671 
L 331.079037 197.098597 
L 342.252571 196.009967 
L 353.426105 195.077914 
L 364.59964 194.304116 
L 375.773174 193.76089 
L 386.946708 195.127249 
L 398.120243 196.479416 
L 409.293777 198.32419 
L 420.467311 199.755969 
L 431.640846 201.58626 
L 442.81438 202.661529 
L 458.611418 204.127583 
L 474.408457 204.774177 
L 490.205495 205.756117 
L 506.002533 206.104966 
L 521.799572 206.676555 
L 537.59661 206.892718 
L 553.393648 207.225721 
L 569.190687 207.411893 
L 584.987725 207.64695 
L 600.784763 207.838235 
L 616.581802 208.035897 
L 632.37884 208.225328 
L 648.175878 208.393689 
L 663.972917 208.560412 
L 679.769955 208.693555 
L 695.566993 208.822828 
L 711.364032 208.919498 
L 727.16107 209.009088 
L 742.958108 209.074182 
L 758.755147 209.13053 
L 774.552185 209.170517 
L 790.349223 209.201342 
L 806.146262 209.220523 
L 821.9433 209.230371 
L 821.9433 63.534607 
L 821.9433 63.534607 
L 806.146262 63.524136 
L 790.349223 63.499102 
L 774.552185 63.465694 
L 758.755147 63.412221 
L 742.958108 63.348906 
L 727.16107 63.25869 
L 711.364032 63.15276 
L 695.566993 63.012291 
L 679.769955 62.848537 
L 663.972917 62.641832 
L 648.175878 62.408357 
L 632.37884 62.12038 
L 616.581802 61.811156 
L 600.784763 61.425582 
L 584.987725 61.033993 
L 569.190687 60.514905 
L 553.393648 60.014764 
L 537.59661 59.26965 
L 521.799572 58.588738 
L 506.002533 57.441842 
L 490.205495 56.440708 
L 474.408457 54.687103 
L 458.611418 53.169186 
L 442.81438 50.705572 
L 431.640846 48.515806 
L 420.467311 45.440393 
L 409.293777 42.651198 
L 398.120243 39.332405 
L 386.946708 36.389798 
L 375.773174 33.340745 
L 364.59964 32.66154 
L 353.426105 32.143376 
L 342.252571 31.635013 
L 331.079037 31.136531 
L 319.905503 30.651868 
L 308.731968 30.187598 
L 297.558434 29.739688 
L 286.3849 29.310368 
L 275.25752 28.897976 
L 264.608895 28.504378 
L 254.602991 28.129363 
L 245.271717 27.773409 
L 236.610147 27.437215 
L 228.596977 28.410666 
L 221.199394 29.719558 
L 214.381055 30.926319 
L 208.106339 31.886917 
L 202.332023 32.640795 
L 197.026171 33.016672 
L 192.146559 33.157025 
L 187.663381 32.928277 
L 183.544527 32.501139 
L 179.758833 31.808095 
L 176.278192 30.997882 
L 173.076952 30.075504 
L 170.132168 29.139374 
L 167.424436 28.218819 
L 164.929764 27.347121 
L 162.627094 26.54883 
L 160.505638 25.822473 
L 158.552717 25.187623 
L 156.741484 24.62275 
L 155.076395 24.510903 
L 153.508622 24.501172 
L 151.956743 24.496679 
L 150.404863 24.489358 
L 148.852983 24.477882 
L 147.301103 24.464384 
L 145.749224 24.439001 
L 144.197344 24.411567 
L 142.645464 24.366397 
L 141.093584 24.3181 
L 139.541705 24.248845 
L 137.989825 24.174216 
L 136.437945 24.078557 
L 134.886065 23.974159 
L 133.334185 23.851731 
L 131.782306 23.717872 
L 130.230426 23.571365 
L 128.678546 23.410981 
L 127.126666 23.244075 
L 125.574787 23.060389 
L 124.022907 23.168346 
L 122.471027 23.779496 
L 120.919147 24.789297 
L 119.367268 25.76214 
L 117.815388 27.012106 
L 116.263508 28.34266 
L 114.711628 29.789158 
L 113.159749 31.547597 
L 111.607869 33.316374 
L 110.055989 35.687264 
L 108.504109 38.15738 
L 106.952229 41.541658 
L 105.40035 45.391652 
L 103.84847 50.312445 
L 102.29659 55.906332 
L 100.74471 62.700291 
L 99.192831 70.434873 
L 97.640951 79.650596 
L 96.089071 90.43672 
L 94.537191 103.04782 
L 92.985312 117.517468 
L 91.433432 135.190971 
L 89.881552 157.288079 
L 88.329672 186.376465 
L 86.777793 245.485685 
L 85.225913 276.625502 
L 83.097834 308.363003 
L 80.969755 327.246405 
L 78.841677 341.451194 
L 76.713598 350.908349 
L 74.585519 358.129514 
L 72.457441 362.718237 
L 70.329362 365.426324 
L 68.201283 367.115079 
L 66.054892 367.308943 
L 63.323822 367.249814 
L 59.49126 366.430399 
L 54.11159 365.48058 
L 46.558634 364.343534 
L 35.952583 363.057199 
L 21.74163 361.807187 
L 7.346541 360.392582 
L -6.536727 359.053715 
L -19.926484 357.520966 
L -32.8402 356.048088 
L -45.294584 354.361787 
L -57.306163 352.697207 
L -68.890841 350.837928 
L -80.063608 348.952748 
L -90.839193 346.931362 
L -101.231949 344.839257 
L -111.254796 342.687889 
L -120.921779 340.440668 
L -130.31782 338.204198 
L -139.426428 335.873528 
L -148.211606 333.588928 
L -156.684456 331.238617 
L -164.856033 328.937518 
L -172.737355 326.622685 
L -180.339261 324.332357 
L -187.670851 322.089719 
L -194.741629 319.831366 
L -201.5616 317.679514 
L -208.139688 315.468674 
L -214.483221 313.402196 
L -220.601654 311.237872 
L -226.503071 309.23493 
L -232.194938 307.109742 
L -237.684611 305.145492 
L -242.979512 303.054295 
L -248.086908 301.11553 
L -253.013176 299.062995 
L -257.762664 297.149639 
L -262.34492 295.146227 
L -266.765383 293.265979 
L -271.026505 291.330932 
L -275.139245 289.49879 
L -279.103848 287.645959 
L -282.927535 285.85704 
L -286.618905 284.072708 
L -290.176287 282.310699 
L -293.606754 280.576238 
L -296.916571 278.835615 
L -300.110397 277.135047 
L -303.191567 275.413924 
L -306.162775 273.730028 
L -309.028283 272.0227 
L -311.79197 270.338089 
L -314.457166 268.62984 
L -317.026662 266.918828 
L -319.505319 265.183633 
L -321.89788 263.418259 
L -324.207906 261.625892 
L -326.461168 259.774524 
L -328.714428 257.886214 
L -330.967688 255.918091 
L -333.220948 253.911533 
L -335.474207 251.834827 
L -337.727467 249.736681 
L -339.980727 247.60015 
L -342.233987 245.462147 
L -344.487247 243.333087 
L -346.740506 241.243474 
L -348.993766 239.218424 
L -351.247026 237.270063 
L -353.500286 235.401837 
L -355.753546 233.567164 
L -358.006805 231.713076 
L -360.260065 229.680633 
L -362.513325 227.281535 
L -364.766585 224.086436 
L -367.019844 219.952165 
L -369.273104 214.797618 
L -371.526364 208.731479 
L -373.779624 202.284414 
L -376.032884 196.67992 
L -378.286143 194.232464 
L -380.539403 196.808374 
L -382.792663 202.693686 
L -385.045923 209.939397 
L -387.299183 217.815738 
L -389.552442 226.930012 
L -391.805702 237.877962 
L -394.058962 250.563772 
L -396.312222 264.522543 
L -398.565481 280.369719 
L -400.818741 301.129164 
L -403.072001 335.705219 
L -405.270505 376.581332 
L -407.469009 400.307903 
L -409.686832 18.927692 
L -412.464478 18.927692 
L -416.265003 18.927692 
L -421.467669 18.927692 
L -428.591888 18.927692 
L -438.349052 18.927692 
L -451.713553 18.927692 
L -470.020065 18.927692 
L -495.096852 18.927692 
L -529.448308 18.927692 
z
" clip-path="url(#p877f2db128)" style="fill: #2ca02c"/>
   </g>
   <g id="PolyCollection_4">
    <path d="M -529.448308 18.927692 
L -529.448308 18.927692 
L -495.096852 18.927692 
L -470.020065 18.927692 
L -451.713553 18.927692 
L -438.349052 18.927692 
L -428.591888 18.927692 
L -421.467669 18.927692 
L -416.265003 18.927692 
L -412.464478 18.927692 
L -409.686832 18.927692 
L -407.469009 400.307903 
L -405.270505 376.581332 
L -403.072001 335.705219 
L -400.818741 301.129164 
L -398.565481 280.369719 
L -396.312222 264.522543 
L -394.058962 250.563772 
L -391.805702 237.877962 
L -389.552442 226.930012 
L -387.299183 217.815738 
L -385.045923 209.939397 
L -382.792663 202.693686 
L -380.539403 196.808374 
L -378.286143 194.232464 
L -376.032884 196.67992 
L -373.779624 202.284414 
L -371.526364 208.731479 
L -369.273104 214.797618 
L -367.019844 219.952165 
L -364.766585 224.086436 
L -362.513325 227.281535 
L -360.260065 229.680633 
L -358.006805 231.713076 
L -355.753546 233.567164 
L -353.500286 235.401837 
L -351.247026 237.270063 
L -348.993766 239.218424 
L -346.740506 241.243474 
L -344.487247 243.333087 
L -342.233987 245.462147 
L -339.980727 247.60015 
L -337.727467 249.736681 
L -335.474207 251.834827 
L -333.220948 253.911533 
L -330.967688 255.918091 
L -328.714428 257.886214 
L -326.461168 259.774524 
L -324.207906 261.625892 
L -321.89788 263.418259 
L -319.505319 265.183633 
L -317.026662 266.918828 
L -314.457166 268.62984 
L -311.79197 270.338089 
L -309.028283 272.0227 
L -306.162775 273.730028 
L -303.191567 275.413924 
L -300.110397 277.135047 
L -296.916571 278.835615 
L -293.606754 280.576238 
L -290.176287 282.310699 
L -286.618905 284.072708 
L -282.927535 285.85704 
L -279.103848 287.645959 
L -275.139245 289.49879 
L -271.026505 291.330932 
L -266.765383 293.265979 
L -262.34492 295.146227 
L -257.762664 297.149639 
L -253.013176 299.062995 
L -248.086908 301.11553 
L -242.979512 303.054295 
L -237.684611 305.145492 
L -232.194938 307.109742 
L -226.503071 309.23493 
L -220.601654 311.237872 
L -214.483221 313.402196 
L -208.139688 315.468674 
L -201.5616 317.679514 
L -194.741629 319.831366 
L -187.670851 322.089719 
L -180.339261 324.332357 
L -172.737355 326.622685 
L -164.856033 328.937518 
L -156.684456 331.238617 
L -148.211606 333.588928 
L -139.426428 335.873528 
L -130.31782 338.204198 
L -120.921779 340.440668 
L -111.254796 342.687889 
L -101.231949 344.839257 
L -90.839193 346.931362 
L -80.063608 348.952748 
L -68.890841 350.837928 
L -57.306163 352.697207 
L -45.294584 354.361787 
L -32.8402 356.048088 
L -19.926484 357.520966 
L -6.536727 359.053715 
L 7.346541 360.392582 
L 21.74163 361.807187 
L 35.952583 363.057199 
L 46.558634 364.343534 
L 54.11159 365.48058 
L 59.49126 366.430399 
L 63.323822 367.249814 
L 66.054892 367.308943 
L 68.201283 367.115079 
L 70.329362 365.426324 
L 72.457441 362.718237 
L 74.585519 358.129514 
L 76.713598 350.908349 
L 78.841677 341.451194 
L 80.969755 327.246405 
L 83.097834 308.363003 
L 85.225913 276.625502 
L 86.777793 245.485685 
L 88.329672 186.376465 
L 89.881552 157.288079 
L 91.433432 135.190971 
L 92.985312 117.517468 
L 94.537191 103.04782 
L 96.089071 90.43672 
L 97.640951 79.650596 
L 99.192831 70.434873 
L 100.74471 62.700291 
L 102.29659 55.906332 
L 103.84847 50.312445 
L 105.40035 45.391652 
L 106.952229 41.541658 
L 108.504109 38.15738 
L 110.055989 35.687264 
L 111.607869 33.316374 
L 113.159749 31.547597 
L 114.711628 29.789158 
L 116.263508 28.34266 
L 117.815388 27.012106 
L 119.367268 25.76214 
L 120.919147 24.789297 
L 122.471027 23.779496 
L 124.022907 23.168346 
L 125.574787 23.060389 
L 127.126666 23.244075 
L 128.678546 23.410981 
L 130.230426 23.571365 
L 131.782306 23.717872 
L 133.334185 23.851731 
L 134.886065 23.974159 
L 136.437945 24.078557 
L 137.989825 24.174216 
L 139.541705 24.248845 
L 141.093584 24.3181 
L 142.645464 24.366397 
L 144.197344 24.411567 
L 145.749224 24.439001 
L 147.301103 24.464384 
L 148.852983 24.477882 
L 150.404863 24.489358 
L 151.956743 24.496679 
L 153.508622 24.501172 
L 155.076395 24.510903 
L 156.741484 24.62275 
L 158.552717 25.187623 
L 160.505638 25.822473 
L 162.627094 26.54883 
L 164.929764 27.347121 
L 167.424436 28.218819 
L 170.132168 29.139374 
L 173.076952 30.075504 
L 176.278192 30.997882 
L 179.758833 31.808095 
L 183.544527 32.501139 
L 187.663381 32.928277 
L 192.146559 33.157025 
L 197.026171 33.016672 
L 202.332023 32.640795 
L 208.106339 31.886917 
L 214.381055 30.926319 
L 221.199394 29.719558 
L 228.596977 28.410666 
L 236.610147 27.437215 
L 245.271717 27.773409 
L 254.602991 28.129363 
L 264.608895 28.504378 
L 275.25752 28.897976 
L 286.3849 29.310368 
L 297.558434 29.739688 
L 308.731968 30.187598 
L 319.905503 30.651868 
L 331.079037 31.136531 
L 342.252571 31.635013 
L 353.426105 32.143376 
L 364.59964 32.66154 
L 375.773174 33.340745 
L 386.946708 36.389798 
L 398.120243 39.332405 
L 409.293777 42.651198 
L 420.467311 45.440393 
L 431.640846 48.515806 
L 442.81438 50.705572 
L 458.611418 53.169186 
L 474.408457 54.687103 
L 490.205495 56.440708 
L 506.002533 57.441842 
L 521.799572 58.588738 
L 537.59661 59.26965 
L 553.393648 60.014764 
L 569.190687 60.514905 
L 584.987725 61.033993 
L 600.784763 61.425582 
L 616.581802 61.811156 
L 632.37884 62.12038 
L 648.175878 62.408357 
L 663.972917 62.641832 
L 679.769955 62.848537 
L 695.566993 63.012291 
L 711.364032 63.15276 
L 727.16107 63.25869 
L 742.958108 63.348906 
L 758.755147 63.412221 
L 774.552185 63.465694 
L 790.349223 63.499102 
L 806.146262 63.524136 
L 821.9433 63.534607 
L 821.9433 43.787762 
L 821.9433 43.787762 
L 806.146262 43.778653 
L 790.349223 43.75866 
L 774.552185 43.730113 
L 758.755147 43.688422 
L 742.958108 43.635815 
L 727.16107 43.5674 
L 711.364032 43.481933 
L 695.566993 43.377921 
L 679.769955 43.249803 
L 663.972917 43.099882 
L 648.175878 42.923932 
L 632.37884 42.719351 
L 616.581802 42.497107 
L 600.784763 42.228073 
L 584.987725 41.960811 
L 569.190687 41.597844 
L 553.393648 41.266582 
L 537.59661 40.722822 
L 521.799572 40.260781 
L 506.002533 39.364671 
L 490.205495 38.635651 
L 474.408457 37.184652 
L 458.611418 35.992917 
L 442.81438 33.883713 
L 431.640846 32.072125 
L 420.467311 29.399515 
L 409.293777 27.034557 
L 398.120243 24.158221 
L 386.946708 21.671626 
L 375.773174 19.088606 
L 364.59964 18.927692 
L 353.426105 18.927692 
L 342.252571 18.927692 
L 331.079037 18.927692 
L 319.905503 18.927692 
L 308.731968 18.927692 
L 297.558434 18.927692 
L 286.3849 18.927692 
L 275.25752 18.927692 
L 264.608895 18.927692 
L 254.602991 18.927692 
L 245.271717 18.927692 
L 236.610147 18.927692 
L 228.596977 20.237844 
L 221.199394 21.867661 
L 214.381055 23.376145 
L 208.106339 24.614903 
L 202.332023 25.626244 
L 197.026171 26.232418 
L 192.146559 26.584274 
L 187.663381 26.537535 
L 183.544527 26.277124 
L 179.758833 25.71865 
L 176.278192 25.033841 
L 173.076952 24.202288 
L 170.132168 23.355331 
L 167.424436 22.488575 
L 164.929764 21.675522 
L 162.627094 20.90319 
L 160.505638 20.210798 
L 158.552717 19.584386 
L 156.741484 19.035396 
L 155.076395 18.927692 
L 153.508622 18.927692 
L 151.956743 18.927692 
L 150.404863 18.927692 
L 148.852983 18.927692 
L 147.301103 18.927692 
L 145.749224 18.927692 
L 144.197344 18.927692 
L 142.645464 18.927692 
L 141.093584 18.927692 
L 139.541705 18.927692 
L 137.989825 18.927692 
L 136.437945 18.927692 
L 134.886065 18.927692 
L 133.334185 18.927692 
L 131.782306 18.927692 
L 130.230426 18.927692 
L 128.678546 18.927692 
L 127.126666 18.927692 
L 125.574787 18.927692 
L 124.022907 19.220808 
L 122.471027 20.04043 
L 120.919147 21.249576 
L 119.367268 22.450704 
L 117.815388 23.898205 
L 116.263508 25.48117 
L 114.711628 27.098187 
L 113.159749 29.148095 
L 111.607869 31.026491 
L 110.055989 33.743498 
L 108.504109 36.265149 
L 106.952229 40.025012 
L 105.40035 43.935301 
L 103.84847 49.207854 
L 102.29659 54.919591 
L 100.74471 62.022626 
L 99.192831 69.933522 
L 97.640951 79.431531 
L 96.089071 90.425642 
L 94.537191 103.04782 
L 92.985312 117.517468 
L 91.433432 135.190971 
L 89.881552 157.288079 
L 88.329672 186.376465 
L 86.777793 245.485685 
L 85.225913 276.625502 
L 83.097834 308.363003 
L 80.969755 327.246405 
L 78.841677 341.451194 
L 76.713598 350.908349 
L 74.585519 358.129514 
L 72.457441 362.718237 
L 70.329362 365.426324 
L 68.201283 367.115079 
L 66.054892 367.308943 
L 63.323822 367.249814 
L 59.49126 366.430399 
L 54.11159 365.48058 
L 46.558634 364.343534 
L 35.952583 363.057199 
L 21.74163 361.807187 
L 7.346541 360.392582 
L -6.536727 359.053715 
L -19.926484 357.520966 
L -32.8402 356.048088 
L -45.294584 354.361787 
L -57.306163 352.697207 
L -68.890841 350.837928 
L -80.063608 348.952748 
L -90.839193 346.931362 
L -101.231949 344.839257 
L -111.254796 342.687889 
L -120.921779 340.440668 
L -130.31782 338.204198 
L -139.426428 335.873528 
L -148.211606 333.588928 
L -156.684456 331.238617 
L -164.856033 328.937518 
L -172.737355 326.622685 
L -180.339261 324.332357 
L -187.670851 322.089719 
L -194.741629 319.831366 
L -201.5616 317.679514 
L -208.139688 315.468674 
L -214.483221 313.402196 
L -220.601654 311.237872 
L -226.503071 309.23493 
L -232.194938 307.109742 
L -237.684611 305.145492 
L -242.979512 303.054295 
L -248.086908 301.11553 
L -253.013176 299.062995 
L -257.762664 297.149639 
L -262.34492 295.146227 
L -266.765383 293.265979 
L -271.026505 291.330932 
L -275.139245 289.49879 
L -279.103848 287.645959 
L -282.927535 285.85704 
L -286.618905 284.072708 
L -290.176287 282.310699 
L -293.606754 280.576238 
L -296.916571 278.835615 
L -300.110397 277.135047 
L -303.191567 275.413924 
L -306.162775 273.730028 
L -309.028283 272.0227 
L -311.79197 270.338089 
L -314.457166 268.62984 
L -317.026662 266.918828 
L -319.505319 265.183633 
L -321.89788 263.418259 
L -324.207906 261.625892 
L -326.461168 259.774524 
L -328.714428 257.886214 
L -330.967688 255.918091 
L -333.220948 253.911533 
L -335.474207 251.834827 
L -337.727467 249.736681 
L -339.980727 247.60015 
L -342.233987 245.462147 
L -344.487247 243.333087 
L -346.740506 241.243474 
L -348.993766 239.218424 
L -351.247026 237.270063 
L -353.500286 235.401837 
L -355.753546 233.567164 
L -358.006805 231.713076 
L -360.260065 229.680633 
L -362.513325 227.281535 
L -364.766585 224.086436 
L -367.019844 219.952165 
L -369.273104 214.797618 
L -371.526364 208.731479 
L -373.779624 202.284414 
L -376.032884 196.67992 
L -378.286143 194.232464 
L -380.539403 196.808374 
L -382.792663 202.693686 
L -385.045923 209.939397 
L -387.299183 217.815738 
L -389.552442 226.930012 
L -391.805702 237.877962 
L -394.058962 250.563772 
L -396.312222 264.522543 
L -398.565481 280.369719 
L -400.818741 301.129164 
L -403.072001 335.705219 
L -405.270505 376.581332 
L -407.469009 400.307903 
L -409.686832 18.927692 
L -412.464478 18.927692 
L -416.265003 18.927692 
L -421.467669 18.927692 
L -428.591888 18.927692 
L -438.349052 18.927692 
L -451.713553 18.927692 
L -470.020065 18.927692 
L -495.096852 18.927692 
L -529.448308 18.927692 
z
" clip-path="url(#p877f2db128)" style="fill: #d62728"/>
   </g>
   <g id="matplotlib.axis_1">
    <g id="xtick_1">
     <g id="line2d_1">
      <path d="M 102.433225 617.04 
L 102.433225 7.2 
" clip-path="url(#p877f2db128)" style="fill: none; stroke: #b0b0b0; stroke-width: 0.8; stroke-linecap: square"/>
     </g>
     <g id="line2d_2">
      <defs>
       <path id="m3aa25a5a7a" d="M 0 0 
L 0 3.5 
" style="stroke: #000000; stroke-width: 0.8"/>
      </defs>
      <g>
       <use xlink:href="#m3aa25a5a7a" x="102.433225" y="617.04" style="stroke: #000000; stroke-width: 0.8"/>
      </g>
     </g>
     <g id="text_1">
      <!-- $\mathdefault{0.20}$ -->
      <g transform="translate(77.807934 644.795495) scale(0.3 -0.3)">
       <defs>
        <path id="CMR17-30" d="M 2688 2025 
C 2688 2416 2682 3080 2413 3591 
C 2176 4039 1798 4198 1466 4198 
C 1158 4198 768 4058 525 3597 
C 269 3118 243 2524 243 2025 
C 243 1661 250 1106 448 619 
C 723 -39 1216 -128 1466 -128 
C 1760 -128 2208 -7 2470 600 
C 2662 1042 2688 1559 2688 2025 
z
M 1466 -26 
C 1056 -26 813 325 723 812 
C 653 1188 653 1738 653 2096 
C 653 2588 653 2997 736 3387 
C 858 3929 1216 4096 1466 4096 
C 1728 4096 2067 3923 2189 3400 
C 2272 3036 2278 2607 2278 2096 
C 2278 1680 2278 1169 2202 792 
C 2067 95 1690 -26 1466 -26 
z
" transform="scale(0.015625)"/>
        <path id="CMMI12-3a" d="M 1178 307 
C 1178 492 1024 619 870 619 
C 685 619 557 466 557 313 
C 557 128 710 0 864 0 
C 1050 0 1178 153 1178 307 
z
" transform="scale(0.015625)"/>
        <path id="CMR17-32" d="M 2669 989 
L 2554 989 
C 2490 536 2438 459 2413 420 
C 2381 369 1920 369 1830 369 
L 602 369 
C 832 619 1280 1072 1824 1597 
C 2214 1967 2669 2402 2669 3035 
C 2669 3790 2067 4224 1395 4224 
C 691 4224 262 3604 262 3030 
C 262 2780 448 2748 525 2748 
C 589 2748 781 2787 781 3010 
C 781 3207 614 3264 525 3264 
C 486 3264 448 3258 422 3245 
C 544 3790 915 4058 1306 4058 
C 1862 4058 2227 3617 2227 3035 
C 2227 2479 1901 2000 1536 1584 
L 262 146 
L 262 0 
L 2515 0 
L 2669 989 
z
" transform="scale(0.015625)"/>
       </defs>
       <use xlink:href="#CMR17-30" transform="scale(0.996264)"/>
       <use xlink:href="#CMMI12-3a" transform="translate(45.690477 0) scale(0.996264)"/>
       <use xlink:href="#CMR17-32" transform="translate(72.787654 0) scale(0.996264)"/>
       <use xlink:href="#CMR17-30" transform="translate(118.478131 0) scale(0.996264)"/>
      </g>
     </g>
    </g>
    <g id="xtick_2">
     <g id="line2d_3">
      <path d="M 228.809532 617.04 
L 228.809532 7.2 
" clip-path="url(#p877f2db128)" style="fill: none; stroke: #b0b0b0; stroke-width: 0.8; stroke-linecap: square"/>
     </g>
     <g id="line2d_4">
      <g>
       <use xlink:href="#m3aa25a5a7a" x="228.809532" y="617.04" style="stroke: #000000; stroke-width: 0.8"/>
      </g>
     </g>
     <g id="text_2">
      <!-- $\mathdefault{0.25}$ -->
      <g transform="translate(204.184241 644.795495) scale(0.3 -0.3)">
       <defs>
        <path id="CMR17-35" d="M 730 3692 
C 794 3666 1056 3584 1325 3584 
C 1920 3584 2246 3911 2432 4100 
C 2432 4157 2432 4192 2394 4192 
C 2387 4192 2374 4192 2323 4163 
C 2099 4058 1837 3973 1517 3973 
C 1325 3973 1037 3999 723 4139 
C 653 4171 640 4171 634 4171 
C 602 4171 595 4164 595 4037 
L 595 2203 
C 595 2089 595 2057 659 2057 
C 691 2057 704 2070 736 2114 
C 941 2401 1222 2522 1542 2522 
C 1766 2522 2246 2382 2246 1289 
C 2246 1085 2246 715 2054 421 
C 1894 159 1645 25 1370 25 
C 947 25 518 320 403 814 
C 429 807 480 795 506 795 
C 589 795 749 840 749 1038 
C 749 1210 627 1280 506 1280 
C 358 1280 262 1190 262 1011 
C 262 454 704 -128 1382 -128 
C 2042 -128 2669 440 2669 1264 
C 2669 2030 2170 2624 1549 2624 
C 1222 2624 947 2503 730 2274 
L 730 3692 
z
" transform="scale(0.015625)"/>
       </defs>
       <use xlink:href="#CMR17-30" transform="scale(0.996264)"/>
       <use xlink:href="#CMMI12-3a" transform="translate(45.690477 0) scale(0.996264)"/>
       <use xlink:href="#CMR17-32" transform="translate(72.787654 0) scale(0.996264)"/>
       <use xlink:href="#CMR17-35" transform="translate(118.478131 0) scale(0.996264)"/>
      </g>
     </g>
    </g>
    <g id="xtick_3">
     <g id="line2d_5">
      <path d="M 355.185839 617.04 
L 355.185839 7.2 
" clip-path="url(#p877f2db128)" style="fill: none; stroke: #b0b0b0; stroke-width: 0.8; stroke-linecap: square"/>
     </g>
     <g id="line2d_6">
      <g>
       <use xlink:href="#m3aa25a5a7a" x="355.185839" y="617.04" style="stroke: #000000; stroke-width: 0.8"/>
      </g>
     </g>
     <g id="text_3">
      <!-- $\mathdefault{0.30}$ -->
      <g transform="translate(330.560547 644.795495) scale(0.3 -0.3)">
       <defs>
        <path id="CMR17-33" d="M 1414 2157 
C 1984 2157 2234 1662 2234 1090 
C 2234 320 1824 25 1453 25 
C 1114 25 563 194 390 693 
C 422 680 454 680 486 680 
C 640 680 755 782 755 948 
C 755 1133 614 1216 486 1216 
C 378 1216 211 1165 211 926 
C 211 335 787 -128 1466 -128 
C 2176 -128 2720 430 2720 1085 
C 2720 1707 2208 2157 1600 2227 
C 2086 2328 2554 2756 2554 3329 
C 2554 3820 2048 4179 1472 4179 
C 890 4179 378 3829 378 3329 
C 378 3110 544 3072 627 3072 
C 762 3072 877 3155 877 3321 
C 877 3486 762 3569 627 3569 
C 602 3569 570 3569 544 3557 
C 730 3959 1235 4032 1459 4032 
C 1683 4032 2106 3925 2106 3320 
C 2106 3143 2080 2828 1862 2550 
C 1670 2304 1453 2304 1242 2284 
C 1210 2284 1062 2269 1037 2269 
C 992 2263 966 2257 966 2208 
C 966 2163 973 2157 1101 2157 
L 1414 2157 
z
" transform="scale(0.015625)"/>
       </defs>
       <use xlink:href="#CMR17-30" transform="scale(0.996264)"/>
       <use xlink:href="#CMMI12-3a" transform="translate(45.690477 0) scale(0.996264)"/>
       <use xlink:href="#CMR17-33" transform="translate(72.787654 0) scale(0.996264)"/>
       <use xlink:href="#CMR17-30" transform="translate(118.478131 0) scale(0.996264)"/>
      </g>
     </g>
    </g>
    <g id="xtick_4">
     <g id="line2d_7">
      <path d="M 481.562145 617.04 
L 481.562145 7.2 
" clip-path="url(#p877f2db128)" style="fill: none; stroke: #b0b0b0; stroke-width: 0.8; stroke-linecap: square"/>
     </g>
     <g id="line2d_8">
      <g>
       <use xlink:href="#m3aa25a5a7a" x="481.562145" y="617.04" style="stroke: #000000; stroke-width: 0.8"/>
      </g>
     </g>
     <g id="text_4">
      <!-- $\mathdefault{0.35}$ -->
      <g transform="translate(456.936854 644.795495) scale(0.3 -0.3)">
       <use xlink:href="#CMR17-30" transform="scale(0.996264)"/>
       <use xlink:href="#CMMI12-3a" transform="translate(45.690477 0) scale(0.996264)"/>
       <use xlink:href="#CMR17-33" transform="translate(72.787654 0) scale(0.996264)"/>
       <use xlink:href="#CMR17-35" transform="translate(118.478131 0) scale(0.996264)"/>
      </g>
     </g>
    </g>
    <g id="xtick_5">
     <g id="line2d_9">
      <path d="M 607.938452 617.04 
L 607.938452 7.2 
" clip-path="url(#p877f2db128)" style="fill: none; stroke: #b0b0b0; stroke-width: 0.8; stroke-linecap: square"/>
     </g>
     <g id="line2d_10">
      <g>
       <use xlink:href="#m3aa25a5a7a" x="607.938452" y="617.04" style="stroke: #000000; stroke-width: 0.8"/>
      </g>
     </g>
     <g id="text_5">
      <!-- $\mathdefault{0.40}$ -->
      <g transform="translate(583.313161 644.795495) scale(0.3 -0.3)">
       <defs>
        <path id="CMR17-34" d="M 2150 4122 
C 2150 4256 2144 4256 2029 4256 
L 128 1254 
L 128 1088 
L 1779 1088 
L 1779 457 
C 1779 224 1766 160 1318 160 
L 1197 160 
L 1197 0 
C 1402 0 1747 0 1965 0 
C 2182 0 2528 0 2733 0 
L 2733 160 
L 2611 160 
C 2163 160 2150 224 2150 457 
L 2150 1088 
L 2803 1088 
L 2803 1254 
L 2150 1254 
L 2150 4122 
z
M 1798 3703 
L 1798 1254 
L 256 1254 
L 1798 3703 
z
" transform="scale(0.015625)"/>
       </defs>
       <use xlink:href="#CMR17-30" transform="scale(0.996264)"/>
       <use xlink:href="#CMMI12-3a" transform="translate(45.690477 0) scale(0.996264)"/>
       <use xlink:href="#CMR17-34" transform="translate(72.787654 0) scale(0.996264)"/>
       <use xlink:href="#CMR17-30" transform="translate(118.478131 0) scale(0.996264)"/>
      </g>
     </g>
    </g>
    <g id="xtick_6">
     <g id="line2d_11">
      <path d="M 734.314759 617.04 
L 734.314759 7.2 
" clip-path="url(#p877f2db128)" style="fill: none; stroke: #b0b0b0; stroke-width: 0.8; stroke-linecap: square"/>
     </g>
     <g id="line2d_12">
      <g>
       <use xlink:href="#m3aa25a5a7a" x="734.314759" y="617.04" style="stroke: #000000; stroke-width: 0.8"/>
      </g>
     </g>
     <g id="text_6">
      <!-- $\mathdefault{0.45}$ -->
      <g transform="translate(709.689467 644.795495) scale(0.3 -0.3)">
       <use xlink:href="#CMR17-30" transform="scale(0.996264)"/>
       <use xlink:href="#CMMI12-3a" transform="translate(45.690477 0) scale(0.996264)"/>
       <use xlink:href="#CMR17-34" transform="translate(72.787654 0) scale(0.996264)"/>
       <use xlink:href="#CMR17-35" transform="translate(118.478131 0) scale(0.996264)"/>
      </g>
     </g>
    </g>
    <g id="text_7">
     <!-- $x, \; \mathrm{m} $ -->
     <g transform="translate(411.787939 678.823697) scale(0.35 -0.35)">
      <defs>
       <path id="CMMI12-78" d="M 3034 2606 
C 2829 2567 2752 2414 2752 2293 
C 2752 2139 2874 2088 2963 2088 
C 3155 2088 3290 2254 3290 2427 
C 3290 2695 2982 2816 2714 2816 
C 2323 2816 2106 2433 2048 2312 
C 1901 2816 1504 2816 1389 2816 
C 736 2816 390 1980 390 1839 
C 390 1814 416 1782 461 1782 
C 512 1782 525 1820 538 1846 
C 755 2555 1184 2689 1370 2689 
C 1658 2689 1715 2420 1715 2267 
C 1715 2127 1677 1980 1600 1673 
L 1382 798 
C 1286 415 1101 64 762 64 
C 730 64 570 64 435 147 
C 666 192 717 383 717 460 
C 717 588 621 664 499 664 
C 346 664 179 530 179 326 
C 179 57 480 -64 755 -64 
C 1062 -64 1280 179 1414 441 
C 1517 64 1837 -64 2074 -64 
C 2726 -64 3072 773 3072 913 
C 3072 945 3046 971 3008 971 
C 2950 971 2944 939 2925 888 
C 2752 326 2381 64 2093 64 
C 1869 64 1747 230 1747 492 
C 1747 632 1773 734 1875 1156 
L 2099 2024 
C 2195 2408 2413 2689 2707 2689 
C 2720 2689 2899 2689 3034 2606 
z
" transform="scale(0.015625)"/>
       <path id="CMMI12-3b" d="M 1248 -31 
C 1248 343 1126 619 864 619 
C 659 619 557 453 557 313 
C 557 172 653 0 870 0 
C 954 0 1024 26 1082 83 
C 1094 96 1101 96 1107 96 
C 1120 96 1120 5 1120 -27 
C 1120 -240 1082 -659 710 -1080 
C 640 -1157 640 -1170 640 -1183 
C 640 -1216 672 -1248 704 -1248 
C 755 -1248 1248 -771 1248 -31 
z
" transform="scale(0.015625)"/>
       <path id="CMR17-6d" d="M 4326 1933 
C 4326 2252 4269 2790 3507 2790 
C 3072 2790 2771 2496 2656 2151 
L 2650 2151 
C 2573 2676 2195 2790 1837 2790 
C 1331 2790 1069 2400 973 2144 
L 966 2144 
L 966 2790 
L 211 2720 
L 211 2554 
C 589 2554 646 2515 646 2208 
L 646 428 
C 646 184 621 153 211 153 
L 211 -13 
C 365 0 646 0 813 0 
C 979 0 1267 0 1421 -13 
L 1421 153 
C 1011 153 986 178 986 428 
L 986 1658 
C 986 2247 1344 2688 1792 2688 
C 2266 2688 2317 2266 2317 1958 
L 2317 428 
C 2317 184 2291 153 1882 153 
L 1882 -13 
C 2035 0 2317 0 2483 0 
C 2650 0 2938 0 3091 -13 
L 3091 153 
C 2682 153 2656 178 2656 428 
L 2656 1658 
C 2656 2247 3014 2688 3462 2688 
C 3936 2688 3987 2266 3987 1958 
L 3987 428 
C 3987 184 3962 153 3552 153 
L 3552 -13 
C 3706 0 3987 0 4154 0 
C 4320 0 4608 0 4762 -13 
L 4762 153 
C 4352 153 4326 178 4326 428 
L 4326 1933 
z
" transform="scale(0.015625)"/>
      </defs>
      <use xlink:href="#CMMI12-78" transform="scale(0.996264)"/>
      <use xlink:href="#CMMI12-3b" transform="translate(55.43406 0) scale(0.996264)"/>
      <use xlink:href="#CMR17-6d" transform="translate(126.809651 0) scale(0.996264)"/>
     </g>
    </g>
   </g>
   <g id="matplotlib.axis_2">
    <g id="ytick_1">
     <g id="line2d_13">
      <path d="M 84.740543 605.312308 
L 810.140543 605.312308 
" clip-path="url(#p877f2db128)" style="fill: none; stroke: #b0b0b0; stroke-width: 0.8; stroke-linecap: square"/>
     </g>
     <g id="line2d_14">
      <defs>
       <path id="ma3467d3c48" d="M 0 0 
L -3.5 0 
" style="stroke: #000000; stroke-width: 0.8"/>
      </defs>
      <g>
       <use xlink:href="#ma3467d3c48" x="84.740543" y="605.312308" style="stroke: #000000; stroke-width: 0.8"/>
      </g>
     </g>
     <g id="text_8">
      <!-- $\mathdefault{0.0}$ -->
      <g transform="translate(42.197103 615.690055) scale(0.3 -0.3)">
       <use xlink:href="#CMR17-30" transform="scale(0.996264)"/>
       <use xlink:href="#CMMI12-3a" transform="translate(45.690477 0) scale(0.996264)"/>
       <use xlink:href="#CMR17-30" transform="translate(72.787654 0) scale(0.996264)"/>
      </g>
     </g>
    </g>
    <g id="ytick_2">
     <g id="line2d_15">
      <path d="M 84.740543 488.035385 
L 810.140543 488.035385 
" clip-path="url(#p877f2db128)" style="fill: none; stroke: #b0b0b0; stroke-width: 0.8; stroke-linecap: square"/>
     </g>
     <g id="line2d_16">
      <g>
       <use xlink:href="#ma3467d3c48" x="84.740543" y="488.035385" style="stroke: #000000; stroke-width: 0.8"/>
      </g>
     </g>
     <g id="text_9">
      <!-- $\mathdefault{0.2}$ -->
      <g transform="translate(42.197103 498.413132) scale(0.3 -0.3)">
       <use xlink:href="#CMR17-30" transform="scale(0.996264)"/>
       <use xlink:href="#CMMI12-3a" transform="translate(45.690477 0) scale(0.996264)"/>
       <use xlink:href="#CMR17-32" transform="translate(72.787654 0) scale(0.996264)"/>
      </g>
     </g>
    </g>
    <g id="ytick_3">
     <g id="line2d_17">
      <path d="M 84.740543 370.758462 
L 810.140543 370.758462 
" clip-path="url(#p877f2db128)" style="fill: none; stroke: #b0b0b0; stroke-width: 0.8; stroke-linecap: square"/>
     </g>
     <g id="line2d_18">
      <g>
       <use xlink:href="#ma3467d3c48" x="84.740543" y="370.758462" style="stroke: #000000; stroke-width: 0.8"/>
      </g>
     </g>
     <g id="text_10">
      <!-- $\mathdefault{0.4}$ -->
      <g transform="translate(42.197103 381.136209) scale(0.3 -0.3)">
       <use xlink:href="#CMR17-30" transform="scale(0.996264)"/>
       <use xlink:href="#CMMI12-3a" transform="translate(45.690477 0) scale(0.996264)"/>
       <use xlink:href="#CMR17-34" transform="translate(72.787654 0) scale(0.996264)"/>
      </g>
     </g>
    </g>
    <g id="ytick_4">
     <g id="line2d_19">
      <path d="M 84.740543 253.481538 
L 810.140543 253.481538 
" clip-path="url(#p877f2db128)" style="fill: none; stroke: #b0b0b0; stroke-width: 0.8; stroke-linecap: square"/>
     </g>
     <g id="line2d_20">
      <g>
       <use xlink:href="#ma3467d3c48" x="84.740543" y="253.481538" style="stroke: #000000; stroke-width: 0.8"/>
      </g>
     </g>
     <g id="text_11">
      <!-- $\mathdefault{0.6}$ -->
      <g transform="translate(42.197103 263.859286) scale(0.3 -0.3)">
       <defs>
        <path id="CMR17-36" d="M 678 2176 
C 678 3690 1395 4032 1811 4032 
C 1946 4032 2272 4009 2400 3776 
C 2298 3776 2106 3776 2106 3553 
C 2106 3381 2246 3323 2336 3323 
C 2394 3323 2566 3348 2566 3560 
C 2566 3954 2246 4179 1805 4179 
C 1043 4179 243 3390 243 1984 
C 243 253 966 -128 1478 -128 
C 2099 -128 2688 427 2688 1283 
C 2688 2081 2170 2662 1517 2662 
C 1126 2662 838 2407 678 1960 
L 678 2176 
z
M 1478 25 
C 691 25 691 1200 691 1436 
C 691 1896 909 2560 1504 2560 
C 1613 2560 1926 2560 2138 2120 
C 2253 1870 2253 1609 2253 1289 
C 2253 944 2253 690 2118 434 
C 1978 171 1773 25 1478 25 
z
" transform="scale(0.015625)"/>
       </defs>
       <use xlink:href="#CMR17-30" transform="scale(0.996264)"/>
       <use xlink:href="#CMMI12-3a" transform="translate(45.690477 0) scale(0.996264)"/>
       <use xlink:href="#CMR17-36" transform="translate(72.787654 0) scale(0.996264)"/>
      </g>
     </g>
    </g>
    <g id="ytick_5">
     <g id="line2d_21">
      <path d="M 84.740543 136.204615 
L 810.140543 136.204615 
" clip-path="url(#p877f2db128)" style="fill: none; stroke: #b0b0b0; stroke-width: 0.8; stroke-linecap: square"/>
     </g>
     <g id="line2d_22">
      <g>
       <use xlink:href="#ma3467d3c48" x="84.740543" y="136.204615" style="stroke: #000000; stroke-width: 0.8"/>
      </g>
     </g>
     <g id="text_12">
      <!-- $\mathdefault{0.8}$ -->
      <g transform="translate(42.197103 146.582363) scale(0.3 -0.3)">
       <defs>
        <path id="CMR17-38" d="M 1741 2264 
C 2144 2467 2554 2773 2554 3263 
C 2554 3841 1990 4179 1472 4179 
C 890 4179 378 3759 378 3180 
C 378 3021 416 2747 666 2505 
C 730 2442 998 2251 1171 2130 
C 883 1983 211 1634 211 934 
C 211 279 838 -128 1459 -128 
C 2144 -128 2720 362 2720 1010 
C 2720 1590 2330 1857 2074 2029 
L 1741 2264 
z
M 902 2822 
C 851 2854 595 3051 595 3351 
C 595 3739 998 4032 1459 4032 
C 1965 4032 2336 3676 2336 3262 
C 2336 2669 1670 2331 1638 2331 
C 1632 2331 1626 2331 1574 2370 
L 902 2822 
z
M 2080 1519 
C 2176 1449 2483 1240 2483 851 
C 2483 381 2010 25 1472 25 
C 890 25 448 438 448 940 
C 448 1443 838 1862 1280 2060 
L 2080 1519 
z
" transform="scale(0.015625)"/>
       </defs>
       <use xlink:href="#CMR17-30" transform="scale(0.996264)"/>
       <use xlink:href="#CMMI12-3a" transform="translate(45.690477 0) scale(0.996264)"/>
       <use xlink:href="#CMR17-38" transform="translate(72.787654 0) scale(0.996264)"/>
      </g>
     </g>
    </g>
    <g id="ytick_6">
     <g id="line2d_23">
      <path d="M 84.740543 18.927692 
L 810.140543 18.927692 
" clip-path="url(#p877f2db128)" style="fill: none; stroke: #b0b0b0; stroke-width: 0.8; stroke-linecap: square"/>
     </g>
     <g id="line2d_24">
      <g>
       <use xlink:href="#ma3467d3c48" x="84.740543" y="18.927692" style="stroke: #000000; stroke-width: 0.8"/>
      </g>
     </g>
     <g id="text_13">
      <!-- $\mathdefault{1.0}$ -->
      <g transform="translate(42.197103 29.30544) scale(0.3 -0.3)">
       <defs>
        <path id="CMR17-31" d="M 1702 4058 
C 1702 4192 1696 4192 1606 4192 
C 1357 3916 979 3827 621 3827 
C 602 3827 570 3827 563 3808 
C 557 3795 557 3782 557 3648 
C 755 3648 1088 3686 1344 3839 
L 1344 461 
C 1344 236 1331 160 781 160 
L 589 160 
L 589 0 
C 896 0 1216 0 1523 0 
C 1830 0 2150 0 2458 0 
L 2458 160 
L 2266 160 
C 1715 160 1702 230 1702 458 
L 1702 4058 
z
" transform="scale(0.015625)"/>
       </defs>
       <use xlink:href="#CMR17-31" transform="scale(0.996264)"/>
       <use xlink:href="#CMMI12-3a" transform="translate(45.690477 0) scale(0.996264)"/>
       <use xlink:href="#CMR17-30" transform="translate(72.787654 0) scale(0.996264)"/>
      </g>
     </g>
    </g>
    <g id="text_14">
     <!-- $S_1$ -->
     <g transform="translate(31.414752 328.216088) rotate(-90) scale(0.35 -0.35)">
      <defs>
       <path id="CMMI12-53" d="M 4064 4423 
C 4064 4480 4019 4480 4006 4480 
C 3981 4480 3974 4474 3898 4378 
C 3859 4333 3597 4001 3590 3995 
C 3379 4410 2957 4480 2688 4480 
C 1875 4480 1139 3743 1139 3025 
C 1139 2549 1427 2269 1741 2161 
C 1811 2135 2189 2033 2381 1989 
C 2707 1900 2790 1875 2925 1735 
C 2950 1703 3078 1557 3078 1258 
C 3078 667 2528 57 1888 57 
C 1363 57 781 280 781 991 
C 781 1112 806 1265 826 1328 
C 826 1348 832 1378 832 1391 
C 832 1417 819 1449 768 1449 
C 710 1449 704 1436 678 1328 
L 352 24 
C 352 18 326 -64 326 -71 
C 326 -128 378 -128 390 -128 
C 416 -128 422 -122 499 -26 
L 794 356 
C 947 126 1280 -128 1875 -128 
C 2701 -128 3456 666 3456 1460 
C 3456 1728 3392 1963 3149 2197 
C 3014 2331 2899 2363 2310 2516 
C 1882 2630 1824 2649 1709 2751 
C 1600 2858 1517 3011 1517 3227 
C 1517 3761 2061 4308 2669 4308 
C 3296 4308 3590 3926 3590 3323 
C 3590 3158 3558 2986 3558 2961 
C 3558 2903 3610 2903 3629 2903 
C 3686 2903 3693 2922 3718 3024 
L 4064 4423 
z
" transform="scale(0.015625)"/>
      </defs>
      <use xlink:href="#CMMI12-53" transform="scale(0.996264)"/>
      <use xlink:href="#CMR17-31" transform="translate(59.994488 -14.943915) scale(0.697382)"/>
     </g>
    </g>
   </g>
   <g id="patch_3">
    <path d="M 84.740543 617.04 
L 84.740543 7.2 
" style="fill: none; stroke: #000000; stroke-width: 0.8; stroke-linejoin: miter; stroke-linecap: square"/>
   </g>
   <g id="patch_4">
    <path d="M 810.140543 617.04 
L 810.140543 7.2 
" style="fill: none; stroke: #000000; stroke-width: 0.8; stroke-linejoin: miter; stroke-linecap: square"/>
   </g>
   <g id="patch_5">
    <path d="M 84.740543 617.04 
L 810.140543 617.04 
" style="fill: none; stroke: #000000; stroke-width: 0.8; stroke-linejoin: miter; stroke-linecap: square"/>
   </g>
   <g id="patch_6">
    <path d="M 84.740543 7.2 
L 810.140543 7.2 
" style="fill: none; stroke: #000000; stroke-width: 0.8; stroke-linejoin: miter; stroke-linecap: square"/>
   </g>
   <g id="legend_1">
    <g id="patch_7">
     <path d="M 626.697089 599.54 
L 785.640543 599.54 
Q 792.640543 599.54 792.640543 592.54 
L 792.640543 398.801333 
Q 792.640543 391.801333 785.640543 391.801333 
L 626.697089 391.801333 
Q 619.697089 391.801333 619.697089 398.801333 
L 619.697089 592.54 
Q 619.697089 599.54 626.697089 599.54 
z
" style="fill: #ffffff; stroke: #cccccc; stroke-linejoin: miter"/>
    </g>
    <g id="patch_8">
     <path d="M 633.697089 430.301333 
L 703.697089 430.301333 
L 703.697089 405.801333 
L 633.697089 405.801333 
z
" style="fill: #1f77b4"/>
    </g>
    <g id="text_15">
     <!-- $M$ -->
     <g transform="translate(731.697089 430.301333) scale(0.35 -0.35)">
      <defs>
       <path id="CMMI12-4d" d="M 5811 3886 
C 5869 4103 5882 4167 6336 4167 
C 6458 4167 6515 4167 6515 4288 
C 6515 4352 6470 4352 6349 4352 
L 5581 4352 
C 5421 4352 5414 4346 5344 4243 
L 3008 562 
L 2528 4211 
C 2509 4352 2502 4352 2336 4352 
L 1542 4352 
C 1421 4352 1363 4352 1363 4231 
C 1363 4167 1421 4167 1517 4167 
C 1907 4167 1907 4116 1907 4046 
C 1907 4034 1907 3995 1882 3899 
L 1062 634 
C 986 327 838 186 410 186 
C 390 186 314 186 314 73 
C 314 0 371 0 397 0 
C 525 0 851 0 979 0 
L 1286 0 
C 1376 0 1485 0 1574 0 
C 1619 0 1690 0 1690 122 
C 1690 180 1626 186 1600 186 
C 1389 186 1184 224 1184 454 
C 1184 518 1184 524 1210 613 
L 2093 4129 
L 2099 4129 
L 2630 172 
C 2650 19 2656 0 2714 0 
C 2784 0 2816 51 2848 109 
L 5421 4161 
L 5427 4161 
L 4499 473 
C 4442 250 4429 186 3981 186 
C 3859 186 3795 186 3795 70 
C 3795 0 3853 0 3891 0 
C 4000 0 4128 0 4237 0 
L 4992 0 
C 5101 0 5235 0 5344 0 
C 5395 0 5466 0 5466 122 
C 5466 186 5408 186 5312 186 
C 4922 186 4922 234 4922 294 
C 4922 301 4922 345 4934 396 
L 5811 3886 
z
" transform="scale(0.015625)"/>
      </defs>
      <use xlink:href="#CMMI12-4d" transform="scale(0.996264)"/>
     </g>
    </g>
    <g id="patch_9">
     <path d="M 633.697089 479.083684 
L 703.697089 479.083684 
L 703.697089 454.583684 
L 633.697089 454.583684 
z
" style="fill: #ff7f0e"/>
    </g>
    <g id="text_16">
     <!-- $P$ -->
     <g transform="translate(731.697089 479.083684) scale(0.35 -0.35)">
      <defs>
       <path id="CMMI12-50" d="M 1894 2023 
L 2970 2023 
C 3853 2023 4736 2673 4736 3401 
C 4736 3898 4314 4352 3507 4352 
L 1530 4352 
C 1408 4352 1350 4352 1350 4231 
C 1350 4167 1408 4167 1504 4167 
C 1894 4167 1894 4116 1894 4046 
C 1894 4034 1894 3995 1869 3899 
L 1005 472 
C 947 249 934 185 486 185 
C 365 185 301 185 301 70 
C 301 0 358 0 397 0 
C 518 0 646 0 768 0 
L 1517 0 
C 1638 0 1773 0 1894 0 
C 1946 0 2016 0 2016 121 
C 2016 185 1958 185 1862 185 
C 1478 185 1472 230 1472 293 
C 1472 325 1478 369 1485 401 
L 1894 2023 
z
M 2355 3930 
C 2413 4167 2438 4167 2688 4167 
L 3322 4167 
C 3802 4167 4198 4013 4198 3535 
C 4198 3369 4115 2827 3821 2534 
C 3712 2419 3405 2176 2822 2176 
L 1920 2176 
L 2355 3930 
z
" transform="scale(0.015625)"/>
      </defs>
      <use xlink:href="#CMMI12-50" transform="scale(0.996264)"/>
     </g>
    </g>
    <g id="patch_10">
     <path d="M 633.697089 527.866035 
L 703.697089 527.866035 
L 703.697089 503.366035 
L 633.697089 503.366035 
z
" style="fill: #2ca02c"/>
    </g>
    <g id="text_17">
     <!-- $T$ -->
     <g transform="translate(731.697089 527.866035) scale(0.35 -0.35)">
      <defs>
       <path id="CMMI12-54" d="M 2669 3910 
C 2707 4064 2720 4121 2816 4147 
C 2867 4160 3078 4160 3213 4160 
C 3853 4160 4154 4134 4154 3634 
C 4154 3537 4128 3295 4090 3057 
L 4083 2980 
C 4083 2954 4109 2916 4147 2916 
C 4211 2916 4211 2948 4230 3050 
L 4416 4184 
C 4429 4243 4429 4256 4429 4275 
C 4429 4345 4390 4345 4262 4345 
L 762 4345 
C 614 4345 608 4339 570 4224 
L 179 3070 
C 173 3056 154 2986 154 2980 
C 154 2948 179 2916 218 2916 
C 269 2916 282 2941 307 3024 
C 576 3801 710 4160 1562 4160 
L 1990 4160 
C 2144 4160 2208 4160 2208 4089 
C 2208 4069 2208 4057 2176 3941 
L 1318 499 
C 1254 249 1242 185 563 185 
C 403 185 358 185 358 64 
C 358 0 429 0 461 0 
C 621 0 787 0 947 0 
L 1946 0 
C 2106 0 2278 0 2438 0 
C 2509 0 2573 0 2573 121 
C 2573 185 2528 185 2362 185 
C 1786 185 1786 243 1786 339 
C 1786 346 1786 391 1811 494 
L 2669 3910 
z
" transform="scale(0.015625)"/>
      </defs>
      <use xlink:href="#CMMI12-54" transform="scale(0.996264)"/>
     </g>
    </g>
    <g id="patch_11">
     <path d="M 633.697089 576.648386 
L 703.697089 576.648386 
L 703.697089 552.148386 
L 633.697089 552.148386 
z
" style="fill: #d62728"/>
    </g>
    <g id="text_18">
     <!-- $Y_{N_2}$ -->
     <g transform="translate(731.697089 576.648386) scale(0.35 -0.35)">
      <defs>
       <path id="CMMI12-59" d="M 3763 3645 
L 3910 3791 
C 4192 4078 4429 4149 4653 4167 
C 4723 4173 4781 4179 4781 4288 
C 4781 4352 4717 4352 4704 4352 
C 4627 4352 4544 4352 4467 4352 
L 4205 4352 
C 4019 4352 3821 4352 3642 4352 
C 3597 4352 3526 4352 3526 4226 
C 3526 4166 3590 4160 3610 4160 
C 3802 4160 3802 4064 3802 4026 
C 3802 3956 3750 3860 3622 3713 
L 2099 1969 
L 1376 3911 
C 1338 4000 1338 4013 1338 4026 
C 1338 4160 1600 4160 1677 4160 
C 1754 4160 1824 4160 1824 4279 
C 1824 4352 1766 4352 1728 4352 
C 1619 4352 1491 4352 1382 4352 
L 672 4352 
C 557 4352 435 4352 326 4352 
C 282 4352 211 4352 211 4226 
C 211 4160 269 4160 365 4160 
C 678 4160 736 4102 794 3956 
L 1587 1835 
C 1594 1816 1613 1745 1613 1726 
C 1613 1707 1299 452 1280 388 
C 1229 217 1165 185 755 185 
C 646 185 595 185 595 64 
C 595 0 666 0 685 0 
C 800 0 934 0 1056 0 
L 1811 0 
C 1926 0 2061 0 2176 0 
C 2221 0 2298 0 2298 115 
C 2298 185 2253 185 2144 185 
C 1747 185 1747 230 1747 300 
C 1747 345 1798 548 1830 676 
L 2061 1594 
C 2099 1727 2099 1739 2157 1803 
L 3763 3645 
z
" transform="scale(0.015625)"/>
       <path id="CMMI12-4e" d="M 4736 3698 
C 4806 3974 4909 4166 5395 4166 
C 5414 4166 5491 4166 5491 4279 
C 5491 4352 5434 4352 5408 4352 
C 5280 4352 4954 4352 4826 4352 
L 4518 4352 
C 4429 4352 4314 4352 4224 4352 
C 4186 4352 4109 4352 4109 4230 
C 4109 4166 4160 4166 4205 4166 
C 4589 4166 4614 4019 4614 3903 
C 4614 3846 4608 3826 4589 3737 
L 3866 850 
L 2496 4249 
C 2451 4352 2445 4352 2304 4352 
L 1523 4352 
C 1395 4352 1338 4352 1338 4230 
C 1338 4166 1382 4166 1504 4166 
C 1536 4166 1914 4166 1914 4115 
C 1914 4102 1901 4051 1894 4032 
L 1043 635 
C 966 320 813 186 390 186 
C 358 186 294 186 294 67 
C 294 0 358 0 378 0 
C 506 0 832 0 960 0 
L 1267 0 
C 1357 0 1466 0 1555 0 
C 1600 0 1670 0 1670 122 
C 1670 180 1606 186 1581 186 
C 1370 186 1165 224 1165 454 
C 1165 505 1178 562 1190 613 
L 2054 4032 
C 2093 3968 2093 3956 2118 3898 
L 3642 115 
C 3674 38 3686 0 3744 0 
C 3808 0 3814 19 3840 128 
L 4736 3698 
z
" transform="scale(0.015625)"/>
      </defs>
      <use xlink:href="#CMMI12-59" transform="scale(0.996264)"/>
      <use xlink:href="#CMMI12-4e" transform="translate(56.598607 -14.943915) scale(0.697382)"/>
      <use xlink:href="#CMR17-32" transform="translate(111.278947 -25.404611) scale(0.498132)"/>
     </g>
    </g>
   </g>
  </g>
 </g>
 <defs>
  <clipPath id="p877f2db128">
   <rect x="84.740543" y="7.2" width="725.4" height="609.84"/>
  </clipPath>
 </defs>
</svg>
