<?xml version="1.0" encoding="utf-8" standalone="no"?>
<!DOCTYPE svg PUBLIC "-//W3C//DTD SVG 1.1//EN"
  "http://www.w3.org/Graphics/SVG/1.1/DTD/svg11.dtd">
<svg xmlns:xlink="http://www.w3.org/1999/xlink" width="1006.579543pt" height="692.806049pt" viewBox="0 0 1006.579543 692.806049" xmlns="http://www.w3.org/2000/svg" version="1.1">
 <metadata>
  <rdf:RDF xmlns:dc="http://purl.org/dc/elements/1.1/" xmlns:cc="http://creativecommons.org/ns#" xmlns:rdf="http://www.w3.org/1999/02/22-rdf-syntax-ns#">
   <cc:Work>
    <dc:type rdf:resource="http://purl.org/dc/dcmitype/StillImage"/>
    <dc:date>2025-03-19T17:00:11.056899</dc:date>
    <dc:format>image/svg+xml</dc:format>
    <dc:creator>
     <cc:Agent>
      <dc:title>Matplotlib v3.7.1, https://matplotlib.org/</dc:title>
     </cc:Agent>
    </dc:creator>
   </cc:Work>
  </rdf:RDF>
 </metadata>
 <defs>
  <style type="text/css">*{stroke-linejoin: round; stroke-linecap: butt}</style>
 </defs>
 <g id="figure_1">
  <g id="patch_1">
   <path d="M 0 692.806049 
L 1006.579543 692.806049 
L 1006.579543 0 
L 0 0 
z
" style="fill: #ffffff"/>
  </g>
  <g id="axes_1">
   <g id="patch_2">
    <path d="M 84.740543 617.04 
L 810.140543 617.04 
L 810.140543 7.2 
L 84.740543 7.2 
z
" style="fill: #ffffff"/>
   </g>
   <g id="PolyCollection_1">
    <path d="M 9.178043 561.958925 
L 9.178043 605.312308 
L 29.717351 605.312308 
L 44.711179 605.312308 
L 55.656948 605.312308 
L 63.647806 605.312308 
L 69.481777 605.312308 
L 73.741466 605.312308 
L 76.852227 605.312308 
L 79.049287 605.312308 
L 80.785425 605.312308 
L 82.213061 605.312308 
L 83.42602 605.312308 
L 84.740543 605.312308 
L 87.435066 605.312308 
L 88.857321 605.312308 
L 90.129589 605.312308 
L 92.004934 605.312308 
L 93.099922 605.312308 
L 94.171374 605.312308 
L 95.299612 605.312308 
L 96.397416 605.312308 
L 97.579316 605.312308 
L 98.820976 605.312308 
L 99.991406 605.312308 
L 101.273505 605.312308 
L 103.578522 605.312308 
L 105.819849 605.312308 
L 107.979517 605.312308 
L 110.878308 605.312308 
L 114.380297 605.312308 
L 117.772298 605.312308 
L 121.795163 605.312308 
L 126.505652 605.312308 
L 131.894699 605.312308 
L 136.064903 605.312308 
L 140.906123 605.312308 
L 146.343341 605.312308 
L 152.242772 605.312308 
L 158.23472 605.312308 
L 163.692746 605.312308 
L 168.88361 605.312308 
L 174.585426 605.312308 
L 180.46251 605.312308 
L 186.901027 605.312308 
L 193.842604 605.312308 
L 201.294329 605.312308 
L 209.304744 605.312308 
L 215.666289 605.312308 
L 222.461467 605.312308 
L 232.059762 605.312308 
L 242.378625 605.312308 
L 253.442863 605.312308 
L 265.803879 605.312308 
L 277.872644 605.312308 
L 291.4797 605.312308 
L 306.108307 605.312308 
L 314.293433 605.312308 
L 322.042849 605.312308 
L 330.136629 605.312308 
L 338.743693 605.312308 
L 347.240659 605.312308 
L 353.582193 605.312308 
L 358.098232 605.312308 
L 362.015801 605.312308 
L 365.100791 605.312308 
L 367.795107 605.312308 
L 370.339935 605.312308 
L 371.612349 605.312308 
L 372.884762 605.312308 
L 373.578284 605.312308 
L 374.157176 605.312308 
L 374.808605 605.312308 
L 375.42959 605.312308 
L 375.781185 605.312308 
L 376.100674 605.312308 
L 376.42634 605.312308 
L 376.702003 605.312308 
L 377.181086 605.312308 
L 377.629898 605.312308 
L 378.056467 605.312308 
L 378.557793 605.312308 
L 379.000786 605.312308 
L 379.485688 605.312308 
L 379.945558 605.312308 
L 380.413583 605.312308 
L 380.832336 605.312308 
L 381.341477 605.312308 
L 382.269372 605.312308 
L 383.197267 605.312308 
L 384.125162 605.312308 
L 385.053056 605.312308 
L 385.980951 605.312308 
L 386.908846 605.312308 
L 387.836741 605.312308 
L 388.764636 605.312308 
L 389.69253 605.312308 
L 390.578063 605.312308 
L 391.54832 605.312308 
L 393.28631 605.312308 
L 395.259899 605.312308 
L 396.651741 605.312308 
L 398.043583 605.312308 
L 399.899373 605.312308 
L 401.701247 605.312308 
L 403.610952 605.312308 
L 405.289681 605.312308 
L 406.894263 605.312308 
L 408.375361 605.312308 
L 410.106215 605.312308 
L 411.962005 605.312308 
L 414.385383 605.312308 
L 416.601479 605.312308 
L 418.59025 605.312308 
L 420.545322 605.312308 
L 422.367082 605.312308 
L 424.358264 605.312308 
L 426.834965 605.312308 
L 429.229604 605.312308 
L 431.143679 605.312308 
L 433.224812 605.312308 
L 435.488341 605.312308 
L 437.951073 605.312308 
L 439.269923 605.312308 
L 440.63164 605.312308 
L 442.106467 605.312308 
L 443.549241 605.312308 
L 445.155995 605.312308 
L 446.721698 605.312308 
L 448.530584 605.312308 
L 450.174259 605.312308 
L 451.951214 605.312308 
L 453.926016 605.312308 
L 455.933062 605.312308 
L 458.002814 605.312308 
L 460.314271 605.312308 
L 462.425952 605.312308 
L 464.811613 605.312308 
L 467.21716 605.312308 
L 469.759827 605.312308 
L 472.396058 605.312308 
L 475.19253 605.312308 
L 477.975382 605.312308 
L 480.842577 605.312308 
L 483.958078 605.312308 
L 487.02499 605.312308 
L 490.325069 605.312308 
L 493.589155 605.312308 
L 496.978314 605.312308 
L 500.205377 605.312308 
L 503.659157 605.312308 
L 506.946976 605.312308 
L 510.339999 605.312308 
L 513.575217 605.312308 
L 517.020842 605.312308 
L 520.529262 605.312308 
L 523.701684 605.312308 
L 527.248435 605.312308 
L 530.382526 605.312308 
L 533.47788 605.312308 
L 537.063369 605.312308 
L 540.596663 605.312308 
L 543.744211 605.312308 
L 547.100127 605.312308 
L 550.425053 605.312308 
L 553.753242 605.312308 
L 557.105896 605.312308 
L 560.64286 605.312308 
L 563.786738 605.312308 
L 567.416674 605.312308 
L 570.467581 605.312308 
L 572.48806 605.312308 
L 574.235341 605.312308 
L 575.774026 605.312308 
L 577.148423 605.312308 
L 578.893977 605.312308 
L 580.590786 605.312308 
L 582.236512 605.312308 
L 583.829265 605.312308 
L 585.170972 605.312308 
L 585.978345 605.312308 
L 586.689338 605.312308 
L 587.565631 605.312308 
L 588.440213 605.312308 
L 589.393295 605.312308 
L 590.510108 605.312308 
L 591.006574 605.312308 
L 591.536623 605.312308 
L 592.09897 605.312308 
L 592.691486 605.312308 
L 593.836984 605.312308 
L 595.007931 605.312308 
L 596.17812 605.312308 
L 597.43789 605.312308 
L 598.641338 605.312308 
L 599.95542 605.312308 
L 601.139458 605.312308 
L 602.456615 605.312308 
L 603.58178 605.312308 
L 604.861979 605.312308 
L 607.17568 605.312308 
L 609.400733 605.312308 
L 611.62836 605.312308 
L 613.948134 605.312308 
L 616.355835 605.312308 
L 618.846045 605.312308 
L 622.080194 605.312308 
L 625.776244 605.312308 
L 629.202701 605.312308 
L 632.80417 605.312308 
L 637.73667 605.312308 
L 642.249482 605.312308 
L 647.181983 605.312308 
L 656.627295 605.312308 
L 666.072608 605.312308 
L 675.51792 605.312308 
L 684.963233 605.312308 
L 694.408545 605.312308 
L 703.853858 605.312308 
L 713.29917 605.312308 
L 722.744483 605.312308 
L 741.635108 605.312308 
L 753.458468 605.312308 
L 765.81912 605.312308 
L 777.874829 605.312308 
L 788.86167 605.312308 
L 798.306983 605.312308 
L 807.092784 605.312308 
L 817.197608 605.312308 
L 817.197608 499.637577 
L 817.197608 499.637577 
L 807.092784 499.459973 
L 798.306983 498.747864 
L 788.86167 498.332169 
L 777.874829 497.296629 
L 765.81912 496.424032 
L 753.458468 495.379029 
L 741.635108 493.671666 
L 722.744483 492.04687 
L 713.29917 491.06131 
L 703.853858 491.396743 
L 694.408545 489.578229 
L 684.963233 487.182346 
L 675.51792 483.387263 
L 666.072608 478.857007 
L 656.627295 473.370322 
L 647.181983 465.888314 
L 642.249482 459.179794 
L 637.73667 451.503075 
L 632.80417 442.017238 
L 629.202701 437.240773 
L 625.776244 441.477052 
L 622.080194 447.689087 
L 618.846045 455.389191 
L 616.355835 466.037414 
L 613.948134 478.949955 
L 611.62836 495.857495 
L 609.400733 501.398924 
L 607.17568 503.550677 
L 604.861979 504.479864 
L 603.58178 504.407753 
L 602.456615 503.730637 
L 601.139458 500.939085 
L 599.95542 497.338068 
L 598.641338 490.320978 
L 597.43789 483.173538 
L 596.17812 468.938891 
L 595.007931 451.567623 
L 593.836984 430.129332 
L 592.691486 407.951074 
L 592.09897 395.070093 
L 591.536623 386.122565 
L 591.006574 378.559239 
L 590.510108 370.855196 
L 589.393295 363.059957 
L 588.440213 356.123598 
L 587.565631 350.215426 
L 586.689338 344.937541 
L 585.978345 340.653312 
L 585.170972 336.67752 
L 583.829265 332.616808 
L 582.236512 329.245465 
L 580.590786 326.607542 
L 578.893977 324.319342 
L 577.148423 322.720782 
L 575.774026 321.180235 
L 574.235341 320.372726 
L 572.48806 319.504781 
L 570.467581 319.415856 
L 567.416674 319.220303 
L 563.786738 319.854519 
L 560.64286 320.250585 
L 557.105896 321.450607 
L 553.753242 322.427622 
L 550.425053 323.907728 
L 547.100127 325.435762 
L 543.744211 327.33958 
L 540.596663 329.489163 
L 537.063369 332.013036 
L 533.47788 334.868255 
L 530.382526 337.930955 
L 527.248435 341.313018 
L 523.701684 344.967297 
L 520.529262 347.899764 
L 517.020842 350.655541 
L 513.575217 353.809006 
L 510.339999 356.578531 
L 506.946976 361.041219 
L 503.659157 366.004257 
L 500.205377 370.729261 
L 496.978314 375.910368 
L 493.589155 381.030113 
L 490.325069 386.165435 
L 487.02499 391.417325 
L 483.958078 396.873131 
L 480.842577 403.315647 
L 477.975382 410.279005 
L 475.19253 417.822318 
L 472.396058 425.562783 
L 469.759827 433.818673 
L 467.21716 442.556987 
L 464.811613 452.116102 
L 462.425952 461.564206 
L 460.314271 472.09943 
L 458.002814 483.235962 
L 455.933062 494.535858 
L 453.926016 508.331116 
L 451.951214 521.731408 
L 450.174259 535.997239 
L 448.530584 550.316699 
L 446.721698 563.39273 
L 445.155995 573.246061 
L 443.549241 581.716936 
L 442.106467 588.278266 
L 440.63164 593.22888 
L 439.269923 596.285378 
L 437.951073 598.202182 
L 435.488341 598.600665 
L 433.224812 598.46547 
L 431.143679 598.095148 
L 429.229604 597.598484 
L 426.834965 596.895845 
L 424.358264 596.101792 
L 422.367082 595.475614 
L 420.545322 594.86849 
L 418.59025 594.119069 
L 416.601479 592.759517 
L 414.385383 590.345431 
L 411.962005 587.394088 
L 410.106215 584.346234 
L 408.375361 581.324649 
L 406.894263 578.661045 
L 405.289681 575.570649 
L 403.610952 572.37808 
L 401.701247 567.934709 
L 399.899373 563.303643 
L 398.043583 558.17572 
L 396.651741 553.73026 
L 395.259899 548.849391 
L 393.28631 541.433377 
L 391.54832 536.825024 
L 390.578063 535.037661 
L 389.69253 533.200897 
L 388.764636 531.73538 
L 387.836741 530.348501 
L 386.908846 529.08333 
L 385.980951 528.013741 
L 385.053056 526.672479 
L 384.125162 524.25732 
L 383.197267 520.914714 
L 382.269372 509.776837 
L 381.341477 486.713568 
L 380.832336 465.96363 
L 380.413583 447.420209 
L 379.945558 422.317978 
L 379.485688 398.740325 
L 379.000786 385.513113 
L 378.557793 373.845265 
L 378.056467 362.308292 
L 377.629898 358.552608 
L 377.181086 356.773276 
L 376.702003 356.722878 
L 376.42634 355.310667 
L 376.100674 354.202673 
L 375.781185 353.071774 
L 375.42959 352.444228 
L 374.808605 352.876551 
L 374.157176 353.515135 
L 373.578284 353.579695 
L 372.884762 354.142326 
L 371.612349 354.98807 
L 370.339935 355.709207 
L 367.795107 356.501561 
L 365.100791 355.955313 
L 362.015801 356.897598 
L 358.098232 356.243196 
L 353.582193 356.697773 
L 347.240659 355.727057 
L 338.743693 356.09216 
L 330.136629 355.264526 
L 322.042849 355.568525 
L 314.293433 355.487817 
L 306.108307 355.498134 
L 291.4797 355.124567 
L 277.872644 355.026656 
L 265.803879 354.537995 
L 253.442863 353.861099 
L 242.378625 353.232213 
L 232.059762 352.57976 
L 222.461467 352.013679 
L 215.666289 351.14803 
L 209.304744 350.223984 
L 201.294329 349.525336 
L 193.842604 348.863087 
L 186.901027 348.271669 
L 180.46251 347.712186 
L 174.585426 347.186868 
L 168.88361 346.659165 
L 163.692746 346.10095 
L 158.23472 345.534677 
L 152.242772 344.872285 
L 146.343341 344.257014 
L 140.906123 343.668374 
L 136.064903 343.305225 
L 131.894699 344.206225 
L 126.505652 345.791932 
L 121.795163 347.206163 
L 117.772298 349.393736 
L 114.380297 350.537714 
L 110.878308 351.993935 
L 107.979517 352.522689 
L 105.819849 351.490786 
L 103.578522 349.860798 
L 101.273505 347.450734 
L 99.991406 343.513235 
L 98.820976 340.962106 
L 97.579316 337.4958 
L 96.397416 332.703343 
L 95.299612 326.846766 
L 94.171374 322.111333 
L 93.099922 319.301957 
L 92.004934 314.687749 
L 90.129589 305.906342 
L 88.857321 303.598938 
L 87.435066 305.601957 
L 84.740543 322.761671 
L 83.42602 354.618691 
L 82.213061 555.17544 
L 80.785425 555.788208 
L 79.049287 555.591111 
L 76.852227 556.924597 
L 73.741466 558.098833 
L 69.481777 559.136064 
L 63.647806 560.15108 
L 55.656948 560.891352 
L 44.711179 561.470729 
L 29.717351 561.80399 
L 9.178043 561.958925 
z
" clip-path="url(#p2a1f63434d)" style="fill: #1f77b4"/>
   </g>
   <g id="PolyCollection_2">
    <path d="M 9.178043 559.244917 
L 9.178043 561.958925 
L 29.717351 561.80399 
L 44.711179 561.470729 
L 55.656948 560.891352 
L 63.647806 560.15108 
L 69.481777 559.136064 
L 73.741466 558.098833 
L 76.852227 556.924597 
L 79.049287 555.591111 
L 80.785425 555.788208 
L 82.213061 555.17544 
L 83.42602 354.618691 
L 84.740543 322.761671 
L 87.435066 305.601957 
L 88.857321 303.598938 
L 90.129589 305.906342 
L 92.004934 314.687749 
L 93.099922 319.301957 
L 94.171374 322.111333 
L 95.299612 326.846766 
L 96.397416 332.703343 
L 97.579316 337.4958 
L 98.820976 340.962106 
L 99.991406 343.513235 
L 101.273505 347.450734 
L 103.578522 349.860798 
L 105.819849 351.490786 
L 107.979517 352.522689 
L 110.878308 351.993935 
L 114.380297 350.537714 
L 117.772298 349.393736 
L 121.795163 347.206163 
L 126.505652 345.791932 
L 131.894699 344.206225 
L 136.064903 343.305225 
L 140.906123 343.668374 
L 146.343341 344.257014 
L 152.242772 344.872285 
L 158.23472 345.534677 
L 163.692746 346.10095 
L 168.88361 346.659165 
L 174.585426 347.186868 
L 180.46251 347.712186 
L 186.901027 348.271669 
L 193.842604 348.863087 
L 201.294329 349.525336 
L 209.304744 350.223984 
L 215.666289 351.14803 
L 222.461467 352.013679 
L 232.059762 352.57976 
L 242.378625 353.232213 
L 253.442863 353.861099 
L 265.803879 354.537995 
L 277.872644 355.026656 
L 291.4797 355.124567 
L 306.108307 355.498134 
L 314.293433 355.487817 
L 322.042849 355.568525 
L 330.136629 355.264526 
L 338.743693 356.09216 
L 347.240659 355.727057 
L 353.582193 356.697773 
L 358.098232 356.243196 
L 362.015801 356.897598 
L 365.100791 355.955313 
L 367.795107 356.501561 
L 370.339935 355.709207 
L 371.612349 354.98807 
L 372.884762 354.142326 
L 373.578284 353.579695 
L 374.157176 353.515135 
L 374.808605 352.876551 
L 375.42959 352.444228 
L 375.781185 353.071774 
L 376.100674 354.202673 
L 376.42634 355.310667 
L 376.702003 356.722878 
L 377.181086 356.773276 
L 377.629898 358.552608 
L 378.056467 362.308292 
L 378.557793 373.845265 
L 379.000786 385.513113 
L 379.485688 398.740325 
L 379.945558 422.317978 
L 380.413583 447.420209 
L 380.832336 465.96363 
L 381.341477 486.713568 
L 382.269372 509.776837 
L 383.197267 520.914714 
L 384.125162 524.25732 
L 385.053056 526.672479 
L 385.980951 528.013741 
L 386.908846 529.08333 
L 387.836741 530.348501 
L 388.764636 531.73538 
L 389.69253 533.200897 
L 390.578063 535.037661 
L 391.54832 536.825024 
L 393.28631 541.433377 
L 395.259899 548.849391 
L 396.651741 553.73026 
L 398.043583 558.17572 
L 399.899373 563.303643 
L 401.701247 567.934709 
L 403.610952 572.37808 
L 405.289681 575.570649 
L 406.894263 578.661045 
L 408.375361 581.324649 
L 410.106215 584.346234 
L 411.962005 587.394088 
L 414.385383 590.345431 
L 416.601479 592.759517 
L 418.59025 594.119069 
L 420.545322 594.86849 
L 422.367082 595.475614 
L 424.358264 596.101792 
L 426.834965 596.895845 
L 429.229604 597.598484 
L 431.143679 598.095148 
L 433.224812 598.46547 
L 435.488341 598.600665 
L 437.951073 598.202182 
L 439.269923 596.285378 
L 440.63164 593.22888 
L 442.106467 588.278266 
L 443.549241 581.716936 
L 445.155995 573.246061 
L 446.721698 563.39273 
L 448.530584 550.316699 
L 450.174259 535.997239 
L 451.951214 521.731408 
L 453.926016 508.331116 
L 455.933062 494.535858 
L 458.002814 483.235962 
L 460.314271 472.09943 
L 462.425952 461.564206 
L 464.811613 452.116102 
L 467.21716 442.556987 
L 469.759827 433.818673 
L 472.396058 425.562783 
L 475.19253 417.822318 
L 477.975382 410.279005 
L 480.842577 403.315647 
L 483.958078 396.873131 
L 487.02499 391.417325 
L 490.325069 386.165435 
L 493.589155 381.030113 
L 496.978314 375.910368 
L 500.205377 370.729261 
L 503.659157 366.004257 
L 506.946976 361.041219 
L 510.339999 356.578531 
L 513.575217 353.809006 
L 517.020842 350.655541 
L 520.529262 347.899764 
L 523.701684 344.967297 
L 527.248435 341.313018 
L 530.382526 337.930955 
L 533.47788 334.868255 
L 537.063369 332.013036 
L 540.596663 329.489163 
L 543.744211 327.33958 
L 547.100127 325.435762 
L 550.425053 323.907728 
L 553.753242 322.427622 
L 557.105896 321.450607 
L 560.64286 320.250585 
L 563.786738 319.854519 
L 567.416674 319.220303 
L 570.467581 319.415856 
L 572.48806 319.504781 
L 574.235341 320.372726 
L 575.774026 321.180235 
L 577.148423 322.720782 
L 578.893977 324.319342 
L 580.590786 326.607542 
L 582.236512 329.245465 
L 583.829265 332.616808 
L 585.170972 336.67752 
L 585.978345 340.653312 
L 586.689338 344.937541 
L 587.565631 350.215426 
L 588.440213 356.123598 
L 589.393295 363.059957 
L 590.510108 370.855196 
L 591.006574 378.559239 
L 591.536623 386.122565 
L 592.09897 395.070093 
L 592.691486 407.951074 
L 593.836984 430.129332 
L 595.007931 451.567623 
L 596.17812 468.938891 
L 597.43789 483.173538 
L 598.641338 490.320978 
L 599.95542 497.338068 
L 601.139458 500.939085 
L 602.456615 503.730637 
L 603.58178 504.407753 
L 604.861979 504.479864 
L 607.17568 503.550677 
L 609.400733 501.398924 
L 611.62836 495.857495 
L 613.948134 478.949955 
L 616.355835 466.037414 
L 618.846045 455.389191 
L 622.080194 447.689087 
L 625.776244 441.477052 
L 629.202701 437.240773 
L 632.80417 442.017238 
L 637.73667 451.503075 
L 642.249482 459.179794 
L 647.181983 465.888314 
L 656.627295 473.370322 
L 666.072608 478.857007 
L 675.51792 483.387263 
L 684.963233 487.182346 
L 694.408545 489.578229 
L 703.853858 491.396743 
L 713.29917 491.06131 
L 722.744483 492.04687 
L 741.635108 493.671666 
L 753.458468 495.379029 
L 765.81912 496.424032 
L 777.874829 497.296629 
L 788.86167 498.332169 
L 798.306983 498.747864 
L 807.092784 499.459973 
L 817.197608 499.637577 
L 817.197608 318.379033 
L 817.197608 318.379033 
L 807.092784 318.279264 
L 798.306983 317.432574 
L 788.86167 317.305049 
L 777.874829 315.778452 
L 765.81912 314.77636 
L 753.458468 313.424916 
L 741.635108 310.692369 
L 722.744483 308.038207 
L 713.29917 307.359897 
L 703.853858 306.095246 
L 694.408545 303.438585 
L 684.963233 300.37667 
L 675.51792 293.90676 
L 666.072608 286.421654 
L 656.627295 276.396552 
L 647.181983 264.222935 
L 642.249482 255.430126 
L 637.73667 246.106909 
L 632.80417 234.670218 
L 629.202701 230.480206 
L 625.776244 246.211177 
L 622.080194 265.509063 
L 618.846045 288.028936 
L 616.355835 314.440983 
L 613.948134 345.216654 
L 611.62836 384.760576 
L 609.400733 405.822742 
L 607.17568 415.74936 
L 604.861979 422.126514 
L 603.58178 422.204234 
L 602.456615 426.637046 
L 601.139458 422.150548 
L 599.95542 421.033926 
L 598.641338 412.183802 
L 597.43789 404.635498 
L 596.17812 388.074406 
L 595.007931 369.048614 
L 593.836984 346.273051 
L 592.691486 323.481708 
L 592.09897 311.288269 
L 591.536623 304.626661 
L 591.006574 302.575114 
L 590.510108 304.21414 
L 589.393295 301.528858 
L 588.440213 299.002524 
L 587.565631 297.007455 
L 586.689338 295.037792 
L 585.978345 293.59752 
L 585.170972 291.526416 
L 583.829265 288.057202 
L 582.236512 284.27285 
L 580.590786 281.338758 
L 578.893977 277.767052 
L 577.148423 274.91425 
L 575.774026 271.614662 
L 574.235341 268.621339 
L 572.48806 265.641645 
L 570.467581 262.682071 
L 567.416674 260.044033 
L 563.786738 257.476958 
L 560.64286 255.10015 
L 557.105896 252.975589 
L 553.753242 251.582033 
L 550.425053 250.626213 
L 547.100127 249.600395 
L 543.744211 248.908474 
L 540.596663 248.55696 
L 537.063369 248.445245 
L 533.47788 248.555217 
L 530.382526 248.941677 
L 527.248435 249.598797 
L 523.701684 250.382621 
L 520.529262 251.07219 
L 517.020842 251.841121 
L 513.575217 252.836374 
L 510.339999 253.841255 
L 506.946976 254.851185 
L 503.659157 255.976758 
L 500.205377 257.057525 
L 496.978314 258.1943 
L 493.589155 259.269288 
L 490.325069 260.319255 
L 487.02499 261.354398 
L 483.958078 262.456665 
L 480.842577 264.977907 
L 477.975382 267.925465 
L 475.19253 271.434384 
L 472.396058 275.008817 
L 469.759827 278.966196 
L 467.21716 283.278647 
L 464.811613 287.923361 
L 462.425952 293.045267 
L 460.314271 298.492485 
L 458.002814 304.909412 
L 455.933062 311.312152 
L 453.926016 319.391827 
L 451.951214 326.994995 
L 450.174259 336.127862 
L 448.530584 346.284569 
L 446.721698 355.282718 
L 445.155995 360.925203 
L 443.549241 365.188834 
L 442.106467 367.570835 
L 440.63164 368.401117 
L 439.269923 367.406268 
L 437.951073 365.477342 
L 435.488341 362.589449 
L 433.224812 359.542893 
L 431.143679 356.628395 
L 429.229604 353.984676 
L 426.834965 351.248078 
L 424.358264 349.046584 
L 422.367082 346.856734 
L 420.545322 345.055948 
L 418.59025 342.918227 
L 416.601479 339.116761 
L 414.385383 330.026593 
L 411.962005 318.857859 
L 410.106215 310.515952 
L 408.375361 300.369474 
L 406.894263 289.061111 
L 405.289681 276.94822 
L 403.610952 268.773922 
L 401.701247 260.28042 
L 399.899373 251.457574 
L 398.043583 241.329798 
L 396.651741 232.17926 
L 395.259899 222.80617 
L 393.28631 216.179802 
L 391.54832 209.289408 
L 390.578063 201.975899 
L 389.69253 195.672662 
L 388.764636 191.353476 
L 387.836741 187.85383 
L 386.908846 185.118567 
L 385.980951 183.968928 
L 385.053056 184.276321 
L 384.125162 186.873526 
L 383.197267 192.779544 
L 382.269372 196.320008 
L 381.341477 198.414714 
L 380.832336 213.296615 
L 380.413583 230.50176 
L 379.945558 242.174627 
L 379.485688 248.460935 
L 379.000786 255.34769 
L 378.557793 258.649617 
L 378.056467 258.614892 
L 377.629898 268.678507 
L 377.181086 277.8718 
L 376.702003 287.074393 
L 376.42634 293.485543 
L 376.100674 301.186215 
L 375.781185 307.290657 
L 375.42959 312.921312 
L 374.808605 319.38991 
L 374.157176 325.26555 
L 373.578284 329.891656 
L 372.884762 334.397979 
L 371.612349 339.177806 
L 370.339935 342.988298 
L 367.795107 348.177262 
L 365.100791 349.854173 
L 362.015801 352.321469 
L 358.098232 353.084204 
L 353.582193 354.580832 
L 347.240659 354.478597 
L 338.743693 355.407671 
L 330.136629 355.067808 
L 322.042849 355.541093 
L 314.293433 355.457317 
L 306.108307 355.231877 
L 291.4797 354.883812 
L 277.872644 354.829658 
L 265.803879 354.45023 
L 253.442863 353.771007 
L 242.378625 353.020345 
L 232.059762 352.144951 
L 222.461467 351.355046 
L 215.666289 350.293502 
L 209.304744 349.193413 
L 201.294329 348.266358 
L 193.842604 347.367876 
L 186.901027 346.53891 
L 180.46251 345.721353 
L 174.585426 344.945988 
L 168.88361 344.149586 
L 163.692746 343.339008 
L 158.23472 342.610889 
L 152.242772 341.901771 
L 146.343341 341.313575 
L 140.906123 340.934192 
L 136.064903 340.910463 
L 131.894699 342.0687 
L 126.505652 344.41745 
L 121.795163 346.609326 
L 117.772298 347.102068 
L 114.380297 346.568018 
L 110.878308 347.167961 
L 107.979517 346.890586 
L 105.819849 346.177236 
L 103.578522 344.627381 
L 101.273505 343.128475 
L 99.991406 339.177968 
L 98.820976 337.82747 
L 97.579316 334.786017 
L 96.397416 331.3465 
L 95.299612 326.42612 
L 94.171374 321.103775 
L 93.099922 317.048348 
L 92.004934 311.085123 
L 90.129589 301.065083 
L 88.857321 298.126407 
L 87.435066 299.774977 
L 84.740543 316.751521 
L 83.42602 347.986095 
L 82.213061 547.730876 
L 80.785425 549.012123 
L 79.049287 549.291385 
L 76.852227 551.144537 
L 73.741466 553.020151 
L 69.481777 554.4984 
L 63.647806 556.232635 
L 55.656948 557.273414 
L 44.711179 558.408632 
L 29.717351 558.87736 
L 9.178043 559.244917 
z
" clip-path="url(#p2a1f63434d)" style="fill: #ff7f0e"/>
   </g>
   <g id="PolyCollection_3">
    <path d="M 9.178043 28.25666 
L 9.178043 559.244917 
L 29.717351 558.87736 
L 44.711179 558.408632 
L 55.656948 557.273414 
L 63.647806 556.232635 
L 69.481777 554.4984 
L 73.741466 553.020151 
L 76.852227 551.144537 
L 79.049287 549.291385 
L 80.785425 549.012123 
L 82.213061 547.730876 
L 83.42602 347.986095 
L 84.740543 316.751521 
L 87.435066 299.774977 
L 88.857321 298.126407 
L 90.129589 301.065083 
L 92.004934 311.085123 
L 93.099922 317.048348 
L 94.171374 321.103775 
L 95.299612 326.42612 
L 96.397416 331.3465 
L 97.579316 334.786017 
L 98.820976 337.82747 
L 99.991406 339.177968 
L 101.273505 343.128475 
L 103.578522 344.627381 
L 105.819849 346.177236 
L 107.979517 346.890586 
L 110.878308 347.167961 
L 114.380297 346.568018 
L 117.772298 347.102068 
L 121.795163 346.609326 
L 126.505652 344.41745 
L 131.894699 342.0687 
L 136.064903 340.910463 
L 140.906123 340.934192 
L 146.343341 341.313575 
L 152.242772 341.901771 
L 158.23472 342.610889 
L 163.692746 343.339008 
L 168.88361 344.149586 
L 174.585426 344.945988 
L 180.46251 345.721353 
L 186.901027 346.53891 
L 193.842604 347.367876 
L 201.294329 348.266358 
L 209.304744 349.193413 
L 215.666289 350.293502 
L 222.461467 351.355046 
L 232.059762 352.144951 
L 242.378625 353.020345 
L 253.442863 353.771007 
L 265.803879 354.45023 
L 277.872644 354.829658 
L 291.4797 354.883812 
L 306.108307 355.231877 
L 314.293433 355.457317 
L 322.042849 355.541093 
L 330.136629 355.067808 
L 338.743693 355.407671 
L 347.240659 354.478597 
L 353.582193 354.580832 
L 358.098232 353.084204 
L 362.015801 352.321469 
L 365.100791 349.854173 
L 367.795107 348.177262 
L 370.339935 342.988298 
L 371.612349 339.177806 
L 372.884762 334.397979 
L 373.578284 329.891656 
L 374.157176 325.26555 
L 374.808605 319.38991 
L 375.42959 312.921312 
L 375.781185 307.290657 
L 376.100674 301.186215 
L 376.42634 293.485543 
L 376.702003 287.074393 
L 377.181086 277.8718 
L 377.629898 268.678507 
L 378.056467 258.614892 
L 378.557793 258.649617 
L 379.000786 255.34769 
L 379.485688 248.460935 
L 379.945558 242.174627 
L 380.413583 230.50176 
L 380.832336 213.296615 
L 381.341477 198.414714 
L 382.269372 196.320008 
L 383.197267 192.779544 
L 384.125162 186.873526 
L 385.053056 184.276321 
L 385.980951 183.968928 
L 386.908846 185.118567 
L 387.836741 187.85383 
L 388.764636 191.353476 
L 389.69253 195.672662 
L 390.578063 201.975899 
L 391.54832 209.289408 
L 393.28631 216.179802 
L 395.259899 222.80617 
L 396.651741 232.17926 
L 398.043583 241.329798 
L 399.899373 251.457574 
L 401.701247 260.28042 
L 403.610952 268.773922 
L 405.289681 276.94822 
L 406.894263 289.061111 
L 408.375361 300.369474 
L 410.106215 310.515952 
L 411.962005 318.857859 
L 414.385383 330.026593 
L 416.601479 339.116761 
L 418.59025 342.918227 
L 420.545322 345.055948 
L 422.367082 346.856734 
L 424.358264 349.046584 
L 426.834965 351.248078 
L 429.229604 353.984676 
L 431.143679 356.628395 
L 433.224812 359.542893 
L 435.488341 362.589449 
L 437.951073 365.477342 
L 439.269923 367.406268 
L 440.63164 368.401117 
L 442.106467 367.570835 
L 443.549241 365.188834 
L 445.155995 360.925203 
L 446.721698 355.282718 
L 448.530584 346.284569 
L 450.174259 336.127862 
L 451.951214 326.994995 
L 453.926016 319.391827 
L 455.933062 311.312152 
L 458.002814 304.909412 
L 460.314271 298.492485 
L 462.425952 293.045267 
L 464.811613 287.923361 
L 467.21716 283.278647 
L 469.759827 278.966196 
L 472.396058 275.008817 
L 475.19253 271.434384 
L 477.975382 267.925465 
L 480.842577 264.977907 
L 483.958078 262.456665 
L 487.02499 261.354398 
L 490.325069 260.319255 
L 493.589155 259.269288 
L 496.978314 258.1943 
L 500.205377 257.057525 
L 503.659157 255.976758 
L 506.946976 254.851185 
L 510.339999 253.841255 
L 513.575217 252.836374 
L 517.020842 251.841121 
L 520.529262 251.07219 
L 523.701684 250.382621 
L 527.248435 249.598797 
L 530.382526 248.941677 
L 533.47788 248.555217 
L 537.063369 248.445245 
L 540.596663 248.55696 
L 543.744211 248.908474 
L 547.100127 249.600395 
L 550.425053 250.626213 
L 553.753242 251.582033 
L 557.105896 252.975589 
L 560.64286 255.10015 
L 563.786738 257.476958 
L 567.416674 260.044033 
L 570.467581 262.682071 
L 572.48806 265.641645 
L 574.235341 268.621339 
L 575.774026 271.614662 
L 577.148423 274.91425 
L 578.893977 277.767052 
L 580.590786 281.338758 
L 582.236512 284.27285 
L 583.829265 288.057202 
L 585.170972 291.526416 
L 585.978345 293.59752 
L 586.689338 295.037792 
L 587.565631 297.007455 
L 588.440213 299.002524 
L 589.393295 301.528858 
L 590.510108 304.21414 
L 591.006574 302.575114 
L 591.536623 304.626661 
L 592.09897 311.288269 
L 592.691486 323.481708 
L 593.836984 346.273051 
L 595.007931 369.048614 
L 596.17812 388.074406 
L 597.43789 404.635498 
L 598.641338 412.183802 
L 599.95542 421.033926 
L 601.139458 422.150548 
L 602.456615 426.637046 
L 603.58178 422.204234 
L 604.861979 422.126514 
L 607.17568 415.74936 
L 609.400733 405.822742 
L 611.62836 384.760576 
L 613.948134 345.216654 
L 616.355835 314.440983 
L 618.846045 288.028936 
L 622.080194 265.509063 
L 625.776244 246.211177 
L 629.202701 230.480206 
L 632.80417 234.670218 
L 637.73667 246.106909 
L 642.249482 255.430126 
L 647.181983 264.222935 
L 656.627295 276.396552 
L 666.072608 286.421654 
L 675.51792 293.90676 
L 684.963233 300.37667 
L 694.408545 303.438585 
L 703.853858 306.095246 
L 713.29917 307.359897 
L 722.744483 308.038207 
L 741.635108 310.692369 
L 753.458468 313.424916 
L 765.81912 314.77636 
L 777.874829 315.778452 
L 788.86167 317.305049 
L 798.306983 317.432574 
L 807.092784 318.279264 
L 817.197608 318.379033 
L 817.197608 247.257046 
L 817.197608 247.257046 
L 807.092784 247.061512 
L 798.306983 246.820778 
L 788.86167 246.102244 
L 777.874829 245.838975 
L 765.81912 244.839072 
L 753.458468 243.552485 
L 741.635108 243.141218 
L 722.744483 241.010326 
L 713.29917 238.671411 
L 703.853858 239.903134 
L 694.408545 238.194351 
L 684.963233 236.28244 
L 675.51792 231.618269 
L 666.072608 227.030693 
L 656.627295 221.823237 
L 647.181983 216.700007 
L 642.249482 213.106765 
L 637.73667 209.995766 
L 632.80417 206.809226 
L 629.202701 206.006926 
L 625.776244 223.20869 
L 622.080194 242.724641 
L 618.846045 264.135801 
L 616.355835 288.580484 
L 613.948134 318.825003 
L 611.62836 357.834348 
L 609.400733 380.426652 
L 607.17568 393.426752 
L 604.861979 404.268357 
L 603.58178 405.908994 
L 602.456615 410.383787 
L 601.139458 405.394484 
L 599.95542 400.816954 
L 598.641338 388.702661 
L 597.43789 380.642321 
L 596.17812 365.17769 
L 595.007931 347.254546 
L 593.836984 327.166022 
L 592.691486 306.169778 
L 592.09897 289.871985 
L 591.536623 276.475816 
L 591.006574 243.090817 
L 590.510108 184.07141 
L 589.393295 172.279525 
L 588.440213 165.129785 
L 587.565631 156.579943 
L 586.689338 149.146584 
L 585.978345 145.771494 
L 585.170972 142.713564 
L 583.829265 134.419123 
L 582.236512 131.017773 
L 580.590786 123.596662 
L 578.893977 118.993911 
L 577.148423 112.410687 
L 575.774026 107.419078 
L 574.235341 101.428036 
L 572.48806 96.543321 
L 570.467581 90.850763 
L 567.416674 86.18789 
L 563.786738 80.756151 
L 560.64286 76.498538 
L 557.105896 71.660272 
L 553.753242 68.910181 
L 550.425053 66.803568 
L 547.100127 64.430346 
L 543.744211 62.540762 
L 540.596663 61.429821 
L 537.063369 60.614044 
L 533.47788 59.902208 
L 530.382526 59.804812 
L 527.248435 60.201349 
L 523.701684 60.71093 
L 520.529262 60.262745 
L 517.020842 59.460885 
L 513.575217 59.268881 
L 510.339999 58.955552 
L 506.946976 58.754802 
L 503.659157 58.840431 
L 500.205377 58.844914 
L 496.978314 58.905909 
L 493.589155 58.796552 
L 490.325069 58.750285 
L 487.02499 58.268869 
L 483.958078 58.326632 
L 480.842577 59.670586 
L 477.975382 62.41277 
L 475.19253 64.551008 
L 472.396058 67.840544 
L 469.759827 69.769784 
L 467.21716 73.352503 
L 464.811613 74.839258 
L 462.425952 78.106994 
L 460.314271 78.968488 
L 458.002814 81.598718 
L 455.933062 81.984969 
L 453.926016 83.998286 
L 451.951214 84.124133 
L 450.174259 87.434196 
L 448.530584 92.296893 
L 446.721698 98.170739 
L 445.155995 102.178022 
L 443.549241 104.666583 
L 442.106467 106.920225 
L 440.63164 107.570955 
L 439.269923 104.957211 
L 437.951073 101.447764 
L 435.488341 99.780936 
L 433.224812 94.351576 
L 431.143679 94.072754 
L 429.229604 90.385713 
L 426.834965 91.726076 
L 424.358264 93.449651 
L 422.367082 94.656178 
L 420.545322 96.950134 
L 418.59025 98.96735 
L 416.601479 101.050772 
L 414.385383 102.799412 
L 411.962005 102.488235 
L 410.106215 98.353485 
L 408.375361 92.209297 
L 406.894263 84.785468 
L 405.289681 76.226668 
L 403.610952 74.08947 
L 401.701247 71.200388 
L 399.899373 68.066109 
L 398.043583 64.420476 
L 396.651741 60.921626 
L 395.259899 57.292066 
L 393.28631 53.643462 
L 391.54832 50.486526 
L 390.578063 47.324985 
L 389.69253 44.113947 
L 388.764636 41.79655 
L 387.836741 39.721138 
L 386.908846 37.865649 
L 385.980951 36.361521 
L 385.053056 35.270231 
L 384.125162 34.609596 
L 383.197267 35.341426 
L 382.269372 36.416424 
L 381.341477 37.857149 
L 380.832336 36.897804 
L 380.413583 37.426569 
L 379.945558 41.508635 
L 379.485688 43.276025 
L 379.000786 45.88564 
L 378.557793 45.543187 
L 378.056467 48.16049 
L 377.629898 58.51638 
L 377.181086 68.717093 
L 376.702003 73.150723 
L 376.42634 69.926417 
L 376.100674 50.34399 
L 375.781185 44.201556 
L 375.42959 40.629101 
L 374.808605 37.807795 
L 374.157176 35.041836 
L 373.578284 33.084185 
L 372.884762 31.28268 
L 371.612349 31.055142 
L 370.339935 30.203811 
L 367.795107 30.541483 
L 365.100791 29.188023 
L 362.015801 29.119401 
L 358.098232 27.746711 
L 353.582193 27.34281 
L 347.240659 25.536472 
L 338.743693 24.920498 
L 330.136629 23.40594 
L 322.042849 22.516553 
L 314.293433 21.663709 
L 306.108307 21.424774 
L 291.4797 21.03276 
L 277.872644 20.758601 
L 265.803879 20.592248 
L 253.442863 20.324816 
L 242.378625 20.323293 
L 232.059762 20.167546 
L 222.461467 20.216209 
L 215.666289 20.141148 
L 209.304744 20.215705 
L 201.294329 20.171337 
L 193.842604 20.290119 
L 186.901027 20.302983 
L 180.46251 20.454442 
L 174.585426 20.506592 
L 168.88361 20.674887 
L 163.692746 20.77453 
L 158.23472 20.992219 
L 152.242772 21.095595 
L 146.343341 21.132759 
L 140.906123 21.015428 
L 136.064903 20.727697 
L 131.894699 20.420858 
L 126.505652 19.495057 
L 121.795163 20.402992 
L 117.772298 22.686381 
L 114.380297 24.677634 
L 110.878308 27.226105 
L 107.979517 29.684703 
L 105.819849 31.051564 
L 103.578522 32.787334 
L 101.273505 34.498424 
L 99.991406 35.78869 
L 98.820976 37.378418 
L 97.579316 38.67531 
L 96.397416 40.11872 
L 95.299612 41.585392 
L 94.171374 42.968157 
L 93.099922 43.930716 
L 92.004934 44.786125 
L 90.129589 45.559234 
L 88.857321 45.840559 
L 87.435066 45.959012 
L 84.740543 45.078761 
L 83.42602 45.208573 
L 82.213061 193.51119 
L 80.785425 43.377936 
L 79.049287 41.841839 
L 76.852227 38.780344 
L 73.741466 37.204648 
L 69.481777 34.35775 
L 63.647806 32.951904 
L 55.656948 30.765001 
L 44.711179 29.790598 
L 29.717351 28.604036 
L 9.178043 28.25666 
z
" clip-path="url(#p2a1f63434d)" style="fill: #2ca02c"/>
   </g>
   <g id="PolyCollection_4">
    <path d="M 9.178043 18.927692 
L 9.178043 28.25666 
L 29.717351 28.604036 
L 44.711179 29.790598 
L 55.656948 30.765001 
L 63.647806 32.951904 
L 69.481777 34.35775 
L 73.741466 37.204648 
L 76.852227 38.780344 
L 79.049287 41.841839 
L 80.785425 43.377936 
L 82.213061 193.51119 
L 83.42602 45.208573 
L 84.740543 45.078761 
L 87.435066 45.959012 
L 88.857321 45.840559 
L 90.129589 45.559234 
L 92.004934 44.786125 
L 93.099922 43.930716 
L 94.171374 42.968157 
L 95.299612 41.585392 
L 96.397416 40.11872 
L 97.579316 38.67531 
L 98.820976 37.378418 
L 99.991406 35.78869 
L 101.273505 34.498424 
L 103.578522 32.787334 
L 105.819849 31.051564 
L 107.979517 29.684703 
L 110.878308 27.226105 
L 114.380297 24.677634 
L 117.772298 22.686381 
L 121.795163 20.402992 
L 126.505652 19.495057 
L 131.894699 20.420858 
L 136.064903 20.727697 
L 140.906123 21.015428 
L 146.343341 21.132759 
L 152.242772 21.095595 
L 158.23472 20.992219 
L 163.692746 20.77453 
L 168.88361 20.674887 
L 174.585426 20.506592 
L 180.46251 20.454442 
L 186.901027 20.302983 
L 193.842604 20.290119 
L 201.294329 20.171337 
L 209.304744 20.215705 
L 215.666289 20.141148 
L 222.461467 20.216209 
L 232.059762 20.167546 
L 242.378625 20.323293 
L 253.442863 20.324816 
L 265.803879 20.592248 
L 277.872644 20.758601 
L 291.4797 21.03276 
L 306.108307 21.424774 
L 314.293433 21.663709 
L 322.042849 22.516553 
L 330.136629 23.40594 
L 338.743693 24.920498 
L 347.240659 25.536472 
L 353.582193 27.34281 
L 358.098232 27.746711 
L 362.015801 29.119401 
L 365.100791 29.188023 
L 367.795107 30.541483 
L 370.339935 30.203811 
L 371.612349 31.055142 
L 372.884762 31.28268 
L 373.578284 33.084185 
L 374.157176 35.041836 
L 374.808605 37.807795 
L 375.42959 40.629101 
L 375.781185 44.201556 
L 376.100674 50.34399 
L 376.42634 69.926417 
L 376.702003 73.150723 
L 377.181086 68.717093 
L 377.629898 58.51638 
L 378.056467 48.16049 
L 378.557793 45.543187 
L 379.000786 45.88564 
L 379.485688 43.276025 
L 379.945558 41.508635 
L 380.413583 37.426569 
L 380.832336 36.897804 
L 381.341477 37.857149 
L 382.269372 36.416424 
L 383.197267 35.341426 
L 384.125162 34.609596 
L 385.053056 35.270231 
L 385.980951 36.361521 
L 386.908846 37.865649 
L 387.836741 39.721138 
L 388.764636 41.79655 
L 389.69253 44.113947 
L 390.578063 47.324985 
L 391.54832 50.486526 
L 393.28631 53.643462 
L 395.259899 57.292066 
L 396.651741 60.921626 
L 398.043583 64.420476 
L 399.899373 68.066109 
L 401.701247 71.200388 
L 403.610952 74.08947 
L 405.289681 76.226668 
L 406.894263 84.785468 
L 408.375361 92.209297 
L 410.106215 98.353485 
L 411.962005 102.488235 
L 414.385383 102.799412 
L 416.601479 101.050772 
L 418.59025 98.96735 
L 420.545322 96.950134 
L 422.367082 94.656178 
L 424.358264 93.449651 
L 426.834965 91.726076 
L 429.229604 90.385713 
L 431.143679 94.072754 
L 433.224812 94.351576 
L 435.488341 99.780936 
L 437.951073 101.447764 
L 439.269923 104.957211 
L 440.63164 107.570955 
L 442.106467 106.920225 
L 443.549241 104.666583 
L 445.155995 102.178022 
L 446.721698 98.170739 
L 448.530584 92.296893 
L 450.174259 87.434196 
L 451.951214 84.124133 
L 453.926016 83.998286 
L 455.933062 81.984969 
L 458.002814 81.598718 
L 460.314271 78.968488 
L 462.425952 78.106994 
L 464.811613 74.839258 
L 467.21716 73.352503 
L 469.759827 69.769784 
L 472.396058 67.840544 
L 475.19253 64.551008 
L 477.975382 62.41277 
L 480.842577 59.670586 
L 483.958078 58.326632 
L 487.02499 58.268869 
L 490.325069 58.750285 
L 493.589155 58.796552 
L 496.978314 58.905909 
L 500.205377 58.844914 
L 503.659157 58.840431 
L 506.946976 58.754802 
L 510.339999 58.955552 
L 513.575217 59.268881 
L 517.020842 59.460885 
L 520.529262 60.262745 
L 523.701684 60.71093 
L 527.248435 60.201349 
L 530.382526 59.804812 
L 533.47788 59.902208 
L 537.063369 60.614044 
L 540.596663 61.429821 
L 543.744211 62.540762 
L 547.100127 64.430346 
L 550.425053 66.803568 
L 553.753242 68.910181 
L 557.105896 71.660272 
L 560.64286 76.498538 
L 563.786738 80.756151 
L 567.416674 86.18789 
L 570.467581 90.850763 
L 572.48806 96.543321 
L 574.235341 101.428036 
L 575.774026 107.419078 
L 577.148423 112.410687 
L 578.893977 118.993911 
L 580.590786 123.596662 
L 582.236512 131.017773 
L 583.829265 134.419123 
L 585.170972 142.713564 
L 585.978345 145.771494 
L 586.689338 149.146584 
L 587.565631 156.579943 
L 588.440213 165.129785 
L 589.393295 172.279525 
L 590.510108 184.07141 
L 591.006574 243.090817 
L 591.536623 276.475816 
L 592.09897 289.871985 
L 592.691486 306.169778 
L 593.836984 327.166022 
L 595.007931 347.254546 
L 596.17812 365.17769 
L 597.43789 380.642321 
L 598.641338 388.702661 
L 599.95542 400.816954 
L 601.139458 405.394484 
L 602.456615 410.383787 
L 603.58178 405.908994 
L 604.861979 404.268357 
L 607.17568 393.426752 
L 609.400733 380.426652 
L 611.62836 357.834348 
L 613.948134 318.825003 
L 616.355835 288.580484 
L 618.846045 264.135801 
L 622.080194 242.724641 
L 625.776244 223.20869 
L 629.202701 206.006926 
L 632.80417 206.809226 
L 637.73667 209.995766 
L 642.249482 213.106765 
L 647.181983 216.700007 
L 656.627295 221.823237 
L 666.072608 227.030693 
L 675.51792 231.618269 
L 684.963233 236.28244 
L 694.408545 238.194351 
L 703.853858 239.903134 
L 713.29917 238.671411 
L 722.744483 241.010326 
L 741.635108 243.141218 
L 753.458468 243.552485 
L 765.81912 244.839072 
L 777.874829 245.838975 
L 788.86167 246.102244 
L 798.306983 246.820778 
L 807.092784 247.061512 
L 817.197608 247.257046 
L 817.197608 18.927692 
L 817.197608 18.927692 
L 807.092784 18.927692 
L 798.306983 18.927692 
L 788.86167 18.927692 
L 777.874829 18.927692 
L 765.81912 18.927692 
L 753.458468 18.927692 
L 741.635108 18.927692 
L 722.744483 18.927692 
L 713.29917 18.927692 
L 703.853858 18.927692 
L 694.408545 18.927692 
L 684.963233 18.927692 
L 675.51792 18.927692 
L 666.072608 18.927692 
L 656.627295 18.927692 
L 647.181983 18.927692 
L 642.249482 18.927692 
L 637.73667 18.927692 
L 632.80417 18.927692 
L 629.202701 18.927692 
L 625.776244 44.45371 
L 622.080194 72.29983 
L 618.846045 101.430331 
L 616.355835 131.601878 
L 613.948134 167.354267 
L 611.62836 211.400814 
L 609.400733 237.751674 
L 607.17568 254.396445 
L 604.861979 265.020531 
L 603.58178 273.048144 
L 602.456615 276.485392 
L 601.139458 281.276537 
L 599.95542 280.54584 
L 598.641338 278.529152 
L 597.43789 278.316708 
L 596.17812 269.281215 
L 595.007931 257.450475 
L 593.836984 241.384984 
L 592.691486 225.192889 
L 592.09897 214.561972 
L 591.536623 207.610002 
L 591.006574 181.981942 
L 590.510108 131.976502 
L 589.393295 126.020522 
L 588.440213 123.73452 
L 587.565631 119.445208 
L 586.689338 115.620431 
L 585.978345 115.443811 
L 585.170972 114.878409 
L 583.829265 107.939337 
L 582.236512 105.163871 
L 580.590786 98.325365 
L 578.893977 93.539138 
L 577.148423 86.842626 
L 575.774026 81.4359 
L 574.235341 75.009853 
L 572.48806 69.337882 
L 570.467581 62.634656 
L 567.416674 56.717989 
L 563.786738 49.585281 
L 560.64286 44.330708 
L 557.105896 38.088498 
L 553.753242 34.241642 
L 550.425053 30.956476 
L 547.100127 27.573022 
L 543.744211 24.667325 
L 540.596663 22.889174 
L 537.063369 21.480997 
L 533.47788 20.448547 
L 530.382526 20.158927 
L 527.248435 20.604013 
L 523.701684 21.3509 
L 520.529262 21.64435 
L 517.020842 21.98302 
L 513.575217 22.747675 
L 510.339999 23.535577 
L 506.946976 24.258746 
L 503.659157 24.751972 
L 500.205377 25.111302 
L 496.978314 24.89254 
L 493.589155 24.334575 
L 490.325069 23.164517 
L 487.02499 21.431656 
L 483.958078 19.409001 
L 480.842577 18.927692 
L 477.975382 18.927692 
L 475.19253 18.927692 
L 472.396058 18.927692 
L 469.759827 18.927692 
L 467.21716 18.927692 
L 464.811613 18.927692 
L 462.425952 18.927692 
L 460.314271 18.927692 
L 458.002814 18.927692 
L 455.933062 18.927692 
L 453.926016 18.927692 
L 451.951214 18.927692 
L 450.174259 21.051786 
L 448.530584 26.619108 
L 446.721698 32.321822 
L 445.155995 37.115805 
L 443.549241 40.183427 
L 442.106467 42.611086 
L 440.63164 43.166557 
L 439.269923 40.625505 
L 437.951073 36.888125 
L 435.488341 35.473202 
L 433.224812 30.579766 
L 431.143679 30.468488 
L 429.229604 27.33166 
L 426.834965 29.520945 
L 424.358264 32.502333 
L 422.367082 33.624942 
L 420.545322 36.37309 
L 418.59025 37.459602 
L 416.601479 40.020764 
L 414.385383 41.75566 
L 411.962005 42.86016 
L 410.106215 38.284238 
L 408.375361 33.021312 
L 406.894263 26.124341 
L 405.289681 18.927692 
L 403.610952 18.927692 
L 401.701247 18.927692 
L 399.899373 18.927692 
L 398.043583 18.927692 
L 396.651741 18.927692 
L 395.259899 18.927692 
L 393.28631 18.927692 
L 391.54832 18.927692 
L 390.578063 18.927692 
L 389.69253 18.927692 
L 388.764636 18.927692 
L 387.836741 18.927692 
L 386.908846 18.927692 
L 385.980951 18.927692 
L 385.053056 18.927692 
L 384.125162 18.927692 
L 383.197267 18.927692 
L 382.269372 18.927692 
L 381.341477 18.927692 
L 380.832336 18.927692 
L 380.413583 20.224921 
L 379.945558 24.948317 
L 379.485688 27.145556 
L 379.000786 29.504885 
L 378.557793 29.190828 
L 378.056467 31.073496 
L 377.629898 41.572601 
L 377.181086 50.882434 
L 376.702003 56.184021 
L 376.42634 52.657173 
L 376.100674 33.491106 
L 375.781185 27.952276 
L 375.42959 25.187952 
L 374.808605 22.671953 
L 374.157176 21.049978 
L 373.578284 19.94201 
L 372.884762 19.180631 
L 371.612349 19.793905 
L 370.339935 19.811722 
L 367.795107 21.454763 
L 365.100791 21.58325 
L 362.015801 22.54048 
L 358.098232 22.140013 
L 353.582193 22.58901 
L 347.240659 21.291798 
L 338.743693 21.317714 
L 330.136629 20.122041 
L 322.042849 19.603633 
L 314.293433 18.927692 
L 306.108307 18.927692 
L 291.4797 18.927692 
L 277.872644 18.927692 
L 265.803879 18.927692 
L 253.442863 18.927692 
L 242.378625 18.927692 
L 232.059762 18.927692 
L 222.461467 18.927692 
L 215.666289 18.927692 
L 209.304744 18.927692 
L 201.294329 18.927692 
L 193.842604 18.927692 
L 186.901027 18.927692 
L 180.46251 18.927692 
L 174.585426 18.927692 
L 168.88361 18.927692 
L 163.692746 18.927692 
L 158.23472 18.927692 
L 152.242772 18.927692 
L 146.343341 18.927692 
L 140.906123 18.927692 
L 136.064903 18.927692 
L 131.894699 18.927692 
L 126.505652 18.927692 
L 121.795163 18.927692 
L 117.772298 18.927692 
L 114.380297 18.927692 
L 110.878308 18.927692 
L 107.979517 18.927692 
L 105.819849 18.927692 
L 103.578522 18.927692 
L 101.273505 18.927692 
L 99.991406 18.927692 
L 98.820976 18.927692 
L 97.579316 18.927692 
L 96.397416 18.927692 
L 95.299612 18.927692 
L 94.171374 18.927692 
L 93.099922 18.927692 
L 92.004934 18.927692 
L 90.129589 18.927692 
L 88.857321 18.927692 
L 87.435066 18.927692 
L 84.740543 18.927692 
L 83.42602 18.927692 
L 82.213061 164.661481 
L 80.785425 18.927692 
L 79.049287 18.927692 
L 76.852227 18.927692 
L 73.741466 18.927692 
L 69.481777 18.927692 
L 63.647806 18.927692 
L 55.656948 18.927692 
L 44.711179 18.927692 
L 29.717351 18.927692 
L 9.178043 18.927692 
z
" clip-path="url(#p2a1f63434d)" style="fill: #d62728"/>
   </g>
   <g id="matplotlib.axis_1">
    <g id="xtick_1">
     <g id="line2d_1">
      <path d="M 84.740543 617.04 
L 84.740543 7.2 
" clip-path="url(#p2a1f63434d)" style="fill: none; stroke: #b0b0b0; stroke-width: 0.8; stroke-linecap: square"/>
     </g>
     <g id="line2d_2">
      <defs>
       <path id="m9e3a48a865" d="M 0 0 
L 0 3.5 
" style="stroke: #000000; stroke-width: 0.8"/>
      </defs>
      <g>
       <use xlink:href="#m9e3a48a865" x="84.740543" y="617.04" style="stroke: #000000; stroke-width: 0.8"/>
      </g>
     </g>
     <g id="text_1">
      <!-- $\mathdefault{0.0}$ -->
      <g transform="translate(66.968823 644.795495) scale(0.3 -0.3)">
       <defs>
        <path id="CMR17-30" d="M 2688 2025 
C 2688 2416 2682 3080 2413 3591 
C 2176 4039 1798 4198 1466 4198 
C 1158 4198 768 4058 525 3597 
C 269 3118 243 2524 243 2025 
C 243 1661 250 1106 448 619 
C 723 -39 1216 -128 1466 -128 
C 1760 -128 2208 -7 2470 600 
C 2662 1042 2688 1559 2688 2025 
z
M 1466 -26 
C 1056 -26 813 325 723 812 
C 653 1188 653 1738 653 2096 
C 653 2588 653 2997 736 3387 
C 858 3929 1216 4096 1466 4096 
C 1728 4096 2067 3923 2189 3400 
C 2272 3036 2278 2607 2278 2096 
C 2278 1680 2278 1169 2202 792 
C 2067 95 1690 -26 1466 -26 
z
" transform="scale(0.015625)"/>
        <path id="CMMI12-3a" d="M 1178 307 
C 1178 492 1024 619 870 619 
C 685 619 557 466 557 313 
C 557 128 710 0 864 0 
C 1050 0 1178 153 1178 307 
z
" transform="scale(0.015625)"/>
       </defs>
       <use xlink:href="#CMR17-30" transform="scale(0.996264)"/>
       <use xlink:href="#CMMI12-3a" transform="translate(45.690477 0) scale(0.996264)"/>
       <use xlink:href="#CMR17-30" transform="translate(72.787654 0) scale(0.996264)"/>
      </g>
     </g>
    </g>
    <g id="xtick_2">
     <g id="line2d_3">
      <path d="M 235.865543 617.04 
L 235.865543 7.2 
" clip-path="url(#p2a1f63434d)" style="fill: none; stroke: #b0b0b0; stroke-width: 0.8; stroke-linecap: square"/>
     </g>
     <g id="line2d_4">
      <g>
       <use xlink:href="#m9e3a48a865" x="235.865543" y="617.04" style="stroke: #000000; stroke-width: 0.8"/>
      </g>
     </g>
     <g id="text_2">
      <!-- $\mathdefault{0.1}$ -->
      <g transform="translate(218.093823 644.795495) scale(0.3 -0.3)">
       <defs>
        <path id="CMR17-31" d="M 1702 4058 
C 1702 4192 1696 4192 1606 4192 
C 1357 3916 979 3827 621 3827 
C 602 3827 570 3827 563 3808 
C 557 3795 557 3782 557 3648 
C 755 3648 1088 3686 1344 3839 
L 1344 461 
C 1344 236 1331 160 781 160 
L 589 160 
L 589 0 
C 896 0 1216 0 1523 0 
C 1830 0 2150 0 2458 0 
L 2458 160 
L 2266 160 
C 1715 160 1702 230 1702 458 
L 1702 4058 
z
" transform="scale(0.015625)"/>
       </defs>
       <use xlink:href="#CMR17-30" transform="scale(0.996264)"/>
       <use xlink:href="#CMMI12-3a" transform="translate(45.690477 0) scale(0.996264)"/>
       <use xlink:href="#CMR17-31" transform="translate(72.787654 0) scale(0.996264)"/>
      </g>
     </g>
    </g>
    <g id="xtick_3">
     <g id="line2d_5">
      <path d="M 386.990543 617.04 
L 386.990543 7.2 
" clip-path="url(#p2a1f63434d)" style="fill: none; stroke: #b0b0b0; stroke-width: 0.8; stroke-linecap: square"/>
     </g>
     <g id="line2d_6">
      <g>
       <use xlink:href="#m9e3a48a865" x="386.990543" y="617.04" style="stroke: #000000; stroke-width: 0.8"/>
      </g>
     </g>
     <g id="text_3">
      <!-- $\mathdefault{0.2}$ -->
      <g transform="translate(369.218823 644.795495) scale(0.3 -0.3)">
       <defs>
        <path id="CMR17-32" d="M 2669 989 
L 2554 989 
C 2490 536 2438 459 2413 420 
C 2381 369 1920 369 1830 369 
L 602 369 
C 832 619 1280 1072 1824 1597 
C 2214 1967 2669 2402 2669 3035 
C 2669 3790 2067 4224 1395 4224 
C 691 4224 262 3604 262 3030 
C 262 2780 448 2748 525 2748 
C 589 2748 781 2787 781 3010 
C 781 3207 614 3264 525 3264 
C 486 3264 448 3258 422 3245 
C 544 3790 915 4058 1306 4058 
C 1862 4058 2227 3617 2227 3035 
C 2227 2479 1901 2000 1536 1584 
L 262 146 
L 262 0 
L 2515 0 
L 2669 989 
z
" transform="scale(0.015625)"/>
       </defs>
       <use xlink:href="#CMR17-30" transform="scale(0.996264)"/>
       <use xlink:href="#CMMI12-3a" transform="translate(45.690477 0) scale(0.996264)"/>
       <use xlink:href="#CMR17-32" transform="translate(72.787654 0) scale(0.996264)"/>
      </g>
     </g>
    </g>
    <g id="xtick_4">
     <g id="line2d_7">
      <path d="M 538.115543 617.04 
L 538.115543 7.2 
" clip-path="url(#p2a1f63434d)" style="fill: none; stroke: #b0b0b0; stroke-width: 0.8; stroke-linecap: square"/>
     </g>
     <g id="line2d_8">
      <g>
       <use xlink:href="#m9e3a48a865" x="538.115543" y="617.04" style="stroke: #000000; stroke-width: 0.8"/>
      </g>
     </g>
     <g id="text_4">
      <!-- $\mathdefault{0.3}$ -->
      <g transform="translate(520.343823 644.795495) scale(0.3 -0.3)">
       <defs>
        <path id="CMR17-33" d="M 1414 2157 
C 1984 2157 2234 1662 2234 1090 
C 2234 320 1824 25 1453 25 
C 1114 25 563 194 390 693 
C 422 680 454 680 486 680 
C 640 680 755 782 755 948 
C 755 1133 614 1216 486 1216 
C 378 1216 211 1165 211 926 
C 211 335 787 -128 1466 -128 
C 2176 -128 2720 430 2720 1085 
C 2720 1707 2208 2157 1600 2227 
C 2086 2328 2554 2756 2554 3329 
C 2554 3820 2048 4179 1472 4179 
C 890 4179 378 3829 378 3329 
C 378 3110 544 3072 627 3072 
C 762 3072 877 3155 877 3321 
C 877 3486 762 3569 627 3569 
C 602 3569 570 3569 544 3557 
C 730 3959 1235 4032 1459 4032 
C 1683 4032 2106 3925 2106 3320 
C 2106 3143 2080 2828 1862 2550 
C 1670 2304 1453 2304 1242 2284 
C 1210 2284 1062 2269 1037 2269 
C 992 2263 966 2257 966 2208 
C 966 2163 973 2157 1101 2157 
L 1414 2157 
z
" transform="scale(0.015625)"/>
       </defs>
       <use xlink:href="#CMR17-30" transform="scale(0.996264)"/>
       <use xlink:href="#CMMI12-3a" transform="translate(45.690477 0) scale(0.996264)"/>
       <use xlink:href="#CMR17-33" transform="translate(72.787654 0) scale(0.996264)"/>
      </g>
     </g>
    </g>
    <g id="xtick_5">
     <g id="line2d_9">
      <path d="M 689.240543 617.04 
L 689.240543 7.2 
" clip-path="url(#p2a1f63434d)" style="fill: none; stroke: #b0b0b0; stroke-width: 0.8; stroke-linecap: square"/>
     </g>
     <g id="line2d_10">
      <g>
       <use xlink:href="#m9e3a48a865" x="689.240543" y="617.04" style="stroke: #000000; stroke-width: 0.8"/>
      </g>
     </g>
     <g id="text_5">
      <!-- $\mathdefault{0.4}$ -->
      <g transform="translate(671.468823 644.795495) scale(0.3 -0.3)">
       <defs>
        <path id="CMR17-34" d="M 2150 4122 
C 2150 4256 2144 4256 2029 4256 
L 128 1254 
L 128 1088 
L 1779 1088 
L 1779 457 
C 1779 224 1766 160 1318 160 
L 1197 160 
L 1197 0 
C 1402 0 1747 0 1965 0 
C 2182 0 2528 0 2733 0 
L 2733 160 
L 2611 160 
C 2163 160 2150 224 2150 457 
L 2150 1088 
L 2803 1088 
L 2803 1254 
L 2150 1254 
L 2150 4122 
z
M 1798 3703 
L 1798 1254 
L 256 1254 
L 1798 3703 
z
" transform="scale(0.015625)"/>
       </defs>
       <use xlink:href="#CMR17-30" transform="scale(0.996264)"/>
       <use xlink:href="#CMMI12-3a" transform="translate(45.690477 0) scale(0.996264)"/>
       <use xlink:href="#CMR17-34" transform="translate(72.787654 0) scale(0.996264)"/>
      </g>
     </g>
    </g>
    <g id="text_6">
     <!-- $x, \; m $ -->
     <g transform="translate(410.316604 678.823697) scale(0.35 -0.35)">
      <defs>
       <path id="CMMI12-78" d="M 3034 2606 
C 2829 2567 2752 2414 2752 2293 
C 2752 2139 2874 2088 2963 2088 
C 3155 2088 3290 2254 3290 2427 
C 3290 2695 2982 2816 2714 2816 
C 2323 2816 2106 2433 2048 2312 
C 1901 2816 1504 2816 1389 2816 
C 736 2816 390 1980 390 1839 
C 390 1814 416 1782 461 1782 
C 512 1782 525 1820 538 1846 
C 755 2555 1184 2689 1370 2689 
C 1658 2689 1715 2420 1715 2267 
C 1715 2127 1677 1980 1600 1673 
L 1382 798 
C 1286 415 1101 64 762 64 
C 730 64 570 64 435 147 
C 666 192 717 383 717 460 
C 717 588 621 664 499 664 
C 346 664 179 530 179 326 
C 179 57 480 -64 755 -64 
C 1062 -64 1280 179 1414 441 
C 1517 64 1837 -64 2074 -64 
C 2726 -64 3072 773 3072 913 
C 3072 945 3046 971 3008 971 
C 2950 971 2944 939 2925 888 
C 2752 326 2381 64 2093 64 
C 1869 64 1747 230 1747 492 
C 1747 632 1773 734 1875 1156 
L 2099 2024 
C 2195 2408 2413 2689 2707 2689 
C 2720 2689 2899 2689 3034 2606 
z
" transform="scale(0.015625)"/>
       <path id="CMMI12-3b" d="M 1248 -31 
C 1248 343 1126 619 864 619 
C 659 619 557 453 557 313 
C 557 172 653 0 870 0 
C 954 0 1024 26 1082 83 
C 1094 96 1101 96 1107 96 
C 1120 96 1120 5 1120 -27 
C 1120 -240 1082 -659 710 -1080 
C 640 -1157 640 -1170 640 -1183 
C 640 -1216 672 -1248 704 -1248 
C 755 -1248 1248 -771 1248 -31 
z
" transform="scale(0.015625)"/>
       <path id="CMMI12-6d" d="M 1318 1871 
C 1331 1910 1491 2229 1728 2433 
C 1894 2586 2112 2689 2362 2689 
C 2618 2689 2707 2497 2707 2242 
C 2707 2203 2707 2076 2630 1775 
L 2470 1118 
C 2419 926 2298 453 2285 383 
C 2259 287 2221 121 2221 96 
C 2221 6 2291 -64 2387 -64 
C 2579 -64 2611 83 2669 313 
L 3053 1839 
C 3066 1890 3398 2689 4102 2689 
C 4358 2689 4448 2497 4448 2242 
C 4448 1884 4198 1188 4058 805 
C 4000 651 3968 568 3968 453 
C 3968 166 4166 -64 4474 -64 
C 5069 -64 5293 875 5293 913 
C 5293 945 5267 971 5229 971 
C 5171 971 5165 952 5133 843 
C 4986 332 4749 64 4493 64 
C 4429 64 4326 64 4326 269 
C 4326 436 4403 640 4429 710 
C 4544 1018 4832 1773 4832 2145 
C 4832 2528 4608 2816 4122 2816 
C 3693 2816 3347 2574 3091 2197 
C 3072 2542 2861 2816 2381 2816 
C 1811 2816 1510 2415 1395 2255 
C 1376 2618 1114 2816 832 2816 
C 646 2816 499 2727 378 2484 
C 262 2254 173 1865 173 1839 
C 173 1814 198 1782 243 1782 
C 294 1782 301 1788 339 1935 
C 435 2312 557 2689 813 2689 
C 960 2689 1011 2586 1011 2395 
C 1011 2254 947 2005 902 1807 
L 723 1118 
C 698 996 627 709 595 594 
C 550 428 480 128 480 96 
C 480 6 550 -64 646 -64 
C 723 -64 813 -26 864 70 
C 877 102 934 326 966 453 
L 1107 1028 
L 1318 1871 
z
" transform="scale(0.015625)"/>
      </defs>
      <use xlink:href="#CMMI12-78" transform="scale(0.996264)"/>
      <use xlink:href="#CMMI12-3b" transform="translate(55.43406 0) scale(0.996264)"/>
      <use xlink:href="#CMMI12-6d" transform="translate(126.809651 0) scale(0.996264)"/>
     </g>
    </g>
   </g>
   <g id="matplotlib.axis_2">
    <g id="ytick_1">
     <g id="line2d_11">
      <path d="M 84.740543 605.312308 
L 810.140543 605.312308 
" clip-path="url(#p2a1f63434d)" style="fill: none; stroke: #b0b0b0; stroke-width: 0.8; stroke-linecap: square"/>
     </g>
     <g id="line2d_12">
      <defs>
       <path id="mb2eb206aeb" d="M 0 0 
L -3.5 0 
" style="stroke: #000000; stroke-width: 0.8"/>
      </defs>
      <g>
       <use xlink:href="#mb2eb206aeb" x="84.740543" y="605.312308" style="stroke: #000000; stroke-width: 0.8"/>
      </g>
     </g>
     <g id="text_7">
      <!-- $\mathdefault{0.0}$ -->
      <g transform="translate(42.197103 615.690055) scale(0.3 -0.3)">
       <use xlink:href="#CMR17-30" transform="scale(0.996264)"/>
       <use xlink:href="#CMMI12-3a" transform="translate(45.690477 0) scale(0.996264)"/>
       <use xlink:href="#CMR17-30" transform="translate(72.787654 0) scale(0.996264)"/>
      </g>
     </g>
    </g>
    <g id="ytick_2">
     <g id="line2d_13">
      <path d="M 84.740543 488.035385 
L 810.140543 488.035385 
" clip-path="url(#p2a1f63434d)" style="fill: none; stroke: #b0b0b0; stroke-width: 0.8; stroke-linecap: square"/>
     </g>
     <g id="line2d_14">
      <g>
       <use xlink:href="#mb2eb206aeb" x="84.740543" y="488.035385" style="stroke: #000000; stroke-width: 0.8"/>
      </g>
     </g>
     <g id="text_8">
      <!-- $\mathdefault{0.2}$ -->
      <g transform="translate(42.197103 498.413132) scale(0.3 -0.3)">
       <use xlink:href="#CMR17-30" transform="scale(0.996264)"/>
       <use xlink:href="#CMMI12-3a" transform="translate(45.690477 0) scale(0.996264)"/>
       <use xlink:href="#CMR17-32" transform="translate(72.787654 0) scale(0.996264)"/>
      </g>
     </g>
    </g>
    <g id="ytick_3">
     <g id="line2d_15">
      <path d="M 84.740543 370.758462 
L 810.140543 370.758462 
" clip-path="url(#p2a1f63434d)" style="fill: none; stroke: #b0b0b0; stroke-width: 0.8; stroke-linecap: square"/>
     </g>
     <g id="line2d_16">
      <g>
       <use xlink:href="#mb2eb206aeb" x="84.740543" y="370.758462" style="stroke: #000000; stroke-width: 0.8"/>
      </g>
     </g>
     <g id="text_9">
      <!-- $\mathdefault{0.4}$ -->
      <g transform="translate(42.197103 381.136209) scale(0.3 -0.3)">
       <use xlink:href="#CMR17-30" transform="scale(0.996264)"/>
       <use xlink:href="#CMMI12-3a" transform="translate(45.690477 0) scale(0.996264)"/>
       <use xlink:href="#CMR17-34" transform="translate(72.787654 0) scale(0.996264)"/>
      </g>
     </g>
    </g>
    <g id="ytick_4">
     <g id="line2d_17">
      <path d="M 84.740543 253.481538 
L 810.140543 253.481538 
" clip-path="url(#p2a1f63434d)" style="fill: none; stroke: #b0b0b0; stroke-width: 0.8; stroke-linecap: square"/>
     </g>
     <g id="line2d_18">
      <g>
       <use xlink:href="#mb2eb206aeb" x="84.740543" y="253.481538" style="stroke: #000000; stroke-width: 0.8"/>
      </g>
     </g>
     <g id="text_10">
      <!-- $\mathdefault{0.6}$ -->
      <g transform="translate(42.197103 263.859286) scale(0.3 -0.3)">
       <defs>
        <path id="CMR17-36" d="M 678 2176 
C 678 3690 1395 4032 1811 4032 
C 1946 4032 2272 4009 2400 3776 
C 2298 3776 2106 3776 2106 3553 
C 2106 3381 2246 3323 2336 3323 
C 2394 3323 2566 3348 2566 3560 
C 2566 3954 2246 4179 1805 4179 
C 1043 4179 243 3390 243 1984 
C 243 253 966 -128 1478 -128 
C 2099 -128 2688 427 2688 1283 
C 2688 2081 2170 2662 1517 2662 
C 1126 2662 838 2407 678 1960 
L 678 2176 
z
M 1478 25 
C 691 25 691 1200 691 1436 
C 691 1896 909 2560 1504 2560 
C 1613 2560 1926 2560 2138 2120 
C 2253 1870 2253 1609 2253 1289 
C 2253 944 2253 690 2118 434 
C 1978 171 1773 25 1478 25 
z
" transform="scale(0.015625)"/>
       </defs>
       <use xlink:href="#CMR17-30" transform="scale(0.996264)"/>
       <use xlink:href="#CMMI12-3a" transform="translate(45.690477 0) scale(0.996264)"/>
       <use xlink:href="#CMR17-36" transform="translate(72.787654 0) scale(0.996264)"/>
      </g>
     </g>
    </g>
    <g id="ytick_5">
     <g id="line2d_19">
      <path d="M 84.740543 136.204615 
L 810.140543 136.204615 
" clip-path="url(#p2a1f63434d)" style="fill: none; stroke: #b0b0b0; stroke-width: 0.8; stroke-linecap: square"/>
     </g>
     <g id="line2d_20">
      <g>
       <use xlink:href="#mb2eb206aeb" x="84.740543" y="136.204615" style="stroke: #000000; stroke-width: 0.8"/>
      </g>
     </g>
     <g id="text_11">
      <!-- $\mathdefault{0.8}$ -->
      <g transform="translate(42.197103 146.582363) scale(0.3 -0.3)">
       <defs>
        <path id="CMR17-38" d="M 1741 2264 
C 2144 2467 2554 2773 2554 3263 
C 2554 3841 1990 4179 1472 4179 
C 890 4179 378 3759 378 3180 
C 378 3021 416 2747 666 2505 
C 730 2442 998 2251 1171 2130 
C 883 1983 211 1634 211 934 
C 211 279 838 -128 1459 -128 
C 2144 -128 2720 362 2720 1010 
C 2720 1590 2330 1857 2074 2029 
L 1741 2264 
z
M 902 2822 
C 851 2854 595 3051 595 3351 
C 595 3739 998 4032 1459 4032 
C 1965 4032 2336 3676 2336 3262 
C 2336 2669 1670 2331 1638 2331 
C 1632 2331 1626 2331 1574 2370 
L 902 2822 
z
M 2080 1519 
C 2176 1449 2483 1240 2483 851 
C 2483 381 2010 25 1472 25 
C 890 25 448 438 448 940 
C 448 1443 838 1862 1280 2060 
L 2080 1519 
z
" transform="scale(0.015625)"/>
       </defs>
       <use xlink:href="#CMR17-30" transform="scale(0.996264)"/>
       <use xlink:href="#CMMI12-3a" transform="translate(45.690477 0) scale(0.996264)"/>
       <use xlink:href="#CMR17-38" transform="translate(72.787654 0) scale(0.996264)"/>
      </g>
     </g>
    </g>
    <g id="ytick_6">
     <g id="line2d_21">
      <path d="M 84.740543 18.927692 
L 810.140543 18.927692 
" clip-path="url(#p2a1f63434d)" style="fill: none; stroke: #b0b0b0; stroke-width: 0.8; stroke-linecap: square"/>
     </g>
     <g id="line2d_22">
      <g>
       <use xlink:href="#mb2eb206aeb" x="84.740543" y="18.927692" style="stroke: #000000; stroke-width: 0.8"/>
      </g>
     </g>
     <g id="text_12">
      <!-- $\mathdefault{1.0}$ -->
      <g transform="translate(42.197103 29.30544) scale(0.3 -0.3)">
       <use xlink:href="#CMR17-31" transform="scale(0.996264)"/>
       <use xlink:href="#CMMI12-3a" transform="translate(45.690477 0) scale(0.996264)"/>
       <use xlink:href="#CMR17-30" transform="translate(72.787654 0) scale(0.996264)"/>
      </g>
     </g>
    </g>
    <g id="text_13">
     <!-- $S_1, \; -$ -->
     <g transform="translate(31.414752 354.516175) rotate(-90) scale(0.35 -0.35)">
      <defs>
       <path id="CMMI12-53" d="M 4064 4423 
C 4064 4480 4019 4480 4006 4480 
C 3981 4480 3974 4474 3898 4378 
C 3859 4333 3597 4001 3590 3995 
C 3379 4410 2957 4480 2688 4480 
C 1875 4480 1139 3743 1139 3025 
C 1139 2549 1427 2269 1741 2161 
C 1811 2135 2189 2033 2381 1989 
C 2707 1900 2790 1875 2925 1735 
C 2950 1703 3078 1557 3078 1258 
C 3078 667 2528 57 1888 57 
C 1363 57 781 280 781 991 
C 781 1112 806 1265 826 1328 
C 826 1348 832 1378 832 1391 
C 832 1417 819 1449 768 1449 
C 710 1449 704 1436 678 1328 
L 352 24 
C 352 18 326 -64 326 -71 
C 326 -128 378 -128 390 -128 
C 416 -128 422 -122 499 -26 
L 794 356 
C 947 126 1280 -128 1875 -128 
C 2701 -128 3456 666 3456 1460 
C 3456 1728 3392 1963 3149 2197 
C 3014 2331 2899 2363 2310 2516 
C 1882 2630 1824 2649 1709 2751 
C 1600 2858 1517 3011 1517 3227 
C 1517 3761 2061 4308 2669 4308 
C 3296 4308 3590 3926 3590 3323 
C 3590 3158 3558 2986 3558 2961 
C 3558 2903 3610 2903 3629 2903 
C 3686 2903 3693 2922 3718 3024 
L 4064 4423 
z
" transform="scale(0.015625)"/>
       <path id="CMSY10-0" d="M 4218 1472 
C 4326 1472 4442 1472 4442 1600 
C 4442 1728 4326 1728 4218 1728 
L 755 1728 
C 646 1728 531 1728 531 1600 
C 531 1472 646 1472 755 1472 
L 4218 1472 
z
" transform="scale(0.015625)"/>
      </defs>
      <use xlink:href="#CMMI12-53" transform="scale(0.996264)"/>
      <use xlink:href="#CMR17-31" transform="translate(59.994488 -14.943915) scale(0.697382)"/>
      <use xlink:href="#CMMI12-3b" transform="translate(92.475802 0) scale(0.996264)"/>
      <use xlink:href="#CMSY10-0" transform="translate(163.851393 0) scale(0.996264)"/>
     </g>
    </g>
   </g>
   <g id="patch_3">
    <path d="M 84.740543 617.04 
L 84.740543 7.2 
" style="fill: none; stroke: #000000; stroke-width: 0.8; stroke-linejoin: miter; stroke-linecap: square"/>
   </g>
   <g id="patch_4">
    <path d="M 810.140543 617.04 
L 810.140543 7.2 
" style="fill: none; stroke: #000000; stroke-width: 0.8; stroke-linejoin: miter; stroke-linecap: square"/>
   </g>
   <g id="patch_5">
    <path d="M 84.740543 617.04 
L 810.140543 617.04 
" style="fill: none; stroke: #000000; stroke-width: 0.8; stroke-linejoin: miter; stroke-linecap: square"/>
   </g>
   <g id="patch_6">
    <path d="M 84.740543 7.2 
L 810.140543 7.2 
" style="fill: none; stroke: #000000; stroke-width: 0.8; stroke-linejoin: miter; stroke-linecap: square"/>
   </g>
   <g id="legend_1">
    <g id="patch_7">
     <path d="M 833.436089 232.438667 
L 992.379543 232.438667 
Q 999.379543 232.438667 999.379543 225.438667 
L 999.379543 31.7 
Q 999.379543 24.7 992.379543 24.7 
L 833.436089 24.7 
Q 826.436089 24.7 826.436089 31.7 
L 826.436089 225.438667 
Q 826.436089 232.438667 833.436089 232.438667 
z
" style="fill: #ffffff; opacity: 0.8; stroke: #cccccc; stroke-linejoin: miter"/>
    </g>
    <g id="patch_8">
     <path d="M 840.436089 63.2 
L 910.436089 63.2 
L 910.436089 38.7 
L 840.436089 38.7 
z
" style="fill: #1f77b4"/>
    </g>
    <g id="text_14">
     <!-- $M$ -->
     <g transform="translate(938.436089 63.2) scale(0.35 -0.35)">
      <defs>
       <path id="CMMI12-4d" d="M 5811 3886 
C 5869 4103 5882 4167 6336 4167 
C 6458 4167 6515 4167 6515 4288 
C 6515 4352 6470 4352 6349 4352 
L 5581 4352 
C 5421 4352 5414 4346 5344 4243 
L 3008 562 
L 2528 4211 
C 2509 4352 2502 4352 2336 4352 
L 1542 4352 
C 1421 4352 1363 4352 1363 4231 
C 1363 4167 1421 4167 1517 4167 
C 1907 4167 1907 4116 1907 4046 
C 1907 4034 1907 3995 1882 3899 
L 1062 634 
C 986 327 838 186 410 186 
C 390 186 314 186 314 73 
C 314 0 371 0 397 0 
C 525 0 851 0 979 0 
L 1286 0 
C 1376 0 1485 0 1574 0 
C 1619 0 1690 0 1690 122 
C 1690 180 1626 186 1600 186 
C 1389 186 1184 224 1184 454 
C 1184 518 1184 524 1210 613 
L 2093 4129 
L 2099 4129 
L 2630 172 
C 2650 19 2656 0 2714 0 
C 2784 0 2816 51 2848 109 
L 5421 4161 
L 5427 4161 
L 4499 473 
C 4442 250 4429 186 3981 186 
C 3859 186 3795 186 3795 70 
C 3795 0 3853 0 3891 0 
C 4000 0 4128 0 4237 0 
L 4992 0 
C 5101 0 5235 0 5344 0 
C 5395 0 5466 0 5466 122 
C 5466 186 5408 186 5312 186 
C 4922 186 4922 234 4922 294 
C 4922 301 4922 345 4934 396 
L 5811 3886 
z
" transform="scale(0.015625)"/>
      </defs>
      <use xlink:href="#CMMI12-4d" transform="scale(0.996264)"/>
     </g>
    </g>
    <g id="patch_9">
     <path d="M 840.436089 111.982351 
L 910.436089 111.982351 
L 910.436089 87.482351 
L 840.436089 87.482351 
z
" style="fill: #ff7f0e"/>
    </g>
    <g id="text_15">
     <!-- $P$ -->
     <g transform="translate(938.436089 111.982351) scale(0.35 -0.35)">
      <defs>
       <path id="CMMI12-50" d="M 1894 2023 
L 2970 2023 
C 3853 2023 4736 2673 4736 3401 
C 4736 3898 4314 4352 3507 4352 
L 1530 4352 
C 1408 4352 1350 4352 1350 4231 
C 1350 4167 1408 4167 1504 4167 
C 1894 4167 1894 4116 1894 4046 
C 1894 4034 1894 3995 1869 3899 
L 1005 472 
C 947 249 934 185 486 185 
C 365 185 301 185 301 70 
C 301 0 358 0 397 0 
C 518 0 646 0 768 0 
L 1517 0 
C 1638 0 1773 0 1894 0 
C 1946 0 2016 0 2016 121 
C 2016 185 1958 185 1862 185 
C 1478 185 1472 230 1472 293 
C 1472 325 1478 369 1485 401 
L 1894 2023 
z
M 2355 3930 
C 2413 4167 2438 4167 2688 4167 
L 3322 4167 
C 3802 4167 4198 4013 4198 3535 
C 4198 3369 4115 2827 3821 2534 
C 3712 2419 3405 2176 2822 2176 
L 1920 2176 
L 2355 3930 
z
" transform="scale(0.015625)"/>
      </defs>
      <use xlink:href="#CMMI12-50" transform="scale(0.996264)"/>
     </g>
    </g>
    <g id="patch_10">
     <path d="M 840.436089 160.764702 
L 910.436089 160.764702 
L 910.436089 136.264702 
L 840.436089 136.264702 
z
" style="fill: #2ca02c"/>
    </g>
    <g id="text_16">
     <!-- $T$ -->
     <g transform="translate(938.436089 160.764702) scale(0.35 -0.35)">
      <defs>
       <path id="CMMI12-54" d="M 2669 3910 
C 2707 4064 2720 4121 2816 4147 
C 2867 4160 3078 4160 3213 4160 
C 3853 4160 4154 4134 4154 3634 
C 4154 3537 4128 3295 4090 3057 
L 4083 2980 
C 4083 2954 4109 2916 4147 2916 
C 4211 2916 4211 2948 4230 3050 
L 4416 4184 
C 4429 4243 4429 4256 4429 4275 
C 4429 4345 4390 4345 4262 4345 
L 762 4345 
C 614 4345 608 4339 570 4224 
L 179 3070 
C 173 3056 154 2986 154 2980 
C 154 2948 179 2916 218 2916 
C 269 2916 282 2941 307 3024 
C 576 3801 710 4160 1562 4160 
L 1990 4160 
C 2144 4160 2208 4160 2208 4089 
C 2208 4069 2208 4057 2176 3941 
L 1318 499 
C 1254 249 1242 185 563 185 
C 403 185 358 185 358 64 
C 358 0 429 0 461 0 
C 621 0 787 0 947 0 
L 1946 0 
C 2106 0 2278 0 2438 0 
C 2509 0 2573 0 2573 121 
C 2573 185 2528 185 2362 185 
C 1786 185 1786 243 1786 339 
C 1786 346 1786 391 1811 494 
L 2669 3910 
z
" transform="scale(0.015625)"/>
      </defs>
      <use xlink:href="#CMMI12-54" transform="scale(0.996264)"/>
     </g>
    </g>
    <g id="patch_11">
     <path d="M 840.436089 209.547054 
L 910.436089 209.547054 
L 910.436089 185.047054 
L 840.436089 185.047054 
z
" style="fill: #d62728"/>
    </g>
    <g id="text_17">
     <!-- $Y_{N_2}$ -->
     <g transform="translate(938.436089 209.547054) scale(0.35 -0.35)">
      <defs>
       <path id="CMMI12-59" d="M 3763 3645 
L 3910 3791 
C 4192 4078 4429 4149 4653 4167 
C 4723 4173 4781 4179 4781 4288 
C 4781 4352 4717 4352 4704 4352 
C 4627 4352 4544 4352 4467 4352 
L 4205 4352 
C 4019 4352 3821 4352 3642 4352 
C 3597 4352 3526 4352 3526 4226 
C 3526 4166 3590 4160 3610 4160 
C 3802 4160 3802 4064 3802 4026 
C 3802 3956 3750 3860 3622 3713 
L 2099 1969 
L 1376 3911 
C 1338 4000 1338 4013 1338 4026 
C 1338 4160 1600 4160 1677 4160 
C 1754 4160 1824 4160 1824 4279 
C 1824 4352 1766 4352 1728 4352 
C 1619 4352 1491 4352 1382 4352 
L 672 4352 
C 557 4352 435 4352 326 4352 
C 282 4352 211 4352 211 4226 
C 211 4160 269 4160 365 4160 
C 678 4160 736 4102 794 3956 
L 1587 1835 
C 1594 1816 1613 1745 1613 1726 
C 1613 1707 1299 452 1280 388 
C 1229 217 1165 185 755 185 
C 646 185 595 185 595 64 
C 595 0 666 0 685 0 
C 800 0 934 0 1056 0 
L 1811 0 
C 1926 0 2061 0 2176 0 
C 2221 0 2298 0 2298 115 
C 2298 185 2253 185 2144 185 
C 1747 185 1747 230 1747 300 
C 1747 345 1798 548 1830 676 
L 2061 1594 
C 2099 1727 2099 1739 2157 1803 
L 3763 3645 
z
" transform="scale(0.015625)"/>
       <path id="CMMI12-4e" d="M 4736 3698 
C 4806 3974 4909 4166 5395 4166 
C 5414 4166 5491 4166 5491 4279 
C 5491 4352 5434 4352 5408 4352 
C 5280 4352 4954 4352 4826 4352 
L 4518 4352 
C 4429 4352 4314 4352 4224 4352 
C 4186 4352 4109 4352 4109 4230 
C 4109 4166 4160 4166 4205 4166 
C 4589 4166 4614 4019 4614 3903 
C 4614 3846 4608 3826 4589 3737 
L 3866 850 
L 2496 4249 
C 2451 4352 2445 4352 2304 4352 
L 1523 4352 
C 1395 4352 1338 4352 1338 4230 
C 1338 4166 1382 4166 1504 4166 
C 1536 4166 1914 4166 1914 4115 
C 1914 4102 1901 4051 1894 4032 
L 1043 635 
C 966 320 813 186 390 186 
C 358 186 294 186 294 67 
C 294 0 358 0 378 0 
C 506 0 832 0 960 0 
L 1267 0 
C 1357 0 1466 0 1555 0 
C 1600 0 1670 0 1670 122 
C 1670 180 1606 186 1581 186 
C 1370 186 1165 224 1165 454 
C 1165 505 1178 562 1190 613 
L 2054 4032 
C 2093 3968 2093 3956 2118 3898 
L 3642 115 
C 3674 38 3686 0 3744 0 
C 3808 0 3814 19 3840 128 
L 4736 3698 
z
" transform="scale(0.015625)"/>
      </defs>
      <use xlink:href="#CMMI12-59" transform="scale(0.996264)"/>
      <use xlink:href="#CMMI12-4e" transform="translate(56.598607 -14.943915) scale(0.697382)"/>
      <use xlink:href="#CMR17-32" transform="translate(111.278947 -25.404611) scale(0.498132)"/>
     </g>
    </g>
   </g>
  </g>
 </g>
 <defs>
  <clipPath id="p2a1f63434d">
   <rect x="84.740543" y="7.2" width="725.4" height="609.84"/>
  </clipPath>
 </defs>
</svg>
