<?xml version="1.0" encoding="utf-8" standalone="no"?>
<!DOCTYPE svg PUBLIC "-//W3C//DTD SVG 1.1//EN"
  "http://www.w3.org/Graphics/SVG/1.1/DTD/svg11.dtd">
<svg xmlns:xlink="http://www.w3.org/1999/xlink" width="817.340543pt" height="692.806049pt" viewBox="0 0 817.340543 692.806049" xmlns="http://www.w3.org/2000/svg" version="1.1">
 <metadata>
  <rdf:RDF xmlns:dc="http://purl.org/dc/elements/1.1/" xmlns:cc="http://creativecommons.org/ns#" xmlns:rdf="http://www.w3.org/1999/02/22-rdf-syntax-ns#">
   <cc:Work>
    <dc:type rdf:resource="http://purl.org/dc/dcmitype/StillImage"/>
    <dc:date>2025-03-26T16:04:26.055295</dc:date>
    <dc:format>image/svg+xml</dc:format>
    <dc:creator>
     <cc:Agent>
      <dc:title>Matplotlib v3.7.1, https://matplotlib.org/</dc:title>
     </cc:Agent>
    </dc:creator>
   </cc:Work>
  </rdf:RDF>
 </metadata>
 <defs>
  <style type="text/css">*{stroke-linejoin: round; stroke-linecap: butt}</style>
 </defs>
 <g id="figure_1">
  <g id="patch_1">
   <path d="M 0 692.806049 
L 817.340543 692.806049 
L 817.340543 0 
L 0 0 
z
" style="fill: #ffffff"/>
  </g>
  <g id="axes_1">
   <g id="patch_2">
    <path d="M 84.740543 617.04 
L 810.140543 617.04 
L 810.140543 7.2 
L 84.740543 7.2 
z
" style="fill: #ffffff"/>
   </g>
   <g id="PolyCollection_1">
    <path d="M -529.448308 605.312308 
L -529.448308 605.312308 
L -495.096852 605.312308 
L -470.020065 605.312308 
L -451.713553 605.312308 
L -438.349052 605.312308 
L -428.591888 605.312308 
L -421.467669 605.312308 
L -416.265003 605.312308 
L -412.464478 605.312308 
L -409.686832 605.312308 
L -407.469009 605.312308 
L -405.270505 605.312308 
L -403.072001 605.312308 
L -400.818741 605.312308 
L -398.565481 605.312308 
L -396.312222 605.312308 
L -394.058962 605.312308 
L -391.805702 605.312308 
L -389.552442 605.312308 
L -387.299183 605.312308 
L -385.045923 605.312308 
L -382.792663 605.312308 
L -380.539403 605.312308 
L -378.286143 605.312308 
L -376.032884 605.312308 
L -373.779624 605.312308 
L -371.526364 605.312308 
L -369.273104 605.312308 
L -367.019844 605.312308 
L -364.766585 605.312308 
L -362.513325 605.312308 
L -360.260065 605.312308 
L -358.006805 605.312308 
L -355.753546 605.312308 
L -353.500286 605.312308 
L -351.247026 605.312308 
L -348.993766 605.312308 
L -346.740506 605.312308 
L -344.487247 605.312308 
L -342.233987 605.312308 
L -339.980727 605.312308 
L -337.727467 605.312308 
L -335.474207 605.312308 
L -333.220948 605.312308 
L -330.967688 605.312308 
L -328.714428 605.312308 
L -326.461168 605.312308 
L -324.207906 605.312308 
L -321.89788 605.312308 
L -319.505319 605.312308 
L -317.026662 605.312308 
L -314.457166 605.312308 
L -311.79197 605.312308 
L -309.028283 605.312308 
L -306.162775 605.312308 
L -303.191567 605.312308 
L -300.110397 605.312308 
L -296.916571 605.312308 
L -293.606754 605.312308 
L -290.176287 605.312308 
L -286.618905 605.312308 
L -282.927535 605.312308 
L -279.103848 605.312308 
L -275.139245 605.312308 
L -271.026505 605.312308 
L -266.765383 605.312308 
L -262.34492 605.312308 
L -257.762664 605.312308 
L -253.013176 605.312308 
L -248.086908 605.312308 
L -242.979512 605.312308 
L -237.684611 605.312308 
L -232.194938 605.312308 
L -226.503071 605.312308 
L -220.601654 605.312308 
L -214.483221 605.312308 
L -208.139688 605.312308 
L -201.5616 605.312308 
L -194.741629 605.312308 
L -187.670851 605.312308 
L -180.339261 605.312308 
L -172.737355 605.312308 
L -164.856033 605.312308 
L -156.684456 605.312308 
L -148.211606 605.312308 
L -139.426428 605.312308 
L -130.31782 605.312308 
L -120.921779 605.312308 
L -111.254796 605.312308 
L -101.231949 605.312308 
L -90.839193 605.312308 
L -80.063608 605.312308 
L -68.890841 605.312308 
L -57.306163 605.312308 
L -45.294584 605.312308 
L -32.8402 605.312308 
L -19.926484 605.312308 
L -6.536727 605.312308 
L 7.346541 605.312308 
L 21.74163 605.312308 
L 35.952583 605.312308 
L 46.558634 605.312308 
L 54.11159 605.312308 
L 59.49126 605.312308 
L 63.323822 605.312308 
L 66.054892 605.312308 
L 68.201283 605.312308 
L 70.329362 605.312308 
L 72.457441 605.312308 
L 74.585519 605.312308 
L 76.713598 605.312308 
L 78.841677 605.312308 
L 80.969755 605.312308 
L 83.097834 605.312308 
L 85.225913 605.312308 
L 86.777793 605.312308 
L 88.329672 605.312308 
L 89.881552 605.312308 
L 91.433432 605.312308 
L 92.985312 605.312308 
L 94.537191 605.312308 
L 96.089071 605.312308 
L 97.640951 605.312308 
L 99.192831 605.312308 
L 100.74471 605.312308 
L 102.29659 605.312308 
L 103.84847 605.312308 
L 105.40035 605.312308 
L 106.952229 605.312308 
L 108.504109 605.312308 
L 110.055989 605.312308 
L 111.607869 605.312308 
L 113.159749 605.312308 
L 114.711628 605.312308 
L 116.263508 605.312308 
L 117.815388 605.312308 
L 119.367268 605.312308 
L 120.919147 605.312308 
L 122.471027 605.312308 
L 124.022907 605.312308 
L 125.574787 605.312308 
L 127.126666 605.312308 
L 128.678546 605.312308 
L 130.230426 605.312308 
L 131.782306 605.312308 
L 133.334185 605.312308 
L 134.886065 605.312308 
L 136.437945 605.312308 
L 137.989825 605.312308 
L 139.541705 605.312308 
L 141.093584 605.312308 
L 142.645464 605.312308 
L 144.197344 605.312308 
L 145.749224 605.312308 
L 147.301103 605.312308 
L 148.852983 605.312308 
L 150.404863 605.312308 
L 151.956743 605.312308 
L 153.508622 605.312308 
L 155.076395 605.312308 
L 156.741484 605.312308 
L 158.552717 605.312308 
L 160.505638 605.312308 
L 162.627094 605.312308 
L 164.929764 605.312308 
L 167.424436 605.312308 
L 170.132168 605.312308 
L 173.076952 605.312308 
L 176.278192 605.312308 
L 179.758833 605.312308 
L 183.544527 605.312308 
L 187.663381 605.312308 
L 192.146559 605.312308 
L 197.026171 605.312308 
L 202.332023 605.312308 
L 208.106339 605.312308 
L 214.381055 605.312308 
L 221.199394 605.312308 
L 228.596977 605.312308 
L 236.610147 605.312308 
L 245.271717 605.312308 
L 254.602991 605.312308 
L 264.608895 605.312308 
L 275.25752 605.312308 
L 286.3849 605.312308 
L 297.558434 605.312308 
L 308.731968 605.312308 
L 319.905503 605.312308 
L 331.079037 605.312308 
L 342.252571 605.312308 
L 353.426105 605.312308 
L 364.59964 605.312308 
L 375.773174 605.312308 
L 386.946708 605.312308 
L 398.120243 605.312308 
L 409.293777 605.312308 
L 420.467311 605.312308 
L 431.640846 605.312308 
L 442.81438 605.312308 
L 458.611418 605.312308 
L 474.408457 605.312308 
L 490.205495 605.312308 
L 506.002533 605.312308 
L 521.799572 605.312308 
L 537.59661 605.312308 
L 553.393648 605.312308 
L 569.190687 605.312308 
L 584.987725 605.312308 
L 600.784763 605.312308 
L 616.581802 605.312308 
L 632.37884 605.312308 
L 648.175878 605.312308 
L 663.972917 605.312308 
L 679.769955 605.312308 
L 695.566993 605.312308 
L 711.364032 605.312308 
L 727.16107 605.312308 
L 742.958108 605.312308 
L 758.755147 605.312308 
L 774.552185 605.312308 
L 790.349223 605.312308 
L 806.146262 605.312308 
L 821.9433 605.312308 
L 821.9433 409.884374 
L 821.9433 409.884374 
L 806.146262 409.927485 
L 790.349223 410.014745 
L 774.552185 410.145961 
L 758.755147 410.323104 
L 742.958108 410.545117 
L 727.16107 410.81365 
L 711.364032 411.126591 
L 695.566993 411.484222 
L 679.769955 411.883138 
L 663.972917 412.321555 
L 648.175878 412.794604 
L 632.37884 413.29682 
L 616.581802 413.818839 
L 600.784763 414.350067 
L 584.987725 414.877803 
L 569.190687 415.382482 
L 553.393648 415.846979 
L 537.59661 416.229623 
L 521.799572 416.543345 
L 506.002533 416.623821 
L 490.205495 416.813802 
L 474.408457 416.36683 
L 458.611418 416.567911 
L 442.81438 415.609175 
L 431.640846 415.420235 
L 420.467311 414.298573 
L 409.293777 413.289833 
L 398.120243 411.669869 
L 386.946708 409.553015 
L 375.773174 406.607522 
L 364.59964 402.681295 
L 353.426105 397.680107 
L 342.252571 391.245094 
L 331.079037 383.390757 
L 319.905503 374.572171 
L 308.731968 364.930118 
L 297.558434 354.919943 
L 286.3849 344.294796 
L 275.25752 333.248834 
L 264.608895 322.649593 
L 254.602991 313.44175 
L 245.271717 305.952711 
L 236.610147 300.018304 
L 228.596977 295.11267 
L 221.199394 290.829152 
L 214.381055 286.987953 
L 208.106339 283.480798 
L 202.332023 280.170523 
L 197.026171 276.937692 
L 192.146559 273.73141 
L 187.663381 270.550226 
L 183.544527 267.393414 
L 179.758833 264.274809 
L 176.278192 261.21197 
L 173.076952 258.212521 
L 170.132168 255.300692 
L 167.424436 252.479072 
L 164.929764 249.747645 
L 162.627094 247.113857 
L 160.505638 244.579743 
L 158.552717 242.142596 
L 156.741484 239.803848 
L 155.076395 237.56279 
L 153.508622 235.425074 
L 151.956743 233.394532 
L 150.404863 231.47481 
L 148.852983 229.66623 
L 147.301103 227.969553 
L 145.749224 226.38376 
L 144.197344 224.909099 
L 142.645464 223.547038 
L 141.093584 222.29257 
L 139.541705 221.143446 
L 137.989825 220.100376 
L 136.437945 219.174882 
L 134.886065 218.377518 
L 133.334185 217.718867 
L 131.782306 217.209035 
L 130.230426 216.857274 
L 128.678546 216.668123 
L 127.126666 216.641746 
L 125.574787 216.769775 
L 124.022907 217.062941 
L 122.471027 217.53699 
L 120.919147 218.208953 
L 119.367268 219.100814 
L 117.815388 220.227611 
L 116.263508 221.602221 
L 114.711628 223.240718 
L 113.159749 225.163668 
L 111.607869 227.398494 
L 110.055989 229.971366 
L 108.504109 232.914873 
L 106.952229 236.342874 
L 105.40035 240.46533 
L 103.84847 245.354269 
L 102.29659 251.151866 
L 100.74471 257.9323 
L 99.192831 265.595965 
L 97.640951 274.213362 
L 96.089071 284.130664 
L 94.537191 294.62088 
L 92.985312 304.792328 
L 91.433432 316.351022 
L 89.881552 328.892703 
L 88.329672 340.278922 
L 86.777793 486.730748 
L 85.225913 495.396533 
L 83.097834 512.397704 
L 80.969755 518.361397 
L 78.841677 522.910564 
L 76.713598 526.748059 
L 74.585519 530.101234 
L 72.457441 533.074079 
L 70.329362 535.724078 
L 68.201283 538.08736 
L 66.054892 540.189169 
L 63.323822 542.048633 
L 59.49126 543.682362 
L 54.11159 545.10353 
L 46.558634 546.328113 
L 35.952583 547.364307 
L 21.74163 548.233332 
L 7.346541 548.934114 
L -6.536727 549.499413 
L -19.926484 549.91429 
L -32.8402 550.224855 
L -45.294584 550.405506 
L -57.306163 550.505521 
L -68.890841 550.503734 
L -80.063608 550.42803 
L -90.839193 550.272438 
L -101.231949 550.057502 
L -111.254796 549.787298 
L -120.921779 549.474765 
L -130.31782 549.126225 
L -139.426428 548.750481 
L -148.211606 548.353342 
L -156.684456 547.940866 
L -164.856033 547.517491 
L -172.737355 547.087355 
L -180.339261 546.653618 
L -187.670851 546.218946 
L -194.741629 545.785366 
L -201.5616 545.354485 
L -208.139688 544.92762 
L -214.483221 544.505711 
L -220.601654 544.089484 
L -226.503071 543.679361 
L -232.194938 543.275661 
L -237.684611 542.878425 
L -242.979512 542.487776 
L -248.086908 542.103642 
L -253.013176 541.725964 
L -257.762664 541.354495 
L -262.34492 540.989069 
L -266.765383 540.629346 
L -271.026505 540.275017 
L -275.139245 539.92549 
L -279.103848 539.580219 
L -282.927535 539.238361 
L -286.618905 538.899057 
L -290.176287 538.561106 
L -293.606754 538.223139 
L -296.916571 537.883395 
L -300.110397 537.539783 
L -303.191567 537.18968 
L -306.162775 536.830005 
L -309.028283 536.45697 
L -311.79197 536.066173 
L -314.457166 535.652453 
L -317.026662 535.209937 
L -319.505319 534.731936 
L -321.89788 534.211001 
L -324.207906 533.638917 
L -326.461168 533.006766 
L -328.714428 532.304969 
L -330.967688 531.523388 
L -333.220948 530.651346 
L -335.474207 529.677811 
L -337.727467 528.591391 
L -339.980727 527.380588 
L -342.233987 526.03362 
L -344.487247 524.538214 
L -346.740506 522.881437 
L -348.993766 521.048863 
L -351.247026 519.024259 
L -353.500286 516.788301 
L -355.753546 514.316491 
L -358.006805 511.575857 
L -360.260065 508.518817 
L -362.513325 505.073921 
L -364.766585 501.130216 
L -367.019844 496.527716 
L -369.273104 491.089455 
L -371.526364 484.789061 
L -373.779624 478.736834 
L -376.032884 474.939001 
L -378.286143 473.292281 
L -380.539403 472.73443 
L -382.792663 472.68219 
L -385.045923 473.029076 
L -387.299183 474.089433 
L -389.552442 476.32836 
L -391.805702 480.983482 
L -394.058962 488.653943 
L -396.312222 494.282796 
L -398.565481 497.867307 
L -400.818741 499.374103 
L -403.072001 581.36259 
L -405.270505 584.907133 
L -407.469009 588.564701 
L -409.686832 591.926874 
L -412.464478 595.881476 
L -416.265003 601.71775 
L -421.467669 604.011298 
L -428.591888 605.312308 
L -438.349052 605.312308 
L -451.713553 605.312308 
L -470.020065 605.312308 
L -495.096852 605.312308 
L -529.448308 605.312308 
z
" clip-path="url(#p1242f35855)" style="fill: #1f77b4"/>
   </g>
   <g id="PolyCollection_2">
    <path d="M -529.448308 605.312308 
L -529.448308 605.312308 
L -495.096852 605.312308 
L -470.020065 605.312308 
L -451.713553 605.312308 
L -438.349052 605.312308 
L -428.591888 605.312308 
L -421.467669 604.011298 
L -416.265003 601.71775 
L -412.464478 595.881476 
L -409.686832 591.926874 
L -407.469009 588.564701 
L -405.270505 584.907133 
L -403.072001 581.36259 
L -400.818741 499.374103 
L -398.565481 497.867307 
L -396.312222 494.282796 
L -394.058962 488.653943 
L -391.805702 480.983482 
L -389.552442 476.32836 
L -387.299183 474.089433 
L -385.045923 473.029076 
L -382.792663 472.68219 
L -380.539403 472.73443 
L -378.286143 473.292281 
L -376.032884 474.939001 
L -373.779624 478.736834 
L -371.526364 484.789061 
L -369.273104 491.089455 
L -367.019844 496.527716 
L -364.766585 501.130216 
L -362.513325 505.073921 
L -360.260065 508.518817 
L -358.006805 511.575857 
L -355.753546 514.316491 
L -353.500286 516.788301 
L -351.247026 519.024259 
L -348.993766 521.048863 
L -346.740506 522.881437 
L -344.487247 524.538214 
L -342.233987 526.03362 
L -339.980727 527.380588 
L -337.727467 528.591391 
L -335.474207 529.677811 
L -333.220948 530.651346 
L -330.967688 531.523388 
L -328.714428 532.304969 
L -326.461168 533.006766 
L -324.207906 533.638917 
L -321.89788 534.211001 
L -319.505319 534.731936 
L -317.026662 535.209937 
L -314.457166 535.652453 
L -311.79197 536.066173 
L -309.028283 536.45697 
L -306.162775 536.830005 
L -303.191567 537.18968 
L -300.110397 537.539783 
L -296.916571 537.883395 
L -293.606754 538.223139 
L -290.176287 538.561106 
L -286.618905 538.899057 
L -282.927535 539.238361 
L -279.103848 539.580219 
L -275.139245 539.92549 
L -271.026505 540.275017 
L -266.765383 540.629346 
L -262.34492 540.989069 
L -257.762664 541.354495 
L -253.013176 541.725964 
L -248.086908 542.103642 
L -242.979512 542.487776 
L -237.684611 542.878425 
L -232.194938 543.275661 
L -226.503071 543.679361 
L -220.601654 544.089484 
L -214.483221 544.505711 
L -208.139688 544.92762 
L -201.5616 545.354485 
L -194.741629 545.785366 
L -187.670851 546.218946 
L -180.339261 546.653618 
L -172.737355 547.087355 
L -164.856033 547.517491 
L -156.684456 547.940866 
L -148.211606 548.353342 
L -139.426428 548.750481 
L -130.31782 549.126225 
L -120.921779 549.474765 
L -111.254796 549.787298 
L -101.231949 550.057502 
L -90.839193 550.272438 
L -80.063608 550.42803 
L -68.890841 550.503734 
L -57.306163 550.505521 
L -45.294584 550.405506 
L -32.8402 550.224855 
L -19.926484 549.91429 
L -6.536727 549.499413 
L 7.346541 548.934114 
L 21.74163 548.233332 
L 35.952583 547.364307 
L 46.558634 546.328113 
L 54.11159 545.10353 
L 59.49126 543.682362 
L 63.323822 542.048633 
L 66.054892 540.189169 
L 68.201283 538.08736 
L 70.329362 535.724078 
L 72.457441 533.074079 
L 74.585519 530.101234 
L 76.713598 526.748059 
L 78.841677 522.910564 
L 80.969755 518.361397 
L 83.097834 512.397704 
L 85.225913 495.396533 
L 86.777793 486.730748 
L 88.329672 340.278922 
L 89.881552 328.892703 
L 91.433432 316.351022 
L 92.985312 304.792328 
L 94.537191 294.62088 
L 96.089071 284.130664 
L 97.640951 274.213362 
L 99.192831 265.595965 
L 100.74471 257.9323 
L 102.29659 251.151866 
L 103.84847 245.354269 
L 105.40035 240.46533 
L 106.952229 236.342874 
L 108.504109 232.914873 
L 110.055989 229.971366 
L 111.607869 227.398494 
L 113.159749 225.163668 
L 114.711628 223.240718 
L 116.263508 221.602221 
L 117.815388 220.227611 
L 119.367268 219.100814 
L 120.919147 218.208953 
L 122.471027 217.53699 
L 124.022907 217.062941 
L 125.574787 216.769775 
L 127.126666 216.641746 
L 128.678546 216.668123 
L 130.230426 216.857274 
L 131.782306 217.209035 
L 133.334185 217.718867 
L 134.886065 218.377518 
L 136.437945 219.174882 
L 137.989825 220.100376 
L 139.541705 221.143446 
L 141.093584 222.29257 
L 142.645464 223.547038 
L 144.197344 224.909099 
L 145.749224 226.38376 
L 147.301103 227.969553 
L 148.852983 229.66623 
L 150.404863 231.47481 
L 151.956743 233.394532 
L 153.508622 235.425074 
L 155.076395 237.56279 
L 156.741484 239.803848 
L 158.552717 242.142596 
L 160.505638 244.579743 
L 162.627094 247.113857 
L 164.929764 249.747645 
L 167.424436 252.479072 
L 170.132168 255.300692 
L 173.076952 258.212521 
L 176.278192 261.21197 
L 179.758833 264.274809 
L 183.544527 267.393414 
L 187.663381 270.550226 
L 192.146559 273.73141 
L 197.026171 276.937692 
L 202.332023 280.170523 
L 208.106339 283.480798 
L 214.381055 286.987953 
L 221.199394 290.829152 
L 228.596977 295.11267 
L 236.610147 300.018304 
L 245.271717 305.952711 
L 254.602991 313.44175 
L 264.608895 322.649593 
L 275.25752 333.248834 
L 286.3849 344.294796 
L 297.558434 354.919943 
L 308.731968 364.930118 
L 319.905503 374.572171 
L 331.079037 383.390757 
L 342.252571 391.245094 
L 353.426105 397.680107 
L 364.59964 402.681295 
L 375.773174 406.607522 
L 386.946708 409.553015 
L 398.120243 411.669869 
L 409.293777 413.289833 
L 420.467311 414.298573 
L 431.640846 415.420235 
L 442.81438 415.609175 
L 458.611418 416.567911 
L 474.408457 416.36683 
L 490.205495 416.813802 
L 506.002533 416.623821 
L 521.799572 416.543345 
L 537.59661 416.229623 
L 553.393648 415.846979 
L 569.190687 415.382482 
L 584.987725 414.877803 
L 600.784763 414.350067 
L 616.581802 413.818839 
L 632.37884 413.29682 
L 648.175878 412.794604 
L 663.972917 412.321555 
L 679.769955 411.883138 
L 695.566993 411.484222 
L 711.364032 411.126591 
L 727.16107 410.81365 
L 742.958108 410.545117 
L 758.755147 410.323104 
L 774.552185 410.145961 
L 790.349223 410.014745 
L 806.146262 409.927485 
L 821.9433 409.884374 
L 821.9433 384.682651 
L 821.9433 384.682651 
L 806.146262 384.711623 
L 790.349223 384.772588 
L 774.552185 384.862259 
L 758.755147 384.988159 
L 742.958108 385.143216 
L 727.16107 385.337436 
L 711.364032 385.559057 
L 695.566993 385.819929 
L 679.769955 386.100019 
L 663.972917 386.415867 
L 648.175878 386.731425 
L 632.37884 387.074972 
L 616.581802 387.379144 
L 600.784763 387.697236 
L 584.987725 387.916381 
L 569.190687 388.130219 
L 553.393648 388.166856 
L 537.59661 388.165038 
L 521.799572 387.92582 
L 506.002533 387.541124 
L 490.205495 387.094038 
L 474.408457 386.167552 
L 458.611418 385.749421 
L 442.81438 384.426131 
L 431.640846 383.780035 
L 420.467311 382.586528 
L 409.293777 381.421681 
L 398.120243 380.130694 
L 386.946708 378.287205 
L 375.773174 376.060462 
L 364.59964 372.888511 
L 353.426105 368.929176 
L 342.252571 363.550106 
L 331.079037 356.898892 
L 319.905503 349.226711 
L 308.731968 340.753905 
L 297.558434 331.831595 
L 286.3849 322.256412 
L 275.25752 312.155673 
L 264.608895 302.401279 
L 254.602991 293.954746 
L 245.271717 287.111521 
L 236.610147 281.778655 
L 228.596977 277.361044 
L 221.199394 273.54664 
L 214.381055 270.070483 
L 208.106339 266.91333 
L 202.332023 263.846723 
L 197.026171 260.832487 
L 192.146559 257.726489 
L 187.663381 254.617475 
L 183.544527 251.402483 
L 179.758833 248.2003 
L 176.278192 244.929879 
L 173.076952 241.704655 
L 170.132168 238.477518 
L 167.424436 235.342641 
L 164.929764 232.257837 
L 162.627094 229.299386 
L 160.505638 226.445871 
L 158.552717 223.742074 
L 156.741484 221.157409 
L 155.076395 218.731021 
L 153.508622 216.400773 
L 151.956743 214.232966 
L 150.404863 212.111579 
L 148.852983 210.141115 
L 147.301103 208.164674 
L 145.749224 206.314477 
L 144.197344 204.437262 
L 142.645464 202.669021 
L 141.093584 200.891401 
L 139.541705 199.219755 
L 137.989825 197.59348 
L 136.437945 196.104673 
L 134.886065 194.754732 
L 133.334185 193.563067 
L 131.782306 192.600528 
L 130.230426 191.774424 
L 128.678546 191.250438 
L 127.126666 190.791247 
L 125.574787 190.656117 
L 124.022907 190.500758 
L 122.471027 190.685916 
L 120.919147 190.802018 
L 119.367268 191.249512 
L 117.815388 191.612595 
L 116.263508 192.244865 
L 114.711628 192.808959 
L 113.159749 193.564586 
L 111.607869 194.317135 
L 110.055989 195.227312 
L 108.504109 196.239176 
L 106.952229 197.568588 
L 105.40035 199.431291 
L 103.84847 201.954451 
L 102.29659 205.282559 
L 100.74471 209.554015 
L 99.192831 214.694854 
L 97.640951 220.8081 
L 96.089071 228.327999 
L 94.537191 236.483157 
L 92.985312 244.545454 
L 91.433432 254.091441 
L 89.881552 265.048116 
L 88.329672 274.819595 
L 86.777793 420.433433 
L 85.225913 427.815376 
L 83.097834 444.87713 
L 80.969755 449.814899 
L 78.841677 454.981876 
L 76.713598 458.143669 
L 74.585519 462.269667 
L 72.457441 464.897521 
L 70.329362 468.265285 
L 68.201283 470.50351 
L 66.054892 473.173078 
L 63.323822 475.028826 
L 59.49126 477.064361 
L 54.11159 478.544212 
L 46.558634 480.038782 
L 35.952583 481.169048 
L 21.74163 482.22943 
L 7.346541 483.049965 
L -6.536727 483.775383 
L -19.926484 484.332791 
L -32.8402 484.802469 
L -45.294584 485.14679 
L -57.306163 485.418975 
L -68.890841 485.599354 
L -80.063608 485.712264 
L -90.839193 485.753272 
L -101.231949 485.741067 
L -111.254796 485.677032 
L -120.921779 485.576512 
L -130.31782 485.438872 
L -139.426428 485.278813 
L -148.211606 485.093004 
L -156.684456 484.894624 
L -164.856033 484.679717 
L -172.737355 484.458073 
L -180.339261 484.227853 
L -187.670851 483.993728 
L -194.741629 483.757817 
L -201.5616 483.518964 
L -208.139688 483.283998 
L -214.483221 483.046377 
L -220.601654 482.816943 
L -226.503071 482.584908 
L -232.194938 482.363755 
L -237.684611 482.14002 
L -242.979512 481.928325 
L -248.086908 481.714243 
L -253.013176 481.512131 
L -257.762664 481.307819 
L -262.34492 481.114445 
L -266.765383 480.919182 
L -271.026505 480.733182 
L -275.139245 480.545619 
L -279.103848 480.364983 
L -282.927535 480.182956 
L -286.618905 480.004862 
L -290.176287 479.824904 
L -293.606754 479.644947 
L -296.916571 479.461149 
L -300.110397 479.272068 
L -303.191567 479.074707 
L -306.162775 478.864861 
L -309.028283 478.639048 
L -311.79197 478.391054 
L -314.457166 478.115709 
L -317.026662 477.8057 
L -319.505319 477.453352 
L -321.89788 477.050932 
L -324.207906 476.588244 
L -326.461168 476.057593 
L -328.714428 475.447487 
L -330.967688 474.750661 
L -333.220948 473.957293 
L -335.474207 473.061419 
L -337.727467 472.059808 
L -339.980727 470.949924 
L -342.233987 469.741055 
L -344.487247 468.436586 
L -346.740506 467.061727 
L -348.993766 465.626778 
L -351.247026 464.169799 
L -353.500286 462.704798 
L -355.753546 461.269607 
L -358.006805 459.869118 
L -360.260065 458.514671 
L -362.513325 457.171849 
L -364.766585 455.776928 
L -367.019844 454.199753 
L -369.273104 452.288409 
L -371.526364 450.011892 
L -373.779624 448.420219 
L -376.032884 449.333323 
L -378.286143 452.374089 
L -380.539403 456.247987 
L -382.792663 460.335796 
L -385.045923 464.501499 
L -387.299183 469.162046 
L -389.552442 474.695776 
L -391.805702 480.983482 
L -394.058962 488.653943 
L -396.312222 494.282796 
L -398.565481 497.867307 
L -400.818741 499.374103 
L -403.072001 581.36259 
L -405.270505 584.907133 
L -407.469009 588.564701 
L -409.686832 591.926874 
L -412.464478 595.881476 
L -416.265003 601.71775 
L -421.467669 604.011298 
L -428.591888 605.312308 
L -438.349052 605.312308 
L -451.713553 605.312308 
L -470.020065 605.312308 
L -495.096852 605.312308 
L -529.448308 605.312308 
z
" clip-path="url(#p1242f35855)" style="fill: #ff7f0e"/>
   </g>
   <g id="PolyCollection_3">
    <path d="M -529.448308 19.220359 
L -529.448308 605.312308 
L -495.096852 605.312308 
L -470.020065 605.312308 
L -451.713553 605.312308 
L -438.349052 605.312308 
L -428.591888 605.312308 
L -421.467669 604.011298 
L -416.265003 601.71775 
L -412.464478 595.881476 
L -409.686832 591.926874 
L -407.469009 588.564701 
L -405.270505 584.907133 
L -403.072001 581.36259 
L -400.818741 499.374103 
L -398.565481 497.867307 
L -396.312222 494.282796 
L -394.058962 488.653943 
L -391.805702 480.983482 
L -389.552442 474.695776 
L -387.299183 469.162046 
L -385.045923 464.501499 
L -382.792663 460.335796 
L -380.539403 456.247987 
L -378.286143 452.374089 
L -376.032884 449.333323 
L -373.779624 448.420219 
L -371.526364 450.011892 
L -369.273104 452.288409 
L -367.019844 454.199753 
L -364.766585 455.776928 
L -362.513325 457.171849 
L -360.260065 458.514671 
L -358.006805 459.869118 
L -355.753546 461.269607 
L -353.500286 462.704798 
L -351.247026 464.169799 
L -348.993766 465.626778 
L -346.740506 467.061727 
L -344.487247 468.436586 
L -342.233987 469.741055 
L -339.980727 470.949924 
L -337.727467 472.059808 
L -335.474207 473.061419 
L -333.220948 473.957293 
L -330.967688 474.750661 
L -328.714428 475.447487 
L -326.461168 476.057593 
L -324.207906 476.588244 
L -321.89788 477.050932 
L -319.505319 477.453352 
L -317.026662 477.8057 
L -314.457166 478.115709 
L -311.79197 478.391054 
L -309.028283 478.639048 
L -306.162775 478.864861 
L -303.191567 479.074707 
L -300.110397 479.272068 
L -296.916571 479.461149 
L -293.606754 479.644947 
L -290.176287 479.824904 
L -286.618905 480.004862 
L -282.927535 480.182956 
L -279.103848 480.364983 
L -275.139245 480.545619 
L -271.026505 480.733182 
L -266.765383 480.919182 
L -262.34492 481.114445 
L -257.762664 481.307819 
L -253.013176 481.512131 
L -248.086908 481.714243 
L -242.979512 481.928325 
L -237.684611 482.14002 
L -232.194938 482.363755 
L -226.503071 482.584908 
L -220.601654 482.816943 
L -214.483221 483.046377 
L -208.139688 483.283998 
L -201.5616 483.518964 
L -194.741629 483.757817 
L -187.670851 483.993728 
L -180.339261 484.227853 
L -172.737355 484.458073 
L -164.856033 484.679717 
L -156.684456 484.894624 
L -148.211606 485.093004 
L -139.426428 485.278813 
L -130.31782 485.438872 
L -120.921779 485.576512 
L -111.254796 485.677032 
L -101.231949 485.741067 
L -90.839193 485.753272 
L -80.063608 485.712264 
L -68.890841 485.599354 
L -57.306163 485.418975 
L -45.294584 485.14679 
L -32.8402 484.802469 
L -19.926484 484.332791 
L -6.536727 483.775383 
L 7.346541 483.049965 
L 21.74163 482.22943 
L 35.952583 481.169048 
L 46.558634 480.038782 
L 54.11159 478.544212 
L 59.49126 477.064361 
L 63.323822 475.028826 
L 66.054892 473.173078 
L 68.201283 470.50351 
L 70.329362 468.265285 
L 72.457441 464.897521 
L 74.585519 462.269667 
L 76.713598 458.143669 
L 78.841677 454.981876 
L 80.969755 449.814899 
L 83.097834 444.87713 
L 85.225913 427.815376 
L 86.777793 420.433433 
L 88.329672 274.819595 
L 89.881552 265.048116 
L 91.433432 254.091441 
L 92.985312 244.545454 
L 94.537191 236.483157 
L 96.089071 228.327999 
L 97.640951 220.8081 
L 99.192831 214.694854 
L 100.74471 209.554015 
L 102.29659 205.282559 
L 103.84847 201.954451 
L 105.40035 199.431291 
L 106.952229 197.568588 
L 108.504109 196.239176 
L 110.055989 195.227312 
L 111.607869 194.317135 
L 113.159749 193.564586 
L 114.711628 192.808959 
L 116.263508 192.244865 
L 117.815388 191.612595 
L 119.367268 191.249512 
L 120.919147 190.802018 
L 122.471027 190.685916 
L 124.022907 190.500758 
L 125.574787 190.656117 
L 127.126666 190.791247 
L 128.678546 191.250438 
L 130.230426 191.774424 
L 131.782306 192.600528 
L 133.334185 193.563067 
L 134.886065 194.754732 
L 136.437945 196.104673 
L 137.989825 197.59348 
L 139.541705 199.219755 
L 141.093584 200.891401 
L 142.645464 202.669021 
L 144.197344 204.437262 
L 145.749224 206.314477 
L 147.301103 208.164674 
L 148.852983 210.141115 
L 150.404863 212.111579 
L 151.956743 214.232966 
L 153.508622 216.400773 
L 155.076395 218.731021 
L 156.741484 221.157409 
L 158.552717 223.742074 
L 160.505638 226.445871 
L 162.627094 229.299386 
L 164.929764 232.257837 
L 167.424436 235.342641 
L 170.132168 238.477518 
L 173.076952 241.704655 
L 176.278192 244.929879 
L 179.758833 248.2003 
L 183.544527 251.402483 
L 187.663381 254.617475 
L 192.146559 257.726489 
L 197.026171 260.832487 
L 202.332023 263.846723 
L 208.106339 266.91333 
L 214.381055 270.070483 
L 221.199394 273.54664 
L 228.596977 277.361044 
L 236.610147 281.778655 
L 245.271717 287.111521 
L 254.602991 293.954746 
L 264.608895 302.401279 
L 275.25752 312.155673 
L 286.3849 322.256412 
L 297.558434 331.831595 
L 308.731968 340.753905 
L 319.905503 349.226711 
L 331.079037 356.898892 
L 342.252571 363.550106 
L 353.426105 368.929176 
L 364.59964 372.888511 
L 375.773174 376.060462 
L 386.946708 378.287205 
L 398.120243 380.130694 
L 409.293777 381.421681 
L 420.467311 382.586528 
L 431.640846 383.780035 
L 442.81438 384.426131 
L 458.611418 385.749421 
L 474.408457 386.167552 
L 490.205495 387.094038 
L 506.002533 387.541124 
L 521.799572 387.92582 
L 537.59661 388.165038 
L 553.393648 388.166856 
L 569.190687 388.130219 
L 584.987725 387.916381 
L 600.784763 387.697236 
L 616.581802 387.379144 
L 632.37884 387.074972 
L 648.175878 386.731425 
L 663.972917 386.415867 
L 679.769955 386.100019 
L 695.566993 385.819929 
L 711.364032 385.559057 
L 727.16107 385.337436 
L 742.958108 385.143216 
L 758.755147 384.988159 
L 774.552185 384.862259 
L 790.349223 384.772588 
L 806.146262 384.711623 
L 821.9433 384.682651 
L 821.9433 258.849913 
L 821.9433 258.849913 
L 806.146262 258.922442 
L 790.349223 259.071881 
L 774.552185 259.292143 
L 758.755147 259.593639 
L 742.958108 259.963422 
L 727.16107 260.414863 
L 711.364032 260.926706 
L 695.566993 261.513768 
L 679.769955 262.140373 
L 663.972917 262.82558 
L 648.175878 263.506875 
L 632.37884 264.216737 
L 616.581802 264.842638 
L 600.784763 265.452006 
L 584.987725 265.853753 
L 569.190687 266.190845 
L 553.393648 266.153139 
L 537.59661 266.016547 
L 521.799572 265.369797 
L 506.002533 264.485618 
L 490.205495 263.237717 
L 474.408457 261.348596 
L 458.611418 259.67759 
L 442.81438 256.871634 
L 431.640846 254.45426 
L 420.467311 251.211697 
L 409.293777 247.807219 
L 398.120243 244.281144 
L 386.946708 240.398171 
L 375.773174 236.388925 
L 364.59964 231.753001 
L 353.426105 226.683402 
L 342.252571 220.542008 
L 331.079037 213.445185 
L 319.905503 205.592561 
L 308.731968 197.164883 
L 297.558434 188.506136 
L 286.3849 179.365211 
L 275.25752 169.785226 
L 264.608895 160.537854 
L 254.602991 152.498086 
L 245.271717 145.921161 
L 236.610147 140.705342 
L 228.596977 136.260566 
L 221.199394 132.254381 
L 214.381055 128.435119 
L 208.106339 124.819268 
L 202.332023 121.220958 
L 197.026171 117.643088 
L 192.146559 113.990161 
L 187.663381 110.380948 
L 183.544527 106.751928 
L 179.758833 103.225177 
L 176.278192 99.745925 
L 173.076952 96.407731 
L 170.132168 93.174281 
L 167.424436 90.121981 
L 164.929764 87.200147 
L 162.627094 84.466951 
L 160.505638 81.863641 
L 158.552717 79.438997 
L 156.741484 77.099948 
L 155.076395 74.933112 
L 153.508622 72.779319 
L 151.956743 70.811683 
L 150.404863 68.775082 
L 148.852983 66.939398 
L 147.301103 64.97513 
L 145.749224 63.218391 
L 144.197344 61.329269 
L 142.645464 59.662895 
L 141.093584 57.913163 
L 139.541705 56.407697 
L 137.989825 54.918816 
L 136.437945 53.71016 
L 134.886065 52.664159 
L 133.334185 51.907773 
L 131.782306 51.444629 
L 130.230426 51.230099 
L 128.678546 51.393337 
L 127.126666 51.702737 
L 125.574787 52.394223 
L 124.022907 53.111063 
L 122.471027 54.200807 
L 120.919147 55.235174 
L 119.367268 56.626429 
L 117.815388 57.927821 
L 116.263508 59.530782 
L 114.711628 61.047223 
L 113.159749 62.829275 
L 111.607869 64.585952 
L 110.055989 66.645224 
L 108.504109 68.821651 
L 106.952229 71.551645 
L 105.40035 74.941813 
L 103.84847 79.303438 
L 102.29659 84.728361 
L 100.74471 91.479061 
L 99.192831 99.510578 
L 97.640951 108.989881 
L 96.089071 120.392868 
L 94.537191 132.936882 
L 92.985312 145.863104 
L 91.433432 160.755525 
L 89.881552 177.314601 
L 88.329672 192.752788 
L 86.777793 343.893524 
L 85.225913 357.298928 
L 83.097834 380.149695 
L 80.969755 389.881376 
L 78.841677 399.081655 
L 76.713598 405.660058 
L 74.585519 412.674757 
L 72.457441 417.730323 
L 70.329362 423.106251 
L 68.201283 426.986889 
L 66.054892 430.948667 
L 63.323822 433.811571 
L 59.49126 436.560339 
L 54.11159 438.542506 
L 46.558634 440.300799 
L 35.952583 441.543689 
L 21.74163 442.535167 
L 7.346541 443.168105 
L -6.536727 443.574851 
L -19.926484 443.725059 
L -32.8402 443.698719 
L -45.294584 443.482985 
L -57.306163 443.134809 
L -68.890841 442.648456 
L -80.063608 442.052578 
L -90.839193 441.350719 
L -101.231949 440.565528 
L -111.254796 439.703392 
L -120.921779 438.783024 
L -130.31782 437.807585 
L -139.426428 436.794487 
L -148.211606 435.743497 
L -156.684456 434.670069 
L -164.856033 433.572977 
L -172.737355 432.463974 
L -180.339261 431.343722 
L -187.670851 430.21842 
L -194.741629 429.09228 
L -201.5616 427.965364 
L -208.139688 426.846256 
L -214.483221 425.729201 
L -220.601654 424.626411 
L -226.503071 423.527548 
L -232.194938 422.44719 
L -237.684611 421.372136 
L -242.979512 420.317926 
L -248.086908 419.270499 
L -253.013176 418.244791 
L -257.762664 417.226783 
L -262.34492 416.22975 
L -266.765383 415.240864 
L -271.026505 414.271095 
L -275.139245 413.309171 
L -279.103848 412.362512 
L -282.927535 411.421642 
L -286.618905 410.489967 
L -290.176287 409.560117 
L -293.606754 408.631379 
L -296.916571 407.697747 
L -300.110397 406.754388 
L -303.191567 405.795082 
L -306.162775 404.811291 
L -309.028283 403.795131 
L -311.79197 402.735002 
L -314.457166 401.619983 
L -317.026662 400.436372 
L -319.505319 399.16977 
L -321.89788 397.805469 
L -324.207906 396.325953 
L -326.461168 394.71638 
L -328.714428 392.958093 
L -330.967688 391.038232 
L -333.220948 388.943087 
L -335.474207 386.66602 
L -337.727467 384.206782 
L -339.980727 381.569841 
L -342.233987 378.777811 
L -344.487247 375.855975 
L -346.740506 372.861109 
L -348.993766 369.847033 
L -351.247026 366.906378 
L -353.500286 364.117993 
L -355.753546 361.592168 
L -358.006805 359.41126 
L -360.260065 357.655586 
L -362.513325 356.342896 
L -364.766585 355.363401 
L -367.019844 354.664516 
L -369.273104 354.177668 
L -371.526364 353.997497 
L -373.779624 355.333631 
L -376.032884 360.148608 
L -378.286143 368.087398 
L -380.539403 377.663016 
L -382.792663 388.039865 
L -385.045923 398.898489 
L -387.299183 410.462856 
L -389.552442 422.643692 
L -391.805702 435.206658 
L -394.058962 448.148217 
L -396.312222 457.913852 
L -398.565481 464.664657 
L -400.818741 468.533517 
L -403.072001 552.410333 
L -405.270505 556.806733 
L -407.469009 560.572252 
L -409.686832 559.579322 
L -412.464478 376.285713 
L -416.265003 19.306655 
L -421.467669 19.163168 
L -428.591888 19.290329 
L -438.349052 19.179319 
L -451.713553 19.266248 
L -470.020065 19.198027 
L -495.096852 19.243157 
L -529.448308 19.220359 
z
" clip-path="url(#p1242f35855)" style="fill: #2ca02c"/>
   </g>
   <g id="PolyCollection_4">
    <path d="M -529.448308 18.927692 
L -529.448308 19.220359 
L -495.096852 19.243157 
L -470.020065 19.198027 
L -451.713553 19.266248 
L -438.349052 19.179319 
L -428.591888 19.290329 
L -421.467669 19.163168 
L -416.265003 19.306655 
L -412.464478 376.285713 
L -409.686832 559.579322 
L -407.469009 560.572252 
L -405.270505 556.806733 
L -403.072001 552.410333 
L -400.818741 468.533517 
L -398.565481 464.664657 
L -396.312222 457.913852 
L -394.058962 448.148217 
L -391.805702 435.206658 
L -389.552442 422.643692 
L -387.299183 410.462856 
L -385.045923 398.898489 
L -382.792663 388.039865 
L -380.539403 377.663016 
L -378.286143 368.087398 
L -376.032884 360.148608 
L -373.779624 355.333631 
L -371.526364 353.997497 
L -369.273104 354.177668 
L -367.019844 354.664516 
L -364.766585 355.363401 
L -362.513325 356.342896 
L -360.260065 357.655586 
L -358.006805 359.41126 
L -355.753546 361.592168 
L -353.500286 364.117993 
L -351.247026 366.906378 
L -348.993766 369.847033 
L -346.740506 372.861109 
L -344.487247 375.855975 
L -342.233987 378.777811 
L -339.980727 381.569841 
L -337.727467 384.206782 
L -335.474207 386.66602 
L -333.220948 388.943087 
L -330.967688 391.038232 
L -328.714428 392.958093 
L -326.461168 394.71638 
L -324.207906 396.325953 
L -321.89788 397.805469 
L -319.505319 399.16977 
L -317.026662 400.436372 
L -314.457166 401.619983 
L -311.79197 402.735002 
L -309.028283 403.795131 
L -306.162775 404.811291 
L -303.191567 405.795082 
L -300.110397 406.754388 
L -296.916571 407.697747 
L -293.606754 408.631379 
L -290.176287 409.560117 
L -286.618905 410.489967 
L -282.927535 411.421642 
L -279.103848 412.362512 
L -275.139245 413.309171 
L -271.026505 414.271095 
L -266.765383 415.240864 
L -262.34492 416.22975 
L -257.762664 417.226783 
L -253.013176 418.244791 
L -248.086908 419.270499 
L -242.979512 420.317926 
L -237.684611 421.372136 
L -232.194938 422.44719 
L -226.503071 423.527548 
L -220.601654 424.626411 
L -214.483221 425.729201 
L -208.139688 426.846256 
L -201.5616 427.965364 
L -194.741629 429.09228 
L -187.670851 430.21842 
L -180.339261 431.343722 
L -172.737355 432.463974 
L -164.856033 433.572977 
L -156.684456 434.670069 
L -148.211606 435.743497 
L -139.426428 436.794487 
L -130.31782 437.807585 
L -120.921779 438.783024 
L -111.254796 439.703392 
L -101.231949 440.565528 
L -90.839193 441.350719 
L -80.063608 442.052578 
L -68.890841 442.648456 
L -57.306163 443.134809 
L -45.294584 443.482985 
L -32.8402 443.698719 
L -19.926484 443.725059 
L -6.536727 443.574851 
L 7.346541 443.168105 
L 21.74163 442.535167 
L 35.952583 441.543689 
L 46.558634 440.300799 
L 54.11159 438.542506 
L 59.49126 436.560339 
L 63.323822 433.811571 
L 66.054892 430.948667 
L 68.201283 426.986889 
L 70.329362 423.106251 
L 72.457441 417.730323 
L 74.585519 412.674757 
L 76.713598 405.660058 
L 78.841677 399.081655 
L 80.969755 389.881376 
L 83.097834 380.149695 
L 85.225913 357.298928 
L 86.777793 343.893524 
L 88.329672 192.752788 
L 89.881552 177.314601 
L 91.433432 160.755525 
L 92.985312 145.863104 
L 94.537191 132.936882 
L 96.089071 120.392868 
L 97.640951 108.989881 
L 99.192831 99.510578 
L 100.74471 91.479061 
L 102.29659 84.728361 
L 103.84847 79.303438 
L 105.40035 74.941813 
L 106.952229 71.551645 
L 108.504109 68.821651 
L 110.055989 66.645224 
L 111.607869 64.585952 
L 113.159749 62.829275 
L 114.711628 61.047223 
L 116.263508 59.530782 
L 117.815388 57.927821 
L 119.367268 56.626429 
L 120.919147 55.235174 
L 122.471027 54.200807 
L 124.022907 53.111063 
L 125.574787 52.394223 
L 127.126666 51.702737 
L 128.678546 51.393337 
L 130.230426 51.230099 
L 131.782306 51.444629 
L 133.334185 51.907773 
L 134.886065 52.664159 
L 136.437945 53.71016 
L 137.989825 54.918816 
L 139.541705 56.407697 
L 141.093584 57.913163 
L 142.645464 59.662895 
L 144.197344 61.329269 
L 145.749224 63.218391 
L 147.301103 64.97513 
L 148.852983 66.939398 
L 150.404863 68.775082 
L 151.956743 70.811683 
L 153.508622 72.779319 
L 155.076395 74.933112 
L 156.741484 77.099948 
L 158.552717 79.438997 
L 160.505638 81.863641 
L 162.627094 84.466951 
L 164.929764 87.200147 
L 167.424436 90.121981 
L 170.132168 93.174281 
L 173.076952 96.407731 
L 176.278192 99.745925 
L 179.758833 103.225177 
L 183.544527 106.751928 
L 187.663381 110.380948 
L 192.146559 113.990161 
L 197.026171 117.643088 
L 202.332023 121.220958 
L 208.106339 124.819268 
L 214.381055 128.435119 
L 221.199394 132.254381 
L 228.596977 136.260566 
L 236.610147 140.705342 
L 245.271717 145.921161 
L 254.602991 152.498086 
L 264.608895 160.537854 
L 275.25752 169.785226 
L 286.3849 179.365211 
L 297.558434 188.506136 
L 308.731968 197.164883 
L 319.905503 205.592561 
L 331.079037 213.445185 
L 342.252571 220.542008 
L 353.426105 226.683402 
L 364.59964 231.753001 
L 375.773174 236.388925 
L 386.946708 240.398171 
L 398.120243 244.281144 
L 409.293777 247.807219 
L 420.467311 251.211697 
L 431.640846 254.45426 
L 442.81438 256.871634 
L 458.611418 259.67759 
L 474.408457 261.348596 
L 490.205495 263.237717 
L 506.002533 264.485618 
L 521.799572 265.369797 
L 537.59661 266.016547 
L 553.393648 266.153139 
L 569.190687 266.190845 
L 584.987725 265.853753 
L 600.784763 265.452006 
L 616.581802 264.842638 
L 632.37884 264.216737 
L 648.175878 263.506875 
L 663.972917 262.82558 
L 679.769955 262.140373 
L 695.566993 261.513768 
L 711.364032 260.926706 
L 727.16107 260.414863 
L 742.958108 259.963422 
L 758.755147 259.593639 
L 774.552185 259.292143 
L 790.349223 259.071881 
L 806.146262 258.922442 
L 821.9433 258.849913 
L 821.9433 231.915857 
L 821.9433 231.915857 
L 806.146262 231.979257 
L 790.349223 232.11054 
L 774.552185 232.304328 
L 758.755147 232.571503 
L 742.958108 232.900863 
L 727.16107 233.306265 
L 711.364032 233.769915 
L 695.566993 234.305892 
L 679.769955 234.88595 
L 663.972917 235.522947 
L 648.175878 236.173412 
L 632.37884 236.843641 
L 616.581802 237.478002 
L 600.784763 238.049776 
L 584.987725 238.52894 
L 569.190687 238.823712 
L 553.393648 238.950091 
L 537.59661 238.784817 
L 521.799572 238.378751 
L 506.002533 237.526249 
L 490.205495 236.562093 
L 474.408457 234.811805 
L 458.611418 233.458053 
L 442.81438 230.914458 
L 431.640846 228.869658 
L 420.467311 226.011377 
L 409.293777 223.065832 
L 398.120243 220.051164 
L 386.946708 216.758331 
L 375.773174 213.420374 
L 364.59964 209.537771 
L 353.426105 205.300846 
L 342.252571 200.043863 
L 331.079037 193.874339 
L 319.905503 186.989778 
L 308.731968 179.575832 
L 297.558434 171.987073 
L 286.3849 163.95548 
L 275.25752 155.506366 
L 264.608895 147.387644 
L 254.602991 140.447652 
L 245.271717 134.924732 
L 236.610147 130.709536 
L 228.596977 127.210606 
L 221.199394 124.099841 
L 214.381055 121.130555 
L 208.106339 118.317664 
L 202.332023 115.470687 
L 197.026171 112.595089 
L 192.146559 109.598754 
L 187.663381 106.600099 
L 183.544527 103.535391 
L 179.758833 100.528053 
L 176.278192 97.52525 
L 173.076952 94.622365 
L 170.132168 91.785948 
L 167.424436 89.093866 
L 164.929764 86.501213 
L 162.627094 84.064079 
L 160.505638 81.732306 
L 158.552717 79.438997 
L 156.741484 77.099948 
L 155.076395 74.933112 
L 153.508622 72.779319 
L 151.956743 70.811683 
L 150.404863 68.775082 
L 148.852983 66.939398 
L 147.301103 64.97513 
L 145.749224 63.218391 
L 144.197344 61.329269 
L 142.645464 59.662895 
L 141.093584 57.913163 
L 139.541705 56.407697 
L 137.989825 54.918816 
L 136.437945 53.71016 
L 134.886065 52.664159 
L 133.334185 51.907773 
L 131.782306 51.444629 
L 130.230426 51.230099 
L 128.678546 51.393337 
L 127.126666 51.702737 
L 125.574787 52.394223 
L 124.022907 53.111063 
L 122.471027 54.200807 
L 120.919147 55.235174 
L 119.367268 56.626429 
L 117.815388 57.927821 
L 116.263508 59.530782 
L 114.711628 61.047223 
L 113.159749 62.829275 
L 111.607869 64.585952 
L 110.055989 66.645224 
L 108.504109 68.821651 
L 106.952229 71.551645 
L 105.40035 74.941813 
L 103.84847 79.303438 
L 102.29659 84.728361 
L 100.74471 91.479061 
L 99.192831 99.510578 
L 97.640951 108.989881 
L 96.089071 120.392868 
L 94.537191 132.936882 
L 92.985312 145.863104 
L 91.433432 160.755525 
L 89.881552 177.314601 
L 88.329672 192.752788 
L 86.777793 343.893524 
L 85.225913 357.298928 
L 83.097834 380.149695 
L 80.969755 389.881376 
L 78.841677 399.081655 
L 76.713598 405.660058 
L 74.585519 412.674757 
L 72.457441 417.730323 
L 70.329362 423.106251 
L 68.201283 426.986889 
L 66.054892 430.948667 
L 63.323822 433.811571 
L 59.49126 436.560339 
L 54.11159 438.542506 
L 46.558634 440.300799 
L 35.952583 441.543689 
L 21.74163 442.535167 
L 7.346541 443.168105 
L -6.536727 443.574851 
L -19.926484 443.725059 
L -32.8402 443.698719 
L -45.294584 443.482985 
L -57.306163 443.134809 
L -68.890841 442.648456 
L -80.063608 442.052578 
L -90.839193 441.350719 
L -101.231949 440.565528 
L -111.254796 439.703392 
L -120.921779 438.783024 
L -130.31782 437.807585 
L -139.426428 436.794487 
L -148.211606 435.743497 
L -156.684456 434.670069 
L -164.856033 433.572977 
L -172.737355 432.463974 
L -180.339261 431.343722 
L -187.670851 430.21842 
L -194.741629 429.09228 
L -201.5616 427.965364 
L -208.139688 426.846256 
L -214.483221 425.729201 
L -220.601654 424.626411 
L -226.503071 423.527548 
L -232.194938 422.44719 
L -237.684611 421.372136 
L -242.979512 420.317926 
L -248.086908 419.270499 
L -253.013176 418.244791 
L -257.762664 417.226783 
L -262.34492 416.22975 
L -266.765383 415.240864 
L -271.026505 414.271095 
L -275.139245 413.309171 
L -279.103848 412.362512 
L -282.927535 411.421642 
L -286.618905 410.489967 
L -290.176287 409.560117 
L -293.606754 408.631379 
L -296.916571 407.697747 
L -300.110397 406.754388 
L -303.191567 405.795082 
L -306.162775 404.811291 
L -309.028283 403.795131 
L -311.79197 402.735002 
L -314.457166 401.619983 
L -317.026662 400.436372 
L -319.505319 399.16977 
L -321.89788 397.805469 
L -324.207906 396.325953 
L -326.461168 394.71638 
L -328.714428 392.958093 
L -330.967688 391.038232 
L -333.220948 388.943087 
L -335.474207 386.66602 
L -337.727467 384.206782 
L -339.980727 381.569841 
L -342.233987 378.777811 
L -344.487247 375.855975 
L -346.740506 372.861109 
L -348.993766 369.847033 
L -351.247026 366.906378 
L -353.500286 364.117993 
L -355.753546 361.592168 
L -358.006805 359.41126 
L -360.260065 357.655586 
L -362.513325 356.342896 
L -364.766585 355.363401 
L -367.019844 354.664516 
L -369.273104 354.177668 
L -371.526364 353.997497 
L -373.779624 355.333631 
L -376.032884 360.148608 
L -378.286143 368.087398 
L -380.539403 377.663016 
L -382.792663 388.039865 
L -385.045923 398.898489 
L -387.299183 410.367397 
L -389.552442 422.588058 
L -391.805702 434.969683 
L -394.058962 448.005759 
L -396.312222 457.550109 
L -398.565481 464.449514 
L -400.818741 468.062965 
L -403.072001 552.13554 
L -405.270505 556.272619 
L -407.469009 560.281931 
L -409.686832 559.026501 
L -412.464478 375.96832 
L -416.265003 18.927692 
L -421.467669 18.927692 
L -428.591888 18.927692 
L -438.349052 18.927692 
L -451.713553 18.927692 
L -470.020065 18.927692 
L -495.096852 18.927692 
L -529.448308 18.927692 
z
" clip-path="url(#p1242f35855)" style="fill: #d62728"/>
   </g>
   <g id="matplotlib.axis_1">
    <g id="xtick_1">
     <g id="line2d_1">
      <path d="M 102.433225 617.04 
L 102.433225 7.2 
" clip-path="url(#p1242f35855)" style="fill: none; stroke: #b0b0b0; stroke-width: 0.8; stroke-linecap: square"/>
     </g>
     <g id="line2d_2">
      <defs>
       <path id="mdfd6d67961" d="M 0 0 
L 0 3.5 
" style="stroke: #000000; stroke-width: 0.8"/>
      </defs>
      <g>
       <use xlink:href="#mdfd6d67961" x="102.433225" y="617.04" style="stroke: #000000; stroke-width: 0.8"/>
      </g>
     </g>
     <g id="text_1">
      <!-- $\mathdefault{0.20}$ -->
      <g transform="translate(77.807934 644.795495) scale(0.3 -0.3)">
       <defs>
        <path id="CMR17-30" d="M 2688 2025 
C 2688 2416 2682 3080 2413 3591 
C 2176 4039 1798 4198 1466 4198 
C 1158 4198 768 4058 525 3597 
C 269 3118 243 2524 243 2025 
C 243 1661 250 1106 448 619 
C 723 -39 1216 -128 1466 -128 
C 1760 -128 2208 -7 2470 600 
C 2662 1042 2688 1559 2688 2025 
z
M 1466 -26 
C 1056 -26 813 325 723 812 
C 653 1188 653 1738 653 2096 
C 653 2588 653 2997 736 3387 
C 858 3929 1216 4096 1466 4096 
C 1728 4096 2067 3923 2189 3400 
C 2272 3036 2278 2607 2278 2096 
C 2278 1680 2278 1169 2202 792 
C 2067 95 1690 -26 1466 -26 
z
" transform="scale(0.015625)"/>
        <path id="CMMI12-3a" d="M 1178 307 
C 1178 492 1024 619 870 619 
C 685 619 557 466 557 313 
C 557 128 710 0 864 0 
C 1050 0 1178 153 1178 307 
z
" transform="scale(0.015625)"/>
        <path id="CMR17-32" d="M 2669 989 
L 2554 989 
C 2490 536 2438 459 2413 420 
C 2381 369 1920 369 1830 369 
L 602 369 
C 832 619 1280 1072 1824 1597 
C 2214 1967 2669 2402 2669 3035 
C 2669 3790 2067 4224 1395 4224 
C 691 4224 262 3604 262 3030 
C 262 2780 448 2748 525 2748 
C 589 2748 781 2787 781 3010 
C 781 3207 614 3264 525 3264 
C 486 3264 448 3258 422 3245 
C 544 3790 915 4058 1306 4058 
C 1862 4058 2227 3617 2227 3035 
C 2227 2479 1901 2000 1536 1584 
L 262 146 
L 262 0 
L 2515 0 
L 2669 989 
z
" transform="scale(0.015625)"/>
       </defs>
       <use xlink:href="#CMR17-30" transform="scale(0.996264)"/>
       <use xlink:href="#CMMI12-3a" transform="translate(45.690477 0) scale(0.996264)"/>
       <use xlink:href="#CMR17-32" transform="translate(72.787654 0) scale(0.996264)"/>
       <use xlink:href="#CMR17-30" transform="translate(118.478131 0) scale(0.996264)"/>
      </g>
     </g>
    </g>
    <g id="xtick_2">
     <g id="line2d_3">
      <path d="M 228.809532 617.04 
L 228.809532 7.2 
" clip-path="url(#p1242f35855)" style="fill: none; stroke: #b0b0b0; stroke-width: 0.8; stroke-linecap: square"/>
     </g>
     <g id="line2d_4">
      <g>
       <use xlink:href="#mdfd6d67961" x="228.809532" y="617.04" style="stroke: #000000; stroke-width: 0.8"/>
      </g>
     </g>
     <g id="text_2">
      <!-- $\mathdefault{0.25}$ -->
      <g transform="translate(204.184241 644.795495) scale(0.3 -0.3)">
       <defs>
        <path id="CMR17-35" d="M 730 3692 
C 794 3666 1056 3584 1325 3584 
C 1920 3584 2246 3911 2432 4100 
C 2432 4157 2432 4192 2394 4192 
C 2387 4192 2374 4192 2323 4163 
C 2099 4058 1837 3973 1517 3973 
C 1325 3973 1037 3999 723 4139 
C 653 4171 640 4171 634 4171 
C 602 4171 595 4164 595 4037 
L 595 2203 
C 595 2089 595 2057 659 2057 
C 691 2057 704 2070 736 2114 
C 941 2401 1222 2522 1542 2522 
C 1766 2522 2246 2382 2246 1289 
C 2246 1085 2246 715 2054 421 
C 1894 159 1645 25 1370 25 
C 947 25 518 320 403 814 
C 429 807 480 795 506 795 
C 589 795 749 840 749 1038 
C 749 1210 627 1280 506 1280 
C 358 1280 262 1190 262 1011 
C 262 454 704 -128 1382 -128 
C 2042 -128 2669 440 2669 1264 
C 2669 2030 2170 2624 1549 2624 
C 1222 2624 947 2503 730 2274 
L 730 3692 
z
" transform="scale(0.015625)"/>
       </defs>
       <use xlink:href="#CMR17-30" transform="scale(0.996264)"/>
       <use xlink:href="#CMMI12-3a" transform="translate(45.690477 0) scale(0.996264)"/>
       <use xlink:href="#CMR17-32" transform="translate(72.787654 0) scale(0.996264)"/>
       <use xlink:href="#CMR17-35" transform="translate(118.478131 0) scale(0.996264)"/>
      </g>
     </g>
    </g>
    <g id="xtick_3">
     <g id="line2d_5">
      <path d="M 355.185839 617.04 
L 355.185839 7.2 
" clip-path="url(#p1242f35855)" style="fill: none; stroke: #b0b0b0; stroke-width: 0.8; stroke-linecap: square"/>
     </g>
     <g id="line2d_6">
      <g>
       <use xlink:href="#mdfd6d67961" x="355.185839" y="617.04" style="stroke: #000000; stroke-width: 0.8"/>
      </g>
     </g>
     <g id="text_3">
      <!-- $\mathdefault{0.30}$ -->
      <g transform="translate(330.560547 644.795495) scale(0.3 -0.3)">
       <defs>
        <path id="CMR17-33" d="M 1414 2157 
C 1984 2157 2234 1662 2234 1090 
C 2234 320 1824 25 1453 25 
C 1114 25 563 194 390 693 
C 422 680 454 680 486 680 
C 640 680 755 782 755 948 
C 755 1133 614 1216 486 1216 
C 378 1216 211 1165 211 926 
C 211 335 787 -128 1466 -128 
C 2176 -128 2720 430 2720 1085 
C 2720 1707 2208 2157 1600 2227 
C 2086 2328 2554 2756 2554 3329 
C 2554 3820 2048 4179 1472 4179 
C 890 4179 378 3829 378 3329 
C 378 3110 544 3072 627 3072 
C 762 3072 877 3155 877 3321 
C 877 3486 762 3569 627 3569 
C 602 3569 570 3569 544 3557 
C 730 3959 1235 4032 1459 4032 
C 1683 4032 2106 3925 2106 3320 
C 2106 3143 2080 2828 1862 2550 
C 1670 2304 1453 2304 1242 2284 
C 1210 2284 1062 2269 1037 2269 
C 992 2263 966 2257 966 2208 
C 966 2163 973 2157 1101 2157 
L 1414 2157 
z
" transform="scale(0.015625)"/>
       </defs>
       <use xlink:href="#CMR17-30" transform="scale(0.996264)"/>
       <use xlink:href="#CMMI12-3a" transform="translate(45.690477 0) scale(0.996264)"/>
       <use xlink:href="#CMR17-33" transform="translate(72.787654 0) scale(0.996264)"/>
       <use xlink:href="#CMR17-30" transform="translate(118.478131 0) scale(0.996264)"/>
      </g>
     </g>
    </g>
    <g id="xtick_4">
     <g id="line2d_7">
      <path d="M 481.562145 617.04 
L 481.562145 7.2 
" clip-path="url(#p1242f35855)" style="fill: none; stroke: #b0b0b0; stroke-width: 0.8; stroke-linecap: square"/>
     </g>
     <g id="line2d_8">
      <g>
       <use xlink:href="#mdfd6d67961" x="481.562145" y="617.04" style="stroke: #000000; stroke-width: 0.8"/>
      </g>
     </g>
     <g id="text_4">
      <!-- $\mathdefault{0.35}$ -->
      <g transform="translate(456.936854 644.795495) scale(0.3 -0.3)">
       <use xlink:href="#CMR17-30" transform="scale(0.996264)"/>
       <use xlink:href="#CMMI12-3a" transform="translate(45.690477 0) scale(0.996264)"/>
       <use xlink:href="#CMR17-33" transform="translate(72.787654 0) scale(0.996264)"/>
       <use xlink:href="#CMR17-35" transform="translate(118.478131 0) scale(0.996264)"/>
      </g>
     </g>
    </g>
    <g id="xtick_5">
     <g id="line2d_9">
      <path d="M 607.938452 617.04 
L 607.938452 7.2 
" clip-path="url(#p1242f35855)" style="fill: none; stroke: #b0b0b0; stroke-width: 0.8; stroke-linecap: square"/>
     </g>
     <g id="line2d_10">
      <g>
       <use xlink:href="#mdfd6d67961" x="607.938452" y="617.04" style="stroke: #000000; stroke-width: 0.8"/>
      </g>
     </g>
     <g id="text_5">
      <!-- $\mathdefault{0.40}$ -->
      <g transform="translate(583.313161 644.795495) scale(0.3 -0.3)">
       <defs>
        <path id="CMR17-34" d="M 2150 4122 
C 2150 4256 2144 4256 2029 4256 
L 128 1254 
L 128 1088 
L 1779 1088 
L 1779 457 
C 1779 224 1766 160 1318 160 
L 1197 160 
L 1197 0 
C 1402 0 1747 0 1965 0 
C 2182 0 2528 0 2733 0 
L 2733 160 
L 2611 160 
C 2163 160 2150 224 2150 457 
L 2150 1088 
L 2803 1088 
L 2803 1254 
L 2150 1254 
L 2150 4122 
z
M 1798 3703 
L 1798 1254 
L 256 1254 
L 1798 3703 
z
" transform="scale(0.015625)"/>
       </defs>
       <use xlink:href="#CMR17-30" transform="scale(0.996264)"/>
       <use xlink:href="#CMMI12-3a" transform="translate(45.690477 0) scale(0.996264)"/>
       <use xlink:href="#CMR17-34" transform="translate(72.787654 0) scale(0.996264)"/>
       <use xlink:href="#CMR17-30" transform="translate(118.478131 0) scale(0.996264)"/>
      </g>
     </g>
    </g>
    <g id="xtick_6">
     <g id="line2d_11">
      <path d="M 734.314759 617.04 
L 734.314759 7.2 
" clip-path="url(#p1242f35855)" style="fill: none; stroke: #b0b0b0; stroke-width: 0.8; stroke-linecap: square"/>
     </g>
     <g id="line2d_12">
      <g>
       <use xlink:href="#mdfd6d67961" x="734.314759" y="617.04" style="stroke: #000000; stroke-width: 0.8"/>
      </g>
     </g>
     <g id="text_6">
      <!-- $\mathdefault{0.45}$ -->
      <g transform="translate(709.689467 644.795495) scale(0.3 -0.3)">
       <use xlink:href="#CMR17-30" transform="scale(0.996264)"/>
       <use xlink:href="#CMMI12-3a" transform="translate(45.690477 0) scale(0.996264)"/>
       <use xlink:href="#CMR17-34" transform="translate(72.787654 0) scale(0.996264)"/>
       <use xlink:href="#CMR17-35" transform="translate(118.478131 0) scale(0.996264)"/>
      </g>
     </g>
    </g>
    <g id="text_7">
     <!-- $x, \; \mathrm{m} $ -->
     <g transform="translate(411.787939 678.823697) scale(0.35 -0.35)">
      <defs>
       <path id="CMMI12-78" d="M 3034 2606 
C 2829 2567 2752 2414 2752 2293 
C 2752 2139 2874 2088 2963 2088 
C 3155 2088 3290 2254 3290 2427 
C 3290 2695 2982 2816 2714 2816 
C 2323 2816 2106 2433 2048 2312 
C 1901 2816 1504 2816 1389 2816 
C 736 2816 390 1980 390 1839 
C 390 1814 416 1782 461 1782 
C 512 1782 525 1820 538 1846 
C 755 2555 1184 2689 1370 2689 
C 1658 2689 1715 2420 1715 2267 
C 1715 2127 1677 1980 1600 1673 
L 1382 798 
C 1286 415 1101 64 762 64 
C 730 64 570 64 435 147 
C 666 192 717 383 717 460 
C 717 588 621 664 499 664 
C 346 664 179 530 179 326 
C 179 57 480 -64 755 -64 
C 1062 -64 1280 179 1414 441 
C 1517 64 1837 -64 2074 -64 
C 2726 -64 3072 773 3072 913 
C 3072 945 3046 971 3008 971 
C 2950 971 2944 939 2925 888 
C 2752 326 2381 64 2093 64 
C 1869 64 1747 230 1747 492 
C 1747 632 1773 734 1875 1156 
L 2099 2024 
C 2195 2408 2413 2689 2707 2689 
C 2720 2689 2899 2689 3034 2606 
z
" transform="scale(0.015625)"/>
       <path id="CMMI12-3b" d="M 1248 -31 
C 1248 343 1126 619 864 619 
C 659 619 557 453 557 313 
C 557 172 653 0 870 0 
C 954 0 1024 26 1082 83 
C 1094 96 1101 96 1107 96 
C 1120 96 1120 5 1120 -27 
C 1120 -240 1082 -659 710 -1080 
C 640 -1157 640 -1170 640 -1183 
C 640 -1216 672 -1248 704 -1248 
C 755 -1248 1248 -771 1248 -31 
z
" transform="scale(0.015625)"/>
       <path id="CMR17-6d" d="M 4326 1933 
C 4326 2252 4269 2790 3507 2790 
C 3072 2790 2771 2496 2656 2151 
L 2650 2151 
C 2573 2676 2195 2790 1837 2790 
C 1331 2790 1069 2400 973 2144 
L 966 2144 
L 966 2790 
L 211 2720 
L 211 2554 
C 589 2554 646 2515 646 2208 
L 646 428 
C 646 184 621 153 211 153 
L 211 -13 
C 365 0 646 0 813 0 
C 979 0 1267 0 1421 -13 
L 1421 153 
C 1011 153 986 178 986 428 
L 986 1658 
C 986 2247 1344 2688 1792 2688 
C 2266 2688 2317 2266 2317 1958 
L 2317 428 
C 2317 184 2291 153 1882 153 
L 1882 -13 
C 2035 0 2317 0 2483 0 
C 2650 0 2938 0 3091 -13 
L 3091 153 
C 2682 153 2656 178 2656 428 
L 2656 1658 
C 2656 2247 3014 2688 3462 2688 
C 3936 2688 3987 2266 3987 1958 
L 3987 428 
C 3987 184 3962 153 3552 153 
L 3552 -13 
C 3706 0 3987 0 4154 0 
C 4320 0 4608 0 4762 -13 
L 4762 153 
C 4352 153 4326 178 4326 428 
L 4326 1933 
z
" transform="scale(0.015625)"/>
      </defs>
      <use xlink:href="#CMMI12-78" transform="scale(0.996264)"/>
      <use xlink:href="#CMMI12-3b" transform="translate(55.43406 0) scale(0.996264)"/>
      <use xlink:href="#CMR17-6d" transform="translate(126.809651 0) scale(0.996264)"/>
     </g>
    </g>
   </g>
   <g id="matplotlib.axis_2">
    <g id="ytick_1">
     <g id="line2d_13">
      <path d="M 84.740543 605.312308 
L 810.140543 605.312308 
" clip-path="url(#p1242f35855)" style="fill: none; stroke: #b0b0b0; stroke-width: 0.8; stroke-linecap: square"/>
     </g>
     <g id="line2d_14">
      <defs>
       <path id="m445781840b" d="M 0 0 
L -3.5 0 
" style="stroke: #000000; stroke-width: 0.8"/>
      </defs>
      <g>
       <use xlink:href="#m445781840b" x="84.740543" y="605.312308" style="stroke: #000000; stroke-width: 0.8"/>
      </g>
     </g>
     <g id="text_8">
      <!-- $\mathdefault{0.0}$ -->
      <g transform="translate(42.197103 615.690055) scale(0.3 -0.3)">
       <use xlink:href="#CMR17-30" transform="scale(0.996264)"/>
       <use xlink:href="#CMMI12-3a" transform="translate(45.690477 0) scale(0.996264)"/>
       <use xlink:href="#CMR17-30" transform="translate(72.787654 0) scale(0.996264)"/>
      </g>
     </g>
    </g>
    <g id="ytick_2">
     <g id="line2d_15">
      <path d="M 84.740543 488.035385 
L 810.140543 488.035385 
" clip-path="url(#p1242f35855)" style="fill: none; stroke: #b0b0b0; stroke-width: 0.8; stroke-linecap: square"/>
     </g>
     <g id="line2d_16">
      <g>
       <use xlink:href="#m445781840b" x="84.740543" y="488.035385" style="stroke: #000000; stroke-width: 0.8"/>
      </g>
     </g>
     <g id="text_9">
      <!-- $\mathdefault{0.2}$ -->
      <g transform="translate(42.197103 498.413132) scale(0.3 -0.3)">
       <use xlink:href="#CMR17-30" transform="scale(0.996264)"/>
       <use xlink:href="#CMMI12-3a" transform="translate(45.690477 0) scale(0.996264)"/>
       <use xlink:href="#CMR17-32" transform="translate(72.787654 0) scale(0.996264)"/>
      </g>
     </g>
    </g>
    <g id="ytick_3">
     <g id="line2d_17">
      <path d="M 84.740543 370.758462 
L 810.140543 370.758462 
" clip-path="url(#p1242f35855)" style="fill: none; stroke: #b0b0b0; stroke-width: 0.8; stroke-linecap: square"/>
     </g>
     <g id="line2d_18">
      <g>
       <use xlink:href="#m445781840b" x="84.740543" y="370.758462" style="stroke: #000000; stroke-width: 0.8"/>
      </g>
     </g>
     <g id="text_10">
      <!-- $\mathdefault{0.4}$ -->
      <g transform="translate(42.197103 381.136209) scale(0.3 -0.3)">
       <use xlink:href="#CMR17-30" transform="scale(0.996264)"/>
       <use xlink:href="#CMMI12-3a" transform="translate(45.690477 0) scale(0.996264)"/>
       <use xlink:href="#CMR17-34" transform="translate(72.787654 0) scale(0.996264)"/>
      </g>
     </g>
    </g>
    <g id="ytick_4">
     <g id="line2d_19">
      <path d="M 84.740543 253.481538 
L 810.140543 253.481538 
" clip-path="url(#p1242f35855)" style="fill: none; stroke: #b0b0b0; stroke-width: 0.8; stroke-linecap: square"/>
     </g>
     <g id="line2d_20">
      <g>
       <use xlink:href="#m445781840b" x="84.740543" y="253.481538" style="stroke: #000000; stroke-width: 0.8"/>
      </g>
     </g>
     <g id="text_11">
      <!-- $\mathdefault{0.6}$ -->
      <g transform="translate(42.197103 263.859286) scale(0.3 -0.3)">
       <defs>
        <path id="CMR17-36" d="M 678 2176 
C 678 3690 1395 4032 1811 4032 
C 1946 4032 2272 4009 2400 3776 
C 2298 3776 2106 3776 2106 3553 
C 2106 3381 2246 3323 2336 3323 
C 2394 3323 2566 3348 2566 3560 
C 2566 3954 2246 4179 1805 4179 
C 1043 4179 243 3390 243 1984 
C 243 253 966 -128 1478 -128 
C 2099 -128 2688 427 2688 1283 
C 2688 2081 2170 2662 1517 2662 
C 1126 2662 838 2407 678 1960 
L 678 2176 
z
M 1478 25 
C 691 25 691 1200 691 1436 
C 691 1896 909 2560 1504 2560 
C 1613 2560 1926 2560 2138 2120 
C 2253 1870 2253 1609 2253 1289 
C 2253 944 2253 690 2118 434 
C 1978 171 1773 25 1478 25 
z
" transform="scale(0.015625)"/>
       </defs>
       <use xlink:href="#CMR17-30" transform="scale(0.996264)"/>
       <use xlink:href="#CMMI12-3a" transform="translate(45.690477 0) scale(0.996264)"/>
       <use xlink:href="#CMR17-36" transform="translate(72.787654 0) scale(0.996264)"/>
      </g>
     </g>
    </g>
    <g id="ytick_5">
     <g id="line2d_21">
      <path d="M 84.740543 136.204615 
L 810.140543 136.204615 
" clip-path="url(#p1242f35855)" style="fill: none; stroke: #b0b0b0; stroke-width: 0.8; stroke-linecap: square"/>
     </g>
     <g id="line2d_22">
      <g>
       <use xlink:href="#m445781840b" x="84.740543" y="136.204615" style="stroke: #000000; stroke-width: 0.8"/>
      </g>
     </g>
     <g id="text_12">
      <!-- $\mathdefault{0.8}$ -->
      <g transform="translate(42.197103 146.582363) scale(0.3 -0.3)">
       <defs>
        <path id="CMR17-38" d="M 1741 2264 
C 2144 2467 2554 2773 2554 3263 
C 2554 3841 1990 4179 1472 4179 
C 890 4179 378 3759 378 3180 
C 378 3021 416 2747 666 2505 
C 730 2442 998 2251 1171 2130 
C 883 1983 211 1634 211 934 
C 211 279 838 -128 1459 -128 
C 2144 -128 2720 362 2720 1010 
C 2720 1590 2330 1857 2074 2029 
L 1741 2264 
z
M 902 2822 
C 851 2854 595 3051 595 3351 
C 595 3739 998 4032 1459 4032 
C 1965 4032 2336 3676 2336 3262 
C 2336 2669 1670 2331 1638 2331 
C 1632 2331 1626 2331 1574 2370 
L 902 2822 
z
M 2080 1519 
C 2176 1449 2483 1240 2483 851 
C 2483 381 2010 25 1472 25 
C 890 25 448 438 448 940 
C 448 1443 838 1862 1280 2060 
L 2080 1519 
z
" transform="scale(0.015625)"/>
       </defs>
       <use xlink:href="#CMR17-30" transform="scale(0.996264)"/>
       <use xlink:href="#CMMI12-3a" transform="translate(45.690477 0) scale(0.996264)"/>
       <use xlink:href="#CMR17-38" transform="translate(72.787654 0) scale(0.996264)"/>
      </g>
     </g>
    </g>
    <g id="ytick_6">
     <g id="line2d_23">
      <path d="M 84.740543 18.927692 
L 810.140543 18.927692 
" clip-path="url(#p1242f35855)" style="fill: none; stroke: #b0b0b0; stroke-width: 0.8; stroke-linecap: square"/>
     </g>
     <g id="line2d_24">
      <g>
       <use xlink:href="#m445781840b" x="84.740543" y="18.927692" style="stroke: #000000; stroke-width: 0.8"/>
      </g>
     </g>
     <g id="text_13">
      <!-- $\mathdefault{1.0}$ -->
      <g transform="translate(42.197103 29.30544) scale(0.3 -0.3)">
       <defs>
        <path id="CMR17-31" d="M 1702 4058 
C 1702 4192 1696 4192 1606 4192 
C 1357 3916 979 3827 621 3827 
C 602 3827 570 3827 563 3808 
C 557 3795 557 3782 557 3648 
C 755 3648 1088 3686 1344 3839 
L 1344 461 
C 1344 236 1331 160 781 160 
L 589 160 
L 589 0 
C 896 0 1216 0 1523 0 
C 1830 0 2150 0 2458 0 
L 2458 160 
L 2266 160 
C 1715 160 1702 230 1702 458 
L 1702 4058 
z
" transform="scale(0.015625)"/>
       </defs>
       <use xlink:href="#CMR17-31" transform="scale(0.996264)"/>
       <use xlink:href="#CMMI12-3a" transform="translate(45.690477 0) scale(0.996264)"/>
       <use xlink:href="#CMR17-30" transform="translate(72.787654 0) scale(0.996264)"/>
      </g>
     </g>
    </g>
    <g id="text_14">
     <!-- $S_1$ -->
     <g transform="translate(31.414752 328.216088) rotate(-90) scale(0.35 -0.35)">
      <defs>
       <path id="CMMI12-53" d="M 4064 4423 
C 4064 4480 4019 4480 4006 4480 
C 3981 4480 3974 4474 3898 4378 
C 3859 4333 3597 4001 3590 3995 
C 3379 4410 2957 4480 2688 4480 
C 1875 4480 1139 3743 1139 3025 
C 1139 2549 1427 2269 1741 2161 
C 1811 2135 2189 2033 2381 1989 
C 2707 1900 2790 1875 2925 1735 
C 2950 1703 3078 1557 3078 1258 
C 3078 667 2528 57 1888 57 
C 1363 57 781 280 781 991 
C 781 1112 806 1265 826 1328 
C 826 1348 832 1378 832 1391 
C 832 1417 819 1449 768 1449 
C 710 1449 704 1436 678 1328 
L 352 24 
C 352 18 326 -64 326 -71 
C 326 -128 378 -128 390 -128 
C 416 -128 422 -122 499 -26 
L 794 356 
C 947 126 1280 -128 1875 -128 
C 2701 -128 3456 666 3456 1460 
C 3456 1728 3392 1963 3149 2197 
C 3014 2331 2899 2363 2310 2516 
C 1882 2630 1824 2649 1709 2751 
C 1600 2858 1517 3011 1517 3227 
C 1517 3761 2061 4308 2669 4308 
C 3296 4308 3590 3926 3590 3323 
C 3590 3158 3558 2986 3558 2961 
C 3558 2903 3610 2903 3629 2903 
C 3686 2903 3693 2922 3718 3024 
L 4064 4423 
z
" transform="scale(0.015625)"/>
      </defs>
      <use xlink:href="#CMMI12-53" transform="scale(0.996264)"/>
      <use xlink:href="#CMR17-31" transform="translate(59.994488 -14.943915) scale(0.697382)"/>
     </g>
    </g>
   </g>
   <g id="patch_3">
    <path d="M 84.740543 617.04 
L 84.740543 7.2 
" style="fill: none; stroke: #000000; stroke-width: 0.8; stroke-linejoin: miter; stroke-linecap: square"/>
   </g>
   <g id="patch_4">
    <path d="M 810.140543 617.04 
L 810.140543 7.2 
" style="fill: none; stroke: #000000; stroke-width: 0.8; stroke-linejoin: miter; stroke-linecap: square"/>
   </g>
   <g id="patch_5">
    <path d="M 84.740543 617.04 
L 810.140543 617.04 
" style="fill: none; stroke: #000000; stroke-width: 0.8; stroke-linejoin: miter; stroke-linecap: square"/>
   </g>
   <g id="patch_6">
    <path d="M 84.740543 7.2 
L 810.140543 7.2 
" style="fill: none; stroke: #000000; stroke-width: 0.8; stroke-linejoin: miter; stroke-linecap: square"/>
   </g>
   <g id="legend_1">
    <g id="patch_7">
     <path d="M 626.697089 232.438667 
L 785.640543 232.438667 
Q 792.640543 232.438667 792.640543 225.438667 
L 792.640543 31.7 
Q 792.640543 24.7 785.640543 24.7 
L 626.697089 24.7 
Q 619.697089 24.7 619.697089 31.7 
L 619.697089 225.438667 
Q 619.697089 232.438667 626.697089 232.438667 
z
" style="fill: #ffffff; stroke: #cccccc; stroke-linejoin: miter"/>
    </g>
    <g id="patch_8">
     <path d="M 633.697089 63.2 
L 703.697089 63.2 
L 703.697089 38.7 
L 633.697089 38.7 
z
" style="fill: #1f77b4"/>
    </g>
    <g id="text_15">
     <!-- $M$ -->
     <g transform="translate(731.697089 63.2) scale(0.35 -0.35)">
      <defs>
       <path id="CMMI12-4d" d="M 5811 3886 
C 5869 4103 5882 4167 6336 4167 
C 6458 4167 6515 4167 6515 4288 
C 6515 4352 6470 4352 6349 4352 
L 5581 4352 
C 5421 4352 5414 4346 5344 4243 
L 3008 562 
L 2528 4211 
C 2509 4352 2502 4352 2336 4352 
L 1542 4352 
C 1421 4352 1363 4352 1363 4231 
C 1363 4167 1421 4167 1517 4167 
C 1907 4167 1907 4116 1907 4046 
C 1907 4034 1907 3995 1882 3899 
L 1062 634 
C 986 327 838 186 410 186 
C 390 186 314 186 314 73 
C 314 0 371 0 397 0 
C 525 0 851 0 979 0 
L 1286 0 
C 1376 0 1485 0 1574 0 
C 1619 0 1690 0 1690 122 
C 1690 180 1626 186 1600 186 
C 1389 186 1184 224 1184 454 
C 1184 518 1184 524 1210 613 
L 2093 4129 
L 2099 4129 
L 2630 172 
C 2650 19 2656 0 2714 0 
C 2784 0 2816 51 2848 109 
L 5421 4161 
L 5427 4161 
L 4499 473 
C 4442 250 4429 186 3981 186 
C 3859 186 3795 186 3795 70 
C 3795 0 3853 0 3891 0 
C 4000 0 4128 0 4237 0 
L 4992 0 
C 5101 0 5235 0 5344 0 
C 5395 0 5466 0 5466 122 
C 5466 186 5408 186 5312 186 
C 4922 186 4922 234 4922 294 
C 4922 301 4922 345 4934 396 
L 5811 3886 
z
" transform="scale(0.015625)"/>
      </defs>
      <use xlink:href="#CMMI12-4d" transform="scale(0.996264)"/>
     </g>
    </g>
    <g id="patch_9">
     <path d="M 633.697089 111.982351 
L 703.697089 111.982351 
L 703.697089 87.482351 
L 633.697089 87.482351 
z
" style="fill: #ff7f0e"/>
    </g>
    <g id="text_16">
     <!-- $P$ -->
     <g transform="translate(731.697089 111.982351) scale(0.35 -0.35)">
      <defs>
       <path id="CMMI12-50" d="M 1894 2023 
L 2970 2023 
C 3853 2023 4736 2673 4736 3401 
C 4736 3898 4314 4352 3507 4352 
L 1530 4352 
C 1408 4352 1350 4352 1350 4231 
C 1350 4167 1408 4167 1504 4167 
C 1894 4167 1894 4116 1894 4046 
C 1894 4034 1894 3995 1869 3899 
L 1005 472 
C 947 249 934 185 486 185 
C 365 185 301 185 301 70 
C 301 0 358 0 397 0 
C 518 0 646 0 768 0 
L 1517 0 
C 1638 0 1773 0 1894 0 
C 1946 0 2016 0 2016 121 
C 2016 185 1958 185 1862 185 
C 1478 185 1472 230 1472 293 
C 1472 325 1478 369 1485 401 
L 1894 2023 
z
M 2355 3930 
C 2413 4167 2438 4167 2688 4167 
L 3322 4167 
C 3802 4167 4198 4013 4198 3535 
C 4198 3369 4115 2827 3821 2534 
C 3712 2419 3405 2176 2822 2176 
L 1920 2176 
L 2355 3930 
z
" transform="scale(0.015625)"/>
      </defs>
      <use xlink:href="#CMMI12-50" transform="scale(0.996264)"/>
     </g>
    </g>
    <g id="patch_10">
     <path d="M 633.697089 160.764702 
L 703.697089 160.764702 
L 703.697089 136.264702 
L 633.697089 136.264702 
z
" style="fill: #2ca02c"/>
    </g>
    <g id="text_17">
     <!-- $T$ -->
     <g transform="translate(731.697089 160.764702) scale(0.35 -0.35)">
      <defs>
       <path id="CMMI12-54" d="M 2669 3910 
C 2707 4064 2720 4121 2816 4147 
C 2867 4160 3078 4160 3213 4160 
C 3853 4160 4154 4134 4154 3634 
C 4154 3537 4128 3295 4090 3057 
L 4083 2980 
C 4083 2954 4109 2916 4147 2916 
C 4211 2916 4211 2948 4230 3050 
L 4416 4184 
C 4429 4243 4429 4256 4429 4275 
C 4429 4345 4390 4345 4262 4345 
L 762 4345 
C 614 4345 608 4339 570 4224 
L 179 3070 
C 173 3056 154 2986 154 2980 
C 154 2948 179 2916 218 2916 
C 269 2916 282 2941 307 3024 
C 576 3801 710 4160 1562 4160 
L 1990 4160 
C 2144 4160 2208 4160 2208 4089 
C 2208 4069 2208 4057 2176 3941 
L 1318 499 
C 1254 249 1242 185 563 185 
C 403 185 358 185 358 64 
C 358 0 429 0 461 0 
C 621 0 787 0 947 0 
L 1946 0 
C 2106 0 2278 0 2438 0 
C 2509 0 2573 0 2573 121 
C 2573 185 2528 185 2362 185 
C 1786 185 1786 243 1786 339 
C 1786 346 1786 391 1811 494 
L 2669 3910 
z
" transform="scale(0.015625)"/>
      </defs>
      <use xlink:href="#CMMI12-54" transform="scale(0.996264)"/>
     </g>
    </g>
    <g id="patch_11">
     <path d="M 633.697089 209.547054 
L 703.697089 209.547054 
L 703.697089 185.047054 
L 633.697089 185.047054 
z
" style="fill: #d62728"/>
    </g>
    <g id="text_18">
     <!-- $Y_{N_2}$ -->
     <g transform="translate(731.697089 209.547054) scale(0.35 -0.35)">
      <defs>
       <path id="CMMI12-59" d="M 3763 3645 
L 3910 3791 
C 4192 4078 4429 4149 4653 4167 
C 4723 4173 4781 4179 4781 4288 
C 4781 4352 4717 4352 4704 4352 
C 4627 4352 4544 4352 4467 4352 
L 4205 4352 
C 4019 4352 3821 4352 3642 4352 
C 3597 4352 3526 4352 3526 4226 
C 3526 4166 3590 4160 3610 4160 
C 3802 4160 3802 4064 3802 4026 
C 3802 3956 3750 3860 3622 3713 
L 2099 1969 
L 1376 3911 
C 1338 4000 1338 4013 1338 4026 
C 1338 4160 1600 4160 1677 4160 
C 1754 4160 1824 4160 1824 4279 
C 1824 4352 1766 4352 1728 4352 
C 1619 4352 1491 4352 1382 4352 
L 672 4352 
C 557 4352 435 4352 326 4352 
C 282 4352 211 4352 211 4226 
C 211 4160 269 4160 365 4160 
C 678 4160 736 4102 794 3956 
L 1587 1835 
C 1594 1816 1613 1745 1613 1726 
C 1613 1707 1299 452 1280 388 
C 1229 217 1165 185 755 185 
C 646 185 595 185 595 64 
C 595 0 666 0 685 0 
C 800 0 934 0 1056 0 
L 1811 0 
C 1926 0 2061 0 2176 0 
C 2221 0 2298 0 2298 115 
C 2298 185 2253 185 2144 185 
C 1747 185 1747 230 1747 300 
C 1747 345 1798 548 1830 676 
L 2061 1594 
C 2099 1727 2099 1739 2157 1803 
L 3763 3645 
z
" transform="scale(0.015625)"/>
       <path id="CMMI12-4e" d="M 4736 3698 
C 4806 3974 4909 4166 5395 4166 
C 5414 4166 5491 4166 5491 4279 
C 5491 4352 5434 4352 5408 4352 
C 5280 4352 4954 4352 4826 4352 
L 4518 4352 
C 4429 4352 4314 4352 4224 4352 
C 4186 4352 4109 4352 4109 4230 
C 4109 4166 4160 4166 4205 4166 
C 4589 4166 4614 4019 4614 3903 
C 4614 3846 4608 3826 4589 3737 
L 3866 850 
L 2496 4249 
C 2451 4352 2445 4352 2304 4352 
L 1523 4352 
C 1395 4352 1338 4352 1338 4230 
C 1338 4166 1382 4166 1504 4166 
C 1536 4166 1914 4166 1914 4115 
C 1914 4102 1901 4051 1894 4032 
L 1043 635 
C 966 320 813 186 390 186 
C 358 186 294 186 294 67 
C 294 0 358 0 378 0 
C 506 0 832 0 960 0 
L 1267 0 
C 1357 0 1466 0 1555 0 
C 1600 0 1670 0 1670 122 
C 1670 180 1606 186 1581 186 
C 1370 186 1165 224 1165 454 
C 1165 505 1178 562 1190 613 
L 2054 4032 
C 2093 3968 2093 3956 2118 3898 
L 3642 115 
C 3674 38 3686 0 3744 0 
C 3808 0 3814 19 3840 128 
L 4736 3698 
z
" transform="scale(0.015625)"/>
      </defs>
      <use xlink:href="#CMMI12-59" transform="scale(0.996264)"/>
      <use xlink:href="#CMMI12-4e" transform="translate(56.598607 -14.943915) scale(0.697382)"/>
      <use xlink:href="#CMR17-32" transform="translate(111.278947 -25.404611) scale(0.498132)"/>
     </g>
    </g>
   </g>
  </g>
 </g>
 <defs>
  <clipPath id="p1242f35855">
   <rect x="84.740543" y="7.2" width="725.4" height="609.84"/>
  </clipPath>
 </defs>
</svg>
