<?xml version="1.0" encoding="utf-8" standalone="no"?>
<!DOCTYPE svg PUBLIC "-//W3C//DTD SVG 1.1//EN"
  "http://www.w3.org/Graphics/SVG/1.1/DTD/svg11.dtd">
<svg xmlns:xlink="http://www.w3.org/1999/xlink" width="817.340543pt" height="692.806049pt" viewBox="0 0 817.340543 692.806049" xmlns="http://www.w3.org/2000/svg" version="1.1">
 <metadata>
  <rdf:RDF xmlns:dc="http://purl.org/dc/elements/1.1/" xmlns:cc="http://creativecommons.org/ns#" xmlns:rdf="http://www.w3.org/1999/02/22-rdf-syntax-ns#">
   <cc:Work>
    <dc:type rdf:resource="http://purl.org/dc/dcmitype/StillImage"/>
    <dc:date>2025-03-26T16:04:26.597856</dc:date>
    <dc:format>image/svg+xml</dc:format>
    <dc:creator>
     <cc:Agent>
      <dc:title>Matplotlib v3.7.1, https://matplotlib.org/</dc:title>
     </cc:Agent>
    </dc:creator>
   </cc:Work>
  </rdf:RDF>
 </metadata>
 <defs>
  <style type="text/css">*{stroke-linejoin: round; stroke-linecap: butt}</style>
 </defs>
 <g id="figure_1">
  <g id="patch_1">
   <path d="M 0 692.806049 
L 817.340543 692.806049 
L 817.340543 0 
L 0 0 
z
" style="fill: #ffffff"/>
  </g>
  <g id="axes_1">
   <g id="patch_2">
    <path d="M 84.740543 617.04 
L 810.140543 617.04 
L 810.140543 7.2 
L 84.740543 7.2 
z
" style="fill: #ffffff"/>
   </g>
   <g id="PolyCollection_1">
    <path d="M 9.178043 580.939549 
L 9.178043 605.312308 
L 29.717351 605.312308 
L 44.711179 605.312308 
L 55.656948 605.312308 
L 63.647806 605.312308 
L 69.481777 605.312308 
L 73.741466 605.312308 
L 76.852227 605.312308 
L 79.124624 605.312308 
L 80.785425 605.312308 
L 82.111498 605.312308 
L 83.42602 605.312308 
L 84.740543 605.312308 
L 86.087804 605.312308 
L 87.435066 605.312308 
L 88.782327 605.312308 
L 90.129589 605.312308 
L 91.47685 605.312308 
L 92.824112 605.312308 
L 94.171374 605.312308 
L 95.518635 605.312308 
L 96.865897 605.312308 
L 98.213158 605.312308 
L 99.56042 605.312308 
L 100.907682 605.312308 
L 102.254943 605.312308 
L 103.602205 605.312308 
L 104.949466 605.312308 
L 106.296728 605.312308 
L 107.643989 605.312308 
L 108.991251 605.312308 
L 110.338513 605.312308 
L 111.685774 605.312308 
L 113.033036 605.312308 
L 114.380297 605.312308 
L 115.727559 605.312308 
L 117.07482 605.312308 
L 118.422082 605.312308 
L 119.769344 605.312308 
L 121.116605 605.312308 
L 122.463867 605.312308 
L 123.811128 605.312308 
L 125.15839 605.312308 
L 126.505652 605.312308 
L 127.852913 605.312308 
L 129.200175 605.312308 
L 130.547436 605.312308 
L 131.894699 605.312308 
L 133.275902 605.312308 
L 134.706455 605.312308 
L 136.188485 605.312308 
L 137.72483 605.312308 
L 139.318394 605.312308 
L 140.970849 605.312308 
L 142.684184 605.312308 
L 144.460719 605.312308 
L 146.303001 605.312308 
L 148.212643 605.312308 
L 150.191638 605.312308 
L 152.242772 605.312308 
L 154.369789 605.312308 
L 156.576921 605.312308 
L 158.863167 605.312308 
L 161.23367 605.312308 
L 163.692746 605.312308 
L 166.240541 605.312308 
L 168.88361 605.312308 
L 171.623417 605.312308 
L 174.463215 605.312308 
L 177.408712 605.312308 
L 180.46251 605.312308 
L 183.628419 605.312308 
L 186.910786 605.312308 
L 190.314049 605.312308 
L 193.842604 605.312308 
L 197.500918 605.312308 
L 201.293821 605.312308 
L 205.22697 605.312308 
L 209.304744 605.312308 
L 213.53248 605.312308 
L 217.91616 605.312308 
L 222.461467 605.312308 
L 227.17384 605.312308 
L 232.059762 605.312308 
L 237.125821 605.312308 
L 242.378625 605.312308 
L 247.824813 605.312308 
L 253.442863 605.312308 
L 259.222913 605.312308 
L 265.21574 605.312308 
L 271.429742 605.312308 
L 277.872644 605.312308 
L 284.553028 605.312308 
L 291.4797 605.312308 
L 298.661623 605.312308 
L 306.108307 605.312308 
L 313.829633 605.312308 
L 321.835592 605.312308 
L 330.136629 605.312308 
L 338.743693 605.312308 
L 347.240659 605.312308 
L 353.582193 605.312308 
L 358.098232 605.312308 
L 361.314826 605.312308 
L 363.606378 605.312308 
L 365.239331 605.312308 
L 366.522694 605.312308 
L 367.795107 605.312308 
L 369.067521 605.312308 
L 370.339935 605.312308 
L 371.612349 605.312308 
L 372.884762 605.312308 
L 374.157176 605.312308 
L 375.42959 605.312308 
L 376.702003 605.312308 
L 377.629898 605.312308 
L 378.557793 605.312308 
L 379.485688 605.312308 
L 380.413583 605.312308 
L 381.341477 605.312308 
L 382.269372 605.312308 
L 383.197267 605.312308 
L 384.125162 605.312308 
L 385.053056 605.312308 
L 385.980951 605.312308 
L 386.908846 605.312308 
L 387.836741 605.312308 
L 388.764636 605.312308 
L 389.69253 605.312308 
L 390.620425 605.312308 
L 391.54832 605.312308 
L 392.476215 605.312308 
L 393.404109 605.312308 
L 394.332004 605.312308 
L 395.259899 605.312308 
L 396.187794 605.312308 
L 397.115689 605.312308 
L 398.043583 605.312308 
L 398.971478 605.312308 
L 399.899373 605.312308 
L 400.827268 605.312308 
L 401.755162 605.312308 
L 402.683057 605.312308 
L 403.610952 605.312308 
L 404.538847 605.312308 
L 405.466742 605.312308 
L 406.394636 605.312308 
L 407.322531 605.312308 
L 408.250426 605.312308 
L 409.178321 605.312308 
L 410.106215 605.312308 
L 411.03411 605.312308 
L 411.962005 605.312308 
L 412.8899 605.312308 
L 413.817795 605.312308 
L 414.745689 605.312308 
L 415.673584 605.312308 
L 416.601479 605.312308 
L 417.529374 605.312308 
L 418.466771 605.312308 
L 419.462355 605.312308 
L 420.545322 605.312308 
L 421.713006 605.312308 
L 422.98146 605.312308 
L 424.358264 605.312308 
L 425.84987 605.312308 
L 427.468869 605.312308 
L 429.229604 605.312308 
L 431.143679 605.312308 
L 433.224812 605.312308 
L 435.488341 605.312308 
L 437.951073 605.312308 
L 440.63164 605.312308 
L 443.549241 605.312308 
L 446.721698 605.312308 
L 450.174259 605.312308 
L 453.926016 605.312308 
L 458.002814 605.312308 
L 462.425952 605.312308 
L 467.21716 605.312308 
L 472.396058 605.312308 
L 477.975382 605.312308 
L 483.958078 605.312308 
L 490.325069 605.312308 
L 496.978314 605.312308 
L 503.659157 605.312308 
L 510.339999 605.312308 
L 517.020842 605.312308 
L 523.701684 605.312308 
L 530.382526 605.312308 
L 537.063369 605.312308 
L 543.744211 605.312308 
L 550.425053 605.312308 
L 557.105896 605.312308 
L 563.786738 605.312308 
L 570.467581 605.312308 
L 577.148423 605.312308 
L 583.829265 605.312308 
L 590.510108 605.312308 
L 599.95542 605.312308 
L 609.400733 605.312308 
L 618.846045 605.312308 
L 628.291358 605.312308 
L 637.73667 605.312308 
L 647.181983 605.312308 
L 656.627295 605.312308 
L 666.072608 605.312308 
L 675.51792 605.312308 
L 684.963233 605.312308 
L 694.408545 605.312308 
L 703.853858 605.312308 
L 713.29917 605.312308 
L 722.744483 605.312308 
L 732.189795 605.312308 
L 741.635108 605.312308 
L 751.08042 605.312308 
L 760.525733 605.312308 
L 769.971045 605.312308 
L 779.416358 605.312308 
L 788.86167 605.312308 
L 798.306983 605.312308 
L 807.752295 605.312308 
L 817.197608 605.312308 
L 817.197608 605.312308 
L 817.197608 605.312308 
L 807.752295 605.272725 
L 798.306983 604.662754 
L 788.86167 603.689068 
L 779.416358 602.314157 
L 769.971045 600.485805 
L 760.525733 598.191363 
L 751.08042 595.447184 
L 741.635108 592.226655 
L 732.189795 588.628102 
L 722.744483 584.58616 
L 713.29917 580.016537 
L 703.853858 574.683182 
L 694.408545 567.763714 
L 684.963233 558.875477 
L 675.51792 547.650384 
L 666.072608 536.595012 
L 656.627295 525.570294 
L 647.181983 512.157028 
L 637.73667 496.799052 
L 628.291358 490.716157 
L 618.846045 488.991663 
L 609.400733 488.039944 
L 599.95542 486.105268 
L 590.510108 366.177361 
L 583.829265 366.221173 
L 577.148423 366.269577 
L 570.467581 366.446105 
L 563.786738 366.655293 
L 557.105896 367.041356 
L 550.425053 367.584282 
L 543.744211 368.378771 
L 537.063369 369.496655 
L 530.382526 371.040968 
L 523.701684 373.085795 
L 517.020842 375.682909 
L 510.339999 378.880655 
L 503.659157 382.63772 
L 496.978314 387.087886 
L 490.325069 392.308792 
L 483.958078 398.63129 
L 477.975382 407.195702 
L 472.396058 419.547244 
L 467.21716 435.906483 
L 462.425952 456.174693 
L 458.002814 485.659751 
L 453.926016 520.936904 
L 450.174259 556.039003 
L 446.721698 576.938166 
L 443.549241 585.091144 
L 440.63164 589.147005 
L 437.951073 591.164997 
L 435.488341 592.314728 
L 433.224812 592.996489 
L 431.143679 593.368972 
L 429.229604 593.494385 
L 427.468869 593.376005 
L 425.84987 592.920635 
L 424.358264 592.112703 
L 422.98146 590.906619 
L 421.713006 589.206585 
L 420.545322 586.918796 
L 419.462355 584.097536 
L 418.466771 580.931713 
L 417.529374 577.72725 
L 416.601479 574.760657 
L 415.673584 572.130331 
L 414.745689 569.84464 
L 413.817795 567.867615 
L 412.8899 566.180529 
L 411.962005 564.770331 
L 411.03411 563.625226 
L 410.106215 562.741808 
L 409.178321 562.111529 
L 408.250426 561.715081 
L 407.322531 561.518026 
L 406.394636 561.490593 
L 405.466742 561.644994 
L 404.538847 561.985313 
L 403.610952 562.49533 
L 402.683057 563.147722 
L 401.755162 563.912861 
L 400.827268 564.767017 
L 399.899373 565.68065 
L 398.971478 566.599613 
L 398.043583 567.428126 
L 397.115689 568.083344 
L 396.187794 568.535036 
L 395.259899 568.897953 
L 394.332004 569.221855 
L 393.404109 569.406367 
L 392.476215 569.416156 
L 391.54832 569.198823 
L 390.620425 568.674125 
L 389.69253 567.802844 
L 388.764636 566.550276 
L 387.836741 564.993815 
L 386.908846 563.110338 
L 385.980951 560.841181 
L 385.053056 558.022197 
L 384.125162 554.280485 
L 383.197267 549.537689 
L 382.269372 532.58462 
L 381.341477 483.79592 
L 380.413583 437.758436 
L 379.485688 376.431209 
L 378.557793 359.313463 
L 377.629898 358.418598 
L 376.702003 358.315922 
L 375.42959 362.208152 
L 374.157176 360.847898 
L 372.884762 359.020766 
L 371.612349 358.535236 
L 370.339935 357.291682 
L 369.067521 358.035393 
L 367.795107 357.389821 
L 366.522694 357.908081 
L 365.239331 357.549362 
L 363.606378 357.864206 
L 361.314826 357.734444 
L 358.098232 357.927166 
L 353.582193 357.916783 
L 347.240659 358.052306 
L 338.743693 358.067265 
L 330.136629 358.15641 
L 321.835592 358.149932 
L 313.829633 358.176762 
L 306.108307 358.131885 
L 298.661623 358.08669 
L 291.4797 357.990853 
L 284.553028 357.879788 
L 277.872644 357.733204 
L 271.429742 357.56951 
L 265.21574 357.383074 
L 259.222913 357.18469 
L 253.442863 356.97522 
L 247.824813 356.762261 
L 242.378625 356.549199 
L 237.125821 356.34172 
L 232.059762 356.142889 
L 227.17384 355.956293 
L 222.461467 355.783625 
L 217.91616 355.626065 
L 213.53248 355.484516 
L 209.304744 355.357296 
L 205.22697 355.245597 
L 201.293821 355.14325 
L 197.500918 355.054391 
L 193.842604 354.967151 
L 190.314049 354.890623 
L 186.910786 354.807295 
L 183.628419 354.730623 
L 180.46251 354.640265 
L 177.408712 354.550576 
L 174.463215 354.443096 
L 171.623417 354.32949 
L 168.88361 354.196776 
L 166.240541 354.052837 
L 163.692746 353.89113 
L 161.23367 353.71723 
L 158.863167 353.5302 
L 156.576921 353.335523 
L 154.369789 353.136188 
L 152.242772 352.938199 
L 150.191638 352.746995 
L 148.212643 352.569419 
L 146.303001 352.412633 
L 144.460719 352.283907 
L 142.684184 352.191476 
L 140.970849 352.14169 
L 139.318394 352.291336 
L 137.72483 352.477301 
L 136.188485 352.685772 
L 134.706455 352.911653 
L 133.275902 353.15943 
L 131.894699 353.425934 
L 130.547436 353.711955 
L 129.200175 354.0145 
L 127.852913 354.457032 
L 126.505652 355.093169 
L 125.15839 355.806922 
L 123.811128 356.591668 
L 122.463867 357.437249 
L 121.116605 358.327207 
L 119.769344 359.239375 
L 118.422082 360.145066 
L 117.07482 361.013324 
L 115.727559 361.812018 
L 114.380297 362.50303 
L 113.033036 363.057227 
L 111.685774 363.467605 
L 110.338513 363.733889 
L 108.991251 363.866915 
L 107.643989 363.880591 
L 106.296728 363.789927 
L 104.949466 363.596463 
L 103.602205 363.311639 
L 102.254943 362.957444 
L 100.907682 362.558065 
L 99.56042 362.144558 
L 98.213158 361.743013 
L 96.865897 361.348085 
L 95.518635 360.909306 
L 94.171374 360.239847 
L 92.824112 295.522371 
L 91.47685 288.6452 
L 90.129589 285.954026 
L 88.782327 285.553898 
L 87.435066 285.910774 
L 86.087804 286.345789 
L 84.740543 286.774565 
L 83.42602 314.59147 
L 82.111498 573.289773 
L 80.785425 574.164237 
L 79.124624 575.28724 
L 76.852227 576.461877 
L 73.741466 577.578764 
L 69.481777 578.564324 
L 63.647806 579.383958 
L 55.656948 580.029759 
L 44.711179 580.498634 
L 29.717351 580.798079 
L 9.178043 580.939549 
z
" clip-path="url(#pde456fdb0a)" style="fill: #1f77b4"/>
   </g>
   <g id="PolyCollection_2">
    <path d="M 9.178043 576.002156 
L 9.178043 580.939549 
L 29.717351 580.798079 
L 44.711179 580.498634 
L 55.656948 580.029759 
L 63.647806 579.383958 
L 69.481777 578.564324 
L 73.741466 577.578764 
L 76.852227 576.461877 
L 79.124624 575.28724 
L 80.785425 574.164237 
L 82.111498 573.289773 
L 83.42602 314.59147 
L 84.740543 286.774565 
L 86.087804 286.345789 
L 87.435066 285.910774 
L 88.782327 285.553898 
L 90.129589 285.954026 
L 91.47685 288.6452 
L 92.824112 295.522371 
L 94.171374 360.239847 
L 95.518635 360.909306 
L 96.865897 361.348085 
L 98.213158 361.743013 
L 99.56042 362.144558 
L 100.907682 362.558065 
L 102.254943 362.957444 
L 103.602205 363.311639 
L 104.949466 363.596463 
L 106.296728 363.789927 
L 107.643989 363.880591 
L 108.991251 363.866915 
L 110.338513 363.733889 
L 111.685774 363.467605 
L 113.033036 363.057227 
L 114.380297 362.50303 
L 115.727559 361.812018 
L 117.07482 361.013324 
L 118.422082 360.145066 
L 119.769344 359.239375 
L 121.116605 358.327207 
L 122.463867 357.437249 
L 123.811128 356.591668 
L 125.15839 355.806922 
L 126.505652 355.093169 
L 127.852913 354.457032 
L 129.200175 354.0145 
L 130.547436 353.711955 
L 131.894699 353.425934 
L 133.275902 353.15943 
L 134.706455 352.911653 
L 136.188485 352.685772 
L 137.72483 352.477301 
L 139.318394 352.291336 
L 140.970849 352.14169 
L 142.684184 352.191476 
L 144.460719 352.283907 
L 146.303001 352.412633 
L 148.212643 352.569419 
L 150.191638 352.746995 
L 152.242772 352.938199 
L 154.369789 353.136188 
L 156.576921 353.335523 
L 158.863167 353.5302 
L 161.23367 353.71723 
L 163.692746 353.89113 
L 166.240541 354.052837 
L 168.88361 354.196776 
L 171.623417 354.32949 
L 174.463215 354.443096 
L 177.408712 354.550576 
L 180.46251 354.640265 
L 183.628419 354.730623 
L 186.910786 354.807295 
L 190.314049 354.890623 
L 193.842604 354.967151 
L 197.500918 355.054391 
L 201.293821 355.14325 
L 205.22697 355.245597 
L 209.304744 355.357296 
L 213.53248 355.484516 
L 217.91616 355.626065 
L 222.461467 355.783625 
L 227.17384 355.956293 
L 232.059762 356.142889 
L 237.125821 356.34172 
L 242.378625 356.549199 
L 247.824813 356.762261 
L 253.442863 356.97522 
L 259.222913 357.18469 
L 265.21574 357.383074 
L 271.429742 357.56951 
L 277.872644 357.733204 
L 284.553028 357.879788 
L 291.4797 357.990853 
L 298.661623 358.08669 
L 306.108307 358.131885 
L 313.829633 358.176762 
L 321.835592 358.149932 
L 330.136629 358.15641 
L 338.743693 358.067265 
L 347.240659 358.052306 
L 353.582193 357.916783 
L 358.098232 357.927166 
L 361.314826 357.734444 
L 363.606378 357.864206 
L 365.239331 357.549362 
L 366.522694 357.908081 
L 367.795107 357.389821 
L 369.067521 358.035393 
L 370.339935 357.291682 
L 371.612349 358.535236 
L 372.884762 359.020766 
L 374.157176 360.847898 
L 375.42959 362.208152 
L 376.702003 358.315922 
L 377.629898 358.418598 
L 378.557793 359.313463 
L 379.485688 376.431209 
L 380.413583 437.758436 
L 381.341477 483.79592 
L 382.269372 532.58462 
L 383.197267 549.537689 
L 384.125162 554.280485 
L 385.053056 558.022197 
L 385.980951 560.841181 
L 386.908846 563.110338 
L 387.836741 564.993815 
L 388.764636 566.550276 
L 389.69253 567.802844 
L 390.620425 568.674125 
L 391.54832 569.198823 
L 392.476215 569.416156 
L 393.404109 569.406367 
L 394.332004 569.221855 
L 395.259899 568.897953 
L 396.187794 568.535036 
L 397.115689 568.083344 
L 398.043583 567.428126 
L 398.971478 566.599613 
L 399.899373 565.68065 
L 400.827268 564.767017 
L 401.755162 563.912861 
L 402.683057 563.147722 
L 403.610952 562.49533 
L 404.538847 561.985313 
L 405.466742 561.644994 
L 406.394636 561.490593 
L 407.322531 561.518026 
L 408.250426 561.715081 
L 409.178321 562.111529 
L 410.106215 562.741808 
L 411.03411 563.625226 
L 411.962005 564.770331 
L 412.8899 566.180529 
L 413.817795 567.867615 
L 414.745689 569.84464 
L 415.673584 572.130331 
L 416.601479 574.760657 
L 417.529374 577.72725 
L 418.466771 580.931713 
L 419.462355 584.097536 
L 420.545322 586.918796 
L 421.713006 589.206585 
L 422.98146 590.906619 
L 424.358264 592.112703 
L 425.84987 592.920635 
L 427.468869 593.376005 
L 429.229604 593.494385 
L 431.143679 593.368972 
L 433.224812 592.996489 
L 435.488341 592.314728 
L 437.951073 591.164997 
L 440.63164 589.147005 
L 443.549241 585.091144 
L 446.721698 576.938166 
L 450.174259 556.039003 
L 453.926016 520.936904 
L 458.002814 485.659751 
L 462.425952 456.174693 
L 467.21716 435.906483 
L 472.396058 419.547244 
L 477.975382 407.195702 
L 483.958078 398.63129 
L 490.325069 392.308792 
L 496.978314 387.087886 
L 503.659157 382.63772 
L 510.339999 378.880655 
L 517.020842 375.682909 
L 523.701684 373.085795 
L 530.382526 371.040968 
L 537.063369 369.496655 
L 543.744211 368.378771 
L 550.425053 367.584282 
L 557.105896 367.041356 
L 563.786738 366.655293 
L 570.467581 366.446105 
L 577.148423 366.269577 
L 583.829265 366.221173 
L 590.510108 366.177361 
L 599.95542 486.105268 
L 609.400733 488.039944 
L 618.846045 488.991663 
L 628.291358 490.716157 
L 637.73667 496.799052 
L 647.181983 512.157028 
L 656.627295 525.570294 
L 666.072608 536.595012 
L 675.51792 547.650384 
L 684.963233 558.875477 
L 694.408545 567.763714 
L 703.853858 574.683182 
L 713.29917 580.016537 
L 722.744483 584.58616 
L 732.189795 588.628102 
L 741.635108 592.226655 
L 751.08042 595.447184 
L 760.525733 598.191363 
L 769.971045 600.485805 
L 779.416358 602.314157 
L 788.86167 603.689068 
L 798.306983 604.662754 
L 807.752295 605.272725 
L 817.197608 605.312308 
L 817.197608 556.424311 
L 817.197608 556.424311 
L 807.752295 556.275074 
L 798.306983 555.447564 
L 788.86167 554.155029 
L 779.416358 552.368337 
L 769.971045 550.051076 
L 760.525733 547.210172 
L 751.08042 543.889276 
L 741.635108 540.090578 
L 732.189795 535.94539 
L 722.744483 531.41951 
L 713.29917 526.468171 
L 703.853858 520.87671 
L 694.408545 513.85914 
L 684.963233 505.003381 
L 675.51792 493.970717 
L 666.072608 483.233391 
L 656.627295 472.684926 
L 647.181983 459.872476 
L 637.73667 445.229252 
L 628.291358 439.940889 
L 618.846045 438.934079 
L 609.400733 438.560656 
L 599.95542 436.950967 
L 590.510108 317.080216 
L 583.829265 316.912862 
L 577.148423 316.431991 
L 570.467581 315.708595 
L 563.786738 314.603286 
L 557.105896 313.224637 
L 550.425053 311.553068 
L 543.744211 309.690671 
L 537.063369 307.701481 
L 530.382526 305.666062 
L 523.701684 303.655915 
L 517.020842 301.741189 
L 510.339999 299.999745 
L 503.659157 298.346991 
L 496.978314 296.895536 
L 490.325069 295.790509 
L 483.958078 295.381457 
L 477.975382 296.751357 
L 472.396058 301.345247 
L 467.21716 309.567442 
L 462.425952 321.508319 
L 458.002814 342.577341 
L 453.926016 369.413266 
L 450.174259 396.144531 
L 446.721698 408.937319 
L 443.549241 409.649262 
L 440.63164 406.873199 
L 437.951073 402.589664 
L 435.488341 398.18951 
L 433.224812 394.186239 
L 431.143679 390.678985 
L 429.229604 387.545198 
L 427.468869 384.640369 
L 425.84987 381.729496 
L 424.358264 378.749978 
L 422.98146 375.580151 
L 421.713006 372.092339 
L 420.545322 368.016086 
L 419.462355 363.418831 
L 418.466771 358.366742 
L 417.529374 353.158099 
L 416.601479 347.968802 
L 415.673584 342.877391 
L 414.745689 337.833075 
L 413.817795 332.763976 
L 412.8899 327.584312 
L 411.962005 322.219048 
L 411.03411 316.579978 
L 410.106215 310.610806 
L 409.178321 304.299342 
L 408.250426 297.679025 
L 407.322531 290.804702 
L 406.394636 283.760909 
L 405.466742 276.634472 
L 404.538847 269.555038 
L 403.610952 262.541491 
L 402.683057 255.614954 
L 401.755162 248.696685 
L 400.827268 241.680978 
L 399.899373 234.614029 
L 398.971478 227.386796 
L 398.043583 219.881936 
L 397.115689 211.95988 
L 396.187794 203.61704 
L 395.259899 196.36496 
L 394.332004 191.014575 
L 393.404109 185.979481 
L 392.476215 181.347922 
L 391.54832 177.263966 
L 390.620425 173.923255 
L 389.69253 171.257369 
L 388.764636 169.133069 
L 387.836741 167.551794 
L 386.908846 166.412836 
L 385.980951 165.799872 
L 385.053056 165.925851 
L 384.125162 166.868651 
L 383.197267 169.691777 
L 382.269372 174.931923 
L 381.341477 209.887613 
L 380.413583 277.001284 
L 379.485688 280.253021 
L 378.557793 282.063801 
L 377.629898 295.558174 
L 376.702003 305.794925 
L 375.42959 320.045688 
L 374.157176 325.536755 
L 372.884762 329.499953 
L 371.612349 333.871804 
L 370.339935 336.889703 
L 369.067521 341.320075 
L 367.795107 343.830515 
L 366.522694 347.037831 
L 365.239331 348.945301 
L 363.606378 351.160478 
L 361.314826 352.586121 
L 358.098232 354.061748 
L 353.582193 355.050691 
L 347.240659 356.005433 
L 338.743693 356.60589 
L 330.136629 357.183577 
L 321.835592 357.474771 
L 313.829633 357.767324 
L 306.108307 357.839349 
L 298.661623 357.918622 
L 291.4797 357.839188 
L 284.553028 357.770053 
L 277.872644 357.592821 
L 271.429742 357.430792 
L 265.21574 357.197175 
L 259.222913 356.988071 
L 253.442863 356.731293 
L 247.824813 356.508673 
L 242.378625 356.256138 
L 237.125821 356.043888 
L 232.059762 355.815479 
L 227.17384 355.62743 
L 222.461467 355.433023 
L 217.91616 355.272942 
L 213.53248 355.112662 
L 209.304744 354.975835 
L 205.22697 354.841957 
L 201.293821 354.716068 
L 197.500918 354.594272 
L 193.842604 354.462802 
L 190.314049 354.335025 
L 186.910786 354.181087 
L 183.628419 354.02832 
L 180.46251 353.837424 
L 177.408712 353.642624 
L 174.463215 353.404018 
L 171.623417 353.15594 
L 168.88361 352.86469 
L 166.240541 352.561493 
L 163.692746 352.22138 
L 161.23367 351.873225 
L 158.863167 351.499738 
L 156.576921 351.130127 
L 154.369789 350.751359 
L 152.242772 350.394608 
L 150.191638 350.047119 
L 148.212643 349.743736 
L 146.303001 349.468861 
L 144.460719 349.261558 
L 142.684184 349.101408 
L 140.970849 349.029828 
L 139.318394 349.172286 
L 137.72483 349.398658 
L 136.188485 349.662836 
L 134.706455 349.988833 
L 133.275902 350.355004 
L 131.894699 350.777863 
L 130.547436 351.239949 
L 129.200175 351.748629 
L 127.852913 352.418204 
L 126.505652 353.304968 
L 125.15839 354.289113 
L 123.811128 355.360737 
L 122.463867 356.514319 
L 121.116605 357.72592 
L 119.769344 358.984 
L 118.422082 360.145066 
L 117.07482 361.013324 
L 115.727559 361.812018 
L 114.380297 362.50303 
L 113.033036 363.057227 
L 111.685774 363.467605 
L 110.338513 363.733889 
L 108.991251 363.866915 
L 107.643989 363.880591 
L 106.296728 363.789927 
L 104.949466 363.596463 
L 103.602205 363.311639 
L 102.254943 362.957444 
L 100.907682 362.558065 
L 99.56042 362.144558 
L 98.213158 361.743013 
L 96.865897 361.348085 
L 95.518635 360.909306 
L 94.171374 360.239847 
L 92.824112 295.522371 
L 91.47685 288.6452 
L 90.129589 285.954026 
L 88.782327 284.572023 
L 87.435066 283.698436 
L 86.087804 282.942775 
L 84.740543 282.600102 
L 83.42602 309.293559 
L 82.111498 567.694296 
L 80.785425 568.0034 
L 79.124624 569.27443 
L 76.852227 570.301096 
L 73.741466 571.606564 
L 69.481777 572.746626 
L 63.647806 573.810307 
L 55.656948 574.673406 
L 44.711179 575.344887 
L 29.717351 575.784081 
L 9.178043 576.002156 
z
" clip-path="url(#pde456fdb0a)" style="fill: #ff7f0e"/>
   </g>
   <g id="PolyCollection_3">
    <path d="M 9.178043 18.927692 
L 9.178043 576.002156 
L 29.717351 575.784081 
L 44.711179 575.344887 
L 55.656948 574.673406 
L 63.647806 573.810307 
L 69.481777 572.746626 
L 73.741466 571.606564 
L 76.852227 570.301096 
L 79.124624 569.27443 
L 80.785425 568.0034 
L 82.111498 567.694296 
L 83.42602 309.293559 
L 84.740543 282.600102 
L 86.087804 282.942775 
L 87.435066 283.698436 
L 88.782327 284.572023 
L 90.129589 285.954026 
L 91.47685 288.6452 
L 92.824112 295.522371 
L 94.171374 360.239847 
L 95.518635 360.909306 
L 96.865897 361.348085 
L 98.213158 361.743013 
L 99.56042 362.144558 
L 100.907682 362.558065 
L 102.254943 362.957444 
L 103.602205 363.311639 
L 104.949466 363.596463 
L 106.296728 363.789927 
L 107.643989 363.880591 
L 108.991251 363.866915 
L 110.338513 363.733889 
L 111.685774 363.467605 
L 113.033036 363.057227 
L 114.380297 362.50303 
L 115.727559 361.812018 
L 117.07482 361.013324 
L 118.422082 360.145066 
L 119.769344 358.984 
L 121.116605 357.72592 
L 122.463867 356.514319 
L 123.811128 355.360737 
L 125.15839 354.289113 
L 126.505652 353.304968 
L 127.852913 352.418204 
L 129.200175 351.748629 
L 130.547436 351.239949 
L 131.894699 350.777863 
L 133.275902 350.355004 
L 134.706455 349.988833 
L 136.188485 349.662836 
L 137.72483 349.398658 
L 139.318394 349.172286 
L 140.970849 349.029828 
L 142.684184 349.101408 
L 144.460719 349.261558 
L 146.303001 349.468861 
L 148.212643 349.743736 
L 150.191638 350.047119 
L 152.242772 350.394608 
L 154.369789 350.751359 
L 156.576921 351.130127 
L 158.863167 351.499738 
L 161.23367 351.873225 
L 163.692746 352.22138 
L 166.240541 352.561493 
L 168.88361 352.86469 
L 171.623417 353.15594 
L 174.463215 353.404018 
L 177.408712 353.642624 
L 180.46251 353.837424 
L 183.628419 354.02832 
L 186.910786 354.181087 
L 190.314049 354.335025 
L 193.842604 354.462802 
L 197.500918 354.594272 
L 201.293821 354.716068 
L 205.22697 354.841957 
L 209.304744 354.975835 
L 213.53248 355.112662 
L 217.91616 355.272942 
L 222.461467 355.433023 
L 227.17384 355.62743 
L 232.059762 355.815479 
L 237.125821 356.043888 
L 242.378625 356.256138 
L 247.824813 356.508673 
L 253.442863 356.731293 
L 259.222913 356.988071 
L 265.21574 357.197175 
L 271.429742 357.430792 
L 277.872644 357.592821 
L 284.553028 357.770053 
L 291.4797 357.839188 
L 298.661623 357.918622 
L 306.108307 357.839349 
L 313.829633 357.767324 
L 321.835592 357.474771 
L 330.136629 357.183577 
L 338.743693 356.60589 
L 347.240659 356.005433 
L 353.582193 355.050691 
L 358.098232 354.061748 
L 361.314826 352.586121 
L 363.606378 351.160478 
L 365.239331 348.945301 
L 366.522694 347.037831 
L 367.795107 343.830515 
L 369.067521 341.320075 
L 370.339935 336.889703 
L 371.612349 333.871804 
L 372.884762 329.499953 
L 374.157176 325.536755 
L 375.42959 320.045688 
L 376.702003 305.794925 
L 377.629898 295.558174 
L 378.557793 282.063801 
L 379.485688 280.253021 
L 380.413583 277.001284 
L 381.341477 209.887613 
L 382.269372 174.931923 
L 383.197267 169.691777 
L 384.125162 166.868651 
L 385.053056 165.925851 
L 385.980951 165.799872 
L 386.908846 166.412836 
L 387.836741 167.551794 
L 388.764636 169.133069 
L 389.69253 171.257369 
L 390.620425 173.923255 
L 391.54832 177.263966 
L 392.476215 181.347922 
L 393.404109 185.979481 
L 394.332004 191.014575 
L 395.259899 196.36496 
L 396.187794 203.61704 
L 397.115689 211.95988 
L 398.043583 219.881936 
L 398.971478 227.386796 
L 399.899373 234.614029 
L 400.827268 241.680978 
L 401.755162 248.696685 
L 402.683057 255.614954 
L 403.610952 262.541491 
L 404.538847 269.555038 
L 405.466742 276.634472 
L 406.394636 283.760909 
L 407.322531 290.804702 
L 408.250426 297.679025 
L 409.178321 304.299342 
L 410.106215 310.610806 
L 411.03411 316.579978 
L 411.962005 322.219048 
L 412.8899 327.584312 
L 413.817795 332.763976 
L 414.745689 337.833075 
L 415.673584 342.877391 
L 416.601479 347.968802 
L 417.529374 353.158099 
L 418.466771 358.366742 
L 419.462355 363.418831 
L 420.545322 368.016086 
L 421.713006 372.092339 
L 422.98146 375.580151 
L 424.358264 378.749978 
L 425.84987 381.729496 
L 427.468869 384.640369 
L 429.229604 387.545198 
L 431.143679 390.678985 
L 433.224812 394.186239 
L 435.488341 398.18951 
L 437.951073 402.589664 
L 440.63164 406.873199 
L 443.549241 409.649262 
L 446.721698 408.937319 
L 450.174259 396.144531 
L 453.926016 369.413266 
L 458.002814 342.577341 
L 462.425952 321.508319 
L 467.21716 309.567442 
L 472.396058 301.345247 
L 477.975382 296.751357 
L 483.958078 295.381457 
L 490.325069 295.790509 
L 496.978314 296.895536 
L 503.659157 298.346991 
L 510.339999 299.999745 
L 517.020842 301.741189 
L 523.701684 303.655915 
L 530.382526 305.666062 
L 537.063369 307.701481 
L 543.744211 309.690671 
L 550.425053 311.553068 
L 557.105896 313.224637 
L 563.786738 314.603286 
L 570.467581 315.708595 
L 577.148423 316.431991 
L 583.829265 316.912862 
L 590.510108 317.080216 
L 599.95542 436.950967 
L 609.400733 438.560656 
L 618.846045 438.934079 
L 628.291358 439.940889 
L 637.73667 445.229252 
L 647.181983 459.872476 
L 656.627295 472.684926 
L 666.072608 483.233391 
L 675.51792 493.970717 
L 684.963233 505.003381 
L 694.408545 513.85914 
L 703.853858 520.87671 
L 713.29917 526.468171 
L 722.744483 531.41951 
L 732.189795 535.94539 
L 741.635108 540.090578 
L 751.08042 543.889276 
L 760.525733 547.210172 
L 769.971045 550.051076 
L 779.416358 552.368337 
L 788.86167 554.155029 
L 798.306983 555.447564 
L 807.752295 556.275074 
L 817.197608 556.424311 
L 817.197608 421.543615 
L 817.197608 421.543615 
L 807.752295 421.339897 
L 798.306983 420.401099 
L 788.86167 418.937926 
L 779.416358 416.919337 
L 769.971045 414.306893 
L 760.525733 411.107031 
L 751.08042 407.359768 
L 741.635108 403.060452 
L 732.189795 398.337375 
L 722.744483 393.146048 
L 713.29917 387.442297 
L 703.853858 381.003722 
L 694.408545 373.035301 
L 684.963233 363.126041 
L 675.51792 350.935203 
L 666.072608 338.938051 
L 656.627295 327.009055 
L 647.181983 312.694086 
L 637.73667 296.441656 
L 628.291358 289.351156 
L 618.846045 286.305282 
L 609.400733 283.724438 
L 599.95542 278.8516 
L 590.510108 154.553424 
L 583.829265 150.036106 
L 577.148423 145.718959 
L 570.467581 141.535919 
L 563.786738 137.221741 
L 557.105896 132.803203 
L 550.425053 128.243851 
L 543.744211 123.634537 
L 537.063369 118.991258 
L 530.382526 114.364146 
L 523.701684 109.775732 
L 517.020842 105.264016 
L 510.339999 100.88383 
L 503.659157 96.517461 
L 496.978314 92.230293 
L 490.325069 88.152166 
L 483.958078 84.662657 
L 477.975382 82.821494 
L 472.396058 84.027454 
L 467.21716 88.866263 
L 462.425952 97.475168 
L 458.002814 115.287015 
L 453.926016 139.09709 
L 450.174259 163.090396 
L 446.721698 173.464748 
L 443.549241 171.956608 
L 440.63164 167.028642 
L 437.951073 160.590736 
L 435.488341 154.315299 
L 433.224812 148.860642 
L 431.143679 144.398874 
L 429.229604 140.739962 
L 427.468869 137.648441 
L 425.84987 134.797555 
L 424.358264 132.148172 
L 422.98146 129.663177 
L 421.713006 127.291977 
L 420.545322 124.801239 
L 419.462355 122.231642 
L 418.466771 119.588719 
L 417.529374 117.10712 
L 416.601479 114.91787 
L 415.673584 113.055035 
L 414.745689 111.405345 
L 413.817795 109.825301 
L 412.8899 108.209602 
L 411.962005 106.486894 
L 411.03411 104.592431 
L 410.106215 102.499932 
L 409.178321 100.209402 
L 408.250426 97.754224 
L 407.322531 95.208464 
L 406.394636 92.667057 
L 405.466742 90.099398 
L 404.538847 87.542146 
L 403.610952 84.995428 
L 402.683057 82.48922 
L 401.755162 79.954176 
L 400.827268 77.269181 
L 399.899373 74.430709 
L 398.971478 71.273704 
L 398.043583 67.569528 
L 397.115689 63.08802 
L 396.187794 57.840068 
L 395.259899 53.84805 
L 394.332004 52.064671 
L 393.404109 50.227789 
L 392.476215 48.35384 
L 391.54832 46.470785 
L 390.620425 44.602121 
L 389.69253 42.754468 
L 388.764636 40.92804 
L 387.836741 39.196999 
L 386.908846 37.522849 
L 385.980951 35.949189 
L 385.053056 34.52334 
L 384.125162 33.20055 
L 383.197267 32.005303 
L 382.269372 30.971614 
L 381.341477 43.38109 
L 380.413583 92.290488 
L 379.485688 87.001307 
L 378.557793 84.872051 
L 377.629898 96.671623 
L 376.702003 104.229826 
L 375.42959 25.665822 
L 374.157176 25.064993 
L 372.884762 24.524457 
L 371.612349 23.997441 
L 370.339935 23.577536 
L 369.067521 25.248617 
L 367.795107 25.229968 
L 366.522694 26.133755 
L 365.239331 25.956457 
L 363.606378 26.298968 
L 361.314826 26.057335 
L 358.098232 26.064552 
L 353.582193 25.777342 
L 347.240659 25.639881 
L 338.743693 25.323412 
L 330.136629 25.147879 
L 321.835592 24.840396 
L 313.829633 24.676918 
L 306.108307 24.427296 
L 298.661623 24.305252 
L 291.4797 24.136935 
L 284.553028 24.0793 
L 277.872644 24.015533 
L 271.429742 24.058946 
L 265.21574 24.113774 
L 259.222913 24.264454 
L 253.442863 24.426663 
L 247.824813 24.669008 
L 242.378625 24.914014 
L 237.125821 25.218715 
L 232.059762 25.513804 
L 227.17384 25.844063 
L 222.461467 26.153146 
L 217.91616 26.473813 
L 213.53248 26.764725 
L 209.304744 27.043818 
L 205.22697 27.28824 
L 201.293821 27.499816 
L 197.500918 27.675917 
L 193.842604 27.799066 
L 190.314049 27.887552 
L 186.910786 27.905833 
L 183.628419 27.890072 
L 180.46251 27.792655 
L 177.408712 27.659254 
L 174.463215 27.440938 
L 171.623417 27.182789 
L 168.88361 26.843126 
L 166.240541 26.461125 
L 163.692746 26.007726 
L 161.23367 25.517281 
L 158.863167 24.97058 
L 156.576921 24.400505 
L 154.369789 23.793347 
L 152.242772 23.182499 
L 150.191638 22.555034 
L 148.212643 21.947279 
L 146.303001 21.343974 
L 144.460719 20.785763 
L 142.684184 20.253376 
L 140.970849 19.79013 
L 139.318394 19.716277 
L 137.72483 19.694699 
L 136.188485 19.652526 
L 134.706455 19.610722 
L 133.275902 19.54696 
L 131.894699 19.478325 
L 130.547436 19.386944 
L 129.200175 19.283902 
L 127.852913 19.453089 
L 126.505652 20.035723 
L 125.15839 20.773576 
L 123.811128 21.668817 
L 122.463867 22.722989 
L 121.116605 23.924209 
L 119.769344 25.253434 
L 118.422082 26.583434 
L 117.07482 27.717682 
L 115.727559 28.899782 
L 114.380297 30.094821 
L 113.033036 31.290408 
L 111.685774 32.483637 
L 110.338513 33.684973 
L 108.991251 34.914352 
L 107.643989 36.194642 
L 106.296728 37.54893 
L 104.949466 38.979424 
L 103.602205 40.493088 
L 102.254943 42.097058 
L 100.907682 43.829842 
L 99.56042 45.699217 
L 98.213158 47.731794 
L 96.865897 49.816409 
L 95.518635 51.966687 
L 94.171374 53.811313 
L 92.824112 18.927692 
L 91.47685 18.927692 
L 90.129589 18.927692 
L 88.782327 18.927692 
L 87.435066 18.927692 
L 86.087804 18.927692 
L 84.740543 18.927692 
L 83.42602 18.927692 
L 82.111498 126.632716 
L 80.785425 20.672041 
L 79.124624 19.673976 
L 76.852227 18.927692 
L 73.741466 18.927692 
L 69.481777 18.927692 
L 63.647806 18.927692 
L 55.656948 18.927692 
L 44.711179 18.927692 
L 29.717351 18.927692 
L 9.178043 18.927692 
z
" clip-path="url(#pde456fdb0a)" style="fill: #2ca02c"/>
   </g>
   <g id="PolyCollection_4">
    <path d="M 9.178043 18.927692 
L 9.178043 18.927692 
L 29.717351 18.927692 
L 44.711179 18.927692 
L 55.656948 18.927692 
L 63.647806 18.927692 
L 69.481777 18.927692 
L 73.741466 18.927692 
L 76.852227 18.927692 
L 79.124624 19.673976 
L 80.785425 20.672041 
L 82.111498 126.632716 
L 83.42602 18.927692 
L 84.740543 18.927692 
L 86.087804 18.927692 
L 87.435066 18.927692 
L 88.782327 18.927692 
L 90.129589 18.927692 
L 91.47685 18.927692 
L 92.824112 18.927692 
L 94.171374 53.811313 
L 95.518635 51.966687 
L 96.865897 49.816409 
L 98.213158 47.731794 
L 99.56042 45.699217 
L 100.907682 43.829842 
L 102.254943 42.097058 
L 103.602205 40.493088 
L 104.949466 38.979424 
L 106.296728 37.54893 
L 107.643989 36.194642 
L 108.991251 34.914352 
L 110.338513 33.684973 
L 111.685774 32.483637 
L 113.033036 31.290408 
L 114.380297 30.094821 
L 115.727559 28.899782 
L 117.07482 27.717682 
L 118.422082 26.583434 
L 119.769344 25.253434 
L 121.116605 23.924209 
L 122.463867 22.722989 
L 123.811128 21.668817 
L 125.15839 20.773576 
L 126.505652 20.035723 
L 127.852913 19.453089 
L 129.200175 19.283902 
L 130.547436 19.386944 
L 131.894699 19.478325 
L 133.275902 19.54696 
L 134.706455 19.610722 
L 136.188485 19.652526 
L 137.72483 19.694699 
L 139.318394 19.716277 
L 140.970849 19.79013 
L 142.684184 20.253376 
L 144.460719 20.785763 
L 146.303001 21.343974 
L 148.212643 21.947279 
L 150.191638 22.555034 
L 152.242772 23.182499 
L 154.369789 23.793347 
L 156.576921 24.400505 
L 158.863167 24.97058 
L 161.23367 25.517281 
L 163.692746 26.007726 
L 166.240541 26.461125 
L 168.88361 26.843126 
L 171.623417 27.182789 
L 174.463215 27.440938 
L 177.408712 27.659254 
L 180.46251 27.792655 
L 183.628419 27.890072 
L 186.910786 27.905833 
L 190.314049 27.887552 
L 193.842604 27.799066 
L 197.500918 27.675917 
L 201.293821 27.499816 
L 205.22697 27.28824 
L 209.304744 27.043818 
L 213.53248 26.764725 
L 217.91616 26.473813 
L 222.461467 26.153146 
L 227.17384 25.844063 
L 232.059762 25.513804 
L 237.125821 25.218715 
L 242.378625 24.914014 
L 247.824813 24.669008 
L 253.442863 24.426663 
L 259.222913 24.264454 
L 265.21574 24.113774 
L 271.429742 24.058946 
L 277.872644 24.015533 
L 284.553028 24.0793 
L 291.4797 24.136935 
L 298.661623 24.305252 
L 306.108307 24.427296 
L 313.829633 24.676918 
L 321.835592 24.840396 
L 330.136629 25.147879 
L 338.743693 25.323412 
L 347.240659 25.639881 
L 353.582193 25.777342 
L 358.098232 26.064552 
L 361.314826 26.057335 
L 363.606378 26.298968 
L 365.239331 25.956457 
L 366.522694 26.133755 
L 367.795107 25.229968 
L 369.067521 25.248617 
L 370.339935 23.577536 
L 371.612349 23.997441 
L 372.884762 24.524457 
L 374.157176 25.064993 
L 375.42959 25.665822 
L 376.702003 104.229826 
L 377.629898 96.671623 
L 378.557793 84.872051 
L 379.485688 87.001307 
L 380.413583 92.290488 
L 381.341477 43.38109 
L 382.269372 30.971614 
L 383.197267 32.005303 
L 384.125162 33.20055 
L 385.053056 34.52334 
L 385.980951 35.949189 
L 386.908846 37.522849 
L 387.836741 39.196999 
L 388.764636 40.92804 
L 389.69253 42.754468 
L 390.620425 44.602121 
L 391.54832 46.470785 
L 392.476215 48.35384 
L 393.404109 50.227789 
L 394.332004 52.064671 
L 395.259899 53.84805 
L 396.187794 57.840068 
L 397.115689 63.08802 
L 398.043583 67.569528 
L 398.971478 71.273704 
L 399.899373 74.430709 
L 400.827268 77.269181 
L 401.755162 79.954176 
L 402.683057 82.48922 
L 403.610952 84.995428 
L 404.538847 87.542146 
L 405.466742 90.099398 
L 406.394636 92.667057 
L 407.322531 95.208464 
L 408.250426 97.754224 
L 409.178321 100.209402 
L 410.106215 102.499932 
L 411.03411 104.592431 
L 411.962005 106.486894 
L 412.8899 108.209602 
L 413.817795 109.825301 
L 414.745689 111.405345 
L 415.673584 113.055035 
L 416.601479 114.91787 
L 417.529374 117.10712 
L 418.466771 119.588719 
L 419.462355 122.231642 
L 420.545322 124.801239 
L 421.713006 127.291977 
L 422.98146 129.663177 
L 424.358264 132.148172 
L 425.84987 134.797555 
L 427.468869 137.648441 
L 429.229604 140.739962 
L 431.143679 144.398874 
L 433.224812 148.860642 
L 435.488341 154.315299 
L 437.951073 160.590736 
L 440.63164 167.028642 
L 443.549241 171.956608 
L 446.721698 173.464748 
L 450.174259 163.090396 
L 453.926016 139.09709 
L 458.002814 115.287015 
L 462.425952 97.475168 
L 467.21716 88.866263 
L 472.396058 84.027454 
L 477.975382 82.821494 
L 483.958078 84.662657 
L 490.325069 88.152166 
L 496.978314 92.230293 
L 503.659157 96.517461 
L 510.339999 100.88383 
L 517.020842 105.264016 
L 523.701684 109.775732 
L 530.382526 114.364146 
L 537.063369 118.991258 
L 543.744211 123.634537 
L 550.425053 128.243851 
L 557.105896 132.803203 
L 563.786738 137.221741 
L 570.467581 141.535919 
L 577.148423 145.718959 
L 583.829265 150.036106 
L 590.510108 154.553424 
L 599.95542 278.8516 
L 609.400733 283.724438 
L 618.846045 286.305282 
L 628.291358 289.351156 
L 637.73667 296.441656 
L 647.181983 312.694086 
L 656.627295 327.009055 
L 666.072608 338.938051 
L 675.51792 350.935203 
L 684.963233 363.126041 
L 694.408545 373.035301 
L 703.853858 381.003722 
L 713.29917 387.442297 
L 722.744483 393.146048 
L 732.189795 398.337375 
L 741.635108 403.060452 
L 751.08042 407.359768 
L 760.525733 411.107031 
L 769.971045 414.306893 
L 779.416358 416.919337 
L 788.86167 418.937926 
L 798.306983 420.401099 
L 807.752295 421.339897 
L 817.197608 421.543615 
L 817.197608 302.393771 
L 817.197608 302.393771 
L 807.752295 302.296333 
L 798.306983 301.573071 
L 788.86167 300.440359 
L 779.416358 298.869885 
L 769.971045 296.82811 
L 760.525733 294.322419 
L 751.08042 291.396217 
L 741.635108 288.050996 
L 732.189795 284.415039 
L 722.744483 280.467217 
L 713.29917 276.178773 
L 703.853858 271.354903 
L 694.408545 265.249053 
L 684.963233 257.490357 
L 675.51792 247.805382 
L 666.072608 238.724937 
L 656.627295 230.282375 
L 647.181983 220.230646 
L 637.73667 209.174285 
L 628.291358 208.580704 
L 618.846045 211.861131 
L 609.400733 215.971818 
L 599.95542 219.677772 
L 590.510108 102.814246 
L 583.829265 102.601699 
L 577.148423 101.77359 
L 570.467581 100.457425 
L 563.786738 98.478994 
L 557.105896 95.988188 
L 550.425053 93.002655 
L 543.744211 89.651888 
L 537.063369 85.982954 
L 530.382526 82.073993 
L 523.701684 77.963628 
L 517.020842 73.701018 
L 510.339999 69.357798 
L 503.659157 64.82049 
L 496.978314 60.133004 
L 490.325069 55.398715 
L 483.958078 50.983928 
L 477.975382 47.953125 
L 472.396058 47.712508 
L 467.21716 50.910028 
L 462.425952 57.828911 
L 458.002814 74.006981 
L 453.926016 96.221466 
L 450.174259 118.653901 
L 446.721698 127.540358 
L 443.549241 124.635519 
L 440.63164 118.423685 
L 437.951073 110.79359 
L 435.488341 103.460319 
L 433.224812 97.089668 
L 431.143679 91.867788 
L 429.229604 87.603519 
L 427.468869 84.070466 
L 425.84987 80.904495 
L 424.358264 78.044035 
L 422.98146 75.441016 
L 421.713006 73.032574 
L 420.545322 70.590758 
L 419.462355 68.156061 
L 418.466771 65.72387 
L 417.529374 63.516518 
L 416.601479 61.654133 
L 415.673584 60.159295 
L 414.745689 58.910324 
L 413.817795 57.753069 
L 412.8899 56.58311 
L 411.962005 55.324487 
L 411.03411 53.919135 
L 410.106215 52.336326 
L 409.178321 50.58655 
L 408.250426 48.704511 
L 407.322531 46.773896 
L 406.394636 44.891545 
L 405.466742 43.034516 
L 404.538847 41.244244 
L 403.610952 39.52727 
L 402.683057 37.91248 
L 401.755162 36.324049 
L 400.827268 34.649819 
L 399.899373 32.89496 
L 398.971478 30.901513 
L 398.043583 28.433838 
L 397.115689 25.246797 
L 396.187794 21.360164 
L 395.259899 18.927692 
L 394.332004 18.927692 
L 393.404109 18.927692 
L 392.476215 18.927692 
L 391.54832 18.927692 
L 390.620425 18.927692 
L 389.69253 18.927692 
L 388.764636 18.927692 
L 387.836741 18.927692 
L 386.908846 18.927692 
L 385.980951 18.927692 
L 385.053056 18.927692 
L 384.125162 18.927692 
L 383.197267 18.927692 
L 382.269372 18.927692 
L 381.341477 31.631101 
L 380.413583 81.581837 
L 379.485688 77.191603 
L 378.557793 75.868084 
L 377.629898 88.387136 
L 376.702003 96.668042 
L 375.42959 18.927692 
L 374.157176 18.927692 
L 372.884762 18.927692 
L 371.612349 18.927692 
L 370.339935 18.94264 
L 369.067521 21.102119 
L 367.795107 21.400919 
L 366.522694 22.757732 
L 365.239331 22.768546 
L 363.606378 23.558185 
L 361.314826 23.37556 
L 358.098232 23.839078 
L 353.582193 23.500367 
L 347.240659 23.817362 
L 338.743693 23.381597 
L 330.136629 23.624247 
L 321.835592 23.178862 
L 313.829633 23.370724 
L 306.108307 22.995013 
L 298.661623 23.156383 
L 291.4797 22.885054 
L 284.553028 23.043007 
L 277.872644 22.900023 
L 271.429742 23.10167 
L 265.21574 23.096613 
L 259.222913 23.360467 
L 253.442863 23.476229 
L 247.824813 23.797855 
L 242.378625 24.005736 
L 237.125821 24.364834 
L 232.059762 24.630195 
L 227.17384 24.99717 
L 222.461467 25.282897 
L 217.91616 25.628573 
L 213.53248 25.901794 
L 209.304744 26.198937 
L 205.22697 26.430894 
L 201.293821 26.656818 
L 197.500918 26.825348 
L 193.842604 26.960914 
L 190.314049 27.046166 
L 186.910786 27.07555 
L 183.628419 27.059767 
L 180.46251 26.972055 
L 177.408712 26.840098 
L 174.463215 26.629571 
L 171.623417 26.372414 
L 168.88361 26.03792 
L 166.240541 25.654896 
L 163.692746 25.203603 
L 161.23367 24.709359 
L 158.863167 24.161852 
L 156.576921 23.585464 
L 154.369789 22.975796 
L 152.242772 22.357436 
L 150.191638 21.728258 
L 148.212643 21.114146 
L 146.303001 20.51365 
L 144.460719 19.953472 
L 142.684184 19.432776 
L 140.970849 18.976365 
L 139.318394 18.927692 
L 137.72483 18.927692 
L 136.188485 18.927692 
L 134.706455 18.927692 
L 133.275902 18.927692 
L 131.894699 18.927692 
L 130.547436 18.927692 
L 129.200175 18.927692 
L 127.852913 19.224255 
L 126.505652 19.953396 
L 125.15839 20.773576 
L 123.811128 21.668817 
L 122.463867 22.722989 
L 121.116605 23.924209 
L 119.769344 25.253434 
L 118.422082 26.583434 
L 117.07482 27.717682 
L 115.727559 28.899782 
L 114.380297 30.094821 
L 113.033036 31.290408 
L 111.685774 32.483637 
L 110.338513 33.684973 
L 108.991251 34.914352 
L 107.643989 36.194642 
L 106.296728 37.54893 
L 104.949466 38.979424 
L 103.602205 40.493088 
L 102.254943 42.097058 
L 100.907682 43.829842 
L 99.56042 45.699217 
L 98.213158 47.731794 
L 96.865897 49.816409 
L 95.518635 51.966687 
L 94.171374 53.811313 
L 92.824112 18.927692 
L 91.47685 18.927692 
L 90.129589 18.927692 
L 88.782327 18.927692 
L 87.435066 18.927692 
L 86.087804 18.927692 
L 84.740543 18.927692 
L 83.42602 18.927692 
L 82.111498 126.632716 
L 80.785425 20.672041 
L 79.124624 19.673976 
L 76.852227 18.927692 
L 73.741466 18.927692 
L 69.481777 18.927692 
L 63.647806 18.927692 
L 55.656948 18.927692 
L 44.711179 18.927692 
L 29.717351 18.927692 
L 9.178043 18.927692 
z
" clip-path="url(#pde456fdb0a)" style="fill: #d62728"/>
   </g>
   <g id="matplotlib.axis_1">
    <g id="xtick_1">
     <g id="line2d_1">
      <path d="M 84.740543 617.04 
L 84.740543 7.2 
" clip-path="url(#pde456fdb0a)" style="fill: none; stroke: #b0b0b0; stroke-width: 0.8; stroke-linecap: square"/>
     </g>
     <g id="line2d_2">
      <defs>
       <path id="m49d9bcb032" d="M 0 0 
L 0 3.5 
" style="stroke: #000000; stroke-width: 0.8"/>
      </defs>
      <g>
       <use xlink:href="#m49d9bcb032" x="84.740543" y="617.04" style="stroke: #000000; stroke-width: 0.8"/>
      </g>
     </g>
     <g id="text_1">
      <!-- $\mathdefault{0.0}$ -->
      <g transform="translate(66.968823 644.795495) scale(0.3 -0.3)">
       <defs>
        <path id="CMR17-30" d="M 2688 2025 
C 2688 2416 2682 3080 2413 3591 
C 2176 4039 1798 4198 1466 4198 
C 1158 4198 768 4058 525 3597 
C 269 3118 243 2524 243 2025 
C 243 1661 250 1106 448 619 
C 723 -39 1216 -128 1466 -128 
C 1760 -128 2208 -7 2470 600 
C 2662 1042 2688 1559 2688 2025 
z
M 1466 -26 
C 1056 -26 813 325 723 812 
C 653 1188 653 1738 653 2096 
C 653 2588 653 2997 736 3387 
C 858 3929 1216 4096 1466 4096 
C 1728 4096 2067 3923 2189 3400 
C 2272 3036 2278 2607 2278 2096 
C 2278 1680 2278 1169 2202 792 
C 2067 95 1690 -26 1466 -26 
z
" transform="scale(0.015625)"/>
        <path id="CMMI12-3a" d="M 1178 307 
C 1178 492 1024 619 870 619 
C 685 619 557 466 557 313 
C 557 128 710 0 864 0 
C 1050 0 1178 153 1178 307 
z
" transform="scale(0.015625)"/>
       </defs>
       <use xlink:href="#CMR17-30" transform="scale(0.996264)"/>
       <use xlink:href="#CMMI12-3a" transform="translate(45.690477 0) scale(0.996264)"/>
       <use xlink:href="#CMR17-30" transform="translate(72.787654 0) scale(0.996264)"/>
      </g>
     </g>
    </g>
    <g id="xtick_2">
     <g id="line2d_3">
      <path d="M 235.865543 617.04 
L 235.865543 7.2 
" clip-path="url(#pde456fdb0a)" style="fill: none; stroke: #b0b0b0; stroke-width: 0.8; stroke-linecap: square"/>
     </g>
     <g id="line2d_4">
      <g>
       <use xlink:href="#m49d9bcb032" x="235.865543" y="617.04" style="stroke: #000000; stroke-width: 0.8"/>
      </g>
     </g>
     <g id="text_2">
      <!-- $\mathdefault{0.1}$ -->
      <g transform="translate(218.093823 644.795495) scale(0.3 -0.3)">
       <defs>
        <path id="CMR17-31" d="M 1702 4058 
C 1702 4192 1696 4192 1606 4192 
C 1357 3916 979 3827 621 3827 
C 602 3827 570 3827 563 3808 
C 557 3795 557 3782 557 3648 
C 755 3648 1088 3686 1344 3839 
L 1344 461 
C 1344 236 1331 160 781 160 
L 589 160 
L 589 0 
C 896 0 1216 0 1523 0 
C 1830 0 2150 0 2458 0 
L 2458 160 
L 2266 160 
C 1715 160 1702 230 1702 458 
L 1702 4058 
z
" transform="scale(0.015625)"/>
       </defs>
       <use xlink:href="#CMR17-30" transform="scale(0.996264)"/>
       <use xlink:href="#CMMI12-3a" transform="translate(45.690477 0) scale(0.996264)"/>
       <use xlink:href="#CMR17-31" transform="translate(72.787654 0) scale(0.996264)"/>
      </g>
     </g>
    </g>
    <g id="xtick_3">
     <g id="line2d_5">
      <path d="M 386.990543 617.04 
L 386.990543 7.2 
" clip-path="url(#pde456fdb0a)" style="fill: none; stroke: #b0b0b0; stroke-width: 0.8; stroke-linecap: square"/>
     </g>
     <g id="line2d_6">
      <g>
       <use xlink:href="#m49d9bcb032" x="386.990543" y="617.04" style="stroke: #000000; stroke-width: 0.8"/>
      </g>
     </g>
     <g id="text_3">
      <!-- $\mathdefault{0.2}$ -->
      <g transform="translate(369.218823 644.795495) scale(0.3 -0.3)">
       <defs>
        <path id="CMR17-32" d="M 2669 989 
L 2554 989 
C 2490 536 2438 459 2413 420 
C 2381 369 1920 369 1830 369 
L 602 369 
C 832 619 1280 1072 1824 1597 
C 2214 1967 2669 2402 2669 3035 
C 2669 3790 2067 4224 1395 4224 
C 691 4224 262 3604 262 3030 
C 262 2780 448 2748 525 2748 
C 589 2748 781 2787 781 3010 
C 781 3207 614 3264 525 3264 
C 486 3264 448 3258 422 3245 
C 544 3790 915 4058 1306 4058 
C 1862 4058 2227 3617 2227 3035 
C 2227 2479 1901 2000 1536 1584 
L 262 146 
L 262 0 
L 2515 0 
L 2669 989 
z
" transform="scale(0.015625)"/>
       </defs>
       <use xlink:href="#CMR17-30" transform="scale(0.996264)"/>
       <use xlink:href="#CMMI12-3a" transform="translate(45.690477 0) scale(0.996264)"/>
       <use xlink:href="#CMR17-32" transform="translate(72.787654 0) scale(0.996264)"/>
      </g>
     </g>
    </g>
    <g id="xtick_4">
     <g id="line2d_7">
      <path d="M 538.115543 617.04 
L 538.115543 7.2 
" clip-path="url(#pde456fdb0a)" style="fill: none; stroke: #b0b0b0; stroke-width: 0.8; stroke-linecap: square"/>
     </g>
     <g id="line2d_8">
      <g>
       <use xlink:href="#m49d9bcb032" x="538.115543" y="617.04" style="stroke: #000000; stroke-width: 0.8"/>
      </g>
     </g>
     <g id="text_4">
      <!-- $\mathdefault{0.3}$ -->
      <g transform="translate(520.343823 644.795495) scale(0.3 -0.3)">
       <defs>
        <path id="CMR17-33" d="M 1414 2157 
C 1984 2157 2234 1662 2234 1090 
C 2234 320 1824 25 1453 25 
C 1114 25 563 194 390 693 
C 422 680 454 680 486 680 
C 640 680 755 782 755 948 
C 755 1133 614 1216 486 1216 
C 378 1216 211 1165 211 926 
C 211 335 787 -128 1466 -128 
C 2176 -128 2720 430 2720 1085 
C 2720 1707 2208 2157 1600 2227 
C 2086 2328 2554 2756 2554 3329 
C 2554 3820 2048 4179 1472 4179 
C 890 4179 378 3829 378 3329 
C 378 3110 544 3072 627 3072 
C 762 3072 877 3155 877 3321 
C 877 3486 762 3569 627 3569 
C 602 3569 570 3569 544 3557 
C 730 3959 1235 4032 1459 4032 
C 1683 4032 2106 3925 2106 3320 
C 2106 3143 2080 2828 1862 2550 
C 1670 2304 1453 2304 1242 2284 
C 1210 2284 1062 2269 1037 2269 
C 992 2263 966 2257 966 2208 
C 966 2163 973 2157 1101 2157 
L 1414 2157 
z
" transform="scale(0.015625)"/>
       </defs>
       <use xlink:href="#CMR17-30" transform="scale(0.996264)"/>
       <use xlink:href="#CMMI12-3a" transform="translate(45.690477 0) scale(0.996264)"/>
       <use xlink:href="#CMR17-33" transform="translate(72.787654 0) scale(0.996264)"/>
      </g>
     </g>
    </g>
    <g id="xtick_5">
     <g id="line2d_9">
      <path d="M 689.240543 617.04 
L 689.240543 7.2 
" clip-path="url(#pde456fdb0a)" style="fill: none; stroke: #b0b0b0; stroke-width: 0.8; stroke-linecap: square"/>
     </g>
     <g id="line2d_10">
      <g>
       <use xlink:href="#m49d9bcb032" x="689.240543" y="617.04" style="stroke: #000000; stroke-width: 0.8"/>
      </g>
     </g>
     <g id="text_5">
      <!-- $\mathdefault{0.4}$ -->
      <g transform="translate(671.468823 644.795495) scale(0.3 -0.3)">
       <defs>
        <path id="CMR17-34" d="M 2150 4122 
C 2150 4256 2144 4256 2029 4256 
L 128 1254 
L 128 1088 
L 1779 1088 
L 1779 457 
C 1779 224 1766 160 1318 160 
L 1197 160 
L 1197 0 
C 1402 0 1747 0 1965 0 
C 2182 0 2528 0 2733 0 
L 2733 160 
L 2611 160 
C 2163 160 2150 224 2150 457 
L 2150 1088 
L 2803 1088 
L 2803 1254 
L 2150 1254 
L 2150 4122 
z
M 1798 3703 
L 1798 1254 
L 256 1254 
L 1798 3703 
z
" transform="scale(0.015625)"/>
       </defs>
       <use xlink:href="#CMR17-30" transform="scale(0.996264)"/>
       <use xlink:href="#CMMI12-3a" transform="translate(45.690477 0) scale(0.996264)"/>
       <use xlink:href="#CMR17-34" transform="translate(72.787654 0) scale(0.996264)"/>
      </g>
     </g>
    </g>
    <g id="text_6">
     <!-- $x, \; \mathrm{m} $ -->
     <g transform="translate(411.787939 678.823697) scale(0.35 -0.35)">
      <defs>
       <path id="CMMI12-78" d="M 3034 2606 
C 2829 2567 2752 2414 2752 2293 
C 2752 2139 2874 2088 2963 2088 
C 3155 2088 3290 2254 3290 2427 
C 3290 2695 2982 2816 2714 2816 
C 2323 2816 2106 2433 2048 2312 
C 1901 2816 1504 2816 1389 2816 
C 736 2816 390 1980 390 1839 
C 390 1814 416 1782 461 1782 
C 512 1782 525 1820 538 1846 
C 755 2555 1184 2689 1370 2689 
C 1658 2689 1715 2420 1715 2267 
C 1715 2127 1677 1980 1600 1673 
L 1382 798 
C 1286 415 1101 64 762 64 
C 730 64 570 64 435 147 
C 666 192 717 383 717 460 
C 717 588 621 664 499 664 
C 346 664 179 530 179 326 
C 179 57 480 -64 755 -64 
C 1062 -64 1280 179 1414 441 
C 1517 64 1837 -64 2074 -64 
C 2726 -64 3072 773 3072 913 
C 3072 945 3046 971 3008 971 
C 2950 971 2944 939 2925 888 
C 2752 326 2381 64 2093 64 
C 1869 64 1747 230 1747 492 
C 1747 632 1773 734 1875 1156 
L 2099 2024 
C 2195 2408 2413 2689 2707 2689 
C 2720 2689 2899 2689 3034 2606 
z
" transform="scale(0.015625)"/>
       <path id="CMMI12-3b" d="M 1248 -31 
C 1248 343 1126 619 864 619 
C 659 619 557 453 557 313 
C 557 172 653 0 870 0 
C 954 0 1024 26 1082 83 
C 1094 96 1101 96 1107 96 
C 1120 96 1120 5 1120 -27 
C 1120 -240 1082 -659 710 -1080 
C 640 -1157 640 -1170 640 -1183 
C 640 -1216 672 -1248 704 -1248 
C 755 -1248 1248 -771 1248 -31 
z
" transform="scale(0.015625)"/>
       <path id="CMR17-6d" d="M 4326 1933 
C 4326 2252 4269 2790 3507 2790 
C 3072 2790 2771 2496 2656 2151 
L 2650 2151 
C 2573 2676 2195 2790 1837 2790 
C 1331 2790 1069 2400 973 2144 
L 966 2144 
L 966 2790 
L 211 2720 
L 211 2554 
C 589 2554 646 2515 646 2208 
L 646 428 
C 646 184 621 153 211 153 
L 211 -13 
C 365 0 646 0 813 0 
C 979 0 1267 0 1421 -13 
L 1421 153 
C 1011 153 986 178 986 428 
L 986 1658 
C 986 2247 1344 2688 1792 2688 
C 2266 2688 2317 2266 2317 1958 
L 2317 428 
C 2317 184 2291 153 1882 153 
L 1882 -13 
C 2035 0 2317 0 2483 0 
C 2650 0 2938 0 3091 -13 
L 3091 153 
C 2682 153 2656 178 2656 428 
L 2656 1658 
C 2656 2247 3014 2688 3462 2688 
C 3936 2688 3987 2266 3987 1958 
L 3987 428 
C 3987 184 3962 153 3552 153 
L 3552 -13 
C 3706 0 3987 0 4154 0 
C 4320 0 4608 0 4762 -13 
L 4762 153 
C 4352 153 4326 178 4326 428 
L 4326 1933 
z
" transform="scale(0.015625)"/>
      </defs>
      <use xlink:href="#CMMI12-78" transform="scale(0.996264)"/>
      <use xlink:href="#CMMI12-3b" transform="translate(55.43406 0) scale(0.996264)"/>
      <use xlink:href="#CMR17-6d" transform="translate(126.809651 0) scale(0.996264)"/>
     </g>
    </g>
   </g>
   <g id="matplotlib.axis_2">
    <g id="ytick_1">
     <g id="line2d_11">
      <path d="M 84.740543 605.312308 
L 810.140543 605.312308 
" clip-path="url(#pde456fdb0a)" style="fill: none; stroke: #b0b0b0; stroke-width: 0.8; stroke-linecap: square"/>
     </g>
     <g id="line2d_12">
      <defs>
       <path id="mbe4d2bc45a" d="M 0 0 
L -3.5 0 
" style="stroke: #000000; stroke-width: 0.8"/>
      </defs>
      <g>
       <use xlink:href="#mbe4d2bc45a" x="84.740543" y="605.312308" style="stroke: #000000; stroke-width: 0.8"/>
      </g>
     </g>
     <g id="text_7">
      <!-- $\mathdefault{0.0}$ -->
      <g transform="translate(42.197103 615.690055) scale(0.3 -0.3)">
       <use xlink:href="#CMR17-30" transform="scale(0.996264)"/>
       <use xlink:href="#CMMI12-3a" transform="translate(45.690477 0) scale(0.996264)"/>
       <use xlink:href="#CMR17-30" transform="translate(72.787654 0) scale(0.996264)"/>
      </g>
     </g>
    </g>
    <g id="ytick_2">
     <g id="line2d_13">
      <path d="M 84.740543 488.035385 
L 810.140543 488.035385 
" clip-path="url(#pde456fdb0a)" style="fill: none; stroke: #b0b0b0; stroke-width: 0.8; stroke-linecap: square"/>
     </g>
     <g id="line2d_14">
      <g>
       <use xlink:href="#mbe4d2bc45a" x="84.740543" y="488.035385" style="stroke: #000000; stroke-width: 0.8"/>
      </g>
     </g>
     <g id="text_8">
      <!-- $\mathdefault{0.2}$ -->
      <g transform="translate(42.197103 498.413132) scale(0.3 -0.3)">
       <use xlink:href="#CMR17-30" transform="scale(0.996264)"/>
       <use xlink:href="#CMMI12-3a" transform="translate(45.690477 0) scale(0.996264)"/>
       <use xlink:href="#CMR17-32" transform="translate(72.787654 0) scale(0.996264)"/>
      </g>
     </g>
    </g>
    <g id="ytick_3">
     <g id="line2d_15">
      <path d="M 84.740543 370.758462 
L 810.140543 370.758462 
" clip-path="url(#pde456fdb0a)" style="fill: none; stroke: #b0b0b0; stroke-width: 0.8; stroke-linecap: square"/>
     </g>
     <g id="line2d_16">
      <g>
       <use xlink:href="#mbe4d2bc45a" x="84.740543" y="370.758462" style="stroke: #000000; stroke-width: 0.8"/>
      </g>
     </g>
     <g id="text_9">
      <!-- $\mathdefault{0.4}$ -->
      <g transform="translate(42.197103 381.136209) scale(0.3 -0.3)">
       <use xlink:href="#CMR17-30" transform="scale(0.996264)"/>
       <use xlink:href="#CMMI12-3a" transform="translate(45.690477 0) scale(0.996264)"/>
       <use xlink:href="#CMR17-34" transform="translate(72.787654 0) scale(0.996264)"/>
      </g>
     </g>
    </g>
    <g id="ytick_4">
     <g id="line2d_17">
      <path d="M 84.740543 253.481538 
L 810.140543 253.481538 
" clip-path="url(#pde456fdb0a)" style="fill: none; stroke: #b0b0b0; stroke-width: 0.8; stroke-linecap: square"/>
     </g>
     <g id="line2d_18">
      <g>
       <use xlink:href="#mbe4d2bc45a" x="84.740543" y="253.481538" style="stroke: #000000; stroke-width: 0.8"/>
      </g>
     </g>
     <g id="text_10">
      <!-- $\mathdefault{0.6}$ -->
      <g transform="translate(42.197103 263.859286) scale(0.3 -0.3)">
       <defs>
        <path id="CMR17-36" d="M 678 2176 
C 678 3690 1395 4032 1811 4032 
C 1946 4032 2272 4009 2400 3776 
C 2298 3776 2106 3776 2106 3553 
C 2106 3381 2246 3323 2336 3323 
C 2394 3323 2566 3348 2566 3560 
C 2566 3954 2246 4179 1805 4179 
C 1043 4179 243 3390 243 1984 
C 243 253 966 -128 1478 -128 
C 2099 -128 2688 427 2688 1283 
C 2688 2081 2170 2662 1517 2662 
C 1126 2662 838 2407 678 1960 
L 678 2176 
z
M 1478 25 
C 691 25 691 1200 691 1436 
C 691 1896 909 2560 1504 2560 
C 1613 2560 1926 2560 2138 2120 
C 2253 1870 2253 1609 2253 1289 
C 2253 944 2253 690 2118 434 
C 1978 171 1773 25 1478 25 
z
" transform="scale(0.015625)"/>
       </defs>
       <use xlink:href="#CMR17-30" transform="scale(0.996264)"/>
       <use xlink:href="#CMMI12-3a" transform="translate(45.690477 0) scale(0.996264)"/>
       <use xlink:href="#CMR17-36" transform="translate(72.787654 0) scale(0.996264)"/>
      </g>
     </g>
    </g>
    <g id="ytick_5">
     <g id="line2d_19">
      <path d="M 84.740543 136.204615 
L 810.140543 136.204615 
" clip-path="url(#pde456fdb0a)" style="fill: none; stroke: #b0b0b0; stroke-width: 0.8; stroke-linecap: square"/>
     </g>
     <g id="line2d_20">
      <g>
       <use xlink:href="#mbe4d2bc45a" x="84.740543" y="136.204615" style="stroke: #000000; stroke-width: 0.8"/>
      </g>
     </g>
     <g id="text_11">
      <!-- $\mathdefault{0.8}$ -->
      <g transform="translate(42.197103 146.582363) scale(0.3 -0.3)">
       <defs>
        <path id="CMR17-38" d="M 1741 2264 
C 2144 2467 2554 2773 2554 3263 
C 2554 3841 1990 4179 1472 4179 
C 890 4179 378 3759 378 3180 
C 378 3021 416 2747 666 2505 
C 730 2442 998 2251 1171 2130 
C 883 1983 211 1634 211 934 
C 211 279 838 -128 1459 -128 
C 2144 -128 2720 362 2720 1010 
C 2720 1590 2330 1857 2074 2029 
L 1741 2264 
z
M 902 2822 
C 851 2854 595 3051 595 3351 
C 595 3739 998 4032 1459 4032 
C 1965 4032 2336 3676 2336 3262 
C 2336 2669 1670 2331 1638 2331 
C 1632 2331 1626 2331 1574 2370 
L 902 2822 
z
M 2080 1519 
C 2176 1449 2483 1240 2483 851 
C 2483 381 2010 25 1472 25 
C 890 25 448 438 448 940 
C 448 1443 838 1862 1280 2060 
L 2080 1519 
z
" transform="scale(0.015625)"/>
       </defs>
       <use xlink:href="#CMR17-30" transform="scale(0.996264)"/>
       <use xlink:href="#CMMI12-3a" transform="translate(45.690477 0) scale(0.996264)"/>
       <use xlink:href="#CMR17-38" transform="translate(72.787654 0) scale(0.996264)"/>
      </g>
     </g>
    </g>
    <g id="ytick_6">
     <g id="line2d_21">
      <path d="M 84.740543 18.927692 
L 810.140543 18.927692 
" clip-path="url(#pde456fdb0a)" style="fill: none; stroke: #b0b0b0; stroke-width: 0.8; stroke-linecap: square"/>
     </g>
     <g id="line2d_22">
      <g>
       <use xlink:href="#mbe4d2bc45a" x="84.740543" y="18.927692" style="stroke: #000000; stroke-width: 0.8"/>
      </g>
     </g>
     <g id="text_12">
      <!-- $\mathdefault{1.0}$ -->
      <g transform="translate(42.197103 29.30544) scale(0.3 -0.3)">
       <use xlink:href="#CMR17-31" transform="scale(0.996264)"/>
       <use xlink:href="#CMMI12-3a" transform="translate(45.690477 0) scale(0.996264)"/>
       <use xlink:href="#CMR17-30" transform="translate(72.787654 0) scale(0.996264)"/>
      </g>
     </g>
    </g>
    <g id="text_13">
     <!-- $S_1$ -->
     <g transform="translate(31.414752 328.216088) rotate(-90) scale(0.35 -0.35)">
      <defs>
       <path id="CMMI12-53" d="M 4064 4423 
C 4064 4480 4019 4480 4006 4480 
C 3981 4480 3974 4474 3898 4378 
C 3859 4333 3597 4001 3590 3995 
C 3379 4410 2957 4480 2688 4480 
C 1875 4480 1139 3743 1139 3025 
C 1139 2549 1427 2269 1741 2161 
C 1811 2135 2189 2033 2381 1989 
C 2707 1900 2790 1875 2925 1735 
C 2950 1703 3078 1557 3078 1258 
C 3078 667 2528 57 1888 57 
C 1363 57 781 280 781 991 
C 781 1112 806 1265 826 1328 
C 826 1348 832 1378 832 1391 
C 832 1417 819 1449 768 1449 
C 710 1449 704 1436 678 1328 
L 352 24 
C 352 18 326 -64 326 -71 
C 326 -128 378 -128 390 -128 
C 416 -128 422 -122 499 -26 
L 794 356 
C 947 126 1280 -128 1875 -128 
C 2701 -128 3456 666 3456 1460 
C 3456 1728 3392 1963 3149 2197 
C 3014 2331 2899 2363 2310 2516 
C 1882 2630 1824 2649 1709 2751 
C 1600 2858 1517 3011 1517 3227 
C 1517 3761 2061 4308 2669 4308 
C 3296 4308 3590 3926 3590 3323 
C 3590 3158 3558 2986 3558 2961 
C 3558 2903 3610 2903 3629 2903 
C 3686 2903 3693 2922 3718 3024 
L 4064 4423 
z
" transform="scale(0.015625)"/>
      </defs>
      <use xlink:href="#CMMI12-53" transform="scale(0.996264)"/>
      <use xlink:href="#CMR17-31" transform="translate(59.994488 -14.943915) scale(0.697382)"/>
     </g>
    </g>
   </g>
   <g id="patch_3">
    <path d="M 84.740543 617.04 
L 84.740543 7.2 
" style="fill: none; stroke: #000000; stroke-width: 0.8; stroke-linejoin: miter; stroke-linecap: square"/>
   </g>
   <g id="patch_4">
    <path d="M 810.140543 617.04 
L 810.140543 7.2 
" style="fill: none; stroke: #000000; stroke-width: 0.8; stroke-linejoin: miter; stroke-linecap: square"/>
   </g>
   <g id="patch_5">
    <path d="M 84.740543 617.04 
L 810.140543 617.04 
" style="fill: none; stroke: #000000; stroke-width: 0.8; stroke-linejoin: miter; stroke-linecap: square"/>
   </g>
   <g id="patch_6">
    <path d="M 84.740543 7.2 
L 810.140543 7.2 
" style="fill: none; stroke: #000000; stroke-width: 0.8; stroke-linejoin: miter; stroke-linecap: square"/>
   </g>
   <g id="legend_1">
    <g id="patch_7">
     <path d="M 626.697089 232.438667 
L 785.640543 232.438667 
Q 792.640543 232.438667 792.640543 225.438667 
L 792.640543 31.7 
Q 792.640543 24.7 785.640543 24.7 
L 626.697089 24.7 
Q 619.697089 24.7 619.697089 31.7 
L 619.697089 225.438667 
Q 619.697089 232.438667 626.697089 232.438667 
z
" style="fill: #ffffff; stroke: #cccccc; stroke-linejoin: miter"/>
    </g>
    <g id="patch_8">
     <path d="M 633.697089 63.2 
L 703.697089 63.2 
L 703.697089 38.7 
L 633.697089 38.7 
z
" style="fill: #1f77b4"/>
    </g>
    <g id="text_14">
     <!-- $M$ -->
     <g transform="translate(731.697089 63.2) scale(0.35 -0.35)">
      <defs>
       <path id="CMMI12-4d" d="M 5811 3886 
C 5869 4103 5882 4167 6336 4167 
C 6458 4167 6515 4167 6515 4288 
C 6515 4352 6470 4352 6349 4352 
L 5581 4352 
C 5421 4352 5414 4346 5344 4243 
L 3008 562 
L 2528 4211 
C 2509 4352 2502 4352 2336 4352 
L 1542 4352 
C 1421 4352 1363 4352 1363 4231 
C 1363 4167 1421 4167 1517 4167 
C 1907 4167 1907 4116 1907 4046 
C 1907 4034 1907 3995 1882 3899 
L 1062 634 
C 986 327 838 186 410 186 
C 390 186 314 186 314 73 
C 314 0 371 0 397 0 
C 525 0 851 0 979 0 
L 1286 0 
C 1376 0 1485 0 1574 0 
C 1619 0 1690 0 1690 122 
C 1690 180 1626 186 1600 186 
C 1389 186 1184 224 1184 454 
C 1184 518 1184 524 1210 613 
L 2093 4129 
L 2099 4129 
L 2630 172 
C 2650 19 2656 0 2714 0 
C 2784 0 2816 51 2848 109 
L 5421 4161 
L 5427 4161 
L 4499 473 
C 4442 250 4429 186 3981 186 
C 3859 186 3795 186 3795 70 
C 3795 0 3853 0 3891 0 
C 4000 0 4128 0 4237 0 
L 4992 0 
C 5101 0 5235 0 5344 0 
C 5395 0 5466 0 5466 122 
C 5466 186 5408 186 5312 186 
C 4922 186 4922 234 4922 294 
C 4922 301 4922 345 4934 396 
L 5811 3886 
z
" transform="scale(0.015625)"/>
      </defs>
      <use xlink:href="#CMMI12-4d" transform="scale(0.996264)"/>
     </g>
    </g>
    <g id="patch_9">
     <path d="M 633.697089 111.982351 
L 703.697089 111.982351 
L 703.697089 87.482351 
L 633.697089 87.482351 
z
" style="fill: #ff7f0e"/>
    </g>
    <g id="text_15">
     <!-- $P$ -->
     <g transform="translate(731.697089 111.982351) scale(0.35 -0.35)">
      <defs>
       <path id="CMMI12-50" d="M 1894 2023 
L 2970 2023 
C 3853 2023 4736 2673 4736 3401 
C 4736 3898 4314 4352 3507 4352 
L 1530 4352 
C 1408 4352 1350 4352 1350 4231 
C 1350 4167 1408 4167 1504 4167 
C 1894 4167 1894 4116 1894 4046 
C 1894 4034 1894 3995 1869 3899 
L 1005 472 
C 947 249 934 185 486 185 
C 365 185 301 185 301 70 
C 301 0 358 0 397 0 
C 518 0 646 0 768 0 
L 1517 0 
C 1638 0 1773 0 1894 0 
C 1946 0 2016 0 2016 121 
C 2016 185 1958 185 1862 185 
C 1478 185 1472 230 1472 293 
C 1472 325 1478 369 1485 401 
L 1894 2023 
z
M 2355 3930 
C 2413 4167 2438 4167 2688 4167 
L 3322 4167 
C 3802 4167 4198 4013 4198 3535 
C 4198 3369 4115 2827 3821 2534 
C 3712 2419 3405 2176 2822 2176 
L 1920 2176 
L 2355 3930 
z
" transform="scale(0.015625)"/>
      </defs>
      <use xlink:href="#CMMI12-50" transform="scale(0.996264)"/>
     </g>
    </g>
    <g id="patch_10">
     <path d="M 633.697089 160.764702 
L 703.697089 160.764702 
L 703.697089 136.264702 
L 633.697089 136.264702 
z
" style="fill: #2ca02c"/>
    </g>
    <g id="text_16">
     <!-- $T$ -->
     <g transform="translate(731.697089 160.764702) scale(0.35 -0.35)">
      <defs>
       <path id="CMMI12-54" d="M 2669 3910 
C 2707 4064 2720 4121 2816 4147 
C 2867 4160 3078 4160 3213 4160 
C 3853 4160 4154 4134 4154 3634 
C 4154 3537 4128 3295 4090 3057 
L 4083 2980 
C 4083 2954 4109 2916 4147 2916 
C 4211 2916 4211 2948 4230 3050 
L 4416 4184 
C 4429 4243 4429 4256 4429 4275 
C 4429 4345 4390 4345 4262 4345 
L 762 4345 
C 614 4345 608 4339 570 4224 
L 179 3070 
C 173 3056 154 2986 154 2980 
C 154 2948 179 2916 218 2916 
C 269 2916 282 2941 307 3024 
C 576 3801 710 4160 1562 4160 
L 1990 4160 
C 2144 4160 2208 4160 2208 4089 
C 2208 4069 2208 4057 2176 3941 
L 1318 499 
C 1254 249 1242 185 563 185 
C 403 185 358 185 358 64 
C 358 0 429 0 461 0 
C 621 0 787 0 947 0 
L 1946 0 
C 2106 0 2278 0 2438 0 
C 2509 0 2573 0 2573 121 
C 2573 185 2528 185 2362 185 
C 1786 185 1786 243 1786 339 
C 1786 346 1786 391 1811 494 
L 2669 3910 
z
" transform="scale(0.015625)"/>
      </defs>
      <use xlink:href="#CMMI12-54" transform="scale(0.996264)"/>
     </g>
    </g>
    <g id="patch_11">
     <path d="M 633.697089 209.547054 
L 703.697089 209.547054 
L 703.697089 185.047054 
L 633.697089 185.047054 
z
" style="fill: #d62728"/>
    </g>
    <g id="text_17">
     <!-- $Y_{N_2}$ -->
     <g transform="translate(731.697089 209.547054) scale(0.35 -0.35)">
      <defs>
       <path id="CMMI12-59" d="M 3763 3645 
L 3910 3791 
C 4192 4078 4429 4149 4653 4167 
C 4723 4173 4781 4179 4781 4288 
C 4781 4352 4717 4352 4704 4352 
C 4627 4352 4544 4352 4467 4352 
L 4205 4352 
C 4019 4352 3821 4352 3642 4352 
C 3597 4352 3526 4352 3526 4226 
C 3526 4166 3590 4160 3610 4160 
C 3802 4160 3802 4064 3802 4026 
C 3802 3956 3750 3860 3622 3713 
L 2099 1969 
L 1376 3911 
C 1338 4000 1338 4013 1338 4026 
C 1338 4160 1600 4160 1677 4160 
C 1754 4160 1824 4160 1824 4279 
C 1824 4352 1766 4352 1728 4352 
C 1619 4352 1491 4352 1382 4352 
L 672 4352 
C 557 4352 435 4352 326 4352 
C 282 4352 211 4352 211 4226 
C 211 4160 269 4160 365 4160 
C 678 4160 736 4102 794 3956 
L 1587 1835 
C 1594 1816 1613 1745 1613 1726 
C 1613 1707 1299 452 1280 388 
C 1229 217 1165 185 755 185 
C 646 185 595 185 595 64 
C 595 0 666 0 685 0 
C 800 0 934 0 1056 0 
L 1811 0 
C 1926 0 2061 0 2176 0 
C 2221 0 2298 0 2298 115 
C 2298 185 2253 185 2144 185 
C 1747 185 1747 230 1747 300 
C 1747 345 1798 548 1830 676 
L 2061 1594 
C 2099 1727 2099 1739 2157 1803 
L 3763 3645 
z
" transform="scale(0.015625)"/>
       <path id="CMMI12-4e" d="M 4736 3698 
C 4806 3974 4909 4166 5395 4166 
C 5414 4166 5491 4166 5491 4279 
C 5491 4352 5434 4352 5408 4352 
C 5280 4352 4954 4352 4826 4352 
L 4518 4352 
C 4429 4352 4314 4352 4224 4352 
C 4186 4352 4109 4352 4109 4230 
C 4109 4166 4160 4166 4205 4166 
C 4589 4166 4614 4019 4614 3903 
C 4614 3846 4608 3826 4589 3737 
L 3866 850 
L 2496 4249 
C 2451 4352 2445 4352 2304 4352 
L 1523 4352 
C 1395 4352 1338 4352 1338 4230 
C 1338 4166 1382 4166 1504 4166 
C 1536 4166 1914 4166 1914 4115 
C 1914 4102 1901 4051 1894 4032 
L 1043 635 
C 966 320 813 186 390 186 
C 358 186 294 186 294 67 
C 294 0 358 0 378 0 
C 506 0 832 0 960 0 
L 1267 0 
C 1357 0 1466 0 1555 0 
C 1600 0 1670 0 1670 122 
C 1670 180 1606 186 1581 186 
C 1370 186 1165 224 1165 454 
C 1165 505 1178 562 1190 613 
L 2054 4032 
C 2093 3968 2093 3956 2118 3898 
L 3642 115 
C 3674 38 3686 0 3744 0 
C 3808 0 3814 19 3840 128 
L 4736 3698 
z
" transform="scale(0.015625)"/>
      </defs>
      <use xlink:href="#CMMI12-59" transform="scale(0.996264)"/>
      <use xlink:href="#CMMI12-4e" transform="translate(56.598607 -14.943915) scale(0.697382)"/>
      <use xlink:href="#CMR17-32" transform="translate(111.278947 -25.404611) scale(0.498132)"/>
     </g>
    </g>
   </g>
  </g>
 </g>
 <defs>
  <clipPath id="pde456fdb0a">
   <rect x="84.740543" y="7.2" width="725.4" height="609.84"/>
  </clipPath>
 </defs>
</svg>
