<?xml version="1.0" encoding="utf-8" standalone="no"?>
<!DOCTYPE svg PUBLIC "-//W3C//DTD SVG 1.1//EN"
  "http://www.w3.org/Graphics/SVG/1.1/DTD/svg11.dtd">
<svg xmlns:xlink="http://www.w3.org/1999/xlink" width="1006.579543pt" height="692.806049pt" viewBox="0 0 1006.579543 692.806049" xmlns="http://www.w3.org/2000/svg" version="1.1">
 <metadata>
  <rdf:RDF xmlns:dc="http://purl.org/dc/elements/1.1/" xmlns:cc="http://creativecommons.org/ns#" xmlns:rdf="http://www.w3.org/1999/02/22-rdf-syntax-ns#">
   <cc:Work>
    <dc:type rdf:resource="http://purl.org/dc/dcmitype/StillImage"/>
    <dc:date>2025-03-19T17:00:10.810987</dc:date>
    <dc:format>image/svg+xml</dc:format>
    <dc:creator>
     <cc:Agent>
      <dc:title>Matplotlib v3.7.1, https://matplotlib.org/</dc:title>
     </cc:Agent>
    </dc:creator>
   </cc:Work>
  </rdf:RDF>
 </metadata>
 <defs>
  <style type="text/css">*{stroke-linejoin: round; stroke-linecap: butt}</style>
 </defs>
 <g id="figure_1">
  <g id="patch_1">
   <path d="M 0 692.806049 
L 1006.579543 692.806049 
L 1006.579543 0 
L 0 0 
z
" style="fill: #ffffff"/>
  </g>
  <g id="axes_1">
   <g id="patch_2">
    <path d="M 84.740543 617.04 
L 810.140543 617.04 
L 810.140543 7.2 
L 84.740543 7.2 
z
" style="fill: #ffffff"/>
   </g>
   <g id="PolyCollection_1">
    <path d="M 9.178043 594.573533 
L 9.178043 605.312308 
L 29.717351 605.312308 
L 44.711179 605.312308 
L 55.656948 605.312308 
L 63.647806 605.312308 
L 69.481777 605.312308 
L 73.741466 605.312308 
L 76.852227 605.312308 
L 79.049287 605.312308 
L 80.785425 605.312308 
L 82.213061 605.312308 
L 83.42602 605.312308 
L 84.740543 605.312308 
L 87.435066 605.312308 
L 88.857321 605.312308 
L 90.129589 605.312308 
L 92.004934 605.312308 
L 93.099922 605.312308 
L 94.171374 605.312308 
L 95.299612 605.312308 
L 96.397416 605.312308 
L 97.579316 605.312308 
L 98.820976 605.312308 
L 99.991406 605.312308 
L 101.273505 605.312308 
L 103.578522 605.312308 
L 105.819849 605.312308 
L 107.979517 605.312308 
L 110.878308 605.312308 
L 114.380297 605.312308 
L 117.772298 605.312308 
L 121.795163 605.312308 
L 126.505652 605.312308 
L 131.894699 605.312308 
L 136.064903 605.312308 
L 140.906123 605.312308 
L 146.343341 605.312308 
L 152.242772 605.312308 
L 158.23472 605.312308 
L 163.692746 605.312308 
L 168.88361 605.312308 
L 174.585426 605.312308 
L 180.46251 605.312308 
L 186.901027 605.312308 
L 193.842604 605.312308 
L 201.294329 605.312308 
L 209.304744 605.312308 
L 215.666289 605.312308 
L 222.461467 605.312308 
L 232.059762 605.312308 
L 242.378625 605.312308 
L 253.442863 605.312308 
L 265.803879 605.312308 
L 277.872644 605.312308 
L 291.4797 605.312308 
L 306.108307 605.312308 
L 314.293433 605.312308 
L 322.042849 605.312308 
L 330.136629 605.312308 
L 338.743693 605.312308 
L 347.240659 605.312308 
L 353.582193 605.312308 
L 358.098232 605.312308 
L 362.015801 605.312308 
L 365.100791 605.312308 
L 367.795107 605.312308 
L 370.339935 605.312308 
L 371.612349 605.312308 
L 372.884762 605.312308 
L 373.578284 605.312308 
L 374.157176 605.312308 
L 374.808605 605.312308 
L 375.42959 605.312308 
L 375.781185 605.312308 
L 376.100674 605.312308 
L 376.42634 605.312308 
L 376.702003 605.312308 
L 377.181086 605.312308 
L 377.629898 605.312308 
L 378.056467 605.312308 
L 378.557793 605.312308 
L 379.000786 605.312308 
L 379.485688 605.312308 
L 379.945558 605.312308 
L 380.413583 605.312308 
L 380.832336 605.312308 
L 381.341477 605.312308 
L 382.269372 605.312308 
L 383.197267 605.312308 
L 384.125162 605.312308 
L 385.053056 605.312308 
L 385.980951 605.312308 
L 386.908846 605.312308 
L 387.836741 605.312308 
L 388.764636 605.312308 
L 389.69253 605.312308 
L 390.578063 605.312308 
L 391.54832 605.312308 
L 393.28631 605.312308 
L 395.259899 605.312308 
L 396.651741 605.312308 
L 398.043583 605.312308 
L 399.899373 605.312308 
L 401.701247 605.312308 
L 403.610952 605.312308 
L 405.289681 605.312308 
L 406.894263 605.312308 
L 408.375361 605.312308 
L 410.106215 605.312308 
L 411.962005 605.312308 
L 414.385383 605.312308 
L 416.601479 605.312308 
L 418.59025 605.312308 
L 420.545322 605.312308 
L 422.367082 605.312308 
L 424.358264 605.312308 
L 426.834965 605.312308 
L 429.229604 605.312308 
L 431.143679 605.312308 
L 433.224812 605.312308 
L 435.488341 605.312308 
L 437.951073 605.312308 
L 439.269923 605.312308 
L 440.63164 605.312308 
L 442.106467 605.312308 
L 443.549241 605.312308 
L 445.155995 605.312308 
L 446.721698 605.312308 
L 448.530584 605.312308 
L 450.174259 605.312308 
L 451.951214 605.312308 
L 453.926016 605.312308 
L 455.933062 605.312308 
L 458.002814 605.312308 
L 460.314271 605.312308 
L 462.425952 605.312308 
L 464.811613 605.312308 
L 467.21716 605.312308 
L 469.759827 605.312308 
L 472.396058 605.312308 
L 475.19253 605.312308 
L 477.975382 605.312308 
L 480.842577 605.312308 
L 483.958078 605.312308 
L 487.02499 605.312308 
L 490.325069 605.312308 
L 493.589155 605.312308 
L 496.978314 605.312308 
L 500.205377 605.312308 
L 503.659157 605.312308 
L 506.946976 605.312308 
L 510.339999 605.312308 
L 513.575217 605.312308 
L 517.020842 605.312308 
L 520.529262 605.312308 
L 523.701684 605.312308 
L 527.248435 605.312308 
L 530.382526 605.312308 
L 533.47788 605.312308 
L 537.063369 605.312308 
L 540.596663 605.312308 
L 543.744211 605.312308 
L 547.100127 605.312308 
L 550.425053 605.312308 
L 553.753242 605.312308 
L 557.105896 605.312308 
L 560.64286 605.312308 
L 563.786738 605.312308 
L 567.416674 605.312308 
L 570.467581 605.312308 
L 572.48806 605.312308 
L 574.235341 605.312308 
L 575.774026 605.312308 
L 577.148423 605.312308 
L 578.893977 605.312308 
L 580.590786 605.312308 
L 582.236512 605.312308 
L 583.829265 605.312308 
L 585.170972 605.312308 
L 585.978345 605.312308 
L 586.689338 605.312308 
L 587.565631 605.312308 
L 588.440213 605.312308 
L 589.393295 605.312308 
L 590.510108 605.312308 
L 591.006574 605.312308 
L 591.536623 605.312308 
L 592.09897 605.312308 
L 592.691486 605.312308 
L 593.836984 605.312308 
L 595.007931 605.312308 
L 596.17812 605.312308 
L 597.43789 605.312308 
L 598.641338 605.312308 
L 599.95542 605.312308 
L 601.139458 605.312308 
L 602.456615 605.312308 
L 603.58178 605.312308 
L 604.861979 605.312308 
L 607.17568 605.312308 
L 609.400733 605.312308 
L 611.62836 605.312308 
L 613.948134 605.312308 
L 616.355835 605.312308 
L 618.846045 605.312308 
L 622.080194 605.312308 
L 625.776244 605.312308 
L 629.202701 605.312308 
L 632.80417 605.312308 
L 637.73667 605.312308 
L 642.249482 605.312308 
L 647.181983 605.312308 
L 656.627295 605.312308 
L 666.072608 605.312308 
L 675.51792 605.312308 
L 684.963233 605.312308 
L 694.408545 605.312308 
L 703.853858 605.312308 
L 713.29917 605.312308 
L 722.744483 605.312308 
L 741.635108 605.312308 
L 753.458468 605.312308 
L 765.81912 605.312308 
L 777.874829 605.312308 
L 788.86167 605.312308 
L 798.306983 605.312308 
L 807.092784 605.312308 
L 817.197608 605.312308 
L 817.197608 594.532309 
L 817.197608 594.532309 
L 807.092784 594.54173 
L 798.306983 594.243595 
L 788.86167 594.348102 
L 777.874829 593.885494 
L 765.81912 593.770037 
L 753.458468 593.577942 
L 741.635108 592.90776 
L 722.744483 592.056434 
L 713.29917 592.122805 
L 703.853858 591.674359 
L 694.408545 591.607561 
L 684.963233 590.802116 
L 675.51792 589.349081 
L 666.072608 587.496823 
L 656.627295 585.348837 
L 647.181983 582.69719 
L 642.249482 581.944825 
L 637.73667 579.467604 
L 632.80417 576.909924 
L 629.202701 575.276221 
L 625.776244 573.76123 
L 622.080194 572.390155 
L 618.846045 572.813899 
L 616.355835 572.651795 
L 613.948134 574.304828 
L 611.62836 577.961439 
L 609.400733 583.696042 
L 607.17568 591.164693 
L 604.861979 598.25752 
L 603.58178 602.942866 
L 602.456615 604.030617 
L 601.139458 601.108355 
L 599.95542 599.053781 
L 598.641338 596.875801 
L 597.43789 595.169027 
L 596.17812 593.421632 
L 595.007931 591.546904 
L 593.836984 589.585565 
L 592.691486 586.774318 
L 592.09897 582.193831 
L 591.536623 576.218863 
L 591.006574 568.070667 
L 590.510108 552.456978 
L 589.393295 541.14848 
L 588.440213 531.642387 
L 587.565631 523.175895 
L 586.689338 515.724481 
L 585.978345 509.339627 
L 585.170972 503.935432 
L 583.829265 498.958059 
L 582.236512 495.208155 
L 580.590786 491.880323 
L 578.893977 490.46228 
L 577.148423 488.7912 
L 575.774026 488.108972 
L 574.235341 486.758295 
L 572.48806 486.383346 
L 570.467581 485.303864 
L 567.416674 484.938053 
L 563.786738 483.977326 
L 560.64286 483.455369 
L 557.105896 482.468821 
L 553.753242 481.722546 
L 550.425053 480.937533 
L 547.100127 479.990568 
L 543.744211 479.009883 
L 540.596663 478.105737 
L 537.063369 477.18167 
L 533.47788 476.190424 
L 530.382526 475.245675 
L 527.248435 474.453568 
L 523.701684 473.74218 
L 520.529262 473.305434 
L 517.020842 472.924953 
L 513.575217 472.814047 
L 510.339999 472.703016 
L 506.946976 472.84537 
L 503.659157 473.340324 
L 500.205377 474.19995 
L 496.978314 475.300125 
L 493.589155 476.702833 
L 490.325069 478.253025 
L 487.02499 480.101066 
L 483.958078 482.138449 
L 480.842577 484.462698 
L 477.975382 487.06622 
L 475.19253 490.116761 
L 472.396058 493.655615 
L 469.759827 497.581184 
L 467.21716 501.910202 
L 464.811613 506.805429 
L 462.425952 511.824372 
L 460.314271 517.50627 
L 458.002814 523.426362 
L 455.933062 529.445545 
L 453.926016 536.276939 
L 451.951214 542.904197 
L 450.174259 549.490314 
L 448.530584 555.824295 
L 446.721698 561.741233 
L 445.155995 566.651795 
L 443.549241 571.01599 
L 442.106467 574.582451 
L 440.63164 577.369822 
L 439.269923 579.189297 
L 437.951073 579.980966 
L 435.488341 579.712788 
L 433.224812 578.205554 
L 431.143679 575.272436 
L 429.229604 570.689248 
L 426.834965 563.826382 
L 424.358264 556.136401 
L 422.367082 548.269114 
L 420.545322 540.71979 
L 418.59025 533.352511 
L 416.601479 524.331469 
L 414.385383 510.35793 
L 411.962005 497.577392 
L 410.106215 490.864062 
L 408.375361 484.604867 
L 406.894263 479.227332 
L 405.289681 474.957638 
L 403.610952 471.497104 
L 401.701247 468.794146 
L 399.899373 466.539613 
L 398.043583 464.653168 
L 396.651741 463.542864 
L 395.259899 462.889818 
L 393.28631 462.826914 
L 391.54832 462.604144 
L 390.578063 462.541412 
L 389.69253 462.608309 
L 388.764636 462.757432 
L 387.836741 462.700636 
L 386.908846 462.74618 
L 385.980951 462.285298 
L 385.053056 462.100202 
L 384.125162 461.464763 
L 383.197267 461.106327 
L 382.269372 458.575441 
L 381.341477 458.314984 
L 380.832336 456.257534 
L 380.413583 458.395495 
L 379.945558 456.755202 
L 379.485688 460.013572 
L 379.000786 458.675156 
L 378.557793 462.090839 
L 378.056467 465.023818 
L 377.629898 469.372762 
L 377.181086 474.910814 
L 376.702003 481.300869 
L 376.42634 486.948979 
L 376.100674 494.472627 
L 375.781185 495.323741 
L 375.42959 503.979098 
L 374.808605 504.397741 
L 374.157176 513.782999 
L 373.578284 512.939854 
L 372.884762 520.250073 
L 371.612349 518.753149 
L 370.339935 523.675629 
L 367.795107 523.783458 
L 365.100791 526.615201 
L 362.015801 524.636548 
L 358.098232 526.607039 
L 353.582193 525.395968 
L 347.240659 526.619803 
L 338.743693 525.77668 
L 330.136629 526.409697 
L 322.042849 525.941094 
L 314.293433 525.944837 
L 306.108307 525.882602 
L 291.4797 525.601227 
L 277.872644 525.277196 
L 265.803879 525.082683 
L 253.442863 524.64397 
L 242.378625 524.483481 
L 232.059762 524.045097 
L 222.461467 523.816551 
L 215.666289 523.413925 
L 209.304744 523.206919 
L 201.294329 522.946732 
L 193.842604 522.864563 
L 186.901027 522.819308 
L 180.46251 522.942222 
L 174.585426 523.202036 
L 168.88361 523.615775 
L 163.692746 524.198915 
L 158.23472 525.067382 
L 152.242772 526.007761 
L 146.343341 527.302683 
L 140.906123 528.703676 
L 136.064903 530.058318 
L 131.894699 531.162902 
L 126.505652 531.812129 
L 121.795163 531.894471 
L 117.772298 531.260359 
L 114.380297 530.343252 
L 110.878308 528.351756 
L 107.979517 526.153018 
L 105.819849 524.624586 
L 103.578522 524.78019 
L 101.273505 521.271678 
L 99.991406 519.327364 
L 98.820976 518.348457 
L 97.579316 514.915065 
L 96.397416 507.020848 
L 95.299612 500.412826 
L 94.171374 494.433262 
L 93.099922 483.228959 
L 92.004934 463.155659 
L 90.129589 433.358011 
L 88.857321 424.462392 
L 87.435066 424.651518 
L 84.740543 436.22559 
L 83.42602 453.04226 
L 82.213061 481.174665 
L 80.785425 506.969252 
L 79.049287 527.285936 
L 76.852227 544.987801 
L 73.741466 558.200412 
L 69.481777 569.390667 
L 63.647806 577.96278 
L 55.656948 584.849231 
L 44.711179 589.728457 
L 29.717351 593.008273 
L 9.178043 594.573533 
z
" clip-path="url(#p2dbd68b2f5)" style="fill: #1f77b4"/>
   </g>
   <g id="PolyCollection_2">
    <path d="M 9.178043 37.532494 
L 9.178043 594.573533 
L 29.717351 593.008273 
L 44.711179 589.728457 
L 55.656948 584.849231 
L 63.647806 577.96278 
L 69.481777 569.390667 
L 73.741466 558.200412 
L 76.852227 544.987801 
L 79.049287 527.285936 
L 80.785425 506.969252 
L 82.213061 481.174665 
L 83.42602 453.04226 
L 84.740543 436.22559 
L 87.435066 424.651518 
L 88.857321 424.462392 
L 90.129589 433.358011 
L 92.004934 463.155659 
L 93.099922 483.228959 
L 94.171374 494.433262 
L 95.299612 500.412826 
L 96.397416 507.020848 
L 97.579316 514.915065 
L 98.820976 518.348457 
L 99.991406 519.327364 
L 101.273505 521.271678 
L 103.578522 524.78019 
L 105.819849 524.624586 
L 107.979517 526.153018 
L 110.878308 528.351756 
L 114.380297 530.343252 
L 117.772298 531.260359 
L 121.795163 531.894471 
L 126.505652 531.812129 
L 131.894699 531.162902 
L 136.064903 530.058318 
L 140.906123 528.703676 
L 146.343341 527.302683 
L 152.242772 526.007761 
L 158.23472 525.067382 
L 163.692746 524.198915 
L 168.88361 523.615775 
L 174.585426 523.202036 
L 180.46251 522.942222 
L 186.901027 522.819308 
L 193.842604 522.864563 
L 201.294329 522.946732 
L 209.304744 523.206919 
L 215.666289 523.413925 
L 222.461467 523.816551 
L 232.059762 524.045097 
L 242.378625 524.483481 
L 253.442863 524.64397 
L 265.803879 525.082683 
L 277.872644 525.277196 
L 291.4797 525.601227 
L 306.108307 525.882602 
L 314.293433 525.944837 
L 322.042849 525.941094 
L 330.136629 526.409697 
L 338.743693 525.77668 
L 347.240659 526.619803 
L 353.582193 525.395968 
L 358.098232 526.607039 
L 362.015801 524.636548 
L 365.100791 526.615201 
L 367.795107 523.783458 
L 370.339935 523.675629 
L 371.612349 518.753149 
L 372.884762 520.250073 
L 373.578284 512.939854 
L 374.157176 513.782999 
L 374.808605 504.397741 
L 375.42959 503.979098 
L 375.781185 495.323741 
L 376.100674 494.472627 
L 376.42634 486.948979 
L 376.702003 481.300869 
L 377.181086 474.910814 
L 377.629898 469.372762 
L 378.056467 465.023818 
L 378.557793 462.090839 
L 379.000786 458.675156 
L 379.485688 460.013572 
L 379.945558 456.755202 
L 380.413583 458.395495 
L 380.832336 456.257534 
L 381.341477 458.314984 
L 382.269372 458.575441 
L 383.197267 461.106327 
L 384.125162 461.464763 
L 385.053056 462.100202 
L 385.980951 462.285298 
L 386.908846 462.74618 
L 387.836741 462.700636 
L 388.764636 462.757432 
L 389.69253 462.608309 
L 390.578063 462.541412 
L 391.54832 462.604144 
L 393.28631 462.826914 
L 395.259899 462.889818 
L 396.651741 463.542864 
L 398.043583 464.653168 
L 399.899373 466.539613 
L 401.701247 468.794146 
L 403.610952 471.497104 
L 405.289681 474.957638 
L 406.894263 479.227332 
L 408.375361 484.604867 
L 410.106215 490.864062 
L 411.962005 497.577392 
L 414.385383 510.35793 
L 416.601479 524.331469 
L 418.59025 533.352511 
L 420.545322 540.71979 
L 422.367082 548.269114 
L 424.358264 556.136401 
L 426.834965 563.826382 
L 429.229604 570.689248 
L 431.143679 575.272436 
L 433.224812 578.205554 
L 435.488341 579.712788 
L 437.951073 579.980966 
L 439.269923 579.189297 
L 440.63164 577.369822 
L 442.106467 574.582451 
L 443.549241 571.01599 
L 445.155995 566.651795 
L 446.721698 561.741233 
L 448.530584 555.824295 
L 450.174259 549.490314 
L 451.951214 542.904197 
L 453.926016 536.276939 
L 455.933062 529.445545 
L 458.002814 523.426362 
L 460.314271 517.50627 
L 462.425952 511.824372 
L 464.811613 506.805429 
L 467.21716 501.910202 
L 469.759827 497.581184 
L 472.396058 493.655615 
L 475.19253 490.116761 
L 477.975382 487.06622 
L 480.842577 484.462698 
L 483.958078 482.138449 
L 487.02499 480.101066 
L 490.325069 478.253025 
L 493.589155 476.702833 
L 496.978314 475.300125 
L 500.205377 474.19995 
L 503.659157 473.340324 
L 506.946976 472.84537 
L 510.339999 472.703016 
L 513.575217 472.814047 
L 517.020842 472.924953 
L 520.529262 473.305434 
L 523.701684 473.74218 
L 527.248435 474.453568 
L 530.382526 475.245675 
L 533.47788 476.190424 
L 537.063369 477.18167 
L 540.596663 478.105737 
L 543.744211 479.009883 
L 547.100127 479.990568 
L 550.425053 480.937533 
L 553.753242 481.722546 
L 557.105896 482.468821 
L 560.64286 483.455369 
L 563.786738 483.977326 
L 567.416674 484.938053 
L 570.467581 485.303864 
L 572.48806 486.383346 
L 574.235341 486.758295 
L 575.774026 488.108972 
L 577.148423 488.7912 
L 578.893977 490.46228 
L 580.590786 491.880323 
L 582.236512 495.208155 
L 583.829265 498.958059 
L 585.170972 503.935432 
L 585.978345 509.339627 
L 586.689338 515.724481 
L 587.565631 523.175895 
L 588.440213 531.642387 
L 589.393295 541.14848 
L 590.510108 552.456978 
L 591.006574 568.070667 
L 591.536623 576.218863 
L 592.09897 582.193831 
L 592.691486 586.774318 
L 593.836984 589.585565 
L 595.007931 591.546904 
L 596.17812 593.421632 
L 597.43789 595.169027 
L 598.641338 596.875801 
L 599.95542 599.053781 
L 601.139458 601.108355 
L 602.456615 604.030617 
L 603.58178 602.942866 
L 604.861979 598.25752 
L 607.17568 591.164693 
L 609.400733 583.696042 
L 611.62836 577.961439 
L 613.948134 574.304828 
L 616.355835 572.651795 
L 618.846045 572.813899 
L 622.080194 572.390155 
L 625.776244 573.76123 
L 629.202701 575.276221 
L 632.80417 576.909924 
L 637.73667 579.467604 
L 642.249482 581.944825 
L 647.181983 582.69719 
L 656.627295 585.348837 
L 666.072608 587.496823 
L 675.51792 589.349081 
L 684.963233 590.802116 
L 694.408545 591.607561 
L 703.853858 591.674359 
L 713.29917 592.122805 
L 722.744483 592.056434 
L 741.635108 592.90776 
L 753.458468 593.577942 
L 765.81912 593.770037 
L 777.874829 593.885494 
L 788.86167 594.348102 
L 798.306983 594.243595 
L 807.092784 594.54173 
L 817.197608 594.532309 
L 817.197608 187.539092 
L 817.197608 187.539092 
L 807.092784 187.715636 
L 798.306983 187.867372 
L 788.86167 188.481586 
L 777.874829 188.936434 
L 765.81912 189.681338 
L 753.458468 191.083079 
L 741.635108 191.989189 
L 722.744483 193.294605 
L 713.29917 196.251644 
L 703.853858 200.13193 
L 694.408545 204.574797 
L 684.963233 208.972417 
L 675.51792 212.793084 
L 666.072608 217.233626 
L 656.627295 222.218879 
L 647.181983 227.582173 
L 642.249482 234.116714 
L 637.73667 238.125453 
L 632.80417 242.245623 
L 629.202701 246.669305 
L 625.776244 249.664768 
L 622.080194 253.627098 
L 618.846045 257.251188 
L 616.355835 258.904243 
L 613.948134 260.283535 
L 611.62836 263.648932 
L 609.400733 267.498464 
L 607.17568 273.194704 
L 604.861979 279.531591 
L 603.58178 285.49325 
L 602.456615 289.316369 
L 601.139458 294.42877 
L 599.95542 304.296121 
L 598.641338 321.896224 
L 597.43789 360.107335 
L 596.17812 415.414209 
L 595.007931 432.820368 
L 593.836984 434.005223 
L 592.691486 427.649305 
L 592.09897 414.238378 
L 591.536623 385.52101 
L 591.006574 302.290083 
L 590.510108 220.841976 
L 589.393295 173.55174 
L 588.440213 138.796299 
L 587.565631 111.20192 
L 586.689338 89.05732 
L 585.978345 71.217103 
L 585.170972 57.329055 
L 583.829265 46.657575 
L 582.236512 38.271334 
L 580.590786 32.886681 
L 578.893977 31.751892 
L 577.148423 31.979679 
L 575.774026 32.022049 
L 574.235341 32.403262 
L 572.48806 32.659308 
L 570.467581 32.947712 
L 567.416674 33.081457 
L 563.786738 32.932599 
L 560.64286 33.056408 
L 557.105896 32.767578 
L 553.753242 32.314268 
L 550.425053 32.046673 
L 547.100127 31.405369 
L 543.744211 30.903797 
L 540.596663 30.396865 
L 537.063369 29.970961 
L 533.47788 29.259408 
L 530.382526 28.747807 
L 527.248435 28.236495 
L 523.701684 27.788381 
L 520.529262 27.147945 
L 517.020842 26.62822 
L 513.575217 26.08553 
L 510.339999 25.652681 
L 506.946976 25.195199 
L 503.659157 25.231853 
L 500.205377 25.441445 
L 496.978314 25.554367 
L 493.589155 25.592334 
L 490.325069 25.511533 
L 487.02499 25.387398 
L 483.958078 25.116552 
L 480.842577 24.84854 
L 477.975382 24.44476 
L 475.19253 24.531147 
L 472.396058 25.637841 
L 469.759827 26.815793 
L 467.21716 28.024049 
L 464.811613 29.217522 
L 462.425952 30.440676 
L 460.314271 31.537996 
L 458.002814 32.613509 
L 455.933062 33.495374 
L 453.926016 34.261979 
L 451.951214 34.736766 
L 450.174259 35.084529 
L 448.530584 35.07466 
L 446.721698 34.965559 
L 445.155995 34.427416 
L 443.549241 33.617769 
L 442.106467 32.713602 
L 440.63164 31.56406 
L 439.269923 30.057545 
L 437.951073 28.407424 
L 435.488341 29.225163 
L 433.224812 32.063353 
L 431.143679 34.321732 
L 429.229604 36.373569 
L 426.834965 37.711509 
L 424.358264 38.797542 
L 422.367082 39.210024 
L 420.545322 39.393212 
L 418.59025 39.320838 
L 416.601479 38.816716 
L 414.385383 38.333596 
L 411.962005 38.020038 
L 410.106215 38.035813 
L 408.375361 38.452072 
L 406.894263 39.073425 
L 405.289681 39.52507 
L 403.610952 39.651392 
L 401.701247 39.600805 
L 399.899373 39.23969 
L 398.043583 38.878592 
L 396.651741 38.336152 
L 395.259899 37.754803 
L 393.28631 36.499043 
L 391.54832 35.182816 
L 390.578063 34.468534 
L 389.69253 33.594738 
L 388.764636 32.53336 
L 387.836741 30.778136 
L 386.908846 29.659636 
L 385.980951 27.739324 
L 385.053056 26.585774 
L 384.125162 26.819201 
L 383.197267 28.684596 
L 382.269372 30.62594 
L 381.341477 33.167292 
L 380.832336 34.21499 
L 380.413583 35.430937 
L 379.945558 36.55318 
L 379.485688 37.899428 
L 379.000786 39.076444 
L 378.557793 40.462722 
L 378.056467 50.089748 
L 377.629898 50.581375 
L 377.181086 61.578605 
L 376.702003 62.588987 
L 376.42634 62.787907 
L 376.100674 58.833558 
L 375.781185 49.639867 
L 375.42959 49.078826 
L 374.808605 43.648744 
L 374.157176 43.51608 
L 373.578284 41.597535 
L 372.884762 40.973933 
L 371.612349 38.984243 
L 370.339935 38.066337 
L 367.795107 35.483122 
L 365.100791 34.350099 
L 362.015801 32.300992 
L 358.098232 33.225276 
L 353.582193 31.490581 
L 347.240659 32.182401 
L 338.743693 31.057998 
L 330.136629 31.14034 
L 322.042849 30.59577 
L 314.293433 30.414709 
L 306.108307 29.67865 
L 291.4797 28.789786 
L 277.872644 27.902881 
L 265.803879 27.158675 
L 253.442863 26.122121 
L 242.378625 25.467477 
L 232.059762 24.693634 
L 222.461467 24.190165 
L 215.666289 23.703588 
L 209.304744 23.533214 
L 201.294329 23.432878 
L 193.842604 23.622345 
L 186.901027 23.955548 
L 180.46251 24.473483 
L 174.585426 25.167092 
L 168.88361 25.895314 
L 163.692746 26.884202 
L 158.23472 27.981924 
L 152.242772 29.20457 
L 146.343341 30.515028 
L 140.906123 32.048368 
L 136.064903 33.150304 
L 131.894699 34.532038 
L 126.505652 35.353617 
L 121.795163 34.826133 
L 117.772298 32.832676 
L 114.380297 30.690897 
L 110.878308 28.982258 
L 107.979517 29.927182 
L 105.819849 31.574917 
L 103.578522 38.02322 
L 101.273505 41.903422 
L 99.991406 47.710967 
L 98.820976 56.632999 
L 97.579316 66.193694 
L 96.397416 73.967434 
L 95.299612 86.278257 
L 94.171374 102.401947 
L 93.099922 115.604469 
L 92.004934 118.293627 
L 90.129589 108.565549 
L 88.857321 111.378859 
L 87.435066 115.340443 
L 84.740543 123.098921 
L 83.42602 100.707371 
L 82.213061 78.148513 
L 80.785425 48.746786 
L 79.049287 41.265198 
L 76.852227 43.923712 
L 73.741466 39.486425 
L 69.481777 41.821368 
L 63.647806 38.109129 
L 55.656948 39.923837 
L 44.711179 37.399879 
L 29.717351 38.432169 
L 9.178043 37.532494 
z
" clip-path="url(#p2dbd68b2f5)" style="fill: #ff7f0e"/>
   </g>
   <g id="PolyCollection_3">
    <path d="M 9.178043 24.18 
L 9.178043 37.532494 
L 29.717351 38.432169 
L 44.711179 37.399879 
L 55.656948 39.923837 
L 63.647806 38.109129 
L 69.481777 41.821368 
L 73.741466 39.486425 
L 76.852227 43.923712 
L 79.049287 41.265198 
L 80.785425 48.746786 
L 82.213061 78.148513 
L 83.42602 100.707371 
L 84.740543 123.098921 
L 87.435066 115.340443 
L 88.857321 111.378859 
L 90.129589 108.565549 
L 92.004934 118.293627 
L 93.099922 115.604469 
L 94.171374 102.401947 
L 95.299612 86.278257 
L 96.397416 73.967434 
L 97.579316 66.193694 
L 98.820976 56.632999 
L 99.991406 47.710967 
L 101.273505 41.903422 
L 103.578522 38.02322 
L 105.819849 31.574917 
L 107.979517 29.927182 
L 110.878308 28.982258 
L 114.380297 30.690897 
L 117.772298 32.832676 
L 121.795163 34.826133 
L 126.505652 35.353617 
L 131.894699 34.532038 
L 136.064903 33.150304 
L 140.906123 32.048368 
L 146.343341 30.515028 
L 152.242772 29.20457 
L 158.23472 27.981924 
L 163.692746 26.884202 
L 168.88361 25.895314 
L 174.585426 25.167092 
L 180.46251 24.473483 
L 186.901027 23.955548 
L 193.842604 23.622345 
L 201.294329 23.432878 
L 209.304744 23.533214 
L 215.666289 23.703588 
L 222.461467 24.190165 
L 232.059762 24.693634 
L 242.378625 25.467477 
L 253.442863 26.122121 
L 265.803879 27.158675 
L 277.872644 27.902881 
L 291.4797 28.789786 
L 306.108307 29.67865 
L 314.293433 30.414709 
L 322.042849 30.59577 
L 330.136629 31.14034 
L 338.743693 31.057998 
L 347.240659 32.182401 
L 353.582193 31.490581 
L 358.098232 33.225276 
L 362.015801 32.300992 
L 365.100791 34.350099 
L 367.795107 35.483122 
L 370.339935 38.066337 
L 371.612349 38.984243 
L 372.884762 40.973933 
L 373.578284 41.597535 
L 374.157176 43.51608 
L 374.808605 43.648744 
L 375.42959 49.078826 
L 375.781185 49.639867 
L 376.100674 58.833558 
L 376.42634 62.787907 
L 376.702003 62.588987 
L 377.181086 61.578605 
L 377.629898 50.581375 
L 378.056467 50.089748 
L 378.557793 40.462722 
L 379.000786 39.076444 
L 379.485688 37.899428 
L 379.945558 36.55318 
L 380.413583 35.430937 
L 380.832336 34.21499 
L 381.341477 33.167292 
L 382.269372 30.62594 
L 383.197267 28.684596 
L 384.125162 26.819201 
L 385.053056 26.585774 
L 385.980951 27.739324 
L 386.908846 29.659636 
L 387.836741 30.778136 
L 388.764636 32.53336 
L 389.69253 33.594738 
L 390.578063 34.468534 
L 391.54832 35.182816 
L 393.28631 36.499043 
L 395.259899 37.754803 
L 396.651741 38.336152 
L 398.043583 38.878592 
L 399.899373 39.23969 
L 401.701247 39.600805 
L 403.610952 39.651392 
L 405.289681 39.52507 
L 406.894263 39.073425 
L 408.375361 38.452072 
L 410.106215 38.035813 
L 411.962005 38.020038 
L 414.385383 38.333596 
L 416.601479 38.816716 
L 418.59025 39.320838 
L 420.545322 39.393212 
L 422.367082 39.210024 
L 424.358264 38.797542 
L 426.834965 37.711509 
L 429.229604 36.373569 
L 431.143679 34.321732 
L 433.224812 32.063353 
L 435.488341 29.225163 
L 437.951073 28.407424 
L 439.269923 30.057545 
L 440.63164 31.56406 
L 442.106467 32.713602 
L 443.549241 33.617769 
L 445.155995 34.427416 
L 446.721698 34.965559 
L 448.530584 35.07466 
L 450.174259 35.084529 
L 451.951214 34.736766 
L 453.926016 34.261979 
L 455.933062 33.495374 
L 458.002814 32.613509 
L 460.314271 31.537996 
L 462.425952 30.440676 
L 464.811613 29.217522 
L 467.21716 28.024049 
L 469.759827 26.815793 
L 472.396058 25.637841 
L 475.19253 24.531147 
L 477.975382 24.44476 
L 480.842577 24.84854 
L 483.958078 25.116552 
L 487.02499 25.387398 
L 490.325069 25.511533 
L 493.589155 25.592334 
L 496.978314 25.554367 
L 500.205377 25.441445 
L 503.659157 25.231853 
L 506.946976 25.195199 
L 510.339999 25.652681 
L 513.575217 26.08553 
L 517.020842 26.62822 
L 520.529262 27.147945 
L 523.701684 27.788381 
L 527.248435 28.236495 
L 530.382526 28.747807 
L 533.47788 29.259408 
L 537.063369 29.970961 
L 540.596663 30.396865 
L 543.744211 30.903797 
L 547.100127 31.405369 
L 550.425053 32.046673 
L 553.753242 32.314268 
L 557.105896 32.767578 
L 560.64286 33.056408 
L 563.786738 32.932599 
L 567.416674 33.081457 
L 570.467581 32.947712 
L 572.48806 32.659308 
L 574.235341 32.403262 
L 575.774026 32.022049 
L 577.148423 31.979679 
L 578.893977 31.751892 
L 580.590786 32.886681 
L 582.236512 38.271334 
L 583.829265 46.657575 
L 585.170972 57.329055 
L 585.978345 71.217103 
L 586.689338 89.05732 
L 587.565631 111.20192 
L 588.440213 138.796299 
L 589.393295 173.55174 
L 590.510108 220.841976 
L 591.006574 302.290083 
L 591.536623 385.52101 
L 592.09897 414.238378 
L 592.691486 427.649305 
L 593.836984 434.005223 
L 595.007931 432.820368 
L 596.17812 415.414209 
L 597.43789 360.107335 
L 598.641338 321.896224 
L 599.95542 304.296121 
L 601.139458 294.42877 
L 602.456615 289.316369 
L 603.58178 285.49325 
L 604.861979 279.531591 
L 607.17568 273.194704 
L 609.400733 267.498464 
L 611.62836 263.648932 
L 613.948134 260.283535 
L 616.355835 258.904243 
L 618.846045 257.251188 
L 622.080194 253.627098 
L 625.776244 249.664768 
L 629.202701 246.669305 
L 632.80417 242.245623 
L 637.73667 238.125453 
L 642.249482 234.116714 
L 647.181983 227.582173 
L 656.627295 222.218879 
L 666.072608 217.233626 
L 675.51792 212.793084 
L 684.963233 208.972417 
L 694.408545 204.574797 
L 703.853858 200.13193 
L 713.29917 196.251644 
L 722.744483 193.294605 
L 741.635108 191.989189 
L 753.458468 191.083079 
L 765.81912 189.681338 
L 777.874829 188.936434 
L 788.86167 188.481586 
L 798.306983 187.867372 
L 807.092784 187.715636 
L 817.197608 187.539092 
L 817.197608 88.96685 
L 817.197608 88.96685 
L 807.092784 89.116052 
L 798.306983 89.216052 
L 788.86167 89.808805 
L 777.874829 90.193736 
L 765.81912 91.047155 
L 753.458468 92.706311 
L 741.635108 93.946749 
L 722.744483 96.655512 
L 713.29917 100.56915 
L 703.853858 105.236051 
L 694.408545 111.311098 
L 684.963233 117.63305 
L 675.51792 126.372996 
L 666.072608 136.25827 
L 656.627295 147.418963 
L 647.181983 159.195506 
L 642.249482 169.389801 
L 637.73667 176.988134 
L 632.80417 186.542543 
L 629.202701 194.546956 
L 625.776244 200.334504 
L 622.080194 206.864779 
L 618.846045 212.599771 
L 616.355835 216.127332 
L 613.948134 218.659711 
L 611.62836 224.522808 
L 609.400733 229.074311 
L 607.17568 238.079881 
L 604.861979 245.542159 
L 603.58178 254.482674 
L 602.456615 259.738223 
L 601.139458 267.797916 
L 599.95542 280.521601 
L 598.641338 301.895554 
L 597.43789 344.595706 
L 596.17812 406.233706 
L 595.007931 429.34839 
L 593.836984 433.980744 
L 592.691486 425.390883 
L 592.09897 410.746354 
L 591.536623 381.196422 
L 591.006574 297.630717 
L 590.510108 216.449977 
L 589.393295 169.019241 
L 588.440213 134.55967 
L 587.565631 107.3461 
L 586.689338 85.66249 
L 585.978345 68.39318 
L 585.170972 54.868359 
L 583.829265 43.479487 
L 582.236512 34.336432 
L 580.590786 28.259995 
L 578.893977 26.317521 
L 577.148423 25.911208 
L 575.774026 25.090092 
L 574.235341 24.93823 
L 572.48806 24.322125 
L 570.467581 24.275472 
L 567.416674 23.734226 
L 563.786738 23.675837 
L 560.64286 23.216607 
L 557.105896 23.2166 
L 553.753242 22.857052 
L 550.425053 22.669765 
L 547.100127 22.488069 
L 543.744211 22.425329 
L 540.596663 22.143135 
L 537.063369 21.918095 
L 533.47788 21.792879 
L 530.382526 21.737219 
L 527.248435 21.521008 
L 523.701684 21.319228 
L 520.529262 21.304693 
L 517.020842 21.089575 
L 513.575217 21.122502 
L 510.339999 20.995931 
L 506.946976 21.127823 
L 503.659157 21.505577 
L 500.205377 22.292075 
L 496.978314 22.788441 
L 493.589155 23.37683 
L 490.325069 23.715727 
L 487.02499 24.175474 
L 483.958078 24.376998 
L 480.842577 24.747796 
L 477.975382 23.988651 
L 475.19253 23.373084 
L 472.396058 23.80978 
L 469.759827 24.215354 
L 467.21716 24.67031 
L 464.811613 25.071394 
L 462.425952 25.490909 
L 460.314271 25.836339 
L 458.002814 26.162653 
L 455.933062 26.417178 
L 453.926016 26.615971 
L 451.951214 26.734942 
L 450.174259 26.761082 
L 448.530584 26.734946 
L 446.721698 26.580544 
L 445.155995 26.362152 
L 443.549241 26.020802 
L 442.106467 25.591321 
L 440.63164 25.046354 
L 439.269923 24.432161 
L 437.951073 23.727601 
L 435.488341 25.321044 
L 433.224812 29.246046 
L 431.143679 32.226565 
L 429.229604 35.145156 
L 426.834965 37.215328 
L 424.358264 38.738215 
L 422.367082 38.495541 
L 420.545322 38.444844 
L 418.59025 37.954696 
L 416.601479 37.264597 
L 414.385383 36.57319 
L 411.962005 36.280892 
L 410.106215 36.336722 
L 408.375361 36.955584 
L 406.894263 37.666991 
L 405.289681 38.365189 
L 403.610952 38.579318 
L 401.701247 38.763738 
L 399.899373 38.477858 
L 398.043583 38.40989 
L 396.651741 37.877424 
L 395.259899 37.442748 
L 393.28631 35.957143 
L 391.54832 34.582441 
L 390.578063 33.75289 
L 389.69253 32.863738 
L 388.764636 31.72193 
L 387.836741 29.910572 
L 386.908846 28.644595 
L 385.980951 26.633196 
L 385.053056 25.232641 
L 384.125162 25.333705 
L 383.197267 26.302941 
L 382.269372 27.228021 
L 381.341477 28.250216 
L 380.832336 29.209136 
L 380.413583 30.253056 
L 379.945558 31.368823 
L 379.485688 32.45956 
L 379.000786 33.680559 
L 378.557793 34.671397 
L 378.056467 43.895718 
L 377.629898 43.175761 
L 377.181086 54.206969 
L 376.702003 54.406501 
L 376.42634 55.332555 
L 376.100674 50.147578 
L 375.781185 42.048178 
L 375.42959 40.581667 
L 374.808605 35.459104 
L 374.157176 34.68377 
L 373.578284 33.279127 
L 372.884762 32.212952 
L 371.612349 30.899278 
L 370.339935 29.778596 
L 367.795107 28.369773 
L 365.100791 27.277374 
L 362.015801 26.203201 
L 358.098232 27.524414 
L 353.582193 26.609954 
L 347.240659 27.604151 
L 338.743693 27.207448 
L 330.136629 27.636074 
L 322.042849 27.57576 
L 314.293433 27.70031 
L 306.108307 27.397359 
L 291.4797 27.107694 
L 277.872644 26.717968 
L 265.803879 26.360643 
L 253.442863 25.774665 
L 242.378625 25.381981 
L 232.059762 24.470091 
L 222.461467 23.757377 
L 215.666289 23.069118 
L 209.304744 22.815123 
L 201.294329 22.572019 
L 193.842604 22.745166 
L 186.901027 23.018211 
L 180.46251 23.613229 
L 174.585426 24.32646 
L 168.88361 25.212645 
L 163.692746 26.294289 
L 158.23472 27.598066 
L 152.242772 29.007502 
L 146.343341 30.484615 
L 140.906123 31.979445 
L 136.064903 32.957633 
L 131.894699 34.320919 
L 126.505652 35.31537 
L 121.795163 34.064592 
L 117.772298 31.254422 
L 114.380297 28.382731 
L 110.878308 25.560118 
L 107.979517 25.399508 
L 105.819849 26.237294 
L 103.578522 31.798231 
L 101.273505 34.670302 
L 99.991406 39.619049 
L 98.820976 47.628966 
L 97.579316 56.182062 
L 96.397416 62.902581 
L 95.299612 74.084064 
L 94.171374 89.063603 
L 93.099922 101.061043 
L 92.004934 102.709215 
L 90.129589 91.645323 
L 88.857321 93.955857 
L 87.435066 96.709426 
L 84.740543 104.738302 
L 83.42602 81.336014 
L 82.213061 59.406989 
L 80.785425 29.597925 
L 79.049287 23.467034 
L 76.852227 26.427143 
L 73.741466 23.308054 
L 69.481777 25.904195 
L 63.647806 23.390841 
L 55.656948 25.336629 
L 44.711179 23.696165 
L 29.717351 24.749625 
L 9.178043 24.18 
z
" clip-path="url(#p2dbd68b2f5)" style="fill: #2ca02c"/>
   </g>
   <g id="PolyCollection_4">
    <path d="M 9.178043 18.927692 
L 9.178043 24.18 
L 29.717351 24.749625 
L 44.711179 23.696165 
L 55.656948 25.336629 
L 63.647806 23.390841 
L 69.481777 25.904195 
L 73.741466 23.308054 
L 76.852227 26.427143 
L 79.049287 23.467034 
L 80.785425 29.597925 
L 82.213061 59.406989 
L 83.42602 81.336014 
L 84.740543 104.738302 
L 87.435066 96.709426 
L 88.857321 93.955857 
L 90.129589 91.645323 
L 92.004934 102.709215 
L 93.099922 101.061043 
L 94.171374 89.063603 
L 95.299612 74.084064 
L 96.397416 62.902581 
L 97.579316 56.182062 
L 98.820976 47.628966 
L 99.991406 39.619049 
L 101.273505 34.670302 
L 103.578522 31.798231 
L 105.819849 26.237294 
L 107.979517 25.399508 
L 110.878308 25.560118 
L 114.380297 28.382731 
L 117.772298 31.254422 
L 121.795163 34.064592 
L 126.505652 35.31537 
L 131.894699 34.320919 
L 136.064903 32.957633 
L 140.906123 31.979445 
L 146.343341 30.484615 
L 152.242772 29.007502 
L 158.23472 27.598066 
L 163.692746 26.294289 
L 168.88361 25.212645 
L 174.585426 24.32646 
L 180.46251 23.613229 
L 186.901027 23.018211 
L 193.842604 22.745166 
L 201.294329 22.572019 
L 209.304744 22.815123 
L 215.666289 23.069118 
L 222.461467 23.757377 
L 232.059762 24.470091 
L 242.378625 25.381981 
L 253.442863 25.774665 
L 265.803879 26.360643 
L 277.872644 26.717968 
L 291.4797 27.107694 
L 306.108307 27.397359 
L 314.293433 27.70031 
L 322.042849 27.57576 
L 330.136629 27.636074 
L 338.743693 27.207448 
L 347.240659 27.604151 
L 353.582193 26.609954 
L 358.098232 27.524414 
L 362.015801 26.203201 
L 365.100791 27.277374 
L 367.795107 28.369773 
L 370.339935 29.778596 
L 371.612349 30.899278 
L 372.884762 32.212952 
L 373.578284 33.279127 
L 374.157176 34.68377 
L 374.808605 35.459104 
L 375.42959 40.581667 
L 375.781185 42.048178 
L 376.100674 50.147578 
L 376.42634 55.332555 
L 376.702003 54.406501 
L 377.181086 54.206969 
L 377.629898 43.175761 
L 378.056467 43.895718 
L 378.557793 34.671397 
L 379.000786 33.680559 
L 379.485688 32.45956 
L 379.945558 31.368823 
L 380.413583 30.253056 
L 380.832336 29.209136 
L 381.341477 28.250216 
L 382.269372 27.228021 
L 383.197267 26.302941 
L 384.125162 25.333705 
L 385.053056 25.232641 
L 385.980951 26.633196 
L 386.908846 28.644595 
L 387.836741 29.910572 
L 388.764636 31.72193 
L 389.69253 32.863738 
L 390.578063 33.75289 
L 391.54832 34.582441 
L 393.28631 35.957143 
L 395.259899 37.442748 
L 396.651741 37.877424 
L 398.043583 38.40989 
L 399.899373 38.477858 
L 401.701247 38.763738 
L 403.610952 38.579318 
L 405.289681 38.365189 
L 406.894263 37.666991 
L 408.375361 36.955584 
L 410.106215 36.336722 
L 411.962005 36.280892 
L 414.385383 36.57319 
L 416.601479 37.264597 
L 418.59025 37.954696 
L 420.545322 38.444844 
L 422.367082 38.495541 
L 424.358264 38.738215 
L 426.834965 37.215328 
L 429.229604 35.145156 
L 431.143679 32.226565 
L 433.224812 29.246046 
L 435.488341 25.321044 
L 437.951073 23.727601 
L 439.269923 24.432161 
L 440.63164 25.046354 
L 442.106467 25.591321 
L 443.549241 26.020802 
L 445.155995 26.362152 
L 446.721698 26.580544 
L 448.530584 26.734946 
L 450.174259 26.761082 
L 451.951214 26.734942 
L 453.926016 26.615971 
L 455.933062 26.417178 
L 458.002814 26.162653 
L 460.314271 25.836339 
L 462.425952 25.490909 
L 464.811613 25.071394 
L 467.21716 24.67031 
L 469.759827 24.215354 
L 472.396058 23.80978 
L 475.19253 23.373084 
L 477.975382 23.988651 
L 480.842577 24.747796 
L 483.958078 24.376998 
L 487.02499 24.175474 
L 490.325069 23.715727 
L 493.589155 23.37683 
L 496.978314 22.788441 
L 500.205377 22.292075 
L 503.659157 21.505577 
L 506.946976 21.127823 
L 510.339999 20.995931 
L 513.575217 21.122502 
L 517.020842 21.089575 
L 520.529262 21.304693 
L 523.701684 21.319228 
L 527.248435 21.521008 
L 530.382526 21.737219 
L 533.47788 21.792879 
L 537.063369 21.918095 
L 540.596663 22.143135 
L 543.744211 22.425329 
L 547.100127 22.488069 
L 550.425053 22.669765 
L 553.753242 22.857052 
L 557.105896 23.2166 
L 560.64286 23.216607 
L 563.786738 23.675837 
L 567.416674 23.734226 
L 570.467581 24.275472 
L 572.48806 24.322125 
L 574.235341 24.93823 
L 575.774026 25.090092 
L 577.148423 25.911208 
L 578.893977 26.317521 
L 580.590786 28.259995 
L 582.236512 34.336432 
L 583.829265 43.479487 
L 585.170972 54.868359 
L 585.978345 68.39318 
L 586.689338 85.66249 
L 587.565631 107.3461 
L 588.440213 134.55967 
L 589.393295 169.019241 
L 590.510108 216.449977 
L 591.006574 297.630717 
L 591.536623 381.196422 
L 592.09897 410.746354 
L 592.691486 425.390883 
L 593.836984 433.980744 
L 595.007931 429.34839 
L 596.17812 406.233706 
L 597.43789 344.595706 
L 598.641338 301.895554 
L 599.95542 280.521601 
L 601.139458 267.797916 
L 602.456615 259.738223 
L 603.58178 254.482674 
L 604.861979 245.542159 
L 607.17568 238.079881 
L 609.400733 229.074311 
L 611.62836 224.522808 
L 613.948134 218.659711 
L 616.355835 216.127332 
L 618.846045 212.599771 
L 622.080194 206.864779 
L 625.776244 200.334504 
L 629.202701 194.546956 
L 632.80417 186.542543 
L 637.73667 176.988134 
L 642.249482 169.389801 
L 647.181983 159.195506 
L 656.627295 147.418963 
L 666.072608 136.25827 
L 675.51792 126.372996 
L 684.963233 117.63305 
L 694.408545 111.311098 
L 703.853858 105.236051 
L 713.29917 100.56915 
L 722.744483 96.655512 
L 741.635108 93.946749 
L 753.458468 92.706311 
L 765.81912 91.047155 
L 777.874829 90.193736 
L 788.86167 89.808805 
L 798.306983 89.216052 
L 807.092784 89.116052 
L 817.197608 88.96685 
L 817.197608 67.631021 
L 817.197608 67.631021 
L 807.092784 67.905327 
L 798.306983 68.282345 
L 788.86167 69.227166 
L 777.874829 70.113406 
L 765.81912 71.582653 
L 753.458468 74.011001 
L 741.635108 76.122083 
L 722.744483 79.986015 
L 713.29917 84.998091 
L 703.853858 90.451965 
L 694.408545 97.818287 
L 684.963233 105.531673 
L 675.51792 115.500885 
L 666.072608 126.665152 
L 656.627295 139.125657 
L 647.181983 152.232904 
L 642.249482 163.633374 
L 637.73667 172.267185 
L 632.80417 182.56847 
L 629.202701 191.051539 
L 625.776244 196.757977 
L 622.080194 203.268096 
L 618.846045 208.274949 
L 616.355835 210.707848 
L 613.948134 211.082469 
L 611.62836 213.175103 
L 609.400733 212.687842 
L 607.17568 215.906665 
L 604.861979 218.295951 
L 603.58178 222.100117 
L 602.456615 223.061299 
L 601.139458 227.732072 
L 599.95542 238.461547 
L 598.641338 258.965918 
L 597.43789 301.598423 
L 596.17812 363.755838 
L 595.007931 388.231281 
L 593.836984 395.184339 
L 592.691486 390.53587 
L 592.09897 379.263684 
L 591.536623 352.713308 
L 591.006574 271.763921 
L 590.510108 192.90753 
L 589.393295 147.89086 
L 588.440213 115.728974 
L 587.565631 90.53121 
L 586.689338 70.780675 
L 585.978345 54.998855 
L 585.170972 43.050576 
L 583.829265 32.825159 
L 582.236512 25.08816 
L 580.590786 19.724262 
L 578.893977 18.927692 
L 577.148423 18.927692 
L 575.774026 18.927692 
L 574.235341 18.927692 
L 572.48806 18.927692 
L 570.467581 18.927692 
L 567.416674 18.927692 
L 563.786738 18.927692 
L 560.64286 18.927692 
L 557.105896 18.927692 
L 553.753242 18.927692 
L 550.425053 18.927692 
L 547.100127 18.927692 
L 543.744211 18.927692 
L 540.596663 18.927692 
L 537.063369 18.927692 
L 533.47788 18.927692 
L 530.382526 18.927692 
L 527.248435 18.927692 
L 523.701684 18.927692 
L 520.529262 18.927692 
L 517.020842 18.927692 
L 513.575217 18.927692 
L 510.339999 18.927692 
L 506.946976 18.927692 
L 503.659157 19.322273 
L 500.205377 19.942146 
L 496.978314 20.366962 
L 493.589155 20.741481 
L 490.325069 20.912216 
L 487.02499 21.100572 
L 483.958078 21.023411 
L 480.842577 21.066448 
L 477.975382 19.930661 
L 475.19253 18.927692 
L 472.396058 18.927692 
L 469.759827 18.927692 
L 467.21716 18.927692 
L 464.811613 18.927692 
L 462.425952 18.927692 
L 460.314271 18.927692 
L 458.002814 18.927692 
L 455.933062 18.927692 
L 453.926016 18.927692 
L 451.951214 18.927692 
L 450.174259 18.927692 
L 448.530584 18.927692 
L 446.721698 18.927692 
L 445.155995 18.927692 
L 443.549241 18.927692 
L 442.106467 18.927692 
L 440.63164 18.927692 
L 439.269923 18.927692 
L 437.951073 18.927692 
L 435.488341 21.326325 
L 433.224812 26.069542 
L 431.143679 29.887879 
L 429.229604 33.56683 
L 426.834965 36.336412 
L 424.358264 38.464927 
L 422.367082 38.242895 
L 420.545322 37.753523 
L 418.59025 36.89792 
L 416.601479 36.0662 
L 414.385383 35.239141 
L 411.962005 35.087649 
L 410.106215 35.1612 
L 408.375361 35.954683 
L 406.894263 36.799854 
L 405.289681 37.766061 
L 403.610952 38.206891 
L 401.701247 38.752127 
L 399.899373 38.183085 
L 398.043583 37.684168 
L 396.651741 36.8212 
L 395.259899 36.02721 
L 393.28631 34.187275 
L 391.54832 32.454472 
L 390.578063 31.223303 
L 389.69253 30.065906 
L 388.764636 28.315623 
L 387.836741 26.147384 
L 386.908846 24.179219 
L 385.980951 21.680892 
L 385.053056 19.466653 
L 384.125162 18.927692 
L 383.197267 18.927692 
L 382.269372 18.927692 
L 381.341477 18.927692 
L 380.832336 18.927692 
L 380.413583 18.927692 
L 379.945558 18.927692 
L 379.485688 18.927692 
L 379.000786 18.927692 
L 378.557793 18.927692 
L 378.056467 27.129619 
L 377.629898 25.624423 
L 377.181086 36.061572 
L 376.702003 35.883087 
L 376.42634 36.710187 
L 376.100674 31.675506 
L 375.781185 23.966314 
L 375.42959 23.106903 
L 374.808605 18.927692 
L 374.157176 19.060415 
L 373.578284 18.927692 
L 372.884762 18.927692 
L 371.612349 18.927692 
L 370.339935 18.927692 
L 367.795107 18.927692 
L 365.100791 18.927692 
L 362.015801 18.927692 
L 358.098232 21.2759 
L 353.582193 21.281765 
L 347.240659 23.080672 
L 338.743693 23.424816 
L 330.136629 24.459813 
L 322.042849 24.886655 
L 314.293433 25.373427 
L 306.108307 25.464078 
L 291.4797 25.558856 
L 277.872644 25.452389 
L 265.803879 25.299851 
L 253.442863 24.953228 
L 242.378625 24.655904 
L 232.059762 23.879937 
L 222.461467 23.22901 
L 215.666289 22.632446 
L 209.304744 22.4317 
L 201.294329 22.263053 
L 193.842604 22.502125 
L 186.901027 22.840982 
L 180.46251 23.522425 
L 174.585426 24.29682 
L 168.88361 25.131164 
L 163.692746 26.171653 
L 158.23472 27.352207 
L 152.242772 28.719297 
L 146.343341 30.10925 
L 140.906123 31.782605 
L 136.064903 32.592461 
L 131.894699 34.124403 
L 126.505652 35.072381 
L 121.795163 33.435514 
L 117.772298 30.734791 
L 114.380297 27.18535 
L 110.878308 24.499514 
L 107.979517 22.868678 
L 105.819849 25.076008 
L 103.578522 28.592834 
L 101.273505 33.306973 
L 99.991406 36.093497 
L 98.820976 45.518582 
L 97.579316 51.846916 
L 96.397416 61.046204 
L 95.299612 69.293427 
L 94.171374 86.252424 
L 93.099922 95.211437 
L 92.004934 99.752846 
L 90.129589 85.297056 
L 88.857321 90.543024 
L 87.435066 90.2855 
L 84.740543 101.117729 
L 83.42602 73.87374 
L 82.213061 54.690394 
L 80.785425 21.633415 
L 79.049287 18.927692 
L 76.852227 18.927692 
L 73.741466 18.927692 
L 69.481777 18.927692 
L 63.647806 18.927692 
L 55.656948 18.927692 
L 44.711179 18.927692 
L 29.717351 18.927692 
L 9.178043 18.927692 
z
" clip-path="url(#p2dbd68b2f5)" style="fill: #d62728"/>
   </g>
   <g id="matplotlib.axis_1">
    <g id="xtick_1">
     <g id="line2d_1">
      <path d="M 84.740543 617.04 
L 84.740543 7.2 
" clip-path="url(#p2dbd68b2f5)" style="fill: none; stroke: #b0b0b0; stroke-width: 0.8; stroke-linecap: square"/>
     </g>
     <g id="line2d_2">
      <defs>
       <path id="m7afe626d7a" d="M 0 0 
L 0 3.5 
" style="stroke: #000000; stroke-width: 0.8"/>
      </defs>
      <g>
       <use xlink:href="#m7afe626d7a" x="84.740543" y="617.04" style="stroke: #000000; stroke-width: 0.8"/>
      </g>
     </g>
     <g id="text_1">
      <!-- $\mathdefault{0.0}$ -->
      <g transform="translate(66.968823 644.795495) scale(0.3 -0.3)">
       <defs>
        <path id="CMR17-30" d="M 2688 2025 
C 2688 2416 2682 3080 2413 3591 
C 2176 4039 1798 4198 1466 4198 
C 1158 4198 768 4058 525 3597 
C 269 3118 243 2524 243 2025 
C 243 1661 250 1106 448 619 
C 723 -39 1216 -128 1466 -128 
C 1760 -128 2208 -7 2470 600 
C 2662 1042 2688 1559 2688 2025 
z
M 1466 -26 
C 1056 -26 813 325 723 812 
C 653 1188 653 1738 653 2096 
C 653 2588 653 2997 736 3387 
C 858 3929 1216 4096 1466 4096 
C 1728 4096 2067 3923 2189 3400 
C 2272 3036 2278 2607 2278 2096 
C 2278 1680 2278 1169 2202 792 
C 2067 95 1690 -26 1466 -26 
z
" transform="scale(0.015625)"/>
        <path id="CMMI12-3a" d="M 1178 307 
C 1178 492 1024 619 870 619 
C 685 619 557 466 557 313 
C 557 128 710 0 864 0 
C 1050 0 1178 153 1178 307 
z
" transform="scale(0.015625)"/>
       </defs>
       <use xlink:href="#CMR17-30" transform="scale(0.996264)"/>
       <use xlink:href="#CMMI12-3a" transform="translate(45.690477 0) scale(0.996264)"/>
       <use xlink:href="#CMR17-30" transform="translate(72.787654 0) scale(0.996264)"/>
      </g>
     </g>
    </g>
    <g id="xtick_2">
     <g id="line2d_3">
      <path d="M 235.865543 617.04 
L 235.865543 7.2 
" clip-path="url(#p2dbd68b2f5)" style="fill: none; stroke: #b0b0b0; stroke-width: 0.8; stroke-linecap: square"/>
     </g>
     <g id="line2d_4">
      <g>
       <use xlink:href="#m7afe626d7a" x="235.865543" y="617.04" style="stroke: #000000; stroke-width: 0.8"/>
      </g>
     </g>
     <g id="text_2">
      <!-- $\mathdefault{0.1}$ -->
      <g transform="translate(218.093823 644.795495) scale(0.3 -0.3)">
       <defs>
        <path id="CMR17-31" d="M 1702 4058 
C 1702 4192 1696 4192 1606 4192 
C 1357 3916 979 3827 621 3827 
C 602 3827 570 3827 563 3808 
C 557 3795 557 3782 557 3648 
C 755 3648 1088 3686 1344 3839 
L 1344 461 
C 1344 236 1331 160 781 160 
L 589 160 
L 589 0 
C 896 0 1216 0 1523 0 
C 1830 0 2150 0 2458 0 
L 2458 160 
L 2266 160 
C 1715 160 1702 230 1702 458 
L 1702 4058 
z
" transform="scale(0.015625)"/>
       </defs>
       <use xlink:href="#CMR17-30" transform="scale(0.996264)"/>
       <use xlink:href="#CMMI12-3a" transform="translate(45.690477 0) scale(0.996264)"/>
       <use xlink:href="#CMR17-31" transform="translate(72.787654 0) scale(0.996264)"/>
      </g>
     </g>
    </g>
    <g id="xtick_3">
     <g id="line2d_5">
      <path d="M 386.990543 617.04 
L 386.990543 7.2 
" clip-path="url(#p2dbd68b2f5)" style="fill: none; stroke: #b0b0b0; stroke-width: 0.8; stroke-linecap: square"/>
     </g>
     <g id="line2d_6">
      <g>
       <use xlink:href="#m7afe626d7a" x="386.990543" y="617.04" style="stroke: #000000; stroke-width: 0.8"/>
      </g>
     </g>
     <g id="text_3">
      <!-- $\mathdefault{0.2}$ -->
      <g transform="translate(369.218823 644.795495) scale(0.3 -0.3)">
       <defs>
        <path id="CMR17-32" d="M 2669 989 
L 2554 989 
C 2490 536 2438 459 2413 420 
C 2381 369 1920 369 1830 369 
L 602 369 
C 832 619 1280 1072 1824 1597 
C 2214 1967 2669 2402 2669 3035 
C 2669 3790 2067 4224 1395 4224 
C 691 4224 262 3604 262 3030 
C 262 2780 448 2748 525 2748 
C 589 2748 781 2787 781 3010 
C 781 3207 614 3264 525 3264 
C 486 3264 448 3258 422 3245 
C 544 3790 915 4058 1306 4058 
C 1862 4058 2227 3617 2227 3035 
C 2227 2479 1901 2000 1536 1584 
L 262 146 
L 262 0 
L 2515 0 
L 2669 989 
z
" transform="scale(0.015625)"/>
       </defs>
       <use xlink:href="#CMR17-30" transform="scale(0.996264)"/>
       <use xlink:href="#CMMI12-3a" transform="translate(45.690477 0) scale(0.996264)"/>
       <use xlink:href="#CMR17-32" transform="translate(72.787654 0) scale(0.996264)"/>
      </g>
     </g>
    </g>
    <g id="xtick_4">
     <g id="line2d_7">
      <path d="M 538.115543 617.04 
L 538.115543 7.2 
" clip-path="url(#p2dbd68b2f5)" style="fill: none; stroke: #b0b0b0; stroke-width: 0.8; stroke-linecap: square"/>
     </g>
     <g id="line2d_8">
      <g>
       <use xlink:href="#m7afe626d7a" x="538.115543" y="617.04" style="stroke: #000000; stroke-width: 0.8"/>
      </g>
     </g>
     <g id="text_4">
      <!-- $\mathdefault{0.3}$ -->
      <g transform="translate(520.343823 644.795495) scale(0.3 -0.3)">
       <defs>
        <path id="CMR17-33" d="M 1414 2157 
C 1984 2157 2234 1662 2234 1090 
C 2234 320 1824 25 1453 25 
C 1114 25 563 194 390 693 
C 422 680 454 680 486 680 
C 640 680 755 782 755 948 
C 755 1133 614 1216 486 1216 
C 378 1216 211 1165 211 926 
C 211 335 787 -128 1466 -128 
C 2176 -128 2720 430 2720 1085 
C 2720 1707 2208 2157 1600 2227 
C 2086 2328 2554 2756 2554 3329 
C 2554 3820 2048 4179 1472 4179 
C 890 4179 378 3829 378 3329 
C 378 3110 544 3072 627 3072 
C 762 3072 877 3155 877 3321 
C 877 3486 762 3569 627 3569 
C 602 3569 570 3569 544 3557 
C 730 3959 1235 4032 1459 4032 
C 1683 4032 2106 3925 2106 3320 
C 2106 3143 2080 2828 1862 2550 
C 1670 2304 1453 2304 1242 2284 
C 1210 2284 1062 2269 1037 2269 
C 992 2263 966 2257 966 2208 
C 966 2163 973 2157 1101 2157 
L 1414 2157 
z
" transform="scale(0.015625)"/>
       </defs>
       <use xlink:href="#CMR17-30" transform="scale(0.996264)"/>
       <use xlink:href="#CMMI12-3a" transform="translate(45.690477 0) scale(0.996264)"/>
       <use xlink:href="#CMR17-33" transform="translate(72.787654 0) scale(0.996264)"/>
      </g>
     </g>
    </g>
    <g id="xtick_5">
     <g id="line2d_9">
      <path d="M 689.240543 617.04 
L 689.240543 7.2 
" clip-path="url(#p2dbd68b2f5)" style="fill: none; stroke: #b0b0b0; stroke-width: 0.8; stroke-linecap: square"/>
     </g>
     <g id="line2d_10">
      <g>
       <use xlink:href="#m7afe626d7a" x="689.240543" y="617.04" style="stroke: #000000; stroke-width: 0.8"/>
      </g>
     </g>
     <g id="text_5">
      <!-- $\mathdefault{0.4}$ -->
      <g transform="translate(671.468823 644.795495) scale(0.3 -0.3)">
       <defs>
        <path id="CMR17-34" d="M 2150 4122 
C 2150 4256 2144 4256 2029 4256 
L 128 1254 
L 128 1088 
L 1779 1088 
L 1779 457 
C 1779 224 1766 160 1318 160 
L 1197 160 
L 1197 0 
C 1402 0 1747 0 1965 0 
C 2182 0 2528 0 2733 0 
L 2733 160 
L 2611 160 
C 2163 160 2150 224 2150 457 
L 2150 1088 
L 2803 1088 
L 2803 1254 
L 2150 1254 
L 2150 4122 
z
M 1798 3703 
L 1798 1254 
L 256 1254 
L 1798 3703 
z
" transform="scale(0.015625)"/>
       </defs>
       <use xlink:href="#CMR17-30" transform="scale(0.996264)"/>
       <use xlink:href="#CMMI12-3a" transform="translate(45.690477 0) scale(0.996264)"/>
       <use xlink:href="#CMR17-34" transform="translate(72.787654 0) scale(0.996264)"/>
      </g>
     </g>
    </g>
    <g id="text_6">
     <!-- $x, \; m $ -->
     <g transform="translate(410.316604 678.823697) scale(0.35 -0.35)">
      <defs>
       <path id="CMMI12-78" d="M 3034 2606 
C 2829 2567 2752 2414 2752 2293 
C 2752 2139 2874 2088 2963 2088 
C 3155 2088 3290 2254 3290 2427 
C 3290 2695 2982 2816 2714 2816 
C 2323 2816 2106 2433 2048 2312 
C 1901 2816 1504 2816 1389 2816 
C 736 2816 390 1980 390 1839 
C 390 1814 416 1782 461 1782 
C 512 1782 525 1820 538 1846 
C 755 2555 1184 2689 1370 2689 
C 1658 2689 1715 2420 1715 2267 
C 1715 2127 1677 1980 1600 1673 
L 1382 798 
C 1286 415 1101 64 762 64 
C 730 64 570 64 435 147 
C 666 192 717 383 717 460 
C 717 588 621 664 499 664 
C 346 664 179 530 179 326 
C 179 57 480 -64 755 -64 
C 1062 -64 1280 179 1414 441 
C 1517 64 1837 -64 2074 -64 
C 2726 -64 3072 773 3072 913 
C 3072 945 3046 971 3008 971 
C 2950 971 2944 939 2925 888 
C 2752 326 2381 64 2093 64 
C 1869 64 1747 230 1747 492 
C 1747 632 1773 734 1875 1156 
L 2099 2024 
C 2195 2408 2413 2689 2707 2689 
C 2720 2689 2899 2689 3034 2606 
z
" transform="scale(0.015625)"/>
       <path id="CMMI12-3b" d="M 1248 -31 
C 1248 343 1126 619 864 619 
C 659 619 557 453 557 313 
C 557 172 653 0 870 0 
C 954 0 1024 26 1082 83 
C 1094 96 1101 96 1107 96 
C 1120 96 1120 5 1120 -27 
C 1120 -240 1082 -659 710 -1080 
C 640 -1157 640 -1170 640 -1183 
C 640 -1216 672 -1248 704 -1248 
C 755 -1248 1248 -771 1248 -31 
z
" transform="scale(0.015625)"/>
       <path id="CMMI12-6d" d="M 1318 1871 
C 1331 1910 1491 2229 1728 2433 
C 1894 2586 2112 2689 2362 2689 
C 2618 2689 2707 2497 2707 2242 
C 2707 2203 2707 2076 2630 1775 
L 2470 1118 
C 2419 926 2298 453 2285 383 
C 2259 287 2221 121 2221 96 
C 2221 6 2291 -64 2387 -64 
C 2579 -64 2611 83 2669 313 
L 3053 1839 
C 3066 1890 3398 2689 4102 2689 
C 4358 2689 4448 2497 4448 2242 
C 4448 1884 4198 1188 4058 805 
C 4000 651 3968 568 3968 453 
C 3968 166 4166 -64 4474 -64 
C 5069 -64 5293 875 5293 913 
C 5293 945 5267 971 5229 971 
C 5171 971 5165 952 5133 843 
C 4986 332 4749 64 4493 64 
C 4429 64 4326 64 4326 269 
C 4326 436 4403 640 4429 710 
C 4544 1018 4832 1773 4832 2145 
C 4832 2528 4608 2816 4122 2816 
C 3693 2816 3347 2574 3091 2197 
C 3072 2542 2861 2816 2381 2816 
C 1811 2816 1510 2415 1395 2255 
C 1376 2618 1114 2816 832 2816 
C 646 2816 499 2727 378 2484 
C 262 2254 173 1865 173 1839 
C 173 1814 198 1782 243 1782 
C 294 1782 301 1788 339 1935 
C 435 2312 557 2689 813 2689 
C 960 2689 1011 2586 1011 2395 
C 1011 2254 947 2005 902 1807 
L 723 1118 
C 698 996 627 709 595 594 
C 550 428 480 128 480 96 
C 480 6 550 -64 646 -64 
C 723 -64 813 -26 864 70 
C 877 102 934 326 966 453 
L 1107 1028 
L 1318 1871 
z
" transform="scale(0.015625)"/>
      </defs>
      <use xlink:href="#CMMI12-78" transform="scale(0.996264)"/>
      <use xlink:href="#CMMI12-3b" transform="translate(55.43406 0) scale(0.996264)"/>
      <use xlink:href="#CMMI12-6d" transform="translate(126.809651 0) scale(0.996264)"/>
     </g>
    </g>
   </g>
   <g id="matplotlib.axis_2">
    <g id="ytick_1">
     <g id="line2d_11">
      <path d="M 84.740543 605.312308 
L 810.140543 605.312308 
" clip-path="url(#p2dbd68b2f5)" style="fill: none; stroke: #b0b0b0; stroke-width: 0.8; stroke-linecap: square"/>
     </g>
     <g id="line2d_12">
      <defs>
       <path id="m1ca0dd27f2" d="M 0 0 
L -3.5 0 
" style="stroke: #000000; stroke-width: 0.8"/>
      </defs>
      <g>
       <use xlink:href="#m1ca0dd27f2" x="84.740543" y="605.312308" style="stroke: #000000; stroke-width: 0.8"/>
      </g>
     </g>
     <g id="text_7">
      <!-- $\mathdefault{0.0}$ -->
      <g transform="translate(42.197103 615.690055) scale(0.3 -0.3)">
       <use xlink:href="#CMR17-30" transform="scale(0.996264)"/>
       <use xlink:href="#CMMI12-3a" transform="translate(45.690477 0) scale(0.996264)"/>
       <use xlink:href="#CMR17-30" transform="translate(72.787654 0) scale(0.996264)"/>
      </g>
     </g>
    </g>
    <g id="ytick_2">
     <g id="line2d_13">
      <path d="M 84.740543 488.035385 
L 810.140543 488.035385 
" clip-path="url(#p2dbd68b2f5)" style="fill: none; stroke: #b0b0b0; stroke-width: 0.8; stroke-linecap: square"/>
     </g>
     <g id="line2d_14">
      <g>
       <use xlink:href="#m1ca0dd27f2" x="84.740543" y="488.035385" style="stroke: #000000; stroke-width: 0.8"/>
      </g>
     </g>
     <g id="text_8">
      <!-- $\mathdefault{0.2}$ -->
      <g transform="translate(42.197103 498.413132) scale(0.3 -0.3)">
       <use xlink:href="#CMR17-30" transform="scale(0.996264)"/>
       <use xlink:href="#CMMI12-3a" transform="translate(45.690477 0) scale(0.996264)"/>
       <use xlink:href="#CMR17-32" transform="translate(72.787654 0) scale(0.996264)"/>
      </g>
     </g>
    </g>
    <g id="ytick_3">
     <g id="line2d_15">
      <path d="M 84.740543 370.758462 
L 810.140543 370.758462 
" clip-path="url(#p2dbd68b2f5)" style="fill: none; stroke: #b0b0b0; stroke-width: 0.8; stroke-linecap: square"/>
     </g>
     <g id="line2d_16">
      <g>
       <use xlink:href="#m1ca0dd27f2" x="84.740543" y="370.758462" style="stroke: #000000; stroke-width: 0.8"/>
      </g>
     </g>
     <g id="text_9">
      <!-- $\mathdefault{0.4}$ -->
      <g transform="translate(42.197103 381.136209) scale(0.3 -0.3)">
       <use xlink:href="#CMR17-30" transform="scale(0.996264)"/>
       <use xlink:href="#CMMI12-3a" transform="translate(45.690477 0) scale(0.996264)"/>
       <use xlink:href="#CMR17-34" transform="translate(72.787654 0) scale(0.996264)"/>
      </g>
     </g>
    </g>
    <g id="ytick_4">
     <g id="line2d_17">
      <path d="M 84.740543 253.481538 
L 810.140543 253.481538 
" clip-path="url(#p2dbd68b2f5)" style="fill: none; stroke: #b0b0b0; stroke-width: 0.8; stroke-linecap: square"/>
     </g>
     <g id="line2d_18">
      <g>
       <use xlink:href="#m1ca0dd27f2" x="84.740543" y="253.481538" style="stroke: #000000; stroke-width: 0.8"/>
      </g>
     </g>
     <g id="text_10">
      <!-- $\mathdefault{0.6}$ -->
      <g transform="translate(42.197103 263.859286) scale(0.3 -0.3)">
       <defs>
        <path id="CMR17-36" d="M 678 2176 
C 678 3690 1395 4032 1811 4032 
C 1946 4032 2272 4009 2400 3776 
C 2298 3776 2106 3776 2106 3553 
C 2106 3381 2246 3323 2336 3323 
C 2394 3323 2566 3348 2566 3560 
C 2566 3954 2246 4179 1805 4179 
C 1043 4179 243 3390 243 1984 
C 243 253 966 -128 1478 -128 
C 2099 -128 2688 427 2688 1283 
C 2688 2081 2170 2662 1517 2662 
C 1126 2662 838 2407 678 1960 
L 678 2176 
z
M 1478 25 
C 691 25 691 1200 691 1436 
C 691 1896 909 2560 1504 2560 
C 1613 2560 1926 2560 2138 2120 
C 2253 1870 2253 1609 2253 1289 
C 2253 944 2253 690 2118 434 
C 1978 171 1773 25 1478 25 
z
" transform="scale(0.015625)"/>
       </defs>
       <use xlink:href="#CMR17-30" transform="scale(0.996264)"/>
       <use xlink:href="#CMMI12-3a" transform="translate(45.690477 0) scale(0.996264)"/>
       <use xlink:href="#CMR17-36" transform="translate(72.787654 0) scale(0.996264)"/>
      </g>
     </g>
    </g>
    <g id="ytick_5">
     <g id="line2d_19">
      <path d="M 84.740543 136.204615 
L 810.140543 136.204615 
" clip-path="url(#p2dbd68b2f5)" style="fill: none; stroke: #b0b0b0; stroke-width: 0.8; stroke-linecap: square"/>
     </g>
     <g id="line2d_20">
      <g>
       <use xlink:href="#m1ca0dd27f2" x="84.740543" y="136.204615" style="stroke: #000000; stroke-width: 0.8"/>
      </g>
     </g>
     <g id="text_11">
      <!-- $\mathdefault{0.8}$ -->
      <g transform="translate(42.197103 146.582363) scale(0.3 -0.3)">
       <defs>
        <path id="CMR17-38" d="M 1741 2264 
C 2144 2467 2554 2773 2554 3263 
C 2554 3841 1990 4179 1472 4179 
C 890 4179 378 3759 378 3180 
C 378 3021 416 2747 666 2505 
C 730 2442 998 2251 1171 2130 
C 883 1983 211 1634 211 934 
C 211 279 838 -128 1459 -128 
C 2144 -128 2720 362 2720 1010 
C 2720 1590 2330 1857 2074 2029 
L 1741 2264 
z
M 902 2822 
C 851 2854 595 3051 595 3351 
C 595 3739 998 4032 1459 4032 
C 1965 4032 2336 3676 2336 3262 
C 2336 2669 1670 2331 1638 2331 
C 1632 2331 1626 2331 1574 2370 
L 902 2822 
z
M 2080 1519 
C 2176 1449 2483 1240 2483 851 
C 2483 381 2010 25 1472 25 
C 890 25 448 438 448 940 
C 448 1443 838 1862 1280 2060 
L 2080 1519 
z
" transform="scale(0.015625)"/>
       </defs>
       <use xlink:href="#CMR17-30" transform="scale(0.996264)"/>
       <use xlink:href="#CMMI12-3a" transform="translate(45.690477 0) scale(0.996264)"/>
       <use xlink:href="#CMR17-38" transform="translate(72.787654 0) scale(0.996264)"/>
      </g>
     </g>
    </g>
    <g id="ytick_6">
     <g id="line2d_21">
      <path d="M 84.740543 18.927692 
L 810.140543 18.927692 
" clip-path="url(#p2dbd68b2f5)" style="fill: none; stroke: #b0b0b0; stroke-width: 0.8; stroke-linecap: square"/>
     </g>
     <g id="line2d_22">
      <g>
       <use xlink:href="#m1ca0dd27f2" x="84.740543" y="18.927692" style="stroke: #000000; stroke-width: 0.8"/>
      </g>
     </g>
     <g id="text_12">
      <!-- $\mathdefault{1.0}$ -->
      <g transform="translate(42.197103 29.30544) scale(0.3 -0.3)">
       <use xlink:href="#CMR17-31" transform="scale(0.996264)"/>
       <use xlink:href="#CMMI12-3a" transform="translate(45.690477 0) scale(0.996264)"/>
       <use xlink:href="#CMR17-30" transform="translate(72.787654 0) scale(0.996264)"/>
      </g>
     </g>
    </g>
    <g id="text_13">
     <!-- $S_1, \; -$ -->
     <g transform="translate(31.414752 354.516175) rotate(-90) scale(0.35 -0.35)">
      <defs>
       <path id="CMMI12-53" d="M 4064 4423 
C 4064 4480 4019 4480 4006 4480 
C 3981 4480 3974 4474 3898 4378 
C 3859 4333 3597 4001 3590 3995 
C 3379 4410 2957 4480 2688 4480 
C 1875 4480 1139 3743 1139 3025 
C 1139 2549 1427 2269 1741 2161 
C 1811 2135 2189 2033 2381 1989 
C 2707 1900 2790 1875 2925 1735 
C 2950 1703 3078 1557 3078 1258 
C 3078 667 2528 57 1888 57 
C 1363 57 781 280 781 991 
C 781 1112 806 1265 826 1328 
C 826 1348 832 1378 832 1391 
C 832 1417 819 1449 768 1449 
C 710 1449 704 1436 678 1328 
L 352 24 
C 352 18 326 -64 326 -71 
C 326 -128 378 -128 390 -128 
C 416 -128 422 -122 499 -26 
L 794 356 
C 947 126 1280 -128 1875 -128 
C 2701 -128 3456 666 3456 1460 
C 3456 1728 3392 1963 3149 2197 
C 3014 2331 2899 2363 2310 2516 
C 1882 2630 1824 2649 1709 2751 
C 1600 2858 1517 3011 1517 3227 
C 1517 3761 2061 4308 2669 4308 
C 3296 4308 3590 3926 3590 3323 
C 3590 3158 3558 2986 3558 2961 
C 3558 2903 3610 2903 3629 2903 
C 3686 2903 3693 2922 3718 3024 
L 4064 4423 
z
" transform="scale(0.015625)"/>
       <path id="CMSY10-0" d="M 4218 1472 
C 4326 1472 4442 1472 4442 1600 
C 4442 1728 4326 1728 4218 1728 
L 755 1728 
C 646 1728 531 1728 531 1600 
C 531 1472 646 1472 755 1472 
L 4218 1472 
z
" transform="scale(0.015625)"/>
      </defs>
      <use xlink:href="#CMMI12-53" transform="scale(0.996264)"/>
      <use xlink:href="#CMR17-31" transform="translate(59.994488 -14.943915) scale(0.697382)"/>
      <use xlink:href="#CMMI12-3b" transform="translate(92.475802 0) scale(0.996264)"/>
      <use xlink:href="#CMSY10-0" transform="translate(163.851393 0) scale(0.996264)"/>
     </g>
    </g>
   </g>
   <g id="patch_3">
    <path d="M 84.740543 617.04 
L 84.740543 7.2 
" style="fill: none; stroke: #000000; stroke-width: 0.8; stroke-linejoin: miter; stroke-linecap: square"/>
   </g>
   <g id="patch_4">
    <path d="M 810.140543 617.04 
L 810.140543 7.2 
" style="fill: none; stroke: #000000; stroke-width: 0.8; stroke-linejoin: miter; stroke-linecap: square"/>
   </g>
   <g id="patch_5">
    <path d="M 84.740543 617.04 
L 810.140543 617.04 
" style="fill: none; stroke: #000000; stroke-width: 0.8; stroke-linejoin: miter; stroke-linecap: square"/>
   </g>
   <g id="patch_6">
    <path d="M 84.740543 7.2 
L 810.140543 7.2 
" style="fill: none; stroke: #000000; stroke-width: 0.8; stroke-linejoin: miter; stroke-linecap: square"/>
   </g>
   <g id="legend_1">
    <g id="patch_7">
     <path d="M 833.436089 232.438667 
L 992.379543 232.438667 
Q 999.379543 232.438667 999.379543 225.438667 
L 999.379543 31.7 
Q 999.379543 24.7 992.379543 24.7 
L 833.436089 24.7 
Q 826.436089 24.7 826.436089 31.7 
L 826.436089 225.438667 
Q 826.436089 232.438667 833.436089 232.438667 
z
" style="fill: #ffffff; opacity: 0.8; stroke: #cccccc; stroke-linejoin: miter"/>
    </g>
    <g id="patch_8">
     <path d="M 840.436089 63.2 
L 910.436089 63.2 
L 910.436089 38.7 
L 840.436089 38.7 
z
" style="fill: #1f77b4"/>
    </g>
    <g id="text_14">
     <!-- $M$ -->
     <g transform="translate(938.436089 63.2) scale(0.35 -0.35)">
      <defs>
       <path id="CMMI12-4d" d="M 5811 3886 
C 5869 4103 5882 4167 6336 4167 
C 6458 4167 6515 4167 6515 4288 
C 6515 4352 6470 4352 6349 4352 
L 5581 4352 
C 5421 4352 5414 4346 5344 4243 
L 3008 562 
L 2528 4211 
C 2509 4352 2502 4352 2336 4352 
L 1542 4352 
C 1421 4352 1363 4352 1363 4231 
C 1363 4167 1421 4167 1517 4167 
C 1907 4167 1907 4116 1907 4046 
C 1907 4034 1907 3995 1882 3899 
L 1062 634 
C 986 327 838 186 410 186 
C 390 186 314 186 314 73 
C 314 0 371 0 397 0 
C 525 0 851 0 979 0 
L 1286 0 
C 1376 0 1485 0 1574 0 
C 1619 0 1690 0 1690 122 
C 1690 180 1626 186 1600 186 
C 1389 186 1184 224 1184 454 
C 1184 518 1184 524 1210 613 
L 2093 4129 
L 2099 4129 
L 2630 172 
C 2650 19 2656 0 2714 0 
C 2784 0 2816 51 2848 109 
L 5421 4161 
L 5427 4161 
L 4499 473 
C 4442 250 4429 186 3981 186 
C 3859 186 3795 186 3795 70 
C 3795 0 3853 0 3891 0 
C 4000 0 4128 0 4237 0 
L 4992 0 
C 5101 0 5235 0 5344 0 
C 5395 0 5466 0 5466 122 
C 5466 186 5408 186 5312 186 
C 4922 186 4922 234 4922 294 
C 4922 301 4922 345 4934 396 
L 5811 3886 
z
" transform="scale(0.015625)"/>
      </defs>
      <use xlink:href="#CMMI12-4d" transform="scale(0.996264)"/>
     </g>
    </g>
    <g id="patch_9">
     <path d="M 840.436089 111.982351 
L 910.436089 111.982351 
L 910.436089 87.482351 
L 840.436089 87.482351 
z
" style="fill: #ff7f0e"/>
    </g>
    <g id="text_15">
     <!-- $P$ -->
     <g transform="translate(938.436089 111.982351) scale(0.35 -0.35)">
      <defs>
       <path id="CMMI12-50" d="M 1894 2023 
L 2970 2023 
C 3853 2023 4736 2673 4736 3401 
C 4736 3898 4314 4352 3507 4352 
L 1530 4352 
C 1408 4352 1350 4352 1350 4231 
C 1350 4167 1408 4167 1504 4167 
C 1894 4167 1894 4116 1894 4046 
C 1894 4034 1894 3995 1869 3899 
L 1005 472 
C 947 249 934 185 486 185 
C 365 185 301 185 301 70 
C 301 0 358 0 397 0 
C 518 0 646 0 768 0 
L 1517 0 
C 1638 0 1773 0 1894 0 
C 1946 0 2016 0 2016 121 
C 2016 185 1958 185 1862 185 
C 1478 185 1472 230 1472 293 
C 1472 325 1478 369 1485 401 
L 1894 2023 
z
M 2355 3930 
C 2413 4167 2438 4167 2688 4167 
L 3322 4167 
C 3802 4167 4198 4013 4198 3535 
C 4198 3369 4115 2827 3821 2534 
C 3712 2419 3405 2176 2822 2176 
L 1920 2176 
L 2355 3930 
z
" transform="scale(0.015625)"/>
      </defs>
      <use xlink:href="#CMMI12-50" transform="scale(0.996264)"/>
     </g>
    </g>
    <g id="patch_10">
     <path d="M 840.436089 160.764702 
L 910.436089 160.764702 
L 910.436089 136.264702 
L 840.436089 136.264702 
z
" style="fill: #2ca02c"/>
    </g>
    <g id="text_16">
     <!-- $T$ -->
     <g transform="translate(938.436089 160.764702) scale(0.35 -0.35)">
      <defs>
       <path id="CMMI12-54" d="M 2669 3910 
C 2707 4064 2720 4121 2816 4147 
C 2867 4160 3078 4160 3213 4160 
C 3853 4160 4154 4134 4154 3634 
C 4154 3537 4128 3295 4090 3057 
L 4083 2980 
C 4083 2954 4109 2916 4147 2916 
C 4211 2916 4211 2948 4230 3050 
L 4416 4184 
C 4429 4243 4429 4256 4429 4275 
C 4429 4345 4390 4345 4262 4345 
L 762 4345 
C 614 4345 608 4339 570 4224 
L 179 3070 
C 173 3056 154 2986 154 2980 
C 154 2948 179 2916 218 2916 
C 269 2916 282 2941 307 3024 
C 576 3801 710 4160 1562 4160 
L 1990 4160 
C 2144 4160 2208 4160 2208 4089 
C 2208 4069 2208 4057 2176 3941 
L 1318 499 
C 1254 249 1242 185 563 185 
C 403 185 358 185 358 64 
C 358 0 429 0 461 0 
C 621 0 787 0 947 0 
L 1946 0 
C 2106 0 2278 0 2438 0 
C 2509 0 2573 0 2573 121 
C 2573 185 2528 185 2362 185 
C 1786 185 1786 243 1786 339 
C 1786 346 1786 391 1811 494 
L 2669 3910 
z
" transform="scale(0.015625)"/>
      </defs>
      <use xlink:href="#CMMI12-54" transform="scale(0.996264)"/>
     </g>
    </g>
    <g id="patch_11">
     <path d="M 840.436089 209.547054 
L 910.436089 209.547054 
L 910.436089 185.047054 
L 840.436089 185.047054 
z
" style="fill: #d62728"/>
    </g>
    <g id="text_17">
     <!-- $Y_{N_2}$ -->
     <g transform="translate(938.436089 209.547054) scale(0.35 -0.35)">
      <defs>
       <path id="CMMI12-59" d="M 3763 3645 
L 3910 3791 
C 4192 4078 4429 4149 4653 4167 
C 4723 4173 4781 4179 4781 4288 
C 4781 4352 4717 4352 4704 4352 
C 4627 4352 4544 4352 4467 4352 
L 4205 4352 
C 4019 4352 3821 4352 3642 4352 
C 3597 4352 3526 4352 3526 4226 
C 3526 4166 3590 4160 3610 4160 
C 3802 4160 3802 4064 3802 4026 
C 3802 3956 3750 3860 3622 3713 
L 2099 1969 
L 1376 3911 
C 1338 4000 1338 4013 1338 4026 
C 1338 4160 1600 4160 1677 4160 
C 1754 4160 1824 4160 1824 4279 
C 1824 4352 1766 4352 1728 4352 
C 1619 4352 1491 4352 1382 4352 
L 672 4352 
C 557 4352 435 4352 326 4352 
C 282 4352 211 4352 211 4226 
C 211 4160 269 4160 365 4160 
C 678 4160 736 4102 794 3956 
L 1587 1835 
C 1594 1816 1613 1745 1613 1726 
C 1613 1707 1299 452 1280 388 
C 1229 217 1165 185 755 185 
C 646 185 595 185 595 64 
C 595 0 666 0 685 0 
C 800 0 934 0 1056 0 
L 1811 0 
C 1926 0 2061 0 2176 0 
C 2221 0 2298 0 2298 115 
C 2298 185 2253 185 2144 185 
C 1747 185 1747 230 1747 300 
C 1747 345 1798 548 1830 676 
L 2061 1594 
C 2099 1727 2099 1739 2157 1803 
L 3763 3645 
z
" transform="scale(0.015625)"/>
       <path id="CMMI12-4e" d="M 4736 3698 
C 4806 3974 4909 4166 5395 4166 
C 5414 4166 5491 4166 5491 4279 
C 5491 4352 5434 4352 5408 4352 
C 5280 4352 4954 4352 4826 4352 
L 4518 4352 
C 4429 4352 4314 4352 4224 4352 
C 4186 4352 4109 4352 4109 4230 
C 4109 4166 4160 4166 4205 4166 
C 4589 4166 4614 4019 4614 3903 
C 4614 3846 4608 3826 4589 3737 
L 3866 850 
L 2496 4249 
C 2451 4352 2445 4352 2304 4352 
L 1523 4352 
C 1395 4352 1338 4352 1338 4230 
C 1338 4166 1382 4166 1504 4166 
C 1536 4166 1914 4166 1914 4115 
C 1914 4102 1901 4051 1894 4032 
L 1043 635 
C 966 320 813 186 390 186 
C 358 186 294 186 294 67 
C 294 0 358 0 378 0 
C 506 0 832 0 960 0 
L 1267 0 
C 1357 0 1466 0 1555 0 
C 1600 0 1670 0 1670 122 
C 1670 180 1606 186 1581 186 
C 1370 186 1165 224 1165 454 
C 1165 505 1178 562 1190 613 
L 2054 4032 
C 2093 3968 2093 3956 2118 3898 
L 3642 115 
C 3674 38 3686 0 3744 0 
C 3808 0 3814 19 3840 128 
L 4736 3698 
z
" transform="scale(0.015625)"/>
      </defs>
      <use xlink:href="#CMMI12-59" transform="scale(0.996264)"/>
      <use xlink:href="#CMMI12-4e" transform="translate(56.598607 -14.943915) scale(0.697382)"/>
      <use xlink:href="#CMR17-32" transform="translate(111.278947 -25.404611) scale(0.498132)"/>
     </g>
    </g>
   </g>
  </g>
 </g>
 <defs>
  <clipPath id="p2dbd68b2f5">
   <rect x="84.740543" y="7.2" width="725.4" height="609.84"/>
  </clipPath>
 </defs>
</svg>
