<?xml version="1.0" encoding="utf-8" standalone="no"?>
<!DOCTYPE svg PUBLIC "-//W3C//DTD SVG 1.1//EN"
  "http://www.w3.org/Graphics/SVG/1.1/DTD/svg11.dtd">
<svg xmlns:xlink="http://www.w3.org/1999/xlink" width="817.340543pt" height="692.806049pt" viewBox="0 0 817.340543 692.806049" xmlns="http://www.w3.org/2000/svg" version="1.1">
 <metadata>
  <rdf:RDF xmlns:dc="http://purl.org/dc/elements/1.1/" xmlns:cc="http://creativecommons.org/ns#" xmlns:rdf="http://www.w3.org/1999/02/22-rdf-syntax-ns#">
   <cc:Work>
    <dc:type rdf:resource="http://purl.org/dc/dcmitype/StillImage"/>
    <dc:date>2025-03-26T16:04:26.461146</dc:date>
    <dc:format>image/svg+xml</dc:format>
    <dc:creator>
     <cc:Agent>
      <dc:title>Matplotlib v3.7.1, https://matplotlib.org/</dc:title>
     </cc:Agent>
    </dc:creator>
   </cc:Work>
  </rdf:RDF>
 </metadata>
 <defs>
  <style type="text/css">*{stroke-linejoin: round; stroke-linecap: butt}</style>
 </defs>
 <g id="figure_1">
  <g id="patch_1">
   <path d="M 0 692.806049 
L 817.340543 692.806049 
L 817.340543 0 
L 0 0 
z
" style="fill: #ffffff"/>
  </g>
  <g id="axes_1">
   <g id="patch_2">
    <path d="M 84.740543 617.04 
L 810.140543 617.04 
L 810.140543 7.2 
L 84.740543 7.2 
z
" style="fill: #ffffff"/>
   </g>
   <g id="PolyCollection_1">
    <path d="M 9.178043 602.844707 
L 9.178043 605.312308 
L 29.717351 605.312308 
L 44.711179 605.312308 
L 55.656948 605.312308 
L 63.647806 605.312308 
L 69.481777 605.312308 
L 73.741466 605.312308 
L 76.852227 605.312308 
L 79.124624 605.312308 
L 80.785425 605.312308 
L 82.111498 605.312308 
L 83.42602 605.312308 
L 84.740543 605.312308 
L 86.087804 605.312308 
L 87.435066 605.312308 
L 88.782327 605.312308 
L 90.129589 605.312308 
L 91.47685 605.312308 
L 92.824112 605.312308 
L 94.171374 605.312308 
L 95.518635 605.312308 
L 96.865897 605.312308 
L 98.213158 605.312308 
L 99.56042 605.312308 
L 100.907682 605.312308 
L 102.254943 605.312308 
L 103.602205 605.312308 
L 104.949466 605.312308 
L 106.296728 605.312308 
L 107.643989 605.312308 
L 108.991251 605.312308 
L 110.338513 605.312308 
L 111.685774 605.312308 
L 113.033036 605.312308 
L 114.380297 605.312308 
L 115.727559 605.312308 
L 117.07482 605.312308 
L 118.422082 605.312308 
L 119.769344 605.312308 
L 121.116605 605.312308 
L 122.463867 605.312308 
L 123.811128 605.312308 
L 125.15839 605.312308 
L 126.505652 605.312308 
L 127.852913 605.312308 
L 129.200175 605.312308 
L 130.547436 605.312308 
L 131.894699 605.312308 
L 133.275902 605.312308 
L 134.706455 605.312308 
L 136.188485 605.312308 
L 137.72483 605.312308 
L 139.318394 605.312308 
L 140.970849 605.312308 
L 142.684184 605.312308 
L 144.460719 605.312308 
L 146.303001 605.312308 
L 148.212643 605.312308 
L 150.191638 605.312308 
L 152.242772 605.312308 
L 154.369789 605.312308 
L 156.576921 605.312308 
L 158.863167 605.312308 
L 161.23367 605.312308 
L 163.692746 605.312308 
L 166.240541 605.312308 
L 168.88361 605.312308 
L 171.623417 605.312308 
L 174.463215 605.312308 
L 177.408712 605.312308 
L 180.46251 605.312308 
L 183.628419 605.312308 
L 186.910786 605.312308 
L 190.314049 605.312308 
L 193.842604 605.312308 
L 197.500918 605.312308 
L 201.293821 605.312308 
L 205.22697 605.312308 
L 209.304744 605.312308 
L 213.53248 605.312308 
L 217.91616 605.312308 
L 222.461467 605.312308 
L 227.17384 605.312308 
L 232.059762 605.312308 
L 237.125821 605.312308 
L 242.378625 605.312308 
L 247.824813 605.312308 
L 253.442863 605.312308 
L 259.222913 605.312308 
L 265.21574 605.312308 
L 271.429742 605.312308 
L 277.872644 605.312308 
L 284.553028 605.312308 
L 291.4797 605.312308 
L 298.661623 605.312308 
L 306.108307 605.312308 
L 313.829633 605.312308 
L 321.835592 605.312308 
L 330.136629 605.312308 
L 338.743693 605.312308 
L 347.240659 605.312308 
L 353.582193 605.312308 
L 358.098232 605.312308 
L 361.314826 605.312308 
L 363.606378 605.312308 
L 365.239331 605.312308 
L 366.522694 605.312308 
L 367.795107 605.312308 
L 369.067521 605.312308 
L 370.339935 605.312308 
L 371.612349 605.312308 
L 372.884762 605.312308 
L 374.157176 605.312308 
L 375.42959 605.312308 
L 376.702003 605.312308 
L 377.629898 605.312308 
L 378.557793 605.312308 
L 379.485688 605.312308 
L 380.413583 605.312308 
L 381.341477 605.312308 
L 382.269372 605.312308 
L 383.197267 605.312308 
L 384.125162 605.312308 
L 385.053056 605.312308 
L 385.980951 605.312308 
L 386.908846 605.312308 
L 387.836741 605.312308 
L 388.764636 605.312308 
L 389.69253 605.312308 
L 390.620425 605.312308 
L 391.54832 605.312308 
L 392.476215 605.312308 
L 393.404109 605.312308 
L 394.332004 605.312308 
L 395.259899 605.312308 
L 396.187794 605.312308 
L 397.115689 605.312308 
L 398.043583 605.312308 
L 398.971478 605.312308 
L 399.899373 605.312308 
L 400.827268 605.312308 
L 401.755162 605.312308 
L 402.683057 605.312308 
L 403.610952 605.312308 
L 404.538847 605.312308 
L 405.466742 605.312308 
L 406.394636 605.312308 
L 407.322531 605.312308 
L 408.250426 605.312308 
L 409.178321 605.312308 
L 410.106215 605.312308 
L 411.03411 605.312308 
L 411.962005 605.312308 
L 412.8899 605.312308 
L 413.817795 605.312308 
L 414.745689 605.312308 
L 415.673584 605.312308 
L 416.601479 605.312308 
L 417.529374 605.312308 
L 418.466771 605.312308 
L 419.462355 605.312308 
L 420.545322 605.312308 
L 421.713006 605.312308 
L 422.98146 605.312308 
L 424.358264 605.312308 
L 425.84987 605.312308 
L 427.468869 605.312308 
L 429.229604 605.312308 
L 431.143679 605.312308 
L 433.224812 605.312308 
L 435.488341 605.312308 
L 437.951073 605.312308 
L 440.63164 605.312308 
L 443.549241 605.312308 
L 446.721698 605.312308 
L 450.174259 605.312308 
L 453.926016 605.312308 
L 458.002814 605.312308 
L 462.425952 605.312308 
L 467.21716 605.312308 
L 472.396058 605.312308 
L 477.975382 605.312308 
L 483.958078 605.312308 
L 490.325069 605.312308 
L 496.978314 605.312308 
L 503.659157 605.312308 
L 510.339999 605.312308 
L 517.020842 605.312308 
L 523.701684 605.312308 
L 530.382526 605.312308 
L 537.063369 605.312308 
L 543.744211 605.312308 
L 550.425053 605.312308 
L 557.105896 605.312308 
L 563.786738 605.312308 
L 570.467581 605.312308 
L 577.148423 605.312308 
L 583.829265 605.312308 
L 590.510108 605.312308 
L 599.95542 605.312308 
L 609.400733 605.312308 
L 618.846045 605.312308 
L 628.291358 605.312308 
L 637.73667 605.312308 
L 647.181983 605.312308 
L 656.627295 605.312308 
L 666.072608 605.312308 
L 675.51792 605.312308 
L 684.963233 605.312308 
L 694.408545 605.312308 
L 703.853858 605.312308 
L 713.29917 605.312308 
L 722.744483 605.312308 
L 732.189795 605.312308 
L 741.635108 605.312308 
L 751.08042 605.312308 
L 760.525733 605.312308 
L 769.971045 605.312308 
L 779.416358 605.312308 
L 788.86167 605.312308 
L 798.306983 605.312308 
L 807.752295 605.312308 
L 817.197608 605.312308 
L 817.197608 605.312308 
L 817.197608 605.312308 
L 807.752295 605.312308 
L 798.306983 605.312308 
L 788.86167 605.312308 
L 779.416358 605.312308 
L 769.971045 605.312308 
L 760.525733 605.312308 
L 751.08042 605.312308 
L 741.635108 605.312308 
L 732.189795 605.312308 
L 722.744483 605.312308 
L 713.29917 605.312308 
L 703.853858 605.312308 
L 694.408545 605.312308 
L 684.963233 605.312308 
L 675.51792 605.312308 
L 666.072608 599.948618 
L 656.627295 586.363877 
L 647.181983 568.353842 
L 637.73667 549.476763 
L 628.291358 533.178732 
L 618.846045 326.341165 
L 609.400733 320.279877 
L 599.95542 315.891151 
L 590.510108 409.108847 
L 583.829265 427.848983 
L 577.148423 439.994919 
L 570.467581 449.270803 
L 563.786738 456.686515 
L 557.105896 462.531843 
L 550.425053 467.026277 
L 543.744211 470.422107 
L 537.063369 472.826852 
L 530.382526 474.861397 
L 523.701684 476.289134 
L 517.020842 478.17714 
L 510.339999 479.985472 
L 503.659157 482.760045 
L 496.978314 486.023941 
L 490.325069 490.424674 
L 483.958078 495.579653 
L 477.975382 501.93387 
L 472.396058 509.272289 
L 467.21716 517.717453 
L 462.425952 527.171629 
L 458.002814 537.580914 
L 453.926016 548.420851 
L 450.174259 559.418689 
L 446.721698 569.807614 
L 443.549241 578.774202 
L 440.63164 585.326959 
L 437.951073 589.751756 
L 435.488341 591.771489 
L 433.224812 592.044069 
L 431.143679 590.167894 
L 429.229604 586.431917 
L 427.468869 580.756099 
L 425.84987 573.857589 
L 424.358264 566.200343 
L 422.98146 558.09239 
L 421.713006 549.634305 
L 420.545322 541.000317 
L 419.462355 532.436704 
L 418.466771 524.1368 
L 417.529374 516.224023 
L 416.601479 508.792648 
L 415.673584 501.825408 
L 414.745689 495.418597 
L 413.817795 489.570634 
L 412.8899 484.333635 
L 411.962005 479.67297 
L 411.03411 475.620517 
L 410.106215 472.083841 
L 409.178321 469.057935 
L 408.250426 466.464265 
L 407.322531 464.280891 
L 406.394636 462.479801 
L 405.466742 460.986498 
L 404.538847 459.813688 
L 403.610952 458.857127 
L 402.683057 458.120806 
L 401.755162 457.557987 
L 400.827268 457.076534 
L 399.899373 456.790801 
L 398.971478 456.428442 
L 398.043583 456.340424 
L 397.115689 456.031675 
L 396.187794 456.124712 
L 395.259899 455.886171 
L 394.332004 456.200168 
L 393.404109 456.117261 
L 392.476215 456.666702 
L 391.54832 456.780317 
L 390.620425 457.398039 
L 389.69253 457.46624 
L 388.764636 457.647269 
L 387.836741 457.325291 
L 386.908846 457.336865 
L 385.980951 456.217818 
L 385.053056 454.744524 
L 384.125162 452.198097 
L 383.197267 448.979712 
L 382.269372 444.782578 
L 381.341477 439.588915 
L 380.413583 436.132781 
L 379.485688 435.708564 
L 378.557793 436.950743 
L 377.629898 440.842473 
L 376.702003 446.518548 
L 375.42959 469.876878 
L 374.157176 482.396943 
L 372.884762 493.069069 
L 371.612349 502.398759 
L 370.339935 510.048453 
L 369.067521 515.334208 
L 367.795107 520.076154 
L 366.522694 522.354686 
L 365.239331 525.016557 
L 363.606378 525.55466 
L 361.314826 526.752342 
L 358.098232 526.617008 
L 353.582193 526.94266 
L 347.240659 526.642106 
L 338.743693 526.584988 
L 330.136629 526.235908 
L 321.835592 526.05883 
L 313.829633 525.675659 
L 306.108307 525.477744 
L 298.661623 525.091289 
L 291.4797 524.919933 
L 284.553028 524.583199 
L 277.872644 524.472241 
L 271.429742 524.224282 
L 265.21574 524.172691 
L 259.222913 524.002421 
L 253.442863 523.956553 
L 247.824813 523.793953 
L 242.378625 523.660967 
L 237.125821 523.406233 
L 232.059762 523.10047 
L 227.17384 522.677712 
L 222.461467 522.175267 
L 217.91616 521.610544 
L 213.53248 521.185847 
L 209.304744 520.72316 
L 205.22697 520.309022 
L 201.293821 519.895705 
L 197.500918 519.609334 
L 193.842604 519.33818 
L 190.314049 519.235366 
L 186.910786 519.139462 
L 183.628419 519.20063 
L 180.46251 519.259305 
L 177.408712 519.429712 
L 174.463215 519.588465 
L 171.623417 519.811492 
L 168.88361 520.019775 
L 166.240541 520.267032 
L 163.692746 520.615958 
L 161.23367 521.090025 
L 158.863167 521.575143 
L 156.576921 522.095961 
L 154.369789 522.637898 
L 152.242772 523.210487 
L 150.191638 523.805156 
L 148.212643 524.424804 
L 146.303001 525.058528 
L 144.460719 525.717585 
L 142.684184 526.37557 
L 140.970849 527.072041 
L 139.318394 527.754363 
L 137.72483 528.508941 
L 136.188485 529.243692 
L 134.706455 530.108578 
L 133.275902 530.959165 
L 131.894699 532.011633 
L 130.547436 533.056081 
L 129.200175 534.351075 
L 127.852913 535.613188 
L 126.505652 537.111475 
L 125.15839 538.490153 
L 123.811128 539.978347 
L 122.463867 541.126353 
L 121.116605 542.130587 
L 119.769344 542.410509 
L 118.422082 542.302769 
L 117.07482 541.120659 
L 115.727559 539.212261 
L 114.380297 535.92739 
L 113.033036 531.670926 
L 111.685774 526.736378 
L 110.338513 520.683157 
L 108.991251 513.81948 
L 107.643989 506.182723 
L 106.296728 498.54176 
L 104.949466 491.24708 
L 103.602205 485.340053 
L 102.254943 481.257505 
L 100.907682 478.401086 
L 99.56042 475.354261 
L 98.213158 464.37071 
L 96.865897 461.032279 
L 95.518635 459.014464 
L 94.171374 454.290186 
L 92.824112 441.773296 
L 91.47685 407.5677 
L 90.129589 362.745562 
L 88.782327 355.914454 
L 87.435066 354.155283 
L 86.087804 357.395604 
L 84.740543 378.497811 
L 83.42602 416.640213 
L 82.111498 503.637828 
L 80.785425 535.035197 
L 79.124624 553.267251 
L 76.852227 567.172768 
L 73.741466 577.899579 
L 69.481777 586.254552 
L 63.647806 592.564483 
L 55.656948 597.033572 
L 44.711179 600.115251 
L 29.717351 601.949902 
L 9.178043 602.844707 
z
" clip-path="url(#p5d278a4b2b)" style="fill: #1f77b4"/>
   </g>
   <g id="PolyCollection_2">
    <path d="M 9.178043 35.972147 
L 9.178043 602.844707 
L 29.717351 601.949902 
L 44.711179 600.115251 
L 55.656948 597.033572 
L 63.647806 592.564483 
L 69.481777 586.254552 
L 73.741466 577.899579 
L 76.852227 567.172768 
L 79.124624 553.267251 
L 80.785425 535.035197 
L 82.111498 503.637828 
L 83.42602 416.640213 
L 84.740543 378.497811 
L 86.087804 357.395604 
L 87.435066 354.155283 
L 88.782327 355.914454 
L 90.129589 362.745562 
L 91.47685 407.5677 
L 92.824112 441.773296 
L 94.171374 454.290186 
L 95.518635 459.014464 
L 96.865897 461.032279 
L 98.213158 464.37071 
L 99.56042 475.354261 
L 100.907682 478.401086 
L 102.254943 481.257505 
L 103.602205 485.340053 
L 104.949466 491.24708 
L 106.296728 498.54176 
L 107.643989 506.182723 
L 108.991251 513.81948 
L 110.338513 520.683157 
L 111.685774 526.736378 
L 113.033036 531.670926 
L 114.380297 535.92739 
L 115.727559 539.212261 
L 117.07482 541.120659 
L 118.422082 542.302769 
L 119.769344 542.410509 
L 121.116605 542.130587 
L 122.463867 541.126353 
L 123.811128 539.978347 
L 125.15839 538.490153 
L 126.505652 537.111475 
L 127.852913 535.613188 
L 129.200175 534.351075 
L 130.547436 533.056081 
L 131.894699 532.011633 
L 133.275902 530.959165 
L 134.706455 530.108578 
L 136.188485 529.243692 
L 137.72483 528.508941 
L 139.318394 527.754363 
L 140.970849 527.072041 
L 142.684184 526.37557 
L 144.460719 525.717585 
L 146.303001 525.058528 
L 148.212643 524.424804 
L 150.191638 523.805156 
L 152.242772 523.210487 
L 154.369789 522.637898 
L 156.576921 522.095961 
L 158.863167 521.575143 
L 161.23367 521.090025 
L 163.692746 520.615958 
L 166.240541 520.267032 
L 168.88361 520.019775 
L 171.623417 519.811492 
L 174.463215 519.588465 
L 177.408712 519.429712 
L 180.46251 519.259305 
L 183.628419 519.20063 
L 186.910786 519.139462 
L 190.314049 519.235366 
L 193.842604 519.33818 
L 197.500918 519.609334 
L 201.293821 519.895705 
L 205.22697 520.309022 
L 209.304744 520.72316 
L 213.53248 521.185847 
L 217.91616 521.610544 
L 222.461467 522.175267 
L 227.17384 522.677712 
L 232.059762 523.10047 
L 237.125821 523.406233 
L 242.378625 523.660967 
L 247.824813 523.793953 
L 253.442863 523.956553 
L 259.222913 524.002421 
L 265.21574 524.172691 
L 271.429742 524.224282 
L 277.872644 524.472241 
L 284.553028 524.583199 
L 291.4797 524.919933 
L 298.661623 525.091289 
L 306.108307 525.477744 
L 313.829633 525.675659 
L 321.835592 526.05883 
L 330.136629 526.235908 
L 338.743693 526.584988 
L 347.240659 526.642106 
L 353.582193 526.94266 
L 358.098232 526.617008 
L 361.314826 526.752342 
L 363.606378 525.55466 
L 365.239331 525.016557 
L 366.522694 522.354686 
L 367.795107 520.076154 
L 369.067521 515.334208 
L 370.339935 510.048453 
L 371.612349 502.398759 
L 372.884762 493.069069 
L 374.157176 482.396943 
L 375.42959 469.876878 
L 376.702003 446.518548 
L 377.629898 440.842473 
L 378.557793 436.950743 
L 379.485688 435.708564 
L 380.413583 436.132781 
L 381.341477 439.588915 
L 382.269372 444.782578 
L 383.197267 448.979712 
L 384.125162 452.198097 
L 385.053056 454.744524 
L 385.980951 456.217818 
L 386.908846 457.336865 
L 387.836741 457.325291 
L 388.764636 457.647269 
L 389.69253 457.46624 
L 390.620425 457.398039 
L 391.54832 456.780317 
L 392.476215 456.666702 
L 393.404109 456.117261 
L 394.332004 456.200168 
L 395.259899 455.886171 
L 396.187794 456.124712 
L 397.115689 456.031675 
L 398.043583 456.340424 
L 398.971478 456.428442 
L 399.899373 456.790801 
L 400.827268 457.076534 
L 401.755162 457.557987 
L 402.683057 458.120806 
L 403.610952 458.857127 
L 404.538847 459.813688 
L 405.466742 460.986498 
L 406.394636 462.479801 
L 407.322531 464.280891 
L 408.250426 466.464265 
L 409.178321 469.057935 
L 410.106215 472.083841 
L 411.03411 475.620517 
L 411.962005 479.67297 
L 412.8899 484.333635 
L 413.817795 489.570634 
L 414.745689 495.418597 
L 415.673584 501.825408 
L 416.601479 508.792648 
L 417.529374 516.224023 
L 418.466771 524.1368 
L 419.462355 532.436704 
L 420.545322 541.000317 
L 421.713006 549.634305 
L 422.98146 558.09239 
L 424.358264 566.200343 
L 425.84987 573.857589 
L 427.468869 580.756099 
L 429.229604 586.431917 
L 431.143679 590.167894 
L 433.224812 592.044069 
L 435.488341 591.771489 
L 437.951073 589.751756 
L 440.63164 585.326959 
L 443.549241 578.774202 
L 446.721698 569.807614 
L 450.174259 559.418689 
L 453.926016 548.420851 
L 458.002814 537.580914 
L 462.425952 527.171629 
L 467.21716 517.717453 
L 472.396058 509.272289 
L 477.975382 501.93387 
L 483.958078 495.579653 
L 490.325069 490.424674 
L 496.978314 486.023941 
L 503.659157 482.760045 
L 510.339999 479.985472 
L 517.020842 478.17714 
L 523.701684 476.289134 
L 530.382526 474.861397 
L 537.063369 472.826852 
L 543.744211 470.422107 
L 550.425053 467.026277 
L 557.105896 462.531843 
L 563.786738 456.686515 
L 570.467581 449.270803 
L 577.148423 439.994919 
L 583.829265 427.848983 
L 590.510108 409.108847 
L 599.95542 315.891151 
L 609.400733 320.279877 
L 618.846045 326.341165 
L 628.291358 533.178732 
L 637.73667 549.476763 
L 647.181983 568.353842 
L 656.627295 586.363877 
L 666.072608 599.948618 
L 675.51792 605.312308 
L 684.963233 605.312308 
L 694.408545 605.312308 
L 703.853858 605.312308 
L 713.29917 605.312308 
L 722.744483 605.312308 
L 732.189795 605.312308 
L 741.635108 605.312308 
L 751.08042 605.312308 
L 760.525733 605.312308 
L 769.971045 605.312308 
L 779.416358 605.312308 
L 788.86167 605.312308 
L 798.306983 605.312308 
L 807.752295 605.312308 
L 817.197608 605.312308 
L 817.197608 459.841841 
L 817.197608 459.841841 
L 807.752295 458.928706 
L 798.306983 456.749752 
L 788.86167 452.806706 
L 779.416358 446.468524 
L 769.971045 437.847816 
L 760.525733 427.945798 
L 751.08042 417.322344 
L 741.635108 406.400439 
L 732.189795 395.726497 
L 722.744483 388.6602 
L 713.29917 387.860366 
L 703.853858 387.560214 
L 694.408545 387.705791 
L 684.963233 388.350268 
L 675.51792 389.37736 
L 666.072608 385.248633 
L 656.627295 372.856779 
L 647.181983 355.762153 
L 637.73667 337.325572 
L 628.291358 321.065591 
L 618.846045 100.802442 
L 609.400733 89.219086 
L 599.95542 79.746473 
L 590.510108 72.568349 
L 583.829265 66.897561 
L 577.148423 61.173173 
L 570.467581 55.879236 
L 563.786738 51.14202 
L 557.105896 46.968923 
L 550.425053 43.319738 
L 543.744211 40.177755 
L 537.063369 37.519702 
L 530.382526 35.392076 
L 523.701684 33.640148 
L 517.020842 32.429739 
L 510.339999 31.358639 
L 503.659157 30.867968 
L 496.978314 30.258133 
L 490.325069 30.233798 
L 483.958078 29.923273 
L 477.975382 30.09095 
L 472.396058 29.887408 
L 467.21716 30.025525 
L 462.425952 29.758315 
L 458.002814 29.643509 
L 453.926016 29.250275 
L 450.174259 30.910105 
L 446.721698 36.563325 
L 443.549241 42.794773 
L 440.63164 47.900612 
L 437.951073 51.768095 
L 435.488341 53.968633 
L 433.224812 55.357913 
L 431.143679 55.632761 
L 429.229604 55.108876 
L 427.468869 53.703942 
L 425.84987 51.764565 
L 424.358264 49.374507 
L 422.98146 46.677091 
L 421.713006 43.771499 
L 420.545322 40.898289 
L 419.462355 38.253586 
L 418.466771 35.877833 
L 417.529374 33.770232 
L 416.601479 31.986444 
L 415.673584 30.521326 
L 414.745689 29.337446 
L 413.817795 28.387789 
L 412.8899 27.70874 
L 411.962005 27.263686 
L 411.03411 27.082527 
L 410.106215 27.081959 
L 409.178321 27.269485 
L 408.250426 27.579793 
L 407.322531 28.014425 
L 406.394636 28.564317 
L 405.466742 29.167485 
L 404.538847 29.84386 
L 403.610952 30.492714 
L 402.683057 31.120892 
L 401.755162 31.68254 
L 400.827268 32.092336 
L 399.899373 32.466451 
L 398.971478 32.543919 
L 398.043583 32.67461 
L 397.115689 32.377752 
L 396.187794 32.265854 
L 395.259899 31.607532 
L 394.332004 31.2751 
L 393.404109 30.324618 
L 392.476215 29.786714 
L 391.54832 28.608764 
L 390.620425 27.75392 
L 389.69253 26.198702 
L 388.764636 24.641339 
L 387.836741 23.548198 
L 386.908846 24.739674 
L 385.980951 24.804388 
L 385.053056 25.863773 
L 384.125162 26.263217 
L 383.197267 27.023333 
L 382.269372 27.711575 
L 381.341477 28.379141 
L 380.413583 28.996752 
L 379.485688 29.502946 
L 378.557793 29.85681 
L 377.629898 30.061408 
L 376.702003 30.126717 
L 375.42959 30.171851 
L 374.157176 29.785169 
L 372.884762 31.123332 
L 371.612349 36.00863 
L 370.339935 39.552167 
L 369.067521 41.090352 
L 367.795107 42.45618 
L 366.522694 41.727788 
L 365.239331 41.754553 
L 363.606378 39.999789 
L 361.314826 39.254905 
L 358.098232 37.455274 
L 353.582193 36.425695 
L 347.240659 34.962774 
L 338.743693 33.997556 
L 330.136629 32.853974 
L 321.835592 32.067016 
L 313.829633 31.127788 
L 306.108307 30.485083 
L 298.661623 29.670881 
L 291.4797 29.123765 
L 284.553028 28.412022 
L 277.872644 27.941092 
L 271.429742 27.329371 
L 265.21574 26.913362 
L 259.222913 26.380174 
L 253.442863 25.969113 
L 247.824813 25.455842 
L 242.378625 24.972868 
L 237.125821 24.400449 
L 232.059762 23.779592 
L 227.17384 23.095311 
L 222.461467 22.333247 
L 217.91616 21.72621 
L 213.53248 22.308668 
L 209.304744 22.873979 
L 205.22697 23.409539 
L 201.293821 23.89046 
L 197.500918 24.315746 
L 193.842604 24.65214 
L 190.314049 24.91532 
L 186.910786 25.064472 
L 183.628419 25.131502 
L 180.46251 25.073335 
L 177.408712 24.927348 
L 174.463215 24.658674 
L 171.623417 24.298151 
L 168.88361 23.825419 
L 166.240541 23.266847 
L 163.692746 23.35275 
L 161.23367 23.99655 
L 158.863167 24.587729 
L 156.576921 25.131841 
L 154.369789 25.624908 
L 152.242772 26.063217 
L 150.191638 26.447797 
L 148.212643 26.779859 
L 146.303001 27.058092 
L 144.460719 27.300499 
L 142.684184 27.489431 
L 140.970849 27.676633 
L 139.318394 27.817433 
L 137.72483 28.011429 
L 136.188485 28.1721 
L 134.706455 28.459015 
L 133.275902 28.730414 
L 131.894699 29.206082 
L 130.547436 29.680084 
L 129.200175 30.403773 
L 127.852913 31.101518 
L 126.505652 32.014497 
L 125.15839 32.808588 
L 123.811128 33.661407 
L 122.463867 34.172672 
L 121.116605 34.468396 
L 119.769344 34.044853 
L 118.422082 33.169333 
L 117.07482 31.237906 
L 115.727559 28.588447 
L 114.380297 24.627718 
L 113.033036 21.721213 
L 111.685774 23.67216 
L 110.338513 25.660953 
L 108.991251 27.63286 
L 107.643989 29.565611 
L 106.296728 31.374424 
L 104.949466 33.053485 
L 103.602205 34.532922 
L 102.254943 35.799202 
L 100.907682 36.837712 
L 99.56042 37.826211 
L 98.213158 39.714151 
L 96.865897 66.130349 
L 95.518635 80.889294 
L 94.171374 89.111892 
L 92.824112 89.483491 
L 91.47685 68.262111 
L 90.129589 37.43202 
L 88.782327 36.653057 
L 87.435066 35.814433 
L 86.087804 37.868962 
L 84.740543 59.782661 
L 83.42602 98.278427 
L 82.111498 33.3609 
L 80.785425 33.292216 
L 79.124624 32.052042 
L 76.852227 32.405637 
L 73.741466 30.992165 
L 69.481777 32.080985 
L 63.647806 34.027507 
L 55.656948 35.076302 
L 44.711179 35.650122 
L 29.717351 35.85989 
L 9.178043 35.972147 
z
" clip-path="url(#p5d278a4b2b)" style="fill: #ff7f0e"/>
   </g>
   <g id="PolyCollection_3">
    <path d="M 9.178043 27.590722 
L 9.178043 35.972147 
L 29.717351 35.85989 
L 44.711179 35.650122 
L 55.656948 35.076302 
L 63.647806 34.027507 
L 69.481777 32.080985 
L 73.741466 30.992165 
L 76.852227 32.405637 
L 79.124624 32.052042 
L 80.785425 33.292216 
L 82.111498 33.3609 
L 83.42602 98.278427 
L 84.740543 59.782661 
L 86.087804 37.868962 
L 87.435066 35.814433 
L 88.782327 36.653057 
L 90.129589 37.43202 
L 91.47685 68.262111 
L 92.824112 89.483491 
L 94.171374 89.111892 
L 95.518635 80.889294 
L 96.865897 66.130349 
L 98.213158 39.714151 
L 99.56042 37.826211 
L 100.907682 36.837712 
L 102.254943 35.799202 
L 103.602205 34.532922 
L 104.949466 33.053485 
L 106.296728 31.374424 
L 107.643989 29.565611 
L 108.991251 27.63286 
L 110.338513 25.660953 
L 111.685774 23.67216 
L 113.033036 21.721213 
L 114.380297 24.627718 
L 115.727559 28.588447 
L 117.07482 31.237906 
L 118.422082 33.169333 
L 119.769344 34.044853 
L 121.116605 34.468396 
L 122.463867 34.172672 
L 123.811128 33.661407 
L 125.15839 32.808588 
L 126.505652 32.014497 
L 127.852913 31.101518 
L 129.200175 30.403773 
L 130.547436 29.680084 
L 131.894699 29.206082 
L 133.275902 28.730414 
L 134.706455 28.459015 
L 136.188485 28.1721 
L 137.72483 28.011429 
L 139.318394 27.817433 
L 140.970849 27.676633 
L 142.684184 27.489431 
L 144.460719 27.300499 
L 146.303001 27.058092 
L 148.212643 26.779859 
L 150.191638 26.447797 
L 152.242772 26.063217 
L 154.369789 25.624908 
L 156.576921 25.131841 
L 158.863167 24.587729 
L 161.23367 23.99655 
L 163.692746 23.35275 
L 166.240541 23.266847 
L 168.88361 23.825419 
L 171.623417 24.298151 
L 174.463215 24.658674 
L 177.408712 24.927348 
L 180.46251 25.073335 
L 183.628419 25.131502 
L 186.910786 25.064472 
L 190.314049 24.91532 
L 193.842604 24.65214 
L 197.500918 24.315746 
L 201.293821 23.89046 
L 205.22697 23.409539 
L 209.304744 22.873979 
L 213.53248 22.308668 
L 217.91616 21.72621 
L 222.461467 22.333247 
L 227.17384 23.095311 
L 232.059762 23.779592 
L 237.125821 24.400449 
L 242.378625 24.972868 
L 247.824813 25.455842 
L 253.442863 25.969113 
L 259.222913 26.380174 
L 265.21574 26.913362 
L 271.429742 27.329371 
L 277.872644 27.941092 
L 284.553028 28.412022 
L 291.4797 29.123765 
L 298.661623 29.670881 
L 306.108307 30.485083 
L 313.829633 31.127788 
L 321.835592 32.067016 
L 330.136629 32.853974 
L 338.743693 33.997556 
L 347.240659 34.962774 
L 353.582193 36.425695 
L 358.098232 37.455274 
L 361.314826 39.254905 
L 363.606378 39.999789 
L 365.239331 41.754553 
L 366.522694 41.727788 
L 367.795107 42.45618 
L 369.067521 41.090352 
L 370.339935 39.552167 
L 371.612349 36.00863 
L 372.884762 31.123332 
L 374.157176 29.785169 
L 375.42959 30.171851 
L 376.702003 30.126717 
L 377.629898 30.061408 
L 378.557793 29.85681 
L 379.485688 29.502946 
L 380.413583 28.996752 
L 381.341477 28.379141 
L 382.269372 27.711575 
L 383.197267 27.023333 
L 384.125162 26.263217 
L 385.053056 25.863773 
L 385.980951 24.804388 
L 386.908846 24.739674 
L 387.836741 23.548198 
L 388.764636 24.641339 
L 389.69253 26.198702 
L 390.620425 27.75392 
L 391.54832 28.608764 
L 392.476215 29.786714 
L 393.404109 30.324618 
L 394.332004 31.2751 
L 395.259899 31.607532 
L 396.187794 32.265854 
L 397.115689 32.377752 
L 398.043583 32.67461 
L 398.971478 32.543919 
L 399.899373 32.466451 
L 400.827268 32.092336 
L 401.755162 31.68254 
L 402.683057 31.120892 
L 403.610952 30.492714 
L 404.538847 29.84386 
L 405.466742 29.167485 
L 406.394636 28.564317 
L 407.322531 28.014425 
L 408.250426 27.579793 
L 409.178321 27.269485 
L 410.106215 27.081959 
L 411.03411 27.082527 
L 411.962005 27.263686 
L 412.8899 27.70874 
L 413.817795 28.387789 
L 414.745689 29.337446 
L 415.673584 30.521326 
L 416.601479 31.986444 
L 417.529374 33.770232 
L 418.466771 35.877833 
L 419.462355 38.253586 
L 420.545322 40.898289 
L 421.713006 43.771499 
L 422.98146 46.677091 
L 424.358264 49.374507 
L 425.84987 51.764565 
L 427.468869 53.703942 
L 429.229604 55.108876 
L 431.143679 55.632761 
L 433.224812 55.357913 
L 435.488341 53.968633 
L 437.951073 51.768095 
L 440.63164 47.900612 
L 443.549241 42.794773 
L 446.721698 36.563325 
L 450.174259 30.910105 
L 453.926016 29.250275 
L 458.002814 29.643509 
L 462.425952 29.758315 
L 467.21716 30.025525 
L 472.396058 29.887408 
L 477.975382 30.09095 
L 483.958078 29.923273 
L 490.325069 30.233798 
L 496.978314 30.258133 
L 503.659157 30.867968 
L 510.339999 31.358639 
L 517.020842 32.429739 
L 523.701684 33.640148 
L 530.382526 35.392076 
L 537.063369 37.519702 
L 543.744211 40.177755 
L 550.425053 43.319738 
L 557.105896 46.968923 
L 563.786738 51.14202 
L 570.467581 55.879236 
L 577.148423 61.173173 
L 583.829265 66.897561 
L 590.510108 72.568349 
L 599.95542 79.746473 
L 609.400733 89.219086 
L 618.846045 100.802442 
L 628.291358 321.065591 
L 637.73667 337.325572 
L 647.181983 355.762153 
L 656.627295 372.856779 
L 666.072608 385.248633 
L 675.51792 389.37736 
L 684.963233 388.350268 
L 694.408545 387.705791 
L 703.853858 387.560214 
L 713.29917 387.860366 
L 722.744483 388.6602 
L 732.189795 395.726497 
L 741.635108 406.400439 
L 751.08042 417.322344 
L 760.525733 427.945798 
L 769.971045 437.847816 
L 779.416358 446.468524 
L 788.86167 452.806706 
L 798.306983 456.749752 
L 807.752295 458.928706 
L 817.197608 459.841841 
L 817.197608 176.283755 
L 817.197608 176.283755 
L 807.752295 175.637226 
L 798.306983 174.143995 
L 788.86167 171.613937 
L 779.416358 167.727131 
L 769.971045 162.695121 
L 760.525733 157.05102 
L 751.08042 150.957797 
L 741.635108 144.596084 
L 732.189795 137.720592 
L 722.744483 136.855752 
L 713.29917 147.618345 
L 703.853858 158.128005 
L 694.408545 168.012793 
L 684.963233 177.769127 
L 675.51792 188.018177 
L 666.072608 192.702736 
L 656.627295 189.239784 
L 647.181983 179.621543 
L 637.73667 168.459365 
L 628.291358 251.204189 
L 618.846045 50.175888 
L 609.400733 45.44302 
L 599.95542 41.816154 
L 590.510108 38.882285 
L 583.829265 36.507765 
L 577.148423 34.060938 
L 570.467581 31.787106 
L 563.786738 29.752751 
L 557.105896 27.969762 
L 550.425053 26.449522 
L 543.744211 25.171676 
L 537.063369 24.155016 
L 530.382526 23.355697 
L 523.701684 22.816471 
L 517.020842 22.427795 
L 510.339999 22.264711 
L 503.659157 22.176115 
L 496.978314 22.256385 
L 490.325069 22.367288 
L 483.958078 22.575482 
L 477.975382 22.747646 
L 472.396058 22.963735 
L 467.21716 23.067996 
L 462.425952 23.190333 
L 458.002814 23.108526 
L 453.926016 23.080244 
L 450.174259 24.937763 
L 446.721698 31.031245 
L 443.549241 37.722049 
L 440.63164 43.462522 
L 437.951073 48.078911 
L 435.488341 51.075067 
L 433.224812 53.224835 
L 431.143679 54.18137 
L 429.229604 54.278973 
L 427.468869 53.411563 
L 425.84987 51.764565 
L 424.358264 49.374507 
L 422.98146 46.677091 
L 421.713006 43.771499 
L 420.545322 40.898289 
L 419.462355 38.253586 
L 418.466771 35.877833 
L 417.529374 33.770232 
L 416.601479 31.986444 
L 415.673584 30.521326 
L 414.745689 29.337446 
L 413.817795 28.387789 
L 412.8899 27.70874 
L 411.962005 27.263686 
L 411.03411 27.082527 
L 410.106215 27.081959 
L 409.178321 27.269485 
L 408.250426 27.579793 
L 407.322531 28.014425 
L 406.394636 28.564317 
L 405.466742 29.167485 
L 404.538847 29.84386 
L 403.610952 30.492714 
L 402.683057 31.120892 
L 401.755162 31.68254 
L 400.827268 32.092336 
L 399.899373 32.466451 
L 398.971478 32.543919 
L 398.043583 32.67461 
L 397.115689 32.377752 
L 396.187794 32.265854 
L 395.259899 31.607532 
L 394.332004 31.2751 
L 393.404109 30.324618 
L 392.476215 29.786714 
L 391.54832 28.608764 
L 390.620425 27.634298 
L 389.69253 26.142312 
L 388.764636 24.266145 
L 387.836741 23.506515 
L 386.908846 24.28319 
L 385.980951 24.804388 
L 385.053056 25.597607 
L 384.125162 26.263217 
L 383.197267 27.023333 
L 382.269372 27.711575 
L 381.341477 28.379141 
L 380.413583 28.996752 
L 379.485688 29.502946 
L 378.557793 29.85681 
L 377.629898 30.061408 
L 376.702003 30.126717 
L 375.42959 30.171851 
L 374.157176 29.785169 
L 372.884762 31.123332 
L 371.612349 36.00863 
L 370.339935 39.552167 
L 369.067521 41.090352 
L 367.795107 42.45618 
L 366.522694 41.727788 
L 365.239331 41.754553 
L 363.606378 39.999789 
L 361.314826 39.254905 
L 358.098232 37.455274 
L 353.582193 36.425695 
L 347.240659 34.962774 
L 338.743693 33.997556 
L 330.136629 32.853974 
L 321.835592 32.067016 
L 313.829633 31.127788 
L 306.108307 30.485083 
L 298.661623 29.670881 
L 291.4797 29.123765 
L 284.553028 28.412022 
L 277.872644 27.941092 
L 271.429742 27.329371 
L 265.21574 26.913362 
L 259.222913 26.243251 
L 253.442863 25.642696 
L 247.824813 24.919601 
L 242.378625 24.231409 
L 237.125821 23.434443 
L 232.059762 22.590582 
L 227.17384 21.667274 
L 222.461467 20.667322 
L 217.91616 19.813168 
L 213.53248 20.157232 
L 209.304744 20.48478 
L 205.22697 20.794489 
L 201.293821 21.06188 
L 197.500918 21.294992 
L 193.842604 21.464606 
L 190.314049 21.593416 
L 186.910786 21.646392 
L 183.628419 21.659283 
L 180.46251 21.595083 
L 177.408712 21.489319 
L 174.463215 21.314733 
L 171.623417 21.101778 
L 168.88361 20.836033 
L 166.240541 20.541879 
L 163.692746 20.953757 
L 161.23367 21.978503 
L 158.863167 22.998085 
L 156.576921 24.009652 
L 154.369789 25.000451 
L 152.242772 25.955885 
L 150.191638 26.447797 
L 148.212643 26.779859 
L 146.303001 27.058092 
L 144.460719 27.300499 
L 142.684184 27.489431 
L 140.970849 27.676633 
L 139.318394 27.817433 
L 137.72483 28.011429 
L 136.188485 28.1721 
L 134.706455 28.459015 
L 133.275902 28.730414 
L 131.894699 29.206082 
L 130.547436 29.680084 
L 129.200175 30.403773 
L 127.852913 31.101518 
L 126.505652 32.014497 
L 125.15839 32.808588 
L 123.811128 33.661407 
L 122.463867 34.172672 
L 121.116605 34.468396 
L 119.769344 34.044853 
L 118.422082 33.169333 
L 117.07482 31.237906 
L 115.727559 28.588447 
L 114.380297 24.627718 
L 113.033036 21.251185 
L 111.685774 22.578391 
L 110.338513 23.913494 
L 108.991251 25.201085 
L 107.643989 26.410427 
L 106.296728 27.465219 
L 104.949466 28.347864 
L 103.602205 29.005459 
L 102.254943 29.437484 
L 100.907682 29.662736 
L 99.56042 29.789361 
L 98.213158 30.300558 
L 96.865897 55.835946 
L 95.518635 69.900595 
L 94.171374 77.441505 
L 92.824112 77.172295 
L 91.47685 55.424681 
L 90.129589 24.355798 
L 88.782327 23.370196 
L 87.435066 22.354584 
L 86.087804 24.318983 
L 84.740543 46.416476 
L 83.42602 85.186211 
L 82.111498 21.034507 
L 80.785425 21.568017 
L 79.124624 20.695239 
L 76.852227 21.525354 
L 73.741466 20.586624 
L 69.481777 22.188307 
L 63.647806 24.619549 
L 55.656948 26.071934 
L 44.711179 26.9559 
L 29.717351 27.374472 
L 9.178043 27.590722 
z
" clip-path="url(#p5d278a4b2b)" style="fill: #2ca02c"/>
   </g>
   <g id="PolyCollection_4">
    <path d="M 9.178043 25.486034 
L 9.178043 27.590722 
L 29.717351 27.374472 
L 44.711179 26.9559 
L 55.656948 26.071934 
L 63.647806 24.619549 
L 69.481777 22.188307 
L 73.741466 20.586624 
L 76.852227 21.525354 
L 79.124624 20.695239 
L 80.785425 21.568017 
L 82.111498 21.034507 
L 83.42602 85.186211 
L 84.740543 46.416476 
L 86.087804 24.318983 
L 87.435066 22.354584 
L 88.782327 23.370196 
L 90.129589 24.355798 
L 91.47685 55.424681 
L 92.824112 77.172295 
L 94.171374 77.441505 
L 95.518635 69.900595 
L 96.865897 55.835946 
L 98.213158 30.300558 
L 99.56042 29.789361 
L 100.907682 29.662736 
L 102.254943 29.437484 
L 103.602205 29.005459 
L 104.949466 28.347864 
L 106.296728 27.465219 
L 107.643989 26.410427 
L 108.991251 25.201085 
L 110.338513 23.913494 
L 111.685774 22.578391 
L 113.033036 21.251185 
L 114.380297 24.627718 
L 115.727559 28.588447 
L 117.07482 31.237906 
L 118.422082 33.169333 
L 119.769344 34.044853 
L 121.116605 34.468396 
L 122.463867 34.172672 
L 123.811128 33.661407 
L 125.15839 32.808588 
L 126.505652 32.014497 
L 127.852913 31.101518 
L 129.200175 30.403773 
L 130.547436 29.680084 
L 131.894699 29.206082 
L 133.275902 28.730414 
L 134.706455 28.459015 
L 136.188485 28.1721 
L 137.72483 28.011429 
L 139.318394 27.817433 
L 140.970849 27.676633 
L 142.684184 27.489431 
L 144.460719 27.300499 
L 146.303001 27.058092 
L 148.212643 26.779859 
L 150.191638 26.447797 
L 152.242772 25.955885 
L 154.369789 25.000451 
L 156.576921 24.009652 
L 158.863167 22.998085 
L 161.23367 21.978503 
L 163.692746 20.953757 
L 166.240541 20.541879 
L 168.88361 20.836033 
L 171.623417 21.101778 
L 174.463215 21.314733 
L 177.408712 21.489319 
L 180.46251 21.595083 
L 183.628419 21.659283 
L 186.910786 21.646392 
L 190.314049 21.593416 
L 193.842604 21.464606 
L 197.500918 21.294992 
L 201.293821 21.06188 
L 205.22697 20.794489 
L 209.304744 20.48478 
L 213.53248 20.157232 
L 217.91616 19.813168 
L 222.461467 20.667322 
L 227.17384 21.667274 
L 232.059762 22.590582 
L 237.125821 23.434443 
L 242.378625 24.231409 
L 247.824813 24.919601 
L 253.442863 25.642696 
L 259.222913 26.243251 
L 265.21574 26.913362 
L 271.429742 27.329371 
L 277.872644 27.941092 
L 284.553028 28.412022 
L 291.4797 29.123765 
L 298.661623 29.670881 
L 306.108307 30.485083 
L 313.829633 31.127788 
L 321.835592 32.067016 
L 330.136629 32.853974 
L 338.743693 33.997556 
L 347.240659 34.962774 
L 353.582193 36.425695 
L 358.098232 37.455274 
L 361.314826 39.254905 
L 363.606378 39.999789 
L 365.239331 41.754553 
L 366.522694 41.727788 
L 367.795107 42.45618 
L 369.067521 41.090352 
L 370.339935 39.552167 
L 371.612349 36.00863 
L 372.884762 31.123332 
L 374.157176 29.785169 
L 375.42959 30.171851 
L 376.702003 30.126717 
L 377.629898 30.061408 
L 378.557793 29.85681 
L 379.485688 29.502946 
L 380.413583 28.996752 
L 381.341477 28.379141 
L 382.269372 27.711575 
L 383.197267 27.023333 
L 384.125162 26.263217 
L 385.053056 25.597607 
L 385.980951 24.804388 
L 386.908846 24.28319 
L 387.836741 23.506515 
L 388.764636 24.266145 
L 389.69253 26.142312 
L 390.620425 27.634298 
L 391.54832 28.608764 
L 392.476215 29.786714 
L 393.404109 30.324618 
L 394.332004 31.2751 
L 395.259899 31.607532 
L 396.187794 32.265854 
L 397.115689 32.377752 
L 398.043583 32.67461 
L 398.971478 32.543919 
L 399.899373 32.466451 
L 400.827268 32.092336 
L 401.755162 31.68254 
L 402.683057 31.120892 
L 403.610952 30.492714 
L 404.538847 29.84386 
L 405.466742 29.167485 
L 406.394636 28.564317 
L 407.322531 28.014425 
L 408.250426 27.579793 
L 409.178321 27.269485 
L 410.106215 27.081959 
L 411.03411 27.082527 
L 411.962005 27.263686 
L 412.8899 27.70874 
L 413.817795 28.387789 
L 414.745689 29.337446 
L 415.673584 30.521326 
L 416.601479 31.986444 
L 417.529374 33.770232 
L 418.466771 35.877833 
L 419.462355 38.253586 
L 420.545322 40.898289 
L 421.713006 43.771499 
L 422.98146 46.677091 
L 424.358264 49.374507 
L 425.84987 51.764565 
L 427.468869 53.411563 
L 429.229604 54.278973 
L 431.143679 54.18137 
L 433.224812 53.224835 
L 435.488341 51.075067 
L 437.951073 48.078911 
L 440.63164 43.462522 
L 443.549241 37.722049 
L 446.721698 31.031245 
L 450.174259 24.937763 
L 453.926016 23.080244 
L 458.002814 23.108526 
L 462.425952 23.190333 
L 467.21716 23.067996 
L 472.396058 22.963735 
L 477.975382 22.747646 
L 483.958078 22.575482 
L 490.325069 22.367288 
L 496.978314 22.256385 
L 503.659157 22.176115 
L 510.339999 22.264711 
L 517.020842 22.427795 
L 523.701684 22.816471 
L 530.382526 23.355697 
L 537.063369 24.155016 
L 543.744211 25.171676 
L 550.425053 26.449522 
L 557.105896 27.969762 
L 563.786738 29.752751 
L 570.467581 31.787106 
L 577.148423 34.060938 
L 583.829265 36.507765 
L 590.510108 38.882285 
L 599.95542 41.816154 
L 609.400733 45.44302 
L 618.846045 50.175888 
L 628.291358 251.204189 
L 637.73667 168.459365 
L 647.181983 179.621543 
L 656.627295 189.239784 
L 666.072608 192.702736 
L 675.51792 188.018177 
L 684.963233 177.769127 
L 694.408545 168.012793 
L 703.853858 158.128005 
L 713.29917 147.618345 
L 722.744483 136.855752 
L 732.189795 137.720592 
L 741.635108 144.596084 
L 751.08042 150.957797 
L 760.525733 157.05102 
L 769.971045 162.695121 
L 779.416358 167.727131 
L 788.86167 171.613937 
L 798.306983 174.143995 
L 807.752295 175.637226 
L 817.197608 176.283755 
L 817.197608 18.927692 
L 817.197608 18.927692 
L 807.752295 18.927692 
L 798.306983 18.927692 
L 788.86167 18.927692 
L 779.416358 18.927692 
L 769.971045 18.927692 
L 760.525733 18.927692 
L 751.08042 18.927692 
L 741.635108 18.927692 
L 732.189795 18.927692 
L 722.744483 26.357768 
L 713.29917 47.240098 
L 703.853858 66.629571 
L 694.408545 84.185579 
L 684.963233 100.597058 
L 675.51792 116.651113 
L 666.072608 126.380114 
L 656.627295 127.489584 
L 647.181983 122.477483 
L 637.73667 116.78886 
L 628.291358 206.199027 
L 618.846045 18.927692 
L 609.400733 18.927692 
L 599.95542 18.927692 
L 590.510108 18.927692 
L 583.829265 18.927692 
L 577.148423 18.927692 
L 570.467581 18.927692 
L 563.786738 18.927692 
L 557.105896 18.927692 
L 550.425053 18.927692 
L 543.744211 18.927692 
L 537.063369 18.927692 
L 530.382526 18.927692 
L 523.701684 18.927692 
L 517.020842 18.927692 
L 510.339999 18.927692 
L 503.659157 18.927692 
L 496.978314 18.927692 
L 490.325069 18.927692 
L 483.958078 18.927692 
L 477.975382 18.927692 
L 472.396058 18.927692 
L 467.21716 18.927692 
L 462.425952 18.927692 
L 458.002814 18.927692 
L 453.926016 18.927692 
L 450.174259 21.080661 
L 446.721698 27.486928 
L 443.549241 34.723517 
L 440.63164 41.09738 
L 437.951073 46.484458 
L 435.488341 50.321909 
L 433.224812 53.224835 
L 431.143679 54.18137 
L 429.229604 54.278973 
L 427.468869 53.411563 
L 425.84987 51.764565 
L 424.358264 49.374507 
L 422.98146 46.677091 
L 421.713006 43.771499 
L 420.545322 40.898289 
L 419.462355 38.253586 
L 418.466771 35.877833 
L 417.529374 33.770232 
L 416.601479 31.986444 
L 415.673584 30.521326 
L 414.745689 29.337446 
L 413.817795 28.387789 
L 412.8899 27.70874 
L 411.962005 27.263686 
L 411.03411 27.082527 
L 410.106215 27.081959 
L 409.178321 27.269485 
L 408.250426 27.579793 
L 407.322531 28.014425 
L 406.394636 28.564317 
L 405.466742 29.167485 
L 404.538847 29.808184 
L 403.610952 30.249597 
L 402.683057 30.679847 
L 401.755162 31.059211 
L 400.827268 31.299056 
L 399.899373 31.497063 
L 398.971478 31.425504 
L 398.043583 31.366867 
L 397.115689 30.938243 
L 396.187794 30.598516 
L 395.259899 29.822593 
L 394.332004 29.18789 
L 393.404109 28.125215 
L 392.476215 27.166648 
L 391.54832 25.858354 
L 390.620425 24.311703 
L 389.69253 22.620519 
L 388.764636 20.027924 
L 387.836741 18.927692 
L 386.908846 18.927692 
L 385.980951 18.927692 
L 385.053056 18.927692 
L 384.125162 18.927692 
L 383.197267 18.927692 
L 382.269372 18.927692 
L 381.341477 18.927692 
L 380.413583 18.927692 
L 379.485688 18.927692 
L 378.557793 18.927692 
L 377.629898 18.927692 
L 376.702003 18.927692 
L 375.42959 18.927692 
L 374.157176 18.927692 
L 372.884762 20.918173 
L 371.612349 26.690034 
L 370.339935 31.190715 
L 369.067521 33.730679 
L 367.795107 36.080368 
L 366.522694 36.334482 
L 365.239331 37.249252 
L 363.606378 36.376113 
L 361.314826 36.355657 
L 358.098232 35.299553 
L 353.582193 34.815584 
L 347.240659 33.948662 
L 338.743693 33.373563 
L 330.136629 32.68494 
L 321.835592 32.067016 
L 313.829633 31.127788 
L 306.108307 30.485083 
L 298.661623 29.670881 
L 291.4797 29.123765 
L 284.553028 28.412022 
L 277.872644 27.941092 
L 271.429742 27.329371 
L 265.21574 26.913362 
L 259.222913 26.243251 
L 253.442863 25.642696 
L 247.824813 24.919601 
L 242.378625 24.231409 
L 237.125821 23.434443 
L 232.059762 22.590582 
L 227.17384 21.453635 
L 222.461467 20.122403 
L 217.91616 18.927692 
L 213.53248 18.927692 
L 209.304744 18.927692 
L 205.22697 18.927692 
L 201.293821 18.927692 
L 197.500918 18.927692 
L 193.842604 18.927692 
L 190.314049 18.927692 
L 186.910786 18.927692 
L 183.628419 18.927692 
L 180.46251 18.927692 
L 177.408712 18.927692 
L 174.463215 18.927692 
L 171.623417 18.927692 
L 168.88361 18.927692 
L 166.240541 18.927692 
L 163.692746 19.669829 
L 161.23367 21.040765 
L 158.863167 22.423328 
L 156.576921 23.801195 
L 154.369789 25.000451 
L 152.242772 25.955885 
L 150.191638 26.447797 
L 148.212643 26.779859 
L 146.303001 27.058092 
L 144.460719 27.300499 
L 142.684184 27.489431 
L 140.970849 27.676633 
L 139.318394 27.817433 
L 137.72483 28.011429 
L 136.188485 28.1721 
L 134.706455 28.459015 
L 133.275902 28.730414 
L 131.894699 29.206082 
L 130.547436 29.680084 
L 129.200175 30.403773 
L 127.852913 31.101518 
L 126.505652 32.014497 
L 125.15839 32.808588 
L 123.811128 33.661407 
L 122.463867 34.172672 
L 121.116605 34.468396 
L 119.769344 34.044853 
L 118.422082 33.169333 
L 117.07482 31.237906 
L 115.727559 28.588447 
L 114.380297 23.592576 
L 113.033036 18.927692 
L 111.685774 18.927692 
L 110.338513 18.927692 
L 108.991251 18.927692 
L 107.643989 18.927692 
L 106.296728 18.927692 
L 104.949466 18.927692 
L 103.602205 18.927692 
L 102.254943 18.927692 
L 100.907682 18.927692 
L 99.56042 18.927692 
L 98.213158 18.927692 
L 96.865897 44.945138 
L 95.518635 59.952366 
L 94.171374 68.540115 
L 92.824112 69.376511 
L 91.47685 48.77541 
L 90.129589 18.927692 
L 88.782327 18.927692 
L 87.435066 18.927692 
L 86.087804 21.029069 
L 84.740543 44.111498 
L 83.42602 82.247236 
L 82.111498 18.927692 
L 80.785425 18.927692 
L 79.124624 18.927692 
L 76.852227 18.927692 
L 73.741466 18.927692 
L 69.481777 19.59275 
L 63.647806 22.918451 
L 55.656948 23.567121 
L 44.711179 25.087129 
L 29.717351 25.040716 
L 9.178043 25.486034 
z
" clip-path="url(#p5d278a4b2b)" style="fill: #d62728"/>
   </g>
   <g id="matplotlib.axis_1">
    <g id="xtick_1">
     <g id="line2d_1">
      <path d="M 84.740543 617.04 
L 84.740543 7.2 
" clip-path="url(#p5d278a4b2b)" style="fill: none; stroke: #b0b0b0; stroke-width: 0.8; stroke-linecap: square"/>
     </g>
     <g id="line2d_2">
      <defs>
       <path id="m942bbfbf87" d="M 0 0 
L 0 3.5 
" style="stroke: #000000; stroke-width: 0.8"/>
      </defs>
      <g>
       <use xlink:href="#m942bbfbf87" x="84.740543" y="617.04" style="stroke: #000000; stroke-width: 0.8"/>
      </g>
     </g>
     <g id="text_1">
      <!-- $\mathdefault{0.0}$ -->
      <g transform="translate(66.968823 644.795495) scale(0.3 -0.3)">
       <defs>
        <path id="CMR17-30" d="M 2688 2025 
C 2688 2416 2682 3080 2413 3591 
C 2176 4039 1798 4198 1466 4198 
C 1158 4198 768 4058 525 3597 
C 269 3118 243 2524 243 2025 
C 243 1661 250 1106 448 619 
C 723 -39 1216 -128 1466 -128 
C 1760 -128 2208 -7 2470 600 
C 2662 1042 2688 1559 2688 2025 
z
M 1466 -26 
C 1056 -26 813 325 723 812 
C 653 1188 653 1738 653 2096 
C 653 2588 653 2997 736 3387 
C 858 3929 1216 4096 1466 4096 
C 1728 4096 2067 3923 2189 3400 
C 2272 3036 2278 2607 2278 2096 
C 2278 1680 2278 1169 2202 792 
C 2067 95 1690 -26 1466 -26 
z
" transform="scale(0.015625)"/>
        <path id="CMMI12-3a" d="M 1178 307 
C 1178 492 1024 619 870 619 
C 685 619 557 466 557 313 
C 557 128 710 0 864 0 
C 1050 0 1178 153 1178 307 
z
" transform="scale(0.015625)"/>
       </defs>
       <use xlink:href="#CMR17-30" transform="scale(0.996264)"/>
       <use xlink:href="#CMMI12-3a" transform="translate(45.690477 0) scale(0.996264)"/>
       <use xlink:href="#CMR17-30" transform="translate(72.787654 0) scale(0.996264)"/>
      </g>
     </g>
    </g>
    <g id="xtick_2">
     <g id="line2d_3">
      <path d="M 235.865543 617.04 
L 235.865543 7.2 
" clip-path="url(#p5d278a4b2b)" style="fill: none; stroke: #b0b0b0; stroke-width: 0.8; stroke-linecap: square"/>
     </g>
     <g id="line2d_4">
      <g>
       <use xlink:href="#m942bbfbf87" x="235.865543" y="617.04" style="stroke: #000000; stroke-width: 0.8"/>
      </g>
     </g>
     <g id="text_2">
      <!-- $\mathdefault{0.1}$ -->
      <g transform="translate(218.093823 644.795495) scale(0.3 -0.3)">
       <defs>
        <path id="CMR17-31" d="M 1702 4058 
C 1702 4192 1696 4192 1606 4192 
C 1357 3916 979 3827 621 3827 
C 602 3827 570 3827 563 3808 
C 557 3795 557 3782 557 3648 
C 755 3648 1088 3686 1344 3839 
L 1344 461 
C 1344 236 1331 160 781 160 
L 589 160 
L 589 0 
C 896 0 1216 0 1523 0 
C 1830 0 2150 0 2458 0 
L 2458 160 
L 2266 160 
C 1715 160 1702 230 1702 458 
L 1702 4058 
z
" transform="scale(0.015625)"/>
       </defs>
       <use xlink:href="#CMR17-30" transform="scale(0.996264)"/>
       <use xlink:href="#CMMI12-3a" transform="translate(45.690477 0) scale(0.996264)"/>
       <use xlink:href="#CMR17-31" transform="translate(72.787654 0) scale(0.996264)"/>
      </g>
     </g>
    </g>
    <g id="xtick_3">
     <g id="line2d_5">
      <path d="M 386.990543 617.04 
L 386.990543 7.2 
" clip-path="url(#p5d278a4b2b)" style="fill: none; stroke: #b0b0b0; stroke-width: 0.8; stroke-linecap: square"/>
     </g>
     <g id="line2d_6">
      <g>
       <use xlink:href="#m942bbfbf87" x="386.990543" y="617.04" style="stroke: #000000; stroke-width: 0.8"/>
      </g>
     </g>
     <g id="text_3">
      <!-- $\mathdefault{0.2}$ -->
      <g transform="translate(369.218823 644.795495) scale(0.3 -0.3)">
       <defs>
        <path id="CMR17-32" d="M 2669 989 
L 2554 989 
C 2490 536 2438 459 2413 420 
C 2381 369 1920 369 1830 369 
L 602 369 
C 832 619 1280 1072 1824 1597 
C 2214 1967 2669 2402 2669 3035 
C 2669 3790 2067 4224 1395 4224 
C 691 4224 262 3604 262 3030 
C 262 2780 448 2748 525 2748 
C 589 2748 781 2787 781 3010 
C 781 3207 614 3264 525 3264 
C 486 3264 448 3258 422 3245 
C 544 3790 915 4058 1306 4058 
C 1862 4058 2227 3617 2227 3035 
C 2227 2479 1901 2000 1536 1584 
L 262 146 
L 262 0 
L 2515 0 
L 2669 989 
z
" transform="scale(0.015625)"/>
       </defs>
       <use xlink:href="#CMR17-30" transform="scale(0.996264)"/>
       <use xlink:href="#CMMI12-3a" transform="translate(45.690477 0) scale(0.996264)"/>
       <use xlink:href="#CMR17-32" transform="translate(72.787654 0) scale(0.996264)"/>
      </g>
     </g>
    </g>
    <g id="xtick_4">
     <g id="line2d_7">
      <path d="M 538.115543 617.04 
L 538.115543 7.2 
" clip-path="url(#p5d278a4b2b)" style="fill: none; stroke: #b0b0b0; stroke-width: 0.8; stroke-linecap: square"/>
     </g>
     <g id="line2d_8">
      <g>
       <use xlink:href="#m942bbfbf87" x="538.115543" y="617.04" style="stroke: #000000; stroke-width: 0.8"/>
      </g>
     </g>
     <g id="text_4">
      <!-- $\mathdefault{0.3}$ -->
      <g transform="translate(520.343823 644.795495) scale(0.3 -0.3)">
       <defs>
        <path id="CMR17-33" d="M 1414 2157 
C 1984 2157 2234 1662 2234 1090 
C 2234 320 1824 25 1453 25 
C 1114 25 563 194 390 693 
C 422 680 454 680 486 680 
C 640 680 755 782 755 948 
C 755 1133 614 1216 486 1216 
C 378 1216 211 1165 211 926 
C 211 335 787 -128 1466 -128 
C 2176 -128 2720 430 2720 1085 
C 2720 1707 2208 2157 1600 2227 
C 2086 2328 2554 2756 2554 3329 
C 2554 3820 2048 4179 1472 4179 
C 890 4179 378 3829 378 3329 
C 378 3110 544 3072 627 3072 
C 762 3072 877 3155 877 3321 
C 877 3486 762 3569 627 3569 
C 602 3569 570 3569 544 3557 
C 730 3959 1235 4032 1459 4032 
C 1683 4032 2106 3925 2106 3320 
C 2106 3143 2080 2828 1862 2550 
C 1670 2304 1453 2304 1242 2284 
C 1210 2284 1062 2269 1037 2269 
C 992 2263 966 2257 966 2208 
C 966 2163 973 2157 1101 2157 
L 1414 2157 
z
" transform="scale(0.015625)"/>
       </defs>
       <use xlink:href="#CMR17-30" transform="scale(0.996264)"/>
       <use xlink:href="#CMMI12-3a" transform="translate(45.690477 0) scale(0.996264)"/>
       <use xlink:href="#CMR17-33" transform="translate(72.787654 0) scale(0.996264)"/>
      </g>
     </g>
    </g>
    <g id="xtick_5">
     <g id="line2d_9">
      <path d="M 689.240543 617.04 
L 689.240543 7.2 
" clip-path="url(#p5d278a4b2b)" style="fill: none; stroke: #b0b0b0; stroke-width: 0.8; stroke-linecap: square"/>
     </g>
     <g id="line2d_10">
      <g>
       <use xlink:href="#m942bbfbf87" x="689.240543" y="617.04" style="stroke: #000000; stroke-width: 0.8"/>
      </g>
     </g>
     <g id="text_5">
      <!-- $\mathdefault{0.4}$ -->
      <g transform="translate(671.468823 644.795495) scale(0.3 -0.3)">
       <defs>
        <path id="CMR17-34" d="M 2150 4122 
C 2150 4256 2144 4256 2029 4256 
L 128 1254 
L 128 1088 
L 1779 1088 
L 1779 457 
C 1779 224 1766 160 1318 160 
L 1197 160 
L 1197 0 
C 1402 0 1747 0 1965 0 
C 2182 0 2528 0 2733 0 
L 2733 160 
L 2611 160 
C 2163 160 2150 224 2150 457 
L 2150 1088 
L 2803 1088 
L 2803 1254 
L 2150 1254 
L 2150 4122 
z
M 1798 3703 
L 1798 1254 
L 256 1254 
L 1798 3703 
z
" transform="scale(0.015625)"/>
       </defs>
       <use xlink:href="#CMR17-30" transform="scale(0.996264)"/>
       <use xlink:href="#CMMI12-3a" transform="translate(45.690477 0) scale(0.996264)"/>
       <use xlink:href="#CMR17-34" transform="translate(72.787654 0) scale(0.996264)"/>
      </g>
     </g>
    </g>
    <g id="text_6">
     <!-- $x, \; \mathrm{m} $ -->
     <g transform="translate(411.787939 678.823697) scale(0.35 -0.35)">
      <defs>
       <path id="CMMI12-78" d="M 3034 2606 
C 2829 2567 2752 2414 2752 2293 
C 2752 2139 2874 2088 2963 2088 
C 3155 2088 3290 2254 3290 2427 
C 3290 2695 2982 2816 2714 2816 
C 2323 2816 2106 2433 2048 2312 
C 1901 2816 1504 2816 1389 2816 
C 736 2816 390 1980 390 1839 
C 390 1814 416 1782 461 1782 
C 512 1782 525 1820 538 1846 
C 755 2555 1184 2689 1370 2689 
C 1658 2689 1715 2420 1715 2267 
C 1715 2127 1677 1980 1600 1673 
L 1382 798 
C 1286 415 1101 64 762 64 
C 730 64 570 64 435 147 
C 666 192 717 383 717 460 
C 717 588 621 664 499 664 
C 346 664 179 530 179 326 
C 179 57 480 -64 755 -64 
C 1062 -64 1280 179 1414 441 
C 1517 64 1837 -64 2074 -64 
C 2726 -64 3072 773 3072 913 
C 3072 945 3046 971 3008 971 
C 2950 971 2944 939 2925 888 
C 2752 326 2381 64 2093 64 
C 1869 64 1747 230 1747 492 
C 1747 632 1773 734 1875 1156 
L 2099 2024 
C 2195 2408 2413 2689 2707 2689 
C 2720 2689 2899 2689 3034 2606 
z
" transform="scale(0.015625)"/>
       <path id="CMMI12-3b" d="M 1248 -31 
C 1248 343 1126 619 864 619 
C 659 619 557 453 557 313 
C 557 172 653 0 870 0 
C 954 0 1024 26 1082 83 
C 1094 96 1101 96 1107 96 
C 1120 96 1120 5 1120 -27 
C 1120 -240 1082 -659 710 -1080 
C 640 -1157 640 -1170 640 -1183 
C 640 -1216 672 -1248 704 -1248 
C 755 -1248 1248 -771 1248 -31 
z
" transform="scale(0.015625)"/>
       <path id="CMR17-6d" d="M 4326 1933 
C 4326 2252 4269 2790 3507 2790 
C 3072 2790 2771 2496 2656 2151 
L 2650 2151 
C 2573 2676 2195 2790 1837 2790 
C 1331 2790 1069 2400 973 2144 
L 966 2144 
L 966 2790 
L 211 2720 
L 211 2554 
C 589 2554 646 2515 646 2208 
L 646 428 
C 646 184 621 153 211 153 
L 211 -13 
C 365 0 646 0 813 0 
C 979 0 1267 0 1421 -13 
L 1421 153 
C 1011 153 986 178 986 428 
L 986 1658 
C 986 2247 1344 2688 1792 2688 
C 2266 2688 2317 2266 2317 1958 
L 2317 428 
C 2317 184 2291 153 1882 153 
L 1882 -13 
C 2035 0 2317 0 2483 0 
C 2650 0 2938 0 3091 -13 
L 3091 153 
C 2682 153 2656 178 2656 428 
L 2656 1658 
C 2656 2247 3014 2688 3462 2688 
C 3936 2688 3987 2266 3987 1958 
L 3987 428 
C 3987 184 3962 153 3552 153 
L 3552 -13 
C 3706 0 3987 0 4154 0 
C 4320 0 4608 0 4762 -13 
L 4762 153 
C 4352 153 4326 178 4326 428 
L 4326 1933 
z
" transform="scale(0.015625)"/>
      </defs>
      <use xlink:href="#CMMI12-78" transform="scale(0.996264)"/>
      <use xlink:href="#CMMI12-3b" transform="translate(55.43406 0) scale(0.996264)"/>
      <use xlink:href="#CMR17-6d" transform="translate(126.809651 0) scale(0.996264)"/>
     </g>
    </g>
   </g>
   <g id="matplotlib.axis_2">
    <g id="ytick_1">
     <g id="line2d_11">
      <path d="M 84.740543 605.312308 
L 810.140543 605.312308 
" clip-path="url(#p5d278a4b2b)" style="fill: none; stroke: #b0b0b0; stroke-width: 0.8; stroke-linecap: square"/>
     </g>
     <g id="line2d_12">
      <defs>
       <path id="mae1cd72d64" d="M 0 0 
L -3.5 0 
" style="stroke: #000000; stroke-width: 0.8"/>
      </defs>
      <g>
       <use xlink:href="#mae1cd72d64" x="84.740543" y="605.312308" style="stroke: #000000; stroke-width: 0.8"/>
      </g>
     </g>
     <g id="text_7">
      <!-- $\mathdefault{0.0}$ -->
      <g transform="translate(42.197103 615.690055) scale(0.3 -0.3)">
       <use xlink:href="#CMR17-30" transform="scale(0.996264)"/>
       <use xlink:href="#CMMI12-3a" transform="translate(45.690477 0) scale(0.996264)"/>
       <use xlink:href="#CMR17-30" transform="translate(72.787654 0) scale(0.996264)"/>
      </g>
     </g>
    </g>
    <g id="ytick_2">
     <g id="line2d_13">
      <path d="M 84.740543 488.035385 
L 810.140543 488.035385 
" clip-path="url(#p5d278a4b2b)" style="fill: none; stroke: #b0b0b0; stroke-width: 0.8; stroke-linecap: square"/>
     </g>
     <g id="line2d_14">
      <g>
       <use xlink:href="#mae1cd72d64" x="84.740543" y="488.035385" style="stroke: #000000; stroke-width: 0.8"/>
      </g>
     </g>
     <g id="text_8">
      <!-- $\mathdefault{0.2}$ -->
      <g transform="translate(42.197103 498.413132) scale(0.3 -0.3)">
       <use xlink:href="#CMR17-30" transform="scale(0.996264)"/>
       <use xlink:href="#CMMI12-3a" transform="translate(45.690477 0) scale(0.996264)"/>
       <use xlink:href="#CMR17-32" transform="translate(72.787654 0) scale(0.996264)"/>
      </g>
     </g>
    </g>
    <g id="ytick_3">
     <g id="line2d_15">
      <path d="M 84.740543 370.758462 
L 810.140543 370.758462 
" clip-path="url(#p5d278a4b2b)" style="fill: none; stroke: #b0b0b0; stroke-width: 0.8; stroke-linecap: square"/>
     </g>
     <g id="line2d_16">
      <g>
       <use xlink:href="#mae1cd72d64" x="84.740543" y="370.758462" style="stroke: #000000; stroke-width: 0.8"/>
      </g>
     </g>
     <g id="text_9">
      <!-- $\mathdefault{0.4}$ -->
      <g transform="translate(42.197103 381.136209) scale(0.3 -0.3)">
       <use xlink:href="#CMR17-30" transform="scale(0.996264)"/>
       <use xlink:href="#CMMI12-3a" transform="translate(45.690477 0) scale(0.996264)"/>
       <use xlink:href="#CMR17-34" transform="translate(72.787654 0) scale(0.996264)"/>
      </g>
     </g>
    </g>
    <g id="ytick_4">
     <g id="line2d_17">
      <path d="M 84.740543 253.481538 
L 810.140543 253.481538 
" clip-path="url(#p5d278a4b2b)" style="fill: none; stroke: #b0b0b0; stroke-width: 0.8; stroke-linecap: square"/>
     </g>
     <g id="line2d_18">
      <g>
       <use xlink:href="#mae1cd72d64" x="84.740543" y="253.481538" style="stroke: #000000; stroke-width: 0.8"/>
      </g>
     </g>
     <g id="text_10">
      <!-- $\mathdefault{0.6}$ -->
      <g transform="translate(42.197103 263.859286) scale(0.3 -0.3)">
       <defs>
        <path id="CMR17-36" d="M 678 2176 
C 678 3690 1395 4032 1811 4032 
C 1946 4032 2272 4009 2400 3776 
C 2298 3776 2106 3776 2106 3553 
C 2106 3381 2246 3323 2336 3323 
C 2394 3323 2566 3348 2566 3560 
C 2566 3954 2246 4179 1805 4179 
C 1043 4179 243 3390 243 1984 
C 243 253 966 -128 1478 -128 
C 2099 -128 2688 427 2688 1283 
C 2688 2081 2170 2662 1517 2662 
C 1126 2662 838 2407 678 1960 
L 678 2176 
z
M 1478 25 
C 691 25 691 1200 691 1436 
C 691 1896 909 2560 1504 2560 
C 1613 2560 1926 2560 2138 2120 
C 2253 1870 2253 1609 2253 1289 
C 2253 944 2253 690 2118 434 
C 1978 171 1773 25 1478 25 
z
" transform="scale(0.015625)"/>
       </defs>
       <use xlink:href="#CMR17-30" transform="scale(0.996264)"/>
       <use xlink:href="#CMMI12-3a" transform="translate(45.690477 0) scale(0.996264)"/>
       <use xlink:href="#CMR17-36" transform="translate(72.787654 0) scale(0.996264)"/>
      </g>
     </g>
    </g>
    <g id="ytick_5">
     <g id="line2d_19">
      <path d="M 84.740543 136.204615 
L 810.140543 136.204615 
" clip-path="url(#p5d278a4b2b)" style="fill: none; stroke: #b0b0b0; stroke-width: 0.8; stroke-linecap: square"/>
     </g>
     <g id="line2d_20">
      <g>
       <use xlink:href="#mae1cd72d64" x="84.740543" y="136.204615" style="stroke: #000000; stroke-width: 0.8"/>
      </g>
     </g>
     <g id="text_11">
      <!-- $\mathdefault{0.8}$ -->
      <g transform="translate(42.197103 146.582363) scale(0.3 -0.3)">
       <defs>
        <path id="CMR17-38" d="M 1741 2264 
C 2144 2467 2554 2773 2554 3263 
C 2554 3841 1990 4179 1472 4179 
C 890 4179 378 3759 378 3180 
C 378 3021 416 2747 666 2505 
C 730 2442 998 2251 1171 2130 
C 883 1983 211 1634 211 934 
C 211 279 838 -128 1459 -128 
C 2144 -128 2720 362 2720 1010 
C 2720 1590 2330 1857 2074 2029 
L 1741 2264 
z
M 902 2822 
C 851 2854 595 3051 595 3351 
C 595 3739 998 4032 1459 4032 
C 1965 4032 2336 3676 2336 3262 
C 2336 2669 1670 2331 1638 2331 
C 1632 2331 1626 2331 1574 2370 
L 902 2822 
z
M 2080 1519 
C 2176 1449 2483 1240 2483 851 
C 2483 381 2010 25 1472 25 
C 890 25 448 438 448 940 
C 448 1443 838 1862 1280 2060 
L 2080 1519 
z
" transform="scale(0.015625)"/>
       </defs>
       <use xlink:href="#CMR17-30" transform="scale(0.996264)"/>
       <use xlink:href="#CMMI12-3a" transform="translate(45.690477 0) scale(0.996264)"/>
       <use xlink:href="#CMR17-38" transform="translate(72.787654 0) scale(0.996264)"/>
      </g>
     </g>
    </g>
    <g id="ytick_6">
     <g id="line2d_21">
      <path d="M 84.740543 18.927692 
L 810.140543 18.927692 
" clip-path="url(#p5d278a4b2b)" style="fill: none; stroke: #b0b0b0; stroke-width: 0.8; stroke-linecap: square"/>
     </g>
     <g id="line2d_22">
      <g>
       <use xlink:href="#mae1cd72d64" x="84.740543" y="18.927692" style="stroke: #000000; stroke-width: 0.8"/>
      </g>
     </g>
     <g id="text_12">
      <!-- $\mathdefault{1.0}$ -->
      <g transform="translate(42.197103 29.30544) scale(0.3 -0.3)">
       <use xlink:href="#CMR17-31" transform="scale(0.996264)"/>
       <use xlink:href="#CMMI12-3a" transform="translate(45.690477 0) scale(0.996264)"/>
       <use xlink:href="#CMR17-30" transform="translate(72.787654 0) scale(0.996264)"/>
      </g>
     </g>
    </g>
    <g id="text_13">
     <!-- $S_1$ -->
     <g transform="translate(31.414752 328.216088) rotate(-90) scale(0.35 -0.35)">
      <defs>
       <path id="CMMI12-53" d="M 4064 4423 
C 4064 4480 4019 4480 4006 4480 
C 3981 4480 3974 4474 3898 4378 
C 3859 4333 3597 4001 3590 3995 
C 3379 4410 2957 4480 2688 4480 
C 1875 4480 1139 3743 1139 3025 
C 1139 2549 1427 2269 1741 2161 
C 1811 2135 2189 2033 2381 1989 
C 2707 1900 2790 1875 2925 1735 
C 2950 1703 3078 1557 3078 1258 
C 3078 667 2528 57 1888 57 
C 1363 57 781 280 781 991 
C 781 1112 806 1265 826 1328 
C 826 1348 832 1378 832 1391 
C 832 1417 819 1449 768 1449 
C 710 1449 704 1436 678 1328 
L 352 24 
C 352 18 326 -64 326 -71 
C 326 -128 378 -128 390 -128 
C 416 -128 422 -122 499 -26 
L 794 356 
C 947 126 1280 -128 1875 -128 
C 2701 -128 3456 666 3456 1460 
C 3456 1728 3392 1963 3149 2197 
C 3014 2331 2899 2363 2310 2516 
C 1882 2630 1824 2649 1709 2751 
C 1600 2858 1517 3011 1517 3227 
C 1517 3761 2061 4308 2669 4308 
C 3296 4308 3590 3926 3590 3323 
C 3590 3158 3558 2986 3558 2961 
C 3558 2903 3610 2903 3629 2903 
C 3686 2903 3693 2922 3718 3024 
L 4064 4423 
z
" transform="scale(0.015625)"/>
      </defs>
      <use xlink:href="#CMMI12-53" transform="scale(0.996264)"/>
      <use xlink:href="#CMR17-31" transform="translate(59.994488 -14.943915) scale(0.697382)"/>
     </g>
    </g>
   </g>
   <g id="patch_3">
    <path d="M 84.740543 617.04 
L 84.740543 7.2 
" style="fill: none; stroke: #000000; stroke-width: 0.8; stroke-linejoin: miter; stroke-linecap: square"/>
   </g>
   <g id="patch_4">
    <path d="M 810.140543 617.04 
L 810.140543 7.2 
" style="fill: none; stroke: #000000; stroke-width: 0.8; stroke-linejoin: miter; stroke-linecap: square"/>
   </g>
   <g id="patch_5">
    <path d="M 84.740543 617.04 
L 810.140543 617.04 
" style="fill: none; stroke: #000000; stroke-width: 0.8; stroke-linejoin: miter; stroke-linecap: square"/>
   </g>
   <g id="patch_6">
    <path d="M 84.740543 7.2 
L 810.140543 7.2 
" style="fill: none; stroke: #000000; stroke-width: 0.8; stroke-linejoin: miter; stroke-linecap: square"/>
   </g>
   <g id="legend_1">
    <g id="patch_7">
     <path d="M 109.240543 354.406667 
L 268.183996 354.406667 
Q 275.183996 354.406667 275.183996 347.406667 
L 275.183996 153.668 
Q 275.183996 146.668 268.183996 146.668 
L 109.240543 146.668 
Q 102.240543 146.668 102.240543 153.668 
L 102.240543 347.406667 
Q 102.240543 354.406667 109.240543 354.406667 
z
" style="fill: #ffffff; stroke: #cccccc; stroke-linejoin: miter"/>
    </g>
    <g id="patch_8">
     <path d="M 116.240543 185.168 
L 186.240543 185.168 
L 186.240543 160.668 
L 116.240543 160.668 
z
" style="fill: #1f77b4"/>
    </g>
    <g id="text_14">
     <!-- $M$ -->
     <g transform="translate(214.240543 185.168) scale(0.35 -0.35)">
      <defs>
       <path id="CMMI12-4d" d="M 5811 3886 
C 5869 4103 5882 4167 6336 4167 
C 6458 4167 6515 4167 6515 4288 
C 6515 4352 6470 4352 6349 4352 
L 5581 4352 
C 5421 4352 5414 4346 5344 4243 
L 3008 562 
L 2528 4211 
C 2509 4352 2502 4352 2336 4352 
L 1542 4352 
C 1421 4352 1363 4352 1363 4231 
C 1363 4167 1421 4167 1517 4167 
C 1907 4167 1907 4116 1907 4046 
C 1907 4034 1907 3995 1882 3899 
L 1062 634 
C 986 327 838 186 410 186 
C 390 186 314 186 314 73 
C 314 0 371 0 397 0 
C 525 0 851 0 979 0 
L 1286 0 
C 1376 0 1485 0 1574 0 
C 1619 0 1690 0 1690 122 
C 1690 180 1626 186 1600 186 
C 1389 186 1184 224 1184 454 
C 1184 518 1184 524 1210 613 
L 2093 4129 
L 2099 4129 
L 2630 172 
C 2650 19 2656 0 2714 0 
C 2784 0 2816 51 2848 109 
L 5421 4161 
L 5427 4161 
L 4499 473 
C 4442 250 4429 186 3981 186 
C 3859 186 3795 186 3795 70 
C 3795 0 3853 0 3891 0 
C 4000 0 4128 0 4237 0 
L 4992 0 
C 5101 0 5235 0 5344 0 
C 5395 0 5466 0 5466 122 
C 5466 186 5408 186 5312 186 
C 4922 186 4922 234 4922 294 
C 4922 301 4922 345 4934 396 
L 5811 3886 
z
" transform="scale(0.015625)"/>
      </defs>
      <use xlink:href="#CMMI12-4d" transform="scale(0.996264)"/>
     </g>
    </g>
    <g id="patch_9">
     <path d="M 116.240543 233.950351 
L 186.240543 233.950351 
L 186.240543 209.450351 
L 116.240543 209.450351 
z
" style="fill: #ff7f0e"/>
    </g>
    <g id="text_15">
     <!-- $P$ -->
     <g transform="translate(214.240543 233.950351) scale(0.35 -0.35)">
      <defs>
       <path id="CMMI12-50" d="M 1894 2023 
L 2970 2023 
C 3853 2023 4736 2673 4736 3401 
C 4736 3898 4314 4352 3507 4352 
L 1530 4352 
C 1408 4352 1350 4352 1350 4231 
C 1350 4167 1408 4167 1504 4167 
C 1894 4167 1894 4116 1894 4046 
C 1894 4034 1894 3995 1869 3899 
L 1005 472 
C 947 249 934 185 486 185 
C 365 185 301 185 301 70 
C 301 0 358 0 397 0 
C 518 0 646 0 768 0 
L 1517 0 
C 1638 0 1773 0 1894 0 
C 1946 0 2016 0 2016 121 
C 2016 185 1958 185 1862 185 
C 1478 185 1472 230 1472 293 
C 1472 325 1478 369 1485 401 
L 1894 2023 
z
M 2355 3930 
C 2413 4167 2438 4167 2688 4167 
L 3322 4167 
C 3802 4167 4198 4013 4198 3535 
C 4198 3369 4115 2827 3821 2534 
C 3712 2419 3405 2176 2822 2176 
L 1920 2176 
L 2355 3930 
z
" transform="scale(0.015625)"/>
      </defs>
      <use xlink:href="#CMMI12-50" transform="scale(0.996264)"/>
     </g>
    </g>
    <g id="patch_10">
     <path d="M 116.240543 282.732702 
L 186.240543 282.732702 
L 186.240543 258.232702 
L 116.240543 258.232702 
z
" style="fill: #2ca02c"/>
    </g>
    <g id="text_16">
     <!-- $T$ -->
     <g transform="translate(214.240543 282.732702) scale(0.35 -0.35)">
      <defs>
       <path id="CMMI12-54" d="M 2669 3910 
C 2707 4064 2720 4121 2816 4147 
C 2867 4160 3078 4160 3213 4160 
C 3853 4160 4154 4134 4154 3634 
C 4154 3537 4128 3295 4090 3057 
L 4083 2980 
C 4083 2954 4109 2916 4147 2916 
C 4211 2916 4211 2948 4230 3050 
L 4416 4184 
C 4429 4243 4429 4256 4429 4275 
C 4429 4345 4390 4345 4262 4345 
L 762 4345 
C 614 4345 608 4339 570 4224 
L 179 3070 
C 173 3056 154 2986 154 2980 
C 154 2948 179 2916 218 2916 
C 269 2916 282 2941 307 3024 
C 576 3801 710 4160 1562 4160 
L 1990 4160 
C 2144 4160 2208 4160 2208 4089 
C 2208 4069 2208 4057 2176 3941 
L 1318 499 
C 1254 249 1242 185 563 185 
C 403 185 358 185 358 64 
C 358 0 429 0 461 0 
C 621 0 787 0 947 0 
L 1946 0 
C 2106 0 2278 0 2438 0 
C 2509 0 2573 0 2573 121 
C 2573 185 2528 185 2362 185 
C 1786 185 1786 243 1786 339 
C 1786 346 1786 391 1811 494 
L 2669 3910 
z
" transform="scale(0.015625)"/>
      </defs>
      <use xlink:href="#CMMI12-54" transform="scale(0.996264)"/>
     </g>
    </g>
    <g id="patch_11">
     <path d="M 116.240543 331.515054 
L 186.240543 331.515054 
L 186.240543 307.015054 
L 116.240543 307.015054 
z
" style="fill: #d62728"/>
    </g>
    <g id="text_17">
     <!-- $Y_{N_2}$ -->
     <g transform="translate(214.240543 331.515054) scale(0.35 -0.35)">
      <defs>
       <path id="CMMI12-59" d="M 3763 3645 
L 3910 3791 
C 4192 4078 4429 4149 4653 4167 
C 4723 4173 4781 4179 4781 4288 
C 4781 4352 4717 4352 4704 4352 
C 4627 4352 4544 4352 4467 4352 
L 4205 4352 
C 4019 4352 3821 4352 3642 4352 
C 3597 4352 3526 4352 3526 4226 
C 3526 4166 3590 4160 3610 4160 
C 3802 4160 3802 4064 3802 4026 
C 3802 3956 3750 3860 3622 3713 
L 2099 1969 
L 1376 3911 
C 1338 4000 1338 4013 1338 4026 
C 1338 4160 1600 4160 1677 4160 
C 1754 4160 1824 4160 1824 4279 
C 1824 4352 1766 4352 1728 4352 
C 1619 4352 1491 4352 1382 4352 
L 672 4352 
C 557 4352 435 4352 326 4352 
C 282 4352 211 4352 211 4226 
C 211 4160 269 4160 365 4160 
C 678 4160 736 4102 794 3956 
L 1587 1835 
C 1594 1816 1613 1745 1613 1726 
C 1613 1707 1299 452 1280 388 
C 1229 217 1165 185 755 185 
C 646 185 595 185 595 64 
C 595 0 666 0 685 0 
C 800 0 934 0 1056 0 
L 1811 0 
C 1926 0 2061 0 2176 0 
C 2221 0 2298 0 2298 115 
C 2298 185 2253 185 2144 185 
C 1747 185 1747 230 1747 300 
C 1747 345 1798 548 1830 676 
L 2061 1594 
C 2099 1727 2099 1739 2157 1803 
L 3763 3645 
z
" transform="scale(0.015625)"/>
       <path id="CMMI12-4e" d="M 4736 3698 
C 4806 3974 4909 4166 5395 4166 
C 5414 4166 5491 4166 5491 4279 
C 5491 4352 5434 4352 5408 4352 
C 5280 4352 4954 4352 4826 4352 
L 4518 4352 
C 4429 4352 4314 4352 4224 4352 
C 4186 4352 4109 4352 4109 4230 
C 4109 4166 4160 4166 4205 4166 
C 4589 4166 4614 4019 4614 3903 
C 4614 3846 4608 3826 4589 3737 
L 3866 850 
L 2496 4249 
C 2451 4352 2445 4352 2304 4352 
L 1523 4352 
C 1395 4352 1338 4352 1338 4230 
C 1338 4166 1382 4166 1504 4166 
C 1536 4166 1914 4166 1914 4115 
C 1914 4102 1901 4051 1894 4032 
L 1043 635 
C 966 320 813 186 390 186 
C 358 186 294 186 294 67 
C 294 0 358 0 378 0 
C 506 0 832 0 960 0 
L 1267 0 
C 1357 0 1466 0 1555 0 
C 1600 0 1670 0 1670 122 
C 1670 180 1606 186 1581 186 
C 1370 186 1165 224 1165 454 
C 1165 505 1178 562 1190 613 
L 2054 4032 
C 2093 3968 2093 3956 2118 3898 
L 3642 115 
C 3674 38 3686 0 3744 0 
C 3808 0 3814 19 3840 128 
L 4736 3698 
z
" transform="scale(0.015625)"/>
      </defs>
      <use xlink:href="#CMMI12-59" transform="scale(0.996264)"/>
      <use xlink:href="#CMMI12-4e" transform="translate(56.598607 -14.943915) scale(0.697382)"/>
      <use xlink:href="#CMR17-32" transform="translate(111.278947 -25.404611) scale(0.498132)"/>
     </g>
    </g>
   </g>
  </g>
 </g>
 <defs>
  <clipPath id="p5d278a4b2b">
   <rect x="84.740543" y="7.2" width="725.4" height="609.84"/>
  </clipPath>
 </defs>
</svg>
