<?xml version="1.0" encoding="utf-8" standalone="no"?>
<!DOCTYPE svg PUBLIC "-//W3C//DTD SVG 1.1//EN"
  "http://www.w3.org/Graphics/SVG/1.1/DTD/svg11.dtd">
<svg xmlns:xlink="http://www.w3.org/1999/xlink" width="817.340543pt" height="692.806049pt" viewBox="0 0 817.340543 692.806049" xmlns="http://www.w3.org/2000/svg" version="1.1">
 <metadata>
  <rdf:RDF xmlns:dc="http://purl.org/dc/elements/1.1/" xmlns:cc="http://creativecommons.org/ns#" xmlns:rdf="http://www.w3.org/1999/02/22-rdf-syntax-ns#">
   <cc:Work>
    <dc:type rdf:resource="http://purl.org/dc/dcmitype/StillImage"/>
    <dc:date>2025-03-19T17:00:10.262849</dc:date>
    <dc:format>image/svg+xml</dc:format>
    <dc:creator>
     <cc:Agent>
      <dc:title>Matplotlib v3.7.1, https://matplotlib.org/</dc:title>
     </cc:Agent>
    </dc:creator>
   </cc:Work>
  </rdf:RDF>
 </metadata>
 <defs>
  <style type="text/css">*{stroke-linejoin: round; stroke-linecap: butt}</style>
 </defs>
 <g id="figure_1">
  <g id="patch_1">
   <path d="M 0 692.806049 
L 817.340543 692.806049 
L 817.340543 0 
L 0 0 
z
" style="fill: #ffffff"/>
  </g>
  <g id="axes_1">
   <g id="patch_2">
    <path d="M 84.740543 617.04 
L 810.140543 617.04 
L 810.140543 7.2 
L 84.740543 7.2 
z
" style="fill: #ffffff"/>
   </g>
   <g id="PolyCollection_1">
    <path d="M 9.178043 605.312308 
L 9.178043 605.312308 
L 29.717351 605.312308 
L 44.711179 605.312308 
L 55.656948 605.312308 
L 63.647806 605.312308 
L 69.481777 605.312308 
L 73.741466 605.312308 
L 76.852227 605.312308 
L 79.049287 605.312308 
L 80.785425 605.312308 
L 82.213061 605.312308 
L 83.42602 605.312308 
L 84.740543 605.312308 
L 87.435066 605.312308 
L 88.857321 605.312308 
L 90.129589 605.312308 
L 92.004934 605.312308 
L 93.099922 605.312308 
L 94.171374 605.312308 
L 95.299612 605.312308 
L 96.397416 605.312308 
L 97.579316 605.312308 
L 98.820976 605.312308 
L 99.991406 605.312308 
L 101.273505 605.312308 
L 103.578522 605.312308 
L 105.819849 605.312308 
L 107.979517 605.312308 
L 110.878308 605.312308 
L 114.380297 605.312308 
L 117.772298 605.312308 
L 121.795163 605.312308 
L 126.505652 605.312308 
L 131.894699 605.312308 
L 136.064903 605.312308 
L 140.906123 605.312308 
L 146.343341 605.312308 
L 152.242772 605.312308 
L 158.23472 605.312308 
L 163.692746 605.312308 
L 168.88361 605.312308 
L 174.585426 605.312308 
L 180.46251 605.312308 
L 186.901027 605.312308 
L 193.842604 605.312308 
L 201.294329 605.312308 
L 209.304744 605.312308 
L 215.666289 605.312308 
L 222.461467 605.312308 
L 232.059762 605.312308 
L 242.378625 605.312308 
L 253.442863 605.312308 
L 265.803879 605.312308 
L 277.872644 605.312308 
L 291.4797 605.312308 
L 306.108307 605.312308 
L 314.293433 605.312308 
L 322.042849 605.312308 
L 330.136629 605.312308 
L 338.743693 605.312308 
L 347.240659 605.312308 
L 353.582193 605.312308 
L 358.098232 605.312308 
L 362.015801 605.312308 
L 365.100791 605.312308 
L 367.795107 605.312308 
L 370.339935 605.312308 
L 371.612349 605.312308 
L 372.884762 605.312308 
L 373.578284 605.312308 
L 374.157176 605.312308 
L 374.808605 605.312308 
L 375.42959 605.312308 
L 375.781185 605.312308 
L 376.100674 605.312308 
L 376.42634 605.312308 
L 376.702003 605.312308 
L 377.181086 605.312308 
L 377.629898 605.312308 
L 378.056467 605.312308 
L 378.557793 605.312308 
L 379.000786 605.312308 
L 379.485688 605.312308 
L 379.945558 605.312308 
L 380.413583 605.312308 
L 380.832336 605.312308 
L 381.341477 605.312308 
L 382.269372 605.312308 
L 383.197267 605.312308 
L 384.125162 605.312308 
L 385.053056 605.312308 
L 385.980951 605.312308 
L 386.908846 605.312308 
L 387.836741 605.312308 
L 388.764636 605.312308 
L 389.69253 605.312308 
L 390.578063 605.312308 
L 391.54832 605.312308 
L 393.28631 605.312308 
L 395.259899 605.312308 
L 396.651741 605.312308 
L 398.043583 605.312308 
L 399.899373 605.312308 
L 401.701247 605.312308 
L 403.610952 605.312308 
L 405.289681 605.312308 
L 406.894263 605.312308 
L 408.375361 605.312308 
L 410.106215 605.312308 
L 411.962005 605.312308 
L 414.385383 605.312308 
L 416.601479 605.312308 
L 418.59025 605.312308 
L 420.545322 605.312308 
L 422.367082 605.312308 
L 424.358264 605.312308 
L 426.834965 605.312308 
L 429.229604 605.312308 
L 431.143679 605.312308 
L 433.224812 605.312308 
L 435.488341 605.312308 
L 437.951073 605.312308 
L 439.269923 605.312308 
L 440.63164 605.312308 
L 442.106467 605.312308 
L 443.549241 605.312308 
L 445.155995 605.312308 
L 446.721698 605.312308 
L 448.530584 605.312308 
L 450.174259 605.312308 
L 451.951214 605.312308 
L 453.926016 605.312308 
L 455.933062 605.312308 
L 458.002814 605.312308 
L 460.314271 605.312308 
L 462.425952 605.312308 
L 464.811613 605.312308 
L 467.21716 605.312308 
L 469.759827 605.312308 
L 472.396058 605.312308 
L 475.19253 605.312308 
L 477.975382 605.312308 
L 480.842577 605.312308 
L 483.958078 605.312308 
L 487.02499 605.312308 
L 490.325069 605.312308 
L 493.589155 605.312308 
L 496.978314 605.312308 
L 500.205377 605.312308 
L 503.659157 605.312308 
L 506.946976 605.312308 
L 510.339999 605.312308 
L 513.575217 605.312308 
L 517.020842 605.312308 
L 520.529262 605.312308 
L 523.701684 605.312308 
L 527.248435 605.312308 
L 530.382526 605.312308 
L 533.47788 605.312308 
L 537.063369 605.312308 
L 540.596663 605.312308 
L 543.744211 605.312308 
L 547.100127 605.312308 
L 550.425053 605.312308 
L 553.753242 605.312308 
L 557.105896 605.312308 
L 560.64286 605.312308 
L 563.786738 605.312308 
L 567.416674 605.312308 
L 570.467581 605.312308 
L 572.48806 605.312308 
L 574.235341 605.312308 
L 575.774026 605.312308 
L 577.148423 605.312308 
L 578.893977 605.312308 
L 580.590786 605.312308 
L 582.236512 605.312308 
L 583.829265 605.312308 
L 585.170972 605.312308 
L 585.978345 605.312308 
L 586.689338 605.312308 
L 587.565631 605.312308 
L 588.440213 605.312308 
L 589.393295 605.312308 
L 590.510108 605.312308 
L 591.006574 605.312308 
L 591.536623 605.312308 
L 592.09897 605.312308 
L 592.691486 605.312308 
L 593.836984 605.312308 
L 595.007931 605.312308 
L 596.17812 605.312308 
L 597.43789 605.312308 
L 598.641338 605.312308 
L 599.95542 605.312308 
L 601.139458 605.312308 
L 602.456615 605.312308 
L 603.58178 605.312308 
L 604.861979 605.312308 
L 607.17568 605.312308 
L 609.400733 605.312308 
L 611.62836 605.312308 
L 613.948134 605.312308 
L 616.355835 605.312308 
L 618.846045 605.312308 
L 622.080194 605.312308 
L 625.776244 605.312308 
L 629.202701 605.312308 
L 632.80417 605.312308 
L 637.73667 605.312308 
L 642.249482 605.312308 
L 647.181983 605.312308 
L 656.627295 605.312308 
L 666.072608 605.312308 
L 675.51792 605.312308 
L 684.963233 605.312308 
L 694.408545 605.312308 
L 703.853858 605.312308 
L 713.29917 605.312308 
L 722.744483 605.312308 
L 741.635108 605.312308 
L 753.458468 605.312308 
L 765.81912 605.312308 
L 777.874829 605.312308 
L 788.86167 605.312308 
L 798.306983 605.312308 
L 807.092784 605.312308 
L 817.197608 605.312308 
L 817.197608 592.613564 
L 817.197608 592.613564 
L 807.092784 592.648949 
L 798.306983 592.750096 
L 788.86167 592.842053 
L 777.874829 592.951722 
L 765.81912 593.046716 
L 753.458468 593.146213 
L 741.635108 593.222186 
L 722.744483 593.150311 
L 713.29917 593.205109 
L 703.853858 592.871398 
L 694.408545 592.873192 
L 684.963233 592.877727 
L 675.51792 592.820463 
L 666.072608 592.74135 
L 656.627295 592.612298 
L 647.181983 592.456575 
L 642.249482 592.561776 
L 637.73667 592.676465 
L 632.80417 592.74362 
L 629.202701 592.874341 
L 625.776244 593.063238 
L 622.080194 593.190749 
L 618.846045 593.427063 
L 616.355835 593.608509 
L 613.948134 593.888559 
L 611.62836 594.079246 
L 609.400733 594.3862 
L 607.17568 594.600237 
L 604.861979 594.926173 
L 603.58178 595.135614 
L 602.456615 595.433299 
L 601.139458 595.652629 
L 599.95542 595.945298 
L 598.641338 596.185516 
L 597.43789 596.476128 
L 596.17812 596.738689 
L 595.007931 597.024443 
L 593.836984 597.295729 
L 592.691486 597.56514 
L 592.09897 597.795323 
L 591.536623 597.997069 
L 591.006574 598.177616 
L 590.510108 598.303958 
L 589.393295 598.412175 
L 588.440213 598.433967 
L 587.565631 598.422439 
L 586.689338 598.299245 
L 585.978345 598.110554 
L 585.170972 597.78489 
L 583.829265 597.44344 
L 582.236512 596.895505 
L 580.590786 596.24391 
L 578.893977 595.389909 
L 577.148423 594.42371 
L 575.774026 593.284156 
L 574.235341 592.018626 
L 572.48806 590.564378 
L 570.467581 588.978458 
L 567.416674 587.12399 
L 563.786738 585.103802 
L 560.64286 582.986309 
L 557.105896 580.720699 
L 553.753242 578.476922 
L 550.425053 576.218561 
L 547.100127 573.907557 
L 543.744211 571.594011 
L 540.596663 569.301827 
L 537.063369 566.958004 
L 533.47788 564.611726 
L 530.382526 562.410135 
L 527.248435 560.235736 
L 523.701684 558.022911 
L 520.529262 556.656451 
L 517.020842 555.528108 
L 513.575217 554.25188 
L 510.339999 553.335054 
L 506.946976 551.311987 
L 503.659157 549.120709 
L 500.205377 547.112174 
L 496.978314 544.998182 
L 493.589155 542.940428 
L 490.325069 540.976875 
L 487.02499 539.015787 
L 483.958078 537.136767 
L 480.842577 535.33021 
L 477.975382 533.617899 
L 475.19253 532.03154 
L 472.396058 530.577388 
L 469.759827 529.281692 
L 467.21716 528.138996 
L 464.811613 527.080076 
L 462.425952 526.307723 
L 460.314271 525.55629 
L 458.002814 524.950011 
L 455.933062 524.43177 
L 453.926016 523.817357 
L 451.951214 523.194381 
L 450.174259 522.584269 
L 448.530584 521.812695 
L 446.721698 520.891266 
L 445.155995 519.963353 
L 443.549241 518.884798 
L 442.106467 517.568591 
L 440.63164 516.050378 
L 439.269923 514.248497 
L 437.951073 512.244613 
L 435.488341 509.496942 
L 433.224812 506.473163 
L 431.143679 503.096845 
L 429.229604 499.458484 
L 426.834965 494.960958 
L 424.358264 490.550949 
L 422.367082 486.390933 
L 420.545322 482.462968 
L 418.59025 478.336275 
L 416.601479 473.459389 
L 414.385383 467.001973 
L 411.962005 460.561885 
L 410.106215 455.885546 
L 408.375361 451.68698 
L 406.894263 448.253437 
L 405.289681 445.241873 
L 403.610952 442.89332 
L 401.701247 440.982827 
L 399.899373 439.930054 
L 398.043583 439.503378 
L 396.651741 440.101717 
L 395.259899 441.261522 
L 393.28631 443.247307 
L 391.54832 445.824312 
L 390.578063 449.439657 
L 389.69253 454.063053 
L 388.764636 459.433724 
L 387.836741 465.962837 
L 386.908846 473.747679 
L 385.980951 482.816731 
L 385.053056 493.067427 
L 384.125162 504.288338 
L 383.197267 518.39237 
L 382.269372 533.021973 
L 381.341477 547.03374 
L 380.832336 555.792018 
L 380.413583 564.09979 
L 379.945558 571.391279 
L 379.485688 577.581708 
L 379.000786 583.795934 
L 378.557793 588.756021 
L 378.056467 594.80117 
L 377.629898 599.098246 
L 377.181086 602.662046 
L 376.702003 605.123425 
L 376.42634 604.138936 
L 376.100674 603.160559 
L 375.781185 602.52089 
L 375.42959 602.061722 
L 374.808605 601.296291 
L 374.157176 600.742201 
L 373.578284 600.284619 
L 372.884762 599.942723 
L 371.612349 599.744419 
L 370.339935 599.620089 
L 367.795107 599.025978 
L 365.100791 599.290366 
L 362.015801 599.848953 
L 358.098232 600.243468 
L 353.582193 600.477194 
L 347.240659 600.743706 
L 338.743693 601.031268 
L 330.136629 601.336631 
L 322.042849 601.654597 
L 314.293433 601.94668 
L 306.108307 602.165357 
L 291.4797 602.698607 
L 277.872644 603.145551 
L 265.803879 603.547831 
L 253.442863 603.944575 
L 242.378625 604.237069 
L 232.059762 604.478008 
L 222.461467 604.700639 
L 215.666289 604.820686 
L 209.304744 604.912847 
L 201.294329 605.014316 
L 193.842604 605.09044 
L 186.901027 605.148121 
L 180.46251 605.191539 
L 174.585426 605.221451 
L 168.88361 605.24508 
L 163.692746 605.262566 
L 158.23472 605.279527 
L 152.242772 605.291261 
L 146.343341 605.298837 
L 140.906123 605.303921 
L 136.064903 605.307035 
L 131.894699 605.308726 
L 126.505652 605.31041 
L 121.795163 605.311572 
L 117.772298 605.31201 
L 114.380297 605.312166 
L 110.878308 605.312233 
L 107.979517 605.312265 
L 105.819849 605.312279 
L 103.578522 605.312284 
L 101.273505 605.31229 
L 99.991406 605.312294 
L 98.820976 605.312296 
L 97.579316 605.312298 
L 96.397416 605.3123 
L 95.299612 605.312302 
L 94.171374 605.312303 
L 93.099922 605.312304 
L 92.004934 605.312304 
L 90.129589 605.312305 
L 88.857321 605.312306 
L 87.435066 605.312306 
L 84.740543 605.312307 
L 83.42602 605.312307 
L 82.213061 605.312307 
L 80.785425 605.312307 
L 79.049287 605.312308 
L 76.852227 605.312308 
L 73.741466 605.312308 
L 69.481777 605.312308 
L 63.647806 605.312308 
L 55.656948 605.312308 
L 44.711179 605.312308 
L 29.717351 605.312308 
L 9.178043 605.312308 
z
" clip-path="url(#pbb2abf488c)" style="fill: #1f77b4"/>
   </g>
   <g id="PolyCollection_2">
    <path d="M 9.178043 605.312308 
L 9.178043 605.312308 
L 29.717351 605.312308 
L 44.711179 605.312308 
L 55.656948 605.312308 
L 63.647806 605.312308 
L 69.481777 605.312308 
L 73.741466 605.312308 
L 76.852227 605.312308 
L 79.049287 605.312308 
L 80.785425 605.312307 
L 82.213061 605.312307 
L 83.42602 605.312307 
L 84.740543 605.312307 
L 87.435066 605.312306 
L 88.857321 605.312306 
L 90.129589 605.312305 
L 92.004934 605.312304 
L 93.099922 605.312304 
L 94.171374 605.312303 
L 95.299612 605.312302 
L 96.397416 605.3123 
L 97.579316 605.312298 
L 98.820976 605.312296 
L 99.991406 605.312294 
L 101.273505 605.31229 
L 103.578522 605.312284 
L 105.819849 605.312279 
L 107.979517 605.312265 
L 110.878308 605.312233 
L 114.380297 605.312166 
L 117.772298 605.31201 
L 121.795163 605.311572 
L 126.505652 605.31041 
L 131.894699 605.308726 
L 136.064903 605.307035 
L 140.906123 605.303921 
L 146.343341 605.298837 
L 152.242772 605.291261 
L 158.23472 605.279527 
L 163.692746 605.262566 
L 168.88361 605.24508 
L 174.585426 605.221451 
L 180.46251 605.191539 
L 186.901027 605.148121 
L 193.842604 605.09044 
L 201.294329 605.014316 
L 209.304744 604.912847 
L 215.666289 604.820686 
L 222.461467 604.700639 
L 232.059762 604.478008 
L 242.378625 604.237069 
L 253.442863 603.944575 
L 265.803879 603.547831 
L 277.872644 603.145551 
L 291.4797 602.698607 
L 306.108307 602.165357 
L 314.293433 601.94668 
L 322.042849 601.654597 
L 330.136629 601.336631 
L 338.743693 601.031268 
L 347.240659 600.743706 
L 353.582193 600.477194 
L 358.098232 600.243468 
L 362.015801 599.848953 
L 365.100791 599.290366 
L 367.795107 599.025978 
L 370.339935 599.620089 
L 371.612349 599.744419 
L 372.884762 599.942723 
L 373.578284 600.284619 
L 374.157176 600.742201 
L 374.808605 601.296291 
L 375.42959 602.061722 
L 375.781185 602.52089 
L 376.100674 603.160559 
L 376.42634 604.138936 
L 376.702003 605.123425 
L 377.181086 602.662046 
L 377.629898 599.098246 
L 378.056467 594.80117 
L 378.557793 588.756021 
L 379.000786 583.795934 
L 379.485688 577.581708 
L 379.945558 571.391279 
L 380.413583 564.09979 
L 380.832336 555.792018 
L 381.341477 547.03374 
L 382.269372 533.021973 
L 383.197267 518.39237 
L 384.125162 504.288338 
L 385.053056 493.067427 
L 385.980951 482.816731 
L 386.908846 473.747679 
L 387.836741 465.962837 
L 388.764636 459.433724 
L 389.69253 454.063053 
L 390.578063 449.439657 
L 391.54832 445.824312 
L 393.28631 443.247307 
L 395.259899 441.261522 
L 396.651741 440.101717 
L 398.043583 439.503378 
L 399.899373 439.930054 
L 401.701247 440.982827 
L 403.610952 442.89332 
L 405.289681 445.241873 
L 406.894263 448.253437 
L 408.375361 451.68698 
L 410.106215 455.885546 
L 411.962005 460.561885 
L 414.385383 467.001973 
L 416.601479 473.459389 
L 418.59025 478.336275 
L 420.545322 482.462968 
L 422.367082 486.390933 
L 424.358264 490.550949 
L 426.834965 494.960958 
L 429.229604 499.458484 
L 431.143679 503.096845 
L 433.224812 506.473163 
L 435.488341 509.496942 
L 437.951073 512.244613 
L 439.269923 514.248497 
L 440.63164 516.050378 
L 442.106467 517.568591 
L 443.549241 518.884798 
L 445.155995 519.963353 
L 446.721698 520.891266 
L 448.530584 521.812695 
L 450.174259 522.584269 
L 451.951214 523.194381 
L 453.926016 523.817357 
L 455.933062 524.43177 
L 458.002814 524.950011 
L 460.314271 525.55629 
L 462.425952 526.307723 
L 464.811613 527.080076 
L 467.21716 528.138996 
L 469.759827 529.281692 
L 472.396058 530.577388 
L 475.19253 532.03154 
L 477.975382 533.617899 
L 480.842577 535.33021 
L 483.958078 537.136767 
L 487.02499 539.015787 
L 490.325069 540.976875 
L 493.589155 542.940428 
L 496.978314 544.998182 
L 500.205377 547.112174 
L 503.659157 549.120709 
L 506.946976 551.311987 
L 510.339999 553.335054 
L 513.575217 554.25188 
L 517.020842 555.528108 
L 520.529262 556.656451 
L 523.701684 558.022911 
L 527.248435 560.235736 
L 530.382526 562.410135 
L 533.47788 564.611726 
L 537.063369 566.958004 
L 540.596663 569.301827 
L 543.744211 571.594011 
L 547.100127 573.907557 
L 550.425053 576.218561 
L 553.753242 578.476922 
L 557.105896 580.720699 
L 560.64286 582.986309 
L 563.786738 585.103802 
L 567.416674 587.12399 
L 570.467581 588.978458 
L 572.48806 590.564378 
L 574.235341 592.018626 
L 575.774026 593.284156 
L 577.148423 594.42371 
L 578.893977 595.389909 
L 580.590786 596.24391 
L 582.236512 596.895505 
L 583.829265 597.44344 
L 585.170972 597.78489 
L 585.978345 598.110554 
L 586.689338 598.299245 
L 587.565631 598.422439 
L 588.440213 598.433967 
L 589.393295 598.412175 
L 590.510108 598.303958 
L 591.006574 598.177616 
L 591.536623 597.997069 
L 592.09897 597.795323 
L 592.691486 597.56514 
L 593.836984 597.295729 
L 595.007931 597.024443 
L 596.17812 596.738689 
L 597.43789 596.476128 
L 598.641338 596.185516 
L 599.95542 595.945298 
L 601.139458 595.652629 
L 602.456615 595.433299 
L 603.58178 595.135614 
L 604.861979 594.926173 
L 607.17568 594.600237 
L 609.400733 594.3862 
L 611.62836 594.079246 
L 613.948134 593.888559 
L 616.355835 593.608509 
L 618.846045 593.427063 
L 622.080194 593.190749 
L 625.776244 593.063238 
L 629.202701 592.874341 
L 632.80417 592.74362 
L 637.73667 592.676465 
L 642.249482 592.561776 
L 647.181983 592.456575 
L 656.627295 592.612298 
L 666.072608 592.74135 
L 675.51792 592.820463 
L 684.963233 592.877727 
L 694.408545 592.873192 
L 703.853858 592.871398 
L 713.29917 593.205109 
L 722.744483 593.150311 
L 741.635108 593.222186 
L 753.458468 593.146213 
L 765.81912 593.046716 
L 777.874829 592.951722 
L 788.86167 592.842053 
L 798.306983 592.750096 
L 807.092784 592.648949 
L 817.197608 592.613564 
L 817.197608 578.074762 
L 817.197608 578.074762 
L 807.092784 578.11599 
L 798.306983 578.21416 
L 788.86167 578.315547 
L 777.874829 578.436906 
L 765.81912 578.553023 
L 753.458468 578.663414 
L 741.635108 578.771327 
L 722.744483 578.709947 
L 713.29917 578.770346 
L 703.853858 578.449686 
L 694.408545 578.491376 
L 684.963233 578.467059 
L 675.51792 578.444994 
L 666.072608 578.390636 
L 656.627295 578.30178 
L 647.181983 578.1717 
L 642.249482 578.310681 
L 637.73667 578.434801 
L 632.80417 578.526142 
L 629.202701 578.665104 
L 625.776244 578.857273 
L 622.080194 578.972699 
L 618.846045 579.203287 
L 616.355835 579.389814 
L 613.948134 579.681537 
L 611.62836 579.887896 
L 609.400733 580.221775 
L 607.17568 580.471814 
L 604.861979 580.845232 
L 603.58178 581.096954 
L 602.456615 581.416585 
L 601.139458 581.677349 
L 599.95542 581.986211 
L 598.641338 582.267287 
L 597.43789 582.569424 
L 596.17812 582.85921 
L 595.007931 583.140698 
L 593.836984 583.435576 
L 592.691486 583.698789 
L 592.09897 583.86888 
L 591.536623 583.978706 
L 591.006574 584.045312 
L 590.510108 584.024691 
L 589.393295 584.085928 
L 588.440213 584.004727 
L 587.565631 583.887463 
L 586.689338 583.628363 
L 585.978345 583.32276 
L 585.170972 582.879598 
L 583.829265 582.617305 
L 582.236512 582.281864 
L 580.590786 581.781984 
L 578.893977 581.268029 
L 577.148423 580.534699 
L 575.774026 579.87162 
L 574.235341 578.921065 
L 572.48806 578.070677 
L 570.467581 576.878059 
L 567.416674 575.71481 
L 563.786738 574.132392 
L 560.64286 572.747055 
L 557.105896 570.938876 
L 553.753242 568.700952 
L 550.425053 566.439362 
L 547.100127 563.99114 
L 543.744211 561.549742 
L 540.596663 559.196626 
L 537.063369 556.878874 
L 533.47788 554.440809 
L 530.382526 552.088029 
L 527.248435 549.853397 
L 523.701684 547.676957 
L 520.529262 546.656395 
L 517.020842 546.183885 
L 513.575217 545.241929 
L 510.339999 544.84138 
L 506.946976 543.154113 
L 503.659157 541.251637 
L 500.205377 539.56005 
L 496.978314 537.753256 
L 493.589155 536.011411 
L 490.325069 534.413273 
L 487.02499 532.809271 
L 483.958078 531.297348 
L 480.842577 529.853454 
L 477.975382 528.476733 
L 475.19253 527.206044 
L 472.396058 526.02929 
L 469.759827 524.987825 
L 467.21716 524.03081 
L 464.811613 523.144676 
L 462.425952 522.49175 
L 460.314271 521.886732 
L 458.002814 521.33739 
L 455.933062 520.983608 
L 453.926016 520.405246 
L 451.951214 519.971177 
L 450.174259 519.447932 
L 448.530584 518.914577 
L 446.721698 518.143939 
L 445.155995 517.360742 
L 443.549241 516.39715 
L 442.106467 515.188987 
L 440.63164 513.746356 
L 439.269923 512.07066 
L 437.951073 510.155555 
L 435.488341 507.639224 
L 433.224812 504.845058 
L 431.143679 501.674584 
L 429.229604 498.217852 
L 426.834965 493.965493 
L 424.358264 489.782667 
L 422.367082 485.794284 
L 420.545322 481.996249 
L 418.59025 478.028595 
L 416.601479 473.301395 
L 414.385383 466.794645 
L 411.962005 460.427987 
L 410.106215 455.862215 
L 408.375361 451.559796 
L 406.894263 447.98544 
L 405.289681 444.757996 
L 403.610952 442.214054 
L 401.701247 440.128895 
L 399.899373 438.863328 
L 398.043583 438.355001 
L 396.651741 438.712876 
L 395.259899 439.74252 
L 393.28631 441.774943 
L 391.54832 444.660744 
L 390.578063 447.758393 
L 389.69253 451.741842 
L 388.764636 457.252778 
L 387.836741 463.57268 
L 386.908846 471.480686 
L 385.980951 480.327043 
L 385.053056 490.683757 
L 384.125162 501.737149 
L 383.197267 517.556338 
L 382.269372 531.672433 
L 381.341477 543.070232 
L 380.832336 552.164643 
L 380.413583 560.9745 
L 379.945558 568.633521 
L 379.485688 575.117573 
L 379.000786 581.535385 
L 378.557793 586.663743 
L 378.056467 591.979054 
L 377.629898 595.691329 
L 377.181086 598.874687 
L 376.702003 601.136822 
L 376.42634 600.522967 
L 376.100674 599.65024 
L 375.781185 599.386666 
L 375.42959 599.035404 
L 374.808605 598.472548 
L 374.157176 598.04768 
L 373.578284 597.93611 
L 372.884762 597.782451 
L 371.612349 597.973425 
L 370.339935 598.042836 
L 367.795107 597.940502 
L 365.100791 598.358643 
L 362.015801 599.137094 
L 358.098232 599.637981 
L 353.582193 600.027355 
L 347.240659 600.342509 
L 338.743693 600.735161 
L 330.136629 601.071248 
L 322.042849 601.433269 
L 314.293433 601.730776 
L 306.108307 601.998261 
L 291.4797 602.576978 
L 277.872644 603.060581 
L 265.803879 603.479918 
L 253.442863 603.905402 
L 242.378625 604.203603 
L 232.059762 604.456744 
L 222.461467 604.682075 
L 215.666289 604.808601 
L 209.304744 604.90187 
L 201.294329 605.007404 
L 193.842604 605.084306 
L 186.901027 605.144258 
L 180.46251 605.188087 
L 174.585426 605.219263 
L 168.88361 605.243141 
L 163.692746 605.261332 
L 158.23472 605.278739 
L 152.242772 605.29088 
L 146.343341 605.298622 
L 140.906123 605.303858 
L 136.064903 605.306998 
L 131.894699 605.308715 
L 126.505652 605.310387 
L 121.795163 605.311543 
L 117.772298 605.311993 
L 114.380297 605.312153 
L 110.878308 605.312226 
L 107.979517 605.312259 
L 105.819849 605.312276 
L 103.578522 605.312282 
L 101.273505 605.312289 
L 99.991406 605.312294 
L 98.820976 605.312296 
L 97.579316 605.312298 
L 96.397416 605.3123 
L 95.299612 605.312302 
L 94.171374 605.312303 
L 93.099922 605.312304 
L 92.004934 605.312304 
L 90.129589 605.312305 
L 88.857321 605.312306 
L 87.435066 605.312306 
L 84.740543 605.312307 
L 83.42602 605.312307 
L 82.213061 605.312307 
L 80.785425 605.312307 
L 79.049287 605.312308 
L 76.852227 605.312308 
L 73.741466 605.312308 
L 69.481777 605.312308 
L 63.647806 605.312308 
L 55.656948 605.312308 
L 44.711179 605.312308 
L 29.717351 605.312308 
L 9.178043 605.312308 
z
" clip-path="url(#pbb2abf488c)" style="fill: #ff7f0e"/>
   </g>
   <g id="PolyCollection_3">
    <path d="M 9.178043 605.312308 
L 9.178043 605.312308 
L 29.717351 605.312308 
L 44.711179 605.312308 
L 55.656948 605.312308 
L 63.647806 605.312308 
L 69.481777 605.312308 
L 73.741466 605.312308 
L 76.852227 605.312308 
L 79.049287 605.312308 
L 80.785425 605.312307 
L 82.213061 605.312307 
L 83.42602 605.312307 
L 84.740543 605.312307 
L 87.435066 605.312306 
L 88.857321 605.312306 
L 90.129589 605.312305 
L 92.004934 605.312304 
L 93.099922 605.312304 
L 94.171374 605.312303 
L 95.299612 605.312302 
L 96.397416 605.3123 
L 97.579316 605.312298 
L 98.820976 605.312296 
L 99.991406 605.312294 
L 101.273505 605.312289 
L 103.578522 605.312282 
L 105.819849 605.312276 
L 107.979517 605.312259 
L 110.878308 605.312226 
L 114.380297 605.312153 
L 117.772298 605.311993 
L 121.795163 605.311543 
L 126.505652 605.310387 
L 131.894699 605.308715 
L 136.064903 605.306998 
L 140.906123 605.303858 
L 146.343341 605.298622 
L 152.242772 605.29088 
L 158.23472 605.278739 
L 163.692746 605.261332 
L 168.88361 605.243141 
L 174.585426 605.219263 
L 180.46251 605.188087 
L 186.901027 605.144258 
L 193.842604 605.084306 
L 201.294329 605.007404 
L 209.304744 604.90187 
L 215.666289 604.808601 
L 222.461467 604.682075 
L 232.059762 604.456744 
L 242.378625 604.203603 
L 253.442863 603.905402 
L 265.803879 603.479918 
L 277.872644 603.060581 
L 291.4797 602.576978 
L 306.108307 601.998261 
L 314.293433 601.730776 
L 322.042849 601.433269 
L 330.136629 601.071248 
L 338.743693 600.735161 
L 347.240659 600.342509 
L 353.582193 600.027355 
L 358.098232 599.637981 
L 362.015801 599.137094 
L 365.100791 598.358643 
L 367.795107 597.940502 
L 370.339935 598.042836 
L 371.612349 597.973425 
L 372.884762 597.782451 
L 373.578284 597.93611 
L 374.157176 598.04768 
L 374.808605 598.472548 
L 375.42959 599.035404 
L 375.781185 599.386666 
L 376.100674 599.65024 
L 376.42634 600.522967 
L 376.702003 601.136822 
L 377.181086 598.874687 
L 377.629898 595.691329 
L 378.056467 591.979054 
L 378.557793 586.663743 
L 379.000786 581.535385 
L 379.485688 575.117573 
L 379.945558 568.633521 
L 380.413583 560.9745 
L 380.832336 552.164643 
L 381.341477 543.070232 
L 382.269372 531.672433 
L 383.197267 517.556338 
L 384.125162 501.737149 
L 385.053056 490.683757 
L 385.980951 480.327043 
L 386.908846 471.480686 
L 387.836741 463.57268 
L 388.764636 457.252778 
L 389.69253 451.741842 
L 390.578063 447.758393 
L 391.54832 444.660744 
L 393.28631 441.774943 
L 395.259899 439.74252 
L 396.651741 438.712876 
L 398.043583 438.355001 
L 399.899373 438.863328 
L 401.701247 440.128895 
L 403.610952 442.214054 
L 405.289681 444.757996 
L 406.894263 447.98544 
L 408.375361 451.559796 
L 410.106215 455.862215 
L 411.962005 460.427987 
L 414.385383 466.794645 
L 416.601479 473.301395 
L 418.59025 478.028595 
L 420.545322 481.996249 
L 422.367082 485.794284 
L 424.358264 489.782667 
L 426.834965 493.965493 
L 429.229604 498.217852 
L 431.143679 501.674584 
L 433.224812 504.845058 
L 435.488341 507.639224 
L 437.951073 510.155555 
L 439.269923 512.07066 
L 440.63164 513.746356 
L 442.106467 515.188987 
L 443.549241 516.39715 
L 445.155995 517.360742 
L 446.721698 518.143939 
L 448.530584 518.914577 
L 450.174259 519.447932 
L 451.951214 519.971177 
L 453.926016 520.405246 
L 455.933062 520.983608 
L 458.002814 521.33739 
L 460.314271 521.886732 
L 462.425952 522.49175 
L 464.811613 523.144676 
L 467.21716 524.03081 
L 469.759827 524.987825 
L 472.396058 526.02929 
L 475.19253 527.206044 
L 477.975382 528.476733 
L 480.842577 529.853454 
L 483.958078 531.297348 
L 487.02499 532.809271 
L 490.325069 534.413273 
L 493.589155 536.011411 
L 496.978314 537.753256 
L 500.205377 539.56005 
L 503.659157 541.251637 
L 506.946976 543.154113 
L 510.339999 544.84138 
L 513.575217 545.241929 
L 517.020842 546.183885 
L 520.529262 546.656395 
L 523.701684 547.676957 
L 527.248435 549.853397 
L 530.382526 552.088029 
L 533.47788 554.440809 
L 537.063369 556.878874 
L 540.596663 559.196626 
L 543.744211 561.549742 
L 547.100127 563.99114 
L 550.425053 566.439362 
L 553.753242 568.700952 
L 557.105896 570.938876 
L 560.64286 572.747055 
L 563.786738 574.132392 
L 567.416674 575.71481 
L 570.467581 576.878059 
L 572.48806 578.070677 
L 574.235341 578.921065 
L 575.774026 579.87162 
L 577.148423 580.534699 
L 578.893977 581.268029 
L 580.590786 581.781984 
L 582.236512 582.281864 
L 583.829265 582.617305 
L 585.170972 582.879598 
L 585.978345 583.32276 
L 586.689338 583.628363 
L 587.565631 583.887463 
L 588.440213 584.004727 
L 589.393295 584.085928 
L 590.510108 584.024691 
L 591.006574 584.045312 
L 591.536623 583.978706 
L 592.09897 583.86888 
L 592.691486 583.698789 
L 593.836984 583.435576 
L 595.007931 583.140698 
L 596.17812 582.85921 
L 597.43789 582.569424 
L 598.641338 582.267287 
L 599.95542 581.986211 
L 601.139458 581.677349 
L 602.456615 581.416585 
L 603.58178 581.096954 
L 604.861979 580.845232 
L 607.17568 580.471814 
L 609.400733 580.221775 
L 611.62836 579.887896 
L 613.948134 579.681537 
L 616.355835 579.389814 
L 618.846045 579.203287 
L 622.080194 578.972699 
L 625.776244 578.857273 
L 629.202701 578.665104 
L 632.80417 578.526142 
L 637.73667 578.434801 
L 642.249482 578.310681 
L 647.181983 578.1717 
L 656.627295 578.30178 
L 666.072608 578.390636 
L 675.51792 578.444994 
L 684.963233 578.467059 
L 694.408545 578.491376 
L 703.853858 578.449686 
L 713.29917 578.770346 
L 722.744483 578.709947 
L 741.635108 578.771327 
L 753.458468 578.663414 
L 765.81912 578.553023 
L 777.874829 578.436906 
L 788.86167 578.315547 
L 798.306983 578.21416 
L 807.092784 578.11599 
L 817.197608 578.074762 
L 817.197608 561.337326 
L 817.197608 561.337326 
L 807.092784 561.404516 
L 798.306983 561.530724 
L 788.86167 561.708359 
L 777.874829 561.963444 
L 765.81912 562.288942 
L 753.458468 562.670768 
L 741.635108 563.102999 
L 722.744483 563.721892 
L 713.29917 564.170667 
L 703.853858 564.480308 
L 694.408545 565.013267 
L 684.963233 565.522412 
L 675.51792 566.191224 
L 666.072608 566.878364 
L 656.627295 567.583414 
L 647.181983 568.288787 
L 642.249482 568.849264 
L 637.73667 569.35534 
L 632.80417 569.954421 
L 629.202701 570.427155 
L 625.776244 570.913726 
L 622.080194 571.323612 
L 618.846045 571.76111 
L 616.355835 572.091324 
L 613.948134 572.485403 
L 611.62836 572.774858 
L 609.400733 573.142627 
L 607.17568 573.426854 
L 604.861979 573.797106 
L 603.58178 574.044938 
L 602.456615 574.351171 
L 601.139458 574.615634 
L 599.95542 574.922241 
L 598.641338 575.222411 
L 597.43789 575.543112 
L 596.17812 575.861756 
L 595.007931 576.180081 
L 593.836984 576.520719 
L 592.691486 576.844333 
L 592.09897 577.141598 
L 591.536623 577.404823 
L 591.006574 577.675362 
L 590.510108 577.895684 
L 589.393295 578.195609 
L 588.440213 578.412146 
L 587.565631 578.588367 
L 586.689338 578.675084 
L 585.978345 578.741978 
L 585.170972 578.707068 
L 583.829265 578.646783 
L 582.236512 578.571022 
L 580.590786 578.34832 
L 578.893977 578.128372 
L 577.148423 577.705844 
L 575.774026 577.309591 
L 574.235341 576.659564 
L 572.48806 576.147213 
L 570.467581 575.336349 
L 567.416674 574.751572 
L 563.786738 573.844693 
L 560.64286 572.434034 
L 557.105896 569.965274 
L 553.753242 566.304524 
L 550.425053 562.572161 
L 547.100127 558.633594 
L 543.744211 554.673486 
L 540.596663 550.782646 
L 537.063369 546.939125 
L 533.47788 542.993605 
L 530.382526 539.112546 
L 527.248435 535.375437 
L 523.701684 531.747473 
L 520.529262 530.050777 
L 517.020842 529.244256 
L 513.575217 527.785538 
L 510.339999 527.160298 
L 506.946976 525.309771 
L 503.659157 523.07372 
L 500.205377 521.248858 
L 496.978314 519.24994 
L 493.589155 517.375258 
L 490.325069 515.720272 
L 487.02499 514.026143 
L 483.958078 512.482729 
L 480.842577 510.956835 
L 477.975382 509.529235 
L 475.19253 508.154775 
L 472.396058 506.863612 
L 469.759827 505.649481 
L 467.21716 504.513895 
L 464.811613 503.319944 
L 462.425952 502.48094 
L 460.314271 501.587597 
L 458.002814 500.699537 
L 455.933062 500.069974 
L 453.926016 499.024943 
L 451.951214 498.14534 
L 450.174259 497.212103 
L 448.530584 496.24621 
L 446.721698 494.924229 
L 445.155995 493.090959 
L 443.549241 491.018163 
L 442.106467 488.668035 
L 440.63164 486.014318 
L 439.269923 483.084099 
L 437.951073 479.847079 
L 435.488341 475.864376 
L 433.224812 471.590095 
L 431.143679 466.93241 
L 429.229604 461.989894 
L 426.834965 456.285815 
L 424.358264 450.591495 
L 422.367082 445.020068 
L 420.545322 439.62326 
L 418.59025 433.990855 
L 416.601479 427.51117 
L 414.385383 418.847589 
L 411.962005 410.538995 
L 410.106215 404.697038 
L 408.375361 399.231922 
L 406.894263 394.776598 
L 405.289681 390.875747 
L 403.610952 387.921944 
L 401.701247 385.631961 
L 399.899373 384.488237 
L 398.043583 384.472333 
L 396.651741 385.657865 
L 395.259899 387.821393 
L 393.28631 390.971254 
L 391.54832 395.312007 
L 390.578063 400.732686 
L 389.69253 407.544778 
L 388.764636 415.45187 
L 387.836741 424.359985 
L 386.908846 435.031496 
L 385.980951 446.788789 
L 385.053056 460.170623 
L 384.125162 474.372383 
L 383.197267 490.730132 
L 382.269372 505.456625 
L 381.341477 517.590144 
L 380.832336 530.503043 
L 380.413583 542.883968 
L 379.945558 553.721801 
L 379.485688 562.989325 
L 379.000786 571.840701 
L 378.557793 579.089862 
L 378.056467 585.277091 
L 377.629898 589.661803 
L 377.181086 593.381299 
L 376.702003 596.203479 
L 376.42634 596.417779 
L 376.100674 596.186957 
L 375.781185 596.490793 
L 375.42959 596.629207 
L 374.808605 595.951099 
L 374.157176 595.589757 
L 373.578284 595.239225 
L 372.884762 595.133797 
L 371.612349 595.526745 
L 370.339935 595.949655 
L 367.795107 596.360647 
L 365.100791 597.603175 
L 362.015801 598.576192 
L 358.098232 599.146329 
L 353.582193 599.52908 
L 347.240659 599.897448 
L 338.743693 600.283043 
L 330.136629 600.657594 
L 322.042849 601.092564 
L 314.293433 601.503711 
L 306.108307 601.828363 
L 291.4797 602.504314 
L 277.872644 603.003412 
L 265.803879 603.350562 
L 253.442863 603.753939 
L 242.378625 604.016245 
L 232.059762 604.260621 
L 222.461467 604.504986 
L 215.666289 604.64921 
L 209.304744 604.753702 
L 201.294329 604.875282 
L 193.842604 604.968527 
L 186.901027 605.046076 
L 180.46251 605.106446 
L 174.585426 605.151489 
L 168.88361 605.188058 
L 163.692746 605.217189 
L 158.23472 605.247575 
L 152.242772 605.26914 
L 146.343341 605.283502 
L 140.906123 605.293681 
L 136.064903 605.300198 
L 131.894699 605.304212 
L 126.505652 605.307923 
L 121.795163 605.310374 
L 117.772298 605.31137 
L 114.380297 605.311767 
L 110.878308 605.311981 
L 107.979517 605.312108 
L 105.819849 605.312169 
L 103.578522 605.312201 
L 101.273505 605.312232 
L 99.991406 605.312245 
L 98.820976 605.312255 
L 97.579316 605.312264 
L 96.397416 605.312272 
L 95.299612 605.312277 
L 94.171374 605.312282 
L 93.099922 605.312286 
L 92.004934 605.31229 
L 90.129589 605.312295 
L 88.857321 605.312297 
L 87.435066 605.3123 
L 84.740543 605.312303 
L 83.42602 605.312305 
L 82.213061 605.312306 
L 80.785425 605.312306 
L 79.049287 605.312307 
L 76.852227 605.312307 
L 73.741466 605.312307 
L 69.481777 605.312307 
L 63.647806 605.312308 
L 55.656948 605.312308 
L 44.711179 605.312308 
L 29.717351 605.312308 
L 9.178043 605.312308 
z
" clip-path="url(#pbb2abf488c)" style="fill: #2ca02c"/>
   </g>
   <g id="PolyCollection_4">
    <path d="M 9.178043 18.927692 
L 9.178043 605.312308 
L 29.717351 605.312308 
L 44.711179 605.312308 
L 55.656948 605.312308 
L 63.647806 605.312308 
L 69.481777 605.312307 
L 73.741466 605.312307 
L 76.852227 605.312307 
L 79.049287 605.312307 
L 80.785425 605.312306 
L 82.213061 605.312306 
L 83.42602 605.312305 
L 84.740543 605.312303 
L 87.435066 605.3123 
L 88.857321 605.312297 
L 90.129589 605.312295 
L 92.004934 605.31229 
L 93.099922 605.312286 
L 94.171374 605.312282 
L 95.299612 605.312277 
L 96.397416 605.312272 
L 97.579316 605.312264 
L 98.820976 605.312255 
L 99.991406 605.312245 
L 101.273505 605.312232 
L 103.578522 605.312201 
L 105.819849 605.312169 
L 107.979517 605.312108 
L 110.878308 605.311981 
L 114.380297 605.311767 
L 117.772298 605.31137 
L 121.795163 605.310374 
L 126.505652 605.307923 
L 131.894699 605.304212 
L 136.064903 605.300198 
L 140.906123 605.293681 
L 146.343341 605.283502 
L 152.242772 605.26914 
L 158.23472 605.247575 
L 163.692746 605.217189 
L 168.88361 605.188058 
L 174.585426 605.151489 
L 180.46251 605.106446 
L 186.901027 605.046076 
L 193.842604 604.968527 
L 201.294329 604.875282 
L 209.304744 604.753702 
L 215.666289 604.64921 
L 222.461467 604.504986 
L 232.059762 604.260621 
L 242.378625 604.016245 
L 253.442863 603.753939 
L 265.803879 603.350562 
L 277.872644 603.003412 
L 291.4797 602.504314 
L 306.108307 601.828363 
L 314.293433 601.503711 
L 322.042849 601.092564 
L 330.136629 600.657594 
L 338.743693 600.283043 
L 347.240659 599.897448 
L 353.582193 599.52908 
L 358.098232 599.146329 
L 362.015801 598.576192 
L 365.100791 597.603175 
L 367.795107 596.360647 
L 370.339935 595.949655 
L 371.612349 595.526745 
L 372.884762 595.133797 
L 373.578284 595.239225 
L 374.157176 595.589757 
L 374.808605 595.951099 
L 375.42959 596.629207 
L 375.781185 596.490793 
L 376.100674 596.186957 
L 376.42634 596.417779 
L 376.702003 596.203479 
L 377.181086 593.381299 
L 377.629898 589.661803 
L 378.056467 585.277091 
L 378.557793 579.089862 
L 379.000786 571.840701 
L 379.485688 562.989325 
L 379.945558 553.721801 
L 380.413583 542.883968 
L 380.832336 530.503043 
L 381.341477 517.590144 
L 382.269372 505.456625 
L 383.197267 490.730132 
L 384.125162 474.372383 
L 385.053056 460.170623 
L 385.980951 446.788789 
L 386.908846 435.031496 
L 387.836741 424.359985 
L 388.764636 415.45187 
L 389.69253 407.544778 
L 390.578063 400.732686 
L 391.54832 395.312007 
L 393.28631 390.971254 
L 395.259899 387.821393 
L 396.651741 385.657865 
L 398.043583 384.472333 
L 399.899373 384.488237 
L 401.701247 385.631961 
L 403.610952 387.921944 
L 405.289681 390.875747 
L 406.894263 394.776598 
L 408.375361 399.231922 
L 410.106215 404.697038 
L 411.962005 410.538995 
L 414.385383 418.847589 
L 416.601479 427.51117 
L 418.59025 433.990855 
L 420.545322 439.62326 
L 422.367082 445.020068 
L 424.358264 450.591495 
L 426.834965 456.285815 
L 429.229604 461.989894 
L 431.143679 466.93241 
L 433.224812 471.590095 
L 435.488341 475.864376 
L 437.951073 479.847079 
L 439.269923 483.084099 
L 440.63164 486.014318 
L 442.106467 488.668035 
L 443.549241 491.018163 
L 445.155995 493.090959 
L 446.721698 494.924229 
L 448.530584 496.24621 
L 450.174259 497.212103 
L 451.951214 498.14534 
L 453.926016 499.024943 
L 455.933062 500.069974 
L 458.002814 500.699537 
L 460.314271 501.587597 
L 462.425952 502.48094 
L 464.811613 503.319944 
L 467.21716 504.513895 
L 469.759827 505.649481 
L 472.396058 506.863612 
L 475.19253 508.154775 
L 477.975382 509.529235 
L 480.842577 510.956835 
L 483.958078 512.482729 
L 487.02499 514.026143 
L 490.325069 515.720272 
L 493.589155 517.375258 
L 496.978314 519.24994 
L 500.205377 521.248858 
L 503.659157 523.07372 
L 506.946976 525.309771 
L 510.339999 527.160298 
L 513.575217 527.785538 
L 517.020842 529.244256 
L 520.529262 530.050777 
L 523.701684 531.747473 
L 527.248435 535.375437 
L 530.382526 539.112546 
L 533.47788 542.993605 
L 537.063369 546.939125 
L 540.596663 550.782646 
L 543.744211 554.673486 
L 547.100127 558.633594 
L 550.425053 562.572161 
L 553.753242 566.304524 
L 557.105896 569.965274 
L 560.64286 572.434034 
L 563.786738 573.844693 
L 567.416674 574.751572 
L 570.467581 575.336349 
L 572.48806 576.147213 
L 574.235341 576.659564 
L 575.774026 577.309591 
L 577.148423 577.705844 
L 578.893977 578.128372 
L 580.590786 578.34832 
L 582.236512 578.571022 
L 583.829265 578.646783 
L 585.170972 578.707068 
L 585.978345 578.741978 
L 586.689338 578.675084 
L 587.565631 578.588367 
L 588.440213 578.412146 
L 589.393295 578.195609 
L 590.510108 577.895684 
L 591.006574 577.675362 
L 591.536623 577.404823 
L 592.09897 577.141598 
L 592.691486 576.844333 
L 593.836984 576.520719 
L 595.007931 576.180081 
L 596.17812 575.861756 
L 597.43789 575.543112 
L 598.641338 575.222411 
L 599.95542 574.922241 
L 601.139458 574.615634 
L 602.456615 574.351171 
L 603.58178 574.044938 
L 604.861979 573.797106 
L 607.17568 573.426854 
L 609.400733 573.142627 
L 611.62836 572.774858 
L 613.948134 572.485403 
L 616.355835 572.091324 
L 618.846045 571.76111 
L 622.080194 571.323612 
L 625.776244 570.913726 
L 629.202701 570.427155 
L 632.80417 569.954421 
L 637.73667 569.35534 
L 642.249482 568.849264 
L 647.181983 568.288787 
L 656.627295 567.583414 
L 666.072608 566.878364 
L 675.51792 566.191224 
L 684.963233 565.522412 
L 694.408545 565.013267 
L 703.853858 564.480308 
L 713.29917 564.170667 
L 722.744483 563.721892 
L 741.635108 563.102999 
L 753.458468 562.670768 
L 765.81912 562.288942 
L 777.874829 561.963444 
L 788.86167 561.708359 
L 798.306983 561.530724 
L 807.092784 561.404516 
L 817.197608 561.337326 
L 817.197608 40.664927 
L 817.197608 40.664927 
L 807.092784 40.800863 
L 798.306983 40.974783 
L 788.86167 41.295849 
L 777.874829 41.725286 
L 765.81912 42.201858 
L 753.458468 42.629564 
L 741.635108 42.929713 
L 722.744483 43.040782 
L 713.29917 43.272066 
L 703.853858 43.3332 
L 694.408545 43.323921 
L 684.963233 43.277244 
L 675.51792 43.044184 
L 666.072608 42.827797 
L 656.627295 42.751782 
L 647.181983 42.66022 
L 642.249482 42.907795 
L 637.73667 43.17641 
L 632.80417 43.340957 
L 629.202701 43.569761 
L 625.776244 43.757698 
L 622.080194 43.814336 
L 618.846045 43.911018 
L 616.355835 44.091037 
L 613.948134 44.289567 
L 611.62836 44.426508 
L 609.400733 44.553699 
L 607.17568 44.600767 
L 604.861979 44.629597 
L 603.58178 44.838151 
L 602.456615 45.037126 
L 601.139458 45.309381 
L 599.95542 45.575017 
L 598.641338 45.945845 
L 597.43789 46.307053 
L 596.17812 46.673509 
L 595.007931 47.026545 
L 593.836984 47.388528 
L 592.691486 47.709104 
L 592.09897 48.025717 
L 591.536623 48.286771 
L 591.006574 48.638042 
L 590.510108 48.969671 
L 589.393295 49.373922 
L 588.440213 49.84946 
L 587.565631 50.458122 
L 586.689338 51.165269 
L 585.978345 52.211581 
L 585.170972 53.317148 
L 583.829265 54.630881 
L 582.236512 56.059702 
L 580.590786 57.699842 
L 578.893977 59.305877 
L 577.148423 60.87833 
L 575.774026 62.296276 
L 574.235341 63.361322 
L 572.48806 64.536089 
L 570.467581 65.013226 
L 567.416674 65.704929 
L 563.786738 65.537035 
L 560.64286 65.163304 
L 557.105896 63.723966 
L 553.753242 61.121416 
L 550.425053 59.020425 
L 547.100127 56.85963 
L 543.744211 55.363959 
L 540.596663 53.712664 
L 537.063369 52.396218 
L 533.47788 51.312889 
L 530.382526 50.730757 
L 527.248435 49.613748 
L 523.701684 48.322649 
L 520.529262 47.144194 
L 517.020842 46.028952 
L 513.575217 45.357321 
L 510.339999 44.853446 
L 506.946976 45.263004 
L 503.659157 45.188584 
L 500.205377 44.519156 
L 496.978314 43.510277 
L 493.589155 42.217226 
L 490.325069 40.597004 
L 487.02499 39.056243 
L 483.958078 37.435735 
L 480.842577 35.868394 
L 477.975382 34.367695 
L 475.19253 33.284869 
L 472.396058 32.327206 
L 469.759827 31.935398 
L 467.21716 31.957918 
L 464.811613 32.643409 
L 462.425952 33.901067 
L 460.314271 35.413433 
L 458.002814 37.233854 
L 455.933062 39.394943 
L 453.926016 41.264041 
L 451.951214 43.285738 
L 450.174259 45.166469 
L 448.530584 46.842477 
L 446.721698 48.043769 
L 445.155995 48.262805 
L 443.549241 48.146718 
L 442.106467 47.94597 
L 440.63164 47.515151 
L 439.269923 47.203699 
L 437.951073 46.761244 
L 435.488341 46.407249 
L 433.224812 45.666277 
L 431.143679 44.938984 
L 429.229604 44.084047 
L 426.834965 42.690481 
L 424.358264 40.909685 
L 422.367082 39.6596 
L 420.545322 38.061609 
L 418.59025 36.157996 
L 416.601479 33.897551 
L 414.385383 33.125682 
L 411.962005 31.756122 
L 410.106215 28.826574 
L 408.375361 26.136971 
L 406.894263 24.590104 
L 405.289681 22.808326 
L 403.610952 21.931172 
L 401.701247 21.093346 
L 399.899373 20.631977 
L 398.043583 20.886261 
L 396.651741 21.41745 
L 395.259899 21.944147 
L 393.28631 25.176879 
L 391.54832 28.160203 
L 390.578063 32.310544 
L 389.69253 36.013642 
L 388.764636 40.969098 
L 387.836741 47.055636 
L 386.908846 53.1172 
L 385.980951 57.879788 
L 385.053056 61.315986 
L 384.125162 61.901111 
L 383.197267 59.79545 
L 382.269372 53.389284 
L 381.341477 57.48396 
L 380.832336 59.009791 
L 380.413583 58.063647 
L 379.945558 59.051764 
L 379.485688 58.714607 
L 379.000786 61.193968 
L 378.557793 62.108326 
L 378.056467 67.381356 
L 377.629898 68.74154 
L 377.181086 65.567161 
L 376.702003 60.384034 
L 376.42634 54.61801 
L 376.100674 49.192889 
L 375.781185 45.626182 
L 375.42959 42.120983 
L 374.808605 35.327262 
L 374.157176 29.565342 
L 373.578284 24.802363 
L 372.884762 20.548702 
L 371.612349 18.927692 
L 370.339935 18.927692 
L 367.795107 18.927692 
L 365.100791 18.927692 
L 362.015801 18.927692 
L 358.098232 18.927692 
L 353.582193 18.927692 
L 347.240659 18.927692 
L 338.743693 18.927692 
L 330.136629 18.927692 
L 322.042849 18.927692 
L 314.293433 18.927692 
L 306.108307 18.927692 
L 291.4797 18.927692 
L 277.872644 18.927692 
L 265.803879 18.927692 
L 253.442863 18.927692 
L 242.378625 18.927692 
L 232.059762 18.927692 
L 222.461467 18.927692 
L 215.666289 18.927692 
L 209.304744 18.927692 
L 201.294329 18.927692 
L 193.842604 18.927692 
L 186.901027 18.927692 
L 180.46251 18.927692 
L 174.585426 18.927692 
L 168.88361 18.927692 
L 163.692746 18.927692 
L 158.23472 18.927692 
L 152.242772 18.927692 
L 146.343341 18.927692 
L 140.906123 18.927692 
L 136.064903 18.927692 
L 131.894699 18.927692 
L 126.505652 18.927692 
L 121.795163 18.927692 
L 117.772298 18.927692 
L 114.380297 18.927692 
L 110.878308 18.927692 
L 107.979517 18.927692 
L 105.819849 18.927692 
L 103.578522 18.927692 
L 101.273505 18.927692 
L 99.991406 18.927692 
L 98.820976 18.927692 
L 97.579316 18.927692 
L 96.397416 18.927692 
L 95.299612 18.927692 
L 94.171374 18.927692 
L 93.099922 18.927692 
L 92.004934 18.927692 
L 90.129589 18.927692 
L 88.857321 18.927692 
L 87.435066 18.927692 
L 84.740543 18.927692 
L 83.42602 18.927692 
L 82.213061 18.927692 
L 80.785425 18.927692 
L 79.049287 18.927692 
L 76.852227 18.927692 
L 73.741466 18.927692 
L 69.481777 18.927692 
L 63.647806 18.927692 
L 55.656948 18.927692 
L 44.711179 18.927692 
L 29.717351 18.927692 
L 9.178043 18.927692 
z
" clip-path="url(#pbb2abf488c)" style="fill: #d62728"/>
   </g>
   <g id="matplotlib.axis_1">
    <g id="xtick_1">
     <g id="line2d_1">
      <path d="M 84.740543 617.04 
L 84.740543 7.2 
" clip-path="url(#pbb2abf488c)" style="fill: none; stroke: #b0b0b0; stroke-width: 0.8; stroke-linecap: square"/>
     </g>
     <g id="line2d_2">
      <defs>
       <path id="m46256cff8d" d="M 0 0 
L 0 3.5 
" style="stroke: #000000; stroke-width: 0.8"/>
      </defs>
      <g>
       <use xlink:href="#m46256cff8d" x="84.740543" y="617.04" style="stroke: #000000; stroke-width: 0.8"/>
      </g>
     </g>
     <g id="text_1">
      <!-- $\mathdefault{0.0}$ -->
      <g transform="translate(66.968823 644.795495) scale(0.3 -0.3)">
       <defs>
        <path id="CMR17-30" d="M 2688 2025 
C 2688 2416 2682 3080 2413 3591 
C 2176 4039 1798 4198 1466 4198 
C 1158 4198 768 4058 525 3597 
C 269 3118 243 2524 243 2025 
C 243 1661 250 1106 448 619 
C 723 -39 1216 -128 1466 -128 
C 1760 -128 2208 -7 2470 600 
C 2662 1042 2688 1559 2688 2025 
z
M 1466 -26 
C 1056 -26 813 325 723 812 
C 653 1188 653 1738 653 2096 
C 653 2588 653 2997 736 3387 
C 858 3929 1216 4096 1466 4096 
C 1728 4096 2067 3923 2189 3400 
C 2272 3036 2278 2607 2278 2096 
C 2278 1680 2278 1169 2202 792 
C 2067 95 1690 -26 1466 -26 
z
" transform="scale(0.015625)"/>
        <path id="CMMI12-3a" d="M 1178 307 
C 1178 492 1024 619 870 619 
C 685 619 557 466 557 313 
C 557 128 710 0 864 0 
C 1050 0 1178 153 1178 307 
z
" transform="scale(0.015625)"/>
       </defs>
       <use xlink:href="#CMR17-30" transform="scale(0.996264)"/>
       <use xlink:href="#CMMI12-3a" transform="translate(45.690477 0) scale(0.996264)"/>
       <use xlink:href="#CMR17-30" transform="translate(72.787654 0) scale(0.996264)"/>
      </g>
     </g>
    </g>
    <g id="xtick_2">
     <g id="line2d_3">
      <path d="M 235.865543 617.04 
L 235.865543 7.2 
" clip-path="url(#pbb2abf488c)" style="fill: none; stroke: #b0b0b0; stroke-width: 0.8; stroke-linecap: square"/>
     </g>
     <g id="line2d_4">
      <g>
       <use xlink:href="#m46256cff8d" x="235.865543" y="617.04" style="stroke: #000000; stroke-width: 0.8"/>
      </g>
     </g>
     <g id="text_2">
      <!-- $\mathdefault{0.1}$ -->
      <g transform="translate(218.093823 644.795495) scale(0.3 -0.3)">
       <defs>
        <path id="CMR17-31" d="M 1702 4058 
C 1702 4192 1696 4192 1606 4192 
C 1357 3916 979 3827 621 3827 
C 602 3827 570 3827 563 3808 
C 557 3795 557 3782 557 3648 
C 755 3648 1088 3686 1344 3839 
L 1344 461 
C 1344 236 1331 160 781 160 
L 589 160 
L 589 0 
C 896 0 1216 0 1523 0 
C 1830 0 2150 0 2458 0 
L 2458 160 
L 2266 160 
C 1715 160 1702 230 1702 458 
L 1702 4058 
z
" transform="scale(0.015625)"/>
       </defs>
       <use xlink:href="#CMR17-30" transform="scale(0.996264)"/>
       <use xlink:href="#CMMI12-3a" transform="translate(45.690477 0) scale(0.996264)"/>
       <use xlink:href="#CMR17-31" transform="translate(72.787654 0) scale(0.996264)"/>
      </g>
     </g>
    </g>
    <g id="xtick_3">
     <g id="line2d_5">
      <path d="M 386.990543 617.04 
L 386.990543 7.2 
" clip-path="url(#pbb2abf488c)" style="fill: none; stroke: #b0b0b0; stroke-width: 0.8; stroke-linecap: square"/>
     </g>
     <g id="line2d_6">
      <g>
       <use xlink:href="#m46256cff8d" x="386.990543" y="617.04" style="stroke: #000000; stroke-width: 0.8"/>
      </g>
     </g>
     <g id="text_3">
      <!-- $\mathdefault{0.2}$ -->
      <g transform="translate(369.218823 644.795495) scale(0.3 -0.3)">
       <defs>
        <path id="CMR17-32" d="M 2669 989 
L 2554 989 
C 2490 536 2438 459 2413 420 
C 2381 369 1920 369 1830 369 
L 602 369 
C 832 619 1280 1072 1824 1597 
C 2214 1967 2669 2402 2669 3035 
C 2669 3790 2067 4224 1395 4224 
C 691 4224 262 3604 262 3030 
C 262 2780 448 2748 525 2748 
C 589 2748 781 2787 781 3010 
C 781 3207 614 3264 525 3264 
C 486 3264 448 3258 422 3245 
C 544 3790 915 4058 1306 4058 
C 1862 4058 2227 3617 2227 3035 
C 2227 2479 1901 2000 1536 1584 
L 262 146 
L 262 0 
L 2515 0 
L 2669 989 
z
" transform="scale(0.015625)"/>
       </defs>
       <use xlink:href="#CMR17-30" transform="scale(0.996264)"/>
       <use xlink:href="#CMMI12-3a" transform="translate(45.690477 0) scale(0.996264)"/>
       <use xlink:href="#CMR17-32" transform="translate(72.787654 0) scale(0.996264)"/>
      </g>
     </g>
    </g>
    <g id="xtick_4">
     <g id="line2d_7">
      <path d="M 538.115543 617.04 
L 538.115543 7.2 
" clip-path="url(#pbb2abf488c)" style="fill: none; stroke: #b0b0b0; stroke-width: 0.8; stroke-linecap: square"/>
     </g>
     <g id="line2d_8">
      <g>
       <use xlink:href="#m46256cff8d" x="538.115543" y="617.04" style="stroke: #000000; stroke-width: 0.8"/>
      </g>
     </g>
     <g id="text_4">
      <!-- $\mathdefault{0.3}$ -->
      <g transform="translate(520.343823 644.795495) scale(0.3 -0.3)">
       <defs>
        <path id="CMR17-33" d="M 1414 2157 
C 1984 2157 2234 1662 2234 1090 
C 2234 320 1824 25 1453 25 
C 1114 25 563 194 390 693 
C 422 680 454 680 486 680 
C 640 680 755 782 755 948 
C 755 1133 614 1216 486 1216 
C 378 1216 211 1165 211 926 
C 211 335 787 -128 1466 -128 
C 2176 -128 2720 430 2720 1085 
C 2720 1707 2208 2157 1600 2227 
C 2086 2328 2554 2756 2554 3329 
C 2554 3820 2048 4179 1472 4179 
C 890 4179 378 3829 378 3329 
C 378 3110 544 3072 627 3072 
C 762 3072 877 3155 877 3321 
C 877 3486 762 3569 627 3569 
C 602 3569 570 3569 544 3557 
C 730 3959 1235 4032 1459 4032 
C 1683 4032 2106 3925 2106 3320 
C 2106 3143 2080 2828 1862 2550 
C 1670 2304 1453 2304 1242 2284 
C 1210 2284 1062 2269 1037 2269 
C 992 2263 966 2257 966 2208 
C 966 2163 973 2157 1101 2157 
L 1414 2157 
z
" transform="scale(0.015625)"/>
       </defs>
       <use xlink:href="#CMR17-30" transform="scale(0.996264)"/>
       <use xlink:href="#CMMI12-3a" transform="translate(45.690477 0) scale(0.996264)"/>
       <use xlink:href="#CMR17-33" transform="translate(72.787654 0) scale(0.996264)"/>
      </g>
     </g>
    </g>
    <g id="xtick_5">
     <g id="line2d_9">
      <path d="M 689.240543 617.04 
L 689.240543 7.2 
" clip-path="url(#pbb2abf488c)" style="fill: none; stroke: #b0b0b0; stroke-width: 0.8; stroke-linecap: square"/>
     </g>
     <g id="line2d_10">
      <g>
       <use xlink:href="#m46256cff8d" x="689.240543" y="617.04" style="stroke: #000000; stroke-width: 0.8"/>
      </g>
     </g>
     <g id="text_5">
      <!-- $\mathdefault{0.4}$ -->
      <g transform="translate(671.468823 644.795495) scale(0.3 -0.3)">
       <defs>
        <path id="CMR17-34" d="M 2150 4122 
C 2150 4256 2144 4256 2029 4256 
L 128 1254 
L 128 1088 
L 1779 1088 
L 1779 457 
C 1779 224 1766 160 1318 160 
L 1197 160 
L 1197 0 
C 1402 0 1747 0 1965 0 
C 2182 0 2528 0 2733 0 
L 2733 160 
L 2611 160 
C 2163 160 2150 224 2150 457 
L 2150 1088 
L 2803 1088 
L 2803 1254 
L 2150 1254 
L 2150 4122 
z
M 1798 3703 
L 1798 1254 
L 256 1254 
L 1798 3703 
z
" transform="scale(0.015625)"/>
       </defs>
       <use xlink:href="#CMR17-30" transform="scale(0.996264)"/>
       <use xlink:href="#CMMI12-3a" transform="translate(45.690477 0) scale(0.996264)"/>
       <use xlink:href="#CMR17-34" transform="translate(72.787654 0) scale(0.996264)"/>
      </g>
     </g>
    </g>
    <g id="text_6">
     <!-- $x, \; m $ -->
     <g transform="translate(410.316604 678.823697) scale(0.35 -0.35)">
      <defs>
       <path id="CMMI12-78" d="M 3034 2606 
C 2829 2567 2752 2414 2752 2293 
C 2752 2139 2874 2088 2963 2088 
C 3155 2088 3290 2254 3290 2427 
C 3290 2695 2982 2816 2714 2816 
C 2323 2816 2106 2433 2048 2312 
C 1901 2816 1504 2816 1389 2816 
C 736 2816 390 1980 390 1839 
C 390 1814 416 1782 461 1782 
C 512 1782 525 1820 538 1846 
C 755 2555 1184 2689 1370 2689 
C 1658 2689 1715 2420 1715 2267 
C 1715 2127 1677 1980 1600 1673 
L 1382 798 
C 1286 415 1101 64 762 64 
C 730 64 570 64 435 147 
C 666 192 717 383 717 460 
C 717 588 621 664 499 664 
C 346 664 179 530 179 326 
C 179 57 480 -64 755 -64 
C 1062 -64 1280 179 1414 441 
C 1517 64 1837 -64 2074 -64 
C 2726 -64 3072 773 3072 913 
C 3072 945 3046 971 3008 971 
C 2950 971 2944 939 2925 888 
C 2752 326 2381 64 2093 64 
C 1869 64 1747 230 1747 492 
C 1747 632 1773 734 1875 1156 
L 2099 2024 
C 2195 2408 2413 2689 2707 2689 
C 2720 2689 2899 2689 3034 2606 
z
" transform="scale(0.015625)"/>
       <path id="CMMI12-3b" d="M 1248 -31 
C 1248 343 1126 619 864 619 
C 659 619 557 453 557 313 
C 557 172 653 0 870 0 
C 954 0 1024 26 1082 83 
C 1094 96 1101 96 1107 96 
C 1120 96 1120 5 1120 -27 
C 1120 -240 1082 -659 710 -1080 
C 640 -1157 640 -1170 640 -1183 
C 640 -1216 672 -1248 704 -1248 
C 755 -1248 1248 -771 1248 -31 
z
" transform="scale(0.015625)"/>
       <path id="CMMI12-6d" d="M 1318 1871 
C 1331 1910 1491 2229 1728 2433 
C 1894 2586 2112 2689 2362 2689 
C 2618 2689 2707 2497 2707 2242 
C 2707 2203 2707 2076 2630 1775 
L 2470 1118 
C 2419 926 2298 453 2285 383 
C 2259 287 2221 121 2221 96 
C 2221 6 2291 -64 2387 -64 
C 2579 -64 2611 83 2669 313 
L 3053 1839 
C 3066 1890 3398 2689 4102 2689 
C 4358 2689 4448 2497 4448 2242 
C 4448 1884 4198 1188 4058 805 
C 4000 651 3968 568 3968 453 
C 3968 166 4166 -64 4474 -64 
C 5069 -64 5293 875 5293 913 
C 5293 945 5267 971 5229 971 
C 5171 971 5165 952 5133 843 
C 4986 332 4749 64 4493 64 
C 4429 64 4326 64 4326 269 
C 4326 436 4403 640 4429 710 
C 4544 1018 4832 1773 4832 2145 
C 4832 2528 4608 2816 4122 2816 
C 3693 2816 3347 2574 3091 2197 
C 3072 2542 2861 2816 2381 2816 
C 1811 2816 1510 2415 1395 2255 
C 1376 2618 1114 2816 832 2816 
C 646 2816 499 2727 378 2484 
C 262 2254 173 1865 173 1839 
C 173 1814 198 1782 243 1782 
C 294 1782 301 1788 339 1935 
C 435 2312 557 2689 813 2689 
C 960 2689 1011 2586 1011 2395 
C 1011 2254 947 2005 902 1807 
L 723 1118 
C 698 996 627 709 595 594 
C 550 428 480 128 480 96 
C 480 6 550 -64 646 -64 
C 723 -64 813 -26 864 70 
C 877 102 934 326 966 453 
L 1107 1028 
L 1318 1871 
z
" transform="scale(0.015625)"/>
      </defs>
      <use xlink:href="#CMMI12-78" transform="scale(0.996264)"/>
      <use xlink:href="#CMMI12-3b" transform="translate(55.43406 0) scale(0.996264)"/>
      <use xlink:href="#CMMI12-6d" transform="translate(126.809651 0) scale(0.996264)"/>
     </g>
    </g>
   </g>
   <g id="matplotlib.axis_2">
    <g id="ytick_1">
     <g id="line2d_11">
      <path d="M 84.740543 605.312308 
L 810.140543 605.312308 
" clip-path="url(#pbb2abf488c)" style="fill: none; stroke: #b0b0b0; stroke-width: 0.8; stroke-linecap: square"/>
     </g>
     <g id="line2d_12">
      <defs>
       <path id="mc33944edbf" d="M 0 0 
L -3.5 0 
" style="stroke: #000000; stroke-width: 0.8"/>
      </defs>
      <g>
       <use xlink:href="#mc33944edbf" x="84.740543" y="605.312308" style="stroke: #000000; stroke-width: 0.8"/>
      </g>
     </g>
     <g id="text_7">
      <!-- $\mathdefault{0.0}$ -->
      <g transform="translate(42.197103 615.690055) scale(0.3 -0.3)">
       <use xlink:href="#CMR17-30" transform="scale(0.996264)"/>
       <use xlink:href="#CMMI12-3a" transform="translate(45.690477 0) scale(0.996264)"/>
       <use xlink:href="#CMR17-30" transform="translate(72.787654 0) scale(0.996264)"/>
      </g>
     </g>
    </g>
    <g id="ytick_2">
     <g id="line2d_13">
      <path d="M 84.740543 488.035385 
L 810.140543 488.035385 
" clip-path="url(#pbb2abf488c)" style="fill: none; stroke: #b0b0b0; stroke-width: 0.8; stroke-linecap: square"/>
     </g>
     <g id="line2d_14">
      <g>
       <use xlink:href="#mc33944edbf" x="84.740543" y="488.035385" style="stroke: #000000; stroke-width: 0.8"/>
      </g>
     </g>
     <g id="text_8">
      <!-- $\mathdefault{0.2}$ -->
      <g transform="translate(42.197103 498.413132) scale(0.3 -0.3)">
       <use xlink:href="#CMR17-30" transform="scale(0.996264)"/>
       <use xlink:href="#CMMI12-3a" transform="translate(45.690477 0) scale(0.996264)"/>
       <use xlink:href="#CMR17-32" transform="translate(72.787654 0) scale(0.996264)"/>
      </g>
     </g>
    </g>
    <g id="ytick_3">
     <g id="line2d_15">
      <path d="M 84.740543 370.758462 
L 810.140543 370.758462 
" clip-path="url(#pbb2abf488c)" style="fill: none; stroke: #b0b0b0; stroke-width: 0.8; stroke-linecap: square"/>
     </g>
     <g id="line2d_16">
      <g>
       <use xlink:href="#mc33944edbf" x="84.740543" y="370.758462" style="stroke: #000000; stroke-width: 0.8"/>
      </g>
     </g>
     <g id="text_9">
      <!-- $\mathdefault{0.4}$ -->
      <g transform="translate(42.197103 381.136209) scale(0.3 -0.3)">
       <use xlink:href="#CMR17-30" transform="scale(0.996264)"/>
       <use xlink:href="#CMMI12-3a" transform="translate(45.690477 0) scale(0.996264)"/>
       <use xlink:href="#CMR17-34" transform="translate(72.787654 0) scale(0.996264)"/>
      </g>
     </g>
    </g>
    <g id="ytick_4">
     <g id="line2d_17">
      <path d="M 84.740543 253.481538 
L 810.140543 253.481538 
" clip-path="url(#pbb2abf488c)" style="fill: none; stroke: #b0b0b0; stroke-width: 0.8; stroke-linecap: square"/>
     </g>
     <g id="line2d_18">
      <g>
       <use xlink:href="#mc33944edbf" x="84.740543" y="253.481538" style="stroke: #000000; stroke-width: 0.8"/>
      </g>
     </g>
     <g id="text_10">
      <!-- $\mathdefault{0.6}$ -->
      <g transform="translate(42.197103 263.859286) scale(0.3 -0.3)">
       <defs>
        <path id="CMR17-36" d="M 678 2176 
C 678 3690 1395 4032 1811 4032 
C 1946 4032 2272 4009 2400 3776 
C 2298 3776 2106 3776 2106 3553 
C 2106 3381 2246 3323 2336 3323 
C 2394 3323 2566 3348 2566 3560 
C 2566 3954 2246 4179 1805 4179 
C 1043 4179 243 3390 243 1984 
C 243 253 966 -128 1478 -128 
C 2099 -128 2688 427 2688 1283 
C 2688 2081 2170 2662 1517 2662 
C 1126 2662 838 2407 678 1960 
L 678 2176 
z
M 1478 25 
C 691 25 691 1200 691 1436 
C 691 1896 909 2560 1504 2560 
C 1613 2560 1926 2560 2138 2120 
C 2253 1870 2253 1609 2253 1289 
C 2253 944 2253 690 2118 434 
C 1978 171 1773 25 1478 25 
z
" transform="scale(0.015625)"/>
       </defs>
       <use xlink:href="#CMR17-30" transform="scale(0.996264)"/>
       <use xlink:href="#CMMI12-3a" transform="translate(45.690477 0) scale(0.996264)"/>
       <use xlink:href="#CMR17-36" transform="translate(72.787654 0) scale(0.996264)"/>
      </g>
     </g>
    </g>
    <g id="ytick_5">
     <g id="line2d_19">
      <path d="M 84.740543 136.204615 
L 810.140543 136.204615 
" clip-path="url(#pbb2abf488c)" style="fill: none; stroke: #b0b0b0; stroke-width: 0.8; stroke-linecap: square"/>
     </g>
     <g id="line2d_20">
      <g>
       <use xlink:href="#mc33944edbf" x="84.740543" y="136.204615" style="stroke: #000000; stroke-width: 0.8"/>
      </g>
     </g>
     <g id="text_11">
      <!-- $\mathdefault{0.8}$ -->
      <g transform="translate(42.197103 146.582363) scale(0.3 -0.3)">
       <defs>
        <path id="CMR17-38" d="M 1741 2264 
C 2144 2467 2554 2773 2554 3263 
C 2554 3841 1990 4179 1472 4179 
C 890 4179 378 3759 378 3180 
C 378 3021 416 2747 666 2505 
C 730 2442 998 2251 1171 2130 
C 883 1983 211 1634 211 934 
C 211 279 838 -128 1459 -128 
C 2144 -128 2720 362 2720 1010 
C 2720 1590 2330 1857 2074 2029 
L 1741 2264 
z
M 902 2822 
C 851 2854 595 3051 595 3351 
C 595 3739 998 4032 1459 4032 
C 1965 4032 2336 3676 2336 3262 
C 2336 2669 1670 2331 1638 2331 
C 1632 2331 1626 2331 1574 2370 
L 902 2822 
z
M 2080 1519 
C 2176 1449 2483 1240 2483 851 
C 2483 381 2010 25 1472 25 
C 890 25 448 438 448 940 
C 448 1443 838 1862 1280 2060 
L 2080 1519 
z
" transform="scale(0.015625)"/>
       </defs>
       <use xlink:href="#CMR17-30" transform="scale(0.996264)"/>
       <use xlink:href="#CMMI12-3a" transform="translate(45.690477 0) scale(0.996264)"/>
       <use xlink:href="#CMR17-38" transform="translate(72.787654 0) scale(0.996264)"/>
      </g>
     </g>
    </g>
    <g id="ytick_6">
     <g id="line2d_21">
      <path d="M 84.740543 18.927692 
L 810.140543 18.927692 
" clip-path="url(#pbb2abf488c)" style="fill: none; stroke: #b0b0b0; stroke-width: 0.8; stroke-linecap: square"/>
     </g>
     <g id="line2d_22">
      <g>
       <use xlink:href="#mc33944edbf" x="84.740543" y="18.927692" style="stroke: #000000; stroke-width: 0.8"/>
      </g>
     </g>
     <g id="text_12">
      <!-- $\mathdefault{1.0}$ -->
      <g transform="translate(42.197103 29.30544) scale(0.3 -0.3)">
       <use xlink:href="#CMR17-31" transform="scale(0.996264)"/>
       <use xlink:href="#CMMI12-3a" transform="translate(45.690477 0) scale(0.996264)"/>
       <use xlink:href="#CMR17-30" transform="translate(72.787654 0) scale(0.996264)"/>
      </g>
     </g>
    </g>
    <g id="text_13">
     <!-- $S_1, \; -$ -->
     <g transform="translate(31.414752 354.516175) rotate(-90) scale(0.35 -0.35)">
      <defs>
       <path id="CMMI12-53" d="M 4064 4423 
C 4064 4480 4019 4480 4006 4480 
C 3981 4480 3974 4474 3898 4378 
C 3859 4333 3597 4001 3590 3995 
C 3379 4410 2957 4480 2688 4480 
C 1875 4480 1139 3743 1139 3025 
C 1139 2549 1427 2269 1741 2161 
C 1811 2135 2189 2033 2381 1989 
C 2707 1900 2790 1875 2925 1735 
C 2950 1703 3078 1557 3078 1258 
C 3078 667 2528 57 1888 57 
C 1363 57 781 280 781 991 
C 781 1112 806 1265 826 1328 
C 826 1348 832 1378 832 1391 
C 832 1417 819 1449 768 1449 
C 710 1449 704 1436 678 1328 
L 352 24 
C 352 18 326 -64 326 -71 
C 326 -128 378 -128 390 -128 
C 416 -128 422 -122 499 -26 
L 794 356 
C 947 126 1280 -128 1875 -128 
C 2701 -128 3456 666 3456 1460 
C 3456 1728 3392 1963 3149 2197 
C 3014 2331 2899 2363 2310 2516 
C 1882 2630 1824 2649 1709 2751 
C 1600 2858 1517 3011 1517 3227 
C 1517 3761 2061 4308 2669 4308 
C 3296 4308 3590 3926 3590 3323 
C 3590 3158 3558 2986 3558 2961 
C 3558 2903 3610 2903 3629 2903 
C 3686 2903 3693 2922 3718 3024 
L 4064 4423 
z
" transform="scale(0.015625)"/>
       <path id="CMSY10-0" d="M 4218 1472 
C 4326 1472 4442 1472 4442 1600 
C 4442 1728 4326 1728 4218 1728 
L 755 1728 
C 646 1728 531 1728 531 1600 
C 531 1472 646 1472 755 1472 
L 4218 1472 
z
" transform="scale(0.015625)"/>
      </defs>
      <use xlink:href="#CMMI12-53" transform="scale(0.996264)"/>
      <use xlink:href="#CMR17-31" transform="translate(59.994488 -14.943915) scale(0.697382)"/>
      <use xlink:href="#CMMI12-3b" transform="translate(92.475802 0) scale(0.996264)"/>
      <use xlink:href="#CMSY10-0" transform="translate(163.851393 0) scale(0.996264)"/>
     </g>
    </g>
   </g>
   <g id="patch_3">
    <path d="M 84.740543 617.04 
L 84.740543 7.2 
" style="fill: none; stroke: #000000; stroke-width: 0.8; stroke-linejoin: miter; stroke-linecap: square"/>
   </g>
   <g id="patch_4">
    <path d="M 810.140543 617.04 
L 810.140543 7.2 
" style="fill: none; stroke: #000000; stroke-width: 0.8; stroke-linejoin: miter; stroke-linecap: square"/>
   </g>
   <g id="patch_5">
    <path d="M 84.740543 617.04 
L 810.140543 617.04 
" style="fill: none; stroke: #000000; stroke-width: 0.8; stroke-linejoin: miter; stroke-linecap: square"/>
   </g>
   <g id="patch_6">
    <path d="M 84.740543 7.2 
L 810.140543 7.2 
" style="fill: none; stroke: #000000; stroke-width: 0.8; stroke-linejoin: miter; stroke-linecap: square"/>
   </g>
   <g id="legend_1">
    <g id="patch_7">
     <path d="M 626.697089 232.438667 
L 785.640543 232.438667 
Q 792.640543 232.438667 792.640543 225.438667 
L 792.640543 31.7 
Q 792.640543 24.7 785.640543 24.7 
L 626.697089 24.7 
Q 619.697089 24.7 619.697089 31.7 
L 619.697089 225.438667 
Q 619.697089 232.438667 626.697089 232.438667 
z
" style="fill: #ffffff; opacity: 0.8; stroke: #cccccc; stroke-linejoin: miter"/>
    </g>
    <g id="patch_8">
     <path d="M 633.697089 63.2 
L 703.697089 63.2 
L 703.697089 38.7 
L 633.697089 38.7 
z
" style="fill: #1f77b4"/>
    </g>
    <g id="text_14">
     <!-- $M$ -->
     <g transform="translate(731.697089 63.2) scale(0.35 -0.35)">
      <defs>
       <path id="CMMI12-4d" d="M 5811 3886 
C 5869 4103 5882 4167 6336 4167 
C 6458 4167 6515 4167 6515 4288 
C 6515 4352 6470 4352 6349 4352 
L 5581 4352 
C 5421 4352 5414 4346 5344 4243 
L 3008 562 
L 2528 4211 
C 2509 4352 2502 4352 2336 4352 
L 1542 4352 
C 1421 4352 1363 4352 1363 4231 
C 1363 4167 1421 4167 1517 4167 
C 1907 4167 1907 4116 1907 4046 
C 1907 4034 1907 3995 1882 3899 
L 1062 634 
C 986 327 838 186 410 186 
C 390 186 314 186 314 73 
C 314 0 371 0 397 0 
C 525 0 851 0 979 0 
L 1286 0 
C 1376 0 1485 0 1574 0 
C 1619 0 1690 0 1690 122 
C 1690 180 1626 186 1600 186 
C 1389 186 1184 224 1184 454 
C 1184 518 1184 524 1210 613 
L 2093 4129 
L 2099 4129 
L 2630 172 
C 2650 19 2656 0 2714 0 
C 2784 0 2816 51 2848 109 
L 5421 4161 
L 5427 4161 
L 4499 473 
C 4442 250 4429 186 3981 186 
C 3859 186 3795 186 3795 70 
C 3795 0 3853 0 3891 0 
C 4000 0 4128 0 4237 0 
L 4992 0 
C 5101 0 5235 0 5344 0 
C 5395 0 5466 0 5466 122 
C 5466 186 5408 186 5312 186 
C 4922 186 4922 234 4922 294 
C 4922 301 4922 345 4934 396 
L 5811 3886 
z
" transform="scale(0.015625)"/>
      </defs>
      <use xlink:href="#CMMI12-4d" transform="scale(0.996264)"/>
     </g>
    </g>
    <g id="patch_9">
     <path d="M 633.697089 111.982351 
L 703.697089 111.982351 
L 703.697089 87.482351 
L 633.697089 87.482351 
z
" style="fill: #ff7f0e"/>
    </g>
    <g id="text_15">
     <!-- $P$ -->
     <g transform="translate(731.697089 111.982351) scale(0.35 -0.35)">
      <defs>
       <path id="CMMI12-50" d="M 1894 2023 
L 2970 2023 
C 3853 2023 4736 2673 4736 3401 
C 4736 3898 4314 4352 3507 4352 
L 1530 4352 
C 1408 4352 1350 4352 1350 4231 
C 1350 4167 1408 4167 1504 4167 
C 1894 4167 1894 4116 1894 4046 
C 1894 4034 1894 3995 1869 3899 
L 1005 472 
C 947 249 934 185 486 185 
C 365 185 301 185 301 70 
C 301 0 358 0 397 0 
C 518 0 646 0 768 0 
L 1517 0 
C 1638 0 1773 0 1894 0 
C 1946 0 2016 0 2016 121 
C 2016 185 1958 185 1862 185 
C 1478 185 1472 230 1472 293 
C 1472 325 1478 369 1485 401 
L 1894 2023 
z
M 2355 3930 
C 2413 4167 2438 4167 2688 4167 
L 3322 4167 
C 3802 4167 4198 4013 4198 3535 
C 4198 3369 4115 2827 3821 2534 
C 3712 2419 3405 2176 2822 2176 
L 1920 2176 
L 2355 3930 
z
" transform="scale(0.015625)"/>
      </defs>
      <use xlink:href="#CMMI12-50" transform="scale(0.996264)"/>
     </g>
    </g>
    <g id="patch_10">
     <path d="M 633.697089 160.764702 
L 703.697089 160.764702 
L 703.697089 136.264702 
L 633.697089 136.264702 
z
" style="fill: #2ca02c"/>
    </g>
    <g id="text_16">
     <!-- $T$ -->
     <g transform="translate(731.697089 160.764702) scale(0.35 -0.35)">
      <defs>
       <path id="CMMI12-54" d="M 2669 3910 
C 2707 4064 2720 4121 2816 4147 
C 2867 4160 3078 4160 3213 4160 
C 3853 4160 4154 4134 4154 3634 
C 4154 3537 4128 3295 4090 3057 
L 4083 2980 
C 4083 2954 4109 2916 4147 2916 
C 4211 2916 4211 2948 4230 3050 
L 4416 4184 
C 4429 4243 4429 4256 4429 4275 
C 4429 4345 4390 4345 4262 4345 
L 762 4345 
C 614 4345 608 4339 570 4224 
L 179 3070 
C 173 3056 154 2986 154 2980 
C 154 2948 179 2916 218 2916 
C 269 2916 282 2941 307 3024 
C 576 3801 710 4160 1562 4160 
L 1990 4160 
C 2144 4160 2208 4160 2208 4089 
C 2208 4069 2208 4057 2176 3941 
L 1318 499 
C 1254 249 1242 185 563 185 
C 403 185 358 185 358 64 
C 358 0 429 0 461 0 
C 621 0 787 0 947 0 
L 1946 0 
C 2106 0 2278 0 2438 0 
C 2509 0 2573 0 2573 121 
C 2573 185 2528 185 2362 185 
C 1786 185 1786 243 1786 339 
C 1786 346 1786 391 1811 494 
L 2669 3910 
z
" transform="scale(0.015625)"/>
      </defs>
      <use xlink:href="#CMMI12-54" transform="scale(0.996264)"/>
     </g>
    </g>
    <g id="patch_11">
     <path d="M 633.697089 209.547054 
L 703.697089 209.547054 
L 703.697089 185.047054 
L 633.697089 185.047054 
z
" style="fill: #d62728"/>
    </g>
    <g id="text_17">
     <!-- $Y_{N_2}$ -->
     <g transform="translate(731.697089 209.547054) scale(0.35 -0.35)">
      <defs>
       <path id="CMMI12-59" d="M 3763 3645 
L 3910 3791 
C 4192 4078 4429 4149 4653 4167 
C 4723 4173 4781 4179 4781 4288 
C 4781 4352 4717 4352 4704 4352 
C 4627 4352 4544 4352 4467 4352 
L 4205 4352 
C 4019 4352 3821 4352 3642 4352 
C 3597 4352 3526 4352 3526 4226 
C 3526 4166 3590 4160 3610 4160 
C 3802 4160 3802 4064 3802 4026 
C 3802 3956 3750 3860 3622 3713 
L 2099 1969 
L 1376 3911 
C 1338 4000 1338 4013 1338 4026 
C 1338 4160 1600 4160 1677 4160 
C 1754 4160 1824 4160 1824 4279 
C 1824 4352 1766 4352 1728 4352 
C 1619 4352 1491 4352 1382 4352 
L 672 4352 
C 557 4352 435 4352 326 4352 
C 282 4352 211 4352 211 4226 
C 211 4160 269 4160 365 4160 
C 678 4160 736 4102 794 3956 
L 1587 1835 
C 1594 1816 1613 1745 1613 1726 
C 1613 1707 1299 452 1280 388 
C 1229 217 1165 185 755 185 
C 646 185 595 185 595 64 
C 595 0 666 0 685 0 
C 800 0 934 0 1056 0 
L 1811 0 
C 1926 0 2061 0 2176 0 
C 2221 0 2298 0 2298 115 
C 2298 185 2253 185 2144 185 
C 1747 185 1747 230 1747 300 
C 1747 345 1798 548 1830 676 
L 2061 1594 
C 2099 1727 2099 1739 2157 1803 
L 3763 3645 
z
" transform="scale(0.015625)"/>
       <path id="CMMI12-4e" d="M 4736 3698 
C 4806 3974 4909 4166 5395 4166 
C 5414 4166 5491 4166 5491 4279 
C 5491 4352 5434 4352 5408 4352 
C 5280 4352 4954 4352 4826 4352 
L 4518 4352 
C 4429 4352 4314 4352 4224 4352 
C 4186 4352 4109 4352 4109 4230 
C 4109 4166 4160 4166 4205 4166 
C 4589 4166 4614 4019 4614 3903 
C 4614 3846 4608 3826 4589 3737 
L 3866 850 
L 2496 4249 
C 2451 4352 2445 4352 2304 4352 
L 1523 4352 
C 1395 4352 1338 4352 1338 4230 
C 1338 4166 1382 4166 1504 4166 
C 1536 4166 1914 4166 1914 4115 
C 1914 4102 1901 4051 1894 4032 
L 1043 635 
C 966 320 813 186 390 186 
C 358 186 294 186 294 67 
C 294 0 358 0 378 0 
C 506 0 832 0 960 0 
L 1267 0 
C 1357 0 1466 0 1555 0 
C 1600 0 1670 0 1670 122 
C 1670 180 1606 186 1581 186 
C 1370 186 1165 224 1165 454 
C 1165 505 1178 562 1190 613 
L 2054 4032 
C 2093 3968 2093 3956 2118 3898 
L 3642 115 
C 3674 38 3686 0 3744 0 
C 3808 0 3814 19 3840 128 
L 4736 3698 
z
" transform="scale(0.015625)"/>
      </defs>
      <use xlink:href="#CMMI12-59" transform="scale(0.996264)"/>
      <use xlink:href="#CMMI12-4e" transform="translate(56.598607 -14.943915) scale(0.697382)"/>
      <use xlink:href="#CMR17-32" transform="translate(111.278947 -25.404611) scale(0.498132)"/>
     </g>
    </g>
   </g>
  </g>
 </g>
 <defs>
  <clipPath id="pbb2abf488c">
   <rect x="84.740543" y="7.2" width="725.4" height="609.84"/>
  </clipPath>
 </defs>
</svg>
