<?xml version="1.0" encoding="utf-8" standalone="no"?>
<!DOCTYPE svg PUBLIC "-//W3C//DTD SVG 1.1//EN"
  "http://www.w3.org/Graphics/SVG/1.1/DTD/svg11.dtd">
<svg xmlns:xlink="http://www.w3.org/1999/xlink" width="1006.579543pt" height="692.806049pt" viewBox="0 0 1006.579543 692.806049" xmlns="http://www.w3.org/2000/svg" version="1.1">
 <metadata>
  <rdf:RDF xmlns:dc="http://purl.org/dc/elements/1.1/" xmlns:cc="http://creativecommons.org/ns#" xmlns:rdf="http://www.w3.org/1999/02/22-rdf-syntax-ns#">
   <cc:Work>
    <dc:type rdf:resource="http://purl.org/dc/dcmitype/StillImage"/>
    <dc:date>2025-03-19T17:00:11.361414</dc:date>
    <dc:format>image/svg+xml</dc:format>
    <dc:creator>
     <cc:Agent>
      <dc:title>Matplotlib v3.7.1, https://matplotlib.org/</dc:title>
     </cc:Agent>
    </dc:creator>
   </cc:Work>
  </rdf:RDF>
 </metadata>
 <defs>
  <style type="text/css">*{stroke-linejoin: round; stroke-linecap: butt}</style>
 </defs>
 <g id="figure_1">
  <g id="patch_1">
   <path d="M 0 692.806049 
L 1006.579543 692.806049 
L 1006.579543 0 
L 0 0 
z
" style="fill: #ffffff"/>
  </g>
  <g id="axes_1">
   <g id="patch_2">
    <path d="M 84.740543 617.04 
L 810.140543 617.04 
L 810.140543 7.2 
L 84.740543 7.2 
z
" style="fill: #ffffff"/>
   </g>
   <g id="PolyCollection_1">
    <path d="M 9.178043 604.30305 
L 9.178043 605.312308 
L 29.717351 605.312308 
L 44.711179 605.312308 
L 55.656948 605.312308 
L 63.647806 605.312308 
L 69.481777 605.312308 
L 73.741466 605.312308 
L 76.852227 605.312308 
L 79.049287 605.312308 
L 80.785425 605.312308 
L 82.213061 605.312308 
L 83.42602 605.312308 
L 84.740543 605.312308 
L 87.435066 605.312308 
L 88.857321 605.312308 
L 90.129589 605.312308 
L 92.004934 605.312308 
L 93.099922 605.312308 
L 94.171374 605.312308 
L 95.299612 605.312308 
L 96.397416 605.312308 
L 97.579316 605.312308 
L 98.820976 605.312308 
L 99.991406 605.312308 
L 101.273505 605.312308 
L 103.578522 605.312308 
L 105.819849 605.312308 
L 107.979517 605.312308 
L 110.878308 605.312308 
L 114.380297 605.312308 
L 117.772298 605.312308 
L 121.795163 605.312308 
L 126.505652 605.312308 
L 131.894699 605.312308 
L 136.064903 605.312308 
L 140.906123 605.312308 
L 146.343341 605.312308 
L 152.242772 605.312308 
L 158.23472 605.312308 
L 163.692746 605.312308 
L 168.88361 605.312308 
L 174.585426 605.312308 
L 180.46251 605.312308 
L 186.901027 605.312308 
L 193.842604 605.312308 
L 201.294329 605.312308 
L 209.304744 605.312308 
L 215.666289 605.312308 
L 222.461467 605.312308 
L 232.059762 605.312308 
L 242.378625 605.312308 
L 253.442863 605.312308 
L 265.803879 605.312308 
L 277.872644 605.312308 
L 291.4797 605.312308 
L 306.108307 605.312308 
L 314.293433 605.312308 
L 322.042849 605.312308 
L 330.136629 605.312308 
L 338.743693 605.312308 
L 347.240659 605.312308 
L 353.582193 605.312308 
L 358.098232 605.312308 
L 362.015801 605.312308 
L 365.100791 605.312308 
L 367.795107 605.312308 
L 370.339935 605.312308 
L 371.612349 605.312308 
L 372.884762 605.312308 
L 373.578284 605.312308 
L 374.157176 605.312308 
L 374.808605 605.312308 
L 375.42959 605.312308 
L 375.781185 605.312308 
L 376.100674 605.312308 
L 376.42634 605.312308 
L 376.702003 605.312308 
L 377.181086 605.312308 
L 377.629898 605.312308 
L 378.056467 605.312308 
L 378.557793 605.312308 
L 379.000786 605.312308 
L 379.485688 605.312308 
L 379.945558 605.312308 
L 380.413583 605.312308 
L 380.832336 605.312308 
L 381.341477 605.312308 
L 382.269372 605.312308 
L 383.197267 605.312308 
L 384.125162 605.312308 
L 385.053056 605.312308 
L 385.980951 605.312308 
L 386.908846 605.312308 
L 387.836741 605.312308 
L 388.764636 605.312308 
L 389.69253 605.312308 
L 390.578063 605.312308 
L 391.54832 605.312308 
L 393.28631 605.312308 
L 395.259899 605.312308 
L 396.651741 605.312308 
L 398.043583 605.312308 
L 399.899373 605.312308 
L 401.701247 605.312308 
L 403.610952 605.312308 
L 405.289681 605.312308 
L 406.894263 605.312308 
L 408.375361 605.312308 
L 410.106215 605.312308 
L 411.962005 605.312308 
L 414.385383 605.312308 
L 416.601479 605.312308 
L 418.59025 605.312308 
L 420.545322 605.312308 
L 422.367082 605.312308 
L 424.358264 605.312308 
L 426.834965 605.312308 
L 429.229604 605.312308 
L 431.143679 605.312308 
L 433.224812 605.312308 
L 435.488341 605.312308 
L 437.951073 605.312308 
L 439.269923 605.312308 
L 440.63164 605.312308 
L 442.106467 605.312308 
L 443.549241 605.312308 
L 445.155995 605.312308 
L 446.721698 605.312308 
L 448.530584 605.312308 
L 450.174259 605.312308 
L 451.951214 605.312308 
L 453.926016 605.312308 
L 455.933062 605.312308 
L 458.002814 605.312308 
L 460.314271 605.312308 
L 462.425952 605.312308 
L 464.811613 605.312308 
L 467.21716 605.312308 
L 469.759827 605.312308 
L 472.396058 605.312308 
L 475.19253 605.312308 
L 477.975382 605.312308 
L 480.842577 605.312308 
L 483.958078 605.312308 
L 487.02499 605.312308 
L 490.325069 605.312308 
L 493.589155 605.312308 
L 496.978314 605.312308 
L 500.205377 605.312308 
L 503.659157 605.312308 
L 506.946976 605.312308 
L 510.339999 605.312308 
L 513.575217 605.312308 
L 517.020842 605.312308 
L 520.529262 605.312308 
L 523.701684 605.312308 
L 527.248435 605.312308 
L 530.382526 605.312308 
L 533.47788 605.312308 
L 537.063369 605.312308 
L 540.596663 605.312308 
L 543.744211 605.312308 
L 547.100127 605.312308 
L 550.425053 605.312308 
L 553.753242 605.312308 
L 557.105896 605.312308 
L 560.64286 605.312308 
L 563.786738 605.312308 
L 567.416674 605.312308 
L 570.467581 605.312308 
L 572.48806 605.312308 
L 574.235341 605.312308 
L 575.774026 605.312308 
L 577.148423 605.312308 
L 578.893977 605.312308 
L 580.590786 605.312308 
L 582.236512 605.312308 
L 583.829265 605.312308 
L 585.170972 605.312308 
L 585.978345 605.312308 
L 586.689338 605.312308 
L 587.565631 605.312308 
L 588.440213 605.312308 
L 589.393295 605.312308 
L 590.510108 605.312308 
L 591.006574 605.312308 
L 591.536623 605.312308 
L 592.09897 605.312308 
L 592.691486 605.312308 
L 593.836984 605.312308 
L 595.007931 605.312308 
L 596.17812 605.312308 
L 597.43789 605.312308 
L 598.641338 605.312308 
L 599.95542 605.312308 
L 601.139458 605.312308 
L 602.456615 605.312308 
L 603.58178 605.312308 
L 604.861979 605.312308 
L 607.17568 605.312308 
L 609.400733 605.312308 
L 611.62836 605.312308 
L 613.948134 605.312308 
L 616.355835 605.312308 
L 618.846045 605.312308 
L 622.080194 605.312308 
L 625.776244 605.312308 
L 629.202701 605.312308 
L 632.80417 605.312308 
L 637.73667 605.312308 
L 642.249482 605.312308 
L 647.181983 605.312308 
L 656.627295 605.312308 
L 666.072608 605.312308 
L 675.51792 605.312308 
L 684.963233 605.312308 
L 694.408545 605.312308 
L 703.853858 605.312308 
L 713.29917 605.312308 
L 722.744483 605.312308 
L 741.635108 605.312308 
L 753.458468 605.312308 
L 765.81912 605.312308 
L 777.874829 605.312308 
L 788.86167 605.312308 
L 798.306983 605.312308 
L 807.092784 605.312308 
L 817.197608 605.312308 
L 817.197608 384.07732 
L 817.197608 384.07732 
L 807.092784 383.852781 
L 798.306983 383.4735 
L 788.86167 382.82449 
L 777.874829 382.082856 
L 765.81912 381.145567 
L 753.458468 380.196135 
L 741.635108 379.312291 
L 722.744483 378.566805 
L 713.29917 377.656112 
L 703.853858 377.045531 
L 694.408545 375.962804 
L 684.963233 374.970909 
L 675.51792 374.157596 
L 666.072608 373.244104 
L 656.627295 372.117014 
L 647.181983 370.774754 
L 642.249482 369.303677 
L 637.73667 367.554126 
L 632.80417 365.819754 
L 629.202701 364.131825 
L 625.776244 362.47222 
L 622.080194 360.448096 
L 618.846045 358.227067 
L 616.355835 356.239021 
L 613.948134 353.89046 
L 611.62836 351.725647 
L 609.400733 349.294208 
L 607.17568 347.135163 
L 604.861979 344.858554 
L 603.58178 342.960101 
L 602.456615 341.098047 
L 601.139458 339.192066 
L 599.95542 337.339529 
L 598.641338 335.69183 
L 597.43789 334.102904 
L 596.17812 332.48066 
L 595.007931 330.960871 
L 593.836984 329.729769 
L 592.691486 328.623152 
L 592.09897 327.465009 
L 591.536623 326.461067 
L 591.006574 325.576741 
L 590.510108 324.871249 
L 589.393295 324.54995 
L 588.440213 324.386879 
L 587.565631 324.06343 
L 586.689338 323.929896 
L 585.978345 324.067785 
L 585.170972 324.388218 
L 583.829265 324.410443 
L 582.236512 325.098951 
L 580.590786 325.397357 
L 578.893977 326.259049 
L 577.148423 326.741634 
L 575.774026 327.516389 
L 574.235341 327.885884 
L 572.48806 328.437454 
L 570.467581 328.696921 
L 567.416674 329.085954 
L 563.786738 329.644679 
L 560.64286 330.129573 
L 557.105896 331.382195 
L 553.753242 332.433246 
L 550.425053 333.575028 
L 547.100127 335.463116 
L 543.744211 337.604571 
L 540.596663 339.692506 
L 537.063369 342.189588 
L 533.47788 345.513102 
L 530.382526 349.116439 
L 527.248435 352.555164 
L 523.701684 356.350555 
L 520.529262 359.960291 
L 517.020842 362.677361 
L 513.575217 366.09388 
L 510.339999 368.599194 
L 506.946976 373.159659 
L 503.659157 378.183826 
L 500.205377 383.302125 
L 496.978314 389.391546 
L 493.589155 395.830429 
L 490.325069 403.061999 
L 487.02499 410.647357 
L 483.958078 419.257775 
L 480.842577 428.195228 
L 477.975382 438.683925 
L 475.19253 450.573703 
L 472.396058 462.997079 
L 469.759827 476.493437 
L 467.21716 490.637867 
L 464.811613 506.171913 
L 462.425952 520.248285 
L 460.314271 535.223961 
L 458.002814 549.223142 
L 455.933062 561.269415 
L 453.926016 574.826123 
L 451.951214 584.762639 
L 450.174259 593.685797 
L 448.530584 599.817874 
L 446.721698 604.712172 
L 445.155995 603.354654 
L 443.549241 601.914617 
L 442.106467 601.258678 
L 440.63164 601.543603 
L 439.269923 602.538778 
L 437.951073 604.192006 
L 435.488341 603.084647 
L 433.224812 599.957891 
L 431.143679 596.976136 
L 429.229604 594.152129 
L 426.834965 591.951071 
L 424.358264 591.029034 
L 422.367082 590.076656 
L 420.545322 589.024603 
L 418.59025 586.910578 
L 416.601479 581.962445 
L 414.385383 572.523258 
L 411.962005 562.170985 
L 410.106215 551.588563 
L 408.375361 541.110728 
L 406.894263 530.761731 
L 405.289681 520.65681 
L 403.610952 510.460248 
L 401.701247 500.550734 
L 399.899373 489.786955 
L 398.043583 474.907315 
L 396.651741 457.86728 
L 395.259899 437.935937 
L 393.28631 440.814825 
L 391.54832 436.49688 
L 390.578063 417.671203 
L 389.69253 399.757547 
L 388.764636 386.578747 
L 387.836741 372.888793 
L 386.908846 360.561401 
L 385.980951 347.339374 
L 385.053056 336.483588 
L 384.125162 325.500345 
L 383.197267 313.190099 
L 382.269372 308.090878 
L 381.341477 305.287345 
L 380.832336 304.460106 
L 380.413583 303.949589 
L 379.945558 304.174137 
L 379.485688 304.971315 
L 379.000786 306.946609 
L 378.557793 310.104624 
L 378.056467 319.249422 
L 377.629898 326.109526 
L 377.181086 355.092473 
L 376.702003 384.696592 
L 376.42634 400.027287 
L 376.100674 413.997846 
L 375.781185 424.440274 
L 375.42959 434.124895 
L 374.808605 440.877407 
L 374.157176 442.10047 
L 373.578284 448.443385 
L 372.884762 449.849322 
L 371.612349 452.204296 
L 370.339935 452.681033 
L 367.795107 453.908264 
L 365.100791 455.537607 
L 362.015801 457.669589 
L 358.098232 460.052038 
L 353.582193 462.957074 
L 347.240659 465.364302 
L 338.743693 468.194354 
L 330.136629 470.901442 
L 322.042849 473.160309 
L 314.293433 475.530868 
L 306.108307 479.898448 
L 291.4797 484.03052 
L 277.872644 487.776441 
L 265.803879 491.815332 
L 253.442863 495.994123 
L 242.378625 500.158949 
L 232.059762 503.484954 
L 222.461467 505.526054 
L 215.666289 509.978409 
L 209.304744 515.535649 
L 201.294329 518.911228 
L 193.842604 522.394988 
L 186.901027 526.013088 
L 180.46251 529.11998 
L 174.585426 533.359747 
L 168.88361 536.683143 
L 163.692746 540.682364 
L 158.23472 545.101904 
L 152.242772 548.831355 
L 146.343341 552.292583 
L 140.906123 555.448922 
L 136.064903 557.984753 
L 131.894699 562.860849 
L 126.505652 565.20917 
L 121.795163 566.501681 
L 117.772298 568.263113 
L 114.380297 569.08437 
L 110.878308 569.604574 
L 107.979517 571.075969 
L 105.819849 572.624953 
L 103.578522 575.572745 
L 101.273505 577.487161 
L 99.991406 579.278593 
L 98.820976 581.366842 
L 97.579316 583.325466 
L 96.397416 584.838941 
L 95.299612 586.371467 
L 94.171374 587.834796 
L 93.099922 589.290231 
L 92.004934 590.759311 
L 90.129589 592.186377 
L 88.857321 593.755458 
L 87.435066 595.166992 
L 84.740543 596.91404 
L 83.42602 597.925994 
L 82.213061 598.799281 
L 80.785425 599.787185 
L 79.049287 600.659904 
L 76.852227 601.534679 
L 73.741466 602.273799 
L 69.481777 602.893375 
L 63.647806 603.391297 
L 55.656948 603.771767 
L 44.711179 604.042889 
L 29.717351 604.21857 
L 9.178043 604.30305 
z
" clip-path="url(#pa78479502e)" style="fill: #1f77b4"/>
   </g>
   <g id="PolyCollection_2">
    <path d="M 9.178043 603.930511 
L 9.178043 604.30305 
L 29.717351 604.21857 
L 44.711179 604.042889 
L 55.656948 603.771767 
L 63.647806 603.391297 
L 69.481777 602.893375 
L 73.741466 602.273799 
L 76.852227 601.534679 
L 79.049287 600.659904 
L 80.785425 599.787185 
L 82.213061 598.799281 
L 83.42602 597.925994 
L 84.740543 596.91404 
L 87.435066 595.166992 
L 88.857321 593.755458 
L 90.129589 592.186377 
L 92.004934 590.759311 
L 93.099922 589.290231 
L 94.171374 587.834796 
L 95.299612 586.371467 
L 96.397416 584.838941 
L 97.579316 583.325466 
L 98.820976 581.366842 
L 99.991406 579.278593 
L 101.273505 577.487161 
L 103.578522 575.572745 
L 105.819849 572.624953 
L 107.979517 571.075969 
L 110.878308 569.604574 
L 114.380297 569.08437 
L 117.772298 568.263113 
L 121.795163 566.501681 
L 126.505652 565.20917 
L 131.894699 562.860849 
L 136.064903 557.984753 
L 140.906123 555.448922 
L 146.343341 552.292583 
L 152.242772 548.831355 
L 158.23472 545.101904 
L 163.692746 540.682364 
L 168.88361 536.683143 
L 174.585426 533.359747 
L 180.46251 529.11998 
L 186.901027 526.013088 
L 193.842604 522.394988 
L 201.294329 518.911228 
L 209.304744 515.535649 
L 215.666289 509.978409 
L 222.461467 505.526054 
L 232.059762 503.484954 
L 242.378625 500.158949 
L 253.442863 495.994123 
L 265.803879 491.815332 
L 277.872644 487.776441 
L 291.4797 484.03052 
L 306.108307 479.898448 
L 314.293433 475.530868 
L 322.042849 473.160309 
L 330.136629 470.901442 
L 338.743693 468.194354 
L 347.240659 465.364302 
L 353.582193 462.957074 
L 358.098232 460.052038 
L 362.015801 457.669589 
L 365.100791 455.537607 
L 367.795107 453.908264 
L 370.339935 452.681033 
L 371.612349 452.204296 
L 372.884762 449.849322 
L 373.578284 448.443385 
L 374.157176 442.10047 
L 374.808605 440.877407 
L 375.42959 434.124895 
L 375.781185 424.440274 
L 376.100674 413.997846 
L 376.42634 400.027287 
L 376.702003 384.696592 
L 377.181086 355.092473 
L 377.629898 326.109526 
L 378.056467 319.249422 
L 378.557793 310.104624 
L 379.000786 306.946609 
L 379.485688 304.971315 
L 379.945558 304.174137 
L 380.413583 303.949589 
L 380.832336 304.460106 
L 381.341477 305.287345 
L 382.269372 308.090878 
L 383.197267 313.190099 
L 384.125162 325.500345 
L 385.053056 336.483588 
L 385.980951 347.339374 
L 386.908846 360.561401 
L 387.836741 372.888793 
L 388.764636 386.578747 
L 389.69253 399.757547 
L 390.578063 417.671203 
L 391.54832 436.49688 
L 393.28631 440.814825 
L 395.259899 437.935937 
L 396.651741 457.86728 
L 398.043583 474.907315 
L 399.899373 489.786955 
L 401.701247 500.550734 
L 403.610952 510.460248 
L 405.289681 520.65681 
L 406.894263 530.761731 
L 408.375361 541.110728 
L 410.106215 551.588563 
L 411.962005 562.170985 
L 414.385383 572.523258 
L 416.601479 581.962445 
L 418.59025 586.910578 
L 420.545322 589.024603 
L 422.367082 590.076656 
L 424.358264 591.029034 
L 426.834965 591.951071 
L 429.229604 594.152129 
L 431.143679 596.976136 
L 433.224812 599.957891 
L 435.488341 603.084647 
L 437.951073 604.192006 
L 439.269923 602.538778 
L 440.63164 601.543603 
L 442.106467 601.258678 
L 443.549241 601.914617 
L 445.155995 603.354654 
L 446.721698 604.712172 
L 448.530584 599.817874 
L 450.174259 593.685797 
L 451.951214 584.762639 
L 453.926016 574.826123 
L 455.933062 561.269415 
L 458.002814 549.223142 
L 460.314271 535.223961 
L 462.425952 520.248285 
L 464.811613 506.171913 
L 467.21716 490.637867 
L 469.759827 476.493437 
L 472.396058 462.997079 
L 475.19253 450.573703 
L 477.975382 438.683925 
L 480.842577 428.195228 
L 483.958078 419.257775 
L 487.02499 410.647357 
L 490.325069 403.061999 
L 493.589155 395.830429 
L 496.978314 389.391546 
L 500.205377 383.302125 
L 503.659157 378.183826 
L 506.946976 373.159659 
L 510.339999 368.599194 
L 513.575217 366.09388 
L 517.020842 362.677361 
L 520.529262 359.960291 
L 523.701684 356.350555 
L 527.248435 352.555164 
L 530.382526 349.116439 
L 533.47788 345.513102 
L 537.063369 342.189588 
L 540.596663 339.692506 
L 543.744211 337.604571 
L 547.100127 335.463116 
L 550.425053 333.575028 
L 553.753242 332.433246 
L 557.105896 331.382195 
L 560.64286 330.129573 
L 563.786738 329.644679 
L 567.416674 329.085954 
L 570.467581 328.696921 
L 572.48806 328.437454 
L 574.235341 327.885884 
L 575.774026 327.516389 
L 577.148423 326.741634 
L 578.893977 326.259049 
L 580.590786 325.397357 
L 582.236512 325.098951 
L 583.829265 324.410443 
L 585.170972 324.388218 
L 585.978345 324.067785 
L 586.689338 323.929896 
L 587.565631 324.06343 
L 588.440213 324.386879 
L 589.393295 324.54995 
L 590.510108 324.871249 
L 591.006574 325.576741 
L 591.536623 326.461067 
L 592.09897 327.465009 
L 592.691486 328.623152 
L 593.836984 329.729769 
L 595.007931 330.960871 
L 596.17812 332.48066 
L 597.43789 334.102904 
L 598.641338 335.69183 
L 599.95542 337.339529 
L 601.139458 339.192066 
L 602.456615 341.098047 
L 603.58178 342.960101 
L 604.861979 344.858554 
L 607.17568 347.135163 
L 609.400733 349.294208 
L 611.62836 351.725647 
L 613.948134 353.89046 
L 616.355835 356.239021 
L 618.846045 358.227067 
L 622.080194 360.448096 
L 625.776244 362.47222 
L 629.202701 364.131825 
L 632.80417 365.819754 
L 637.73667 367.554126 
L 642.249482 369.303677 
L 647.181983 370.774754 
L 656.627295 372.117014 
L 666.072608 373.244104 
L 675.51792 374.157596 
L 684.963233 374.970909 
L 694.408545 375.962804 
L 703.853858 377.045531 
L 713.29917 377.656112 
L 722.744483 378.566805 
L 741.635108 379.312291 
L 753.458468 380.196135 
L 765.81912 381.145567 
L 777.874829 382.082856 
L 788.86167 382.82449 
L 798.306983 383.4735 
L 807.092784 383.852781 
L 817.197608 384.07732 
L 817.197608 230.897722 
L 817.197608 230.897722 
L 807.092784 230.900469 
L 798.306983 230.945237 
L 788.86167 230.851088 
L 777.874829 230.946448 
L 765.81912 230.968622 
L 753.458468 231.116978 
L 741.635108 231.619841 
L 722.744483 232.343043 
L 713.29917 232.58075 
L 703.853858 233.148333 
L 694.408545 233.517748 
L 684.963233 234.000851 
L 675.51792 234.913472 
L 666.072608 235.773709 
L 656.627295 236.546949 
L 647.181983 237.317383 
L 642.249482 237.870765 
L 637.73667 238.215629 
L 632.80417 239.437839 
L 629.202701 240.738151 
L 625.776244 242.050666 
L 622.080194 243.188336 
L 618.846045 244.054588 
L 616.355835 244.774785 
L 613.948134 245.054204 
L 611.62836 245.599087 
L 609.400733 245.814683 
L 607.17568 246.388224 
L 604.861979 246.799106 
L 603.58178 247.229397 
L 602.456615 247.695114 
L 601.139458 248.167797 
L 599.95542 248.718027 
L 598.641338 249.59704 
L 597.43789 250.55876 
L 596.17812 251.464955 
L 595.007931 252.449347 
L 593.836984 253.724138 
L 592.691486 255.077608 
L 592.09897 256.104469 
L 591.536623 257.210936 
L 591.006574 258.339577 
L 590.510108 259.522914 
L 589.393295 261.114187 
L 588.440213 262.645194 
L 587.565631 263.62268 
L 586.689338 264.599008 
L 585.978345 265.80233 
L 585.170972 267.021701 
L 583.829265 267.193887 
L 582.236512 268.500798 
L 580.590786 268.120607 
L 578.893977 269.157387 
L 577.148423 268.201728 
L 575.774026 268.701694 
L 574.235341 266.97753 
L 572.48806 266.746165 
L 570.467581 264.311722 
L 567.416674 263.403263 
L 563.786738 260.804974 
L 560.64286 259.470867 
L 557.105896 257.376694 
L 553.753242 256.54825 
L 550.425053 255.737725 
L 547.100127 255.166653 
L 543.744211 254.773784 
L 540.596663 254.64584 
L 537.063369 254.75107 
L 533.47788 255.270445 
L 530.382526 256.061391 
L 527.248435 256.726922 
L 523.701684 257.494992 
L 520.529262 258.410938 
L 517.020842 258.665745 
L 513.575217 259.297639 
L 510.339999 259.359726 
L 506.946976 259.439159 
L 503.659157 259.377159 
L 500.205377 259.418354 
L 496.978314 259.635964 
L 493.589155 259.885863 
L 490.325069 260.462149 
L 487.02499 260.742727 
L 483.958078 261.219623 
L 480.842577 261.294006 
L 477.975382 262.139115 
L 475.19253 263.995342 
L 472.396058 265.372382 
L 469.759827 266.719284 
L 467.21716 267.652457 
L 464.811613 268.542567 
L 462.425952 269.079466 
L 460.314271 269.511894 
L 458.002814 269.735342 
L 455.933062 269.762505 
L 453.926016 271.115701 
L 451.951214 273.945696 
L 450.174259 277.152318 
L 448.530584 278.850733 
L 446.721698 280.458213 
L 445.155995 276.10072 
L 443.549241 272.595136 
L 442.106467 270.675409 
L 440.63164 270.470439 
L 439.269923 273.485857 
L 437.951073 277.761218 
L 435.488341 281.243923 
L 433.224812 283.991987 
L 431.143679 286.473334 
L 429.229604 288.754351 
L 426.834965 290.725976 
L 424.358264 292.241547 
L 422.367082 294.334078 
L 420.545322 295.133075 
L 418.59025 296.428825 
L 416.601479 294.117879 
L 414.385383 289.843905 
L 411.962005 282.634302 
L 410.106215 277.849216 
L 408.375361 271.957443 
L 406.894263 268.157129 
L 405.289681 264.082038 
L 403.610952 261.559266 
L 401.701247 260.034726 
L 399.899373 260.641703 
L 398.043583 263.515478 
L 396.651741 267.173504 
L 395.259899 272.76796 
L 393.28631 293.98171 
L 391.54832 311.607038 
L 390.578063 313.951474 
L 389.69253 313.533807 
L 388.764636 313.282893 
L 387.836741 309.132112 
L 386.908846 304.138602 
L 385.980951 296.074441 
L 385.053056 289.366181 
L 384.125162 280.624766 
L 383.197267 270.466494 
L 382.269372 265.082388 
L 381.341477 263.150263 
L 380.832336 261.730675 
L 380.413583 261.837735 
L 379.945558 261.54586 
L 379.485688 262.390223 
L 379.000786 263.420714 
L 378.557793 266.000749 
L 378.056467 274.710929 
L 377.629898 280.006471 
L 377.181086 308.589447 
L 376.702003 336.043606 
L 376.42634 350.898498 
L 376.100674 366.235421 
L 375.781185 374.443091 
L 375.42959 383.480267 
L 374.808605 390.604161 
L 374.157176 389.623944 
L 373.578284 396.701926 
L 372.884762 396.422805 
L 371.612349 399.100204 
L 370.339935 398.23558 
L 367.795107 398.568659 
L 365.100791 399.907806 
L 362.015801 401.934451 
L 358.098232 404.551352 
L 353.582193 407.641648 
L 347.240659 410.705524 
L 338.743693 414.040968 
L 330.136629 417.546394 
L 322.042849 420.639179 
L 314.293433 423.840754 
L 306.108307 429.680243 
L 291.4797 434.931136 
L 277.872644 440.133438 
L 265.803879 445.686325 
L 253.442863 451.568612 
L 242.378625 457.578274 
L 232.059762 462.875686 
L 222.461467 466.182702 
L 215.666289 472.667442 
L 209.304744 480.466077 
L 201.294329 485.703678 
L 193.842604 490.955277 
L 186.901027 496.340115 
L 180.46251 501.000766 
L 174.585426 507.0011 
L 168.88361 511.841365 
L 163.692746 517.340226 
L 158.23472 522.934399 
L 152.242772 527.960275 
L 146.343341 532.7728 
L 140.906123 537.303181 
L 136.064903 541.217912 
L 131.894699 547.95197 
L 126.505652 551.785573 
L 121.795163 553.600872 
L 117.772298 555.980399 
L 114.380297 557.607835 
L 110.878308 559.080317 
L 107.979517 561.539818 
L 105.819849 564.106422 
L 103.578522 568.169362 
L 101.273505 571.056991 
L 99.991406 573.594516 
L 98.820976 576.456996 
L 97.579316 579.150309 
L 96.397416 581.282571 
L 95.299612 583.317305 
L 94.171374 585.260803 
L 93.099922 587.186328 
L 92.004934 589.055335 
L 90.129589 590.691948 
L 88.857321 592.608695 
L 87.435066 594.3052 
L 84.740543 596.062339 
L 83.42602 597.181632 
L 82.213061 598.008191 
L 80.785425 599.107651 
L 79.049287 599.954281 
L 76.852227 600.934731 
L 73.741466 601.671228 
L 69.481777 602.383091 
L 63.647806 602.89384 
L 55.656948 603.342194 
L 44.711179 603.628285 
L 29.717351 603.839715 
L 9.178043 603.930511 
z
" clip-path="url(#pa78479502e)" style="fill: #ff7f0e"/>
   </g>
   <g id="PolyCollection_3">
    <path d="M 9.178043 19.007875 
L 9.178043 603.930511 
L 29.717351 603.839715 
L 44.711179 603.628285 
L 55.656948 603.342194 
L 63.647806 602.89384 
L 69.481777 602.383091 
L 73.741466 601.671228 
L 76.852227 600.934731 
L 79.049287 599.954281 
L 80.785425 599.107651 
L 82.213061 598.008191 
L 83.42602 597.181632 
L 84.740543 596.062339 
L 87.435066 594.3052 
L 88.857321 592.608695 
L 90.129589 590.691948 
L 92.004934 589.055335 
L 93.099922 587.186328 
L 94.171374 585.260803 
L 95.299612 583.317305 
L 96.397416 581.282571 
L 97.579316 579.150309 
L 98.820976 576.456996 
L 99.991406 573.594516 
L 101.273505 571.056991 
L 103.578522 568.169362 
L 105.819849 564.106422 
L 107.979517 561.539818 
L 110.878308 559.080317 
L 114.380297 557.607835 
L 117.772298 555.980399 
L 121.795163 553.600872 
L 126.505652 551.785573 
L 131.894699 547.95197 
L 136.064903 541.217912 
L 140.906123 537.303181 
L 146.343341 532.7728 
L 152.242772 527.960275 
L 158.23472 522.934399 
L 163.692746 517.340226 
L 168.88361 511.841365 
L 174.585426 507.0011 
L 180.46251 501.000766 
L 186.901027 496.340115 
L 193.842604 490.955277 
L 201.294329 485.703678 
L 209.304744 480.466077 
L 215.666289 472.667442 
L 222.461467 466.182702 
L 232.059762 462.875686 
L 242.378625 457.578274 
L 253.442863 451.568612 
L 265.803879 445.686325 
L 277.872644 440.133438 
L 291.4797 434.931136 
L 306.108307 429.680243 
L 314.293433 423.840754 
L 322.042849 420.639179 
L 330.136629 417.546394 
L 338.743693 414.040968 
L 347.240659 410.705524 
L 353.582193 407.641648 
L 358.098232 404.551352 
L 362.015801 401.934451 
L 365.100791 399.907806 
L 367.795107 398.568659 
L 370.339935 398.23558 
L 371.612349 399.100204 
L 372.884762 396.422805 
L 373.578284 396.701926 
L 374.157176 389.623944 
L 374.808605 390.604161 
L 375.42959 383.480267 
L 375.781185 374.443091 
L 376.100674 366.235421 
L 376.42634 350.898498 
L 376.702003 336.043606 
L 377.181086 308.589447 
L 377.629898 280.006471 
L 378.056467 274.710929 
L 378.557793 266.000749 
L 379.000786 263.420714 
L 379.485688 262.390223 
L 379.945558 261.54586 
L 380.413583 261.837735 
L 380.832336 261.730675 
L 381.341477 263.150263 
L 382.269372 265.082388 
L 383.197267 270.466494 
L 384.125162 280.624766 
L 385.053056 289.366181 
L 385.980951 296.074441 
L 386.908846 304.138602 
L 387.836741 309.132112 
L 388.764636 313.282893 
L 389.69253 313.533807 
L 390.578063 313.951474 
L 391.54832 311.607038 
L 393.28631 293.98171 
L 395.259899 272.76796 
L 396.651741 267.173504 
L 398.043583 263.515478 
L 399.899373 260.641703 
L 401.701247 260.034726 
L 403.610952 261.559266 
L 405.289681 264.082038 
L 406.894263 268.157129 
L 408.375361 271.957443 
L 410.106215 277.849216 
L 411.962005 282.634302 
L 414.385383 289.843905 
L 416.601479 294.117879 
L 418.59025 296.428825 
L 420.545322 295.133075 
L 422.367082 294.334078 
L 424.358264 292.241547 
L 426.834965 290.725976 
L 429.229604 288.754351 
L 431.143679 286.473334 
L 433.224812 283.991987 
L 435.488341 281.243923 
L 437.951073 277.761218 
L 439.269923 273.485857 
L 440.63164 270.470439 
L 442.106467 270.675409 
L 443.549241 272.595136 
L 445.155995 276.10072 
L 446.721698 280.458213 
L 448.530584 278.850733 
L 450.174259 277.152318 
L 451.951214 273.945696 
L 453.926016 271.115701 
L 455.933062 269.762505 
L 458.002814 269.735342 
L 460.314271 269.511894 
L 462.425952 269.079466 
L 464.811613 268.542567 
L 467.21716 267.652457 
L 469.759827 266.719284 
L 472.396058 265.372382 
L 475.19253 263.995342 
L 477.975382 262.139115 
L 480.842577 261.294006 
L 483.958078 261.219623 
L 487.02499 260.742727 
L 490.325069 260.462149 
L 493.589155 259.885863 
L 496.978314 259.635964 
L 500.205377 259.418354 
L 503.659157 259.377159 
L 506.946976 259.439159 
L 510.339999 259.359726 
L 513.575217 259.297639 
L 517.020842 258.665745 
L 520.529262 258.410938 
L 523.701684 257.494992 
L 527.248435 256.726922 
L 530.382526 256.061391 
L 533.47788 255.270445 
L 537.063369 254.75107 
L 540.596663 254.64584 
L 543.744211 254.773784 
L 547.100127 255.166653 
L 550.425053 255.737725 
L 553.753242 256.54825 
L 557.105896 257.376694 
L 560.64286 259.470867 
L 563.786738 260.804974 
L 567.416674 263.403263 
L 570.467581 264.311722 
L 572.48806 266.746165 
L 574.235341 266.97753 
L 575.774026 268.701694 
L 577.148423 268.201728 
L 578.893977 269.157387 
L 580.590786 268.120607 
L 582.236512 268.500798 
L 583.829265 267.193887 
L 585.170972 267.021701 
L 585.978345 265.80233 
L 586.689338 264.599008 
L 587.565631 263.62268 
L 588.440213 262.645194 
L 589.393295 261.114187 
L 590.510108 259.522914 
L 591.006574 258.339577 
L 591.536623 257.210936 
L 592.09897 256.104469 
L 592.691486 255.077608 
L 593.836984 253.724138 
L 595.007931 252.449347 
L 596.17812 251.464955 
L 597.43789 250.55876 
L 598.641338 249.59704 
L 599.95542 248.718027 
L 601.139458 248.167797 
L 602.456615 247.695114 
L 603.58178 247.229397 
L 604.861979 246.799106 
L 607.17568 246.388224 
L 609.400733 245.814683 
L 611.62836 245.599087 
L 613.948134 245.054204 
L 616.355835 244.774785 
L 618.846045 244.054588 
L 622.080194 243.188336 
L 625.776244 242.050666 
L 629.202701 240.738151 
L 632.80417 239.437839 
L 637.73667 238.215629 
L 642.249482 237.870765 
L 647.181983 237.317383 
L 656.627295 236.546949 
L 666.072608 235.773709 
L 675.51792 234.913472 
L 684.963233 234.000851 
L 694.408545 233.517748 
L 703.853858 233.148333 
L 713.29917 232.58075 
L 722.744483 232.343043 
L 741.635108 231.619841 
L 753.458468 231.116978 
L 765.81912 230.968622 
L 777.874829 230.946448 
L 788.86167 230.851088 
L 798.306983 230.945237 
L 807.092784 230.900469 
L 817.197608 230.897722 
L 817.197608 61.942094 
L 817.197608 61.942094 
L 807.092784 61.984946 
L 798.306983 62.024283 
L 788.86167 62.029417 
L 777.874829 62.241541 
L 765.81912 62.583081 
L 753.458468 62.812524 
L 741.635108 63.874574 
L 722.744483 64.78162 
L 713.29917 65.369047 
L 703.853858 66.317942 
L 694.408545 66.982194 
L 684.963233 67.523829 
L 675.51792 69.052553 
L 666.072608 70.069357 
L 656.627295 71.419589 
L 647.181983 72.445841 
L 642.249482 73.026437 
L 637.73667 73.150393 
L 632.80417 75.174206 
L 629.202701 76.737451 
L 625.776244 78.302591 
L 622.080194 79.690046 
L 618.846045 80.688601 
L 616.355835 80.824501 
L 613.948134 80.514248 
L 611.62836 80.470218 
L 609.400733 80.087513 
L 607.17568 80.174856 
L 604.861979 80.110706 
L 603.58178 79.50231 
L 602.456615 78.936727 
L 601.139458 78.434459 
L 599.95542 78.033991 
L 598.641338 78.091043 
L 597.43789 78.257352 
L 596.17812 78.385733 
L 595.007931 78.633351 
L 593.836984 79.272787 
L 592.691486 80.067196 
L 592.09897 80.281798 
L 591.536623 80.64197 
L 591.006574 81.095309 
L 590.510108 81.644335 
L 589.393295 83.000338 
L 588.440213 84.236656 
L 587.565631 84.899315 
L 586.689338 85.540817 
L 585.978345 86.407244 
L 585.170972 87.271719 
L 583.829265 87.193953 
L 582.236512 88.100961 
L 580.590786 87.067222 
L 578.893977 87.315277 
L 577.148423 85.308389 
L 575.774026 84.716809 
L 574.235341 81.616416 
L 572.48806 80.059026 
L 570.467581 75.953144 
L 567.416674 73.566778 
L 563.786738 69.10263 
L 560.64286 66.239466 
L 557.105896 62.248757 
L 553.753242 60.596106 
L 550.425053 59.295701 
L 547.100127 58.206441 
L 543.744211 57.657623 
L 540.596663 57.821429 
L 537.063369 58.482163 
L 533.47788 59.549424 
L 530.382526 61.342173 
L 527.248435 63.242786 
L 523.701684 65.311389 
L 520.529262 66.500579 
L 517.020842 66.59068 
L 513.575217 67.335096 
L 510.339999 67.344606 
L 506.946976 66.524412 
L 503.659157 65.978008 
L 500.205377 64.79129 
L 496.978314 64.18036 
L 493.589155 62.853509 
L 490.325069 62.39137 
L 487.02499 60.869869 
L 483.958078 60.219203 
L 480.842577 58.539933 
L 477.975382 58.727726 
L 475.19253 60.41624 
L 472.396058 62.168697 
L 469.759827 63.940753 
L 467.21716 65.785248 
L 464.811613 67.651371 
L 462.425952 69.497508 
L 460.314271 71.288063 
L 458.002814 73.287899 
L 455.933062 74.945796 
L 453.926016 79.080606 
L 451.951214 85.431249 
L 450.174259 91.935767 
L 448.530584 95.161318 
L 446.721698 98.152986 
L 445.155995 94.410364 
L 443.549241 90.174988 
L 442.106467 86.691425 
L 440.63164 83.499497 
L 439.269923 83.133937 
L 437.951073 83.090208 
L 435.488341 82.798991 
L 433.224812 82.172788 
L 431.143679 81.614627 
L 429.229604 81.044686 
L 426.834965 80.561288 
L 424.358264 80.170684 
L 422.367082 79.521852 
L 420.545322 79.037015 
L 418.59025 78.019431 
L 416.601479 76.786423 
L 414.385383 74.004153 
L 411.962005 71.136251 
L 410.106215 68.907294 
L 408.375361 66.764827 
L 406.894263 64.37784 
L 405.289681 62.212442 
L 403.610952 60.048248 
L 401.701247 58.261601 
L 399.899373 56.613893 
L 398.043583 54.947132 
L 396.651741 53.203755 
L 395.259899 53.049631 
L 393.28631 77.929059 
L 391.54832 101.092408 
L 390.578063 103.524276 
L 389.69253 103.760898 
L 388.764636 111.362773 
L 387.836741 115.321558 
L 386.908846 118.851139 
L 385.980951 119.401627 
L 385.053056 122.060545 
L 384.125162 121.881796 
L 383.197267 129.698796 
L 382.269372 137.11862 
L 381.341477 145.339048 
L 380.832336 144.166057 
L 380.413583 145.408897 
L 379.945558 143.646245 
L 379.485688 143.426976 
L 379.000786 141.100098 
L 378.557793 139.280863 
L 378.056467 142.24225 
L 377.629898 139.22178 
L 377.181086 136.107962 
L 376.702003 116.201414 
L 376.42634 97.88181 
L 376.100674 83.582137 
L 375.781185 69.731646 
L 375.42959 58.327439 
L 374.808605 55.184757 
L 374.157176 46.091896 
L 373.578284 45.966248 
L 372.884762 39.732293 
L 371.612349 37.413711 
L 370.339935 32.059996 
L 367.795107 25.149023 
L 365.100791 24.757982 
L 362.015801 25.619956 
L 358.098232 25.141904 
L 353.582193 25.708938 
L 347.240659 25.289996 
L 338.743693 25.644085 
L 330.136629 25.323755 
L 322.042849 25.534059 
L 314.293433 25.24833 
L 306.108307 25.428798 
L 291.4797 25.213776 
L 277.872644 25.260231 
L 265.803879 25.114354 
L 253.442863 25.05547 
L 242.378625 25.573592 
L 232.059762 25.454197 
L 222.461467 25.385056 
L 215.666289 25.445823 
L 209.304744 25.631079 
L 201.294329 25.019748 
L 193.842604 24.592178 
L 186.901027 24.566145 
L 180.46251 24.504466 
L 174.585426 24.481949 
L 168.88361 24.41735 
L 163.692746 24.378279 
L 158.23472 24.253272 
L 152.242772 24.092539 
L 146.343341 23.94223 
L 140.906123 23.739163 
L 136.064903 23.531189 
L 131.894699 23.296909 
L 126.505652 22.978451 
L 121.795163 22.572254 
L 117.772298 22.246388 
L 114.380297 21.943897 
L 110.878308 21.674416 
L 107.979517 21.410142 
L 105.819849 21.237506 
L 103.578522 21.050807 
L 101.273505 20.892155 
L 99.991406 20.723375 
L 98.820976 20.60624 
L 97.579316 20.451267 
L 96.397416 20.343594 
L 95.299612 20.190574 
L 94.171374 20.089593 
L 93.099922 19.957521 
L 92.004934 19.877515 
L 90.129589 19.729302 
L 88.857321 19.663047 
L 87.435066 19.560183 
L 84.740543 19.469248 
L 83.42602 19.373481 
L 82.213061 19.317586 
L 80.785425 19.243734 
L 79.049287 19.199915 
L 76.852227 19.147468 
L 73.741466 19.116421 
L 69.481777 19.079333 
L 63.647806 19.05837 
L 55.656948 19.035103 
L 44.711179 19.023011 
L 29.717351 19.011824 
L 9.178043 19.007875 
z
" clip-path="url(#pa78479502e)" style="fill: #2ca02c"/>
   </g>
   <g id="PolyCollection_4">
    <path d="M 9.178043 18.927692 
L 9.178043 19.007875 
L 29.717351 19.011824 
L 44.711179 19.023011 
L 55.656948 19.035103 
L 63.647806 19.05837 
L 69.481777 19.079333 
L 73.741466 19.116421 
L 76.852227 19.147468 
L 79.049287 19.199915 
L 80.785425 19.243734 
L 82.213061 19.317586 
L 83.42602 19.373481 
L 84.740543 19.469248 
L 87.435066 19.560183 
L 88.857321 19.663047 
L 90.129589 19.729302 
L 92.004934 19.877515 
L 93.099922 19.957521 
L 94.171374 20.089593 
L 95.299612 20.190574 
L 96.397416 20.343594 
L 97.579316 20.451267 
L 98.820976 20.60624 
L 99.991406 20.723375 
L 101.273505 20.892155 
L 103.578522 21.050807 
L 105.819849 21.237506 
L 107.979517 21.410142 
L 110.878308 21.674416 
L 114.380297 21.943897 
L 117.772298 22.246388 
L 121.795163 22.572254 
L 126.505652 22.978451 
L 131.894699 23.296909 
L 136.064903 23.531189 
L 140.906123 23.739163 
L 146.343341 23.94223 
L 152.242772 24.092539 
L 158.23472 24.253272 
L 163.692746 24.378279 
L 168.88361 24.41735 
L 174.585426 24.481949 
L 180.46251 24.504466 
L 186.901027 24.566145 
L 193.842604 24.592178 
L 201.294329 25.019748 
L 209.304744 25.631079 
L 215.666289 25.445823 
L 222.461467 25.385056 
L 232.059762 25.454197 
L 242.378625 25.573592 
L 253.442863 25.05547 
L 265.803879 25.114354 
L 277.872644 25.260231 
L 291.4797 25.213776 
L 306.108307 25.428798 
L 314.293433 25.24833 
L 322.042849 25.534059 
L 330.136629 25.323755 
L 338.743693 25.644085 
L 347.240659 25.289996 
L 353.582193 25.708938 
L 358.098232 25.141904 
L 362.015801 25.619956 
L 365.100791 24.757982 
L 367.795107 25.149023 
L 370.339935 32.059996 
L 371.612349 37.413711 
L 372.884762 39.732293 
L 373.578284 45.966248 
L 374.157176 46.091896 
L 374.808605 55.184757 
L 375.42959 58.327439 
L 375.781185 69.731646 
L 376.100674 83.582137 
L 376.42634 97.88181 
L 376.702003 116.201414 
L 377.181086 136.107962 
L 377.629898 139.22178 
L 378.056467 142.24225 
L 378.557793 139.280863 
L 379.000786 141.100098 
L 379.485688 143.426976 
L 379.945558 143.646245 
L 380.413583 145.408897 
L 380.832336 144.166057 
L 381.341477 145.339048 
L 382.269372 137.11862 
L 383.197267 129.698796 
L 384.125162 121.881796 
L 385.053056 122.060545 
L 385.980951 119.401627 
L 386.908846 118.851139 
L 387.836741 115.321558 
L 388.764636 111.362773 
L 389.69253 103.760898 
L 390.578063 103.524276 
L 391.54832 101.092408 
L 393.28631 77.929059 
L 395.259899 53.049631 
L 396.651741 53.203755 
L 398.043583 54.947132 
L 399.899373 56.613893 
L 401.701247 58.261601 
L 403.610952 60.048248 
L 405.289681 62.212442 
L 406.894263 64.37784 
L 408.375361 66.764827 
L 410.106215 68.907294 
L 411.962005 71.136251 
L 414.385383 74.004153 
L 416.601479 76.786423 
L 418.59025 78.019431 
L 420.545322 79.037015 
L 422.367082 79.521852 
L 424.358264 80.170684 
L 426.834965 80.561288 
L 429.229604 81.044686 
L 431.143679 81.614627 
L 433.224812 82.172788 
L 435.488341 82.798991 
L 437.951073 83.090208 
L 439.269923 83.133937 
L 440.63164 83.499497 
L 442.106467 86.691425 
L 443.549241 90.174988 
L 445.155995 94.410364 
L 446.721698 98.152986 
L 448.530584 95.161318 
L 450.174259 91.935767 
L 451.951214 85.431249 
L 453.926016 79.080606 
L 455.933062 74.945796 
L 458.002814 73.287899 
L 460.314271 71.288063 
L 462.425952 69.497508 
L 464.811613 67.651371 
L 467.21716 65.785248 
L 469.759827 63.940753 
L 472.396058 62.168697 
L 475.19253 60.41624 
L 477.975382 58.727726 
L 480.842577 58.539933 
L 483.958078 60.219203 
L 487.02499 60.869869 
L 490.325069 62.39137 
L 493.589155 62.853509 
L 496.978314 64.18036 
L 500.205377 64.79129 
L 503.659157 65.978008 
L 506.946976 66.524412 
L 510.339999 67.344606 
L 513.575217 67.335096 
L 517.020842 66.59068 
L 520.529262 66.500579 
L 523.701684 65.311389 
L 527.248435 63.242786 
L 530.382526 61.342173 
L 533.47788 59.549424 
L 537.063369 58.482163 
L 540.596663 57.821429 
L 543.744211 57.657623 
L 547.100127 58.206441 
L 550.425053 59.295701 
L 553.753242 60.596106 
L 557.105896 62.248757 
L 560.64286 66.239466 
L 563.786738 69.10263 
L 567.416674 73.566778 
L 570.467581 75.953144 
L 572.48806 80.059026 
L 574.235341 81.616416 
L 575.774026 84.716809 
L 577.148423 85.308389 
L 578.893977 87.315277 
L 580.590786 87.067222 
L 582.236512 88.100961 
L 583.829265 87.193953 
L 585.170972 87.271719 
L 585.978345 86.407244 
L 586.689338 85.540817 
L 587.565631 84.899315 
L 588.440213 84.236656 
L 589.393295 83.000338 
L 590.510108 81.644335 
L 591.006574 81.095309 
L 591.536623 80.64197 
L 592.09897 80.281798 
L 592.691486 80.067196 
L 593.836984 79.272787 
L 595.007931 78.633351 
L 596.17812 78.385733 
L 597.43789 78.257352 
L 598.641338 78.091043 
L 599.95542 78.033991 
L 601.139458 78.434459 
L 602.456615 78.936727 
L 603.58178 79.50231 
L 604.861979 80.110706 
L 607.17568 80.174856 
L 609.400733 80.087513 
L 611.62836 80.470218 
L 613.948134 80.514248 
L 616.355835 80.824501 
L 618.846045 80.688601 
L 622.080194 79.690046 
L 625.776244 78.302591 
L 629.202701 76.737451 
L 632.80417 75.174206 
L 637.73667 73.150393 
L 642.249482 73.026437 
L 647.181983 72.445841 
L 656.627295 71.419589 
L 666.072608 70.069357 
L 675.51792 69.052553 
L 684.963233 67.523829 
L 694.408545 66.982194 
L 703.853858 66.317942 
L 713.29917 65.369047 
L 722.744483 64.78162 
L 741.635108 63.874574 
L 753.458468 62.812524 
L 765.81912 62.583081 
L 777.874829 62.241541 
L 788.86167 62.029417 
L 798.306983 62.024283 
L 807.092784 61.984946 
L 817.197608 61.942094 
L 817.197608 50.717609 
L 817.197608 50.717609 
L 807.092784 50.687481 
L 798.306983 50.578135 
L 788.86167 50.36662 
L 777.874829 50.290362 
L 765.81912 50.266908 
L 753.458468 50.059017 
L 741.635108 50.619913 
L 722.744483 50.928105 
L 713.29917 50.890043 
L 703.853858 51.204587 
L 694.408545 51.129492 
L 684.963233 50.889585 
L 675.51792 51.573297 
L 666.072608 51.738664 
L 656.627295 52.234438 
L 647.181983 52.414411 
L 642.249482 52.108706 
L 637.73667 51.344417 
L 632.80417 52.562502 
L 629.202701 53.311181 
L 625.776244 54.054143 
L 622.080194 54.657359 
L 618.846045 54.873274 
L 616.355835 54.171315 
L 613.948134 53.047685 
L 611.62836 52.223069 
L 609.400733 51.105052 
L 607.17568 50.510269 
L 604.861979 49.829552 
L 603.58178 48.598368 
L 602.456615 47.474928 
L 601.139458 46.504273 
L 599.95542 45.709534 
L 598.641338 45.466081 
L 597.43789 45.40688 
L 596.17812 45.399735 
L 595.007931 45.57988 
L 593.836984 46.232264 
L 592.691486 47.105292 
L 592.09897 47.430227 
L 591.536623 47.961087 
L 591.006574 48.642349 
L 590.510108 49.467925 
L 589.393295 51.197015 
L 588.440213 52.82578 
L 587.565631 53.913024 
L 586.689338 54.993966 
L 585.978345 56.301397 
L 585.170972 57.615717 
L 583.829265 58.064521 
L 582.236512 59.480963 
L 580.590786 58.930677 
L 578.893977 59.629041 
L 577.148423 58.033252 
L 575.774026 57.814091 
L 574.235341 55.038912 
L 572.48806 53.755679 
L 570.467581 49.870343 
L 567.416674 47.637853 
L 563.786738 43.267734 
L 560.64286 40.447014 
L 557.105896 36.446133 
L 553.753242 34.679996 
L 550.425053 33.239417 
L 547.100127 31.974366 
L 543.744211 31.23449 
L 540.596663 31.168378 
L 537.063369 31.60418 
L 533.47788 32.386944 
L 530.382526 33.952693 
L 527.248435 35.493778 
L 523.701684 37.370232 
L 520.529262 38.29063 
L 517.020842 38.521551 
L 513.575217 38.94151 
L 510.339999 39.075866 
L 506.946976 37.640274 
L 503.659157 36.547958 
L 500.205377 34.561782 
L 496.978314 33.056554 
L 493.589155 30.633453 
L 490.325069 28.967783 
L 487.02499 26.056152 
L 483.958078 23.854712 
L 480.842577 20.489276 
L 477.975382 18.927692 
L 475.19253 18.927692 
L 472.396058 18.927692 
L 469.759827 18.927692 
L 467.21716 18.927692 
L 464.811613 18.927692 
L 462.425952 18.927692 
L 460.314271 18.927692 
L 458.002814 18.927692 
L 455.933062 18.927692 
L 453.926016 21.029377 
L 451.951214 26.400927 
L 450.174259 31.598582 
L 448.530584 34.017106 
L 446.721698 35.998518 
L 445.155995 31.771101 
L 443.549241 26.917083 
L 442.106467 22.975364 
L 440.63164 19.298235 
L 439.269923 18.927692 
L 437.951073 18.927692 
L 435.488341 18.927692 
L 433.224812 18.927692 
L 431.143679 18.927692 
L 429.229604 18.927692 
L 426.834965 18.927692 
L 424.358264 18.927692 
L 422.367082 18.927692 
L 420.545322 18.927692 
L 418.59025 18.927692 
L 416.601479 18.927692 
L 414.385383 18.927692 
L 411.962005 18.927692 
L 410.106215 18.927692 
L 408.375361 18.927692 
L 406.894263 18.927692 
L 405.289681 18.927692 
L 403.610952 18.927692 
L 401.701247 18.927692 
L 399.899373 18.927692 
L 398.043583 18.927692 
L 396.651741 18.927692 
L 395.259899 20.835616 
L 393.28631 46.712622 
L 391.54832 71.858742 
L 390.578063 78.057188 
L 389.69253 82.175338 
L 388.764636 92.745493 
L 387.836741 99.341872 
L 386.908846 105.187724 
L 385.980951 107.78629 
L 385.053056 112.24992 
L 384.125162 113.633707 
L 383.197267 122.77705 
L 382.269372 131.221172 
L 381.341477 140.344158 
L 380.832336 139.851484 
L 380.413583 142.158892 
L 379.945558 140.396723 
L 379.485688 141.259868 
L 379.000786 138.331793 
L 378.557793 137.62439 
L 378.056467 139.525167 
L 377.629898 137.492125 
L 377.181086 133.049727 
L 376.702003 114.004054 
L 376.42634 94.484786 
L 376.100674 81.038418 
L 375.781185 65.956897 
L 375.42959 55.455071 
L 374.808605 50.912199 
L 374.157176 42.559445 
L 373.578284 41.149023 
L 372.884762 35.608172 
L 371.612349 32.001352 
L 370.339935 27.212135 
L 367.795107 18.927692 
L 365.100791 18.927692 
L 362.015801 18.927692 
L 358.098232 18.927692 
L 353.582193 18.927692 
L 347.240659 18.927692 
L 338.743693 18.927692 
L 330.136629 18.927692 
L 322.042849 18.927692 
L 314.293433 18.927692 
L 306.108307 18.927692 
L 291.4797 18.927692 
L 277.872644 18.927692 
L 265.803879 18.927692 
L 253.442863 18.927692 
L 242.378625 19.552174 
L 232.059762 19.49205 
L 222.461467 19.522998 
L 215.666289 19.640621 
L 209.304744 19.873784 
L 201.294329 19.29365 
L 193.842604 18.927692 
L 186.901027 18.927692 
L 180.46251 18.927692 
L 174.585426 18.927692 
L 168.88361 18.927692 
L 163.692746 18.927692 
L 158.23472 18.927692 
L 152.242772 18.927692 
L 146.343341 18.927692 
L 140.906123 18.927692 
L 136.064903 18.927692 
L 131.894699 18.927692 
L 126.505652 18.927692 
L 121.795163 18.927692 
L 117.772298 18.927692 
L 114.380297 18.927692 
L 110.878308 18.927692 
L 107.979517 18.927692 
L 105.819849 18.927692 
L 103.578522 18.927692 
L 101.273505 18.927692 
L 99.991406 18.927692 
L 98.820976 18.927692 
L 97.579316 18.927692 
L 96.397416 18.927692 
L 95.299612 18.927692 
L 94.171374 18.927692 
L 93.099922 18.927692 
L 92.004934 18.927692 
L 90.129589 18.927692 
L 88.857321 18.927692 
L 87.435066 18.927692 
L 84.740543 18.927692 
L 83.42602 18.927692 
L 82.213061 18.927692 
L 80.785425 18.927692 
L 79.049287 18.927692 
L 76.852227 18.927692 
L 73.741466 18.927692 
L 69.481777 18.927692 
L 63.647806 18.927692 
L 55.656948 18.927692 
L 44.711179 18.927692 
L 29.717351 18.927692 
L 9.178043 18.927692 
z
" clip-path="url(#pa78479502e)" style="fill: #d62728"/>
   </g>
   <g id="matplotlib.axis_1">
    <g id="xtick_1">
     <g id="line2d_1">
      <path d="M 84.740543 617.04 
L 84.740543 7.2 
" clip-path="url(#pa78479502e)" style="fill: none; stroke: #b0b0b0; stroke-width: 0.8; stroke-linecap: square"/>
     </g>
     <g id="line2d_2">
      <defs>
       <path id="mcd1ae6d585" d="M 0 0 
L 0 3.5 
" style="stroke: #000000; stroke-width: 0.8"/>
      </defs>
      <g>
       <use xlink:href="#mcd1ae6d585" x="84.740543" y="617.04" style="stroke: #000000; stroke-width: 0.8"/>
      </g>
     </g>
     <g id="text_1">
      <!-- $\mathdefault{0.0}$ -->
      <g transform="translate(66.968823 644.795495) scale(0.3 -0.3)">
       <defs>
        <path id="CMR17-30" d="M 2688 2025 
C 2688 2416 2682 3080 2413 3591 
C 2176 4039 1798 4198 1466 4198 
C 1158 4198 768 4058 525 3597 
C 269 3118 243 2524 243 2025 
C 243 1661 250 1106 448 619 
C 723 -39 1216 -128 1466 -128 
C 1760 -128 2208 -7 2470 600 
C 2662 1042 2688 1559 2688 2025 
z
M 1466 -26 
C 1056 -26 813 325 723 812 
C 653 1188 653 1738 653 2096 
C 653 2588 653 2997 736 3387 
C 858 3929 1216 4096 1466 4096 
C 1728 4096 2067 3923 2189 3400 
C 2272 3036 2278 2607 2278 2096 
C 2278 1680 2278 1169 2202 792 
C 2067 95 1690 -26 1466 -26 
z
" transform="scale(0.015625)"/>
        <path id="CMMI12-3a" d="M 1178 307 
C 1178 492 1024 619 870 619 
C 685 619 557 466 557 313 
C 557 128 710 0 864 0 
C 1050 0 1178 153 1178 307 
z
" transform="scale(0.015625)"/>
       </defs>
       <use xlink:href="#CMR17-30" transform="scale(0.996264)"/>
       <use xlink:href="#CMMI12-3a" transform="translate(45.690477 0) scale(0.996264)"/>
       <use xlink:href="#CMR17-30" transform="translate(72.787654 0) scale(0.996264)"/>
      </g>
     </g>
    </g>
    <g id="xtick_2">
     <g id="line2d_3">
      <path d="M 235.865543 617.04 
L 235.865543 7.2 
" clip-path="url(#pa78479502e)" style="fill: none; stroke: #b0b0b0; stroke-width: 0.8; stroke-linecap: square"/>
     </g>
     <g id="line2d_4">
      <g>
       <use xlink:href="#mcd1ae6d585" x="235.865543" y="617.04" style="stroke: #000000; stroke-width: 0.8"/>
      </g>
     </g>
     <g id="text_2">
      <!-- $\mathdefault{0.1}$ -->
      <g transform="translate(218.093823 644.795495) scale(0.3 -0.3)">
       <defs>
        <path id="CMR17-31" d="M 1702 4058 
C 1702 4192 1696 4192 1606 4192 
C 1357 3916 979 3827 621 3827 
C 602 3827 570 3827 563 3808 
C 557 3795 557 3782 557 3648 
C 755 3648 1088 3686 1344 3839 
L 1344 461 
C 1344 236 1331 160 781 160 
L 589 160 
L 589 0 
C 896 0 1216 0 1523 0 
C 1830 0 2150 0 2458 0 
L 2458 160 
L 2266 160 
C 1715 160 1702 230 1702 458 
L 1702 4058 
z
" transform="scale(0.015625)"/>
       </defs>
       <use xlink:href="#CMR17-30" transform="scale(0.996264)"/>
       <use xlink:href="#CMMI12-3a" transform="translate(45.690477 0) scale(0.996264)"/>
       <use xlink:href="#CMR17-31" transform="translate(72.787654 0) scale(0.996264)"/>
      </g>
     </g>
    </g>
    <g id="xtick_3">
     <g id="line2d_5">
      <path d="M 386.990543 617.04 
L 386.990543 7.2 
" clip-path="url(#pa78479502e)" style="fill: none; stroke: #b0b0b0; stroke-width: 0.8; stroke-linecap: square"/>
     </g>
     <g id="line2d_6">
      <g>
       <use xlink:href="#mcd1ae6d585" x="386.990543" y="617.04" style="stroke: #000000; stroke-width: 0.8"/>
      </g>
     </g>
     <g id="text_3">
      <!-- $\mathdefault{0.2}$ -->
      <g transform="translate(369.218823 644.795495) scale(0.3 -0.3)">
       <defs>
        <path id="CMR17-32" d="M 2669 989 
L 2554 989 
C 2490 536 2438 459 2413 420 
C 2381 369 1920 369 1830 369 
L 602 369 
C 832 619 1280 1072 1824 1597 
C 2214 1967 2669 2402 2669 3035 
C 2669 3790 2067 4224 1395 4224 
C 691 4224 262 3604 262 3030 
C 262 2780 448 2748 525 2748 
C 589 2748 781 2787 781 3010 
C 781 3207 614 3264 525 3264 
C 486 3264 448 3258 422 3245 
C 544 3790 915 4058 1306 4058 
C 1862 4058 2227 3617 2227 3035 
C 2227 2479 1901 2000 1536 1584 
L 262 146 
L 262 0 
L 2515 0 
L 2669 989 
z
" transform="scale(0.015625)"/>
       </defs>
       <use xlink:href="#CMR17-30" transform="scale(0.996264)"/>
       <use xlink:href="#CMMI12-3a" transform="translate(45.690477 0) scale(0.996264)"/>
       <use xlink:href="#CMR17-32" transform="translate(72.787654 0) scale(0.996264)"/>
      </g>
     </g>
    </g>
    <g id="xtick_4">
     <g id="line2d_7">
      <path d="M 538.115543 617.04 
L 538.115543 7.2 
" clip-path="url(#pa78479502e)" style="fill: none; stroke: #b0b0b0; stroke-width: 0.8; stroke-linecap: square"/>
     </g>
     <g id="line2d_8">
      <g>
       <use xlink:href="#mcd1ae6d585" x="538.115543" y="617.04" style="stroke: #000000; stroke-width: 0.8"/>
      </g>
     </g>
     <g id="text_4">
      <!-- $\mathdefault{0.3}$ -->
      <g transform="translate(520.343823 644.795495) scale(0.3 -0.3)">
       <defs>
        <path id="CMR17-33" d="M 1414 2157 
C 1984 2157 2234 1662 2234 1090 
C 2234 320 1824 25 1453 25 
C 1114 25 563 194 390 693 
C 422 680 454 680 486 680 
C 640 680 755 782 755 948 
C 755 1133 614 1216 486 1216 
C 378 1216 211 1165 211 926 
C 211 335 787 -128 1466 -128 
C 2176 -128 2720 430 2720 1085 
C 2720 1707 2208 2157 1600 2227 
C 2086 2328 2554 2756 2554 3329 
C 2554 3820 2048 4179 1472 4179 
C 890 4179 378 3829 378 3329 
C 378 3110 544 3072 627 3072 
C 762 3072 877 3155 877 3321 
C 877 3486 762 3569 627 3569 
C 602 3569 570 3569 544 3557 
C 730 3959 1235 4032 1459 4032 
C 1683 4032 2106 3925 2106 3320 
C 2106 3143 2080 2828 1862 2550 
C 1670 2304 1453 2304 1242 2284 
C 1210 2284 1062 2269 1037 2269 
C 992 2263 966 2257 966 2208 
C 966 2163 973 2157 1101 2157 
L 1414 2157 
z
" transform="scale(0.015625)"/>
       </defs>
       <use xlink:href="#CMR17-30" transform="scale(0.996264)"/>
       <use xlink:href="#CMMI12-3a" transform="translate(45.690477 0) scale(0.996264)"/>
       <use xlink:href="#CMR17-33" transform="translate(72.787654 0) scale(0.996264)"/>
      </g>
     </g>
    </g>
    <g id="xtick_5">
     <g id="line2d_9">
      <path d="M 689.240543 617.04 
L 689.240543 7.2 
" clip-path="url(#pa78479502e)" style="fill: none; stroke: #b0b0b0; stroke-width: 0.8; stroke-linecap: square"/>
     </g>
     <g id="line2d_10">
      <g>
       <use xlink:href="#mcd1ae6d585" x="689.240543" y="617.04" style="stroke: #000000; stroke-width: 0.8"/>
      </g>
     </g>
     <g id="text_5">
      <!-- $\mathdefault{0.4}$ -->
      <g transform="translate(671.468823 644.795495) scale(0.3 -0.3)">
       <defs>
        <path id="CMR17-34" d="M 2150 4122 
C 2150 4256 2144 4256 2029 4256 
L 128 1254 
L 128 1088 
L 1779 1088 
L 1779 457 
C 1779 224 1766 160 1318 160 
L 1197 160 
L 1197 0 
C 1402 0 1747 0 1965 0 
C 2182 0 2528 0 2733 0 
L 2733 160 
L 2611 160 
C 2163 160 2150 224 2150 457 
L 2150 1088 
L 2803 1088 
L 2803 1254 
L 2150 1254 
L 2150 4122 
z
M 1798 3703 
L 1798 1254 
L 256 1254 
L 1798 3703 
z
" transform="scale(0.015625)"/>
       </defs>
       <use xlink:href="#CMR17-30" transform="scale(0.996264)"/>
       <use xlink:href="#CMMI12-3a" transform="translate(45.690477 0) scale(0.996264)"/>
       <use xlink:href="#CMR17-34" transform="translate(72.787654 0) scale(0.996264)"/>
      </g>
     </g>
    </g>
    <g id="text_6">
     <!-- $x, \; m $ -->
     <g transform="translate(410.316604 678.823697) scale(0.35 -0.35)">
      <defs>
       <path id="CMMI12-78" d="M 3034 2606 
C 2829 2567 2752 2414 2752 2293 
C 2752 2139 2874 2088 2963 2088 
C 3155 2088 3290 2254 3290 2427 
C 3290 2695 2982 2816 2714 2816 
C 2323 2816 2106 2433 2048 2312 
C 1901 2816 1504 2816 1389 2816 
C 736 2816 390 1980 390 1839 
C 390 1814 416 1782 461 1782 
C 512 1782 525 1820 538 1846 
C 755 2555 1184 2689 1370 2689 
C 1658 2689 1715 2420 1715 2267 
C 1715 2127 1677 1980 1600 1673 
L 1382 798 
C 1286 415 1101 64 762 64 
C 730 64 570 64 435 147 
C 666 192 717 383 717 460 
C 717 588 621 664 499 664 
C 346 664 179 530 179 326 
C 179 57 480 -64 755 -64 
C 1062 -64 1280 179 1414 441 
C 1517 64 1837 -64 2074 -64 
C 2726 -64 3072 773 3072 913 
C 3072 945 3046 971 3008 971 
C 2950 971 2944 939 2925 888 
C 2752 326 2381 64 2093 64 
C 1869 64 1747 230 1747 492 
C 1747 632 1773 734 1875 1156 
L 2099 2024 
C 2195 2408 2413 2689 2707 2689 
C 2720 2689 2899 2689 3034 2606 
z
" transform="scale(0.015625)"/>
       <path id="CMMI12-3b" d="M 1248 -31 
C 1248 343 1126 619 864 619 
C 659 619 557 453 557 313 
C 557 172 653 0 870 0 
C 954 0 1024 26 1082 83 
C 1094 96 1101 96 1107 96 
C 1120 96 1120 5 1120 -27 
C 1120 -240 1082 -659 710 -1080 
C 640 -1157 640 -1170 640 -1183 
C 640 -1216 672 -1248 704 -1248 
C 755 -1248 1248 -771 1248 -31 
z
" transform="scale(0.015625)"/>
       <path id="CMMI12-6d" d="M 1318 1871 
C 1331 1910 1491 2229 1728 2433 
C 1894 2586 2112 2689 2362 2689 
C 2618 2689 2707 2497 2707 2242 
C 2707 2203 2707 2076 2630 1775 
L 2470 1118 
C 2419 926 2298 453 2285 383 
C 2259 287 2221 121 2221 96 
C 2221 6 2291 -64 2387 -64 
C 2579 -64 2611 83 2669 313 
L 3053 1839 
C 3066 1890 3398 2689 4102 2689 
C 4358 2689 4448 2497 4448 2242 
C 4448 1884 4198 1188 4058 805 
C 4000 651 3968 568 3968 453 
C 3968 166 4166 -64 4474 -64 
C 5069 -64 5293 875 5293 913 
C 5293 945 5267 971 5229 971 
C 5171 971 5165 952 5133 843 
C 4986 332 4749 64 4493 64 
C 4429 64 4326 64 4326 269 
C 4326 436 4403 640 4429 710 
C 4544 1018 4832 1773 4832 2145 
C 4832 2528 4608 2816 4122 2816 
C 3693 2816 3347 2574 3091 2197 
C 3072 2542 2861 2816 2381 2816 
C 1811 2816 1510 2415 1395 2255 
C 1376 2618 1114 2816 832 2816 
C 646 2816 499 2727 378 2484 
C 262 2254 173 1865 173 1839 
C 173 1814 198 1782 243 1782 
C 294 1782 301 1788 339 1935 
C 435 2312 557 2689 813 2689 
C 960 2689 1011 2586 1011 2395 
C 1011 2254 947 2005 902 1807 
L 723 1118 
C 698 996 627 709 595 594 
C 550 428 480 128 480 96 
C 480 6 550 -64 646 -64 
C 723 -64 813 -26 864 70 
C 877 102 934 326 966 453 
L 1107 1028 
L 1318 1871 
z
" transform="scale(0.015625)"/>
      </defs>
      <use xlink:href="#CMMI12-78" transform="scale(0.996264)"/>
      <use xlink:href="#CMMI12-3b" transform="translate(55.43406 0) scale(0.996264)"/>
      <use xlink:href="#CMMI12-6d" transform="translate(126.809651 0) scale(0.996264)"/>
     </g>
    </g>
   </g>
   <g id="matplotlib.axis_2">
    <g id="ytick_1">
     <g id="line2d_11">
      <path d="M 84.740543 605.312308 
L 810.140543 605.312308 
" clip-path="url(#pa78479502e)" style="fill: none; stroke: #b0b0b0; stroke-width: 0.8; stroke-linecap: square"/>
     </g>
     <g id="line2d_12">
      <defs>
       <path id="m4afcb2fd5d" d="M 0 0 
L -3.5 0 
" style="stroke: #000000; stroke-width: 0.8"/>
      </defs>
      <g>
       <use xlink:href="#m4afcb2fd5d" x="84.740543" y="605.312308" style="stroke: #000000; stroke-width: 0.8"/>
      </g>
     </g>
     <g id="text_7">
      <!-- $\mathdefault{0.0}$ -->
      <g transform="translate(42.197103 615.690055) scale(0.3 -0.3)">
       <use xlink:href="#CMR17-30" transform="scale(0.996264)"/>
       <use xlink:href="#CMMI12-3a" transform="translate(45.690477 0) scale(0.996264)"/>
       <use xlink:href="#CMR17-30" transform="translate(72.787654 0) scale(0.996264)"/>
      </g>
     </g>
    </g>
    <g id="ytick_2">
     <g id="line2d_13">
      <path d="M 84.740543 488.035385 
L 810.140543 488.035385 
" clip-path="url(#pa78479502e)" style="fill: none; stroke: #b0b0b0; stroke-width: 0.8; stroke-linecap: square"/>
     </g>
     <g id="line2d_14">
      <g>
       <use xlink:href="#m4afcb2fd5d" x="84.740543" y="488.035385" style="stroke: #000000; stroke-width: 0.8"/>
      </g>
     </g>
     <g id="text_8">
      <!-- $\mathdefault{0.2}$ -->
      <g transform="translate(42.197103 498.413132) scale(0.3 -0.3)">
       <use xlink:href="#CMR17-30" transform="scale(0.996264)"/>
       <use xlink:href="#CMMI12-3a" transform="translate(45.690477 0) scale(0.996264)"/>
       <use xlink:href="#CMR17-32" transform="translate(72.787654 0) scale(0.996264)"/>
      </g>
     </g>
    </g>
    <g id="ytick_3">
     <g id="line2d_15">
      <path d="M 84.740543 370.758462 
L 810.140543 370.758462 
" clip-path="url(#pa78479502e)" style="fill: none; stroke: #b0b0b0; stroke-width: 0.8; stroke-linecap: square"/>
     </g>
     <g id="line2d_16">
      <g>
       <use xlink:href="#m4afcb2fd5d" x="84.740543" y="370.758462" style="stroke: #000000; stroke-width: 0.8"/>
      </g>
     </g>
     <g id="text_9">
      <!-- $\mathdefault{0.4}$ -->
      <g transform="translate(42.197103 381.136209) scale(0.3 -0.3)">
       <use xlink:href="#CMR17-30" transform="scale(0.996264)"/>
       <use xlink:href="#CMMI12-3a" transform="translate(45.690477 0) scale(0.996264)"/>
       <use xlink:href="#CMR17-34" transform="translate(72.787654 0) scale(0.996264)"/>
      </g>
     </g>
    </g>
    <g id="ytick_4">
     <g id="line2d_17">
      <path d="M 84.740543 253.481538 
L 810.140543 253.481538 
" clip-path="url(#pa78479502e)" style="fill: none; stroke: #b0b0b0; stroke-width: 0.8; stroke-linecap: square"/>
     </g>
     <g id="line2d_18">
      <g>
       <use xlink:href="#m4afcb2fd5d" x="84.740543" y="253.481538" style="stroke: #000000; stroke-width: 0.8"/>
      </g>
     </g>
     <g id="text_10">
      <!-- $\mathdefault{0.6}$ -->
      <g transform="translate(42.197103 263.859286) scale(0.3 -0.3)">
       <defs>
        <path id="CMR17-36" d="M 678 2176 
C 678 3690 1395 4032 1811 4032 
C 1946 4032 2272 4009 2400 3776 
C 2298 3776 2106 3776 2106 3553 
C 2106 3381 2246 3323 2336 3323 
C 2394 3323 2566 3348 2566 3560 
C 2566 3954 2246 4179 1805 4179 
C 1043 4179 243 3390 243 1984 
C 243 253 966 -128 1478 -128 
C 2099 -128 2688 427 2688 1283 
C 2688 2081 2170 2662 1517 2662 
C 1126 2662 838 2407 678 1960 
L 678 2176 
z
M 1478 25 
C 691 25 691 1200 691 1436 
C 691 1896 909 2560 1504 2560 
C 1613 2560 1926 2560 2138 2120 
C 2253 1870 2253 1609 2253 1289 
C 2253 944 2253 690 2118 434 
C 1978 171 1773 25 1478 25 
z
" transform="scale(0.015625)"/>
       </defs>
       <use xlink:href="#CMR17-30" transform="scale(0.996264)"/>
       <use xlink:href="#CMMI12-3a" transform="translate(45.690477 0) scale(0.996264)"/>
       <use xlink:href="#CMR17-36" transform="translate(72.787654 0) scale(0.996264)"/>
      </g>
     </g>
    </g>
    <g id="ytick_5">
     <g id="line2d_19">
      <path d="M 84.740543 136.204615 
L 810.140543 136.204615 
" clip-path="url(#pa78479502e)" style="fill: none; stroke: #b0b0b0; stroke-width: 0.8; stroke-linecap: square"/>
     </g>
     <g id="line2d_20">
      <g>
       <use xlink:href="#m4afcb2fd5d" x="84.740543" y="136.204615" style="stroke: #000000; stroke-width: 0.8"/>
      </g>
     </g>
     <g id="text_11">
      <!-- $\mathdefault{0.8}$ -->
      <g transform="translate(42.197103 146.582363) scale(0.3 -0.3)">
       <defs>
        <path id="CMR17-38" d="M 1741 2264 
C 2144 2467 2554 2773 2554 3263 
C 2554 3841 1990 4179 1472 4179 
C 890 4179 378 3759 378 3180 
C 378 3021 416 2747 666 2505 
C 730 2442 998 2251 1171 2130 
C 883 1983 211 1634 211 934 
C 211 279 838 -128 1459 -128 
C 2144 -128 2720 362 2720 1010 
C 2720 1590 2330 1857 2074 2029 
L 1741 2264 
z
M 902 2822 
C 851 2854 595 3051 595 3351 
C 595 3739 998 4032 1459 4032 
C 1965 4032 2336 3676 2336 3262 
C 2336 2669 1670 2331 1638 2331 
C 1632 2331 1626 2331 1574 2370 
L 902 2822 
z
M 2080 1519 
C 2176 1449 2483 1240 2483 851 
C 2483 381 2010 25 1472 25 
C 890 25 448 438 448 940 
C 448 1443 838 1862 1280 2060 
L 2080 1519 
z
" transform="scale(0.015625)"/>
       </defs>
       <use xlink:href="#CMR17-30" transform="scale(0.996264)"/>
       <use xlink:href="#CMMI12-3a" transform="translate(45.690477 0) scale(0.996264)"/>
       <use xlink:href="#CMR17-38" transform="translate(72.787654 0) scale(0.996264)"/>
      </g>
     </g>
    </g>
    <g id="ytick_6">
     <g id="line2d_21">
      <path d="M 84.740543 18.927692 
L 810.140543 18.927692 
" clip-path="url(#pa78479502e)" style="fill: none; stroke: #b0b0b0; stroke-width: 0.8; stroke-linecap: square"/>
     </g>
     <g id="line2d_22">
      <g>
       <use xlink:href="#m4afcb2fd5d" x="84.740543" y="18.927692" style="stroke: #000000; stroke-width: 0.8"/>
      </g>
     </g>
     <g id="text_12">
      <!-- $\mathdefault{1.0}$ -->
      <g transform="translate(42.197103 29.30544) scale(0.3 -0.3)">
       <use xlink:href="#CMR17-31" transform="scale(0.996264)"/>
       <use xlink:href="#CMMI12-3a" transform="translate(45.690477 0) scale(0.996264)"/>
       <use xlink:href="#CMR17-30" transform="translate(72.787654 0) scale(0.996264)"/>
      </g>
     </g>
    </g>
    <g id="text_13">
     <!-- $S_1, \; -$ -->
     <g transform="translate(31.414752 354.516175) rotate(-90) scale(0.35 -0.35)">
      <defs>
       <path id="CMMI12-53" d="M 4064 4423 
C 4064 4480 4019 4480 4006 4480 
C 3981 4480 3974 4474 3898 4378 
C 3859 4333 3597 4001 3590 3995 
C 3379 4410 2957 4480 2688 4480 
C 1875 4480 1139 3743 1139 3025 
C 1139 2549 1427 2269 1741 2161 
C 1811 2135 2189 2033 2381 1989 
C 2707 1900 2790 1875 2925 1735 
C 2950 1703 3078 1557 3078 1258 
C 3078 667 2528 57 1888 57 
C 1363 57 781 280 781 991 
C 781 1112 806 1265 826 1328 
C 826 1348 832 1378 832 1391 
C 832 1417 819 1449 768 1449 
C 710 1449 704 1436 678 1328 
L 352 24 
C 352 18 326 -64 326 -71 
C 326 -128 378 -128 390 -128 
C 416 -128 422 -122 499 -26 
L 794 356 
C 947 126 1280 -128 1875 -128 
C 2701 -128 3456 666 3456 1460 
C 3456 1728 3392 1963 3149 2197 
C 3014 2331 2899 2363 2310 2516 
C 1882 2630 1824 2649 1709 2751 
C 1600 2858 1517 3011 1517 3227 
C 1517 3761 2061 4308 2669 4308 
C 3296 4308 3590 3926 3590 3323 
C 3590 3158 3558 2986 3558 2961 
C 3558 2903 3610 2903 3629 2903 
C 3686 2903 3693 2922 3718 3024 
L 4064 4423 
z
" transform="scale(0.015625)"/>
       <path id="CMSY10-0" d="M 4218 1472 
C 4326 1472 4442 1472 4442 1600 
C 4442 1728 4326 1728 4218 1728 
L 755 1728 
C 646 1728 531 1728 531 1600 
C 531 1472 646 1472 755 1472 
L 4218 1472 
z
" transform="scale(0.015625)"/>
      </defs>
      <use xlink:href="#CMMI12-53" transform="scale(0.996264)"/>
      <use xlink:href="#CMR17-31" transform="translate(59.994488 -14.943915) scale(0.697382)"/>
      <use xlink:href="#CMMI12-3b" transform="translate(92.475802 0) scale(0.996264)"/>
      <use xlink:href="#CMSY10-0" transform="translate(163.851393 0) scale(0.996264)"/>
     </g>
    </g>
   </g>
   <g id="patch_3">
    <path d="M 84.740543 617.04 
L 84.740543 7.2 
" style="fill: none; stroke: #000000; stroke-width: 0.8; stroke-linejoin: miter; stroke-linecap: square"/>
   </g>
   <g id="patch_4">
    <path d="M 810.140543 617.04 
L 810.140543 7.2 
" style="fill: none; stroke: #000000; stroke-width: 0.8; stroke-linejoin: miter; stroke-linecap: square"/>
   </g>
   <g id="patch_5">
    <path d="M 84.740543 617.04 
L 810.140543 617.04 
" style="fill: none; stroke: #000000; stroke-width: 0.8; stroke-linejoin: miter; stroke-linecap: square"/>
   </g>
   <g id="patch_6">
    <path d="M 84.740543 7.2 
L 810.140543 7.2 
" style="fill: none; stroke: #000000; stroke-width: 0.8; stroke-linejoin: miter; stroke-linecap: square"/>
   </g>
   <g id="legend_1">
    <g id="patch_7">
     <path d="M 833.436089 232.438667 
L 992.379543 232.438667 
Q 999.379543 232.438667 999.379543 225.438667 
L 999.379543 31.7 
Q 999.379543 24.7 992.379543 24.7 
L 833.436089 24.7 
Q 826.436089 24.7 826.436089 31.7 
L 826.436089 225.438667 
Q 826.436089 232.438667 833.436089 232.438667 
z
" style="fill: #ffffff; opacity: 0.8; stroke: #cccccc; stroke-linejoin: miter"/>
    </g>
    <g id="patch_8">
     <path d="M 840.436089 63.2 
L 910.436089 63.2 
L 910.436089 38.7 
L 840.436089 38.7 
z
" style="fill: #1f77b4"/>
    </g>
    <g id="text_14">
     <!-- $M$ -->
     <g transform="translate(938.436089 63.2) scale(0.35 -0.35)">
      <defs>
       <path id="CMMI12-4d" d="M 5811 3886 
C 5869 4103 5882 4167 6336 4167 
C 6458 4167 6515 4167 6515 4288 
C 6515 4352 6470 4352 6349 4352 
L 5581 4352 
C 5421 4352 5414 4346 5344 4243 
L 3008 562 
L 2528 4211 
C 2509 4352 2502 4352 2336 4352 
L 1542 4352 
C 1421 4352 1363 4352 1363 4231 
C 1363 4167 1421 4167 1517 4167 
C 1907 4167 1907 4116 1907 4046 
C 1907 4034 1907 3995 1882 3899 
L 1062 634 
C 986 327 838 186 410 186 
C 390 186 314 186 314 73 
C 314 0 371 0 397 0 
C 525 0 851 0 979 0 
L 1286 0 
C 1376 0 1485 0 1574 0 
C 1619 0 1690 0 1690 122 
C 1690 180 1626 186 1600 186 
C 1389 186 1184 224 1184 454 
C 1184 518 1184 524 1210 613 
L 2093 4129 
L 2099 4129 
L 2630 172 
C 2650 19 2656 0 2714 0 
C 2784 0 2816 51 2848 109 
L 5421 4161 
L 5427 4161 
L 4499 473 
C 4442 250 4429 186 3981 186 
C 3859 186 3795 186 3795 70 
C 3795 0 3853 0 3891 0 
C 4000 0 4128 0 4237 0 
L 4992 0 
C 5101 0 5235 0 5344 0 
C 5395 0 5466 0 5466 122 
C 5466 186 5408 186 5312 186 
C 4922 186 4922 234 4922 294 
C 4922 301 4922 345 4934 396 
L 5811 3886 
z
" transform="scale(0.015625)"/>
      </defs>
      <use xlink:href="#CMMI12-4d" transform="scale(0.996264)"/>
     </g>
    </g>
    <g id="patch_9">
     <path d="M 840.436089 111.982351 
L 910.436089 111.982351 
L 910.436089 87.482351 
L 840.436089 87.482351 
z
" style="fill: #ff7f0e"/>
    </g>
    <g id="text_15">
     <!-- $P$ -->
     <g transform="translate(938.436089 111.982351) scale(0.35 -0.35)">
      <defs>
       <path id="CMMI12-50" d="M 1894 2023 
L 2970 2023 
C 3853 2023 4736 2673 4736 3401 
C 4736 3898 4314 4352 3507 4352 
L 1530 4352 
C 1408 4352 1350 4352 1350 4231 
C 1350 4167 1408 4167 1504 4167 
C 1894 4167 1894 4116 1894 4046 
C 1894 4034 1894 3995 1869 3899 
L 1005 472 
C 947 249 934 185 486 185 
C 365 185 301 185 301 70 
C 301 0 358 0 397 0 
C 518 0 646 0 768 0 
L 1517 0 
C 1638 0 1773 0 1894 0 
C 1946 0 2016 0 2016 121 
C 2016 185 1958 185 1862 185 
C 1478 185 1472 230 1472 293 
C 1472 325 1478 369 1485 401 
L 1894 2023 
z
M 2355 3930 
C 2413 4167 2438 4167 2688 4167 
L 3322 4167 
C 3802 4167 4198 4013 4198 3535 
C 4198 3369 4115 2827 3821 2534 
C 3712 2419 3405 2176 2822 2176 
L 1920 2176 
L 2355 3930 
z
" transform="scale(0.015625)"/>
      </defs>
      <use xlink:href="#CMMI12-50" transform="scale(0.996264)"/>
     </g>
    </g>
    <g id="patch_10">
     <path d="M 840.436089 160.764702 
L 910.436089 160.764702 
L 910.436089 136.264702 
L 840.436089 136.264702 
z
" style="fill: #2ca02c"/>
    </g>
    <g id="text_16">
     <!-- $T$ -->
     <g transform="translate(938.436089 160.764702) scale(0.35 -0.35)">
      <defs>
       <path id="CMMI12-54" d="M 2669 3910 
C 2707 4064 2720 4121 2816 4147 
C 2867 4160 3078 4160 3213 4160 
C 3853 4160 4154 4134 4154 3634 
C 4154 3537 4128 3295 4090 3057 
L 4083 2980 
C 4083 2954 4109 2916 4147 2916 
C 4211 2916 4211 2948 4230 3050 
L 4416 4184 
C 4429 4243 4429 4256 4429 4275 
C 4429 4345 4390 4345 4262 4345 
L 762 4345 
C 614 4345 608 4339 570 4224 
L 179 3070 
C 173 3056 154 2986 154 2980 
C 154 2948 179 2916 218 2916 
C 269 2916 282 2941 307 3024 
C 576 3801 710 4160 1562 4160 
L 1990 4160 
C 2144 4160 2208 4160 2208 4089 
C 2208 4069 2208 4057 2176 3941 
L 1318 499 
C 1254 249 1242 185 563 185 
C 403 185 358 185 358 64 
C 358 0 429 0 461 0 
C 621 0 787 0 947 0 
L 1946 0 
C 2106 0 2278 0 2438 0 
C 2509 0 2573 0 2573 121 
C 2573 185 2528 185 2362 185 
C 1786 185 1786 243 1786 339 
C 1786 346 1786 391 1811 494 
L 2669 3910 
z
" transform="scale(0.015625)"/>
      </defs>
      <use xlink:href="#CMMI12-54" transform="scale(0.996264)"/>
     </g>
    </g>
    <g id="patch_11">
     <path d="M 840.436089 209.547054 
L 910.436089 209.547054 
L 910.436089 185.047054 
L 840.436089 185.047054 
z
" style="fill: #d62728"/>
    </g>
    <g id="text_17">
     <!-- $Y_{N_2}$ -->
     <g transform="translate(938.436089 209.547054) scale(0.35 -0.35)">
      <defs>
       <path id="CMMI12-59" d="M 3763 3645 
L 3910 3791 
C 4192 4078 4429 4149 4653 4167 
C 4723 4173 4781 4179 4781 4288 
C 4781 4352 4717 4352 4704 4352 
C 4627 4352 4544 4352 4467 4352 
L 4205 4352 
C 4019 4352 3821 4352 3642 4352 
C 3597 4352 3526 4352 3526 4226 
C 3526 4166 3590 4160 3610 4160 
C 3802 4160 3802 4064 3802 4026 
C 3802 3956 3750 3860 3622 3713 
L 2099 1969 
L 1376 3911 
C 1338 4000 1338 4013 1338 4026 
C 1338 4160 1600 4160 1677 4160 
C 1754 4160 1824 4160 1824 4279 
C 1824 4352 1766 4352 1728 4352 
C 1619 4352 1491 4352 1382 4352 
L 672 4352 
C 557 4352 435 4352 326 4352 
C 282 4352 211 4352 211 4226 
C 211 4160 269 4160 365 4160 
C 678 4160 736 4102 794 3956 
L 1587 1835 
C 1594 1816 1613 1745 1613 1726 
C 1613 1707 1299 452 1280 388 
C 1229 217 1165 185 755 185 
C 646 185 595 185 595 64 
C 595 0 666 0 685 0 
C 800 0 934 0 1056 0 
L 1811 0 
C 1926 0 2061 0 2176 0 
C 2221 0 2298 0 2298 115 
C 2298 185 2253 185 2144 185 
C 1747 185 1747 230 1747 300 
C 1747 345 1798 548 1830 676 
L 2061 1594 
C 2099 1727 2099 1739 2157 1803 
L 3763 3645 
z
" transform="scale(0.015625)"/>
       <path id="CMMI12-4e" d="M 4736 3698 
C 4806 3974 4909 4166 5395 4166 
C 5414 4166 5491 4166 5491 4279 
C 5491 4352 5434 4352 5408 4352 
C 5280 4352 4954 4352 4826 4352 
L 4518 4352 
C 4429 4352 4314 4352 4224 4352 
C 4186 4352 4109 4352 4109 4230 
C 4109 4166 4160 4166 4205 4166 
C 4589 4166 4614 4019 4614 3903 
C 4614 3846 4608 3826 4589 3737 
L 3866 850 
L 2496 4249 
C 2451 4352 2445 4352 2304 4352 
L 1523 4352 
C 1395 4352 1338 4352 1338 4230 
C 1338 4166 1382 4166 1504 4166 
C 1536 4166 1914 4166 1914 4115 
C 1914 4102 1901 4051 1894 4032 
L 1043 635 
C 966 320 813 186 390 186 
C 358 186 294 186 294 67 
C 294 0 358 0 378 0 
C 506 0 832 0 960 0 
L 1267 0 
C 1357 0 1466 0 1555 0 
C 1600 0 1670 0 1670 122 
C 1670 180 1606 186 1581 186 
C 1370 186 1165 224 1165 454 
C 1165 505 1178 562 1190 613 
L 2054 4032 
C 2093 3968 2093 3956 2118 3898 
L 3642 115 
C 3674 38 3686 0 3744 0 
C 3808 0 3814 19 3840 128 
L 4736 3698 
z
" transform="scale(0.015625)"/>
      </defs>
      <use xlink:href="#CMMI12-59" transform="scale(0.996264)"/>
      <use xlink:href="#CMMI12-4e" transform="translate(56.598607 -14.943915) scale(0.697382)"/>
      <use xlink:href="#CMR17-32" transform="translate(111.278947 -25.404611) scale(0.498132)"/>
     </g>
    </g>
   </g>
  </g>
 </g>
 <defs>
  <clipPath id="pa78479502e">
   <rect x="84.740543" y="7.2" width="725.4" height="609.84"/>
  </clipPath>
 </defs>
</svg>
