<?xml version="1.0" encoding="utf-8" standalone="no"?>
<!DOCTYPE svg PUBLIC "-//W3C//DTD SVG 1.1//EN"
  "http://www.w3.org/Graphics/SVG/1.1/DTD/svg11.dtd">
<svg xmlns:xlink="http://www.w3.org/1999/xlink" width="817.340543pt" height="692.806049pt" viewBox="0 0 817.340543 692.806049" xmlns="http://www.w3.org/2000/svg" version="1.1">
 <metadata>
  <rdf:RDF xmlns:dc="http://purl.org/dc/elements/1.1/" xmlns:cc="http://creativecommons.org/ns#" xmlns:rdf="http://www.w3.org/1999/02/22-rdf-syntax-ns#">
   <cc:Work>
    <dc:type rdf:resource="http://purl.org/dc/dcmitype/StillImage"/>
    <dc:date>2025-03-26T16:04:25.731112</dc:date>
    <dc:format>image/svg+xml</dc:format>
    <dc:creator>
     <cc:Agent>
      <dc:title>Matplotlib v3.7.1, https://matplotlib.org/</dc:title>
     </cc:Agent>
    </dc:creator>
   </cc:Work>
  </rdf:RDF>
 </metadata>
 <defs>
  <style type="text/css">*{stroke-linejoin: round; stroke-linecap: butt}</style>
 </defs>
 <g id="figure_1">
  <g id="patch_1">
   <path d="M 0 692.806049 
L 817.340543 692.806049 
L 817.340543 0 
L 0 0 
z
" style="fill: #ffffff"/>
  </g>
  <g id="axes_1">
   <g id="patch_2">
    <path d="M 84.740543 617.04 
L 810.140543 617.04 
L 810.140543 7.2 
L 84.740543 7.2 
z
" style="fill: #ffffff"/>
   </g>
   <g id="PolyCollection_1">
    <path d="M -529.448308 605.312308 
L -529.448308 605.312308 
L -495.096852 605.312308 
L -470.020065 605.312308 
L -451.713553 605.312308 
L -438.349052 605.312308 
L -428.591888 605.312308 
L -421.467669 605.312308 
L -416.265003 605.312308 
L -412.464478 605.312308 
L -409.686832 605.312308 
L -407.469009 605.312308 
L -405.270505 605.312308 
L -403.072001 605.312308 
L -400.818741 605.312308 
L -398.565481 605.312308 
L -396.312222 605.312308 
L -394.058962 605.312308 
L -391.805702 605.312308 
L -389.552442 605.312308 
L -387.299183 605.312308 
L -385.045923 605.312308 
L -382.792663 605.312308 
L -380.539403 605.312308 
L -378.286143 605.312308 
L -376.032884 605.312308 
L -373.779624 605.312308 
L -371.526364 605.312308 
L -369.273104 605.312308 
L -367.019844 605.312308 
L -364.766585 605.312308 
L -362.513325 605.312308 
L -360.260065 605.312308 
L -358.006805 605.312308 
L -355.753546 605.312308 
L -353.500286 605.312308 
L -351.247026 605.312308 
L -348.993766 605.312308 
L -346.740506 605.312308 
L -344.487247 605.312308 
L -342.233987 605.312308 
L -339.980727 605.312308 
L -337.727467 605.312308 
L -335.474207 605.312308 
L -333.220948 605.312308 
L -330.967688 605.312308 
L -328.714428 605.312308 
L -326.461168 605.312308 
L -324.207906 605.312308 
L -321.89788 605.312308 
L -319.505319 605.312308 
L -317.026662 605.312308 
L -314.457166 605.312308 
L -311.79197 605.312308 
L -309.028283 605.312308 
L -306.162775 605.312308 
L -303.191567 605.312308 
L -300.110397 605.312308 
L -296.916571 605.312308 
L -293.606754 605.312308 
L -290.176287 605.312308 
L -286.618905 605.312308 
L -282.927535 605.312308 
L -279.103848 605.312308 
L -275.139245 605.312308 
L -271.026505 605.312308 
L -266.765383 605.312308 
L -262.34492 605.312308 
L -257.762664 605.312308 
L -253.013176 605.312308 
L -248.086908 605.312308 
L -242.979512 605.312308 
L -237.684611 605.312308 
L -232.194938 605.312308 
L -226.503071 605.312308 
L -220.601654 605.312308 
L -214.483221 605.312308 
L -208.139688 605.312308 
L -201.5616 605.312308 
L -194.741629 605.312308 
L -187.670851 605.312308 
L -180.339261 605.312308 
L -172.737355 605.312308 
L -164.856033 605.312308 
L -156.684456 605.312308 
L -148.211606 605.312308 
L -139.426428 605.312308 
L -130.31782 605.312308 
L -120.921779 605.312308 
L -111.254796 605.312308 
L -101.231949 605.312308 
L -90.839193 605.312308 
L -80.063608 605.312308 
L -68.890841 605.312308 
L -57.306163 605.312308 
L -45.294584 605.312308 
L -32.8402 605.312308 
L -19.926484 605.312308 
L -6.536727 605.312308 
L 7.346541 605.312308 
L 21.74163 605.312308 
L 35.952583 605.312308 
L 46.558634 605.312308 
L 54.11159 605.312308 
L 59.49126 605.312308 
L 63.323822 605.312308 
L 66.054892 605.312308 
L 68.201283 605.312308 
L 70.329362 605.312308 
L 72.457441 605.312308 
L 74.585519 605.312308 
L 76.713598 605.312308 
L 78.841677 605.312308 
L 80.969755 605.312308 
L 83.097834 605.312308 
L 85.225913 605.312308 
L 86.777793 605.312308 
L 88.329672 605.312308 
L 89.881552 605.312308 
L 91.433432 605.312308 
L 92.985312 605.312308 
L 94.537191 605.312308 
L 96.089071 605.312308 
L 97.640951 605.312308 
L 99.192831 605.312308 
L 100.74471 605.312308 
L 102.29659 605.312308 
L 103.84847 605.312308 
L 105.40035 605.312308 
L 106.952229 605.312308 
L 108.504109 605.312308 
L 110.055989 605.312308 
L 111.607869 605.312308 
L 113.159749 605.312308 
L 114.711628 605.312308 
L 116.263508 605.312308 
L 117.815388 605.312308 
L 119.367268 605.312308 
L 120.919147 605.312308 
L 122.471027 605.312308 
L 124.022907 605.312308 
L 125.574787 605.312308 
L 127.126666 605.312308 
L 128.678546 605.312308 
L 130.230426 605.312308 
L 131.782306 605.312308 
L 133.334185 605.312308 
L 134.886065 605.312308 
L 136.437945 605.312308 
L 137.989825 605.312308 
L 139.541705 605.312308 
L 141.093584 605.312308 
L 142.645464 605.312308 
L 144.197344 605.312308 
L 145.749224 605.312308 
L 147.301103 605.312308 
L 148.852983 605.312308 
L 150.404863 605.312308 
L 151.956743 605.312308 
L 153.508622 605.312308 
L 155.076395 605.312308 
L 156.741484 605.312308 
L 158.552717 605.312308 
L 160.505638 605.312308 
L 162.627094 605.312308 
L 164.929764 605.312308 
L 167.424436 605.312308 
L 170.132168 605.312308 
L 173.076952 605.312308 
L 176.278192 605.312308 
L 179.758833 605.312308 
L 183.544527 605.312308 
L 187.663381 605.312308 
L 192.146559 605.312308 
L 197.026171 605.312308 
L 202.332023 605.312308 
L 208.106339 605.312308 
L 214.381055 605.312308 
L 221.199394 605.312308 
L 228.596977 605.312308 
L 236.610147 605.312308 
L 245.271717 605.312308 
L 254.602991 605.312308 
L 264.608895 605.312308 
L 275.25752 605.312308 
L 286.3849 605.312308 
L 297.558434 605.312308 
L 308.731968 605.312308 
L 319.905503 605.312308 
L 331.079037 605.312308 
L 342.252571 605.312308 
L 353.426105 605.312308 
L 364.59964 605.312308 
L 375.773174 605.312308 
L 386.946708 605.312308 
L 398.120243 605.312308 
L 409.293777 605.312308 
L 420.467311 605.312308 
L 431.640846 605.312308 
L 442.81438 605.312308 
L 458.611418 605.312308 
L 474.408457 605.312308 
L 490.205495 605.312308 
L 506.002533 605.312308 
L 521.799572 605.312308 
L 537.59661 605.312308 
L 553.393648 605.312308 
L 569.190687 605.312308 
L 584.987725 605.312308 
L 600.784763 605.312308 
L 616.581802 605.312308 
L 632.37884 605.312308 
L 648.175878 605.312308 
L 663.972917 605.312308 
L 679.769955 605.312308 
L 695.566993 605.312308 
L 711.364032 605.312308 
L 727.16107 605.312308 
L 742.958108 605.312308 
L 758.755147 605.312308 
L 774.552185 605.312308 
L 790.349223 605.312308 
L 806.146262 605.312308 
L 821.9433 605.312308 
L 821.9433 450.881193 
L 821.9433 450.881193 
L 806.146262 450.821677 
L 790.349223 450.701814 
L 774.552185 450.521024 
L 758.755147 450.278687 
L 742.958108 449.974965 
L 727.16107 449.609853 
L 711.364032 449.184167 
L 695.566993 448.69873 
L 679.769955 448.155215 
L 663.972917 447.555065 
L 648.175878 446.900139 
L 632.37884 446.192775 
L 616.581802 445.437173 
L 600.784763 444.636193 
L 584.987725 443.793224 
L 569.190687 442.912287 
L 553.393648 442.000732 
L 537.59661 441.062576 
L 521.799572 440.109933 
L 506.002533 439.137044 
L 490.205495 438.192046 
L 474.408457 437.216421 
L 458.611418 436.402411 
L 442.81438 435.37665 
L 431.640846 434.922469 
L 420.467311 433.70184 
L 409.293777 433.616457 
L 398.120243 432.345484 
L 386.946708 432.100297 
L 375.773174 431.08302 
L 364.59964 430.48875 
L 353.426105 429.646227 
L 342.252571 428.908847 
L 331.079037 428.12771 
L 319.905503 427.37734 
L 308.731968 426.635169 
L 297.558434 425.93744 
L 286.3849 425.2376 
L 275.25752 424.696242 
L 264.608895 423.912897 
L 254.602991 423.761145 
L 245.271717 422.587604 
L 236.610147 422.8925 
L 228.596977 421.431257 
L 221.199394 421.651153 
L 214.381055 420.273319 
L 208.106339 419.87101 
L 202.332023 418.683404 
L 197.026171 417.658319 
L 192.146559 416.29739 
L 187.663381 414.764724 
L 183.544527 412.957844 
L 179.758833 410.872097 
L 176.278192 408.477974 
L 173.076952 405.772566 
L 170.132168 402.770579 
L 167.424436 399.576637 
L 164.929764 396.31274 
L 162.627094 392.976716 
L 160.505638 389.593572 
L 158.552717 386.207039 
L 156.741484 382.878354 
L 155.076395 379.654253 
L 153.508622 376.572542 
L 151.956743 373.656633 
L 150.404863 370.901886 
L 148.852983 368.298714 
L 147.301103 365.832177 
L 145.749224 363.489411 
L 144.197344 361.25847 
L 142.645464 359.126927 
L 141.093584 357.085111 
L 139.541705 355.127687 
L 137.989825 353.250566 
L 136.437945 351.446938 
L 134.886065 349.711042 
L 133.334185 348.036567 
L 131.782306 346.418542 
L 130.230426 344.852693 
L 128.678546 343.337053 
L 127.126666 341.871778 
L 125.574787 340.460729 
L 124.022907 339.109807 
L 122.471027 337.826454 
L 120.919147 336.621216 
L 119.367268 335.508939 
L 117.815388 334.51343 
L 116.263508 333.66034 
L 114.711628 332.976227 
L 113.159749 332.483254 
L 111.607869 332.20206 
L 110.055989 332.139976 
L 108.504109 332.274544 
L 106.952229 332.591558 
L 105.40035 333.125658 
L 103.84847 333.887804 
L 102.29659 334.916348 
L 100.74471 336.232403 
L 99.192831 337.853792 
L 97.640951 339.782378 
L 96.089071 342.018126 
L 94.537191 344.522623 
L 92.985312 347.186735 
L 91.433432 349.963273 
L 89.881552 352.760549 
L 88.329672 355.454824 
L 86.777793 468.252356 
L 85.225913 474.085825 
L 83.097834 491.54019 
L 80.969755 497.179801 
L 78.841677 501.760214 
L 76.713598 505.701883 
L 74.585519 509.168916 
L 72.457441 512.245062 
L 70.329362 514.980591 
L 68.201283 517.409174 
L 66.054892 519.556357 
L 63.323822 521.441406 
L 59.49126 523.084883 
L 54.11159 524.497418 
L 46.558634 525.70595 
L 35.952583 526.706013 
L 21.74163 527.544179 
L 7.346541 528.187893 
L -6.536727 528.715936 
L -19.926484 529.061598 
L -32.8402 529.33263 
L -45.294584 529.444142 
L -57.306163 529.50313 
L -68.890841 529.440261 
L -80.063608 529.32151 
L -90.839193 529.120704 
L -101.231949 528.872422 
L -111.254796 528.571999 
L -120.921779 528.237697 
L -130.31782 527.872079 
L -139.426428 527.485785 
L -148.211606 527.082868 
L -156.684456 526.670028 
L -164.856033 526.251074 
L -172.737355 525.830554 
L -180.339261 525.411653 
L -187.670851 524.997391 
L -194.741629 524.590069 
L -201.5616 524.191672 
L -208.139688 523.803946 
L -214.483221 523.428206 
L -220.601654 523.065731 
L -226.503071 522.717231 
L -232.194938 522.383648 
L -237.684611 522.065304 
L -242.979512 521.763077 
L -248.086908 521.477065 
L -253.013176 521.208059 
L -257.762664 520.955853 
L -262.34492 520.721255 
L -266.765383 520.503805 
L -271.026505 520.304385 
L -275.139245 520.122083 
L -279.103848 519.957706 
L -282.927535 519.809829 
L -286.618905 519.67918 
L -290.176287 519.56383 
L -293.606754 519.464296 
L -296.916571 519.378053 
L -300.110397 519.305038 
L -303.191567 519.241951 
L -306.162775 519.187607 
L -309.028283 519.137784 
L -311.79197 519.089525 
L -314.457166 519.037566 
L -317.026662 518.97652 
L -319.505319 518.90002 
L -321.89788 518.799774 
L -324.207906 518.668281 
L -326.461168 518.494256 
L -328.714428 518.268989 
L -330.967688 517.978717 
L -333.220948 517.613538 
L -335.474207 517.158301 
L -337.727467 516.601904 
L -339.980727 515.928806 
L -342.233987 515.126651 
L -344.487247 514.180335 
L -346.740506 513.076638 
L -348.993766 511.800546 
L -351.247026 510.337029 
L -353.500286 508.668928 
L -355.753546 506.776558 
L -358.006805 504.635292 
L -360.260065 502.212316 
L -362.513325 499.460894 
L -364.766585 496.308935 
L -367.019844 492.640237 
L -369.273104 488.267828 
L -371.526364 482.885967 
L -373.779624 476.27067 
L -376.032884 469.54647 
L -378.286143 465.784051 
L -380.539403 464.498881 
L -382.792663 464.200989 
L -385.045923 464.359177 
L -387.299183 465.168806 
L -389.552442 467.180973 
L -391.805702 471.810448 
L -394.058962 480.101359 
L -396.312222 486.862764 
L -398.565481 491.49176 
L -400.818741 493.559153 
L -403.072001 572.645703 
L -405.270505 578.578547 
L -407.469009 583.434383 
L -409.686832 587.496398 
L -412.464478 592.080407 
L -416.265003 599.247649 
L -421.467669 602.055274 
L -428.591888 604.270369 
L -438.349052 605.312308 
L -451.713553 605.312308 
L -470.020065 605.312308 
L -495.096852 605.312308 
L -529.448308 605.312308 
z
" clip-path="url(#p1b2aa93545)" style="fill: #1f77b4"/>
   </g>
   <g id="PolyCollection_2">
    <path d="M -529.448308 605.312308 
L -529.448308 605.312308 
L -495.096852 605.312308 
L -470.020065 605.312308 
L -451.713553 605.312308 
L -438.349052 605.312308 
L -428.591888 604.270369 
L -421.467669 602.055274 
L -416.265003 599.247649 
L -412.464478 592.080407 
L -409.686832 587.496398 
L -407.469009 583.434383 
L -405.270505 578.578547 
L -403.072001 572.645703 
L -400.818741 493.559153 
L -398.565481 491.49176 
L -396.312222 486.862764 
L -394.058962 480.101359 
L -391.805702 471.810448 
L -389.552442 467.180973 
L -387.299183 465.168806 
L -385.045923 464.359177 
L -382.792663 464.200989 
L -380.539403 464.498881 
L -378.286143 465.784051 
L -376.032884 469.54647 
L -373.779624 476.27067 
L -371.526364 482.885967 
L -369.273104 488.267828 
L -367.019844 492.640237 
L -364.766585 496.308935 
L -362.513325 499.460894 
L -360.260065 502.212316 
L -358.006805 504.635292 
L -355.753546 506.776558 
L -353.500286 508.668928 
L -351.247026 510.337029 
L -348.993766 511.800546 
L -346.740506 513.076638 
L -344.487247 514.180335 
L -342.233987 515.126651 
L -339.980727 515.928806 
L -337.727467 516.601904 
L -335.474207 517.158301 
L -333.220948 517.613538 
L -330.967688 517.978717 
L -328.714428 518.268989 
L -326.461168 518.494256 
L -324.207906 518.668281 
L -321.89788 518.799774 
L -319.505319 518.90002 
L -317.026662 518.97652 
L -314.457166 519.037566 
L -311.79197 519.089525 
L -309.028283 519.137784 
L -306.162775 519.187607 
L -303.191567 519.241951 
L -300.110397 519.305038 
L -296.916571 519.378053 
L -293.606754 519.464296 
L -290.176287 519.56383 
L -286.618905 519.67918 
L -282.927535 519.809829 
L -279.103848 519.957706 
L -275.139245 520.122083 
L -271.026505 520.304385 
L -266.765383 520.503805 
L -262.34492 520.721255 
L -257.762664 520.955853 
L -253.013176 521.208059 
L -248.086908 521.477065 
L -242.979512 521.763077 
L -237.684611 522.065304 
L -232.194938 522.383648 
L -226.503071 522.717231 
L -220.601654 523.065731 
L -214.483221 523.428206 
L -208.139688 523.803946 
L -201.5616 524.191672 
L -194.741629 524.590069 
L -187.670851 524.997391 
L -180.339261 525.411653 
L -172.737355 525.830554 
L -164.856033 526.251074 
L -156.684456 526.670028 
L -148.211606 527.082868 
L -139.426428 527.485785 
L -130.31782 527.872079 
L -120.921779 528.237697 
L -111.254796 528.571999 
L -101.231949 528.872422 
L -90.839193 529.120704 
L -80.063608 529.32151 
L -68.890841 529.440261 
L -57.306163 529.50313 
L -45.294584 529.444142 
L -32.8402 529.33263 
L -19.926484 529.061598 
L -6.536727 528.715936 
L 7.346541 528.187893 
L 21.74163 527.544179 
L 35.952583 526.706013 
L 46.558634 525.70595 
L 54.11159 524.497418 
L 59.49126 523.084883 
L 63.323822 521.441406 
L 66.054892 519.556357 
L 68.201283 517.409174 
L 70.329362 514.980591 
L 72.457441 512.245062 
L 74.585519 509.168916 
L 76.713598 505.701883 
L 78.841677 501.760214 
L 80.969755 497.179801 
L 83.097834 491.54019 
L 85.225913 474.085825 
L 86.777793 468.252356 
L 88.329672 355.454824 
L 89.881552 352.760549 
L 91.433432 349.963273 
L 92.985312 347.186735 
L 94.537191 344.522623 
L 96.089071 342.018126 
L 97.640951 339.782378 
L 99.192831 337.853792 
L 100.74471 336.232403 
L 102.29659 334.916348 
L 103.84847 333.887804 
L 105.40035 333.125658 
L 106.952229 332.591558 
L 108.504109 332.274544 
L 110.055989 332.139976 
L 111.607869 332.20206 
L 113.159749 332.483254 
L 114.711628 332.976227 
L 116.263508 333.66034 
L 117.815388 334.51343 
L 119.367268 335.508939 
L 120.919147 336.621216 
L 122.471027 337.826454 
L 124.022907 339.109807 
L 125.574787 340.460729 
L 127.126666 341.871778 
L 128.678546 343.337053 
L 130.230426 344.852693 
L 131.782306 346.418542 
L 133.334185 348.036567 
L 134.886065 349.711042 
L 136.437945 351.446938 
L 137.989825 353.250566 
L 139.541705 355.127687 
L 141.093584 357.085111 
L 142.645464 359.126927 
L 144.197344 361.25847 
L 145.749224 363.489411 
L 147.301103 365.832177 
L 148.852983 368.298714 
L 150.404863 370.901886 
L 151.956743 373.656633 
L 153.508622 376.572542 
L 155.076395 379.654253 
L 156.741484 382.878354 
L 158.552717 386.207039 
L 160.505638 389.593572 
L 162.627094 392.976716 
L 164.929764 396.31274 
L 167.424436 399.576637 
L 170.132168 402.770579 
L 173.076952 405.772566 
L 176.278192 408.477974 
L 179.758833 410.872097 
L 183.544527 412.957844 
L 187.663381 414.764724 
L 192.146559 416.29739 
L 197.026171 417.658319 
L 202.332023 418.683404 
L 208.106339 419.87101 
L 214.381055 420.273319 
L 221.199394 421.651153 
L 228.596977 421.431257 
L 236.610147 422.8925 
L 245.271717 422.587604 
L 254.602991 423.761145 
L 264.608895 423.912897 
L 275.25752 424.696242 
L 286.3849 425.2376 
L 297.558434 425.93744 
L 308.731968 426.635169 
L 319.905503 427.37734 
L 331.079037 428.12771 
L 342.252571 428.908847 
L 353.426105 429.646227 
L 364.59964 430.48875 
L 375.773174 431.08302 
L 386.946708 432.100297 
L 398.120243 432.345484 
L 409.293777 433.616457 
L 420.467311 433.70184 
L 431.640846 434.922469 
L 442.81438 435.37665 
L 458.611418 436.402411 
L 474.408457 437.216421 
L 490.205495 438.192046 
L 506.002533 439.137044 
L 521.799572 440.109933 
L 537.59661 441.062576 
L 553.393648 442.000732 
L 569.190687 442.912287 
L 584.987725 443.793224 
L 600.784763 444.636193 
L 616.581802 445.437173 
L 632.37884 446.192775 
L 648.175878 446.900139 
L 663.972917 447.555065 
L 679.769955 448.155215 
L 695.566993 448.69873 
L 711.364032 449.184167 
L 727.16107 449.609853 
L 742.958108 449.974965 
L 758.755147 450.278687 
L 774.552185 450.521024 
L 790.349223 450.701814 
L 806.146262 450.821677 
L 821.9433 450.881193 
L 821.9433 450.881193 
L 821.9433 450.881193 
L 806.146262 450.821677 
L 790.349223 450.701814 
L 774.552185 450.521024 
L 758.755147 450.278687 
L 742.958108 449.974965 
L 727.16107 449.609853 
L 711.364032 449.184167 
L 695.566993 448.69873 
L 679.769955 448.155215 
L 663.972917 447.555065 
L 648.175878 446.900139 
L 632.37884 446.192775 
L 616.581802 445.437173 
L 600.784763 444.636193 
L 584.987725 443.793224 
L 569.190687 442.912287 
L 553.393648 442.000732 
L 537.59661 441.062576 
L 521.799572 440.109933 
L 506.002533 439.093288 
L 490.205495 438.120364 
L 474.408457 437.073382 
L 458.611418 436.232723 
L 442.81438 435.122511 
L 431.640846 434.646362 
L 420.467311 433.333395 
L 409.293777 433.23417 
L 398.120243 431.870514 
L 386.946708 431.621807 
L 375.773174 430.519438 
L 364.59964 429.931977 
L 353.426105 429.018579 
L 342.252571 428.294928 
L 331.079037 427.461018 
L 319.905503 426.725814 
L 308.731968 425.948645 
L 297.558434 425.262004 
L 286.3849 424.540599 
L 275.25752 424.001477 
L 264.608895 423.203228 
L 254.602991 423.040498 
L 245.271717 421.851324 
L 236.610147 422.128144 
L 228.596977 420.644282 
L 221.199394 420.8165 
L 214.381055 419.404831 
L 208.106339 418.935209 
L 202.332023 417.701708 
L 197.026171 416.59327 
L 192.146559 415.177612 
L 187.663381 413.552717 
L 183.544527 411.687326 
L 179.758833 409.509347 
L 176.278192 407.057808 
L 173.076952 404.268066 
L 170.132168 401.212506 
L 167.424436 397.946336 
L 164.929764 394.632454 
L 162.627094 391.236066 
L 160.505638 387.804171 
L 158.552717 384.3657 
L 156.741484 380.987365 
L 155.076395 377.716326 
L 153.508622 374.584714 
L 151.956743 371.626556 
L 150.404863 368.825967 
L 148.852983 366.189414 
L 147.301103 363.688589 
L 145.749224 361.328894 
L 144.197344 359.083993 
L 142.645464 356.959952 
L 141.093584 354.931973 
L 139.541705 353.011705 
L 137.989825 351.180266 
L 136.437945 349.444049 
L 134.886065 347.78448 
L 133.334185 346.202768 
L 131.782306 344.684521 
L 130.230426 343.226632 
L 128.678546 341.820903 
L 127.126666 340.463749 
L 125.574787 339.152636 
L 124.022907 337.889034 
L 122.471027 336.666434 
L 120.919147 335.49729 
L 119.367268 334.364852 
L 117.815388 333.309318 
L 116.263508 332.298706 
L 114.711628 331.392189 
L 113.159749 330.530037 
L 111.607869 329.775192 
L 110.055989 329.041965 
L 108.504109 328.34597 
L 106.952229 327.586781 
L 105.40035 326.821032 
L 103.84847 325.998104 
L 102.29659 325.166199 
L 100.74471 324.315897 
L 99.192831 323.478983 
L 97.640951 322.662333 
L 96.089071 321.911898 
L 94.537191 321.232652 
L 92.985312 320.60354 
L 91.433432 320.069348 
L 89.881552 319.665867 
L 88.329672 319.299377 
L 86.777793 429.415418 
L 85.225913 432.713817 
L 83.097834 448.569458 
L 80.969755 452.096187 
L 78.841677 456.34026 
L 76.713598 458.271191 
L 74.585519 462.246881 
L 72.457441 463.611452 
L 70.329362 467.230681 
L 68.201283 468.409252 
L 66.054892 471.437738 
L 63.323822 472.541112 
L 59.49126 474.881072 
L 54.11159 475.885037 
L 46.558634 477.573416 
L 35.952583 478.416067 
L 21.74163 479.564042 
L 7.346541 480.199032 
L -6.536727 480.935356 
L -19.926484 481.353645 
L -32.8402 481.788653 
L -45.294584 482.018423 
L -57.306163 482.232938 
L -68.890841 482.317988 
L -80.063608 482.364333 
L -90.839193 482.333877 
L -101.231949 482.266255 
L -111.254796 482.153826 
L -120.921779 482.014688 
L -130.31782 481.849615 
L -139.426428 481.668186 
L -148.211606 481.472493 
L -156.684456 481.267924 
L -164.856033 481.056756 
L -172.737355 480.841598 
L -180.339261 480.625464 
L -187.670851 480.408452 
L -194.741629 480.194685 
L -201.5616 479.982113 
L -208.139688 479.776251 
L -214.483221 479.573438 
L -220.601654 479.380073 
L -226.503071 479.191369 
L -232.194938 479.013793 
L -237.684611 478.842066 
L -242.979512 478.682087 
L -248.086908 478.528576 
L -253.013176 478.386414 
L -257.762664 478.25044 
L -262.34492 478.124692 
L -266.765383 478.004225 
L -271.026505 477.892713 
L -275.139245 477.785255 
L -279.103848 477.685516 
L -282.927535 477.588535 
L -286.618905 477.498122 
L -290.176287 477.409178 
L -293.606754 477.325348 
L -296.916571 477.241237 
L -300.110397 477.159603 
L -303.191567 477.074514 
L -306.162775 476.986956 
L -309.028283 476.890305 
L -311.79197 476.782941 
L -314.457166 476.657451 
L -317.026662 476.50895 
L -319.505319 476.329246 
L -321.89788 476.10991 
L -324.207906 475.842131 
L -326.461168 475.514373 
L -328.714428 475.117633 
L -330.967688 474.638795 
L -333.220948 474.069804 
L -335.474207 473.398872 
L -337.727467 472.62129 
L -339.980727 471.730326 
L -342.233987 470.728264 
L -344.487247 469.616833 
L -346.740506 468.409458 
L -348.993766 467.116279 
L -351.247026 465.758848 
L -353.500286 464.347321 
L -355.753546 462.909806 
L -358.006805 461.450507 
L -360.260065 459.986168 
L -362.513325 458.498076 
L -364.766585 456.958137 
L -367.019844 455.278199 
L -369.273104 453.307727 
L -371.526364 450.767098 
L -373.779624 447.449684 
L -376.032884 444.44308 
L -378.286143 444.657222 
L -380.539403 447.330749 
L -382.792663 450.785156 
L -385.045923 454.448033 
L -387.299183 458.533663 
L -389.552442 463.558361 
L -391.805702 470.983462 
L -394.058962 480.101359 
L -396.312222 486.862764 
L -398.565481 491.49176 
L -400.818741 493.559153 
L -403.072001 572.645703 
L -405.270505 578.578547 
L -407.469009 583.434383 
L -409.686832 587.496398 
L -412.464478 592.080407 
L -416.265003 599.247649 
L -421.467669 602.055274 
L -428.591888 604.270369 
L -438.349052 605.312308 
L -451.713553 605.312308 
L -470.020065 605.312308 
L -495.096852 605.312308 
L -529.448308 605.312308 
z
" clip-path="url(#p1b2aa93545)" style="fill: #ff7f0e"/>
   </g>
   <g id="PolyCollection_3">
    <path d="M -529.448308 19.101672 
L -529.448308 605.312308 
L -495.096852 605.312308 
L -470.020065 605.312308 
L -451.713553 605.312308 
L -438.349052 605.312308 
L -428.591888 604.270369 
L -421.467669 602.055274 
L -416.265003 599.247649 
L -412.464478 592.080407 
L -409.686832 587.496398 
L -407.469009 583.434383 
L -405.270505 578.578547 
L -403.072001 572.645703 
L -400.818741 493.559153 
L -398.565481 491.49176 
L -396.312222 486.862764 
L -394.058962 480.101359 
L -391.805702 470.983462 
L -389.552442 463.558361 
L -387.299183 458.533663 
L -385.045923 454.448033 
L -382.792663 450.785156 
L -380.539403 447.330749 
L -378.286143 444.657222 
L -376.032884 444.44308 
L -373.779624 447.449684 
L -371.526364 450.767098 
L -369.273104 453.307727 
L -367.019844 455.278199 
L -364.766585 456.958137 
L -362.513325 458.498076 
L -360.260065 459.986168 
L -358.006805 461.450507 
L -355.753546 462.909806 
L -353.500286 464.347321 
L -351.247026 465.758848 
L -348.993766 467.116279 
L -346.740506 468.409458 
L -344.487247 469.616833 
L -342.233987 470.728264 
L -339.980727 471.730326 
L -337.727467 472.62129 
L -335.474207 473.398872 
L -333.220948 474.069804 
L -330.967688 474.638795 
L -328.714428 475.117633 
L -326.461168 475.514373 
L -324.207906 475.842131 
L -321.89788 476.10991 
L -319.505319 476.329246 
L -317.026662 476.50895 
L -314.457166 476.657451 
L -311.79197 476.782941 
L -309.028283 476.890305 
L -306.162775 476.986956 
L -303.191567 477.074514 
L -300.110397 477.159603 
L -296.916571 477.241237 
L -293.606754 477.325348 
L -290.176287 477.409178 
L -286.618905 477.498122 
L -282.927535 477.588535 
L -279.103848 477.685516 
L -275.139245 477.785255 
L -271.026505 477.892713 
L -266.765383 478.004225 
L -262.34492 478.124692 
L -257.762664 478.25044 
L -253.013176 478.386414 
L -248.086908 478.528576 
L -242.979512 478.682087 
L -237.684611 478.842066 
L -232.194938 479.013793 
L -226.503071 479.191369 
L -220.601654 479.380073 
L -214.483221 479.573438 
L -208.139688 479.776251 
L -201.5616 479.982113 
L -194.741629 480.194685 
L -187.670851 480.408452 
L -180.339261 480.625464 
L -172.737355 480.841598 
L -164.856033 481.056756 
L -156.684456 481.267924 
L -148.211606 481.472493 
L -139.426428 481.668186 
L -130.31782 481.849615 
L -120.921779 482.014688 
L -111.254796 482.153826 
L -101.231949 482.266255 
L -90.839193 482.333877 
L -80.063608 482.364333 
L -68.890841 482.317988 
L -57.306163 482.232938 
L -45.294584 482.018423 
L -32.8402 481.788653 
L -19.926484 481.353645 
L -6.536727 480.935356 
L 7.346541 480.199032 
L 21.74163 479.564042 
L 35.952583 478.416067 
L 46.558634 477.573416 
L 54.11159 475.885037 
L 59.49126 474.881072 
L 63.323822 472.541112 
L 66.054892 471.437738 
L 68.201283 468.409252 
L 70.329362 467.230681 
L 72.457441 463.611452 
L 74.585519 462.246881 
L 76.713598 458.271191 
L 78.841677 456.34026 
L 80.969755 452.096187 
L 83.097834 448.569458 
L 85.225913 432.713817 
L 86.777793 429.415418 
L 88.329672 319.299377 
L 89.881552 319.665867 
L 91.433432 320.069348 
L 92.985312 320.60354 
L 94.537191 321.232652 
L 96.089071 321.911898 
L 97.640951 322.662333 
L 99.192831 323.478983 
L 100.74471 324.315897 
L 102.29659 325.166199 
L 103.84847 325.998104 
L 105.40035 326.821032 
L 106.952229 327.586781 
L 108.504109 328.34597 
L 110.055989 329.041965 
L 111.607869 329.775192 
L 113.159749 330.530037 
L 114.711628 331.392189 
L 116.263508 332.298706 
L 117.815388 333.309318 
L 119.367268 334.364852 
L 120.919147 335.49729 
L 122.471027 336.666434 
L 124.022907 337.889034 
L 125.574787 339.152636 
L 127.126666 340.463749 
L 128.678546 341.820903 
L 130.230426 343.226632 
L 131.782306 344.684521 
L 133.334185 346.202768 
L 134.886065 347.78448 
L 136.437945 349.444049 
L 137.989825 351.180266 
L 139.541705 353.011705 
L 141.093584 354.931973 
L 142.645464 356.959952 
L 144.197344 359.083993 
L 145.749224 361.328894 
L 147.301103 363.688589 
L 148.852983 366.189414 
L 150.404863 368.825967 
L 151.956743 371.626556 
L 153.508622 374.584714 
L 155.076395 377.716326 
L 156.741484 380.987365 
L 158.552717 384.3657 
L 160.505638 387.804171 
L 162.627094 391.236066 
L 164.929764 394.632454 
L 167.424436 397.946336 
L 170.132168 401.212506 
L 173.076952 404.268066 
L 176.278192 407.057808 
L 179.758833 409.509347 
L 183.544527 411.687326 
L 187.663381 413.552717 
L 192.146559 415.177612 
L 197.026171 416.59327 
L 202.332023 417.701708 
L 208.106339 418.935209 
L 214.381055 419.404831 
L 221.199394 420.8165 
L 228.596977 420.644282 
L 236.610147 422.128144 
L 245.271717 421.851324 
L 254.602991 423.040498 
L 264.608895 423.203228 
L 275.25752 424.001477 
L 286.3849 424.540599 
L 297.558434 425.262004 
L 308.731968 425.948645 
L 319.905503 426.725814 
L 331.079037 427.461018 
L 342.252571 428.294928 
L 353.426105 429.018579 
L 364.59964 429.931977 
L 375.773174 430.519438 
L 386.946708 431.621807 
L 398.120243 431.870514 
L 409.293777 433.23417 
L 420.467311 433.333395 
L 431.640846 434.646362 
L 442.81438 435.122511 
L 458.611418 436.232723 
L 474.408457 437.073382 
L 490.205495 438.120364 
L 506.002533 439.093288 
L 521.799572 440.109933 
L 537.59661 441.062576 
L 553.393648 442.000732 
L 569.190687 442.912287 
L 584.987725 443.793224 
L 600.784763 444.636193 
L 616.581802 445.437173 
L 632.37884 446.192775 
L 648.175878 446.900139 
L 663.972917 447.555065 
L 679.769955 448.155215 
L 695.566993 448.69873 
L 711.364032 449.184167 
L 727.16107 449.609853 
L 742.958108 449.974965 
L 758.755147 450.278687 
L 774.552185 450.521024 
L 790.349223 450.701814 
L 806.146262 450.821677 
L 821.9433 450.881193 
L 821.9433 331.191264 
L 821.9433 331.191264 
L 806.146262 331.021917 
L 790.349223 330.682713 
L 774.552185 330.175123 
L 758.755147 329.502878 
L 742.958108 328.671838 
L 727.16107 327.688312 
L 711.364032 326.56088 
L 695.566993 325.296229 
L 679.769955 323.904855 
L 663.972917 322.392212 
L 648.175878 320.770004 
L 632.37884 319.043398 
L 616.581802 317.230019 
L 600.784763 315.336127 
L 584.987725 313.384876 
L 569.190687 311.385103 
L 553.393648 309.374032 
L 537.59661 307.356999 
L 521.799572 305.390855 
L 506.002533 303.413455 
L 490.205495 301.601933 
L 474.408457 299.777885 
L 458.611418 298.336928 
L 442.81438 296.639097 
L 431.640846 295.802967 
L 420.467311 294.030768 
L 409.293777 293.730367 
L 398.120243 291.943436 
L 386.946708 291.485482 
L 375.773174 289.89372 
L 364.59964 288.899149 
L 353.426105 287.294856 
L 342.252571 285.805827 
L 331.079037 283.924333 
L 319.905503 281.943255 
L 308.731968 279.627811 
L 297.558434 277.13221 
L 286.3849 274.296736 
L 275.25752 271.352134 
L 264.608895 267.865945 
L 254.602991 264.758134 
L 245.271717 260.383213 
L 236.610147 257.251375 
L 228.596977 252.150037 
L 221.199394 248.526067 
L 214.381055 243.207468 
L 208.106339 238.79883 
L 202.332023 233.677528 
L 197.026171 228.835854 
L 192.146559 223.916642 
L 187.663381 219.087062 
L 183.544527 214.383181 
L 179.758833 209.753452 
L 176.278192 205.258125 
L 173.076952 200.794037 
L 170.132168 196.448939 
L 167.424436 192.174392 
L 164.929764 188.189086 
L 162.627094 184.309104 
L 160.505638 180.666584 
L 158.552717 177.125444 
L 156.741484 173.830224 
L 155.076395 170.703326 
L 153.508622 167.807594 
L 151.956743 165.094131 
L 150.404863 162.558933 
L 148.852983 160.15808 
L 147.301103 157.870976 
L 145.749224 155.676182 
L 144.197344 153.55504 
L 142.645464 151.503629 
L 141.093584 149.502729 
L 139.541705 147.566493 
L 137.989825 145.675761 
L 136.437945 143.850662 
L 134.886065 142.064552 
L 133.334185 140.343584 
L 131.782306 138.655845 
L 130.230426 137.034761 
L 128.678546 135.44721 
L 127.126666 133.937824 
L 125.574787 132.476514 
L 124.022907 131.123591 
L 122.471027 129.847339 
L 120.919147 128.727826 
L 119.367268 127.727879 
L 117.815388 126.961013 
L 116.263508 126.392444 
L 114.711628 126.152208 
L 113.159749 126.201033 
L 111.607869 126.667388 
L 110.055989 127.509045 
L 108.504109 128.80373 
L 106.952229 130.510508 
L 105.40035 132.756543 
L 103.84847 135.557949 
L 102.29659 139.0331 
L 100.74471 143.254118 
L 99.192831 148.338907 
L 97.640951 154.381936 
L 96.089071 161.513318 
L 94.537191 169.674117 
L 92.985312 178.707237 
L 91.433432 188.600444 
L 89.881552 199.062045 
L 88.329672 209.605753 
L 86.777793 329.983185 
L 85.225913 342.661066 
L 83.097834 366.941112 
L 80.969755 376.971091 
L 78.841677 386.498963 
L 76.713598 392.728522 
L 74.585519 400.224736 
L 72.457441 404.357925 
L 70.329362 410.240891 
L 68.201283 413.020754 
L 66.054892 417.38984 
L 63.323822 419.226651 
L 59.49126 422.227495 
L 54.11159 423.384616 
L 46.558634 425.230804 
L 35.952583 425.881648 
L 21.74163 426.827086 
L 7.346541 427.057822 
L -6.536727 427.363128 
L -19.926484 427.239709 
L -32.8402 427.098695 
L -45.294584 426.68677 
L -57.306163 426.22199 
L -68.890841 425.58122 
L -80.063608 424.863879 
L -90.839193 424.030981 
L -101.231949 423.125124 
L -111.254796 422.140467 
L -120.921779 421.09772 
L -130.31782 420.000479 
L -139.426428 418.861436 
L -148.211606 417.685318 
L -156.684456 416.481393 
L -164.856033 415.254838 
L -172.737355 414.01278 
L -180.339261 412.761322 
L -187.670851 411.504736 
L -194.741629 410.249572 
L -201.5616 408.997571 
L -208.139688 407.756117 
L -214.483221 406.524828 
L -220.601654 405.311346 
L -226.503071 404.113744 
L -232.194938 402.93925 
L -237.684611 401.785736 
L -242.979512 400.660034 
L -248.086908 399.560671 
L -253.013176 398.49348 
L -257.762664 397.456949 
L -262.34492 396.456185 
L -266.765383 395.489365 
L -271.026505 394.561809 
L -275.139245 393.669859 
L -279.103848 392.818076 
L -282.927535 391.999828 
L -286.618905 391.219238 
L -290.176287 390.46732 
L -293.606754 389.747868 
L -296.916571 389.049769 
L -300.110397 388.375121 
L -303.191567 387.710615 
L -306.162775 387.05482 
L -309.028283 386.392848 
L -311.79197 385.718101 
L -314.457166 385.014514 
L -317.026662 384.269117 
L -319.505319 383.465346 
L -321.89788 382.583569 
L -324.207906 381.606448 
L -326.461168 380.508188 
L -328.714428 379.270189 
L -330.967688 377.863647 
L -333.220948 376.271216 
L -335.474207 374.467105 
L -337.727467 372.439354 
L -339.980727 370.170622 
L -342.233987 367.660278 
L -344.487247 364.911922 
L -346.740506 361.952726 
L -348.993766 358.81958 
L -351.247026 355.577865 
L -353.500286 352.298326 
L -355.753546 349.093471 
L -358.006805 346.073367 
L -360.260065 343.384819 
L -362.513325 341.135046 
L -364.766585 339.42209 
L -367.019844 338.1366 
L -369.273104 337.225524 
L -371.526364 336.524086 
L -373.779624 336.045169 
L -376.032884 337.130875 
L -378.286143 342.965303 
L -380.539403 352.714425 
L -382.792663 364.316148 
L -385.045923 376.895809 
L -387.299183 390.467071 
L -389.552442 404.876338 
L -391.805702 421.475006 
L -394.058962 438.365776 
L -396.312222 451.239029 
L -398.565481 460.518546 
L -400.818741 465.952034 
L -403.072001 547.485227 
L -405.270505 554.161897 
L -407.469009 558.623529 
L -409.686832 550.448763 
L -412.464478 433.212958 
L -416.265003 19.1852 
L -421.467669 19.045808 
L -428.591888 19.168778 
L -438.349052 19.063086 
L -451.713553 19.145543 
L -470.020065 19.080933 
L -495.096852 19.123093 
L -529.448308 19.101672 
z
" clip-path="url(#p1b2aa93545)" style="fill: #2ca02c"/>
   </g>
   <g id="PolyCollection_4">
    <path d="M -529.448308 18.927692 
L -529.448308 19.101672 
L -495.096852 19.123093 
L -470.020065 19.080933 
L -451.713553 19.145543 
L -438.349052 19.063086 
L -428.591888 19.168778 
L -421.467669 19.045808 
L -416.265003 19.1852 
L -412.464478 433.212958 
L -409.686832 550.448763 
L -407.469009 558.623529 
L -405.270505 554.161897 
L -403.072001 547.485227 
L -400.818741 465.952034 
L -398.565481 460.518546 
L -396.312222 451.239029 
L -394.058962 438.365776 
L -391.805702 421.475006 
L -389.552442 404.876338 
L -387.299183 390.467071 
L -385.045923 376.895809 
L -382.792663 364.316148 
L -380.539403 352.714425 
L -378.286143 342.965303 
L -376.032884 337.130875 
L -373.779624 336.045169 
L -371.526364 336.524086 
L -369.273104 337.225524 
L -367.019844 338.1366 
L -364.766585 339.42209 
L -362.513325 341.135046 
L -360.260065 343.384819 
L -358.006805 346.073367 
L -355.753546 349.093471 
L -353.500286 352.298326 
L -351.247026 355.577865 
L -348.993766 358.81958 
L -346.740506 361.952726 
L -344.487247 364.911922 
L -342.233987 367.660278 
L -339.980727 370.170622 
L -337.727467 372.439354 
L -335.474207 374.467105 
L -333.220948 376.271216 
L -330.967688 377.863647 
L -328.714428 379.270189 
L -326.461168 380.508188 
L -324.207906 381.606448 
L -321.89788 382.583569 
L -319.505319 383.465346 
L -317.026662 384.269117 
L -314.457166 385.014514 
L -311.79197 385.718101 
L -309.028283 386.392848 
L -306.162775 387.05482 
L -303.191567 387.710615 
L -300.110397 388.375121 
L -296.916571 389.049769 
L -293.606754 389.747868 
L -290.176287 390.46732 
L -286.618905 391.219238 
L -282.927535 391.999828 
L -279.103848 392.818076 
L -275.139245 393.669859 
L -271.026505 394.561809 
L -266.765383 395.489365 
L -262.34492 396.456185 
L -257.762664 397.456949 
L -253.013176 398.49348 
L -248.086908 399.560671 
L -242.979512 400.660034 
L -237.684611 401.785736 
L -232.194938 402.93925 
L -226.503071 404.113744 
L -220.601654 405.311346 
L -214.483221 406.524828 
L -208.139688 407.756117 
L -201.5616 408.997571 
L -194.741629 410.249572 
L -187.670851 411.504736 
L -180.339261 412.761322 
L -172.737355 414.01278 
L -164.856033 415.254838 
L -156.684456 416.481393 
L -148.211606 417.685318 
L -139.426428 418.861436 
L -130.31782 420.000479 
L -120.921779 421.09772 
L -111.254796 422.140467 
L -101.231949 423.125124 
L -90.839193 424.030981 
L -80.063608 424.863879 
L -68.890841 425.58122 
L -57.306163 426.22199 
L -45.294584 426.68677 
L -32.8402 427.098695 
L -19.926484 427.239709 
L -6.536727 427.363128 
L 7.346541 427.057822 
L 21.74163 426.827086 
L 35.952583 425.881648 
L 46.558634 425.230804 
L 54.11159 423.384616 
L 59.49126 422.227495 
L 63.323822 419.226651 
L 66.054892 417.38984 
L 68.201283 413.020754 
L 70.329362 410.240891 
L 72.457441 404.357925 
L 74.585519 400.224736 
L 76.713598 392.728522 
L 78.841677 386.498963 
L 80.969755 376.971091 
L 83.097834 366.941112 
L 85.225913 342.661066 
L 86.777793 329.983185 
L 88.329672 209.605753 
L 89.881552 199.062045 
L 91.433432 188.600444 
L 92.985312 178.707237 
L 94.537191 169.674117 
L 96.089071 161.513318 
L 97.640951 154.381936 
L 99.192831 148.338907 
L 100.74471 143.254118 
L 102.29659 139.0331 
L 103.84847 135.557949 
L 105.40035 132.756543 
L 106.952229 130.510508 
L 108.504109 128.80373 
L 110.055989 127.509045 
L 111.607869 126.667388 
L 113.159749 126.201033 
L 114.711628 126.152208 
L 116.263508 126.392444 
L 117.815388 126.961013 
L 119.367268 127.727879 
L 120.919147 128.727826 
L 122.471027 129.847339 
L 124.022907 131.123591 
L 125.574787 132.476514 
L 127.126666 133.937824 
L 128.678546 135.44721 
L 130.230426 137.034761 
L 131.782306 138.655845 
L 133.334185 140.343584 
L 134.886065 142.064552 
L 136.437945 143.850662 
L 137.989825 145.675761 
L 139.541705 147.566493 
L 141.093584 149.502729 
L 142.645464 151.503629 
L 144.197344 153.55504 
L 145.749224 155.676182 
L 147.301103 157.870976 
L 148.852983 160.15808 
L 150.404863 162.558933 
L 151.956743 165.094131 
L 153.508622 167.807594 
L 155.076395 170.703326 
L 156.741484 173.830224 
L 158.552717 177.125444 
L 160.505638 180.666584 
L 162.627094 184.309104 
L 164.929764 188.189086 
L 167.424436 192.174392 
L 170.132168 196.448939 
L 173.076952 200.794037 
L 176.278192 205.258125 
L 179.758833 209.753452 
L 183.544527 214.383181 
L 187.663381 219.087062 
L 192.146559 223.916642 
L 197.026171 228.835854 
L 202.332023 233.677528 
L 208.106339 238.79883 
L 214.381055 243.207468 
L 221.199394 248.526067 
L 228.596977 252.150037 
L 236.610147 257.251375 
L 245.271717 260.383213 
L 254.602991 264.758134 
L 264.608895 267.865945 
L 275.25752 271.352134 
L 286.3849 274.296736 
L 297.558434 277.13221 
L 308.731968 279.627811 
L 319.905503 281.943255 
L 331.079037 283.924333 
L 342.252571 285.805827 
L 353.426105 287.294856 
L 364.59964 288.899149 
L 375.773174 289.89372 
L 386.946708 291.485482 
L 398.120243 291.943436 
L 409.293777 293.730367 
L 420.467311 294.030768 
L 431.640846 295.802967 
L 442.81438 296.639097 
L 458.611418 298.336928 
L 474.408457 299.777885 
L 490.205495 301.601933 
L 506.002533 303.413455 
L 521.799572 305.390855 
L 537.59661 307.356999 
L 553.393648 309.374032 
L 569.190687 311.385103 
L 584.987725 313.384876 
L 600.784763 315.336127 
L 616.581802 317.230019 
L 632.37884 319.043398 
L 648.175878 320.770004 
L 663.972917 322.392212 
L 679.769955 323.904855 
L 695.566993 325.296229 
L 711.364032 326.56088 
L 727.16107 327.688312 
L 742.958108 328.671838 
L 758.755147 329.502878 
L 774.552185 330.175123 
L 790.349223 330.682713 
L 806.146262 331.021917 
L 821.9433 331.191264 
L 821.9433 289.793667 
L 821.9433 289.793667 
L 806.146262 289.638573 
L 790.349223 289.327945 
L 774.552185 288.863238 
L 758.755147 288.248078 
L 742.958108 287.488133 
L 727.16107 286.589432 
L 711.364032 285.560197 
L 695.566993 284.406669 
L 679.769955 283.138832 
L 663.972917 281.761565 
L 648.175878 280.285962 
L 632.37884 278.71652 
L 616.581802 277.070098 
L 600.784763 275.352214 
L 584.987725 273.585248 
L 569.190687 271.77721 
L 553.393648 269.964462 
L 537.59661 268.151464 
L 521.799572 266.39416 
L 506.002533 264.629373 
L 490.205495 263.033026 
L 474.408457 261.425557 
L 458.611418 260.201495 
L 442.81438 258.719821 
L 431.640846 258.098118 
L 420.467311 256.538089 
L 409.293777 256.447971 
L 398.120243 254.870756 
L 386.946708 254.622717 
L 375.773174 253.241626 
L 364.59964 252.458435 
L 353.426105 251.066219 
L 342.252571 249.790079 
L 331.079037 248.122415 
L 319.905503 246.356385 
L 308.731968 244.256966 
L 297.558434 241.978836 
L 286.3849 239.361989 
L 275.25752 236.637586 
L 264.608895 233.372821 
L 254.602991 230.488742 
L 245.271717 226.339996 
L 236.610147 223.439978 
L 228.596977 218.577235 
L 221.199394 215.201403 
L 214.381055 210.140827 
L 208.106339 206.002026 
L 202.332023 201.163079 
L 197.026171 196.617448 
L 192.146559 192.008543 
L 187.663381 187.503647 
L 183.544527 183.139494 
L 179.758833 178.8649 
L 176.278192 174.740173 
L 173.076952 170.66182 
L 170.132168 166.716609 
L 167.424436 162.854703 
L 164.929764 159.293963 
L 162.627094 155.849617 
L 160.505638 152.653166 
L 158.552717 149.5682 
L 156.741484 146.738912 
L 155.076395 144.087324 
L 153.508622 141.675911 
L 151.956743 139.455458 
L 150.404863 137.421753 
L 148.852983 135.530485 
L 147.301103 133.760734 
L 145.749224 132.09123 
L 144.197344 130.503331 
L 142.645464 128.993173 
L 141.093584 127.541911 
L 139.541705 126.163552 
L 137.989825 124.83859 
L 136.437945 123.586734 
L 134.886065 122.380957 
L 133.334185 121.247213 
L 131.782306 120.153231 
L 130.230426 119.131789 
L 128.678546 118.149137 
L 127.126666 117.249306 
L 125.574787 116.401489 
L 124.022907 115.66529 
L 122.471027 115.008374 
L 120.919147 114.510086 
L 119.367268 114.132392 
L 117.815388 113.98818 
L 116.263508 114.041901 
L 114.711628 114.422691 
L 113.159749 115.090128 
L 111.607869 116.171526 
L 110.055989 117.623324 
L 108.504109 119.521564 
L 106.952229 121.823359 
L 105.40035 124.653953 
L 103.84847 128.028651 
L 102.29659 132.064689 
L 100.74471 136.832782 
L 99.192831 142.448707 
L 97.640951 149.004932 
L 96.089071 156.630163 
L 94.537191 165.262172 
L 92.985312 174.740195 
L 91.433432 185.053361 
L 89.881552 195.909915 
L 88.329672 206.825663 
L 86.777793 327.554843 
L 85.225913 340.559683 
L 83.097834 365.144614 
L 80.969755 375.458598 
L 78.841677 385.248319 
L 76.713598 391.722233 
L 74.585519 399.440325 
L 72.457441 403.782056 
L 70.329362 409.849449 
L 68.201283 412.806269 
L 66.054892 417.324889 
L 63.323822 419.226651 
L 59.49126 422.227495 
L 54.11159 423.384616 
L 46.558634 425.230804 
L 35.952583 425.881648 
L 21.74163 426.827086 
L 7.346541 427.057822 
L -6.536727 427.363128 
L -19.926484 427.239709 
L -32.8402 427.098695 
L -45.294584 426.68677 
L -57.306163 426.22199 
L -68.890841 425.58122 
L -80.063608 424.863879 
L -90.839193 424.030981 
L -101.231949 423.125124 
L -111.254796 422.140467 
L -120.921779 421.09772 
L -130.31782 420.000479 
L -139.426428 418.861436 
L -148.211606 417.685318 
L -156.684456 416.481393 
L -164.856033 415.254838 
L -172.737355 414.01278 
L -180.339261 412.761322 
L -187.670851 411.504736 
L -194.741629 410.249572 
L -201.5616 408.997571 
L -208.139688 407.756117 
L -214.483221 406.524828 
L -220.601654 405.311346 
L -226.503071 404.113744 
L -232.194938 402.93925 
L -237.684611 401.785736 
L -242.979512 400.660034 
L -248.086908 399.560671 
L -253.013176 398.49348 
L -257.762664 397.456949 
L -262.34492 396.456185 
L -266.765383 395.489365 
L -271.026505 394.561809 
L -275.139245 393.669859 
L -279.103848 392.818076 
L -282.927535 391.999828 
L -286.618905 391.219238 
L -290.176287 390.46732 
L -293.606754 389.747868 
L -296.916571 389.049769 
L -300.110397 388.375121 
L -303.191567 387.710615 
L -306.162775 387.05482 
L -309.028283 386.392848 
L -311.79197 385.718101 
L -314.457166 385.014514 
L -317.026662 384.269117 
L -319.505319 383.465346 
L -321.89788 382.583569 
L -324.207906 381.606448 
L -326.461168 380.508188 
L -328.714428 379.270189 
L -330.967688 377.863647 
L -333.220948 376.271216 
L -335.474207 374.467105 
L -337.727467 372.439354 
L -339.980727 370.170622 
L -342.233987 367.660278 
L -344.487247 364.911922 
L -346.740506 361.952726 
L -348.993766 358.81958 
L -351.247026 355.577865 
L -353.500286 352.298326 
L -355.753546 349.093471 
L -358.006805 346.073367 
L -360.260065 343.384819 
L -362.513325 341.135046 
L -364.766585 339.42209 
L -367.019844 338.1366 
L -369.273104 337.225524 
L -371.526364 336.524086 
L -373.779624 336.045169 
L -376.032884 337.130875 
L -378.286143 342.965303 
L -380.539403 352.714425 
L -382.792663 364.316148 
L -385.045923 376.895809 
L -387.299183 390.467071 
L -389.552442 404.876338 
L -391.805702 421.378005 
L -394.058962 438.365776 
L -396.312222 451.035276 
L -398.565481 460.472338 
L -400.818741 465.65781 
L -403.072001 547.384968 
L -405.270505 553.816776 
L -407.469009 558.510672 
L -409.686832 550.091531 
L -412.464478 433.075971 
L -416.265003 18.927692 
L -421.467669 18.927692 
L -428.591888 18.927692 
L -438.349052 18.927692 
L -451.713553 18.927692 
L -470.020065 18.927692 
L -495.096852 18.927692 
L -529.448308 18.927692 
z
" clip-path="url(#p1b2aa93545)" style="fill: #d62728"/>
   </g>
   <g id="matplotlib.axis_1">
    <g id="xtick_1">
     <g id="line2d_1">
      <path d="M 102.433225 617.04 
L 102.433225 7.2 
" clip-path="url(#p1b2aa93545)" style="fill: none; stroke: #b0b0b0; stroke-width: 0.8; stroke-linecap: square"/>
     </g>
     <g id="line2d_2">
      <defs>
       <path id="mcdfa6ca3e7" d="M 0 0 
L 0 3.5 
" style="stroke: #000000; stroke-width: 0.8"/>
      </defs>
      <g>
       <use xlink:href="#mcdfa6ca3e7" x="102.433225" y="617.04" style="stroke: #000000; stroke-width: 0.8"/>
      </g>
     </g>
     <g id="text_1">
      <!-- $\mathdefault{0.20}$ -->
      <g transform="translate(77.807934 644.795495) scale(0.3 -0.3)">
       <defs>
        <path id="CMR17-30" d="M 2688 2025 
C 2688 2416 2682 3080 2413 3591 
C 2176 4039 1798 4198 1466 4198 
C 1158 4198 768 4058 525 3597 
C 269 3118 243 2524 243 2025 
C 243 1661 250 1106 448 619 
C 723 -39 1216 -128 1466 -128 
C 1760 -128 2208 -7 2470 600 
C 2662 1042 2688 1559 2688 2025 
z
M 1466 -26 
C 1056 -26 813 325 723 812 
C 653 1188 653 1738 653 2096 
C 653 2588 653 2997 736 3387 
C 858 3929 1216 4096 1466 4096 
C 1728 4096 2067 3923 2189 3400 
C 2272 3036 2278 2607 2278 2096 
C 2278 1680 2278 1169 2202 792 
C 2067 95 1690 -26 1466 -26 
z
" transform="scale(0.015625)"/>
        <path id="CMMI12-3a" d="M 1178 307 
C 1178 492 1024 619 870 619 
C 685 619 557 466 557 313 
C 557 128 710 0 864 0 
C 1050 0 1178 153 1178 307 
z
" transform="scale(0.015625)"/>
        <path id="CMR17-32" d="M 2669 989 
L 2554 989 
C 2490 536 2438 459 2413 420 
C 2381 369 1920 369 1830 369 
L 602 369 
C 832 619 1280 1072 1824 1597 
C 2214 1967 2669 2402 2669 3035 
C 2669 3790 2067 4224 1395 4224 
C 691 4224 262 3604 262 3030 
C 262 2780 448 2748 525 2748 
C 589 2748 781 2787 781 3010 
C 781 3207 614 3264 525 3264 
C 486 3264 448 3258 422 3245 
C 544 3790 915 4058 1306 4058 
C 1862 4058 2227 3617 2227 3035 
C 2227 2479 1901 2000 1536 1584 
L 262 146 
L 262 0 
L 2515 0 
L 2669 989 
z
" transform="scale(0.015625)"/>
       </defs>
       <use xlink:href="#CMR17-30" transform="scale(0.996264)"/>
       <use xlink:href="#CMMI12-3a" transform="translate(45.690477 0) scale(0.996264)"/>
       <use xlink:href="#CMR17-32" transform="translate(72.787654 0) scale(0.996264)"/>
       <use xlink:href="#CMR17-30" transform="translate(118.478131 0) scale(0.996264)"/>
      </g>
     </g>
    </g>
    <g id="xtick_2">
     <g id="line2d_3">
      <path d="M 228.809532 617.04 
L 228.809532 7.2 
" clip-path="url(#p1b2aa93545)" style="fill: none; stroke: #b0b0b0; stroke-width: 0.8; stroke-linecap: square"/>
     </g>
     <g id="line2d_4">
      <g>
       <use xlink:href="#mcdfa6ca3e7" x="228.809532" y="617.04" style="stroke: #000000; stroke-width: 0.8"/>
      </g>
     </g>
     <g id="text_2">
      <!-- $\mathdefault{0.25}$ -->
      <g transform="translate(204.184241 644.795495) scale(0.3 -0.3)">
       <defs>
        <path id="CMR17-35" d="M 730 3692 
C 794 3666 1056 3584 1325 3584 
C 1920 3584 2246 3911 2432 4100 
C 2432 4157 2432 4192 2394 4192 
C 2387 4192 2374 4192 2323 4163 
C 2099 4058 1837 3973 1517 3973 
C 1325 3973 1037 3999 723 4139 
C 653 4171 640 4171 634 4171 
C 602 4171 595 4164 595 4037 
L 595 2203 
C 595 2089 595 2057 659 2057 
C 691 2057 704 2070 736 2114 
C 941 2401 1222 2522 1542 2522 
C 1766 2522 2246 2382 2246 1289 
C 2246 1085 2246 715 2054 421 
C 1894 159 1645 25 1370 25 
C 947 25 518 320 403 814 
C 429 807 480 795 506 795 
C 589 795 749 840 749 1038 
C 749 1210 627 1280 506 1280 
C 358 1280 262 1190 262 1011 
C 262 454 704 -128 1382 -128 
C 2042 -128 2669 440 2669 1264 
C 2669 2030 2170 2624 1549 2624 
C 1222 2624 947 2503 730 2274 
L 730 3692 
z
" transform="scale(0.015625)"/>
       </defs>
       <use xlink:href="#CMR17-30" transform="scale(0.996264)"/>
       <use xlink:href="#CMMI12-3a" transform="translate(45.690477 0) scale(0.996264)"/>
       <use xlink:href="#CMR17-32" transform="translate(72.787654 0) scale(0.996264)"/>
       <use xlink:href="#CMR17-35" transform="translate(118.478131 0) scale(0.996264)"/>
      </g>
     </g>
    </g>
    <g id="xtick_3">
     <g id="line2d_5">
      <path d="M 355.185839 617.04 
L 355.185839 7.2 
" clip-path="url(#p1b2aa93545)" style="fill: none; stroke: #b0b0b0; stroke-width: 0.8; stroke-linecap: square"/>
     </g>
     <g id="line2d_6">
      <g>
       <use xlink:href="#mcdfa6ca3e7" x="355.185839" y="617.04" style="stroke: #000000; stroke-width: 0.8"/>
      </g>
     </g>
     <g id="text_3">
      <!-- $\mathdefault{0.30}$ -->
      <g transform="translate(330.560547 644.795495) scale(0.3 -0.3)">
       <defs>
        <path id="CMR17-33" d="M 1414 2157 
C 1984 2157 2234 1662 2234 1090 
C 2234 320 1824 25 1453 25 
C 1114 25 563 194 390 693 
C 422 680 454 680 486 680 
C 640 680 755 782 755 948 
C 755 1133 614 1216 486 1216 
C 378 1216 211 1165 211 926 
C 211 335 787 -128 1466 -128 
C 2176 -128 2720 430 2720 1085 
C 2720 1707 2208 2157 1600 2227 
C 2086 2328 2554 2756 2554 3329 
C 2554 3820 2048 4179 1472 4179 
C 890 4179 378 3829 378 3329 
C 378 3110 544 3072 627 3072 
C 762 3072 877 3155 877 3321 
C 877 3486 762 3569 627 3569 
C 602 3569 570 3569 544 3557 
C 730 3959 1235 4032 1459 4032 
C 1683 4032 2106 3925 2106 3320 
C 2106 3143 2080 2828 1862 2550 
C 1670 2304 1453 2304 1242 2284 
C 1210 2284 1062 2269 1037 2269 
C 992 2263 966 2257 966 2208 
C 966 2163 973 2157 1101 2157 
L 1414 2157 
z
" transform="scale(0.015625)"/>
       </defs>
       <use xlink:href="#CMR17-30" transform="scale(0.996264)"/>
       <use xlink:href="#CMMI12-3a" transform="translate(45.690477 0) scale(0.996264)"/>
       <use xlink:href="#CMR17-33" transform="translate(72.787654 0) scale(0.996264)"/>
       <use xlink:href="#CMR17-30" transform="translate(118.478131 0) scale(0.996264)"/>
      </g>
     </g>
    </g>
    <g id="xtick_4">
     <g id="line2d_7">
      <path d="M 481.562145 617.04 
L 481.562145 7.2 
" clip-path="url(#p1b2aa93545)" style="fill: none; stroke: #b0b0b0; stroke-width: 0.8; stroke-linecap: square"/>
     </g>
     <g id="line2d_8">
      <g>
       <use xlink:href="#mcdfa6ca3e7" x="481.562145" y="617.04" style="stroke: #000000; stroke-width: 0.8"/>
      </g>
     </g>
     <g id="text_4">
      <!-- $\mathdefault{0.35}$ -->
      <g transform="translate(456.936854 644.795495) scale(0.3 -0.3)">
       <use xlink:href="#CMR17-30" transform="scale(0.996264)"/>
       <use xlink:href="#CMMI12-3a" transform="translate(45.690477 0) scale(0.996264)"/>
       <use xlink:href="#CMR17-33" transform="translate(72.787654 0) scale(0.996264)"/>
       <use xlink:href="#CMR17-35" transform="translate(118.478131 0) scale(0.996264)"/>
      </g>
     </g>
    </g>
    <g id="xtick_5">
     <g id="line2d_9">
      <path d="M 607.938452 617.04 
L 607.938452 7.2 
" clip-path="url(#p1b2aa93545)" style="fill: none; stroke: #b0b0b0; stroke-width: 0.8; stroke-linecap: square"/>
     </g>
     <g id="line2d_10">
      <g>
       <use xlink:href="#mcdfa6ca3e7" x="607.938452" y="617.04" style="stroke: #000000; stroke-width: 0.8"/>
      </g>
     </g>
     <g id="text_5">
      <!-- $\mathdefault{0.40}$ -->
      <g transform="translate(583.313161 644.795495) scale(0.3 -0.3)">
       <defs>
        <path id="CMR17-34" d="M 2150 4122 
C 2150 4256 2144 4256 2029 4256 
L 128 1254 
L 128 1088 
L 1779 1088 
L 1779 457 
C 1779 224 1766 160 1318 160 
L 1197 160 
L 1197 0 
C 1402 0 1747 0 1965 0 
C 2182 0 2528 0 2733 0 
L 2733 160 
L 2611 160 
C 2163 160 2150 224 2150 457 
L 2150 1088 
L 2803 1088 
L 2803 1254 
L 2150 1254 
L 2150 4122 
z
M 1798 3703 
L 1798 1254 
L 256 1254 
L 1798 3703 
z
" transform="scale(0.015625)"/>
       </defs>
       <use xlink:href="#CMR17-30" transform="scale(0.996264)"/>
       <use xlink:href="#CMMI12-3a" transform="translate(45.690477 0) scale(0.996264)"/>
       <use xlink:href="#CMR17-34" transform="translate(72.787654 0) scale(0.996264)"/>
       <use xlink:href="#CMR17-30" transform="translate(118.478131 0) scale(0.996264)"/>
      </g>
     </g>
    </g>
    <g id="xtick_6">
     <g id="line2d_11">
      <path d="M 734.314759 617.04 
L 734.314759 7.2 
" clip-path="url(#p1b2aa93545)" style="fill: none; stroke: #b0b0b0; stroke-width: 0.8; stroke-linecap: square"/>
     </g>
     <g id="line2d_12">
      <g>
       <use xlink:href="#mcdfa6ca3e7" x="734.314759" y="617.04" style="stroke: #000000; stroke-width: 0.8"/>
      </g>
     </g>
     <g id="text_6">
      <!-- $\mathdefault{0.45}$ -->
      <g transform="translate(709.689467 644.795495) scale(0.3 -0.3)">
       <use xlink:href="#CMR17-30" transform="scale(0.996264)"/>
       <use xlink:href="#CMMI12-3a" transform="translate(45.690477 0) scale(0.996264)"/>
       <use xlink:href="#CMR17-34" transform="translate(72.787654 0) scale(0.996264)"/>
       <use xlink:href="#CMR17-35" transform="translate(118.478131 0) scale(0.996264)"/>
      </g>
     </g>
    </g>
    <g id="text_7">
     <!-- $x, \; \mathrm{m} $ -->
     <g transform="translate(411.787939 678.823697) scale(0.35 -0.35)">
      <defs>
       <path id="CMMI12-78" d="M 3034 2606 
C 2829 2567 2752 2414 2752 2293 
C 2752 2139 2874 2088 2963 2088 
C 3155 2088 3290 2254 3290 2427 
C 3290 2695 2982 2816 2714 2816 
C 2323 2816 2106 2433 2048 2312 
C 1901 2816 1504 2816 1389 2816 
C 736 2816 390 1980 390 1839 
C 390 1814 416 1782 461 1782 
C 512 1782 525 1820 538 1846 
C 755 2555 1184 2689 1370 2689 
C 1658 2689 1715 2420 1715 2267 
C 1715 2127 1677 1980 1600 1673 
L 1382 798 
C 1286 415 1101 64 762 64 
C 730 64 570 64 435 147 
C 666 192 717 383 717 460 
C 717 588 621 664 499 664 
C 346 664 179 530 179 326 
C 179 57 480 -64 755 -64 
C 1062 -64 1280 179 1414 441 
C 1517 64 1837 -64 2074 -64 
C 2726 -64 3072 773 3072 913 
C 3072 945 3046 971 3008 971 
C 2950 971 2944 939 2925 888 
C 2752 326 2381 64 2093 64 
C 1869 64 1747 230 1747 492 
C 1747 632 1773 734 1875 1156 
L 2099 2024 
C 2195 2408 2413 2689 2707 2689 
C 2720 2689 2899 2689 3034 2606 
z
" transform="scale(0.015625)"/>
       <path id="CMMI12-3b" d="M 1248 -31 
C 1248 343 1126 619 864 619 
C 659 619 557 453 557 313 
C 557 172 653 0 870 0 
C 954 0 1024 26 1082 83 
C 1094 96 1101 96 1107 96 
C 1120 96 1120 5 1120 -27 
C 1120 -240 1082 -659 710 -1080 
C 640 -1157 640 -1170 640 -1183 
C 640 -1216 672 -1248 704 -1248 
C 755 -1248 1248 -771 1248 -31 
z
" transform="scale(0.015625)"/>
       <path id="CMR17-6d" d="M 4326 1933 
C 4326 2252 4269 2790 3507 2790 
C 3072 2790 2771 2496 2656 2151 
L 2650 2151 
C 2573 2676 2195 2790 1837 2790 
C 1331 2790 1069 2400 973 2144 
L 966 2144 
L 966 2790 
L 211 2720 
L 211 2554 
C 589 2554 646 2515 646 2208 
L 646 428 
C 646 184 621 153 211 153 
L 211 -13 
C 365 0 646 0 813 0 
C 979 0 1267 0 1421 -13 
L 1421 153 
C 1011 153 986 178 986 428 
L 986 1658 
C 986 2247 1344 2688 1792 2688 
C 2266 2688 2317 2266 2317 1958 
L 2317 428 
C 2317 184 2291 153 1882 153 
L 1882 -13 
C 2035 0 2317 0 2483 0 
C 2650 0 2938 0 3091 -13 
L 3091 153 
C 2682 153 2656 178 2656 428 
L 2656 1658 
C 2656 2247 3014 2688 3462 2688 
C 3936 2688 3987 2266 3987 1958 
L 3987 428 
C 3987 184 3962 153 3552 153 
L 3552 -13 
C 3706 0 3987 0 4154 0 
C 4320 0 4608 0 4762 -13 
L 4762 153 
C 4352 153 4326 178 4326 428 
L 4326 1933 
z
" transform="scale(0.015625)"/>
      </defs>
      <use xlink:href="#CMMI12-78" transform="scale(0.996264)"/>
      <use xlink:href="#CMMI12-3b" transform="translate(55.43406 0) scale(0.996264)"/>
      <use xlink:href="#CMR17-6d" transform="translate(126.809651 0) scale(0.996264)"/>
     </g>
    </g>
   </g>
   <g id="matplotlib.axis_2">
    <g id="ytick_1">
     <g id="line2d_13">
      <path d="M 84.740543 605.312308 
L 810.140543 605.312308 
" clip-path="url(#p1b2aa93545)" style="fill: none; stroke: #b0b0b0; stroke-width: 0.8; stroke-linecap: square"/>
     </g>
     <g id="line2d_14">
      <defs>
       <path id="m57ffd0429f" d="M 0 0 
L -3.5 0 
" style="stroke: #000000; stroke-width: 0.8"/>
      </defs>
      <g>
       <use xlink:href="#m57ffd0429f" x="84.740543" y="605.312308" style="stroke: #000000; stroke-width: 0.8"/>
      </g>
     </g>
     <g id="text_8">
      <!-- $\mathdefault{0.0}$ -->
      <g transform="translate(42.197103 615.690055) scale(0.3 -0.3)">
       <use xlink:href="#CMR17-30" transform="scale(0.996264)"/>
       <use xlink:href="#CMMI12-3a" transform="translate(45.690477 0) scale(0.996264)"/>
       <use xlink:href="#CMR17-30" transform="translate(72.787654 0) scale(0.996264)"/>
      </g>
     </g>
    </g>
    <g id="ytick_2">
     <g id="line2d_15">
      <path d="M 84.740543 488.035385 
L 810.140543 488.035385 
" clip-path="url(#p1b2aa93545)" style="fill: none; stroke: #b0b0b0; stroke-width: 0.8; stroke-linecap: square"/>
     </g>
     <g id="line2d_16">
      <g>
       <use xlink:href="#m57ffd0429f" x="84.740543" y="488.035385" style="stroke: #000000; stroke-width: 0.8"/>
      </g>
     </g>
     <g id="text_9">
      <!-- $\mathdefault{0.2}$ -->
      <g transform="translate(42.197103 498.413132) scale(0.3 -0.3)">
       <use xlink:href="#CMR17-30" transform="scale(0.996264)"/>
       <use xlink:href="#CMMI12-3a" transform="translate(45.690477 0) scale(0.996264)"/>
       <use xlink:href="#CMR17-32" transform="translate(72.787654 0) scale(0.996264)"/>
      </g>
     </g>
    </g>
    <g id="ytick_3">
     <g id="line2d_17">
      <path d="M 84.740543 370.758462 
L 810.140543 370.758462 
" clip-path="url(#p1b2aa93545)" style="fill: none; stroke: #b0b0b0; stroke-width: 0.8; stroke-linecap: square"/>
     </g>
     <g id="line2d_18">
      <g>
       <use xlink:href="#m57ffd0429f" x="84.740543" y="370.758462" style="stroke: #000000; stroke-width: 0.8"/>
      </g>
     </g>
     <g id="text_10">
      <!-- $\mathdefault{0.4}$ -->
      <g transform="translate(42.197103 381.136209) scale(0.3 -0.3)">
       <use xlink:href="#CMR17-30" transform="scale(0.996264)"/>
       <use xlink:href="#CMMI12-3a" transform="translate(45.690477 0) scale(0.996264)"/>
       <use xlink:href="#CMR17-34" transform="translate(72.787654 0) scale(0.996264)"/>
      </g>
     </g>
    </g>
    <g id="ytick_4">
     <g id="line2d_19">
      <path d="M 84.740543 253.481538 
L 810.140543 253.481538 
" clip-path="url(#p1b2aa93545)" style="fill: none; stroke: #b0b0b0; stroke-width: 0.8; stroke-linecap: square"/>
     </g>
     <g id="line2d_20">
      <g>
       <use xlink:href="#m57ffd0429f" x="84.740543" y="253.481538" style="stroke: #000000; stroke-width: 0.8"/>
      </g>
     </g>
     <g id="text_11">
      <!-- $\mathdefault{0.6}$ -->
      <g transform="translate(42.197103 263.859286) scale(0.3 -0.3)">
       <defs>
        <path id="CMR17-36" d="M 678 2176 
C 678 3690 1395 4032 1811 4032 
C 1946 4032 2272 4009 2400 3776 
C 2298 3776 2106 3776 2106 3553 
C 2106 3381 2246 3323 2336 3323 
C 2394 3323 2566 3348 2566 3560 
C 2566 3954 2246 4179 1805 4179 
C 1043 4179 243 3390 243 1984 
C 243 253 966 -128 1478 -128 
C 2099 -128 2688 427 2688 1283 
C 2688 2081 2170 2662 1517 2662 
C 1126 2662 838 2407 678 1960 
L 678 2176 
z
M 1478 25 
C 691 25 691 1200 691 1436 
C 691 1896 909 2560 1504 2560 
C 1613 2560 1926 2560 2138 2120 
C 2253 1870 2253 1609 2253 1289 
C 2253 944 2253 690 2118 434 
C 1978 171 1773 25 1478 25 
z
" transform="scale(0.015625)"/>
       </defs>
       <use xlink:href="#CMR17-30" transform="scale(0.996264)"/>
       <use xlink:href="#CMMI12-3a" transform="translate(45.690477 0) scale(0.996264)"/>
       <use xlink:href="#CMR17-36" transform="translate(72.787654 0) scale(0.996264)"/>
      </g>
     </g>
    </g>
    <g id="ytick_5">
     <g id="line2d_21">
      <path d="M 84.740543 136.204615 
L 810.140543 136.204615 
" clip-path="url(#p1b2aa93545)" style="fill: none; stroke: #b0b0b0; stroke-width: 0.8; stroke-linecap: square"/>
     </g>
     <g id="line2d_22">
      <g>
       <use xlink:href="#m57ffd0429f" x="84.740543" y="136.204615" style="stroke: #000000; stroke-width: 0.8"/>
      </g>
     </g>
     <g id="text_12">
      <!-- $\mathdefault{0.8}$ -->
      <g transform="translate(42.197103 146.582363) scale(0.3 -0.3)">
       <defs>
        <path id="CMR17-38" d="M 1741 2264 
C 2144 2467 2554 2773 2554 3263 
C 2554 3841 1990 4179 1472 4179 
C 890 4179 378 3759 378 3180 
C 378 3021 416 2747 666 2505 
C 730 2442 998 2251 1171 2130 
C 883 1983 211 1634 211 934 
C 211 279 838 -128 1459 -128 
C 2144 -128 2720 362 2720 1010 
C 2720 1590 2330 1857 2074 2029 
L 1741 2264 
z
M 902 2822 
C 851 2854 595 3051 595 3351 
C 595 3739 998 4032 1459 4032 
C 1965 4032 2336 3676 2336 3262 
C 2336 2669 1670 2331 1638 2331 
C 1632 2331 1626 2331 1574 2370 
L 902 2822 
z
M 2080 1519 
C 2176 1449 2483 1240 2483 851 
C 2483 381 2010 25 1472 25 
C 890 25 448 438 448 940 
C 448 1443 838 1862 1280 2060 
L 2080 1519 
z
" transform="scale(0.015625)"/>
       </defs>
       <use xlink:href="#CMR17-30" transform="scale(0.996264)"/>
       <use xlink:href="#CMMI12-3a" transform="translate(45.690477 0) scale(0.996264)"/>
       <use xlink:href="#CMR17-38" transform="translate(72.787654 0) scale(0.996264)"/>
      </g>
     </g>
    </g>
    <g id="ytick_6">
     <g id="line2d_23">
      <path d="M 84.740543 18.927692 
L 810.140543 18.927692 
" clip-path="url(#p1b2aa93545)" style="fill: none; stroke: #b0b0b0; stroke-width: 0.8; stroke-linecap: square"/>
     </g>
     <g id="line2d_24">
      <g>
       <use xlink:href="#m57ffd0429f" x="84.740543" y="18.927692" style="stroke: #000000; stroke-width: 0.8"/>
      </g>
     </g>
     <g id="text_13">
      <!-- $\mathdefault{1.0}$ -->
      <g transform="translate(42.197103 29.30544) scale(0.3 -0.3)">
       <defs>
        <path id="CMR17-31" d="M 1702 4058 
C 1702 4192 1696 4192 1606 4192 
C 1357 3916 979 3827 621 3827 
C 602 3827 570 3827 563 3808 
C 557 3795 557 3782 557 3648 
C 755 3648 1088 3686 1344 3839 
L 1344 461 
C 1344 236 1331 160 781 160 
L 589 160 
L 589 0 
C 896 0 1216 0 1523 0 
C 1830 0 2150 0 2458 0 
L 2458 160 
L 2266 160 
C 1715 160 1702 230 1702 458 
L 1702 4058 
z
" transform="scale(0.015625)"/>
       </defs>
       <use xlink:href="#CMR17-31" transform="scale(0.996264)"/>
       <use xlink:href="#CMMI12-3a" transform="translate(45.690477 0) scale(0.996264)"/>
       <use xlink:href="#CMR17-30" transform="translate(72.787654 0) scale(0.996264)"/>
      </g>
     </g>
    </g>
    <g id="text_14">
     <!-- $S_1$ -->
     <g transform="translate(31.414752 328.216088) rotate(-90) scale(0.35 -0.35)">
      <defs>
       <path id="CMMI12-53" d="M 4064 4423 
C 4064 4480 4019 4480 4006 4480 
C 3981 4480 3974 4474 3898 4378 
C 3859 4333 3597 4001 3590 3995 
C 3379 4410 2957 4480 2688 4480 
C 1875 4480 1139 3743 1139 3025 
C 1139 2549 1427 2269 1741 2161 
C 1811 2135 2189 2033 2381 1989 
C 2707 1900 2790 1875 2925 1735 
C 2950 1703 3078 1557 3078 1258 
C 3078 667 2528 57 1888 57 
C 1363 57 781 280 781 991 
C 781 1112 806 1265 826 1328 
C 826 1348 832 1378 832 1391 
C 832 1417 819 1449 768 1449 
C 710 1449 704 1436 678 1328 
L 352 24 
C 352 18 326 -64 326 -71 
C 326 -128 378 -128 390 -128 
C 416 -128 422 -122 499 -26 
L 794 356 
C 947 126 1280 -128 1875 -128 
C 2701 -128 3456 666 3456 1460 
C 3456 1728 3392 1963 3149 2197 
C 3014 2331 2899 2363 2310 2516 
C 1882 2630 1824 2649 1709 2751 
C 1600 2858 1517 3011 1517 3227 
C 1517 3761 2061 4308 2669 4308 
C 3296 4308 3590 3926 3590 3323 
C 3590 3158 3558 2986 3558 2961 
C 3558 2903 3610 2903 3629 2903 
C 3686 2903 3693 2922 3718 3024 
L 4064 4423 
z
" transform="scale(0.015625)"/>
      </defs>
      <use xlink:href="#CMMI12-53" transform="scale(0.996264)"/>
      <use xlink:href="#CMR17-31" transform="translate(59.994488 -14.943915) scale(0.697382)"/>
     </g>
    </g>
   </g>
   <g id="patch_3">
    <path d="M 84.740543 617.04 
L 84.740543 7.2 
" style="fill: none; stroke: #000000; stroke-width: 0.8; stroke-linejoin: miter; stroke-linecap: square"/>
   </g>
   <g id="patch_4">
    <path d="M 810.140543 617.04 
L 810.140543 7.2 
" style="fill: none; stroke: #000000; stroke-width: 0.8; stroke-linejoin: miter; stroke-linecap: square"/>
   </g>
   <g id="patch_5">
    <path d="M 84.740543 617.04 
L 810.140543 617.04 
" style="fill: none; stroke: #000000; stroke-width: 0.8; stroke-linejoin: miter; stroke-linecap: square"/>
   </g>
   <g id="patch_6">
    <path d="M 84.740543 7.2 
L 810.140543 7.2 
" style="fill: none; stroke: #000000; stroke-width: 0.8; stroke-linejoin: miter; stroke-linecap: square"/>
   </g>
   <g id="legend_1">
    <g id="patch_7">
     <path d="M 626.697089 232.438667 
L 785.640543 232.438667 
Q 792.640543 232.438667 792.640543 225.438667 
L 792.640543 31.7 
Q 792.640543 24.7 785.640543 24.7 
L 626.697089 24.7 
Q 619.697089 24.7 619.697089 31.7 
L 619.697089 225.438667 
Q 619.697089 232.438667 626.697089 232.438667 
z
" style="fill: #ffffff; stroke: #cccccc; stroke-linejoin: miter"/>
    </g>
    <g id="patch_8">
     <path d="M 633.697089 63.2 
L 703.697089 63.2 
L 703.697089 38.7 
L 633.697089 38.7 
z
" style="fill: #1f77b4"/>
    </g>
    <g id="text_15">
     <!-- $M$ -->
     <g transform="translate(731.697089 63.2) scale(0.35 -0.35)">
      <defs>
       <path id="CMMI12-4d" d="M 5811 3886 
C 5869 4103 5882 4167 6336 4167 
C 6458 4167 6515 4167 6515 4288 
C 6515 4352 6470 4352 6349 4352 
L 5581 4352 
C 5421 4352 5414 4346 5344 4243 
L 3008 562 
L 2528 4211 
C 2509 4352 2502 4352 2336 4352 
L 1542 4352 
C 1421 4352 1363 4352 1363 4231 
C 1363 4167 1421 4167 1517 4167 
C 1907 4167 1907 4116 1907 4046 
C 1907 4034 1907 3995 1882 3899 
L 1062 634 
C 986 327 838 186 410 186 
C 390 186 314 186 314 73 
C 314 0 371 0 397 0 
C 525 0 851 0 979 0 
L 1286 0 
C 1376 0 1485 0 1574 0 
C 1619 0 1690 0 1690 122 
C 1690 180 1626 186 1600 186 
C 1389 186 1184 224 1184 454 
C 1184 518 1184 524 1210 613 
L 2093 4129 
L 2099 4129 
L 2630 172 
C 2650 19 2656 0 2714 0 
C 2784 0 2816 51 2848 109 
L 5421 4161 
L 5427 4161 
L 4499 473 
C 4442 250 4429 186 3981 186 
C 3859 186 3795 186 3795 70 
C 3795 0 3853 0 3891 0 
C 4000 0 4128 0 4237 0 
L 4992 0 
C 5101 0 5235 0 5344 0 
C 5395 0 5466 0 5466 122 
C 5466 186 5408 186 5312 186 
C 4922 186 4922 234 4922 294 
C 4922 301 4922 345 4934 396 
L 5811 3886 
z
" transform="scale(0.015625)"/>
      </defs>
      <use xlink:href="#CMMI12-4d" transform="scale(0.996264)"/>
     </g>
    </g>
    <g id="patch_9">
     <path d="M 633.697089 111.982351 
L 703.697089 111.982351 
L 703.697089 87.482351 
L 633.697089 87.482351 
z
" style="fill: #ff7f0e"/>
    </g>
    <g id="text_16">
     <!-- $P$ -->
     <g transform="translate(731.697089 111.982351) scale(0.35 -0.35)">
      <defs>
       <path id="CMMI12-50" d="M 1894 2023 
L 2970 2023 
C 3853 2023 4736 2673 4736 3401 
C 4736 3898 4314 4352 3507 4352 
L 1530 4352 
C 1408 4352 1350 4352 1350 4231 
C 1350 4167 1408 4167 1504 4167 
C 1894 4167 1894 4116 1894 4046 
C 1894 4034 1894 3995 1869 3899 
L 1005 472 
C 947 249 934 185 486 185 
C 365 185 301 185 301 70 
C 301 0 358 0 397 0 
C 518 0 646 0 768 0 
L 1517 0 
C 1638 0 1773 0 1894 0 
C 1946 0 2016 0 2016 121 
C 2016 185 1958 185 1862 185 
C 1478 185 1472 230 1472 293 
C 1472 325 1478 369 1485 401 
L 1894 2023 
z
M 2355 3930 
C 2413 4167 2438 4167 2688 4167 
L 3322 4167 
C 3802 4167 4198 4013 4198 3535 
C 4198 3369 4115 2827 3821 2534 
C 3712 2419 3405 2176 2822 2176 
L 1920 2176 
L 2355 3930 
z
" transform="scale(0.015625)"/>
      </defs>
      <use xlink:href="#CMMI12-50" transform="scale(0.996264)"/>
     </g>
    </g>
    <g id="patch_10">
     <path d="M 633.697089 160.764702 
L 703.697089 160.764702 
L 703.697089 136.264702 
L 633.697089 136.264702 
z
" style="fill: #2ca02c"/>
    </g>
    <g id="text_17">
     <!-- $T$ -->
     <g transform="translate(731.697089 160.764702) scale(0.35 -0.35)">
      <defs>
       <path id="CMMI12-54" d="M 2669 3910 
C 2707 4064 2720 4121 2816 4147 
C 2867 4160 3078 4160 3213 4160 
C 3853 4160 4154 4134 4154 3634 
C 4154 3537 4128 3295 4090 3057 
L 4083 2980 
C 4083 2954 4109 2916 4147 2916 
C 4211 2916 4211 2948 4230 3050 
L 4416 4184 
C 4429 4243 4429 4256 4429 4275 
C 4429 4345 4390 4345 4262 4345 
L 762 4345 
C 614 4345 608 4339 570 4224 
L 179 3070 
C 173 3056 154 2986 154 2980 
C 154 2948 179 2916 218 2916 
C 269 2916 282 2941 307 3024 
C 576 3801 710 4160 1562 4160 
L 1990 4160 
C 2144 4160 2208 4160 2208 4089 
C 2208 4069 2208 4057 2176 3941 
L 1318 499 
C 1254 249 1242 185 563 185 
C 403 185 358 185 358 64 
C 358 0 429 0 461 0 
C 621 0 787 0 947 0 
L 1946 0 
C 2106 0 2278 0 2438 0 
C 2509 0 2573 0 2573 121 
C 2573 185 2528 185 2362 185 
C 1786 185 1786 243 1786 339 
C 1786 346 1786 391 1811 494 
L 2669 3910 
z
" transform="scale(0.015625)"/>
      </defs>
      <use xlink:href="#CMMI12-54" transform="scale(0.996264)"/>
     </g>
    </g>
    <g id="patch_11">
     <path d="M 633.697089 209.547054 
L 703.697089 209.547054 
L 703.697089 185.047054 
L 633.697089 185.047054 
z
" style="fill: #d62728"/>
    </g>
    <g id="text_18">
     <!-- $Y_{N_2}$ -->
     <g transform="translate(731.697089 209.547054) scale(0.35 -0.35)">
      <defs>
       <path id="CMMI12-59" d="M 3763 3645 
L 3910 3791 
C 4192 4078 4429 4149 4653 4167 
C 4723 4173 4781 4179 4781 4288 
C 4781 4352 4717 4352 4704 4352 
C 4627 4352 4544 4352 4467 4352 
L 4205 4352 
C 4019 4352 3821 4352 3642 4352 
C 3597 4352 3526 4352 3526 4226 
C 3526 4166 3590 4160 3610 4160 
C 3802 4160 3802 4064 3802 4026 
C 3802 3956 3750 3860 3622 3713 
L 2099 1969 
L 1376 3911 
C 1338 4000 1338 4013 1338 4026 
C 1338 4160 1600 4160 1677 4160 
C 1754 4160 1824 4160 1824 4279 
C 1824 4352 1766 4352 1728 4352 
C 1619 4352 1491 4352 1382 4352 
L 672 4352 
C 557 4352 435 4352 326 4352 
C 282 4352 211 4352 211 4226 
C 211 4160 269 4160 365 4160 
C 678 4160 736 4102 794 3956 
L 1587 1835 
C 1594 1816 1613 1745 1613 1726 
C 1613 1707 1299 452 1280 388 
C 1229 217 1165 185 755 185 
C 646 185 595 185 595 64 
C 595 0 666 0 685 0 
C 800 0 934 0 1056 0 
L 1811 0 
C 1926 0 2061 0 2176 0 
C 2221 0 2298 0 2298 115 
C 2298 185 2253 185 2144 185 
C 1747 185 1747 230 1747 300 
C 1747 345 1798 548 1830 676 
L 2061 1594 
C 2099 1727 2099 1739 2157 1803 
L 3763 3645 
z
" transform="scale(0.015625)"/>
       <path id="CMMI12-4e" d="M 4736 3698 
C 4806 3974 4909 4166 5395 4166 
C 5414 4166 5491 4166 5491 4279 
C 5491 4352 5434 4352 5408 4352 
C 5280 4352 4954 4352 4826 4352 
L 4518 4352 
C 4429 4352 4314 4352 4224 4352 
C 4186 4352 4109 4352 4109 4230 
C 4109 4166 4160 4166 4205 4166 
C 4589 4166 4614 4019 4614 3903 
C 4614 3846 4608 3826 4589 3737 
L 3866 850 
L 2496 4249 
C 2451 4352 2445 4352 2304 4352 
L 1523 4352 
C 1395 4352 1338 4352 1338 4230 
C 1338 4166 1382 4166 1504 4166 
C 1536 4166 1914 4166 1914 4115 
C 1914 4102 1901 4051 1894 4032 
L 1043 635 
C 966 320 813 186 390 186 
C 358 186 294 186 294 67 
C 294 0 358 0 378 0 
C 506 0 832 0 960 0 
L 1267 0 
C 1357 0 1466 0 1555 0 
C 1600 0 1670 0 1670 122 
C 1670 180 1606 186 1581 186 
C 1370 186 1165 224 1165 454 
C 1165 505 1178 562 1190 613 
L 2054 4032 
C 2093 3968 2093 3956 2118 3898 
L 3642 115 
C 3674 38 3686 0 3744 0 
C 3808 0 3814 19 3840 128 
L 4736 3698 
z
" transform="scale(0.015625)"/>
      </defs>
      <use xlink:href="#CMMI12-59" transform="scale(0.996264)"/>
      <use xlink:href="#CMMI12-4e" transform="translate(56.598607 -14.943915) scale(0.697382)"/>
      <use xlink:href="#CMR17-32" transform="translate(111.278947 -25.404611) scale(0.498132)"/>
     </g>
    </g>
   </g>
  </g>
 </g>
 <defs>
  <clipPath id="p1b2aa93545">
   <rect x="84.740543" y="7.2" width="725.4" height="609.84"/>
  </clipPath>
 </defs>
</svg>
