<?xml version="1.0" encoding="utf-8" standalone="no"?>
<!DOCTYPE svg PUBLIC "-//W3C//DTD SVG 1.1//EN"
  "http://www.w3.org/Graphics/SVG/1.1/DTD/svg11.dtd">
<svg xmlns:xlink="http://www.w3.org/1999/xlink" width="817.340543pt" height="692.806049pt" viewBox="0 0 817.340543 692.806049" xmlns="http://www.w3.org/2000/svg" version="1.1">
 <metadata>
  <rdf:RDF xmlns:dc="http://purl.org/dc/elements/1.1/" xmlns:cc="http://creativecommons.org/ns#" xmlns:rdf="http://www.w3.org/1999/02/22-rdf-syntax-ns#">
   <cc:Work>
    <dc:type rdf:resource="http://purl.org/dc/dcmitype/StillImage"/>
    <dc:date>2025-03-19T17:00:09.704854</dc:date>
    <dc:format>image/svg+xml</dc:format>
    <dc:creator>
     <cc:Agent>
      <dc:title>Matplotlib v3.7.1, https://matplotlib.org/</dc:title>
     </cc:Agent>
    </dc:creator>
   </cc:Work>
  </rdf:RDF>
 </metadata>
 <defs>
  <style type="text/css">*{stroke-linejoin: round; stroke-linecap: butt}</style>
 </defs>
 <g id="figure_1">
  <g id="patch_1">
   <path d="M 0 692.806049 
L 817.340543 692.806049 
L 817.340543 0 
L 0 0 
z
" style="fill: #ffffff"/>
  </g>
  <g id="axes_1">
   <g id="patch_2">
    <path d="M 84.740543 617.04 
L 810.140543 617.04 
L 810.140543 7.2 
L 84.740543 7.2 
z
" style="fill: #ffffff"/>
   </g>
   <g id="PolyCollection_1">
    <path d="M -529.448308 593.549322 
L -529.448308 605.312308 
L -495.096852 605.312308 
L -470.020065 605.312308 
L -451.713553 605.312308 
L -438.349052 605.312308 
L -428.591888 605.312308 
L -421.467669 605.312308 
L -416.265003 605.312308 
L -412.590478 605.312308 
L -409.686832 605.312308 
L -407.299147 605.312308 
L -405.270505 605.312308 
L -403.072001 605.312308 
L -398.565481 605.312308 
L -396.186796 605.312308 
L -394.058962 605.312308 
L -390.922497 605.312308 
L -389.091157 605.312308 
L -387.299183 605.312308 
L -385.412233 605.312308 
L -383.576184 605.312308 
L -381.599488 605.312308 
L -379.522844 605.312308 
L -377.56533 605.312308 
L -375.421053 605.312308 
L -371.565972 605.312308 
L -367.817411 605.312308 
L -364.205423 605.312308 
L -359.357271 605.312308 
L -353.500286 605.312308 
L -347.827253 605.312308 
L -341.099117 605.312308 
L -333.220948 605.312308 
L -324.207906 605.312308 
L -317.23335 605.312308 
L -309.136536 605.312308 
L -300.04293 605.312308 
L -290.176287 605.312308 
L -280.15491 605.312308 
L -271.026505 605.312308 
L -262.34492 605.312308 
L -252.808781 605.312308 
L -242.979512 605.312308 
L -232.21126 605.312308 
L -220.601654 605.312308 
L -208.138839 605.312308 
L -194.741629 605.312308 
L -184.102111 605.312308 
L -172.737355 605.312308 
L -156.684456 605.312308 
L -139.426428 605.312308 
L -120.921779 605.312308 
L -100.248303 605.312308 
L -80.063608 605.312308 
L -57.306163 605.312308 
L -32.8402 605.312308 
L -19.15079 605.312308 
L -6.190095 605.312308 
L 7.346541 605.312308 
L 21.74163 605.312308 
L 35.952583 605.312308 
L 46.558634 605.312308 
L 54.11159 605.312308 
L 60.663623 605.312308 
L 65.823188 605.312308 
L 70.329362 605.312308 
L 74.585519 605.312308 
L 76.713598 605.312308 
L 78.841677 605.312308 
L 80.001573 605.312308 
L 80.969755 605.312308 
L 82.059253 605.312308 
L 83.097834 605.312308 
L 83.685868 605.312308 
L 84.220205 605.312308 
L 84.764872 605.312308 
L 85.225913 605.312308 
L 86.027166 605.312308 
L 86.777793 605.312308 
L 87.491218 605.312308 
L 88.329672 605.312308 
L 89.070566 605.312308 
L 89.881552 605.312308 
L 90.650672 605.312308 
L 91.433432 605.312308 
L 92.133786 605.312308 
L 92.985312 605.312308 
L 94.537191 605.312308 
L 96.089071 605.312308 
L 97.640951 605.312308 
L 99.192831 605.312308 
L 100.74471 605.312308 
L 102.29659 605.312308 
L 103.84847 605.312308 
L 105.40035 605.312308 
L 106.952229 605.312308 
L 108.433259 605.312308 
L 110.055989 605.312308 
L 112.962733 605.312308 
L 116.263508 605.312308 
L 118.591328 605.312308 
L 120.919147 605.312308 
L 124.022907 605.312308 
L 127.036494 605.312308 
L 130.230426 605.312308 
L 133.038057 605.312308 
L 135.721678 605.312308 
L 138.198775 605.312308 
L 141.093584 605.312308 
L 144.197344 605.312308 
L 148.250379 605.312308 
L 151.956743 605.312308 
L 155.282911 605.312308 
L 158.552717 605.312308 
L 161.599563 605.312308 
L 164.929764 605.312308 
L 169.071981 605.312308 
L 173.076952 605.312308 
L 176.278192 605.312308 
L 179.758833 605.312308 
L 183.544527 605.312308 
L 187.663381 605.312308 
L 189.869124 605.312308 
L 192.146559 605.312308 
L 194.613169 605.312308 
L 197.026171 605.312308 
L 199.713424 605.312308 
L 202.332023 605.312308 
L 205.357336 605.312308 
L 208.106339 605.312308 
L 211.07825 605.312308 
L 214.381055 605.312308 
L 217.737788 605.312308 
L 221.199394 605.312308 
L 225.065245 605.312308 
L 228.596977 605.312308 
L 232.586933 605.312308 
L 236.610147 605.312308 
L 240.86269 605.312308 
L 245.271717 605.312308 
L 249.948745 605.312308 
L 254.602991 605.312308 
L 259.398301 605.312308 
L 264.608895 605.312308 
L 269.738225 605.312308 
L 275.25752 605.312308 
L 280.716619 605.312308 
L 286.3849 605.312308 
L 291.782077 605.312308 
L 297.558434 605.312308 
L 303.057226 605.312308 
L 308.731968 605.312308 
L 314.142785 605.312308 
L 319.905503 605.312308 
L 325.773245 605.312308 
L 331.079037 605.312308 
L 337.010885 605.312308 
L 342.252571 605.312308 
L 347.429469 605.312308 
L 353.426105 605.312308 
L 359.335448 605.312308 
L 364.59964 605.312308 
L 370.212322 605.312308 
L 375.773174 605.312308 
L 381.339482 605.312308 
L 386.946708 605.312308 
L 392.862189 605.312308 
L 398.120243 605.312308 
L 404.191215 605.312308 
L 409.293777 605.312308 
L 412.672977 605.312308 
L 415.595258 605.312308 
L 418.168668 605.312308 
L 420.467311 605.312308 
L 423.386704 605.312308 
L 426.224573 605.312308 
L 428.977008 605.312308 
L 431.640846 605.312308 
L 433.884815 605.312308 
L 435.235125 605.312308 
L 436.424242 605.312308 
L 437.889819 605.312308 
L 439.352535 605.312308 
L 440.946539 605.312308 
L 442.81438 605.312308 
L 443.644707 605.312308 
L 444.5312 605.312308 
L 445.471711 605.312308 
L 446.462678 605.312308 
L 448.378493 605.312308 
L 450.336871 605.312308 
L 452.293982 605.312308 
L 454.400914 605.312308 
L 456.41365 605.312308 
L 458.611418 605.312308 
L 460.59169 605.312308 
L 462.794601 605.312308 
L 464.676411 605.312308 
L 466.817509 605.312308 
L 470.687113 605.312308 
L 474.408457 605.312308 
L 478.134105 605.312308 
L 482.013867 605.312308 
L 486.040684 605.312308 
L 490.205495 605.312308 
L 495.614525 605.312308 
L 501.796071 605.312308 
L 507.52673 605.312308 
L 513.550093 605.312308 
L 521.799572 605.312308 
L 529.347131 605.312308 
L 537.59661 605.312308 
L 553.393648 605.312308 
L 569.190687 605.312308 
L 584.987725 605.312308 
L 600.784763 605.312308 
L 616.581802 605.312308 
L 632.37884 605.312308 
L 648.175878 605.312308 
L 663.972917 605.312308 
L 695.566993 605.312308 
L 715.341255 605.312308 
L 736.014122 605.312308 
L 756.176981 605.312308 
L 774.552185 605.312308 
L 790.349223 605.312308 
L 805.043246 605.312308 
L 821.9433 605.312308 
L 821.9433 225.185023 
L 821.9433 225.185023 
L 805.043246 225.179558 
L 790.349223 225.203047 
L 774.552185 225.204402 
L 756.176981 225.220887 
L 736.014122 225.218821 
L 715.341255 225.204038 
L 695.566993 225.192955 
L 663.972917 225.051532 
L 648.175878 224.999249 
L 632.37884 224.911122 
L 616.581802 224.850679 
L 600.784763 224.793014 
L 584.987725 224.674141 
L 569.190687 224.5607 
L 553.393648 224.451137 
L 537.59661 224.325779 
L 529.347131 224.316443 
L 521.799572 224.279792 
L 513.550093 224.239722 
L 507.52673 224.217907 
L 501.796071 224.215652 
L 495.614525 224.173202 
L 490.205495 224.152178 
L 486.040684 224.148033 
L 482.013867 224.142176 
L 478.134105 224.127475 
L 474.408457 224.10719 
L 470.687113 224.094345 
L 466.817509 224.070847 
L 464.676411 224.057049 
L 462.794601 224.049439 
L 460.59169 224.025695 
L 458.611418 224.007901 
L 456.41365 224.018783 
L 454.400914 224.032601 
L 452.293982 224.03359 
L 450.336871 224.038909 
L 448.378493 224.044929 
L 446.462678 224.052311 
L 445.471711 224.078061 
L 444.5312 224.098337 
L 443.644707 224.161414 
L 442.81438 224.201949 
L 440.946539 224.304583 
L 439.352535 224.356532 
L 437.889819 224.428563 
L 436.424242 224.402163 
L 435.235125 224.445558 
L 433.884815 224.321964 
L 431.640846 224.070657 
L 428.977008 223.758435 
L 426.224573 223.37452 
L 423.386704 222.931461 
L 420.467311 222.233654 
L 418.168668 221.718637 
L 415.595258 220.556782 
L 412.672977 219.971208 
L 409.293777 218.22134 
L 404.191215 217.737022 
L 398.120243 215.862995 
L 392.862189 215.244085 
L 386.946708 213.370383 
L 381.339482 213.127379 
L 375.773174 214.086814 
L 370.212322 214.817382 
L 364.59964 215.587485 
L 359.335448 216.538454 
L 353.426105 217.642318 
L 347.429469 218.600045 
L 342.252571 219.598367 
L 337.010885 220.639097 
L 331.079037 221.886497 
L 325.773245 222.860782 
L 319.905503 223.829474 
L 314.142785 224.914385 
L 308.731968 225.855838 
L 303.057226 226.870555 
L 297.558434 227.975299 
L 291.782077 228.815824 
L 286.3849 229.67712 
L 280.716619 230.309294 
L 275.25752 230.879683 
L 269.738225 231.296262 
L 264.608895 231.67159 
L 259.398301 231.986498 
L 254.602991 232.306424 
L 249.948745 232.67816 
L 245.271717 233.06644 
L 240.86269 233.583428 
L 236.610147 234.131028 
L 232.586933 234.822925 
L 228.596977 235.487579 
L 225.065245 237.431063 
L 221.199394 238.895208 
L 217.737788 240.429336 
L 214.381055 241.673563 
L 211.07825 242.823958 
L 208.106339 243.966789 
L 205.357336 244.941393 
L 202.332023 246.060785 
L 199.713424 246.593254 
L 197.026171 246.990309 
L 194.613169 247.379416 
L 192.146559 247.62219 
L 189.869124 247.562006 
L 187.663381 247.369438 
L 183.544527 247.173978 
L 179.758833 246.571937 
L 176.278192 245.774823 
L 173.076952 244.65768 
L 169.071981 243.144216 
L 164.929764 241.565654 
L 161.599563 239.922472 
L 158.552717 238.355099 
L 155.282911 236.487698 
L 151.956743 234.468747 
L 148.250379 232.53233 
L 144.197344 230.808879 
L 141.093584 229.828636 
L 138.198775 228.876781 
L 135.721678 228.264005 
L 133.038057 227.406455 
L 130.230426 227.213876 
L 127.036494 226.530577 
L 124.022907 227.042472 
L 120.919147 227.510273 
L 118.591328 228.89392 
L 116.263508 230.529062 
L 112.962733 234.373116 
L 110.055989 238.368674 
L 108.433259 242.425496 
L 106.952229 246.562265 
L 105.40035 250.774286 
L 103.84847 257.807792 
L 102.29659 264.265625 
L 100.74471 273.215716 
L 99.192831 282.468271 
L 97.640951 293.543181 
L 96.089071 306.976896 
L 94.537191 327.364504 
L 92.985312 363.910868 
L 92.133786 383.776923 
L 91.433432 400.726441 
L 90.650672 423.072639 
L 89.881552 445.751192 
L 89.070566 469.479725 
L 88.329672 492.073925 
L 87.491218 540.347946 
L 86.777793 574.729602 
L 86.027166 563.610007 
L 85.225913 565.910365 
L 84.764872 555.149398 
L 84.220205 570.609739 
L 83.685868 550.795564 
L 83.097834 538.621231 
L 82.059253 508.094059 
L 80.969755 518.414307 
L 80.001573 497.626114 
L 78.841677 499.151069 
L 76.713598 505.881046 
L 74.585519 519.120858 
L 70.329362 535.566612 
L 65.823188 547.746533 
L 60.663623 554.328888 
L 54.11159 559.182342 
L 46.558634 559.981646 
L 35.952583 562.132572 
L 21.74163 561.232294 
L 7.346541 561.949862 
L -6.190095 560.867772 
L -19.15079 560.188338 
L -32.8402 558.690769 
L -57.306163 555.212213 
L -80.063608 552.456182 
L -100.248303 548.963897 
L -120.921779 545.038182 
L -139.426428 541.542947 
L -156.684456 539.003738 
L -172.737355 536.733491 
L -184.102111 534.3968 
L -194.741629 532.16632 
L -208.138839 530.531391 
L -220.601654 529.452434 
L -232.21126 528.166049 
L -242.979512 527.501 
L -252.808781 526.789534 
L -262.34492 526.335363 
L -271.026505 526.241812 
L -280.15491 525.315587 
L -290.176287 525.247393 
L -300.04293 524.528629 
L -309.136536 525.328527 
L -317.23335 525.494288 
L -324.207906 526.997212 
L -333.220948 528.070367 
L -341.099117 530.513354 
L -347.827253 532.438052 
L -353.500286 535.011796 
L -359.357271 535.577381 
L -364.205423 534.403436 
L -367.817411 533.635933 
L -371.565972 532.768275 
L -375.421053 531.069306 
L -377.56533 528.694488 
L -379.522844 526.357744 
L -381.599488 522.486253 
L -383.576184 519.40316 
L -385.412233 516.669716 
L -387.299183 513.433764 
L -389.091157 512.53885 
L -390.922497 512.836449 
L -394.058962 516.249237 
L -396.186796 525.207396 
L -398.565481 539.845265 
L -403.072001 545.801315 
L -405.270505 567.305436 
L -407.299147 582.251701 
L -409.686832 594.616859 
L -412.590478 601.093156 
L -416.265003 604.77777 
L -421.467669 601.568006 
L -428.591888 599.818773 
L -438.349052 597.643583 
L -451.713553 596.413109 
L -470.020065 594.850894 
L -495.096852 594.118812 
L -529.448308 593.549322 
z
" clip-path="url(#p7b3be45741)" style="fill: #1f77b4"/>
   </g>
   <g id="PolyCollection_2">
    <path d="M -529.448308 565.040586 
L -529.448308 593.549322 
L -495.096852 594.118812 
L -470.020065 594.850894 
L -451.713553 596.413109 
L -438.349052 597.643583 
L -428.591888 599.818773 
L -421.467669 601.568006 
L -416.265003 604.77777 
L -412.590478 601.093156 
L -409.686832 594.616859 
L -407.299147 582.251701 
L -405.270505 567.305436 
L -403.072001 545.801315 
L -398.565481 539.845265 
L -396.186796 525.207396 
L -394.058962 516.249237 
L -390.922497 512.836449 
L -389.091157 512.53885 
L -387.299183 513.433764 
L -385.412233 516.669716 
L -383.576184 519.40316 
L -381.599488 522.486253 
L -379.522844 526.357744 
L -377.56533 528.694488 
L -375.421053 531.069306 
L -371.565972 532.768275 
L -367.817411 533.635933 
L -364.205423 534.403436 
L -359.357271 535.577381 
L -353.500286 535.011796 
L -347.827253 532.438052 
L -341.099117 530.513354 
L -333.220948 528.070367 
L -324.207906 526.997212 
L -317.23335 525.494288 
L -309.136536 525.328527 
L -300.04293 524.528629 
L -290.176287 525.247393 
L -280.15491 525.315587 
L -271.026505 526.241812 
L -262.34492 526.335363 
L -252.808781 526.789534 
L -242.979512 527.501 
L -232.21126 528.166049 
L -220.601654 529.452434 
L -208.138839 530.531391 
L -194.741629 532.16632 
L -184.102111 534.3968 
L -172.737355 536.733491 
L -156.684456 539.003738 
L -139.426428 541.542947 
L -120.921779 545.038182 
L -100.248303 548.963897 
L -80.063608 552.456182 
L -57.306163 555.212213 
L -32.8402 558.690769 
L -19.15079 560.188338 
L -6.190095 560.867772 
L 7.346541 561.949862 
L 21.74163 561.232294 
L 35.952583 562.132572 
L 46.558634 559.981646 
L 54.11159 559.182342 
L 60.663623 554.328888 
L 65.823188 547.746533 
L 70.329362 535.566612 
L 74.585519 519.120858 
L 76.713598 505.881046 
L 78.841677 499.151069 
L 80.001573 497.626114 
L 80.969755 518.414307 
L 82.059253 508.094059 
L 83.097834 538.621231 
L 83.685868 550.795564 
L 84.220205 570.609739 
L 84.764872 555.149398 
L 85.225913 565.910365 
L 86.027166 563.610007 
L 86.777793 574.729602 
L 87.491218 540.347946 
L 88.329672 492.073925 
L 89.070566 469.479725 
L 89.881552 445.751192 
L 90.650672 423.072639 
L 91.433432 400.726441 
L 92.133786 383.776923 
L 92.985312 363.910868 
L 94.537191 327.364504 
L 96.089071 306.976896 
L 97.640951 293.543181 
L 99.192831 282.468271 
L 100.74471 273.215716 
L 102.29659 264.265625 
L 103.84847 257.807792 
L 105.40035 250.774286 
L 106.952229 246.562265 
L 108.433259 242.425496 
L 110.055989 238.368674 
L 112.962733 234.373116 
L 116.263508 230.529062 
L 118.591328 228.89392 
L 120.919147 227.510273 
L 124.022907 227.042472 
L 127.036494 226.530577 
L 130.230426 227.213876 
L 133.038057 227.406455 
L 135.721678 228.264005 
L 138.198775 228.876781 
L 141.093584 229.828636 
L 144.197344 230.808879 
L 148.250379 232.53233 
L 151.956743 234.468747 
L 155.282911 236.487698 
L 158.552717 238.355099 
L 161.599563 239.922472 
L 164.929764 241.565654 
L 169.071981 243.144216 
L 173.076952 244.65768 
L 176.278192 245.774823 
L 179.758833 246.571937 
L 183.544527 247.173978 
L 187.663381 247.369438 
L 189.869124 247.562006 
L 192.146559 247.62219 
L 194.613169 247.379416 
L 197.026171 246.990309 
L 199.713424 246.593254 
L 202.332023 246.060785 
L 205.357336 244.941393 
L 208.106339 243.966789 
L 211.07825 242.823958 
L 214.381055 241.673563 
L 217.737788 240.429336 
L 221.199394 238.895208 
L 225.065245 237.431063 
L 228.596977 235.487579 
L 232.586933 234.822925 
L 236.610147 234.131028 
L 240.86269 233.583428 
L 245.271717 233.06644 
L 249.948745 232.67816 
L 254.602991 232.306424 
L 259.398301 231.986498 
L 264.608895 231.67159 
L 269.738225 231.296262 
L 275.25752 230.879683 
L 280.716619 230.309294 
L 286.3849 229.67712 
L 291.782077 228.815824 
L 297.558434 227.975299 
L 303.057226 226.870555 
L 308.731968 225.855838 
L 314.142785 224.914385 
L 319.905503 223.829474 
L 325.773245 222.860782 
L 331.079037 221.886497 
L 337.010885 220.639097 
L 342.252571 219.598367 
L 347.429469 218.600045 
L 353.426105 217.642318 
L 359.335448 216.538454 
L 364.59964 215.587485 
L 370.212322 214.817382 
L 375.773174 214.086814 
L 381.339482 213.127379 
L 386.946708 213.370383 
L 392.862189 215.244085 
L 398.120243 215.862995 
L 404.191215 217.737022 
L 409.293777 218.22134 
L 412.672977 219.971208 
L 415.595258 220.556782 
L 418.168668 221.718637 
L 420.467311 222.233654 
L 423.386704 222.931461 
L 426.224573 223.37452 
L 428.977008 223.758435 
L 431.640846 224.070657 
L 433.884815 224.321964 
L 435.235125 224.445558 
L 436.424242 224.402163 
L 437.889819 224.428563 
L 439.352535 224.356532 
L 440.946539 224.304583 
L 442.81438 224.201949 
L 443.644707 224.161414 
L 444.5312 224.098337 
L 445.471711 224.078061 
L 446.462678 224.052311 
L 448.378493 224.044929 
L 450.336871 224.038909 
L 452.293982 224.03359 
L 454.400914 224.032601 
L 456.41365 224.018783 
L 458.611418 224.007901 
L 460.59169 224.025695 
L 462.794601 224.049439 
L 464.676411 224.057049 
L 466.817509 224.070847 
L 470.687113 224.094345 
L 474.408457 224.10719 
L 478.134105 224.127475 
L 482.013867 224.142176 
L 486.040684 224.148033 
L 490.205495 224.152178 
L 495.614525 224.173202 
L 501.796071 224.215652 
L 507.52673 224.217907 
L 513.550093 224.239722 
L 521.799572 224.279792 
L 529.347131 224.316443 
L 537.59661 224.325779 
L 553.393648 224.451137 
L 569.190687 224.5607 
L 584.987725 224.674141 
L 600.784763 224.793014 
L 616.581802 224.850679 
L 632.37884 224.911122 
L 648.175878 224.999249 
L 663.972917 225.051532 
L 695.566993 225.192955 
L 715.341255 225.204038 
L 736.014122 225.218821 
L 756.176981 225.220887 
L 774.552185 225.204402 
L 790.349223 225.203047 
L 805.043246 225.179558 
L 821.9433 225.185023 
L 821.9433 221.543295 
L 821.9433 221.543295 
L 805.043246 221.532442 
L 790.349223 221.547283 
L 774.552185 221.543868 
L 756.176981 221.542567 
L 736.014122 221.526678 
L 715.341255 221.500893 
L 695.566993 221.465493 
L 663.972917 221.31218 
L 648.175878 221.262417 
L 632.37884 221.191446 
L 616.581802 221.129574 
L 600.784763 221.080049 
L 584.987725 220.971623 
L 569.190687 220.879464 
L 553.393648 220.781255 
L 537.59661 220.676532 
L 529.347131 220.675228 
L 521.799572 220.64626 
L 513.550093 220.618749 
L 507.52673 220.616911 
L 501.796071 220.623699 
L 495.614525 220.593694 
L 490.205495 220.570642 
L 486.040684 220.575202 
L 482.013867 220.555561 
L 478.134105 220.540381 
L 474.408457 220.492942 
L 470.687113 220.467039 
L 466.817509 220.400865 
L 464.676411 220.371049 
L 462.794601 220.335675 
L 460.59169 220.277325 
L 458.611418 220.211545 
L 456.41365 220.181106 
L 454.400914 220.136656 
L 452.293982 220.070643 
L 450.336871 219.989618 
L 448.378493 219.912043 
L 446.462678 219.81297 
L 445.471711 219.728202 
L 444.5312 219.613279 
L 443.644707 219.528998 
L 442.81438 219.396625 
L 440.946539 219.311009 
L 439.352535 219.149422 
L 437.889819 219.008895 
L 436.424242 218.745382 
L 435.235125 218.520203 
L 433.884815 218.105791 
L 431.640846 217.660712 
L 428.977008 217.004982 
L 426.224573 216.49857 
L 423.386704 215.591007 
L 420.467311 214.832026 
L 418.168668 213.641639 
L 415.595258 212.408085 
L 412.672977 210.888823 
L 409.293777 208.949691 
L 404.191215 207.327235 
L 398.120243 205.060229 
L 392.862189 203.296282 
L 386.946708 200.876361 
L 381.339482 199.966452 
L 375.773174 200.331169 
L 370.212322 200.64303 
L 364.59964 201.026448 
L 359.335448 201.527653 
L 353.426105 202.183264 
L 347.429469 202.725832 
L 342.252571 203.353068 
L 337.010885 204.064897 
L 331.079037 204.975737 
L 325.773245 205.534656 
L 319.905503 206.25318 
L 314.142785 206.969382 
L 308.731968 207.711595 
L 303.057226 208.442151 
L 297.558434 209.393153 
L 291.782077 210.105584 
L 286.3849 210.973875 
L 280.716619 211.669306 
L 275.25752 212.472761 
L 269.738225 213.165575 
L 264.608895 213.968767 
L 259.398301 214.710136 
L 254.602991 215.54178 
L 249.948745 216.38421 
L 245.271717 217.240883 
L 240.86269 218.185319 
L 236.610147 219.032507 
L 232.586933 220.048482 
L 228.596977 220.831592 
L 225.065245 223.097905 
L 221.199394 224.522106 
L 217.737788 226.365025 
L 214.381055 227.485194 
L 211.07825 228.936199 
L 208.106339 229.997413 
L 205.357336 231.285334 
L 202.332023 232.430009 
L 199.713424 233.037844 
L 197.026171 233.422645 
L 194.613169 233.799503 
L 192.146559 233.958646 
L 189.869124 233.848317 
L 187.663381 233.540542 
L 183.544527 233.368224 
L 179.758833 232.642258 
L 176.278192 231.670419 
L 173.076952 230.176628 
L 169.071981 228.220645 
L 164.929764 226.120198 
L 161.599563 223.931709 
L 158.552717 221.889671 
L 155.282911 219.56007 
L 151.956743 217.064991 
L 148.250379 214.030109 
L 144.197344 211.278309 
L 141.093584 209.386854 
L 138.198775 207.649311 
L 135.721678 206.074361 
L 133.038057 204.510808 
L 130.230426 203.357772 
L 127.036494 201.855402 
L 124.022907 201.348487 
L 120.919147 200.334585 
L 118.591328 200.553841 
L 116.263508 200.474085 
L 112.962733 202.213697 
L 110.055989 203.506063 
L 108.433259 205.986249 
L 106.952229 208.697056 
L 105.40035 211.322695 
L 103.84847 217.914134 
L 102.29659 222.572903 
L 100.74471 230.901677 
L 99.192831 238.060825 
L 97.640951 248.174616 
L 96.089071 259.088577 
L 94.537191 275.320286 
L 92.985312 305.424882 
L 92.133786 322.50848 
L 91.433432 337.521977 
L 90.650672 358.222553 
L 89.881552 379.414051 
L 89.070566 399.88612 
L 88.329672 419.648744 
L 87.491218 463.177347 
L 86.777793 490.654917 
L 86.027166 472.62595 
L 85.225913 466.752839 
L 84.764872 472.352097 
L 84.220205 526.069134 
L 83.685868 472.917942 
L 83.097834 434.798769 
L 82.059253 409.61103 
L 80.969755 415.829732 
L 80.001573 403.014764 
L 78.841677 402.914765 
L 76.713598 415.353753 
L 74.585519 427.829462 
L 70.329362 447.982496 
L 65.823188 460.36409 
L 60.663623 467.857051 
L 54.11159 473.815598 
L 46.558634 475.20251 
L 35.952583 478.225987 
L 21.74163 477.933829 
L 7.346541 479.470869 
L -6.190095 478.876921 
L -19.15079 478.730973 
L -32.8402 478.101702 
L -57.306163 475.765856 
L -80.063608 474.207798 
L -100.248303 472.056297 
L -120.921779 469.617721 
L -139.426428 467.726454 
L -156.684456 466.655549 
L -172.737355 465.806871 
L -184.102111 464.63898 
L -194.741629 463.587954 
L -208.138839 463.363685 
L -220.601654 463.571835 
L -232.21126 463.646317 
L -242.979512 464.209383 
L -252.808781 464.926849 
L -262.34492 465.794889 
L -271.026505 467.162189 
L -280.15491 467.635273 
L -290.176287 469.259442 
L -300.04293 470.583255 
L -309.136536 473.505589 
L -317.23335 475.598911 
L -324.207906 478.833204 
L -333.220948 482.058921 
L -341.099117 486.198384 
L -347.827253 489.319448 
L -353.500286 492.755051 
L -359.357271 494.600636 
L -364.205423 494.71198 
L -367.817411 494.363547 
L -371.565972 494.793345 
L -375.421053 493.593553 
L -377.56533 492.046527 
L -379.522844 490.719961 
L -381.599488 487.661236 
L -383.576184 485.181759 
L -385.412233 483.498585 
L -387.299183 481.433193 
L -389.091157 481.548485 
L -390.922497 482.752366 
L -394.058962 487.966804 
L -396.186796 497.872722 
L -398.565481 513.567638 
L -403.072001 520.834971 
L -405.270505 542.149931 
L -407.299147 557.093644 
L -409.686832 568.507824 
L -412.590478 574.797448 
L -416.265003 577.412621 
L -421.467669 574.192884 
L -428.591888 571.597497 
L -438.349052 569.533138 
L -451.713553 567.871648 
L -470.020065 566.433834 
L -495.096852 565.559783 
L -529.448308 565.040586 
z
" clip-path="url(#p7b3be45741)" style="fill: #ff7f0e"/>
   </g>
   <g id="PolyCollection_3">
    <path d="M -529.448308 47.948563 
L -529.448308 565.040586 
L -495.096852 565.559783 
L -470.020065 566.433834 
L -451.713553 567.871648 
L -438.349052 569.533138 
L -428.591888 571.597497 
L -421.467669 574.192884 
L -416.265003 577.412621 
L -412.590478 574.797448 
L -409.686832 568.507824 
L -407.299147 557.093644 
L -405.270505 542.149931 
L -403.072001 520.834971 
L -398.565481 513.567638 
L -396.186796 497.872722 
L -394.058962 487.966804 
L -390.922497 482.752366 
L -389.091157 481.548485 
L -387.299183 481.433193 
L -385.412233 483.498585 
L -383.576184 485.181759 
L -381.599488 487.661236 
L -379.522844 490.719961 
L -377.56533 492.046527 
L -375.421053 493.593553 
L -371.565972 494.793345 
L -367.817411 494.363547 
L -364.205423 494.71198 
L -359.357271 494.600636 
L -353.500286 492.755051 
L -347.827253 489.319448 
L -341.099117 486.198384 
L -333.220948 482.058921 
L -324.207906 478.833204 
L -317.23335 475.598911 
L -309.136536 473.505589 
L -300.04293 470.583255 
L -290.176287 469.259442 
L -280.15491 467.635273 
L -271.026505 467.162189 
L -262.34492 465.794889 
L -252.808781 464.926849 
L -242.979512 464.209383 
L -232.21126 463.646317 
L -220.601654 463.571835 
L -208.138839 463.363685 
L -194.741629 463.587954 
L -184.102111 464.63898 
L -172.737355 465.806871 
L -156.684456 466.655549 
L -139.426428 467.726454 
L -120.921779 469.617721 
L -100.248303 472.056297 
L -80.063608 474.207798 
L -57.306163 475.765856 
L -32.8402 478.101702 
L -19.15079 478.730973 
L -6.190095 478.876921 
L 7.346541 479.470869 
L 21.74163 477.933829 
L 35.952583 478.225987 
L 46.558634 475.20251 
L 54.11159 473.815598 
L 60.663623 467.857051 
L 65.823188 460.36409 
L 70.329362 447.982496 
L 74.585519 427.829462 
L 76.713598 415.353753 
L 78.841677 402.914765 
L 80.001573 403.014764 
L 80.969755 415.829732 
L 82.059253 409.61103 
L 83.097834 434.798769 
L 83.685868 472.917942 
L 84.220205 526.069134 
L 84.764872 472.352097 
L 85.225913 466.752839 
L 86.027166 472.62595 
L 86.777793 490.654917 
L 87.491218 463.177347 
L 88.329672 419.648744 
L 89.070566 399.88612 
L 89.881552 379.414051 
L 90.650672 358.222553 
L 91.433432 337.521977 
L 92.133786 322.50848 
L 92.985312 305.424882 
L 94.537191 275.320286 
L 96.089071 259.088577 
L 97.640951 248.174616 
L 99.192831 238.060825 
L 100.74471 230.901677 
L 102.29659 222.572903 
L 103.84847 217.914134 
L 105.40035 211.322695 
L 106.952229 208.697056 
L 108.433259 205.986249 
L 110.055989 203.506063 
L 112.962733 202.213697 
L 116.263508 200.474085 
L 118.591328 200.553841 
L 120.919147 200.334585 
L 124.022907 201.348487 
L 127.036494 201.855402 
L 130.230426 203.357772 
L 133.038057 204.510808 
L 135.721678 206.074361 
L 138.198775 207.649311 
L 141.093584 209.386854 
L 144.197344 211.278309 
L 148.250379 214.030109 
L 151.956743 217.064991 
L 155.282911 219.56007 
L 158.552717 221.889671 
L 161.599563 223.931709 
L 164.929764 226.120198 
L 169.071981 228.220645 
L 173.076952 230.176628 
L 176.278192 231.670419 
L 179.758833 232.642258 
L 183.544527 233.368224 
L 187.663381 233.540542 
L 189.869124 233.848317 
L 192.146559 233.958646 
L 194.613169 233.799503 
L 197.026171 233.422645 
L 199.713424 233.037844 
L 202.332023 232.430009 
L 205.357336 231.285334 
L 208.106339 229.997413 
L 211.07825 228.936199 
L 214.381055 227.485194 
L 217.737788 226.365025 
L 221.199394 224.522106 
L 225.065245 223.097905 
L 228.596977 220.831592 
L 232.586933 220.048482 
L 236.610147 219.032507 
L 240.86269 218.185319 
L 245.271717 217.240883 
L 249.948745 216.38421 
L 254.602991 215.54178 
L 259.398301 214.710136 
L 264.608895 213.968767 
L 269.738225 213.165575 
L 275.25752 212.472761 
L 280.716619 211.669306 
L 286.3849 210.973875 
L 291.782077 210.105584 
L 297.558434 209.393153 
L 303.057226 208.442151 
L 308.731968 207.711595 
L 314.142785 206.969382 
L 319.905503 206.25318 
L 325.773245 205.534656 
L 331.079037 204.975737 
L 337.010885 204.064897 
L 342.252571 203.353068 
L 347.429469 202.725832 
L 353.426105 202.183264 
L 359.335448 201.527653 
L 364.59964 201.026448 
L 370.212322 200.64303 
L 375.773174 200.331169 
L 381.339482 199.966452 
L 386.946708 200.876361 
L 392.862189 203.296282 
L 398.120243 205.060229 
L 404.191215 207.327235 
L 409.293777 208.949691 
L 412.672977 210.888823 
L 415.595258 212.408085 
L 418.168668 213.641639 
L 420.467311 214.832026 
L 423.386704 215.591007 
L 426.224573 216.49857 
L 428.977008 217.004982 
L 431.640846 217.660712 
L 433.884815 218.105791 
L 435.235125 218.520203 
L 436.424242 218.745382 
L 437.889819 219.008895 
L 439.352535 219.149422 
L 440.946539 219.311009 
L 442.81438 219.396625 
L 443.644707 219.528998 
L 444.5312 219.613279 
L 445.471711 219.728202 
L 446.462678 219.81297 
L 448.378493 219.912043 
L 450.336871 219.989618 
L 452.293982 220.070643 
L 454.400914 220.136656 
L 456.41365 220.181106 
L 458.611418 220.211545 
L 460.59169 220.277325 
L 462.794601 220.335675 
L 464.676411 220.371049 
L 466.817509 220.400865 
L 470.687113 220.467039 
L 474.408457 220.492942 
L 478.134105 220.540381 
L 482.013867 220.555561 
L 486.040684 220.575202 
L 490.205495 220.570642 
L 495.614525 220.593694 
L 501.796071 220.623699 
L 507.52673 220.616911 
L 513.550093 220.618749 
L 521.799572 220.64626 
L 529.347131 220.675228 
L 537.59661 220.676532 
L 553.393648 220.781255 
L 569.190687 220.879464 
L 584.987725 220.971623 
L 600.784763 221.080049 
L 616.581802 221.129574 
L 632.37884 221.191446 
L 648.175878 221.262417 
L 663.972917 221.31218 
L 695.566993 221.465493 
L 715.341255 221.500893 
L 736.014122 221.526678 
L 756.176981 221.542567 
L 774.552185 221.543868 
L 790.349223 221.547283 
L 805.043246 221.532442 
L 821.9433 221.543295 
L 821.9433 73.99515 
L 821.9433 73.99515 
L 805.043246 73.978281 
L 790.349223 73.983691 
L 774.552185 73.96609 
L 756.176981 73.940739 
L 736.014122 73.900176 
L 715.341255 73.839783 
L 695.566993 73.774 
L 663.972917 73.573628 
L 648.175878 73.496127 
L 632.37884 73.375606 
L 616.581802 73.278023 
L 600.784763 73.192434 
L 584.987725 73.036851 
L 569.190687 72.894299 
L 553.393648 72.76121 
L 537.59661 72.60688 
L 529.347131 72.577893 
L 521.799572 72.509766 
L 513.550093 72.440796 
L 507.52673 72.401482 
L 501.796071 72.378866 
L 495.614525 72.30084 
L 490.205495 72.250876 
L 486.040684 72.206694 
L 482.013867 72.144899 
L 478.134105 72.089038 
L 474.408457 72.002577 
L 470.687113 71.924203 
L 466.817509 71.794574 
L 464.676411 71.720065 
L 462.794601 71.650794 
L 460.59169 71.51607 
L 458.611418 71.382926 
L 456.41365 71.258674 
L 454.400914 71.124438 
L 452.293982 70.914025 
L 450.336871 70.68847 
L 448.378493 70.457817 
L 446.462678 70.196116 
L 445.471711 69.901999 
L 444.5312 69.561906 
L 443.644707 69.212208 
L 442.81438 68.791487 
L 440.946539 68.350762 
L 439.352535 67.809304 
L 437.889819 67.211811 
L 436.424242 66.455429 
L 435.235125 65.746265 
L 433.884815 64.80654 
L 431.640846 63.681259 
L 428.977008 62.359353 
L 426.224573 61.006153 
L 423.386704 59.333764 
L 420.467311 57.610149 
L 418.168668 55.58253 
L 415.595258 53.284637 
L 412.672977 50.811625 
L 409.293777 47.679243 
L 404.191215 44.830421 
L 398.120243 41.083575 
L 392.862189 37.991701 
L 386.946708 34.062636 
L 381.339482 31.950538 
L 375.773174 31.60447 
L 370.212322 31.318877 
L 364.59964 31.039174 
L 359.335448 30.805156 
L 353.426105 30.55175 
L 347.429469 30.343574 
L 342.252571 30.184163 
L 337.010885 30.057688 
L 331.079037 29.905563 
L 325.773245 29.765369 
L 319.905503 29.543801 
L 314.142785 29.41289 
L 308.731968 29.247976 
L 303.057226 29.050896 
L 297.558434 28.912716 
L 291.782077 28.719773 
L 286.3849 28.591943 
L 280.716619 28.412755 
L 275.25752 28.283452 
L 269.738225 28.105258 
L 264.608895 27.9865 
L 259.398301 27.814349 
L 254.602991 27.699637 
L 249.948745 27.546803 
L 245.271717 27.42315 
L 240.86269 27.279964 
L 236.610147 27.152781 
L 232.586933 27.032888 
L 228.596977 26.980266 
L 225.065245 28.922089 
L 221.199394 30.073815 
L 217.737788 31.728306 
L 214.381055 32.602106 
L 211.07825 33.901889 
L 208.106339 34.866224 
L 205.357336 36.140823 
L 202.332023 37.305361 
L 199.713424 37.898446 
L 197.026171 38.349979 
L 194.613169 38.89691 
L 192.146559 39.313851 
L 189.869124 39.55507 
L 187.663381 39.689795 
L 183.544527 40.05642 
L 179.758833 39.958459 
L 176.278192 39.656231 
L 173.076952 38.921538 
L 169.071981 37.774241 
L 164.929764 36.463852 
L 161.599563 35.176576 
L 158.552717 34.099601 
L 155.282911 32.793172 
L 151.956743 31.686055 
L 148.250379 31.353513 
L 144.197344 31.677924 
L 141.093584 31.626061 
L 138.198775 32.103095 
L 135.721678 32.99437 
L 133.038057 34.066563 
L 130.230426 35.819341 
L 127.036494 37.534359 
L 124.022907 40.630964 
L 120.919147 43.968797 
L 118.591328 48.164193 
L 116.263508 52.128973 
L 112.962733 55.650786 
L 110.055989 59.515662 
L 108.433259 66.242312 
L 106.952229 73.84515 
L 105.40035 81.250323 
L 103.84847 93.042775 
L 102.29659 103.332538 
L 100.74471 117.732498 
L 99.192831 131.502844 
L 97.640951 148.92618 
L 96.089071 170.966992 
L 94.537191 199.516913 
L 92.985312 241.969106 
L 92.133786 267.96873 
L 91.433432 291.569781 
L 90.650672 320.754623 
L 89.881552 350.067778 
L 89.070566 379.848959 
L 88.329672 408.24796 
L 87.491218 460.813958 
L 86.777793 485.107089 
L 86.027166 456.895294 
L 85.225913 441.389082 
L 84.764872 30.381681 
L 84.220205 24.861723 
L 83.685868 29.426365 
L 83.097834 409.558053 
L 82.059253 383.237043 
L 80.969755 387.17519 
L 80.001573 370.630691 
L 78.841677 365.358628 
L 76.713598 377.317468 
L 74.585519 384.691838 
L 70.329362 398.57567 
L 65.823188 405.622368 
L 60.663623 408.518919 
L 54.11159 408.181502 
L 46.558634 405.404352 
L 35.952583 404.042969 
L 21.74163 399.801327 
L 7.346541 397.34698 
L -6.190095 394.033196 
L -19.15079 391.15024 
L -32.8402 386.526551 
L -57.306163 379.042987 
L -80.063608 373.357119 
L -100.248303 367.154162 
L -120.921779 360.449532 
L -139.426428 354.590087 
L -156.684456 349.524524 
L -172.737355 345.846091 
L -184.102111 340.83709 
L -194.741629 335.327451 
L -208.138839 331.100864 
L -220.601654 327.122014 
L -232.21126 322.930878 
L -242.979512 319.451368 
L -252.808781 315.638484 
L -262.34492 312.365351 
L -271.026505 309.530575 
L -280.15491 305.301462 
L -290.176287 301.999955 
L -300.04293 298.635828 
L -309.136536 296.846701 
L -317.23335 294.280494 
L -324.207906 291.239002 
L -333.220948 288.968362 
L -341.099117 290.847005 
L -347.827253 292.031432 
L -353.500286 292.82216 
L -359.357271 291.32754 
L -364.205423 288.807477 
L -367.817411 285.434911 
L -371.565972 281.923576 
L -375.421053 280.133919 
L -377.56533 282.040095 
L -379.522844 283.165634 
L -381.599488 289.253216 
L -383.576184 296.279083 
L -385.412233 310.077615 
L -387.299183 323.376047 
L -389.091157 346.110141 
L -390.922497 370.868041 
L -394.058962 425.082494 
L -396.186796 469.822574 
L -398.565481 504.235442 
L -403.072001 444.047795 
L -405.270505 446.292526 
L -407.299147 548.531505 
L -409.686832 66.935387 
L -412.590478 72.775549 
L -416.265003 71.220241 
L -421.467669 64.822918 
L -428.591888 59.722092 
L -438.349052 55.747646 
L -451.713553 52.636992 
L -470.020065 50.206032 
L -495.096852 48.731492 
L -529.448308 47.948563 
z
" clip-path="url(#p7b3be45741)" style="fill: #2ca02c"/>
   </g>
   <g id="PolyCollection_4">
    <path d="M -529.448308 43.026315 
L -529.448308 47.948563 
L -495.096852 48.731492 
L -470.020065 50.206032 
L -451.713553 52.636992 
L -438.349052 55.747646 
L -428.591888 59.722092 
L -421.467669 64.822918 
L -416.265003 71.220241 
L -412.590478 72.775549 
L -409.686832 66.935387 
L -407.299147 548.531505 
L -405.270505 446.292526 
L -403.072001 444.047795 
L -398.565481 504.235442 
L -396.186796 469.822574 
L -394.058962 425.082494 
L -390.922497 370.868041 
L -389.091157 346.110141 
L -387.299183 323.376047 
L -385.412233 310.077615 
L -383.576184 296.279083 
L -381.599488 289.253216 
L -379.522844 283.165634 
L -377.56533 282.040095 
L -375.421053 280.133919 
L -371.565972 281.923576 
L -367.817411 285.434911 
L -364.205423 288.807477 
L -359.357271 291.32754 
L -353.500286 292.82216 
L -347.827253 292.031432 
L -341.099117 290.847005 
L -333.220948 288.968362 
L -324.207906 291.239002 
L -317.23335 294.280494 
L -309.136536 296.846701 
L -300.04293 298.635828 
L -290.176287 301.999955 
L -280.15491 305.301462 
L -271.026505 309.530575 
L -262.34492 312.365351 
L -252.808781 315.638484 
L -242.979512 319.451368 
L -232.21126 322.930878 
L -220.601654 327.122014 
L -208.138839 331.100864 
L -194.741629 335.327451 
L -184.102111 340.83709 
L -172.737355 345.846091 
L -156.684456 349.524524 
L -139.426428 354.590087 
L -120.921779 360.449532 
L -100.248303 367.154162 
L -80.063608 373.357119 
L -57.306163 379.042987 
L -32.8402 386.526551 
L -19.15079 391.15024 
L -6.190095 394.033196 
L 7.346541 397.34698 
L 21.74163 399.801327 
L 35.952583 404.042969 
L 46.558634 405.404352 
L 54.11159 408.181502 
L 60.663623 408.518919 
L 65.823188 405.622368 
L 70.329362 398.57567 
L 74.585519 384.691838 
L 76.713598 377.317468 
L 78.841677 365.358628 
L 80.001573 370.630691 
L 80.969755 387.17519 
L 82.059253 383.237043 
L 83.097834 409.558053 
L 83.685868 29.426365 
L 84.220205 24.861723 
L 84.764872 30.381681 
L 85.225913 441.389082 
L 86.027166 456.895294 
L 86.777793 485.107089 
L 87.491218 460.813958 
L 88.329672 408.24796 
L 89.070566 379.848959 
L 89.881552 350.067778 
L 90.650672 320.754623 
L 91.433432 291.569781 
L 92.133786 267.96873 
L 92.985312 241.969106 
L 94.537191 199.516913 
L 96.089071 170.966992 
L 97.640951 148.92618 
L 99.192831 131.502844 
L 100.74471 117.732498 
L 102.29659 103.332538 
L 103.84847 93.042775 
L 105.40035 81.250323 
L 106.952229 73.84515 
L 108.433259 66.242312 
L 110.055989 59.515662 
L 112.962733 55.650786 
L 116.263508 52.128973 
L 118.591328 48.164193 
L 120.919147 43.968797 
L 124.022907 40.630964 
L 127.036494 37.534359 
L 130.230426 35.819341 
L 133.038057 34.066563 
L 135.721678 32.99437 
L 138.198775 32.103095 
L 141.093584 31.626061 
L 144.197344 31.677924 
L 148.250379 31.353513 
L 151.956743 31.686055 
L 155.282911 32.793172 
L 158.552717 34.099601 
L 161.599563 35.176576 
L 164.929764 36.463852 
L 169.071981 37.774241 
L 173.076952 38.921538 
L 176.278192 39.656231 
L 179.758833 39.958459 
L 183.544527 40.05642 
L 187.663381 39.689795 
L 189.869124 39.55507 
L 192.146559 39.313851 
L 194.613169 38.89691 
L 197.026171 38.349979 
L 199.713424 37.898446 
L 202.332023 37.305361 
L 205.357336 36.140823 
L 208.106339 34.866224 
L 211.07825 33.901889 
L 214.381055 32.602106 
L 217.737788 31.728306 
L 221.199394 30.073815 
L 225.065245 28.922089 
L 228.596977 26.980266 
L 232.586933 27.032888 
L 236.610147 27.152781 
L 240.86269 27.279964 
L 245.271717 27.42315 
L 249.948745 27.546803 
L 254.602991 27.699637 
L 259.398301 27.814349 
L 264.608895 27.9865 
L 269.738225 28.105258 
L 275.25752 28.283452 
L 280.716619 28.412755 
L 286.3849 28.591943 
L 291.782077 28.719773 
L 297.558434 28.912716 
L 303.057226 29.050896 
L 308.731968 29.247976 
L 314.142785 29.41289 
L 319.905503 29.543801 
L 325.773245 29.765369 
L 331.079037 29.905563 
L 337.010885 30.057688 
L 342.252571 30.184163 
L 347.429469 30.343574 
L 353.426105 30.55175 
L 359.335448 30.805156 
L 364.59964 31.039174 
L 370.212322 31.318877 
L 375.773174 31.60447 
L 381.339482 31.950538 
L 386.946708 34.062636 
L 392.862189 37.991701 
L 398.120243 41.083575 
L 404.191215 44.830421 
L 409.293777 47.679243 
L 412.672977 50.811625 
L 415.595258 53.284637 
L 418.168668 55.58253 
L 420.467311 57.610149 
L 423.386704 59.333764 
L 426.224573 61.006153 
L 428.977008 62.359353 
L 431.640846 63.681259 
L 433.884815 64.80654 
L 435.235125 65.746265 
L 436.424242 66.455429 
L 437.889819 67.211811 
L 439.352535 67.809304 
L 440.946539 68.350762 
L 442.81438 68.791487 
L 443.644707 69.212208 
L 444.5312 69.561906 
L 445.471711 69.901999 
L 446.462678 70.196116 
L 448.378493 70.457817 
L 450.336871 70.68847 
L 452.293982 70.914025 
L 454.400914 71.124438 
L 456.41365 71.258674 
L 458.611418 71.382926 
L 460.59169 71.51607 
L 462.794601 71.650794 
L 464.676411 71.720065 
L 466.817509 71.794574 
L 470.687113 71.924203 
L 474.408457 72.002577 
L 478.134105 72.089038 
L 482.013867 72.144899 
L 486.040684 72.206694 
L 490.205495 72.250876 
L 495.614525 72.30084 
L 501.796071 72.378866 
L 507.52673 72.401482 
L 513.550093 72.440796 
L 521.799572 72.509766 
L 529.347131 72.577893 
L 537.59661 72.60688 
L 553.393648 72.76121 
L 569.190687 72.894299 
L 584.987725 73.036851 
L 600.784763 73.192434 
L 616.581802 73.278023 
L 632.37884 73.375606 
L 648.175878 73.496127 
L 663.972917 73.573628 
L 695.566993 73.774 
L 715.341255 73.839783 
L 736.014122 73.900176 
L 756.176981 73.940739 
L 774.552185 73.96609 
L 790.349223 73.983691 
L 805.043246 73.978281 
L 821.9433 73.99515 
L 821.9433 53.576914 
L 821.9433 53.576914 
L 805.043246 53.558372 
L 790.349223 53.562372 
L 774.552185 53.538686 
L 756.176981 53.511417 
L 736.014122 53.461674 
L 715.341255 53.395109 
L 695.566993 53.334502 
L 663.972917 53.138933 
L 648.175878 53.078705 
L 632.37884 53.008163 
L 616.581802 52.967585 
L 600.784763 52.943216 
L 584.987725 52.866389 
L 569.190687 52.820727 
L 553.393648 52.808219 
L 537.59661 52.794388 
L 529.347131 52.875505 
L 521.799572 52.895318 
L 513.550093 52.939305 
L 507.52673 52.984751 
L 501.796071 53.063025 
L 495.614525 53.072887 
L 490.205495 53.104202 
L 486.040684 53.150226 
L 482.013867 53.149705 
L 478.134105 53.180983 
L 474.408457 53.142156 
L 470.687113 53.156136 
L 466.817509 53.073829 
L 464.676411 53.062653 
L 462.794601 53.061691 
L 460.59169 52.959924 
L 458.611418 52.869146 
L 456.41365 52.82053 
L 454.400914 52.768953 
L 452.293982 52.60381 
L 450.336871 52.435272 
L 448.378493 52.293856 
L 446.462678 52.133544 
L 445.471711 51.905846 
L 444.5312 51.646514 
L 443.644707 51.381642 
L 442.81438 51.060827 
L 440.946539 50.777435 
L 439.352535 50.400818 
L 437.889819 49.935787 
L 436.424242 49.325451 
L 435.235125 48.795175 
L 433.884815 48.049548 
L 431.640846 47.081306 
L 428.977008 46.003821 
L 426.224573 44.84589 
L 423.386704 43.430702 
L 420.467311 41.920704 
L 418.168668 40.144146 
L 415.595258 38.062414 
L 412.672977 35.863573 
L 409.293777 32.973358 
L 404.191215 30.476767 
L 398.120243 27.06227 
L 392.862189 24.328852 
L 386.946708 20.724819 
L 381.339482 18.927692 
L 375.773174 18.927692 
L 370.212322 18.927692 
L 364.59964 18.927692 
L 359.335448 18.927692 
L 353.426105 18.927692 
L 347.429469 18.927692 
L 342.252571 18.927692 
L 337.010885 18.927692 
L 331.079037 18.927692 
L 325.773245 18.927692 
L 319.905503 18.927692 
L 314.142785 18.927692 
L 308.731968 18.927692 
L 303.057226 18.927692 
L 297.558434 18.927692 
L 291.782077 18.927692 
L 286.3849 18.927692 
L 280.716619 18.927692 
L 275.25752 18.927692 
L 269.738225 18.927692 
L 264.608895 18.927692 
L 259.398301 18.927692 
L 254.602991 18.927692 
L 249.948745 18.927692 
L 245.271717 18.927692 
L 240.86269 18.927692 
L 236.610147 18.927692 
L 232.586933 18.927692 
L 228.596977 19.029015 
L 225.065245 21.115239 
L 221.199394 22.4519 
L 217.737788 24.260614 
L 214.381055 25.309193 
L 211.07825 26.739567 
L 208.106339 27.89835 
L 205.357336 29.288104 
L 202.332023 30.651472 
L 199.713424 31.271608 
L 197.026171 31.848247 
L 194.613169 32.432934 
L 192.146559 32.981996 
L 189.869124 33.275765 
L 187.663381 33.546438 
L 183.544527 34.042855 
L 179.758833 34.134808 
L 176.278192 33.938764 
L 173.076952 33.367286 
L 169.071981 32.333993 
L 164.929764 31.166004 
L 161.599563 29.955337 
L 158.552717 28.969256 
L 155.282911 27.721716 
L 151.956743 26.747886 
L 148.250379 26.5595 
L 144.197344 27.175148 
L 141.093584 27.297988 
L 138.198775 28.035872 
L 135.721678 29.085741 
L 133.038057 30.441432 
L 130.230426 32.382837 
L 127.036494 34.488597 
L 124.022907 37.862998 
L 120.919147 41.69615 
L 118.591328 46.17862 
L 116.263508 50.551734 
L 112.962733 54.531381 
L 110.055989 59.02801 
L 108.433259 65.993942 
L 106.952229 73.762934 
L 105.40035 80.668598 
L 103.84847 91.725812 
L 102.29659 101.478132 
L 100.74471 114.905553 
L 99.192831 128.133794 
L 97.640951 144.346092 
L 96.089071 164.995906 
L 94.537191 191.317455 
L 92.985312 232.37383 
L 92.133786 257.554617 
L 91.433432 281.180502 
L 90.650672 309.663018 
L 89.881552 338.944953 
L 89.070566 368.063668 
L 88.329672 396.473536 
L 87.491218 448.135735 
L 86.777793 472.335962 
L 86.027166 443.390675 
L 85.225913 428.064638 
L 84.764872 18.927692 
L 84.220205 18.927692 
L 83.685868 18.927692 
L 83.097834 396.332833 
L 82.059253 369.753656 
L 80.969755 374.379076 
L 80.001573 357.860915 
L 78.841677 353.417043 
L 76.713598 365.501117 
L 74.585519 373.692578 
L 70.329362 388.171131 
L 65.823188 395.928044 
L 60.663623 399.319791 
L 54.11159 400.01357 
L 46.558634 397.79311 
L 35.952583 397.165571 
L 21.74163 393.490113 
L 7.346541 391.658462 
L -6.190095 388.690225 
L -19.15079 386.188327 
L -32.8402 381.939182 
L -57.306163 375.156732 
L -80.063608 369.932025 
L -100.248303 364.152281 
L -120.921779 357.977348 
L -139.426428 352.379406 
L -156.684456 347.697957 
L -172.737355 344.282412 
L -184.102111 339.558539 
L -194.741629 334.187858 
L -208.138839 330.239293 
L -220.601654 326.410529 
L -232.21126 322.451544 
L -242.979512 319.094249 
L -252.808781 315.466123 
L -262.34492 312.27446 
L -271.026505 309.475025 
L -280.15491 305.214298 
L -290.176287 301.922482 
L -300.04293 298.521407 
L -309.136536 296.717131 
L -317.23335 294.247492 
L -324.207906 291.133287 
L -333.220948 288.832426 
L -341.099117 290.615285 
L -347.827253 291.661518 
L -353.500286 292.112229 
L -359.357271 290.75476 
L -364.205423 288.304034 
L -367.817411 284.491612 
L -371.565972 281.195579 
L -375.421053 278.879445 
L -377.56533 280.78406 
L -379.522844 281.750647 
L -381.599488 287.219388 
L -383.576184 293.720041 
L -385.412233 307.405099 
L -387.299183 320.53358 
L -389.091157 342.598293 
L -390.922497 366.781627 
L -394.058962 421.247923 
L -396.186796 465.36921 
L -398.565481 499.37626 
L -403.072001 439.114757 
L -405.270505 441.417073 
L -407.299147 543.356419 
L -409.686832 61.69273 
L -412.590478 67.734024 
L -416.265003 65.882358 
L -421.467669 59.877962 
L -428.591888 54.44124 
L -438.349052 50.8733 
L -451.713553 47.480446 
L -470.020065 45.33982 
L -495.096852 43.70599 
L -529.448308 43.026315 
z
" clip-path="url(#p7b3be45741)" style="fill: #d62728"/>
   </g>
   <g id="matplotlib.axis_1">
    <g id="xtick_1">
     <g id="line2d_1">
      <path d="M 102.433225 617.04 
L 102.433225 7.2 
" clip-path="url(#p7b3be45741)" style="fill: none; stroke: #b0b0b0; stroke-width: 0.8; stroke-linecap: square"/>
     </g>
     <g id="line2d_2">
      <defs>
       <path id="ma54b7dbab3" d="M 0 0 
L 0 3.5 
" style="stroke: #000000; stroke-width: 0.8"/>
      </defs>
      <g>
       <use xlink:href="#ma54b7dbab3" x="102.433225" y="617.04" style="stroke: #000000; stroke-width: 0.8"/>
      </g>
     </g>
     <g id="text_1">
      <!-- $\mathdefault{0.20}$ -->
      <g transform="translate(77.807934 644.795495) scale(0.3 -0.3)">
       <defs>
        <path id="CMR17-30" d="M 2688 2025 
C 2688 2416 2682 3080 2413 3591 
C 2176 4039 1798 4198 1466 4198 
C 1158 4198 768 4058 525 3597 
C 269 3118 243 2524 243 2025 
C 243 1661 250 1106 448 619 
C 723 -39 1216 -128 1466 -128 
C 1760 -128 2208 -7 2470 600 
C 2662 1042 2688 1559 2688 2025 
z
M 1466 -26 
C 1056 -26 813 325 723 812 
C 653 1188 653 1738 653 2096 
C 653 2588 653 2997 736 3387 
C 858 3929 1216 4096 1466 4096 
C 1728 4096 2067 3923 2189 3400 
C 2272 3036 2278 2607 2278 2096 
C 2278 1680 2278 1169 2202 792 
C 2067 95 1690 -26 1466 -26 
z
" transform="scale(0.015625)"/>
        <path id="CMMI12-3a" d="M 1178 307 
C 1178 492 1024 619 870 619 
C 685 619 557 466 557 313 
C 557 128 710 0 864 0 
C 1050 0 1178 153 1178 307 
z
" transform="scale(0.015625)"/>
        <path id="CMR17-32" d="M 2669 989 
L 2554 989 
C 2490 536 2438 459 2413 420 
C 2381 369 1920 369 1830 369 
L 602 369 
C 832 619 1280 1072 1824 1597 
C 2214 1967 2669 2402 2669 3035 
C 2669 3790 2067 4224 1395 4224 
C 691 4224 262 3604 262 3030 
C 262 2780 448 2748 525 2748 
C 589 2748 781 2787 781 3010 
C 781 3207 614 3264 525 3264 
C 486 3264 448 3258 422 3245 
C 544 3790 915 4058 1306 4058 
C 1862 4058 2227 3617 2227 3035 
C 2227 2479 1901 2000 1536 1584 
L 262 146 
L 262 0 
L 2515 0 
L 2669 989 
z
" transform="scale(0.015625)"/>
       </defs>
       <use xlink:href="#CMR17-30" transform="scale(0.996264)"/>
       <use xlink:href="#CMMI12-3a" transform="translate(45.690477 0) scale(0.996264)"/>
       <use xlink:href="#CMR17-32" transform="translate(72.787654 0) scale(0.996264)"/>
       <use xlink:href="#CMR17-30" transform="translate(118.478131 0) scale(0.996264)"/>
      </g>
     </g>
    </g>
    <g id="xtick_2">
     <g id="line2d_3">
      <path d="M 228.809532 617.04 
L 228.809532 7.2 
" clip-path="url(#p7b3be45741)" style="fill: none; stroke: #b0b0b0; stroke-width: 0.8; stroke-linecap: square"/>
     </g>
     <g id="line2d_4">
      <g>
       <use xlink:href="#ma54b7dbab3" x="228.809532" y="617.04" style="stroke: #000000; stroke-width: 0.8"/>
      </g>
     </g>
     <g id="text_2">
      <!-- $\mathdefault{0.25}$ -->
      <g transform="translate(204.184241 644.795495) scale(0.3 -0.3)">
       <defs>
        <path id="CMR17-35" d="M 730 3692 
C 794 3666 1056 3584 1325 3584 
C 1920 3584 2246 3911 2432 4100 
C 2432 4157 2432 4192 2394 4192 
C 2387 4192 2374 4192 2323 4163 
C 2099 4058 1837 3973 1517 3973 
C 1325 3973 1037 3999 723 4139 
C 653 4171 640 4171 634 4171 
C 602 4171 595 4164 595 4037 
L 595 2203 
C 595 2089 595 2057 659 2057 
C 691 2057 704 2070 736 2114 
C 941 2401 1222 2522 1542 2522 
C 1766 2522 2246 2382 2246 1289 
C 2246 1085 2246 715 2054 421 
C 1894 159 1645 25 1370 25 
C 947 25 518 320 403 814 
C 429 807 480 795 506 795 
C 589 795 749 840 749 1038 
C 749 1210 627 1280 506 1280 
C 358 1280 262 1190 262 1011 
C 262 454 704 -128 1382 -128 
C 2042 -128 2669 440 2669 1264 
C 2669 2030 2170 2624 1549 2624 
C 1222 2624 947 2503 730 2274 
L 730 3692 
z
" transform="scale(0.015625)"/>
       </defs>
       <use xlink:href="#CMR17-30" transform="scale(0.996264)"/>
       <use xlink:href="#CMMI12-3a" transform="translate(45.690477 0) scale(0.996264)"/>
       <use xlink:href="#CMR17-32" transform="translate(72.787654 0) scale(0.996264)"/>
       <use xlink:href="#CMR17-35" transform="translate(118.478131 0) scale(0.996264)"/>
      </g>
     </g>
    </g>
    <g id="xtick_3">
     <g id="line2d_5">
      <path d="M 355.185839 617.04 
L 355.185839 7.2 
" clip-path="url(#p7b3be45741)" style="fill: none; stroke: #b0b0b0; stroke-width: 0.8; stroke-linecap: square"/>
     </g>
     <g id="line2d_6">
      <g>
       <use xlink:href="#ma54b7dbab3" x="355.185839" y="617.04" style="stroke: #000000; stroke-width: 0.8"/>
      </g>
     </g>
     <g id="text_3">
      <!-- $\mathdefault{0.30}$ -->
      <g transform="translate(330.560547 644.795495) scale(0.3 -0.3)">
       <defs>
        <path id="CMR17-33" d="M 1414 2157 
C 1984 2157 2234 1662 2234 1090 
C 2234 320 1824 25 1453 25 
C 1114 25 563 194 390 693 
C 422 680 454 680 486 680 
C 640 680 755 782 755 948 
C 755 1133 614 1216 486 1216 
C 378 1216 211 1165 211 926 
C 211 335 787 -128 1466 -128 
C 2176 -128 2720 430 2720 1085 
C 2720 1707 2208 2157 1600 2227 
C 2086 2328 2554 2756 2554 3329 
C 2554 3820 2048 4179 1472 4179 
C 890 4179 378 3829 378 3329 
C 378 3110 544 3072 627 3072 
C 762 3072 877 3155 877 3321 
C 877 3486 762 3569 627 3569 
C 602 3569 570 3569 544 3557 
C 730 3959 1235 4032 1459 4032 
C 1683 4032 2106 3925 2106 3320 
C 2106 3143 2080 2828 1862 2550 
C 1670 2304 1453 2304 1242 2284 
C 1210 2284 1062 2269 1037 2269 
C 992 2263 966 2257 966 2208 
C 966 2163 973 2157 1101 2157 
L 1414 2157 
z
" transform="scale(0.015625)"/>
       </defs>
       <use xlink:href="#CMR17-30" transform="scale(0.996264)"/>
       <use xlink:href="#CMMI12-3a" transform="translate(45.690477 0) scale(0.996264)"/>
       <use xlink:href="#CMR17-33" transform="translate(72.787654 0) scale(0.996264)"/>
       <use xlink:href="#CMR17-30" transform="translate(118.478131 0) scale(0.996264)"/>
      </g>
     </g>
    </g>
    <g id="xtick_4">
     <g id="line2d_7">
      <path d="M 481.562145 617.04 
L 481.562145 7.2 
" clip-path="url(#p7b3be45741)" style="fill: none; stroke: #b0b0b0; stroke-width: 0.8; stroke-linecap: square"/>
     </g>
     <g id="line2d_8">
      <g>
       <use xlink:href="#ma54b7dbab3" x="481.562145" y="617.04" style="stroke: #000000; stroke-width: 0.8"/>
      </g>
     </g>
     <g id="text_4">
      <!-- $\mathdefault{0.35}$ -->
      <g transform="translate(456.936854 644.795495) scale(0.3 -0.3)">
       <use xlink:href="#CMR17-30" transform="scale(0.996264)"/>
       <use xlink:href="#CMMI12-3a" transform="translate(45.690477 0) scale(0.996264)"/>
       <use xlink:href="#CMR17-33" transform="translate(72.787654 0) scale(0.996264)"/>
       <use xlink:href="#CMR17-35" transform="translate(118.478131 0) scale(0.996264)"/>
      </g>
     </g>
    </g>
    <g id="xtick_5">
     <g id="line2d_9">
      <path d="M 607.938452 617.04 
L 607.938452 7.2 
" clip-path="url(#p7b3be45741)" style="fill: none; stroke: #b0b0b0; stroke-width: 0.8; stroke-linecap: square"/>
     </g>
     <g id="line2d_10">
      <g>
       <use xlink:href="#ma54b7dbab3" x="607.938452" y="617.04" style="stroke: #000000; stroke-width: 0.8"/>
      </g>
     </g>
     <g id="text_5">
      <!-- $\mathdefault{0.40}$ -->
      <g transform="translate(583.313161 644.795495) scale(0.3 -0.3)">
       <defs>
        <path id="CMR17-34" d="M 2150 4122 
C 2150 4256 2144 4256 2029 4256 
L 128 1254 
L 128 1088 
L 1779 1088 
L 1779 457 
C 1779 224 1766 160 1318 160 
L 1197 160 
L 1197 0 
C 1402 0 1747 0 1965 0 
C 2182 0 2528 0 2733 0 
L 2733 160 
L 2611 160 
C 2163 160 2150 224 2150 457 
L 2150 1088 
L 2803 1088 
L 2803 1254 
L 2150 1254 
L 2150 4122 
z
M 1798 3703 
L 1798 1254 
L 256 1254 
L 1798 3703 
z
" transform="scale(0.015625)"/>
       </defs>
       <use xlink:href="#CMR17-30" transform="scale(0.996264)"/>
       <use xlink:href="#CMMI12-3a" transform="translate(45.690477 0) scale(0.996264)"/>
       <use xlink:href="#CMR17-34" transform="translate(72.787654 0) scale(0.996264)"/>
       <use xlink:href="#CMR17-30" transform="translate(118.478131 0) scale(0.996264)"/>
      </g>
     </g>
    </g>
    <g id="xtick_6">
     <g id="line2d_11">
      <path d="M 734.314759 617.04 
L 734.314759 7.2 
" clip-path="url(#p7b3be45741)" style="fill: none; stroke: #b0b0b0; stroke-width: 0.8; stroke-linecap: square"/>
     </g>
     <g id="line2d_12">
      <g>
       <use xlink:href="#ma54b7dbab3" x="734.314759" y="617.04" style="stroke: #000000; stroke-width: 0.8"/>
      </g>
     </g>
     <g id="text_6">
      <!-- $\mathdefault{0.45}$ -->
      <g transform="translate(709.689467 644.795495) scale(0.3 -0.3)">
       <use xlink:href="#CMR17-30" transform="scale(0.996264)"/>
       <use xlink:href="#CMMI12-3a" transform="translate(45.690477 0) scale(0.996264)"/>
       <use xlink:href="#CMR17-34" transform="translate(72.787654 0) scale(0.996264)"/>
       <use xlink:href="#CMR17-35" transform="translate(118.478131 0) scale(0.996264)"/>
      </g>
     </g>
    </g>
    <g id="text_7">
     <!-- $x, \; m $ -->
     <g transform="translate(410.316604 678.823697) scale(0.35 -0.35)">
      <defs>
       <path id="CMMI12-78" d="M 3034 2606 
C 2829 2567 2752 2414 2752 2293 
C 2752 2139 2874 2088 2963 2088 
C 3155 2088 3290 2254 3290 2427 
C 3290 2695 2982 2816 2714 2816 
C 2323 2816 2106 2433 2048 2312 
C 1901 2816 1504 2816 1389 2816 
C 736 2816 390 1980 390 1839 
C 390 1814 416 1782 461 1782 
C 512 1782 525 1820 538 1846 
C 755 2555 1184 2689 1370 2689 
C 1658 2689 1715 2420 1715 2267 
C 1715 2127 1677 1980 1600 1673 
L 1382 798 
C 1286 415 1101 64 762 64 
C 730 64 570 64 435 147 
C 666 192 717 383 717 460 
C 717 588 621 664 499 664 
C 346 664 179 530 179 326 
C 179 57 480 -64 755 -64 
C 1062 -64 1280 179 1414 441 
C 1517 64 1837 -64 2074 -64 
C 2726 -64 3072 773 3072 913 
C 3072 945 3046 971 3008 971 
C 2950 971 2944 939 2925 888 
C 2752 326 2381 64 2093 64 
C 1869 64 1747 230 1747 492 
C 1747 632 1773 734 1875 1156 
L 2099 2024 
C 2195 2408 2413 2689 2707 2689 
C 2720 2689 2899 2689 3034 2606 
z
" transform="scale(0.015625)"/>
       <path id="CMMI12-3b" d="M 1248 -31 
C 1248 343 1126 619 864 619 
C 659 619 557 453 557 313 
C 557 172 653 0 870 0 
C 954 0 1024 26 1082 83 
C 1094 96 1101 96 1107 96 
C 1120 96 1120 5 1120 -27 
C 1120 -240 1082 -659 710 -1080 
C 640 -1157 640 -1170 640 -1183 
C 640 -1216 672 -1248 704 -1248 
C 755 -1248 1248 -771 1248 -31 
z
" transform="scale(0.015625)"/>
       <path id="CMMI12-6d" d="M 1318 1871 
C 1331 1910 1491 2229 1728 2433 
C 1894 2586 2112 2689 2362 2689 
C 2618 2689 2707 2497 2707 2242 
C 2707 2203 2707 2076 2630 1775 
L 2470 1118 
C 2419 926 2298 453 2285 383 
C 2259 287 2221 121 2221 96 
C 2221 6 2291 -64 2387 -64 
C 2579 -64 2611 83 2669 313 
L 3053 1839 
C 3066 1890 3398 2689 4102 2689 
C 4358 2689 4448 2497 4448 2242 
C 4448 1884 4198 1188 4058 805 
C 4000 651 3968 568 3968 453 
C 3968 166 4166 -64 4474 -64 
C 5069 -64 5293 875 5293 913 
C 5293 945 5267 971 5229 971 
C 5171 971 5165 952 5133 843 
C 4986 332 4749 64 4493 64 
C 4429 64 4326 64 4326 269 
C 4326 436 4403 640 4429 710 
C 4544 1018 4832 1773 4832 2145 
C 4832 2528 4608 2816 4122 2816 
C 3693 2816 3347 2574 3091 2197 
C 3072 2542 2861 2816 2381 2816 
C 1811 2816 1510 2415 1395 2255 
C 1376 2618 1114 2816 832 2816 
C 646 2816 499 2727 378 2484 
C 262 2254 173 1865 173 1839 
C 173 1814 198 1782 243 1782 
C 294 1782 301 1788 339 1935 
C 435 2312 557 2689 813 2689 
C 960 2689 1011 2586 1011 2395 
C 1011 2254 947 2005 902 1807 
L 723 1118 
C 698 996 627 709 595 594 
C 550 428 480 128 480 96 
C 480 6 550 -64 646 -64 
C 723 -64 813 -26 864 70 
C 877 102 934 326 966 453 
L 1107 1028 
L 1318 1871 
z
" transform="scale(0.015625)"/>
      </defs>
      <use xlink:href="#CMMI12-78" transform="scale(0.996264)"/>
      <use xlink:href="#CMMI12-3b" transform="translate(55.43406 0) scale(0.996264)"/>
      <use xlink:href="#CMMI12-6d" transform="translate(126.809651 0) scale(0.996264)"/>
     </g>
    </g>
   </g>
   <g id="matplotlib.axis_2">
    <g id="ytick_1">
     <g id="line2d_13">
      <path d="M 84.740543 605.312308 
L 810.140543 605.312308 
" clip-path="url(#p7b3be45741)" style="fill: none; stroke: #b0b0b0; stroke-width: 0.8; stroke-linecap: square"/>
     </g>
     <g id="line2d_14">
      <defs>
       <path id="m8af66f613d" d="M 0 0 
L -3.5 0 
" style="stroke: #000000; stroke-width: 0.8"/>
      </defs>
      <g>
       <use xlink:href="#m8af66f613d" x="84.740543" y="605.312308" style="stroke: #000000; stroke-width: 0.8"/>
      </g>
     </g>
     <g id="text_8">
      <!-- $\mathdefault{0.0}$ -->
      <g transform="translate(42.197103 615.690055) scale(0.3 -0.3)">
       <use xlink:href="#CMR17-30" transform="scale(0.996264)"/>
       <use xlink:href="#CMMI12-3a" transform="translate(45.690477 0) scale(0.996264)"/>
       <use xlink:href="#CMR17-30" transform="translate(72.787654 0) scale(0.996264)"/>
      </g>
     </g>
    </g>
    <g id="ytick_2">
     <g id="line2d_15">
      <path d="M 84.740543 488.035385 
L 810.140543 488.035385 
" clip-path="url(#p7b3be45741)" style="fill: none; stroke: #b0b0b0; stroke-width: 0.8; stroke-linecap: square"/>
     </g>
     <g id="line2d_16">
      <g>
       <use xlink:href="#m8af66f613d" x="84.740543" y="488.035385" style="stroke: #000000; stroke-width: 0.8"/>
      </g>
     </g>
     <g id="text_9">
      <!-- $\mathdefault{0.2}$ -->
      <g transform="translate(42.197103 498.413132) scale(0.3 -0.3)">
       <use xlink:href="#CMR17-30" transform="scale(0.996264)"/>
       <use xlink:href="#CMMI12-3a" transform="translate(45.690477 0) scale(0.996264)"/>
       <use xlink:href="#CMR17-32" transform="translate(72.787654 0) scale(0.996264)"/>
      </g>
     </g>
    </g>
    <g id="ytick_3">
     <g id="line2d_17">
      <path d="M 84.740543 370.758462 
L 810.140543 370.758462 
" clip-path="url(#p7b3be45741)" style="fill: none; stroke: #b0b0b0; stroke-width: 0.8; stroke-linecap: square"/>
     </g>
     <g id="line2d_18">
      <g>
       <use xlink:href="#m8af66f613d" x="84.740543" y="370.758462" style="stroke: #000000; stroke-width: 0.8"/>
      </g>
     </g>
     <g id="text_10">
      <!-- $\mathdefault{0.4}$ -->
      <g transform="translate(42.197103 381.136209) scale(0.3 -0.3)">
       <use xlink:href="#CMR17-30" transform="scale(0.996264)"/>
       <use xlink:href="#CMMI12-3a" transform="translate(45.690477 0) scale(0.996264)"/>
       <use xlink:href="#CMR17-34" transform="translate(72.787654 0) scale(0.996264)"/>
      </g>
     </g>
    </g>
    <g id="ytick_4">
     <g id="line2d_19">
      <path d="M 84.740543 253.481538 
L 810.140543 253.481538 
" clip-path="url(#p7b3be45741)" style="fill: none; stroke: #b0b0b0; stroke-width: 0.8; stroke-linecap: square"/>
     </g>
     <g id="line2d_20">
      <g>
       <use xlink:href="#m8af66f613d" x="84.740543" y="253.481538" style="stroke: #000000; stroke-width: 0.8"/>
      </g>
     </g>
     <g id="text_11">
      <!-- $\mathdefault{0.6}$ -->
      <g transform="translate(42.197103 263.859286) scale(0.3 -0.3)">
       <defs>
        <path id="CMR17-36" d="M 678 2176 
C 678 3690 1395 4032 1811 4032 
C 1946 4032 2272 4009 2400 3776 
C 2298 3776 2106 3776 2106 3553 
C 2106 3381 2246 3323 2336 3323 
C 2394 3323 2566 3348 2566 3560 
C 2566 3954 2246 4179 1805 4179 
C 1043 4179 243 3390 243 1984 
C 243 253 966 -128 1478 -128 
C 2099 -128 2688 427 2688 1283 
C 2688 2081 2170 2662 1517 2662 
C 1126 2662 838 2407 678 1960 
L 678 2176 
z
M 1478 25 
C 691 25 691 1200 691 1436 
C 691 1896 909 2560 1504 2560 
C 1613 2560 1926 2560 2138 2120 
C 2253 1870 2253 1609 2253 1289 
C 2253 944 2253 690 2118 434 
C 1978 171 1773 25 1478 25 
z
" transform="scale(0.015625)"/>
       </defs>
       <use xlink:href="#CMR17-30" transform="scale(0.996264)"/>
       <use xlink:href="#CMMI12-3a" transform="translate(45.690477 0) scale(0.996264)"/>
       <use xlink:href="#CMR17-36" transform="translate(72.787654 0) scale(0.996264)"/>
      </g>
     </g>
    </g>
    <g id="ytick_5">
     <g id="line2d_21">
      <path d="M 84.740543 136.204615 
L 810.140543 136.204615 
" clip-path="url(#p7b3be45741)" style="fill: none; stroke: #b0b0b0; stroke-width: 0.8; stroke-linecap: square"/>
     </g>
     <g id="line2d_22">
      <g>
       <use xlink:href="#m8af66f613d" x="84.740543" y="136.204615" style="stroke: #000000; stroke-width: 0.8"/>
      </g>
     </g>
     <g id="text_12">
      <!-- $\mathdefault{0.8}$ -->
      <g transform="translate(42.197103 146.582363) scale(0.3 -0.3)">
       <defs>
        <path id="CMR17-38" d="M 1741 2264 
C 2144 2467 2554 2773 2554 3263 
C 2554 3841 1990 4179 1472 4179 
C 890 4179 378 3759 378 3180 
C 378 3021 416 2747 666 2505 
C 730 2442 998 2251 1171 2130 
C 883 1983 211 1634 211 934 
C 211 279 838 -128 1459 -128 
C 2144 -128 2720 362 2720 1010 
C 2720 1590 2330 1857 2074 2029 
L 1741 2264 
z
M 902 2822 
C 851 2854 595 3051 595 3351 
C 595 3739 998 4032 1459 4032 
C 1965 4032 2336 3676 2336 3262 
C 2336 2669 1670 2331 1638 2331 
C 1632 2331 1626 2331 1574 2370 
L 902 2822 
z
M 2080 1519 
C 2176 1449 2483 1240 2483 851 
C 2483 381 2010 25 1472 25 
C 890 25 448 438 448 940 
C 448 1443 838 1862 1280 2060 
L 2080 1519 
z
" transform="scale(0.015625)"/>
       </defs>
       <use xlink:href="#CMR17-30" transform="scale(0.996264)"/>
       <use xlink:href="#CMMI12-3a" transform="translate(45.690477 0) scale(0.996264)"/>
       <use xlink:href="#CMR17-38" transform="translate(72.787654 0) scale(0.996264)"/>
      </g>
     </g>
    </g>
    <g id="ytick_6">
     <g id="line2d_23">
      <path d="M 84.740543 18.927692 
L 810.140543 18.927692 
" clip-path="url(#p7b3be45741)" style="fill: none; stroke: #b0b0b0; stroke-width: 0.8; stroke-linecap: square"/>
     </g>
     <g id="line2d_24">
      <g>
       <use xlink:href="#m8af66f613d" x="84.740543" y="18.927692" style="stroke: #000000; stroke-width: 0.8"/>
      </g>
     </g>
     <g id="text_13">
      <!-- $\mathdefault{1.0}$ -->
      <g transform="translate(42.197103 29.30544) scale(0.3 -0.3)">
       <defs>
        <path id="CMR17-31" d="M 1702 4058 
C 1702 4192 1696 4192 1606 4192 
C 1357 3916 979 3827 621 3827 
C 602 3827 570 3827 563 3808 
C 557 3795 557 3782 557 3648 
C 755 3648 1088 3686 1344 3839 
L 1344 461 
C 1344 236 1331 160 781 160 
L 589 160 
L 589 0 
C 896 0 1216 0 1523 0 
C 1830 0 2150 0 2458 0 
L 2458 160 
L 2266 160 
C 1715 160 1702 230 1702 458 
L 1702 4058 
z
" transform="scale(0.015625)"/>
       </defs>
       <use xlink:href="#CMR17-31" transform="scale(0.996264)"/>
       <use xlink:href="#CMMI12-3a" transform="translate(45.690477 0) scale(0.996264)"/>
       <use xlink:href="#CMR17-30" transform="translate(72.787654 0) scale(0.996264)"/>
      </g>
     </g>
    </g>
    <g id="text_14">
     <!-- $S_1, \; -$ -->
     <g transform="translate(31.414752 354.516175) rotate(-90) scale(0.35 -0.35)">
      <defs>
       <path id="CMMI12-53" d="M 4064 4423 
C 4064 4480 4019 4480 4006 4480 
C 3981 4480 3974 4474 3898 4378 
C 3859 4333 3597 4001 3590 3995 
C 3379 4410 2957 4480 2688 4480 
C 1875 4480 1139 3743 1139 3025 
C 1139 2549 1427 2269 1741 2161 
C 1811 2135 2189 2033 2381 1989 
C 2707 1900 2790 1875 2925 1735 
C 2950 1703 3078 1557 3078 1258 
C 3078 667 2528 57 1888 57 
C 1363 57 781 280 781 991 
C 781 1112 806 1265 826 1328 
C 826 1348 832 1378 832 1391 
C 832 1417 819 1449 768 1449 
C 710 1449 704 1436 678 1328 
L 352 24 
C 352 18 326 -64 326 -71 
C 326 -128 378 -128 390 -128 
C 416 -128 422 -122 499 -26 
L 794 356 
C 947 126 1280 -128 1875 -128 
C 2701 -128 3456 666 3456 1460 
C 3456 1728 3392 1963 3149 2197 
C 3014 2331 2899 2363 2310 2516 
C 1882 2630 1824 2649 1709 2751 
C 1600 2858 1517 3011 1517 3227 
C 1517 3761 2061 4308 2669 4308 
C 3296 4308 3590 3926 3590 3323 
C 3590 3158 3558 2986 3558 2961 
C 3558 2903 3610 2903 3629 2903 
C 3686 2903 3693 2922 3718 3024 
L 4064 4423 
z
" transform="scale(0.015625)"/>
       <path id="CMSY10-0" d="M 4218 1472 
C 4326 1472 4442 1472 4442 1600 
C 4442 1728 4326 1728 4218 1728 
L 755 1728 
C 646 1728 531 1728 531 1600 
C 531 1472 646 1472 755 1472 
L 4218 1472 
z
" transform="scale(0.015625)"/>
      </defs>
      <use xlink:href="#CMMI12-53" transform="scale(0.996264)"/>
      <use xlink:href="#CMR17-31" transform="translate(59.994488 -14.943915) scale(0.697382)"/>
      <use xlink:href="#CMMI12-3b" transform="translate(92.475802 0) scale(0.996264)"/>
      <use xlink:href="#CMSY10-0" transform="translate(163.851393 0) scale(0.996264)"/>
     </g>
    </g>
   </g>
   <g id="patch_3">
    <path d="M 84.740543 617.04 
L 84.740543 7.2 
" style="fill: none; stroke: #000000; stroke-width: 0.8; stroke-linejoin: miter; stroke-linecap: square"/>
   </g>
   <g id="patch_4">
    <path d="M 810.140543 617.04 
L 810.140543 7.2 
" style="fill: none; stroke: #000000; stroke-width: 0.8; stroke-linejoin: miter; stroke-linecap: square"/>
   </g>
   <g id="patch_5">
    <path d="M 84.740543 617.04 
L 810.140543 617.04 
" style="fill: none; stroke: #000000; stroke-width: 0.8; stroke-linejoin: miter; stroke-linecap: square"/>
   </g>
   <g id="patch_6">
    <path d="M 84.740543 7.2 
L 810.140543 7.2 
" style="fill: none; stroke: #000000; stroke-width: 0.8; stroke-linejoin: miter; stroke-linecap: square"/>
   </g>
   <g id="legend_1">
    <g id="patch_7">
     <path d="M 626.697089 232.438667 
L 785.640543 232.438667 
Q 792.640543 232.438667 792.640543 225.438667 
L 792.640543 31.7 
Q 792.640543 24.7 785.640543 24.7 
L 626.697089 24.7 
Q 619.697089 24.7 619.697089 31.7 
L 619.697089 225.438667 
Q 619.697089 232.438667 626.697089 232.438667 
z
" style="fill: #ffffff; opacity: 0.8; stroke: #cccccc; stroke-linejoin: miter"/>
    </g>
    <g id="patch_8">
     <path d="M 633.697089 63.2 
L 703.697089 63.2 
L 703.697089 38.7 
L 633.697089 38.7 
z
" style="fill: #1f77b4"/>
    </g>
    <g id="text_15">
     <!-- $M$ -->
     <g transform="translate(731.697089 63.2) scale(0.35 -0.35)">
      <defs>
       <path id="CMMI12-4d" d="M 5811 3886 
C 5869 4103 5882 4167 6336 4167 
C 6458 4167 6515 4167 6515 4288 
C 6515 4352 6470 4352 6349 4352 
L 5581 4352 
C 5421 4352 5414 4346 5344 4243 
L 3008 562 
L 2528 4211 
C 2509 4352 2502 4352 2336 4352 
L 1542 4352 
C 1421 4352 1363 4352 1363 4231 
C 1363 4167 1421 4167 1517 4167 
C 1907 4167 1907 4116 1907 4046 
C 1907 4034 1907 3995 1882 3899 
L 1062 634 
C 986 327 838 186 410 186 
C 390 186 314 186 314 73 
C 314 0 371 0 397 0 
C 525 0 851 0 979 0 
L 1286 0 
C 1376 0 1485 0 1574 0 
C 1619 0 1690 0 1690 122 
C 1690 180 1626 186 1600 186 
C 1389 186 1184 224 1184 454 
C 1184 518 1184 524 1210 613 
L 2093 4129 
L 2099 4129 
L 2630 172 
C 2650 19 2656 0 2714 0 
C 2784 0 2816 51 2848 109 
L 5421 4161 
L 5427 4161 
L 4499 473 
C 4442 250 4429 186 3981 186 
C 3859 186 3795 186 3795 70 
C 3795 0 3853 0 3891 0 
C 4000 0 4128 0 4237 0 
L 4992 0 
C 5101 0 5235 0 5344 0 
C 5395 0 5466 0 5466 122 
C 5466 186 5408 186 5312 186 
C 4922 186 4922 234 4922 294 
C 4922 301 4922 345 4934 396 
L 5811 3886 
z
" transform="scale(0.015625)"/>
      </defs>
      <use xlink:href="#CMMI12-4d" transform="scale(0.996264)"/>
     </g>
    </g>
    <g id="patch_9">
     <path d="M 633.697089 111.982351 
L 703.697089 111.982351 
L 703.697089 87.482351 
L 633.697089 87.482351 
z
" style="fill: #ff7f0e"/>
    </g>
    <g id="text_16">
     <!-- $P$ -->
     <g transform="translate(731.697089 111.982351) scale(0.35 -0.35)">
      <defs>
       <path id="CMMI12-50" d="M 1894 2023 
L 2970 2023 
C 3853 2023 4736 2673 4736 3401 
C 4736 3898 4314 4352 3507 4352 
L 1530 4352 
C 1408 4352 1350 4352 1350 4231 
C 1350 4167 1408 4167 1504 4167 
C 1894 4167 1894 4116 1894 4046 
C 1894 4034 1894 3995 1869 3899 
L 1005 472 
C 947 249 934 185 486 185 
C 365 185 301 185 301 70 
C 301 0 358 0 397 0 
C 518 0 646 0 768 0 
L 1517 0 
C 1638 0 1773 0 1894 0 
C 1946 0 2016 0 2016 121 
C 2016 185 1958 185 1862 185 
C 1478 185 1472 230 1472 293 
C 1472 325 1478 369 1485 401 
L 1894 2023 
z
M 2355 3930 
C 2413 4167 2438 4167 2688 4167 
L 3322 4167 
C 3802 4167 4198 4013 4198 3535 
C 4198 3369 4115 2827 3821 2534 
C 3712 2419 3405 2176 2822 2176 
L 1920 2176 
L 2355 3930 
z
" transform="scale(0.015625)"/>
      </defs>
      <use xlink:href="#CMMI12-50" transform="scale(0.996264)"/>
     </g>
    </g>
    <g id="patch_10">
     <path d="M 633.697089 160.764702 
L 703.697089 160.764702 
L 703.697089 136.264702 
L 633.697089 136.264702 
z
" style="fill: #2ca02c"/>
    </g>
    <g id="text_17">
     <!-- $T$ -->
     <g transform="translate(731.697089 160.764702) scale(0.35 -0.35)">
      <defs>
       <path id="CMMI12-54" d="M 2669 3910 
C 2707 4064 2720 4121 2816 4147 
C 2867 4160 3078 4160 3213 4160 
C 3853 4160 4154 4134 4154 3634 
C 4154 3537 4128 3295 4090 3057 
L 4083 2980 
C 4083 2954 4109 2916 4147 2916 
C 4211 2916 4211 2948 4230 3050 
L 4416 4184 
C 4429 4243 4429 4256 4429 4275 
C 4429 4345 4390 4345 4262 4345 
L 762 4345 
C 614 4345 608 4339 570 4224 
L 179 3070 
C 173 3056 154 2986 154 2980 
C 154 2948 179 2916 218 2916 
C 269 2916 282 2941 307 3024 
C 576 3801 710 4160 1562 4160 
L 1990 4160 
C 2144 4160 2208 4160 2208 4089 
C 2208 4069 2208 4057 2176 3941 
L 1318 499 
C 1254 249 1242 185 563 185 
C 403 185 358 185 358 64 
C 358 0 429 0 461 0 
C 621 0 787 0 947 0 
L 1946 0 
C 2106 0 2278 0 2438 0 
C 2509 0 2573 0 2573 121 
C 2573 185 2528 185 2362 185 
C 1786 185 1786 243 1786 339 
C 1786 346 1786 391 1811 494 
L 2669 3910 
z
" transform="scale(0.015625)"/>
      </defs>
      <use xlink:href="#CMMI12-54" transform="scale(0.996264)"/>
     </g>
    </g>
    <g id="patch_11">
     <path d="M 633.697089 209.547054 
L 703.697089 209.547054 
L 703.697089 185.047054 
L 633.697089 185.047054 
z
" style="fill: #d62728"/>
    </g>
    <g id="text_18">
     <!-- $Y_{N_2}$ -->
     <g transform="translate(731.697089 209.547054) scale(0.35 -0.35)">
      <defs>
       <path id="CMMI12-59" d="M 3763 3645 
L 3910 3791 
C 4192 4078 4429 4149 4653 4167 
C 4723 4173 4781 4179 4781 4288 
C 4781 4352 4717 4352 4704 4352 
C 4627 4352 4544 4352 4467 4352 
L 4205 4352 
C 4019 4352 3821 4352 3642 4352 
C 3597 4352 3526 4352 3526 4226 
C 3526 4166 3590 4160 3610 4160 
C 3802 4160 3802 4064 3802 4026 
C 3802 3956 3750 3860 3622 3713 
L 2099 1969 
L 1376 3911 
C 1338 4000 1338 4013 1338 4026 
C 1338 4160 1600 4160 1677 4160 
C 1754 4160 1824 4160 1824 4279 
C 1824 4352 1766 4352 1728 4352 
C 1619 4352 1491 4352 1382 4352 
L 672 4352 
C 557 4352 435 4352 326 4352 
C 282 4352 211 4352 211 4226 
C 211 4160 269 4160 365 4160 
C 678 4160 736 4102 794 3956 
L 1587 1835 
C 1594 1816 1613 1745 1613 1726 
C 1613 1707 1299 452 1280 388 
C 1229 217 1165 185 755 185 
C 646 185 595 185 595 64 
C 595 0 666 0 685 0 
C 800 0 934 0 1056 0 
L 1811 0 
C 1926 0 2061 0 2176 0 
C 2221 0 2298 0 2298 115 
C 2298 185 2253 185 2144 185 
C 1747 185 1747 230 1747 300 
C 1747 345 1798 548 1830 676 
L 2061 1594 
C 2099 1727 2099 1739 2157 1803 
L 3763 3645 
z
" transform="scale(0.015625)"/>
       <path id="CMMI12-4e" d="M 4736 3698 
C 4806 3974 4909 4166 5395 4166 
C 5414 4166 5491 4166 5491 4279 
C 5491 4352 5434 4352 5408 4352 
C 5280 4352 4954 4352 4826 4352 
L 4518 4352 
C 4429 4352 4314 4352 4224 4352 
C 4186 4352 4109 4352 4109 4230 
C 4109 4166 4160 4166 4205 4166 
C 4589 4166 4614 4019 4614 3903 
C 4614 3846 4608 3826 4589 3737 
L 3866 850 
L 2496 4249 
C 2451 4352 2445 4352 2304 4352 
L 1523 4352 
C 1395 4352 1338 4352 1338 4230 
C 1338 4166 1382 4166 1504 4166 
C 1536 4166 1914 4166 1914 4115 
C 1914 4102 1901 4051 1894 4032 
L 1043 635 
C 966 320 813 186 390 186 
C 358 186 294 186 294 67 
C 294 0 358 0 378 0 
C 506 0 832 0 960 0 
L 1267 0 
C 1357 0 1466 0 1555 0 
C 1600 0 1670 0 1670 122 
C 1670 180 1606 186 1581 186 
C 1370 186 1165 224 1165 454 
C 1165 505 1178 562 1190 613 
L 2054 4032 
C 2093 3968 2093 3956 2118 3898 
L 3642 115 
C 3674 38 3686 0 3744 0 
C 3808 0 3814 19 3840 128 
L 4736 3698 
z
" transform="scale(0.015625)"/>
      </defs>
      <use xlink:href="#CMMI12-59" transform="scale(0.996264)"/>
      <use xlink:href="#CMMI12-4e" transform="translate(56.598607 -14.943915) scale(0.697382)"/>
      <use xlink:href="#CMR17-32" transform="translate(111.278947 -25.404611) scale(0.498132)"/>
     </g>
    </g>
   </g>
  </g>
 </g>
 <defs>
  <clipPath id="p7b3be45741">
   <rect x="84.740543" y="7.2" width="725.4" height="609.84"/>
  </clipPath>
 </defs>
</svg>
