<?xml version="1.0" encoding="utf-8" standalone="no"?>
<!DOCTYPE svg PUBLIC "-//W3C//DTD SVG 1.1//EN"
  "http://www.w3.org/Graphics/SVG/1.1/DTD/svg11.dtd">
<svg xmlns:xlink="http://www.w3.org/1999/xlink" width="895.696875pt" height="709.545469pt" viewBox="0 0 895.696875 709.545469" xmlns="http://www.w3.org/2000/svg" version="1.1">
 <metadata>
  <rdf:RDF xmlns:dc="http://purl.org/dc/elements/1.1/" xmlns:cc="http://creativecommons.org/ns#" xmlns:rdf="http://www.w3.org/1999/02/22-rdf-syntax-ns#">
   <cc:Work>
    <dc:type rdf:resource="http://purl.org/dc/dcmitype/StillImage"/>
    <dc:date>2024-12-22T23:58:02.691099</dc:date>
    <dc:format>image/svg+xml</dc:format>
    <dc:creator>
     <cc:Agent>
      <dc:title>Matplotlib v3.10.0, https://matplotlib.org/</dc:title>
     </cc:Agent>
    </dc:creator>
   </cc:Work>
  </rdf:RDF>
 </metadata>
 <defs>
  <style type="text/css">*{stroke-linejoin: round; stroke-linecap: butt}</style>
 </defs>
 <g id="figure_1">
  <g id="patch_1">
   <path d="M 0 709.545469 
L 895.696875 709.545469 
L 895.696875 0 
L 0 0 
z
" style="fill: #ffffff"/>
  </g>
  <g id="axes_1">
   <g id="patch_2">
    <path d="M 163.096875 628.437656 
L 888.496875 628.437656 
L 888.496875 18.597656 
L 163.096875 18.597656 
z
" style="fill: #ffffff"/>
   </g>
   <g id="FillBetweenPolyCollection_1">
    <path d="M 176.530208 560.677656 
L 176.530208 560.677656 
L 194.787371 560.677656 
L 208.115219 560.677656 
L 217.844791 560.677656 
L 224.947776 560.677656 
L 230.133528 560.677656 
L 233.919918 560.677656 
L 236.685039 560.677656 
L 238.704947 560.677656 
L 240.181215 560.677656 
L 241.359947 560.677656 
L 242.528411 560.677656 
L 243.696875 560.677656 
L 244.894441 560.677656 
L 246.092007 560.677656 
L 247.289573 560.677656 
L 248.487138 560.677656 
L 249.684704 560.677656 
L 250.88227 560.677656 
L 252.079836 560.677656 
L 253.277402 560.677656 
L 254.474968 560.677656 
L 255.672533 560.677656 
L 256.870099 560.677656 
L 258.067665 560.677656 
L 259.265231 560.677656 
L 260.462797 560.677656 
L 261.660363 560.677656 
L 262.857929 560.677656 
L 264.055494 560.677656 
L 265.25306 560.677656 
L 266.450626 560.677656 
L 267.648192 560.677656 
L 268.845758 560.677656 
L 270.043324 560.677656 
L 271.24089 560.677656 
L 272.438455 560.677656 
L 273.636021 560.677656 
L 274.833587 560.677656 
L 276.031153 560.677656 
L 277.228719 560.677656 
L 278.426285 560.677656 
L 279.62385 560.677656 
L 280.821416 560.677656 
L 282.018982 560.677655 
L 283.216548 560.677655 
L 284.414114 560.677654 
L 285.611681 560.677653 
L 286.839417 560.677652 
L 288.111019 560.67765 
L 289.428379 560.677648 
L 290.794019 560.677644 
L 292.210521 560.67764 
L 293.67937 560.677632 
L 295.202334 560.677623 
L 296.781476 560.677609 
L 298.419061 560.677591 
L 300.11652 560.677565 
L 301.875627 560.677532 
L 303.698856 560.677483 
L 305.589539 560.677423 
L 307.551434 560.677336 
L 309.583653 560.677229 
L 311.690766 560.677075 
L 313.876611 560.676889 
L 316.141318 560.676623 
L 318.490712 560.676305 
L 320.926097 560.675857 
L 323.450361 560.675325 
L 326.068582 560.674586 
L 328.783068 560.673714 
L 331.59721 560.672522 
L 334.51487 560.671123 
L 337.539992 560.669237 
L 340.676486 560.667038 
L 343.928319 560.664119 
L 347.299789 560.660735 
L 350.795921 560.656309 
L 354.42061 560.65121 
L 358.178598 560.644635 
L 362.075202 560.637108 
L 366.115474 560.62754 
L 370.304251 560.616657 
L 374.647292 560.603018 
L 379.150455 560.587602 
L 383.819615 560.568561 
L 388.660671 560.547162 
L 393.654493 560.521112 
L 398.792315 560.492003 
L 404.119273 560.457076 
L 409.64283 560.418284 
L 415.369854 560.372417 
L 421.307973 560.321811 
L 427.465015 560.262868 
L 433.848947 560.198302 
L 440.468221 560.124138 
L 447.331622 560.043479 
L 454.44803 559.95216 
L 461.82673 559.853598 
L 469.477453 559.743585 
L 477.030311 559.625542 
L 482.667231 559.493803 
L 486.681487 559.353009 
L 489.540682 559.199388 
L 491.577618 559.037502 
L 493.029131 558.863879 
L 494.169898 558.6833 
L 495.300933 558.492113 
L 496.431967 558.294686 
L 497.563002 558.088626 
L 498.694036 557.878258 
L 499.82507 557.661917 
L 500.956105 557.443744 
L 502.087139 557.222304 
L 503.218174 557.000944 
L 504.042969 556.777933 
L 504.867764 556.555827 
L 505.69256 556.332729 
L 506.517355 556.111265 
L 507.34215 555.890127 
L 508.166946 555.671915 
L 508.991741 555.455546 
L 509.816536 555.243713 
L 510.641332 555.035603 
L 511.466127 554.834333 
L 512.290923 554.638704 
L 513.115718 554.452257 
L 513.940513 554.273283 
L 514.765309 554.1055 
L 515.590104 553.946613 
L 516.414899 553.800534 
L 517.239695 553.664248 
L 518.06449 553.541556 
L 518.889285 553.429351 
L 519.714081 553.33172 
L 520.538876 553.245054 
L 521.363671 553.173278 
L 522.188467 553.112588 
L 523.013262 553.066488 
L 523.838058 553.031129 
L 524.662853 553.009663 
L 525.487648 552.998484 
L 526.312444 553.000021 
L 527.137239 553.010792 
L 527.962034 553.032735 
L 528.78683 553.06251 
L 529.611625 553.101772 
L 530.43642 553.147284 
L 531.261216 553.200454 
L 532.086011 553.258093 
L 532.910806 553.321439 
L 533.735602 553.387514 
L 534.560397 553.457281 
L 535.385193 553.527956 
L 536.209988 553.600172 
L 537.034783 553.671411 
L 537.859579 553.742032 
L 538.684374 553.809951 
L 539.509169 553.875226 
L 540.342411 553.936668 
L 541.227375 553.995011 
L 542.190012 554.048711 
L 543.227953 554.095983 
L 544.355468 554.13581 
L 545.579294 554.1657 
L 546.905166 554.185153 
L 548.344276 554.19136 
L 549.909374 554.184429 
L 551.610774 554.161495 
L 553.46067 554.122766 
L 555.472696 554.065469 
L 557.661791 553.990174 
L 560.044517 553.894154 
L 562.637941 553.77849 
L 565.457902 553.641295 
L 568.526845 553.484292 
L 571.86174 553.308183 
L 575.485561 553.115364 
L 579.417239 552.906513 
L 583.67609 552.68584 
L 588.279555 552.455746 
L 593.238954 552.220335 
L 598.556907 551.981969 
L 604.216454 551.744912 
L 610.13045 551.508803 
L 616.068977 551.27134 
L 622.007503 551.031412 
L 627.94603 550.79115 
L 633.884556 550.549039 
L 639.823083 550.30699 
L 645.761609 550.06242 
L 651.700136 549.817468 
L 657.638663 549.567408 
L 663.577189 549.314963 
L 669.515716 549.054838 
L 675.454242 548.790866 
L 681.392769 548.516821 
L 687.331295 548.24099 
L 693.269822 547.956763 
L 701.665655 547.67623 
L 710.061489 547.390739 
L 718.457322 547.118784 
L 726.853155 546.846337 
L 735.248989 546.59747 
L 743.644822 546.352154 
L 752.040655 546.137937 
L 760.436489 545.928099 
L 768.832322 545.75238 
L 777.228155 545.579477 
L 785.623989 545.440319 
L 794.019822 545.301415 
L 802.415655 545.193738 
L 810.811489 545.084458 
L 819.207322 545.002719 
L 827.603155 544.918746 
L 835.998989 544.857958 
L 844.394822 544.795684 
L 852.790655 544.752542 
L 861.186489 544.709696 
L 869.582322 544.682237 
L 877.978155 544.657644 
L 886.373989 544.645029 
L 894.769822 544.637961 
L 894.769822 566.981802 
L 894.769822 566.981802 
L 886.373989 566.982518 
L 877.978155 566.985169 
L 869.582322 566.990362 
L 861.186489 566.996756 
L 852.790655 567.005131 
L 844.394822 567.013386 
L 835.998989 567.023016 
L 827.603155 567.031199 
L 819.207322 567.040627 
L 810.811489 567.047203 
L 802.415655 567.05603 
L 794.019822 567.060628 
L 785.623989 567.069188 
L 777.228155 567.071808 
L 768.832322 567.080617 
L 760.436489 567.080985 
L 752.040655 567.089198 
L 743.644822 567.084297 
L 735.248989 567.086471 
L 726.853155 567.067954 
L 718.457322 567.05128 
L 710.061489 567.003244 
L 701.665655 566.948986 
L 693.269822 566.854357 
L 687.331295 566.745271 
L 681.392769 566.590177 
L 675.454242 566.417583 
L 669.515716 566.200152 
L 663.577189 565.96809 
L 657.638663 565.700617 
L 651.700136 565.426687 
L 645.761609 565.129099 
L 639.823083 564.834376 
L 633.884556 564.528033 
L 627.94603 564.232861 
L 622.007503 563.935878 
L 616.068977 563.655776 
L 610.13045 563.380993 
L 604.216454 563.128037 
L 598.556907 562.891291 
L 593.238954 562.683955 
L 588.279555 562.493184 
L 583.67609 562.326664 
L 579.417239 562.172779 
L 575.485561 562.037131 
L 571.86174 561.908716 
L 568.526845 561.792953 
L 565.457902 561.682301 
L 562.637941 561.57952 
L 560.044517 561.479519 
L 557.661791 561.3854 
L 555.472696 561.294613 
L 553.46067 561.208644 
L 551.610774 561.127079 
L 549.909374 561.049629 
L 548.344276 560.977365 
L 546.905166 560.909008 
L 545.579294 560.84614 
L 544.355468 560.787299 
L 543.227953 560.734347 
L 542.190012 560.686046 
L 541.227375 560.644042 
L 540.342411 560.607038 
L 539.509169 560.576602 
L 538.684374 560.549417 
L 537.859579 560.526339 
L 537.034783 560.505096 
L 536.209988 560.48742 
L 535.385193 560.470929 
L 534.560397 560.457918 
L 533.735602 560.445793 
L 532.910806 560.437338 
L 532.086011 560.429571 
L 531.261216 560.425755 
L 530.43642 560.42248 
L 529.611625 560.423565 
L 528.78683 560.425164 
L 527.962034 560.431564 
L 527.137239 560.438304 
L 526.312444 560.450271 
L 525.487648 560.462281 
L 524.662853 560.479929 
L 523.838058 560.497095 
L 523.013262 560.519959 
L 522.188467 560.541427 
L 521.363671 560.568116 
L 520.538876 560.592697 
L 519.714081 560.621608 
L 518.889285 560.647609 
L 518.06449 560.676571 
L 517.239695 560.70187 
L 516.414899 560.728373 
L 515.590104 560.750667 
L 514.765309 560.773065 
L 513.940513 560.79095 
L 513.115718 560.807529 
L 512.290923 560.819162 
L 511.466127 560.82818 
L 510.641332 560.83175 
L 509.816536 560.831503 
L 508.991741 560.82549 
L 508.166946 560.814936 
L 507.34215 560.798762 
L 506.517355 560.778738 
L 505.69256 560.754708 
L 504.867764 560.729635 
L 504.042969 560.704132 
L 503.218174 560.681333 
L 502.087139 560.660908 
L 500.956105 560.645065 
L 499.82507 560.632298 
L 498.694036 560.624328 
L 497.563002 560.618453 
L 496.431967 560.616527 
L 495.300933 560.61533 
L 494.169898 560.617374 
L 493.029131 560.619101 
L 491.577618 560.624165 
L 489.540682 560.628226 
L 486.681487 560.634509 
L 482.667231 560.63868 
L 477.030311 560.644084 
L 469.477453 560.645988 
L 461.82673 560.649721 
L 454.44803 560.65165 
L 447.331622 560.655417 
L 440.468221 560.657254 
L 433.848947 560.660707 
L 427.465015 560.662237 
L 421.307973 560.665187 
L 415.369854 560.666392 
L 409.64283 560.668799 
L 404.119273 560.669646 
L 398.792315 560.67151 
L 393.654493 560.672062 
L 388.660671 560.673464 
L 383.819615 560.673807 
L 379.150455 560.674842 
L 374.647292 560.67505 
L 370.304251 560.675801 
L 366.115474 560.675924 
L 362.075202 560.676454 
L 358.178598 560.676524 
L 354.42061 560.676891 
L 350.795921 560.676928 
L 347.299789 560.677177 
L 343.928319 560.677196 
L 340.676486 560.677362 
L 337.539992 560.677371 
L 334.51487 560.677479 
L 331.59721 560.677482 
L 328.783068 560.677551 
L 326.068582 560.677552 
L 323.450361 560.677595 
L 320.926097 560.677595 
L 318.490712 560.677621 
L 316.141318 560.677621 
L 313.876611 560.677637 
L 311.690766 560.677636 
L 309.583653 560.677646 
L 307.551434 560.677645 
L 305.589539 560.67765 
L 303.698856 560.67765 
L 301.875627 560.677653 
L 300.11652 560.677653 
L 298.419061 560.677655 
L 296.781476 560.677655 
L 295.202334 560.677655 
L 293.67937 560.677655 
L 292.210521 560.677656 
L 290.794019 560.677656 
L 289.428379 560.677656 
L 288.111019 560.677656 
L 286.839417 560.677656 
L 285.611681 560.677656 
L 284.414114 560.677656 
L 283.216548 560.677656 
L 282.018982 560.677656 
L 280.821416 560.677656 
L 279.62385 560.677656 
L 278.426285 560.677656 
L 277.228719 560.677656 
L 276.031153 560.677656 
L 274.833587 560.677656 
L 273.636021 560.677656 
L 272.438455 560.677656 
L 271.24089 560.677656 
L 270.043324 560.677656 
L 268.845758 560.677656 
L 267.648192 560.677656 
L 266.450626 560.677656 
L 265.25306 560.677656 
L 264.055494 560.677656 
L 262.857929 560.677656 
L 261.660363 560.677656 
L 260.462797 560.677656 
L 259.265231 560.677656 
L 258.067665 560.677656 
L 256.870099 560.677656 
L 255.672533 560.677656 
L 254.474968 560.677656 
L 253.277402 560.677656 
L 252.079836 560.677656 
L 250.88227 560.677656 
L 249.684704 560.677656 
L 248.487138 560.677656 
L 247.289573 560.677656 
L 246.092007 560.677656 
L 244.894441 560.677656 
L 243.696875 560.677656 
L 242.528411 560.677656 
L 241.359947 560.677656 
L 240.181215 560.677656 
L 238.704947 560.677656 
L 236.685039 560.677656 
L 233.919918 560.677656 
L 230.133528 560.677656 
L 224.947776 560.677656 
L 217.844791 560.677656 
L 208.115219 560.677656 
L 194.787371 560.677656 
L 176.530208 560.677656 
z
" clip-path="url(#p754faf632c)" style="fill: #99ccff; fill-opacity: 0.7"/>
   </g>
   <g id="FillBetweenPolyCollection_2">
    <path d="M 176.530208 560.677656 
L 176.530208 560.677656 
L 194.787371 560.677656 
L 208.115219 560.677656 
L 217.844791 560.677656 
L 224.947776 560.677656 
L 230.133528 560.677656 
L 233.919918 560.677656 
L 236.685039 560.677656 
L 238.704947 560.677656 
L 240.181215 560.677656 
L 241.359947 560.677656 
L 242.528411 560.677656 
L 243.696875 560.677656 
L 244.894441 560.677656 
L 246.092007 560.677656 
L 247.289573 560.677656 
L 248.487138 560.677656 
L 249.684704 560.677656 
L 250.88227 560.677656 
L 252.079836 560.677656 
L 253.277402 560.677656 
L 254.474968 560.677656 
L 255.672533 560.677656 
L 256.870099 560.677656 
L 258.067665 560.677656 
L 259.265231 560.677656 
L 260.462797 560.677656 
L 261.660363 560.677656 
L 262.857929 560.677656 
L 264.055494 560.677656 
L 265.25306 560.677656 
L 266.450626 560.677656 
L 267.648192 560.677656 
L 268.845758 560.677656 
L 270.043324 560.677656 
L 271.24089 560.677656 
L 272.438455 560.677656 
L 273.636021 560.677656 
L 274.833587 560.677656 
L 276.031153 560.677656 
L 277.228719 560.677656 
L 278.426285 560.677656 
L 279.62385 560.677655 
L 280.821416 560.677655 
L 282.018982 560.677654 
L 283.216548 560.677653 
L 284.414114 560.677651 
L 285.611681 560.677649 
L 286.839417 560.677645 
L 288.111019 560.67764 
L 289.428379 560.677633 
L 290.794019 560.677623 
L 292.210521 560.67761 
L 293.67937 560.67759 
L 295.202334 560.677563 
L 296.781476 560.677524 
L 298.419061 560.677473 
L 300.11652 560.677401 
L 301.875627 560.677305 
L 303.698856 560.677171 
L 305.589539 560.676996 
L 307.551434 560.676755 
L 309.583653 560.676442 
L 311.690766 560.676016 
L 313.876611 560.675467 
L 316.141318 560.674731 
L 318.490712 560.673791 
L 320.926097 560.672547 
L 323.450361 560.67097 
L 326.068582 560.668911 
L 328.783068 560.666322 
L 331.59721 560.662986 
L 334.51487 560.658826 
L 337.539992 560.653533 
L 340.676486 560.646989 
L 343.928319 560.638769 
L 347.299789 560.628691 
L 350.795921 560.616187 
L 354.42061 560.600989 
L 358.178598 560.582361 
L 362.075202 560.559916 
L 366.115474 560.532731 
L 370.304251 560.500262 
L 374.647292 560.461386 
L 379.150455 560.415369 
L 383.819615 560.360878 
L 388.660671 560.296958 
L 393.654493 560.222069 
L 398.792315 560.135007 
L 404.119273 560.034042 
L 409.64283 559.917705 
L 415.369854 559.784088 
L 421.307973 559.631462 
L 427.465015 559.457749 
L 433.848947 559.260961 
L 440.468221 559.038835 
L 447.331622 558.789098 
L 454.44803 558.50918 
L 461.82673 558.196311 
L 469.477453 557.847132 
L 477.030311 557.457721 
L 482.667231 557.026109 
L 486.681487 556.54897 
L 489.540682 556.018156 
L 491.577618 555.422114 
L 493.029131 554.740919 
L 494.169898 553.9291 
L 495.300933 552.94002 
L 496.431967 551.674374 
L 497.563002 550.020944 
L 498.694036 547.788314 
L 499.82507 544.75458 
L 500.956105 540.680794 
L 502.087139 535.4207 
L 503.218174 528.884919 
L 504.042969 521.899907 
L 504.867764 513.485441 
L 505.69256 501.50276 
L 506.517355 484.823293 
L 507.34215 466.873677 
L 508.166946 449.89104 
L 508.991741 433.64124 
L 509.816536 418.161693 
L 510.641332 402.973597 
L 511.466127 388.471974 
L 512.290923 374.88696 
L 513.115718 361.788187 
L 513.940513 349.634464 
L 514.765309 337.878112 
L 515.590104 327.03844 
L 516.414899 316.801506 
L 517.239695 307.507893 
L 518.06449 298.79928 
L 518.889285 290.962781 
L 519.714081 283.623491 
L 520.538876 276.985168 
L 521.363671 271.011931 
L 522.188467 265.562372 
L 523.013262 260.606697 
L 523.838058 256.015239 
L 524.662853 251.59413 
L 525.487648 247.403064 
L 526.312444 243.334584 
L 527.137239 239.526241 
L 527.962034 235.841809 
L 528.78683 232.525113 
L 529.611625 229.340385 
L 530.43642 226.430237 
L 531.261216 223.323132 
L 532.086011 220.927711 
L 532.910806 218.19397 
L 533.735602 215.805637 
L 534.560397 213.848191 
L 535.385193 211.439234 
L 536.209988 209.342113 
L 537.034783 207.65392 
L 537.859579 205.564593 
L 538.684374 204.154357 
L 539.509169 202.650428 
L 540.342411 201.518676 
L 541.227375 200.41342 
L 542.190012 199.805409 
L 543.227953 199.223057 
L 544.355468 198.765796 
L 545.579294 198.569049 
L 546.905166 198.155991 
L 548.344276 198.099084 
L 549.909374 198.050775 
L 551.610774 198.041395 
L 553.46067 198.177712 
L 555.472696 198.142677 
L 557.661791 198.052414 
L 560.044517 197.887814 
L 562.637941 197.420313 
L 565.457902 196.898418 
L 568.526845 195.918553 
L 571.86174 194.602444 
L 575.485561 192.992867 
L 579.417239 190.892407 
L 583.67609 188.669143 
L 588.279555 186.15514 
L 593.238954 184.066935 
L 598.556907 181.283545 
L 604.216454 178.735889 
L 610.13045 175.721083 
L 616.068977 171.987737 
L 622.007503 168.010481 
L 627.94603 163.330486 
L 633.884556 158.04134 
L 639.823083 152.474621 
L 645.761609 146.690181 
L 651.700136 140.829711 
L 657.638663 135.372997 
L 663.577189 129.83517 
L 669.515716 124.673262 
L 675.454242 119.791742 
L 681.392769 115.252467 
L 687.331295 110.443394 
L 693.269822 106.907252 
L 701.665655 102.809035 
L 710.061489 100.028825 
L 718.457322 97.013964 
L 726.853155 94.62883 
L 735.248989 92.383259 
L 743.644822 90.754848 
L 752.040655 89.466714 
L 760.436489 88.476361 
L 768.832322 87.643013 
L 777.228155 86.977846 
L 785.623989 86.453016 
L 794.019822 86.036149 
L 802.415655 85.673814 
L 810.811489 85.386156 
L 819.207322 85.127533 
L 827.603155 84.905349 
L 835.998989 84.726404 
L 844.394822 84.552244 
L 852.790655 84.436979 
L 861.186489 84.311818 
L 869.582322 84.238209 
L 877.978155 84.170266 
L 886.373989 84.121397 
L 894.769822 84.091013 
L 894.769822 244.623312 
L 894.769822 244.623312 
L 886.373989 244.620479 
L 877.978155 244.615001 
L 869.582322 244.615303 
L 861.186489 244.643705 
L 852.790655 244.670438 
L 844.394822 244.742004 
L 835.998989 244.809856 
L 827.603155 244.918771 
L 819.207322 245.048668 
L 810.811489 245.216479 
L 802.415655 245.437192 
L 794.019822 245.695074 
L 785.623989 246.028788 
L 777.228155 246.439736 
L 768.832322 246.974069 
L 760.436489 247.68058 
L 752.040655 248.667647 
L 743.644822 249.904389 
L 735.248989 251.461931 
L 726.853155 253.230386 
L 718.457322 255.725877 
L 710.061489 258.570719 
L 701.665655 262.474632 
L 693.269822 266.239498 
L 687.331295 271.232704 
L 681.392769 276.069658 
L 675.454242 281.929976 
L 669.515716 288.178773 
L 663.577189 294.793155 
L 657.638663 301.523342 
L 651.700136 308.535206 
L 645.761609 315.300382 
L 639.823083 321.907251 
L 633.884556 328.231601 
L 627.94603 334.002468 
L 622.007503 339.115241 
L 616.068977 343.298636 
L 610.13045 346.048603 
L 604.216454 347.75569 
L 598.556907 348.967846 
L 593.238954 349.522835 
L 588.279555 350.327817 
L 583.67609 350.52615 
L 579.417239 350.679067 
L 575.485561 350.537647 
L 571.86174 350.294551 
L 568.526845 349.838315 
L 565.457902 349.262922 
L 562.637941 348.646679 
L 560.044517 347.811918 
L 557.661791 347.00762 
L 555.472696 346.199328 
L 553.46067 345.427293 
L 551.610774 344.897427 
L 549.909374 344.397432 
L 548.344276 344.091628 
L 546.905166 343.991238 
L 545.579294 343.896885 
L 544.355468 344.246676 
L 543.227953 344.748484 
L 542.190012 345.45767 
L 541.227375 346.481316 
L 540.342411 347.474732 
L 539.509169 348.837813 
L 538.684374 350.352355 
L 537.859579 352.293192 
L 537.034783 354.039969 
L 536.209988 356.306456 
L 535.385193 358.461672 
L 534.560397 360.571927 
L 533.735602 363.163905 
L 532.910806 365.646291 
L 532.086011 368.072189 
L 531.261216 370.989178 
L 530.43642 373.654191 
L 529.611625 376.765428 
L 528.78683 379.998047 
L 527.962034 383.547548 
L 527.137239 387.26651 
L 526.312444 391.35002 
L 525.487648 395.632302 
L 524.662853 400.179379 
L 523.838058 404.876093 
L 523.013262 409.833455 
L 522.188467 414.997559 
L 521.363671 420.464529 
L 520.538876 426.297256 
L 519.714081 432.530106 
L 518.889285 439.101672 
L 518.06449 446.171668 
L 517.239695 453.467626 
L 516.414899 461.183742 
L 515.590104 469.037008 
L 514.765309 477.241269 
L 513.940513 485.500946 
L 513.115718 494.126815 
L 512.290923 502.627427 
L 511.466127 511.199045 
L 510.641332 519.398273 
L 509.816536 527.141672 
L 508.991741 534.358316 
L 508.166946 540.225034 
L 507.34215 544.138057 
L 506.517355 545.423354 
L 505.69256 545.94381 
L 504.867764 548.627513 
L 504.042969 553.118369 
L 503.218174 556.965264 
L 502.087139 559.823895 
L 500.956105 562.168051 
L 499.82507 563.911172 
L 498.694036 564.981292 
L 497.563002 565.496263 
L 496.431967 565.608346 
L 495.300933 565.471671 
L 494.169898 565.180703 
L 493.029131 564.821283 
L 491.577618 564.431386 
L 489.540682 564.04885 
L 486.681487 563.687121 
L 482.667231 563.351905 
L 477.030311 563.045954 
L 469.477453 562.767572 
L 461.82673 562.513944 
L 454.44803 562.284454 
L 447.331622 562.078056 
L 440.468221 561.893367 
L 433.848947 561.728839 
L 427.465015 561.582949 
L 421.307973 561.454099 
L 415.369854 561.34086 
L 409.64283 561.241708 
L 404.119273 561.155371 
L 398.792315 561.080436 
L 393.654493 561.015819 
L 388.660671 560.960234 
L 383.819615 560.91279 
L 379.150455 560.872344 
L 374.647292 560.838188 
L 370.304251 560.809331 
L 366.115474 560.785231 
L 362.075202 560.765052 
L 358.178598 560.748392 
L 354.42061 560.734565 
L 350.795921 560.723284 
L 347.299789 560.714002 
L 343.928319 560.706522 
L 340.676486 560.70042 
L 337.539992 560.695562 
L 334.51487 560.691634 
L 331.59721 560.688546 
L 328.783068 560.686069 
L 326.068582 560.684148 
L 323.450361 560.682619 
L 320.926097 560.681449 
L 318.490712 560.680525 
L 316.141318 560.679827 
L 313.876611 560.679281 
L 311.690766 560.678874 
L 309.583653 560.678558 
L 307.551434 560.678325 
L 305.589539 560.678146 
L 303.698856 560.678016 
L 301.875627 560.677917 
L 300.11652 560.677846 
L 298.419061 560.677792 
L 296.781476 560.677754 
L 295.202334 560.677726 
L 293.67937 560.677706 
L 292.210521 560.677691 
L 290.794019 560.677681 
L 289.428379 560.677673 
L 288.111019 560.677668 
L 286.839417 560.677664 
L 285.611681 560.677662 
L 284.414114 560.67766 
L 283.216548 560.677659 
L 282.018982 560.677658 
L 280.821416 560.677657 
L 279.62385 560.677657 
L 278.426285 560.677657 
L 277.228719 560.677657 
L 276.031153 560.677656 
L 274.833587 560.677656 
L 273.636021 560.677656 
L 272.438455 560.677656 
L 271.24089 560.677656 
L 270.043324 560.677656 
L 268.845758 560.677656 
L 267.648192 560.677656 
L 266.450626 560.677656 
L 265.25306 560.677656 
L 264.055494 560.677656 
L 262.857929 560.677656 
L 261.660363 560.677656 
L 260.462797 560.677656 
L 259.265231 560.677656 
L 258.067665 560.677656 
L 256.870099 560.677656 
L 255.672533 560.677656 
L 254.474968 560.677656 
L 253.277402 560.677656 
L 252.079836 560.677656 
L 250.88227 560.677656 
L 249.684704 560.677656 
L 248.487138 560.677656 
L 247.289573 560.677656 
L 246.092007 560.677656 
L 244.894441 560.677656 
L 243.696875 560.677656 
L 242.528411 560.677656 
L 241.359947 560.677656 
L 240.181215 560.677656 
L 238.704947 560.677656 
L 236.685039 560.677656 
L 233.919918 560.677656 
L 230.133528 560.677656 
L 224.947776 560.677656 
L 217.844791 560.677656 
L 208.115219 560.677656 
L 194.787371 560.677656 
L 176.530208 560.677656 
z
" clip-path="url(#p754faf632c)" style="fill: #008000; fill-opacity: 0.2"/>
   </g>
   <g id="FillBetweenPolyCollection_3">
    <path d="M 176.530208 560.677656 
L 176.530208 560.677656 
L 194.787371 560.677656 
L 208.115219 560.677656 
L 217.844791 560.677656 
L 224.947776 560.677656 
L 230.133528 560.677656 
L 233.919918 560.677656 
L 236.685039 560.677656 
L 238.704947 560.677656 
L 240.181215 560.677656 
L 241.359947 560.677656 
L 242.528411 560.677656 
L 243.696875 560.677656 
L 244.894441 560.677656 
L 246.092007 560.677656 
L 247.289573 560.677656 
L 248.487138 560.677656 
L 249.684704 560.677656 
L 250.88227 560.677656 
L 252.079836 560.677656 
L 253.277402 560.677656 
L 254.474968 560.677656 
L 255.672533 560.677656 
L 256.870099 560.677656 
L 258.067665 560.677656 
L 259.265231 560.677656 
L 260.462797 560.677656 
L 261.660363 560.677656 
L 262.857929 560.677656 
L 264.055494 560.677656 
L 265.25306 560.677656 
L 266.450626 560.677656 
L 267.648192 560.677656 
L 268.845758 560.677656 
L 270.043324 560.677656 
L 271.24089 560.677656 
L 272.438455 560.677656 
L 273.636021 560.677656 
L 274.833587 560.677656 
L 276.031153 560.677656 
L 277.228719 560.677656 
L 278.426285 560.677656 
L 279.62385 560.677656 
L 280.821416 560.677656 
L 282.018982 560.677655 
L 283.216548 560.677655 
L 284.414114 560.677654 
L 285.611681 560.677653 
L 286.839417 560.677652 
L 288.111019 560.677649 
L 289.428379 560.677646 
L 290.794019 560.677642 
L 292.210521 560.677636 
L 293.67937 560.677627 
L 295.202334 560.677614 
L 296.781476 560.677597 
L 298.419061 560.677572 
L 300.11652 560.677538 
L 301.875627 560.677491 
L 303.698856 560.677428 
L 305.589539 560.67734 
L 307.551434 560.677223 
L 309.583653 560.677062 
L 311.690766 560.67685 
L 313.876611 560.676562 
L 316.141318 560.676185 
L 318.490712 560.675679 
L 320.926097 560.675024 
L 323.450361 560.674154 
L 326.068582 560.673036 
L 328.783068 560.671571 
L 331.59721 560.669702 
L 334.51487 560.66728 
L 337.539992 560.664219 
L 340.676486 560.660295 
L 343.928319 560.655378 
L 347.299789 560.649144 
L 350.795921 560.641397 
L 354.42061 560.631684 
L 358.178598 560.619717 
L 362.075202 560.604871 
L 366.115474 560.586738 
L 370.304251 560.564478 
L 374.647292 560.537524 
L 379.150455 560.504778 
L 383.819615 560.465468 
L 388.660671 560.418198 
L 393.654493 560.36194 
L 398.792315 560.294965 
L 404.119273 560.215942 
L 409.64283 560.122781 
L 415.369854 560.013809 
L 421.307973 559.886559 
L 427.465015 559.738994 
L 433.848947 559.568261 
L 440.468221 559.371891 
L 447.331622 559.146598 
L 454.44803 558.889545 
L 461.82673 558.596838 
L 469.477453 558.265038 
L 477.030311 557.889416 
L 482.667231 557.466703 
L 486.681487 556.992629 
L 489.540682 556.461499 
L 491.577618 555.863566 
L 493.029131 555.189307 
L 494.169898 554.419938 
L 495.300933 553.541548 
L 496.431967 552.525199 
L 497.563002 551.340026 
L 498.694036 549.931162 
L 499.82507 548.227429 
L 500.956105 546.127677 
L 502.087139 543.568557 
L 503.218174 540.650916 
L 504.042969 537.861286 
L 504.867764 534.324661 
L 505.69256 527.792185 
L 506.517355 517.979734 
L 507.34215 506.864851 
L 508.166946 496.388723 
L 508.991741 486.6344 
L 509.816536 477.895108 
L 510.641332 469.657322 
L 511.466127 462.072483 
L 512.290923 455.0894 
L 513.115718 448.412796 
L 513.940513 441.917898 
L 514.765309 435.7471 
L 515.590104 430.047786 
L 516.414899 424.730545 
L 517.239695 419.605595 
L 518.06449 414.765963 
L 518.889285 410.330593 
L 519.714081 406.283616 
L 520.538876 402.588122 
L 521.363671 399.173739 
L 522.188467 396.073134 
L 523.013262 393.181216 
L 523.838058 390.473162 
L 524.662853 387.937399 
L 525.487648 385.528445 
L 526.312444 383.252342 
L 527.137239 381.079346 
L 527.962034 379.071075 
L 528.78683 377.221712 
L 529.611625 375.554476 
L 530.43642 373.992913 
L 531.261216 372.587446 
L 532.086011 371.244742 
L 532.910806 370.068114 
L 533.735602 368.989381 
L 534.560397 367.954708 
L 535.385193 367.071774 
L 536.209988 366.222935 
L 537.034783 365.425582 
L 537.859579 364.780506 
L 538.684374 364.194384 
L 539.509169 363.753522 
L 540.342411 363.439784 
L 541.227375 363.276761 
L 542.190012 363.196236 
L 543.227953 363.251724 
L 544.355468 363.44274 
L 545.579294 363.750196 
L 546.905166 364.247257 
L 548.344276 364.808558 
L 549.909374 365.463938 
L 551.610774 366.186453 
L 553.46067 366.92271 
L 555.472696 367.71664 
L 557.661791 368.532454 
L 560.044517 369.342176 
L 562.637941 370.209011 
L 565.457902 371.100069 
L 568.526845 372.141005 
L 571.86174 373.344594 
L 575.485561 374.765554 
L 579.417239 376.435309 
L 583.67609 378.345946 
L 588.279555 380.524408 
L 593.238954 382.843051 
L 598.556907 385.389647 
L 604.216454 387.784339 
L 610.13045 389.61671 
L 616.068977 390.752235 
L 622.007503 391.424106 
L 627.94603 391.498591 
L 633.884556 390.945653 
L 639.823083 389.766048 
L 645.761609 388.058446 
L 651.700136 386.28149 
L 657.638663 384.398958 
L 663.577189 382.448691 
L 669.515716 380.585767 
L 675.454242 378.914897 
L 681.392769 377.513927 
L 687.331295 376.320037 
L 693.269822 375.090783 
L 701.665655 374.217882 
L 710.061489 373.116521 
L 718.457322 372.168416 
L 726.853155 371.259762 
L 735.248989 370.522741 
L 743.644822 369.979297 
L 752.040655 369.59268 
L 760.436489 369.319314 
L 768.832322 369.107388 
L 777.228155 368.912547 
L 785.623989 368.722337 
L 794.019822 368.550942 
L 802.415655 368.409077 
L 810.811489 368.264071 
L 819.207322 368.113544 
L 827.603155 367.952663 
L 835.998989 367.766349 
L 844.394822 367.586102 
L 852.790655 367.406588 
L 861.186489 367.249722 
L 869.582322 367.108719 
L 877.978155 366.990867 
L 886.373989 366.898228 
L 894.769822 366.851706 
L 894.769822 468.29646 
L 894.769822 468.29646 
L 886.373989 468.229806 
L 877.978155 468.110167 
L 869.582322 467.942544 
L 861.186489 467.735399 
L 852.790655 467.503927 
L 844.394822 467.248208 
L 835.998989 466.977409 
L 827.603155 466.690551 
L 819.207322 466.384225 
L 810.811489 466.066543 
L 802.415655 465.736328 
L 794.019822 465.388514 
L 785.623989 465.032021 
L 777.228155 464.650766 
L 768.832322 464.246318 
L 760.436489 463.81834 
L 752.040655 463.3735 
L 743.644822 462.864957 
L 735.248989 462.253911 
L 726.853155 461.635264 
L 718.457322 461.033016 
L 710.061489 460.496975 
L 701.665655 459.777579 
L 693.269822 458.716243 
L 687.331295 457.202395 
L 681.392769 455.457096 
L 675.454242 453.493851 
L 669.515716 451.653123 
L 663.577189 449.889388 
L 657.638663 448.189013 
L 651.700136 446.564623 
L 645.761609 445.051763 
L 639.823083 443.803544 
L 633.884556 442.729072 
L 627.94603 441.865521 
L 622.007503 441.207707 
L 616.068977 440.80819 
L 610.13045 440.985816 
L 604.216454 441.622832 
L 598.556907 442.548418 
L 593.238954 443.671562 
L 588.279555 444.763752 
L 583.67609 445.724357 
L 579.417239 446.452026 
L 575.485561 446.894763 
L 571.86174 447.078079 
L 568.526845 447.063659 
L 565.457902 446.910385 
L 562.637941 446.655605 
L 560.044517 446.368994 
L 557.661791 446.092348 
L 555.472696 445.864772 
L 553.46067 445.707824 
L 551.610774 445.621177 
L 549.909374 445.645031 
L 548.344276 445.782128 
L 546.905166 446.044497 
L 545.579294 446.44571 
L 544.355468 446.932238 
L 543.227953 447.527681 
L 542.190012 448.232885 
L 541.227375 449.050177 
L 540.342411 450.01483 
L 539.509169 451.111084 
L 538.684374 452.35742 
L 537.859579 453.725442 
L 537.034783 455.244038 
L 536.209988 456.838173 
L 535.385193 458.541002 
L 534.560397 460.305587 
L 533.735602 462.106032 
L 532.910806 463.990598 
L 532.086011 465.968167 
L 531.261216 467.992291 
L 530.43642 470.125992 
L 529.611625 472.315536 
L 528.78683 474.587777 
L 527.962034 476.999068 
L 527.137239 479.562561 
L 526.312444 482.24532 
L 525.487648 485.017412 
L 524.662853 487.88099 
L 523.838058 490.834268 
L 523.013262 493.888915 
L 522.188467 497.033746 
L 521.363671 500.256159 
L 520.538876 503.621001 
L 519.714081 507.075664 
L 518.889285 510.676998 
L 518.06449 514.401847 
L 517.239695 518.294195 
L 516.414899 522.164806 
L 515.590104 525.961421 
L 514.765309 529.801534 
L 513.940513 533.824776 
L 513.115718 537.813882 
L 512.290923 541.643192 
L 511.466127 545.273949 
L 510.641332 548.939386 
L 509.816536 552.553062 
L 508.991741 555.587412 
L 508.166946 558.273332 
L 507.34215 559.839591 
L 506.517355 560.724333 
L 505.69256 561.047484 
L 504.867764 561.89383 
L 504.042969 563.605587 
L 503.218174 565.366873 
L 502.087139 566.606106 
L 500.956105 567.043348 
L 499.82507 567.139827 
L 498.694036 567.040868 
L 497.563002 566.81501 
L 496.431967 566.503984 
L 495.300933 566.132192 
L 494.169898 565.726123 
L 493.029131 565.302061 
L 491.577618 564.874883 
L 489.540682 564.456893 
L 486.681487 564.056991 
L 482.667231 563.681222 
L 477.030311 563.332617 
L 469.477453 563.011754 
L 461.82673 562.7183 
L 454.44803 562.452587 
L 447.331622 562.213578 
L 440.468221 562.000293 
L 433.848947 561.811143 
L 427.465015 561.644362 
L 421.307973 561.498347 
L 415.369854 561.371033 
L 409.64283 561.260885 
L 404.119273 561.165827 
L 398.792315 561.084527 
L 393.654493 561.015061 
L 388.660671 560.956313 
L 383.819615 560.906599 
L 379.150455 560.865019 
L 374.647292 560.830164 
L 370.304251 560.801332 
L 366.115474 560.777385 
L 362.075202 560.757793 
L 358.178598 560.741668 
L 354.42061 560.728621 
L 350.795921 560.717981 
L 347.299789 560.709466 
L 343.928319 560.702583 
L 340.676486 560.697137 
L 337.539992 560.692775 
L 334.51487 560.689361 
L 331.59721 560.686651 
L 328.783068 560.684555 
L 326.068582 560.682905 
L 323.450361 560.681644 
L 320.926097 560.68066 
L 318.490712 560.679916 
L 316.141318 560.679342 
L 313.876611 560.678912 
L 311.690766 560.678583 
L 309.583653 560.67834 
L 307.551434 560.678156 
L 305.589539 560.678021 
L 303.698856 560.67792 
L 301.875627 560.677847 
L 300.11652 560.677793 
L 298.419061 560.677754 
L 296.781476 560.677725 
L 295.202334 560.677705 
L 293.67937 560.677691 
L 292.210521 560.67768 
L 290.794019 560.677673 
L 289.428379 560.677668 
L 288.111019 560.677664 
L 286.839417 560.677662 
L 285.611681 560.67766 
L 284.414114 560.677659 
L 283.216548 560.677658 
L 282.018982 560.677657 
L 280.821416 560.677657 
L 279.62385 560.677657 
L 278.426285 560.677657 
L 277.228719 560.677656 
L 276.031153 560.677656 
L 274.833587 560.677656 
L 273.636021 560.677656 
L 272.438455 560.677656 
L 271.24089 560.677656 
L 270.043324 560.677656 
L 268.845758 560.677656 
L 267.648192 560.677656 
L 266.450626 560.677656 
L 265.25306 560.677656 
L 264.055494 560.677656 
L 262.857929 560.677656 
L 261.660363 560.677656 
L 260.462797 560.677656 
L 259.265231 560.677656 
L 258.067665 560.677656 
L 256.870099 560.677656 
L 255.672533 560.677656 
L 254.474968 560.677656 
L 253.277402 560.677656 
L 252.079836 560.677656 
L 250.88227 560.677656 
L 249.684704 560.677656 
L 248.487138 560.677656 
L 247.289573 560.677656 
L 246.092007 560.677656 
L 244.894441 560.677656 
L 243.696875 560.677656 
L 242.528411 560.677656 
L 241.359947 560.677656 
L 240.181215 560.677656 
L 238.704947 560.677656 
L 236.685039 560.677656 
L 233.919918 560.677656 
L 230.133528 560.677656 
L 224.947776 560.677656 
L 217.844791 560.677656 
L 208.115219 560.677656 
L 194.787371 560.677656 
L 176.530208 560.677656 
z
" clip-path="url(#p754faf632c)" style="fill: #ffa500; fill-opacity: 0.2"/>
   </g>
   <g id="FillBetweenPolyCollection_4">
    <defs>
     <path id="mc68565d26d" d="M 170.342121 -148.867813 
L 170.342121 -148.867813 
L 177.59621 -148.867813 
L 184.850298 -148.867813 
L 192.104387 -148.867813 
L 199.358475 -148.867813 
L 206.612563 -148.867813 
L 213.866652 -148.867813 
L 221.12074 -148.867813 
L 228.374829 -148.867813 
L 235.628917 -148.867813 
L 242.883006 -148.867812 
L 250.137094 -148.867812 
L 257.391182 -148.867812 
L 264.645271 -148.867812 
L 271.899359 -148.867812 
L 279.153448 -148.867812 
L 286.407536 -148.867808 
L 293.661625 -148.867778 
L 300.915713 -148.867651 
L 308.169801 -148.867257 
L 315.42389 -148.866263 
L 322.677978 -148.864126 
L 329.932067 -148.860058 
L 337.186155 -148.853093 
L 344.440243 -148.84184 
L 351.694332 -148.824851 
L 358.94842 -148.800615 
L 366.202509 -148.767587 
L 373.456597 -148.723209 
L 380.710686 -148.666555 
L 387.964774 -148.596302 
L 395.218862 -148.509256 
L 402.472951 -148.404768 
L 409.727039 -148.282965 
L 416.981128 -148.13989 
L 424.235216 -147.977702 
L 431.489304 -147.795972 
L 438.743393 -147.594464 
L 445.997481 -147.37335 
L 453.25157 -147.133066 
L 460.505658 -146.874742 
L 467.759747 -146.5996 
L 475.013835 -146.298517 
L 482.267923 -145.888941 
L 489.522012 -145.864247 
L 496.7761 -145.864247 
L 504.030189 -140.571374 
L 511.284277 -128.466532 
L 518.538366 -139.685119 
L 525.792454 -149.776535 
L 533.046542 -157.05126 
L 540.300631 -157.695199 
L 547.554719 -152.448611 
L 554.808808 -150.165241 
L 562.062896 -149.507452 
L 569.316984 -149.921465 
L 576.571073 -151.964688 
L 583.825161 -153.625232 
L 591.07925 -154.01184 
L 598.333338 -152.842661 
L 605.587427 -150.55584 
L 612.841515 -147.698854 
L 620.095603 -144.450205 
L 627.349692 -141.242675 
L 634.60378 -138.503287 
L 641.857869 -136.439103 
L 649.111957 -135.129287 
L 656.366046 -134.534012 
L 663.620134 -134.628215 
L 670.874222 -135.262827 
L 678.128311 -136.202055 
L 685.382399 -137.320984 
L 692.636488 -136.651799 
L 699.890576 -137.661875 
L 707.144664 -138.151206 
L 714.398753 -138.542307 
L 721.652841 -138.84991 
L 728.90693 -139.04334 
L 736.161018 -139.164342 
L 743.415107 -139.252514 
L 750.669195 -139.388679 
L 757.923283 -139.547099 
L 765.177372 -139.704311 
L 772.43146 -139.858733 
L 779.685549 -140.014525 
L 786.939637 -140.175072 
L 794.193726 -140.343642 
L 801.447814 -140.512041 
L 808.701902 -140.687938 
L 815.955991 -140.870562 
L 823.210079 -141.060969 
L 830.464168 -141.263341 
L 837.718256 -141.481544 
L 844.972344 -141.715085 
L 852.226433 -141.968672 
L 859.480521 -142.239944 
L 866.73461 -142.513536 
L 873.988698 -142.702064 
L 881.242787 -142.848974 
L 888.496875 -142.981087 
L 888.496875 -167.621694 
L 888.496875 -167.621694 
L 881.242787 -167.521321 
L 873.988698 -167.389647 
L 866.73461 -167.229164 
L 859.480521 -167.037191 
L 852.226433 -166.832883 
L 844.972344 -166.613129 
L 837.718256 -166.398423 
L 830.464168 -166.183185 
L 823.210079 -165.983256 
L 815.955991 -165.79916 
L 808.701902 -165.624372 
L 801.447814 -165.456145 
L 794.193726 -165.292886 
L 786.939637 -165.106871 
L 779.685549 -164.908947 
L 772.43146 -164.70738 
L 765.177372 -164.498933 
L 757.923283 -164.266405 
L 750.669195 -163.982117 
L 743.415107 -163.6154 
L 736.161018 -163.118708 
L 728.90693 -162.476256 
L 721.652841 -161.706687 
L 714.398753 -160.875442 
L 707.144664 -159.974876 
L 699.890576 -159.042004 
L 692.636488 -158.18084 
L 685.382399 -156.719412 
L 678.128311 -155.747547 
L 670.874222 -154.776041 
L 663.620134 -153.74076 
L 656.366046 -152.644125 
L 649.111957 -151.516759 
L 641.857869 -150.142565 
L 634.60378 -148.680623 
L 627.349692 -147.394922 
L 620.095603 -146.236158 
L 612.841515 -145.021909 
L 605.587427 -143.998175 
L 598.333338 -143.854525 
L 591.07925 -144.84099 
L 583.825161 -146.242339 
L 576.571073 -147.375596 
L 569.316984 -147.677828 
L 562.062896 -148.032215 
L 554.808808 -148.837201 
L 547.554719 -150.428305 
L 540.300631 -153.404927 
L 533.046542 -154.640258 
L 525.792454 -148.90351 
L 518.538366 -137.242805 
L 511.284277 -111.420262 
L 504.030189 -91.765233 
L 496.7761 -157.380875 
L 489.522012 -153.080501 
L 482.267923 -152.048822 
L 475.013835 -151.555769 
L 467.759747 -151.205936 
L 460.505658 -150.896225 
L 453.25157 -150.612706 
L 445.997481 -150.355077 
L 438.743393 -150.122408 
L 431.489304 -149.914102 
L 424.235216 -149.729067 
L 416.981128 -149.566188 
L 409.727039 -149.42429 
L 402.472951 -149.305105 
L 395.218862 -149.203922 
L 387.964774 -149.120476 
L 380.710686 -149.053826 
L 373.456597 -149.000555 
L 366.202509 -148.959194 
L 358.94842 -148.928685 
L 351.694332 -148.906479 
L 344.440243 -148.891038 
L 337.186155 -148.880891 
L 329.932067 -148.874661 
L 322.677978 -148.871048 
L 315.42389 -148.869164 
L 308.169801 -148.868295 
L 300.915713 -148.867952 
L 293.661625 -148.867842 
L 286.407536 -148.867817 
L 279.153448 -148.867813 
L 271.899359 -148.867813 
L 264.645271 -148.867813 
L 257.391182 -148.867813 
L 250.137094 -148.867813 
L 242.883006 -148.867813 
L 235.628917 -148.867813 
L 228.374829 -148.867813 
L 221.12074 -148.867813 
L 213.866652 -148.867813 
L 206.612563 -148.867813 
L 199.358475 -148.867813 
L 192.104387 -148.867813 
L 184.850298 -148.867813 
L 177.59621 -148.867813 
L 170.342121 -148.867813 
z
" style="stroke: #808080; stroke-opacity: 0.2"/>
    </defs>
    <g clip-path="url(#p754faf632c)">
     <use xlink:href="#mc68565d26d" x="0" y="709.545469" style="fill: #808080; fill-opacity: 0.2; stroke: #808080; stroke-opacity: 0.2"/>
    </g>
   </g>
   <g id="matplotlib.axis_1">
    <g id="xtick_1">
     <g id="line2d_1">
      <path d="M 243.696875 628.437656 
L 243.696875 18.597656 
" clip-path="url(#p754faf632c)" style="fill: none; stroke: #b0b0b0; stroke-width: 0.8; stroke-linecap: square"/>
     </g>
     <g id="line2d_2">
      <defs>
       <path id="mbaadc8b92f" d="M 0 0 
L 0 3.5 
" style="stroke: #000000; stroke-width: 0.8"/>
      </defs>
      <g>
       <use xlink:href="#mbaadc8b92f" x="243.696875" y="628.437656" style="stroke: #000000; stroke-width: 0.8"/>
      </g>
     </g>
     <g id="text_1">
      <!-- 0.0 -->
      <g transform="translate(219.842187 658.232969) scale(0.3 -0.3)">
       <defs>
        <path id="DejaVuSans-30" d="M 2034 4250 
Q 1547 4250 1301 3770 
Q 1056 3291 1056 2328 
Q 1056 1369 1301 889 
Q 1547 409 2034 409 
Q 2525 409 2770 889 
Q 3016 1369 3016 2328 
Q 3016 3291 2770 3770 
Q 2525 4250 2034 4250 
z
M 2034 4750 
Q 2819 4750 3233 4129 
Q 3647 3509 3647 2328 
Q 3647 1150 3233 529 
Q 2819 -91 2034 -91 
Q 1250 -91 836 529 
Q 422 1150 422 2328 
Q 422 3509 836 4129 
Q 1250 4750 2034 4750 
z
" transform="scale(0.015625)"/>
        <path id="DejaVuSans-2e" d="M 684 794 
L 1344 794 
L 1344 0 
L 684 0 
L 684 794 
z
" transform="scale(0.015625)"/>
       </defs>
       <use xlink:href="#DejaVuSans-30"/>
       <use xlink:href="#DejaVuSans-2e" transform="translate(63.623047 0)"/>
       <use xlink:href="#DejaVuSans-30" transform="translate(95.410156 0)"/>
      </g>
     </g>
    </g>
    <g id="xtick_2">
     <g id="line2d_3">
      <path d="M 378.030208 628.437656 
L 378.030208 18.597656 
" clip-path="url(#p754faf632c)" style="fill: none; stroke: #b0b0b0; stroke-width: 0.8; stroke-linecap: square"/>
     </g>
     <g id="line2d_4">
      <g>
       <use xlink:href="#mbaadc8b92f" x="378.030208" y="628.437656" style="stroke: #000000; stroke-width: 0.8"/>
      </g>
     </g>
     <g id="text_2">
      <!-- 0.1 -->
      <g transform="translate(354.175521 658.232969) scale(0.3 -0.3)">
       <defs>
        <path id="DejaVuSans-31" d="M 794 531 
L 1825 531 
L 1825 4091 
L 703 3866 
L 703 4441 
L 1819 4666 
L 2450 4666 
L 2450 531 
L 3481 531 
L 3481 0 
L 794 0 
L 794 531 
z
" transform="scale(0.015625)"/>
       </defs>
       <use xlink:href="#DejaVuSans-30"/>
       <use xlink:href="#DejaVuSans-2e" transform="translate(63.623047 0)"/>
       <use xlink:href="#DejaVuSans-31" transform="translate(95.410156 0)"/>
      </g>
     </g>
    </g>
    <g id="xtick_3">
     <g id="line2d_5">
      <path d="M 512.363542 628.437656 
L 512.363542 18.597656 
" clip-path="url(#p754faf632c)" style="fill: none; stroke: #b0b0b0; stroke-width: 0.8; stroke-linecap: square"/>
     </g>
     <g id="line2d_6">
      <g>
       <use xlink:href="#mbaadc8b92f" x="512.363542" y="628.437656" style="stroke: #000000; stroke-width: 0.8"/>
      </g>
     </g>
     <g id="text_3">
      <!-- 0.2 -->
      <g transform="translate(488.508854 658.232969) scale(0.3 -0.3)">
       <defs>
        <path id="DejaVuSans-32" d="M 1228 531 
L 3431 531 
L 3431 0 
L 469 0 
L 469 531 
Q 828 903 1448 1529 
Q 2069 2156 2228 2338 
Q 2531 2678 2651 2914 
Q 2772 3150 2772 3378 
Q 2772 3750 2511 3984 
Q 2250 4219 1831 4219 
Q 1534 4219 1204 4116 
Q 875 4013 500 3803 
L 500 4441 
Q 881 4594 1212 4672 
Q 1544 4750 1819 4750 
Q 2544 4750 2975 4387 
Q 3406 4025 3406 3419 
Q 3406 3131 3298 2873 
Q 3191 2616 2906 2266 
Q 2828 2175 2409 1742 
Q 1991 1309 1228 531 
z
" transform="scale(0.015625)"/>
       </defs>
       <use xlink:href="#DejaVuSans-30"/>
       <use xlink:href="#DejaVuSans-2e" transform="translate(63.623047 0)"/>
       <use xlink:href="#DejaVuSans-32" transform="translate(95.410156 0)"/>
      </g>
     </g>
    </g>
    <g id="xtick_4">
     <g id="line2d_7">
      <path d="M 646.696875 628.437656 
L 646.696875 18.597656 
" clip-path="url(#p754faf632c)" style="fill: none; stroke: #b0b0b0; stroke-width: 0.8; stroke-linecap: square"/>
     </g>
     <g id="line2d_8">
      <g>
       <use xlink:href="#mbaadc8b92f" x="646.696875" y="628.437656" style="stroke: #000000; stroke-width: 0.8"/>
      </g>
     </g>
     <g id="text_4">
      <!-- 0.3 -->
      <g transform="translate(622.842187 658.232969) scale(0.3 -0.3)">
       <defs>
        <path id="DejaVuSans-33" d="M 2597 2516 
Q 3050 2419 3304 2112 
Q 3559 1806 3559 1356 
Q 3559 666 3084 287 
Q 2609 -91 1734 -91 
Q 1441 -91 1130 -33 
Q 819 25 488 141 
L 488 750 
Q 750 597 1062 519 
Q 1375 441 1716 441 
Q 2309 441 2620 675 
Q 2931 909 2931 1356 
Q 2931 1769 2642 2001 
Q 2353 2234 1838 2234 
L 1294 2234 
L 1294 2753 
L 1863 2753 
Q 2328 2753 2575 2939 
Q 2822 3125 2822 3475 
Q 2822 3834 2567 4026 
Q 2313 4219 1838 4219 
Q 1578 4219 1281 4162 
Q 984 4106 628 3988 
L 628 4550 
Q 988 4650 1302 4700 
Q 1616 4750 1894 4750 
Q 2613 4750 3031 4423 
Q 3450 4097 3450 3541 
Q 3450 3153 3228 2886 
Q 3006 2619 2597 2516 
z
" transform="scale(0.015625)"/>
       </defs>
       <use xlink:href="#DejaVuSans-30"/>
       <use xlink:href="#DejaVuSans-2e" transform="translate(63.623047 0)"/>
       <use xlink:href="#DejaVuSans-33" transform="translate(95.410156 0)"/>
      </g>
     </g>
    </g>
    <g id="xtick_5">
     <g id="line2d_9">
      <path d="M 781.030208 628.437656 
L 781.030208 18.597656 
" clip-path="url(#p754faf632c)" style="fill: none; stroke: #b0b0b0; stroke-width: 0.8; stroke-linecap: square"/>
     </g>
     <g id="line2d_10">
      <g>
       <use xlink:href="#mbaadc8b92f" x="781.030208" y="628.437656" style="stroke: #000000; stroke-width: 0.8"/>
      </g>
     </g>
     <g id="text_5">
      <!-- 0.4 -->
      <g transform="translate(757.175521 658.232969) scale(0.3 -0.3)">
       <defs>
        <path id="DejaVuSans-34" d="M 2419 4116 
L 825 1625 
L 2419 1625 
L 2419 4116 
z
M 2253 4666 
L 3047 4666 
L 3047 1625 
L 3713 1625 
L 3713 1100 
L 3047 1100 
L 3047 0 
L 2419 0 
L 2419 1100 
L 313 1100 
L 313 1709 
L 2253 4666 
z
" transform="scale(0.015625)"/>
       </defs>
       <use xlink:href="#DejaVuSans-30"/>
       <use xlink:href="#DejaVuSans-2e" transform="translate(63.623047 0)"/>
       <use xlink:href="#DejaVuSans-34" transform="translate(95.410156 0)"/>
      </g>
     </g>
    </g>
    <g id="text_6">
     <!-- X coordinate [m] -->
     <g transform="translate(378.64375 695.066563) scale(0.35 -0.35)">
      <defs>
       <path id="DejaVuSans-58" d="M 403 4666 
L 1081 4666 
L 2241 2931 
L 3406 4666 
L 4084 4666 
L 2584 2425 
L 4184 0 
L 3506 0 
L 2194 1984 
L 872 0 
L 191 0 
L 1856 2491 
L 403 4666 
z
" transform="scale(0.015625)"/>
       <path id="DejaVuSans-20" transform="scale(0.015625)"/>
       <path id="DejaVuSans-63" d="M 3122 3366 
L 3122 2828 
Q 2878 2963 2633 3030 
Q 2388 3097 2138 3097 
Q 1578 3097 1268 2742 
Q 959 2388 959 1747 
Q 959 1106 1268 751 
Q 1578 397 2138 397 
Q 2388 397 2633 464 
Q 2878 531 3122 666 
L 3122 134 
Q 2881 22 2623 -34 
Q 2366 -91 2075 -91 
Q 1284 -91 818 406 
Q 353 903 353 1747 
Q 353 2603 823 3093 
Q 1294 3584 2113 3584 
Q 2378 3584 2631 3529 
Q 2884 3475 3122 3366 
z
" transform="scale(0.015625)"/>
       <path id="DejaVuSans-6f" d="M 1959 3097 
Q 1497 3097 1228 2736 
Q 959 2375 959 1747 
Q 959 1119 1226 758 
Q 1494 397 1959 397 
Q 2419 397 2687 759 
Q 2956 1122 2956 1747 
Q 2956 2369 2687 2733 
Q 2419 3097 1959 3097 
z
M 1959 3584 
Q 2709 3584 3137 3096 
Q 3566 2609 3566 1747 
Q 3566 888 3137 398 
Q 2709 -91 1959 -91 
Q 1206 -91 779 398 
Q 353 888 353 1747 
Q 353 2609 779 3096 
Q 1206 3584 1959 3584 
z
" transform="scale(0.015625)"/>
       <path id="DejaVuSans-72" d="M 2631 2963 
Q 2534 3019 2420 3045 
Q 2306 3072 2169 3072 
Q 1681 3072 1420 2755 
Q 1159 2438 1159 1844 
L 1159 0 
L 581 0 
L 581 3500 
L 1159 3500 
L 1159 2956 
Q 1341 3275 1631 3429 
Q 1922 3584 2338 3584 
Q 2397 3584 2469 3576 
Q 2541 3569 2628 3553 
L 2631 2963 
z
" transform="scale(0.015625)"/>
       <path id="DejaVuSans-64" d="M 2906 2969 
L 2906 4863 
L 3481 4863 
L 3481 0 
L 2906 0 
L 2906 525 
Q 2725 213 2448 61 
Q 2172 -91 1784 -91 
Q 1150 -91 751 415 
Q 353 922 353 1747 
Q 353 2572 751 3078 
Q 1150 3584 1784 3584 
Q 2172 3584 2448 3432 
Q 2725 3281 2906 2969 
z
M 947 1747 
Q 947 1113 1208 752 
Q 1469 391 1925 391 
Q 2381 391 2643 752 
Q 2906 1113 2906 1747 
Q 2906 2381 2643 2742 
Q 2381 3103 1925 3103 
Q 1469 3103 1208 2742 
Q 947 2381 947 1747 
z
" transform="scale(0.015625)"/>
       <path id="DejaVuSans-69" d="M 603 3500 
L 1178 3500 
L 1178 0 
L 603 0 
L 603 3500 
z
M 603 4863 
L 1178 4863 
L 1178 4134 
L 603 4134 
L 603 4863 
z
" transform="scale(0.015625)"/>
       <path id="DejaVuSans-6e" d="M 3513 2113 
L 3513 0 
L 2938 0 
L 2938 2094 
Q 2938 2591 2744 2837 
Q 2550 3084 2163 3084 
Q 1697 3084 1428 2787 
Q 1159 2491 1159 1978 
L 1159 0 
L 581 0 
L 581 3500 
L 1159 3500 
L 1159 2956 
Q 1366 3272 1645 3428 
Q 1925 3584 2291 3584 
Q 2894 3584 3203 3211 
Q 3513 2838 3513 2113 
z
" transform="scale(0.015625)"/>
       <path id="DejaVuSans-61" d="M 2194 1759 
Q 1497 1759 1228 1600 
Q 959 1441 959 1056 
Q 959 750 1161 570 
Q 1363 391 1709 391 
Q 2188 391 2477 730 
Q 2766 1069 2766 1631 
L 2766 1759 
L 2194 1759 
z
M 3341 1997 
L 3341 0 
L 2766 0 
L 2766 531 
Q 2569 213 2275 61 
Q 1981 -91 1556 -91 
Q 1019 -91 701 211 
Q 384 513 384 1019 
Q 384 1609 779 1909 
Q 1175 2209 1959 2209 
L 2766 2209 
L 2766 2266 
Q 2766 2663 2505 2880 
Q 2244 3097 1772 3097 
Q 1472 3097 1187 3025 
Q 903 2953 641 2809 
L 641 3341 
Q 956 3463 1253 3523 
Q 1550 3584 1831 3584 
Q 2591 3584 2966 3190 
Q 3341 2797 3341 1997 
z
" transform="scale(0.015625)"/>
       <path id="DejaVuSans-74" d="M 1172 4494 
L 1172 3500 
L 2356 3500 
L 2356 3053 
L 1172 3053 
L 1172 1153 
Q 1172 725 1289 603 
Q 1406 481 1766 481 
L 2356 481 
L 2356 0 
L 1766 0 
Q 1100 0 847 248 
Q 594 497 594 1153 
L 594 3053 
L 172 3053 
L 172 3500 
L 594 3500 
L 594 4494 
L 1172 4494 
z
" transform="scale(0.015625)"/>
       <path id="DejaVuSans-65" d="M 3597 1894 
L 3597 1613 
L 953 1613 
Q 991 1019 1311 708 
Q 1631 397 2203 397 
Q 2534 397 2845 478 
Q 3156 559 3463 722 
L 3463 178 
Q 3153 47 2828 -22 
Q 2503 -91 2169 -91 
Q 1331 -91 842 396 
Q 353 884 353 1716 
Q 353 2575 817 3079 
Q 1281 3584 2069 3584 
Q 2775 3584 3186 3129 
Q 3597 2675 3597 1894 
z
M 3022 2063 
Q 3016 2534 2758 2815 
Q 2500 3097 2075 3097 
Q 1594 3097 1305 2825 
Q 1016 2553 972 2059 
L 3022 2063 
z
" transform="scale(0.015625)"/>
       <path id="DejaVuSans-5b" d="M 550 4863 
L 1875 4863 
L 1875 4416 
L 1125 4416 
L 1125 -397 
L 1875 -397 
L 1875 -844 
L 550 -844 
L 550 4863 
z
" transform="scale(0.015625)"/>
       <path id="DejaVuSans-6d" d="M 3328 2828 
Q 3544 3216 3844 3400 
Q 4144 3584 4550 3584 
Q 5097 3584 5394 3201 
Q 5691 2819 5691 2113 
L 5691 0 
L 5113 0 
L 5113 2094 
Q 5113 2597 4934 2840 
Q 4756 3084 4391 3084 
Q 3944 3084 3684 2787 
Q 3425 2491 3425 1978 
L 3425 0 
L 2847 0 
L 2847 2094 
Q 2847 2600 2669 2842 
Q 2491 3084 2119 3084 
Q 1678 3084 1418 2786 
Q 1159 2488 1159 1978 
L 1159 0 
L 581 0 
L 581 3500 
L 1159 3500 
L 1159 2956 
Q 1356 3278 1631 3431 
Q 1906 3584 2284 3584 
Q 2666 3584 2933 3390 
Q 3200 3197 3328 2828 
z
" transform="scale(0.015625)"/>
       <path id="DejaVuSans-5d" d="M 1947 4863 
L 1947 -844 
L 622 -844 
L 622 -397 
L 1369 -397 
L 1369 4416 
L 622 4416 
L 622 4863 
L 1947 4863 
z
" transform="scale(0.015625)"/>
      </defs>
      <use xlink:href="#DejaVuSans-58"/>
      <use xlink:href="#DejaVuSans-20" transform="translate(68.505859 0)"/>
      <use xlink:href="#DejaVuSans-63" transform="translate(100.292969 0)"/>
      <use xlink:href="#DejaVuSans-6f" transform="translate(155.273438 0)"/>
      <use xlink:href="#DejaVuSans-6f" transform="translate(216.455078 0)"/>
      <use xlink:href="#DejaVuSans-72" transform="translate(277.636719 0)"/>
      <use xlink:href="#DejaVuSans-64" transform="translate(317 0)"/>
      <use xlink:href="#DejaVuSans-69" transform="translate(380.476562 0)"/>
      <use xlink:href="#DejaVuSans-6e" transform="translate(408.259766 0)"/>
      <use xlink:href="#DejaVuSans-61" transform="translate(471.638672 0)"/>
      <use xlink:href="#DejaVuSans-74" transform="translate(532.917969 0)"/>
      <use xlink:href="#DejaVuSans-65" transform="translate(572.126953 0)"/>
      <use xlink:href="#DejaVuSans-20" transform="translate(633.650391 0)"/>
      <use xlink:href="#DejaVuSans-5b" transform="translate(665.4375 0)"/>
      <use xlink:href="#DejaVuSans-6d" transform="translate(704.451172 0)"/>
      <use xlink:href="#DejaVuSans-5d" transform="translate(801.863281 0)"/>
     </g>
    </g>
   </g>
   <g id="matplotlib.axis_2">
    <g id="ytick_1">
     <g id="line2d_11">
      <path d="M 163.096875 628.437656 
L 888.496875 628.437656 
" clip-path="url(#p754faf632c)" style="fill: none; stroke: #b0b0b0; stroke-width: 0.8; stroke-linecap: square"/>
     </g>
     <g id="line2d_12">
      <defs>
       <path id="mc576b7e6c5" d="M 0 0 
L -3.5 0 
" style="stroke: #000000; stroke-width: 0.8"/>
      </defs>
      <g>
       <use xlink:href="#mc576b7e6c5" x="163.096875" y="628.437656" style="stroke: #000000; stroke-width: 0.8"/>
      </g>
     </g>
     <g id="text_7">
      <!-- 0.025 -->
      <g transform="translate(45.073438 639.835313) scale(0.3 -0.3)">
       <defs>
        <path id="DejaVuSans-2212" d="M 678 2272 
L 4684 2272 
L 4684 1741 
L 678 1741 
L 678 2272 
z
" transform="scale(0.015625)"/>
        <path id="DejaVuSans-35" d="M 691 4666 
L 3169 4666 
L 3169 4134 
L 1269 4134 
L 1269 2991 
Q 1406 3038 1543 3061 
Q 1681 3084 1819 3084 
Q 2600 3084 3056 2656 
Q 3513 2228 3513 1497 
Q 3513 744 3044 326 
Q 2575 -91 1722 -91 
Q 1428 -91 1123 -41 
Q 819 9 494 109 
L 494 744 
Q 775 591 1075 516 
Q 1375 441 1709 441 
Q 2250 441 2565 725 
Q 2881 1009 2881 1497 
Q 2881 1984 2565 2268 
Q 2250 2553 1709 2553 
Q 1456 2553 1204 2497 
Q 953 2441 691 2322 
L 691 4666 
z
" transform="scale(0.015625)"/>
       </defs>
       <use xlink:href="#DejaVuSans-2212"/>
       <use xlink:href="#DejaVuSans-30" transform="translate(83.789062 0)"/>
       <use xlink:href="#DejaVuSans-2e" transform="translate(147.412109 0)"/>
       <use xlink:href="#DejaVuSans-30" transform="translate(179.199219 0)"/>
       <use xlink:href="#DejaVuSans-32" transform="translate(242.822266 0)"/>
       <use xlink:href="#DejaVuSans-35" transform="translate(306.445312 0)"/>
      </g>
     </g>
    </g>
    <g id="ytick_2">
     <g id="line2d_13">
      <path d="M 163.096875 560.677656 
L 888.496875 560.677656 
" clip-path="url(#p754faf632c)" style="fill: none; stroke: #b0b0b0; stroke-width: 0.8; stroke-linecap: square"/>
     </g>
     <g id="line2d_14">
      <g>
       <use xlink:href="#mc576b7e6c5" x="163.096875" y="560.677656" style="stroke: #000000; stroke-width: 0.8"/>
      </g>
     </g>
     <g id="text_8">
      <!-- 0.000 -->
      <g transform="translate(70.2125 572.075313) scale(0.3 -0.3)">
       <use xlink:href="#DejaVuSans-30"/>
       <use xlink:href="#DejaVuSans-2e" transform="translate(63.623047 0)"/>
       <use xlink:href="#DejaVuSans-30" transform="translate(95.410156 0)"/>
       <use xlink:href="#DejaVuSans-30" transform="translate(159.033203 0)"/>
       <use xlink:href="#DejaVuSans-30" transform="translate(222.65625 0)"/>
      </g>
     </g>
    </g>
    <g id="ytick_3">
     <g id="line2d_15">
      <path d="M 163.096875 492.917656 
L 888.496875 492.917656 
" clip-path="url(#p754faf632c)" style="fill: none; stroke: #b0b0b0; stroke-width: 0.8; stroke-linecap: square"/>
     </g>
     <g id="line2d_16">
      <g>
       <use xlink:href="#mc576b7e6c5" x="163.096875" y="492.917656" style="stroke: #000000; stroke-width: 0.8"/>
      </g>
     </g>
     <g id="text_9">
      <!-- 0.025 -->
      <g transform="translate(70.2125 504.315313) scale(0.3 -0.3)">
       <use xlink:href="#DejaVuSans-30"/>
       <use xlink:href="#DejaVuSans-2e" transform="translate(63.623047 0)"/>
       <use xlink:href="#DejaVuSans-30" transform="translate(95.410156 0)"/>
       <use xlink:href="#DejaVuSans-32" transform="translate(159.033203 0)"/>
       <use xlink:href="#DejaVuSans-35" transform="translate(222.65625 0)"/>
      </g>
     </g>
    </g>
    <g id="ytick_4">
     <g id="line2d_17">
      <path d="M 163.096875 425.157656 
L 888.496875 425.157656 
" clip-path="url(#p754faf632c)" style="fill: none; stroke: #b0b0b0; stroke-width: 0.8; stroke-linecap: square"/>
     </g>
     <g id="line2d_18">
      <g>
       <use xlink:href="#mc576b7e6c5" x="163.096875" y="425.157656" style="stroke: #000000; stroke-width: 0.8"/>
      </g>
     </g>
     <g id="text_10">
      <!-- 0.050 -->
      <g transform="translate(70.2125 436.555313) scale(0.3 -0.3)">
       <use xlink:href="#DejaVuSans-30"/>
       <use xlink:href="#DejaVuSans-2e" transform="translate(63.623047 0)"/>
       <use xlink:href="#DejaVuSans-30" transform="translate(95.410156 0)"/>
       <use xlink:href="#DejaVuSans-35" transform="translate(159.033203 0)"/>
       <use xlink:href="#DejaVuSans-30" transform="translate(222.65625 0)"/>
      </g>
     </g>
    </g>
    <g id="ytick_5">
     <g id="line2d_19">
      <path d="M 163.096875 357.397656 
L 888.496875 357.397656 
" clip-path="url(#p754faf632c)" style="fill: none; stroke: #b0b0b0; stroke-width: 0.8; stroke-linecap: square"/>
     </g>
     <g id="line2d_20">
      <g>
       <use xlink:href="#mc576b7e6c5" x="163.096875" y="357.397656" style="stroke: #000000; stroke-width: 0.8"/>
      </g>
     </g>
     <g id="text_11">
      <!-- 0.075 -->
      <g transform="translate(70.2125 368.795313) scale(0.3 -0.3)">
       <defs>
        <path id="DejaVuSans-37" d="M 525 4666 
L 3525 4666 
L 3525 4397 
L 1831 0 
L 1172 0 
L 2766 4134 
L 525 4134 
L 525 4666 
z
" transform="scale(0.015625)"/>
       </defs>
       <use xlink:href="#DejaVuSans-30"/>
       <use xlink:href="#DejaVuSans-2e" transform="translate(63.623047 0)"/>
       <use xlink:href="#DejaVuSans-30" transform="translate(95.410156 0)"/>
       <use xlink:href="#DejaVuSans-37" transform="translate(159.033203 0)"/>
       <use xlink:href="#DejaVuSans-35" transform="translate(222.65625 0)"/>
      </g>
     </g>
    </g>
    <g id="ytick_6">
     <g id="line2d_21">
      <path d="M 163.096875 289.637656 
L 888.496875 289.637656 
" clip-path="url(#p754faf632c)" style="fill: none; stroke: #b0b0b0; stroke-width: 0.8; stroke-linecap: square"/>
     </g>
     <g id="line2d_22">
      <g>
       <use xlink:href="#mc576b7e6c5" x="163.096875" y="289.637656" style="stroke: #000000; stroke-width: 0.8"/>
      </g>
     </g>
     <g id="text_12">
      <!-- 0.100 -->
      <g transform="translate(70.2125 301.035313) scale(0.3 -0.3)">
       <use xlink:href="#DejaVuSans-30"/>
       <use xlink:href="#DejaVuSans-2e" transform="translate(63.623047 0)"/>
       <use xlink:href="#DejaVuSans-31" transform="translate(95.410156 0)"/>
       <use xlink:href="#DejaVuSans-30" transform="translate(159.033203 0)"/>
       <use xlink:href="#DejaVuSans-30" transform="translate(222.65625 0)"/>
      </g>
     </g>
    </g>
    <g id="ytick_7">
     <g id="line2d_23">
      <path d="M 163.096875 221.877656 
L 888.496875 221.877656 
" clip-path="url(#p754faf632c)" style="fill: none; stroke: #b0b0b0; stroke-width: 0.8; stroke-linecap: square"/>
     </g>
     <g id="line2d_24">
      <g>
       <use xlink:href="#mc576b7e6c5" x="163.096875" y="221.877656" style="stroke: #000000; stroke-width: 0.8"/>
      </g>
     </g>
     <g id="text_13">
      <!-- 0.125 -->
      <g transform="translate(70.2125 233.275312) scale(0.3 -0.3)">
       <use xlink:href="#DejaVuSans-30"/>
       <use xlink:href="#DejaVuSans-2e" transform="translate(63.623047 0)"/>
       <use xlink:href="#DejaVuSans-31" transform="translate(95.410156 0)"/>
       <use xlink:href="#DejaVuSans-32" transform="translate(159.033203 0)"/>
       <use xlink:href="#DejaVuSans-35" transform="translate(222.65625 0)"/>
      </g>
     </g>
    </g>
    <g id="ytick_8">
     <g id="line2d_25">
      <path d="M 163.096875 154.117656 
L 888.496875 154.117656 
" clip-path="url(#p754faf632c)" style="fill: none; stroke: #b0b0b0; stroke-width: 0.8; stroke-linecap: square"/>
     </g>
     <g id="line2d_26">
      <g>
       <use xlink:href="#mc576b7e6c5" x="163.096875" y="154.117656" style="stroke: #000000; stroke-width: 0.8"/>
      </g>
     </g>
     <g id="text_14">
      <!-- 0.150 -->
      <g transform="translate(70.2125 165.515312) scale(0.3 -0.3)">
       <use xlink:href="#DejaVuSans-30"/>
       <use xlink:href="#DejaVuSans-2e" transform="translate(63.623047 0)"/>
       <use xlink:href="#DejaVuSans-31" transform="translate(95.410156 0)"/>
       <use xlink:href="#DejaVuSans-35" transform="translate(159.033203 0)"/>
       <use xlink:href="#DejaVuSans-30" transform="translate(222.65625 0)"/>
      </g>
     </g>
    </g>
    <g id="ytick_9">
     <g id="line2d_27">
      <path d="M 163.096875 86.357656 
L 888.496875 86.357656 
" clip-path="url(#p754faf632c)" style="fill: none; stroke: #b0b0b0; stroke-width: 0.8; stroke-linecap: square"/>
     </g>
     <g id="line2d_28">
      <g>
       <use xlink:href="#mc576b7e6c5" x="163.096875" y="86.357656" style="stroke: #000000; stroke-width: 0.8"/>
      </g>
     </g>
     <g id="text_15">
      <!-- 0.175 -->
      <g transform="translate(70.2125 97.755312) scale(0.3 -0.3)">
       <use xlink:href="#DejaVuSans-30"/>
       <use xlink:href="#DejaVuSans-2e" transform="translate(63.623047 0)"/>
       <use xlink:href="#DejaVuSans-31" transform="translate(95.410156 0)"/>
       <use xlink:href="#DejaVuSans-37" transform="translate(159.033203 0)"/>
       <use xlink:href="#DejaVuSans-35" transform="translate(222.65625 0)"/>
      </g>
     </g>
    </g>
    <g id="ytick_10">
     <g id="line2d_29">
      <path d="M 163.096875 18.597656 
L 888.496875 18.597656 
" clip-path="url(#p754faf632c)" style="fill: none; stroke: #b0b0b0; stroke-width: 0.8; stroke-linecap: square"/>
     </g>
     <g id="line2d_30">
      <g>
       <use xlink:href="#mc576b7e6c5" x="163.096875" y="18.597656" style="stroke: #000000; stroke-width: 0.8"/>
      </g>
     </g>
     <g id="text_16">
      <!-- 0.200 -->
      <g transform="translate(70.2125 29.995312) scale(0.3 -0.3)">
       <use xlink:href="#DejaVuSans-30"/>
       <use xlink:href="#DejaVuSans-2e" transform="translate(63.623047 0)"/>
       <use xlink:href="#DejaVuSans-32" transform="translate(95.410156 0)"/>
       <use xlink:href="#DejaVuSans-30" transform="translate(159.033203 0)"/>
       <use xlink:href="#DejaVuSans-30" transform="translate(222.65625 0)"/>
      </g>
     </g>
    </g>
    <g id="text_17">
     <!-- Mass fraction Y [-] -->
     <g transform="translate(33.794531 482.13875) rotate(-90) scale(0.35 -0.35)">
      <defs>
       <path id="DejaVuSans-4d" d="M 628 4666 
L 1569 4666 
L 2759 1491 
L 3956 4666 
L 4897 4666 
L 4897 0 
L 4281 0 
L 4281 4097 
L 3078 897 
L 2444 897 
L 1241 4097 
L 1241 0 
L 628 0 
L 628 4666 
z
" transform="scale(0.015625)"/>
       <path id="DejaVuSans-73" d="M 2834 3397 
L 2834 2853 
Q 2591 2978 2328 3040 
Q 2066 3103 1784 3103 
Q 1356 3103 1142 2972 
Q 928 2841 928 2578 
Q 928 2378 1081 2264 
Q 1234 2150 1697 2047 
L 1894 2003 
Q 2506 1872 2764 1633 
Q 3022 1394 3022 966 
Q 3022 478 2636 193 
Q 2250 -91 1575 -91 
Q 1294 -91 989 -36 
Q 684 19 347 128 
L 347 722 
Q 666 556 975 473 
Q 1284 391 1588 391 
Q 1994 391 2212 530 
Q 2431 669 2431 922 
Q 2431 1156 2273 1281 
Q 2116 1406 1581 1522 
L 1381 1569 
Q 847 1681 609 1914 
Q 372 2147 372 2553 
Q 372 3047 722 3315 
Q 1072 3584 1716 3584 
Q 2034 3584 2315 3537 
Q 2597 3491 2834 3397 
z
" transform="scale(0.015625)"/>
       <path id="DejaVuSans-66" d="M 2375 4863 
L 2375 4384 
L 1825 4384 
Q 1516 4384 1395 4259 
Q 1275 4134 1275 3809 
L 1275 3500 
L 2222 3500 
L 2222 3053 
L 1275 3053 
L 1275 0 
L 697 0 
L 697 3053 
L 147 3053 
L 147 3500 
L 697 3500 
L 697 3744 
Q 697 4328 969 4595 
Q 1241 4863 1831 4863 
L 2375 4863 
z
" transform="scale(0.015625)"/>
       <path id="DejaVuSans-59" d="M -13 4666 
L 666 4666 
L 1959 2747 
L 3244 4666 
L 3922 4666 
L 2272 2222 
L 2272 0 
L 1638 0 
L 1638 2222 
L -13 4666 
z
" transform="scale(0.015625)"/>
       <path id="DejaVuSans-2d" d="M 313 2009 
L 1997 2009 
L 1997 1497 
L 313 1497 
L 313 2009 
z
" transform="scale(0.015625)"/>
      </defs>
      <use xlink:href="#DejaVuSans-4d"/>
      <use xlink:href="#DejaVuSans-61" transform="translate(86.279297 0)"/>
      <use xlink:href="#DejaVuSans-73" transform="translate(147.558594 0)"/>
      <use xlink:href="#DejaVuSans-73" transform="translate(199.658203 0)"/>
      <use xlink:href="#DejaVuSans-20" transform="translate(251.757812 0)"/>
      <use xlink:href="#DejaVuSans-66" transform="translate(283.544922 0)"/>
      <use xlink:href="#DejaVuSans-72" transform="translate(318.75 0)"/>
      <use xlink:href="#DejaVuSans-61" transform="translate(359.863281 0)"/>
      <use xlink:href="#DejaVuSans-63" transform="translate(421.142578 0)"/>
      <use xlink:href="#DejaVuSans-74" transform="translate(476.123047 0)"/>
      <use xlink:href="#DejaVuSans-69" transform="translate(515.332031 0)"/>
      <use xlink:href="#DejaVuSans-6f" transform="translate(543.115234 0)"/>
      <use xlink:href="#DejaVuSans-6e" transform="translate(604.296875 0)"/>
      <use xlink:href="#DejaVuSans-20" transform="translate(667.675781 0)"/>
      <use xlink:href="#DejaVuSans-59" transform="translate(699.462891 0)"/>
      <use xlink:href="#DejaVuSans-20" transform="translate(760.546875 0)"/>
      <use xlink:href="#DejaVuSans-5b" transform="translate(792.333984 0)"/>
      <use xlink:href="#DejaVuSans-2d" transform="translate(831.347656 0)"/>
      <use xlink:href="#DejaVuSans-5d" transform="translate(867.431641 0)"/>
     </g>
    </g>
   </g>
   <g id="line2d_31">
    <path d="M 176.530208 560.677656 
L 398.792315 560.581756 
L 454.44803 560.301905 
L 486.681487 559.993759 
L 493.029131 559.74149 
L 503.218174 558.841138 
L 518.889285 557.03848 
L 523.838058 556.764112 
L 528.78683 556.743837 
L 535.385193 556.999443 
L 546.905166 557.547081 
L 555.472696 557.680041 
L 568.526845 557.638623 
L 598.556907 557.43663 
L 633.884556 557.538536 
L 669.515716 557.627495 
L 687.331295 557.49313 
L 760.436489 556.504542 
L 810.811489 556.065831 
L 877.978155 555.821406 
L 894.769822 555.809881 
L 894.769822 555.809881 
" clip-path="url(#p754faf632c)" style="fill: none; stroke: #0000ff; stroke-width: 3; stroke-linecap: square"/>
   </g>
   <g id="line2d_32">
    <path d="M 176.530208 560.677656 
L 409.64283 560.579707 
L 469.477453 560.307352 
L 486.681487 560.118045 
L 491.577618 559.92675 
L 493.029131 559.781101 
L 494.169898 559.554902 
L 495.300933 559.205846 
L 496.431967 558.64136 
L 497.563002 557.758603 
L 498.694036 556.384803 
L 499.82507 554.332876 
L 500.956105 551.424422 
L 502.087139 547.622297 
L 503.218174 542.925091 
L 504.042969 537.509138 
L 504.867764 531.056477 
L 505.69256 523.723285 
L 507.34215 505.505867 
L 508.991741 483.999778 
L 513.115718 427.957501 
L 515.590104 398.037724 
L 517.239695 380.487759 
L 518.889285 365.032227 
L 520.538876 351.641212 
L 522.188467 340.279965 
L 523.838058 330.445666 
L 526.312444 317.342302 
L 527.962034 309.694679 
L 529.611625 303.052906 
L 531.261216 297.156155 
L 533.735602 289.484771 
L 536.209988 282.824285 
L 537.859579 278.928892 
L 539.509169 275.744121 
L 540.342411 274.496704 
L 541.227375 273.447368 
L 542.190012 272.631539 
L 543.227953 271.98577 
L 544.355468 271.506236 
L 545.579294 271.232967 
L 546.905166 271.073615 
L 549.909374 271.224104 
L 553.46067 271.802503 
L 557.661791 272.530017 
L 560.044517 272.849866 
L 562.637941 273.033496 
L 565.457902 273.08067 
L 568.526845 272.878434 
L 571.86174 272.448498 
L 575.485561 271.765257 
L 579.417239 270.785737 
L 588.279555 268.241478 
L 593.238954 266.794885 
L 604.216454 263.245789 
L 610.13045 260.884843 
L 616.068977 257.643187 
L 622.007503 253.562861 
L 627.94603 248.666477 
L 633.884556 243.136471 
L 639.823083 237.190936 
L 663.577189 212.314163 
L 669.515716 206.426018 
L 675.454242 200.860859 
L 681.392769 195.661063 
L 687.331295 190.838049 
L 693.269822 186.573375 
L 701.665655 182.641834 
L 710.061489 179.299772 
L 718.457322 176.369921 
L 726.853155 173.929608 
L 735.248989 171.922595 
L 743.644822 170.329618 
L 752.040655 169.067181 
L 760.436489 168.07847 
L 768.832322 167.308541 
L 777.228155 166.708791 
L 794.019822 165.865612 
L 810.811489 165.301317 
L 835.998989 164.76813 
L 861.186489 164.477762 
L 894.769822 164.357163 
L 894.769822 164.357163 
" clip-path="url(#p754faf632c)" style="fill: none; stroke: #008000; stroke-width: 3; stroke-linecap: square"/>
   </g>
   <g id="line2d_33">
    <path d="M 176.530208 560.677656 
L 482.667231 560.573962 
L 491.577618 560.369224 
L 494.169898 560.073031 
L 496.431967 559.514591 
L 497.563002 559.077518 
L 498.694036 558.486015 
L 499.82507 557.683628 
L 500.956105 556.585512 
L 502.087139 555.087331 
L 503.218174 553.008895 
L 504.042969 550.733436 
L 504.867764 548.109245 
L 505.69256 544.419834 
L 506.517355 539.352034 
L 511.466127 503.673216 
L 514.765309 482.774317 
L 517.239695 468.949895 
L 518.889285 460.503795 
L 520.538876 453.104561 
L 522.188467 446.55344 
L 524.662853 437.909194 
L 527.137239 430.320954 
L 528.78683 425.904745 
L 530.43642 422.059453 
L 532.086011 418.606454 
L 533.735602 415.547707 
L 535.385193 412.806388 
L 537.034783 410.33481 
L 538.684374 408.275902 
L 540.342411 406.727307 
L 541.227375 406.163469 
L 542.190012 405.714561 
L 543.227953 405.389703 
L 544.355468 405.187489 
L 545.579294 405.097953 
L 548.344276 405.295343 
L 551.610774 405.903815 
L 568.526845 409.602332 
L 575.485561 410.830159 
L 583.67609 412.035151 
L 604.216454 414.703586 
L 610.13045 415.301263 
L 627.94603 416.682056 
L 633.884556 416.837363 
L 639.823083 416.784796 
L 651.700136 416.423056 
L 669.515716 416.119445 
L 675.454242 416.204374 
L 687.331295 416.761216 
L 701.665655 416.997731 
L 726.853155 416.447513 
L 743.644822 416.422127 
L 768.832322 416.676853 
L 827.603155 417.321607 
L 886.373989 417.564017 
L 894.769822 417.574083 
L 894.769822 417.574083 
" clip-path="url(#p754faf632c)" style="fill: none; stroke: #ffa500; stroke-width: 3; stroke-linecap: square"/>
   </g>
   <g id="line2d_34">
    <path d="M 170.342121 560.677656 
L 177.59621 560.677656 
L 184.850298 560.677656 
L 192.104387 560.677656 
L 199.358475 560.677656 
L 206.612563 560.677656 
L 213.866652 560.677656 
L 221.12074 560.677656 
L 228.374829 560.677656 
L 235.628917 560.677656 
L 242.883006 560.677656 
L 250.137094 560.677656 
L 257.391182 560.677656 
L 264.645271 560.677656 
L 271.899359 560.677656 
L 279.153448 560.677656 
L 286.407536 560.677657 
L 293.661625 560.677659 
L 300.915713 560.677667 
L 308.169801 560.677693 
L 315.42389 560.677755 
L 322.677978 560.677882 
L 329.932067 560.678109 
L 337.186155 560.678476 
L 344.440243 560.67903 
L 351.694332 560.679804 
L 358.94842 560.680819 
L 366.202509 560.682079 
L 373.456597 560.683587 
L 380.710686 560.685278 
L 387.964774 560.68708 
L 395.218862 560.68888 
L 402.472951 560.690533 
L 409.727039 560.691841 
L 416.981128 560.69243 
L 424.235216 560.692085 
L 431.489304 560.690432 
L 438.743393 560.687033 
L 445.997481 560.681255 
L 453.25157 560.672583 
L 460.505658 560.659985 
L 467.759747 560.642701 
L 475.013835 560.618326 
L 482.267923 560.576587 
L 489.522012 560.459625 
L 496.7761 559.381606 
L 504.030189 593.390225 
L 511.284277 589.602071 
L 518.538366 571.081507 
L 525.792454 560.205446 
L 533.046542 553.69971 
L 540.300631 553.995406 
L 547.554719 558.107011 
L 554.808808 560.044248 
L 562.062896 560.775635 
L 569.316984 560.745822 
L 576.571073 559.875327 
L 583.825161 559.611683 
L 591.07925 560.119054 
L 598.333338 561.196876 
L 605.587427 562.268461 
L 612.841515 563.185087 
L 620.095603 564.202288 
L 627.349692 565.22667 
L 634.60378 565.953514 
L 641.857869 566.254635 
L 649.111957 566.222446 
L 656.366046 565.9564 
L 663.620134 565.360981 
L 670.874222 564.526035 
L 678.128311 563.570668 
L 685.382399 562.525271 
L 692.636488 562.129149 
L 699.890576 561.193529 
L 707.144664 560.482428 
L 714.398753 559.836594 
L 721.652841 559.26717 
L 728.90693 558.78567 
L 736.161018 558.403944 
L 743.415107 558.111512 
L 750.669195 557.86007 
L 757.923283 557.638717 
L 765.177372 557.443847 
L 772.43146 557.262412 
L 779.685549 557.083733 
L 786.939637 556.904497 
L 794.193726 556.727205 
L 801.447814 556.561376 
L 808.701902 556.389313 
L 815.955991 556.210608 
L 823.210079 556.023356 
L 830.464168 555.822206 
L 837.718256 555.605485 
L 844.972344 555.381362 
L 852.226433 555.144691 
L 859.480521 554.906901 
L 866.73461 554.674119 
L 873.988698 554.499613 
L 881.242787 554.360321 
L 888.496875 554.244078 
" clip-path="url(#p754faf632c)" style="fill: none; stroke: #808080; stroke-width: 3; stroke-linecap: square"/>
   </g>
   <g id="patch_3">
    <path d="M 163.096875 628.437656 
L 163.096875 18.597656 
" style="fill: none; stroke: #000000; stroke-width: 0.8; stroke-linejoin: miter; stroke-linecap: square"/>
   </g>
   <g id="patch_4">
    <path d="M 888.496875 628.437656 
L 888.496875 18.597656 
" style="fill: none; stroke: #000000; stroke-width: 0.8; stroke-linejoin: miter; stroke-linecap: square"/>
   </g>
   <g id="patch_5">
    <path d="M 163.096875 628.437656 
L 888.496875 628.437656 
" style="fill: none; stroke: #000000; stroke-width: 0.8; stroke-linejoin: miter; stroke-linecap: square"/>
   </g>
   <g id="patch_6">
    <path d="M 163.096875 18.597656 
L 888.496875 18.597656 
" style="fill: none; stroke: #000000; stroke-width: 0.8; stroke-linejoin: miter; stroke-linecap: square"/>
   </g>
   <g id="legend_1">
    <g id="patch_7">
     <path d="M 182.696875 328.872656 
L 557.896875 328.872656 
Q 563.496875 328.872656 563.496875 323.272656 
L 563.496875 38.197656 
Q 563.496875 32.597656 557.896875 32.597656 
L 182.696875 32.597656 
Q 177.096875 32.597656 177.096875 38.197656 
L 177.096875 323.272656 
Q 177.096875 328.872656 182.696875 328.872656 
z
" style="fill: #ffffff; opacity: 0.8; stroke: #cccccc; stroke-linejoin: miter"/>
    </g>
    <g id="patch_8">
     <path d="M 188.296875 65.073281 
L 244.296875 65.073281 
L 244.296875 45.473281 
L 188.296875 45.473281 
z
" style="fill: #99ccff; fill-opacity: 0.7"/>
    </g>
    <g id="text_18">
     <!-- 1$\sigma$[$YN$] -->
     <g transform="translate(266.696875 65.073281) scale(0.28 -0.28)">
      <defs>
       <path id="DejaVuSans-Oblique-3c3" d="M 2219 3044 
Q 1744 3044 1422 2700 
Q 1081 2341 969 1747 
Q 844 1119 1044 756 
Q 1241 397 1706 397 
Q 2166 397 2503 759 
Q 2844 1122 2966 1747 
Q 3075 2319 2881 2700 
Q 2700 3044 2219 3044 
z
M 2309 3503 
L 4219 3500 
L 4106 2925 
L 3463 2925 
Q 3706 2438 3575 1747 
Q 3406 888 2884 400 
Q 2359 -91 1609 -91 
Q 856 -91 525 400 
Q 194 888 363 1747 
Q 528 2609 1050 3097 
Q 1484 3503 2309 3503 
z
" transform="scale(0.015625)"/>
       <path id="DejaVuSans-Oblique-59" d="M 403 4666 
L 1081 4666 
L 1953 2747 
L 3616 4666 
L 4325 4666 
L 2209 2222 
L 1778 0 
L 1147 0 
L 1575 2222 
L 403 4666 
z
" transform="scale(0.015625)"/>
       <path id="DejaVuSans-Oblique-4e" d="M 1081 4666 
L 1931 4666 
L 3219 666 
L 4000 4666 
L 4616 4666 
L 3706 0 
L 2853 0 
L 1569 4025 
L 788 0 
L 172 0 
L 1081 4666 
z
" transform="scale(0.015625)"/>
      </defs>
      <use xlink:href="#DejaVuSans-31" transform="translate(0 0.015625)"/>
      <use xlink:href="#DejaVuSans-Oblique-3c3" transform="translate(63.623047 0.015625)"/>
      <use xlink:href="#DejaVuSans-5b" transform="translate(127.001953 0.015625)"/>
      <use xlink:href="#DejaVuSans-Oblique-59" transform="translate(166.015625 0.015625)"/>
      <use xlink:href="#DejaVuSans-Oblique-4e" transform="translate(227.099609 0.015625)"/>
      <use xlink:href="#DejaVuSans-5d" transform="translate(301.904297 0.015625)"/>
     </g>
    </g>
    <g id="line2d_35">
     <path d="M 188.296875 96.376406 
L 216.296875 96.376406 
L 244.296875 96.376406 
" style="fill: none; stroke: #0000ff; stroke-width: 3; stroke-linecap: square"/>
    </g>
    <g id="text_19">
     <!-- $\mu$[$YN$] -->
     <g transform="translate(266.696875 106.176406) scale(0.28 -0.28)">
      <defs>
       <path id="DejaVuSans-Oblique-3bc" d="M -84 -1331 
L 856 3500 
L 1434 3500 
L 1009 1322 
Q 997 1256 987 1175 
Q 978 1094 978 1013 
Q 978 722 1161 565 
Q 1344 409 1684 409 
Q 2147 409 2431 671 
Q 2716 934 2816 1459 
L 3213 3500 
L 3788 3500 
L 3266 809 
Q 3253 750 3248 706 
Q 3244 663 3244 628 
Q 3244 531 3283 486 
Q 3322 441 3406 441 
Q 3438 441 3492 456 
Q 3547 472 3647 513 
L 3559 50 
Q 3422 -19 3297 -55 
Q 3172 -91 3053 -91 
Q 2847 -91 2730 40 
Q 2613 172 2613 403 
Q 2438 153 2195 31 
Q 1953 -91 1625 -91 
Q 1334 -91 1117 43 
Q 900 178 831 397 
L 494 -1331 
L -84 -1331 
z
" transform="scale(0.015625)"/>
      </defs>
      <use xlink:href="#DejaVuSans-Oblique-3bc" transform="translate(0 0.015625)"/>
      <use xlink:href="#DejaVuSans-5b" transform="translate(63.623047 0.015625)"/>
      <use xlink:href="#DejaVuSans-Oblique-59" transform="translate(102.636719 0.015625)"/>
      <use xlink:href="#DejaVuSans-Oblique-4e" transform="translate(163.720703 0.015625)"/>
      <use xlink:href="#DejaVuSans-5d" transform="translate(238.525391 0.015625)"/>
     </g>
    </g>
    <g id="patch_9">
     <path d="M 188.296875 147.332031 
L 244.296875 147.332031 
L 244.296875 127.732031 
L 188.296875 127.732031 
z
" style="fill: #008000; fill-opacity: 0.2"/>
    </g>
    <g id="text_20">
     <!-- 1$\sigma$[$YO$] -->
     <g transform="translate(266.696875 147.332031) scale(0.28 -0.28)">
      <defs>
       <path id="DejaVuSans-Oblique-4f" d="M 2919 4238 
Q 2400 4238 2003 3986 
Q 1606 3734 1313 3219 
Q 1125 2891 1026 2522 
Q 928 2153 928 1778 
Q 928 1128 1239 775 
Q 1550 422 2119 422 
Q 2631 422 3032 676 
Q 3434 931 3719 1434 
Q 3909 1772 4009 2142 
Q 4109 2513 4109 2881 
Q 4109 3528 3796 3883 
Q 3484 4238 2919 4238 
z
M 2100 -91 
Q 1241 -91 748 418 
Q 256 928 256 1813 
Q 256 2319 448 2847 
Q 641 3375 978 3788 
Q 1375 4272 1862 4511 
Q 2350 4750 2938 4750 
Q 3794 4750 4287 4245 
Q 4781 3741 4781 2869 
Q 4781 2331 4593 1812 
Q 4406 1294 4056 872 
Q 3656 384 3173 146 
Q 2691 -91 2100 -91 
z
" transform="scale(0.015625)"/>
      </defs>
      <use xlink:href="#DejaVuSans-31" transform="translate(0 0.015625)"/>
      <use xlink:href="#DejaVuSans-Oblique-3c3" transform="translate(63.623047 0.015625)"/>
      <use xlink:href="#DejaVuSans-5b" transform="translate(127.001953 0.015625)"/>
      <use xlink:href="#DejaVuSans-Oblique-59" transform="translate(166.015625 0.015625)"/>
      <use xlink:href="#DejaVuSans-Oblique-4f" transform="translate(227.099609 0.015625)"/>
      <use xlink:href="#DejaVuSans-5d" transform="translate(305.810547 0.015625)"/>
     </g>
    </g>
    <g id="patch_10">
     <path d="M 188.296875 188.430781 
L 244.296875 188.430781 
L 244.296875 168.830781 
L 188.296875 168.830781 
z
" style="fill: #ffa500; fill-opacity: 0.2"/>
    </g>
    <g id="text_21">
     <!-- 1$\sigma$[$YNO$] -->
     <g transform="translate(266.696875 188.430781) scale(0.28 -0.28)">
      <use xlink:href="#DejaVuSans-31" transform="translate(0 0.015625)"/>
      <use xlink:href="#DejaVuSans-Oblique-3c3" transform="translate(63.623047 0.015625)"/>
      <use xlink:href="#DejaVuSans-5b" transform="translate(127.001953 0.015625)"/>
      <use xlink:href="#DejaVuSans-Oblique-59" transform="translate(166.015625 0.015625)"/>
      <use xlink:href="#DejaVuSans-Oblique-4e" transform="translate(227.099609 0.015625)"/>
      <use xlink:href="#DejaVuSans-Oblique-4f" transform="translate(301.904297 0.015625)"/>
      <use xlink:href="#DejaVuSans-5d" transform="translate(380.615234 0.015625)"/>
     </g>
    </g>
    <g id="line2d_36">
     <path d="M 188.296875 219.733906 
L 216.296875 219.733906 
L 244.296875 219.733906 
" style="fill: none; stroke: #ffa500; stroke-width: 3; stroke-linecap: square"/>
    </g>
    <g id="text_22">
     <!-- $\mu$[$YNO$] -->
     <g transform="translate(266.696875 229.533906) scale(0.28 -0.28)">
      <use xlink:href="#DejaVuSans-Oblique-3bc" transform="translate(0 0.015625)"/>
      <use xlink:href="#DejaVuSans-5b" transform="translate(63.623047 0.015625)"/>
      <use xlink:href="#DejaVuSans-Oblique-59" transform="translate(102.636719 0.015625)"/>
      <use xlink:href="#DejaVuSans-Oblique-4e" transform="translate(163.720703 0.015625)"/>
      <use xlink:href="#DejaVuSans-Oblique-4f" transform="translate(238.525391 0.015625)"/>
      <use xlink:href="#DejaVuSans-5d" transform="translate(317.236328 0.015625)"/>
     </g>
    </g>
    <g id="line2d_37">
     <path d="M 188.296875 260.889531 
L 216.296875 260.889531 
L 244.296875 260.889531 
" style="fill: none; stroke: #808080; stroke-width: 3; stroke-linecap: square"/>
    </g>
    <g id="text_23">
     <!-- Error to [21] on $YNO$ -->
     <g transform="translate(266.696875 270.689531) scale(0.28 -0.28)">
      <defs>
       <path id="DejaVuSans-45" d="M 628 4666 
L 3578 4666 
L 3578 4134 
L 1259 4134 
L 1259 2753 
L 3481 2753 
L 3481 2222 
L 1259 2222 
L 1259 531 
L 3634 531 
L 3634 0 
L 628 0 
L 628 4666 
z
" transform="scale(0.015625)"/>
      </defs>
      <use xlink:href="#DejaVuSans-45" transform="translate(0 0.015625)"/>
      <use xlink:href="#DejaVuSans-72" transform="translate(63.183594 0.015625)"/>
      <use xlink:href="#DejaVuSans-72" transform="translate(104.296875 0.015625)"/>
      <use xlink:href="#DejaVuSans-6f" transform="translate(145.410156 0.015625)"/>
      <use xlink:href="#DejaVuSans-72" transform="translate(206.591797 0.015625)"/>
      <use xlink:href="#DejaVuSans-20" transform="translate(247.705078 0.015625)"/>
      <use xlink:href="#DejaVuSans-74" transform="translate(279.492188 0.015625)"/>
      <use xlink:href="#DejaVuSans-6f" transform="translate(318.701172 0.015625)"/>
      <use xlink:href="#DejaVuSans-20" transform="translate(379.882812 0.015625)"/>
      <use xlink:href="#DejaVuSans-5b" transform="translate(411.669922 0.015625)"/>
      <use xlink:href="#DejaVuSans-32" transform="translate(450.683594 0.015625)"/>
      <use xlink:href="#DejaVuSans-31" transform="translate(514.306641 0.015625)"/>
      <use xlink:href="#DejaVuSans-5d" transform="translate(577.929688 0.015625)"/>
      <use xlink:href="#DejaVuSans-20" transform="translate(616.943359 0.015625)"/>
      <use xlink:href="#DejaVuSans-6f" transform="translate(648.730469 0.015625)"/>
      <use xlink:href="#DejaVuSans-6e" transform="translate(709.912109 0.015625)"/>
      <use xlink:href="#DejaVuSans-20" transform="translate(773.291016 0.015625)"/>
      <use xlink:href="#DejaVuSans-Oblique-59" transform="translate(805.078125 0.015625)"/>
      <use xlink:href="#DejaVuSans-Oblique-4e" transform="translate(866.162109 0.015625)"/>
      <use xlink:href="#DejaVuSans-Oblique-4f" transform="translate(940.966797 0.015625)"/>
     </g>
    </g>
    <g id="line2d_38">
     <path d="M 188.296875 301.992656 
L 216.296875 301.992656 
L 244.296875 301.992656 
" style="fill: none; stroke: #008000; stroke-width: 3; stroke-linecap: square"/>
    </g>
    <g id="text_24">
     <!-- $\mu$[$YO$] -->
     <g transform="translate(266.696875 311.792656) scale(0.28 -0.28)">
      <use xlink:href="#DejaVuSans-Oblique-3bc" transform="translate(0 0.015625)"/>
      <use xlink:href="#DejaVuSans-5b" transform="translate(63.623047 0.015625)"/>
      <use xlink:href="#DejaVuSans-Oblique-59" transform="translate(102.636719 0.015625)"/>
      <use xlink:href="#DejaVuSans-Oblique-4f" transform="translate(163.720703 0.015625)"/>
      <use xlink:href="#DejaVuSans-5d" transform="translate(242.431641 0.015625)"/>
     </g>
    </g>
   </g>
  </g>
 </g>
 <defs>
  <clipPath id="p754faf632c">
   <rect x="163.096875" y="18.597656" width="725.4" height="609.84"/>
  </clipPath>
 </defs>
</svg>
