<?xml version="1.0" encoding="utf-8" standalone="no"?>
<!DOCTYPE svg PUBLIC "-//W3C//DTD SVG 1.1//EN"
  "http://www.w3.org/Graphics/SVG/1.1/DTD/svg11.dtd">
<svg xmlns:xlink="http://www.w3.org/1999/xlink" width="888.71875pt" height="709.545469pt" viewBox="0 0 888.71875 709.545469" xmlns="http://www.w3.org/2000/svg" version="1.1">
 <metadata>
  <rdf:RDF xmlns:dc="http://purl.org/dc/elements/1.1/" xmlns:cc="http://creativecommons.org/ns#" xmlns:rdf="http://www.w3.org/1999/02/22-rdf-syntax-ns#">
   <cc:Work>
    <dc:type rdf:resource="http://purl.org/dc/dcmitype/StillImage"/>
    <dc:date>2024-12-22T23:58:02.233223</dc:date>
    <dc:format>image/svg+xml</dc:format>
    <dc:creator>
     <cc:Agent>
      <dc:title>Matplotlib v3.10.0, https://matplotlib.org/</dc:title>
     </cc:Agent>
    </dc:creator>
   </cc:Work>
  </rdf:RDF>
 </metadata>
 <defs>
  <style type="text/css">*{stroke-linejoin: round; stroke-linecap: butt}</style>
 </defs>
 <g id="figure_1">
  <g id="patch_1">
   <path d="M -0 709.545469 
L 888.71875 709.545469 
L 888.71875 0 
L -0 0 
z
" style="fill: #ffffff"/>
  </g>
  <g id="axes_1">
   <g id="patch_2">
    <path d="M 132.264062 628.437656 
L 857.664062 628.437656 
L 857.664062 18.597656 
L 132.264062 18.597656 
z
" style="fill: #ffffff"/>
   </g>
   <g id="FillBetweenPolyCollection_1">
    <path d="M 145.217634 558.085263 
L 145.217634 556.917388 
L 162.822755 556.917388 
L 175.674608 556.917231 
L 185.056696 556.916811 
L 191.906003 556.915356 
L 196.906549 556.907981 
L 200.557711 556.894217 
L 203.224077 556.853867 
L 205.171847 556.785933 
L 206.59539 556.638946 
L 207.732024 556.379112 
L 208.858758 555.968769 
L 209.985491 553.934183 
L 211.140287 538.850133 
L 212.295082 527.856767 
L 213.449878 523.425686 
L 214.604674 521.766029 
L 215.759469 520.295072 
L 216.914265 520.487151 
L 218.069061 520.429497 
L 219.223856 520.49501 
L 220.378652 520.455953 
L 221.533447 520.501569 
L 222.688243 520.085695 
L 223.843039 519.714762 
L 224.997834 519.71595 
L 226.15263 519.60638 
L 227.307426 519.421788 
L 228.462221 519.312125 
L 229.617017 519.223586 
L 230.771813 518.931099 
L 231.926608 518.877648 
L 233.081404 518.831059 
L 234.2362 518.727742 
L 235.390995 518.650775 
L 236.545791 518.709813 
L 237.700586 518.820216 
L 238.855382 518.893957 
L 240.010178 518.961211 
L 241.164973 519.02032 
L 242.319769 519.164129 
L 243.474565 519.192331 
L 244.62936 519.22665 
L 245.784156 519.257842 
L 246.938952 519.278165 
L 248.093747 519.327201 
L 249.248543 519.428257 
L 250.40334 519.517656 
L 251.587228 519.541885 
L 252.813416 519.560832 
L 254.083727 519.586218 
L 255.400594 519.627915 
L 256.766507 519.658966 
L 258.182897 519.694649 
L 259.65147 519.724559 
L 261.174213 519.752533 
L 262.753313 519.771685 
L 264.390149 519.791379 
L 266.08643 519.806167 
L 267.844545 519.833703 
L 269.667703 519.861264 
L 271.55953 519.893219 
L 273.51917 519.906539 
L 275.551029 519.911031 
L 277.658808 519.914553 
L 279.842633 519.911753 
L 282.10812 519.923819 
L 284.456526 519.930543 
L 286.890639 519.959743 
L 289.415351 519.983403 
L 292.032892 520.013449 
L 294.746528 520.033086 
L 297.559986 520.04588 
L 300.477068 520.054251 
L 303.501544 520.051604 
L 306.637241 520.049382 
L 309.888301 520.041823 
L 313.259571 520.031536 
L 316.754807 520.01942 
L 320.378581 519.999933 
L 324.13602 519.984007 
L 328.031997 519.966959 
L 332.071175 519.949575 
L 336.259108 519.947575 
L 340.601444 519.940743 
L 345.103847 519.950572 
L 349.772009 519.956952 
L 354.58748 519.965676 
L 359.541809 519.959859 
L 364.678518 519.957907 
L 370.004805 519.941698 
L 375.527293 519.93518 
L 381.253336 519.920001 
L 387.190483 519.909087 
L 393.346417 519.90487 
L 399.729289 519.897157 
L 406.347569 519.896767 
L 413.209819 519.896845 
L 420.324994 519.896413 
L 427.702477 519.895017 
L 434.985591 519.884988 
L 440.421192 519.880431 
L 444.292082 519.863108 
L 447.049162 519.855104 
L 449.01335 519.839419 
L 450.413024 519.829276 
L 451.513049 519.818331 
L 452.60369 519.802743 
L 453.69433 519.785806 
L 454.78497 519.733338 
L 455.875611 519.656255 
L 456.966251 519.482266 
L 458.056891 519.235129 
L 459.147532 519.203209 
L 460.238172 437.689717 
L 461.03351 47.792562 
L 461.828849 30.926928 
L 462.624187 63.664579 
L 463.419525 66.913316 
L 464.214864 69.084403 
L 465.010202 73.924954 
L 465.805541 78.520852 
L 466.600879 83.119737 
L 467.396217 85.830473 
L 468.191556 87.100125 
L 468.986894 87.738998 
L 469.782232 87.829371 
L 470.577571 87.72892 
L 471.372909 87.704509 
L 472.168248 87.833932 
L 472.963586 87.576922 
L 473.758924 87.316048 
L 474.554263 86.27066 
L 475.349601 86.814594 
L 476.144939 87.022765 
L 476.940278 86.839995 
L 477.735616 86.845454 
L 478.530955 86.890037 
L 479.326293 86.687891 
L 480.121631 87.118535 
L 480.91697 87.279344 
L 481.712308 87.450507 
L 482.507647 87.382301 
L 483.302985 87.326213 
L 484.098323 87.21458 
L 484.893662 87.494678 
L 485.689 87.586966 
L 486.484338 87.673803 
L 487.279677 87.792161 
L 488.075015 87.937958 
L 488.870354 88.155828 
L 489.665692 88.437565 
L 490.46103 88.832492 
L 491.256369 89.273936 
L 492.051707 89.752295 
L 492.847045 90.622979 
L 493.642384 91.760081 
L 494.437722 93.172553 
L 495.233061 94.873118 
L 496.036544 97.06105 
L 496.889902 100.256526 
L 497.818159 104.906689 
L 498.819031 111.467923 
L 499.906277 122.332577 
L 501.086396 137.794196 
L 502.364915 160.058965 
L 503.752628 185.113159 
L 505.26183 215.65054 
L 506.902465 244.597273 
L 508.686293 274.854187 
L 510.626462 300.125787 
L 512.737374 322.242743 
L 515.035003 338.487222 
L 517.535804 353.292093 
L 520.255053 362.566197 
L 523.21439 369.871578 
L 526.430182 371.049243 
L 529.924581 371.47322 
L 533.715842 370.844207 
L 537.822592 368.517221 
L 542.261647 366.155189 
L 547.043925 362.384392 
L 552.17195 356.571259 
L 557.629371 349.304466 
L 563.332153 343.028 
L 569.058589 338.100858 
L 574.785025 333.109974 
L 580.511462 329.966746 
L 586.237898 327.128684 
L 591.964334 324.019619 
L 597.690771 321.785006 
L 603.417207 320.767314 
L 609.143643 320.800356 
L 614.87008 320.686536 
L 620.596516 320.54482 
L 626.322952 320.276698 
L 632.049389 320.214488 
L 637.775825 320.027461 
L 643.502261 438.393504 
L 651.598243 551.514604 
L 659.694226 559.064349 
L 667.790208 558.647602 
L 675.88619 558.393034 
L 683.982172 558.286367 
L 692.078154 558.120925 
L 700.174136 557.911519 
L 708.270118 557.694414 
L 716.366101 557.533119 
L 724.462083 557.410558 
L 732.558065 557.301086 
L 740.654047 557.197561 
L 748.750029 557.099496 
L 756.846011 557.025134 
L 764.941993 556.966852 
L 773.037976 556.915445 
L 781.133958 556.8654 
L 789.22994 556.810976 
L 797.325922 556.764357 
L 805.421904 556.71906 
L 813.517886 556.691127 
L 821.613868 556.672903 
L 829.709851 556.668811 
L 837.805833 556.669824 
L 837.805833 558.196213 
L 837.805833 558.196213 
L 829.709851 558.184423 
L 821.613868 558.170438 
L 813.517886 558.160293 
L 805.421904 558.162847 
L 797.325922 558.167624 
L 789.22994 558.176541 
L 781.133958 558.181092 
L 773.037976 558.186499 
L 764.941993 558.190161 
L 756.846011 558.204963 
L 748.750029 558.23955 
L 740.654047 558.296597 
L 732.558065 558.349468 
L 724.462083 558.392359 
L 716.366101 558.439324 
L 708.270118 558.522442 
L 700.174136 558.668227 
L 692.078154 558.855526 
L 683.982172 559.035439 
L 675.88619 559.210847 
L 667.790208 559.822972 
L 659.694226 561.667402 
L 651.598243 560.270585 
L 643.502261 483.73334 
L 637.775825 406.676041 
L 632.049389 406.821697 
L 626.322952 406.517429 
L 620.596516 406.309229 
L 614.87008 406.134883 
L 609.143643 405.959595 
L 603.417207 405.571756 
L 597.690771 405.796898 
L 591.964334 407.15766 
L 586.237898 409.286903 
L 580.511462 411.313923 
L 574.785025 413.536344 
L 569.058589 417.381595 
L 563.332153 421.304352 
L 557.629371 426.210076 
L 552.17195 431.975733 
L 547.043925 436.947214 
L 542.261647 440.272255 
L 537.822592 442.63795 
L 533.715842 444.844118 
L 529.924581 446.19504 
L 526.430182 446.827023 
L 523.21439 446.100641 
L 520.255053 442.847177 
L 517.535804 437.283371 
L 515.035003 426.419976 
L 512.737374 412.505587 
L 510.626462 397.686379 
L 508.686293 378.82179 
L 506.902465 355.475862 
L 505.26183 334.334562 
L 503.752628 311.343209 
L 502.364915 291.76161 
L 501.086396 276.14945 
L 499.906277 266.000208 
L 498.819031 260.626615 
L 497.818159 258.409483 
L 496.889902 257.151193 
L 496.036544 257.24552 
L 495.233061 257.164969 
L 494.437722 257.167082 
L 493.642384 257.17044 
L 492.847045 257.197769 
L 492.051707 257.219053 
L 491.256369 257.200879 
L 490.46103 257.204234 
L 489.665692 257.183761 
L 488.870354 257.114326 
L 488.075015 257.071846 
L 487.279677 257.030903 
L 486.484338 256.97981 
L 485.689 256.88533 
L 484.893662 256.721608 
L 484.098323 256.299948 
L 483.302985 256.193233 
L 482.507647 256.046056 
L 481.712308 256.016299 
L 480.91697 255.829038 
L 480.121631 255.689066 
L 479.326293 255.322788 
L 478.530955 255.626368 
L 477.735616 255.740654 
L 476.940278 255.819235 
L 476.144939 255.993898 
L 475.349601 255.716824 
L 474.554263 255.031659 
L 473.758924 255.79823 
L 472.963586 255.604582 
L 472.168248 255.185739 
L 471.372909 254.191776 
L 470.577571 253.383526 
L 469.782232 252.632804 
L 468.986894 252.116454 
L 468.191556 252.218742 
L 467.396217 252.528309 
L 466.600879 253.354696 
L 465.805541 251.811872 
L 465.010202 252.248748 
L 464.214864 252.748516 
L 463.419525 253.124951 
L 462.624187 249.312525 
L 461.828849 207.186567 
L 461.03351 180.813749 
L 460.238172 473.258079 
L 459.147532 533.545169 
L 458.056891 533.481047 
L 456.966251 533.700719 
L 455.875611 533.846745 
L 454.78497 533.938561 
L 453.69433 533.997042 
L 452.60369 534.021924 
L 451.513049 534.035751 
L 450.413024 534.038413 
L 449.01335 534.039014 
L 447.049162 534.027444 
L 444.292082 534.021468 
L 440.421192 534.005453 
L 434.985591 534.00436 
L 427.702477 533.99784 
L 420.324994 534.005588 
L 413.209819 534.010507 
L 406.347569 534.01635 
L 399.729289 534.026286 
L 393.346417 534.028924 
L 387.190483 534.028394 
L 381.253336 534.023404 
L 375.527293 534.015138 
L 370.004805 534.006203 
L 364.678518 533.989832 
L 359.541809 533.97616 
L 354.58748 533.949112 
L 349.772009 533.930774 
L 345.103847 533.898839 
L 340.601444 533.886593 
L 336.259108 533.865114 
L 332.071175 533.855098 
L 328.031997 533.844598 
L 324.13602 533.845312 
L 320.378581 533.848776 
L 316.754807 533.854959 
L 313.259571 533.866419 
L 309.888301 533.871376 
L 306.637241 533.886866 
L 303.501544 533.896789 
L 300.477068 533.921056 
L 297.559986 533.926554 
L 294.746528 533.94431 
L 292.032892 533.923499 
L 289.415351 533.92651 
L 286.890639 533.891304 
L 284.456526 533.885123 
L 282.10812 533.853932 
L 279.842633 533.837551 
L 277.658808 533.813727 
L 275.551029 533.804724 
L 273.51917 533.805446 
L 271.55953 533.812916 
L 269.667703 533.829424 
L 267.844545 533.838925 
L 266.08643 533.859313 
L 264.390149 533.878698 
L 262.753313 533.902011 
L 261.174213 533.915617 
L 259.65147 533.928824 
L 258.182897 533.945991 
L 256.766507 533.967169 
L 255.400594 533.987497 
L 254.083727 534.007638 
L 252.813416 534.036689 
L 251.587228 534.075052 
L 250.40334 534.132212 
L 249.248543 534.2252 
L 248.093747 534.322578 
L 246.938952 534.369422 
L 245.784156 534.369316 
L 244.62936 534.376455 
L 243.474565 534.448991 
L 242.319769 534.554023 
L 241.164973 534.700647 
L 240.010178 534.697118 
L 238.855382 534.627801 
L 237.700586 534.590224 
L 236.545791 534.666298 
L 235.390995 534.794937 
L 234.2362 534.94722 
L 233.081404 535.103356 
L 231.926608 535.163505 
L 230.771813 535.151071 
L 229.617017 534.951094 
L 228.462221 534.94527 
L 227.307426 534.937833 
L 226.15263 534.927348 
L 224.997834 534.969075 
L 223.843039 534.889461 
L 222.688243 534.414981 
L 221.533447 534.309869 
L 220.378652 533.590095 
L 219.223856 532.239713 
L 218.069061 531.432574 
L 216.914265 530.615924 
L 215.759469 529.699169 
L 214.604674 530.199114 
L 213.449878 530.280767 
L 212.295082 533.535336 
L 211.140287 543.63494 
L 209.985491 555.811259 
L 208.858758 557.284882 
L 207.732024 557.575463 
L 206.59539 557.799422 
L 205.171847 557.930556 
L 203.224077 558.005477 
L 200.557711 558.052479 
L 196.906549 558.071978 
L 191.906003 558.081669 
L 185.056696 558.084402 
L 175.674608 558.085079 
L 162.822755 558.085263 
L 145.217634 558.085263 
z
" clip-path="url(#p8f345449b7)" style="fill: #99ccff; fill-opacity: 0.7"/>
   </g>
   <g id="FillBetweenPolyCollection_2">
    <defs>
     <path id="m2c3e530ab9" d="M 139.25055 -148.898832 
L 139.25055 -148.934685 
L 146.245564 -148.934685 
L 153.240578 -148.934685 
L 160.235592 -148.934685 
L 167.230605 -148.934748 
L 174.225619 -148.934848 
L 181.220633 -148.935269 
L 188.215647 -148.936806 
L 195.210661 -148.944683 
L 202.205675 -148.996518 
L 209.200688 -126.387311 
L 216.195702 -153.003798 
L 223.190716 -148.366404 
L 230.18573 -147.955863 
L 237.180744 -148.433464 
L 244.175758 -148.651631 
L 251.170771 -148.958354 
L 258.165785 -149.116729 
L 265.160799 -149.236185 
L 272.155813 -149.30789 
L 279.150827 -149.275363 
L 286.145841 -149.197795 
L 293.140854 -149.151039 
L 300.135868 -149.166028 
L 307.130882 -149.205685 
L 314.125896 -149.236608 
L 321.12091 -149.277117 
L 328.115924 -149.302097 
L 335.110937 -149.297066 
L 342.105951 -149.281609 
L 349.100965 -149.2631 
L 356.095979 -149.248663 
L 363.090993 -149.233796 
L 370.086007 -149.222972 
L 377.08102 -149.221545 
L 384.076034 -149.224447 
L 391.071048 -149.233896 
L 398.066062 -149.247954 
L 405.061076 -149.268387 
L 412.05609 -149.285677 
L 419.051103 -149.29907 
L 426.046117 -149.312243 
L 433.041131 -149.313311 
L 440.036145 -149.312438 
L 447.031159 -149.290967 
L 454.026173 -149.313784 
L 461.021186 -220.16218 
L 468.0162 -161.074892 
L 475.011214 -159.293904 
L 482.006228 -159.19441 
L 489.001242 -160.134799 
L 495.996256 -173.174278 
L 502.991269 -204.070859 
L 509.986283 -182.993187 
L 516.981297 -155.954048 
L 523.976311 -146.668293 
L 530.971325 -145.346973 
L 537.966339 -145.157083 
L 544.961352 -144.371553 
L 551.956366 -145.174829 
L 558.95138 -147.330284 
L 565.946394 -148.949779 
L 572.941408 -150.631208 
L 579.936422 -151.33884 
L 586.931435 -151.650265 
L 593.926449 -152.08433 
L 600.921463 -151.520664 
L 607.916477 -150.072039 
L 614.911491 -149.072287 
L 621.906505 -149.132826 
L 628.901518 -150.454839 
L 635.896532 -163.935249 
L 642.891546 -230.944991 
L 649.88656 -163.679098 
L 656.881574 -146.629183 
L 663.876588 -147.020151 
L 670.871601 -148.084314 
L 677.866615 -148.443667 
L 684.861629 -148.531917 
L 691.856643 -148.624652 
L 698.851657 -148.726207 
L 705.846671 -148.801527 
L 712.841684 -148.837387 
L 719.836698 -148.841547 
L 726.831712 -148.831131 
L 733.826726 -148.821825 
L 740.82174 -148.821067 
L 747.816754 -148.824841 
L 754.811767 -148.812494 
L 761.806781 -148.785803 
L 768.801795 -148.748998 
L 775.796809 -148.708476 
L 782.791823 -148.668516 
L 789.786837 -148.62792 
L 796.78185 -148.590728 
L 803.776864 -148.55573 
L 810.771878 -148.526842 
L 817.766892 -148.519639 
L 824.761906 -148.480645 
L 831.75692 -148.422446 
L 831.75692 -148.564584 
L 831.75692 -148.564584 
L 824.761906 -148.630199 
L 817.766892 -148.661822 
L 810.771878 -148.647121 
L 803.776864 -148.66593 
L 796.78185 -148.684746 
L 789.786837 -148.710633 
L 782.791823 -148.730447 
L 775.796809 -148.752231 
L 768.801795 -148.7741 
L 761.806781 -148.793012 
L 754.811767 -148.805019 
L 747.816754 -148.805151 
L 740.82174 -148.788731 
L 733.826726 -148.769345 
L 726.831712 -148.747851 
L 719.836698 -148.720857 
L 712.841684 -148.676805 
L 705.846671 -148.603375 
L 698.851657 -148.503856 
L 691.856643 -148.415039 
L 684.861629 -148.367175 
L 677.866615 -148.365557 
L 670.871601 -148.277448 
L 663.876588 -148.071646 
L 656.881574 -150.595413 
L 649.88656 -179.380376 
L 642.891546 -279.333829 
L 635.896532 -176.890772 
L 628.901518 -154.922767 
L 621.906505 -150.408747 
L 614.911491 -147.96485 
L 607.916477 -147.875703 
L 600.921463 -148.773554 
L 593.926449 -148.739621 
L 586.931435 -147.915909 
L 579.936422 -147.762047 
L 572.941408 -147.51877 
L 565.946394 -146.765715 
L 558.95138 -146.596606 
L 551.956366 -146.400002 
L 544.961352 -148.906983 
L 537.966339 -153.92611 
L 530.971325 -158.18461 
L 523.976311 -163.239824 
L 516.981297 -181.875862 
L 509.986283 -218.803254 
L 502.991269 -234.04337 
L 495.996256 -183.117098 
L 489.001242 -162.209741 
L 482.006228 -157.887773 
L 475.011214 -156.826112 
L 468.0162 -155.202722 
L 461.021186 -185.219387 
L 454.026173 -149.761241 
L 447.031159 -149.729336 
L 440.036145 -149.699245 
L 433.041131 -149.687074 
L 426.046117 -149.672109 
L 419.051103 -149.661796 
L 412.05609 -149.650282 
L 405.061076 -149.636805 
L 398.066062 -149.618112 
L 391.071048 -149.590328 
L 384.076034 -149.559043 
L 377.08102 -149.51911 
L 370.086007 -149.483439 
L 363.090993 -149.440287 
L 356.095979 -149.406724 
L 349.100965 -149.387307 
L 342.105951 -149.378348 
L 335.110937 -149.358617 
L 328.115924 -149.31839 
L 321.12091 -149.252396 
L 314.125896 -149.183565 
L 307.130882 -149.156368 
L 300.135868 -149.142442 
L 293.140854 -149.161743 
L 286.145841 -149.240008 
L 279.150827 -149.311724 
L 272.155813 -149.323405 
L 265.160799 -149.348191 
L 258.165785 -149.396502 
L 251.170771 -149.545819 
L 244.175758 -149.877844 
L 237.180744 -150.318697 
L 230.18573 -149.922939 
L 223.190716 -149.042268 
L 216.195702 -148.693925 
L 209.200688 -113.975848 
L 202.205675 -148.946942 
L 195.210661 -148.905739 
L 188.215647 -148.900081 
L 181.220633 -148.899238 
L 174.225619 -148.898972 
L 167.230605 -148.898886 
L 160.235592 -148.898832 
L 153.240578 -148.898832 
L 146.245564 -148.898832 
L 139.25055 -148.898832 
z
" style="stroke: #808080; stroke-opacity: 0.2"/>
    </defs>
    <g clip-path="url(#p8f345449b7)">
     <use xlink:href="#m2c3e530ab9" x="0" y="709.545469" style="fill: #808080; fill-opacity: 0.2; stroke: #808080; stroke-opacity: 0.2"/>
    </g>
   </g>
   <g id="matplotlib.axis_1">
    <g id="xtick_1">
     <g id="line2d_1">
      <path d="M 209.985491 628.437656 
L 209.985491 18.597656 
" clip-path="url(#p8f345449b7)" style="fill: none; stroke: #b0b0b0; stroke-width: 0.8; stroke-linecap: square"/>
     </g>
     <g id="line2d_2">
      <defs>
       <path id="mda4d7a0304" d="M 0 0 
L 0 3.5 
" style="stroke: #000000; stroke-width: 0.8"/>
      </defs>
      <g>
       <use xlink:href="#mda4d7a0304" x="209.985491" y="628.437656" style="stroke: #000000; stroke-width: 0.8"/>
      </g>
     </g>
     <g id="text_1">
      <!-- 0.0 -->
      <g transform="translate(186.130804 658.232969) scale(0.3 -0.3)">
       <defs>
        <path id="DejaVuSans-30" d="M 2034 4250 
Q 1547 4250 1301 3770 
Q 1056 3291 1056 2328 
Q 1056 1369 1301 889 
Q 1547 409 2034 409 
Q 2525 409 2770 889 
Q 3016 1369 3016 2328 
Q 3016 3291 2770 3770 
Q 2525 4250 2034 4250 
z
M 2034 4750 
Q 2819 4750 3233 4129 
Q 3647 3509 3647 2328 
Q 3647 1150 3233 529 
Q 2819 -91 2034 -91 
Q 1250 -91 836 529 
Q 422 1150 422 2328 
Q 422 3509 836 4129 
Q 1250 4750 2034 4750 
z
" transform="scale(0.015625)"/>
        <path id="DejaVuSans-2e" d="M 684 794 
L 1344 794 
L 1344 0 
L 684 0 
L 684 794 
z
" transform="scale(0.015625)"/>
       </defs>
       <use xlink:href="#DejaVuSans-30"/>
       <use xlink:href="#DejaVuSans-2e" transform="translate(63.623047 0)"/>
       <use xlink:href="#DejaVuSans-30" transform="translate(95.410156 0)"/>
      </g>
     </g>
    </g>
    <g id="xtick_2">
     <g id="line2d_3">
      <path d="M 339.521205 628.437656 
L 339.521205 18.597656 
" clip-path="url(#p8f345449b7)" style="fill: none; stroke: #b0b0b0; stroke-width: 0.8; stroke-linecap: square"/>
     </g>
     <g id="line2d_4">
      <g>
       <use xlink:href="#mda4d7a0304" x="339.521205" y="628.437656" style="stroke: #000000; stroke-width: 0.8"/>
      </g>
     </g>
     <g id="text_2">
      <!-- 0.1 -->
      <g transform="translate(315.666518 658.232969) scale(0.3 -0.3)">
       <defs>
        <path id="DejaVuSans-31" d="M 794 531 
L 1825 531 
L 1825 4091 
L 703 3866 
L 703 4441 
L 1819 4666 
L 2450 4666 
L 2450 531 
L 3481 531 
L 3481 0 
L 794 0 
L 794 531 
z
" transform="scale(0.015625)"/>
       </defs>
       <use xlink:href="#DejaVuSans-30"/>
       <use xlink:href="#DejaVuSans-2e" transform="translate(63.623047 0)"/>
       <use xlink:href="#DejaVuSans-31" transform="translate(95.410156 0)"/>
      </g>
     </g>
    </g>
    <g id="xtick_3">
     <g id="line2d_5">
      <path d="M 469.05692 628.437656 
L 469.05692 18.597656 
" clip-path="url(#p8f345449b7)" style="fill: none; stroke: #b0b0b0; stroke-width: 0.8; stroke-linecap: square"/>
     </g>
     <g id="line2d_6">
      <g>
       <use xlink:href="#mda4d7a0304" x="469.05692" y="628.437656" style="stroke: #000000; stroke-width: 0.8"/>
      </g>
     </g>
     <g id="text_3">
      <!-- 0.2 -->
      <g transform="translate(445.202232 658.232969) scale(0.3 -0.3)">
       <defs>
        <path id="DejaVuSans-32" d="M 1228 531 
L 3431 531 
L 3431 0 
L 469 0 
L 469 531 
Q 828 903 1448 1529 
Q 2069 2156 2228 2338 
Q 2531 2678 2651 2914 
Q 2772 3150 2772 3378 
Q 2772 3750 2511 3984 
Q 2250 4219 1831 4219 
Q 1534 4219 1204 4116 
Q 875 4013 500 3803 
L 500 4441 
Q 881 4594 1212 4672 
Q 1544 4750 1819 4750 
Q 2544 4750 2975 4387 
Q 3406 4025 3406 3419 
Q 3406 3131 3298 2873 
Q 3191 2616 2906 2266 
Q 2828 2175 2409 1742 
Q 1991 1309 1228 531 
z
" transform="scale(0.015625)"/>
       </defs>
       <use xlink:href="#DejaVuSans-30"/>
       <use xlink:href="#DejaVuSans-2e" transform="translate(63.623047 0)"/>
       <use xlink:href="#DejaVuSans-32" transform="translate(95.410156 0)"/>
      </g>
     </g>
    </g>
    <g id="xtick_4">
     <g id="line2d_7">
      <path d="M 598.592634 628.437656 
L 598.592634 18.597656 
" clip-path="url(#p8f345449b7)" style="fill: none; stroke: #b0b0b0; stroke-width: 0.8; stroke-linecap: square"/>
     </g>
     <g id="line2d_8">
      <g>
       <use xlink:href="#mda4d7a0304" x="598.592634" y="628.437656" style="stroke: #000000; stroke-width: 0.8"/>
      </g>
     </g>
     <g id="text_4">
      <!-- 0.3 -->
      <g transform="translate(574.737946 658.232969) scale(0.3 -0.3)">
       <defs>
        <path id="DejaVuSans-33" d="M 2597 2516 
Q 3050 2419 3304 2112 
Q 3559 1806 3559 1356 
Q 3559 666 3084 287 
Q 2609 -91 1734 -91 
Q 1441 -91 1130 -33 
Q 819 25 488 141 
L 488 750 
Q 750 597 1062 519 
Q 1375 441 1716 441 
Q 2309 441 2620 675 
Q 2931 909 2931 1356 
Q 2931 1769 2642 2001 
Q 2353 2234 1838 2234 
L 1294 2234 
L 1294 2753 
L 1863 2753 
Q 2328 2753 2575 2939 
Q 2822 3125 2822 3475 
Q 2822 3834 2567 4026 
Q 2313 4219 1838 4219 
Q 1578 4219 1281 4162 
Q 984 4106 628 3988 
L 628 4550 
Q 988 4650 1302 4700 
Q 1616 4750 1894 4750 
Q 2613 4750 3031 4423 
Q 3450 4097 3450 3541 
Q 3450 3153 3228 2886 
Q 3006 2619 2597 2516 
z
" transform="scale(0.015625)"/>
       </defs>
       <use xlink:href="#DejaVuSans-30"/>
       <use xlink:href="#DejaVuSans-2e" transform="translate(63.623047 0)"/>
       <use xlink:href="#DejaVuSans-33" transform="translate(95.410156 0)"/>
      </g>
     </g>
    </g>
    <g id="xtick_5">
     <g id="line2d_9">
      <path d="M 728.128348 628.437656 
L 728.128348 18.597656 
" clip-path="url(#p8f345449b7)" style="fill: none; stroke: #b0b0b0; stroke-width: 0.8; stroke-linecap: square"/>
     </g>
     <g id="line2d_10">
      <g>
       <use xlink:href="#mda4d7a0304" x="728.128348" y="628.437656" style="stroke: #000000; stroke-width: 0.8"/>
      </g>
     </g>
     <g id="text_5">
      <!-- 0.4 -->
      <g transform="translate(704.273661 658.232969) scale(0.3 -0.3)">
       <defs>
        <path id="DejaVuSans-34" d="M 2419 4116 
L 825 1625 
L 2419 1625 
L 2419 4116 
z
M 2253 4666 
L 3047 4666 
L 3047 1625 
L 3713 1625 
L 3713 1100 
L 3047 1100 
L 3047 0 
L 2419 0 
L 2419 1100 
L 313 1100 
L 313 1709 
L 2253 4666 
z
" transform="scale(0.015625)"/>
       </defs>
       <use xlink:href="#DejaVuSans-30"/>
       <use xlink:href="#DejaVuSans-2e" transform="translate(63.623047 0)"/>
       <use xlink:href="#DejaVuSans-34" transform="translate(95.410156 0)"/>
      </g>
     </g>
    </g>
    <g id="xtick_6">
     <g id="line2d_11">
      <path d="M 857.664062 628.437656 
L 857.664062 18.597656 
" clip-path="url(#p8f345449b7)" style="fill: none; stroke: #b0b0b0; stroke-width: 0.8; stroke-linecap: square"/>
     </g>
     <g id="line2d_12">
      <g>
       <use xlink:href="#mda4d7a0304" x="857.664062" y="628.437656" style="stroke: #000000; stroke-width: 0.8"/>
      </g>
     </g>
     <g id="text_6">
      <!-- 0.5 -->
      <g transform="translate(833.809375 658.232969) scale(0.3 -0.3)">
       <defs>
        <path id="DejaVuSans-35" d="M 691 4666 
L 3169 4666 
L 3169 4134 
L 1269 4134 
L 1269 2991 
Q 1406 3038 1543 3061 
Q 1681 3084 1819 3084 
Q 2600 3084 3056 2656 
Q 3513 2228 3513 1497 
Q 3513 744 3044 326 
Q 2575 -91 1722 -91 
Q 1428 -91 1123 -41 
Q 819 9 494 109 
L 494 744 
Q 775 591 1075 516 
Q 1375 441 1709 441 
Q 2250 441 2565 725 
Q 2881 1009 2881 1497 
Q 2881 1984 2565 2268 
Q 2250 2553 1709 2553 
Q 1456 2553 1204 2497 
Q 953 2441 691 2322 
L 691 4666 
z
" transform="scale(0.015625)"/>
       </defs>
       <use xlink:href="#DejaVuSans-30"/>
       <use xlink:href="#DejaVuSans-2e" transform="translate(63.623047 0)"/>
       <use xlink:href="#DejaVuSans-35" transform="translate(95.410156 0)"/>
      </g>
     </g>
    </g>
    <g id="text_7">
     <!-- X coordinate [m] -->
     <g transform="translate(347.810937 695.066562) scale(0.35 -0.35)">
      <defs>
       <path id="DejaVuSans-58" d="M 403 4666 
L 1081 4666 
L 2241 2931 
L 3406 4666 
L 4084 4666 
L 2584 2425 
L 4184 0 
L 3506 0 
L 2194 1984 
L 872 0 
L 191 0 
L 1856 2491 
L 403 4666 
z
" transform="scale(0.015625)"/>
       <path id="DejaVuSans-20" transform="scale(0.015625)"/>
       <path id="DejaVuSans-63" d="M 3122 3366 
L 3122 2828 
Q 2878 2963 2633 3030 
Q 2388 3097 2138 3097 
Q 1578 3097 1268 2742 
Q 959 2388 959 1747 
Q 959 1106 1268 751 
Q 1578 397 2138 397 
Q 2388 397 2633 464 
Q 2878 531 3122 666 
L 3122 134 
Q 2881 22 2623 -34 
Q 2366 -91 2075 -91 
Q 1284 -91 818 406 
Q 353 903 353 1747 
Q 353 2603 823 3093 
Q 1294 3584 2113 3584 
Q 2378 3584 2631 3529 
Q 2884 3475 3122 3366 
z
" transform="scale(0.015625)"/>
       <path id="DejaVuSans-6f" d="M 1959 3097 
Q 1497 3097 1228 2736 
Q 959 2375 959 1747 
Q 959 1119 1226 758 
Q 1494 397 1959 397 
Q 2419 397 2687 759 
Q 2956 1122 2956 1747 
Q 2956 2369 2687 2733 
Q 2419 3097 1959 3097 
z
M 1959 3584 
Q 2709 3584 3137 3096 
Q 3566 2609 3566 1747 
Q 3566 888 3137 398 
Q 2709 -91 1959 -91 
Q 1206 -91 779 398 
Q 353 888 353 1747 
Q 353 2609 779 3096 
Q 1206 3584 1959 3584 
z
" transform="scale(0.015625)"/>
       <path id="DejaVuSans-72" d="M 2631 2963 
Q 2534 3019 2420 3045 
Q 2306 3072 2169 3072 
Q 1681 3072 1420 2755 
Q 1159 2438 1159 1844 
L 1159 0 
L 581 0 
L 581 3500 
L 1159 3500 
L 1159 2956 
Q 1341 3275 1631 3429 
Q 1922 3584 2338 3584 
Q 2397 3584 2469 3576 
Q 2541 3569 2628 3553 
L 2631 2963 
z
" transform="scale(0.015625)"/>
       <path id="DejaVuSans-64" d="M 2906 2969 
L 2906 4863 
L 3481 4863 
L 3481 0 
L 2906 0 
L 2906 525 
Q 2725 213 2448 61 
Q 2172 -91 1784 -91 
Q 1150 -91 751 415 
Q 353 922 353 1747 
Q 353 2572 751 3078 
Q 1150 3584 1784 3584 
Q 2172 3584 2448 3432 
Q 2725 3281 2906 2969 
z
M 947 1747 
Q 947 1113 1208 752 
Q 1469 391 1925 391 
Q 2381 391 2643 752 
Q 2906 1113 2906 1747 
Q 2906 2381 2643 2742 
Q 2381 3103 1925 3103 
Q 1469 3103 1208 2742 
Q 947 2381 947 1747 
z
" transform="scale(0.015625)"/>
       <path id="DejaVuSans-69" d="M 603 3500 
L 1178 3500 
L 1178 0 
L 603 0 
L 603 3500 
z
M 603 4863 
L 1178 4863 
L 1178 4134 
L 603 4134 
L 603 4863 
z
" transform="scale(0.015625)"/>
       <path id="DejaVuSans-6e" d="M 3513 2113 
L 3513 0 
L 2938 0 
L 2938 2094 
Q 2938 2591 2744 2837 
Q 2550 3084 2163 3084 
Q 1697 3084 1428 2787 
Q 1159 2491 1159 1978 
L 1159 0 
L 581 0 
L 581 3500 
L 1159 3500 
L 1159 2956 
Q 1366 3272 1645 3428 
Q 1925 3584 2291 3584 
Q 2894 3584 3203 3211 
Q 3513 2838 3513 2113 
z
" transform="scale(0.015625)"/>
       <path id="DejaVuSans-61" d="M 2194 1759 
Q 1497 1759 1228 1600 
Q 959 1441 959 1056 
Q 959 750 1161 570 
Q 1363 391 1709 391 
Q 2188 391 2477 730 
Q 2766 1069 2766 1631 
L 2766 1759 
L 2194 1759 
z
M 3341 1997 
L 3341 0 
L 2766 0 
L 2766 531 
Q 2569 213 2275 61 
Q 1981 -91 1556 -91 
Q 1019 -91 701 211 
Q 384 513 384 1019 
Q 384 1609 779 1909 
Q 1175 2209 1959 2209 
L 2766 2209 
L 2766 2266 
Q 2766 2663 2505 2880 
Q 2244 3097 1772 3097 
Q 1472 3097 1187 3025 
Q 903 2953 641 2809 
L 641 3341 
Q 956 3463 1253 3523 
Q 1550 3584 1831 3584 
Q 2591 3584 2966 3190 
Q 3341 2797 3341 1997 
z
" transform="scale(0.015625)"/>
       <path id="DejaVuSans-74" d="M 1172 4494 
L 1172 3500 
L 2356 3500 
L 2356 3053 
L 1172 3053 
L 1172 1153 
Q 1172 725 1289 603 
Q 1406 481 1766 481 
L 2356 481 
L 2356 0 
L 1766 0 
Q 1100 0 847 248 
Q 594 497 594 1153 
L 594 3053 
L 172 3053 
L 172 3500 
L 594 3500 
L 594 4494 
L 1172 4494 
z
" transform="scale(0.015625)"/>
       <path id="DejaVuSans-65" d="M 3597 1894 
L 3597 1613 
L 953 1613 
Q 991 1019 1311 708 
Q 1631 397 2203 397 
Q 2534 397 2845 478 
Q 3156 559 3463 722 
L 3463 178 
Q 3153 47 2828 -22 
Q 2503 -91 2169 -91 
Q 1331 -91 842 396 
Q 353 884 353 1716 
Q 353 2575 817 3079 
Q 1281 3584 2069 3584 
Q 2775 3584 3186 3129 
Q 3597 2675 3597 1894 
z
M 3022 2063 
Q 3016 2534 2758 2815 
Q 2500 3097 2075 3097 
Q 1594 3097 1305 2825 
Q 1016 2553 972 2059 
L 3022 2063 
z
" transform="scale(0.015625)"/>
       <path id="DejaVuSans-5b" d="M 550 4863 
L 1875 4863 
L 1875 4416 
L 1125 4416 
L 1125 -397 
L 1875 -397 
L 1875 -844 
L 550 -844 
L 550 4863 
z
" transform="scale(0.015625)"/>
       <path id="DejaVuSans-6d" d="M 3328 2828 
Q 3544 3216 3844 3400 
Q 4144 3584 4550 3584 
Q 5097 3584 5394 3201 
Q 5691 2819 5691 2113 
L 5691 0 
L 5113 0 
L 5113 2094 
Q 5113 2597 4934 2840 
Q 4756 3084 4391 3084 
Q 3944 3084 3684 2787 
Q 3425 2491 3425 1978 
L 3425 0 
L 2847 0 
L 2847 2094 
Q 2847 2600 2669 2842 
Q 2491 3084 2119 3084 
Q 1678 3084 1418 2786 
Q 1159 2488 1159 1978 
L 1159 0 
L 581 0 
L 581 3500 
L 1159 3500 
L 1159 2956 
Q 1356 3278 1631 3431 
Q 1906 3584 2284 3584 
Q 2666 3584 2933 3390 
Q 3200 3197 3328 2828 
z
" transform="scale(0.015625)"/>
       <path id="DejaVuSans-5d" d="M 1947 4863 
L 1947 -844 
L 622 -844 
L 622 -397 
L 1369 -397 
L 1369 4416 
L 622 4416 
L 622 4863 
L 1947 4863 
z
" transform="scale(0.015625)"/>
      </defs>
      <use xlink:href="#DejaVuSans-58"/>
      <use xlink:href="#DejaVuSans-20" transform="translate(68.505859 0)"/>
      <use xlink:href="#DejaVuSans-63" transform="translate(100.292969 0)"/>
      <use xlink:href="#DejaVuSans-6f" transform="translate(155.273438 0)"/>
      <use xlink:href="#DejaVuSans-6f" transform="translate(216.455078 0)"/>
      <use xlink:href="#DejaVuSans-72" transform="translate(277.636719 0)"/>
      <use xlink:href="#DejaVuSans-64" transform="translate(317 0)"/>
      <use xlink:href="#DejaVuSans-69" transform="translate(380.476562 0)"/>
      <use xlink:href="#DejaVuSans-6e" transform="translate(408.259766 0)"/>
      <use xlink:href="#DejaVuSans-61" transform="translate(471.638672 0)"/>
      <use xlink:href="#DejaVuSans-74" transform="translate(532.917969 0)"/>
      <use xlink:href="#DejaVuSans-65" transform="translate(572.126953 0)"/>
      <use xlink:href="#DejaVuSans-20" transform="translate(633.650391 0)"/>
      <use xlink:href="#DejaVuSans-5b" transform="translate(665.4375 0)"/>
      <use xlink:href="#DejaVuSans-6d" transform="translate(704.451172 0)"/>
      <use xlink:href="#DejaVuSans-5d" transform="translate(801.863281 0)"/>
     </g>
    </g>
   </g>
   <g id="matplotlib.axis_2">
    <g id="ytick_1">
     <g id="line2d_13">
      <path d="M 132.264062 628.437656 
L 857.664062 628.437656 
" clip-path="url(#p8f345449b7)" style="fill: none; stroke: #b0b0b0; stroke-width: 0.8; stroke-linecap: square"/>
     </g>
     <g id="line2d_14">
      <defs>
       <path id="m5de6b37d2d" d="M 0 0 
L -3.5 0 
" style="stroke: #000000; stroke-width: 0.8"/>
      </defs>
      <g>
       <use xlink:href="#m5de6b37d2d" x="132.264062" y="628.437656" style="stroke: #000000; stroke-width: 0.8"/>
      </g>
     </g>
     <g id="text_8">
      <!-- −25 -->
      <g transform="translate(61.95 639.835312) scale(0.3 -0.3)">
       <defs>
        <path id="DejaVuSans-2212" d="M 678 2272 
L 4684 2272 
L 4684 1741 
L 678 1741 
L 678 2272 
z
" transform="scale(0.015625)"/>
       </defs>
       <use xlink:href="#DejaVuSans-2212"/>
       <use xlink:href="#DejaVuSans-32" transform="translate(83.789062 0)"/>
       <use xlink:href="#DejaVuSans-35" transform="translate(147.412109 0)"/>
      </g>
     </g>
    </g>
    <g id="ytick_2">
     <g id="line2d_15">
      <path d="M 132.264062 560.677656 
L 857.664062 560.677656 
" clip-path="url(#p8f345449b7)" style="fill: none; stroke: #b0b0b0; stroke-width: 0.8; stroke-linecap: square"/>
     </g>
     <g id="line2d_16">
      <g>
       <use xlink:href="#m5de6b37d2d" x="132.264062" y="560.677656" style="stroke: #000000; stroke-width: 0.8"/>
      </g>
     </g>
     <g id="text_9">
      <!-- 0 -->
      <g transform="translate(106.176562 572.075312) scale(0.3 -0.3)">
       <use xlink:href="#DejaVuSans-30"/>
      </g>
     </g>
    </g>
    <g id="ytick_3">
     <g id="line2d_17">
      <path d="M 132.264062 492.917656 
L 857.664062 492.917656 
" clip-path="url(#p8f345449b7)" style="fill: none; stroke: #b0b0b0; stroke-width: 0.8; stroke-linecap: square"/>
     </g>
     <g id="line2d_18">
      <g>
       <use xlink:href="#m5de6b37d2d" x="132.264062" y="492.917656" style="stroke: #000000; stroke-width: 0.8"/>
      </g>
     </g>
     <g id="text_10">
      <!-- 25 -->
      <g transform="translate(87.089062 504.315312) scale(0.3 -0.3)">
       <use xlink:href="#DejaVuSans-32"/>
       <use xlink:href="#DejaVuSans-35" transform="translate(63.623047 0)"/>
      </g>
     </g>
    </g>
    <g id="ytick_4">
     <g id="line2d_19">
      <path d="M 132.264062 425.157656 
L 857.664062 425.157656 
" clip-path="url(#p8f345449b7)" style="fill: none; stroke: #b0b0b0; stroke-width: 0.8; stroke-linecap: square"/>
     </g>
     <g id="line2d_20">
      <g>
       <use xlink:href="#m5de6b37d2d" x="132.264062" y="425.157656" style="stroke: #000000; stroke-width: 0.8"/>
      </g>
     </g>
     <g id="text_11">
      <!-- 50 -->
      <g transform="translate(87.089062 436.555312) scale(0.3 -0.3)">
       <use xlink:href="#DejaVuSans-35"/>
       <use xlink:href="#DejaVuSans-30" transform="translate(63.623047 0)"/>
      </g>
     </g>
    </g>
    <g id="ytick_5">
     <g id="line2d_21">
      <path d="M 132.264062 357.397656 
L 857.664062 357.397656 
" clip-path="url(#p8f345449b7)" style="fill: none; stroke: #b0b0b0; stroke-width: 0.8; stroke-linecap: square"/>
     </g>
     <g id="line2d_22">
      <g>
       <use xlink:href="#m5de6b37d2d" x="132.264062" y="357.397656" style="stroke: #000000; stroke-width: 0.8"/>
      </g>
     </g>
     <g id="text_12">
      <!-- 75 -->
      <g transform="translate(87.089062 368.795312) scale(0.3 -0.3)">
       <defs>
        <path id="DejaVuSans-37" d="M 525 4666 
L 3525 4666 
L 3525 4397 
L 1831 0 
L 1172 0 
L 2766 4134 
L 525 4134 
L 525 4666 
z
" transform="scale(0.015625)"/>
       </defs>
       <use xlink:href="#DejaVuSans-37"/>
       <use xlink:href="#DejaVuSans-35" transform="translate(63.623047 0)"/>
      </g>
     </g>
    </g>
    <g id="ytick_6">
     <g id="line2d_23">
      <path d="M 132.264062 289.637656 
L 857.664062 289.637656 
" clip-path="url(#p8f345449b7)" style="fill: none; stroke: #b0b0b0; stroke-width: 0.8; stroke-linecap: square"/>
     </g>
     <g id="line2d_24">
      <g>
       <use xlink:href="#m5de6b37d2d" x="132.264062" y="289.637656" style="stroke: #000000; stroke-width: 0.8"/>
      </g>
     </g>
     <g id="text_13">
      <!-- 100 -->
      <g transform="translate(68.001563 301.035312) scale(0.3 -0.3)">
       <use xlink:href="#DejaVuSans-31"/>
       <use xlink:href="#DejaVuSans-30" transform="translate(63.623047 0)"/>
       <use xlink:href="#DejaVuSans-30" transform="translate(127.246094 0)"/>
      </g>
     </g>
    </g>
    <g id="ytick_7">
     <g id="line2d_25">
      <path d="M 132.264062 221.877656 
L 857.664062 221.877656 
" clip-path="url(#p8f345449b7)" style="fill: none; stroke: #b0b0b0; stroke-width: 0.8; stroke-linecap: square"/>
     </g>
     <g id="line2d_26">
      <g>
       <use xlink:href="#m5de6b37d2d" x="132.264062" y="221.877656" style="stroke: #000000; stroke-width: 0.8"/>
      </g>
     </g>
     <g id="text_14">
      <!-- 125 -->
      <g transform="translate(68.001563 233.275312) scale(0.3 -0.3)">
       <use xlink:href="#DejaVuSans-31"/>
       <use xlink:href="#DejaVuSans-32" transform="translate(63.623047 0)"/>
       <use xlink:href="#DejaVuSans-35" transform="translate(127.246094 0)"/>
      </g>
     </g>
    </g>
    <g id="ytick_8">
     <g id="line2d_27">
      <path d="M 132.264062 154.117656 
L 857.664062 154.117656 
" clip-path="url(#p8f345449b7)" style="fill: none; stroke: #b0b0b0; stroke-width: 0.8; stroke-linecap: square"/>
     </g>
     <g id="line2d_28">
      <g>
       <use xlink:href="#m5de6b37d2d" x="132.264062" y="154.117656" style="stroke: #000000; stroke-width: 0.8"/>
      </g>
     </g>
     <g id="text_15">
      <!-- 150 -->
      <g transform="translate(68.001563 165.515312) scale(0.3 -0.3)">
       <use xlink:href="#DejaVuSans-31"/>
       <use xlink:href="#DejaVuSans-35" transform="translate(63.623047 0)"/>
       <use xlink:href="#DejaVuSans-30" transform="translate(127.246094 0)"/>
      </g>
     </g>
    </g>
    <g id="ytick_9">
     <g id="line2d_29">
      <path d="M 132.264062 86.357656 
L 857.664062 86.357656 
" clip-path="url(#p8f345449b7)" style="fill: none; stroke: #b0b0b0; stroke-width: 0.8; stroke-linecap: square"/>
     </g>
     <g id="line2d_30">
      <g>
       <use xlink:href="#m5de6b37d2d" x="132.264062" y="86.357656" style="stroke: #000000; stroke-width: 0.8"/>
      </g>
     </g>
     <g id="text_16">
      <!-- 175 -->
      <g transform="translate(68.001563 97.755312) scale(0.3 -0.3)">
       <use xlink:href="#DejaVuSans-31"/>
       <use xlink:href="#DejaVuSans-37" transform="translate(63.623047 0)"/>
       <use xlink:href="#DejaVuSans-35" transform="translate(127.246094 0)"/>
      </g>
     </g>
    </g>
    <g id="ytick_10">
     <g id="line2d_31">
      <path d="M 132.264062 18.597656 
L 857.664062 18.597656 
" clip-path="url(#p8f345449b7)" style="fill: none; stroke: #b0b0b0; stroke-width: 0.8; stroke-linecap: square"/>
     </g>
     <g id="line2d_32">
      <g>
       <use xlink:href="#m5de6b37d2d" x="132.264062" y="18.597656" style="stroke: #000000; stroke-width: 0.8"/>
      </g>
     </g>
     <g id="text_17">
      <!-- 200 -->
      <g transform="translate(68.001563 29.995312) scale(0.3 -0.3)">
       <use xlink:href="#DejaVuSans-32"/>
       <use xlink:href="#DejaVuSans-30" transform="translate(63.623047 0)"/>
       <use xlink:href="#DejaVuSans-30" transform="translate(127.246094 0)"/>
      </g>
     </g>
    </g>
    <g id="text_18">
     <!-- $\frac{P}{P_\infty}$ [-] -->
     <g transform="translate(40.45 366.217656) rotate(-90) scale(0.35 -0.35)">
      <defs>
       <path id="DejaVuSans-Oblique-50" d="M 1081 4666 
L 2541 4666 
Q 3178 4666 3512 4369 
Q 3847 4072 3847 3500 
Q 3847 2731 3353 2303 
Q 2859 1875 1966 1875 
L 1172 1875 
L 806 0 
L 172 0 
L 1081 4666 
z
M 1613 4147 
L 1275 2394 
L 2069 2394 
Q 2606 2394 2893 2669 
Q 3181 2944 3181 3456 
Q 3181 3784 2986 3965 
Q 2791 4147 2438 4147 
L 1613 4147 
z
" transform="scale(0.015625)"/>
       <path id="DejaVuSans-221e" d="M 2916 1091 
Q 2819 1203 2666 1466 
Q 2456 1091 2272 925 
Q 2041 725 1681 725 
Q 1259 725 981 1041 
Q 688 1372 688 1919 
Q 688 2444 981 2800 
Q 1244 3116 1688 3116 
Q 1916 3116 2084 3022 
Q 2281 2919 2416 2741 
Q 2541 2581 2666 2366 
Q 2875 2741 3059 2906 
Q 3291 3106 3650 3106 
Q 4072 3106 4350 2791 
Q 4644 2459 4644 1913 
Q 4644 1388 4350 1031 
Q 4088 716 3644 716 
Q 3416 716 3247 809 
Q 3078 894 2916 1091 
z
M 1647 1134 
Q 2163 1134 2472 1884 
Q 2075 2703 1647 2703 
Q 1334 2703 1175 2478 
Q 1003 2238 1003 1919 
Q 1003 1569 1175 1353 
Q 1350 1134 1647 1134 
z
M 3684 2697 
Q 3219 2697 2859 1947 
Q 3253 1128 3684 1128 
Q 3997 1128 4156 1353 
Q 4328 1594 4328 1913 
Q 4328 2263 4156 2478 
Q 3981 2697 3684 2697 
z
" transform="scale(0.015625)"/>
       <path id="DejaVuSans-2d" d="M 313 2009 
L 1997 2009 
L 1997 1497 
L 313 1497 
L 313 2009 
z
" transform="scale(0.015625)"/>
      </defs>
      <use xlink:href="#DejaVuSans-Oblique-50" transform="translate(21 43.965625) scale(0.7)"/>
      <use xlink:href="#DejaVuSans-Oblique-50" transform="translate(0 -38.31875) scale(0.7)"/>
      <use xlink:href="#DejaVuSans-221e" transform="translate(42.211914 -49.803125) scale(0.49)"/>
      <use xlink:href="#DejaVuSans-20" transform="translate(97.443359 0.16875)"/>
      <use xlink:href="#DejaVuSans-5b" transform="translate(129.230469 0.16875)"/>
      <use xlink:href="#DejaVuSans-2d" transform="translate(168.244141 0.16875)"/>
      <use xlink:href="#DejaVuSans-5d" transform="translate(204.328125 0.16875)"/>
      <path d="M 0 18.965625 
L 0 25.215625 
L 84.943359 25.215625 
L 84.943359 18.965625 
L 0 18.965625 
z
"/>
     </g>
    </g>
   </g>
   <g id="line2d_33">
    <path d="M 145.217634 557.501326 
L 203.224077 557.429672 
L 206.59539 557.219184 
L 208.858758 556.626826 
L 209.985491 554.872721 
L 211.140287 541.242537 
L 212.295082 530.696052 
L 213.449878 526.853226 
L 215.759469 524.99712 
L 216.914265 525.551537 
L 219.223856 526.367361 
L 220.378652 527.023024 
L 221.533447 527.405719 
L 222.688243 527.250338 
L 224.997834 527.342513 
L 230.771813 527.041085 
L 233.081404 526.967208 
L 236.545791 526.688055 
L 251.587228 526.808469 
L 261.174213 526.834075 
L 393.346417 526.966897 
L 454.78497 526.835949 
L 456.966251 526.591493 
L 458.056891 526.358088 
L 459.147532 526.374189 
L 460.238172 455.473898 
L 461.03351 114.303155 
L 461.828849 119.056748 
L 462.624187 156.488552 
L 463.419525 160.019134 
L 464.214864 160.916459 
L 465.805541 165.166362 
L 466.600879 168.237216 
L 467.396217 169.179391 
L 468.191556 169.659433 
L 470.577571 170.556223 
L 471.372909 170.948142 
L 472.168248 171.509836 
L 472.963586 171.590752 
L 473.758924 171.557139 
L 474.554263 170.651159 
L 475.349601 171.265709 
L 476.144939 171.508332 
L 476.940278 171.329615 
L 478.530955 171.258202 
L 479.326293 171.00534 
L 480.121631 171.403801 
L 481.712308 171.733403 
L 484.098323 171.757264 
L 484.893662 172.108143 
L 487.279677 172.411532 
L 488.870354 172.635077 
L 491.256369 173.237407 
L 492.051707 173.485674 
L 492.847045 173.910374 
L 493.642384 174.46526 
L 495.233061 176.019044 
L 496.036544 177.153285 
L 496.889902 178.70386 
L 497.818159 181.658086 
L 498.819031 186.047269 
L 499.906277 194.166392 
L 501.086396 206.971823 
L 502.364915 225.910287 
L 503.752628 248.228184 
L 505.26183 274.992551 
L 508.686293 326.837989 
L 510.626462 348.906083 
L 512.737374 367.374165 
L 515.035003 382.453599 
L 517.535804 395.287732 
L 520.255053 402.706687 
L 523.21439 407.986109 
L 526.430182 408.938133 
L 529.924581 408.83413 
L 533.715842 407.844163 
L 542.261647 403.213722 
L 547.043925 399.665803 
L 552.17195 394.273496 
L 557.629371 387.757271 
L 563.332153 382.166176 
L 574.785025 373.323159 
L 580.511462 370.640335 
L 586.237898 368.207794 
L 591.964334 365.588639 
L 597.690771 363.790952 
L 603.417207 363.169535 
L 609.143643 363.379975 
L 632.049389 363.518093 
L 637.775825 363.351751 
L 643.502261 461.063422 
L 651.598243 555.892594 
L 659.694226 560.365875 
L 667.790208 559.235287 
L 675.88619 558.80194 
L 700.174136 558.289873 
L 716.366101 557.986222 
L 764.941993 557.578506 
L 837.805833 557.433018 
L 837.805833 557.433018 
" clip-path="url(#p8f345449b7)" style="fill: none; stroke: #ff0000; stroke-width: 3; stroke-linecap: square"/>
   </g>
   <g id="line2d_34">
    <defs>
     <path id="mfe20be9b2b" d="M -0 7.071068 
L 4.242641 0 
L -0 -7.071068 
L -4.242641 -0 
z
" style="stroke: #000000; stroke-width: 1.5; stroke-linejoin: miter"/>
    </defs>
    <g clip-path="url(#p8f345449b7)">
     <use xlink:href="#mfe20be9b2b" x="145.217634" y="560.677656" style="fill: #ffffff; stroke: #000000; stroke-width: 1.5; stroke-linejoin: miter"/>
     <use xlink:href="#mfe20be9b2b" x="209.985491" y="560.677656" style="fill: #ffffff; stroke: #000000; stroke-width: 1.5; stroke-linejoin: miter"/>
     <use xlink:href="#mfe20be9b2b" x="213.106834" y="545.407797" style="fill: #ffffff; stroke: #000000; stroke-width: 1.5; stroke-linejoin: miter"/>
     <use xlink:href="#mfe20be9b2b" x="219.349519" y="532.04667" style="fill: #ffffff; stroke: #000000; stroke-width: 1.5; stroke-linejoin: miter"/>
     <use xlink:href="#mfe20be9b2b" x="229.753994" y="528.229206" style="fill: #ffffff; stroke: #000000; stroke-width: 1.5; stroke-linejoin: miter"/>
     <use xlink:href="#mfe20be9b2b" x="270.85167" y="528.229206" style="fill: #ffffff; stroke: #000000; stroke-width: 1.5; stroke-linejoin: miter"/>
     <use xlink:href="#mfe20be9b2b" x="404.881903" y="530.061842" style="fill: #ffffff; stroke: #000000; stroke-width: 1.5; stroke-linejoin: miter"/>
     <use xlink:href="#mfe20be9b2b" x="435.413204" y="530.061842" style="fill: #ffffff; stroke: #000000; stroke-width: 1.5; stroke-linejoin: miter"/>
     <use xlink:href="#mfe20be9b2b" x="460.016097" y="530.061842" style="fill: #ffffff; stroke: #000000; stroke-width: 1.5; stroke-linejoin: miter"/>
     <use xlink:href="#mfe20be9b2b" x="460.312518" y="423.806959" style="fill: #ffffff; stroke: #000000; stroke-width: 1.5; stroke-linejoin: miter"/>
     <use xlink:href="#mfe20be9b2b" x="460.608938" y="288.737191" style="fill: #ffffff; stroke: #000000; stroke-width: 1.5; stroke-linejoin: miter"/>
     <use xlink:href="#mfe20be9b2b" x="460.608938" y="96.938121" style="fill: #ffffff; stroke: #000000; stroke-width: 1.5; stroke-linejoin: miter"/>
     <use xlink:href="#mfe20be9b2b" x="462.387461" y="192.387424" style="fill: #ffffff; stroke: #000000; stroke-width: 1.5; stroke-linejoin: miter"/>
     <use xlink:href="#mfe20be9b2b" x="466.537346" y="211.297191" style="fill: #ffffff; stroke: #000000; stroke-width: 1.5; stroke-linejoin: miter"/>
     <use xlink:href="#mfe20be9b2b" x="484.02615" y="190.586493" style="fill: #ffffff; stroke: #000000; stroke-width: 1.5; stroke-linejoin: miter"/>
     <use xlink:href="#mfe20be9b2b" x="492.622341" y="198.69068" style="fill: #ffffff; stroke: #000000; stroke-width: 1.5; stroke-linejoin: miter"/>
     <use xlink:href="#mfe20be9b2b" x="499.14359" y="205.8944" style="fill: #ffffff; stroke: #000000; stroke-width: 1.5; stroke-linejoin: miter"/>
     <use xlink:href="#mfe20be9b2b" x="503.886317" y="290.538121" style="fill: #ffffff; stroke: #000000; stroke-width: 1.5; stroke-linejoin: miter"/>
     <use xlink:href="#mfe20be9b2b" x="507.739782" y="371.579982" style="fill: #ffffff; stroke: #000000; stroke-width: 1.5; stroke-linejoin: miter"/>
     <use xlink:href="#mfe20be9b2b" x="514.853871" y="427.408819" style="fill: #ffffff; stroke: #000000; stroke-width: 1.5; stroke-linejoin: miter"/>
     <use xlink:href="#mfe20be9b2b" x="529.08205" y="435.513005" style="fill: #ffffff; stroke: #000000; stroke-width: 1.5; stroke-linejoin: miter"/>
     <use xlink:href="#mfe20be9b2b" x="548.052956" y="422.006028" style="fill: #ffffff; stroke: #000000; stroke-width: 1.5; stroke-linejoin: miter"/>
     <use xlink:href="#mfe20be9b2b" x="575.916473" y="376.082307" style="fill: #ffffff; stroke: #000000; stroke-width: 1.5; stroke-linejoin: miter"/>
     <use xlink:href="#mfe20be9b2b" x="600.815787" y="377.883238" style="fill: #ffffff; stroke: #000000; stroke-width: 1.5; stroke-linejoin: miter"/>
     <use xlink:href="#mfe20be9b2b" x="622.158056" y="378.783703" style="fill: #ffffff; stroke: #000000; stroke-width: 1.5; stroke-linejoin: miter"/>
     <use xlink:href="#mfe20be9b2b" x="643.500324" y="378.783703" style="fill: #ffffff; stroke: #000000; stroke-width: 1.5; stroke-linejoin: miter"/>
     <use xlink:href="#mfe20be9b2b" x="644.686006" y="559.777191" style="fill: #ffffff; stroke: #000000; stroke-width: 1.5; stroke-linejoin: miter"/>
     <use xlink:href="#mfe20be9b2b" x="662.47123" y="559.777191" style="fill: #ffffff; stroke: #000000; stroke-width: 1.5; stroke-linejoin: miter"/>
     <use xlink:href="#mfe20be9b2b" x="728.128348" y="559.777191" style="fill: #ffffff; stroke: #000000; stroke-width: 1.5; stroke-linejoin: miter"/>
    </g>
   </g>
   <g id="line2d_35">
    <path d="M 139.25055 560.62871 
L 146.245564 560.62871 
L 153.240578 560.62871 
L 160.235592 560.62871 
L 167.230605 560.628652 
L 174.225619 560.628559 
L 181.220633 560.628215 
L 188.215647 560.627025 
L 195.210661 560.620258 
L 202.205675 560.573738 
L 209.200688 589.363889 
L 216.195702 558.696607 
L 223.190716 560.841133 
L 230.18573 560.606068 
L 237.180744 560.169388 
L 244.175758 560.280732 
L 251.170771 560.293382 
L 258.165785 560.288853 
L 265.160799 560.253281 
L 272.155813 560.229821 
L 279.150827 560.251925 
L 286.145841 560.326567 
L 293.140854 560.389077 
L 300.135868 560.391233 
L 307.130882 560.364442 
L 314.125896 560.335382 
L 321.12091 560.280713 
L 328.115924 560.235225 
L 335.110937 560.217627 
L 342.105951 560.21549 
L 349.100965 560.220265 
L 356.095979 560.217775 
L 363.090993 560.208427 
L 370.086007 560.192263 
L 377.08102 560.175141 
L 384.076034 560.153724 
L 391.071048 560.133357 
L 398.066062 560.112436 
L 405.061076 560.092873 
L 412.05609 560.077489 
L 419.051103 560.065036 
L 426.046117 560.053293 
L 433.041131 560.045276 
L 440.036145 560.039627 
L 447.031159 560.035317 
L 454.026173 560.007956 
L 461.021186 506.854685 
L 468.0162 551.406662 
L 475.011214 551.485461 
L 482.006228 551.004377 
L 489.001242 548.373199 
L 495.996256 531.399781 
L 502.991269 490.488354 
L 509.986283 508.647248 
L 516.981297 540.630514 
L 523.976311 554.59141 
L 530.971325 557.779677 
L 537.966339 560.003872 
L 544.961352 562.906201 
L 551.956366 563.758053 
L 558.95138 562.582024 
L 565.946394 561.687722 
L 572.941408 560.47048 
L 579.936422 559.995025 
L 586.931435 559.762382 
L 593.926449 559.133494 
L 600.921463 559.398359 
L 607.916477 560.571598 
L 614.911491 561.0269 
L 621.906505 559.774682 
L 628.901518 556.856666 
L 635.896532 539.132458 
L 642.891546 454.406059 
L 649.88656 538.015731 
L 656.881574 560.933171 
L 663.876588 561.99957 
L 670.871601 561.364587 
L 677.866615 561.140857 
L 684.861629 561.095923 
L 691.856643 561.025623 
L 698.851657 560.930437 
L 705.846671 560.843017 
L 712.841684 560.788373 
L 719.836698 560.764267 
L 726.831712 560.755978 
L 733.826726 560.749884 
L 740.82174 560.740569 
L 747.816754 560.730473 
L 754.811767 560.736712 
L 761.806781 560.756061 
L 768.801795 560.78392 
L 775.796809 560.815115 
L 782.791823 560.845987 
L 789.786837 560.876193 
L 796.78185 560.907732 
L 803.776864 560.934638 
L 810.771878 560.958487 
L 817.766892 560.954738 
L 824.761906 560.990047 
L 831.75692 561.051954 
" clip-path="url(#p8f345449b7)" style="fill: none; stroke: #808080; stroke-width: 3; stroke-linecap: square"/>
   </g>
   <g id="patch_3">
    <path d="M 132.264062 628.437656 
L 132.264062 18.597656 
" style="fill: none; stroke: #000000; stroke-width: 0.8; stroke-linejoin: miter; stroke-linecap: square"/>
   </g>
   <g id="patch_4">
    <path d="M 857.664062 628.437656 
L 857.664062 18.597656 
" style="fill: none; stroke: #000000; stroke-width: 0.8; stroke-linejoin: miter; stroke-linecap: square"/>
   </g>
   <g id="patch_5">
    <path d="M 132.264062 628.437656 
L 857.664062 628.437656 
" style="fill: none; stroke: #000000; stroke-width: 0.8; stroke-linejoin: miter; stroke-linecap: square"/>
   </g>
   <g id="patch_6">
    <path d="M 132.264062 18.597656 
L 857.664062 18.597656 
" style="fill: none; stroke: #000000; stroke-width: 0.8; stroke-linejoin: miter; stroke-linecap: square"/>
   </g>
   <g id="legend_1">
    <g id="patch_7">
     <path d="M 506.635937 285.844531 
L 833.164062 285.844531 
Q 840.164062 285.844531 840.164062 278.844531 
L 840.164062 43.097656 
Q 840.164062 36.097656 833.164062 36.097656 
L 506.635937 36.097656 
Q 499.635937 36.097656 499.635937 43.097656 
L 499.635937 278.844531 
Q 499.635937 285.844531 506.635937 285.844531 
z
" style="fill: #ffffff; opacity: 0.8; stroke: #cccccc; stroke-linejoin: miter"/>
    </g>
    <g id="patch_8">
     <path d="M 513.635937 83.347656 
L 583.635937 83.347656 
L 583.635937 58.847656 
L 513.635937 58.847656 
z
" style="fill: #99ccff; fill-opacity: 0.7"/>
    </g>
    <g id="text_19">
     <!-- 1$\sigma[\frac{P}{P_\infty}]$ -->
     <g transform="translate(611.635937 83.347656) scale(0.35 -0.35)">
      <defs>
       <path id="DejaVuSans-Oblique-3c3" d="M 2219 3044 
Q 1744 3044 1422 2700 
Q 1081 2341 969 1747 
Q 844 1119 1044 756 
Q 1241 397 1706 397 
Q 2166 397 2503 759 
Q 2844 1122 2966 1747 
Q 3075 2319 2881 2700 
Q 2700 3044 2219 3044 
z
M 2309 3503 
L 4219 3500 
L 4106 2925 
L 3463 2925 
Q 3706 2438 3575 1747 
Q 3406 888 2884 400 
Q 2359 -91 1609 -91 
Q 856 -91 525 400 
Q 194 888 363 1747 
Q 528 2609 1050 3097 
Q 1484 3503 2309 3503 
z
" transform="scale(0.015625)"/>
      </defs>
      <use xlink:href="#DejaVuSans-31" transform="translate(0 0.16875)"/>
      <use xlink:href="#DejaVuSans-Oblique-3c3" transform="translate(63.623047 0.16875)"/>
      <use xlink:href="#DejaVuSans-5b" transform="translate(127.001953 0.16875)"/>
      <use xlink:href="#DejaVuSans-Oblique-50" transform="translate(187.015625 43.965625) scale(0.7)"/>
      <use xlink:href="#DejaVuSans-Oblique-50" transform="translate(166.015625 -38.31875) scale(0.7)"/>
      <use xlink:href="#DejaVuSans-221e" transform="translate(208.227539 -49.803125) scale(0.49)"/>
      <use xlink:href="#DejaVuSans-5d" transform="translate(263.458984 0.16875)"/>
      <path d="M 166.015625 18.965625 
L 166.015625 25.215625 
L 250.958984 25.215625 
L 250.958984 18.965625 
L 166.015625 18.965625 
z
"/>
     </g>
    </g>
    <g id="line2d_36">
     <path d="M 513.635937 132.692187 
L 548.635937 132.692187 
L 583.635937 132.692187 
" style="fill: none; stroke: #808080; stroke-width: 3; stroke-linecap: square"/>
    </g>
    <g id="text_20">
     <!-- Error to [21] -->
     <g transform="translate(611.635937 144.942187) scale(0.35 -0.35)">
      <defs>
       <path id="DejaVuSans-45" d="M 628 4666 
L 3578 4666 
L 3578 4134 
L 1259 4134 
L 1259 2753 
L 3481 2753 
L 3481 2222 
L 1259 2222 
L 1259 531 
L 3634 531 
L 3634 0 
L 628 0 
L 628 4666 
z
" transform="scale(0.015625)"/>
      </defs>
      <use xlink:href="#DejaVuSans-45"/>
      <use xlink:href="#DejaVuSans-72" transform="translate(63.183594 0)"/>
      <use xlink:href="#DejaVuSans-72" transform="translate(102.546875 0)"/>
      <use xlink:href="#DejaVuSans-6f" transform="translate(141.410156 0)"/>
      <use xlink:href="#DejaVuSans-72" transform="translate(202.591797 0)"/>
      <use xlink:href="#DejaVuSans-20" transform="translate(243.705078 0)"/>
      <use xlink:href="#DejaVuSans-74" transform="translate(275.492188 0)"/>
      <use xlink:href="#DejaVuSans-6f" transform="translate(314.701172 0)"/>
      <use xlink:href="#DejaVuSans-20" transform="translate(375.882812 0)"/>
      <use xlink:href="#DejaVuSans-5b" transform="translate(407.669922 0)"/>
      <use xlink:href="#DejaVuSans-32" transform="translate(446.683594 0)"/>
      <use xlink:href="#DejaVuSans-31" transform="translate(510.306641 0)"/>
      <use xlink:href="#DejaVuSans-5d" transform="translate(573.929688 0)"/>
     </g>
    </g>
    <g id="line2d_37">
     <path d="M 513.635937 190.721094 
L 548.635937 190.721094 
L 583.635937 190.721094 
" style="fill: none; stroke: #ff0000; stroke-width: 3; stroke-linecap: square"/>
    </g>
    <g id="text_21">
     <!-- $\mu[\frac{P}{P_\infty}]$ -->
     <g transform="translate(611.635937 202.971094) scale(0.35 -0.35)">
      <defs>
       <path id="DejaVuSans-Oblique-3bc" d="M -84 -1331 
L 856 3500 
L 1434 3500 
L 1009 1322 
Q 997 1256 987 1175 
Q 978 1094 978 1013 
Q 978 722 1161 565 
Q 1344 409 1684 409 
Q 2147 409 2431 671 
Q 2716 934 2816 1459 
L 3213 3500 
L 3788 3500 
L 3266 809 
Q 3253 750 3248 706 
Q 3244 663 3244 628 
Q 3244 531 3283 486 
Q 3322 441 3406 441 
Q 3438 441 3492 456 
Q 3547 472 3647 513 
L 3559 50 
Q 3422 -19 3297 -55 
Q 3172 -91 3053 -91 
Q 2847 -91 2730 40 
Q 2613 172 2613 403 
Q 2438 153 2195 31 
Q 1953 -91 1625 -91 
Q 1334 -91 1117 43 
Q 900 178 831 397 
L 494 -1331 
L -84 -1331 
z
" transform="scale(0.015625)"/>
      </defs>
      <use xlink:href="#DejaVuSans-Oblique-3bc" transform="translate(0 0.16875)"/>
      <use xlink:href="#DejaVuSans-5b" transform="translate(63.623047 0.16875)"/>
      <use xlink:href="#DejaVuSans-Oblique-50" transform="translate(123.636719 43.965625) scale(0.7)"/>
      <use xlink:href="#DejaVuSans-Oblique-50" transform="translate(102.636719 -38.31875) scale(0.7)"/>
      <use xlink:href="#DejaVuSans-221e" transform="translate(144.848633 -49.803125) scale(0.49)"/>
      <use xlink:href="#DejaVuSans-5d" transform="translate(200.080078 0.16875)"/>
      <path d="M 102.636719 18.965625 
L 102.636719 25.215625 
L 187.580078 25.215625 
L 187.580078 18.965625 
L 102.636719 18.965625 
z
"/>
     </g>
    </g>
    <g id="line2d_38">
     <g>
      <use xlink:href="#mfe20be9b2b" x="548.635937" y="252.315625" style="fill: #ffffff; stroke: #000000; stroke-width: 1.5; stroke-linejoin: miter"/>
     </g>
    </g>
    <g id="text_22">
     <!-- CFD [12] -->
     <g transform="translate(611.635937 264.565625) scale(0.35 -0.35)">
      <defs>
       <path id="DejaVuSans-43" d="M 4122 4306 
L 4122 3641 
Q 3803 3938 3442 4084 
Q 3081 4231 2675 4231 
Q 1875 4231 1450 3742 
Q 1025 3253 1025 2328 
Q 1025 1406 1450 917 
Q 1875 428 2675 428 
Q 3081 428 3442 575 
Q 3803 722 4122 1019 
L 4122 359 
Q 3791 134 3420 21 
Q 3050 -91 2638 -91 
Q 1578 -91 968 557 
Q 359 1206 359 2328 
Q 359 3453 968 4101 
Q 1578 4750 2638 4750 
Q 3056 4750 3426 4639 
Q 3797 4528 4122 4306 
z
" transform="scale(0.015625)"/>
       <path id="DejaVuSans-46" d="M 628 4666 
L 3309 4666 
L 3309 4134 
L 1259 4134 
L 1259 2759 
L 3109 2759 
L 3109 2228 
L 1259 2228 
L 1259 0 
L 628 0 
L 628 4666 
z
" transform="scale(0.015625)"/>
       <path id="DejaVuSans-44" d="M 1259 4147 
L 1259 519 
L 2022 519 
Q 2988 519 3436 956 
Q 3884 1394 3884 2338 
Q 3884 3275 3436 3711 
Q 2988 4147 2022 4147 
L 1259 4147 
z
M 628 4666 
L 1925 4666 
Q 3281 4666 3915 4102 
Q 4550 3538 4550 2338 
Q 4550 1131 3912 565 
Q 3275 0 1925 0 
L 628 0 
L 628 4666 
z
" transform="scale(0.015625)"/>
      </defs>
      <use xlink:href="#DejaVuSans-43"/>
      <use xlink:href="#DejaVuSans-46" transform="translate(69.824219 0)"/>
      <use xlink:href="#DejaVuSans-44" transform="translate(127.34375 0)"/>
      <use xlink:href="#DejaVuSans-20" transform="translate(204.345703 0)"/>
      <use xlink:href="#DejaVuSans-5b" transform="translate(236.132812 0)"/>
      <use xlink:href="#DejaVuSans-31" transform="translate(275.146484 0)"/>
      <use xlink:href="#DejaVuSans-32" transform="translate(338.769531 0)"/>
      <use xlink:href="#DejaVuSans-5d" transform="translate(402.392578 0)"/>
     </g>
    </g>
   </g>
  </g>
 </g>
 <defs>
  <clipPath id="p8f345449b7">
   <rect x="132.264062" y="18.597656" width="725.4" height="609.84"/>
  </clipPath>
 </defs>
</svg>
