<?xml version="1.0" encoding="utf-8" standalone="no"?>
<!DOCTYPE svg PUBLIC "-//W3C//DTD SVG 1.1//EN"
  "http://www.w3.org/Graphics/SVG/1.1/DTD/svg11.dtd">
<svg xmlns:xlink="http://www.w3.org/1999/xlink" width="854.337812pt" height="698.147812pt" viewBox="0 0 854.337812 698.147812" xmlns="http://www.w3.org/2000/svg" version="1.1">
 <metadata>
  <rdf:RDF xmlns:dc="http://purl.org/dc/elements/1.1/" xmlns:cc="http://creativecommons.org/ns#" xmlns:rdf="http://www.w3.org/1999/02/22-rdf-syntax-ns#">
   <cc:Work>
    <dc:type rdf:resource="http://purl.org/dc/dcmitype/StillImage"/>
    <dc:date>2024-12-22T23:58:02.419574</dc:date>
    <dc:format>image/svg+xml</dc:format>
    <dc:creator>
     <cc:Agent>
      <dc:title>Matplotlib v3.10.0, https://matplotlib.org/</dc:title>
     </cc:Agent>
    </dc:creator>
   </cc:Work>
  </rdf:RDF>
 </metadata>
 <defs>
  <style type="text/css">*{stroke-linejoin: round; stroke-linecap: butt}</style>
 </defs>
 <g id="figure_1">
  <g id="patch_1">
   <path d="M 0 698.147812 
L 854.337812 698.147812 
L 854.337812 0 
L 0 0 
z
" style="fill: #ffffff"/>
  </g>
  <g id="axes_1">
   <g id="patch_2">
    <path d="M 99.782813 617.04 
L 825.182812 617.04 
L 825.182812 7.2 
L 99.782813 7.2 
z
" style="fill: #ffffff"/>
   </g>
   <g id="FillBetweenPolyCollection_1">
    <path d="M 113.216146 44.964409 
L 113.216146 28.332489 
L 131.473309 28.332489 
L 144.801156 28.332489 
L 154.530729 28.332489 
L 161.633713 28.332489 
L 166.819465 28.332489 
L 170.605856 28.332489 
L 173.370976 28.332489 
L 175.390885 28.332489 
L 176.867153 28.332489 
L 178.045884 28.332489 
L 179.214348 28.332489 
L 180.382812 28.332489 
L 181.580378 28.332489 
L 182.777944 28.332489 
L 183.97551 28.332489 
L 185.173076 28.332489 
L 186.370642 28.332489 
L 187.568208 28.332489 
L 188.765773 28.332489 
L 189.963339 28.332489 
L 191.160905 28.332489 
L 192.358471 28.332489 
L 193.556037 28.332489 
L 194.753603 28.332489 
L 195.951169 28.332489 
L 197.148734 28.332489 
L 198.3463 28.332489 
L 199.543866 28.332489 
L 200.741432 28.332489 
L 201.938998 28.332489 
L 203.136564 28.332489 
L 204.334129 28.332489 
L 205.531695 28.332489 
L 206.729261 28.332489 
L 207.926827 28.332489 
L 209.124393 28.332489 
L 210.321959 28.332489 
L 211.519525 28.332489 
L 212.71709 28.332489 
L 213.914656 28.332489 
L 215.112222 28.332489 
L 216.309788 28.332489 
L 217.507354 28.332489 
L 218.70492 28.332489 
L 219.902486 28.332489 
L 221.100051 28.332489 
L 222.297618 28.332489 
L 223.525354 28.332489 
L 224.796957 28.33249 
L 226.114317 28.33249 
L 227.479956 28.332491 
L 228.896458 28.332491 
L 230.365307 28.332493 
L 231.888272 28.332494 
L 233.467413 28.332496 
L 235.104998 28.332499 
L 236.802458 28.332504 
L 238.561564 28.332509 
L 240.384794 28.332517 
L 242.275476 28.332528 
L 244.237372 28.332542 
L 246.26959 28.332561 
L 248.376703 28.332587 
L 250.562549 28.332619 
L 252.827256 28.332665 
L 255.17665 28.33272 
L 257.612034 28.332797 
L 260.136299 28.332892 
L 262.754519 28.33302 
L 265.469006 28.333176 
L 268.283147 28.333385 
L 271.200807 28.333638 
L 274.225929 28.333971 
L 277.362423 28.334373 
L 280.614257 28.334895 
L 283.985727 28.33552 
L 287.481859 28.33632 
L 291.106547 28.337273 
L 294.864535 28.338474 
L 298.761139 28.339896 
L 302.801412 28.341664 
L 306.990188 28.343746 
L 311.33323 28.346297 
L 315.836393 28.349283 
L 320.505552 28.352893 
L 325.346609 28.357094 
L 330.34043 28.362108 
L 335.478253 28.367912 
L 340.805211 28.37476 
L 346.328768 28.382646 
L 352.055792 28.391859 
L 357.993911 28.402422 
L 364.150953 28.414671 
L 370.534884 28.428678 
L 377.154159 28.444869 
L 384.01756 28.463409 
L 391.133967 28.484858 
L 398.512667 28.509542 
L 406.16339 28.538306 
L 413.716249 28.57173 
L 419.353169 28.611194 
L 423.367425 28.657357 
L 426.22662 28.712086 
L 428.263555 28.776826 
L 429.715069 28.854183 
L 430.855836 28.946129 
L 431.98687 29.055475 
L 433.117905 29.184044 
L 434.248939 29.334055 
L 435.379973 29.505119 
L 436.511008 29.698266 
L 437.642042 29.909309 
L 438.773077 30.140971 
L 439.904111 30.376384 
L 440.728906 30.608209 
L 441.553702 30.844024 
L 442.378497 31.113036 
L 443.203293 31.476088 
L 444.028088 31.876678 
L 444.852883 32.259379 
L 445.677679 32.677575 
L 446.502474 33.088624 
L 447.327269 33.555707 
L 448.152065 34.007211 
L 448.97686 34.461288 
L 449.801655 34.937651 
L 450.626451 35.449635 
L 451.451246 35.965374 
L 452.276041 36.472221 
L 453.100837 36.982515 
L 453.925632 37.493366 
L 454.750428 38.010634 
L 455.575223 38.512021 
L 456.400018 38.994934 
L 457.224814 39.458475 
L 458.049609 39.90451 
L 458.874404 40.334113 
L 459.6992 40.751411 
L 460.523995 41.15399 
L 461.34879 41.541611 
L 462.173586 41.915084 
L 462.998381 42.27155 
L 463.823176 42.614701 
L 464.647972 42.941114 
L 465.472767 43.249977 
L 466.297563 43.538525 
L 467.122358 43.809617 
L 467.947153 44.064663 
L 468.771949 44.3075 
L 469.596744 44.536246 
L 470.421539 44.750602 
L 471.246335 44.954762 
L 472.07113 45.144632 
L 472.895925 45.325426 
L 473.720721 45.49373 
L 474.545516 45.644599 
L 475.370311 45.780146 
L 476.195107 45.896984 
L 477.028349 45.996208 
L 477.913313 46.076471 
L 478.87595 46.141245 
L 479.913891 46.189274 
L 481.041405 46.220872 
L 482.265232 46.237499 
L 483.591104 46.23508 
L 485.030213 46.219872 
L 486.595312 46.191587 
L 488.296711 46.15149 
L 490.146608 46.105571 
L 492.158634 46.052144 
L 494.347728 45.995577 
L 496.730454 45.937637 
L 499.323878 45.877283 
L 502.14384 45.820925 
L 505.212782 45.768539 
L 508.547677 45.724357 
L 512.171498 45.692616 
L 516.103177 45.675332 
L 520.362028 45.679406 
L 524.965493 45.695287 
L 529.924892 45.731686 
L 535.242844 45.768429 
L 540.902391 45.816458 
L 546.816387 45.867058 
L 552.754914 45.919629 
L 558.693441 45.971094 
L 564.631967 46.035965 
L 570.570494 46.11309 
L 576.50902 46.199823 
L 582.447547 46.2924 
L 588.386073 46.371064 
L 594.3246 46.445266 
L 600.263127 46.505348 
L 606.201653 46.557097 
L 612.14018 46.584764 
L 618.078706 46.610757 
L 624.017233 46.610074 
L 629.955759 46.628268 
L 638.351593 46.619336 
L 646.747426 46.660755 
L 655.143259 46.66823 
L 663.539093 46.679794 
L 671.934926 46.657002 
L 680.330759 46.62476 
L 688.726593 46.572537 
L 697.122426 46.51697 
L 705.518259 46.451615 
L 713.914093 46.387492 
L 722.309926 46.320494 
L 730.705759 46.259044 
L 739.101593 46.197212 
L 747.497426 46.14126 
L 755.893259 46.088819 
L 764.289093 46.042378 
L 772.684926 46.003201 
L 781.080759 45.968897 
L 789.476593 45.940312 
L 797.872426 45.915533 
L 806.268259 45.895568 
L 814.664093 45.879596 
L 823.059926 45.869026 
L 831.455759 45.863071 
L 831.455759 65.730939 
L 831.455759 65.730939 
L 823.059926 65.729361 
L 814.664093 65.725155 
L 806.268259 65.719722 
L 797.872426 65.712523 
L 789.476593 65.704934 
L 781.080759 65.696763 
L 772.684926 65.690765 
L 764.289093 65.686217 
L 755.893259 65.686739 
L 747.497426 65.689815 
L 739.101593 65.694237 
L 730.705759 65.700219 
L 722.309926 65.704082 
L 713.914093 65.707769 
L 705.518259 65.708286 
L 697.122426 65.702053 
L 688.726593 65.687267 
L 680.330759 65.659391 
L 671.934926 65.614693 
L 663.539093 65.548746 
L 655.143259 65.453618 
L 646.747426 65.355622 
L 638.351593 65.234761 
L 629.955759 65.169185 
L 624.017233 65.088585 
L 618.078706 65.028213 
L 612.14018 64.955397 
L 606.201653 64.884604 
L 600.263127 64.807517 
L 594.3246 64.729823 
L 588.386073 64.658994 
L 582.447547 64.593683 
L 576.50902 64.532462 
L 570.570494 64.493334 
L 564.631967 64.482038 
L 558.693441 64.502465 
L 552.754914 64.561248 
L 546.816387 64.638845 
L 540.902391 64.741476 
L 535.242844 64.859813 
L 529.924892 64.98265 
L 524.965493 65.101572 
L 520.362028 65.216515 
L 516.103177 65.327455 
L 512.171498 65.438337 
L 508.547677 65.545723 
L 505.212782 65.651968 
L 502.14384 65.754754 
L 499.323878 65.858919 
L 496.730454 65.963268 
L 494.347728 66.070477 
L 492.158634 66.179979 
L 490.146608 66.291907 
L 488.296711 66.404166 
L 486.595312 66.514729 
L 485.030213 66.619658 
L 483.591104 66.716854 
L 482.265232 66.799713 
L 481.041405 66.866619 
L 479.913891 66.913922 
L 478.87595 66.943834 
L 477.913313 66.956682 
L 477.028349 66.951844 
L 476.195107 66.928935 
L 475.370311 66.88612 
L 474.545516 66.826339 
L 473.720721 66.747348 
L 472.895925 66.653947 
L 472.07113 66.546031 
L 471.246335 66.42613 
L 470.421539 66.29419 
L 469.596744 66.147537 
L 468.771949 65.985115 
L 467.947153 65.809363 
L 467.122358 65.615989 
L 466.297563 65.406903 
L 465.472767 65.176994 
L 464.647972 64.925408 
L 463.823176 64.654456 
L 462.998381 64.365092 
L 462.173586 64.059652 
L 461.34879 63.733729 
L 460.523995 63.388959 
L 459.6992 63.022407 
L 458.874404 62.632502 
L 458.049609 62.218452 
L 457.224814 61.774163 
L 456.400018 61.295467 
L 455.575223 60.778122 
L 454.750428 60.220449 
L 453.925632 59.622871 
L 453.100837 59.00681 
L 452.276041 58.364519 
L 451.451246 57.697695 
L 450.626451 56.991524 
L 449.801655 56.258724 
L 448.97686 55.52573 
L 448.152065 54.776073 
L 447.327269 53.985663 
L 446.502474 53.132117 
L 445.677679 52.279389 
L 444.852883 51.373725 
L 444.028088 50.481186 
L 443.203293 49.603241 
L 442.378497 48.845799 
L 441.553702 48.309659 
L 440.728906 47.914889 
L 439.904111 47.588149 
L 438.773077 47.278882 
L 437.642042 46.982804 
L 436.511008 46.714783 
L 435.379973 46.467998 
L 434.248939 46.247407 
L 433.117905 46.051049 
L 431.98687 45.88068 
L 430.855836 45.733927 
L 429.715069 45.609744 
L 428.263555 45.5049 
L 426.22662 45.417426 
L 423.367425 45.344084 
L 419.353169 45.283053 
L 413.716249 45.231843 
L 406.16339 45.189347 
L 398.512667 45.15368 
L 391.133967 45.123881 
L 384.01756 45.098716 
L 377.154159 45.077576 
L 370.534884 45.059625 
L 364.150953 45.044512 
L 357.993911 45.031621 
L 352.055792 45.020768 
L 346.328768 45.011494 
L 340.805211 45.003714 
L 335.478253 44.997064 
L 330.34043 44.991519 
L 325.346609 44.986783 
L 320.505552 44.982867 
L 315.836393 44.979528 
L 311.33323 44.976795 
L 306.990188 44.97447 
L 302.801412 44.972591 
L 298.761139 44.970996 
L 294.864535 44.969724 
L 291.106547 44.968649 
L 287.481859 44.967803 
L 283.985727 44.96709 
L 280.614257 44.966537 
L 277.362423 44.966074 
L 274.225929 44.965719 
L 271.200807 44.965423 
L 268.283147 44.965201 
L 265.469006 44.965015 
L 262.754519 44.964878 
L 260.136299 44.964765 
L 257.612034 44.964682 
L 255.17665 44.964613 
L 252.827256 44.964564 
L 250.562549 44.964524 
L 248.376703 44.964496 
L 246.26959 44.964473 
L 244.237372 44.964456 
L 242.275476 44.964443 
L 240.384794 44.964434 
L 238.561564 44.964427 
L 236.802458 44.964422 
L 235.104998 44.964418 
L 233.467413 44.964416 
L 231.888272 44.964414 
L 230.365307 44.964412 
L 228.896458 44.964411 
L 227.479956 44.96441 
L 226.114317 44.96441 
L 224.796957 44.96441 
L 223.525354 44.964409 
L 222.297618 44.964409 
L 221.100051 44.964409 
L 219.902486 44.964409 
L 218.70492 44.964409 
L 217.507354 44.964409 
L 216.309788 44.964409 
L 215.112222 44.964409 
L 213.914656 44.964409 
L 212.71709 44.964409 
L 211.519525 44.964409 
L 210.321959 44.964409 
L 209.124393 44.964409 
L 207.926827 44.964409 
L 206.729261 44.964409 
L 205.531695 44.964409 
L 204.334129 44.964409 
L 203.136564 44.964409 
L 201.938998 44.964409 
L 200.741432 44.964409 
L 199.543866 44.964409 
L 198.3463 44.964409 
L 197.148734 44.964409 
L 195.951169 44.964409 
L 194.753603 44.964409 
L 193.556037 44.964409 
L 192.358471 44.964409 
L 191.160905 44.964409 
L 189.963339 44.964409 
L 188.765773 44.964409 
L 187.568208 44.964409 
L 186.370642 44.964409 
L 185.173076 44.964409 
L 183.97551 44.964409 
L 182.777944 44.964409 
L 181.580378 44.964409 
L 180.382812 44.964409 
L 179.214348 44.964409 
L 178.045884 44.964409 
L 176.867153 44.964409 
L 175.390885 44.964409 
L 173.370976 44.964409 
L 170.605856 44.964409 
L 166.819465 44.964409 
L 161.633713 44.964409 
L 154.530729 44.964409 
L 144.801156 44.964409 
L 131.473309 44.964409 
L 113.216146 44.964409 
z
" clip-path="url(#p752176d27f)" style="fill: #008000; fill-opacity: 0.2"/>
   </g>
   <g id="FillBetweenPolyCollection_2">
    <path d="M 113.216146 447.958162 
L 113.216146 431.326242 
L 131.473309 431.326242 
L 144.801156 431.326242 
L 154.530729 431.326242 
L 161.633713 431.326242 
L 166.819465 431.326242 
L 170.605856 431.326242 
L 173.370976 431.326242 
L 175.390885 431.326242 
L 176.867153 431.326242 
L 178.045884 431.326242 
L 179.214348 431.326242 
L 180.382812 431.326242 
L 181.580378 431.326242 
L 182.777944 431.326242 
L 183.97551 431.326242 
L 185.173076 431.326242 
L 186.370642 431.326242 
L 187.568208 431.326242 
L 188.765773 431.326242 
L 189.963339 431.326242 
L 191.160905 431.326242 
L 192.358471 431.326242 
L 193.556037 431.326242 
L 194.753603 431.326242 
L 195.951169 431.326242 
L 197.148734 431.326242 
L 198.3463 431.326242 
L 199.543866 431.326242 
L 200.741432 431.326242 
L 201.938998 431.326242 
L 203.136564 431.326242 
L 204.334129 431.326242 
L 205.531695 431.326242 
L 206.729261 431.326242 
L 207.926827 431.326242 
L 209.124393 431.326242 
L 210.321959 431.326242 
L 211.519525 431.326242 
L 212.71709 431.326242 
L 213.914656 431.326242 
L 215.112222 431.326242 
L 216.309788 431.326242 
L 217.507354 431.326242 
L 218.70492 431.326242 
L 219.902486 431.326242 
L 221.100051 431.326242 
L 222.297618 431.326242 
L 223.525354 431.326242 
L 224.796957 431.326242 
L 226.114317 431.326242 
L 227.479956 431.326243 
L 228.896458 431.326243 
L 230.365307 431.326243 
L 231.888272 431.326244 
L 233.467413 431.326244 
L 235.104998 431.326245 
L 236.802458 431.326246 
L 238.561564 431.326247 
L 240.384794 431.32625 
L 242.275476 431.326252 
L 244.237372 431.326256 
L 246.26959 431.326261 
L 248.376703 431.326268 
L 250.562549 431.326277 
L 252.827256 431.326289 
L 255.17665 431.326304 
L 257.612034 431.326324 
L 260.136299 431.32635 
L 262.754519 431.326383 
L 265.469006 431.326425 
L 268.283147 431.326479 
L 271.200807 431.326545 
L 274.225929 431.326629 
L 277.362423 431.326731 
L 280.614257 431.326855 
L 283.985727 431.327003 
L 287.481859 431.32718 
L 291.106547 431.327383 
L 294.864535 431.327614 
L 298.761139 431.327866 
L 302.801412 431.328134 
L 306.990188 431.328399 
L 311.33323 431.328636 
L 315.836393 431.328804 
L 320.505552 431.328844 
L 325.346609 431.328669 
L 330.34043 431.328161 
L 335.478253 431.327156 
L 340.805211 431.325432 
L 346.328768 431.322697 
L 352.055792 431.318571 
L 357.993911 431.312564 
L 364.150953 431.304052 
L 370.534884 431.292259 
L 377.154159 431.276222 
L 384.01756 431.254776 
L 391.133967 431.226533 
L 398.512667 431.189882 
L 406.16339 431.143037 
L 413.716249 431.084034 
L 419.353169 431.009836 
L 423.367425 430.917481 
L 426.22662 430.805136 
L 428.263555 430.671921 
L 429.715069 430.519347 
L 430.855836 430.35817 
L 431.98687 430.198592 
L 433.117905 430.069956 
L 434.248939 430.000365 
L 435.379973 430.043391 
L 436.511008 430.236081 
L 437.642042 430.627659 
L 438.773077 431.211143 
L 439.904111 432.053445 
L 440.728906 433.483332 
L 441.553702 435.649167 
L 442.378497 438.007002 
L 443.203293 440.062119 
L 444.028088 441.894614 
L 444.852883 443.99321 
L 445.677679 446.40808 
L 446.502474 449.086975 
L 447.327269 451.884888 
L 448.152065 454.773598 
L 448.97686 457.730482 
L 449.801655 460.67191 
L 450.626451 463.629305 
L 451.451246 466.500082 
L 452.276041 469.335235 
L 453.100837 472.070669 
L 453.925632 474.739434 
L 454.750428 477.281411 
L 455.575223 479.724504 
L 456.400018 482.012189 
L 457.224814 484.171636 
L 458.049609 486.191802 
L 458.874404 488.086845 
L 459.6992 489.875584 
L 460.523995 491.586338 
L 461.34879 493.214188 
L 462.173586 494.787185 
L 462.998381 496.281952 
L 463.823176 497.71315 
L 464.647972 499.047785 
L 465.472767 500.32138 
L 466.297563 501.506892 
L 467.122358 502.644086 
L 467.947153 503.675154 
L 468.771949 504.727644 
L 469.596744 505.666879 
L 470.421539 506.595278 
L 471.246335 507.517169 
L 472.07113 508.33809 
L 472.895925 509.144429 
L 473.720721 509.942461 
L 474.545516 510.616973 
L 475.370311 511.285668 
L 476.195107 511.833443 
L 477.028349 512.306461 
L 477.913313 512.666709 
L 478.87595 512.989021 
L 479.913891 513.21658 
L 481.041405 513.38188 
L 482.265232 513.493236 
L 483.591104 513.504341 
L 485.030213 513.478838 
L 486.595312 513.37759 
L 488.296711 513.199938 
L 490.146608 512.981179 
L 492.158634 512.692942 
L 494.347728 512.383428 
L 496.730454 512.06511 
L 499.323878 511.754131 
L 502.14384 511.506612 
L 505.212782 511.327109 
L 508.547677 511.243151 
L 512.171498 511.290884 
L 516.103177 511.465703 
L 520.362028 511.80173 
L 524.965493 512.246733 
L 529.924892 512.888612 
L 535.242844 513.60629 
L 540.902391 514.528099 
L 546.816387 515.613466 
L 552.754914 516.959022 
L 558.693441 518.588324 
L 564.631967 520.44016 
L 570.570494 522.476672 
L 576.50902 524.663056 
L 582.447547 526.937643 
L 588.386073 529.240318 
L 594.3246 531.556732 
L 600.263127 533.794486 
L 606.201653 535.953411 
L 612.14018 537.97643 
L 618.078706 539.845515 
L 624.017233 541.49054 
L 629.955759 542.964263 
L 638.351593 544.18586 
L 646.747426 545.257519 
L 655.143259 546.123254 
L 663.539093 546.861352 
L 671.934926 547.445897 
L 680.330759 547.922748 
L 688.726593 548.287928 
L 697.122426 548.568443 
L 705.518259 548.778791 
L 713.914093 548.942892 
L 722.309926 549.069967 
L 730.705759 549.173009 
L 739.101593 549.256088 
L 747.497426 549.327179 
L 755.893259 549.388138 
L 764.289093 549.441843 
L 772.684926 549.490045 
L 781.080759 549.531183 
L 789.476593 549.567932 
L 797.872426 549.597065 
L 806.268259 549.621424 
L 814.664093 549.639103 
L 823.059926 549.65145 
L 831.455759 549.658075 
L 831.455759 581.433397 
L 831.455759 581.433397 
L 823.059926 581.433108 
L 814.664093 581.43367 
L 806.268259 581.43324 
L 797.872426 581.435122 
L 789.476593 581.430662 
L 781.080759 581.429771 
L 772.684926 581.420223 
L 764.289093 581.410307 
L 755.893259 581.392699 
L 747.497426 581.367968 
L 739.101593 581.336823 
L 730.705759 581.292428 
L 722.309926 581.236683 
L 713.914093 581.160696 
L 705.518259 581.055904 
L 697.122426 580.910677 
L 688.726593 580.722185 
L 680.330759 580.46672 
L 671.934926 580.149391 
L 663.539093 579.711777 
L 655.143259 579.219193 
L 646.747426 578.550094 
L 638.351593 577.918473 
L 629.955759 577.027725 
L 624.017233 576.269179 
L 618.078706 575.296664 
L 612.14018 574.383476 
L 606.201653 573.389829 
L 600.263127 572.370253 
L 594.3246 571.253226 
L 588.386073 570.185379 
L 582.447547 569.018933 
L 576.50902 567.911177 
L 570.570494 566.875794 
L 564.631967 565.946556 
L 558.693441 565.209866 
L 552.754914 564.739773 
L 546.816387 564.426779 
L 540.902391 564.376541 
L 535.242844 564.466023 
L 529.924892 564.419018 
L 524.965493 564.488657 
L 520.362028 564.330454 
L 516.103177 564.189233 
L 512.171498 563.984602 
L 508.547677 563.831388 
L 505.212782 563.700604 
L 502.14384 563.593147 
L 499.323878 563.593909 
L 496.730454 563.572289 
L 494.347728 563.64439 
L 492.158634 563.723501 
L 490.146608 563.807604 
L 488.296711 563.945595 
L 486.595312 564.025062 
L 485.030213 564.091919 
L 483.591104 564.166133 
L 482.265232 564.099525 
L 481.041405 564.099041 
L 479.913891 563.979487 
L 478.87595 563.807906 
L 477.913313 563.631288 
L 477.028349 563.283941 
L 476.195107 562.94431 
L 475.370311 562.454556 
L 474.545516 562.015174 
L 473.720721 561.329189 
L 472.895925 560.788619 
L 472.07113 560.107998 
L 471.246335 559.320943 
L 470.421539 558.675193 
L 469.596744 557.881455 
L 468.771949 556.97417 
L 467.947153 556.185322 
L 467.122358 555.138105 
L 466.297563 554.161766 
L 465.472767 553.058731 
L 464.647972 551.913044 
L 463.823176 550.634446 
L 462.998381 549.315775 
L 462.173586 547.896111 
L 461.34879 546.427353 
L 460.523995 544.86895 
L 459.6992 543.244722 
L 458.874404 541.494799 
L 458.049609 539.586152 
L 457.224814 537.503407 
L 456.400018 535.20814 
L 455.575223 532.673054 
L 454.750428 529.97182 
L 453.925632 526.979324 
L 453.100837 523.80637 
L 452.276041 520.328643 
L 451.451246 516.666936 
L 450.626451 512.707907 
L 449.801655 508.625575 
L 448.97686 504.243841 
L 448.152065 499.716963 
L 447.327269 494.90888 
L 446.502474 489.900418 
L 445.677679 484.819216 
L 444.852883 479.579501 
L 444.028088 474.289769 
L 443.203293 469.081906 
L 442.378497 464.675269 
L 441.553702 461.625743 
L 440.728906 459.297433 
L 439.904111 457.299509 
L 438.773077 455.410488 
L 437.642042 453.792261 
L 436.511008 452.444031 
L 435.379973 451.377942 
L 434.248939 450.549557 
L 433.117905 449.930486 
L 431.98687 449.465158 
L 430.855836 449.120521 
L 429.715069 448.858579 
L 428.263555 448.659641 
L 426.22662 448.503596 
L 423.367425 448.380088 
L 419.353169 448.281917 
L 413.716249 448.203658 
L 406.16339 448.14187 
L 398.512667 448.094001 
L 391.133967 448.0572 
L 384.01756 448.029144 
L 377.154159 448.007989 
L 370.534884 447.992235 
L 364.150953 447.980678 
L 357.993911 447.972345 
L 352.055792 447.96646 
L 346.328768 447.962405 
L 340.805211 447.959703 
L 335.478253 447.957977 
L 330.34043 447.95695 
L 325.346609 447.956399 
L 320.505552 447.956176 
L 315.836393 447.956156 
L 311.33323 447.956266 
L 306.990188 447.956441 
L 302.801412 447.956651 
L 298.761139 447.956863 
L 294.864535 447.957069 
L 291.106547 447.957254 
L 287.481859 447.95742 
L 283.985727 447.957561 
L 280.614257 447.957682 
L 277.362423 447.95778 
L 274.225929 447.957862 
L 271.200807 447.957927 
L 268.283147 447.957981 
L 265.469006 447.958022 
L 262.754519 447.958055 
L 260.136299 447.958081 
L 257.612034 447.958101 
L 255.17665 447.958116 
L 252.827256 447.958128 
L 250.562549 447.958137 
L 248.376703 447.958143 
L 246.26959 447.958148 
L 244.237372 447.958152 
L 242.275476 447.958155 
L 240.384794 447.958157 
L 238.561564 447.958158 
L 236.802458 447.95816 
L 235.104998 447.95816 
L 233.467413 447.958161 
L 231.888272 447.958161 
L 230.365307 447.958162 
L 228.896458 447.958162 
L 227.479956 447.958162 
L 226.114317 447.958162 
L 224.796957 447.958162 
L 223.525354 447.958162 
L 222.297618 447.958162 
L 221.100051 447.958162 
L 219.902486 447.958162 
L 218.70492 447.958162 
L 217.507354 447.958162 
L 216.309788 447.958162 
L 215.112222 447.958162 
L 213.914656 447.958162 
L 212.71709 447.958162 
L 211.519525 447.958162 
L 210.321959 447.958162 
L 209.124393 447.958162 
L 207.926827 447.958162 
L 206.729261 447.958162 
L 205.531695 447.958162 
L 204.334129 447.958162 
L 203.136564 447.958162 
L 201.938998 447.958162 
L 200.741432 447.958162 
L 199.543866 447.958162 
L 198.3463 447.958162 
L 197.148734 447.958162 
L 195.951169 447.958162 
L 194.753603 447.958162 
L 193.556037 447.958162 
L 192.358471 447.958162 
L 191.160905 447.958162 
L 189.963339 447.958162 
L 188.765773 447.958162 
L 187.568208 447.958162 
L 186.370642 447.958162 
L 185.173076 447.958162 
L 183.97551 447.958162 
L 182.777944 447.958162 
L 181.580378 447.958162 
L 180.382812 447.958162 
L 179.214348 447.958162 
L 178.045884 447.958162 
L 176.867153 447.958162 
L 175.390885 447.958162 
L 173.370976 447.958162 
L 170.605856 447.958162 
L 166.819465 447.958162 
L 161.633713 447.958162 
L 154.530729 447.958162 
L 144.801156 447.958162 
L 131.473309 447.958162 
L 113.216146 447.958162 
z
" clip-path="url(#p752176d27f)" style="fill: #99ccff; fill-opacity: 0.7"/>
   </g>
   <g id="FillBetweenPolyCollection_3">
    <defs>
     <path id="m6493bdc793" d="M 107.028059 -99.712932 
L 107.028059 -99.748468 
L 114.282147 -99.748468 
L 121.536236 -99.748468 
L 128.790324 -99.748468 
L 136.044413 -99.748468 
L 143.298501 -99.748468 
L 150.552589 -99.748468 
L 157.806678 -99.748468 
L 165.060766 -99.748468 
L 172.314855 -99.748468 
L 179.568943 -99.748468 
L 186.823031 -99.748468 
L 194.07712 -99.748468 
L 201.331208 -99.748468 
L 208.585297 -99.748468 
L 215.839385 -99.748468 
L 223.093474 -99.748468 
L 230.347562 -99.748469 
L 237.60165 -99.748471 
L 244.855739 -99.748479 
L 252.109827 -99.7485 
L 259.363916 -99.748544 
L 266.618004 -99.748625 
L 273.872093 -99.748761 
L 281.126181 -99.748967 
L 288.380269 -99.749251 
L 295.634358 -99.749602 
L 302.888446 -99.749984 
L 310.142535 -99.750316 
L 317.396623 -99.750468 
L 324.650711 -99.750263 
L 331.9048 -99.749368 
L 339.158888 -99.747461 
L 346.412977 -99.744166 
L 353.667065 -99.738574 
L 360.921154 -99.730324 
L 368.175242 -99.718667 
L 375.42933 -99.702747 
L 382.683419 -99.681599 
L 389.937507 -99.654147 
L 397.191596 -99.619218 
L 404.445684 -99.575508 
L 411.699773 -99.519469 
L 418.953861 -99.430257 
L 426.207949 -99.20384 
L 433.462038 -97.587784 
L 440.716126 -135.76739 
L 447.970215 -128.384264 
L 455.224303 -108.778586 
L 462.478391 -100.157159 
L 469.73248 -95.778061 
L 476.986568 -95.93026 
L 484.240657 -98.173172 
L 491.494745 -99.001863 
L 498.748834 -98.705642 
L 506.002922 -97.673818 
L 513.25701 -96.317185 
L 520.511099 -95.928112 
L 527.765187 -96.983181 
L 535.019276 -99.130435 
L 542.273364 -102.184053 
L 549.527453 -105.301778 
L 556.781541 -108.120605 
L 564.035629 -110.467331 
L 571.289718 -112.263289 
L 578.543806 -113.609598 
L 585.797895 -114.544651 
L 593.051983 -115.206197 
L 600.306071 -115.556975 
L 607.56016 -115.725346 
L 614.814248 -115.679182 
L 622.068337 -115.382823 
L 629.322425 -114.553914 
L 636.576514 -113.95263 
L 643.830602 -113.463081 
L 651.08469 -112.986176 
L 658.338779 -112.552827 
L 665.592867 -112.211499 
L 672.846956 -111.911856 
L 680.101044 -111.699731 
L 687.355133 -111.536073 
L 694.609221 -111.418802 
L 701.863309 -111.334995 
L 709.117398 -111.279825 
L 716.371486 -111.249212 
L 723.625575 -111.237023 
L 730.879663 -111.238405 
L 738.133751 -111.248561 
L 745.38784 -111.267981 
L 752.641928 -111.292434 
L 759.896017 -111.321661 
L 767.150105 -111.356184 
L 774.404194 -111.394852 
L 781.658282 -111.434519 
L 788.91237 -111.481582 
L 796.166459 -111.525418 
L 803.420547 -111.571541 
L 810.674636 -111.606994 
L 817.928724 -111.634556 
L 825.182812 -111.657196 
L 825.182812 -107.874095 
L 825.182812 -107.874095 
L 817.928724 -107.829689 
L 810.674636 -107.776799 
L 803.420547 -107.710221 
L 796.166459 -107.621136 
L 788.91237 -107.532414 
L 781.658282 -107.450025 
L 774.404194 -107.374172 
L 767.150105 -107.304967 
L 759.896017 -107.241463 
L 752.641928 -107.183744 
L 745.38784 -107.132788 
L 738.133751 -107.089757 
L 730.879663 -107.055526 
L 723.625575 -107.037533 
L 716.371486 -107.035975 
L 709.117398 -107.057934 
L 701.863309 -107.108963 
L 694.609221 -107.198527 
L 687.355133 -107.338725 
L 680.101044 -107.537821 
L 672.846956 -107.824932 
L 665.592867 -108.187624 
L 658.338779 -108.647371 
L 651.08469 -109.193827 
L 643.830602 -109.840642 
L 636.576514 -110.585761 
L 629.322425 -111.373696 
L 622.068337 -112.873674 
L 614.814248 -112.822288 
L 607.56016 -112.555667 
L 600.306071 -112.154332 
L 593.051983 -111.609952 
L 585.797895 -110.890232 
L 578.543806 -109.923129 
L 571.289718 -108.678681 
L 564.035629 -107.083729 
L 556.781541 -105.115346 
L 549.527453 -102.811794 
L 542.273364 -100.329744 
L 535.019276 -98.194745 
L 527.765187 -96.887475 
L 520.511099 -96.775993 
L 513.25701 -97.618244 
L 506.002922 -98.774184 
L 498.748834 -98.809057 
L 491.494745 -97.875735 
L 484.240657 -95.756205 
L 476.986568 -91.908504 
L 469.73248 -91.751217 
L 462.478391 -95.904643 
L 455.224303 -102.726042 
L 447.970215 -113.321535 
L 440.716126 -112.092405 
L 433.462038 -100.990392 
L 426.207949 -100.233304 
L 418.953861 -100.024082 
L 411.699773 -99.939387 
L 404.445684 -99.88562 
L 397.191596 -99.84273 
L 389.937507 -99.807892 
L 382.683419 -99.780229 
L 375.42933 -99.758773 
L 368.175242 -99.742556 
L 360.921154 -99.730656 
L 353.667065 -99.722232 
L 346.412977 -99.716537 
L 339.158888 -99.713209 
L 331.9048 -99.711319 
L 324.650711 -99.71048 
L 317.396623 -99.710357 
L 310.142535 -99.710603 
L 302.888446 -99.711034 
L 295.634358 -99.71151 
L 288.380269 -99.711944 
L 281.126181 -99.712296 
L 273.872093 -99.712555 
L 266.618004 -99.712727 
L 259.363916 -99.712832 
L 252.109827 -99.712889 
L 244.855739 -99.712916 
L 237.60165 -99.712927 
L 230.347562 -99.712931 
L 223.093474 -99.712932 
L 215.839385 -99.712932 
L 208.585297 -99.712932 
L 201.331208 -99.712932 
L 194.07712 -99.712932 
L 186.823031 -99.712932 
L 179.568943 -99.712932 
L 172.314855 -99.712932 
L 165.060766 -99.712932 
L 157.806678 -99.712932 
L 150.552589 -99.712932 
L 143.298501 -99.712932 
L 136.044413 -99.712932 
L 128.790324 -99.712932 
L 121.536236 -99.712932 
L 114.282147 -99.712932 
L 107.028059 -99.712932 
z
" style="stroke: #808080; stroke-opacity: 0.2"/>
    </defs>
    <g clip-path="url(#p752176d27f)">
     <use xlink:href="#m6493bdc793" x="0" y="698.147812" style="fill: #808080; fill-opacity: 0.2; stroke: #808080; stroke-opacity: 0.2"/>
    </g>
   </g>
   <g id="matplotlib.axis_1">
    <g id="xtick_1">
     <g id="line2d_1">
      <path d="M 180.382812 617.04 
L 180.382812 7.2 
" clip-path="url(#p752176d27f)" style="fill: none; stroke: #b0b0b0; stroke-width: 0.8; stroke-linecap: square"/>
     </g>
     <g id="line2d_2">
      <defs>
       <path id="m12bcec42c2" d="M 0 0 
L 0 3.5 
" style="stroke: #000000; stroke-width: 0.8"/>
      </defs>
      <g>
       <use xlink:href="#m12bcec42c2" x="180.382812" y="617.04" style="stroke: #000000; stroke-width: 0.8"/>
      </g>
     </g>
     <g id="text_1">
      <!-- 0.0 -->
      <g transform="translate(156.528125 646.835312) scale(0.3 -0.3)">
       <defs>
        <path id="DejaVuSans-30" d="M 2034 4250 
Q 1547 4250 1301 3770 
Q 1056 3291 1056 2328 
Q 1056 1369 1301 889 
Q 1547 409 2034 409 
Q 2525 409 2770 889 
Q 3016 1369 3016 2328 
Q 3016 3291 2770 3770 
Q 2525 4250 2034 4250 
z
M 2034 4750 
Q 2819 4750 3233 4129 
Q 3647 3509 3647 2328 
Q 3647 1150 3233 529 
Q 2819 -91 2034 -91 
Q 1250 -91 836 529 
Q 422 1150 422 2328 
Q 422 3509 836 4129 
Q 1250 4750 2034 4750 
z
" transform="scale(0.015625)"/>
        <path id="DejaVuSans-2e" d="M 684 794 
L 1344 794 
L 1344 0 
L 684 0 
L 684 794 
z
" transform="scale(0.015625)"/>
       </defs>
       <use xlink:href="#DejaVuSans-30"/>
       <use xlink:href="#DejaVuSans-2e" transform="translate(63.623047 0)"/>
       <use xlink:href="#DejaVuSans-30" transform="translate(95.410156 0)"/>
      </g>
     </g>
    </g>
    <g id="xtick_2">
     <g id="line2d_3">
      <path d="M 314.716146 617.04 
L 314.716146 7.2 
" clip-path="url(#p752176d27f)" style="fill: none; stroke: #b0b0b0; stroke-width: 0.8; stroke-linecap: square"/>
     </g>
     <g id="line2d_4">
      <g>
       <use xlink:href="#m12bcec42c2" x="314.716146" y="617.04" style="stroke: #000000; stroke-width: 0.8"/>
      </g>
     </g>
     <g id="text_2">
      <!-- 0.1 -->
      <g transform="translate(290.861458 646.835312) scale(0.3 -0.3)">
       <defs>
        <path id="DejaVuSans-31" d="M 794 531 
L 1825 531 
L 1825 4091 
L 703 3866 
L 703 4441 
L 1819 4666 
L 2450 4666 
L 2450 531 
L 3481 531 
L 3481 0 
L 794 0 
L 794 531 
z
" transform="scale(0.015625)"/>
       </defs>
       <use xlink:href="#DejaVuSans-30"/>
       <use xlink:href="#DejaVuSans-2e" transform="translate(63.623047 0)"/>
       <use xlink:href="#DejaVuSans-31" transform="translate(95.410156 0)"/>
      </g>
     </g>
    </g>
    <g id="xtick_3">
     <g id="line2d_5">
      <path d="M 449.049479 617.04 
L 449.049479 7.2 
" clip-path="url(#p752176d27f)" style="fill: none; stroke: #b0b0b0; stroke-width: 0.8; stroke-linecap: square"/>
     </g>
     <g id="line2d_6">
      <g>
       <use xlink:href="#m12bcec42c2" x="449.049479" y="617.04" style="stroke: #000000; stroke-width: 0.8"/>
      </g>
     </g>
     <g id="text_3">
      <!-- 0.2 -->
      <g transform="translate(425.194792 646.835312) scale(0.3 -0.3)">
       <defs>
        <path id="DejaVuSans-32" d="M 1228 531 
L 3431 531 
L 3431 0 
L 469 0 
L 469 531 
Q 828 903 1448 1529 
Q 2069 2156 2228 2338 
Q 2531 2678 2651 2914 
Q 2772 3150 2772 3378 
Q 2772 3750 2511 3984 
Q 2250 4219 1831 4219 
Q 1534 4219 1204 4116 
Q 875 4013 500 3803 
L 500 4441 
Q 881 4594 1212 4672 
Q 1544 4750 1819 4750 
Q 2544 4750 2975 4387 
Q 3406 4025 3406 3419 
Q 3406 3131 3298 2873 
Q 3191 2616 2906 2266 
Q 2828 2175 2409 1742 
Q 1991 1309 1228 531 
z
" transform="scale(0.015625)"/>
       </defs>
       <use xlink:href="#DejaVuSans-30"/>
       <use xlink:href="#DejaVuSans-2e" transform="translate(63.623047 0)"/>
       <use xlink:href="#DejaVuSans-32" transform="translate(95.410156 0)"/>
      </g>
     </g>
    </g>
    <g id="xtick_4">
     <g id="line2d_7">
      <path d="M 583.382812 617.04 
L 583.382812 7.2 
" clip-path="url(#p752176d27f)" style="fill: none; stroke: #b0b0b0; stroke-width: 0.8; stroke-linecap: square"/>
     </g>
     <g id="line2d_8">
      <g>
       <use xlink:href="#m12bcec42c2" x="583.382812" y="617.04" style="stroke: #000000; stroke-width: 0.8"/>
      </g>
     </g>
     <g id="text_4">
      <!-- 0.3 -->
      <g transform="translate(559.528125 646.835312) scale(0.3 -0.3)">
       <defs>
        <path id="DejaVuSans-33" d="M 2597 2516 
Q 3050 2419 3304 2112 
Q 3559 1806 3559 1356 
Q 3559 666 3084 287 
Q 2609 -91 1734 -91 
Q 1441 -91 1130 -33 
Q 819 25 488 141 
L 488 750 
Q 750 597 1062 519 
Q 1375 441 1716 441 
Q 2309 441 2620 675 
Q 2931 909 2931 1356 
Q 2931 1769 2642 2001 
Q 2353 2234 1838 2234 
L 1294 2234 
L 1294 2753 
L 1863 2753 
Q 2328 2753 2575 2939 
Q 2822 3125 2822 3475 
Q 2822 3834 2567 4026 
Q 2313 4219 1838 4219 
Q 1578 4219 1281 4162 
Q 984 4106 628 3988 
L 628 4550 
Q 988 4650 1302 4700 
Q 1616 4750 1894 4750 
Q 2613 4750 3031 4423 
Q 3450 4097 3450 3541 
Q 3450 3153 3228 2886 
Q 3006 2619 2597 2516 
z
" transform="scale(0.015625)"/>
       </defs>
       <use xlink:href="#DejaVuSans-30"/>
       <use xlink:href="#DejaVuSans-2e" transform="translate(63.623047 0)"/>
       <use xlink:href="#DejaVuSans-33" transform="translate(95.410156 0)"/>
      </g>
     </g>
    </g>
    <g id="xtick_5">
     <g id="line2d_9">
      <path d="M 717.716146 617.04 
L 717.716146 7.2 
" clip-path="url(#p752176d27f)" style="fill: none; stroke: #b0b0b0; stroke-width: 0.8; stroke-linecap: square"/>
     </g>
     <g id="line2d_10">
      <g>
       <use xlink:href="#m12bcec42c2" x="717.716146" y="617.04" style="stroke: #000000; stroke-width: 0.8"/>
      </g>
     </g>
     <g id="text_5">
      <!-- 0.4 -->
      <g transform="translate(693.861458 646.835312) scale(0.3 -0.3)">
       <defs>
        <path id="DejaVuSans-34" d="M 2419 4116 
L 825 1625 
L 2419 1625 
L 2419 4116 
z
M 2253 4666 
L 3047 4666 
L 3047 1625 
L 3713 1625 
L 3713 1100 
L 3047 1100 
L 3047 0 
L 2419 0 
L 2419 1100 
L 313 1100 
L 313 1709 
L 2253 4666 
z
" transform="scale(0.015625)"/>
       </defs>
       <use xlink:href="#DejaVuSans-30"/>
       <use xlink:href="#DejaVuSans-2e" transform="translate(63.623047 0)"/>
       <use xlink:href="#DejaVuSans-34" transform="translate(95.410156 0)"/>
      </g>
     </g>
    </g>
    <g id="text_6">
     <!-- X coordinate [m] -->
     <g transform="translate(315.329688 683.668906) scale(0.35 -0.35)">
      <defs>
       <path id="DejaVuSans-58" d="M 403 4666 
L 1081 4666 
L 2241 2931 
L 3406 4666 
L 4084 4666 
L 2584 2425 
L 4184 0 
L 3506 0 
L 2194 1984 
L 872 0 
L 191 0 
L 1856 2491 
L 403 4666 
z
" transform="scale(0.015625)"/>
       <path id="DejaVuSans-20" transform="scale(0.015625)"/>
       <path id="DejaVuSans-63" d="M 3122 3366 
L 3122 2828 
Q 2878 2963 2633 3030 
Q 2388 3097 2138 3097 
Q 1578 3097 1268 2742 
Q 959 2388 959 1747 
Q 959 1106 1268 751 
Q 1578 397 2138 397 
Q 2388 397 2633 464 
Q 2878 531 3122 666 
L 3122 134 
Q 2881 22 2623 -34 
Q 2366 -91 2075 -91 
Q 1284 -91 818 406 
Q 353 903 353 1747 
Q 353 2603 823 3093 
Q 1294 3584 2113 3584 
Q 2378 3584 2631 3529 
Q 2884 3475 3122 3366 
z
" transform="scale(0.015625)"/>
       <path id="DejaVuSans-6f" d="M 1959 3097 
Q 1497 3097 1228 2736 
Q 959 2375 959 1747 
Q 959 1119 1226 758 
Q 1494 397 1959 397 
Q 2419 397 2687 759 
Q 2956 1122 2956 1747 
Q 2956 2369 2687 2733 
Q 2419 3097 1959 3097 
z
M 1959 3584 
Q 2709 3584 3137 3096 
Q 3566 2609 3566 1747 
Q 3566 888 3137 398 
Q 2709 -91 1959 -91 
Q 1206 -91 779 398 
Q 353 888 353 1747 
Q 353 2609 779 3096 
Q 1206 3584 1959 3584 
z
" transform="scale(0.015625)"/>
       <path id="DejaVuSans-72" d="M 2631 2963 
Q 2534 3019 2420 3045 
Q 2306 3072 2169 3072 
Q 1681 3072 1420 2755 
Q 1159 2438 1159 1844 
L 1159 0 
L 581 0 
L 581 3500 
L 1159 3500 
L 1159 2956 
Q 1341 3275 1631 3429 
Q 1922 3584 2338 3584 
Q 2397 3584 2469 3576 
Q 2541 3569 2628 3553 
L 2631 2963 
z
" transform="scale(0.015625)"/>
       <path id="DejaVuSans-64" d="M 2906 2969 
L 2906 4863 
L 3481 4863 
L 3481 0 
L 2906 0 
L 2906 525 
Q 2725 213 2448 61 
Q 2172 -91 1784 -91 
Q 1150 -91 751 415 
Q 353 922 353 1747 
Q 353 2572 751 3078 
Q 1150 3584 1784 3584 
Q 2172 3584 2448 3432 
Q 2725 3281 2906 2969 
z
M 947 1747 
Q 947 1113 1208 752 
Q 1469 391 1925 391 
Q 2381 391 2643 752 
Q 2906 1113 2906 1747 
Q 2906 2381 2643 2742 
Q 2381 3103 1925 3103 
Q 1469 3103 1208 2742 
Q 947 2381 947 1747 
z
" transform="scale(0.015625)"/>
       <path id="DejaVuSans-69" d="M 603 3500 
L 1178 3500 
L 1178 0 
L 603 0 
L 603 3500 
z
M 603 4863 
L 1178 4863 
L 1178 4134 
L 603 4134 
L 603 4863 
z
" transform="scale(0.015625)"/>
       <path id="DejaVuSans-6e" d="M 3513 2113 
L 3513 0 
L 2938 0 
L 2938 2094 
Q 2938 2591 2744 2837 
Q 2550 3084 2163 3084 
Q 1697 3084 1428 2787 
Q 1159 2491 1159 1978 
L 1159 0 
L 581 0 
L 581 3500 
L 1159 3500 
L 1159 2956 
Q 1366 3272 1645 3428 
Q 1925 3584 2291 3584 
Q 2894 3584 3203 3211 
Q 3513 2838 3513 2113 
z
" transform="scale(0.015625)"/>
       <path id="DejaVuSans-61" d="M 2194 1759 
Q 1497 1759 1228 1600 
Q 959 1441 959 1056 
Q 959 750 1161 570 
Q 1363 391 1709 391 
Q 2188 391 2477 730 
Q 2766 1069 2766 1631 
L 2766 1759 
L 2194 1759 
z
M 3341 1997 
L 3341 0 
L 2766 0 
L 2766 531 
Q 2569 213 2275 61 
Q 1981 -91 1556 -91 
Q 1019 -91 701 211 
Q 384 513 384 1019 
Q 384 1609 779 1909 
Q 1175 2209 1959 2209 
L 2766 2209 
L 2766 2266 
Q 2766 2663 2505 2880 
Q 2244 3097 1772 3097 
Q 1472 3097 1187 3025 
Q 903 2953 641 2809 
L 641 3341 
Q 956 3463 1253 3523 
Q 1550 3584 1831 3584 
Q 2591 3584 2966 3190 
Q 3341 2797 3341 1997 
z
" transform="scale(0.015625)"/>
       <path id="DejaVuSans-74" d="M 1172 4494 
L 1172 3500 
L 2356 3500 
L 2356 3053 
L 1172 3053 
L 1172 1153 
Q 1172 725 1289 603 
Q 1406 481 1766 481 
L 2356 481 
L 2356 0 
L 1766 0 
Q 1100 0 847 248 
Q 594 497 594 1153 
L 594 3053 
L 172 3053 
L 172 3500 
L 594 3500 
L 594 4494 
L 1172 4494 
z
" transform="scale(0.015625)"/>
       <path id="DejaVuSans-65" d="M 3597 1894 
L 3597 1613 
L 953 1613 
Q 991 1019 1311 708 
Q 1631 397 2203 397 
Q 2534 397 2845 478 
Q 3156 559 3463 722 
L 3463 178 
Q 3153 47 2828 -22 
Q 2503 -91 2169 -91 
Q 1331 -91 842 396 
Q 353 884 353 1716 
Q 353 2575 817 3079 
Q 1281 3584 2069 3584 
Q 2775 3584 3186 3129 
Q 3597 2675 3597 1894 
z
M 3022 2063 
Q 3016 2534 2758 2815 
Q 2500 3097 2075 3097 
Q 1594 3097 1305 2825 
Q 1016 2553 972 2059 
L 3022 2063 
z
" transform="scale(0.015625)"/>
       <path id="DejaVuSans-5b" d="M 550 4863 
L 1875 4863 
L 1875 4416 
L 1125 4416 
L 1125 -397 
L 1875 -397 
L 1875 -844 
L 550 -844 
L 550 4863 
z
" transform="scale(0.015625)"/>
       <path id="DejaVuSans-6d" d="M 3328 2828 
Q 3544 3216 3844 3400 
Q 4144 3584 4550 3584 
Q 5097 3584 5394 3201 
Q 5691 2819 5691 2113 
L 5691 0 
L 5113 0 
L 5113 2094 
Q 5113 2597 4934 2840 
Q 4756 3084 4391 3084 
Q 3944 3084 3684 2787 
Q 3425 2491 3425 1978 
L 3425 0 
L 2847 0 
L 2847 2094 
Q 2847 2600 2669 2842 
Q 2491 3084 2119 3084 
Q 1678 3084 1418 2786 
Q 1159 2488 1159 1978 
L 1159 0 
L 581 0 
L 581 3500 
L 1159 3500 
L 1159 2956 
Q 1356 3278 1631 3431 
Q 1906 3584 2284 3584 
Q 2666 3584 2933 3390 
Q 3200 3197 3328 2828 
z
" transform="scale(0.015625)"/>
       <path id="DejaVuSans-5d" d="M 1947 4863 
L 1947 -844 
L 622 -844 
L 622 -397 
L 1369 -397 
L 1369 4416 
L 622 4416 
L 622 4863 
L 1947 4863 
z
" transform="scale(0.015625)"/>
      </defs>
      <use xlink:href="#DejaVuSans-58"/>
      <use xlink:href="#DejaVuSans-20" transform="translate(68.505859 0)"/>
      <use xlink:href="#DejaVuSans-63" transform="translate(100.292969 0)"/>
      <use xlink:href="#DejaVuSans-6f" transform="translate(155.273438 0)"/>
      <use xlink:href="#DejaVuSans-6f" transform="translate(216.455078 0)"/>
      <use xlink:href="#DejaVuSans-72" transform="translate(277.636719 0)"/>
      <use xlink:href="#DejaVuSans-64" transform="translate(317 0)"/>
      <use xlink:href="#DejaVuSans-69" transform="translate(380.476562 0)"/>
      <use xlink:href="#DejaVuSans-6e" transform="translate(408.259766 0)"/>
      <use xlink:href="#DejaVuSans-61" transform="translate(471.638672 0)"/>
      <use xlink:href="#DejaVuSans-74" transform="translate(532.917969 0)"/>
      <use xlink:href="#DejaVuSans-65" transform="translate(572.126953 0)"/>
      <use xlink:href="#DejaVuSans-20" transform="translate(633.650391 0)"/>
      <use xlink:href="#DejaVuSans-5b" transform="translate(665.4375 0)"/>
      <use xlink:href="#DejaVuSans-6d" transform="translate(704.451172 0)"/>
      <use xlink:href="#DejaVuSans-5d" transform="translate(801.863281 0)"/>
     </g>
    </g>
   </g>
   <g id="matplotlib.axis_2">
    <g id="ytick_1">
     <g id="line2d_11">
      <path d="M 99.782813 598.997396 
L 825.182812 598.997396 
" clip-path="url(#p752176d27f)" style="fill: none; stroke: #b0b0b0; stroke-width: 0.8; stroke-linecap: square"/>
     </g>
     <g id="line2d_12">
      <defs>
       <path id="mfa5d2f41d1" d="M 0 0 
L -3.5 0 
" style="stroke: #000000; stroke-width: 0.8"/>
      </defs>
      <g>
       <use xlink:href="#mfa5d2f41d1" x="99.782813" y="598.997396" style="stroke: #000000; stroke-width: 0.8"/>
      </g>
     </g>
     <g id="text_7">
      <!-- 0.0 -->
      <g transform="translate(45.073438 610.395053) scale(0.3 -0.3)">
       <use xlink:href="#DejaVuSans-30"/>
       <use xlink:href="#DejaVuSans-2e" transform="translate(63.623047 0)"/>
       <use xlink:href="#DejaVuSans-30" transform="translate(95.410156 0)"/>
      </g>
     </g>
    </g>
    <g id="ytick_2">
     <g id="line2d_13">
      <path d="M 99.782813 526.826982 
L 825.182812 526.826982 
" clip-path="url(#p752176d27f)" style="fill: none; stroke: #b0b0b0; stroke-width: 0.8; stroke-linecap: square"/>
     </g>
     <g id="line2d_14">
      <g>
       <use xlink:href="#mfa5d2f41d1" x="99.782813" y="526.826982" style="stroke: #000000; stroke-width: 0.8"/>
      </g>
     </g>
     <g id="text_8">
      <!-- 0.1 -->
      <g transform="translate(45.073438 538.224638) scale(0.3 -0.3)">
       <use xlink:href="#DejaVuSans-30"/>
       <use xlink:href="#DejaVuSans-2e" transform="translate(63.623047 0)"/>
       <use xlink:href="#DejaVuSans-31" transform="translate(95.410156 0)"/>
      </g>
     </g>
    </g>
    <g id="ytick_3">
     <g id="line2d_15">
      <path d="M 99.782813 454.656568 
L 825.182812 454.656568 
" clip-path="url(#p752176d27f)" style="fill: none; stroke: #b0b0b0; stroke-width: 0.8; stroke-linecap: square"/>
     </g>
     <g id="line2d_16">
      <g>
       <use xlink:href="#mfa5d2f41d1" x="99.782813" y="454.656568" style="stroke: #000000; stroke-width: 0.8"/>
      </g>
     </g>
     <g id="text_9">
      <!-- 0.2 -->
      <g transform="translate(45.073438 466.054224) scale(0.3 -0.3)">
       <use xlink:href="#DejaVuSans-30"/>
       <use xlink:href="#DejaVuSans-2e" transform="translate(63.623047 0)"/>
       <use xlink:href="#DejaVuSans-32" transform="translate(95.410156 0)"/>
      </g>
     </g>
    </g>
    <g id="ytick_4">
     <g id="line2d_17">
      <path d="M 99.782813 382.486154 
L 825.182812 382.486154 
" clip-path="url(#p752176d27f)" style="fill: none; stroke: #b0b0b0; stroke-width: 0.8; stroke-linecap: square"/>
     </g>
     <g id="line2d_18">
      <g>
       <use xlink:href="#mfa5d2f41d1" x="99.782813" y="382.486154" style="stroke: #000000; stroke-width: 0.8"/>
      </g>
     </g>
     <g id="text_10">
      <!-- 0.3 -->
      <g transform="translate(45.073438 393.88381) scale(0.3 -0.3)">
       <use xlink:href="#DejaVuSans-30"/>
       <use xlink:href="#DejaVuSans-2e" transform="translate(63.623047 0)"/>
       <use xlink:href="#DejaVuSans-33" transform="translate(95.410156 0)"/>
      </g>
     </g>
    </g>
    <g id="ytick_5">
     <g id="line2d_19">
      <path d="M 99.782813 310.31574 
L 825.182812 310.31574 
" clip-path="url(#p752176d27f)" style="fill: none; stroke: #b0b0b0; stroke-width: 0.8; stroke-linecap: square"/>
     </g>
     <g id="line2d_20">
      <g>
       <use xlink:href="#mfa5d2f41d1" x="99.782813" y="310.31574" style="stroke: #000000; stroke-width: 0.8"/>
      </g>
     </g>
     <g id="text_11">
      <!-- 0.4 -->
      <g transform="translate(45.073438 321.713396) scale(0.3 -0.3)">
       <use xlink:href="#DejaVuSans-30"/>
       <use xlink:href="#DejaVuSans-2e" transform="translate(63.623047 0)"/>
       <use xlink:href="#DejaVuSans-34" transform="translate(95.410156 0)"/>
      </g>
     </g>
    </g>
    <g id="ytick_6">
     <g id="line2d_21">
      <path d="M 99.782813 238.145325 
L 825.182812 238.145325 
" clip-path="url(#p752176d27f)" style="fill: none; stroke: #b0b0b0; stroke-width: 0.8; stroke-linecap: square"/>
     </g>
     <g id="line2d_22">
      <g>
       <use xlink:href="#mfa5d2f41d1" x="99.782813" y="238.145325" style="stroke: #000000; stroke-width: 0.8"/>
      </g>
     </g>
     <g id="text_12">
      <!-- 0.5 -->
      <g transform="translate(45.073438 249.542982) scale(0.3 -0.3)">
       <defs>
        <path id="DejaVuSans-35" d="M 691 4666 
L 3169 4666 
L 3169 4134 
L 1269 4134 
L 1269 2991 
Q 1406 3038 1543 3061 
Q 1681 3084 1819 3084 
Q 2600 3084 3056 2656 
Q 3513 2228 3513 1497 
Q 3513 744 3044 326 
Q 2575 -91 1722 -91 
Q 1428 -91 1123 -41 
Q 819 9 494 109 
L 494 744 
Q 775 591 1075 516 
Q 1375 441 1709 441 
Q 2250 441 2565 725 
Q 2881 1009 2881 1497 
Q 2881 1984 2565 2268 
Q 2250 2553 1709 2553 
Q 1456 2553 1204 2497 
Q 953 2441 691 2322 
L 691 4666 
z
" transform="scale(0.015625)"/>
       </defs>
       <use xlink:href="#DejaVuSans-30"/>
       <use xlink:href="#DejaVuSans-2e" transform="translate(63.623047 0)"/>
       <use xlink:href="#DejaVuSans-35" transform="translate(95.410156 0)"/>
      </g>
     </g>
    </g>
    <g id="ytick_7">
     <g id="line2d_23">
      <path d="M 99.782813 165.974911 
L 825.182812 165.974911 
" clip-path="url(#p752176d27f)" style="fill: none; stroke: #b0b0b0; stroke-width: 0.8; stroke-linecap: square"/>
     </g>
     <g id="line2d_24">
      <g>
       <use xlink:href="#mfa5d2f41d1" x="99.782813" y="165.974911" style="stroke: #000000; stroke-width: 0.8"/>
      </g>
     </g>
     <g id="text_13">
      <!-- 0.6 -->
      <g transform="translate(45.073438 177.372567) scale(0.3 -0.3)">
       <defs>
        <path id="DejaVuSans-36" d="M 2113 2584 
Q 1688 2584 1439 2293 
Q 1191 2003 1191 1497 
Q 1191 994 1439 701 
Q 1688 409 2113 409 
Q 2538 409 2786 701 
Q 3034 994 3034 1497 
Q 3034 2003 2786 2293 
Q 2538 2584 2113 2584 
z
M 3366 4563 
L 3366 3988 
Q 3128 4100 2886 4159 
Q 2644 4219 2406 4219 
Q 1781 4219 1451 3797 
Q 1122 3375 1075 2522 
Q 1259 2794 1537 2939 
Q 1816 3084 2150 3084 
Q 2853 3084 3261 2657 
Q 3669 2231 3669 1497 
Q 3669 778 3244 343 
Q 2819 -91 2113 -91 
Q 1303 -91 875 529 
Q 447 1150 447 2328 
Q 447 3434 972 4092 
Q 1497 4750 2381 4750 
Q 2619 4750 2861 4703 
Q 3103 4656 3366 4563 
z
" transform="scale(0.015625)"/>
       </defs>
       <use xlink:href="#DejaVuSans-30"/>
       <use xlink:href="#DejaVuSans-2e" transform="translate(63.623047 0)"/>
       <use xlink:href="#DejaVuSans-36" transform="translate(95.410156 0)"/>
      </g>
     </g>
    </g>
    <g id="ytick_8">
     <g id="line2d_25">
      <path d="M 99.782813 93.804497 
L 825.182812 93.804497 
" clip-path="url(#p752176d27f)" style="fill: none; stroke: #b0b0b0; stroke-width: 0.8; stroke-linecap: square"/>
     </g>
     <g id="line2d_26">
      <g>
       <use xlink:href="#mfa5d2f41d1" x="99.782813" y="93.804497" style="stroke: #000000; stroke-width: 0.8"/>
      </g>
     </g>
     <g id="text_14">
      <!-- 0.7 -->
      <g transform="translate(45.073438 105.202153) scale(0.3 -0.3)">
       <defs>
        <path id="DejaVuSans-37" d="M 525 4666 
L 3525 4666 
L 3525 4397 
L 1831 0 
L 1172 0 
L 2766 4134 
L 525 4134 
L 525 4666 
z
" transform="scale(0.015625)"/>
       </defs>
       <use xlink:href="#DejaVuSans-30"/>
       <use xlink:href="#DejaVuSans-2e" transform="translate(63.623047 0)"/>
       <use xlink:href="#DejaVuSans-37" transform="translate(95.410156 0)"/>
      </g>
     </g>
    </g>
    <g id="ytick_9">
     <g id="line2d_27">
      <path d="M 99.782813 21.634083 
L 825.182812 21.634083 
" clip-path="url(#p752176d27f)" style="fill: none; stroke: #b0b0b0; stroke-width: 0.8; stroke-linecap: square"/>
     </g>
     <g id="line2d_28">
      <g>
       <use xlink:href="#mfa5d2f41d1" x="99.782813" y="21.634083" style="stroke: #000000; stroke-width: 0.8"/>
      </g>
     </g>
     <g id="text_15">
      <!-- 0.8 -->
      <g transform="translate(45.073438 33.031739) scale(0.3 -0.3)">
       <defs>
        <path id="DejaVuSans-38" d="M 2034 2216 
Q 1584 2216 1326 1975 
Q 1069 1734 1069 1313 
Q 1069 891 1326 650 
Q 1584 409 2034 409 
Q 2484 409 2743 651 
Q 3003 894 3003 1313 
Q 3003 1734 2745 1975 
Q 2488 2216 2034 2216 
z
M 1403 2484 
Q 997 2584 770 2862 
Q 544 3141 544 3541 
Q 544 4100 942 4425 
Q 1341 4750 2034 4750 
Q 2731 4750 3128 4425 
Q 3525 4100 3525 3541 
Q 3525 3141 3298 2862 
Q 3072 2584 2669 2484 
Q 3125 2378 3379 2068 
Q 3634 1759 3634 1313 
Q 3634 634 3220 271 
Q 2806 -91 2034 -91 
Q 1263 -91 848 271 
Q 434 634 434 1313 
Q 434 1759 690 2068 
Q 947 2378 1403 2484 
z
M 1172 3481 
Q 1172 3119 1398 2916 
Q 1625 2713 2034 2713 
Q 2441 2713 2670 2916 
Q 2900 3119 2900 3481 
Q 2900 3844 2670 4047 
Q 2441 4250 2034 4250 
Q 1625 4250 1398 4047 
Q 1172 3844 1172 3481 
z
" transform="scale(0.015625)"/>
       </defs>
       <use xlink:href="#DejaVuSans-30"/>
       <use xlink:href="#DejaVuSans-2e" transform="translate(63.623047 0)"/>
       <use xlink:href="#DejaVuSans-38" transform="translate(95.410156 0)"/>
      </g>
     </g>
    </g>
    <g id="text_16">
     <!-- Mass fraction Y [-] -->
     <g transform="translate(33.794531 470.741094) rotate(-90) scale(0.35 -0.35)">
      <defs>
       <path id="DejaVuSans-4d" d="M 628 4666 
L 1569 4666 
L 2759 1491 
L 3956 4666 
L 4897 4666 
L 4897 0 
L 4281 0 
L 4281 4097 
L 3078 897 
L 2444 897 
L 1241 4097 
L 1241 0 
L 628 0 
L 628 4666 
z
" transform="scale(0.015625)"/>
       <path id="DejaVuSans-73" d="M 2834 3397 
L 2834 2853 
Q 2591 2978 2328 3040 
Q 2066 3103 1784 3103 
Q 1356 3103 1142 2972 
Q 928 2841 928 2578 
Q 928 2378 1081 2264 
Q 1234 2150 1697 2047 
L 1894 2003 
Q 2506 1872 2764 1633 
Q 3022 1394 3022 966 
Q 3022 478 2636 193 
Q 2250 -91 1575 -91 
Q 1294 -91 989 -36 
Q 684 19 347 128 
L 347 722 
Q 666 556 975 473 
Q 1284 391 1588 391 
Q 1994 391 2212 530 
Q 2431 669 2431 922 
Q 2431 1156 2273 1281 
Q 2116 1406 1581 1522 
L 1381 1569 
Q 847 1681 609 1914 
Q 372 2147 372 2553 
Q 372 3047 722 3315 
Q 1072 3584 1716 3584 
Q 2034 3584 2315 3537 
Q 2597 3491 2834 3397 
z
" transform="scale(0.015625)"/>
       <path id="DejaVuSans-66" d="M 2375 4863 
L 2375 4384 
L 1825 4384 
Q 1516 4384 1395 4259 
Q 1275 4134 1275 3809 
L 1275 3500 
L 2222 3500 
L 2222 3053 
L 1275 3053 
L 1275 0 
L 697 0 
L 697 3053 
L 147 3053 
L 147 3500 
L 697 3500 
L 697 3744 
Q 697 4328 969 4595 
Q 1241 4863 1831 4863 
L 2375 4863 
z
" transform="scale(0.015625)"/>
       <path id="DejaVuSans-59" d="M -13 4666 
L 666 4666 
L 1959 2747 
L 3244 4666 
L 3922 4666 
L 2272 2222 
L 2272 0 
L 1638 0 
L 1638 2222 
L -13 4666 
z
" transform="scale(0.015625)"/>
       <path id="DejaVuSans-2d" d="M 313 2009 
L 1997 2009 
L 1997 1497 
L 313 1497 
L 313 2009 
z
" transform="scale(0.015625)"/>
      </defs>
      <use xlink:href="#DejaVuSans-4d"/>
      <use xlink:href="#DejaVuSans-61" transform="translate(86.279297 0)"/>
      <use xlink:href="#DejaVuSans-73" transform="translate(147.558594 0)"/>
      <use xlink:href="#DejaVuSans-73" transform="translate(199.658203 0)"/>
      <use xlink:href="#DejaVuSans-20" transform="translate(251.757812 0)"/>
      <use xlink:href="#DejaVuSans-66" transform="translate(283.544922 0)"/>
      <use xlink:href="#DejaVuSans-72" transform="translate(318.75 0)"/>
      <use xlink:href="#DejaVuSans-61" transform="translate(359.863281 0)"/>
      <use xlink:href="#DejaVuSans-63" transform="translate(421.142578 0)"/>
      <use xlink:href="#DejaVuSans-74" transform="translate(476.123047 0)"/>
      <use xlink:href="#DejaVuSans-69" transform="translate(515.332031 0)"/>
      <use xlink:href="#DejaVuSans-6f" transform="translate(543.115234 0)"/>
      <use xlink:href="#DejaVuSans-6e" transform="translate(604.296875 0)"/>
      <use xlink:href="#DejaVuSans-20" transform="translate(667.675781 0)"/>
      <use xlink:href="#DejaVuSans-59" transform="translate(699.462891 0)"/>
      <use xlink:href="#DejaVuSans-20" transform="translate(760.546875 0)"/>
      <use xlink:href="#DejaVuSans-5b" transform="translate(792.333984 0)"/>
      <use xlink:href="#DejaVuSans-2d" transform="translate(831.347656 0)"/>
      <use xlink:href="#DejaVuSans-5d" transform="translate(867.431641 0)"/>
     </g>
    </g>
   </g>
   <g id="line2d_29">
    <path d="M 113.216146 36.648449 
L 370.534884 36.744151 
L 419.353169 36.947124 
L 428.263555 37.140863 
L 431.98687 37.468078 
L 435.379973 37.986559 
L 438.773077 38.709927 
L 440.728906 39.261549 
L 442.378497 39.979418 
L 444.028088 41.178932 
L 452.276041 47.41837 
L 455.575223 49.645072 
L 458.049609 51.061481 
L 461.34879 52.63767 
L 464.647972 53.933261 
L 467.947153 54.937013 
L 471.246335 55.690446 
L 474.545516 56.235469 
L 477.028349 56.474026 
L 479.913891 56.551598 
L 485.030213 56.419765 
L 502.14384 55.787839 
L 516.103177 55.501393 
L 540.902391 55.278967 
L 564.631967 55.259002 
L 594.3246 55.587544 
L 629.955759 55.898727 
L 705.518259 56.079951 
L 797.872426 55.814028 
L 831.455759 55.797005 
L 831.455759 55.797005 
" clip-path="url(#p752176d27f)" style="fill: none; stroke: #008000; stroke-width: 3; stroke-linecap: square"/>
   </g>
   <g id="line2d_30">
    <path d="M 113.216146 439.642202 
L 430.855836 439.739346 
L 433.117905 440.000221 
L 434.248939 440.274961 
L 435.379973 440.710666 
L 436.511008 441.340056 
L 437.642042 442.20996 
L 438.773077 443.310815 
L 439.904111 444.676477 
L 440.728906 446.390383 
L 441.553702 448.637455 
L 442.378497 451.341135 
L 444.028088 458.092192 
L 446.502474 469.493696 
L 449.801655 484.648742 
L 452.276041 494.831939 
L 453.925632 500.859379 
L 455.575223 506.198779 
L 457.224814 510.837521 
L 458.874404 514.790822 
L 460.523995 518.227644 
L 462.998381 522.798864 
L 464.647972 525.480415 
L 466.297563 527.834329 
L 468.771949 530.850907 
L 470.421539 532.635236 
L 473.720721 535.635825 
L 475.370311 536.870112 
L 477.028349 537.795201 
L 477.913313 538.148998 
L 479.913891 538.598033 
L 482.265232 538.79638 
L 485.030213 538.785378 
L 488.296711 538.572767 
L 496.730454 537.818699 
L 502.14384 537.549879 
L 508.547677 537.537269 
L 516.103177 537.827468 
L 529.924892 538.653815 
L 540.902391 539.45232 
L 546.816387 540.020123 
L 552.754914 540.849397 
L 558.693441 541.899095 
L 564.631967 543.193358 
L 570.570494 544.676233 
L 582.447547 547.978288 
L 600.263127 553.08237 
L 612.14018 556.179953 
L 624.017233 558.87986 
L 629.955759 559.995994 
L 638.351593 561.052167 
L 655.143259 562.671224 
L 671.934926 563.797644 
L 688.726593 564.505057 
L 705.518259 564.917348 
L 730.705759 565.232719 
L 772.684926 565.455134 
L 831.455759 565.545736 
L 831.455759 565.545736 
" clip-path="url(#p752176d27f)" style="fill: none; stroke: #0000ff; stroke-width: 3; stroke-linecap: square"/>
   </g>
   <g id="line2d_31">
    <path d="M 107.028059 598.417113 
L 114.282147 598.417113 
L 121.536236 598.417113 
L 128.790324 598.417113 
L 136.044413 598.417113 
L 143.298501 598.417113 
L 150.552589 598.417113 
L 157.806678 598.417113 
L 165.060766 598.417113 
L 172.314855 598.417113 
L 179.568943 598.417113 
L 186.823031 598.417113 
L 194.07712 598.417113 
L 201.331208 598.417113 
L 208.585297 598.417113 
L 215.839385 598.417113 
L 223.093474 598.417113 
L 230.347562 598.417113 
L 237.60165 598.417113 
L 244.855739 598.417115 
L 252.109827 598.417118 
L 259.363916 598.417125 
L 266.618004 598.417136 
L 273.872093 598.417155 
L 281.126181 598.417181 
L 288.380269 598.417215 
L 295.634358 598.417256 
L 302.888446 598.417304 
L 310.142535 598.417353 
L 317.396623 598.4174 
L 324.650711 598.417441 
L 331.9048 598.417469 
L 339.158888 598.417477 
L 346.412977 598.417461 
L 353.667065 598.417409 
L 360.921154 598.417322 
L 368.175242 598.417201 
L 375.42933 598.417053 
L 382.683419 598.416899 
L 389.937507 598.416793 
L 397.191596 598.416838 
L 404.445684 598.417249 
L 411.699773 598.418384 
L 418.953861 598.420643 
L 426.207949 598.42924 
L 433.462038 598.858725 
L 440.716126 574.217915 
L 447.970215 577.294913 
L 455.224303 592.395499 
L 462.478391 600.116912 
L 469.73248 604.383174 
L 476.986568 604.228431 
L 484.240657 601.183124 
L 491.494745 599.709013 
L 498.748834 599.390463 
L 506.002922 599.923811 
L 513.25701 601.180098 
L 520.511099 601.79576 
L 527.765187 601.212485 
L 535.019276 599.485223 
L 542.273364 596.890914 
L 549.527453 594.091026 
L 556.781541 591.529837 
L 564.035629 589.372283 
L 571.289718 587.676827 
L 578.543806 586.381449 
L 585.797895 585.430371 
L 593.051983 584.739738 
L 600.306071 584.292159 
L 607.56016 584.007306 
L 614.814248 583.897078 
L 622.068337 584.019564 
L 629.322425 585.184007 
L 636.576514 585.878617 
L 643.830602 586.495951 
L 651.08469 587.057811 
L 658.338779 587.547713 
L 665.592867 587.948251 
L 672.846956 588.279419 
L 680.101044 588.529037 
L 687.355133 588.710413 
L 694.609221 588.839148 
L 701.863309 588.925833 
L 709.117398 588.978933 
L 716.371486 589.005219 
L 723.625575 589.010535 
L 730.879663 589.000847 
L 738.133751 588.978653 
L 745.38784 588.947428 
L 752.641928 588.909724 
L 759.896017 588.866251 
L 767.150105 588.817237 
L 774.404194 588.763301 
L 781.658282 588.70554 
L 788.91237 588.640815 
L 796.166459 588.574536 
L 803.420547 588.506931 
L 810.674636 588.455916 
L 817.928724 588.41569 
L 825.182812 588.382167 
" clip-path="url(#p752176d27f)" style="fill: none; stroke: #808080; stroke-width: 3; stroke-linecap: square"/>
   </g>
   <g id="patch_3">
    <path d="M 99.782813 617.04 
L 99.782813 7.2 
" style="fill: none; stroke: #000000; stroke-width: 0.8; stroke-linejoin: miter; stroke-linecap: square"/>
   </g>
   <g id="patch_4">
    <path d="M 825.182812 617.04 
L 825.182812 7.2 
" style="fill: none; stroke: #000000; stroke-width: 0.8; stroke-linejoin: miter; stroke-linecap: square"/>
   </g>
   <g id="patch_5">
    <path d="M 99.782813 617.04 
L 825.182812 617.04 
" style="fill: none; stroke: #000000; stroke-width: 0.8; stroke-linejoin: miter; stroke-linecap: square"/>
   </g>
   <g id="patch_6">
    <path d="M 99.782813 7.2 
L 825.182812 7.2 
" style="fill: none; stroke: #000000; stroke-width: 0.8; stroke-linejoin: miter; stroke-linecap: square"/>
   </g>
   <g id="legend_1">
    <g id="patch_7">
     <path d="M 374.987812 383.696312 
L 840.137812 383.696312 
Q 847.137812 383.696312 847.137812 376.696312 
L 847.137812 123.176 
Q 847.137812 116.176 840.137812 116.176 
L 374.987812 116.176 
Q 367.987812 116.176 367.987812 123.176 
L 367.987812 376.696312 
Q 367.987812 383.696312 374.987812 383.696312 
z
" style="fill: #ffffff; opacity: 0.8; stroke: #cccccc; stroke-linejoin: miter"/>
    </g>
    <g id="patch_8">
     <path d="M 381.987812 156.770531 
L 451.987812 156.770531 
L 451.987812 132.270531 
L 381.987812 132.270531 
z
" style="fill: #008000; fill-opacity: 0.2"/>
    </g>
    <g id="text_17">
     <!-- 1$\sigma$[$YN2$] -->
     <g transform="translate(479.987812 156.770531) scale(0.35 -0.35)">
      <defs>
       <path id="DejaVuSans-Oblique-3c3" d="M 2219 3044 
Q 1744 3044 1422 2700 
Q 1081 2341 969 1747 
Q 844 1119 1044 756 
Q 1241 397 1706 397 
Q 2166 397 2503 759 
Q 2844 1122 2966 1747 
Q 3075 2319 2881 2700 
Q 2700 3044 2219 3044 
z
M 2309 3503 
L 4219 3500 
L 4106 2925 
L 3463 2925 
Q 3706 2438 3575 1747 
Q 3406 888 2884 400 
Q 2359 -91 1609 -91 
Q 856 -91 525 400 
Q 194 888 363 1747 
Q 528 2609 1050 3097 
Q 1484 3503 2309 3503 
z
" transform="scale(0.015625)"/>
       <path id="DejaVuSans-Oblique-59" d="M 403 4666 
L 1081 4666 
L 1953 2747 
L 3616 4666 
L 4325 4666 
L 2209 2222 
L 1778 0 
L 1147 0 
L 1575 2222 
L 403 4666 
z
" transform="scale(0.015625)"/>
       <path id="DejaVuSans-Oblique-4e" d="M 1081 4666 
L 1931 4666 
L 3219 666 
L 4000 4666 
L 4616 4666 
L 3706 0 
L 2853 0 
L 1569 4025 
L 788 0 
L 172 0 
L 1081 4666 
z
" transform="scale(0.015625)"/>
      </defs>
      <use xlink:href="#DejaVuSans-31" transform="translate(0 0.015625)"/>
      <use xlink:href="#DejaVuSans-Oblique-3c3" transform="translate(63.623047 0.015625)"/>
      <use xlink:href="#DejaVuSans-5b" transform="translate(127.001953 0.015625)"/>
      <use xlink:href="#DejaVuSans-Oblique-59" transform="translate(166.015625 0.015625)"/>
      <use xlink:href="#DejaVuSans-Oblique-4e" transform="translate(227.099609 0.015625)"/>
      <use xlink:href="#DejaVuSans-32" transform="translate(301.904297 0.015625)"/>
      <use xlink:href="#DejaVuSans-5d" transform="translate(365.527344 0.015625)"/>
     </g>
    </g>
    <g id="line2d_32">
     <path d="M 381.987812 195.899437 
L 416.987812 195.899437 
L 451.987812 195.899437 
" style="fill: none; stroke: #008000; stroke-width: 3; stroke-linecap: square"/>
    </g>
    <g id="text_18">
     <!-- $\mu$[$YN2$] -->
     <g transform="translate(479.987812 208.149437) scale(0.35 -0.35)">
      <defs>
       <path id="DejaVuSans-Oblique-3bc" d="M -84 -1331 
L 856 3500 
L 1434 3500 
L 1009 1322 
Q 997 1256 987 1175 
Q 978 1094 978 1013 
Q 978 722 1161 565 
Q 1344 409 1684 409 
Q 2147 409 2431 671 
Q 2716 934 2816 1459 
L 3213 3500 
L 3788 3500 
L 3266 809 
Q 3253 750 3248 706 
Q 3244 663 3244 628 
Q 3244 531 3283 486 
Q 3322 441 3406 441 
Q 3438 441 3492 456 
Q 3547 472 3647 513 
L 3559 50 
Q 3422 -19 3297 -55 
Q 3172 -91 3053 -91 
Q 2847 -91 2730 40 
Q 2613 172 2613 403 
Q 2438 153 2195 31 
Q 1953 -91 1625 -91 
Q 1334 -91 1117 43 
Q 900 178 831 397 
L 494 -1331 
L -84 -1331 
z
" transform="scale(0.015625)"/>
      </defs>
      <use xlink:href="#DejaVuSans-Oblique-3bc" transform="translate(0 0.015625)"/>
      <use xlink:href="#DejaVuSans-5b" transform="translate(63.623047 0.015625)"/>
      <use xlink:href="#DejaVuSans-Oblique-59" transform="translate(102.636719 0.015625)"/>
      <use xlink:href="#DejaVuSans-Oblique-4e" transform="translate(163.720703 0.015625)"/>
      <use xlink:href="#DejaVuSans-32" transform="translate(238.525391 0.015625)"/>
      <use xlink:href="#DejaVuSans-5d" transform="translate(302.148438 0.015625)"/>
     </g>
    </g>
    <g id="line2d_33">
     <path d="M 381.987812 247.349437 
L 416.987812 247.349437 
L 451.987812 247.349437 
" style="fill: none; stroke: #0000ff; stroke-width: 3; stroke-linecap: square"/>
    </g>
    <g id="text_19">
     <!-- $\mu$[$YO2$] -->
     <g transform="translate(479.987812 259.599437) scale(0.35 -0.35)">
      <defs>
       <path id="DejaVuSans-Oblique-4f" d="M 2919 4238 
Q 2400 4238 2003 3986 
Q 1606 3734 1313 3219 
Q 1125 2891 1026 2522 
Q 928 2153 928 1778 
Q 928 1128 1239 775 
Q 1550 422 2119 422 
Q 2631 422 3032 676 
Q 3434 931 3719 1434 
Q 3909 1772 4009 2142 
Q 4109 2513 4109 2881 
Q 4109 3528 3796 3883 
Q 3484 4238 2919 4238 
z
M 2100 -91 
Q 1241 -91 748 418 
Q 256 928 256 1813 
Q 256 2319 448 2847 
Q 641 3375 978 3788 
Q 1375 4272 1862 4511 
Q 2350 4750 2938 4750 
Q 3794 4750 4287 4245 
Q 4781 3741 4781 2869 
Q 4781 2331 4593 1812 
Q 4406 1294 4056 872 
Q 3656 384 3173 146 
Q 2691 -91 2100 -91 
z
" transform="scale(0.015625)"/>
      </defs>
      <use xlink:href="#DejaVuSans-Oblique-3bc" transform="translate(0 0.015625)"/>
      <use xlink:href="#DejaVuSans-5b" transform="translate(63.623047 0.015625)"/>
      <use xlink:href="#DejaVuSans-Oblique-59" transform="translate(102.636719 0.015625)"/>
      <use xlink:href="#DejaVuSans-Oblique-4f" transform="translate(163.720703 0.015625)"/>
      <use xlink:href="#DejaVuSans-32" transform="translate(242.431641 0.015625)"/>
      <use xlink:href="#DejaVuSans-5d" transform="translate(306.054688 0.015625)"/>
     </g>
    </g>
    <g id="line2d_34">
     <path d="M 381.987812 298.793969 
L 416.987812 298.793969 
L 451.987812 298.793969 
" style="fill: none; stroke: #808080; stroke-width: 3; stroke-linecap: square"/>
    </g>
    <g id="text_20">
     <!-- Error to [21] on $YO2$ -->
     <g transform="translate(479.987812 311.043969) scale(0.35 -0.35)">
      <defs>
       <path id="DejaVuSans-45" d="M 628 4666 
L 3578 4666 
L 3578 4134 
L 1259 4134 
L 1259 2753 
L 3481 2753 
L 3481 2222 
L 1259 2222 
L 1259 531 
L 3634 531 
L 3634 0 
L 628 0 
L 628 4666 
z
" transform="scale(0.015625)"/>
      </defs>
      <use xlink:href="#DejaVuSans-45" transform="translate(0 0.015625)"/>
      <use xlink:href="#DejaVuSans-72" transform="translate(63.183594 0.015625)"/>
      <use xlink:href="#DejaVuSans-72" transform="translate(104.296875 0.015625)"/>
      <use xlink:href="#DejaVuSans-6f" transform="translate(145.410156 0.015625)"/>
      <use xlink:href="#DejaVuSans-72" transform="translate(206.591797 0.015625)"/>
      <use xlink:href="#DejaVuSans-20" transform="translate(247.705078 0.015625)"/>
      <use xlink:href="#DejaVuSans-74" transform="translate(279.492188 0.015625)"/>
      <use xlink:href="#DejaVuSans-6f" transform="translate(318.701172 0.015625)"/>
      <use xlink:href="#DejaVuSans-20" transform="translate(379.882812 0.015625)"/>
      <use xlink:href="#DejaVuSans-5b" transform="translate(411.669922 0.015625)"/>
      <use xlink:href="#DejaVuSans-32" transform="translate(450.683594 0.015625)"/>
      <use xlink:href="#DejaVuSans-31" transform="translate(514.306641 0.015625)"/>
      <use xlink:href="#DejaVuSans-5d" transform="translate(577.929688 0.015625)"/>
      <use xlink:href="#DejaVuSans-20" transform="translate(616.943359 0.015625)"/>
      <use xlink:href="#DejaVuSans-6f" transform="translate(648.730469 0.015625)"/>
      <use xlink:href="#DejaVuSans-6e" transform="translate(709.912109 0.015625)"/>
      <use xlink:href="#DejaVuSans-20" transform="translate(773.291016 0.015625)"/>
      <use xlink:href="#DejaVuSans-Oblique-59" transform="translate(805.078125 0.015625)"/>
      <use xlink:href="#DejaVuSans-Oblique-4f" transform="translate(866.162109 0.015625)"/>
      <use xlink:href="#DejaVuSans-32" transform="translate(944.873047 0.015625)"/>
     </g>
    </g>
    <g id="patch_9">
     <path d="M 381.987812 362.417406 
L 451.987812 362.417406 
L 451.987812 337.917406 
L 381.987812 337.917406 
z
" style="fill: #99ccff; fill-opacity: 0.7"/>
    </g>
    <g id="text_21">
     <!-- 1$\sigma$[$YO2$] -->
     <g transform="translate(479.987812 362.417406) scale(0.35 -0.35)">
      <use xlink:href="#DejaVuSans-31" transform="translate(0 0.015625)"/>
      <use xlink:href="#DejaVuSans-Oblique-3c3" transform="translate(63.623047 0.015625)"/>
      <use xlink:href="#DejaVuSans-5b" transform="translate(127.001953 0.015625)"/>
      <use xlink:href="#DejaVuSans-Oblique-59" transform="translate(166.015625 0.015625)"/>
      <use xlink:href="#DejaVuSans-Oblique-4f" transform="translate(227.099609 0.015625)"/>
      <use xlink:href="#DejaVuSans-32" transform="translate(305.810547 0.015625)"/>
      <use xlink:href="#DejaVuSans-5d" transform="translate(369.433594 0.015625)"/>
     </g>
    </g>
   </g>
  </g>
 </g>
 <defs>
  <clipPath id="p752176d27f">
   <rect x="99.782813" y="7.2" width="725.4" height="609.84"/>
  </clipPath>
 </defs>
</svg>
