<?xml version="1.0" encoding="utf-8" standalone="no"?>
<!DOCTYPE svg PUBLIC "-//W3C//DTD SVG 1.1//EN"
  "http://www.w3.org/Graphics/SVG/1.1/DTD/svg11.dtd">
<svg xmlns:xlink="http://www.w3.org/1999/xlink" width="827.9875pt" height="698.147812pt" viewBox="0 0 827.9875 698.147812" xmlns="http://www.w3.org/2000/svg" version="1.1">
 <metadata>
  <rdf:RDF xmlns:dc="http://purl.org/dc/elements/1.1/" xmlns:cc="http://creativecommons.org/ns#" xmlns:rdf="http://www.w3.org/1999/02/22-rdf-syntax-ns#">
   <cc:Work>
    <dc:type rdf:resource="http://purl.org/dc/dcmitype/StillImage"/>
    <dc:date>2024-12-22T23:58:02.959955</dc:date>
    <dc:format>image/svg+xml</dc:format>
    <dc:creator>
     <cc:Agent>
      <dc:title>Matplotlib v3.10.0, https://matplotlib.org/</dc:title>
     </cc:Agent>
    </dc:creator>
   </cc:Work>
  </rdf:RDF>
 </metadata>
 <defs>
  <style type="text/css">*{stroke-linejoin: round; stroke-linecap: butt}</style>
 </defs>
 <g id="figure_1">
  <g id="patch_1">
   <path d="M 0 698.147812 
L 827.9875 698.147812 
L 827.9875 0 
L 0 0 
z
" style="fill: #ffffff"/>
  </g>
  <g id="axes_1">
   <g id="patch_2">
    <path d="M 95.3875 617.04 
L 820.7875 617.04 
L 820.7875 7.2 
L 95.3875 7.2 
z
" style="fill: #ffffff"/>
   </g>
   <g id="FillBetweenPolyCollection_1">
    <path d="M 108.820833 522.408011 
L 108.820833 514.200239 
L 127.077996 514.103219 
L 140.405844 513.902166 
L 150.135416 513.58634 
L 157.238401 513.141617 
L 162.424153 512.549086 
L 166.210543 511.785713 
L 168.975664 510.821851 
L 170.995572 509.623794 
L 172.47184 508.084843 
L 173.650572 506.754811 
L 174.819036 505.018403 
L 175.9875 494.702845 
L 177.185066 439.756962 
L 178.382632 403.425659 
L 179.580198 389.573029 
L 180.777763 385.537992 
L 181.975329 381.881348 
L 183.172895 381.886489 
L 184.370461 381.669617 
L 185.568027 381.779602 
L 186.765593 382.234086 
L 187.963158 382.364672 
L 189.160724 382.396076 
L 190.35829 382.598067 
L 191.555856 382.547186 
L 192.753422 382.743644 
L 193.950988 382.798543 
L 195.148554 382.903339 
L 196.346119 382.737433 
L 197.543685 382.65128 
L 198.741251 382.447942 
L 199.938817 382.149798 
L 201.136383 382.049605 
L 202.333949 381.92144 
L 203.531515 382.019003 
L 204.72908 382.146669 
L 205.926646 382.400604 
L 207.124212 382.585817 
L 208.321778 382.930197 
L 209.519344 383.047553 
L 210.71691 383.442245 
L 211.914475 383.584153 
L 213.112041 383.893476 
L 214.309607 384.163361 
L 215.507173 384.351553 
L 216.704739 384.604764 
L 217.902306 384.788324 
L 219.130042 384.984387 
L 220.401644 385.190544 
L 221.719004 385.400863 
L 223.084644 385.62797 
L 224.501146 385.851815 
L 225.969995 386.076294 
L 227.492959 386.307037 
L 229.072101 386.554541 
L 230.709686 386.803829 
L 232.407145 387.046484 
L 234.166252 387.280968 
L 235.989481 387.535873 
L 237.880164 387.748886 
L 239.842059 388.013079 
L 241.874278 388.23436 
L 243.981391 388.475569 
L 246.167236 388.741336 
L 248.431943 388.977729 
L 250.781337 389.244835 
L 253.216722 389.46429 
L 255.740986 389.70853 
L 258.359207 389.89982 
L 261.073693 390.142466 
L 263.887835 390.337398 
L 266.805495 390.553839 
L 269.830617 390.745947 
L 272.967111 390.947354 
L 276.218944 391.141998 
L 279.590414 391.349342 
L 283.086546 391.566926 
L 286.711235 391.79153 
L 290.469223 392.009182 
L 294.365827 392.241758 
L 298.406099 392.48038 
L 302.594876 392.694832 
L 306.937917 392.941384 
L 311.44108 393.126618 
L 316.11024 393.324267 
L 320.951296 393.505549 
L 325.945118 393.695518 
L 331.08294 393.86492 
L 336.409898 394.057079 
L 341.933455 394.202457 
L 347.660479 394.368188 
L 353.598598 394.504764 
L 359.75564 394.635291 
L 366.139572 394.756081 
L 372.758846 394.849585 
L 379.622247 394.913714 
L 386.738655 394.959775 
L 394.117355 394.972662 
L 401.768078 394.965112 
L 409.320936 394.920446 
L 414.957856 394.887516 
L 418.972112 394.791841 
L 421.831307 394.672075 
L 423.868243 394.455847 
L 425.319756 394.153976 
L 426.460523 393.73626 
L 427.591558 393.192937 
L 428.722592 392.497896 
L 429.853627 391.670916 
L 430.984661 390.694103 
L 432.115695 389.462356 
L 433.24673 389.096789 
L 434.377764 384.61331 
L 435.508799 308.922165 
L 436.333594 22.139601 
L 437.158389 46.974092 
L 437.983185 59.563184 
L 438.80798 74.590076 
L 439.632775 92.816805 
L 440.457571 108.560969 
L 441.282366 124.117169 
L 442.107161 137.578164 
L 442.931957 149.35209 
L 443.756752 159.18457 
L 444.581548 167.654999 
L 445.406343 175.495217 
L 446.231138 182.375185 
L 447.055934 188.559509 
L 447.880729 193.97021 
L 448.705524 198.87369 
L 449.53032 203.184019 
L 450.355115 207.024528 
L 451.17991 210.558916 
L 452.004706 213.757866 
L 452.829501 216.646754 
L 453.654296 219.306818 
L 454.479092 221.681079 
L 455.303887 223.887299 
L 456.128683 225.991055 
L 456.953478 227.959837 
L 457.778273 229.824021 
L 458.603069 231.588832 
L 459.427864 233.282622 
L 460.252659 234.88717 
L 461.077455 236.35612 
L 461.90225 237.750272 
L 462.727045 239.082198 
L 463.551841 240.399855 
L 464.376636 241.596223 
L 465.201431 242.798525 
L 466.026227 243.968364 
L 466.851022 245.099287 
L 467.675818 246.275398 
L 468.500613 247.450546 
L 469.325408 248.620232 
L 470.150204 249.872833 
L 470.974999 251.10891 
L 471.799794 252.409941 
L 472.633036 253.762163 
L 473.518 255.266662 
L 474.480637 257.030501 
L 475.518578 259.158205 
L 476.646093 261.827307 
L 477.869919 265.166996 
L 479.195791 269.451567 
L 480.634901 274.573988 
L 482.199999 280.438076 
L 483.901399 286.519665 
L 485.751295 292.678687 
L 487.763321 298.023885 
L 489.952416 302.055593 
L 492.335142 304.874888 
L 494.928566 306.064386 
L 497.748527 306.575773 
L 500.81747 306.272436 
L 504.152365 306.114288 
L 507.776186 305.675945 
L 511.707864 305.350737 
L 515.966715 304.570678 
L 520.57018 303.425562 
L 525.529579 301.628009 
L 530.847532 299.050168 
L 536.507079 295.924923 
L 542.421075 292.683642 
L 548.359602 289.685899 
L 554.298128 287.010316 
L 560.236655 284.704059 
L 566.175181 282.794704 
L 572.113708 281.323484 
L 578.052234 280.357833 
L 583.990761 279.779962 
L 589.929288 279.663756 
L 595.867814 279.670633 
L 601.806341 279.750608 
L 607.744867 279.869841 
L 613.683394 280.147112 
L 619.62192 280.986908 
L 625.560447 323.278608 
L 633.95628 409.180527 
L 642.352114 428.574505 
L 650.747947 420.718797 
L 659.14378 413.391205 
L 667.539614 409.350725 
L 675.935447 407.434903 
L 684.33128 406.891032 
L 692.727114 406.579637 
L 701.122947 407.172941 
L 709.51878 407.685965 
L 717.914614 408.190728 
L 726.310447 408.509032 
L 734.70628 408.893522 
L 743.102114 409.358214 
L 751.497947 409.713074 
L 759.89378 410.00405 
L 768.289614 410.262798 
L 776.685447 410.32629 
L 785.08128 410.551348 
L 793.477114 410.583461 
L 801.872947 410.765151 
L 810.26878 410.858373 
L 818.664614 410.941987 
L 827.060447 410.994467 
L 827.060447 427.426851 
L 827.060447 427.426851 
L 818.664614 427.303416 
L 810.26878 427.129391 
L 801.872947 426.956312 
L 793.477114 426.693733 
L 785.08128 426.59597 
L 776.685447 426.289391 
L 768.289614 426.138355 
L 759.89378 425.785927 
L 751.497947 425.380408 
L 743.102114 424.893706 
L 734.70628 424.287084 
L 726.310447 423.728371 
L 717.914614 423.179559 
L 709.51878 422.410565 
L 701.122947 421.937887 
L 692.727114 422.338109 
L 684.33128 424.267437 
L 675.935447 427.00616 
L 667.539614 430.439817 
L 659.14378 433.682489 
L 650.747947 436.718286 
L 642.352114 446.26462 
L 633.95628 435.793458 
L 625.560447 354.973735 
L 619.62192 317.24666 
L 613.683394 315.779818 
L 607.744867 316.04754 
L 601.806341 315.587609 
L 595.867814 315.130258 
L 589.929288 314.748588 
L 583.990761 314.424233 
L 578.052234 314.534208 
L 572.113708 314.953562 
L 566.175181 315.823036 
L 560.236655 317.075123 
L 554.298128 318.625345 
L 548.359602 320.404127 
L 542.421075 322.332161 
L 536.507079 324.379255 
L 530.847532 326.393313 
L 525.529579 328.144272 
L 520.57018 329.426927 
L 515.966715 330.443196 
L 511.707864 331.258952 
L 507.776186 331.667353 
L 504.152365 331.693604 
L 500.81747 331.210798 
L 497.748527 330.366939 
L 494.928566 328.895077 
L 492.335142 326.818176 
L 489.952416 323.605523 
L 487.763321 319.280495 
L 485.751295 313.884439 
L 483.901399 307.763598 
L 482.199999 301.814173 
L 480.634901 296.060462 
L 479.195791 291.09319 
L 477.869919 286.970362 
L 476.646093 283.799167 
L 475.518578 281.288324 
L 474.480637 279.289337 
L 473.518 277.626638 
L 472.633036 276.206429 
L 471.799794 274.921403 
L 470.974999 273.686947 
L 470.150204 272.513918 
L 469.325408 271.33525 
L 468.500613 270.230743 
L 467.675818 269.124555 
L 466.851022 268.019195 
L 466.026227 266.948651 
L 465.201431 265.844812 
L 464.376636 264.712241 
L 463.551841 263.577511 
L 462.727045 262.337252 
L 461.90225 261.073863 
L 461.077455 259.759622 
L 460.252659 258.373493 
L 459.427864 256.865682 
L 458.603069 255.278088 
L 457.778273 253.640933 
L 456.953478 251.922637 
L 456.128683 250.127328 
L 455.303887 248.224602 
L 454.479092 246.258523 
L 453.654296 244.170576 
L 452.829501 241.857016 
L 452.004706 239.378308 
L 451.17991 236.660849 
L 450.355115 233.705793 
L 449.53032 230.548366 
L 448.705524 227.048051 
L 447.880729 223.083323 
L 447.055934 218.754259 
L 446.231138 213.757508 
L 445.406343 208.174326 
L 444.581548 201.640826 
L 443.756752 194.533694 
L 442.931957 186.187199 
L 442.107161 176.270606 
L 441.282366 165.081208 
L 440.457571 153.024966 
L 439.632775 144.253884 
L 438.80798 132.995692 
L 437.983185 121.764788 
L 437.158389 104.843232 
L 436.333594 89.509844 
L 435.508799 348.630225 
L 434.377764 415.935209 
L 433.24673 415.509568 
L 432.115695 416.569447 
L 430.984661 417.46987 
L 429.853627 418.180417 
L 428.722592 418.799687 
L 427.591558 419.339557 
L 426.460523 419.775827 
L 425.319756 420.126534 
L 423.868243 420.394917 
L 421.831307 420.59948 
L 418.972112 420.733734 
L 414.957856 420.847199 
L 409.320936 420.920242 
L 401.768078 421.009162 
L 394.117355 421.075451 
L 386.738655 421.128639 
L 379.622247 421.15943 
L 372.758846 421.177695 
L 366.139572 421.171421 
L 359.75564 421.13999 
L 353.598598 421.097451 
L 347.660479 421.047335 
L 341.933455 420.970682 
L 336.409898 420.905678 
L 331.08294 420.797257 
L 325.945118 420.70174 
L 320.951296 420.586649 
L 316.11024 420.473697 
L 311.44108 420.344691 
L 306.937917 420.216931 
L 302.594876 420.031415 
L 298.406099 419.868141 
L 294.365827 419.685132 
L 290.469223 419.507723 
L 286.711235 419.342165 
L 283.086546 419.171762 
L 279.590414 419.007606 
L 276.218944 418.853719 
L 272.967111 418.711842 
L 269.830617 418.565972 
L 266.805495 418.428086 
L 263.887835 418.269447 
L 261.073693 418.126059 
L 258.359207 417.946439 
L 255.740986 417.807086 
L 253.216722 417.6275 
L 250.781337 417.464963 
L 248.431943 417.264126 
L 246.167236 417.086787 
L 243.981391 416.890427 
L 241.874278 416.717211 
L 239.842059 416.562793 
L 237.880164 416.377806 
L 235.989481 416.233643 
L 234.166252 416.060468 
L 232.407145 415.90576 
L 230.709686 415.746365 
L 229.072101 415.583159 
L 227.492959 415.424603 
L 225.969995 415.282142 
L 224.501146 415.150329 
L 223.084644 415.019952 
L 221.719004 414.887643 
L 220.401644 414.767395 
L 219.130042 414.651508 
L 217.902306 414.540772 
L 216.704739 414.436452 
L 215.507173 414.270017 
L 214.309607 414.136198 
L 213.112041 413.916395 
L 211.914475 413.650617 
L 210.71691 413.509243 
L 209.519344 413.161827 
L 208.321778 413.018494 
L 207.124212 412.669468 
L 205.926646 412.435448 
L 204.72908 412.144752 
L 203.531515 411.958964 
L 202.333949 411.797456 
L 201.136383 411.819408 
L 199.938817 411.79566 
L 198.741251 411.920768 
L 197.543685 411.923035 
L 196.346119 411.773108 
L 195.148554 411.732313 
L 193.950988 411.41508 
L 192.753422 411.122925 
L 191.555856 410.606249 
L 190.35829 410.231758 
L 189.160724 409.26108 
L 187.963158 408.376009 
L 186.765593 407.303358 
L 185.568027 405.687457 
L 184.370461 404.272495 
L 183.172895 403.325112 
L 181.975329 401.900895 
L 180.777763 403.546713 
L 179.580198 406.702876 
L 178.382632 418.764465 
L 177.185066 455.232489 
L 175.9875 507.073515 
L 174.819036 514.419348 
L 173.650572 517.585049 
L 172.47184 519.027242 
L 170.995572 519.7843 
L 168.975664 520.389011 
L 166.210543 520.902544 
L 162.424153 521.334984 
L 157.238401 521.693397 
L 150.135416 521.979806 
L 140.405844 522.194702 
L 127.077996 522.337327 
L 108.820833 522.408011 
z
" clip-path="url(#peca1299a79)" style="fill: #99ccff; fill-opacity: 0.7"/>
   </g>
   <g id="FillBetweenPolyCollection_2">
    <defs>
     <path id="m52f5594e68" d="M 102.632746 -115.630672 
L 102.632746 -115.255957 
L 109.886835 -115.284041 
L 117.140923 -115.312126 
L 124.395012 -115.340211 
L 131.6491 -115.399515 
L 138.903188 -115.477143 
L 146.157277 -115.620254 
L 153.411365 -115.840213 
L 160.665454 -116.231388 
L 167.919542 -117.102773 
L 175.173631 -98.047812 
L 182.427719 -129.161883 
L 189.681807 -123.262783 
L 196.935896 -121.828277 
L 204.189984 -121.884993 
L 211.444073 -120.534614 
L 218.698161 -119.63603 
L 225.95225 -119.025631 
L 233.206338 -118.417946 
L 240.460426 -117.837497 
L 247.714515 -117.306643 
L 254.968603 -116.862786 
L 262.222692 -116.506192 
L 269.47678 -116.206089 
L 276.730868 -115.946517 
L 283.984957 -115.676316 
L 291.239045 -115.400589 
L 298.493134 -115.106162 
L 305.747222 -114.832481 
L 313.001311 -114.630491 
L 320.255399 -114.467941 
L 327.509487 -114.322827 
L 334.763576 -114.189953 
L 342.017664 -114.096575 
L 349.271753 -114.018583 
L 356.525841 -113.978219 
L 363.779929 -113.954768 
L 371.034018 -113.957292 
L 378.288106 -113.989278 
L 385.542195 -114.036857 
L 392.796283 -114.103145 
L 400.050372 -114.181451 
L 407.30446 -114.278732 
L 414.558548 -114.387239 
L 421.812637 -114.656598 
L 429.066725 -116.620554 
L 436.320814 -208.290285 
L 443.574902 -151.790884 
L 450.828991 -126.801513 
L 458.083079 -119.053868 
L 465.337167 -114.989583 
L 472.591256 -114.936986 
L 479.845344 -125.522261 
L 487.099433 -128.373582 
L 494.353521 -123.276437 
L 501.607609 -120.029835 
L 508.861698 -116.957006 
L 516.115786 -114.207078 
L 523.369875 -110.981471 
L 530.623963 -107.94213 
L 537.878052 -105.351492 
L 545.13214 -103.267546 
L 552.386228 -101.716386 
L 559.640317 -100.469114 
L 566.894405 -99.245928 
L 574.148494 -98.047812 
L 581.402582 -98.047812 
L 588.656671 -98.047812 
L 595.910759 -98.047812 
L 603.164847 -98.047812 
L 610.418936 -98.047812 
L 617.673024 -98.346452 
L 624.927113 -196.67101 
L 632.181201 -129.956716 
L 639.435289 -108.055696 
L 646.689378 -108.346642 
L 653.943466 -114.180717 
L 661.197555 -116.874669 
L 668.451643 -119.608183 
L 675.705732 -122.431149 
L 682.95982 -124.635268 
L 690.213908 -126.236375 
L 697.467997 -126.831479 
L 704.722085 -126.586843 
L 711.976174 -125.86776 
L 719.230262 -125.005602 
L 726.484351 -124.2893 
L 733.738439 -123.553551 
L 740.992527 -122.768779 
L 748.246616 -122.039405 
L 755.500704 -121.367776 
L 762.754793 -120.735321 
L 770.008881 -120.1614 
L 777.262969 -119.697827 
L 784.517058 -119.10413 
L 791.771146 -118.746255 
L 799.025235 -118.386587 
L 806.279323 -118.352659 
L 813.533412 -117.893786 
L 820.7875 -117.132865 
L 820.7875 -121.315804 
L 820.7875 -121.315804 
L 813.533412 -122.180223 
L 806.279323 -122.620238 
L 799.025235 -122.462385 
L 791.771146 -122.741879 
L 784.517058 -123.059386 
L 777.262969 -123.621896 
L 770.008881 -124.043976 
L 762.754793 -124.565065 
L 755.500704 -125.125974 
L 748.246616 -125.70554 
L 740.992527 -126.324981 
L 733.738439 -126.982149 
L 726.484351 -127.557761 
L 719.230262 -128.058514 
L 711.976174 -128.671725 
L 704.722085 -129.301205 
L 697.467997 -129.949089 
L 690.213908 -130.339948 
L 682.95982 -130.156263 
L 675.705732 -129.736301 
L 668.451643 -128.101911 
L 661.197555 -124.776913 
L 653.943466 -119.029262 
L 646.689378 -112.165733 
L 639.435289 -115.925465 
L 632.181201 -143.743163 
L 624.927113 -217.970486 
L 617.673024 -100.365878 
L 610.418936 -98.047812 
L 603.164847 -98.047812 
L 595.910759 -98.047812 
L 588.656671 -98.047812 
L 581.402582 -98.047812 
L 574.148494 -98.047812 
L 566.894405 -99.046072 
L 559.640317 -100.706209 
L 552.386228 -102.607525 
L 545.13214 -104.998388 
L 537.878052 -108.05033 
L 530.623963 -111.819751 
L 523.369875 -116.199169 
L 516.115786 -121.086923 
L 508.861698 -125.563475 
L 501.607609 -128.83666 
L 494.353521 -130.396402 
L 487.099433 -134.244336 
L 479.845344 -129.007309 
L 472.591256 -117.721453 
L 465.337167 -116.634286 
L 458.083079 -121.026774 
L 450.828991 -130.237491 
L 443.574902 -161.519475 
L 436.320814 -238.759012 
L 429.066725 -115.558463 
L 421.812637 -113.161686 
L 414.558548 -112.887425 
L 407.30446 -112.789513 
L 400.050372 -112.70091 
L 392.796283 -112.644756 
L 385.542195 -112.612075 
L 378.288106 -112.613515 
L 371.034018 -112.640924 
L 363.779929 -112.704589 
L 356.525841 -112.799962 
L 349.271753 -112.914163 
L 342.017664 -113.065146 
L 334.763576 -113.218634 
L 327.509487 -113.408946 
L 320.255399 -113.611213 
L 313.001311 -113.83512 
L 305.747222 -114.096286 
L 298.493134 -114.423229 
L 291.239045 -114.780135 
L 283.984957 -115.115391 
L 276.730868 -115.465551 
L 269.47678 -115.821778 
L 262.222692 -116.217984 
L 254.968603 -116.660517 
L 247.714515 -117.262427 
L 240.460426 -117.98707 
L 233.206338 -118.748677 
L 225.95225 -119.67459 
L 218.698161 -120.708787 
L 211.444073 -121.868535 
L 204.189984 -123.045523 
L 196.935896 -122.083931 
L 189.681807 -121.309184 
L 182.427719 -120.201491 
L 175.173631 -98.047812 
L 167.919542 -118.673803 
L 160.665454 -117.113757 
L 153.411365 -116.482565 
L 146.157277 -116.148323 
L 138.903188 -115.938961 
L 131.6491 -115.829532 
L 124.395012 -115.746319 
L 117.140923 -115.70777 
L 109.886835 -115.669221 
L 102.632746 -115.630672 
z
" style="stroke: #808080; stroke-opacity: 0.2"/>
    </defs>
    <g clip-path="url(#peca1299a79)">
     <use xlink:href="#m52f5594e68" x="0" y="698.147812" style="fill: #808080; fill-opacity: 0.2; stroke: #808080; stroke-opacity: 0.2"/>
    </g>
   </g>
   <g id="matplotlib.axis_1">
    <g id="xtick_1">
     <g id="line2d_1">
      <path d="M 175.9875 617.04 
L 175.9875 7.2 
" clip-path="url(#peca1299a79)" style="fill: none; stroke: #b0b0b0; stroke-width: 0.8; stroke-linecap: square"/>
     </g>
     <g id="line2d_2">
      <defs>
       <path id="m97ac61646d" d="M 0 0 
L 0 3.5 
" style="stroke: #000000; stroke-width: 0.8"/>
      </defs>
      <g>
       <use xlink:href="#m97ac61646d" x="175.9875" y="617.04" style="stroke: #000000; stroke-width: 0.8"/>
      </g>
     </g>
     <g id="text_1">
      <!-- 0.0 -->
      <g transform="translate(152.132812 646.835312) scale(0.3 -0.3)">
       <defs>
        <path id="DejaVuSans-30" d="M 2034 4250 
Q 1547 4250 1301 3770 
Q 1056 3291 1056 2328 
Q 1056 1369 1301 889 
Q 1547 409 2034 409 
Q 2525 409 2770 889 
Q 3016 1369 3016 2328 
Q 3016 3291 2770 3770 
Q 2525 4250 2034 4250 
z
M 2034 4750 
Q 2819 4750 3233 4129 
Q 3647 3509 3647 2328 
Q 3647 1150 3233 529 
Q 2819 -91 2034 -91 
Q 1250 -91 836 529 
Q 422 1150 422 2328 
Q 422 3509 836 4129 
Q 1250 4750 2034 4750 
z
" transform="scale(0.015625)"/>
        <path id="DejaVuSans-2e" d="M 684 794 
L 1344 794 
L 1344 0 
L 684 0 
L 684 794 
z
" transform="scale(0.015625)"/>
       </defs>
       <use xlink:href="#DejaVuSans-30"/>
       <use xlink:href="#DejaVuSans-2e" transform="translate(63.623047 0)"/>
       <use xlink:href="#DejaVuSans-30" transform="translate(95.410156 0)"/>
      </g>
     </g>
    </g>
    <g id="xtick_2">
     <g id="line2d_3">
      <path d="M 310.320833 617.04 
L 310.320833 7.2 
" clip-path="url(#peca1299a79)" style="fill: none; stroke: #b0b0b0; stroke-width: 0.8; stroke-linecap: square"/>
     </g>
     <g id="line2d_4">
      <g>
       <use xlink:href="#m97ac61646d" x="310.320833" y="617.04" style="stroke: #000000; stroke-width: 0.8"/>
      </g>
     </g>
     <g id="text_2">
      <!-- 0.1 -->
      <g transform="translate(286.466146 646.835312) scale(0.3 -0.3)">
       <defs>
        <path id="DejaVuSans-31" d="M 794 531 
L 1825 531 
L 1825 4091 
L 703 3866 
L 703 4441 
L 1819 4666 
L 2450 4666 
L 2450 531 
L 3481 531 
L 3481 0 
L 794 0 
L 794 531 
z
" transform="scale(0.015625)"/>
       </defs>
       <use xlink:href="#DejaVuSans-30"/>
       <use xlink:href="#DejaVuSans-2e" transform="translate(63.623047 0)"/>
       <use xlink:href="#DejaVuSans-31" transform="translate(95.410156 0)"/>
      </g>
     </g>
    </g>
    <g id="xtick_3">
     <g id="line2d_5">
      <path d="M 444.654167 617.04 
L 444.654167 7.2 
" clip-path="url(#peca1299a79)" style="fill: none; stroke: #b0b0b0; stroke-width: 0.8; stroke-linecap: square"/>
     </g>
     <g id="line2d_6">
      <g>
       <use xlink:href="#m97ac61646d" x="444.654167" y="617.04" style="stroke: #000000; stroke-width: 0.8"/>
      </g>
     </g>
     <g id="text_3">
      <!-- 0.2 -->
      <g transform="translate(420.799479 646.835312) scale(0.3 -0.3)">
       <defs>
        <path id="DejaVuSans-32" d="M 1228 531 
L 3431 531 
L 3431 0 
L 469 0 
L 469 531 
Q 828 903 1448 1529 
Q 2069 2156 2228 2338 
Q 2531 2678 2651 2914 
Q 2772 3150 2772 3378 
Q 2772 3750 2511 3984 
Q 2250 4219 1831 4219 
Q 1534 4219 1204 4116 
Q 875 4013 500 3803 
L 500 4441 
Q 881 4594 1212 4672 
Q 1544 4750 1819 4750 
Q 2544 4750 2975 4387 
Q 3406 4025 3406 3419 
Q 3406 3131 3298 2873 
Q 3191 2616 2906 2266 
Q 2828 2175 2409 1742 
Q 1991 1309 1228 531 
z
" transform="scale(0.015625)"/>
       </defs>
       <use xlink:href="#DejaVuSans-30"/>
       <use xlink:href="#DejaVuSans-2e" transform="translate(63.623047 0)"/>
       <use xlink:href="#DejaVuSans-32" transform="translate(95.410156 0)"/>
      </g>
     </g>
    </g>
    <g id="xtick_4">
     <g id="line2d_7">
      <path d="M 578.9875 617.04 
L 578.9875 7.2 
" clip-path="url(#peca1299a79)" style="fill: none; stroke: #b0b0b0; stroke-width: 0.8; stroke-linecap: square"/>
     </g>
     <g id="line2d_8">
      <g>
       <use xlink:href="#m97ac61646d" x="578.9875" y="617.04" style="stroke: #000000; stroke-width: 0.8"/>
      </g>
     </g>
     <g id="text_4">
      <!-- 0.3 -->
      <g transform="translate(555.132812 646.835312) scale(0.3 -0.3)">
       <defs>
        <path id="DejaVuSans-33" d="M 2597 2516 
Q 3050 2419 3304 2112 
Q 3559 1806 3559 1356 
Q 3559 666 3084 287 
Q 2609 -91 1734 -91 
Q 1441 -91 1130 -33 
Q 819 25 488 141 
L 488 750 
Q 750 597 1062 519 
Q 1375 441 1716 441 
Q 2309 441 2620 675 
Q 2931 909 2931 1356 
Q 2931 1769 2642 2001 
Q 2353 2234 1838 2234 
L 1294 2234 
L 1294 2753 
L 1863 2753 
Q 2328 2753 2575 2939 
Q 2822 3125 2822 3475 
Q 2822 3834 2567 4026 
Q 2313 4219 1838 4219 
Q 1578 4219 1281 4162 
Q 984 4106 628 3988 
L 628 4550 
Q 988 4650 1302 4700 
Q 1616 4750 1894 4750 
Q 2613 4750 3031 4423 
Q 3450 4097 3450 3541 
Q 3450 3153 3228 2886 
Q 3006 2619 2597 2516 
z
" transform="scale(0.015625)"/>
       </defs>
       <use xlink:href="#DejaVuSans-30"/>
       <use xlink:href="#DejaVuSans-2e" transform="translate(63.623047 0)"/>
       <use xlink:href="#DejaVuSans-33" transform="translate(95.410156 0)"/>
      </g>
     </g>
    </g>
    <g id="xtick_5">
     <g id="line2d_9">
      <path d="M 713.320833 617.04 
L 713.320833 7.2 
" clip-path="url(#peca1299a79)" style="fill: none; stroke: #b0b0b0; stroke-width: 0.8; stroke-linecap: square"/>
     </g>
     <g id="line2d_10">
      <g>
       <use xlink:href="#m97ac61646d" x="713.320833" y="617.04" style="stroke: #000000; stroke-width: 0.8"/>
      </g>
     </g>
     <g id="text_5">
      <!-- 0.4 -->
      <g transform="translate(689.466146 646.835312) scale(0.3 -0.3)">
       <defs>
        <path id="DejaVuSans-34" d="M 2419 4116 
L 825 1625 
L 2419 1625 
L 2419 4116 
z
M 2253 4666 
L 3047 4666 
L 3047 1625 
L 3713 1625 
L 3713 1100 
L 3047 1100 
L 3047 0 
L 2419 0 
L 2419 1100 
L 313 1100 
L 313 1709 
L 2253 4666 
z
" transform="scale(0.015625)"/>
       </defs>
       <use xlink:href="#DejaVuSans-30"/>
       <use xlink:href="#DejaVuSans-2e" transform="translate(63.623047 0)"/>
       <use xlink:href="#DejaVuSans-34" transform="translate(95.410156 0)"/>
      </g>
     </g>
    </g>
    <g id="text_6">
     <!-- X coordinate [m] -->
     <g transform="translate(310.934375 683.668906) scale(0.35 -0.35)">
      <defs>
       <path id="DejaVuSans-58" d="M 403 4666 
L 1081 4666 
L 2241 2931 
L 3406 4666 
L 4084 4666 
L 2584 2425 
L 4184 0 
L 3506 0 
L 2194 1984 
L 872 0 
L 191 0 
L 1856 2491 
L 403 4666 
z
" transform="scale(0.015625)"/>
       <path id="DejaVuSans-20" transform="scale(0.015625)"/>
       <path id="DejaVuSans-63" d="M 3122 3366 
L 3122 2828 
Q 2878 2963 2633 3030 
Q 2388 3097 2138 3097 
Q 1578 3097 1268 2742 
Q 959 2388 959 1747 
Q 959 1106 1268 751 
Q 1578 397 2138 397 
Q 2388 397 2633 464 
Q 2878 531 3122 666 
L 3122 134 
Q 2881 22 2623 -34 
Q 2366 -91 2075 -91 
Q 1284 -91 818 406 
Q 353 903 353 1747 
Q 353 2603 823 3093 
Q 1294 3584 2113 3584 
Q 2378 3584 2631 3529 
Q 2884 3475 3122 3366 
z
" transform="scale(0.015625)"/>
       <path id="DejaVuSans-6f" d="M 1959 3097 
Q 1497 3097 1228 2736 
Q 959 2375 959 1747 
Q 959 1119 1226 758 
Q 1494 397 1959 397 
Q 2419 397 2687 759 
Q 2956 1122 2956 1747 
Q 2956 2369 2687 2733 
Q 2419 3097 1959 3097 
z
M 1959 3584 
Q 2709 3584 3137 3096 
Q 3566 2609 3566 1747 
Q 3566 888 3137 398 
Q 2709 -91 1959 -91 
Q 1206 -91 779 398 
Q 353 888 353 1747 
Q 353 2609 779 3096 
Q 1206 3584 1959 3584 
z
" transform="scale(0.015625)"/>
       <path id="DejaVuSans-72" d="M 2631 2963 
Q 2534 3019 2420 3045 
Q 2306 3072 2169 3072 
Q 1681 3072 1420 2755 
Q 1159 2438 1159 1844 
L 1159 0 
L 581 0 
L 581 3500 
L 1159 3500 
L 1159 2956 
Q 1341 3275 1631 3429 
Q 1922 3584 2338 3584 
Q 2397 3584 2469 3576 
Q 2541 3569 2628 3553 
L 2631 2963 
z
" transform="scale(0.015625)"/>
       <path id="DejaVuSans-64" d="M 2906 2969 
L 2906 4863 
L 3481 4863 
L 3481 0 
L 2906 0 
L 2906 525 
Q 2725 213 2448 61 
Q 2172 -91 1784 -91 
Q 1150 -91 751 415 
Q 353 922 353 1747 
Q 353 2572 751 3078 
Q 1150 3584 1784 3584 
Q 2172 3584 2448 3432 
Q 2725 3281 2906 2969 
z
M 947 1747 
Q 947 1113 1208 752 
Q 1469 391 1925 391 
Q 2381 391 2643 752 
Q 2906 1113 2906 1747 
Q 2906 2381 2643 2742 
Q 2381 3103 1925 3103 
Q 1469 3103 1208 2742 
Q 947 2381 947 1747 
z
" transform="scale(0.015625)"/>
       <path id="DejaVuSans-69" d="M 603 3500 
L 1178 3500 
L 1178 0 
L 603 0 
L 603 3500 
z
M 603 4863 
L 1178 4863 
L 1178 4134 
L 603 4134 
L 603 4863 
z
" transform="scale(0.015625)"/>
       <path id="DejaVuSans-6e" d="M 3513 2113 
L 3513 0 
L 2938 0 
L 2938 2094 
Q 2938 2591 2744 2837 
Q 2550 3084 2163 3084 
Q 1697 3084 1428 2787 
Q 1159 2491 1159 1978 
L 1159 0 
L 581 0 
L 581 3500 
L 1159 3500 
L 1159 2956 
Q 1366 3272 1645 3428 
Q 1925 3584 2291 3584 
Q 2894 3584 3203 3211 
Q 3513 2838 3513 2113 
z
" transform="scale(0.015625)"/>
       <path id="DejaVuSans-61" d="M 2194 1759 
Q 1497 1759 1228 1600 
Q 959 1441 959 1056 
Q 959 750 1161 570 
Q 1363 391 1709 391 
Q 2188 391 2477 730 
Q 2766 1069 2766 1631 
L 2766 1759 
L 2194 1759 
z
M 3341 1997 
L 3341 0 
L 2766 0 
L 2766 531 
Q 2569 213 2275 61 
Q 1981 -91 1556 -91 
Q 1019 -91 701 211 
Q 384 513 384 1019 
Q 384 1609 779 1909 
Q 1175 2209 1959 2209 
L 2766 2209 
L 2766 2266 
Q 2766 2663 2505 2880 
Q 2244 3097 1772 3097 
Q 1472 3097 1187 3025 
Q 903 2953 641 2809 
L 641 3341 
Q 956 3463 1253 3523 
Q 1550 3584 1831 3584 
Q 2591 3584 2966 3190 
Q 3341 2797 3341 1997 
z
" transform="scale(0.015625)"/>
       <path id="DejaVuSans-74" d="M 1172 4494 
L 1172 3500 
L 2356 3500 
L 2356 3053 
L 1172 3053 
L 1172 1153 
Q 1172 725 1289 603 
Q 1406 481 1766 481 
L 2356 481 
L 2356 0 
L 1766 0 
Q 1100 0 847 248 
Q 594 497 594 1153 
L 594 3053 
L 172 3053 
L 172 3500 
L 594 3500 
L 594 4494 
L 1172 4494 
z
" transform="scale(0.015625)"/>
       <path id="DejaVuSans-65" d="M 3597 1894 
L 3597 1613 
L 953 1613 
Q 991 1019 1311 708 
Q 1631 397 2203 397 
Q 2534 397 2845 478 
Q 3156 559 3463 722 
L 3463 178 
Q 3153 47 2828 -22 
Q 2503 -91 2169 -91 
Q 1331 -91 842 396 
Q 353 884 353 1716 
Q 353 2575 817 3079 
Q 1281 3584 2069 3584 
Q 2775 3584 3186 3129 
Q 3597 2675 3597 1894 
z
M 3022 2063 
Q 3016 2534 2758 2815 
Q 2500 3097 2075 3097 
Q 1594 3097 1305 2825 
Q 1016 2553 972 2059 
L 3022 2063 
z
" transform="scale(0.015625)"/>
       <path id="DejaVuSans-5b" d="M 550 4863 
L 1875 4863 
L 1875 4416 
L 1125 4416 
L 1125 -397 
L 1875 -397 
L 1875 -844 
L 550 -844 
L 550 4863 
z
" transform="scale(0.015625)"/>
       <path id="DejaVuSans-6d" d="M 3328 2828 
Q 3544 3216 3844 3400 
Q 4144 3584 4550 3584 
Q 5097 3584 5394 3201 
Q 5691 2819 5691 2113 
L 5691 0 
L 5113 0 
L 5113 2094 
Q 5113 2597 4934 2840 
Q 4756 3084 4391 3084 
Q 3944 3084 3684 2787 
Q 3425 2491 3425 1978 
L 3425 0 
L 2847 0 
L 2847 2094 
Q 2847 2600 2669 2842 
Q 2491 3084 2119 3084 
Q 1678 3084 1418 2786 
Q 1159 2488 1159 1978 
L 1159 0 
L 581 0 
L 581 3500 
L 1159 3500 
L 1159 2956 
Q 1356 3278 1631 3431 
Q 1906 3584 2284 3584 
Q 2666 3584 2933 3390 
Q 3200 3197 3328 2828 
z
" transform="scale(0.015625)"/>
       <path id="DejaVuSans-5d" d="M 1947 4863 
L 1947 -844 
L 622 -844 
L 622 -397 
L 1369 -397 
L 1369 4416 
L 622 4416 
L 622 4863 
L 1947 4863 
z
" transform="scale(0.015625)"/>
      </defs>
      <use xlink:href="#DejaVuSans-58"/>
      <use xlink:href="#DejaVuSans-20" transform="translate(68.505859 0)"/>
      <use xlink:href="#DejaVuSans-63" transform="translate(100.292969 0)"/>
      <use xlink:href="#DejaVuSans-6f" transform="translate(155.273438 0)"/>
      <use xlink:href="#DejaVuSans-6f" transform="translate(216.455078 0)"/>
      <use xlink:href="#DejaVuSans-72" transform="translate(277.636719 0)"/>
      <use xlink:href="#DejaVuSans-64" transform="translate(317 0)"/>
      <use xlink:href="#DejaVuSans-69" transform="translate(380.476562 0)"/>
      <use xlink:href="#DejaVuSans-6e" transform="translate(408.259766 0)"/>
      <use xlink:href="#DejaVuSans-61" transform="translate(471.638672 0)"/>
      <use xlink:href="#DejaVuSans-74" transform="translate(532.917969 0)"/>
      <use xlink:href="#DejaVuSans-65" transform="translate(572.126953 0)"/>
      <use xlink:href="#DejaVuSans-20" transform="translate(633.650391 0)"/>
      <use xlink:href="#DejaVuSans-5b" transform="translate(665.4375 0)"/>
      <use xlink:href="#DejaVuSans-6d" transform="translate(704.451172 0)"/>
      <use xlink:href="#DejaVuSans-5d" transform="translate(801.863281 0)"/>
     </g>
    </g>
   </g>
   <g id="matplotlib.axis_2">
    <g id="ytick_1">
     <g id="line2d_11">
      <path d="M 95.3875 583.16 
L 820.7875 583.16 
" clip-path="url(#peca1299a79)" style="fill: none; stroke: #b0b0b0; stroke-width: 0.8; stroke-linecap: square"/>
     </g>
     <g id="line2d_12">
      <defs>
       <path id="m33045e0052" d="M 0 0 
L -3.5 0 
" style="stroke: #000000; stroke-width: 0.8"/>
      </defs>
      <g>
       <use xlink:href="#m33045e0052" x="95.3875" y="583.16" style="stroke: #000000; stroke-width: 0.8"/>
      </g>
     </g>
     <g id="text_7">
      <!-- 0 -->
      <g transform="translate(69.3 594.557656) scale(0.3 -0.3)">
       <use xlink:href="#DejaVuSans-30"/>
      </g>
     </g>
    </g>
    <g id="ytick_2">
     <g id="line2d_13">
      <path d="M 95.3875 515.4 
L 820.7875 515.4 
" clip-path="url(#peca1299a79)" style="fill: none; stroke: #b0b0b0; stroke-width: 0.8; stroke-linecap: square"/>
     </g>
     <g id="line2d_14">
      <g>
       <use xlink:href="#m33045e0052" x="95.3875" y="515.4" style="stroke: #000000; stroke-width: 0.8"/>
      </g>
     </g>
     <g id="text_8">
      <!-- 1 -->
      <g transform="translate(69.3 526.797656) scale(0.3 -0.3)">
       <use xlink:href="#DejaVuSans-31"/>
      </g>
     </g>
    </g>
    <g id="ytick_3">
     <g id="line2d_15">
      <path d="M 95.3875 447.64 
L 820.7875 447.64 
" clip-path="url(#peca1299a79)" style="fill: none; stroke: #b0b0b0; stroke-width: 0.8; stroke-linecap: square"/>
     </g>
     <g id="line2d_16">
      <g>
       <use xlink:href="#m33045e0052" x="95.3875" y="447.64" style="stroke: #000000; stroke-width: 0.8"/>
      </g>
     </g>
     <g id="text_9">
      <!-- 2 -->
      <g transform="translate(69.3 459.037656) scale(0.3 -0.3)">
       <use xlink:href="#DejaVuSans-32"/>
      </g>
     </g>
    </g>
    <g id="ytick_4">
     <g id="line2d_17">
      <path d="M 95.3875 379.88 
L 820.7875 379.88 
" clip-path="url(#peca1299a79)" style="fill: none; stroke: #b0b0b0; stroke-width: 0.8; stroke-linecap: square"/>
     </g>
     <g id="line2d_18">
      <g>
       <use xlink:href="#m33045e0052" x="95.3875" y="379.88" style="stroke: #000000; stroke-width: 0.8"/>
      </g>
     </g>
     <g id="text_10">
      <!-- 3 -->
      <g transform="translate(69.3 391.277656) scale(0.3 -0.3)">
       <use xlink:href="#DejaVuSans-33"/>
      </g>
     </g>
    </g>
    <g id="ytick_5">
     <g id="line2d_19">
      <path d="M 95.3875 312.12 
L 820.7875 312.12 
" clip-path="url(#peca1299a79)" style="fill: none; stroke: #b0b0b0; stroke-width: 0.8; stroke-linecap: square"/>
     </g>
     <g id="line2d_20">
      <g>
       <use xlink:href="#m33045e0052" x="95.3875" y="312.12" style="stroke: #000000; stroke-width: 0.8"/>
      </g>
     </g>
     <g id="text_11">
      <!-- 4 -->
      <g transform="translate(69.3 323.517656) scale(0.3 -0.3)">
       <use xlink:href="#DejaVuSans-34"/>
      </g>
     </g>
    </g>
    <g id="ytick_6">
     <g id="line2d_21">
      <path d="M 95.3875 244.36 
L 820.7875 244.36 
" clip-path="url(#peca1299a79)" style="fill: none; stroke: #b0b0b0; stroke-width: 0.8; stroke-linecap: square"/>
     </g>
     <g id="line2d_22">
      <g>
       <use xlink:href="#m33045e0052" x="95.3875" y="244.36" style="stroke: #000000; stroke-width: 0.8"/>
      </g>
     </g>
     <g id="text_12">
      <!-- 5 -->
      <g transform="translate(69.3 255.757656) scale(0.3 -0.3)">
       <defs>
        <path id="DejaVuSans-35" d="M 691 4666 
L 3169 4666 
L 3169 4134 
L 1269 4134 
L 1269 2991 
Q 1406 3038 1543 3061 
Q 1681 3084 1819 3084 
Q 2600 3084 3056 2656 
Q 3513 2228 3513 1497 
Q 3513 744 3044 326 
Q 2575 -91 1722 -91 
Q 1428 -91 1123 -41 
Q 819 9 494 109 
L 494 744 
Q 775 591 1075 516 
Q 1375 441 1709 441 
Q 2250 441 2565 725 
Q 2881 1009 2881 1497 
Q 2881 1984 2565 2268 
Q 2250 2553 1709 2553 
Q 1456 2553 1204 2497 
Q 953 2441 691 2322 
L 691 4666 
z
" transform="scale(0.015625)"/>
       </defs>
       <use xlink:href="#DejaVuSans-35"/>
      </g>
     </g>
    </g>
    <g id="ytick_7">
     <g id="line2d_23">
      <path d="M 95.3875 176.6 
L 820.7875 176.6 
" clip-path="url(#peca1299a79)" style="fill: none; stroke: #b0b0b0; stroke-width: 0.8; stroke-linecap: square"/>
     </g>
     <g id="line2d_24">
      <g>
       <use xlink:href="#m33045e0052" x="95.3875" y="176.6" style="stroke: #000000; stroke-width: 0.8"/>
      </g>
     </g>
     <g id="text_13">
      <!-- 6 -->
      <g transform="translate(69.3 187.997656) scale(0.3 -0.3)">
       <defs>
        <path id="DejaVuSans-36" d="M 2113 2584 
Q 1688 2584 1439 2293 
Q 1191 2003 1191 1497 
Q 1191 994 1439 701 
Q 1688 409 2113 409 
Q 2538 409 2786 701 
Q 3034 994 3034 1497 
Q 3034 2003 2786 2293 
Q 2538 2584 2113 2584 
z
M 3366 4563 
L 3366 3988 
Q 3128 4100 2886 4159 
Q 2644 4219 2406 4219 
Q 1781 4219 1451 3797 
Q 1122 3375 1075 2522 
Q 1259 2794 1537 2939 
Q 1816 3084 2150 3084 
Q 2853 3084 3261 2657 
Q 3669 2231 3669 1497 
Q 3669 778 3244 343 
Q 2819 -91 2113 -91 
Q 1303 -91 875 529 
Q 447 1150 447 2328 
Q 447 3434 972 4092 
Q 1497 4750 2381 4750 
Q 2619 4750 2861 4703 
Q 3103 4656 3366 4563 
z
" transform="scale(0.015625)"/>
       </defs>
       <use xlink:href="#DejaVuSans-36"/>
      </g>
     </g>
    </g>
    <g id="ytick_8">
     <g id="line2d_25">
      <path d="M 95.3875 108.84 
L 820.7875 108.84 
" clip-path="url(#peca1299a79)" style="fill: none; stroke: #b0b0b0; stroke-width: 0.8; stroke-linecap: square"/>
     </g>
     <g id="line2d_26">
      <g>
       <use xlink:href="#m33045e0052" x="95.3875" y="108.84" style="stroke: #000000; stroke-width: 0.8"/>
      </g>
     </g>
     <g id="text_14">
      <!-- 7 -->
      <g transform="translate(69.3 120.237656) scale(0.3 -0.3)">
       <defs>
        <path id="DejaVuSans-37" d="M 525 4666 
L 3525 4666 
L 3525 4397 
L 1831 0 
L 1172 0 
L 2766 4134 
L 525 4134 
L 525 4666 
z
" transform="scale(0.015625)"/>
       </defs>
       <use xlink:href="#DejaVuSans-37"/>
      </g>
     </g>
    </g>
    <g id="ytick_9">
     <g id="line2d_27">
      <path d="M 95.3875 41.08 
L 820.7875 41.08 
" clip-path="url(#peca1299a79)" style="fill: none; stroke: #b0b0b0; stroke-width: 0.8; stroke-linecap: square"/>
     </g>
     <g id="line2d_28">
      <g>
       <use xlink:href="#m33045e0052" x="95.3875" y="41.08" style="stroke: #000000; stroke-width: 0.8"/>
      </g>
     </g>
     <g id="text_15">
      <!-- 8 -->
      <g transform="translate(69.3 52.477656) scale(0.3 -0.3)">
       <defs>
        <path id="DejaVuSans-38" d="M 2034 2216 
Q 1584 2216 1326 1975 
Q 1069 1734 1069 1313 
Q 1069 891 1326 650 
Q 1584 409 2034 409 
Q 2484 409 2743 651 
Q 3003 894 3003 1313 
Q 3003 1734 2745 1975 
Q 2488 2216 2034 2216 
z
M 1403 2484 
Q 997 2584 770 2862 
Q 544 3141 544 3541 
Q 544 4100 942 4425 
Q 1341 4750 2034 4750 
Q 2731 4750 3128 4425 
Q 3525 4100 3525 3541 
Q 3525 3141 3298 2862 
Q 3072 2584 2669 2484 
Q 3125 2378 3379 2068 
Q 3634 1759 3634 1313 
Q 3634 634 3220 271 
Q 2806 -91 2034 -91 
Q 1263 -91 848 271 
Q 434 634 434 1313 
Q 434 1759 690 2068 
Q 947 2378 1403 2484 
z
M 1172 3481 
Q 1172 3119 1398 2916 
Q 1625 2713 2034 2713 
Q 2441 2713 2670 2916 
Q 2900 3119 2900 3481 
Q 2900 3844 2670 4047 
Q 2441 4250 2034 4250 
Q 1625 4250 1398 4047 
Q 1172 3844 1172 3481 
z
" transform="scale(0.015625)"/>
       </defs>
       <use xlink:href="#DejaVuSans-38"/>
      </g>
     </g>
    </g>
    <g id="text_16">
     <!-- $\frac{T_{tr}}{T_{tr_\infty}}$ [-] -->
     <g transform="translate(44.65 359.895) rotate(-90) scale(0.35 -0.35)">
      <defs>
       <path id="DejaVuSans-Oblique-54" d="M 378 4666 
L 4325 4666 
L 4225 4134 
L 2559 4134 
L 1759 0 
L 1125 0 
L 1925 4134 
L 275 4134 
L 378 4666 
z
" transform="scale(0.015625)"/>
       <path id="DejaVuSans-Oblique-74" d="M 2706 3500 
L 2619 3053 
L 1472 3053 
L 1100 1153 
Q 1081 1047 1072 975 
Q 1063 903 1063 863 
Q 1063 663 1183 572 
Q 1303 481 1569 481 
L 2150 481 
L 2053 0 
L 1503 0 
Q 991 0 739 200 
Q 488 400 488 806 
Q 488 878 497 964 
Q 506 1050 525 1153 
L 897 3053 
L 409 3053 
L 500 3500 
L 978 3500 
L 1172 4494 
L 1747 4494 
L 1556 3500 
L 2706 3500 
z
" transform="scale(0.015625)"/>
       <path id="DejaVuSans-Oblique-72" d="M 2853 2969 
Q 2766 3016 2653 3041 
Q 2541 3066 2413 3066 
Q 1953 3066 1609 2717 
Q 1266 2369 1153 1784 
L 800 0 
L 225 0 
L 909 3500 
L 1484 3500 
L 1375 2956 
Q 1603 3259 1920 3421 
Q 2238 3584 2597 3584 
Q 2691 3584 2781 3573 
Q 2872 3563 2963 3538 
L 2853 2969 
z
" transform="scale(0.015625)"/>
       <path id="DejaVuSans-221e" d="M 2916 1091 
Q 2819 1203 2666 1466 
Q 2456 1091 2272 925 
Q 2041 725 1681 725 
Q 1259 725 981 1041 
Q 688 1372 688 1919 
Q 688 2444 981 2800 
Q 1244 3116 1688 3116 
Q 1916 3116 2084 3022 
Q 2281 2919 2416 2741 
Q 2541 2581 2666 2366 
Q 2875 2741 3059 2906 
Q 3291 3106 3650 3106 
Q 4072 3106 4350 2791 
Q 4644 2459 4644 1913 
Q 4644 1388 4350 1031 
Q 4088 716 3644 716 
Q 3416 716 3247 809 
Q 3078 894 2916 1091 
z
M 1647 1134 
Q 2163 1134 2472 1884 
Q 2075 2703 1647 2703 
Q 1334 2703 1175 2478 
Q 1003 2238 1003 1919 
Q 1003 1569 1175 1353 
Q 1350 1134 1647 1134 
z
M 3684 2697 
Q 3219 2697 2859 1947 
Q 3253 1128 3684 1128 
Q 3997 1128 4156 1353 
Q 4328 1594 4328 1913 
Q 4328 2263 4156 2478 
Q 3981 2697 3684 2697 
z
" transform="scale(0.015625)"/>
       <path id="DejaVuSans-2d" d="M 313 2009 
L 1997 2009 
L 1997 1497 
L 313 1497 
L 313 2009 
z
" transform="scale(0.015625)"/>
      </defs>
      <use xlink:href="#DejaVuSans-Oblique-54" transform="translate(15 55.965625) scale(0.7)"/>
      <use xlink:href="#DejaVuSans-Oblique-74" transform="translate(57.758789 44.48125) scale(0.49)"/>
      <use xlink:href="#DejaVuSans-Oblique-72" transform="translate(76.971191 44.48125) scale(0.49)"/>
      <use xlink:href="#DejaVuSans-Oblique-54" transform="translate(0 -37.803125) scale(0.7)"/>
      <use xlink:href="#DejaVuSans-Oblique-74" transform="translate(42.758789 -49.2875) scale(0.49)"/>
      <use xlink:href="#DejaVuSans-Oblique-72" transform="translate(61.971191 -49.2875) scale(0.49)"/>
      <use xlink:href="#DejaVuSans-221e" transform="translate(82.116699 -57.326562) scale(0.343)"/>
      <use xlink:href="#DejaVuSans-20" transform="translate(126.442773 0.684375)"/>
      <use xlink:href="#DejaVuSans-5b" transform="translate(158.229883 0.684375)"/>
      <use xlink:href="#DejaVuSans-2d" transform="translate(197.243555 0.684375)"/>
      <use xlink:href="#DejaVuSans-5d" transform="translate(233.327539 0.684375)"/>
      <path d="M 0 19.48125 
L 0 25.73125 
L 113.942773 25.73125 
L 113.942773 19.48125 
L 0 19.48125 
z
"/>
     </g>
    </g>
   </g>
   <g id="line2d_29">
    <path d="M 108.820833 518.304125 
L 140.405844 518.048434 
L 150.135416 517.783073 
L 157.238401 517.417507 
L 162.424153 516.942035 
L 166.210543 516.344128 
L 168.975664 515.605431 
L 170.995572 514.704047 
L 172.47184 513.556042 
L 173.650572 512.16993 
L 174.819036 509.718876 
L 175.9875 500.88818 
L 177.185066 447.494725 
L 178.382632 411.095062 
L 179.580198 398.137952 
L 180.777763 394.542352 
L 181.975329 391.891121 
L 183.172895 392.6058 
L 184.370461 392.971056 
L 185.568027 393.73353 
L 186.765593 394.768722 
L 187.963158 395.370341 
L 189.160724 395.828578 
L 190.35829 396.414912 
L 191.555856 396.576718 
L 192.753422 396.933285 
L 195.148554 397.317826 
L 203.531515 396.988983 
L 204.72908 397.14571 
L 208.321778 397.974345 
L 209.519344 398.10469 
L 210.71691 398.475744 
L 211.914475 398.617385 
L 214.309607 399.14978 
L 232.407145 401.476122 
L 246.167236 402.914062 
L 258.359207 403.92313 
L 266.805495 404.490963 
L 306.937917 406.579157 
L 331.08294 407.331089 
L 347.660479 407.707762 
L 372.758846 408.01364 
L 394.117355 408.024057 
L 414.957856 407.867357 
L 421.831307 407.635778 
L 423.868243 407.425382 
L 425.319756 407.140255 
L 427.591558 406.266247 
L 429.853627 404.925667 
L 430.984661 404.081987 
L 432.115695 403.015901 
L 433.24673 402.303178 
L 434.377764 400.274259 
L 435.508799 328.776195 
L 436.333594 55.824722 
L 437.158389 75.908662 
L 439.632775 118.535345 
L 442.931957 167.769644 
L 443.756752 176.859132 
L 445.406343 191.834772 
L 447.055934 203.656884 
L 448.705524 212.960871 
L 450.355115 220.36516 
L 452.004706 226.568087 
L 453.654296 231.738697 
L 455.303887 236.05595 
L 456.953478 239.941237 
L 459.427864 245.074152 
L 461.077455 248.057871 
L 463.551841 251.988683 
L 472.633036 264.984296 
L 474.480637 268.159919 
L 475.518578 270.223264 
L 476.646093 272.813237 
L 477.869919 276.068679 
L 479.195791 280.272379 
L 485.751295 303.281563 
L 487.763321 308.65219 
L 489.952416 312.830558 
L 492.335142 315.846532 
L 494.928566 317.479732 
L 497.748527 318.471356 
L 500.81747 318.741617 
L 504.152365 318.903946 
L 507.776186 318.671649 
L 511.707864 318.304845 
L 515.966715 317.506937 
L 520.57018 316.426245 
L 525.529579 314.886141 
L 530.847532 312.721741 
L 542.421075 307.507902 
L 548.359602 305.045013 
L 554.298128 302.817831 
L 560.236655 300.889591 
L 566.175181 299.30887 
L 572.113708 298.138523 
L 578.052234 297.446021 
L 583.990761 297.102098 
L 595.867814 297.400446 
L 607.744867 297.95869 
L 613.683394 297.963465 
L 619.62192 299.116784 
L 625.560447 339.126171 
L 633.95628 422.486993 
L 642.352114 437.419562 
L 650.747947 428.718542 
L 659.14378 423.536847 
L 667.539614 419.895271 
L 675.935447 417.220531 
L 684.33128 415.579235 
L 692.727114 414.458873 
L 701.122947 414.555414 
L 709.51878 415.048265 
L 717.914614 415.685143 
L 734.70628 416.590303 
L 743.102114 417.12596 
L 759.89378 417.894989 
L 768.289614 418.200577 
L 776.685447 418.30784 
L 785.08128 418.573659 
L 793.477114 418.638597 
L 810.26878 418.993882 
L 827.060447 419.210659 
L 827.060447 419.210659 
" clip-path="url(#peca1299a79)" style="fill: none; stroke: #ff0000; stroke-width: 3; stroke-linecap: square"/>
   </g>
   <g id="line2d_30">
    <path d="M 102.632746 582.704498 
L 109.886835 582.671181 
L 117.140923 582.637865 
L 124.395012 582.604548 
L 131.6491 582.533289 
L 138.903188 582.43976 
L 146.157277 582.263524 
L 153.411365 581.986424 
L 160.665454 581.47524 
L 167.919542 580.259525 
L 175.173631 600.1 
L 182.427719 573.466125 
L 189.681807 575.861829 
L 196.935896 576.191709 
L 204.189984 575.682555 
L 211.444073 576.946238 
L 218.698161 577.975404 
L 225.95225 578.797702 
L 233.206338 579.564501 
L 240.460426 580.235529 
L 247.714515 580.863278 
L 254.968603 581.386161 
L 262.222692 581.785724 
L 269.47678 582.133879 
L 276.730868 582.441779 
L 283.984957 582.751959 
L 291.239045 583.057451 
L 298.493134 583.383117 
L 305.747222 583.683429 
L 313.001311 583.915007 
L 320.255399 584.108236 
L 327.509487 584.281926 
L 334.763576 584.443519 
L 342.017664 584.566952 
L 349.271753 584.681439 
L 356.525841 584.758722 
L 363.779929 584.818134 
L 371.034018 584.848705 
L 378.288106 584.846416 
L 385.542195 584.823347 
L 392.796283 584.773862 
L 400.050372 584.706632 
L 407.30446 584.61369 
L 414.558548 584.510481 
L 421.812637 584.238671 
L 429.066725 582.058304 
L 436.320814 474.623164 
L 443.574902 541.492633 
L 450.828991 569.628311 
L 458.083079 578.107491 
L 465.337167 582.335878 
L 472.591256 581.818593 
L 479.845344 570.883028 
L 487.099433 566.838853 
L 494.353521 571.311393 
L 501.607609 573.714565 
L 508.861698 576.887572 
L 516.115786 580.500812 
L 523.369875 584.557492 
L 530.623963 588.266872 
L 537.878052 591.446902 
L 545.13214 594.014846 
L 552.386228 595.985857 
L 559.640317 597.560151 
L 566.894405 599.001812 
L 574.148494 600.1 
L 581.402582 600.1 
L 588.656671 600.1 
L 595.910759 600.1 
L 603.164847 600.1 
L 610.418936 600.1 
L 617.673024 598.791647 
L 624.927113 490.827064 
L 632.181201 561.297873 
L 639.435289 586.157232 
L 646.689378 587.891625 
L 653.943466 581.542823 
L 661.197555 577.322021 
L 668.451643 574.292766 
L 675.705732 572.064087 
L 682.95982 570.752047 
L 690.213908 569.859651 
L 697.467997 569.757529 
L 704.722085 570.203789 
L 711.976174 570.87807 
L 719.230262 571.615754 
L 726.484351 572.224282 
L 733.738439 572.879962 
L 740.992527 573.600933 
L 748.246616 574.27534 
L 755.500704 574.900938 
L 762.754793 575.497619 
L 770.008881 576.045125 
L 777.262969 576.487951 
L 784.517058 577.066055 
L 791.771146 577.403746 
L 799.025235 577.723327 
L 806.279323 577.661364 
L 813.533412 578.110808 
L 820.7875 578.923478 
" clip-path="url(#peca1299a79)" style="fill: none; stroke: #808080; stroke-width: 3; stroke-linecap: square"/>
   </g>
   <g id="patch_3">
    <path d="M 95.3875 617.04 
L 95.3875 7.2 
" style="fill: none; stroke: #000000; stroke-width: 0.8; stroke-linejoin: miter; stroke-linecap: square"/>
   </g>
   <g id="patch_4">
    <path d="M 820.7875 617.04 
L 820.7875 7.2 
" style="fill: none; stroke: #000000; stroke-width: 0.8; stroke-linejoin: miter; stroke-linecap: square"/>
   </g>
   <g id="patch_5">
    <path d="M 95.3875 617.04 
L 820.7875 617.04 
" style="fill: none; stroke: #000000; stroke-width: 0.8; stroke-linejoin: miter; stroke-linecap: square"/>
   </g>
   <g id="patch_6">
    <path d="M 95.3875 7.2 
L 820.7875 7.2 
" style="fill: none; stroke: #000000; stroke-width: 0.8; stroke-linejoin: miter; stroke-linecap: square"/>
   </g>
   <g id="legend_1">
    <g id="patch_7">
     <path d="M 469.759375 237.773437 
L 796.2875 237.773437 
Q 803.2875 237.773437 803.2875 230.773437 
L 803.2875 31.7 
Q 803.2875 24.7 796.2875 24.7 
L 469.759375 24.7 
Q 462.759375 24.7 462.759375 31.7 
L 462.759375 230.773437 
Q 462.759375 237.773437 469.759375 237.773437 
z
" style="fill: #ffffff; opacity: 0.8; stroke: #cccccc; stroke-linejoin: miter"/>
    </g>
    <g id="patch_8">
     <path d="M 476.759375 76.15 
L 546.759375 76.15 
L 546.759375 51.65 
L 476.759375 51.65 
z
" style="fill: #99ccff; fill-opacity: 0.7"/>
    </g>
    <g id="text_17">
     <!-- 1$\sigma[\frac{T_{tr}}{T_{tr_\infty}}]$ -->
     <g transform="translate(574.759375 76.15) scale(0.35 -0.35)">
      <defs>
       <path id="DejaVuSans-Oblique-3c3" d="M 2219 3044 
Q 1744 3044 1422 2700 
Q 1081 2341 969 1747 
Q 844 1119 1044 756 
Q 1241 397 1706 397 
Q 2166 397 2503 759 
Q 2844 1122 2966 1747 
Q 3075 2319 2881 2700 
Q 2700 3044 2219 3044 
z
M 2309 3503 
L 4219 3500 
L 4106 2925 
L 3463 2925 
Q 3706 2438 3575 1747 
Q 3406 888 2884 400 
Q 2359 -91 1609 -91 
Q 856 -91 525 400 
Q 194 888 363 1747 
Q 528 2609 1050 3097 
Q 1484 3503 2309 3503 
z
" transform="scale(0.015625)"/>
      </defs>
      <use xlink:href="#DejaVuSans-31" transform="translate(0 0.684375)"/>
      <use xlink:href="#DejaVuSans-Oblique-3c3" transform="translate(63.623047 0.684375)"/>
      <use xlink:href="#DejaVuSans-5b" transform="translate(127.001953 0.684375)"/>
      <use xlink:href="#DejaVuSans-Oblique-54" transform="translate(181.015625 55.965625) scale(0.7)"/>
      <use xlink:href="#DejaVuSans-Oblique-74" transform="translate(223.774414 44.48125) scale(0.49)"/>
      <use xlink:href="#DejaVuSans-Oblique-72" transform="translate(242.986816 44.48125) scale(0.49)"/>
      <use xlink:href="#DejaVuSans-Oblique-54" transform="translate(166.015625 -37.803125) scale(0.7)"/>
      <use xlink:href="#DejaVuSans-Oblique-74" transform="translate(208.774414 -49.2875) scale(0.49)"/>
      <use xlink:href="#DejaVuSans-Oblique-72" transform="translate(227.986816 -49.2875) scale(0.49)"/>
      <use xlink:href="#DejaVuSans-221e" transform="translate(248.132324 -57.326562) scale(0.343)"/>
      <use xlink:href="#DejaVuSans-5d" transform="translate(292.458398 0.684375)"/>
      <path d="M 166.015625 19.48125 
L 166.015625 25.73125 
L 279.958398 25.73125 
L 279.958398 19.48125 
L 166.015625 19.48125 
z
"/>
     </g>
    </g>
    <g id="line2d_31">
     <path d="M 476.759375 128.644531 
L 511.759375 128.644531 
L 546.759375 128.644531 
" style="fill: none; stroke: #808080; stroke-width: 3; stroke-linecap: square"/>
    </g>
    <g id="text_18">
     <!-- Error to [21] -->
     <g transform="translate(574.759375 140.894531) scale(0.35 -0.35)">
      <defs>
       <path id="DejaVuSans-45" d="M 628 4666 
L 3578 4666 
L 3578 4134 
L 1259 4134 
L 1259 2753 
L 3481 2753 
L 3481 2222 
L 1259 2222 
L 1259 531 
L 3634 531 
L 3634 0 
L 628 0 
L 628 4666 
z
" transform="scale(0.015625)"/>
      </defs>
      <use xlink:href="#DejaVuSans-45"/>
      <use xlink:href="#DejaVuSans-72" transform="translate(63.183594 0)"/>
      <use xlink:href="#DejaVuSans-72" transform="translate(102.546875 0)"/>
      <use xlink:href="#DejaVuSans-6f" transform="translate(141.410156 0)"/>
      <use xlink:href="#DejaVuSans-72" transform="translate(202.591797 0)"/>
      <use xlink:href="#DejaVuSans-20" transform="translate(243.705078 0)"/>
      <use xlink:href="#DejaVuSans-74" transform="translate(275.492188 0)"/>
      <use xlink:href="#DejaVuSans-6f" transform="translate(314.701172 0)"/>
      <use xlink:href="#DejaVuSans-20" transform="translate(375.882812 0)"/>
      <use xlink:href="#DejaVuSans-5b" transform="translate(407.669922 0)"/>
      <use xlink:href="#DejaVuSans-32" transform="translate(446.683594 0)"/>
      <use xlink:href="#DejaVuSans-31" transform="translate(510.306641 0)"/>
      <use xlink:href="#DejaVuSans-5d" transform="translate(573.929688 0)"/>
     </g>
    </g>
    <g id="line2d_32">
     <path d="M 476.759375 190.873437 
L 511.759375 190.873437 
L 546.759375 190.873437 
" style="fill: none; stroke: #ff0000; stroke-width: 3; stroke-linecap: square"/>
    </g>
    <g id="text_19">
     <!-- $\mu[\frac{T_{tr}}{T_{tr_\infty}}]$ -->
     <g transform="translate(574.759375 203.123437) scale(0.35 -0.35)">
      <defs>
       <path id="DejaVuSans-Oblique-3bc" d="M -84 -1331 
L 856 3500 
L 1434 3500 
L 1009 1322 
Q 997 1256 987 1175 
Q 978 1094 978 1013 
Q 978 722 1161 565 
Q 1344 409 1684 409 
Q 2147 409 2431 671 
Q 2716 934 2816 1459 
L 3213 3500 
L 3788 3500 
L 3266 809 
Q 3253 750 3248 706 
Q 3244 663 3244 628 
Q 3244 531 3283 486 
Q 3322 441 3406 441 
Q 3438 441 3492 456 
Q 3547 472 3647 513 
L 3559 50 
Q 3422 -19 3297 -55 
Q 3172 -91 3053 -91 
Q 2847 -91 2730 40 
Q 2613 172 2613 403 
Q 2438 153 2195 31 
Q 1953 -91 1625 -91 
Q 1334 -91 1117 43 
Q 900 178 831 397 
L 494 -1331 
L -84 -1331 
z
" transform="scale(0.015625)"/>
      </defs>
      <use xlink:href="#DejaVuSans-Oblique-3bc" transform="translate(0 0.684375)"/>
      <use xlink:href="#DejaVuSans-5b" transform="translate(63.623047 0.684375)"/>
      <use xlink:href="#DejaVuSans-Oblique-54" transform="translate(117.636719 55.965625) scale(0.7)"/>
      <use xlink:href="#DejaVuSans-Oblique-74" transform="translate(160.395508 44.48125) scale(0.49)"/>
      <use xlink:href="#DejaVuSans-Oblique-72" transform="translate(179.60791 44.48125) scale(0.49)"/>
      <use xlink:href="#DejaVuSans-Oblique-54" transform="translate(102.636719 -37.803125) scale(0.7)"/>
      <use xlink:href="#DejaVuSans-Oblique-74" transform="translate(145.395508 -49.2875) scale(0.49)"/>
      <use xlink:href="#DejaVuSans-Oblique-72" transform="translate(164.60791 -49.2875) scale(0.49)"/>
      <use xlink:href="#DejaVuSans-221e" transform="translate(184.753418 -57.326562) scale(0.343)"/>
      <use xlink:href="#DejaVuSans-5d" transform="translate(229.079492 0.684375)"/>
      <path d="M 102.636719 19.48125 
L 102.636719 25.73125 
L 216.579492 25.73125 
L 216.579492 19.48125 
L 102.636719 19.48125 
z
"/>
     </g>
    </g>
   </g>
  </g>
 </g>
 <defs>
  <clipPath id="peca1299a79">
   <rect x="95.3875" y="7.2" width="725.4" height="609.84"/>
  </clipPath>
 </defs>
</svg>
