<?xml version="1.0" encoding="utf-8" standalone="no"?>
<!DOCTYPE svg PUBLIC "-//W3C//DTD SVG 1.1//EN"
  "http://www.w3.org/Graphics/SVG/1.1/DTD/svg11.dtd">
<svg xmlns:xlink="http://www.w3.org/1999/xlink" width="849.259375pt" height="698.147812pt" viewBox="0 0 849.259375 698.147812" xmlns="http://www.w3.org/2000/svg" version="1.1">
 <metadata>
  <rdf:RDF xmlns:dc="http://purl.org/dc/elements/1.1/" xmlns:cc="http://creativecommons.org/ns#" xmlns:rdf="http://www.w3.org/1999/02/22-rdf-syntax-ns#">
   <cc:Work>
    <dc:type rdf:resource="http://purl.org/dc/dcmitype/StillImage"/>
    <dc:date>2024-12-22T23:58:03.382619</dc:date>
    <dc:format>image/svg+xml</dc:format>
    <dc:creator>
     <cc:Agent>
      <dc:title>Matplotlib v3.10.0, https://matplotlib.org/</dc:title>
     </cc:Agent>
    </dc:creator>
   </cc:Work>
  </rdf:RDF>
 </metadata>
 <defs>
  <style type="text/css">*{stroke-linejoin: round; stroke-linecap: butt}</style>
 </defs>
 <g id="figure_1">
  <g id="patch_1">
   <path d="M 0 698.147812 
L 849.259375 698.147812 
L 849.259375 0 
L 0 0 
z
" style="fill: #ffffff"/>
  </g>
  <g id="axes_1">
   <g id="patch_2">
    <path d="M 116.659375 617.04 
L 842.059375 617.04 
L 842.059375 7.2 
L 116.659375 7.2 
z
" style="fill: #ffffff"/>
   </g>
   <g id="FillBetweenPolyCollection_1">
    <path d="M 130.092708 72.56529 
L 130.092708 22.564265 
L 148.349871 22.638542 
L 161.677719 22.809061 
L 171.407291 23.111845 
L 178.510276 23.597145 
L 183.696028 24.417316 
L 187.482418 25.658843 
L 190.247539 27.79807 
L 192.267447 31.139289 
L 193.743715 37.145663 
L 194.922447 46.194994 
L 196.090911 61.938068 
L 197.259375 101.439 
L 198.456941 159.606165 
L 199.654507 196.952794 
L 200.852073 222.186727 
L 202.049638 237.039106 
L 203.247204 248.489061 
L 204.44477 256.316591 
L 205.642336 261.062181 
L 206.839902 263.467894 
L 208.037468 265.284729 
L 209.235033 266.954934 
L 210.432599 268.177235 
L 211.630165 268.818633 
L 212.827731 269.113566 
L 214.025297 269.390876 
L 215.222863 269.652217 
L 216.420429 269.687501 
L 217.617994 269.792617 
L 218.81556 269.914048 
L 220.013126 270.058715 
L 221.210692 270.146452 
L 222.408258 270.182303 
L 223.605824 270.129401 
L 224.80339 270.088986 
L 226.000955 270.094599 
L 227.198521 269.919414 
L 228.396087 269.809298 
L 229.593653 269.568047 
L 230.791219 269.424305 
L 231.988785 269.196262 
L 233.18635 269.04018 
L 234.383916 268.807851 
L 235.581482 268.646149 
L 236.779048 268.442257 
L 237.976614 268.252979 
L 239.174181 268.041893 
L 240.401917 267.847288 
L 241.673519 267.646256 
L 242.990879 267.443617 
L 244.356519 267.24667 
L 245.773021 267.050263 
L 247.24187 266.840564 
L 248.764834 266.636324 
L 250.343976 266.423996 
L 251.981561 266.220079 
L 253.67902 266.001225 
L 255.438127 265.793137 
L 257.261356 265.568842 
L 259.152039 265.355521 
L 261.113934 265.128966 
L 263.146153 264.911154 
L 265.253266 264.691736 
L 267.439111 264.463454 
L 269.703818 264.252615 
L 272.053212 264.026343 
L 274.488597 263.827359 
L 277.012861 263.617094 
L 279.631082 263.434833 
L 282.345568 263.242621 
L 285.15971 263.072757 
L 288.07737 262.890776 
L 291.102492 262.716014 
L 294.238986 262.526822 
L 297.490819 262.343876 
L 300.862289 262.15565 
L 304.358421 261.971844 
L 307.98311 261.791767 
L 311.741098 261.616393 
L 315.637702 261.455852 
L 319.677974 261.294321 
L 323.866751 261.142578 
L 328.209792 260.97725 
L 332.712955 260.81765 
L 337.382115 260.645839 
L 342.223171 260.485736 
L 347.216993 260.293155 
L 352.354815 260.118886 
L 357.681773 259.913475 
L 363.20533 259.722407 
L 368.932354 259.526513 
L 374.870473 259.369836 
L 381.027515 259.22921 
L 387.411447 259.104837 
L 394.030721 258.975931 
L 400.894122 258.859022 
L 408.01053 258.745026 
L 415.38923 258.656336 
L 423.039953 258.582291 
L 430.592811 258.535958 
L 436.229731 258.487206 
L 440.243987 258.480601 
L 443.103182 258.509878 
L 445.140118 258.623673 
L 446.591631 258.826429 
L 447.732398 259.131293 
L 448.863433 259.626141 
L 449.994467 260.198921 
L 451.125502 261.34728 
L 452.256536 262.854721 
L 453.38757 267.246649 
L 454.518605 273.465044 
L 455.649639 289.449277 
L 456.780674 331.863693 
L 457.605469 348.227808 
L 458.430264 363.079034 
L 459.25506 381.775969 
L 460.079855 394.294677 
L 460.90465 401.701283 
L 461.729446 405.523451 
L 462.554241 406.939129 
L 463.379036 406.78885 
L 464.203832 405.887142 
L 465.028627 404.712386 
L 465.853423 403.537424 
L 466.678218 402.41814 
L 467.503013 401.376676 
L 468.327809 400.429985 
L 469.152604 399.598981 
L 469.977399 398.847907 
L 470.802195 398.196739 
L 471.62699 397.58784 
L 472.451785 397.026571 
L 473.276581 396.5117 
L 474.101376 396.042438 
L 474.926171 395.589695 
L 475.750967 395.170413 
L 476.575762 394.757942 
L 477.400558 394.382261 
L 478.225353 394.016159 
L 479.050148 393.676609 
L 479.874944 393.340864 
L 480.699739 393.029492 
L 481.524534 392.713411 
L 482.34933 392.421917 
L 483.174125 392.137672 
L 483.99892 391.864092 
L 484.823716 391.597533 
L 485.648511 391.341035 
L 486.473306 391.086903 
L 487.298102 390.836483 
L 488.122897 390.585438 
L 488.947693 390.330755 
L 489.772488 390.07384 
L 490.597283 389.794583 
L 491.422079 389.484957 
L 492.246874 389.130387 
L 493.071669 388.702258 
L 493.904911 388.15953 
L 494.789875 387.419774 
L 495.752512 386.433271 
L 496.790453 385.145017 
L 497.917968 383.55666 
L 499.141794 381.641262 
L 500.467666 379.548007 
L 501.906776 377.24386 
L 503.471874 374.866011 
L 505.173274 372.256866 
L 507.02317 369.658264 
L 509.035196 367.012168 
L 511.224291 364.603279 
L 513.607017 362.434354 
L 516.200441 360.773109 
L 519.020402 359.588523 
L 522.089345 359.076503 
L 525.42424 359.033543 
L 529.048061 359.501679 
L 532.979739 360.280297 
L 537.23859 361.508094 
L 541.842055 363.071484 
L 546.801454 364.877828 
L 552.119407 366.880318 
L 557.778954 368.929694 
L 563.69295 370.895181 
L 569.631477 372.979272 
L 575.570003 375.11698 
L 581.50853 377.008966 
L 587.447056 378.648479 
L 593.385583 380.109876 
L 599.324109 381.144932 
L 605.262636 381.440159 
L 611.201163 380.681582 
L 617.139689 378.531495 
L 623.078216 374.451788 
L 629.016742 367.675228 
L 634.955269 356.619372 
L 640.893795 342.618393 
L 646.832322 337.849861 
L 655.228155 317.806621 
L 663.623989 297.535895 
L 672.019822 294.304858 
L 680.415655 294.732204 
L 688.811489 298.70868 
L 697.207322 302.012248 
L 705.603155 305.85922 
L 713.998989 308.218743 
L 722.394822 309.908101 
L 730.790655 310.319532 
L 739.186489 310.227651 
L 747.582322 310.175867 
L 755.978155 309.951156 
L 764.373989 309.817216 
L 772.769822 309.457375 
L 781.165655 309.204454 
L 789.561489 309.086328 
L 797.957322 308.953213 
L 806.353155 308.767204 
L 814.748989 308.599094 
L 823.144822 308.427933 
L 831.540655 308.299431 
L 839.936489 308.200428 
L 848.332322 308.177316 
L 848.332322 317.926704 
L 848.332322 317.926704 
L 839.936489 317.952193 
L 831.540655 318.004157 
L 823.144822 318.141196 
L 814.748989 318.276658 
L 806.353155 318.441721 
L 797.957322 318.616023 
L 789.561489 318.756873 
L 781.165655 318.850973 
L 772.769822 319.129574 
L 764.373989 319.460449 
L 755.978155 319.643729 
L 747.582322 319.840548 
L 739.186489 319.762393 
L 730.790655 319.727508 
L 722.394822 319.440982 
L 713.998989 318.890072 
L 705.603155 318.2481 
L 697.207322 318.427823 
L 688.811489 318.93314 
L 680.415655 320.800247 
L 672.019822 326.601559 
L 663.623989 333.746003 
L 655.228155 342.696173 
L 646.832322 359.315018 
L 640.893795 381.084698 
L 634.955269 387.697559 
L 629.016742 389.782942 
L 623.078216 390.629654 
L 617.139689 390.157962 
L 611.201163 389.349657 
L 605.262636 388.197992 
L 599.324109 386.82158 
L 593.385583 385.279134 
L 587.447056 383.674929 
L 581.50853 382.088552 
L 575.570003 380.341417 
L 569.631477 378.424787 
L 563.69295 376.578138 
L 557.778954 374.996621 
L 552.119407 373.527939 
L 546.801454 372.317022 
L 541.842055 371.494138 
L 537.23859 370.985066 
L 532.979739 370.836576 
L 529.048061 371.048631 
L 525.42424 371.538544 
L 522.089345 372.25106 
L 519.020402 373.278964 
L 516.200441 374.598888 
L 513.607017 376.234947 
L 511.224291 378.220429 
L 509.035196 380.500847 
L 507.02317 383.103048 
L 505.173274 385.870194 
L 503.471874 388.693683 
L 501.906776 391.359252 
L 500.467666 393.806714 
L 499.141794 395.897227 
L 497.917968 397.618815 
L 496.790453 398.914442 
L 495.752512 399.869719 
L 494.789875 400.568911 
L 493.904911 401.082701 
L 493.071669 401.468805 
L 492.246874 401.78674 
L 491.422079 402.058798 
L 490.597283 402.308487 
L 489.772488 402.541786 
L 488.947693 402.765084 
L 488.122897 402.998484 
L 487.298102 403.233167 
L 486.473306 403.479004 
L 485.648511 403.732716 
L 484.823716 403.997029 
L 483.99892 404.27701 
L 483.174125 404.571359 
L 482.34933 404.879204 
L 481.524534 405.201981 
L 480.699739 405.550017 
L 479.874944 405.89933 
L 479.050148 406.273848 
L 478.225353 406.656556 
L 477.400558 407.065713 
L 476.575762 407.489667 
L 475.750967 407.952513 
L 474.926171 408.430037 
L 474.101376 408.945832 
L 473.276581 409.488864 
L 472.451785 410.084545 
L 471.62699 410.738888 
L 470.802195 411.443831 
L 469.977399 412.193366 
L 469.152604 413.031225 
L 468.327809 413.933724 
L 467.503013 414.918831 
L 466.678218 415.967196 
L 465.853423 417.060958 
L 465.028627 418.238309 
L 464.203832 419.59619 
L 463.379036 421.164821 
L 462.554241 423.129788 
L 461.729446 425.450794 
L 460.90465 427.927981 
L 460.079855 429.62692 
L 459.25506 427.12447 
L 458.430264 420.442798 
L 457.605469 395.575389 
L 456.780674 352.3194 
L 455.649639 343.402165 
L 454.518605 321.329082 
L 453.38757 302.004115 
L 452.256536 289.682774 
L 451.125502 281.904544 
L 449.994467 277.511487 
L 448.863433 274.982089 
L 447.732398 273.752611 
L 446.591631 273.103457 
L 445.140118 272.816467 
L 443.103182 272.684098 
L 440.243987 272.645475 
L 436.229731 272.660489 
L 430.592811 272.68841 
L 423.039953 272.725508 
L 415.38923 272.758056 
L 408.01053 272.810799 
L 400.894122 272.865786 
L 394.030721 272.925478 
L 387.411447 272.98297 
L 381.027515 273.044849 
L 374.870473 273.109026 
L 368.932354 273.208012 
L 363.20533 273.329508 
L 357.681773 273.472509 
L 352.354815 273.606812 
L 347.216993 273.746352 
L 342.223171 273.871347 
L 337.382115 274.006997 
L 332.712955 274.121011 
L 328.209792 274.25986 
L 323.866751 274.379697 
L 319.677974 274.514798 
L 315.637702 274.643985 
L 311.741098 274.791829 
L 307.98311 274.946102 
L 304.358421 275.110603 
L 300.862289 275.284434 
L 297.490819 275.452425 
L 294.238986 275.631075 
L 291.102492 275.792565 
L 288.07737 275.965934 
L 285.15971 276.10906 
L 282.345568 276.275952 
L 279.631082 276.420723 
L 277.012861 276.600571 
L 274.488597 276.759268 
L 272.053212 276.952356 
L 269.703818 277.129021 
L 267.439111 277.319062 
L 265.253266 277.506116 
L 263.146153 277.687848 
L 261.113934 277.868474 
L 259.152039 278.044791 
L 257.261356 278.221911 
L 255.438127 278.388317 
L 253.67902 278.561659 
L 251.981561 278.719334 
L 250.343976 278.879921 
L 248.764834 279.028588 
L 247.24187 279.177059 
L 245.773021 279.317951 
L 244.356519 279.448712 
L 242.990879 279.57473 
L 241.673519 279.701204 
L 240.401917 279.839286 
L 239.174181 279.96496 
L 237.976614 280.117817 
L 236.779048 280.280369 
L 235.581482 280.415752 
L 234.383916 280.604621 
L 233.18635 280.765882 
L 231.988785 280.997504 
L 230.791219 281.164842 
L 229.593653 281.430013 
L 228.396087 281.620891 
L 227.198521 281.902605 
L 226.000955 282.086025 
L 224.80339 282.305254 
L 223.605824 282.469444 
L 222.408258 282.782647 
L 221.210692 283.021917 
L 220.013126 283.304918 
L 218.81556 283.664315 
L 217.617994 284.139595 
L 216.420429 284.849456 
L 215.222863 285.621153 
L 214.025297 286.495604 
L 212.827731 287.389322 
L 211.630165 288.539052 
L 210.432599 289.650715 
L 209.235033 290.412458 
L 208.037468 290.869385 
L 206.839902 291.933283 
L 205.642336 292.532274 
L 204.44477 292.257718 
L 203.247204 290.23342 
L 202.049638 285.910529 
L 200.852073 275.264754 
L 199.654507 251.001341 
L 198.456941 205.080892 
L 197.259375 158.54473 
L 196.090911 134.726508 
L 194.922447 111.282799 
L 193.743715 94.564741 
L 192.267447 84.958069 
L 190.247539 79.474549 
L 187.482418 76.422281 
L 183.696028 74.612452 
L 178.510276 73.658945 
L 171.407291 73.095058 
L 161.677719 72.801825 
L 148.349871 72.632954 
L 130.092708 72.56529 
z
" clip-path="url(#p94938b98b3)" style="fill: #99ccff; fill-opacity: 0.7"/>
   </g>
   <g id="FillBetweenPolyCollection_2">
    <defs>
     <path id="m5f96c73532" d="M 123.904621 -146.041941 
L 123.904621 -145.980749 
L 131.15871 -145.953864 
L 138.412798 -145.926979 
L 145.666887 -145.900094 
L 152.920975 -145.832232 
L 160.175063 -145.740319 
L 167.429152 -145.547941 
L 174.68324 -145.167978 
L 181.937329 -144.234026 
L 189.191417 -140.214352 
L 196.445506 -197.885685 
L 203.699594 -131.542558 
L 210.953682 -132.035747 
L 218.207771 -136.569519 
L 225.461859 -138.014994 
L 232.715948 -139.156377 
L 239.970036 -140.02059 
L 247.224125 -140.669237 
L 254.478213 -141.27391 
L 261.732301 -141.907461 
L 268.98639 -142.468888 
L 276.240478 -142.903822 
L 283.494567 -143.270447 
L 290.748655 -143.596229 
L 298.002743 -143.90906 
L 305.256832 -144.198321 
L 312.51092 -144.454636 
L 319.765009 -144.67266 
L 327.019097 -144.873859 
L 334.273186 -145.065823 
L 341.527274 -145.241132 
L 348.781362 -145.41833 
L 356.035451 -145.60635 
L 363.289539 -145.792396 
L 370.543628 -145.930873 
L 377.797716 -146.017711 
L 385.051804 -146.071718 
L 392.305893 -146.118556 
L 399.559981 -146.163154 
L 406.81407 -146.203443 
L 414.068158 -146.240897 
L 421.322247 -146.261199 
L 428.576335 -146.282184 
L 435.830423 -146.305535 
L 443.084512 -146.271651 
L 450.3386 -140.137518 
L 457.592689 -169.404317 
L 464.846777 -137.317982 
L 472.100866 -141.472258 
L 479.354954 -143.201664 
L 486.609042 -144.028707 
L 493.863131 -143.788862 
L 501.117219 -143.24531 
L 508.371308 -139.344066 
L 515.625396 -140.453777 
L 522.879484 -142.931421 
L 530.133573 -145.06246 
L 537.387661 -146.848308 
L 544.64175 -148.672868 
L 551.895838 -150.60439 
L 559.149927 -152.413406 
L 566.404015 -153.894716 
L 573.658103 -154.803458 
L 580.912192 -155.510451 
L 588.16628 -156.165062 
L 595.420369 -156.567466 
L 602.674457 -156.854687 
L 609.928546 -157.179393 
L 617.182634 -157.694773 
L 624.436722 -158.653808 
L 631.690811 -161.045335 
L 638.944899 -163.775841 
L 646.198988 -100.896243 
L 653.453076 -113.35775 
L 660.707164 -120.561886 
L 667.961253 -128.196433 
L 675.215341 -133.660995 
L 682.46943 -137.5716 
L 689.723518 -139.015198 
L 696.977607 -139.490349 
L 704.231695 -139.736355 
L 711.485783 -139.419433 
L 718.739872 -139.034882 
L 725.99396 -138.803617 
L 733.248049 -138.773863 
L 740.502137 -138.894139 
L 747.756226 -139.003613 
L 755.010314 -139.360254 
L 762.264402 -139.724172 
L 769.518491 -140.193447 
L 776.772579 -140.689618 
L 784.026668 -141.116431 
L 791.280756 -141.46985 
L 798.534844 -141.871024 
L 805.788933 -142.309256 
L 813.043021 -142.67783 
L 820.29711 -142.941123 
L 827.551198 -142.907999 
L 834.805287 -143.271636 
L 842.059375 -143.884956 
L 842.059375 -142.604876 
L 842.059375 -142.604876 
L 834.805287 -141.794157 
L 827.551198 -141.375976 
L 820.29711 -141.5476 
L 813.043021 -141.295676 
L 805.788933 -140.925898 
L 798.534844 -140.454112 
L 791.280756 -140.035246 
L 784.026668 -139.647619 
L 776.772579 -139.208861 
L 769.518491 -138.699267 
L 762.264402 -138.213202 
L 755.010314 -137.87516 
L 747.756226 -137.490714 
L 740.502137 -137.27152 
L 733.248049 -137.046376 
L 725.99396 -137.12149 
L 718.739872 -137.921219 
L 711.485783 -139.492591 
L 704.231695 -141.714332 
L 696.977607 -145.003233 
L 689.723518 -147.909969 
L 682.46943 -151.415901 
L 675.215341 -152.959127 
L 667.961253 -151.927836 
L 660.707164 -142.246223 
L 653.453076 -127.854613 
L 646.198988 -108.314528 
L 638.944899 -194.180195 
L 631.690811 -181.840251 
L 624.436722 -171.185609 
L 617.182634 -164.654671 
L 609.928546 -160.839498 
L 602.674457 -158.487509 
L 595.420369 -157.105437 
L 588.16628 -156.128274 
L 580.912192 -155.076605 
L 573.658103 -153.901709 
L 566.404015 -152.338306 
L 559.149927 -150.042357 
L 551.895838 -147.46134 
L 544.64175 -145.248897 
L 537.387661 -143.364516 
L 530.133573 -141.928257 
L 522.879484 -140.586925 
L 515.625396 -138.062794 
L 508.371308 -133.273205 
L 501.117219 -136.554244 
L 493.863131 -142.09407 
L 486.609042 -142.964062 
L 479.354954 -142.401791 
L 472.100866 -141.115876 
L 464.846777 -137.006093 
L 457.592689 -197.885685 
L 450.3386 -144.0753 
L 443.084512 -146.073752 
L 435.830423 -146.132188 
L 428.576335 -146.111451 
L 421.322247 -146.096058 
L 414.068158 -146.055954 
L 406.81407 -145.995236 
L 399.559981 -145.90665 
L 392.305893 -145.806435 
L 385.051804 -145.693985 
L 377.797716 -145.569677 
L 370.543628 -145.415367 
L 363.289539 -145.210757 
L 356.035451 -144.991134 
L 348.781362 -144.772614 
L 341.527274 -144.552337 
L 334.273186 -144.344814 
L 327.019097 -144.119886 
L 319.765009 -143.893443 
L 312.51092 -143.651681 
L 305.256832 -143.384655 
L 298.002743 -143.070768 
L 290.748655 -142.714354 
L 283.494567 -142.353312 
L 276.240478 -141.964629 
L 268.98639 -141.426978 
L 261.732301 -140.764565 
L 254.478213 -140.079164 
L 247.224125 -139.263752 
L 239.970036 -138.284402 
L 232.715948 -137.298608 
L 225.461859 -136.530098 
L 218.207771 -137.074405 
L 210.953682 -139.35604 
L 203.699594 -157.893457 
L 196.445506 -197.885685 
L 189.191417 -141.600026 
L 181.937329 -144.441868 
L 174.68324 -145.245362 
L 167.429152 -145.592985 
L 160.175063 -145.791195 
L 152.920975 -145.884005 
L 145.666887 -145.953404 
L 138.412798 -145.982917 
L 131.15871 -146.012429 
L 123.904621 -146.041941 
z
" style="stroke: #808080; stroke-opacity: 0.2"/>
    </defs>
    <g clip-path="url(#p94938b98b3)">
     <use xlink:href="#m5f96c73532" x="0" y="698.147812" style="fill: #808080; fill-opacity: 0.2; stroke: #808080; stroke-opacity: 0.2"/>
    </g>
   </g>
   <g id="matplotlib.axis_1">
    <g id="xtick_1">
     <g id="line2d_1">
      <path d="M 197.259375 617.04 
L 197.259375 7.2 
" clip-path="url(#p94938b98b3)" style="fill: none; stroke: #b0b0b0; stroke-width: 0.8; stroke-linecap: square"/>
     </g>
     <g id="line2d_2">
      <defs>
       <path id="mbb530177ed" d="M 0 0 
L 0 3.5 
" style="stroke: #000000; stroke-width: 0.8"/>
      </defs>
      <g>
       <use xlink:href="#mbb530177ed" x="197.259375" y="617.04" style="stroke: #000000; stroke-width: 0.8"/>
      </g>
     </g>
     <g id="text_1">
      <!-- 0.0 -->
      <g transform="translate(173.404687 646.835312) scale(0.3 -0.3)">
       <defs>
        <path id="DejaVuSans-30" d="M 2034 4250 
Q 1547 4250 1301 3770 
Q 1056 3291 1056 2328 
Q 1056 1369 1301 889 
Q 1547 409 2034 409 
Q 2525 409 2770 889 
Q 3016 1369 3016 2328 
Q 3016 3291 2770 3770 
Q 2525 4250 2034 4250 
z
M 2034 4750 
Q 2819 4750 3233 4129 
Q 3647 3509 3647 2328 
Q 3647 1150 3233 529 
Q 2819 -91 2034 -91 
Q 1250 -91 836 529 
Q 422 1150 422 2328 
Q 422 3509 836 4129 
Q 1250 4750 2034 4750 
z
" transform="scale(0.015625)"/>
        <path id="DejaVuSans-2e" d="M 684 794 
L 1344 794 
L 1344 0 
L 684 0 
L 684 794 
z
" transform="scale(0.015625)"/>
       </defs>
       <use xlink:href="#DejaVuSans-30"/>
       <use xlink:href="#DejaVuSans-2e" transform="translate(63.623047 0)"/>
       <use xlink:href="#DejaVuSans-30" transform="translate(95.410156 0)"/>
      </g>
     </g>
    </g>
    <g id="xtick_2">
     <g id="line2d_3">
      <path d="M 331.592708 617.04 
L 331.592708 7.2 
" clip-path="url(#p94938b98b3)" style="fill: none; stroke: #b0b0b0; stroke-width: 0.8; stroke-linecap: square"/>
     </g>
     <g id="line2d_4">
      <g>
       <use xlink:href="#mbb530177ed" x="331.592708" y="617.04" style="stroke: #000000; stroke-width: 0.8"/>
      </g>
     </g>
     <g id="text_2">
      <!-- 0.1 -->
      <g transform="translate(307.738021 646.835312) scale(0.3 -0.3)">
       <defs>
        <path id="DejaVuSans-31" d="M 794 531 
L 1825 531 
L 1825 4091 
L 703 3866 
L 703 4441 
L 1819 4666 
L 2450 4666 
L 2450 531 
L 3481 531 
L 3481 0 
L 794 0 
L 794 531 
z
" transform="scale(0.015625)"/>
       </defs>
       <use xlink:href="#DejaVuSans-30"/>
       <use xlink:href="#DejaVuSans-2e" transform="translate(63.623047 0)"/>
       <use xlink:href="#DejaVuSans-31" transform="translate(95.410156 0)"/>
      </g>
     </g>
    </g>
    <g id="xtick_3">
     <g id="line2d_5">
      <path d="M 465.926042 617.04 
L 465.926042 7.2 
" clip-path="url(#p94938b98b3)" style="fill: none; stroke: #b0b0b0; stroke-width: 0.8; stroke-linecap: square"/>
     </g>
     <g id="line2d_6">
      <g>
       <use xlink:href="#mbb530177ed" x="465.926042" y="617.04" style="stroke: #000000; stroke-width: 0.8"/>
      </g>
     </g>
     <g id="text_3">
      <!-- 0.2 -->
      <g transform="translate(442.071354 646.835312) scale(0.3 -0.3)">
       <defs>
        <path id="DejaVuSans-32" d="M 1228 531 
L 3431 531 
L 3431 0 
L 469 0 
L 469 531 
Q 828 903 1448 1529 
Q 2069 2156 2228 2338 
Q 2531 2678 2651 2914 
Q 2772 3150 2772 3378 
Q 2772 3750 2511 3984 
Q 2250 4219 1831 4219 
Q 1534 4219 1204 4116 
Q 875 4013 500 3803 
L 500 4441 
Q 881 4594 1212 4672 
Q 1544 4750 1819 4750 
Q 2544 4750 2975 4387 
Q 3406 4025 3406 3419 
Q 3406 3131 3298 2873 
Q 3191 2616 2906 2266 
Q 2828 2175 2409 1742 
Q 1991 1309 1228 531 
z
" transform="scale(0.015625)"/>
       </defs>
       <use xlink:href="#DejaVuSans-30"/>
       <use xlink:href="#DejaVuSans-2e" transform="translate(63.623047 0)"/>
       <use xlink:href="#DejaVuSans-32" transform="translate(95.410156 0)"/>
      </g>
     </g>
    </g>
    <g id="xtick_4">
     <g id="line2d_7">
      <path d="M 600.259375 617.04 
L 600.259375 7.2 
" clip-path="url(#p94938b98b3)" style="fill: none; stroke: #b0b0b0; stroke-width: 0.8; stroke-linecap: square"/>
     </g>
     <g id="line2d_8">
      <g>
       <use xlink:href="#mbb530177ed" x="600.259375" y="617.04" style="stroke: #000000; stroke-width: 0.8"/>
      </g>
     </g>
     <g id="text_4">
      <!-- 0.3 -->
      <g transform="translate(576.404687 646.835312) scale(0.3 -0.3)">
       <defs>
        <path id="DejaVuSans-33" d="M 2597 2516 
Q 3050 2419 3304 2112 
Q 3559 1806 3559 1356 
Q 3559 666 3084 287 
Q 2609 -91 1734 -91 
Q 1441 -91 1130 -33 
Q 819 25 488 141 
L 488 750 
Q 750 597 1062 519 
Q 1375 441 1716 441 
Q 2309 441 2620 675 
Q 2931 909 2931 1356 
Q 2931 1769 2642 2001 
Q 2353 2234 1838 2234 
L 1294 2234 
L 1294 2753 
L 1863 2753 
Q 2328 2753 2575 2939 
Q 2822 3125 2822 3475 
Q 2822 3834 2567 4026 
Q 2313 4219 1838 4219 
Q 1578 4219 1281 4162 
Q 984 4106 628 3988 
L 628 4550 
Q 988 4650 1302 4700 
Q 1616 4750 1894 4750 
Q 2613 4750 3031 4423 
Q 3450 4097 3450 3541 
Q 3450 3153 3228 2886 
Q 3006 2619 2597 2516 
z
" transform="scale(0.015625)"/>
       </defs>
       <use xlink:href="#DejaVuSans-30"/>
       <use xlink:href="#DejaVuSans-2e" transform="translate(63.623047 0)"/>
       <use xlink:href="#DejaVuSans-33" transform="translate(95.410156 0)"/>
      </g>
     </g>
    </g>
    <g id="xtick_5">
     <g id="line2d_9">
      <path d="M 734.592708 617.04 
L 734.592708 7.2 
" clip-path="url(#p94938b98b3)" style="fill: none; stroke: #b0b0b0; stroke-width: 0.8; stroke-linecap: square"/>
     </g>
     <g id="line2d_10">
      <g>
       <use xlink:href="#mbb530177ed" x="734.592708" y="617.04" style="stroke: #000000; stroke-width: 0.8"/>
      </g>
     </g>
     <g id="text_5">
      <!-- 0.4 -->
      <g transform="translate(710.738021 646.835312) scale(0.3 -0.3)">
       <defs>
        <path id="DejaVuSans-34" d="M 2419 4116 
L 825 1625 
L 2419 1625 
L 2419 4116 
z
M 2253 4666 
L 3047 4666 
L 3047 1625 
L 3713 1625 
L 3713 1100 
L 3047 1100 
L 3047 0 
L 2419 0 
L 2419 1100 
L 313 1100 
L 313 1709 
L 2253 4666 
z
" transform="scale(0.015625)"/>
       </defs>
       <use xlink:href="#DejaVuSans-30"/>
       <use xlink:href="#DejaVuSans-2e" transform="translate(63.623047 0)"/>
       <use xlink:href="#DejaVuSans-34" transform="translate(95.410156 0)"/>
      </g>
     </g>
    </g>
    <g id="text_6">
     <!-- X coordinate [m] -->
     <g transform="translate(332.20625 683.668906) scale(0.35 -0.35)">
      <defs>
       <path id="DejaVuSans-58" d="M 403 4666 
L 1081 4666 
L 2241 2931 
L 3406 4666 
L 4084 4666 
L 2584 2425 
L 4184 0 
L 3506 0 
L 2194 1984 
L 872 0 
L 191 0 
L 1856 2491 
L 403 4666 
z
" transform="scale(0.015625)"/>
       <path id="DejaVuSans-20" transform="scale(0.015625)"/>
       <path id="DejaVuSans-63" d="M 3122 3366 
L 3122 2828 
Q 2878 2963 2633 3030 
Q 2388 3097 2138 3097 
Q 1578 3097 1268 2742 
Q 959 2388 959 1747 
Q 959 1106 1268 751 
Q 1578 397 2138 397 
Q 2388 397 2633 464 
Q 2878 531 3122 666 
L 3122 134 
Q 2881 22 2623 -34 
Q 2366 -91 2075 -91 
Q 1284 -91 818 406 
Q 353 903 353 1747 
Q 353 2603 823 3093 
Q 1294 3584 2113 3584 
Q 2378 3584 2631 3529 
Q 2884 3475 3122 3366 
z
" transform="scale(0.015625)"/>
       <path id="DejaVuSans-6f" d="M 1959 3097 
Q 1497 3097 1228 2736 
Q 959 2375 959 1747 
Q 959 1119 1226 758 
Q 1494 397 1959 397 
Q 2419 397 2687 759 
Q 2956 1122 2956 1747 
Q 2956 2369 2687 2733 
Q 2419 3097 1959 3097 
z
M 1959 3584 
Q 2709 3584 3137 3096 
Q 3566 2609 3566 1747 
Q 3566 888 3137 398 
Q 2709 -91 1959 -91 
Q 1206 -91 779 398 
Q 353 888 353 1747 
Q 353 2609 779 3096 
Q 1206 3584 1959 3584 
z
" transform="scale(0.015625)"/>
       <path id="DejaVuSans-72" d="M 2631 2963 
Q 2534 3019 2420 3045 
Q 2306 3072 2169 3072 
Q 1681 3072 1420 2755 
Q 1159 2438 1159 1844 
L 1159 0 
L 581 0 
L 581 3500 
L 1159 3500 
L 1159 2956 
Q 1341 3275 1631 3429 
Q 1922 3584 2338 3584 
Q 2397 3584 2469 3576 
Q 2541 3569 2628 3553 
L 2631 2963 
z
" transform="scale(0.015625)"/>
       <path id="DejaVuSans-64" d="M 2906 2969 
L 2906 4863 
L 3481 4863 
L 3481 0 
L 2906 0 
L 2906 525 
Q 2725 213 2448 61 
Q 2172 -91 1784 -91 
Q 1150 -91 751 415 
Q 353 922 353 1747 
Q 353 2572 751 3078 
Q 1150 3584 1784 3584 
Q 2172 3584 2448 3432 
Q 2725 3281 2906 2969 
z
M 947 1747 
Q 947 1113 1208 752 
Q 1469 391 1925 391 
Q 2381 391 2643 752 
Q 2906 1113 2906 1747 
Q 2906 2381 2643 2742 
Q 2381 3103 1925 3103 
Q 1469 3103 1208 2742 
Q 947 2381 947 1747 
z
" transform="scale(0.015625)"/>
       <path id="DejaVuSans-69" d="M 603 3500 
L 1178 3500 
L 1178 0 
L 603 0 
L 603 3500 
z
M 603 4863 
L 1178 4863 
L 1178 4134 
L 603 4134 
L 603 4863 
z
" transform="scale(0.015625)"/>
       <path id="DejaVuSans-6e" d="M 3513 2113 
L 3513 0 
L 2938 0 
L 2938 2094 
Q 2938 2591 2744 2837 
Q 2550 3084 2163 3084 
Q 1697 3084 1428 2787 
Q 1159 2491 1159 1978 
L 1159 0 
L 581 0 
L 581 3500 
L 1159 3500 
L 1159 2956 
Q 1366 3272 1645 3428 
Q 1925 3584 2291 3584 
Q 2894 3584 3203 3211 
Q 3513 2838 3513 2113 
z
" transform="scale(0.015625)"/>
       <path id="DejaVuSans-61" d="M 2194 1759 
Q 1497 1759 1228 1600 
Q 959 1441 959 1056 
Q 959 750 1161 570 
Q 1363 391 1709 391 
Q 2188 391 2477 730 
Q 2766 1069 2766 1631 
L 2766 1759 
L 2194 1759 
z
M 3341 1997 
L 3341 0 
L 2766 0 
L 2766 531 
Q 2569 213 2275 61 
Q 1981 -91 1556 -91 
Q 1019 -91 701 211 
Q 384 513 384 1019 
Q 384 1609 779 1909 
Q 1175 2209 1959 2209 
L 2766 2209 
L 2766 2266 
Q 2766 2663 2505 2880 
Q 2244 3097 1772 3097 
Q 1472 3097 1187 3025 
Q 903 2953 641 2809 
L 641 3341 
Q 956 3463 1253 3523 
Q 1550 3584 1831 3584 
Q 2591 3584 2966 3190 
Q 3341 2797 3341 1997 
z
" transform="scale(0.015625)"/>
       <path id="DejaVuSans-74" d="M 1172 4494 
L 1172 3500 
L 2356 3500 
L 2356 3053 
L 1172 3053 
L 1172 1153 
Q 1172 725 1289 603 
Q 1406 481 1766 481 
L 2356 481 
L 2356 0 
L 1766 0 
Q 1100 0 847 248 
Q 594 497 594 1153 
L 594 3053 
L 172 3053 
L 172 3500 
L 594 3500 
L 594 4494 
L 1172 4494 
z
" transform="scale(0.015625)"/>
       <path id="DejaVuSans-65" d="M 3597 1894 
L 3597 1613 
L 953 1613 
Q 991 1019 1311 708 
Q 1631 397 2203 397 
Q 2534 397 2845 478 
Q 3156 559 3463 722 
L 3463 178 
Q 3153 47 2828 -22 
Q 2503 -91 2169 -91 
Q 1331 -91 842 396 
Q 353 884 353 1716 
Q 353 2575 817 3079 
Q 1281 3584 2069 3584 
Q 2775 3584 3186 3129 
Q 3597 2675 3597 1894 
z
M 3022 2063 
Q 3016 2534 2758 2815 
Q 2500 3097 2075 3097 
Q 1594 3097 1305 2825 
Q 1016 2553 972 2059 
L 3022 2063 
z
" transform="scale(0.015625)"/>
       <path id="DejaVuSans-5b" d="M 550 4863 
L 1875 4863 
L 1875 4416 
L 1125 4416 
L 1125 -397 
L 1875 -397 
L 1875 -844 
L 550 -844 
L 550 4863 
z
" transform="scale(0.015625)"/>
       <path id="DejaVuSans-6d" d="M 3328 2828 
Q 3544 3216 3844 3400 
Q 4144 3584 4550 3584 
Q 5097 3584 5394 3201 
Q 5691 2819 5691 2113 
L 5691 0 
L 5113 0 
L 5113 2094 
Q 5113 2597 4934 2840 
Q 4756 3084 4391 3084 
Q 3944 3084 3684 2787 
Q 3425 2491 3425 1978 
L 3425 0 
L 2847 0 
L 2847 2094 
Q 2847 2600 2669 2842 
Q 2491 3084 2119 3084 
Q 1678 3084 1418 2786 
Q 1159 2488 1159 1978 
L 1159 0 
L 581 0 
L 581 3500 
L 1159 3500 
L 1159 2956 
Q 1356 3278 1631 3431 
Q 1906 3584 2284 3584 
Q 2666 3584 2933 3390 
Q 3200 3197 3328 2828 
z
" transform="scale(0.015625)"/>
       <path id="DejaVuSans-5d" d="M 1947 4863 
L 1947 -844 
L 622 -844 
L 622 -397 
L 1369 -397 
L 1369 4416 
L 622 4416 
L 622 4863 
L 1947 4863 
z
" transform="scale(0.015625)"/>
      </defs>
      <use xlink:href="#DejaVuSans-58"/>
      <use xlink:href="#DejaVuSans-20" transform="translate(68.505859 0)"/>
      <use xlink:href="#DejaVuSans-63" transform="translate(100.292969 0)"/>
      <use xlink:href="#DejaVuSans-6f" transform="translate(155.273438 0)"/>
      <use xlink:href="#DejaVuSans-6f" transform="translate(216.455078 0)"/>
      <use xlink:href="#DejaVuSans-72" transform="translate(277.636719 0)"/>
      <use xlink:href="#DejaVuSans-64" transform="translate(317 0)"/>
      <use xlink:href="#DejaVuSans-69" transform="translate(380.476562 0)"/>
      <use xlink:href="#DejaVuSans-6e" transform="translate(408.259766 0)"/>
      <use xlink:href="#DejaVuSans-61" transform="translate(471.638672 0)"/>
      <use xlink:href="#DejaVuSans-74" transform="translate(532.917969 0)"/>
      <use xlink:href="#DejaVuSans-65" transform="translate(572.126953 0)"/>
      <use xlink:href="#DejaVuSans-20" transform="translate(633.650391 0)"/>
      <use xlink:href="#DejaVuSans-5b" transform="translate(665.4375 0)"/>
      <use xlink:href="#DejaVuSans-6d" transform="translate(704.451172 0)"/>
      <use xlink:href="#DejaVuSans-5d" transform="translate(801.863281 0)"/>
     </g>
    </g>
   </g>
   <g id="matplotlib.axis_2">
    <g id="ytick_1">
     <g id="line2d_11">
      <path d="M 116.659375 552.163404 
L 842.059375 552.163404 
" clip-path="url(#p94938b98b3)" style="fill: none; stroke: #b0b0b0; stroke-width: 0.8; stroke-linecap: square"/>
     </g>
     <g id="line2d_12">
      <defs>
       <path id="ma5b5791412" d="M 0 0 
L -3.5 0 
" style="stroke: #000000; stroke-width: 0.8"/>
      </defs>
      <g>
       <use xlink:href="#ma5b5791412" x="116.659375" y="552.163404" style="stroke: #000000; stroke-width: 0.8"/>
      </g>
     </g>
     <g id="text_7">
      <!-- 0.0 -->
      <g transform="translate(61.95 563.561061) scale(0.3 -0.3)">
       <use xlink:href="#DejaVuSans-30"/>
       <use xlink:href="#DejaVuSans-2e" transform="translate(63.623047 0)"/>
       <use xlink:href="#DejaVuSans-30" transform="translate(95.410156 0)"/>
      </g>
     </g>
    </g>
    <g id="ytick_2">
     <g id="line2d_13">
      <path d="M 116.659375 448.360851 
L 842.059375 448.360851 
" clip-path="url(#p94938b98b3)" style="fill: none; stroke: #b0b0b0; stroke-width: 0.8; stroke-linecap: square"/>
     </g>
     <g id="line2d_14">
      <g>
       <use xlink:href="#ma5b5791412" x="116.659375" y="448.360851" style="stroke: #000000; stroke-width: 0.8"/>
      </g>
     </g>
     <g id="text_8">
      <!-- 0.2 -->
      <g transform="translate(61.95 459.758507) scale(0.3 -0.3)">
       <use xlink:href="#DejaVuSans-30"/>
       <use xlink:href="#DejaVuSans-2e" transform="translate(63.623047 0)"/>
       <use xlink:href="#DejaVuSans-32" transform="translate(95.410156 0)"/>
      </g>
     </g>
    </g>
    <g id="ytick_3">
     <g id="line2d_15">
      <path d="M 116.659375 344.558298 
L 842.059375 344.558298 
" clip-path="url(#p94938b98b3)" style="fill: none; stroke: #b0b0b0; stroke-width: 0.8; stroke-linecap: square"/>
     </g>
     <g id="line2d_16">
      <g>
       <use xlink:href="#ma5b5791412" x="116.659375" y="344.558298" style="stroke: #000000; stroke-width: 0.8"/>
      </g>
     </g>
     <g id="text_9">
      <!-- 0.4 -->
      <g transform="translate(61.95 355.955954) scale(0.3 -0.3)">
       <use xlink:href="#DejaVuSans-30"/>
       <use xlink:href="#DejaVuSans-2e" transform="translate(63.623047 0)"/>
       <use xlink:href="#DejaVuSans-34" transform="translate(95.410156 0)"/>
      </g>
     </g>
    </g>
    <g id="ytick_4">
     <g id="line2d_17">
      <path d="M 116.659375 240.755745 
L 842.059375 240.755745 
" clip-path="url(#p94938b98b3)" style="fill: none; stroke: #b0b0b0; stroke-width: 0.8; stroke-linecap: square"/>
     </g>
     <g id="line2d_18">
      <g>
       <use xlink:href="#ma5b5791412" x="116.659375" y="240.755745" style="stroke: #000000; stroke-width: 0.8"/>
      </g>
     </g>
     <g id="text_10">
      <!-- 0.6 -->
      <g transform="translate(61.95 252.153401) scale(0.3 -0.3)">
       <defs>
        <path id="DejaVuSans-36" d="M 2113 2584 
Q 1688 2584 1439 2293 
Q 1191 2003 1191 1497 
Q 1191 994 1439 701 
Q 1688 409 2113 409 
Q 2538 409 2786 701 
Q 3034 994 3034 1497 
Q 3034 2003 2786 2293 
Q 2538 2584 2113 2584 
z
M 3366 4563 
L 3366 3988 
Q 3128 4100 2886 4159 
Q 2644 4219 2406 4219 
Q 1781 4219 1451 3797 
Q 1122 3375 1075 2522 
Q 1259 2794 1537 2939 
Q 1816 3084 2150 3084 
Q 2853 3084 3261 2657 
Q 3669 2231 3669 1497 
Q 3669 778 3244 343 
Q 2819 -91 2113 -91 
Q 1303 -91 875 529 
Q 447 1150 447 2328 
Q 447 3434 972 4092 
Q 1497 4750 2381 4750 
Q 2619 4750 2861 4703 
Q 3103 4656 3366 4563 
z
" transform="scale(0.015625)"/>
       </defs>
       <use xlink:href="#DejaVuSans-30"/>
       <use xlink:href="#DejaVuSans-2e" transform="translate(63.623047 0)"/>
       <use xlink:href="#DejaVuSans-36" transform="translate(95.410156 0)"/>
      </g>
     </g>
    </g>
    <g id="ytick_5">
     <g id="line2d_19">
      <path d="M 116.659375 136.953191 
L 842.059375 136.953191 
" clip-path="url(#p94938b98b3)" style="fill: none; stroke: #b0b0b0; stroke-width: 0.8; stroke-linecap: square"/>
     </g>
     <g id="line2d_20">
      <g>
       <use xlink:href="#ma5b5791412" x="116.659375" y="136.953191" style="stroke: #000000; stroke-width: 0.8"/>
      </g>
     </g>
     <g id="text_11">
      <!-- 0.8 -->
      <g transform="translate(61.95 148.350848) scale(0.3 -0.3)">
       <defs>
        <path id="DejaVuSans-38" d="M 2034 2216 
Q 1584 2216 1326 1975 
Q 1069 1734 1069 1313 
Q 1069 891 1326 650 
Q 1584 409 2034 409 
Q 2484 409 2743 651 
Q 3003 894 3003 1313 
Q 3003 1734 2745 1975 
Q 2488 2216 2034 2216 
z
M 1403 2484 
Q 997 2584 770 2862 
Q 544 3141 544 3541 
Q 544 4100 942 4425 
Q 1341 4750 2034 4750 
Q 2731 4750 3128 4425 
Q 3525 4100 3525 3541 
Q 3525 3141 3298 2862 
Q 3072 2584 2669 2484 
Q 3125 2378 3379 2068 
Q 3634 1759 3634 1313 
Q 3634 634 3220 271 
Q 2806 -91 2034 -91 
Q 1263 -91 848 271 
Q 434 634 434 1313 
Q 434 1759 690 2068 
Q 947 2378 1403 2484 
z
M 1172 3481 
Q 1172 3119 1398 2916 
Q 1625 2713 2034 2713 
Q 2441 2713 2670 2916 
Q 2900 3119 2900 3481 
Q 2900 3844 2670 4047 
Q 2441 4250 2034 4250 
Q 1625 4250 1398 4047 
Q 1172 3844 1172 3481 
z
" transform="scale(0.015625)"/>
       </defs>
       <use xlink:href="#DejaVuSans-30"/>
       <use xlink:href="#DejaVuSans-2e" transform="translate(63.623047 0)"/>
       <use xlink:href="#DejaVuSans-38" transform="translate(95.410156 0)"/>
      </g>
     </g>
    </g>
    <g id="ytick_6">
     <g id="line2d_21">
      <path d="M 116.659375 33.150638 
L 842.059375 33.150638 
" clip-path="url(#p94938b98b3)" style="fill: none; stroke: #b0b0b0; stroke-width: 0.8; stroke-linecap: square"/>
     </g>
     <g id="line2d_22">
      <g>
       <use xlink:href="#ma5b5791412" x="116.659375" y="33.150638" style="stroke: #000000; stroke-width: 0.8"/>
      </g>
     </g>
     <g id="text_12">
      <!-- 1.0 -->
      <g transform="translate(61.95 44.548295) scale(0.3 -0.3)">
       <use xlink:href="#DejaVuSans-31"/>
       <use xlink:href="#DejaVuSans-2e" transform="translate(63.623047 0)"/>
       <use xlink:href="#DejaVuSans-30" transform="translate(95.410156 0)"/>
      </g>
     </g>
    </g>
    <g id="text_13">
     <!-- $\frac{M}{M_\infty}$ [-] -->
     <g transform="translate(40.45 357.97) rotate(-90) scale(0.35 -0.35)">
      <defs>
       <path id="DejaVuSans-Oblique-4d" d="M 1081 4666 
L 2028 4666 
L 2572 1522 
L 4378 4666 
L 5350 4666 
L 4441 0 
L 3828 0 
L 4622 4091 
L 2791 897 
L 2175 897 
L 1581 4103 
L 788 0 
L 172 0 
L 1081 4666 
z
" transform="scale(0.015625)"/>
       <path id="DejaVuSans-221e" d="M 2916 1091 
Q 2819 1203 2666 1466 
Q 2456 1091 2272 925 
Q 2041 725 1681 725 
Q 1259 725 981 1041 
Q 688 1372 688 1919 
Q 688 2444 981 2800 
Q 1244 3116 1688 3116 
Q 1916 3116 2084 3022 
Q 2281 2919 2416 2741 
Q 2541 2581 2666 2366 
Q 2875 2741 3059 2906 
Q 3291 3106 3650 3106 
Q 4072 3106 4350 2791 
Q 4644 2459 4644 1913 
Q 4644 1388 4350 1031 
Q 4088 716 3644 716 
Q 3416 716 3247 809 
Q 3078 894 2916 1091 
z
M 1647 1134 
Q 2163 1134 2472 1884 
Q 2075 2703 1647 2703 
Q 1334 2703 1175 2478 
Q 1003 2238 1003 1919 
Q 1003 1569 1175 1353 
Q 1350 1134 1647 1134 
z
M 3684 2697 
Q 3219 2697 2859 1947 
Q 3253 1128 3684 1128 
Q 3997 1128 4156 1353 
Q 4328 1594 4328 1913 
Q 4328 2263 4156 2478 
Q 3981 2697 3684 2697 
z
" transform="scale(0.015625)"/>
       <path id="DejaVuSans-2d" d="M 313 2009 
L 1997 2009 
L 1997 1497 
L 313 1497 
L 313 2009 
z
" transform="scale(0.015625)"/>
      </defs>
      <use xlink:href="#DejaVuSans-Oblique-4d" transform="translate(21 43.965625) scale(0.7)"/>
      <use xlink:href="#DejaVuSans-Oblique-4d" transform="translate(0 -38.31875) scale(0.7)"/>
      <use xlink:href="#DejaVuSans-221e" transform="translate(60.395508 -49.803125) scale(0.49)"/>
      <use xlink:href="#DejaVuSans-20" transform="translate(115.626953 0.16875)"/>
      <use xlink:href="#DejaVuSans-5b" transform="translate(147.414062 0.16875)"/>
      <use xlink:href="#DejaVuSans-2d" transform="translate(186.427734 0.16875)"/>
      <use xlink:href="#DejaVuSans-5d" transform="translate(222.511719 0.16875)"/>
      <path d="M 0 18.965625 
L 0 25.215625 
L 103.126953 25.215625 
L 103.126953 18.965625 
L 0 18.965625 
z
"/>
     </g>
    </g>
   </g>
   <g id="line2d_23">
    <path d="M 130.092708 47.564777 
L 148.349871 47.635748 
L 161.677719 47.805443 
L 171.407291 48.103451 
L 178.510276 48.628045 
L 183.696028 49.514884 
L 187.482418 51.040562 
L 190.247539 53.63631 
L 192.267447 58.048679 
L 193.743715 65.855202 
L 194.922447 78.738897 
L 196.090911 98.332288 
L 197.259375 129.991865 
L 198.456941 182.343529 
L 199.654507 223.977067 
L 200.852073 248.725741 
L 202.049638 261.474817 
L 203.247204 269.36124 
L 204.44477 274.287155 
L 205.642336 276.797227 
L 206.839902 277.700588 
L 208.037468 278.077057 
L 209.235033 278.683696 
L 210.432599 278.913975 
L 211.630165 278.678843 
L 212.827731 278.251444 
L 218.81556 276.789182 
L 226.000955 276.090312 
L 233.18635 274.903031 
L 239.174181 274.003427 
L 250.343976 272.651958 
L 265.253266 271.098926 
L 274.488597 270.293313 
L 285.15971 269.590909 
L 311.741098 268.204111 
L 332.712955 267.46933 
L 374.870473 266.239431 
L 408.01053 265.777912 
L 440.243987 265.563038 
L 445.140118 265.72007 
L 446.591631 265.964943 
L 447.732398 266.441952 
L 448.863433 267.304115 
L 449.994467 268.855204 
L 451.125502 271.625912 
L 452.256536 276.268748 
L 453.38757 284.625382 
L 454.518605 297.397063 
L 455.649639 316.425721 
L 456.780674 342.091546 
L 457.605469 371.901598 
L 458.430264 391.760916 
L 459.25506 404.45022 
L 460.079855 411.960799 
L 460.90465 414.814632 
L 461.729446 415.487123 
L 462.554241 415.034458 
L 464.203832 412.741666 
L 465.853423 410.299191 
L 467.503013 408.147754 
L 469.152604 406.315103 
L 470.802195 404.820285 
L 472.451785 403.555558 
L 474.926171 402.009866 
L 478.225353 400.336358 
L 482.34933 398.65056 
L 486.473306 397.282953 
L 492.246874 395.458564 
L 493.904911 394.621115 
L 494.789875 393.994342 
L 495.752512 393.151495 
L 496.790453 392.029729 
L 497.917968 390.587738 
L 500.467666 386.67736 
L 505.173274 379.06353 
L 507.02317 376.380656 
L 509.035196 373.756508 
L 511.224291 371.411854 
L 513.607017 369.33465 
L 516.200441 367.685998 
L 519.020402 366.433743 
L 522.089345 365.663781 
L 525.42424 365.286044 
L 529.048061 365.275155 
L 532.979739 365.558437 
L 537.23859 366.24658 
L 541.842055 367.282811 
L 546.801454 368.597425 
L 563.69295 373.73666 
L 581.50853 379.548759 
L 593.385583 382.694505 
L 599.324109 383.983256 
L 605.262636 384.819075 
L 611.201163 385.015619 
L 617.139689 384.344728 
L 623.078216 382.540721 
L 629.016742 378.729085 
L 634.955269 372.158465 
L 640.893795 361.851545 
L 646.832322 348.58244 
L 655.228155 330.251397 
L 663.623989 315.640949 
L 672.019822 310.453209 
L 680.415655 307.766226 
L 688.811489 308.82091 
L 697.207322 310.220036 
L 705.603155 312.05366 
L 713.998989 313.554407 
L 722.394822 314.674541 
L 730.790655 315.02352 
L 747.582322 315.008208 
L 772.769822 314.293474 
L 781.165655 314.027713 
L 806.353155 313.604462 
L 831.540655 313.151794 
L 848.332322 313.05201 
L 848.332322 313.05201 
" clip-path="url(#p94938b98b3)" style="fill: none; stroke: #ff0000; stroke-width: 3; stroke-linecap: square"/>
   </g>
   <g id="line2d_24">
    <path d="M 123.904621 552.136467 
L 131.15871 552.164666 
L 138.412798 552.192864 
L 145.666887 552.221063 
L 152.920975 552.289694 
L 160.175063 552.382056 
L 167.429152 552.577349 
L 174.68324 552.941142 
L 181.937329 553.809866 
L 189.191417 557.240624 
L 196.445506 500.262128 
L 203.699594 553.429805 
L 210.953682 562.451919 
L 218.207771 561.325851 
L 225.461859 560.875267 
L 232.715948 559.92032 
L 239.970036 558.995316 
L 247.224125 558.181318 
L 254.478213 557.471276 
L 261.732301 556.8118 
L 268.98639 556.19988 
L 276.240478 555.713587 
L 283.494567 555.335933 
L 290.748655 554.992521 
L 298.002743 554.657899 
L 305.256832 554.356324 
L 312.51092 554.094654 
L 319.765009 553.864761 
L 327.019097 553.65094 
L 334.273186 553.442494 
L 341.527274 553.251078 
L 348.781362 553.052341 
L 356.035451 552.84907 
L 363.289539 552.646236 
L 370.543628 552.474692 
L 377.797716 552.354119 
L 385.051804 552.264961 
L 392.305893 552.185317 
L 399.559981 552.112911 
L 406.81407 552.048473 
L 414.068158 551.999387 
L 421.322247 551.969184 
L 428.576335 551.950995 
L 435.830423 551.928951 
L 443.084512 551.975111 
L 450.3386 556.041404 
L 457.592689 512.455505 
L 464.846777 560.985775 
L 472.100866 556.853745 
L 479.354954 555.346085 
L 486.609042 554.651428 
L 493.863131 555.206346 
L 501.117219 558.248036 
L 508.371308 561.839177 
L 515.625396 558.889527 
L 522.879484 556.388639 
L 530.133573 554.652454 
L 537.387661 553.0414 
L 544.64175 551.18693 
L 551.895838 549.114948 
L 559.149927 546.919931 
L 566.404015 545.031302 
L 573.658103 543.795229 
L 580.912192 542.854285 
L 588.16628 542.001145 
L 595.420369 541.311361 
L 602.674457 540.476714 
L 609.928546 539.138367 
L 617.182634 536.973091 
L 624.436722 533.228104 
L 631.690811 526.70502 
L 638.944899 519.169794 
L 646.198988 593.542427 
L 653.453076 577.541631 
L 660.707164 566.743758 
L 667.961253 558.085678 
L 675.215341 554.837752 
L 682.46943 553.654062 
L 689.723518 554.685229 
L 696.977607 555.901022 
L 704.231695 557.422469 
L 711.485783 558.691801 
L 718.739872 559.669762 
L 725.99396 560.185259 
L 733.248049 560.237693 
L 740.502137 560.064983 
L 747.756226 559.900649 
L 755.010314 559.530106 
L 762.264402 559.179125 
L 769.518491 558.701455 
L 776.772579 558.198573 
L 784.026668 557.765787 
L 791.280756 557.395265 
L 798.534844 556.985245 
L 805.788933 556.530235 
L 813.043021 556.161059 
L 820.29711 555.903451 
L 827.551198 556.005825 
L 834.805287 555.614916 
L 842.059375 554.902897 
" clip-path="url(#p94938b98b3)" style="fill: none; stroke: #808080; stroke-width: 3; stroke-linecap: square"/>
   </g>
   <g id="patch_3">
    <path d="M 116.659375 617.04 
L 116.659375 7.2 
" style="fill: none; stroke: #000000; stroke-width: 0.8; stroke-linejoin: miter; stroke-linecap: square"/>
   </g>
   <g id="patch_4">
    <path d="M 842.059375 617.04 
L 842.059375 7.2 
" style="fill: none; stroke: #000000; stroke-width: 0.8; stroke-linejoin: miter; stroke-linecap: square"/>
   </g>
   <g id="patch_5">
    <path d="M 116.659375 617.04 
L 842.059375 617.04 
" style="fill: none; stroke: #000000; stroke-width: 0.8; stroke-linejoin: miter; stroke-linecap: square"/>
   </g>
   <g id="patch_6">
    <path d="M 116.659375 7.2 
L 842.059375 7.2 
" style="fill: none; stroke: #000000; stroke-width: 0.8; stroke-linejoin: miter; stroke-linecap: square"/>
   </g>
   <g id="legend_1">
    <g id="patch_7">
     <path d="M 491.03125 223.073437 
L 817.559375 223.073437 
Q 824.559375 223.073437 824.559375 216.073437 
L 824.559375 31.7 
Q 824.559375 24.7 817.559375 24.7 
L 491.03125 24.7 
Q 484.03125 24.7 484.03125 31.7 
L 484.03125 216.073437 
Q 484.03125 223.073437 491.03125 223.073437 
z
" style="fill: #ffffff; opacity: 0.8; stroke: #cccccc; stroke-linejoin: miter"/>
    </g>
    <g id="patch_8">
     <path d="M 498.03125 71.95 
L 568.03125 71.95 
L 568.03125 47.45 
L 498.03125 47.45 
z
" style="fill: #99ccff; fill-opacity: 0.7"/>
    </g>
    <g id="text_14">
     <!-- 1$\sigma[\frac{M}{M_\infty}]$ -->
     <g transform="translate(596.03125 71.95) scale(0.35 -0.35)">
      <defs>
       <path id="DejaVuSans-Oblique-3c3" d="M 2219 3044 
Q 1744 3044 1422 2700 
Q 1081 2341 969 1747 
Q 844 1119 1044 756 
Q 1241 397 1706 397 
Q 2166 397 2503 759 
Q 2844 1122 2966 1747 
Q 3075 2319 2881 2700 
Q 2700 3044 2219 3044 
z
M 2309 3503 
L 4219 3500 
L 4106 2925 
L 3463 2925 
Q 3706 2438 3575 1747 
Q 3406 888 2884 400 
Q 2359 -91 1609 -91 
Q 856 -91 525 400 
Q 194 888 363 1747 
Q 528 2609 1050 3097 
Q 1484 3503 2309 3503 
z
" transform="scale(0.015625)"/>
      </defs>
      <use xlink:href="#DejaVuSans-31" transform="translate(0 0.16875)"/>
      <use xlink:href="#DejaVuSans-Oblique-3c3" transform="translate(63.623047 0.16875)"/>
      <use xlink:href="#DejaVuSans-5b" transform="translate(127.001953 0.16875)"/>
      <use xlink:href="#DejaVuSans-Oblique-4d" transform="translate(187.015625 43.965625) scale(0.7)"/>
      <use xlink:href="#DejaVuSans-Oblique-4d" transform="translate(166.015625 -38.31875) scale(0.7)"/>
      <use xlink:href="#DejaVuSans-221e" transform="translate(226.411133 -49.803125) scale(0.49)"/>
      <use xlink:href="#DejaVuSans-5d" transform="translate(281.642578 0.16875)"/>
      <path d="M 166.015625 18.965625 
L 166.015625 25.215625 
L 269.142578 25.215625 
L 269.142578 18.965625 
L 166.015625 18.965625 
z
"/>
     </g>
    </g>
    <g id="line2d_25">
     <path d="M 498.03125 121.294531 
L 533.03125 121.294531 
L 568.03125 121.294531 
" style="fill: none; stroke: #808080; stroke-width: 3; stroke-linecap: square"/>
    </g>
    <g id="text_15">
     <!-- Error to [21] -->
     <g transform="translate(596.03125 133.544531) scale(0.35 -0.35)">
      <defs>
       <path id="DejaVuSans-45" d="M 628 4666 
L 3578 4666 
L 3578 4134 
L 1259 4134 
L 1259 2753 
L 3481 2753 
L 3481 2222 
L 1259 2222 
L 1259 531 
L 3634 531 
L 3634 0 
L 628 0 
L 628 4666 
z
" transform="scale(0.015625)"/>
      </defs>
      <use xlink:href="#DejaVuSans-45"/>
      <use xlink:href="#DejaVuSans-72" transform="translate(63.183594 0)"/>
      <use xlink:href="#DejaVuSans-72" transform="translate(102.546875 0)"/>
      <use xlink:href="#DejaVuSans-6f" transform="translate(141.410156 0)"/>
      <use xlink:href="#DejaVuSans-72" transform="translate(202.591797 0)"/>
      <use xlink:href="#DejaVuSans-20" transform="translate(243.705078 0)"/>
      <use xlink:href="#DejaVuSans-74" transform="translate(275.492188 0)"/>
      <use xlink:href="#DejaVuSans-6f" transform="translate(314.701172 0)"/>
      <use xlink:href="#DejaVuSans-20" transform="translate(375.882812 0)"/>
      <use xlink:href="#DejaVuSans-5b" transform="translate(407.669922 0)"/>
      <use xlink:href="#DejaVuSans-32" transform="translate(446.683594 0)"/>
      <use xlink:href="#DejaVuSans-31" transform="translate(510.306641 0)"/>
      <use xlink:href="#DejaVuSans-5d" transform="translate(573.929688 0)"/>
     </g>
    </g>
    <g id="line2d_26">
     <path d="M 498.03125 179.323437 
L 533.03125 179.323437 
L 568.03125 179.323437 
" style="fill: none; stroke: #ff0000; stroke-width: 3; stroke-linecap: square"/>
    </g>
    <g id="text_16">
     <!-- $\mu[\frac{M}{M_\infty}]$ -->
     <g transform="translate(596.03125 191.573437) scale(0.35 -0.35)">
      <defs>
       <path id="DejaVuSans-Oblique-3bc" d="M -84 -1331 
L 856 3500 
L 1434 3500 
L 1009 1322 
Q 997 1256 987 1175 
Q 978 1094 978 1013 
Q 978 722 1161 565 
Q 1344 409 1684 409 
Q 2147 409 2431 671 
Q 2716 934 2816 1459 
L 3213 3500 
L 3788 3500 
L 3266 809 
Q 3253 750 3248 706 
Q 3244 663 3244 628 
Q 3244 531 3283 486 
Q 3322 441 3406 441 
Q 3438 441 3492 456 
Q 3547 472 3647 513 
L 3559 50 
Q 3422 -19 3297 -55 
Q 3172 -91 3053 -91 
Q 2847 -91 2730 40 
Q 2613 172 2613 403 
Q 2438 153 2195 31 
Q 1953 -91 1625 -91 
Q 1334 -91 1117 43 
Q 900 178 831 397 
L 494 -1331 
L -84 -1331 
z
" transform="scale(0.015625)"/>
      </defs>
      <use xlink:href="#DejaVuSans-Oblique-3bc" transform="translate(0 0.16875)"/>
      <use xlink:href="#DejaVuSans-5b" transform="translate(63.623047 0.16875)"/>
      <use xlink:href="#DejaVuSans-Oblique-4d" transform="translate(123.636719 43.965625) scale(0.7)"/>
      <use xlink:href="#DejaVuSans-Oblique-4d" transform="translate(102.636719 -38.31875) scale(0.7)"/>
      <use xlink:href="#DejaVuSans-221e" transform="translate(163.032227 -49.803125) scale(0.49)"/>
      <use xlink:href="#DejaVuSans-5d" transform="translate(218.263672 0.16875)"/>
      <path d="M 102.636719 18.965625 
L 102.636719 25.215625 
L 205.763672 25.215625 
L 205.763672 18.965625 
L 102.636719 18.965625 
z
"/>
     </g>
    </g>
   </g>
  </g>
 </g>
 <defs>
  <clipPath id="p94938b98b3">
   <rect x="116.659375" y="7.2" width="725.4" height="609.84"/>
  </clipPath>
 </defs>
</svg>
