<?xml version="1.0" encoding="utf-8" standalone="no"?>
<!DOCTYPE svg PUBLIC "-//W3C//DTD SVG 1.1//EN"
  "http://www.w3.org/Graphics/SVG/1.1/DTD/svg11.dtd">
<svg xmlns:xlink="http://www.w3.org/1999/xlink" width="853.476562pt" height="698.147812pt" viewBox="0 0 853.476562 698.147812" xmlns="http://www.w3.org/2000/svg" version="1.1">
 <metadata>
  <rdf:RDF xmlns:dc="http://purl.org/dc/elements/1.1/" xmlns:cc="http://creativecommons.org/ns#" xmlns:rdf="http://www.w3.org/1999/02/22-rdf-syntax-ns#">
   <cc:Work>
    <dc:type rdf:resource="http://purl.org/dc/dcmitype/StillImage"/>
    <dc:date>2024-12-22T23:58:03.210905</dc:date>
    <dc:format>image/svg+xml</dc:format>
    <dc:creator>
     <cc:Agent>
      <dc:title>Matplotlib v3.10.0, https://matplotlib.org/</dc:title>
     </cc:Agent>
    </dc:creator>
   </cc:Work>
  </rdf:RDF>
 </metadata>
 <defs>
  <style type="text/css">*{stroke-linejoin: round; stroke-linecap: butt}</style>
 </defs>
 <g id="figure_1">
  <g id="patch_1">
   <path d="M 0 698.147812 
L 853.476562 698.147812 
L 853.476562 0 
L 0 0 
z
" style="fill: #ffffff"/>
  </g>
  <g id="axes_1">
   <g id="patch_2">
    <path d="M 120.876562 617.04 
L 846.276562 617.04 
L 846.276562 7.2 
L 120.876562 7.2 
z
" style="fill: #ffffff"/>
   </g>
   <g id="FillBetweenPolyCollection_1">
    <path d="M 134.309896 415.658973 
L 134.309896 406.596207 
L 152.567059 406.595868 
L 165.894906 406.595131 
L 175.624479 406.593888 
L 182.727463 406.59195 
L 187.913215 406.589063 
L 191.699606 406.584864 
L 194.464726 406.578884 
L 196.484635 406.570482 
L 197.960903 406.558546 
L 199.139634 406.541871 
L 200.308098 406.519021 
L 201.476562 406.488661 
L 202.674128 406.444181 
L 203.871694 406.36654 
L 205.06926 406.260849 
L 206.266826 406.149375 
L 207.464392 406.041515 
L 208.661958 405.937533 
L 209.859523 405.817251 
L 211.057089 405.708022 
L 212.254655 405.623372 
L 213.452221 405.523653 
L 214.649787 405.407833 
L 215.847353 405.285178 
L 217.044919 405.165988 
L 218.242484 405.049669 
L 219.44005 404.918152 
L 220.637616 404.788184 
L 221.835182 404.670796 
L 223.032748 404.542461 
L 224.230314 404.396165 
L 225.427879 404.236635 
L 226.625445 404.077674 
L 227.823011 403.923454 
L 229.020577 403.767214 
L 230.218143 403.605534 
L 231.415709 403.451583 
L 232.613275 403.298319 
L 233.81084 403.153904 
L 235.008406 403.011123 
L 236.205972 402.868883 
L 237.403538 402.731285 
L 238.601104 402.587334 
L 239.79867 402.445259 
L 240.996236 402.300943 
L 242.193801 402.155027 
L 243.391368 402.012437 
L 244.619104 401.863706 
L 245.890707 401.709429 
L 247.208067 401.547824 
L 248.573706 401.379121 
L 249.990208 401.209169 
L 251.459057 401.043136 
L 252.982022 400.877041 
L 254.561163 400.704882 
L 256.198748 400.531567 
L 257.896208 400.357349 
L 259.655314 400.17721 
L 261.478544 399.995413 
L 263.369226 399.811516 
L 265.331122 399.622667 
L 267.36334 399.423982 
L 269.470453 399.22005 
L 271.656299 399.01544 
L 273.921006 398.806568 
L 276.2704 398.592555 
L 278.705784 398.377041 
L 281.230049 398.163032 
L 283.848269 397.948132 
L 286.562756 397.722794 
L 289.376897 397.486131 
L 292.294557 397.235457 
L 295.319679 396.976227 
L 298.456173 396.704983 
L 301.708007 396.423072 
L 305.079477 396.130199 
L 308.575609 395.833838 
L 312.200297 395.540729 
L 315.958285 395.253776 
L 319.854889 394.963027 
L 323.895162 394.661114 
L 328.083938 394.354253 
L 332.42698 394.045193 
L 336.930143 393.718271 
L 341.599302 393.360602 
L 346.440359 392.983734 
L 351.43418 392.601139 
L 356.572003 392.219168 
L 361.898961 391.840348 
L 367.422518 391.473322 
L 373.149542 391.117636 
L 379.087661 390.713064 
L 385.244703 390.261832 
L 391.628634 389.810818 
L 398.247909 389.391237 
L 405.11131 388.984328 
L 412.227717 388.563171 
L 419.606417 388.154476 
L 427.25714 387.769357 
L 434.809999 387.396678 
L 440.446919 387.001562 
L 444.461175 386.589361 
L 447.32037 386.165713 
L 449.357305 385.72898 
L 450.808819 385.270647 
L 451.949586 384.761644 
L 453.08062 384.167471 
L 454.211655 383.484141 
L 455.342689 382.696887 
L 456.473723 381.784324 
L 457.604758 380.706339 
L 458.735792 379.461017 
L 459.866827 378.199813 
L 460.997861 368.353001 
L 461.822656 264.098843 
L 462.647452 183.715311 
L 463.472247 142.549207 
L 464.297043 101.405075 
L 465.121838 71.934231 
L 465.946633 53.159872 
L 466.771429 38.75492 
L 467.596224 31.84233 
L 468.421019 26.896235 
L 469.245815 25.27051 
L 470.07061 25.263994 
L 470.895405 26.183359 
L 471.720201 28.018058 
L 472.544996 30.573053 
L 473.369791 33.850731 
L 474.194587 37.241343 
L 475.019382 40.878134 
L 475.844178 44.501562 
L 476.668973 48.159868 
L 477.493768 51.790777 
L 478.318564 55.369704 
L 479.143359 58.822956 
L 479.968154 62.110225 
L 480.79295 65.222164 
L 481.617745 68.159966 
L 482.44254 70.944179 
L 483.267336 73.626077 
L 484.092131 76.139391 
L 484.916926 78.504432 
L 485.741722 80.726217 
L 486.566517 82.823899 
L 487.391313 84.770743 
L 488.216108 86.634689 
L 489.040903 88.39974 
L 489.865699 90.067769 
L 490.690494 91.643789 
L 491.515289 93.133584 
L 492.340085 94.573092 
L 493.16488 95.979712 
L 493.989675 97.382882 
L 494.814471 98.753406 
L 495.639266 100.104941 
L 496.464061 101.474868 
L 497.288857 102.850878 
L 498.122099 104.244359 
L 499.007063 105.66833 
L 499.9697 107.266098 
L 501.007641 109.067088 
L 502.135155 111.227966 
L 503.358982 114.018293 
L 504.684854 117.618152 
L 506.123963 122.094674 
L 507.689062 127.408399 
L 509.390461 133.26485 
L 511.240358 139.43381 
L 513.252384 145.354107 
L 515.441478 150.766558 
L 517.824204 155.398813 
L 520.417628 159.073135 
L 523.23759 161.641282 
L 526.306532 163.228945 
L 529.641427 164.045018 
L 533.265248 164.348447 
L 537.196927 164.394592 
L 541.455778 164.110545 
L 546.059243 163.192102 
L 551.018642 161.614939 
L 556.336594 159.186727 
L 561.996141 155.975804 
L 567.910137 152.402234 
L 573.848664 148.678278 
L 579.787191 144.847039 
L 585.725717 141.643191 
L 591.664244 138.954742 
L 597.60277 136.542937 
L 603.541297 134.672984 
L 609.479823 133.344623 
L 615.41835 132.664022 
L 621.356877 132.325692 
L 627.295403 131.960718 
L 633.23393 131.524576 
L 639.172456 131.309944 
L 645.110983 131.154858 
L 651.049509 132.056517 
L 659.445343 134.636998 
L 667.841176 136.801344 
L 676.237009 139.079471 
L 684.632843 141.288817 
L 693.028676 143.526185 
L 701.424509 145.989205 
L 709.820343 148.167599 
L 718.216176 150.28875 
L 726.612009 152.348047 
L 735.007843 154.319863 
L 743.403676 156.21491 
L 751.799509 157.967987 
L 760.195343 159.781005 
L 768.591176 161.467849 
L 776.987009 163.107694 
L 785.382843 164.623493 
L 793.778676 165.890673 
L 802.174509 167.077571 
L 810.570343 168.147691 
L 818.966176 169.090522 
L 827.362009 169.908663 
L 835.757843 170.570853 
L 844.153676 171.054071 
L 852.549509 171.53407 
L 852.549509 224.852436 
L 852.549509 224.852436 
L 844.153676 224.224205 
L 835.757843 223.518658 
L 827.362009 222.639121 
L 818.966176 221.622643 
L 810.570343 220.473861 
L 802.174509 219.191968 
L 793.778676 217.765087 
L 785.382843 216.245742 
L 776.987009 214.457761 
L 768.591176 212.536625 
L 760.195343 210.561702 
L 751.799509 208.455044 
L 743.403676 206.400416 
L 735.007843 204.199179 
L 726.612009 201.931906 
L 718.216176 199.583857 
L 709.820343 197.177777 
L 701.424509 194.712605 
L 693.028676 191.920776 
L 684.632843 189.111782 
L 676.237009 186.096408 
L 667.841176 183.171055 
L 659.445343 180.414004 
L 651.049509 177.116116 
L 645.110983 175.026778 
L 639.172456 175.139617 
L 633.23393 175.189607 
L 627.295403 175.334852 
L 621.356877 175.358425 
L 615.41835 175.330779 
L 609.479823 175.556048 
L 603.541297 176.31372 
L 597.60277 177.461892 
L 591.664244 179.021852 
L 585.725717 180.754897 
L 579.787191 182.909795 
L 573.848664 185.553331 
L 567.910137 187.984694 
L 561.996141 190.270527 
L 556.336594 192.424053 
L 551.018642 194.259013 
L 546.059243 195.527834 
L 541.455778 196.39377 
L 537.196927 196.567129 
L 533.265248 196.112944 
L 529.641427 195.029203 
L 526.306532 193.162441 
L 523.23759 190.438844 
L 520.417628 186.881079 
L 517.824204 182.472816 
L 515.441478 177.364456 
L 513.252384 171.701931 
L 511.240358 165.677256 
L 509.390461 159.507139 
L 507.689062 153.713259 
L 506.123963 148.509203 
L 504.684854 144.20768 
L 503.358982 140.822701 
L 502.135155 138.251533 
L 501.007641 136.275242 
L 499.9697 134.628571 
L 499.007063 133.166457 
L 498.122099 131.873312 
L 497.288857 130.627648 
L 496.464061 129.408579 
L 495.639266 128.214041 
L 494.814471 127.031904 
L 493.989675 125.853671 
L 493.16488 124.645761 
L 492.340085 123.44769 
L 491.515289 122.249552 
L 490.690494 121.024316 
L 489.865699 119.752966 
L 489.040903 118.450827 
L 488.216108 117.102969 
L 487.391313 115.736276 
L 486.566517 114.367781 
L 485.741722 112.946133 
L 484.916926 111.508809 
L 484.092131 110.055252 
L 483.267336 108.604351 
L 482.44254 107.155414 
L 481.617745 105.793246 
L 480.79295 104.477619 
L 479.968154 103.209474 
L 479.143359 102.00624 
L 478.318564 100.89106 
L 477.493768 99.916429 
L 476.668973 99.131232 
L 475.844178 98.58467 
L 475.019382 98.35168 
L 474.194587 98.525675 
L 473.369791 99.377879 
L 472.544996 100.942147 
L 471.720201 103.664069 
L 470.895405 107.691918 
L 470.07061 112.666857 
L 469.245815 119.189059 
L 468.421019 127.607136 
L 467.596224 139.393792 
L 466.771429 152.504623 
L 465.946633 171.876192 
L 465.121838 193.67135 
L 464.297043 220.651616 
L 463.472247 250.083572 
L 462.647452 269.457182 
L 461.822656 314.150447 
L 460.997861 397.671497 
L 459.866827 396.921193 
L 458.735792 398.672507 
L 457.604758 399.686345 
L 456.473723 399.998008 
L 455.342689 400.360326 
L 454.211655 400.729765 
L 453.08062 401.103564 
L 451.949586 401.466298 
L 450.808819 401.799255 
L 449.357305 402.118601 
L 447.32037 402.439844 
L 444.461175 402.759111 
L 440.446919 403.072141 
L 434.809999 403.365221 
L 427.25714 403.632624 
L 419.606417 403.904864 
L 412.227717 404.194373 
L 405.11131 404.485737 
L 398.247909 404.758725 
L 391.628634 405.033261 
L 385.244703 405.336188 
L 379.087661 405.632517 
L 373.149542 405.877862 
L 367.422518 406.073938 
L 361.898961 406.277067 
L 356.572003 406.494086 
L 351.43418 406.712891 
L 346.440359 406.936185 
L 341.599302 407.154884 
L 336.930143 407.359367 
L 332.42698 407.535126 
L 328.083938 407.697696 
L 323.895162 407.861744 
L 319.854889 408.026365 
L 315.958285 408.183815 
L 312.200297 408.342646 
L 308.575609 408.511801 
L 305.079477 408.688707 
L 301.708007 408.866381 
L 298.456173 409.036816 
L 295.319679 409.200278 
L 292.294557 409.35529 
L 289.376897 409.503519 
L 286.562756 409.641591 
L 283.848269 409.769897 
L 281.230049 409.891377 
L 278.705784 410.01429 
L 276.2704 410.140287 
L 273.921006 410.268697 
L 271.656299 410.392917 
L 269.470453 410.517574 
L 267.36334 410.643177 
L 265.331122 410.767196 
L 263.369226 410.88364 
L 261.478544 410.99755 
L 259.655314 411.111701 
L 257.896208 411.22657 
L 256.198748 411.337405 
L 254.561163 411.449524 
L 252.982022 411.562034 
L 251.459057 411.670151 
L 249.990208 411.779805 
L 248.573706 411.89433 
L 247.208067 412.00911 
L 245.890707 412.117356 
L 244.619104 412.219574 
L 243.391368 412.317114 
L 242.193801 412.409524 
L 240.996236 412.505546 
L 239.79867 412.600769 
L 238.601104 412.693275 
L 237.403538 412.788746 
L 236.205972 412.877448 
L 235.008406 412.971529 
L 233.81084 413.065681 
L 232.613275 413.162288 
L 231.415709 413.26722 
L 230.218143 413.374096 
L 229.020577 413.488668 
L 227.823011 413.598682 
L 226.625445 413.707251 
L 225.427879 413.821278 
L 224.230314 413.937281 
L 223.032748 414.040714 
L 221.835182 414.127819 
L 220.637616 414.205456 
L 219.44005 414.297273 
L 218.242484 414.392644 
L 217.044919 414.474602 
L 215.847353 414.561708 
L 214.649787 414.654226 
L 213.452221 414.742455 
L 212.254655 414.816885 
L 211.057089 414.878708 
L 209.859523 414.967657 
L 208.661958 415.070058 
L 207.464392 415.158752 
L 206.266826 415.253946 
L 205.06926 415.35535 
L 203.871694 415.452795 
L 202.674128 415.523457 
L 201.476562 415.562377 
L 200.308098 415.588776 
L 199.139634 415.60889 
L 197.960903 415.62374 
L 196.484635 415.634493 
L 194.464726 415.642178 
L 191.699606 415.647755 
L 187.913215 415.651768 
L 182.727463 415.654596 
L 175.624479 415.656547 
L 165.894906 415.657832 
L 152.567059 415.658609 
L 134.309896 415.658973 
z
" clip-path="url(#pd0486d9b7a)" style="fill: #99ccff; fill-opacity: 0.7"/>
   </g>
   <g id="FillBetweenPolyCollection_2">
    <defs>
     <path id="m81ea9d4d00" d="M 128.121809 -214.004972 
L 128.121809 -213.827645 
L 135.375897 -213.827789 
L 142.629986 -213.827934 
L 149.884074 -213.828079 
L 157.138163 -213.828399 
L 164.392251 -213.828822 
L 171.646339 -213.829669 
L 178.900428 -213.831094 
L 186.154516 -213.834015 
L 193.408605 -213.842433 
L 200.662693 -213.498284 
L 207.916781 -213.475306 
L 215.17087 -213.560222 
L 222.424958 -213.696891 
L 229.679047 -213.944585 
L 236.933135 -214.177452 
L 244.187224 -214.343496 
L 251.441312 -214.470784 
L 258.6954 -214.628335 
L 265.949489 -214.82806 
L 273.203577 -214.953717 
L 280.457666 -215.033412 
L 287.711754 -215.043759 
L 294.965843 -215.064323 
L 302.219931 -215.113179 
L 309.474019 -215.159141 
L 316.728108 -215.153502 
L 323.982196 -215.121741 
L 331.236285 -215.073179 
L 338.490373 -215.038826 
L 345.744461 -215.045753 
L 352.99855 -215.052497 
L 360.252638 -215.041001 
L 367.506727 -215.002537 
L 374.760815 -214.952395 
L 382.014904 -214.963163 
L 389.268992 -215.00104 
L 396.52308 -215.00797 
L 403.777169 -214.991443 
L 411.031257 -214.977413 
L 418.285346 -214.952279 
L 425.539434 -214.901588 
L 432.793523 -214.84387 
L 440.047611 -214.872511 
L 447.301699 -215.214628 
L 454.555788 -216.764339 
L 461.809876 -98.421882 
L 469.063965 -189.988564 
L 476.318053 -216.878246 
L 483.572141 -217.156534 
L 490.82623 -213.897306 
L 498.080318 -213.842058 
L 505.334407 -222.826598 
L 512.588495 -227.899407 
L 519.842584 -224.764662 
L 527.096672 -220.795039 
L 534.35076 -217.066412 
L 541.604849 -213.90619 
L 548.858937 -210.954544 
L 556.113026 -207.865844 
L 563.367114 -204.870577 
L 570.621203 -202.287793 
L 577.875291 -200.657005 
L 585.129379 -199.430346 
L 592.383468 -198.191764 
L 599.637556 -197.135433 
L 606.891645 -195.996526 
L 614.145733 -194.627919 
L 621.399821 -193.21458 
L 628.65391 -192.424017 
L 635.907998 -192.463764 
L 643.162087 -194.031959 
L 650.416175 -199.962327 
L 657.670264 -206.033639 
L 664.924352 -209.084694 
L 672.17844 -211.021092 
L 679.432529 -212.3752 
L 686.686617 -213.429557 
L 693.940706 -214.355567 
L 701.194794 -215.125782 
L 708.448883 -215.992034 
L 715.702971 -216.77971 
L 722.957059 -217.493234 
L 730.211148 -218.151846 
L 737.465236 -218.763027 
L 744.719325 -219.345851 
L 751.973413 -219.952794 
L 759.227501 -220.444747 
L 766.48159 -220.965651 
L 773.735678 -221.473975 
L 780.989767 -222.005908 
L 788.243855 -222.633061 
L 795.497944 -223.377653 
L 802.752032 -224.154424 
L 810.00612 -225.004949 
L 817.260209 -225.908129 
L 824.514297 -226.82554 
L 831.768386 -227.503179 
L 839.022474 -227.994649 
L 846.276562 -228.380731 
L 846.276562 -230.547282 
L 846.276562 -230.547282 
L 839.022474 -230.084367 
L 831.768386 -229.522601 
L 824.514297 -228.816162 
L 817.260209 -227.891171 
L 810.00612 -226.985667 
L 802.752032 -226.14081 
L 795.497944 -225.364486 
L 788.243855 -224.62376 
L 780.989767 -224.000963 
L 773.735678 -223.477256 
L 766.48159 -222.985771 
L 759.227501 -222.492161 
L 751.973413 -222.03907 
L 744.719325 -221.479008 
L 737.465236 -220.954643 
L 730.211148 -220.423192 
L 722.957059 -219.867375 
L 715.702971 -219.277122 
L 708.448883 -218.631214 
L 701.194794 -217.921238 
L 693.940706 -217.293314 
L 686.686617 -216.343765 
L 679.432529 -215.118926 
L 672.17844 -213.63976 
L 664.924352 -211.697755 
L 657.670264 -208.725159 
L 650.416175 -202.741188 
L 643.162087 -197.218538 
L 635.907998 -195.576306 
L 628.65391 -195.099964 
L 621.399821 -195.518964 
L 614.145733 -196.860112 
L 606.891645 -198.299566 
L 599.637556 -199.535339 
L 592.383468 -200.769807 
L 585.129379 -202.380432 
L 577.875291 -204.247361 
L 570.621203 -206.799966 
L 563.367114 -210.658536 
L 556.113026 -215.379673 
L 548.858937 -220.499557 
L 541.604849 -225.400668 
L 534.35076 -229.38585 
L 527.096672 -231.512102 
L 519.842584 -231.622094 
L 512.588495 -231.011058 
L 505.334407 -226.764186 
L 498.080318 -218.075768 
L 490.82623 -218.397968 
L 483.572141 -225.733497 
L 476.318053 -239.253014 
L 469.063965 -237.863405 
L 461.809876 -98.421882 
L 454.555788 -217.68895 
L 447.301699 -215.217508 
L 440.047611 -214.875724 
L 432.793523 -214.937968 
L 425.539434 -215.107193 
L 418.285346 -215.262607 
L 411.031257 -215.380619 
L 403.777169 -215.471583 
L 396.52308 -215.551828 
L 389.268992 -215.591413 
L 382.014904 -215.587444 
L 374.760815 -215.596563 
L 367.506727 -215.658203 
L 360.252638 -215.693212 
L 352.99855 -215.690154 
L 345.744461 -215.662714 
L 338.490373 -215.635008 
L 331.236285 -215.651318 
L 323.982196 -215.681058 
L 316.728108 -215.683174 
L 309.474019 -215.654657 
L 302.219931 -215.573287 
L 294.965843 -215.495577 
L 287.711754 -215.451753 
L 280.457666 -215.386997 
L 273.203577 -215.239566 
L 265.949489 -215.018565 
L 258.6954 -214.669937 
L 251.441312 -214.496709 
L 244.187224 -214.355648 
L 236.933135 -214.125328 
L 229.679047 -213.799895 
L 222.424958 -213.510078 
L 215.17087 -213.350522 
L 207.916781 -213.339695 
L 200.662693 -213.521703 
L 193.408605 -214.020126 
L 186.154516 -214.011252 
L 178.900428 -214.0083 
L 171.646339 -214.006898 
L 164.392251 -214.00608 
L 157.138163 -214.005679 
L 149.884074 -214.005377 
L 142.629986 -214.005242 
L 135.375897 -214.005107 
L 128.121809 -214.004972 
z
" style="stroke: #808080; stroke-opacity: 0.2"/>
    </defs>
    <g clip-path="url(#pd0486d9b7a)">
     <use xlink:href="#m81ea9d4d00" x="0" y="698.147812" style="fill: #808080; fill-opacity: 0.2; stroke: #808080; stroke-opacity: 0.2"/>
    </g>
   </g>
   <g id="matplotlib.axis_1">
    <g id="xtick_1">
     <g id="line2d_1">
      <path d="M 201.476562 617.04 
L 201.476562 7.2 
" clip-path="url(#pd0486d9b7a)" style="fill: none; stroke: #b0b0b0; stroke-width: 0.8; stroke-linecap: square"/>
     </g>
     <g id="line2d_2">
      <defs>
       <path id="m9f99b6ac5e" d="M 0 0 
L 0 3.5 
" style="stroke: #000000; stroke-width: 0.8"/>
      </defs>
      <g>
       <use xlink:href="#m9f99b6ac5e" x="201.476562" y="617.04" style="stroke: #000000; stroke-width: 0.8"/>
      </g>
     </g>
     <g id="text_1">
      <!-- 0.0 -->
      <g transform="translate(177.621875 646.835312) scale(0.3 -0.3)">
       <defs>
        <path id="DejaVuSans-30" d="M 2034 4250 
Q 1547 4250 1301 3770 
Q 1056 3291 1056 2328 
Q 1056 1369 1301 889 
Q 1547 409 2034 409 
Q 2525 409 2770 889 
Q 3016 1369 3016 2328 
Q 3016 3291 2770 3770 
Q 2525 4250 2034 4250 
z
M 2034 4750 
Q 2819 4750 3233 4129 
Q 3647 3509 3647 2328 
Q 3647 1150 3233 529 
Q 2819 -91 2034 -91 
Q 1250 -91 836 529 
Q 422 1150 422 2328 
Q 422 3509 836 4129 
Q 1250 4750 2034 4750 
z
" transform="scale(0.015625)"/>
        <path id="DejaVuSans-2e" d="M 684 794 
L 1344 794 
L 1344 0 
L 684 0 
L 684 794 
z
" transform="scale(0.015625)"/>
       </defs>
       <use xlink:href="#DejaVuSans-30"/>
       <use xlink:href="#DejaVuSans-2e" transform="translate(63.623047 0)"/>
       <use xlink:href="#DejaVuSans-30" transform="translate(95.410156 0)"/>
      </g>
     </g>
    </g>
    <g id="xtick_2">
     <g id="line2d_3">
      <path d="M 335.809896 617.04 
L 335.809896 7.2 
" clip-path="url(#pd0486d9b7a)" style="fill: none; stroke: #b0b0b0; stroke-width: 0.8; stroke-linecap: square"/>
     </g>
     <g id="line2d_4">
      <g>
       <use xlink:href="#m9f99b6ac5e" x="335.809896" y="617.04" style="stroke: #000000; stroke-width: 0.8"/>
      </g>
     </g>
     <g id="text_2">
      <!-- 0.1 -->
      <g transform="translate(311.955208 646.835312) scale(0.3 -0.3)">
       <defs>
        <path id="DejaVuSans-31" d="M 794 531 
L 1825 531 
L 1825 4091 
L 703 3866 
L 703 4441 
L 1819 4666 
L 2450 4666 
L 2450 531 
L 3481 531 
L 3481 0 
L 794 0 
L 794 531 
z
" transform="scale(0.015625)"/>
       </defs>
       <use xlink:href="#DejaVuSans-30"/>
       <use xlink:href="#DejaVuSans-2e" transform="translate(63.623047 0)"/>
       <use xlink:href="#DejaVuSans-31" transform="translate(95.410156 0)"/>
      </g>
     </g>
    </g>
    <g id="xtick_3">
     <g id="line2d_5">
      <path d="M 470.143229 617.04 
L 470.143229 7.2 
" clip-path="url(#pd0486d9b7a)" style="fill: none; stroke: #b0b0b0; stroke-width: 0.8; stroke-linecap: square"/>
     </g>
     <g id="line2d_6">
      <g>
       <use xlink:href="#m9f99b6ac5e" x="470.143229" y="617.04" style="stroke: #000000; stroke-width: 0.8"/>
      </g>
     </g>
     <g id="text_3">
      <!-- 0.2 -->
      <g transform="translate(446.288542 646.835312) scale(0.3 -0.3)">
       <defs>
        <path id="DejaVuSans-32" d="M 1228 531 
L 3431 531 
L 3431 0 
L 469 0 
L 469 531 
Q 828 903 1448 1529 
Q 2069 2156 2228 2338 
Q 2531 2678 2651 2914 
Q 2772 3150 2772 3378 
Q 2772 3750 2511 3984 
Q 2250 4219 1831 4219 
Q 1534 4219 1204 4116 
Q 875 4013 500 3803 
L 500 4441 
Q 881 4594 1212 4672 
Q 1544 4750 1819 4750 
Q 2544 4750 2975 4387 
Q 3406 4025 3406 3419 
Q 3406 3131 3298 2873 
Q 3191 2616 2906 2266 
Q 2828 2175 2409 1742 
Q 1991 1309 1228 531 
z
" transform="scale(0.015625)"/>
       </defs>
       <use xlink:href="#DejaVuSans-30"/>
       <use xlink:href="#DejaVuSans-2e" transform="translate(63.623047 0)"/>
       <use xlink:href="#DejaVuSans-32" transform="translate(95.410156 0)"/>
      </g>
     </g>
    </g>
    <g id="xtick_4">
     <g id="line2d_7">
      <path d="M 604.476562 617.04 
L 604.476562 7.2 
" clip-path="url(#pd0486d9b7a)" style="fill: none; stroke: #b0b0b0; stroke-width: 0.8; stroke-linecap: square"/>
     </g>
     <g id="line2d_8">
      <g>
       <use xlink:href="#m9f99b6ac5e" x="604.476562" y="617.04" style="stroke: #000000; stroke-width: 0.8"/>
      </g>
     </g>
     <g id="text_4">
      <!-- 0.3 -->
      <g transform="translate(580.621875 646.835312) scale(0.3 -0.3)">
       <defs>
        <path id="DejaVuSans-33" d="M 2597 2516 
Q 3050 2419 3304 2112 
Q 3559 1806 3559 1356 
Q 3559 666 3084 287 
Q 2609 -91 1734 -91 
Q 1441 -91 1130 -33 
Q 819 25 488 141 
L 488 750 
Q 750 597 1062 519 
Q 1375 441 1716 441 
Q 2309 441 2620 675 
Q 2931 909 2931 1356 
Q 2931 1769 2642 2001 
Q 2353 2234 1838 2234 
L 1294 2234 
L 1294 2753 
L 1863 2753 
Q 2328 2753 2575 2939 
Q 2822 3125 2822 3475 
Q 2822 3834 2567 4026 
Q 2313 4219 1838 4219 
Q 1578 4219 1281 4162 
Q 984 4106 628 3988 
L 628 4550 
Q 988 4650 1302 4700 
Q 1616 4750 1894 4750 
Q 2613 4750 3031 4423 
Q 3450 4097 3450 3541 
Q 3450 3153 3228 2886 
Q 3006 2619 2597 2516 
z
" transform="scale(0.015625)"/>
       </defs>
       <use xlink:href="#DejaVuSans-30"/>
       <use xlink:href="#DejaVuSans-2e" transform="translate(63.623047 0)"/>
       <use xlink:href="#DejaVuSans-33" transform="translate(95.410156 0)"/>
      </g>
     </g>
    </g>
    <g id="xtick_5">
     <g id="line2d_9">
      <path d="M 738.809896 617.04 
L 738.809896 7.2 
" clip-path="url(#pd0486d9b7a)" style="fill: none; stroke: #b0b0b0; stroke-width: 0.8; stroke-linecap: square"/>
     </g>
     <g id="line2d_10">
      <g>
       <use xlink:href="#m9f99b6ac5e" x="738.809896" y="617.04" style="stroke: #000000; stroke-width: 0.8"/>
      </g>
     </g>
     <g id="text_5">
      <!-- 0.4 -->
      <g transform="translate(714.955208 646.835312) scale(0.3 -0.3)">
       <defs>
        <path id="DejaVuSans-34" d="M 2419 4116 
L 825 1625 
L 2419 1625 
L 2419 4116 
z
M 2253 4666 
L 3047 4666 
L 3047 1625 
L 3713 1625 
L 3713 1100 
L 3047 1100 
L 3047 0 
L 2419 0 
L 2419 1100 
L 313 1100 
L 313 1709 
L 2253 4666 
z
" transform="scale(0.015625)"/>
       </defs>
       <use xlink:href="#DejaVuSans-30"/>
       <use xlink:href="#DejaVuSans-2e" transform="translate(63.623047 0)"/>
       <use xlink:href="#DejaVuSans-34" transform="translate(95.410156 0)"/>
      </g>
     </g>
    </g>
    <g id="text_6">
     <!-- X coordinate [m] -->
     <g transform="translate(336.423437 683.668906) scale(0.35 -0.35)">
      <defs>
       <path id="DejaVuSans-58" d="M 403 4666 
L 1081 4666 
L 2241 2931 
L 3406 4666 
L 4084 4666 
L 2584 2425 
L 4184 0 
L 3506 0 
L 2194 1984 
L 872 0 
L 191 0 
L 1856 2491 
L 403 4666 
z
" transform="scale(0.015625)"/>
       <path id="DejaVuSans-20" transform="scale(0.015625)"/>
       <path id="DejaVuSans-63" d="M 3122 3366 
L 3122 2828 
Q 2878 2963 2633 3030 
Q 2388 3097 2138 3097 
Q 1578 3097 1268 2742 
Q 959 2388 959 1747 
Q 959 1106 1268 751 
Q 1578 397 2138 397 
Q 2388 397 2633 464 
Q 2878 531 3122 666 
L 3122 134 
Q 2881 22 2623 -34 
Q 2366 -91 2075 -91 
Q 1284 -91 818 406 
Q 353 903 353 1747 
Q 353 2603 823 3093 
Q 1294 3584 2113 3584 
Q 2378 3584 2631 3529 
Q 2884 3475 3122 3366 
z
" transform="scale(0.015625)"/>
       <path id="DejaVuSans-6f" d="M 1959 3097 
Q 1497 3097 1228 2736 
Q 959 2375 959 1747 
Q 959 1119 1226 758 
Q 1494 397 1959 397 
Q 2419 397 2687 759 
Q 2956 1122 2956 1747 
Q 2956 2369 2687 2733 
Q 2419 3097 1959 3097 
z
M 1959 3584 
Q 2709 3584 3137 3096 
Q 3566 2609 3566 1747 
Q 3566 888 3137 398 
Q 2709 -91 1959 -91 
Q 1206 -91 779 398 
Q 353 888 353 1747 
Q 353 2609 779 3096 
Q 1206 3584 1959 3584 
z
" transform="scale(0.015625)"/>
       <path id="DejaVuSans-72" d="M 2631 2963 
Q 2534 3019 2420 3045 
Q 2306 3072 2169 3072 
Q 1681 3072 1420 2755 
Q 1159 2438 1159 1844 
L 1159 0 
L 581 0 
L 581 3500 
L 1159 3500 
L 1159 2956 
Q 1341 3275 1631 3429 
Q 1922 3584 2338 3584 
Q 2397 3584 2469 3576 
Q 2541 3569 2628 3553 
L 2631 2963 
z
" transform="scale(0.015625)"/>
       <path id="DejaVuSans-64" d="M 2906 2969 
L 2906 4863 
L 3481 4863 
L 3481 0 
L 2906 0 
L 2906 525 
Q 2725 213 2448 61 
Q 2172 -91 1784 -91 
Q 1150 -91 751 415 
Q 353 922 353 1747 
Q 353 2572 751 3078 
Q 1150 3584 1784 3584 
Q 2172 3584 2448 3432 
Q 2725 3281 2906 2969 
z
M 947 1747 
Q 947 1113 1208 752 
Q 1469 391 1925 391 
Q 2381 391 2643 752 
Q 2906 1113 2906 1747 
Q 2906 2381 2643 2742 
Q 2381 3103 1925 3103 
Q 1469 3103 1208 2742 
Q 947 2381 947 1747 
z
" transform="scale(0.015625)"/>
       <path id="DejaVuSans-69" d="M 603 3500 
L 1178 3500 
L 1178 0 
L 603 0 
L 603 3500 
z
M 603 4863 
L 1178 4863 
L 1178 4134 
L 603 4134 
L 603 4863 
z
" transform="scale(0.015625)"/>
       <path id="DejaVuSans-6e" d="M 3513 2113 
L 3513 0 
L 2938 0 
L 2938 2094 
Q 2938 2591 2744 2837 
Q 2550 3084 2163 3084 
Q 1697 3084 1428 2787 
Q 1159 2491 1159 1978 
L 1159 0 
L 581 0 
L 581 3500 
L 1159 3500 
L 1159 2956 
Q 1366 3272 1645 3428 
Q 1925 3584 2291 3584 
Q 2894 3584 3203 3211 
Q 3513 2838 3513 2113 
z
" transform="scale(0.015625)"/>
       <path id="DejaVuSans-61" d="M 2194 1759 
Q 1497 1759 1228 1600 
Q 959 1441 959 1056 
Q 959 750 1161 570 
Q 1363 391 1709 391 
Q 2188 391 2477 730 
Q 2766 1069 2766 1631 
L 2766 1759 
L 2194 1759 
z
M 3341 1997 
L 3341 0 
L 2766 0 
L 2766 531 
Q 2569 213 2275 61 
Q 1981 -91 1556 -91 
Q 1019 -91 701 211 
Q 384 513 384 1019 
Q 384 1609 779 1909 
Q 1175 2209 1959 2209 
L 2766 2209 
L 2766 2266 
Q 2766 2663 2505 2880 
Q 2244 3097 1772 3097 
Q 1472 3097 1187 3025 
Q 903 2953 641 2809 
L 641 3341 
Q 956 3463 1253 3523 
Q 1550 3584 1831 3584 
Q 2591 3584 2966 3190 
Q 3341 2797 3341 1997 
z
" transform="scale(0.015625)"/>
       <path id="DejaVuSans-74" d="M 1172 4494 
L 1172 3500 
L 2356 3500 
L 2356 3053 
L 1172 3053 
L 1172 1153 
Q 1172 725 1289 603 
Q 1406 481 1766 481 
L 2356 481 
L 2356 0 
L 1766 0 
Q 1100 0 847 248 
Q 594 497 594 1153 
L 594 3053 
L 172 3053 
L 172 3500 
L 594 3500 
L 594 4494 
L 1172 4494 
z
" transform="scale(0.015625)"/>
       <path id="DejaVuSans-65" d="M 3597 1894 
L 3597 1613 
L 953 1613 
Q 991 1019 1311 708 
Q 1631 397 2203 397 
Q 2534 397 2845 478 
Q 3156 559 3463 722 
L 3463 178 
Q 3153 47 2828 -22 
Q 2503 -91 2169 -91 
Q 1331 -91 842 396 
Q 353 884 353 1716 
Q 353 2575 817 3079 
Q 1281 3584 2069 3584 
Q 2775 3584 3186 3129 
Q 3597 2675 3597 1894 
z
M 3022 2063 
Q 3016 2534 2758 2815 
Q 2500 3097 2075 3097 
Q 1594 3097 1305 2825 
Q 1016 2553 972 2059 
L 3022 2063 
z
" transform="scale(0.015625)"/>
       <path id="DejaVuSans-5b" d="M 550 4863 
L 1875 4863 
L 1875 4416 
L 1125 4416 
L 1125 -397 
L 1875 -397 
L 1875 -844 
L 550 -844 
L 550 4863 
z
" transform="scale(0.015625)"/>
       <path id="DejaVuSans-6d" d="M 3328 2828 
Q 3544 3216 3844 3400 
Q 4144 3584 4550 3584 
Q 5097 3584 5394 3201 
Q 5691 2819 5691 2113 
L 5691 0 
L 5113 0 
L 5113 2094 
Q 5113 2597 4934 2840 
Q 4756 3084 4391 3084 
Q 3944 3084 3684 2787 
Q 3425 2491 3425 1978 
L 3425 0 
L 2847 0 
L 2847 2094 
Q 2847 2600 2669 2842 
Q 2491 3084 2119 3084 
Q 1678 3084 1418 2786 
Q 1159 2488 1159 1978 
L 1159 0 
L 581 0 
L 581 3500 
L 1159 3500 
L 1159 2956 
Q 1356 3278 1631 3431 
Q 1906 3584 2284 3584 
Q 2666 3584 2933 3390 
Q 3200 3197 3328 2828 
z
" transform="scale(0.015625)"/>
       <path id="DejaVuSans-5d" d="M 1947 4863 
L 1947 -844 
L 622 -844 
L 622 -397 
L 1369 -397 
L 1369 4416 
L 622 4416 
L 622 4863 
L 1947 4863 
z
" transform="scale(0.015625)"/>
      </defs>
      <use xlink:href="#DejaVuSans-58"/>
      <use xlink:href="#DejaVuSans-20" transform="translate(68.505859 0)"/>
      <use xlink:href="#DejaVuSans-63" transform="translate(100.292969 0)"/>
      <use xlink:href="#DejaVuSans-6f" transform="translate(155.273438 0)"/>
      <use xlink:href="#DejaVuSans-6f" transform="translate(216.455078 0)"/>
      <use xlink:href="#DejaVuSans-72" transform="translate(277.636719 0)"/>
      <use xlink:href="#DejaVuSans-64" transform="translate(317 0)"/>
      <use xlink:href="#DejaVuSans-69" transform="translate(380.476562 0)"/>
      <use xlink:href="#DejaVuSans-6e" transform="translate(408.259766 0)"/>
      <use xlink:href="#DejaVuSans-61" transform="translate(471.638672 0)"/>
      <use xlink:href="#DejaVuSans-74" transform="translate(532.917969 0)"/>
      <use xlink:href="#DejaVuSans-65" transform="translate(572.126953 0)"/>
      <use xlink:href="#DejaVuSans-20" transform="translate(633.650391 0)"/>
      <use xlink:href="#DejaVuSans-5b" transform="translate(665.4375 0)"/>
      <use xlink:href="#DejaVuSans-6d" transform="translate(704.451172 0)"/>
      <use xlink:href="#DejaVuSans-5d" transform="translate(801.863281 0)"/>
     </g>
    </g>
   </g>
   <g id="matplotlib.axis_2">
    <g id="ytick_1">
     <g id="line2d_11">
      <path d="M 120.876562 561.250221 
L 846.276562 561.250221 
" clip-path="url(#pd0486d9b7a)" style="fill: none; stroke: #b0b0b0; stroke-width: 0.8; stroke-linecap: square"/>
     </g>
     <g id="line2d_12">
      <defs>
       <path id="m19cf3f7f4d" d="M 0 0 
L -3.5 0 
" style="stroke: #000000; stroke-width: 0.8"/>
      </defs>
      <g>
       <use xlink:href="#m19cf3f7f4d" x="120.876562" y="561.250221" style="stroke: #000000; stroke-width: 0.8"/>
      </g>
     </g>
     <g id="text_7">
      <!-- −1 -->
      <g transform="translate(69.65 572.647877) scale(0.3 -0.3)">
       <defs>
        <path id="DejaVuSans-2212" d="M 678 2272 
L 4684 2272 
L 4684 1741 
L 678 1741 
L 678 2272 
z
" transform="scale(0.015625)"/>
       </defs>
       <use xlink:href="#DejaVuSans-2212"/>
       <use xlink:href="#DejaVuSans-31" transform="translate(83.789062 0)"/>
      </g>
     </g>
    </g>
    <g id="ytick_2">
     <g id="line2d_13">
      <path d="M 120.876562 484.298801 
L 846.276562 484.298801 
" clip-path="url(#pd0486d9b7a)" style="fill: none; stroke: #b0b0b0; stroke-width: 0.8; stroke-linecap: square"/>
     </g>
     <g id="line2d_14">
      <g>
       <use xlink:href="#m19cf3f7f4d" x="120.876562" y="484.298801" style="stroke: #000000; stroke-width: 0.8"/>
      </g>
     </g>
     <g id="text_8">
      <!-- 0 -->
      <g transform="translate(94.789062 495.696458) scale(0.3 -0.3)">
       <use xlink:href="#DejaVuSans-30"/>
      </g>
     </g>
    </g>
    <g id="ytick_3">
     <g id="line2d_15">
      <path d="M 120.876562 407.347382 
L 846.276562 407.347382 
" clip-path="url(#pd0486d9b7a)" style="fill: none; stroke: #b0b0b0; stroke-width: 0.8; stroke-linecap: square"/>
     </g>
     <g id="line2d_16">
      <g>
       <use xlink:href="#m19cf3f7f4d" x="120.876562" y="407.347382" style="stroke: #000000; stroke-width: 0.8"/>
      </g>
     </g>
     <g id="text_9">
      <!-- 1 -->
      <g transform="translate(94.789062 418.745038) scale(0.3 -0.3)">
       <use xlink:href="#DejaVuSans-31"/>
      </g>
     </g>
    </g>
    <g id="ytick_4">
     <g id="line2d_17">
      <path d="M 120.876562 330.395962 
L 846.276562 330.395962 
" clip-path="url(#pd0486d9b7a)" style="fill: none; stroke: #b0b0b0; stroke-width: 0.8; stroke-linecap: square"/>
     </g>
     <g id="line2d_18">
      <g>
       <use xlink:href="#m19cf3f7f4d" x="120.876562" y="330.395962" style="stroke: #000000; stroke-width: 0.8"/>
      </g>
     </g>
     <g id="text_10">
      <!-- 2 -->
      <g transform="translate(94.789062 341.793618) scale(0.3 -0.3)">
       <use xlink:href="#DejaVuSans-32"/>
      </g>
     </g>
    </g>
    <g id="ytick_5">
     <g id="line2d_19">
      <path d="M 120.876562 253.444543 
L 846.276562 253.444543 
" clip-path="url(#pd0486d9b7a)" style="fill: none; stroke: #b0b0b0; stroke-width: 0.8; stroke-linecap: square"/>
     </g>
     <g id="line2d_20">
      <g>
       <use xlink:href="#m19cf3f7f4d" x="120.876562" y="253.444543" style="stroke: #000000; stroke-width: 0.8"/>
      </g>
     </g>
     <g id="text_11">
      <!-- 3 -->
      <g transform="translate(94.789062 264.842199) scale(0.3 -0.3)">
       <use xlink:href="#DejaVuSans-33"/>
      </g>
     </g>
    </g>
    <g id="ytick_6">
     <g id="line2d_21">
      <path d="M 120.876562 176.493123 
L 846.276562 176.493123 
" clip-path="url(#pd0486d9b7a)" style="fill: none; stroke: #b0b0b0; stroke-width: 0.8; stroke-linecap: square"/>
     </g>
     <g id="line2d_22">
      <g>
       <use xlink:href="#m19cf3f7f4d" x="120.876562" y="176.493123" style="stroke: #000000; stroke-width: 0.8"/>
      </g>
     </g>
     <g id="text_12">
      <!-- 4 -->
      <g transform="translate(94.789062 187.890779) scale(0.3 -0.3)">
       <use xlink:href="#DejaVuSans-34"/>
      </g>
     </g>
    </g>
    <g id="ytick_7">
     <g id="line2d_23">
      <path d="M 120.876562 99.541703 
L 846.276562 99.541703 
" clip-path="url(#pd0486d9b7a)" style="fill: none; stroke: #b0b0b0; stroke-width: 0.8; stroke-linecap: square"/>
     </g>
     <g id="line2d_24">
      <g>
       <use xlink:href="#m19cf3f7f4d" x="120.876562" y="99.541703" style="stroke: #000000; stroke-width: 0.8"/>
      </g>
     </g>
     <g id="text_13">
      <!-- 5 -->
      <g transform="translate(94.789062 110.93936) scale(0.3 -0.3)">
       <defs>
        <path id="DejaVuSans-35" d="M 691 4666 
L 3169 4666 
L 3169 4134 
L 1269 4134 
L 1269 2991 
Q 1406 3038 1543 3061 
Q 1681 3084 1819 3084 
Q 2600 3084 3056 2656 
Q 3513 2228 3513 1497 
Q 3513 744 3044 326 
Q 2575 -91 1722 -91 
Q 1428 -91 1123 -41 
Q 819 9 494 109 
L 494 744 
Q 775 591 1075 516 
Q 1375 441 1709 441 
Q 2250 441 2565 725 
Q 2881 1009 2881 1497 
Q 2881 1984 2565 2268 
Q 2250 2553 1709 2553 
Q 1456 2553 1204 2497 
Q 953 2441 691 2322 
L 691 4666 
z
" transform="scale(0.015625)"/>
       </defs>
       <use xlink:href="#DejaVuSans-35"/>
      </g>
     </g>
    </g>
    <g id="ytick_8">
     <g id="line2d_25">
      <path d="M 120.876562 22.590284 
L 846.276562 22.590284 
" clip-path="url(#pd0486d9b7a)" style="fill: none; stroke: #b0b0b0; stroke-width: 0.8; stroke-linecap: square"/>
     </g>
     <g id="line2d_26">
      <g>
       <use xlink:href="#m19cf3f7f4d" x="120.876562" y="22.590284" style="stroke: #000000; stroke-width: 0.8"/>
      </g>
     </g>
     <g id="text_14">
      <!-- 6 -->
      <g transform="translate(94.789062 33.98794) scale(0.3 -0.3)">
       <defs>
        <path id="DejaVuSans-36" d="M 2113 2584 
Q 1688 2584 1439 2293 
Q 1191 2003 1191 1497 
Q 1191 994 1439 701 
Q 1688 409 2113 409 
Q 2538 409 2786 701 
Q 3034 994 3034 1497 
Q 3034 2003 2786 2293 
Q 2538 2584 2113 2584 
z
M 3366 4563 
L 3366 3988 
Q 3128 4100 2886 4159 
Q 2644 4219 2406 4219 
Q 1781 4219 1451 3797 
Q 1122 3375 1075 2522 
Q 1259 2794 1537 2939 
Q 1816 3084 2150 3084 
Q 2853 3084 3261 2657 
Q 3669 2231 3669 1497 
Q 3669 778 3244 343 
Q 2819 -91 2113 -91 
Q 1303 -91 875 529 
Q 447 1150 447 2328 
Q 447 3434 972 4092 
Q 1497 4750 2381 4750 
Q 2619 4750 2861 4703 
Q 3103 4656 3366 4563 
z
" transform="scale(0.015625)"/>
       </defs>
       <use xlink:href="#DejaVuSans-36"/>
      </g>
     </g>
    </g>
    <g id="text_15">
     <!-- $\frac{T_{ve}}{T_{{ve}_\infty}}$ [-] -->
     <g transform="translate(45 363.395) rotate(-90) scale(0.35 -0.35)">
      <defs>
       <path id="DejaVuSans-Oblique-54" d="M 378 4666 
L 4325 4666 
L 4225 4134 
L 2559 4134 
L 1759 0 
L 1125 0 
L 1925 4134 
L 275 4134 
L 378 4666 
z
" transform="scale(0.015625)"/>
       <path id="DejaVuSans-Oblique-76" d="M 459 3500 
L 1069 3500 
L 1581 525 
L 3256 3500 
L 3866 3500 
L 1875 0 
L 1100 0 
L 459 3500 
z
" transform="scale(0.015625)"/>
       <path id="DejaVuSans-Oblique-65" d="M 3078 2063 
Q 3088 2113 3092 2166 
Q 3097 2219 3097 2272 
Q 3097 2653 2873 2875 
Q 2650 3097 2266 3097 
Q 1838 3097 1509 2826 
Q 1181 2556 1013 2059 
L 3078 2063 
z
M 3578 1613 
L 903 1613 
Q 884 1494 878 1425 
Q 872 1356 872 1306 
Q 872 872 1139 634 
Q 1406 397 1894 397 
Q 2269 397 2603 481 
Q 2938 566 3225 728 
L 3116 159 
Q 2806 34 2476 -28 
Q 2147 -91 1806 -91 
Q 1078 -91 686 257 
Q 294 606 294 1247 
Q 294 1794 489 2264 
Q 684 2734 1063 3103 
Q 1306 3334 1642 3459 
Q 1978 3584 2356 3584 
Q 2950 3584 3301 3228 
Q 3653 2872 3653 2272 
Q 3653 2128 3634 1964 
Q 3616 1800 3578 1613 
z
" transform="scale(0.015625)"/>
       <path id="DejaVuSans-221e" d="M 2916 1091 
Q 2819 1203 2666 1466 
Q 2456 1091 2272 925 
Q 2041 725 1681 725 
Q 1259 725 981 1041 
Q 688 1372 688 1919 
Q 688 2444 981 2800 
Q 1244 3116 1688 3116 
Q 1916 3116 2084 3022 
Q 2281 2919 2416 2741 
Q 2541 2581 2666 2366 
Q 2875 2741 3059 2906 
Q 3291 3106 3650 3106 
Q 4072 3106 4350 2791 
Q 4644 2459 4644 1913 
Q 4644 1388 4350 1031 
Q 4088 716 3644 716 
Q 3416 716 3247 809 
Q 3078 894 2916 1091 
z
M 1647 1134 
Q 2163 1134 2472 1884 
Q 2075 2703 1647 2703 
Q 1334 2703 1175 2478 
Q 1003 2238 1003 1919 
Q 1003 1569 1175 1353 
Q 1350 1134 1647 1134 
z
M 3684 2697 
Q 3219 2697 2859 1947 
Q 3253 1128 3684 1128 
Q 3997 1128 4156 1353 
Q 4328 1594 4328 1913 
Q 4328 2263 4156 2478 
Q 3981 2697 3684 2697 
z
" transform="scale(0.015625)"/>
       <path id="DejaVuSans-2d" d="M 313 2009 
L 1997 2009 
L 1997 1497 
L 313 1497 
L 313 2009 
z
" transform="scale(0.015625)"/>
      </defs>
      <use xlink:href="#DejaVuSans-Oblique-54" transform="translate(15 56.965625) scale(0.7)"/>
      <use xlink:href="#DejaVuSans-Oblique-76" transform="translate(57.758789 45.48125) scale(0.49)"/>
      <use xlink:href="#DejaVuSans-Oblique-65" transform="translate(86.756836 45.48125) scale(0.49)"/>
      <use xlink:href="#DejaVuSans-Oblique-54" transform="translate(0 -37.499844) scale(0.7)"/>
      <use xlink:href="#DejaVuSans-Oblique-76" transform="translate(42.758789 -48.984219) scale(0.49)"/>
      <use xlink:href="#DejaVuSans-Oblique-65" transform="translate(71.756836 -48.984219) scale(0.49)"/>
      <use xlink:href="#DejaVuSans-221e" transform="translate(101.90332 -57.023281) scale(0.343)"/>
      <use xlink:href="#DejaVuSans-20" transform="translate(146.229395 0.987656)"/>
      <use xlink:href="#DejaVuSans-5b" transform="translate(178.016504 0.987656)"/>
      <use xlink:href="#DejaVuSans-2d" transform="translate(217.030176 0.987656)"/>
      <use xlink:href="#DejaVuSans-5d" transform="translate(253.11416 0.987656)"/>
      <path d="M 0 19.784531 
L 0 26.034531 
L 133.729395 26.034531 
L 133.729395 19.784531 
L 0 19.784531 
z
"/>
     </g>
    </g>
   </g>
   <g id="line2d_27">
    <path d="M 134.309896 411.12759 
L 201.476562 411.025519 
L 205.06926 410.8081 
L 231.415709 408.359402 
L 244.619104 407.04164 
L 257.896208 405.79196 
L 273.921006 404.537633 
L 295.319679 403.088252 
L 319.854889 401.494696 
L 398.247909 397.074981 
L 427.25714 395.700991 
L 440.446919 395.036851 
L 444.461175 394.674236 
L 447.32037 394.302778 
L 449.357305 393.92379 
L 450.808819 393.534951 
L 453.08062 392.635518 
L 455.342689 391.528606 
L 457.604758 390.196342 
L 458.735792 389.066762 
L 459.866827 387.560503 
L 460.997861 383.012249 
L 461.822656 289.124645 
L 462.647452 226.586247 
L 463.472247 196.31639 
L 464.297043 161.028345 
L 465.121838 132.802791 
L 465.946633 112.518032 
L 466.771429 95.629772 
L 467.596224 85.618061 
L 468.421019 77.251686 
L 469.245815 72.229785 
L 470.07061 68.965425 
L 470.895405 66.937639 
L 471.720201 65.841064 
L 472.544996 65.7576 
L 473.369791 66.614305 
L 474.194587 67.883509 
L 475.844178 71.543116 
L 478.318564 78.130382 
L 481.617745 86.976606 
L 484.916926 95.00662 
L 487.391313 100.25351 
L 489.865699 104.910367 
L 492.340085 109.010391 
L 501.007641 122.671165 
L 502.135155 124.739749 
L 503.358982 127.420497 
L 504.684854 130.912916 
L 506.123963 135.301938 
L 511.240358 152.555533 
L 513.252384 158.528019 
L 515.441478 164.065507 
L 517.824204 168.935815 
L 520.417628 172.977107 
L 523.23759 176.040063 
L 526.306532 178.195693 
L 529.641427 179.537111 
L 533.265248 180.230695 
L 537.196927 180.48086 
L 541.455778 180.252157 
L 546.059243 179.359968 
L 551.018642 177.936976 
L 556.336594 175.80539 
L 561.996141 173.123165 
L 567.910137 170.193464 
L 573.848664 167.115804 
L 579.787191 163.878417 
L 585.725717 161.199044 
L 591.664244 158.988297 
L 597.60277 157.002415 
L 603.541297 155.493352 
L 609.479823 154.450335 
L 615.41835 153.9974 
L 627.295403 153.647785 
L 633.23393 153.357092 
L 645.110983 153.090818 
L 651.049509 154.586317 
L 659.445343 157.525501 
L 667.841176 159.9862 
L 701.424509 170.350905 
L 718.216176 174.936304 
L 735.007843 179.259521 
L 743.403676 181.307663 
L 768.591176 187.002237 
L 776.987009 188.782728 
L 785.382843 190.434618 
L 802.174509 193.134769 
L 810.570343 194.310776 
L 818.966176 195.356582 
L 827.362009 196.273892 
L 835.757843 197.044755 
L 852.549509 198.193253 
L 852.549509 198.193253 
" clip-path="url(#pd0486d9b7a)" style="fill: none; stroke: #ff0000; stroke-width: 3; stroke-linecap: square"/>
   </g>
   <g id="line2d_28">
    <path d="M 128.121809 484.231504 
L 135.375897 484.231364 
L 142.629986 484.231225 
L 149.884074 484.231085 
L 157.138163 484.230774 
L 164.392251 484.230361 
L 171.646339 484.229529 
L 178.900428 484.228115 
L 186.154516 484.225179 
L 193.408605 484.216533 
L 200.662693 484.637819 
L 207.916781 484.740312 
L 215.17087 484.69244 
L 222.424958 484.544328 
L 229.679047 484.275572 
L 236.933135 483.996423 
L 244.187224 483.798241 
L 251.441312 483.664066 
L 258.6954 483.498677 
L 265.949489 483.2245 
L 273.203577 483.051171 
L 280.457666 482.937608 
L 287.711754 482.900057 
L 294.965843 482.867863 
L 302.219931 482.804579 
L 309.474019 482.740913 
L 316.728108 482.729474 
L 323.982196 482.746413 
L 331.236285 482.785564 
L 338.490373 482.810896 
L 345.744461 482.793579 
L 352.99855 482.776487 
L 360.252638 482.780706 
L 367.506727 482.817443 
L 374.760815 482.873333 
L 382.014904 482.872509 
L 389.268992 482.851586 
L 396.52308 482.867913 
L 403.777169 482.9163 
L 411.031257 482.968796 
L 418.285346 483.04037 
L 425.539434 483.143422 
L 432.793523 483.256894 
L 440.047611 483.273695 
L 447.301699 482.931744 
L 454.555788 480.921168 
L 461.809876 599.725931 
L 469.063965 484.221828 
L 476.318053 470.082183 
L 483.572141 476.702797 
L 490.82623 482.000176 
L 498.080318 482.188899 
L 505.334407 473.35242 
L 512.588495 468.69258 
L 519.842584 469.954435 
L 527.096672 471.994242 
L 534.35076 474.921682 
L 541.604849 478.494384 
L 548.858937 482.420762 
L 556.113026 486.525054 
L 563.367114 490.383256 
L 570.621203 493.603933 
L 577.875291 495.69563 
L 585.129379 497.242423 
L 592.383468 498.667027 
L 599.637556 499.812426 
L 606.891645 500.999767 
L 614.145733 502.403797 
L 621.399821 503.78104 
L 628.65391 504.385822 
L 635.907998 504.127778 
L 643.162087 502.522564 
L 650.416175 496.796055 
L 657.670264 490.768413 
L 664.924352 487.756588 
L 672.17844 485.817387 
L 679.432529 484.400749 
L 686.686617 483.261152 
L 693.940706 482.323372 
L 701.194794 481.624302 
L 708.448883 480.836188 
L 715.702971 480.119396 
L 722.957059 479.467508 
L 730.211148 478.860294 
L 737.465236 478.288978 
L 744.719325 477.735383 
L 751.973413 477.151881 
L 759.227501 476.679359 
L 766.48159 476.172101 
L 773.735678 475.672197 
L 780.989767 475.144377 
L 788.243855 474.519402 
L 795.497944 473.776743 
L 802.752032 473.000195 
L 810.00612 472.152505 
L 817.260209 471.248162 
L 824.514297 470.326962 
L 831.768386 469.634922 
L 839.022474 469.108304 
L 846.276562 468.683806 
" clip-path="url(#pd0486d9b7a)" style="fill: none; stroke: #808080; stroke-width: 3; stroke-linecap: square"/>
   </g>
   <g id="patch_3">
    <path d="M 120.876562 617.04 
L 120.876562 7.2 
" style="fill: none; stroke: #000000; stroke-width: 0.8; stroke-linejoin: miter; stroke-linecap: square"/>
   </g>
   <g id="patch_4">
    <path d="M 846.276562 617.04 
L 846.276562 7.2 
" style="fill: none; stroke: #000000; stroke-width: 0.8; stroke-linejoin: miter; stroke-linecap: square"/>
   </g>
   <g id="patch_5">
    <path d="M 120.876562 617.04 
L 846.276562 617.04 
" style="fill: none; stroke: #000000; stroke-width: 0.8; stroke-linejoin: miter; stroke-linecap: square"/>
   </g>
   <g id="patch_6">
    <path d="M 120.876562 7.2 
L 846.276562 7.2 
" style="fill: none; stroke: #000000; stroke-width: 0.8; stroke-linejoin: miter; stroke-linecap: square"/>
   </g>
   <g id="legend_1">
    <g id="patch_7">
     <path d="M 495.248437 419.006719 
L 821.776562 419.006719 
Q 828.776562 419.006719 828.776562 412.006719 
L 828.776562 212.233281 
Q 828.776562 205.233281 821.776562 205.233281 
L 495.248437 205.233281 
Q 488.248437 205.233281 488.248437 212.233281 
L 488.248437 412.006719 
Q 488.248437 419.006719 495.248437 419.006719 
z
" style="fill: #ffffff; opacity: 0.8; stroke: #cccccc; stroke-linejoin: miter"/>
    </g>
    <g id="patch_8">
     <path d="M 502.248437 257.033281 
L 572.248437 257.033281 
L 572.248437 232.533281 
L 502.248437 232.533281 
z
" style="fill: #99ccff; fill-opacity: 0.7"/>
    </g>
    <g id="text_16">
     <!-- 1$\sigma[\frac{T_{ve}}{T_{ve_\infty}}]$ -->
     <g transform="translate(600.248437 257.033281) scale(0.35 -0.35)">
      <defs>
       <path id="DejaVuSans-Oblique-3c3" d="M 2219 3044 
Q 1744 3044 1422 2700 
Q 1081 2341 969 1747 
Q 844 1119 1044 756 
Q 1241 397 1706 397 
Q 2166 397 2503 759 
Q 2844 1122 2966 1747 
Q 3075 2319 2881 2700 
Q 2700 3044 2219 3044 
z
M 2309 3503 
L 4219 3500 
L 4106 2925 
L 3463 2925 
Q 3706 2438 3575 1747 
Q 3406 888 2884 400 
Q 2359 -91 1609 -91 
Q 856 -91 525 400 
Q 194 888 363 1747 
Q 528 2609 1050 3097 
Q 1484 3503 2309 3503 
z
" transform="scale(0.015625)"/>
      </defs>
      <use xlink:href="#DejaVuSans-31" transform="translate(0 0.987656)"/>
      <use xlink:href="#DejaVuSans-Oblique-3c3" transform="translate(63.623047 0.987656)"/>
      <use xlink:href="#DejaVuSans-5b" transform="translate(127.001953 0.987656)"/>
      <use xlink:href="#DejaVuSans-Oblique-54" transform="translate(181.015625 56.965625) scale(0.7)"/>
      <use xlink:href="#DejaVuSans-Oblique-76" transform="translate(223.774414 45.48125) scale(0.49)"/>
      <use xlink:href="#DejaVuSans-Oblique-65" transform="translate(252.772461 45.48125) scale(0.49)"/>
      <use xlink:href="#DejaVuSans-Oblique-54" transform="translate(166.015625 -37.499844) scale(0.7)"/>
      <use xlink:href="#DejaVuSans-Oblique-76" transform="translate(208.774414 -48.984219) scale(0.49)"/>
      <use xlink:href="#DejaVuSans-Oblique-65" transform="translate(237.772461 -48.984219) scale(0.49)"/>
      <use xlink:href="#DejaVuSans-221e" transform="translate(267.918945 -57.023281) scale(0.343)"/>
      <use xlink:href="#DejaVuSans-5d" transform="translate(312.24502 0.987656)"/>
      <path d="M 166.015625 19.784531 
L 166.015625 26.034531 
L 299.74502 26.034531 
L 299.74502 19.784531 
L 166.015625 19.784531 
z
"/>
     </g>
    </g>
    <g id="line2d_29">
     <path d="M 502.248437 309.527812 
L 537.248437 309.527812 
L 572.248437 309.527812 
" style="fill: none; stroke: #808080; stroke-width: 3; stroke-linecap: square"/>
    </g>
    <g id="text_17">
     <!-- Error to [21] -->
     <g transform="translate(600.248437 321.777812) scale(0.35 -0.35)">
      <defs>
       <path id="DejaVuSans-45" d="M 628 4666 
L 3578 4666 
L 3578 4134 
L 1259 4134 
L 1259 2753 
L 3481 2753 
L 3481 2222 
L 1259 2222 
L 1259 531 
L 3634 531 
L 3634 0 
L 628 0 
L 628 4666 
z
" transform="scale(0.015625)"/>
      </defs>
      <use xlink:href="#DejaVuSans-45"/>
      <use xlink:href="#DejaVuSans-72" transform="translate(63.183594 0)"/>
      <use xlink:href="#DejaVuSans-72" transform="translate(102.546875 0)"/>
      <use xlink:href="#DejaVuSans-6f" transform="translate(141.410156 0)"/>
      <use xlink:href="#DejaVuSans-72" transform="translate(202.591797 0)"/>
      <use xlink:href="#DejaVuSans-20" transform="translate(243.705078 0)"/>
      <use xlink:href="#DejaVuSans-74" transform="translate(275.492188 0)"/>
      <use xlink:href="#DejaVuSans-6f" transform="translate(314.701172 0)"/>
      <use xlink:href="#DejaVuSans-20" transform="translate(375.882812 0)"/>
      <use xlink:href="#DejaVuSans-5b" transform="translate(407.669922 0)"/>
      <use xlink:href="#DejaVuSans-32" transform="translate(446.683594 0)"/>
      <use xlink:href="#DejaVuSans-31" transform="translate(510.306641 0)"/>
      <use xlink:href="#DejaVuSans-5d" transform="translate(573.929688 0)"/>
     </g>
    </g>
    <g id="line2d_30">
     <path d="M 502.248437 372.106719 
L 537.248437 372.106719 
L 572.248437 372.106719 
" style="fill: none; stroke: #ff0000; stroke-width: 3; stroke-linecap: square"/>
    </g>
    <g id="text_18">
     <!-- $\mu[\frac{T_{ve}}{T_{ve_\infty}}]$ -->
     <g transform="translate(600.248437 384.356719) scale(0.35 -0.35)">
      <defs>
       <path id="DejaVuSans-Oblique-3bc" d="M -84 -1331 
L 856 3500 
L 1434 3500 
L 1009 1322 
Q 997 1256 987 1175 
Q 978 1094 978 1013 
Q 978 722 1161 565 
Q 1344 409 1684 409 
Q 2147 409 2431 671 
Q 2716 934 2816 1459 
L 3213 3500 
L 3788 3500 
L 3266 809 
Q 3253 750 3248 706 
Q 3244 663 3244 628 
Q 3244 531 3283 486 
Q 3322 441 3406 441 
Q 3438 441 3492 456 
Q 3547 472 3647 513 
L 3559 50 
Q 3422 -19 3297 -55 
Q 3172 -91 3053 -91 
Q 2847 -91 2730 40 
Q 2613 172 2613 403 
Q 2438 153 2195 31 
Q 1953 -91 1625 -91 
Q 1334 -91 1117 43 
Q 900 178 831 397 
L 494 -1331 
L -84 -1331 
z
" transform="scale(0.015625)"/>
      </defs>
      <use xlink:href="#DejaVuSans-Oblique-3bc" transform="translate(0 0.987656)"/>
      <use xlink:href="#DejaVuSans-5b" transform="translate(63.623047 0.987656)"/>
      <use xlink:href="#DejaVuSans-Oblique-54" transform="translate(117.636719 56.965625) scale(0.7)"/>
      <use xlink:href="#DejaVuSans-Oblique-76" transform="translate(160.395508 45.48125) scale(0.49)"/>
      <use xlink:href="#DejaVuSans-Oblique-65" transform="translate(189.393555 45.48125) scale(0.49)"/>
      <use xlink:href="#DejaVuSans-Oblique-54" transform="translate(102.636719 -37.499844) scale(0.7)"/>
      <use xlink:href="#DejaVuSans-Oblique-76" transform="translate(145.395508 -48.984219) scale(0.49)"/>
      <use xlink:href="#DejaVuSans-Oblique-65" transform="translate(174.393555 -48.984219) scale(0.49)"/>
      <use xlink:href="#DejaVuSans-221e" transform="translate(204.540039 -57.023281) scale(0.343)"/>
      <use xlink:href="#DejaVuSans-5d" transform="translate(248.866113 0.987656)"/>
      <path d="M 102.636719 19.784531 
L 102.636719 26.034531 
L 236.366113 26.034531 
L 236.366113 19.784531 
L 102.636719 19.784531 
z
"/>
     </g>
    </g>
   </g>
  </g>
 </g>
 <defs>
  <clipPath id="pd0486d9b7a">
   <rect x="120.876562" y="7.2" width="725.4" height="609.84"/>
  </clipPath>
 </defs>
</svg>
