<?xml version="1.0" encoding="utf-8" standalone="no"?>
<!DOCTYPE svg PUBLIC "-//W3C//DTD SVG 1.1//EN"
  "http://www.w3.org/Graphics/SVG/1.1/DTD/svg11.dtd">
<svg xmlns:xlink="http://www.w3.org/1999/xlink" width="436.273548pt" height="333.855759pt" viewBox="0 0 436.273548 333.855759" xmlns="http://www.w3.org/2000/svg" version="1.1">
 <metadata>
  <rdf:RDF xmlns:dc="http://purl.org/dc/elements/1.1/" xmlns:cc="http://creativecommons.org/ns#" xmlns:rdf="http://www.w3.org/1999/02/22-rdf-syntax-ns#">
   <cc:Work>
    <dc:type rdf:resource="http://purl.org/dc/dcmitype/StillImage"/>
    <dc:date>2025-03-26T10:26:23.140723</dc:date>
    <dc:format>image/svg+xml</dc:format>
    <dc:creator>
     <cc:Agent>
      <dc:title>Matplotlib v3.7.1, https://matplotlib.org/</dc:title>
     </cc:Agent>
    </dc:creator>
   </cc:Work>
  </rdf:RDF>
 </metadata>
 <defs>
  <style type="text/css">*{stroke-linejoin: round; stroke-linecap: butt}</style>
 </defs>
 <g id="figure_1">
  <g id="patch_1">
   <path d="M 0 333.855759 
L 436.273548 333.855759 
L 436.273548 0 
L 0 0 
z
" style="fill: #ffffff"/>
  </g>
  <g id="axes_1">
   <g id="patch_2">
    <path d="M 71.953548 280.230498 
L 429.073548 280.230498 
L 429.073548 14.118498 
L 71.953548 14.118498 
z
" style="fill: #ffffff"/>
   </g>
   <g id="matplotlib.axis_1">
    <g id="xtick_1">
     <g id="line2d_1">
      <path d="M 122.970691 280.230498 
L 122.970691 14.118498 
" clip-path="url(#p1823f699b4)" style="fill: none; stroke: #b0b0b0; stroke-width: 0.8; stroke-linecap: square"/>
     </g>
     <g id="line2d_2">
      <defs>
       <path id="m26d579b863" d="M 0 0 
L 0 3.5 
" style="stroke: #000000; stroke-width: 0.8"/>
      </defs>
      <g>
       <use xlink:href="#m26d579b863" x="122.970691" y="280.230498" style="stroke: #000000; stroke-width: 0.8"/>
      </g>
     </g>
     <g id="text_1">
      <!-- $\mathdefault{0.20}$ -->
      <g transform="translate(106.55383 301.067495) scale(0.2 -0.2)">
       <defs>
        <path id="CMR17-30" d="M 2688 2025 
C 2688 2416 2682 3080 2413 3591 
C 2176 4039 1798 4198 1466 4198 
C 1158 4198 768 4058 525 3597 
C 269 3118 243 2524 243 2025 
C 243 1661 250 1106 448 619 
C 723 -39 1216 -128 1466 -128 
C 1760 -128 2208 -7 2470 600 
C 2662 1042 2688 1559 2688 2025 
z
M 1466 -26 
C 1056 -26 813 325 723 812 
C 653 1188 653 1738 653 2096 
C 653 2588 653 2997 736 3387 
C 858 3929 1216 4096 1466 4096 
C 1728 4096 2067 3923 2189 3400 
C 2272 3036 2278 2607 2278 2096 
C 2278 1680 2278 1169 2202 792 
C 2067 95 1690 -26 1466 -26 
z
" transform="scale(0.015625)"/>
        <path id="CMMI12-3a" d="M 1178 307 
C 1178 492 1024 619 870 619 
C 685 619 557 466 557 313 
C 557 128 710 0 864 0 
C 1050 0 1178 153 1178 307 
z
" transform="scale(0.015625)"/>
        <path id="CMR17-32" d="M 2669 989 
L 2554 989 
C 2490 536 2438 459 2413 420 
C 2381 369 1920 369 1830 369 
L 602 369 
C 832 619 1280 1072 1824 1597 
C 2214 1967 2669 2402 2669 3035 
C 2669 3790 2067 4224 1395 4224 
C 691 4224 262 3604 262 3030 
C 262 2780 448 2748 525 2748 
C 589 2748 781 2787 781 3010 
C 781 3207 614 3264 525 3264 
C 486 3264 448 3258 422 3245 
C 544 3790 915 4058 1306 4058 
C 1862 4058 2227 3617 2227 3035 
C 2227 2479 1901 2000 1536 1584 
L 262 146 
L 262 0 
L 2515 0 
L 2669 989 
z
" transform="scale(0.015625)"/>
       </defs>
       <use xlink:href="#CMR17-30" transform="scale(0.996264)"/>
       <use xlink:href="#CMMI12-3a" transform="translate(45.690477 0) scale(0.996264)"/>
       <use xlink:href="#CMR17-32" transform="translate(72.787654 0) scale(0.996264)"/>
       <use xlink:href="#CMR17-30" transform="translate(118.478131 0) scale(0.996264)"/>
      </g>
     </g>
    </g>
    <g id="xtick_2">
     <g id="line2d_3">
      <path d="M 207.999262 280.230498 
L 207.999262 14.118498 
" clip-path="url(#p1823f699b4)" style="fill: none; stroke: #b0b0b0; stroke-width: 0.8; stroke-linecap: square"/>
     </g>
     <g id="line2d_4">
      <g>
       <use xlink:href="#m26d579b863" x="207.999262" y="280.230498" style="stroke: #000000; stroke-width: 0.8"/>
      </g>
     </g>
     <g id="text_2">
      <!-- $\mathdefault{0.25}$ -->
      <g transform="translate(191.582402 301.067495) scale(0.2 -0.2)">
       <defs>
        <path id="CMR17-35" d="M 730 3692 
C 794 3666 1056 3584 1325 3584 
C 1920 3584 2246 3911 2432 4100 
C 2432 4157 2432 4192 2394 4192 
C 2387 4192 2374 4192 2323 4163 
C 2099 4058 1837 3973 1517 3973 
C 1325 3973 1037 3999 723 4139 
C 653 4171 640 4171 634 4171 
C 602 4171 595 4164 595 4037 
L 595 2203 
C 595 2089 595 2057 659 2057 
C 691 2057 704 2070 736 2114 
C 941 2401 1222 2522 1542 2522 
C 1766 2522 2246 2382 2246 1289 
C 2246 1085 2246 715 2054 421 
C 1894 159 1645 25 1370 25 
C 947 25 518 320 403 814 
C 429 807 480 795 506 795 
C 589 795 749 840 749 1038 
C 749 1210 627 1280 506 1280 
C 358 1280 262 1190 262 1011 
C 262 454 704 -128 1382 -128 
C 2042 -128 2669 440 2669 1264 
C 2669 2030 2170 2624 1549 2624 
C 1222 2624 947 2503 730 2274 
L 730 3692 
z
" transform="scale(0.015625)"/>
       </defs>
       <use xlink:href="#CMR17-30" transform="scale(0.996264)"/>
       <use xlink:href="#CMMI12-3a" transform="translate(45.690477 0) scale(0.996264)"/>
       <use xlink:href="#CMR17-32" transform="translate(72.787654 0) scale(0.996264)"/>
       <use xlink:href="#CMR17-35" transform="translate(118.478131 0) scale(0.996264)"/>
      </g>
     </g>
    </g>
    <g id="xtick_3">
     <g id="line2d_5">
      <path d="M 293.027834 280.230498 
L 293.027834 14.118498 
" clip-path="url(#p1823f699b4)" style="fill: none; stroke: #b0b0b0; stroke-width: 0.8; stroke-linecap: square"/>
     </g>
     <g id="line2d_6">
      <g>
       <use xlink:href="#m26d579b863" x="293.027834" y="280.230498" style="stroke: #000000; stroke-width: 0.8"/>
      </g>
     </g>
     <g id="text_3">
      <!-- $\mathdefault{0.30}$ -->
      <g transform="translate(276.610973 301.067495) scale(0.2 -0.2)">
       <defs>
        <path id="CMR17-33" d="M 1414 2157 
C 1984 2157 2234 1662 2234 1090 
C 2234 320 1824 25 1453 25 
C 1114 25 563 194 390 693 
C 422 680 454 680 486 680 
C 640 680 755 782 755 948 
C 755 1133 614 1216 486 1216 
C 378 1216 211 1165 211 926 
C 211 335 787 -128 1466 -128 
C 2176 -128 2720 430 2720 1085 
C 2720 1707 2208 2157 1600 2227 
C 2086 2328 2554 2756 2554 3329 
C 2554 3820 2048 4179 1472 4179 
C 890 4179 378 3829 378 3329 
C 378 3110 544 3072 627 3072 
C 762 3072 877 3155 877 3321 
C 877 3486 762 3569 627 3569 
C 602 3569 570 3569 544 3557 
C 730 3959 1235 4032 1459 4032 
C 1683 4032 2106 3925 2106 3320 
C 2106 3143 2080 2828 1862 2550 
C 1670 2304 1453 2304 1242 2284 
C 1210 2284 1062 2269 1037 2269 
C 992 2263 966 2257 966 2208 
C 966 2163 973 2157 1101 2157 
L 1414 2157 
z
" transform="scale(0.015625)"/>
       </defs>
       <use xlink:href="#CMR17-30" transform="scale(0.996264)"/>
       <use xlink:href="#CMMI12-3a" transform="translate(45.690477 0) scale(0.996264)"/>
       <use xlink:href="#CMR17-33" transform="translate(72.787654 0) scale(0.996264)"/>
       <use xlink:href="#CMR17-30" transform="translate(118.478131 0) scale(0.996264)"/>
      </g>
     </g>
    </g>
    <g id="xtick_4">
     <g id="line2d_7">
      <path d="M 378.056405 280.230498 
L 378.056405 14.118498 
" clip-path="url(#p1823f699b4)" style="fill: none; stroke: #b0b0b0; stroke-width: 0.8; stroke-linecap: square"/>
     </g>
     <g id="line2d_8">
      <g>
       <use xlink:href="#m26d579b863" x="378.056405" y="280.230498" style="stroke: #000000; stroke-width: 0.8"/>
      </g>
     </g>
     <g id="text_4">
      <!-- $\mathdefault{0.35}$ -->
      <g transform="translate(361.639544 301.067495) scale(0.2 -0.2)">
       <use xlink:href="#CMR17-30" transform="scale(0.996264)"/>
       <use xlink:href="#CMMI12-3a" transform="translate(45.690477 0) scale(0.996264)"/>
       <use xlink:href="#CMR17-33" transform="translate(72.787654 0) scale(0.996264)"/>
       <use xlink:href="#CMR17-35" transform="translate(118.478131 0) scale(0.996264)"/>
      </g>
     </g>
    </g>
    <g id="text_5">
     <!-- $x, \; \mathrm{m}$ -->
     <g transform="translate(230.140674 322.780126) scale(0.2 -0.2)">
      <defs>
       <path id="CMMI12-78" d="M 3034 2606 
C 2829 2567 2752 2414 2752 2293 
C 2752 2139 2874 2088 2963 2088 
C 3155 2088 3290 2254 3290 2427 
C 3290 2695 2982 2816 2714 2816 
C 2323 2816 2106 2433 2048 2312 
C 1901 2816 1504 2816 1389 2816 
C 736 2816 390 1980 390 1839 
C 390 1814 416 1782 461 1782 
C 512 1782 525 1820 538 1846 
C 755 2555 1184 2689 1370 2689 
C 1658 2689 1715 2420 1715 2267 
C 1715 2127 1677 1980 1600 1673 
L 1382 798 
C 1286 415 1101 64 762 64 
C 730 64 570 64 435 147 
C 666 192 717 383 717 460 
C 717 588 621 664 499 664 
C 346 664 179 530 179 326 
C 179 57 480 -64 755 -64 
C 1062 -64 1280 179 1414 441 
C 1517 64 1837 -64 2074 -64 
C 2726 -64 3072 773 3072 913 
C 3072 945 3046 971 3008 971 
C 2950 971 2944 939 2925 888 
C 2752 326 2381 64 2093 64 
C 1869 64 1747 230 1747 492 
C 1747 632 1773 734 1875 1156 
L 2099 2024 
C 2195 2408 2413 2689 2707 2689 
C 2720 2689 2899 2689 3034 2606 
z
" transform="scale(0.015625)"/>
       <path id="CMMI12-3b" d="M 1248 -31 
C 1248 343 1126 619 864 619 
C 659 619 557 453 557 313 
C 557 172 653 0 870 0 
C 954 0 1024 26 1082 83 
C 1094 96 1101 96 1107 96 
C 1120 96 1120 5 1120 -27 
C 1120 -240 1082 -659 710 -1080 
C 640 -1157 640 -1170 640 -1183 
C 640 -1216 672 -1248 704 -1248 
C 755 -1248 1248 -771 1248 -31 
z
" transform="scale(0.015625)"/>
       <path id="CMR17-6d" d="M 4326 1933 
C 4326 2252 4269 2790 3507 2790 
C 3072 2790 2771 2496 2656 2151 
L 2650 2151 
C 2573 2676 2195 2790 1837 2790 
C 1331 2790 1069 2400 973 2144 
L 966 2144 
L 966 2790 
L 211 2720 
L 211 2554 
C 589 2554 646 2515 646 2208 
L 646 428 
C 646 184 621 153 211 153 
L 211 -13 
C 365 0 646 0 813 0 
C 979 0 1267 0 1421 -13 
L 1421 153 
C 1011 153 986 178 986 428 
L 986 1658 
C 986 2247 1344 2688 1792 2688 
C 2266 2688 2317 2266 2317 1958 
L 2317 428 
C 2317 184 2291 153 1882 153 
L 1882 -13 
C 2035 0 2317 0 2483 0 
C 2650 0 2938 0 3091 -13 
L 3091 153 
C 2682 153 2656 178 2656 428 
L 2656 1658 
C 2656 2247 3014 2688 3462 2688 
C 3936 2688 3987 2266 3987 1958 
L 3987 428 
C 3987 184 3962 153 3552 153 
L 3552 -13 
C 3706 0 3987 0 4154 0 
C 4320 0 4608 0 4762 -13 
L 4762 153 
C 4352 153 4326 178 4326 428 
L 4326 1933 
z
" transform="scale(0.015625)"/>
      </defs>
      <use xlink:href="#CMMI12-78" transform="scale(0.996264)"/>
      <use xlink:href="#CMMI12-3b" transform="translate(55.43406 0) scale(0.996264)"/>
      <use xlink:href="#CMR17-6d" transform="translate(126.809651 0) scale(0.996264)"/>
     </g>
    </g>
   </g>
   <g id="matplotlib.axis_2">
    <g id="ytick_1">
     <g id="line2d_9">
      <path d="M 71.953548 273.739962 
L 429.073548 273.739962 
" clip-path="url(#p1823f699b4)" style="fill: none; stroke: #b0b0b0; stroke-width: 0.8; stroke-linecap: square"/>
     </g>
     <g id="line2d_10">
      <defs>
       <path id="m9613c05d46" d="M 0 0 
L -3.5 0 
" style="stroke: #000000; stroke-width: 0.8"/>
      </defs>
      <g>
       <use xlink:href="#m9613c05d46" x="71.953548" y="273.739962" style="stroke: #000000; stroke-width: 0.8"/>
      </g>
     </g>
     <g id="text_6">
      <!-- $\mathdefault{0}$ -->
      <g transform="translate(55.815453 280.65846) scale(0.2 -0.2)">
       <use xlink:href="#CMR17-30" transform="scale(0.996264)"/>
      </g>
     </g>
    </g>
    <g id="ytick_2">
     <g id="line2d_11">
      <path d="M 71.953548 208.834596 
L 429.073548 208.834596 
" clip-path="url(#p1823f699b4)" style="fill: none; stroke: #b0b0b0; stroke-width: 0.8; stroke-linecap: square"/>
     </g>
     <g id="line2d_12">
      <g>
       <use xlink:href="#m9613c05d46" x="71.953548" y="208.834596" style="stroke: #000000; stroke-width: 0.8"/>
      </g>
     </g>
     <g id="text_7">
      <!-- $\mathdefault{50}$ -->
      <g transform="translate(46.677357 215.753094) scale(0.2 -0.2)">
       <use xlink:href="#CMR17-35" transform="scale(0.996264)"/>
       <use xlink:href="#CMR17-30" transform="translate(45.690477 0) scale(0.996264)"/>
      </g>
     </g>
    </g>
    <g id="ytick_3">
     <g id="line2d_13">
      <path d="M 71.953548 143.92923 
L 429.073548 143.92923 
" clip-path="url(#p1823f699b4)" style="fill: none; stroke: #b0b0b0; stroke-width: 0.8; stroke-linecap: square"/>
     </g>
     <g id="line2d_14">
      <g>
       <use xlink:href="#m9613c05d46" x="71.953548" y="143.92923" style="stroke: #000000; stroke-width: 0.8"/>
      </g>
     </g>
     <g id="text_8">
      <!-- $\mathdefault{100}$ -->
      <g transform="translate(37.539262 150.847728) scale(0.2 -0.2)">
       <defs>
        <path id="CMR17-31" d="M 1702 4058 
C 1702 4192 1696 4192 1606 4192 
C 1357 3916 979 3827 621 3827 
C 602 3827 570 3827 563 3808 
C 557 3795 557 3782 557 3648 
C 755 3648 1088 3686 1344 3839 
L 1344 461 
C 1344 236 1331 160 781 160 
L 589 160 
L 589 0 
C 896 0 1216 0 1523 0 
C 1830 0 2150 0 2458 0 
L 2458 160 
L 2266 160 
C 1715 160 1702 230 1702 458 
L 1702 4058 
z
" transform="scale(0.015625)"/>
       </defs>
       <use xlink:href="#CMR17-31" transform="scale(0.996264)"/>
       <use xlink:href="#CMR17-30" transform="translate(45.690477 0) scale(0.996264)"/>
       <use xlink:href="#CMR17-30" transform="translate(91.380954 0) scale(0.996264)"/>
      </g>
     </g>
    </g>
    <g id="ytick_4">
     <g id="line2d_15">
      <path d="M 71.953548 79.023864 
L 429.073548 79.023864 
" clip-path="url(#p1823f699b4)" style="fill: none; stroke: #b0b0b0; stroke-width: 0.8; stroke-linecap: square"/>
     </g>
     <g id="line2d_16">
      <g>
       <use xlink:href="#m9613c05d46" x="71.953548" y="79.023864" style="stroke: #000000; stroke-width: 0.8"/>
      </g>
     </g>
     <g id="text_9">
      <!-- $\mathdefault{150}$ -->
      <g transform="translate(37.539262 85.942363) scale(0.2 -0.2)">
       <use xlink:href="#CMR17-31" transform="scale(0.996264)"/>
       <use xlink:href="#CMR17-35" transform="translate(45.690477 0) scale(0.996264)"/>
       <use xlink:href="#CMR17-30" transform="translate(91.380954 0) scale(0.996264)"/>
      </g>
     </g>
    </g>
    <g id="ytick_5">
     <g id="line2d_17">
      <path d="M 71.953548 14.118498 
L 429.073548 14.118498 
" clip-path="url(#p1823f699b4)" style="fill: none; stroke: #b0b0b0; stroke-width: 0.8; stroke-linecap: square"/>
     </g>
     <g id="line2d_18">
      <g>
       <use xlink:href="#m9613c05d46" x="71.953548" y="14.118498" style="stroke: #000000; stroke-width: 0.8"/>
      </g>
     </g>
     <g id="text_10">
      <!-- $\mathdefault{200}$ -->
      <g transform="translate(37.539262 21.036997) scale(0.2 -0.2)">
       <use xlink:href="#CMR17-32" transform="scale(0.996264)"/>
       <use xlink:href="#CMR17-30" transform="translate(45.690477 0) scale(0.996264)"/>
       <use xlink:href="#CMR17-30" transform="translate(91.380954 0) scale(0.996264)"/>
      </g>
     </g>
    </g>
    <g id="text_11">
     <!-- $\frac{P}{P_\infty}$ -->
     <g transform="translate(24.576093 156.806272) rotate(-90) scale(0.2 -0.2)">
      <defs>
       <path id="CMMI12-50" d="M 1894 2023 
L 2970 2023 
C 3853 2023 4736 2673 4736 3401 
C 4736 3898 4314 4352 3507 4352 
L 1530 4352 
C 1408 4352 1350 4352 1350 4231 
C 1350 4167 1408 4167 1504 4167 
C 1894 4167 1894 4116 1894 4046 
C 1894 4034 1894 3995 1869 3899 
L 1005 472 
C 947 249 934 185 486 185 
C 365 185 301 185 301 70 
C 301 0 358 0 397 0 
C 518 0 646 0 768 0 
L 1517 0 
C 1638 0 1773 0 1894 0 
C 1946 0 2016 0 2016 121 
C 2016 185 1958 185 1862 185 
C 1478 185 1472 230 1472 293 
C 1472 325 1478 369 1485 401 
L 1894 2023 
z
M 2355 3930 
C 2413 4167 2438 4167 2688 4167 
L 3322 4167 
C 3802 4167 4198 4013 4198 3535 
C 4198 3369 4115 2827 3821 2534 
C 3712 2419 3405 2176 2822 2176 
L 1920 2176 
L 2355 3930 
z
" transform="scale(0.015625)"/>
       <path id="CMSY10-31" d="M 3251 1730 
C 2906 2166 2829 2262 2630 2422 
C 2272 2710 1914 2825 1587 2825 
C 838 2825 352 2122 352 1374 
C 352 639 826 -70 1562 -70 
C 2298 -70 2829 511 3142 1022 
C 3488 588 3565 492 3763 332 
C 4122 45 4480 -70 4806 -70 
C 5555 -70 6042 633 6042 1380 
C 6042 2115 5568 2825 4832 2825 
C 4096 2825 3565 2242 3251 1730 
z
M 3418 1514 
C 3680 1975 4154 2620 4877 2620 
C 5555 2620 5901 1955 5901 1380 
C 5901 753 5472 236 4909 236 
C 4538 236 4250 505 4115 638 
C 3955 811 3808 1009 3418 1514 
z
M 2976 1240 
C 2714 780 2240 134 1517 134 
C 838 134 493 799 493 1374 
C 493 2000 922 2518 1485 2518 
C 1856 2518 2144 2249 2278 2115 
C 2438 1943 2586 1744 2976 1240 
z
" transform="scale(0.015625)"/>
      </defs>
      <use xlink:href="#CMMI12-50" transform="translate(20.413759 39.226102) scale(0.697382)"/>
      <use xlink:href="#CMMI12-50" transform="translate(0 -34.355253) scale(0.697382)"/>
      <use xlink:href="#CMSY10-31" transform="translate(44.013857 -44.815949) scale(0.498132)"/>
      <path d="M 0 22.914133 
L 94.325327 22.914133 
L 94.325327 26.899083 
L 0 26.899083 
L 0 22.914133 
z
"/>
     </g>
    </g>
   </g>
   <g id="line2d_19">
    <path d="M -1 259.301721 
L 40.644569 259.239043 
L 104.234183 259.167013 
L 107.097813 258.9518 
L 108.529628 258.710991 
L 109.961443 252.16325 
L 111.393258 215.670553 
L 113.481531 106.060884 
L 114.525668 82.160889 
L 115.569804 81.462823 
L 116.613941 86.180187 
L 117.658077 94.196285 
L 118.702214 101.004975 
L 119.74635 106.153993 
L 120.790487 109.540659 
L 121.834623 111.581698 
L 122.87876 112.614057 
L 123.922896 113.176264 
L 124.967033 113.439142 
L 127.055306 113.557997 
L 129.143579 113.448571 
L 132.275989 113.055544 
L 135.408398 112.662624 
L 138.540808 112.24821 
L 140.629081 111.790246 
L 144.805627 110.69621 
L 146.8939 110.386083 
L 148.982173 110.310581 
L 151.070446 110.431481 
L 153.15872 110.823573 
L 154.202856 111.18211 
L 155.246993 111.713075 
L 156.291129 112.418768 
L 157.335266 113.360278 
L 158.390095 114.70756 
L 159.510401 116.512162 
L 160.729036 118.959341 
L 162.043001 122.115365 
L 163.47036 126.039707 
L 166.698111 136.065121 
L 172.655099 156.626108 
L 174.996946 163.867982 
L 177.544038 171.015084 
L 180.315288 176.878569 
L 183.331662 182.044173 
L 190.184651 190.773873 
L 194.06973 194.183463 
L 198.291487 196.71684 
L 202.879005 198.227441 
L 207.856251 199.440289 
L 213.247676 199.813986 
L 219.075358 199.831886 
L 225.353631 199.594596 
L 232.085808 198.926141 
L 246.737151 196.756212 
L 261.772717 194.601066 
L 284.326066 191.700828 
L 291.843849 190.800821 
L 299.361632 190.094278 
L 314.397198 189.138575 
L 321.914982 188.798551 
L 329.432765 188.631003 
L 336.950548 188.611346 
L 344.468331 201.452789 
L 351.986114 228.04063 
L 362.614685 256.272282 
L 373.243257 270.827926 
L 383.871828 272.403716 
L 394.5004 272.717098 
L 415.757542 272.879475 
L 437.273548 272.784839 
L 437.273548 272.784839 
" clip-path="url(#p1823f699b4)" style="fill: none; stroke: #ff0000; stroke-width: 3; stroke-linecap: square"/>
   </g>
   <g id="line2d_20">
    <path d="M -1 259.153936 
L 109.961443 259.235083 
L 110.716419 256.65071 
L 111.393258 203.558072 
L 111.93314 144.26425 
L 112.437395 75.855517 
L 112.917274 64.84638 
L 113.481531 64.84638 
L 114.525668 79.923212 
L 115.569804 90.509868 
L 117.15653 102.646554 
L 117.658077 104.589117 
L 118.175302 104.587082 
L 118.702214 103.706949 
L 119.204717 101.879048 
L 119.74635 100.894354 
L 120.790487 100.580427 
L 123.922896 100.334195 
L 128.099443 100.322477 
L 131.644179 100.52022 
L 133.58005 100.810387 
L 137.496671 101.971865 
L 143.761491 104.565458 
L 145.849764 105.609773 
L 147.938037 106.864519 
L 151.070446 108.382459 
L 153.15872 110.308664 
L 155.246993 112.862366 
L 157.335266 116.665278 
L 159.510401 122.551443 
L 162.043001 130.769637 
L 168.519928 156.705296 
L 170.50124 163.863005 
L 174.996946 176.012024 
L 177.544038 182.140977 
L 180.315288 187.529846 
L 183.331662 192.220362 
L 186.614765 196.35796 
L 192.222515 201.321738 
L 194.06973 202.618154 
L 196.071869 203.624006 
L 198.291487 204.586273 
L 200.569006 204.713474 
L 205.470308 204.710775 
L 207.856251 204.615952 
L 210.526296 204.359042 
L 213.247676 203.877071 
L 216.10674 203.167316 
L 222.219093 201.414144 
L 235.540425 197.780832 
L 239.250422 196.676191 
L 242.924329 195.809038 
L 246.737151 195.066472 
L 265.403131 191.968078 
L 269.2905 191.012679 
L 276.808283 189.99343 
L 284.326066 189.132248 
L 291.843849 188.616089 
L 306.879415 187.928751 
L 333.661059 187.229218 
L 340.823234 187.334397 
L 347.686698 187.685575 
L 349.656914 202.148951 
L 354.445147 257.293199 
L 357.053887 271.151069 
L 359.78677 272.663295 
L 365.426216 272.858877 
L 375.748054 272.87233 
L 402.291774 272.708987 
L 437.273548 272.768815 
L 437.273548 272.768815 
" clip-path="url(#p1823f699b4)" style="fill: none; stroke: #0000ff; stroke-width: 3; stroke-linecap: square"/>
   </g>
   <g id="line2d_21">
    <path d="M -1 259.232219 
L 108.529628 259.381048 
L 110.716419 259.52067 
L 111.08416 252.343117 
L 111.393258 178.574908 
L 111.93314 105.481485 
L 112.437395 54.87573 
L 112.917274 69.016377 
L 113.201607 84.945589 
L 113.481531 87.823094 
L 114.525668 90.80694 
L 115.018675 92.008278 
L 115.569804 92.588387 
L 116.613941 94.90186 
L 117.15653 96.876626 
L 118.90521 98.957983 
L 121.834623 100.564258 
L 122.87876 100.839855 
L 124.967033 100.962344 
L 126.01117 101.029671 
L 127.02701 100.975168 
L 128.099443 101.03233 
L 129.768178 100.972446 
L 137.496671 101.248524 
L 139.525804 101.589852 
L 145.849764 103.599822 
L 151.070446 105.835733 
L 153.15872 107.751753 
L 155.246993 110.281736 
L 157.335266 114.08855 
L 162.043001 127.284371 
L 164.277363 135.248336 
L 166.698111 143.132437 
L 168.519928 151.576317 
L 172.655099 169.242957 
L 174.996946 178.724294 
L 177.544038 186.777229 
L 180.315288 193.02719 
L 183.331662 197.331885 
L 186.614765 200.70872 
L 188.43152 203.00421 
L 190.184651 204.532598 
L 192.222515 205.813833 
L 194.06973 206.663005 
L 196.071869 207.108012 
L 198.291487 207.250561 
L 202.879005 207.243246 
L 205.470308 207.080958 
L 207.856251 206.730398 
L 210.526296 206.214934 
L 213.247676 205.525592 
L 216.10674 204.585667 
L 222.219093 202.398653 
L 228.582479 200.458532 
L 246.737151 195.500466 
L 254.254934 193.004062 
L 259.733772 191.823593 
L 269.2905 190.279231 
L 287.942714 188.185464 
L 295.33202 187.76643 
L 314.397198 187.223278 
L 335.396553 186.86395 
L 342.67515 186.959879 
L 346.88863 187.189236 
L 349.656914 187.531863 
L 350.737495 203.991173 
L 353.203924 258.819253 
L 354.445147 270.262673 
L 355.756842 271.54199 
L 357.053887 272.085732 
L 359.78677 272.815802 
L 362.614685 273.092621 
L 365.426216 273.179406 
L 378.357738 273.182751 
L 410.208421 273.114647 
L 437.273548 273.025389 
L 437.273548 273.025389 
" clip-path="url(#p1823f699b4)" style="fill: none; stroke: #008000; stroke-width: 3; stroke-linecap: square"/>
   </g>
   <g id="line2d_22">
    <path d="M -1 259.222889 
L 108.529628 259.364092 
L 109.26179 259.451471 
L 109.961443 259.857626 
L 110.553323 260.184426 
L 110.716419 260.17282 
L 110.921829 260.001161 
L 111.08416 259.248662 
L 111.25161 257.641296 
L 111.393258 240.685375 
L 111.663217 100.385332 
L 111.93314 42.128831 
L 112.196415 42.137915 
L 112.667552 78.066375 
L 112.917274 84.298416 
L 113.481531 87.742496 
L 113.964342 89.926843 
L 114.525668 91.716377 
L 115.569804 93.421448 
L 116.320555 95.44722 
L 117.15653 96.829177 
L 118.175302 97.959743 
L 119.74635 98.470158 
L 121.834623 99.45207 
L 123.922896 100.100283 
L 129.768178 101.303847 
L 133.58005 101.630153 
L 139.525804 101.942656 
L 143.761491 102.485409 
L 145.849764 102.93303 
L 151.070446 104.700788 
L 153.15872 106.15775 
L 155.246993 107.875771 
L 157.335266 110.777859 
L 159.510401 116.054082 
L 162.043001 123.446602 
L 164.277363 133.344522 
L 166.698111 143.433701 
L 168.519928 153.838754 
L 170.50124 162.52645 
L 172.655099 169.832994 
L 173.811443 175.276275 
L 174.996946 179.806377 
L 177.544038 187.839922 
L 181.715221 197.920541 
L 183.331662 200.401375 
L 184.904682 202.57249 
L 188.43152 205.126843 
L 192.222515 206.997508 
L 194.06973 207.577482 
L 196.071869 207.817309 
L 200.569006 207.869155 
L 202.879005 207.77997 
L 205.470308 207.546893 
L 207.856251 207.141267 
L 210.526296 206.561655 
L 222.219093 203.349909 
L 228.582479 201.323068 
L 232.085808 200.185389 
L 242.924329 196.245861 
L 246.737151 195.05912 
L 250.362058 194.057813 
L 254.254934 193.177171 
L 262.502705 190.703184 
L 265.403131 189.93463 
L 269.2905 189.28137 
L 276.808283 188.382646 
L 284.326066 187.818661 
L 291.843849 187.483539 
L 303.25359 187.26237 
L 331.696079 186.870718 
L 342.01383 187.070341 
L 348.694413 187.437237 
L 350.737495 187.747085 
L 351.340237 202.648659 
L 352.560084 256.837115 
L 353.203924 269.644577 
L 353.80499 271.414383 
L 354.445147 271.820656 
L 356.377815 272.488948 
L 357.053887 272.715066 
L 359.78677 272.965864 
L 365.426216 273.153147 
L 381.067665 273.293863 
L 437.273548 273.227075 
L 437.273548 273.227075 
" clip-path="url(#p1823f699b4)" style="fill: none; stroke: #000000; stroke-width: 3; stroke-linecap: square"/>
   </g>
   <g id="line2d_23">
    <path d="M -1 259.227455 
L 108.529628 259.37494 
L 109.26179 259.464415 
L 109.961443 259.880668 
L 110.553323 260.204084 
L 110.716419 260.193439 
L 110.921829 260.060516 
L 111.179279 259.103311 
L 111.327737 257.677585 
L 111.393258 252.282108 
L 111.93314 20.559741 
L 112.058307 22.598668 
L 112.667552 73.481605 
L 112.917274 82.30278 
L 113.481531 88.180983 
L 113.964342 90.329409 
L 115.000768 93.267136 
L 115.569804 94.241155 
L 117.15653 97.272579 
L 118.175302 98.362328 
L 120.790487 99.123522 
L 121.834623 99.607312 
L 125.933675 100.63562 
L 129.768178 101.31229 
L 133.58005 101.63302 
L 139.525804 101.982137 
L 143.761491 102.450297 
L 145.870157 102.745187 
L 151.070446 103.794294 
L 153.15872 104.763649 
L 155.246993 106.103496 
L 157.335266 108.944586 
L 159.510401 114.575355 
L 162.043001 122.534336 
L 166.698111 142.046216 
L 168.519928 152.434807 
L 170.50124 162.406363 
L 172.655099 170.785529 
L 174.52354 177.529548 
L 176.273601 183.000696 
L 177.657389 188.159341 
L 179.001549 192.516482 
L 180.315288 196.120779 
L 181.715221 198.837112 
L 184.904682 203.348136 
L 186.614765 205.042555 
L 188.43152 206.543341 
L 190.184651 207.474755 
L 192.222515 208.236746 
L 194.06973 208.507855 
L 198.291487 208.586794 
L 202.879005 208.402642 
L 205.470308 208.178262 
L 210.526296 207.358894 
L 216.10674 206.094521 
L 219.075358 205.151472 
L 222.219093 203.916705 
L 228.582479 201.134705 
L 235.540425 198.612791 
L 246.737151 195.042355 
L 250.362058 194.051304 
L 254.254934 193.112866 
L 259.733772 191.345239 
L 265.403131 189.829981 
L 269.2905 189.100413 
L 276.808283 188.080262 
L 284.326066 187.590306 
L 291.843849 187.266256 
L 303.25359 187.015244 
L 321.914982 186.789758 
L 331.696079 186.80706 
L 342.01383 187.080722 
L 348.694413 187.426564 
L 350.213957 187.626728 
L 350.737495 187.744712 
L 351.340237 200.889837 
L 351.986114 227.102096 
L 352.26343 253.059526 
L 352.560084 266.358406 
L 352.86825 267.302357 
L 353.203924 269.302495 
L 353.80499 270.735886 
L 354.445147 271.856799 
L 355.061045 272.27519 
L 356.377815 272.736331 
L 357.053887 272.894534 
L 361.132032 273.169661 
L 368.132668 273.326944 
L 400.121452 273.362155 
L 437.273548 273.320553 
L 437.273548 273.320553 
" clip-path="url(#p1823f699b4)" style="fill: none; stroke: #ffa500; stroke-width: 3; stroke-linecap: square"/>
   </g>
   <g id="patch_3">
    <path d="M 71.953548 280.230498 
L 71.953548 14.118498 
" style="fill: none; stroke: #000000; stroke-width: 0.8; stroke-linejoin: miter; stroke-linecap: square"/>
   </g>
   <g id="patch_4">
    <path d="M 429.073548 280.230498 
L 429.073548 14.118498 
" style="fill: none; stroke: #000000; stroke-width: 0.8; stroke-linejoin: miter; stroke-linecap: square"/>
   </g>
   <g id="patch_5">
    <path d="M 71.953548 280.230498 
L 429.073548 280.230498 
" style="fill: none; stroke: #000000; stroke-width: 0.8; stroke-linejoin: miter; stroke-linecap: square"/>
   </g>
   <g id="patch_6">
    <path d="M 71.953548 14.118498 
L 429.073548 14.118498 
" style="fill: none; stroke: #000000; stroke-width: 0.8; stroke-linejoin: miter; stroke-linecap: square"/>
   </g>
   <g id="legend_1">
    <g id="patch_7">
     <path d="M 328.661287 169.496666 
L 415.073548 169.496666 
Q 419.073548 169.496666 419.073548 165.496666 
L 419.073548 28.118498 
Q 419.073548 24.118498 415.073548 24.118498 
L 328.661287 24.118498 
Q 324.661287 24.118498 324.661287 28.118498 
L 324.661287 165.496666 
Q 324.661287 169.496666 328.661287 169.496666 
z
" style="fill: #ffffff; stroke: #cccccc; stroke-linejoin: miter"/>
    </g>
    <g id="line2d_24">
     <path d="M 332.661287 39.118498 
L 352.661287 39.118498 
L 372.661287 39.118498 
" style="fill: none; stroke: #ff0000; stroke-width: 3; stroke-linecap: square"/>
    </g>
    <g id="text_12">
     <!-- $L0$ -->
     <g transform="translate(388.661287 46.118498) scale(0.2 -0.2)">
      <defs>
       <path id="CMMI12-4c" d="M 2349 3861 
C 2406 4103 2426 4167 2989 4167 
C 3162 4167 3206 4167 3206 4288 
C 3206 4352 3136 4352 3110 4352 
C 2982 4352 2835 4352 2707 4352 
L 1850 4352 
C 1728 4352 1587 4352 1466 4352 
C 1414 4352 1344 4352 1344 4231 
C 1344 4167 1402 4167 1498 4167 
C 1888 4167 1888 4116 1888 4046 
C 1888 4034 1888 3995 1862 3899 
L 998 472 
C 941 249 928 185 480 185 
C 358 185 294 185 294 70 
C 294 0 333 0 461 0 
L 3328 0 
C 3469 0 3475 6 3520 121 
L 4013 1478 
C 4026 1510 4038 1548 4038 1567 
C 4038 1605 4006 1631 3974 1631 
C 3968 1631 3936 1631 3923 1605 
C 3910 1599 3910 1586 3859 1465 
C 3654 905 3366 185 2285 185 
L 1670 185 
C 1581 185 1568 185 1530 192 
C 1459 198 1453 211 1453 262 
C 1453 307 1466 345 1478 401 
L 2349 3861 
z
" transform="scale(0.015625)"/>
      </defs>
      <use xlink:href="#CMMI12-4c" transform="scale(0.996264)"/>
      <use xlink:href="#CMR17-30" transform="translate(66.370875 0) scale(0.996264)"/>
     </g>
    </g>
    <g id="line2d_25">
     <path d="M 332.661287 66.994132 
L 352.661287 66.994132 
L 372.661287 66.994132 
" style="fill: none; stroke: #0000ff; stroke-width: 3; stroke-linecap: square"/>
    </g>
    <g id="text_13">
     <!-- $L1$ -->
     <g transform="translate(388.661287 73.994132) scale(0.2 -0.2)">
      <use xlink:href="#CMMI12-4c" transform="scale(0.996264)"/>
      <use xlink:href="#CMR17-31" transform="translate(66.370875 0) scale(0.996264)"/>
     </g>
    </g>
    <g id="line2d_26">
     <path d="M 332.661287 94.869766 
L 352.661287 94.869766 
L 372.661287 94.869766 
" style="fill: none; stroke: #008000; stroke-width: 3; stroke-linecap: square"/>
    </g>
    <g id="text_14">
     <!-- $L2$ -->
     <g transform="translate(388.661287 101.869766) scale(0.2 -0.2)">
      <use xlink:href="#CMMI12-4c" transform="scale(0.996264)"/>
      <use xlink:href="#CMR17-32" transform="translate(66.370875 0) scale(0.996264)"/>
     </g>
    </g>
    <g id="line2d_27">
     <path d="M 332.661287 122.745399 
L 352.661287 122.745399 
L 372.661287 122.745399 
" style="fill: none; stroke: #000000; stroke-width: 3; stroke-linecap: square"/>
    </g>
    <g id="text_15">
     <!-- $L3$ -->
     <g transform="translate(388.661287 129.745399) scale(0.2 -0.2)">
      <use xlink:href="#CMMI12-4c" transform="scale(0.996264)"/>
      <use xlink:href="#CMR17-33" transform="translate(66.370875 0) scale(0.996264)"/>
     </g>
    </g>
    <g id="line2d_28">
     <path d="M 332.661287 150.621033 
L 352.661287 150.621033 
L 372.661287 150.621033 
" style="fill: none; stroke: #ffa500; stroke-width: 3; stroke-linecap: square"/>
    </g>
    <g id="text_16">
     <!-- $L4$ -->
     <g transform="translate(388.661287 157.621033) scale(0.2 -0.2)">
      <defs>
       <path id="CMR17-34" d="M 2150 4122 
C 2150 4256 2144 4256 2029 4256 
L 128 1254 
L 128 1088 
L 1779 1088 
L 1779 457 
C 1779 224 1766 160 1318 160 
L 1197 160 
L 1197 0 
C 1402 0 1747 0 1965 0 
C 2182 0 2528 0 2733 0 
L 2733 160 
L 2611 160 
C 2163 160 2150 224 2150 457 
L 2150 1088 
L 2803 1088 
L 2803 1254 
L 2150 1254 
L 2150 4122 
z
M 1798 3703 
L 1798 1254 
L 256 1254 
L 1798 3703 
z
" transform="scale(0.015625)"/>
      </defs>
      <use xlink:href="#CMMI12-4c" transform="scale(0.996264)"/>
      <use xlink:href="#CMR17-34" transform="translate(66.370875 0) scale(0.996264)"/>
     </g>
    </g>
   </g>
  </g>
 </g>
 <defs>
  <clipPath id="p1823f699b4">
   <rect x="71.953548" y="14.118498" width="357.12" height="266.112"/>
  </clipPath>
 </defs>
</svg>
