<?xml version="1.0" encoding="utf-8" standalone="no"?>
<!DOCTYPE svg PUBLIC "-//W3C//DTD SVG 1.1//EN"
  "http://www.w3.org/Graphics/SVG/1.1/DTD/svg11.dtd">
<svg xmlns:xlink="http://www.w3.org/1999/xlink" width="832.437189pt" height="692.806049pt" viewBox="0 0 832.437189 692.806049" xmlns="http://www.w3.org/2000/svg" version="1.1">
 <metadata>
  <rdf:RDF xmlns:dc="http://purl.org/dc/elements/1.1/" xmlns:cc="http://creativecommons.org/ns#" xmlns:rdf="http://www.w3.org/1999/02/22-rdf-syntax-ns#">
   <cc:Work>
    <dc:type rdf:resource="http://purl.org/dc/dcmitype/StillImage"/>
    <dc:date>2025-03-27T12:27:09.071744</dc:date>
    <dc:format>image/svg+xml</dc:format>
    <dc:creator>
     <cc:Agent>
      <dc:title>Matplotlib v3.7.1, https://matplotlib.org/</dc:title>
     </cc:Agent>
    </dc:creator>
   </cc:Work>
  </rdf:RDF>
 </metadata>
 <defs>
  <style type="text/css">*{stroke-linejoin: round; stroke-linecap: butt}</style>
 </defs>
 <g id="figure_1">
  <g id="patch_1">
   <path d="M 0 692.806049 
L 832.437189 692.806049 
L 832.437189 0 
L 0 0 
z
" style="fill: #ffffff"/>
  </g>
  <g id="axes_1">
   <g id="patch_2">
    <path d="M 99.837189 617.04 
L 825.237189 617.04 
L 825.237189 7.2 
L 99.837189 7.2 
z
" style="fill: #ffffff"/>
   </g>
   <g id="PolyCollection_1">
    <path d="M 113.270523 75.920474 
L 113.270523 26.6545 
L 131.527686 27.12165 
L 144.855533 28.03486 
L 154.585105 29.628519 
L 161.68809 31.803074 
L 166.873842 35.009352 
L 170.660233 39.077269 
L 173.425353 44.656456 
L 175.445262 51.836099 
L 176.921529 61.73444 
L 178.100261 75.060252 
L 179.268725 96.646353 
L 180.437189 141.464035 
L 181.634755 188.963551 
L 182.832321 199.133523 
L 184.029887 210.954423 
L 185.227453 216.8263 
L 186.425019 221.913692 
L 187.622584 226.68663 
L 188.82015 231.414043 
L 190.017716 235.944768 
L 191.215282 240.418267 
L 192.412848 244.3762 
L 193.610414 247.896675 
L 194.80798 250.899267 
L 196.005545 253.314471 
L 197.203111 255.233832 
L 198.400677 256.742916 
L 199.598243 257.773377 
L 200.795809 258.55841 
L 201.993375 259.065359 
L 203.190941 259.456676 
L 204.388506 259.74579 
L 205.586072 259.890837 
L 206.783638 260.065734 
L 207.981204 260.040041 
L 209.17877 260.15073 
L 210.376336 260.050565 
L 211.573901 260.136033 
L 212.771467 260.019481 
L 213.969033 260.08919 
L 215.166599 259.990474 
L 216.364165 260.03376 
L 217.561731 259.935677 
L 218.759297 259.950918 
L 219.956862 259.846884 
L 221.154428 259.810024 
L 222.351995 259.738997 
L 223.579731 259.685061 
L 224.851333 259.62691 
L 226.168694 259.568574 
L 227.534333 259.50268 
L 228.950835 259.43486 
L 230.419684 259.370382 
L 231.942649 259.34351 
L 233.52179 259.311396 
L 235.159375 259.280435 
L 236.856834 259.23878 
L 238.615941 259.211092 
L 240.439171 259.176755 
L 242.329853 259.137879 
L 244.291748 259.099833 
L 246.323967 259.064687 
L 248.43108 259.034221 
L 250.616925 258.978624 
L 252.881633 258.940841 
L 255.231027 258.87235 
L 257.666411 258.85256 
L 260.190676 258.79553 
L 262.808896 258.7972 
L 265.523383 258.789598 
L 268.337524 258.825437 
L 271.255184 258.808231 
L 274.280306 258.812412 
L 277.4168 258.78609 
L 280.668634 258.761138 
L 284.040104 258.716475 
L 287.536236 258.676159 
L 291.160924 258.624721 
L 294.918912 258.572961 
L 298.815516 258.523221 
L 302.855789 258.449893 
L 307.044565 258.404909 
L 311.387607 258.333775 
L 315.89077 258.291208 
L 320.559929 258.216246 
L 325.400986 258.169421 
L 330.394807 258.084016 
L 335.53263 258.028826 
L 340.859588 257.939303 
L 346.383145 257.875495 
L 352.110169 257.784973 
L 358.048288 257.715322 
L 364.205329 257.625124 
L 370.589261 257.552806 
L 377.208536 257.469357 
L 384.071936 257.403946 
L 391.188344 257.336839 
L 398.567044 257.296887 
L 406.217767 257.27121 
L 413.770626 257.303412 
L 419.407545 257.399877 
L 423.421802 257.643772 
L 426.280996 258.067405 
L 428.317932 258.658775 
L 429.769446 259.521982 
L 430.910213 260.547652 
L 432.041247 262.080299 
L 433.172282 264.161842 
L 434.303316 267.260407 
L 435.43435 272.043374 
L 436.565385 280.606957 
L 437.696419 293.523867 
L 438.827454 309.997126 
L 439.958488 329.913447 
L 440.783283 352.085687 
L 441.608079 353.122989 
L 442.432874 357.212672 
L 443.257669 364.964109 
L 444.082465 374.336977 
L 444.90726 382.75974 
L 445.732056 388.152394 
L 446.556851 392.136812 
L 447.381646 394.595588 
L 448.206442 395.997887 
L 449.031237 396.536178 
L 449.856032 396.602131 
L 450.680828 396.243004 
L 451.505623 395.832635 
L 452.330418 395.393588 
L 453.155214 394.934189 
L 453.980009 394.501877 
L 454.804804 394.129518 
L 455.6296 393.743968 
L 456.454395 393.37884 
L 457.279191 393.053168 
L 458.103986 392.733636 
L 458.928781 392.42781 
L 459.753577 392.123078 
L 460.578372 391.82431 
L 461.403167 391.531252 
L 462.227963 391.230933 
L 463.052758 390.939314 
L 463.877553 390.65717 
L 464.702349 390.371424 
L 465.527144 390.092855 
L 466.351939 389.816601 
L 467.176735 389.541829 
L 468.00153 389.244829 
L 468.826326 388.940566 
L 469.651121 388.622021 
L 470.475916 388.281471 
L 471.300712 387.908909 
L 472.125507 387.503307 
L 472.950302 386.961233 
L 473.775098 386.467805 
L 474.599893 385.912133 
L 475.424688 385.272023 
L 476.249484 384.549439 
L 477.082726 383.729287 
L 477.96769 382.789803 
L 478.930327 381.726888 
L 479.968268 380.522371 
L 481.095782 379.18769 
L 482.319609 377.737973 
L 483.645481 376.168569 
L 485.08459 374.47155 
L 486.649689 372.769535 
L 488.351088 370.964288 
L 490.200984 369.245307 
L 492.213011 367.467832 
L 494.402105 365.901265 
L 496.784831 364.356516 
L 499.378255 363.166288 
L 502.198217 362.091943 
L 505.267159 361.412404 
L 508.602054 360.830042 
L 512.225875 360.662429 
L 516.157554 360.684768 
L 520.416405 360.914797 
L 525.019869 361.112907 
L 529.979269 361.573794 
L 535.297221 362.117044 
L 540.956768 362.653967 
L 546.870764 363.005495 
L 552.809291 363.432322 
L 558.747817 363.714372 
L 564.686344 363.813997 
L 570.624871 363.60872 
L 576.563397 362.995082 
L 582.501924 361.739519 
L 588.44045 359.628216 
L 594.378977 356.472519 
L 600.317503 352.173045 
L 606.25603 346.622882 
L 612.194557 339.175489 
L 618.133083 330.129661 
L 624.07161 317.201815 
L 630.010136 303.929577 
L 638.40597 300.273529 
L 646.801803 295.235796 
L 655.197636 283.586819 
L 663.59347 270.52498 
L 671.989303 260.430748 
L 680.385136 252.727354 
L 688.78097 247.500152 
L 697.176803 243.842008 
L 705.572636 241.454681 
L 713.96847 239.849278 
L 722.364303 238.785143 
L 730.760136 237.872178 
L 739.15597 236.724742 
L 747.551803 235.611278 
L 755.947636 234.460594 
L 764.34347 233.380897 
L 772.739303 232.254745 
L 781.135136 231.147036 
L 789.53097 229.932575 
L 797.926803 228.678684 
L 806.322636 227.284266 
L 814.71847 225.940818 
L 823.114303 224.957109 
L 831.510136 224.491768 
L 831.510136 269.136283 
L 831.510136 269.136283 
L 823.114303 269.664513 
L 814.71847 270.834951 
L 806.322636 272.490723 
L 797.926803 274.538542 
L 789.53097 276.548256 
L 781.135136 278.650894 
L 772.739303 280.76614 
L 764.34347 282.909667 
L 755.947636 284.971423 
L 747.551803 286.994699 
L 739.15597 288.822038 
L 730.760136 290.534127 
L 722.364303 292.105503 
L 713.96847 293.911756 
L 705.572636 296.345497 
L 697.176803 299.861648 
L 688.78097 305.53422 
L 680.385136 313.483645 
L 671.989303 324.999117 
L 663.59347 340.001076 
L 655.197636 357.663036 
L 646.801803 386.876141 
L 638.40597 412.666515 
L 630.010136 358.631691 
L 624.07161 334.461279 
L 618.133083 347.415484 
L 612.194557 358.185489 
L 606.25603 364.534764 
L 600.317503 367.802434 
L 594.378977 369.670779 
L 588.44045 370.750589 
L 582.501924 371.46462 
L 576.563397 371.992751 
L 570.624871 372.329546 
L 564.686344 372.508926 
L 558.747817 372.494407 
L 552.809291 372.389714 
L 546.870764 372.156852 
L 540.956768 372.095806 
L 535.297221 371.864276 
L 529.979269 371.744943 
L 525.019869 371.698912 
L 520.416405 372.034272 
L 516.157554 372.305541 
L 512.225875 372.751388 
L 508.602054 373.427885 
L 505.267159 374.312207 
L 502.198217 375.322904 
L 499.378255 376.449571 
L 496.784831 377.800986 
L 494.402105 379.290674 
L 492.213011 380.916938 
L 490.200984 382.649421 
L 488.351088 384.403188 
L 486.649689 386.183641 
L 485.08459 387.893132 
L 483.645481 389.525981 
L 482.319609 391.014687 
L 481.095782 392.331297 
L 479.968268 393.523391 
L 478.930327 394.56657 
L 477.96769 395.476297 
L 477.082726 396.269816 
L 476.249484 396.960472 
L 475.424688 397.569788 
L 474.599893 398.11485 
L 473.775098 398.591147 
L 472.950302 399.021243 
L 472.125507 399.504336 
L 471.300712 399.871632 
L 470.475916 400.21533 
L 469.651121 400.537231 
L 468.826326 400.847279 
L 468.00153 401.15339 
L 467.176735 401.45264 
L 466.351939 401.744405 
L 465.527144 402.036604 
L 464.702349 402.340263 
L 463.877553 402.650994 
L 463.052758 402.967242 
L 462.227963 403.294403 
L 461.403167 403.633876 
L 460.578372 403.970329 
L 459.753577 404.317818 
L 458.928781 404.676557 
L 458.103986 405.046782 
L 457.279191 405.437506 
L 456.454395 405.845944 
L 455.6296 406.302454 
L 454.804804 406.787972 
L 453.980009 407.259281 
L 453.155214 407.78862 
L 452.330418 408.331258 
L 451.505623 408.831925 
L 450.680828 409.289659 
L 449.856032 409.712764 
L 449.031237 409.827508 
L 448.206442 409.826513 
L 447.381646 409.631121 
L 446.556851 409.495176 
L 445.732056 408.863146 
L 444.90726 407.722688 
L 444.082465 403.669331 
L 443.257669 397.710985 
L 442.432874 389.470543 
L 441.608079 379.689333 
L 440.783283 369.359756 
L 439.958488 347.643065 
L 438.827454 334.330632 
L 437.696419 320.763614 
L 436.565385 308.076713 
L 435.43435 297.979124 
L 434.303316 290.102294 
L 433.172282 284.153982 
L 432.041247 279.651122 
L 430.910213 276.529198 
L 429.769446 274.561367 
L 428.317932 273.195002 
L 426.280996 272.340585 
L 423.421802 271.763205 
L 419.407545 271.44378 
L 413.770626 271.272581 
L 406.217767 271.207748 
L 398.567044 271.18275 
L 391.188344 271.186056 
L 384.071936 271.19925 
L 377.208536 271.213757 
L 370.589261 271.235135 
L 364.205329 271.249827 
L 358.048288 271.270622 
L 352.110169 271.286897 
L 346.383145 271.304627 
L 340.859588 271.325825 
L 335.53263 271.345164 
L 330.394807 271.368471 
L 325.400986 271.390076 
L 320.559929 271.413617 
L 315.89077 271.432452 
L 311.387607 271.458736 
L 307.044565 271.484144 
L 302.855789 271.515514 
L 298.815516 271.556619 
L 294.918912 271.590437 
L 291.160924 271.622282 
L 287.536236 271.655408 
L 284.040104 271.683954 
L 280.668634 271.708576 
L 277.4168 271.727407 
L 274.280306 271.729424 
L 271.255184 271.726107 
L 268.337524 271.709537 
L 265.523383 271.679497 
L 262.808896 271.642043 
L 260.190676 271.644913 
L 257.666411 271.649206 
L 255.231027 271.66526 
L 252.881633 271.682757 
L 250.616925 271.702289 
L 248.43108 271.715527 
L 246.323967 271.709243 
L 244.291748 271.712198 
L 242.329853 271.698254 
L 240.439171 271.709132 
L 238.615941 271.688314 
L 236.856834 271.683158 
L 235.159375 271.670611 
L 233.52179 271.658181 
L 231.942649 271.633717 
L 230.419684 271.60668 
L 228.950835 271.608522 
L 227.534333 271.615461 
L 226.168694 271.616072 
L 224.851333 271.610222 
L 223.579731 271.610968 
L 222.351995 271.602011 
L 221.154428 271.629006 
L 219.956862 271.625213 
L 218.759297 271.685223 
L 217.561731 271.690753 
L 216.364165 271.724541 
L 215.166599 271.771456 
L 213.969033 271.789168 
L 212.771467 271.857609 
L 211.573901 271.921546 
L 210.376336 272.005026 
L 209.17877 272.118667 
L 207.981204 272.216007 
L 206.783638 272.351159 
L 205.586072 272.448317 
L 204.388506 272.55255 
L 203.190941 272.627099 
L 201.993375 272.698651 
L 200.795809 272.712377 
L 199.598243 272.726609 
L 198.400677 272.53395 
L 197.203111 272.360761 
L 196.005545 271.950939 
L 194.80798 271.647871 
L 193.610414 271.279097 
L 192.412848 270.919405 
L 191.215282 270.801465 
L 190.017716 270.41364 
L 188.82015 270.110096 
L 187.622584 268.896241 
L 186.425019 266.55804 
L 185.227453 261.938282 
L 184.029887 255.451208 
L 182.832321 243.725152 
L 181.634755 233.912614 
L 180.437189 190.28183 
L 179.268725 147.246804 
L 178.100261 128.923644 
L 176.921529 115.948481 
L 175.445262 105.466011 
L 173.425353 96.691805 
L 170.660233 90.030143 
L 166.873842 85.060561 
L 161.68809 81.45224 
L 154.585105 79.033788 
L 144.855533 77.35467 
L 131.527686 76.400891 
L 113.270523 75.920474 
z
" clip-path="url(#p37c5f52097)" style="fill: #99ccff; fill-opacity: 0.7"/>
   </g>
   <g id="matplotlib.axis_1">
    <g id="xtick_1">
     <g id="line2d_1">
      <path d="M 180.437189 617.04 
L 180.437189 7.2 
" clip-path="url(#p37c5f52097)" style="fill: none; stroke: #b0b0b0; stroke-width: 0.8; stroke-linecap: square"/>
     </g>
     <g id="line2d_2">
      <defs>
       <path id="m16a8f5594a" d="M 0 0 
L 0 3.5 
" style="stroke: #000000; stroke-width: 0.8"/>
      </defs>
      <g>
       <use xlink:href="#m16a8f5594a" x="180.437189" y="617.04" style="stroke: #000000; stroke-width: 0.8"/>
      </g>
     </g>
     <g id="text_1">
      <!-- $\mathdefault{0.0}$ -->
      <g transform="translate(162.66547 644.795495) scale(0.3 -0.3)">
       <defs>
        <path id="CMR17-30" d="M 2688 2025 
C 2688 2416 2682 3080 2413 3591 
C 2176 4039 1798 4198 1466 4198 
C 1158 4198 768 4058 525 3597 
C 269 3118 243 2524 243 2025 
C 243 1661 250 1106 448 619 
C 723 -39 1216 -128 1466 -128 
C 1760 -128 2208 -7 2470 600 
C 2662 1042 2688 1559 2688 2025 
z
M 1466 -26 
C 1056 -26 813 325 723 812 
C 653 1188 653 1738 653 2096 
C 653 2588 653 2997 736 3387 
C 858 3929 1216 4096 1466 4096 
C 1728 4096 2067 3923 2189 3400 
C 2272 3036 2278 2607 2278 2096 
C 2278 1680 2278 1169 2202 792 
C 2067 95 1690 -26 1466 -26 
z
" transform="scale(0.015625)"/>
        <path id="CMMI12-3a" d="M 1178 307 
C 1178 492 1024 619 870 619 
C 685 619 557 466 557 313 
C 557 128 710 0 864 0 
C 1050 0 1178 153 1178 307 
z
" transform="scale(0.015625)"/>
       </defs>
       <use xlink:href="#CMR17-30" transform="scale(0.996264)"/>
       <use xlink:href="#CMMI12-3a" transform="translate(45.690477 0) scale(0.996264)"/>
       <use xlink:href="#CMR17-30" transform="translate(72.787654 0) scale(0.996264)"/>
      </g>
     </g>
    </g>
    <g id="xtick_2">
     <g id="line2d_3">
      <path d="M 314.770523 617.04 
L 314.770523 7.2 
" clip-path="url(#p37c5f52097)" style="fill: none; stroke: #b0b0b0; stroke-width: 0.8; stroke-linecap: square"/>
     </g>
     <g id="line2d_4">
      <g>
       <use xlink:href="#m16a8f5594a" x="314.770523" y="617.04" style="stroke: #000000; stroke-width: 0.8"/>
      </g>
     </g>
     <g id="text_2">
      <!-- $\mathdefault{0.1}$ -->
      <g transform="translate(296.998803 644.795495) scale(0.3 -0.3)">
       <defs>
        <path id="CMR17-31" d="M 1702 4058 
C 1702 4192 1696 4192 1606 4192 
C 1357 3916 979 3827 621 3827 
C 602 3827 570 3827 563 3808 
C 557 3795 557 3782 557 3648 
C 755 3648 1088 3686 1344 3839 
L 1344 461 
C 1344 236 1331 160 781 160 
L 589 160 
L 589 0 
C 896 0 1216 0 1523 0 
C 1830 0 2150 0 2458 0 
L 2458 160 
L 2266 160 
C 1715 160 1702 230 1702 458 
L 1702 4058 
z
" transform="scale(0.015625)"/>
       </defs>
       <use xlink:href="#CMR17-30" transform="scale(0.996264)"/>
       <use xlink:href="#CMMI12-3a" transform="translate(45.690477 0) scale(0.996264)"/>
       <use xlink:href="#CMR17-31" transform="translate(72.787654 0) scale(0.996264)"/>
      </g>
     </g>
    </g>
    <g id="xtick_3">
     <g id="line2d_5">
      <path d="M 449.103856 617.04 
L 449.103856 7.2 
" clip-path="url(#p37c5f52097)" style="fill: none; stroke: #b0b0b0; stroke-width: 0.8; stroke-linecap: square"/>
     </g>
     <g id="line2d_6">
      <g>
       <use xlink:href="#m16a8f5594a" x="449.103856" y="617.04" style="stroke: #000000; stroke-width: 0.8"/>
      </g>
     </g>
     <g id="text_3">
      <!-- $\mathdefault{0.2}$ -->
      <g transform="translate(431.332136 644.795495) scale(0.3 -0.3)">
       <defs>
        <path id="CMR17-32" d="M 2669 989 
L 2554 989 
C 2490 536 2438 459 2413 420 
C 2381 369 1920 369 1830 369 
L 602 369 
C 832 619 1280 1072 1824 1597 
C 2214 1967 2669 2402 2669 3035 
C 2669 3790 2067 4224 1395 4224 
C 691 4224 262 3604 262 3030 
C 262 2780 448 2748 525 2748 
C 589 2748 781 2787 781 3010 
C 781 3207 614 3264 525 3264 
C 486 3264 448 3258 422 3245 
C 544 3790 915 4058 1306 4058 
C 1862 4058 2227 3617 2227 3035 
C 2227 2479 1901 2000 1536 1584 
L 262 146 
L 262 0 
L 2515 0 
L 2669 989 
z
" transform="scale(0.015625)"/>
       </defs>
       <use xlink:href="#CMR17-30" transform="scale(0.996264)"/>
       <use xlink:href="#CMMI12-3a" transform="translate(45.690477 0) scale(0.996264)"/>
       <use xlink:href="#CMR17-32" transform="translate(72.787654 0) scale(0.996264)"/>
      </g>
     </g>
    </g>
    <g id="xtick_4">
     <g id="line2d_7">
      <path d="M 583.437189 617.04 
L 583.437189 7.2 
" clip-path="url(#p37c5f52097)" style="fill: none; stroke: #b0b0b0; stroke-width: 0.8; stroke-linecap: square"/>
     </g>
     <g id="line2d_8">
      <g>
       <use xlink:href="#m16a8f5594a" x="583.437189" y="617.04" style="stroke: #000000; stroke-width: 0.8"/>
      </g>
     </g>
     <g id="text_4">
      <!-- $\mathdefault{0.3}$ -->
      <g transform="translate(565.66547 644.795495) scale(0.3 -0.3)">
       <defs>
        <path id="CMR17-33" d="M 1414 2157 
C 1984 2157 2234 1662 2234 1090 
C 2234 320 1824 25 1453 25 
C 1114 25 563 194 390 693 
C 422 680 454 680 486 680 
C 640 680 755 782 755 948 
C 755 1133 614 1216 486 1216 
C 378 1216 211 1165 211 926 
C 211 335 787 -128 1466 -128 
C 2176 -128 2720 430 2720 1085 
C 2720 1707 2208 2157 1600 2227 
C 2086 2328 2554 2756 2554 3329 
C 2554 3820 2048 4179 1472 4179 
C 890 4179 378 3829 378 3329 
C 378 3110 544 3072 627 3072 
C 762 3072 877 3155 877 3321 
C 877 3486 762 3569 627 3569 
C 602 3569 570 3569 544 3557 
C 730 3959 1235 4032 1459 4032 
C 1683 4032 2106 3925 2106 3320 
C 2106 3143 2080 2828 1862 2550 
C 1670 2304 1453 2304 1242 2284 
C 1210 2284 1062 2269 1037 2269 
C 992 2263 966 2257 966 2208 
C 966 2163 973 2157 1101 2157 
L 1414 2157 
z
" transform="scale(0.015625)"/>
       </defs>
       <use xlink:href="#CMR17-30" transform="scale(0.996264)"/>
       <use xlink:href="#CMMI12-3a" transform="translate(45.690477 0) scale(0.996264)"/>
       <use xlink:href="#CMR17-33" transform="translate(72.787654 0) scale(0.996264)"/>
      </g>
     </g>
    </g>
    <g id="xtick_5">
     <g id="line2d_9">
      <path d="M 717.770523 617.04 
L 717.770523 7.2 
" clip-path="url(#p37c5f52097)" style="fill: none; stroke: #b0b0b0; stroke-width: 0.8; stroke-linecap: square"/>
     </g>
     <g id="line2d_10">
      <g>
       <use xlink:href="#m16a8f5594a" x="717.770523" y="617.04" style="stroke: #000000; stroke-width: 0.8"/>
      </g>
     </g>
     <g id="text_5">
      <!-- $\mathdefault{0.4}$ -->
      <g transform="translate(699.998803 644.795495) scale(0.3 -0.3)">
       <defs>
        <path id="CMR17-34" d="M 2150 4122 
C 2150 4256 2144 4256 2029 4256 
L 128 1254 
L 128 1088 
L 1779 1088 
L 1779 457 
C 1779 224 1766 160 1318 160 
L 1197 160 
L 1197 0 
C 1402 0 1747 0 1965 0 
C 2182 0 2528 0 2733 0 
L 2733 160 
L 2611 160 
C 2163 160 2150 224 2150 457 
L 2150 1088 
L 2803 1088 
L 2803 1254 
L 2150 1254 
L 2150 4122 
z
M 1798 3703 
L 1798 1254 
L 256 1254 
L 1798 3703 
z
" transform="scale(0.015625)"/>
       </defs>
       <use xlink:href="#CMR17-30" transform="scale(0.996264)"/>
       <use xlink:href="#CMMI12-3a" transform="translate(45.690477 0) scale(0.996264)"/>
       <use xlink:href="#CMR17-34" transform="translate(72.787654 0) scale(0.996264)"/>
      </g>
     </g>
    </g>
    <g id="text_6">
     <!-- $x, \; \mathrm{m} $ -->
     <g transform="translate(426.884586 678.823697) scale(0.35 -0.35)">
      <defs>
       <path id="CMMI12-78" d="M 3034 2606 
C 2829 2567 2752 2414 2752 2293 
C 2752 2139 2874 2088 2963 2088 
C 3155 2088 3290 2254 3290 2427 
C 3290 2695 2982 2816 2714 2816 
C 2323 2816 2106 2433 2048 2312 
C 1901 2816 1504 2816 1389 2816 
C 736 2816 390 1980 390 1839 
C 390 1814 416 1782 461 1782 
C 512 1782 525 1820 538 1846 
C 755 2555 1184 2689 1370 2689 
C 1658 2689 1715 2420 1715 2267 
C 1715 2127 1677 1980 1600 1673 
L 1382 798 
C 1286 415 1101 64 762 64 
C 730 64 570 64 435 147 
C 666 192 717 383 717 460 
C 717 588 621 664 499 664 
C 346 664 179 530 179 326 
C 179 57 480 -64 755 -64 
C 1062 -64 1280 179 1414 441 
C 1517 64 1837 -64 2074 -64 
C 2726 -64 3072 773 3072 913 
C 3072 945 3046 971 3008 971 
C 2950 971 2944 939 2925 888 
C 2752 326 2381 64 2093 64 
C 1869 64 1747 230 1747 492 
C 1747 632 1773 734 1875 1156 
L 2099 2024 
C 2195 2408 2413 2689 2707 2689 
C 2720 2689 2899 2689 3034 2606 
z
" transform="scale(0.015625)"/>
       <path id="CMMI12-3b" d="M 1248 -31 
C 1248 343 1126 619 864 619 
C 659 619 557 453 557 313 
C 557 172 653 0 870 0 
C 954 0 1024 26 1082 83 
C 1094 96 1101 96 1107 96 
C 1120 96 1120 5 1120 -27 
C 1120 -240 1082 -659 710 -1080 
C 640 -1157 640 -1170 640 -1183 
C 640 -1216 672 -1248 704 -1248 
C 755 -1248 1248 -771 1248 -31 
z
" transform="scale(0.015625)"/>
       <path id="CMR17-6d" d="M 4326 1933 
C 4326 2252 4269 2790 3507 2790 
C 3072 2790 2771 2496 2656 2151 
L 2650 2151 
C 2573 2676 2195 2790 1837 2790 
C 1331 2790 1069 2400 973 2144 
L 966 2144 
L 966 2790 
L 211 2720 
L 211 2554 
C 589 2554 646 2515 646 2208 
L 646 428 
C 646 184 621 153 211 153 
L 211 -13 
C 365 0 646 0 813 0 
C 979 0 1267 0 1421 -13 
L 1421 153 
C 1011 153 986 178 986 428 
L 986 1658 
C 986 2247 1344 2688 1792 2688 
C 2266 2688 2317 2266 2317 1958 
L 2317 428 
C 2317 184 2291 153 1882 153 
L 1882 -13 
C 2035 0 2317 0 2483 0 
C 2650 0 2938 0 3091 -13 
L 3091 153 
C 2682 153 2656 178 2656 428 
L 2656 1658 
C 2656 2247 3014 2688 3462 2688 
C 3936 2688 3987 2266 3987 1958 
L 3987 428 
C 3987 184 3962 153 3552 153 
L 3552 -13 
C 3706 0 3987 0 4154 0 
C 4320 0 4608 0 4762 -13 
L 4762 153 
C 4352 153 4326 178 4326 428 
L 4326 1933 
z
" transform="scale(0.015625)"/>
      </defs>
      <use xlink:href="#CMMI12-78" transform="scale(0.996264)"/>
      <use xlink:href="#CMMI12-3b" transform="translate(55.43406 0) scale(0.996264)"/>
      <use xlink:href="#CMR17-6d" transform="translate(126.809651 0) scale(0.996264)"/>
     </g>
    </g>
   </g>
   <g id="matplotlib.axis_2">
    <g id="ytick_1">
     <g id="line2d_11">
      <path d="M 99.837189 552.163404 
L 825.237189 552.163404 
" clip-path="url(#p37c5f52097)" style="fill: none; stroke: #b0b0b0; stroke-width: 0.8; stroke-linecap: square"/>
     </g>
     <g id="line2d_12">
      <defs>
       <path id="m5c1b185c6d" d="M 0 0 
L -3.5 0 
" style="stroke: #000000; stroke-width: 0.8"/>
      </defs>
      <g>
       <use xlink:href="#m5c1b185c6d" x="99.837189" y="552.163404" style="stroke: #000000; stroke-width: 0.8"/>
      </g>
     </g>
     <g id="text_7">
      <!-- $\mathdefault{0.0}$ -->
      <g transform="translate(57.29375 562.541152) scale(0.3 -0.3)">
       <use xlink:href="#CMR17-30" transform="scale(0.996264)"/>
       <use xlink:href="#CMMI12-3a" transform="translate(45.690477 0) scale(0.996264)"/>
       <use xlink:href="#CMR17-30" transform="translate(72.787654 0) scale(0.996264)"/>
      </g>
     </g>
    </g>
    <g id="ytick_2">
     <g id="line2d_13">
      <path d="M 99.837189 448.360851 
L 825.237189 448.360851 
" clip-path="url(#p37c5f52097)" style="fill: none; stroke: #b0b0b0; stroke-width: 0.8; stroke-linecap: square"/>
     </g>
     <g id="line2d_14">
      <g>
       <use xlink:href="#m5c1b185c6d" x="99.837189" y="448.360851" style="stroke: #000000; stroke-width: 0.8"/>
      </g>
     </g>
     <g id="text_8">
      <!-- $\mathdefault{0.2}$ -->
      <g transform="translate(57.29375 458.738599) scale(0.3 -0.3)">
       <use xlink:href="#CMR17-30" transform="scale(0.996264)"/>
       <use xlink:href="#CMMI12-3a" transform="translate(45.690477 0) scale(0.996264)"/>
       <use xlink:href="#CMR17-32" transform="translate(72.787654 0) scale(0.996264)"/>
      </g>
     </g>
    </g>
    <g id="ytick_3">
     <g id="line2d_15">
      <path d="M 99.837189 344.558298 
L 825.237189 344.558298 
" clip-path="url(#p37c5f52097)" style="fill: none; stroke: #b0b0b0; stroke-width: 0.8; stroke-linecap: square"/>
     </g>
     <g id="line2d_16">
      <g>
       <use xlink:href="#m5c1b185c6d" x="99.837189" y="344.558298" style="stroke: #000000; stroke-width: 0.8"/>
      </g>
     </g>
     <g id="text_9">
      <!-- $\mathdefault{0.4}$ -->
      <g transform="translate(57.29375 354.936045) scale(0.3 -0.3)">
       <use xlink:href="#CMR17-30" transform="scale(0.996264)"/>
       <use xlink:href="#CMMI12-3a" transform="translate(45.690477 0) scale(0.996264)"/>
       <use xlink:href="#CMR17-34" transform="translate(72.787654 0) scale(0.996264)"/>
      </g>
     </g>
    </g>
    <g id="ytick_4">
     <g id="line2d_17">
      <path d="M 99.837189 240.755745 
L 825.237189 240.755745 
" clip-path="url(#p37c5f52097)" style="fill: none; stroke: #b0b0b0; stroke-width: 0.8; stroke-linecap: square"/>
     </g>
     <g id="line2d_18">
      <g>
       <use xlink:href="#m5c1b185c6d" x="99.837189" y="240.755745" style="stroke: #000000; stroke-width: 0.8"/>
      </g>
     </g>
     <g id="text_10">
      <!-- $\mathdefault{0.6}$ -->
      <g transform="translate(57.29375 251.133492) scale(0.3 -0.3)">
       <defs>
        <path id="CMR17-36" d="M 678 2176 
C 678 3690 1395 4032 1811 4032 
C 1946 4032 2272 4009 2400 3776 
C 2298 3776 2106 3776 2106 3553 
C 2106 3381 2246 3323 2336 3323 
C 2394 3323 2566 3348 2566 3560 
C 2566 3954 2246 4179 1805 4179 
C 1043 4179 243 3390 243 1984 
C 243 253 966 -128 1478 -128 
C 2099 -128 2688 427 2688 1283 
C 2688 2081 2170 2662 1517 2662 
C 1126 2662 838 2407 678 1960 
L 678 2176 
z
M 1478 25 
C 691 25 691 1200 691 1436 
C 691 1896 909 2560 1504 2560 
C 1613 2560 1926 2560 2138 2120 
C 2253 1870 2253 1609 2253 1289 
C 2253 944 2253 690 2118 434 
C 1978 171 1773 25 1478 25 
z
" transform="scale(0.015625)"/>
       </defs>
       <use xlink:href="#CMR17-30" transform="scale(0.996264)"/>
       <use xlink:href="#CMMI12-3a" transform="translate(45.690477 0) scale(0.996264)"/>
       <use xlink:href="#CMR17-36" transform="translate(72.787654 0) scale(0.996264)"/>
      </g>
     </g>
    </g>
    <g id="ytick_5">
     <g id="line2d_19">
      <path d="M 99.837189 136.953191 
L 825.237189 136.953191 
" clip-path="url(#p37c5f52097)" style="fill: none; stroke: #b0b0b0; stroke-width: 0.8; stroke-linecap: square"/>
     </g>
     <g id="line2d_20">
      <g>
       <use xlink:href="#m5c1b185c6d" x="99.837189" y="136.953191" style="stroke: #000000; stroke-width: 0.8"/>
      </g>
     </g>
     <g id="text_11">
      <!-- $\mathdefault{0.8}$ -->
      <g transform="translate(57.29375 147.330939) scale(0.3 -0.3)">
       <defs>
        <path id="CMR17-38" d="M 1741 2264 
C 2144 2467 2554 2773 2554 3263 
C 2554 3841 1990 4179 1472 4179 
C 890 4179 378 3759 378 3180 
C 378 3021 416 2747 666 2505 
C 730 2442 998 2251 1171 2130 
C 883 1983 211 1634 211 934 
C 211 279 838 -128 1459 -128 
C 2144 -128 2720 362 2720 1010 
C 2720 1590 2330 1857 2074 2029 
L 1741 2264 
z
M 902 2822 
C 851 2854 595 3051 595 3351 
C 595 3739 998 4032 1459 4032 
C 1965 4032 2336 3676 2336 3262 
C 2336 2669 1670 2331 1638 2331 
C 1632 2331 1626 2331 1574 2370 
L 902 2822 
z
M 2080 1519 
C 2176 1449 2483 1240 2483 851 
C 2483 381 2010 25 1472 25 
C 890 25 448 438 448 940 
C 448 1443 838 1862 1280 2060 
L 2080 1519 
z
" transform="scale(0.015625)"/>
       </defs>
       <use xlink:href="#CMR17-30" transform="scale(0.996264)"/>
       <use xlink:href="#CMMI12-3a" transform="translate(45.690477 0) scale(0.996264)"/>
       <use xlink:href="#CMR17-38" transform="translate(72.787654 0) scale(0.996264)"/>
      </g>
     </g>
    </g>
    <g id="ytick_6">
     <g id="line2d_21">
      <path d="M 99.837189 33.150638 
L 825.237189 33.150638 
" clip-path="url(#p37c5f52097)" style="fill: none; stroke: #b0b0b0; stroke-width: 0.8; stroke-linecap: square"/>
     </g>
     <g id="line2d_22">
      <g>
       <use xlink:href="#m5c1b185c6d" x="99.837189" y="33.150638" style="stroke: #000000; stroke-width: 0.8"/>
      </g>
     </g>
     <g id="text_12">
      <!-- $\mathdefault{1.0}$ -->
      <g transform="translate(57.29375 43.528386) scale(0.3 -0.3)">
       <use xlink:href="#CMR17-31" transform="scale(0.996264)"/>
       <use xlink:href="#CMMI12-3a" transform="translate(45.690477 0) scale(0.996264)"/>
       <use xlink:href="#CMR17-30" transform="translate(72.787654 0) scale(0.996264)"/>
      </g>
     </g>
    </g>
    <g id="text_13">
     <!-- $\frac{M}{M_\infty}$ -->
     <g transform="translate(37.608171 332.647088) rotate(-90) scale(0.35 -0.35)">
      <defs>
       <path id="CMMI12-4d" d="M 5811 3886 
C 5869 4103 5882 4167 6336 4167 
C 6458 4167 6515 4167 6515 4288 
C 6515 4352 6470 4352 6349 4352 
L 5581 4352 
C 5421 4352 5414 4346 5344 4243 
L 3008 562 
L 2528 4211 
C 2509 4352 2502 4352 2336 4352 
L 1542 4352 
C 1421 4352 1363 4352 1363 4231 
C 1363 4167 1421 4167 1517 4167 
C 1907 4167 1907 4116 1907 4046 
C 1907 4034 1907 3995 1882 3899 
L 1062 634 
C 986 327 838 186 410 186 
C 390 186 314 186 314 73 
C 314 0 371 0 397 0 
C 525 0 851 0 979 0 
L 1286 0 
C 1376 0 1485 0 1574 0 
C 1619 0 1690 0 1690 122 
C 1690 180 1626 186 1600 186 
C 1389 186 1184 224 1184 454 
C 1184 518 1184 524 1210 613 
L 2093 4129 
L 2099 4129 
L 2630 172 
C 2650 19 2656 0 2714 0 
C 2784 0 2816 51 2848 109 
L 5421 4161 
L 5427 4161 
L 4499 473 
C 4442 250 4429 186 3981 186 
C 3859 186 3795 186 3795 70 
C 3795 0 3853 0 3891 0 
C 4000 0 4128 0 4237 0 
L 4992 0 
C 5101 0 5235 0 5344 0 
C 5395 0 5466 0 5466 122 
C 5466 186 5408 186 5312 186 
C 4922 186 4922 234 4922 294 
C 4922 301 4922 345 4934 396 
L 5811 3886 
z
" transform="scale(0.015625)"/>
       <path id="CMSY10-31" d="M 3251 1730 
C 2906 2166 2829 2262 2630 2422 
C 2272 2710 1914 2825 1587 2825 
C 838 2825 352 2122 352 1374 
C 352 639 826 -70 1562 -70 
C 2298 -70 2829 511 3142 1022 
C 3488 588 3565 492 3763 332 
C 4122 45 4480 -70 4806 -70 
C 5555 -70 6042 633 6042 1380 
C 6042 2115 5568 2825 4832 2825 
C 4096 2825 3565 2242 3251 1730 
z
M 3418 1514 
C 3680 1975 4154 2620 4877 2620 
C 5555 2620 5901 1955 5901 1380 
C 5901 753 5472 236 4909 236 
C 4538 236 4250 505 4115 638 
C 3955 811 3808 1009 3418 1514 
z
M 2976 1240 
C 2714 780 2240 134 1517 134 
C 838 134 493 799 493 1374 
C 493 2000 922 2518 1485 2518 
C 1856 2518 2144 2249 2278 2115 
C 2438 1943 2586 1744 2976 1240 
z
" transform="scale(0.015625)"/>
      </defs>
      <use xlink:href="#CMMI12-4d" transform="translate(21.513426 39.226102) scale(0.697382)"/>
      <use xlink:href="#CMMI12-4d" transform="translate(0 -34.355253) scale(0.697382)"/>
      <use xlink:href="#CMSY10-31" transform="translate(66.061109 -44.815949) scale(0.498132)"/>
      <path d="M 0 22.914133 
L 116.372578 22.914133 
L 116.372578 26.899083 
L 0 26.899083 
L 0 22.914133 
z
"/>
     </g>
    </g>
   </g>
   <g id="line2d_23">
    <path d="M 113.270523 51.287487 
L 131.527686 51.761271 
L 144.855533 52.694765 
L 154.585105 54.331154 
L 161.68809 56.627657 
L 166.873842 60.034957 
L 170.660233 64.553706 
L 173.425353 70.674131 
L 175.445262 78.651055 
L 176.921529 88.84146 
L 178.100261 101.991948 
L 179.268725 121.946578 
L 181.634755 211.438082 
L 182.832321 221.429337 
L 184.029887 233.202816 
L 185.227453 239.382291 
L 186.425019 244.235866 
L 187.622584 247.791435 
L 188.82015 250.762069 
L 191.215282 255.609866 
L 193.610414 259.587886 
L 194.80798 261.273569 
L 196.005545 262.632705 
L 197.203111 263.797297 
L 198.400677 264.638433 
L 199.598243 265.249993 
L 200.795809 265.635393 
L 203.190941 266.041887 
L 205.586072 266.169577 
L 206.783638 266.208447 
L 210.376336 266.027795 
L 213.969033 265.939179 
L 217.561731 265.813215 
L 221.154428 265.719515 
L 227.534333 265.559071 
L 233.52179 265.484788 
L 257.666411 265.250883 
L 265.523383 265.234547 
L 274.280306 265.270918 
L 294.918912 265.081699 
L 364.205329 264.437476 
L 406.217767 264.239479 
L 419.407545 264.421828 
L 423.421802 264.703489 
L 426.280996 265.203995 
L 428.317932 265.926889 
L 429.769446 267.041675 
L 430.910213 268.538425 
L 432.041247 270.865711 
L 433.172282 274.157912 
L 434.303316 278.681351 
L 435.43435 285.011249 
L 436.565385 294.341835 
L 437.696419 307.14374 
L 438.827454 322.163879 
L 439.958488 338.778256 
L 440.783283 360.722721 
L 441.608079 366.406161 
L 442.432874 373.341607 
L 444.082465 389.003154 
L 444.90726 395.241214 
L 445.732056 398.50777 
L 446.556851 400.815994 
L 447.381646 402.113354 
L 448.206442 402.9122 
L 449.031237 403.181843 
L 449.856032 403.157447 
L 452.330418 401.862423 
L 454.804804 400.458745 
L 457.279191 399.245337 
L 461.403167 397.582564 
L 466.351939 395.780503 
L 470.475916 394.2484 
L 472.125507 393.503822 
L 475.424688 391.420905 
L 477.082726 389.999552 
L 479.968268 387.022881 
L 488.351088 377.683738 
L 492.213011 374.192385 
L 494.402105 372.595969 
L 496.784831 371.078751 
L 499.378255 369.807929 
L 502.198217 368.707424 
L 505.267159 367.862306 
L 508.602054 367.128964 
L 512.225875 366.706908 
L 516.157554 366.495154 
L 525.019869 366.40591 
L 535.297221 366.99066 
L 540.956768 367.374886 
L 546.870764 367.581173 
L 552.809291 367.911018 
L 558.747817 368.104389 
L 564.686344 368.161461 
L 570.624871 367.969133 
L 576.563397 367.493916 
L 582.501924 366.602069 
L 588.44045 365.189403 
L 594.378977 363.071649 
L 600.317503 359.98774 
L 606.25603 355.578823 
L 612.194557 348.680489 
L 618.133083 338.772573 
L 624.07161 325.831547 
L 630.010136 331.280634 
L 638.40597 356.470022 
L 646.801803 341.055968 
L 655.197636 320.624927 
L 663.59347 305.263028 
L 671.989303 292.714933 
L 680.385136 283.105499 
L 688.78097 276.517186 
L 697.176803 271.851828 
L 705.572636 268.900089 
L 713.96847 266.880517 
L 722.364303 265.445323 
L 730.760136 264.203152 
L 747.551803 261.302988 
L 781.135136 254.898965 
L 806.322636 249.887494 
L 814.71847 248.387885 
L 823.114303 247.310811 
L 831.510136 246.814025 
L 831.510136 246.814025 
" clip-path="url(#p37c5f52097)" style="fill: none; stroke: #ff0000; stroke-width: 3; stroke-linecap: square"/>
   </g>
   <g id="patch_3">
    <path d="M 99.837189 617.04 
L 99.837189 7.2 
" style="fill: none; stroke: #000000; stroke-width: 0.8; stroke-linejoin: miter; stroke-linecap: square"/>
   </g>
   <g id="patch_4">
    <path d="M 825.237189 617.04 
L 825.237189 7.2 
" style="fill: none; stroke: #000000; stroke-width: 0.8; stroke-linejoin: miter; stroke-linecap: square"/>
   </g>
   <g id="patch_5">
    <path d="M 99.837189 617.04 
L 825.237189 617.04 
" style="fill: none; stroke: #000000; stroke-width: 0.8; stroke-linejoin: miter; stroke-linecap: square"/>
   </g>
   <g id="patch_6">
    <path d="M 99.837189 7.2 
L 825.237189 7.2 
" style="fill: none; stroke: #000000; stroke-width: 0.8; stroke-linejoin: miter; stroke-linecap: square"/>
   </g>
   <g id="legend_1">
    <g id="patch_7">
     <path d="M 606.171262 132.764702 
L 800.737189 132.764702 
Q 807.737189 132.764702 807.737189 125.764702 
L 807.737189 31.7 
Q 807.737189 24.7 800.737189 24.7 
L 606.171262 24.7 
Q 599.171262 24.7 599.171262 31.7 
L 599.171262 125.764702 
Q 599.171262 132.764702 606.171262 132.764702 
z
" style="fill: #ffffff; stroke: #cccccc; stroke-linejoin: miter"/>
    </g>
    <g id="patch_8">
     <path d="M 613.171262 63.2 
L 683.171262 63.2 
L 683.171262 38.7 
L 613.171262 38.7 
z
" style="fill: #99ccff; fill-opacity: 0.7"/>
    </g>
    <g id="text_14">
     <!-- $\mu \pm \sigma$ -->
     <g transform="translate(711.171262 63.2) scale(0.35 -0.35)">
      <defs>
       <path id="CMMI12-16" d="M 922 140 
C 1082 -6 1318 -64 1536 -64 
C 1946 -64 2227 208 2374 405 
C 2438 69 2707 -64 2931 -64 
C 3123 -64 3277 50 3392 277 
C 3494 493 3584 879 3584 903 
C 3584 935 3558 960 3520 960 
C 3462 960 3456 928 3430 834 
C 3334 461 3213 64 2950 64 
C 2765 64 2752 229 2752 358 
C 2752 504 2810 735 2854 926 
L 3034 1615 
C 3059 1737 3130 2023 3162 2139 
C 3200 2292 3270 2567 3270 2592 
C 3270 2688 3194 2752 3098 2752 
C 3040 2752 2906 2726 2854 2535 
L 2406 760 
C 2374 632 2374 619 2291 517 
C 2214 409 1965 64 1562 64 
C 1203 64 1088 326 1088 625 
C 1088 811 1146 1034 1171 1143 
L 1459 2293 
C 1491 2414 1542 2618 1542 2657 
C 1542 2759 1459 2816 1376 2816 
C 1318 2816 1178 2797 1126 2592 
L 198 -1107 
C 192 -1139 179 -1177 179 -1216 
C 179 -1312 256 -1376 352 -1376 
C 538 -1376 576 -1228 621 -1050 
L 922 140 
z
" transform="scale(0.015625)"/>
       <path id="CMSY10-6" d="M 2618 1984 
L 4397 1984 
C 4506 1984 4621 1984 4621 2112 
C 4621 2240 4506 2240 4397 2240 
L 2618 2240 
L 2618 4018 
C 2618 4121 2618 4256 2490 4256 
C 2362 4256 2362 4140 2362 4038 
L 2362 2240 
L 576 2240 
C 467 2240 352 2240 352 2112 
C 352 1984 467 1984 576 1984 
L 2362 1984 
L 2362 256 
L 576 256 
C 467 256 352 256 352 128 
C 352 0 467 0 576 0 
L 4397 0 
C 4506 0 4621 0 4621 128 
C 4621 256 4506 256 4397 256 
L 2618 256 
L 2618 1984 
z
" transform="scale(0.015625)"/>
       <path id="CMMI12-1b" d="M 3251 2408 
C 3334 2408 3546 2408 3546 2612 
C 3546 2752 3424 2752 3309 2752 
L 1894 2752 
C 934 2752 243 1686 243 932 
C 243 390 595 -64 1171 -64 
C 1926 -64 2752 747 2752 1705 
C 2752 1954 2694 2196 2541 2408 
L 3251 2408 
z
M 1178 64 
C 851 64 614 313 614 754 
C 614 1137 845 2408 1786 2408 
C 2061 2408 2368 2274 2368 1781 
C 2368 1558 2266 1021 2042 652 
C 1811 275 1466 64 1178 64 
z
" transform="scale(0.015625)"/>
      </defs>
      <use xlink:href="#CMMI12-16" transform="scale(0.996264)"/>
      <use xlink:href="#CMSY10-6" transform="translate(80.830628 0) scale(0.996264)"/>
      <use xlink:href="#CMMI12-1b" transform="translate(180.457303 0) scale(0.996264)"/>
     </g>
    </g>
    <g id="line2d_24">
     <path d="M 613.171262 99.732351 
L 648.171262 99.732351 
L 683.171262 99.732351 
" style="fill: none; stroke: #ff0000; stroke-width: 3; stroke-linecap: square"/>
    </g>
    <g id="text_15">
     <!-- $\mu$ -->
     <g transform="translate(711.171262 111.982351) scale(0.35 -0.35)">
      <use xlink:href="#CMMI12-16" transform="scale(0.996264)"/>
     </g>
    </g>
   </g>
  </g>
 </g>
 <defs>
  <clipPath id="p37c5f52097">
   <rect x="99.837189" y="7.2" width="725.4" height="609.84"/>
  </clipPath>
 </defs>
</svg>
