<?xml version="1.0" encoding="utf-8" standalone="no"?>
<!DOCTYPE svg PUBLIC "-//W3C//DTD SVG 1.1//EN"
  "http://www.w3.org/Graphics/SVG/1.1/DTD/svg11.dtd">
<svg xmlns:xlink="http://www.w3.org/1999/xlink" width="868.00106pt" height="703.183796pt" viewBox="0 0 868.00106 703.183796" xmlns="http://www.w3.org/2000/svg" version="1.1">
 <metadata>
  <rdf:RDF xmlns:dc="http://purl.org/dc/elements/1.1/" xmlns:cc="http://creativecommons.org/ns#" xmlns:rdf="http://www.w3.org/1999/02/22-rdf-syntax-ns#">
   <cc:Work>
    <dc:type rdf:resource="http://purl.org/dc/dcmitype/StillImage"/>
    <dc:date>2025-03-27T12:27:08.388548</dc:date>
    <dc:format>image/svg+xml</dc:format>
    <dc:creator>
     <cc:Agent>
      <dc:title>Matplotlib v3.7.1, https://matplotlib.org/</dc:title>
     </cc:Agent>
    </dc:creator>
   </cc:Work>
  </rdf:RDF>
 </metadata>
 <defs>
  <style type="text/css">*{stroke-linejoin: round; stroke-linecap: butt}</style>
 </defs>
 <g id="figure_1">
  <g id="patch_1">
   <path d="M 0 703.183796 
L 868.00106 703.183796 
L 868.00106 0 
L 0 0 
z
" style="fill: #ffffff"/>
  </g>
  <g id="axes_1">
   <g id="patch_2">
    <path d="M 135.40106 627.417748 
L 860.80106 627.417748 
L 860.80106 17.577748 
L 135.40106 17.577748 
z
" style="fill: #ffffff"/>
   </g>
   <g id="PolyCollection_1">
    <path d="M 148.834393 559.657748 
L 148.834393 559.657748 
L 167.091556 559.657748 
L 180.419404 559.657748 
L 190.148976 559.657748 
L 197.251961 559.657748 
L 202.437713 559.657748 
L 206.224103 559.657748 
L 208.989224 559.657748 
L 211.009132 559.657748 
L 212.4854 559.657748 
L 213.664132 559.657748 
L 214.832596 559.657748 
L 216.00106 559.657748 
L 217.198626 559.657748 
L 218.396192 559.657748 
L 219.593758 559.657748 
L 220.791323 559.657748 
L 221.988889 559.657748 
L 223.186455 559.657748 
L 224.384021 559.657748 
L 225.581587 559.657748 
L 226.779153 559.657748 
L 227.976718 559.657748 
L 229.174284 559.657748 
L 230.37185 559.657748 
L 231.569416 559.657748 
L 232.766982 559.657748 
L 233.964548 559.657748 
L 235.162114 559.657748 
L 236.359679 559.657748 
L 237.557245 559.657748 
L 238.754811 559.657748 
L 239.952377 559.657748 
L 241.149943 559.657748 
L 242.347509 559.657748 
L 243.545075 559.657748 
L 244.74264 559.657748 
L 245.940206 559.657748 
L 247.137772 559.657747 
L 248.335338 559.657747 
L 249.532904 559.657747 
L 250.73047 559.657747 
L 251.928035 559.657747 
L 253.125601 559.657747 
L 254.323167 559.657747 
L 255.520733 559.657746 
L 256.718299 559.657746 
L 257.915866 559.657745 
L 259.143602 559.657744 
L 260.415204 559.657742 
L 261.732564 559.657739 
L 263.098204 559.657735 
L 264.514706 559.65773 
L 265.983555 559.657723 
L 267.506519 559.657714 
L 269.085661 559.657699 
L 270.723246 559.657681 
L 272.420705 559.657653 
L 274.179812 559.657621 
L 276.003041 559.65757 
L 277.893724 559.657511 
L 279.855619 559.65742 
L 281.887838 559.657315 
L 283.994951 559.657155 
L 286.180796 559.656972 
L 288.445503 559.656697 
L 290.794897 559.656384 
L 293.230282 559.655922 
L 295.754546 559.655398 
L 298.372767 559.654638 
L 301.087253 559.653781 
L 303.901395 559.652557 
L 306.819054 559.651181 
L 309.844177 559.649251 
L 312.980671 559.647088 
L 316.232504 559.644107 
L 319.603974 559.640777 
L 323.100106 559.636267 
L 326.724795 559.631247 
L 330.482783 559.624564 
L 334.379387 559.617149 
L 338.419659 559.607446 
L 342.608436 559.596715 
L 346.951477 559.582913 
L 351.45464 559.5677 
L 356.1238 559.54847 
L 360.964856 559.527334 
L 365.958678 559.501077 
L 371.0965 559.472294 
L 376.423458 559.437159 
L 381.947015 559.398762 
L 387.674039 559.35271 
L 393.612158 559.302591 
L 399.7692 559.243552 
L 406.153132 559.17962 
L 412.772406 559.10553 
L 419.635807 559.025713 
L 426.752215 558.934763 
L 434.130915 558.837355 
L 441.781638 558.728148 
L 449.334496 558.61158 
L 454.971416 558.480544 
L 458.985672 558.340953 
L 461.844867 558.188348 
L 463.881803 558.028096 
L 465.333316 557.855957 
L 466.474083 557.676823 
L 467.605118 557.486217 
L 468.736152 557.288234 
L 469.867187 557.079615 
L 470.998221 556.864113 
L 472.129255 556.639427 
L 473.26029 556.409127 
L 474.391324 556.171868 
L 475.522359 555.931098 
L 476.347154 555.68591 
L 477.171949 555.439738 
L 477.996745 555.192225 
L 478.82154 554.947139 
L 479.646335 554.704496 
L 480.471131 554.467493 
L 481.295926 554.235904 
L 482.120721 554.012429 
L 482.945517 553.796122 
L 483.770312 553.589743 
L 484.595108 553.39144 
L 485.419903 553.204578 
L 486.244698 553.026412 
L 487.069494 552.861134 
L 487.894289 552.705125 
L 488.719084 552.56332 
L 489.54388 552.431212 
L 490.368675 552.313953 
L 491.19347 552.206693 
L 492.018266 552.11533 
L 492.843061 552.034177 
L 493.667856 551.969107 
L 494.492652 551.914058 
L 495.317447 551.874568 
L 496.142243 551.844633 
L 496.967038 551.829281 
L 497.791833 551.823158 
L 498.616629 551.830272 
L 499.441424 551.845761 
L 500.266219 551.872891 
L 501.091015 551.907252 
L 501.91581 551.951562 
L 502.740605 552.001811 
L 503.565401 552.060189 
L 504.390196 552.122968 
L 505.214991 552.191972 
L 506.039787 552.263889 
L 506.864582 552.340148 
L 507.689378 552.4178 
L 508.514173 552.497858 
L 509.338968 552.577798 
L 510.163764 552.658245 
L 510.988559 552.737173 
L 511.813354 552.81475 
L 512.646596 552.889498 
L 513.53156 552.960876 
L 514.494197 553.026949 
L 515.532138 553.086067 
L 516.659653 553.13716 
L 517.883479 553.177844 
L 519.209351 553.207443 
L 520.648461 553.223379 
L 522.213559 553.225415 
L 523.914959 553.210891 
L 525.764855 553.179642 
L 527.776881 553.129177 
L 529.965976 553.059682 
L 532.348702 552.968761 
L 534.942126 552.856984 
L 537.762087 552.722422 
L 540.83103 552.56633 
L 544.165925 552.389135 
L 547.789746 552.193063 
L 551.721424 551.977683 
L 555.980275 551.74755 
L 560.58374 551.503631 
L 565.543139 551.25001 
L 570.861092 550.986995 
L 576.520639 550.718829 
L 582.434635 550.443278 
L 588.373162 550.15974 
L 594.311688 549.865975 
L 600.250215 549.566143 
L 606.188741 549.258004 
L 612.127268 548.946133 
L 618.065794 548.627842 
L 624.004321 548.30895 
L 629.942848 547.984938 
L 635.881374 547.663285 
L 641.819901 547.339152 
L 647.758427 547.020761 
L 653.696954 546.701982 
L 659.63548 546.393407 
L 665.574007 546.087394 
L 673.96984 545.795948 
L 682.365674 545.508432 
L 690.761507 545.240491 
L 699.15734 544.976763 
L 707.553174 544.736994 
L 715.949007 544.501935 
L 724.34484 544.294675 
L 732.740674 544.091534 
L 741.136507 543.918333 
L 749.53234 543.747914 
L 757.928174 543.607973 
L 766.324007 543.469096 
L 774.71984 543.359773 
L 783.115674 543.250067 
L 791.511507 543.167632 
L 799.90734 543.084052 
L 808.303174 543.024098 
L 816.699007 542.963334 
L 825.09484 542.922184 
L 833.490674 542.881347 
L 841.886507 542.856046 
L 850.28234 542.832963 
L 858.678174 542.821464 
L 867.074007 542.814578 
L 867.074007 567.304982 
L 867.074007 567.304982 
L 858.678174 567.304465 
L 850.28234 567.304348 
L 841.886507 567.304756 
L 833.490674 567.305542 
L 825.09484 567.306419 
L 816.699007 567.307268 
L 808.303174 567.307669 
L 799.90734 567.307319 
L 791.511507 567.306306 
L 783.115674 567.303127 
L 774.71984 567.29973 
L 766.324007 567.292177 
L 757.928174 567.284965 
L 749.53234 567.27055 
L 741.136507 567.257358 
L 732.740674 567.232765 
L 724.34484 567.21035 
L 715.949007 567.171131 
L 707.553174 567.134411 
L 699.15734 567.074866 
L 690.761507 567.016689 
L 682.365674 566.929337 
L 673.96984 566.841517 
L 665.574007 566.720729 
L 659.63548 566.596445 
L 653.696954 566.436166 
L 647.758427 566.270142 
L 641.819901 566.068041 
L 635.881374 565.859933 
L 629.942848 565.620145 
L 624.004321 565.376831 
L 618.065794 565.107937 
L 612.127268 564.839431 
L 606.188741 564.553458 
L 600.250215 564.272836 
L 594.311688 563.982562 
L 588.373162 563.702155 
L 582.434635 563.418677 
L 576.520639 563.15017 
L 570.861092 562.889986 
L 565.543139 562.653734 
L 560.58374 562.429145 
L 555.980275 562.226323 
L 551.721424 562.034018 
L 547.789746 561.859431 
L 544.165925 561.691214 
L 540.83103 561.536047 
L 537.762087 561.386458 
L 534.942126 561.245576 
L 532.348702 561.108642 
L 529.965976 560.978763 
L 527.776881 560.853909 
L 525.764855 560.734967 
L 523.914959 560.622122 
L 522.213559 560.514191 
L 520.648461 560.413228 
L 519.209351 560.316817 
L 517.883479 560.227765 
L 516.659653 560.14317 
L 515.532138 560.066018 
L 514.494197 559.993838 
L 513.53156 559.929168 
L 512.646596 559.869792 
L 511.813354 559.818159 
L 510.988559 559.771749 
L 510.163764 559.731921 
L 509.338968 559.69598 
L 508.514173 559.665694 
L 507.689378 559.638189 
L 506.864582 559.61581 
L 506.039787 559.595412 
L 505.214991 559.579972 
L 504.390196 559.565894 
L 503.565401 559.556812 
L 502.740605 559.548581 
L 501.91581 559.545612 
L 501.091015 559.543118 
L 500.266219 559.546225 
L 499.441424 559.549223 
L 498.616629 559.558162 
L 497.791833 559.566294 
L 496.967038 559.580743 
L 496.142243 559.593498 
L 495.317447 559.612738 
L 494.492652 559.629064 
L 493.667856 559.651552 
L 492.843061 559.670389 
L 492.018266 559.69457 
L 491.19347 559.714494 
L 490.368675 559.738335 
L 489.54388 559.757336 
L 488.719084 559.778239 
L 487.894289 559.794068 
L 487.069494 559.810667 
L 486.244698 559.822296 
L 485.419903 559.833461 
L 484.595108 559.840041 
L 483.770312 559.84539 
L 482.945517 559.84695 
L 482.120721 559.847041 
L 481.295926 559.844259 
L 480.471131 559.840067 
L 479.646335 559.83355 
L 478.82154 559.825644 
L 477.996745 559.815668 
L 477.171949 559.805216 
L 476.347154 559.793829 
L 475.522359 559.783015 
L 474.391324 559.771557 
L 473.26029 559.760814 
L 472.129255 559.749364 
L 470.998221 559.738903 
L 469.867187 559.727539 
L 468.736152 559.717834 
L 467.605118 559.707314 
L 466.474083 559.699336 
L 465.333316 559.690788 
L 463.881803 559.685999 
L 461.844867 559.680748 
L 458.985672 559.678778 
L 454.971416 559.675251 
L 449.334496 559.673848 
L 441.781638 559.668924 
L 434.130915 559.666807 
L 426.752215 559.663276 
L 419.635807 559.662591 
L 412.772406 559.660209 
L 406.153132 559.66035 
L 399.7692 559.658662 
L 393.612158 559.659191 
L 387.674039 559.657982 
L 381.947015 559.658654 
L 376.423458 559.657705 
L 371.0965 559.65834 
L 365.958678 559.65757 
L 360.964856 559.65812 
L 356.1238 559.657509 
L 351.45464 559.657968 
L 346.951477 559.657502 
L 342.608436 559.657873 
L 338.419659 559.65753 
L 334.379387 559.657815 
L 330.482783 559.657569 
L 326.724795 559.657781 
L 323.100106 559.657609 
L 319.603974 559.657762 
L 316.232504 559.657645 
L 312.980671 559.657753 
L 309.844177 559.657675 
L 306.819054 559.657749 
L 303.901395 559.657698 
L 301.087253 559.657747 
L 298.372767 559.657715 
L 295.754546 559.657747 
L 293.230282 559.657727 
L 290.794897 559.657747 
L 288.445503 559.657735 
L 286.180796 559.657747 
L 283.994951 559.65774 
L 281.887838 559.657747 
L 279.855619 559.657743 
L 277.893724 559.657747 
L 276.003041 559.657745 
L 274.179812 559.657747 
L 272.420705 559.657746 
L 270.723246 559.657747 
L 269.085661 559.657747 
L 267.506519 559.657747 
L 265.983555 559.657747 
L 264.514706 559.657748 
L 263.098204 559.657747 
L 261.732564 559.657748 
L 260.415204 559.657747 
L 259.143602 559.657748 
L 257.915866 559.657748 
L 256.718299 559.657748 
L 255.520733 559.657748 
L 254.323167 559.657748 
L 253.125601 559.657748 
L 251.928035 559.657748 
L 250.73047 559.657748 
L 249.532904 559.657748 
L 248.335338 559.657748 
L 247.137772 559.657748 
L 245.940206 559.657748 
L 244.74264 559.657748 
L 243.545075 559.657748 
L 242.347509 559.657748 
L 241.149943 559.657748 
L 239.952377 559.657748 
L 238.754811 559.657748 
L 237.557245 559.657748 
L 236.359679 559.657748 
L 235.162114 559.657748 
L 233.964548 559.657748 
L 232.766982 559.657748 
L 231.569416 559.657748 
L 230.37185 559.657748 
L 229.174284 559.657748 
L 227.976718 559.657748 
L 226.779153 559.657748 
L 225.581587 559.657748 
L 224.384021 559.657748 
L 223.186455 559.657748 
L 221.988889 559.657748 
L 220.791323 559.657748 
L 219.593758 559.657748 
L 218.396192 559.657748 
L 217.198626 559.657748 
L 216.00106 559.657748 
L 214.832596 559.657748 
L 213.664132 559.657748 
L 212.4854 559.657748 
L 211.009132 559.657748 
L 208.989224 559.657748 
L 206.224103 559.657748 
L 202.437713 559.657748 
L 197.251961 559.657748 
L 190.148976 559.657748 
L 180.419404 559.657748 
L 167.091556 559.657748 
L 148.834393 559.657748 
z
" clip-path="url(#p82a222ac52)" style="fill: #99ccff; fill-opacity: 0.7"/>
   </g>
   <g id="PolyCollection_2">
    <path d="M 148.834393 559.657748 
L 148.834393 559.657748 
L 167.091556 559.657748 
L 180.419404 559.657748 
L 190.148976 559.657748 
L 197.251961 559.657748 
L 202.437713 559.657748 
L 206.224103 559.657748 
L 208.989224 559.657748 
L 211.009132 559.657748 
L 212.4854 559.657748 
L 213.664132 559.657748 
L 214.832596 559.657748 
L 216.00106 559.657748 
L 217.198626 559.657748 
L 218.396192 559.657748 
L 219.593758 559.657748 
L 220.791323 559.657748 
L 221.988889 559.657748 
L 223.186455 559.657748 
L 224.384021 559.657748 
L 225.581587 559.657748 
L 226.779153 559.657748 
L 227.976718 559.657748 
L 229.174284 559.657748 
L 230.37185 559.657748 
L 231.569416 559.657748 
L 232.766982 559.657748 
L 233.964548 559.657748 
L 235.162114 559.657748 
L 236.359679 559.657748 
L 237.557245 559.657748 
L 238.754811 559.657748 
L 239.952377 559.657748 
L 241.149943 559.657748 
L 242.347509 559.657747 
L 243.545075 559.657747 
L 244.74264 559.657747 
L 245.940206 559.657747 
L 247.137772 559.657747 
L 248.335338 559.657747 
L 249.532904 559.657747 
L 250.73047 559.657746 
L 251.928035 559.657746 
L 253.125601 559.657745 
L 254.323167 559.657744 
L 255.520733 559.657742 
L 256.718299 559.657739 
L 257.915866 559.657735 
L 259.143602 559.657729 
L 260.415204 559.657721 
L 261.732564 559.657709 
L 263.098204 559.657692 
L 264.514706 559.657668 
L 265.983555 559.657635 
L 267.506519 559.657589 
L 269.085661 559.657525 
L 270.723246 559.657437 
L 272.420705 559.657315 
L 274.179812 559.657153 
L 276.003041 559.656928 
L 277.893724 559.65663 
L 279.855619 559.656224 
L 281.887838 559.655692 
L 283.994951 559.654975 
L 286.180796 559.654044 
L 288.445503 559.652806 
L 290.794897 559.65121 
L 293.230282 559.649116 
L 295.754546 559.646441 
L 298.372767 559.642973 
L 301.087253 559.638586 
L 303.901395 559.632964 
L 306.819054 559.625917 
L 309.844177 559.616995 
L 312.980671 559.605914 
L 316.232504 559.592049 
L 319.603974 559.574988 
L 323.100106 559.553888 
L 326.724795 559.528163 
L 330.482783 559.496711 
L 334.379387 559.458724 
L 338.419659 559.412795 
L 342.608436 559.357842 
L 346.951477 559.292124 
L 351.45464 559.214228 
L 356.1238 559.12206 
L 360.964856 559.013831 
L 365.958678 558.887085 
L 371.0965 558.739625 
L 376.423458 558.568643 
L 381.947015 558.371522 
L 387.674039 558.145118 
L 393.612158 557.8864 
L 399.7692 557.591913 
L 406.153132 557.258229 
L 412.772406 556.881584 
L 419.635807 556.458151 
L 426.752215 555.983777 
L 434.130915 555.454078 
L 441.781638 554.864107 
L 449.334496 554.208334 
L 454.971416 553.482519 
L 458.985672 552.681361 
L 461.844867 551.795295 
L 463.881803 550.81067 
L 465.333316 549.705844 
L 466.474083 548.431461 
L 467.605118 546.934085 
L 468.736152 545.096986 
L 469.867187 542.790693 
L 470.998221 539.768984 
L 472.129255 535.757799 
L 473.26029 530.470426 
L 474.391324 523.58643 
L 475.522359 515.828722 
L 476.347154 510.119575 
L 477.171949 505.212789 
L 477.996745 498.046597 
L 478.82154 484.833107 
L 479.646335 468.478651 
L 480.471131 451.734103 
L 481.295926 435.357597 
L 482.120721 419.549446 
L 482.945517 404.230822 
L 483.770312 389.654042 
L 484.595108 375.960787 
L 485.419903 362.931405 
L 486.244698 350.807084 
L 487.069494 339.282563 
L 487.894289 328.581878 
L 488.719084 318.579883 
L 489.54388 309.418442 
L 490.368675 300.931171 
L 491.19347 293.276362 
L 492.018266 286.20026 
L 492.843061 279.77862 
L 493.667856 273.995715 
L 494.492652 268.750311 
L 495.317447 263.986738 
L 496.142243 259.589468 
L 496.967038 255.400875 
L 497.791833 251.440644 
L 498.616629 247.590322 
L 499.441424 243.920781 
L 500.266219 240.385019 
L 501.091015 237.22582 
L 501.91581 234.160006 
L 502.740605 231.347956 
L 503.565401 228.463271 
L 504.390196 226.049425 
L 505.214991 223.489064 
L 506.039787 221.174712 
L 506.864582 219.169611 
L 507.689378 216.928129 
L 508.514173 214.922683 
L 509.338968 213.214234 
L 510.163764 211.329175 
L 510.988559 209.926136 
L 511.813354 208.54999 
L 512.646596 207.500935 
L 513.53156 206.549273 
L 514.494197 205.981646 
L 515.532138 205.496536 
L 516.659653 205.176258 
L 517.883479 205.072958 
L 519.209351 204.909604 
L 520.648461 205.03098 
L 522.213559 205.198332 
L 523.914959 205.432105 
L 525.764855 205.773747 
L 527.776881 206.01437 
L 529.965976 206.18463 
L 532.348702 206.254264 
L 534.942126 206.042134 
L 537.762087 205.672772 
L 540.83103 204.845558 
L 544.165925 203.658232 
L 547.789746 202.062518 
L 551.721424 199.91726 
L 555.980275 197.460045 
L 560.58374 194.483566 
L 565.543139 191.436439 
L 570.861092 187.514304 
L 576.520639 183.314591 
L 582.434635 178.405435 
L 588.373162 172.609438 
L 594.311688 166.42833 
L 600.250215 159.562179 
L 606.188741 152.306321 
L 612.127268 144.925229 
L 618.065794 137.508828 
L 624.004321 130.268956 
L 629.942848 123.448353 
L 635.881374 116.861974 
L 641.819901 110.770395 
L 647.758427 105.159462 
L 653.696954 100.075093 
L 659.63548 95.03657 
L 665.574007 91.232614 
L 673.96984 87.207831 
L 682.365674 84.32646 
L 690.761507 81.448091 
L 699.15734 79.150205 
L 707.553174 77.102151 
L 715.949007 75.591407 
L 724.34484 74.41387 
L 732.740674 73.514391 
L 741.136507 72.779428 
L 749.53234 72.188017 
L 757.928174 71.720032 
L 766.324007 71.328545 
L 774.71984 70.988747 
L 783.115674 70.696792 
L 791.511507 70.429985 
L 799.90734 70.190133 
L 808.303174 69.980216 
L 816.699007 69.782659 
L 825.09484 69.625482 
L 833.490674 69.471199 
L 841.886507 69.36391 
L 850.28234 69.271963 
L 858.678174 69.208114 
L 867.074007 69.173796 
L 867.074007 218.818916 
L 867.074007 218.818916 
L 858.678174 218.822321 
L 850.28234 218.83664 
L 841.886507 218.862379 
L 833.490674 218.93112 
L 825.09484 218.986631 
L 816.699007 219.105777 
L 808.303174 219.195822 
L 799.90734 219.336624 
L 791.511507 219.479799 
L 783.115674 219.64867 
L 774.71984 219.864717 
L 766.324007 220.089254 
L 757.928174 220.388112 
L 749.53234 220.732904 
L 741.136507 221.188103 
L 732.740674 221.781674 
L 724.34484 222.672764 
L 715.949007 223.779839 
L 707.553174 225.262236 
L 699.15734 226.848035 
L 690.761507 229.336226 
L 682.365674 231.976601 
L 673.96984 236.101606 
L 665.574007 239.691271 
L 659.63548 245.176659 
L 653.696954 250.273272 
L 647.758427 256.931127 
L 641.819901 264.061783 
L 635.881374 271.863076 
L 629.942848 279.846278 
L 624.004321 288.493248 
L 618.065794 296.880252 
L 612.127268 305.417772 
L 606.188741 313.838749 
L 600.250215 321.88071 
L 594.311688 329.479493 
L 588.373162 336.261514 
L 582.434635 341.619541 
L 576.520639 345.922713 
L 570.861092 349.605919 
L 565.543139 352.132383 
L 560.58374 354.64201 
L 555.980275 355.969278 
L 551.721424 356.95307 
L 547.789746 357.311864 
L 544.165925 357.30467 
L 540.83103 356.819863 
L 537.762087 356.004767 
L 534.942126 355.062629 
L 532.348702 353.729575 
L 529.965976 352.452423 
L 527.776881 351.129187 
L 525.764855 349.835304 
L 523.914959 348.854648 
L 522.213559 347.910015 
L 520.648461 347.208757 
L 519.209351 346.800348 
L 517.883479 346.32385 
L 516.659653 346.429165 
L 515.532138 346.599305 
L 514.494197 347.018669 
L 513.53156 347.826894 
L 512.646596 348.523755 
L 511.813354 349.72274 
L 510.988559 350.986839 
L 510.163764 352.865331 
L 509.338968 354.354754 
L 508.514173 356.606258 
L 507.689378 358.658996 
L 506.864582 360.63134 
L 506.039787 363.253859 
L 505.214991 365.68797 
L 504.390196 368.000014 
L 503.565401 371.00164 
L 502.740605 373.51971 
L 501.91581 376.635657 
L 501.091015 379.77597 
L 500.266219 383.241318 
L 499.441424 386.866015 
L 498.616629 390.900232 
L 497.791833 395.061573 
L 496.967038 399.494165 
L 496.142243 404.052692 
L 495.317447 408.899855 
L 494.492652 413.948839 
L 493.667856 419.338614 
L 492.843061 425.138186 
L 492.018266 431.391411 
L 491.19347 437.972545 
L 490.368675 445.155955 
L 489.54388 452.544705 
L 488.719084 460.478164 
L 487.894289 468.489204 
L 487.069494 476.934432 
L 486.244698 485.333876 
L 485.419903 494.185622 
L 484.595108 502.832375 
L 483.770312 511.616692 
L 482.945517 519.958449 
L 482.120721 527.885737 
L 481.295926 535.512595 
L 480.471131 542.070355 
L 479.646335 547.192104 
L 478.82154 550.169713 
L 477.996745 553.47363 
L 477.171949 561.194615 
L 476.347154 569.005563 
L 475.522359 576.398028 
L 474.391324 579.464962 
L 473.26029 580.533113 
L 472.129255 580.611159 
L 470.998221 579.964595 
L 469.867187 578.892852 
L 468.736152 577.544377 
L 467.605118 576.078638 
L 466.474083 574.575615 
L 465.333316 573.113958 
L 463.881803 571.721961 
L 461.844867 570.427974 
L 458.985672 569.237358 
L 454.971416 568.149316 
L 449.334496 567.160587 
L 441.781638 566.26458 
L 434.130915 565.454311 
L 426.752215 564.724665 
L 419.635807 564.070312 
L 412.772406 563.485846 
L 406.153132 562.965867 
L 399.7692 562.505193 
L 393.612158 562.098709 
L 387.674039 561.741651 
L 381.947015 561.429298 
L 376.423458 561.157383 
L 371.0965 560.921636 
L 365.958678 560.718333 
L 360.964856 560.543693 
L 356.1238 560.394556 
L 351.45464 560.267649 
L 346.951477 560.160364 
L 342.608436 560.069944 
L 338.419659 559.994293 
L 334.379387 559.931148 
L 330.482783 559.878876 
L 326.724795 559.835668 
L 323.100106 559.800285 
L 319.603974 559.771321 
L 316.232504 559.747862 
L 312.980671 559.728846 
L 309.844177 559.713614 
L 306.819054 559.701388 
L 303.901395 559.691704 
L 301.087253 559.684007 
L 298.372767 559.677979 
L 295.754546 559.673234 
L 293.230282 559.669561 
L 290.794897 559.666698 
L 288.445503 559.664507 
L 286.180796 559.662816 
L 283.994951 559.661537 
L 281.887838 559.660559 
L 279.855619 559.659829 
L 277.893724 559.659276 
L 276.003041 559.658867 
L 274.179812 559.658561 
L 272.420705 559.658337 
L 270.723246 559.658171 
L 269.085661 559.658052 
L 267.506519 559.657964 
L 265.983555 559.657901 
L 264.514706 559.657855 
L 263.098204 559.657823 
L 261.732564 559.6578 
L 260.415204 559.657784 
L 259.143602 559.657773 
L 257.915866 559.657765 
L 256.718299 559.657759 
L 255.520733 559.657756 
L 254.323167 559.657753 
L 253.125601 559.657751 
L 251.928035 559.65775 
L 250.73047 559.657749 
L 249.532904 559.657749 
L 248.335338 559.657748 
L 247.137772 559.657748 
L 245.940206 559.657748 
L 244.74264 559.657748 
L 243.545075 559.657748 
L 242.347509 559.657748 
L 241.149943 559.657748 
L 239.952377 559.657748 
L 238.754811 559.657748 
L 237.557245 559.657748 
L 236.359679 559.657748 
L 235.162114 559.657748 
L 233.964548 559.657748 
L 232.766982 559.657748 
L 231.569416 559.657748 
L 230.37185 559.657748 
L 229.174284 559.657748 
L 227.976718 559.657748 
L 226.779153 559.657748 
L 225.581587 559.657748 
L 224.384021 559.657748 
L 223.186455 559.657748 
L 221.988889 559.657748 
L 220.791323 559.657748 
L 219.593758 559.657748 
L 218.396192 559.657748 
L 217.198626 559.657748 
L 216.00106 559.657748 
L 214.832596 559.657748 
L 213.664132 559.657748 
L 212.4854 559.657748 
L 211.009132 559.657748 
L 208.989224 559.657748 
L 206.224103 559.657748 
L 202.437713 559.657748 
L 197.251961 559.657748 
L 190.148976 559.657748 
L 180.419404 559.657748 
L 167.091556 559.657748 
L 148.834393 559.657748 
z
" clip-path="url(#p82a222ac52)" style="fill: #008000; fill-opacity: 0.2"/>
   </g>
   <g id="PolyCollection_3">
    <path d="M 148.834393 559.657748 
L 148.834393 559.657748 
L 167.091556 559.657748 
L 180.419404 559.657748 
L 190.148976 559.657748 
L 197.251961 559.657748 
L 202.437713 559.657748 
L 206.224103 559.657748 
L 208.989224 559.657748 
L 211.009132 559.657748 
L 212.4854 559.657748 
L 213.664132 559.657748 
L 214.832596 559.657748 
L 216.00106 559.657748 
L 217.198626 559.657748 
L 218.396192 559.657748 
L 219.593758 559.657748 
L 220.791323 559.657748 
L 221.988889 559.657748 
L 223.186455 559.657748 
L 224.384021 559.657748 
L 225.581587 559.657748 
L 226.779153 559.657748 
L 227.976718 559.657748 
L 229.174284 559.657748 
L 230.37185 559.657748 
L 231.569416 559.657748 
L 232.766982 559.657748 
L 233.964548 559.657748 
L 235.162114 559.657748 
L 236.359679 559.657748 
L 237.557245 559.657748 
L 238.754811 559.657748 
L 239.952377 559.657748 
L 241.149943 559.657748 
L 242.347509 559.657748 
L 243.545075 559.657748 
L 244.74264 559.657748 
L 245.940206 559.657748 
L 247.137772 559.657747 
L 248.335338 559.657747 
L 249.532904 559.657747 
L 250.73047 559.657747 
L 251.928035 559.657747 
L 253.125601 559.657747 
L 254.323167 559.657746 
L 255.520733 559.657746 
L 256.718299 559.657745 
L 257.915866 559.657744 
L 259.143602 559.657742 
L 260.415204 559.65774 
L 261.732564 559.657737 
L 263.098204 559.657732 
L 264.514706 559.657725 
L 265.983555 559.657715 
L 267.506519 559.657701 
L 269.085661 559.657682 
L 270.723246 559.657655 
L 272.420705 559.657618 
L 274.179812 559.657567 
L 276.003041 559.657498 
L 277.893724 559.657402 
L 279.855619 559.657275 
L 281.887838 559.6571 
L 283.994951 559.656871 
L 286.180796 559.656559 
L 288.445503 559.656153 
L 290.794897 559.655609 
L 293.230282 559.654905 
L 295.754546 559.653972 
L 298.372767 559.652778 
L 301.087253 559.651213 
L 303.901395 559.649226 
L 306.819054 559.646652 
L 309.844177 559.643412 
L 312.980671 559.639263 
L 316.232504 559.634083 
L 319.603974 559.627526 
L 323.100106 559.619409 
L 326.724795 559.609245 
L 330.482783 559.59677 
L 334.379387 559.581321 
L 338.419659 559.562519 
L 342.608436 559.539485 
L 346.951477 559.511687 
L 351.45464 559.477995 
L 356.1238 559.437681 
L 360.964856 559.389324 
L 365.958678 559.331955 
L 371.0965 559.263836 
L 376.423458 559.183704 
L 381.947015 559.089491 
L 387.674039 558.979597 
L 393.612158 558.851631 
L 399.7692 558.703625 
L 406.153132 558.532876 
L 412.772406 558.336936 
L 419.635807 558.112738 
L 426.752215 557.857467 
L 434.130915 557.567555 
L 441.781638 557.239345 
L 449.334496 556.868548 
L 454.971416 556.45003 
L 458.985672 555.980892 
L 461.844867 555.454224 
L 463.881803 554.861546 
L 465.333316 554.190292 
L 466.474083 553.423068 
L 467.605118 552.539877 
L 468.736152 551.51529 
L 469.867187 550.317183 
L 470.998221 548.916052 
L 472.129255 547.265598 
L 473.26029 545.277877 
L 474.391324 542.703936 
L 475.522359 539.505501 
L 476.347154 536.488723 
L 477.171949 532.819836 
L 477.996745 526.29351 
L 478.82154 517.004616 
L 479.646335 506.525605 
L 480.471131 496.456774 
L 481.295926 487.022557 
L 482.120721 478.343594 
L 482.945517 470.314954 
L 483.770312 462.667847 
L 484.595108 455.535933 
L 485.419903 448.759266 
L 486.244698 442.31424 
L 487.069494 436.199924 
L 487.894289 430.600079 
L 488.719084 425.449084 
L 489.54388 420.366353 
L 490.368675 415.585912 
L 491.19347 411.23049 
L 492.018266 407.387994 
L 492.843061 403.934726 
L 493.667856 400.698277 
L 494.492652 397.67239 
L 495.317447 394.838881 
L 496.142243 392.205744 
L 496.967038 389.825008 
L 497.791833 387.596431 
L 498.616629 385.469656 
L 499.441424 383.393417 
L 500.266219 381.439652 
L 501.091015 379.650222 
L 501.91581 378.091222 
L 502.740605 376.641249 
L 503.565401 375.32992 
L 504.390196 374.076275 
L 505.214991 372.967291 
L 506.039787 371.928357 
L 506.864582 370.971952 
L 507.689378 370.114885 
L 508.514173 369.311452 
L 509.338968 368.566224 
L 510.163764 367.946644 
L 510.988559 367.422444 
L 511.813354 367.053096 
L 512.646596 366.811449 
L 513.53156 366.694935 
L 514.494197 366.656072 
L 515.532138 366.742125 
L 516.659653 366.94147 
L 517.883479 367.282473 
L 519.209351 367.748748 
L 520.648461 368.318123 
L 522.213559 368.960671 
L 523.914959 369.653651 
L 525.764855 370.363946 
L 527.776881 371.090947 
L 529.965976 371.804702 
L 532.348702 372.50382 
L 534.942126 373.179978 
L 537.762087 373.861098 
L 540.83103 374.563298 
L 544.165925 375.323431 
L 547.789746 376.147452 
L 551.721424 377.02457 
L 555.980275 377.951811 
L 560.58374 378.847658 
L 565.543139 379.763118 
L 570.861092 380.567624 
L 576.520639 381.231594 
L 582.434635 381.310428 
L 588.373162 380.731991 
L 594.311688 379.967478 
L 600.250215 379.084876 
L 606.188741 377.896356 
L 612.127268 376.26579 
L 618.065794 374.242702 
L 624.004321 372.28365 
L 629.942848 370.631607 
L 635.881374 369.022762 
L 641.819901 367.587446 
L 647.758427 366.277175 
L 653.696954 365.332339 
L 659.63548 364.505889 
L 665.574007 363.93031 
L 673.96984 363.379165 
L 682.365674 362.995764 
L 690.761507 362.316397 
L 699.15734 361.641303 
L 707.553174 360.916915 
L 715.949007 360.475277 
L 724.34484 360.140899 
L 732.740674 359.954582 
L 741.136507 359.763439 
L 749.53234 359.581573 
L 757.928174 359.365391 
L 766.324007 359.18356 
L 774.71984 359.024136 
L 783.115674 358.87548 
L 791.511507 358.726711 
L 799.90734 358.566971 
L 808.303174 358.395896 
L 816.699007 358.213491 
L 825.09484 358.033486 
L 833.490674 357.866903 
L 841.886507 357.733727 
L 850.28234 357.625583 
L 858.678174 357.554761 
L 867.074007 357.523582 
L 867.074007 457.956181 
L 867.074007 457.956181 
L 858.678174 457.883501 
L 850.28234 457.757453 
L 841.886507 457.595162 
L 833.490674 457.396963 
L 825.09484 457.191004 
L 816.699007 456.954637 
L 808.303174 456.707354 
L 799.90734 456.430074 
L 791.511507 456.140685 
L 783.115674 455.836499 
L 774.71984 455.520371 
L 766.324007 455.194159 
L 757.928174 454.853425 
L 749.53234 454.4935 
L 741.136507 454.07673 
L 732.740674 453.621155 
L 724.34484 453.095493 
L 715.949007 452.52584 
L 707.553174 451.795805 
L 699.15734 451.106335 
L 690.761507 450.240715 
L 682.365674 449.415969 
L 673.96984 448.04672 
L 665.574007 446.632062 
L 659.63548 444.571845 
L 653.696954 442.567194 
L 647.758427 440.374107 
L 641.819901 438.438083 
L 635.881374 436.551855 
L 629.942848 434.789366 
L 624.004321 433.100726 
L 618.065794 431.763556 
L 612.127268 430.714748 
L 606.188741 429.831199 
L 600.250215 429.193214 
L 594.311688 428.869585 
L 588.373162 429.017717 
L 582.434635 429.886815 
L 576.520639 431.174945 
L 570.861092 432.774501 
L 565.543139 434.737649 
L 560.58374 436.570152 
L 555.980275 438.34011 
L 551.721424 439.771323 
L 547.789746 440.862064 
L 544.165925 441.613893 
L 540.83103 442.085782 
L 537.762087 442.348621 
L 534.942126 442.404427 
L 532.348702 442.398791 
L 529.965976 442.31949 
L 527.776881 442.258686 
L 525.764855 442.227989 
L 523.914959 442.202495 
L 522.213559 442.291348 
L 520.648461 442.459572 
L 519.209351 442.728001 
L 517.883479 443.171224 
L 516.659653 443.627635 
L 515.532138 444.220657 
L 514.494197 444.90294 
L 513.53156 445.68755 
L 512.646596 446.617732 
L 511.813354 447.667567 
L 510.988559 448.863342 
L 510.163764 450.203941 
L 509.338968 451.741262 
L 508.514173 453.331913 
L 507.689378 455.040028 
L 506.864582 456.861079 
L 506.039787 458.643055 
L 505.214991 460.583756 
L 504.390196 462.596548 
L 503.565401 464.637655 
L 502.740605 466.804399 
L 501.91581 469.016309 
L 501.091015 471.312586 
L 500.266219 473.809807 
L 499.441424 476.458055 
L 498.616629 479.19396 
L 497.791833 481.967411 
L 496.967038 484.811891 
L 496.142243 487.775483 
L 495.317447 490.932096 
L 494.492652 494.205324 
L 493.667856 497.561208 
L 492.843061 500.973643 
L 492.018266 504.432717 
L 491.19347 508.086935 
L 490.368675 512.002953 
L 489.54388 516.12261 
L 488.719084 520.250762 
L 487.894289 524.190904 
L 487.069494 528.248795 
L 486.244698 532.542987 
L 485.419903 536.804639 
L 484.595108 541.062608 
L 483.770312 545.178515 
L 482.945517 549.247749 
L 482.120721 552.994717 
L 481.295926 556.381159 
L 480.471131 559.149942 
L 479.646335 560.69868 
L 478.82154 561.141516 
L 477.996745 560.831701 
L 477.171949 561.377474 
L 476.347154 562.718615 
L 475.522359 564.171162 
L 474.391324 565.266493 
L 473.26029 565.672289 
L 472.129255 565.76109 
L 470.998221 565.692295 
L 469.867187 565.519401 
L 468.736152 565.252738 
L 467.605118 564.916703 
L 466.474083 564.530125 
L 465.333316 564.118765 
L 463.881803 563.697419 
L 461.844867 563.283635 
L 458.985672 562.886429 
L 454.971416 562.513828 
L 449.334496 562.168695 
L 441.781638 561.851443 
L 434.130915 561.563207 
L 426.752215 561.304104 
L 419.635807 561.073009 
L 412.772406 560.868439 
L 406.153132 560.68861 
L 399.7692 560.531296 
L 393.612158 560.39477 
L 387.674039 560.27666 
L 381.947015 560.175291 
L 376.423458 560.088469 
L 371.0965 560.014742 
L 365.958678 559.952209 
L 360.964856 559.899657 
L 356.1238 559.855508 
L 351.45464 559.818785 
L 346.951477 559.788219 
L 342.608436 559.763054 
L 338.419659 559.7423 
L 334.379387 559.725387 
L 330.482783 559.711563 
L 326.724795 559.700415 
L 323.100106 559.691384 
L 319.603974 559.684178 
L 316.232504 559.678391 
L 312.980671 559.673822 
L 309.844177 559.670185 
L 306.819054 559.667344 
L 303.901395 559.665103 
L 301.087253 559.663371 
L 298.372767 559.662016 
L 295.754546 559.660981 
L 293.230282 559.660178 
L 290.794897 559.659572 
L 288.445503 559.659105 
L 286.180796 559.658757 
L 283.994951 559.658491 
L 281.887838 559.658295 
L 279.855619 559.658147 
L 277.893724 559.658039 
L 276.003041 559.657958 
L 274.179812 559.6579 
L 272.420705 559.657856 
L 270.723246 559.657825 
L 269.085661 559.657802 
L 267.506519 559.657786 
L 265.983555 559.657775 
L 264.514706 559.657767 
L 263.098204 559.657761 
L 261.732564 559.657757 
L 260.415204 559.657754 
L 259.143602 559.657752 
L 257.915866 559.65775 
L 256.718299 559.65775 
L 255.520733 559.657749 
L 254.323167 559.657748 
L 253.125601 559.657748 
L 251.928035 559.657748 
L 250.73047 559.657748 
L 249.532904 559.657748 
L 248.335338 559.657748 
L 247.137772 559.657748 
L 245.940206 559.657748 
L 244.74264 559.657748 
L 243.545075 559.657748 
L 242.347509 559.657748 
L 241.149943 559.657748 
L 239.952377 559.657748 
L 238.754811 559.657748 
L 237.557245 559.657748 
L 236.359679 559.657748 
L 235.162114 559.657748 
L 233.964548 559.657748 
L 232.766982 559.657748 
L 231.569416 559.657748 
L 230.37185 559.657748 
L 229.174284 559.657748 
L 227.976718 559.657748 
L 226.779153 559.657748 
L 225.581587 559.657748 
L 224.384021 559.657748 
L 223.186455 559.657748 
L 221.988889 559.657748 
L 220.791323 559.657748 
L 219.593758 559.657748 
L 218.396192 559.657748 
L 217.198626 559.657748 
L 216.00106 559.657748 
L 214.832596 559.657748 
L 213.664132 559.657748 
L 212.4854 559.657748 
L 211.009132 559.657748 
L 208.989224 559.657748 
L 206.224103 559.657748 
L 202.437713 559.657748 
L 197.251961 559.657748 
L 190.148976 559.657748 
L 180.419404 559.657748 
L 167.091556 559.657748 
L 148.834393 559.657748 
z
" clip-path="url(#p82a222ac52)" style="fill: #ffa500; fill-opacity: 0.2"/>
   </g>
   <g id="matplotlib.axis_1">
    <g id="xtick_1">
     <g id="line2d_1">
      <path d="M 216.00106 627.417748 
L 216.00106 17.577748 
" clip-path="url(#p82a222ac52)" style="fill: none; stroke: #b0b0b0; stroke-width: 0.8; stroke-linecap: square"/>
     </g>
     <g id="line2d_2">
      <defs>
       <path id="m80fbc9ee52" d="M 0 0 
L 0 3.5 
" style="stroke: #000000; stroke-width: 0.8"/>
      </defs>
      <g>
       <use xlink:href="#m80fbc9ee52" x="216.00106" y="627.417748" style="stroke: #000000; stroke-width: 0.8"/>
      </g>
     </g>
     <g id="text_1">
      <!-- $\mathdefault{0.0}$ -->
      <g transform="translate(198.22934 655.173243) scale(0.3 -0.3)">
       <defs>
        <path id="CMR17-30" d="M 2688 2025 
C 2688 2416 2682 3080 2413 3591 
C 2176 4039 1798 4198 1466 4198 
C 1158 4198 768 4058 525 3597 
C 269 3118 243 2524 243 2025 
C 243 1661 250 1106 448 619 
C 723 -39 1216 -128 1466 -128 
C 1760 -128 2208 -7 2470 600 
C 2662 1042 2688 1559 2688 2025 
z
M 1466 -26 
C 1056 -26 813 325 723 812 
C 653 1188 653 1738 653 2096 
C 653 2588 653 2997 736 3387 
C 858 3929 1216 4096 1466 4096 
C 1728 4096 2067 3923 2189 3400 
C 2272 3036 2278 2607 2278 2096 
C 2278 1680 2278 1169 2202 792 
C 2067 95 1690 -26 1466 -26 
z
" transform="scale(0.015625)"/>
        <path id="CMMI12-3a" d="M 1178 307 
C 1178 492 1024 619 870 619 
C 685 619 557 466 557 313 
C 557 128 710 0 864 0 
C 1050 0 1178 153 1178 307 
z
" transform="scale(0.015625)"/>
       </defs>
       <use xlink:href="#CMR17-30" transform="scale(0.996264)"/>
       <use xlink:href="#CMMI12-3a" transform="translate(45.690477 0) scale(0.996264)"/>
       <use xlink:href="#CMR17-30" transform="translate(72.787654 0) scale(0.996264)"/>
      </g>
     </g>
    </g>
    <g id="xtick_2">
     <g id="line2d_3">
      <path d="M 350.334393 627.417748 
L 350.334393 17.577748 
" clip-path="url(#p82a222ac52)" style="fill: none; stroke: #b0b0b0; stroke-width: 0.8; stroke-linecap: square"/>
     </g>
     <g id="line2d_4">
      <g>
       <use xlink:href="#m80fbc9ee52" x="350.334393" y="627.417748" style="stroke: #000000; stroke-width: 0.8"/>
      </g>
     </g>
     <g id="text_2">
      <!-- $\mathdefault{0.1}$ -->
      <g transform="translate(332.562674 655.173243) scale(0.3 -0.3)">
       <defs>
        <path id="CMR17-31" d="M 1702 4058 
C 1702 4192 1696 4192 1606 4192 
C 1357 3916 979 3827 621 3827 
C 602 3827 570 3827 563 3808 
C 557 3795 557 3782 557 3648 
C 755 3648 1088 3686 1344 3839 
L 1344 461 
C 1344 236 1331 160 781 160 
L 589 160 
L 589 0 
C 896 0 1216 0 1523 0 
C 1830 0 2150 0 2458 0 
L 2458 160 
L 2266 160 
C 1715 160 1702 230 1702 458 
L 1702 4058 
z
" transform="scale(0.015625)"/>
       </defs>
       <use xlink:href="#CMR17-30" transform="scale(0.996264)"/>
       <use xlink:href="#CMMI12-3a" transform="translate(45.690477 0) scale(0.996264)"/>
       <use xlink:href="#CMR17-31" transform="translate(72.787654 0) scale(0.996264)"/>
      </g>
     </g>
    </g>
    <g id="xtick_3">
     <g id="line2d_5">
      <path d="M 484.667727 627.417748 
L 484.667727 17.577748 
" clip-path="url(#p82a222ac52)" style="fill: none; stroke: #b0b0b0; stroke-width: 0.8; stroke-linecap: square"/>
     </g>
     <g id="line2d_6">
      <g>
       <use xlink:href="#m80fbc9ee52" x="484.667727" y="627.417748" style="stroke: #000000; stroke-width: 0.8"/>
      </g>
     </g>
     <g id="text_3">
      <!-- $\mathdefault{0.2}$ -->
      <g transform="translate(466.896007 655.173243) scale(0.3 -0.3)">
       <defs>
        <path id="CMR17-32" d="M 2669 989 
L 2554 989 
C 2490 536 2438 459 2413 420 
C 2381 369 1920 369 1830 369 
L 602 369 
C 832 619 1280 1072 1824 1597 
C 2214 1967 2669 2402 2669 3035 
C 2669 3790 2067 4224 1395 4224 
C 691 4224 262 3604 262 3030 
C 262 2780 448 2748 525 2748 
C 589 2748 781 2787 781 3010 
C 781 3207 614 3264 525 3264 
C 486 3264 448 3258 422 3245 
C 544 3790 915 4058 1306 4058 
C 1862 4058 2227 3617 2227 3035 
C 2227 2479 1901 2000 1536 1584 
L 262 146 
L 262 0 
L 2515 0 
L 2669 989 
z
" transform="scale(0.015625)"/>
       </defs>
       <use xlink:href="#CMR17-30" transform="scale(0.996264)"/>
       <use xlink:href="#CMMI12-3a" transform="translate(45.690477 0) scale(0.996264)"/>
       <use xlink:href="#CMR17-32" transform="translate(72.787654 0) scale(0.996264)"/>
      </g>
     </g>
    </g>
    <g id="xtick_4">
     <g id="line2d_7">
      <path d="M 619.00106 627.417748 
L 619.00106 17.577748 
" clip-path="url(#p82a222ac52)" style="fill: none; stroke: #b0b0b0; stroke-width: 0.8; stroke-linecap: square"/>
     </g>
     <g id="line2d_8">
      <g>
       <use xlink:href="#m80fbc9ee52" x="619.00106" y="627.417748" style="stroke: #000000; stroke-width: 0.8"/>
      </g>
     </g>
     <g id="text_4">
      <!-- $\mathdefault{0.3}$ -->
      <g transform="translate(601.22934 655.173243) scale(0.3 -0.3)">
       <defs>
        <path id="CMR17-33" d="M 1414 2157 
C 1984 2157 2234 1662 2234 1090 
C 2234 320 1824 25 1453 25 
C 1114 25 563 194 390 693 
C 422 680 454 680 486 680 
C 640 680 755 782 755 948 
C 755 1133 614 1216 486 1216 
C 378 1216 211 1165 211 926 
C 211 335 787 -128 1466 -128 
C 2176 -128 2720 430 2720 1085 
C 2720 1707 2208 2157 1600 2227 
C 2086 2328 2554 2756 2554 3329 
C 2554 3820 2048 4179 1472 4179 
C 890 4179 378 3829 378 3329 
C 378 3110 544 3072 627 3072 
C 762 3072 877 3155 877 3321 
C 877 3486 762 3569 627 3569 
C 602 3569 570 3569 544 3557 
C 730 3959 1235 4032 1459 4032 
C 1683 4032 2106 3925 2106 3320 
C 2106 3143 2080 2828 1862 2550 
C 1670 2304 1453 2304 1242 2284 
C 1210 2284 1062 2269 1037 2269 
C 992 2263 966 2257 966 2208 
C 966 2163 973 2157 1101 2157 
L 1414 2157 
z
" transform="scale(0.015625)"/>
       </defs>
       <use xlink:href="#CMR17-30" transform="scale(0.996264)"/>
       <use xlink:href="#CMMI12-3a" transform="translate(45.690477 0) scale(0.996264)"/>
       <use xlink:href="#CMR17-33" transform="translate(72.787654 0) scale(0.996264)"/>
      </g>
     </g>
    </g>
    <g id="xtick_5">
     <g id="line2d_9">
      <path d="M 753.334393 627.417748 
L 753.334393 17.577748 
" clip-path="url(#p82a222ac52)" style="fill: none; stroke: #b0b0b0; stroke-width: 0.8; stroke-linecap: square"/>
     </g>
     <g id="line2d_10">
      <g>
       <use xlink:href="#m80fbc9ee52" x="753.334393" y="627.417748" style="stroke: #000000; stroke-width: 0.8"/>
      </g>
     </g>
     <g id="text_5">
      <!-- $\mathdefault{0.4}$ -->
      <g transform="translate(735.562674 655.173243) scale(0.3 -0.3)">
       <defs>
        <path id="CMR17-34" d="M 2150 4122 
C 2150 4256 2144 4256 2029 4256 
L 128 1254 
L 128 1088 
L 1779 1088 
L 1779 457 
C 1779 224 1766 160 1318 160 
L 1197 160 
L 1197 0 
C 1402 0 1747 0 1965 0 
C 2182 0 2528 0 2733 0 
L 2733 160 
L 2611 160 
C 2163 160 2150 224 2150 457 
L 2150 1088 
L 2803 1088 
L 2803 1254 
L 2150 1254 
L 2150 4122 
z
M 1798 3703 
L 1798 1254 
L 256 1254 
L 1798 3703 
z
" transform="scale(0.015625)"/>
       </defs>
       <use xlink:href="#CMR17-30" transform="scale(0.996264)"/>
       <use xlink:href="#CMMI12-3a" transform="translate(45.690477 0) scale(0.996264)"/>
       <use xlink:href="#CMR17-34" transform="translate(72.787654 0) scale(0.996264)"/>
      </g>
     </g>
    </g>
    <g id="text_6">
     <!-- $x, \; \mathrm{m} $ -->
     <g transform="translate(462.448457 689.201445) scale(0.35 -0.35)">
      <defs>
       <path id="CMMI12-78" d="M 3034 2606 
C 2829 2567 2752 2414 2752 2293 
C 2752 2139 2874 2088 2963 2088 
C 3155 2088 3290 2254 3290 2427 
C 3290 2695 2982 2816 2714 2816 
C 2323 2816 2106 2433 2048 2312 
C 1901 2816 1504 2816 1389 2816 
C 736 2816 390 1980 390 1839 
C 390 1814 416 1782 461 1782 
C 512 1782 525 1820 538 1846 
C 755 2555 1184 2689 1370 2689 
C 1658 2689 1715 2420 1715 2267 
C 1715 2127 1677 1980 1600 1673 
L 1382 798 
C 1286 415 1101 64 762 64 
C 730 64 570 64 435 147 
C 666 192 717 383 717 460 
C 717 588 621 664 499 664 
C 346 664 179 530 179 326 
C 179 57 480 -64 755 -64 
C 1062 -64 1280 179 1414 441 
C 1517 64 1837 -64 2074 -64 
C 2726 -64 3072 773 3072 913 
C 3072 945 3046 971 3008 971 
C 2950 971 2944 939 2925 888 
C 2752 326 2381 64 2093 64 
C 1869 64 1747 230 1747 492 
C 1747 632 1773 734 1875 1156 
L 2099 2024 
C 2195 2408 2413 2689 2707 2689 
C 2720 2689 2899 2689 3034 2606 
z
" transform="scale(0.015625)"/>
       <path id="CMMI12-3b" d="M 1248 -31 
C 1248 343 1126 619 864 619 
C 659 619 557 453 557 313 
C 557 172 653 0 870 0 
C 954 0 1024 26 1082 83 
C 1094 96 1101 96 1107 96 
C 1120 96 1120 5 1120 -27 
C 1120 -240 1082 -659 710 -1080 
C 640 -1157 640 -1170 640 -1183 
C 640 -1216 672 -1248 704 -1248 
C 755 -1248 1248 -771 1248 -31 
z
" transform="scale(0.015625)"/>
       <path id="CMR17-6d" d="M 4326 1933 
C 4326 2252 4269 2790 3507 2790 
C 3072 2790 2771 2496 2656 2151 
L 2650 2151 
C 2573 2676 2195 2790 1837 2790 
C 1331 2790 1069 2400 973 2144 
L 966 2144 
L 966 2790 
L 211 2720 
L 211 2554 
C 589 2554 646 2515 646 2208 
L 646 428 
C 646 184 621 153 211 153 
L 211 -13 
C 365 0 646 0 813 0 
C 979 0 1267 0 1421 -13 
L 1421 153 
C 1011 153 986 178 986 428 
L 986 1658 
C 986 2247 1344 2688 1792 2688 
C 2266 2688 2317 2266 2317 1958 
L 2317 428 
C 2317 184 2291 153 1882 153 
L 1882 -13 
C 2035 0 2317 0 2483 0 
C 2650 0 2938 0 3091 -13 
L 3091 153 
C 2682 153 2656 178 2656 428 
L 2656 1658 
C 2656 2247 3014 2688 3462 2688 
C 3936 2688 3987 2266 3987 1958 
L 3987 428 
C 3987 184 3962 153 3552 153 
L 3552 -13 
C 3706 0 3987 0 4154 0 
C 4320 0 4608 0 4762 -13 
L 4762 153 
C 4352 153 4326 178 4326 428 
L 4326 1933 
z
" transform="scale(0.015625)"/>
      </defs>
      <use xlink:href="#CMMI12-78" transform="scale(0.996264)"/>
      <use xlink:href="#CMMI12-3b" transform="translate(55.43406 0) scale(0.996264)"/>
      <use xlink:href="#CMR17-6d" transform="translate(126.809651 0) scale(0.996264)"/>
     </g>
    </g>
   </g>
   <g id="matplotlib.axis_2">
    <g id="ytick_1">
     <g id="line2d_11">
      <path d="M 135.40106 627.417748 
L 860.80106 627.417748 
" clip-path="url(#p82a222ac52)" style="fill: none; stroke: #b0b0b0; stroke-width: 0.8; stroke-linecap: square"/>
     </g>
     <g id="line2d_12">
      <defs>
       <path id="md23c7a0018" d="M 0 0 
L -3.5 0 
" style="stroke: #000000; stroke-width: 0.8"/>
      </defs>
      <g>
       <use xlink:href="#md23c7a0018" x="135.40106" y="627.417748" style="stroke: #000000; stroke-width: 0.8"/>
      </g>
     </g>
     <g id="text_7">
      <!-- $\mathdefault{−0.025}$ -->
      <g transform="translate(42.197103 637.795495) scale(0.3 -0.3)">
       <defs>
        <path id="CMSY10-0" d="M 4218 1472 
C 4326 1472 4442 1472 4442 1600 
C 4442 1728 4326 1728 4218 1728 
L 755 1728 
C 646 1728 531 1728 531 1600 
C 531 1472 646 1472 755 1472 
L 4218 1472 
z
" transform="scale(0.015625)"/>
        <path id="CMR17-35" d="M 730 3692 
C 794 3666 1056 3584 1325 3584 
C 1920 3584 2246 3911 2432 4100 
C 2432 4157 2432 4192 2394 4192 
C 2387 4192 2374 4192 2323 4163 
C 2099 4058 1837 3973 1517 3973 
C 1325 3973 1037 3999 723 4139 
C 653 4171 640 4171 634 4171 
C 602 4171 595 4164 595 4037 
L 595 2203 
C 595 2089 595 2057 659 2057 
C 691 2057 704 2070 736 2114 
C 941 2401 1222 2522 1542 2522 
C 1766 2522 2246 2382 2246 1289 
C 2246 1085 2246 715 2054 421 
C 1894 159 1645 25 1370 25 
C 947 25 518 320 403 814 
C 429 807 480 795 506 795 
C 589 795 749 840 749 1038 
C 749 1210 627 1280 506 1280 
C 358 1280 262 1190 262 1011 
C 262 454 704 -128 1382 -128 
C 2042 -128 2669 440 2669 1264 
C 2669 2030 2170 2624 1549 2624 
C 1222 2624 947 2503 730 2274 
L 730 3692 
z
" transform="scale(0.015625)"/>
       </defs>
       <use xlink:href="#CMSY10-0" transform="scale(0.996264)"/>
       <use xlink:href="#CMR17-30" transform="translate(77.487468 0) scale(0.996264)"/>
       <use xlink:href="#CMMI12-3a" transform="translate(123.177945 0) scale(0.996264)"/>
       <use xlink:href="#CMR17-30" transform="translate(150.275122 0) scale(0.996264)"/>
       <use xlink:href="#CMR17-32" transform="translate(195.965599 0) scale(0.996264)"/>
       <use xlink:href="#CMR17-35" transform="translate(241.656076 0) scale(0.996264)"/>
      </g>
     </g>
    </g>
    <g id="ytick_2">
     <g id="line2d_13">
      <path d="M 135.40106 559.657748 
L 860.80106 559.657748 
" clip-path="url(#p82a222ac52)" style="fill: none; stroke: #b0b0b0; stroke-width: 0.8; stroke-linecap: square"/>
     </g>
     <g id="line2d_14">
      <g>
       <use xlink:href="#md23c7a0018" x="135.40106" y="559.657748" style="stroke: #000000; stroke-width: 0.8"/>
      </g>
     </g>
     <g id="text_8">
      <!-- $\mathdefault{0.000}$ -->
      <g transform="translate(65.443334 570.035495) scale(0.3 -0.3)">
       <use xlink:href="#CMR17-30" transform="scale(0.996264)"/>
       <use xlink:href="#CMMI12-3a" transform="translate(45.690477 0) scale(0.996264)"/>
       <use xlink:href="#CMR17-30" transform="translate(72.787654 0) scale(0.996264)"/>
       <use xlink:href="#CMR17-30" transform="translate(118.478131 0) scale(0.996264)"/>
       <use xlink:href="#CMR17-30" transform="translate(164.168608 0) scale(0.996264)"/>
      </g>
     </g>
    </g>
    <g id="ytick_3">
     <g id="line2d_15">
      <path d="M 135.40106 491.897748 
L 860.80106 491.897748 
" clip-path="url(#p82a222ac52)" style="fill: none; stroke: #b0b0b0; stroke-width: 0.8; stroke-linecap: square"/>
     </g>
     <g id="line2d_16">
      <g>
       <use xlink:href="#md23c7a0018" x="135.40106" y="491.897748" style="stroke: #000000; stroke-width: 0.8"/>
      </g>
     </g>
     <g id="text_9">
      <!-- $\mathdefault{0.025}$ -->
      <g transform="translate(65.443334 502.275495) scale(0.3 -0.3)">
       <use xlink:href="#CMR17-30" transform="scale(0.996264)"/>
       <use xlink:href="#CMMI12-3a" transform="translate(45.690477 0) scale(0.996264)"/>
       <use xlink:href="#CMR17-30" transform="translate(72.787654 0) scale(0.996264)"/>
       <use xlink:href="#CMR17-32" transform="translate(118.478131 0) scale(0.996264)"/>
       <use xlink:href="#CMR17-35" transform="translate(164.168608 0) scale(0.996264)"/>
      </g>
     </g>
    </g>
    <g id="ytick_4">
     <g id="line2d_17">
      <path d="M 135.40106 424.137748 
L 860.80106 424.137748 
" clip-path="url(#p82a222ac52)" style="fill: none; stroke: #b0b0b0; stroke-width: 0.8; stroke-linecap: square"/>
     </g>
     <g id="line2d_18">
      <g>
       <use xlink:href="#md23c7a0018" x="135.40106" y="424.137748" style="stroke: #000000; stroke-width: 0.8"/>
      </g>
     </g>
     <g id="text_10">
      <!-- $\mathdefault{0.050}$ -->
      <g transform="translate(65.443334 434.515495) scale(0.3 -0.3)">
       <use xlink:href="#CMR17-30" transform="scale(0.996264)"/>
       <use xlink:href="#CMMI12-3a" transform="translate(45.690477 0) scale(0.996264)"/>
       <use xlink:href="#CMR17-30" transform="translate(72.787654 0) scale(0.996264)"/>
       <use xlink:href="#CMR17-35" transform="translate(118.478131 0) scale(0.996264)"/>
       <use xlink:href="#CMR17-30" transform="translate(164.168608 0) scale(0.996264)"/>
      </g>
     </g>
    </g>
    <g id="ytick_5">
     <g id="line2d_19">
      <path d="M 135.40106 356.377748 
L 860.80106 356.377748 
" clip-path="url(#p82a222ac52)" style="fill: none; stroke: #b0b0b0; stroke-width: 0.8; stroke-linecap: square"/>
     </g>
     <g id="line2d_20">
      <g>
       <use xlink:href="#md23c7a0018" x="135.40106" y="356.377748" style="stroke: #000000; stroke-width: 0.8"/>
      </g>
     </g>
     <g id="text_11">
      <!-- $\mathdefault{0.075}$ -->
      <g transform="translate(65.443334 366.755495) scale(0.3 -0.3)">
       <defs>
        <path id="CMR17-37" d="M 2886 3941 
L 2886 4081 
L 1382 4081 
C 634 4081 621 4165 595 4288 
L 480 4288 
L 294 3094 
L 410 3094 
C 429 3215 474 3540 550 3661 
C 589 3712 1062 3712 1171 3712 
L 2579 3712 
L 1869 2661 
C 1395 1954 1069 999 1069 165 
C 1069 89 1069 -128 1299 -128 
C 1530 -128 1530 89 1530 171 
L 1530 465 
C 1530 1508 1709 2196 2003 2636 
L 2886 3941 
z
" transform="scale(0.015625)"/>
       </defs>
       <use xlink:href="#CMR17-30" transform="scale(0.996264)"/>
       <use xlink:href="#CMMI12-3a" transform="translate(45.690477 0) scale(0.996264)"/>
       <use xlink:href="#CMR17-30" transform="translate(72.787654 0) scale(0.996264)"/>
       <use xlink:href="#CMR17-37" transform="translate(118.478131 0) scale(0.996264)"/>
       <use xlink:href="#CMR17-35" transform="translate(164.168608 0) scale(0.996264)"/>
      </g>
     </g>
    </g>
    <g id="ytick_6">
     <g id="line2d_21">
      <path d="M 135.40106 288.617748 
L 860.80106 288.617748 
" clip-path="url(#p82a222ac52)" style="fill: none; stroke: #b0b0b0; stroke-width: 0.8; stroke-linecap: square"/>
     </g>
     <g id="line2d_22">
      <g>
       <use xlink:href="#md23c7a0018" x="135.40106" y="288.617748" style="stroke: #000000; stroke-width: 0.8"/>
      </g>
     </g>
     <g id="text_12">
      <!-- $\mathdefault{0.100}$ -->
      <g transform="translate(65.443334 298.995495) scale(0.3 -0.3)">
       <use xlink:href="#CMR17-30" transform="scale(0.996264)"/>
       <use xlink:href="#CMMI12-3a" transform="translate(45.690477 0) scale(0.996264)"/>
       <use xlink:href="#CMR17-31" transform="translate(72.787654 0) scale(0.996264)"/>
       <use xlink:href="#CMR17-30" transform="translate(118.478131 0) scale(0.996264)"/>
       <use xlink:href="#CMR17-30" transform="translate(164.168608 0) scale(0.996264)"/>
      </g>
     </g>
    </g>
    <g id="ytick_7">
     <g id="line2d_23">
      <path d="M 135.40106 220.857748 
L 860.80106 220.857748 
" clip-path="url(#p82a222ac52)" style="fill: none; stroke: #b0b0b0; stroke-width: 0.8; stroke-linecap: square"/>
     </g>
     <g id="line2d_24">
      <g>
       <use xlink:href="#md23c7a0018" x="135.40106" y="220.857748" style="stroke: #000000; stroke-width: 0.8"/>
      </g>
     </g>
     <g id="text_13">
      <!-- $\mathdefault{0.125}$ -->
      <g transform="translate(65.443334 231.235495) scale(0.3 -0.3)">
       <use xlink:href="#CMR17-30" transform="scale(0.996264)"/>
       <use xlink:href="#CMMI12-3a" transform="translate(45.690477 0) scale(0.996264)"/>
       <use xlink:href="#CMR17-31" transform="translate(72.787654 0) scale(0.996264)"/>
       <use xlink:href="#CMR17-32" transform="translate(118.478131 0) scale(0.996264)"/>
       <use xlink:href="#CMR17-35" transform="translate(164.168608 0) scale(0.996264)"/>
      </g>
     </g>
    </g>
    <g id="ytick_8">
     <g id="line2d_25">
      <path d="M 135.40106 153.097748 
L 860.80106 153.097748 
" clip-path="url(#p82a222ac52)" style="fill: none; stroke: #b0b0b0; stroke-width: 0.8; stroke-linecap: square"/>
     </g>
     <g id="line2d_26">
      <g>
       <use xlink:href="#md23c7a0018" x="135.40106" y="153.097748" style="stroke: #000000; stroke-width: 0.8"/>
      </g>
     </g>
     <g id="text_14">
      <!-- $\mathdefault{0.150}$ -->
      <g transform="translate(65.443334 163.475495) scale(0.3 -0.3)">
       <use xlink:href="#CMR17-30" transform="scale(0.996264)"/>
       <use xlink:href="#CMMI12-3a" transform="translate(45.690477 0) scale(0.996264)"/>
       <use xlink:href="#CMR17-31" transform="translate(72.787654 0) scale(0.996264)"/>
       <use xlink:href="#CMR17-35" transform="translate(118.478131 0) scale(0.996264)"/>
       <use xlink:href="#CMR17-30" transform="translate(164.168608 0) scale(0.996264)"/>
      </g>
     </g>
    </g>
    <g id="ytick_9">
     <g id="line2d_27">
      <path d="M 135.40106 85.337748 
L 860.80106 85.337748 
" clip-path="url(#p82a222ac52)" style="fill: none; stroke: #b0b0b0; stroke-width: 0.8; stroke-linecap: square"/>
     </g>
     <g id="line2d_28">
      <g>
       <use xlink:href="#md23c7a0018" x="135.40106" y="85.337748" style="stroke: #000000; stroke-width: 0.8"/>
      </g>
     </g>
     <g id="text_15">
      <!-- $\mathdefault{0.175}$ -->
      <g transform="translate(65.443334 95.715495) scale(0.3 -0.3)">
       <use xlink:href="#CMR17-30" transform="scale(0.996264)"/>
       <use xlink:href="#CMMI12-3a" transform="translate(45.690477 0) scale(0.996264)"/>
       <use xlink:href="#CMR17-31" transform="translate(72.787654 0) scale(0.996264)"/>
       <use xlink:href="#CMR17-37" transform="translate(118.478131 0) scale(0.996264)"/>
       <use xlink:href="#CMR17-35" transform="translate(164.168608 0) scale(0.996264)"/>
      </g>
     </g>
    </g>
    <g id="ytick_10">
     <g id="line2d_29">
      <path d="M 135.40106 17.577748 
L 860.80106 17.577748 
" clip-path="url(#p82a222ac52)" style="fill: none; stroke: #b0b0b0; stroke-width: 0.8; stroke-linecap: square"/>
     </g>
     <g id="line2d_30">
      <g>
       <use xlink:href="#md23c7a0018" x="135.40106" y="17.577748" style="stroke: #000000; stroke-width: 0.8"/>
      </g>
     </g>
     <g id="text_16">
      <!-- $\mathdefault{0.200}$ -->
      <g transform="translate(65.443334 27.955495) scale(0.3 -0.3)">
       <use xlink:href="#CMR17-30" transform="scale(0.996264)"/>
       <use xlink:href="#CMMI12-3a" transform="translate(45.690477 0) scale(0.996264)"/>
       <use xlink:href="#CMR17-32" transform="translate(72.787654 0) scale(0.996264)"/>
       <use xlink:href="#CMR17-30" transform="translate(118.478131 0) scale(0.996264)"/>
       <use xlink:href="#CMR17-30" transform="translate(164.168608 0) scale(0.996264)"/>
      </g>
     </g>
    </g>
    <g id="text_17">
     <!-- $Y$ -->
     <g transform="translate(31.414752 332.402499) rotate(-90) scale(0.35 -0.35)">
      <defs>
       <path id="CMMI12-59" d="M 3763 3645 
L 3910 3791 
C 4192 4078 4429 4149 4653 4167 
C 4723 4173 4781 4179 4781 4288 
C 4781 4352 4717 4352 4704 4352 
C 4627 4352 4544 4352 4467 4352 
L 4205 4352 
C 4019 4352 3821 4352 3642 4352 
C 3597 4352 3526 4352 3526 4226 
C 3526 4166 3590 4160 3610 4160 
C 3802 4160 3802 4064 3802 4026 
C 3802 3956 3750 3860 3622 3713 
L 2099 1969 
L 1376 3911 
C 1338 4000 1338 4013 1338 4026 
C 1338 4160 1600 4160 1677 4160 
C 1754 4160 1824 4160 1824 4279 
C 1824 4352 1766 4352 1728 4352 
C 1619 4352 1491 4352 1382 4352 
L 672 4352 
C 557 4352 435 4352 326 4352 
C 282 4352 211 4352 211 4226 
C 211 4160 269 4160 365 4160 
C 678 4160 736 4102 794 3956 
L 1587 1835 
C 1594 1816 1613 1745 1613 1726 
C 1613 1707 1299 452 1280 388 
C 1229 217 1165 185 755 185 
C 646 185 595 185 595 64 
C 595 0 666 0 685 0 
C 800 0 934 0 1056 0 
L 1811 0 
C 1926 0 2061 0 2176 0 
C 2221 0 2298 0 2298 115 
C 2298 185 2253 185 2144 185 
C 1747 185 1747 230 1747 300 
C 1747 345 1798 548 1830 676 
L 2061 1594 
C 2099 1727 2099 1739 2157 1803 
L 3763 3645 
z
" transform="scale(0.015625)"/>
      </defs>
      <use xlink:href="#CMMI12-59" transform="scale(0.996264)"/>
     </g>
    </g>
   </g>
   <g id="line2d_31">
    <path d="M 148.834393 559.657748 
L 376.423458 559.547432 
L 434.130915 559.252081 
L 458.985672 559.009866 
L 465.333316 558.773372 
L 473.26029 558.08497 
L 477.996745 557.503947 
L 486.244698 556.424354 
L 492.018266 555.90495 
L 496.142243 555.719065 
L 501.091015 555.725185 
L 506.864582 555.977979 
L 523.914959 556.916506 
L 534.942126 557.05128 
L 555.980275 556.986937 
L 594.311688 556.924268 
L 629.942848 556.802542 
L 659.63548 556.494926 
L 690.761507 556.12859 
L 749.53234 555.509232 
L 808.303174 555.165883 
L 867.074007 555.05978 
L 867.074007 555.05978 
" clip-path="url(#p82a222ac52)" style="fill: none; stroke: #0000ff; stroke-width: 3; stroke-linecap: square"/>
   </g>
   <g id="line2d_32">
    <path d="M 148.834393 559.657748 
L 356.1238 559.758308 
L 399.7692 560.048553 
L 441.781638 560.564344 
L 454.971416 560.815918 
L 461.844867 561.111634 
L 467.605118 561.506361 
L 468.736152 561.320682 
L 469.867187 560.841773 
L 470.998221 559.866789 
L 472.129255 558.184479 
L 473.26029 555.501769 
L 474.391324 551.525696 
L 475.522359 546.113375 
L 477.996745 525.760114 
L 478.82154 517.50141 
L 480.471131 496.902229 
L 486.244698 418.07048 
L 488.719084 389.529023 
L 490.368675 373.043563 
L 492.018266 358.795836 
L 493.667856 346.667164 
L 495.317447 336.443296 
L 496.967038 327.44752 
L 499.441424 315.393398 
L 501.091015 308.500895 
L 502.740605 302.433833 
L 505.214991 294.588517 
L 507.689378 287.793563 
L 509.338968 283.784494 
L 510.988559 280.456487 
L 512.646596 278.012345 
L 513.53156 277.188083 
L 514.494197 276.500158 
L 515.532138 276.047921 
L 516.659653 275.802712 
L 517.883479 275.698404 
L 520.648461 276.119869 
L 522.213559 276.554174 
L 532.348702 279.99192 
L 534.942126 280.552381 
L 537.762087 280.83877 
L 540.83103 280.832711 
L 544.165925 280.481451 
L 547.789746 279.687191 
L 551.721424 278.435165 
L 555.980275 276.714662 
L 560.58374 274.562788 
L 565.543139 271.784411 
L 570.861092 268.560111 
L 576.520639 264.618652 
L 582.434635 260.012488 
L 588.373162 254.435476 
L 594.311688 247.953912 
L 600.250215 240.721444 
L 606.188741 233.072535 
L 629.942848 201.647316 
L 635.881374 194.362525 
L 641.819901 187.416089 
L 647.758427 181.045295 
L 653.696954 175.174183 
L 659.63548 170.106614 
L 665.574007 165.461943 
L 673.96984 161.654719 
L 682.365674 158.151531 
L 690.761507 155.392158 
L 699.15734 152.99912 
L 707.553174 151.182193 
L 715.949007 149.685623 
L 724.34484 148.543317 
L 732.740674 147.648032 
L 741.136507 146.983766 
L 749.53234 146.46046 
L 766.324007 145.708899 
L 791.511507 144.954892 
L 816.699007 144.444218 
L 841.886507 144.113145 
L 867.074007 143.996356 
L 867.074007 143.996356 
" clip-path="url(#p82a222ac52)" style="fill: none; stroke: #008000; stroke-width: 3; stroke-linecap: square"/>
   </g>
   <g id="line2d_33">
    <path d="M 148.834393 559.657748 
L 434.130915 559.565381 
L 458.985672 559.43366 
L 463.881803 559.279482 
L 466.474083 558.976596 
L 468.736152 558.384014 
L 469.867187 557.918292 
L 470.998221 557.304174 
L 472.129255 556.513344 
L 473.26029 555.475083 
L 474.391324 553.985214 
L 475.522359 551.838331 
L 477.171949 547.098655 
L 477.996745 543.562605 
L 478.82154 539.073066 
L 480.471131 527.803358 
L 483.770312 503.923181 
L 486.244698 487.428614 
L 487.894289 477.395491 
L 491.19347 459.658712 
L 492.843061 452.454184 
L 495.317447 442.885489 
L 496.967038 437.318449 
L 499.441424 429.925736 
L 501.091015 425.481404 
L 502.740605 421.722824 
L 504.390196 418.336412 
L 506.039787 415.285706 
L 508.514173 411.321683 
L 510.163764 409.075292 
L 511.813354 407.360332 
L 512.646596 406.714591 
L 513.53156 406.191243 
L 514.494197 405.779506 
L 515.532138 405.481391 
L 516.659653 405.284552 
L 519.209351 405.238375 
L 522.213559 405.62601 
L 534.942126 407.792202 
L 537.762087 408.104859 
L 544.165925 408.468662 
L 547.789746 408.504758 
L 551.721424 408.397946 
L 555.980275 408.14596 
L 582.434635 405.598621 
L 588.373162 404.874854 
L 594.311688 404.418532 
L 612.127268 403.490269 
L 618.065794 403.003129 
L 624.004321 402.692188 
L 635.881374 402.787308 
L 647.758427 403.325641 
L 665.574007 405.281186 
L 682.365674 406.205867 
L 724.34484 406.618196 
L 749.53234 407.037536 
L 825.09484 407.612245 
L 867.074007 407.739881 
L 867.074007 407.739881 
" clip-path="url(#p82a222ac52)" style="fill: none; stroke: #ffa500; stroke-width: 3; stroke-linecap: square"/>
   </g>
   <g id="patch_3">
    <path d="M 135.40106 627.417748 
L 135.40106 17.577748 
" style="fill: none; stroke: #000000; stroke-width: 0.8; stroke-linejoin: miter; stroke-linecap: square"/>
   </g>
   <g id="patch_4">
    <path d="M 860.80106 627.417748 
L 860.80106 17.577748 
" style="fill: none; stroke: #000000; stroke-width: 0.8; stroke-linejoin: miter; stroke-linecap: square"/>
   </g>
   <g id="patch_5">
    <path d="M 135.40106 627.417748 
L 860.80106 627.417748 
" style="fill: none; stroke: #000000; stroke-width: 0.8; stroke-linejoin: miter; stroke-linecap: square"/>
   </g>
   <g id="patch_6">
    <path d="M 135.40106 17.577748 
L 860.80106 17.577748 
" style="fill: none; stroke: #000000; stroke-width: 0.8; stroke-linejoin: miter; stroke-linecap: square"/>
   </g>
   <g id="legend_1">
    <g id="patch_7">
     <path d="M 159.90106 338.271855 
L 440.567374 338.271855 
Q 447.567374 338.271855 447.567374 331.271855 
L 447.567374 42.077748 
Q 447.567374 35.077748 440.567374 35.077748 
L 159.90106 35.077748 
Q 152.90106 35.077748 152.90106 42.077748 
L 152.90106 331.271855 
Q 152.90106 338.271855 159.90106 338.271855 
z
" style="fill: #ffffff; stroke: #cccccc; stroke-linejoin: miter"/>
    </g>
    <g id="patch_8">
     <path d="M 166.90106 73.577748 
L 236.90106 73.577748 
L 236.90106 49.077748 
L 166.90106 49.077748 
z
" style="fill: #99ccff; fill-opacity: 0.7"/>
    </g>
    <g id="text_18">
     <!-- $N: \mu \pm \sigma$ -->
     <g transform="translate(264.90106 73.577748) scale(0.35 -0.35)">
      <defs>
       <path id="CMMI12-4e" d="M 4736 3698 
C 4806 3974 4909 4166 5395 4166 
C 5414 4166 5491 4166 5491 4279 
C 5491 4352 5434 4352 5408 4352 
C 5280 4352 4954 4352 4826 4352 
L 4518 4352 
C 4429 4352 4314 4352 4224 4352 
C 4186 4352 4109 4352 4109 4230 
C 4109 4166 4160 4166 4205 4166 
C 4589 4166 4614 4019 4614 3903 
C 4614 3846 4608 3826 4589 3737 
L 3866 850 
L 2496 4249 
C 2451 4352 2445 4352 2304 4352 
L 1523 4352 
C 1395 4352 1338 4352 1338 4230 
C 1338 4166 1382 4166 1504 4166 
C 1536 4166 1914 4166 1914 4115 
C 1914 4102 1901 4051 1894 4032 
L 1043 635 
C 966 320 813 186 390 186 
C 358 186 294 186 294 67 
C 294 0 358 0 378 0 
C 506 0 832 0 960 0 
L 1267 0 
C 1357 0 1466 0 1555 0 
C 1600 0 1670 0 1670 122 
C 1670 180 1606 186 1581 186 
C 1370 186 1165 224 1165 454 
C 1165 505 1178 562 1190 613 
L 2054 4032 
C 2093 3968 2093 3956 2118 3898 
L 3642 115 
C 3674 38 3686 0 3744 0 
C 3808 0 3814 19 3840 128 
L 4736 3698 
z
" transform="scale(0.015625)"/>
       <path id="CMR17-3a" d="M 1062 2491 
C 1062 2650 934 2752 800 2752 
C 672 2752 538 2650 538 2491 
C 538 2332 666 2230 800 2230 
C 928 2230 1062 2332 1062 2491 
z
M 1062 261 
C 1062 420 934 522 800 522 
C 672 522 538 420 538 261 
C 538 102 666 0 800 0 
C 928 0 1062 102 1062 261 
z
" transform="scale(0.015625)"/>
       <path id="CMMI12-16" d="M 922 140 
C 1082 -6 1318 -64 1536 -64 
C 1946 -64 2227 208 2374 405 
C 2438 69 2707 -64 2931 -64 
C 3123 -64 3277 50 3392 277 
C 3494 493 3584 879 3584 903 
C 3584 935 3558 960 3520 960 
C 3462 960 3456 928 3430 834 
C 3334 461 3213 64 2950 64 
C 2765 64 2752 229 2752 358 
C 2752 504 2810 735 2854 926 
L 3034 1615 
C 3059 1737 3130 2023 3162 2139 
C 3200 2292 3270 2567 3270 2592 
C 3270 2688 3194 2752 3098 2752 
C 3040 2752 2906 2726 2854 2535 
L 2406 760 
C 2374 632 2374 619 2291 517 
C 2214 409 1965 64 1562 64 
C 1203 64 1088 326 1088 625 
C 1088 811 1146 1034 1171 1143 
L 1459 2293 
C 1491 2414 1542 2618 1542 2657 
C 1542 2759 1459 2816 1376 2816 
C 1318 2816 1178 2797 1126 2592 
L 198 -1107 
C 192 -1139 179 -1177 179 -1216 
C 179 -1312 256 -1376 352 -1376 
C 538 -1376 576 -1228 621 -1050 
L 922 140 
z
" transform="scale(0.015625)"/>
       <path id="CMSY10-6" d="M 2618 1984 
L 4397 1984 
C 4506 1984 4621 1984 4621 2112 
C 4621 2240 4506 2240 4397 2240 
L 2618 2240 
L 2618 4018 
C 2618 4121 2618 4256 2490 4256 
C 2362 4256 2362 4140 2362 4038 
L 2362 2240 
L 576 2240 
C 467 2240 352 2240 352 2112 
C 352 1984 467 1984 576 1984 
L 2362 1984 
L 2362 256 
L 576 256 
C 467 256 352 256 352 128 
C 352 0 467 0 576 0 
L 4397 0 
C 4506 0 4621 0 4621 128 
C 4621 256 4506 256 4397 256 
L 2618 256 
L 2618 1984 
z
" transform="scale(0.015625)"/>
       <path id="CMMI12-1b" d="M 3251 2408 
C 3334 2408 3546 2408 3546 2612 
C 3546 2752 3424 2752 3309 2752 
L 1894 2752 
C 934 2752 243 1686 243 932 
C 243 390 595 -64 1171 -64 
C 1926 -64 2752 747 2752 1705 
C 2752 1954 2694 2196 2541 2408 
L 3251 2408 
z
M 1178 64 
C 851 64 614 313 614 754 
C 614 1137 845 2408 1786 2408 
C 2061 2408 2368 2274 2368 1781 
C 2368 1558 2266 1021 2042 652 
C 1811 275 1466 64 1178 64 
z
" transform="scale(0.015625)"/>
      </defs>
      <use xlink:href="#CMMI12-4e" transform="scale(0.996264)"/>
      <use xlink:href="#CMR17-3a" transform="translate(116.195781 0) scale(0.996264)"/>
      <use xlink:href="#CMMI12-16" transform="translate(168.740849 0) scale(0.996264)"/>
      <use xlink:href="#CMSY10-6" transform="translate(249.571477 0) scale(0.996264)"/>
      <use xlink:href="#CMMI12-1b" transform="translate(349.198152 0) scale(0.996264)"/>
     </g>
    </g>
    <g id="line2d_34">
     <path d="M 166.90106 110.110099 
L 201.90106 110.110099 
L 236.90106 110.110099 
" style="fill: none; stroke: #0000ff; stroke-width: 3; stroke-linecap: square"/>
    </g>
    <g id="text_19">
     <!-- $N: \mu$ -->
     <g transform="translate(264.90106 122.360099) scale(0.35 -0.35)">
      <use xlink:href="#CMMI12-4e" transform="scale(0.996264)"/>
      <use xlink:href="#CMR17-3a" transform="translate(116.195781 0) scale(0.996264)"/>
      <use xlink:href="#CMMI12-16" transform="translate(168.740849 0) scale(0.996264)"/>
     </g>
    </g>
    <g id="patch_9">
     <path d="M 166.90106 171.14245 
L 236.90106 171.14245 
L 236.90106 146.64245 
L 166.90106 146.64245 
z
" style="fill: #008000; fill-opacity: 0.2"/>
    </g>
    <g id="text_20">
     <!-- $O: \mu \pm \sigma$ -->
     <g transform="translate(264.90106 171.14245) scale(0.35 -0.35)">
      <defs>
       <path id="CMMI12-4f" d="M 4646 2797 
C 4646 3848 3955 4492 3059 4492 
C 1690 4492 307 3026 307 1554 
C 307 554 973 -128 1901 -128 
C 3245 -128 4646 1268 4646 2797 
z
M 1939 19 
C 1414 19 858 401 858 1395 
C 858 1974 1069 2924 1594 3562 
C 2061 4123 2598 4352 3027 4352 
C 3590 4352 4134 3944 4134 3026 
C 4134 2459 3891 1573 3462 968 
C 2995 318 2413 19 1939 19 
z
" transform="scale(0.015625)"/>
      </defs>
      <use xlink:href="#CMMI12-4f" transform="scale(0.996264)"/>
      <use xlink:href="#CMR17-3a" transform="translate(104.934407 0) scale(0.996264)"/>
      <use xlink:href="#CMMI12-16" transform="translate(157.479475 0) scale(0.996264)"/>
      <use xlink:href="#CMSY10-6" transform="translate(238.310103 0) scale(0.996264)"/>
      <use xlink:href="#CMMI12-1b" transform="translate(337.936778 0) scale(0.996264)"/>
     </g>
    </g>
    <g id="line2d_35">
     <path d="M 166.90106 207.674801 
L 201.90106 207.674801 
L 236.90106 207.674801 
" style="fill: none; stroke: #008000; stroke-width: 3; stroke-linecap: square"/>
    </g>
    <g id="text_21">
     <!-- $O: \mu $ -->
     <g transform="translate(264.90106 219.924801) scale(0.35 -0.35)">
      <use xlink:href="#CMMI12-4f" transform="scale(0.996264)"/>
      <use xlink:href="#CMR17-3a" transform="translate(104.934407 0) scale(0.996264)"/>
      <use xlink:href="#CMMI12-16" transform="translate(157.479475 0) scale(0.996264)"/>
     </g>
    </g>
    <g id="patch_10">
     <path d="M 166.90106 268.707152 
L 236.90106 268.707152 
L 236.90106 244.207152 
L 166.90106 244.207152 
z
" style="fill: #ffa500; fill-opacity: 0.2"/>
    </g>
    <g id="text_22">
     <!-- $NO: \mu \pm \sigma$ -->
     <g transform="translate(264.90106 268.707152) scale(0.35 -0.35)">
      <use xlink:href="#CMMI12-4e" transform="scale(0.996264)"/>
      <use xlink:href="#CMMI12-4f" transform="translate(88.521773 0) scale(0.996264)"/>
      <use xlink:href="#CMR17-3a" transform="translate(193.45618 0) scale(0.996264)"/>
      <use xlink:href="#CMMI12-16" transform="translate(246.001247 0) scale(0.996264)"/>
      <use xlink:href="#CMSY10-6" transform="translate(326.831876 0) scale(0.996264)"/>
      <use xlink:href="#CMMI12-1b" transform="translate(426.45855 0) scale(0.996264)"/>
     </g>
    </g>
    <g id="line2d_36">
     <path d="M 166.90106 305.239504 
L 201.90106 305.239504 
L 236.90106 305.239504 
" style="fill: none; stroke: #ffa500; stroke-width: 3; stroke-linecap: square"/>
    </g>
    <g id="text_23">
     <!-- $NO: \mu$ -->
     <g transform="translate(264.90106 317.489504) scale(0.35 -0.35)">
      <use xlink:href="#CMMI12-4e" transform="scale(0.996264)"/>
      <use xlink:href="#CMMI12-4f" transform="translate(88.521773 0) scale(0.996264)"/>
      <use xlink:href="#CMR17-3a" transform="translate(193.45618 0) scale(0.996264)"/>
      <use xlink:href="#CMMI12-16" transform="translate(246.001247 0) scale(0.996264)"/>
     </g>
    </g>
   </g>
  </g>
 </g>
 <defs>
  <clipPath id="p82a222ac52">
   <rect x="135.40106" y="17.577748" width="725.4" height="609.84"/>
  </clipPath>
 </defs>
</svg>
