<?xml version="1.0" encoding="utf-8" standalone="no"?>
<!DOCTYPE svg PUBLIC "-//W3C//DTD SVG 1.1//EN"
  "http://www.w3.org/Graphics/SVG/1.1/DTD/svg11.dtd">
<svg xmlns:xlink="http://www.w3.org/1999/xlink" width="865.325987pt" height="703.183796pt" viewBox="0 0 865.325987 703.183796" xmlns="http://www.w3.org/2000/svg" version="1.1">
 <metadata>
  <rdf:RDF xmlns:dc="http://purl.org/dc/elements/1.1/" xmlns:cc="http://creativecommons.org/ns#" xmlns:rdf="http://www.w3.org/1999/02/22-rdf-syntax-ns#">
   <cc:Work>
    <dc:type rdf:resource="http://purl.org/dc/dcmitype/StillImage"/>
    <dc:date>2025-03-27T12:27:08.057369</dc:date>
    <dc:format>image/svg+xml</dc:format>
    <dc:creator>
     <cc:Agent>
      <dc:title>Matplotlib v3.7.1, https://matplotlib.org/</dc:title>
     </cc:Agent>
    </dc:creator>
   </cc:Work>
  </rdf:RDF>
 </metadata>
 <defs>
  <style type="text/css">*{stroke-linejoin: round; stroke-linecap: butt}</style>
 </defs>
 <g id="figure_1">
  <g id="patch_1">
   <path d="M 0 703.183796 
L 865.325987 703.183796 
L 865.325987 0 
L 0 0 
z
" style="fill: #ffffff"/>
  </g>
  <g id="axes_1">
   <g id="patch_2">
    <path d="M 114.954267 627.417748 
L 840.354267 627.417748 
L 840.354267 17.577748 
L 114.954267 17.577748 
z
" style="fill: #ffffff"/>
   </g>
   <g id="PolyCollection_1">
    <path d="M 127.907839 557.152163 
L 127.907839 556.000667 
L 145.51296 556.000641 
L 158.364813 556.00061 
L 167.746901 555.999981 
L 174.596207 555.997673 
L 179.596754 555.988334 
L 183.247916 555.966464 
L 185.914282 555.916705 
L 187.862052 555.827804 
L 189.285595 555.691905 
L 190.422229 555.493438 
L 191.548963 555.206704 
L 192.675696 520.504931 
L 193.830492 520.504931 
L 194.985287 520.504931 
L 196.140083 520.504931 
L 197.294879 520.504931 
L 198.449674 520.504931 
L 199.60447 520.504931 
L 200.759265 520.504931 
L 201.914061 520.504931 
L 203.068857 520.504931 
L 204.223652 520.504931 
L 205.378448 520.504931 
L 206.533244 519.885 
L 207.688039 519.727185 
L 208.842835 519.539635 
L 209.997631 519.319491 
L 211.152426 519.151936 
L 212.307222 519.033734 
L 213.462018 518.79472 
L 214.616813 518.748048 
L 215.771609 518.733368 
L 216.926404 518.739915 
L 218.0812 518.776281 
L 219.235996 518.825388 
L 220.390791 518.902767 
L 221.545587 518.930059 
L 222.700383 518.963885 
L 223.855178 519.015705 
L 225.009974 519.156098 
L 226.16477 519.234034 
L 227.319565 519.311336 
L 228.474361 519.354378 
L 229.629156 519.397489 
L 230.783952 519.466137 
L 231.938748 519.566853 
L 233.093545 519.656034 
L 234.277433 519.713848 
L 235.503621 519.761656 
L 236.773932 519.810878 
L 238.090799 519.855153 
L 239.456712 519.893972 
L 240.873102 519.928139 
L 242.341674 519.955182 
L 243.864418 519.976629 
L 245.443518 520.000938 
L 247.080354 520.025342 
L 248.776635 520.053571 
L 250.534749 520.078029 
L 252.357908 520.107623 
L 254.249735 520.130306 
L 256.209375 520.152421 
L 258.241233 520.165788 
L 260.349013 520.178333 
L 262.532838 520.182774 
L 264.798325 520.187721 
L 267.146731 520.182479 
L 269.580844 520.184637 
L 272.105556 520.174638 
L 274.723097 520.176519 
L 277.436733 520.173102 
L 280.250191 520.177828 
L 283.167273 520.177211 
L 286.191749 520.177149 
L 289.327446 520.169238 
L 292.578506 520.167409 
L 295.949776 520.164485 
L 299.445012 520.168194 
L 303.068786 520.171053 
L 306.826225 520.176027 
L 310.722202 520.181845 
L 314.76138 520.182168 
L 318.949313 520.182391 
L 323.291649 520.181372 
L 327.794052 520.18202 
L 332.462214 520.177309 
L 337.277685 520.172212 
L 342.232014 520.161641 
L 347.368723 520.149002 
L 352.69501 520.134799 
L 358.217498 520.120526 
L 363.943541 520.107505 
L 369.880688 520.098398 
L 376.036622 520.093541 
L 382.419494 520.093172 
L 389.037774 520.096778 
L 395.900024 520.103606 
L 403.015199 520.109994 
L 410.392682 520.118977 
L 417.675795 520.122161 
L 423.111397 520.125834 
L 426.982287 520.12325 
L 429.739367 520.121379 
L 431.703555 520.115695 
L 433.103229 520.11182 
L 434.203254 520.104107 
L 435.293895 520.088597 
L 436.384535 520.060975 
L 437.475175 520.001141 
L 438.565816 519.907285 
L 439.656456 519.779329 
L 440.747096 519.5985 
L 441.837736 519.400303 
L 442.928377 470.602329 
L 443.723715 -35.89577 
L 444.519054 9.923196 
L 445.314392 64.380583 
L 446.10973 70.056625 
L 446.905069 72.883818 
L 447.700407 79.099219 
L 448.495745 87.673173 
L 449.291084 89.611386 
L 450.086422 91.254969 
L 450.881761 93.603229 
L 451.677099 96.551039 
L 452.472437 96.758832 
L 453.267776 96.847419 
L 454.063114 96.808827 
L 454.858453 96.617498 
L 455.653791 96.473405 
L 456.449129 96.638838 
L 457.244468 96.802801 
L 458.039806 97.113773 
L 458.835144 97.450821 
L 459.630483 97.797978 
L 460.425821 98.13016 
L 461.22116 98.488779 
L 462.016498 98.698252 
L 462.811836 98.905527 
L 463.607175 99.115687 
L 464.402513 99.247893 
L 465.197851 99.365289 
L 465.99319 99.422836 
L 466.788528 99.534828 
L 467.583867 99.689506 
L 468.379205 99.908468 
L 469.174543 100.217627 
L 469.969882 100.424244 
L 470.76522 100.745814 
L 471.560558 101.284719 
L 472.355897 101.878655 
L 473.151235 102.815003 
L 473.946574 103.906292 
L 474.741912 104.589634 
L 475.53725 106.743829 
L 476.332589 109.594014 
L 477.127927 112.935227 
L 477.923266 117.582014 
L 478.726749 122.685019 
L 479.580107 129.375054 
L 480.508364 137.351732 
L 481.509236 147.338897 
L 482.596482 159.334866 
L 483.7766 173.917121 
L 485.05512 191.080702 
L 486.442833 211.425344 
L 487.952035 235.063587 
L 489.59267 262.223175 
L 491.376498 284.920278 
L 493.316667 306.331706 
L 495.427579 326.236965 
L 497.725208 339.705509 
L 500.226009 352.803901 
L 502.945258 363.592157 
L 505.904595 371.676905 
L 509.120387 374.254195 
L 512.614786 374.635493 
L 516.406047 374.411588 
L 520.512797 372.443753 
L 524.951852 369.638312 
L 529.73413 365.825599 
L 534.862155 360.686248 
L 540.319576 353.205126 
L 546.022358 345.61407 
L 551.748794 339.989863 
L 557.47523 335.151634 
L 563.201667 331.634725 
L 568.928103 329.078935 
L 574.654539 327.451423 
L 580.380976 326.613661 
L 586.107412 326.093683 
L 591.833848 325.922331 
L 597.560285 325.85835 
L 603.286721 325.832547 
L 609.013157 325.853922 
L 614.739594 325.844704 
L 620.46603 325.597028 
L 626.192466 460.378452 
L 634.288448 553.850923 
L 642.384431 556.922061 
L 650.480413 557.280023 
L 658.576395 557.432276 
L 666.672377 557.572962 
L 674.768359 557.687637 
L 682.864341 557.757986 
L 690.960323 557.791229 
L 699.056306 557.790248 
L 707.152288 557.771925 
L 715.24827 557.742117 
L 723.344252 557.713121 
L 731.440234 557.688495 
L 739.536216 557.66751 
L 747.632198 557.646057 
L 755.728181 557.622885 
L 763.824163 557.597739 
L 771.920145 557.573479 
L 780.016127 557.550197 
L 788.112109 557.534099 
L 796.208091 557.525794 
L 804.304073 557.528648 
L 812.400056 557.536907 
L 820.496038 557.539951 
L 820.496038 559.169157 
L 820.496038 559.169157 
L 812.400056 559.156081 
L 804.304073 559.127525 
L 796.208091 559.099276 
L 788.112109 559.080157 
L 780.016127 559.059213 
L 771.920145 559.041051 
L 763.824163 559.014989 
L 755.728181 558.990623 
L 747.632198 558.96189 
L 739.536216 558.934322 
L 731.440234 558.909614 
L 723.344252 558.88772 
L 715.24827 558.858953 
L 707.152288 558.81643 
L 699.056306 558.75264 
L 690.960323 558.671154 
L 682.864341 558.57594 
L 674.768359 558.490379 
L 666.672377 558.396031 
L 658.576395 558.287533 
L 650.480413 558.223187 
L 642.384431 558.61973 
L 634.288448 561.676586 
L 626.192466 504.960142 
L 620.46603 408.157752 
L 614.739594 408.379411 
L 609.013157 408.134515 
L 603.286721 407.678045 
L 597.560285 407.406405 
L 591.833848 407.207056 
L 586.107412 407.062584 
L 580.380976 406.856885 
L 574.654539 406.89129 
L 568.928103 407.609687 
L 563.201667 409.403369 
L 557.47523 412.069695 
L 551.748794 415.828688 
L 546.022358 420.495269 
L 540.319576 426.725607 
L 534.862155 432.705532 
L 529.73413 437.073847 
L 524.951852 440.627903 
L 520.512797 443.577847 
L 516.406047 445.535099 
L 512.614786 446.554857 
L 509.120387 447.302318 
L 505.904595 445.326756 
L 502.945258 441.70278 
L 500.226009 435.658832 
L 497.725208 427.811017 
L 495.427579 415.055458 
L 493.316667 401.961812 
L 491.376498 386.198112 
L 489.59267 370.022194 
L 487.952035 350.237396 
L 486.442833 333.301867 
L 485.05512 318.161828 
L 483.7766 307.553776 
L 482.596482 297.796871 
L 481.509236 290.741636 
L 480.508364 284.604466 
L 479.580107 279.612282 
L 478.726749 275.902067 
L 477.923266 272.62577 
L 477.127927 269.46225 
L 476.332589 267.387254 
L 475.53725 265.593816 
L 474.741912 264.23275 
L 473.946574 263.928372 
L 473.151235 263.248684 
L 472.355897 262.652604 
L 471.560558 262.255164 
L 470.76522 261.895815 
L 469.969882 261.689846 
L 469.174543 261.55129 
L 468.379205 261.2526 
L 467.583867 260.980725 
L 466.788528 260.704731 
L 465.99319 260.419172 
L 465.197851 260.215423 
L 464.402513 260.043629 
L 463.607175 259.92217 
L 462.811836 259.758383 
L 462.016498 259.621166 
L 461.22116 259.517036 
L 460.425821 259.297905 
L 459.630483 259.027311 
L 458.835144 258.674087 
L 458.039806 258.268213 
L 457.244468 257.787148 
L 456.449129 257.33165 
L 455.653791 256.724181 
L 454.858453 256.262044 
L 454.063114 255.674219 
L 453.267776 254.980569 
L 452.472437 254.183048 
L 451.677099 253.5474 
L 450.881761 251.15821 
L 450.086422 250.295045 
L 449.291084 251.93371 
L 448.495745 252.88298 
L 447.700407 249.184054 
L 446.905069 248.94475 
L 446.10973 253.04233 
L 445.314392 268.612807 
L 444.519054 206.783975 
L 443.723715 135.556182 
L 442.928377 515.649983 
L 441.837736 533.09428 
L 440.747096 533.233458 
L 439.656456 533.388927 
L 438.565816 533.496236 
L 437.475175 533.594492 
L 436.384535 533.659897 
L 435.293895 533.691046 
L 434.203254 533.706266 
L 433.103229 533.708063 
L 431.703555 533.700399 
L 429.739367 533.688336 
L 426.982287 533.672432 
L 423.111397 533.655261 
L 417.675795 533.639749 
L 410.392682 533.628864 
L 403.015199 533.618991 
L 395.900024 533.616399 
L 389.037774 533.612786 
L 382.419494 533.613256 
L 376.036622 533.610972 
L 369.880688 533.609596 
L 363.943541 533.604989 
L 358.217498 533.599526 
L 352.69501 533.59504 
L 347.368723 533.585803 
L 342.232014 533.57794 
L 337.277685 533.565628 
L 332.462214 533.553752 
L 327.794052 533.542023 
L 323.291649 533.528432 
L 318.949313 533.511774 
L 314.76138 533.495257 
L 310.722202 533.476094 
L 306.826225 533.455633 
L 303.068786 533.439648 
L 299.445012 533.428712 
L 295.949776 533.421847 
L 292.578506 533.42518 
L 289.327446 533.431398 
L 286.191749 533.449746 
L 283.167273 533.463856 
L 280.250191 533.481486 
L 277.436733 533.493801 
L 274.723097 533.509867 
L 272.105556 533.519169 
L 269.580844 533.535949 
L 267.146731 533.535392 
L 264.798325 533.533058 
L 262.532838 533.517488 
L 260.349013 533.500465 
L 258.241233 533.483557 
L 256.209375 533.477084 
L 254.249735 533.47321 
L 252.357908 533.486894 
L 250.534749 533.492595 
L 248.776635 533.507446 
L 247.080354 533.514734 
L 245.443518 533.528709 
L 243.864418 533.537761 
L 242.341674 533.553395 
L 240.873102 533.56948 
L 239.456712 533.584028 
L 238.090799 533.592608 
L 236.773932 533.604029 
L 235.503621 533.610609 
L 234.277433 533.618815 
L 233.093545 533.640424 
L 231.938748 533.704463 
L 230.783952 533.772804 
L 229.629156 533.798592 
L 228.474361 533.791198 
L 227.319565 533.793052 
L 226.16477 533.82116 
L 225.009974 533.865696 
L 223.855178 533.963875 
L 222.700383 533.974214 
L 221.545587 533.961389 
L 220.390791 533.977984 
L 219.235996 534.073596 
L 218.0812 534.18977 
L 216.926404 534.227047 
L 215.771609 534.274421 
L 214.616813 534.302148 
L 213.462018 534.29005 
L 212.307222 534.095359 
L 211.152426 534.080633 
L 209.997631 534.107368 
L 208.842835 534.133763 
L 207.688039 534.266364 
L 206.533244 534.40391 
L 205.378448 534.203621 
L 204.223652 534.203621 
L 203.068857 534.203621 
L 201.914061 534.203621 
L 200.759265 534.203621 
L 199.60447 534.203621 
L 198.449674 534.203621 
L 197.294879 534.203621 
L 196.140083 534.203621 
L 194.985287 534.203621 
L 193.830492 534.203621 
L 192.675696 534.203621 
L 191.548963 556.444229 
L 190.422229 556.663456 
L 189.285595 556.838218 
L 187.862052 556.962506 
L 185.914282 557.05108 
L 183.247916 557.107771 
L 179.596754 557.133099 
L 174.596207 557.146954 
L 167.746901 557.15047 
L 158.364813 557.151998 
L 145.51296 557.152131 
L 127.907839 557.152163 
z
" clip-path="url(#p9d9d80f4c4)" style="fill: #99ccff; fill-opacity: 0.7"/>
   </g>
   <g id="matplotlib.axis_1">
    <g id="xtick_1">
     <g id="line2d_1">
      <path d="M 192.675696 627.417748 
L 192.675696 17.577748 
" clip-path="url(#p9d9d80f4c4)" style="fill: none; stroke: #b0b0b0; stroke-width: 0.8; stroke-linecap: square"/>
     </g>
     <g id="line2d_2">
      <defs>
       <path id="m18853cbd6f" d="M 0 0 
L 0 3.5 
" style="stroke: #000000; stroke-width: 0.8"/>
      </defs>
      <g>
       <use xlink:href="#m18853cbd6f" x="192.675696" y="627.417748" style="stroke: #000000; stroke-width: 0.8"/>
      </g>
     </g>
     <g id="text_1">
      <!-- $\mathdefault{0.0}$ -->
      <g transform="translate(174.903976 655.173243) scale(0.3 -0.3)">
       <defs>
        <path id="CMR17-30" d="M 2688 2025 
C 2688 2416 2682 3080 2413 3591 
C 2176 4039 1798 4198 1466 4198 
C 1158 4198 768 4058 525 3597 
C 269 3118 243 2524 243 2025 
C 243 1661 250 1106 448 619 
C 723 -39 1216 -128 1466 -128 
C 1760 -128 2208 -7 2470 600 
C 2662 1042 2688 1559 2688 2025 
z
M 1466 -26 
C 1056 -26 813 325 723 812 
C 653 1188 653 1738 653 2096 
C 653 2588 653 2997 736 3387 
C 858 3929 1216 4096 1466 4096 
C 1728 4096 2067 3923 2189 3400 
C 2272 3036 2278 2607 2278 2096 
C 2278 1680 2278 1169 2202 792 
C 2067 95 1690 -26 1466 -26 
z
" transform="scale(0.015625)"/>
        <path id="CMMI12-3a" d="M 1178 307 
C 1178 492 1024 619 870 619 
C 685 619 557 466 557 313 
C 557 128 710 0 864 0 
C 1050 0 1178 153 1178 307 
z
" transform="scale(0.015625)"/>
       </defs>
       <use xlink:href="#CMR17-30" transform="scale(0.996264)"/>
       <use xlink:href="#CMMI12-3a" transform="translate(45.690477 0) scale(0.996264)"/>
       <use xlink:href="#CMR17-30" transform="translate(72.787654 0) scale(0.996264)"/>
      </g>
     </g>
    </g>
    <g id="xtick_2">
     <g id="line2d_3">
      <path d="M 322.21141 627.417748 
L 322.21141 17.577748 
" clip-path="url(#p9d9d80f4c4)" style="fill: none; stroke: #b0b0b0; stroke-width: 0.8; stroke-linecap: square"/>
     </g>
     <g id="line2d_4">
      <g>
       <use xlink:href="#m18853cbd6f" x="322.21141" y="627.417748" style="stroke: #000000; stroke-width: 0.8"/>
      </g>
     </g>
     <g id="text_2">
      <!-- $\mathdefault{0.1}$ -->
      <g transform="translate(304.439691 655.173243) scale(0.3 -0.3)">
       <defs>
        <path id="CMR17-31" d="M 1702 4058 
C 1702 4192 1696 4192 1606 4192 
C 1357 3916 979 3827 621 3827 
C 602 3827 570 3827 563 3808 
C 557 3795 557 3782 557 3648 
C 755 3648 1088 3686 1344 3839 
L 1344 461 
C 1344 236 1331 160 781 160 
L 589 160 
L 589 0 
C 896 0 1216 0 1523 0 
C 1830 0 2150 0 2458 0 
L 2458 160 
L 2266 160 
C 1715 160 1702 230 1702 458 
L 1702 4058 
z
" transform="scale(0.015625)"/>
       </defs>
       <use xlink:href="#CMR17-30" transform="scale(0.996264)"/>
       <use xlink:href="#CMMI12-3a" transform="translate(45.690477 0) scale(0.996264)"/>
       <use xlink:href="#CMR17-31" transform="translate(72.787654 0) scale(0.996264)"/>
      </g>
     </g>
    </g>
    <g id="xtick_3">
     <g id="line2d_5">
      <path d="M 451.747125 627.417748 
L 451.747125 17.577748 
" clip-path="url(#p9d9d80f4c4)" style="fill: none; stroke: #b0b0b0; stroke-width: 0.8; stroke-linecap: square"/>
     </g>
     <g id="line2d_6">
      <g>
       <use xlink:href="#m18853cbd6f" x="451.747125" y="627.417748" style="stroke: #000000; stroke-width: 0.8"/>
      </g>
     </g>
     <g id="text_3">
      <!-- $\mathdefault{0.2}$ -->
      <g transform="translate(433.975405 655.173243) scale(0.3 -0.3)">
       <defs>
        <path id="CMR17-32" d="M 2669 989 
L 2554 989 
C 2490 536 2438 459 2413 420 
C 2381 369 1920 369 1830 369 
L 602 369 
C 832 619 1280 1072 1824 1597 
C 2214 1967 2669 2402 2669 3035 
C 2669 3790 2067 4224 1395 4224 
C 691 4224 262 3604 262 3030 
C 262 2780 448 2748 525 2748 
C 589 2748 781 2787 781 3010 
C 781 3207 614 3264 525 3264 
C 486 3264 448 3258 422 3245 
C 544 3790 915 4058 1306 4058 
C 1862 4058 2227 3617 2227 3035 
C 2227 2479 1901 2000 1536 1584 
L 262 146 
L 262 0 
L 2515 0 
L 2669 989 
z
" transform="scale(0.015625)"/>
       </defs>
       <use xlink:href="#CMR17-30" transform="scale(0.996264)"/>
       <use xlink:href="#CMMI12-3a" transform="translate(45.690477 0) scale(0.996264)"/>
       <use xlink:href="#CMR17-32" transform="translate(72.787654 0) scale(0.996264)"/>
      </g>
     </g>
    </g>
    <g id="xtick_4">
     <g id="line2d_7">
      <path d="M 581.282839 627.417748 
L 581.282839 17.577748 
" clip-path="url(#p9d9d80f4c4)" style="fill: none; stroke: #b0b0b0; stroke-width: 0.8; stroke-linecap: square"/>
     </g>
     <g id="line2d_8">
      <g>
       <use xlink:href="#m18853cbd6f" x="581.282839" y="627.417748" style="stroke: #000000; stroke-width: 0.8"/>
      </g>
     </g>
     <g id="text_4">
      <!-- $\mathdefault{0.3}$ -->
      <g transform="translate(563.511119 655.173243) scale(0.3 -0.3)">
       <defs>
        <path id="CMR17-33" d="M 1414 2157 
C 1984 2157 2234 1662 2234 1090 
C 2234 320 1824 25 1453 25 
C 1114 25 563 194 390 693 
C 422 680 454 680 486 680 
C 640 680 755 782 755 948 
C 755 1133 614 1216 486 1216 
C 378 1216 211 1165 211 926 
C 211 335 787 -128 1466 -128 
C 2176 -128 2720 430 2720 1085 
C 2720 1707 2208 2157 1600 2227 
C 2086 2328 2554 2756 2554 3329 
C 2554 3820 2048 4179 1472 4179 
C 890 4179 378 3829 378 3329 
C 378 3110 544 3072 627 3072 
C 762 3072 877 3155 877 3321 
C 877 3486 762 3569 627 3569 
C 602 3569 570 3569 544 3557 
C 730 3959 1235 4032 1459 4032 
C 1683 4032 2106 3925 2106 3320 
C 2106 3143 2080 2828 1862 2550 
C 1670 2304 1453 2304 1242 2284 
C 1210 2284 1062 2269 1037 2269 
C 992 2263 966 2257 966 2208 
C 966 2163 973 2157 1101 2157 
L 1414 2157 
z
" transform="scale(0.015625)"/>
       </defs>
       <use xlink:href="#CMR17-30" transform="scale(0.996264)"/>
       <use xlink:href="#CMMI12-3a" transform="translate(45.690477 0) scale(0.996264)"/>
       <use xlink:href="#CMR17-33" transform="translate(72.787654 0) scale(0.996264)"/>
      </g>
     </g>
    </g>
    <g id="xtick_5">
     <g id="line2d_9">
      <path d="M 710.818553 627.417748 
L 710.818553 17.577748 
" clip-path="url(#p9d9d80f4c4)" style="fill: none; stroke: #b0b0b0; stroke-width: 0.8; stroke-linecap: square"/>
     </g>
     <g id="line2d_10">
      <g>
       <use xlink:href="#m18853cbd6f" x="710.818553" y="627.417748" style="stroke: #000000; stroke-width: 0.8"/>
      </g>
     </g>
     <g id="text_5">
      <!-- $\mathdefault{0.4}$ -->
      <g transform="translate(693.046833 655.173243) scale(0.3 -0.3)">
       <defs>
        <path id="CMR17-34" d="M 2150 4122 
C 2150 4256 2144 4256 2029 4256 
L 128 1254 
L 128 1088 
L 1779 1088 
L 1779 457 
C 1779 224 1766 160 1318 160 
L 1197 160 
L 1197 0 
C 1402 0 1747 0 1965 0 
C 2182 0 2528 0 2733 0 
L 2733 160 
L 2611 160 
C 2163 160 2150 224 2150 457 
L 2150 1088 
L 2803 1088 
L 2803 1254 
L 2150 1254 
L 2150 4122 
z
M 1798 3703 
L 1798 1254 
L 256 1254 
L 1798 3703 
z
" transform="scale(0.015625)"/>
       </defs>
       <use xlink:href="#CMR17-30" transform="scale(0.996264)"/>
       <use xlink:href="#CMMI12-3a" transform="translate(45.690477 0) scale(0.996264)"/>
       <use xlink:href="#CMR17-34" transform="translate(72.787654 0) scale(0.996264)"/>
      </g>
     </g>
    </g>
    <g id="xtick_6">
     <g id="line2d_11">
      <path d="M 840.354267 627.417748 
L 840.354267 17.577748 
" clip-path="url(#p9d9d80f4c4)" style="fill: none; stroke: #b0b0b0; stroke-width: 0.8; stroke-linecap: square"/>
     </g>
     <g id="line2d_12">
      <g>
       <use xlink:href="#m18853cbd6f" x="840.354267" y="627.417748" style="stroke: #000000; stroke-width: 0.8"/>
      </g>
     </g>
     <g id="text_6">
      <!-- $\mathdefault{0.5}$ -->
      <g transform="translate(822.582548 655.173243) scale(0.3 -0.3)">
       <defs>
        <path id="CMR17-35" d="M 730 3692 
C 794 3666 1056 3584 1325 3584 
C 1920 3584 2246 3911 2432 4100 
C 2432 4157 2432 4192 2394 4192 
C 2387 4192 2374 4192 2323 4163 
C 2099 4058 1837 3973 1517 3973 
C 1325 3973 1037 3999 723 4139 
C 653 4171 640 4171 634 4171 
C 602 4171 595 4164 595 4037 
L 595 2203 
C 595 2089 595 2057 659 2057 
C 691 2057 704 2070 736 2114 
C 941 2401 1222 2522 1542 2522 
C 1766 2522 2246 2382 2246 1289 
C 2246 1085 2246 715 2054 421 
C 1894 159 1645 25 1370 25 
C 947 25 518 320 403 814 
C 429 807 480 795 506 795 
C 589 795 749 840 749 1038 
C 749 1210 627 1280 506 1280 
C 358 1280 262 1190 262 1011 
C 262 454 704 -128 1382 -128 
C 2042 -128 2669 440 2669 1264 
C 2669 2030 2170 2624 1549 2624 
C 1222 2624 947 2503 730 2274 
L 730 3692 
z
" transform="scale(0.015625)"/>
       </defs>
       <use xlink:href="#CMR17-30" transform="scale(0.996264)"/>
       <use xlink:href="#CMMI12-3a" transform="translate(45.690477 0) scale(0.996264)"/>
       <use xlink:href="#CMR17-35" transform="translate(72.787654 0) scale(0.996264)"/>
      </g>
     </g>
    </g>
    <g id="text_7">
     <!-- $x, \; \mathrm{m} $ -->
     <g transform="translate(442.001664 689.201445) scale(0.35 -0.35)">
      <defs>
       <path id="CMMI12-78" d="M 3034 2606 
C 2829 2567 2752 2414 2752 2293 
C 2752 2139 2874 2088 2963 2088 
C 3155 2088 3290 2254 3290 2427 
C 3290 2695 2982 2816 2714 2816 
C 2323 2816 2106 2433 2048 2312 
C 1901 2816 1504 2816 1389 2816 
C 736 2816 390 1980 390 1839 
C 390 1814 416 1782 461 1782 
C 512 1782 525 1820 538 1846 
C 755 2555 1184 2689 1370 2689 
C 1658 2689 1715 2420 1715 2267 
C 1715 2127 1677 1980 1600 1673 
L 1382 798 
C 1286 415 1101 64 762 64 
C 730 64 570 64 435 147 
C 666 192 717 383 717 460 
C 717 588 621 664 499 664 
C 346 664 179 530 179 326 
C 179 57 480 -64 755 -64 
C 1062 -64 1280 179 1414 441 
C 1517 64 1837 -64 2074 -64 
C 2726 -64 3072 773 3072 913 
C 3072 945 3046 971 3008 971 
C 2950 971 2944 939 2925 888 
C 2752 326 2381 64 2093 64 
C 1869 64 1747 230 1747 492 
C 1747 632 1773 734 1875 1156 
L 2099 2024 
C 2195 2408 2413 2689 2707 2689 
C 2720 2689 2899 2689 3034 2606 
z
" transform="scale(0.015625)"/>
       <path id="CMMI12-3b" d="M 1248 -31 
C 1248 343 1126 619 864 619 
C 659 619 557 453 557 313 
C 557 172 653 0 870 0 
C 954 0 1024 26 1082 83 
C 1094 96 1101 96 1107 96 
C 1120 96 1120 5 1120 -27 
C 1120 -240 1082 -659 710 -1080 
C 640 -1157 640 -1170 640 -1183 
C 640 -1216 672 -1248 704 -1248 
C 755 -1248 1248 -771 1248 -31 
z
" transform="scale(0.015625)"/>
       <path id="CMR17-6d" d="M 4326 1933 
C 4326 2252 4269 2790 3507 2790 
C 3072 2790 2771 2496 2656 2151 
L 2650 2151 
C 2573 2676 2195 2790 1837 2790 
C 1331 2790 1069 2400 973 2144 
L 966 2144 
L 966 2790 
L 211 2720 
L 211 2554 
C 589 2554 646 2515 646 2208 
L 646 428 
C 646 184 621 153 211 153 
L 211 -13 
C 365 0 646 0 813 0 
C 979 0 1267 0 1421 -13 
L 1421 153 
C 1011 153 986 178 986 428 
L 986 1658 
C 986 2247 1344 2688 1792 2688 
C 2266 2688 2317 2266 2317 1958 
L 2317 428 
C 2317 184 2291 153 1882 153 
L 1882 -13 
C 2035 0 2317 0 2483 0 
C 2650 0 2938 0 3091 -13 
L 3091 153 
C 2682 153 2656 178 2656 428 
L 2656 1658 
C 2656 2247 3014 2688 3462 2688 
C 3936 2688 3987 2266 3987 1958 
L 3987 428 
C 3987 184 3962 153 3552 153 
L 3552 -13 
C 3706 0 3987 0 4154 0 
C 4320 0 4608 0 4762 -13 
L 4762 153 
C 4352 153 4326 178 4326 428 
L 4326 1933 
z
" transform="scale(0.015625)"/>
      </defs>
      <use xlink:href="#CMMI12-78" transform="scale(0.996264)"/>
      <use xlink:href="#CMMI12-3b" transform="translate(55.43406 0) scale(0.996264)"/>
      <use xlink:href="#CMR17-6d" transform="translate(126.809651 0) scale(0.996264)"/>
     </g>
    </g>
   </g>
   <g id="matplotlib.axis_2">
    <g id="ytick_1">
     <g id="line2d_13">
      <path d="M 114.954267 627.417748 
L 840.354267 627.417748 
" clip-path="url(#p9d9d80f4c4)" style="fill: none; stroke: #b0b0b0; stroke-width: 0.8; stroke-linecap: square"/>
     </g>
     <g id="line2d_14">
      <defs>
       <path id="m78fe0c3839" d="M 0 0 
L -3.5 0 
" style="stroke: #000000; stroke-width: 0.8"/>
      </defs>
      <g>
       <use xlink:href="#m78fe0c3839" x="114.954267" y="627.417748" style="stroke: #000000; stroke-width: 0.8"/>
      </g>
     </g>
     <g id="text_8">
      <!-- $\mathdefault{−25}$ -->
      <g transform="translate(57.29375 637.795495) scale(0.3 -0.3)">
       <defs>
        <path id="CMSY10-0" d="M 4218 1472 
C 4326 1472 4442 1472 4442 1600 
C 4442 1728 4326 1728 4218 1728 
L 755 1728 
C 646 1728 531 1728 531 1600 
C 531 1472 646 1472 755 1472 
L 4218 1472 
z
" transform="scale(0.015625)"/>
       </defs>
       <use xlink:href="#CMSY10-0" transform="scale(0.996264)"/>
       <use xlink:href="#CMR17-32" transform="translate(77.487468 0) scale(0.996264)"/>
       <use xlink:href="#CMR17-35" transform="translate(123.177945 0) scale(0.996264)"/>
      </g>
     </g>
    </g>
    <g id="ytick_2">
     <g id="line2d_15">
      <path d="M 114.954267 559.657748 
L 840.354267 559.657748 
" clip-path="url(#p9d9d80f4c4)" style="fill: none; stroke: #b0b0b0; stroke-width: 0.8; stroke-linecap: square"/>
     </g>
     <g id="line2d_16">
      <g>
       <use xlink:href="#m78fe0c3839" x="114.954267" y="559.657748" style="stroke: #000000; stroke-width: 0.8"/>
      </g>
     </g>
     <g id="text_9">
      <!-- $\mathdefault{0}$ -->
      <g transform="translate(94.247124 570.035495) scale(0.3 -0.3)">
       <use xlink:href="#CMR17-30" transform="scale(0.996264)"/>
      </g>
     </g>
    </g>
    <g id="ytick_3">
     <g id="line2d_17">
      <path d="M 114.954267 491.897748 
L 840.354267 491.897748 
" clip-path="url(#p9d9d80f4c4)" style="fill: none; stroke: #b0b0b0; stroke-width: 0.8; stroke-linecap: square"/>
     </g>
     <g id="line2d_18">
      <g>
       <use xlink:href="#m78fe0c3839" x="114.954267" y="491.897748" style="stroke: #000000; stroke-width: 0.8"/>
      </g>
     </g>
     <g id="text_10">
      <!-- $\mathdefault{25}$ -->
      <g transform="translate(80.539981 502.275495) scale(0.3 -0.3)">
       <use xlink:href="#CMR17-32" transform="scale(0.996264)"/>
       <use xlink:href="#CMR17-35" transform="translate(45.690477 0) scale(0.996264)"/>
      </g>
     </g>
    </g>
    <g id="ytick_4">
     <g id="line2d_19">
      <path d="M 114.954267 424.137748 
L 840.354267 424.137748 
" clip-path="url(#p9d9d80f4c4)" style="fill: none; stroke: #b0b0b0; stroke-width: 0.8; stroke-linecap: square"/>
     </g>
     <g id="line2d_20">
      <g>
       <use xlink:href="#m78fe0c3839" x="114.954267" y="424.137748" style="stroke: #000000; stroke-width: 0.8"/>
      </g>
     </g>
     <g id="text_11">
      <!-- $\mathdefault{50}$ -->
      <g transform="translate(80.539981 434.515495) scale(0.3 -0.3)">
       <use xlink:href="#CMR17-35" transform="scale(0.996264)"/>
       <use xlink:href="#CMR17-30" transform="translate(45.690477 0) scale(0.996264)"/>
      </g>
     </g>
    </g>
    <g id="ytick_5">
     <g id="line2d_21">
      <path d="M 114.954267 356.377748 
L 840.354267 356.377748 
" clip-path="url(#p9d9d80f4c4)" style="fill: none; stroke: #b0b0b0; stroke-width: 0.8; stroke-linecap: square"/>
     </g>
     <g id="line2d_22">
      <g>
       <use xlink:href="#m78fe0c3839" x="114.954267" y="356.377748" style="stroke: #000000; stroke-width: 0.8"/>
      </g>
     </g>
     <g id="text_12">
      <!-- $\mathdefault{75}$ -->
      <g transform="translate(80.539981 366.755495) scale(0.3 -0.3)">
       <defs>
        <path id="CMR17-37" d="M 2886 3941 
L 2886 4081 
L 1382 4081 
C 634 4081 621 4165 595 4288 
L 480 4288 
L 294 3094 
L 410 3094 
C 429 3215 474 3540 550 3661 
C 589 3712 1062 3712 1171 3712 
L 2579 3712 
L 1869 2661 
C 1395 1954 1069 999 1069 165 
C 1069 89 1069 -128 1299 -128 
C 1530 -128 1530 89 1530 171 
L 1530 465 
C 1530 1508 1709 2196 2003 2636 
L 2886 3941 
z
" transform="scale(0.015625)"/>
       </defs>
       <use xlink:href="#CMR17-37" transform="scale(0.996264)"/>
       <use xlink:href="#CMR17-35" transform="translate(45.690477 0) scale(0.996264)"/>
      </g>
     </g>
    </g>
    <g id="ytick_6">
     <g id="line2d_23">
      <path d="M 114.954267 288.617748 
L 840.354267 288.617748 
" clip-path="url(#p9d9d80f4c4)" style="fill: none; stroke: #b0b0b0; stroke-width: 0.8; stroke-linecap: square"/>
     </g>
     <g id="line2d_24">
      <g>
       <use xlink:href="#m78fe0c3839" x="114.954267" y="288.617748" style="stroke: #000000; stroke-width: 0.8"/>
      </g>
     </g>
     <g id="text_13">
      <!-- $\mathdefault{100}$ -->
      <g transform="translate(66.832838 298.995495) scale(0.3 -0.3)">
       <use xlink:href="#CMR17-31" transform="scale(0.996264)"/>
       <use xlink:href="#CMR17-30" transform="translate(45.690477 0) scale(0.996264)"/>
       <use xlink:href="#CMR17-30" transform="translate(91.380954 0) scale(0.996264)"/>
      </g>
     </g>
    </g>
    <g id="ytick_7">
     <g id="line2d_25">
      <path d="M 114.954267 220.857748 
L 840.354267 220.857748 
" clip-path="url(#p9d9d80f4c4)" style="fill: none; stroke: #b0b0b0; stroke-width: 0.8; stroke-linecap: square"/>
     </g>
     <g id="line2d_26">
      <g>
       <use xlink:href="#m78fe0c3839" x="114.954267" y="220.857748" style="stroke: #000000; stroke-width: 0.8"/>
      </g>
     </g>
     <g id="text_14">
      <!-- $\mathdefault{125}$ -->
      <g transform="translate(66.832838 231.235495) scale(0.3 -0.3)">
       <use xlink:href="#CMR17-31" transform="scale(0.996264)"/>
       <use xlink:href="#CMR17-32" transform="translate(45.690477 0) scale(0.996264)"/>
       <use xlink:href="#CMR17-35" transform="translate(91.380954 0) scale(0.996264)"/>
      </g>
     </g>
    </g>
    <g id="ytick_8">
     <g id="line2d_27">
      <path d="M 114.954267 153.097748 
L 840.354267 153.097748 
" clip-path="url(#p9d9d80f4c4)" style="fill: none; stroke: #b0b0b0; stroke-width: 0.8; stroke-linecap: square"/>
     </g>
     <g id="line2d_28">
      <g>
       <use xlink:href="#m78fe0c3839" x="114.954267" y="153.097748" style="stroke: #000000; stroke-width: 0.8"/>
      </g>
     </g>
     <g id="text_15">
      <!-- $\mathdefault{150}$ -->
      <g transform="translate(66.832838 163.475495) scale(0.3 -0.3)">
       <use xlink:href="#CMR17-31" transform="scale(0.996264)"/>
       <use xlink:href="#CMR17-35" transform="translate(45.690477 0) scale(0.996264)"/>
       <use xlink:href="#CMR17-30" transform="translate(91.380954 0) scale(0.996264)"/>
      </g>
     </g>
    </g>
    <g id="ytick_9">
     <g id="line2d_29">
      <path d="M 114.954267 85.337748 
L 840.354267 85.337748 
" clip-path="url(#p9d9d80f4c4)" style="fill: none; stroke: #b0b0b0; stroke-width: 0.8; stroke-linecap: square"/>
     </g>
     <g id="line2d_30">
      <g>
       <use xlink:href="#m78fe0c3839" x="114.954267" y="85.337748" style="stroke: #000000; stroke-width: 0.8"/>
      </g>
     </g>
     <g id="text_16">
      <!-- $\mathdefault{175}$ -->
      <g transform="translate(66.832838 95.715495) scale(0.3 -0.3)">
       <use xlink:href="#CMR17-31" transform="scale(0.996264)"/>
       <use xlink:href="#CMR17-37" transform="translate(45.690477 0) scale(0.996264)"/>
       <use xlink:href="#CMR17-35" transform="translate(91.380954 0) scale(0.996264)"/>
      </g>
     </g>
    </g>
    <g id="ytick_10">
     <g id="line2d_31">
      <path d="M 114.954267 17.577748 
L 840.354267 17.577748 
" clip-path="url(#p9d9d80f4c4)" style="fill: none; stroke: #b0b0b0; stroke-width: 0.8; stroke-linecap: square"/>
     </g>
     <g id="line2d_32">
      <g>
       <use xlink:href="#m78fe0c3839" x="114.954267" y="17.577748" style="stroke: #000000; stroke-width: 0.8"/>
      </g>
     </g>
     <g id="text_17">
      <!-- $\mathdefault{200}$ -->
      <g transform="translate(66.832838 27.955495) scale(0.3 -0.3)">
       <use xlink:href="#CMR17-32" transform="scale(0.996264)"/>
       <use xlink:href="#CMR17-30" transform="translate(45.690477 0) scale(0.996264)"/>
       <use xlink:href="#CMR17-30" transform="translate(91.380954 0) scale(0.996264)"/>
      </g>
     </g>
    </g>
    <g id="text_18">
     <!-- $\frac{P}{P_\infty}$ -->
     <g transform="translate(37.608171 339.16657) rotate(-90) scale(0.35 -0.35)">
      <defs>
       <path id="CMMI12-50" d="M 1894 2023 
L 2970 2023 
C 3853 2023 4736 2673 4736 3401 
C 4736 3898 4314 4352 3507 4352 
L 1530 4352 
C 1408 4352 1350 4352 1350 4231 
C 1350 4167 1408 4167 1504 4167 
C 1894 4167 1894 4116 1894 4046 
C 1894 4034 1894 3995 1869 3899 
L 1005 472 
C 947 249 934 185 486 185 
C 365 185 301 185 301 70 
C 301 0 358 0 397 0 
C 518 0 646 0 768 0 
L 1517 0 
C 1638 0 1773 0 1894 0 
C 1946 0 2016 0 2016 121 
C 2016 185 1958 185 1862 185 
C 1478 185 1472 230 1472 293 
C 1472 325 1478 369 1485 401 
L 1894 2023 
z
M 2355 3930 
C 2413 4167 2438 4167 2688 4167 
L 3322 4167 
C 3802 4167 4198 4013 4198 3535 
C 4198 3369 4115 2827 3821 2534 
C 3712 2419 3405 2176 2822 2176 
L 1920 2176 
L 2355 3930 
z
" transform="scale(0.015625)"/>
       <path id="CMSY10-31" d="M 3251 1730 
C 2906 2166 2829 2262 2630 2422 
C 2272 2710 1914 2825 1587 2825 
C 838 2825 352 2122 352 1374 
C 352 639 826 -70 1562 -70 
C 2298 -70 2829 511 3142 1022 
C 3488 588 3565 492 3763 332 
C 4122 45 4480 -70 4806 -70 
C 5555 -70 6042 633 6042 1380 
C 6042 2115 5568 2825 4832 2825 
C 4096 2825 3565 2242 3251 1730 
z
M 3418 1514 
C 3680 1975 4154 2620 4877 2620 
C 5555 2620 5901 1955 5901 1380 
C 5901 753 5472 236 4909 236 
C 4538 236 4250 505 4115 638 
C 3955 811 3808 1009 3418 1514 
z
M 2976 1240 
C 2714 780 2240 134 1517 134 
C 838 134 493 799 493 1374 
C 493 2000 922 2518 1485 2518 
C 1856 2518 2144 2249 2278 2115 
C 2438 1943 2586 1744 2976 1240 
z
" transform="scale(0.015625)"/>
      </defs>
      <use xlink:href="#CMMI12-50" transform="translate(20.413759 39.226102) scale(0.697382)"/>
      <use xlink:href="#CMMI12-50" transform="translate(0 -34.355253) scale(0.697382)"/>
      <use xlink:href="#CMSY10-31" transform="translate(44.013857 -44.815949) scale(0.498132)"/>
      <path d="M 0 22.914133 
L 94.325327 22.914133 
L 94.325327 26.899083 
L 0 26.899083 
L 0 22.914133 
z
"/>
     </g>
    </g>
   </g>
   <g id="line2d_33">
    <path d="M 127.907839 556.576415 
L 185.914282 556.483893 
L 189.285595 556.265061 
L 191.548963 555.825466 
L 192.675696 527.354276 
L 205.378448 527.354276 
L 208.842835 526.836699 
L 212.307222 526.564546 
L 222.700383 526.46905 
L 243.864418 526.757195 
L 280.250191 526.829657 
L 310.722202 526.828969 
L 363.943541 526.856247 
L 437.475175 526.797816 
L 440.747096 526.415979 
L 441.837736 526.247291 
L 442.928377 493.126156 
L 443.723715 49.830206 
L 445.314392 166.496695 
L 446.10973 161.549478 
L 446.905069 160.914284 
L 447.700407 164.141637 
L 448.495745 170.278076 
L 449.291084 170.772548 
L 450.086422 170.775007 
L 450.881761 172.38072 
L 451.677099 175.04922 
L 454.063114 176.241523 
L 455.653791 176.598793 
L 459.630483 178.412644 
L 461.22116 179.002908 
L 467.583867 180.335116 
L 470.76522 181.320814 
L 472.355897 182.26563 
L 474.741912 184.411192 
L 475.53725 186.168822 
L 476.332589 188.490634 
L 477.127927 191.198739 
L 478.726749 199.293543 
L 479.580107 204.493668 
L 480.508364 210.978099 
L 482.596482 228.565869 
L 485.05512 254.621265 
L 487.952035 292.650492 
L 489.59267 316.122685 
L 491.376498 335.559195 
L 493.316667 354.146759 
L 495.427579 370.646211 
L 497.725208 383.758263 
L 500.226009 394.231366 
L 502.945258 402.647468 
L 505.904595 408.501831 
L 509.120387 410.778257 
L 512.614786 410.595175 
L 516.406047 409.973343 
L 520.512797 408.0108 
L 524.951852 405.133107 
L 529.73413 401.449723 
L 534.862155 396.69589 
L 546.022358 383.05467 
L 551.748794 377.909276 
L 557.47523 373.610664 
L 563.201667 370.519047 
L 568.928103 368.344311 
L 574.654539 367.171356 
L 580.380976 366.735273 
L 586.107412 366.578133 
L 597.560285 366.632377 
L 603.286721 366.755296 
L 609.013157 366.994218 
L 614.739594 367.112058 
L 620.46603 366.87739 
L 626.192466 482.669297 
L 634.288448 557.763755 
L 658.576395 557.859905 
L 682.864341 558.166963 
L 707.152288 558.294177 
L 820.496038 558.354554 
L 820.496038 558.354554 
" clip-path="url(#p9d9d80f4c4)" style="fill: none; stroke: #ff0000; stroke-width: 3; stroke-linecap: square"/>
   </g>
   <g id="patch_3">
    <path d="M 114.954267 627.417748 
L 114.954267 17.577748 
" style="fill: none; stroke: #000000; stroke-width: 0.8; stroke-linejoin: miter; stroke-linecap: square"/>
   </g>
   <g id="patch_4">
    <path d="M 840.354267 627.417748 
L 840.354267 17.577748 
" style="fill: none; stroke: #000000; stroke-width: 0.8; stroke-linejoin: miter; stroke-linecap: square"/>
   </g>
   <g id="patch_5">
    <path d="M 114.954267 627.417748 
L 840.354267 627.417748 
" style="fill: none; stroke: #000000; stroke-width: 0.8; stroke-linejoin: miter; stroke-linecap: square"/>
   </g>
   <g id="patch_6">
    <path d="M 114.954267 17.577748 
L 840.354267 17.577748 
" style="fill: none; stroke: #000000; stroke-width: 0.8; stroke-linejoin: miter; stroke-linecap: square"/>
   </g>
   <g id="legend_1">
    <g id="patch_7">
     <path d="M 621.28834 143.14245 
L 815.854267 143.14245 
Q 822.854267 143.14245 822.854267 136.14245 
L 822.854267 42.077748 
Q 822.854267 35.077748 815.854267 35.077748 
L 621.28834 35.077748 
Q 614.28834 35.077748 614.28834 42.077748 
L 614.28834 136.14245 
Q 614.28834 143.14245 621.28834 143.14245 
z
" style="fill: #ffffff; stroke: #cccccc; stroke-linejoin: miter"/>
    </g>
    <g id="patch_8">
     <path d="M 628.28834 73.577748 
L 698.28834 73.577748 
L 698.28834 49.077748 
L 628.28834 49.077748 
z
" style="fill: #99ccff; fill-opacity: 0.7"/>
    </g>
    <g id="text_19">
     <!-- $\mu \pm \sigma$ -->
     <g transform="translate(726.28834 73.577748) scale(0.35 -0.35)">
      <defs>
       <path id="CMMI12-16" d="M 922 140 
C 1082 -6 1318 -64 1536 -64 
C 1946 -64 2227 208 2374 405 
C 2438 69 2707 -64 2931 -64 
C 3123 -64 3277 50 3392 277 
C 3494 493 3584 879 3584 903 
C 3584 935 3558 960 3520 960 
C 3462 960 3456 928 3430 834 
C 3334 461 3213 64 2950 64 
C 2765 64 2752 229 2752 358 
C 2752 504 2810 735 2854 926 
L 3034 1615 
C 3059 1737 3130 2023 3162 2139 
C 3200 2292 3270 2567 3270 2592 
C 3270 2688 3194 2752 3098 2752 
C 3040 2752 2906 2726 2854 2535 
L 2406 760 
C 2374 632 2374 619 2291 517 
C 2214 409 1965 64 1562 64 
C 1203 64 1088 326 1088 625 
C 1088 811 1146 1034 1171 1143 
L 1459 2293 
C 1491 2414 1542 2618 1542 2657 
C 1542 2759 1459 2816 1376 2816 
C 1318 2816 1178 2797 1126 2592 
L 198 -1107 
C 192 -1139 179 -1177 179 -1216 
C 179 -1312 256 -1376 352 -1376 
C 538 -1376 576 -1228 621 -1050 
L 922 140 
z
" transform="scale(0.015625)"/>
       <path id="CMSY10-6" d="M 2618 1984 
L 4397 1984 
C 4506 1984 4621 1984 4621 2112 
C 4621 2240 4506 2240 4397 2240 
L 2618 2240 
L 2618 4018 
C 2618 4121 2618 4256 2490 4256 
C 2362 4256 2362 4140 2362 4038 
L 2362 2240 
L 576 2240 
C 467 2240 352 2240 352 2112 
C 352 1984 467 1984 576 1984 
L 2362 1984 
L 2362 256 
L 576 256 
C 467 256 352 256 352 128 
C 352 0 467 0 576 0 
L 4397 0 
C 4506 0 4621 0 4621 128 
C 4621 256 4506 256 4397 256 
L 2618 256 
L 2618 1984 
z
" transform="scale(0.015625)"/>
       <path id="CMMI12-1b" d="M 3251 2408 
C 3334 2408 3546 2408 3546 2612 
C 3546 2752 3424 2752 3309 2752 
L 1894 2752 
C 934 2752 243 1686 243 932 
C 243 390 595 -64 1171 -64 
C 1926 -64 2752 747 2752 1705 
C 2752 1954 2694 2196 2541 2408 
L 3251 2408 
z
M 1178 64 
C 851 64 614 313 614 754 
C 614 1137 845 2408 1786 2408 
C 2061 2408 2368 2274 2368 1781 
C 2368 1558 2266 1021 2042 652 
C 1811 275 1466 64 1178 64 
z
" transform="scale(0.015625)"/>
      </defs>
      <use xlink:href="#CMMI12-16" transform="scale(0.996264)"/>
      <use xlink:href="#CMSY10-6" transform="translate(80.830628 0) scale(0.996264)"/>
      <use xlink:href="#CMMI12-1b" transform="translate(180.457303 0) scale(0.996264)"/>
     </g>
    </g>
    <g id="line2d_34">
     <path d="M 628.28834 110.110099 
L 663.28834 110.110099 
L 698.28834 110.110099 
" style="fill: none; stroke: #ff0000; stroke-width: 3; stroke-linecap: square"/>
    </g>
    <g id="text_20">
     <!-- $\mu$ -->
     <g transform="translate(726.28834 122.360099) scale(0.35 -0.35)">
      <use xlink:href="#CMMI12-16" transform="scale(0.996264)"/>
     </g>
    </g>
   </g>
  </g>
 </g>
 <defs>
  <clipPath id="p9d9d80f4c4">
   <rect x="114.954267" y="17.577748" width="725.4" height="609.84"/>
  </clipPath>
 </defs>
</svg>
