<?xml version="1.0" encoding="utf-8" standalone="no"?>
<!DOCTYPE svg PUBLIC "-//W3C//DTD SVG 1.1//EN"
  "http://www.w3.org/Graphics/SVG/1.1/DTD/svg11.dtd">
<svg xmlns:xlink="http://www.w3.org/1999/xlink" width="814.732464pt" height="692.806049pt" viewBox="0 0 814.732464 692.806049" xmlns="http://www.w3.org/2000/svg" version="1.1">
 <metadata>
  <rdf:RDF xmlns:dc="http://purl.org/dc/elements/1.1/" xmlns:cc="http://creativecommons.org/ns#" xmlns:rdf="http://www.w3.org/1999/02/22-rdf-syntax-ns#">
   <cc:Work>
    <dc:type rdf:resource="http://purl.org/dc/dcmitype/StillImage"/>
    <dc:date>2025-03-27T12:27:08.840724</dc:date>
    <dc:format>image/svg+xml</dc:format>
    <dc:creator>
     <cc:Agent>
      <dc:title>Matplotlib v3.7.1, https://matplotlib.org/</dc:title>
     </cc:Agent>
    </dc:creator>
   </cc:Work>
  </rdf:RDF>
 </metadata>
 <defs>
  <style type="text/css">*{stroke-linejoin: round; stroke-linecap: butt}</style>
 </defs>
 <g id="figure_1">
  <g id="patch_1">
   <path d="M 0 692.806049 
L 814.732464 692.806049 
L 814.732464 0 
L 0 0 
z
" style="fill: #ffffff"/>
  </g>
  <g id="axes_1">
   <g id="patch_2">
    <path d="M 82.132464 617.04 
L 807.532464 617.04 
L 807.532464 7.2 
L 82.132464 7.2 
z
" style="fill: #ffffff"/>
   </g>
   <g id="PolyCollection_1">
    <path d="M 95.565797 520.409512 
L 95.565797 512.627007 
L 113.82296 512.553505 
L 127.150808 512.400474 
L 136.88038 512.166405 
L 143.983365 511.844966 
L 149.169117 511.436132 
L 152.955507 510.931894 
L 155.720628 510.328427 
L 157.740536 509.625617 
L 159.216804 508.743438 
L 160.395535 507.834704 
L 161.564 506.630553 
L 162.732464 473.534922 
L 163.93003 411.066252 
L 165.127596 390.821466 
L 166.325161 387.430611 
L 167.522727 398.31535 
L 168.720293 398.857183 
L 169.917859 398.121207 
L 171.115425 397.430263 
L 172.312991 396.870321 
L 173.510557 396.127621 
L 174.708122 395.363842 
L 175.905688 394.603743 
L 177.103254 393.886614 
L 178.30082 393.303077 
L 179.498386 392.816245 
L 180.695952 392.345647 
L 181.893518 391.933216 
L 183.091083 391.566603 
L 184.288649 391.248609 
L 185.486215 390.993575 
L 186.683781 390.754363 
L 187.881347 390.623189 
L 189.078913 390.479561 
L 190.276478 390.464472 
L 191.474044 390.442734 
L 192.67161 390.457856 
L 193.869176 390.461822 
L 195.066742 390.470749 
L 196.264308 390.452652 
L 197.461874 390.476604 
L 198.659439 390.470731 
L 199.857005 390.508155 
L 201.054571 390.559215 
L 202.252137 390.625593 
L 203.449703 390.707983 
L 204.64727 390.790459 
L 205.875006 390.880011 
L 207.146608 390.9743 
L 208.463968 391.065004 
L 209.829608 391.1676 
L 211.24611 391.272944 
L 212.714959 391.373286 
L 214.237923 391.452243 
L 215.817065 391.524868 
L 217.45465 391.605861 
L 219.152109 391.679557 
L 220.911216 391.761141 
L 222.734445 391.836691 
L 224.625128 391.912658 
L 226.587023 391.985247 
L 228.619242 392.051638 
L 230.726355 392.115335 
L 232.9122 392.183208 
L 235.176907 392.257579 
L 237.526301 392.335689 
L 239.961686 392.397413 
L 242.48595 392.461381 
L 245.104171 392.511144 
L 247.818657 392.52254 
L 250.632799 392.528907 
L 253.550458 392.56064 
L 256.575581 392.608192 
L 259.712074 392.660086 
L 262.963908 392.739689 
L 266.335378 392.818247 
L 269.83151 392.897238 
L 273.456199 392.983791 
L 277.214186 393.058294 
L 281.110791 393.13937 
L 285.151063 393.226843 
L 289.33984 393.299355 
L 293.682881 393.374493 
L 298.186044 393.446541 
L 302.855204 393.521071 
L 307.69626 393.601554 
L 312.690082 393.69137 
L 317.827904 393.78384 
L 323.154862 393.88502 
L 328.678419 393.985099 
L 334.405443 394.086524 
L 340.343562 394.182829 
L 346.500604 394.269893 
L 352.884536 394.346173 
L 359.50381 394.40351 
L 366.367211 394.441114 
L 373.483619 394.455043 
L 380.862319 394.443439 
L 388.513042 394.405889 
L 396.0659 394.338006 
L 401.70282 394.241036 
L 405.717076 394.091694 
L 408.576271 393.889966 
L 410.613207 393.644617 
L 412.06472 393.339543 
L 413.205487 392.972919 
L 414.336522 392.553623 
L 415.467556 392.072118 
L 416.598591 391.531198 
L 417.729625 390.948726 
L 418.860659 390.114211 
L 419.991694 389.304757 
L 421.122728 388.0123 
L 422.253763 327.648245 
L 423.078558 43.030256 
L 423.903353 96.931052 
L 424.728149 104.030265 
L 425.552944 110.97132 
L 426.377739 126.139845 
L 427.202535 143.549724 
L 428.02733 154.208617 
L 428.852125 165.743909 
L 429.676921 174.415391 
L 430.501716 181.391119 
L 431.326511 186.485754 
L 432.151307 191.41113 
L 432.976102 196.713356 
L 433.800898 200.896721 
L 434.625693 204.679052 
L 435.450488 207.952704 
L 436.275284 211.174104 
L 437.100079 214.067393 
L 437.924874 216.7799 
L 438.74967 219.21902 
L 439.574465 221.405571 
L 440.39926 223.467305 
L 441.224056 225.392798 
L 442.048851 227.05853 
L 442.873646 228.702168 
L 443.698442 230.320218 
L 444.523237 231.810761 
L 445.348033 233.227499 
L 446.172828 234.551998 
L 446.997623 235.941542 
L 447.822419 237.253961 
L 448.647214 238.507555 
L 449.472009 239.704733 
L 450.296805 240.892647 
L 451.1216 242.046416 
L 451.946395 243.184268 
L 452.771191 244.282518 
L 453.595986 245.383723 
L 454.420781 246.503955 
L 455.245577 247.694278 
L 456.070372 248.809482 
L 456.895168 249.990859 
L 457.719963 251.259869 
L 458.544758 252.697221 
L 459.378 254.349452 
L 460.262964 256.200298 
L 461.225601 258.283982 
L 462.263542 260.827878 
L 463.391057 263.69796 
L 464.614883 267.179924 
L 465.940755 271.068515 
L 467.379865 275.502241 
L 468.944963 280.377867 
L 470.646363 286.342137 
L 472.496259 291.395835 
L 474.508285 295.912175 
L 476.69738 300.230879 
L 479.080106 303.795587 
L 481.67353 305.528551 
L 484.493491 306.313231 
L 487.562434 306.161404 
L 490.897329 305.641598 
L 494.52115 305.224656 
L 498.452828 304.821837 
L 502.711679 304.318633 
L 507.315144 303.638679 
L 512.274543 302.596518 
L 517.592496 301.10593 
L 523.252043 299.563819 
L 529.166039 298.093569 
L 535.104565 296.838417 
L 541.043092 296.020554 
L 546.981619 295.460705 
L 552.920145 295.228858 
L 558.858672 295.195069 
L 564.797198 295.361741 
L 570.735725 295.643056 
L 576.674251 296.013737 
L 582.612778 296.414556 
L 588.551305 296.884449 
L 594.489831 297.734431 
L 600.428358 298.32654 
L 606.366884 299.205191 
L 612.305411 334.087112 
L 620.701244 332.030213 
L 629.097078 365.146565 
L 637.492911 387.479137 
L 645.888744 398.020943 
L 654.284578 405.101441 
L 662.680411 409.426749 
L 671.076244 412.931959 
L 679.472078 416.538675 
L 687.867911 419.668908 
L 696.263744 422.134181 
L 704.659578 424.244339 
L 713.055411 426.165698 
L 721.451244 427.811817 
L 729.847078 429.255508 
L 738.242911 430.554912 
L 746.638744 431.815434 
L 755.034578 433.160423 
L 763.430411 434.609008 
L 771.826244 436.260219 
L 780.222078 437.82552 
L 788.617911 439.391868 
L 797.013744 440.579973 
L 805.409578 441.467892 
L 813.805411 442.03841 
L 813.805411 477.029512 
L 813.805411 477.029512 
L 805.409578 476.557304 
L 797.013744 475.778698 
L 788.617911 474.835775 
L 780.222078 473.928571 
L 771.826244 472.961138 
L 763.430411 472.142492 
L 755.034578 471.372841 
L 746.638744 470.683716 
L 738.242911 470.006085 
L 729.847078 469.332276 
L 721.451244 468.66215 
L 713.055411 467.917729 
L 704.659578 467.439773 
L 696.263744 466.740898 
L 687.867911 465.889174 
L 679.472078 464.628781 
L 671.076244 462.883889 
L 662.680411 460.699432 
L 654.284578 457.681726 
L 645.888744 452.787479 
L 637.492911 445.814712 
L 629.097078 444.370902 
L 620.701244 445.268376 
L 612.305411 371.58554 
L 606.366884 341.201164 
L 600.428358 338.960058 
L 594.489831 337.517812 
L 588.551305 336.314386 
L 582.612778 335.685748 
L 576.674251 335.131161 
L 570.735725 334.588281 
L 564.797198 334.022786 
L 558.858672 333.484267 
L 552.920145 333.01555 
L 546.981619 332.630764 
L 541.043092 332.433174 
L 535.104565 332.334133 
L 529.166039 332.449762 
L 523.252043 332.593708 
L 517.592496 332.801344 
L 512.274543 333.262427 
L 507.315144 333.515119 
L 502.711679 333.832115 
L 498.452828 334.084037 
L 494.52115 334.378033 
L 490.897329 334.523585 
L 487.562434 334.321488 
L 484.493491 333.324674 
L 481.67353 331.530221 
L 479.080106 329.25765 
L 476.69738 325.382849 
L 474.508285 320.682689 
L 472.496259 315.543866 
L 470.646363 309.860551 
L 468.944963 303.357886 
L 467.379865 298.138352 
L 465.940755 293.556355 
L 464.614883 289.780007 
L 463.391057 286.347721 
L 462.263542 283.59724 
L 461.225601 281.150161 
L 460.262964 279.188887 
L 459.378 277.463368 
L 458.544758 275.923165 
L 457.719963 274.594162 
L 456.895168 273.422299 
L 456.070372 272.344796 
L 455.245577 271.323957 
L 454.420781 270.252842 
L 453.595986 269.242332 
L 452.771191 268.247869 
L 451.946395 267.251793 
L 451.1216 266.217986 
L 450.296805 265.161559 
L 449.472009 264.07482 
L 448.647214 262.964729 
L 447.822419 261.800876 
L 446.997623 260.572534 
L 446.172828 259.264797 
L 445.348033 257.994648 
L 444.523237 256.634851 
L 443.698442 255.215993 
L 442.873646 253.706916 
L 442.048851 252.20406 
L 441.224056 250.709052 
L 440.39926 249.041522 
L 439.574465 247.294271 
L 438.74967 245.505751 
L 437.924874 243.55218 
L 437.100079 241.415864 
L 436.275284 239.190635 
L 435.450488 236.619873 
L 434.625693 234.080571 
L 433.800898 231.237673 
L 432.976102 228.037619 
L 432.151307 223.674748 
L 431.326511 219.795668 
L 430.501716 215.841929 
L 429.676921 210.455701 
L 428.852125 204.240239 
L 428.02733 196.003425 
L 427.202535 188.866123 
L 426.377739 179.457014 
L 425.552944 170.640492 
L 424.728149 165.113644 
L 423.903353 154.74789 
L 423.078558 124.933071 
L 422.253763 396.416198 
L 421.122728 416.329972 
L 419.991694 416.552514 
L 418.860659 417.224684 
L 417.729625 417.876567 
L 416.598591 418.346056 
L 415.467556 418.77737 
L 414.336522 419.17587 
L 413.205487 419.537056 
L 412.06472 419.870687 
L 410.613207 420.160988 
L 408.576271 420.406985 
L 405.717076 420.626384 
L 401.70282 420.802453 
L 396.0659 420.938647 
L 388.513042 421.058727 
L 380.862319 421.163546 
L 373.483619 421.252408 
L 366.367211 421.326035 
L 359.50381 421.382492 
L 352.884536 421.423727 
L 346.500604 421.44769 
L 340.343562 421.460529 
L 334.405443 421.462921 
L 328.678419 421.460593 
L 323.154862 421.45226 
L 317.827904 421.442499 
L 312.690082 421.433723 
L 307.69626 421.426445 
L 302.855204 421.423497 
L 298.186044 421.424781 
L 293.682881 421.420506 
L 289.33984 421.414469 
L 285.151063 421.403731 
L 281.110791 421.379276 
L 277.214186 421.359644 
L 273.456199 421.344706 
L 269.83151 421.318163 
L 266.335378 421.298649 
L 262.963908 421.279917 
L 259.712074 421.260301 
L 256.575581 421.270911 
L 253.550458 421.285817 
L 250.632799 421.318881 
L 247.818657 421.373915 
L 245.104171 421.430894 
L 242.48595 421.443312 
L 239.961686 421.449473 
L 237.526301 421.45381 
L 235.176907 421.447919 
L 232.9122 421.442711 
L 230.726355 421.451013 
L 228.619242 421.465158 
L 226.587023 421.478346 
L 224.625128 421.494576 
L 222.734445 421.502313 
L 220.911216 421.520086 
L 219.152109 421.53121 
L 217.45465 421.554474 
L 215.817065 421.572296 
L 214.237923 421.602538 
L 212.714959 421.62605 
L 211.24611 421.632856 
L 209.829608 421.634428 
L 208.463968 421.638757 
L 207.146608 421.650273 
L 205.875006 421.654064 
L 204.64727 421.659293 
L 203.449703 421.663762 
L 202.252137 421.672716 
L 201.054571 421.663882 
L 199.857005 421.663861 
L 198.659439 421.665054 
L 197.461874 421.670543 
L 196.264308 421.67838 
L 195.066742 421.65739 
L 193.869176 421.626594 
L 192.67161 421.552522 
L 191.474044 421.468108 
L 190.276478 421.387146 
L 189.078913 421.290275 
L 187.881347 421.272828 
L 186.683781 421.239792 
L 185.486215 421.2234 
L 184.288649 421.161577 
L 183.091083 421.09994 
L 181.893518 421.018231 
L 180.695952 420.995884 
L 179.498386 421.007476 
L 178.30082 421.041969 
L 177.103254 421.08923 
L 175.905688 421.05496 
L 174.708122 421.13323 
L 173.510557 421.407382 
L 172.312991 421.666534 
L 171.115425 422.410849 
L 169.917859 423.188123 
L 168.720293 423.95139 
L 167.522727 422.952023 
L 166.325161 417.189561 
L 165.127596 429.888132 
L 163.93003 435.0357 
L 162.732464 501.722661 
L 161.564 515.672519 
L 160.395535 517.454946 
L 159.216804 518.112605 
L 157.740536 518.607737 
L 155.720628 518.964513 
L 152.955507 519.287326 
L 149.169117 519.587181 
L 143.983365 519.850109 
L 136.88038 520.071587 
L 127.150808 520.239745 
L 113.82296 520.354047 
L 95.565797 520.409512 
z
" clip-path="url(#pb3fbc8d278)" style="fill: #99ccff; fill-opacity: 0.7"/>
   </g>
   <g id="matplotlib.axis_1">
    <g id="xtick_1">
     <g id="line2d_1">
      <path d="M 162.732464 617.04 
L 162.732464 7.2 
" clip-path="url(#pb3fbc8d278)" style="fill: none; stroke: #b0b0b0; stroke-width: 0.8; stroke-linecap: square"/>
     </g>
     <g id="line2d_2">
      <defs>
       <path id="m912b916a34" d="M 0 0 
L 0 3.5 
" style="stroke: #000000; stroke-width: 0.8"/>
      </defs>
      <g>
       <use xlink:href="#m912b916a34" x="162.732464" y="617.04" style="stroke: #000000; stroke-width: 0.8"/>
      </g>
     </g>
     <g id="text_1">
      <!-- $\mathdefault{0.0}$ -->
      <g transform="translate(144.960744 644.795495) scale(0.3 -0.3)">
       <defs>
        <path id="CMR17-30" d="M 2688 2025 
C 2688 2416 2682 3080 2413 3591 
C 2176 4039 1798 4198 1466 4198 
C 1158 4198 768 4058 525 3597 
C 269 3118 243 2524 243 2025 
C 243 1661 250 1106 448 619 
C 723 -39 1216 -128 1466 -128 
C 1760 -128 2208 -7 2470 600 
C 2662 1042 2688 1559 2688 2025 
z
M 1466 -26 
C 1056 -26 813 325 723 812 
C 653 1188 653 1738 653 2096 
C 653 2588 653 2997 736 3387 
C 858 3929 1216 4096 1466 4096 
C 1728 4096 2067 3923 2189 3400 
C 2272 3036 2278 2607 2278 2096 
C 2278 1680 2278 1169 2202 792 
C 2067 95 1690 -26 1466 -26 
z
" transform="scale(0.015625)"/>
        <path id="CMMI12-3a" d="M 1178 307 
C 1178 492 1024 619 870 619 
C 685 619 557 466 557 313 
C 557 128 710 0 864 0 
C 1050 0 1178 153 1178 307 
z
" transform="scale(0.015625)"/>
       </defs>
       <use xlink:href="#CMR17-30" transform="scale(0.996264)"/>
       <use xlink:href="#CMMI12-3a" transform="translate(45.690477 0) scale(0.996264)"/>
       <use xlink:href="#CMR17-30" transform="translate(72.787654 0) scale(0.996264)"/>
      </g>
     </g>
    </g>
    <g id="xtick_2">
     <g id="line2d_3">
      <path d="M 297.065797 617.04 
L 297.065797 7.2 
" clip-path="url(#pb3fbc8d278)" style="fill: none; stroke: #b0b0b0; stroke-width: 0.8; stroke-linecap: square"/>
     </g>
     <g id="line2d_4">
      <g>
       <use xlink:href="#m912b916a34" x="297.065797" y="617.04" style="stroke: #000000; stroke-width: 0.8"/>
      </g>
     </g>
     <g id="text_2">
      <!-- $\mathdefault{0.1}$ -->
      <g transform="translate(279.294078 644.795495) scale(0.3 -0.3)">
       <defs>
        <path id="CMR17-31" d="M 1702 4058 
C 1702 4192 1696 4192 1606 4192 
C 1357 3916 979 3827 621 3827 
C 602 3827 570 3827 563 3808 
C 557 3795 557 3782 557 3648 
C 755 3648 1088 3686 1344 3839 
L 1344 461 
C 1344 236 1331 160 781 160 
L 589 160 
L 589 0 
C 896 0 1216 0 1523 0 
C 1830 0 2150 0 2458 0 
L 2458 160 
L 2266 160 
C 1715 160 1702 230 1702 458 
L 1702 4058 
z
" transform="scale(0.015625)"/>
       </defs>
       <use xlink:href="#CMR17-30" transform="scale(0.996264)"/>
       <use xlink:href="#CMMI12-3a" transform="translate(45.690477 0) scale(0.996264)"/>
       <use xlink:href="#CMR17-31" transform="translate(72.787654 0) scale(0.996264)"/>
      </g>
     </g>
    </g>
    <g id="xtick_3">
     <g id="line2d_5">
      <path d="M 431.399131 617.04 
L 431.399131 7.2 
" clip-path="url(#pb3fbc8d278)" style="fill: none; stroke: #b0b0b0; stroke-width: 0.8; stroke-linecap: square"/>
     </g>
     <g id="line2d_6">
      <g>
       <use xlink:href="#m912b916a34" x="431.399131" y="617.04" style="stroke: #000000; stroke-width: 0.8"/>
      </g>
     </g>
     <g id="text_3">
      <!-- $\mathdefault{0.2}$ -->
      <g transform="translate(413.627411 644.795495) scale(0.3 -0.3)">
       <defs>
        <path id="CMR17-32" d="M 2669 989 
L 2554 989 
C 2490 536 2438 459 2413 420 
C 2381 369 1920 369 1830 369 
L 602 369 
C 832 619 1280 1072 1824 1597 
C 2214 1967 2669 2402 2669 3035 
C 2669 3790 2067 4224 1395 4224 
C 691 4224 262 3604 262 3030 
C 262 2780 448 2748 525 2748 
C 589 2748 781 2787 781 3010 
C 781 3207 614 3264 525 3264 
C 486 3264 448 3258 422 3245 
C 544 3790 915 4058 1306 4058 
C 1862 4058 2227 3617 2227 3035 
C 2227 2479 1901 2000 1536 1584 
L 262 146 
L 262 0 
L 2515 0 
L 2669 989 
z
" transform="scale(0.015625)"/>
       </defs>
       <use xlink:href="#CMR17-30" transform="scale(0.996264)"/>
       <use xlink:href="#CMMI12-3a" transform="translate(45.690477 0) scale(0.996264)"/>
       <use xlink:href="#CMR17-32" transform="translate(72.787654 0) scale(0.996264)"/>
      </g>
     </g>
    </g>
    <g id="xtick_4">
     <g id="line2d_7">
      <path d="M 565.732464 617.04 
L 565.732464 7.2 
" clip-path="url(#pb3fbc8d278)" style="fill: none; stroke: #b0b0b0; stroke-width: 0.8; stroke-linecap: square"/>
     </g>
     <g id="line2d_8">
      <g>
       <use xlink:href="#m912b916a34" x="565.732464" y="617.04" style="stroke: #000000; stroke-width: 0.8"/>
      </g>
     </g>
     <g id="text_4">
      <!-- $\mathdefault{0.3}$ -->
      <g transform="translate(547.960744 644.795495) scale(0.3 -0.3)">
       <defs>
        <path id="CMR17-33" d="M 1414 2157 
C 1984 2157 2234 1662 2234 1090 
C 2234 320 1824 25 1453 25 
C 1114 25 563 194 390 693 
C 422 680 454 680 486 680 
C 640 680 755 782 755 948 
C 755 1133 614 1216 486 1216 
C 378 1216 211 1165 211 926 
C 211 335 787 -128 1466 -128 
C 2176 -128 2720 430 2720 1085 
C 2720 1707 2208 2157 1600 2227 
C 2086 2328 2554 2756 2554 3329 
C 2554 3820 2048 4179 1472 4179 
C 890 4179 378 3829 378 3329 
C 378 3110 544 3072 627 3072 
C 762 3072 877 3155 877 3321 
C 877 3486 762 3569 627 3569 
C 602 3569 570 3569 544 3557 
C 730 3959 1235 4032 1459 4032 
C 1683 4032 2106 3925 2106 3320 
C 2106 3143 2080 2828 1862 2550 
C 1670 2304 1453 2304 1242 2284 
C 1210 2284 1062 2269 1037 2269 
C 992 2263 966 2257 966 2208 
C 966 2163 973 2157 1101 2157 
L 1414 2157 
z
" transform="scale(0.015625)"/>
       </defs>
       <use xlink:href="#CMR17-30" transform="scale(0.996264)"/>
       <use xlink:href="#CMMI12-3a" transform="translate(45.690477 0) scale(0.996264)"/>
       <use xlink:href="#CMR17-33" transform="translate(72.787654 0) scale(0.996264)"/>
      </g>
     </g>
    </g>
    <g id="xtick_5">
     <g id="line2d_9">
      <path d="M 700.065797 617.04 
L 700.065797 7.2 
" clip-path="url(#pb3fbc8d278)" style="fill: none; stroke: #b0b0b0; stroke-width: 0.8; stroke-linecap: square"/>
     </g>
     <g id="line2d_10">
      <g>
       <use xlink:href="#m912b916a34" x="700.065797" y="617.04" style="stroke: #000000; stroke-width: 0.8"/>
      </g>
     </g>
     <g id="text_5">
      <!-- $\mathdefault{0.4}$ -->
      <g transform="translate(682.294078 644.795495) scale(0.3 -0.3)">
       <defs>
        <path id="CMR17-34" d="M 2150 4122 
C 2150 4256 2144 4256 2029 4256 
L 128 1254 
L 128 1088 
L 1779 1088 
L 1779 457 
C 1779 224 1766 160 1318 160 
L 1197 160 
L 1197 0 
C 1402 0 1747 0 1965 0 
C 2182 0 2528 0 2733 0 
L 2733 160 
L 2611 160 
C 2163 160 2150 224 2150 457 
L 2150 1088 
L 2803 1088 
L 2803 1254 
L 2150 1254 
L 2150 4122 
z
M 1798 3703 
L 1798 1254 
L 256 1254 
L 1798 3703 
z
" transform="scale(0.015625)"/>
       </defs>
       <use xlink:href="#CMR17-30" transform="scale(0.996264)"/>
       <use xlink:href="#CMMI12-3a" transform="translate(45.690477 0) scale(0.996264)"/>
       <use xlink:href="#CMR17-34" transform="translate(72.787654 0) scale(0.996264)"/>
      </g>
     </g>
    </g>
    <g id="text_6">
     <!-- $x, \; \mathrm{m} $ -->
     <g transform="translate(409.179861 678.823697) scale(0.35 -0.35)">
      <defs>
       <path id="CMMI12-78" d="M 3034 2606 
C 2829 2567 2752 2414 2752 2293 
C 2752 2139 2874 2088 2963 2088 
C 3155 2088 3290 2254 3290 2427 
C 3290 2695 2982 2816 2714 2816 
C 2323 2816 2106 2433 2048 2312 
C 1901 2816 1504 2816 1389 2816 
C 736 2816 390 1980 390 1839 
C 390 1814 416 1782 461 1782 
C 512 1782 525 1820 538 1846 
C 755 2555 1184 2689 1370 2689 
C 1658 2689 1715 2420 1715 2267 
C 1715 2127 1677 1980 1600 1673 
L 1382 798 
C 1286 415 1101 64 762 64 
C 730 64 570 64 435 147 
C 666 192 717 383 717 460 
C 717 588 621 664 499 664 
C 346 664 179 530 179 326 
C 179 57 480 -64 755 -64 
C 1062 -64 1280 179 1414 441 
C 1517 64 1837 -64 2074 -64 
C 2726 -64 3072 773 3072 913 
C 3072 945 3046 971 3008 971 
C 2950 971 2944 939 2925 888 
C 2752 326 2381 64 2093 64 
C 1869 64 1747 230 1747 492 
C 1747 632 1773 734 1875 1156 
L 2099 2024 
C 2195 2408 2413 2689 2707 2689 
C 2720 2689 2899 2689 3034 2606 
z
" transform="scale(0.015625)"/>
       <path id="CMMI12-3b" d="M 1248 -31 
C 1248 343 1126 619 864 619 
C 659 619 557 453 557 313 
C 557 172 653 0 870 0 
C 954 0 1024 26 1082 83 
C 1094 96 1101 96 1107 96 
C 1120 96 1120 5 1120 -27 
C 1120 -240 1082 -659 710 -1080 
C 640 -1157 640 -1170 640 -1183 
C 640 -1216 672 -1248 704 -1248 
C 755 -1248 1248 -771 1248 -31 
z
" transform="scale(0.015625)"/>
       <path id="CMR17-6d" d="M 4326 1933 
C 4326 2252 4269 2790 3507 2790 
C 3072 2790 2771 2496 2656 2151 
L 2650 2151 
C 2573 2676 2195 2790 1837 2790 
C 1331 2790 1069 2400 973 2144 
L 966 2144 
L 966 2790 
L 211 2720 
L 211 2554 
C 589 2554 646 2515 646 2208 
L 646 428 
C 646 184 621 153 211 153 
L 211 -13 
C 365 0 646 0 813 0 
C 979 0 1267 0 1421 -13 
L 1421 153 
C 1011 153 986 178 986 428 
L 986 1658 
C 986 2247 1344 2688 1792 2688 
C 2266 2688 2317 2266 2317 1958 
L 2317 428 
C 2317 184 2291 153 1882 153 
L 1882 -13 
C 2035 0 2317 0 2483 0 
C 2650 0 2938 0 3091 -13 
L 3091 153 
C 2682 153 2656 178 2656 428 
L 2656 1658 
C 2656 2247 3014 2688 3462 2688 
C 3936 2688 3987 2266 3987 1958 
L 3987 428 
C 3987 184 3962 153 3552 153 
L 3552 -13 
C 3706 0 3987 0 4154 0 
C 4320 0 4608 0 4762 -13 
L 4762 153 
C 4352 153 4326 178 4326 428 
L 4326 1933 
z
" transform="scale(0.015625)"/>
      </defs>
      <use xlink:href="#CMMI12-78" transform="scale(0.996264)"/>
      <use xlink:href="#CMMI12-3b" transform="translate(55.43406 0) scale(0.996264)"/>
      <use xlink:href="#CMR17-6d" transform="translate(126.809651 0) scale(0.996264)"/>
     </g>
    </g>
   </g>
   <g id="matplotlib.axis_2">
    <g id="ytick_1">
     <g id="line2d_11">
      <path d="M 82.132464 583.16 
L 807.532464 583.16 
" clip-path="url(#pb3fbc8d278)" style="fill: none; stroke: #b0b0b0; stroke-width: 0.8; stroke-linecap: square"/>
     </g>
     <g id="line2d_12">
      <defs>
       <path id="mc55d158f03" d="M 0 0 
L -3.5 0 
" style="stroke: #000000; stroke-width: 0.8"/>
      </defs>
      <g>
       <use xlink:href="#mc55d158f03" x="82.132464" y="583.16" style="stroke: #000000; stroke-width: 0.8"/>
      </g>
     </g>
     <g id="text_7">
      <!-- $\mathdefault{0}$ -->
      <g transform="translate(61.425321 593.537748) scale(0.3 -0.3)">
       <use xlink:href="#CMR17-30" transform="scale(0.996264)"/>
      </g>
     </g>
    </g>
    <g id="ytick_2">
     <g id="line2d_13">
      <path d="M 82.132464 515.4 
L 807.532464 515.4 
" clip-path="url(#pb3fbc8d278)" style="fill: none; stroke: #b0b0b0; stroke-width: 0.8; stroke-linecap: square"/>
     </g>
     <g id="line2d_14">
      <g>
       <use xlink:href="#mc55d158f03" x="82.132464" y="515.4" style="stroke: #000000; stroke-width: 0.8"/>
      </g>
     </g>
     <g id="text_8">
      <!-- $\mathdefault{1}$ -->
      <g transform="translate(61.425321 525.777748) scale(0.3 -0.3)">
       <use xlink:href="#CMR17-31" transform="scale(0.996264)"/>
      </g>
     </g>
    </g>
    <g id="ytick_3">
     <g id="line2d_15">
      <path d="M 82.132464 447.64 
L 807.532464 447.64 
" clip-path="url(#pb3fbc8d278)" style="fill: none; stroke: #b0b0b0; stroke-width: 0.8; stroke-linecap: square"/>
     </g>
     <g id="line2d_16">
      <g>
       <use xlink:href="#mc55d158f03" x="82.132464" y="447.64" style="stroke: #000000; stroke-width: 0.8"/>
      </g>
     </g>
     <g id="text_9">
      <!-- $\mathdefault{2}$ -->
      <g transform="translate(61.425321 458.017748) scale(0.3 -0.3)">
       <use xlink:href="#CMR17-32" transform="scale(0.996264)"/>
      </g>
     </g>
    </g>
    <g id="ytick_4">
     <g id="line2d_17">
      <path d="M 82.132464 379.88 
L 807.532464 379.88 
" clip-path="url(#pb3fbc8d278)" style="fill: none; stroke: #b0b0b0; stroke-width: 0.8; stroke-linecap: square"/>
     </g>
     <g id="line2d_18">
      <g>
       <use xlink:href="#mc55d158f03" x="82.132464" y="379.88" style="stroke: #000000; stroke-width: 0.8"/>
      </g>
     </g>
     <g id="text_10">
      <!-- $\mathdefault{3}$ -->
      <g transform="translate(61.425321 390.257748) scale(0.3 -0.3)">
       <use xlink:href="#CMR17-33" transform="scale(0.996264)"/>
      </g>
     </g>
    </g>
    <g id="ytick_5">
     <g id="line2d_19">
      <path d="M 82.132464 312.12 
L 807.532464 312.12 
" clip-path="url(#pb3fbc8d278)" style="fill: none; stroke: #b0b0b0; stroke-width: 0.8; stroke-linecap: square"/>
     </g>
     <g id="line2d_20">
      <g>
       <use xlink:href="#mc55d158f03" x="82.132464" y="312.12" style="stroke: #000000; stroke-width: 0.8"/>
      </g>
     </g>
     <g id="text_11">
      <!-- $\mathdefault{4}$ -->
      <g transform="translate(61.425321 322.497748) scale(0.3 -0.3)">
       <use xlink:href="#CMR17-34" transform="scale(0.996264)"/>
      </g>
     </g>
    </g>
    <g id="ytick_6">
     <g id="line2d_21">
      <path d="M 82.132464 244.36 
L 807.532464 244.36 
" clip-path="url(#pb3fbc8d278)" style="fill: none; stroke: #b0b0b0; stroke-width: 0.8; stroke-linecap: square"/>
     </g>
     <g id="line2d_22">
      <g>
       <use xlink:href="#mc55d158f03" x="82.132464" y="244.36" style="stroke: #000000; stroke-width: 0.8"/>
      </g>
     </g>
     <g id="text_12">
      <!-- $\mathdefault{5}$ -->
      <g transform="translate(61.425321 254.737748) scale(0.3 -0.3)">
       <defs>
        <path id="CMR17-35" d="M 730 3692 
C 794 3666 1056 3584 1325 3584 
C 1920 3584 2246 3911 2432 4100 
C 2432 4157 2432 4192 2394 4192 
C 2387 4192 2374 4192 2323 4163 
C 2099 4058 1837 3973 1517 3973 
C 1325 3973 1037 3999 723 4139 
C 653 4171 640 4171 634 4171 
C 602 4171 595 4164 595 4037 
L 595 2203 
C 595 2089 595 2057 659 2057 
C 691 2057 704 2070 736 2114 
C 941 2401 1222 2522 1542 2522 
C 1766 2522 2246 2382 2246 1289 
C 2246 1085 2246 715 2054 421 
C 1894 159 1645 25 1370 25 
C 947 25 518 320 403 814 
C 429 807 480 795 506 795 
C 589 795 749 840 749 1038 
C 749 1210 627 1280 506 1280 
C 358 1280 262 1190 262 1011 
C 262 454 704 -128 1382 -128 
C 2042 -128 2669 440 2669 1264 
C 2669 2030 2170 2624 1549 2624 
C 1222 2624 947 2503 730 2274 
L 730 3692 
z
" transform="scale(0.015625)"/>
       </defs>
       <use xlink:href="#CMR17-35" transform="scale(0.996264)"/>
      </g>
     </g>
    </g>
    <g id="ytick_7">
     <g id="line2d_23">
      <path d="M 82.132464 176.6 
L 807.532464 176.6 
" clip-path="url(#pb3fbc8d278)" style="fill: none; stroke: #b0b0b0; stroke-width: 0.8; stroke-linecap: square"/>
     </g>
     <g id="line2d_24">
      <g>
       <use xlink:href="#mc55d158f03" x="82.132464" y="176.6" style="stroke: #000000; stroke-width: 0.8"/>
      </g>
     </g>
     <g id="text_13">
      <!-- $\mathdefault{6}$ -->
      <g transform="translate(61.425321 186.977748) scale(0.3 -0.3)">
       <defs>
        <path id="CMR17-36" d="M 678 2176 
C 678 3690 1395 4032 1811 4032 
C 1946 4032 2272 4009 2400 3776 
C 2298 3776 2106 3776 2106 3553 
C 2106 3381 2246 3323 2336 3323 
C 2394 3323 2566 3348 2566 3560 
C 2566 3954 2246 4179 1805 4179 
C 1043 4179 243 3390 243 1984 
C 243 253 966 -128 1478 -128 
C 2099 -128 2688 427 2688 1283 
C 2688 2081 2170 2662 1517 2662 
C 1126 2662 838 2407 678 1960 
L 678 2176 
z
M 1478 25 
C 691 25 691 1200 691 1436 
C 691 1896 909 2560 1504 2560 
C 1613 2560 1926 2560 2138 2120 
C 2253 1870 2253 1609 2253 1289 
C 2253 944 2253 690 2118 434 
C 1978 171 1773 25 1478 25 
z
" transform="scale(0.015625)"/>
       </defs>
       <use xlink:href="#CMR17-36" transform="scale(0.996264)"/>
      </g>
     </g>
    </g>
    <g id="ytick_8">
     <g id="line2d_25">
      <path d="M 82.132464 108.84 
L 807.532464 108.84 
" clip-path="url(#pb3fbc8d278)" style="fill: none; stroke: #b0b0b0; stroke-width: 0.8; stroke-linecap: square"/>
     </g>
     <g id="line2d_26">
      <g>
       <use xlink:href="#mc55d158f03" x="82.132464" y="108.84" style="stroke: #000000; stroke-width: 0.8"/>
      </g>
     </g>
     <g id="text_14">
      <!-- $\mathdefault{7}$ -->
      <g transform="translate(61.425321 119.217748) scale(0.3 -0.3)">
       <defs>
        <path id="CMR17-37" d="M 2886 3941 
L 2886 4081 
L 1382 4081 
C 634 4081 621 4165 595 4288 
L 480 4288 
L 294 3094 
L 410 3094 
C 429 3215 474 3540 550 3661 
C 589 3712 1062 3712 1171 3712 
L 2579 3712 
L 1869 2661 
C 1395 1954 1069 999 1069 165 
C 1069 89 1069 -128 1299 -128 
C 1530 -128 1530 89 1530 171 
L 1530 465 
C 1530 1508 1709 2196 2003 2636 
L 2886 3941 
z
" transform="scale(0.015625)"/>
       </defs>
       <use xlink:href="#CMR17-37" transform="scale(0.996264)"/>
      </g>
     </g>
    </g>
    <g id="ytick_9">
     <g id="line2d_27">
      <path d="M 82.132464 41.08 
L 807.532464 41.08 
" clip-path="url(#pb3fbc8d278)" style="fill: none; stroke: #b0b0b0; stroke-width: 0.8; stroke-linecap: square"/>
     </g>
     <g id="line2d_28">
      <g>
       <use xlink:href="#mc55d158f03" x="82.132464" y="41.08" style="stroke: #000000; stroke-width: 0.8"/>
      </g>
     </g>
     <g id="text_15">
      <!-- $\mathdefault{8}$ -->
      <g transform="translate(61.425321 51.457748) scale(0.3 -0.3)">
       <defs>
        <path id="CMR17-38" d="M 1741 2264 
C 2144 2467 2554 2773 2554 3263 
C 2554 3841 1990 4179 1472 4179 
C 890 4179 378 3759 378 3180 
C 378 3021 416 2747 666 2505 
C 730 2442 998 2251 1171 2130 
C 883 1983 211 1634 211 934 
C 211 279 838 -128 1459 -128 
C 2144 -128 2720 362 2720 1010 
C 2720 1590 2330 1857 2074 2029 
L 1741 2264 
z
M 902 2822 
C 851 2854 595 3051 595 3351 
C 595 3739 998 4032 1459 4032 
C 1965 4032 2336 3676 2336 3262 
C 2336 2669 1670 2331 1638 2331 
C 1632 2331 1626 2331 1574 2370 
L 902 2822 
z
M 2080 1519 
C 2176 1449 2483 1240 2483 851 
C 2483 381 2010 25 1472 25 
C 890 25 448 438 448 940 
C 448 1443 838 1862 1280 2060 
L 2080 1519 
z
" transform="scale(0.015625)"/>
       </defs>
       <use xlink:href="#CMR17-38" transform="scale(0.996264)"/>
      </g>
     </g>
    </g>
    <g id="text_16">
     <!-- $\frac{T_{tr}}{T_{tr,\infty}}$ -->
     <g transform="translate(38.349699 337.153071) rotate(-90) scale(0.35 -0.35)">
      <defs>
       <path id="CMMI12-54" d="M 2669 3910 
C 2707 4064 2720 4121 2816 4147 
C 2867 4160 3078 4160 3213 4160 
C 3853 4160 4154 4134 4154 3634 
C 4154 3537 4128 3295 4090 3057 
L 4083 2980 
C 4083 2954 4109 2916 4147 2916 
C 4211 2916 4211 2948 4230 3050 
L 4416 4184 
C 4429 4243 4429 4256 4429 4275 
C 4429 4345 4390 4345 4262 4345 
L 762 4345 
C 614 4345 608 4339 570 4224 
L 179 3070 
C 173 3056 154 2986 154 2980 
C 154 2948 179 2916 218 2916 
C 269 2916 282 2941 307 3024 
C 576 3801 710 4160 1562 4160 
L 1990 4160 
C 2144 4160 2208 4160 2208 4089 
C 2208 4069 2208 4057 2176 3941 
L 1318 499 
C 1254 249 1242 185 563 185 
C 403 185 358 185 358 64 
C 358 0 429 0 461 0 
C 621 0 787 0 947 0 
L 1946 0 
C 2106 0 2278 0 2438 0 
C 2509 0 2573 0 2573 121 
C 2573 185 2528 185 2362 185 
C 1786 185 1786 243 1786 339 
C 1786 346 1786 391 1811 494 
L 2669 3910 
z
" transform="scale(0.015625)"/>
       <path id="CMMI12-74" d="M 1286 2566 
L 1875 2566 
C 1997 2566 2061 2566 2061 2681 
C 2061 2752 2022 2752 1894 2752 
L 1331 2752 
L 1568 3692 
C 1594 3781 1594 3794 1594 3840 
C 1594 3943 1510 4000 1427 4000 
C 1376 4000 1229 3981 1178 3775 
L 928 2752 
L 326 2752 
C 198 2752 141 2752 141 2630 
C 141 2566 186 2566 307 2566 
L 877 2566 
L 454 881 
C 403 658 384 594 384 511 
C 384 211 595 -64 954 -64 
C 1600 -64 1946 868 1946 912 
C 1946 951 1920 970 1882 970 
C 1869 970 1843 970 1830 944 
C 1824 938 1818 931 1773 829 
C 1638 511 1344 64 973 64 
C 781 64 768 224 768 364 
C 768 370 768 492 787 568 
L 1286 2566 
z
" transform="scale(0.015625)"/>
       <path id="CMMI12-72" d="M 2490 2612 
C 2291 2574 2189 2433 2189 2293 
C 2189 2139 2310 2088 2400 2088 
C 2579 2088 2726 2242 2726 2433 
C 2726 2638 2528 2816 2208 2816 
C 1952 2816 1658 2701 1389 2312 
C 1344 2650 1088 2816 832 2816 
C 582 2816 454 2625 378 2484 
C 269 2254 173 1871 173 1839 
C 173 1814 198 1782 243 1782 
C 294 1782 301 1788 339 1935 
C 435 2318 557 2689 813 2689 
C 966 2689 1011 2580 1011 2395 
C 1011 2254 947 2005 902 1807 
L 723 1118 
C 698 996 627 709 595 594 
C 550 428 480 128 480 96 
C 480 6 550 -64 646 -64 
C 717 -64 838 -19 877 109 
C 896 160 1133 1124 1171 1271 
C 1203 1411 1242 1546 1274 1686 
C 1299 1775 1325 1878 1344 1961 
C 1363 2018 1536 2331 1696 2472 
C 1773 2542 1939 2689 2202 2689 
C 2304 2689 2406 2670 2490 2612 
z
" transform="scale(0.015625)"/>
       <path id="CMSY10-31" d="M 3251 1730 
C 2906 2166 2829 2262 2630 2422 
C 2272 2710 1914 2825 1587 2825 
C 838 2825 352 2122 352 1374 
C 352 639 826 -70 1562 -70 
C 2298 -70 2829 511 3142 1022 
C 3488 588 3565 492 3763 332 
C 4122 45 4480 -70 4806 -70 
C 5555 -70 6042 633 6042 1380 
C 6042 2115 5568 2825 4832 2825 
C 4096 2825 3565 2242 3251 1730 
z
M 3418 1514 
C 3680 1975 4154 2620 4877 2620 
C 5555 2620 5901 1955 5901 1380 
C 5901 753 5472 236 4909 236 
C 4538 236 4250 505 4115 638 
C 3955 811 3808 1009 3418 1514 
z
M 2976 1240 
C 2714 780 2240 134 1517 134 
C 838 134 493 799 493 1374 
C 493 2000 922 2518 1485 2518 
C 1856 2518 2144 2249 2278 2115 
C 2438 1943 2586 1744 2976 1240 
z
" transform="scale(0.015625)"/>
      </defs>
      <use xlink:href="#CMMI12-54" transform="translate(30.326112 41.344728) scale(0.697382)"/>
      <use xlink:href="#CMMI12-74" transform="translate(70.348467 30.884032) scale(0.498132)"/>
      <use xlink:href="#CMMI12-72" transform="translate(87.961633 30.884032) scale(0.498132)"/>
      <use xlink:href="#CMMI12-54" transform="translate(0 -34.355253) scale(0.697382)"/>
      <use xlink:href="#CMMI12-74" transform="translate(40.022356 -44.815949) scale(0.498132)"/>
      <use xlink:href="#CMMI12-72" transform="translate(57.635521 -44.815949) scale(0.498132)"/>
      <use xlink:href="#CMMI12-3b" transform="translate(78.261102 -44.815949) scale(0.498132)"/>
      <use xlink:href="#CMSY10-31" transform="translate(91.80969 -44.815949) scale(0.498132)"/>
      <path d="M 0 22.914133 
L 142.121159 22.914133 
L 142.121159 26.899083 
L 0 26.899083 
L 0 22.914133 
z
"/>
     </g>
    </g>
   </g>
   <g id="line2d_29">
    <path d="M 95.565797 516.518259 
L 127.150808 516.320109 
L 136.88038 516.118996 
L 143.983365 515.847537 
L 149.169117 515.511657 
L 152.955507 515.10961 
L 155.720628 514.64647 
L 157.740536 514.116677 
L 159.216804 513.428022 
L 160.395535 512.644825 
L 161.564 511.151536 
L 162.732464 487.628791 
L 163.93003 423.050976 
L 165.127596 410.354799 
L 166.325161 402.310086 
L 167.522727 410.633686 
L 168.720293 411.404286 
L 172.312991 409.268427 
L 175.905688 407.829352 
L 179.498386 406.911861 
L 181.893518 406.475724 
L 186.683781 405.997078 
L 190.276478 405.925809 
L 226.587023 406.731796 
L 247.818657 406.948228 
L 256.575581 406.939551 
L 269.83151 407.107701 
L 293.682881 407.3975 
L 359.50381 407.893001 
L 380.862319 407.803492 
L 401.70282 407.521745 
L 408.576271 407.148475 
L 410.613207 406.902802 
L 412.06472 406.605115 
L 414.336522 405.864746 
L 416.598591 404.938627 
L 417.729625 404.412647 
L 421.122728 402.171136 
L 422.253763 362.032221 
L 423.078558 83.981664 
L 423.903353 125.839471 
L 424.728149 134.571954 
L 425.552944 140.805906 
L 427.202535 166.207924 
L 429.676921 192.435546 
L 430.501716 198.616524 
L 432.976102 212.375487 
L 434.625693 219.379811 
L 437.100079 227.741629 
L 438.74967 232.362385 
L 441.224056 238.050925 
L 444.523237 244.222806 
L 446.997623 248.257038 
L 449.472009 251.889777 
L 452.771191 256.265193 
L 456.070372 260.577139 
L 457.719963 262.927016 
L 459.378 265.90641 
L 461.225601 269.717072 
L 463.391057 275.02284 
L 465.940755 282.312435 
L 468.944963 291.867877 
L 470.646363 298.101344 
L 472.496259 303.46985 
L 474.508285 308.297432 
L 476.69738 312.806864 
L 479.080106 316.526618 
L 481.67353 318.529386 
L 484.493491 319.818952 
L 487.562434 320.241446 
L 494.52115 319.801344 
L 507.315144 318.576899 
L 512.274543 317.929472 
L 517.592496 316.953637 
L 529.166039 315.271666 
L 535.104565 314.586275 
L 541.043092 314.226864 
L 546.981619 314.045735 
L 552.920145 314.122204 
L 558.858672 314.339668 
L 570.735725 315.115668 
L 582.612778 316.050152 
L 588.551305 316.599417 
L 600.428358 318.643299 
L 606.366884 320.203178 
L 612.305411 352.836326 
L 620.701244 388.649295 
L 629.097078 404.758734 
L 637.492911 416.646924 
L 645.888744 425.404211 
L 654.284578 431.391583 
L 662.680411 435.063091 
L 671.076244 437.907924 
L 679.472078 440.583728 
L 687.867911 442.779041 
L 696.263744 444.43754 
L 704.659578 445.842056 
L 721.451244 448.236983 
L 738.242911 450.280498 
L 755.034578 452.266632 
L 763.430411 453.37575 
L 788.617911 457.113822 
L 797.013744 458.179336 
L 805.409578 459.012598 
L 813.805411 459.533961 
L 813.805411 459.533961 
" clip-path="url(#pb3fbc8d278)" style="fill: none; stroke: #ff0000; stroke-width: 3; stroke-linecap: square"/>
   </g>
   <g id="patch_3">
    <path d="M 82.132464 617.04 
L 82.132464 7.2 
" style="fill: none; stroke: #000000; stroke-width: 0.8; stroke-linejoin: miter; stroke-linecap: square"/>
   </g>
   <g id="patch_4">
    <path d="M 807.532464 617.04 
L 807.532464 7.2 
" style="fill: none; stroke: #000000; stroke-width: 0.8; stroke-linejoin: miter; stroke-linecap: square"/>
   </g>
   <g id="patch_5">
    <path d="M 82.132464 617.04 
L 807.532464 617.04 
" style="fill: none; stroke: #000000; stroke-width: 0.8; stroke-linejoin: miter; stroke-linecap: square"/>
   </g>
   <g id="patch_6">
    <path d="M 82.132464 7.2 
L 807.532464 7.2 
" style="fill: none; stroke: #000000; stroke-width: 0.8; stroke-linejoin: miter; stroke-linecap: square"/>
   </g>
   <g id="legend_1">
    <g id="patch_7">
     <path d="M 588.466537 132.764702 
L 783.032464 132.764702 
Q 790.032464 132.764702 790.032464 125.764702 
L 790.032464 31.7 
Q 790.032464 24.7 783.032464 24.7 
L 588.466537 24.7 
Q 581.466537 24.7 581.466537 31.7 
L 581.466537 125.764702 
Q 581.466537 132.764702 588.466537 132.764702 
z
" style="fill: #ffffff; stroke: #cccccc; stroke-linejoin: miter"/>
    </g>
    <g id="patch_8">
     <path d="M 595.466537 63.2 
L 665.466537 63.2 
L 665.466537 38.7 
L 595.466537 38.7 
z
" style="fill: #99ccff; fill-opacity: 0.7"/>
    </g>
    <g id="text_17">
     <!-- $\mu \pm \sigma$ -->
     <g transform="translate(693.466537 63.2) scale(0.35 -0.35)">
      <defs>
       <path id="CMMI12-16" d="M 922 140 
C 1082 -6 1318 -64 1536 -64 
C 1946 -64 2227 208 2374 405 
C 2438 69 2707 -64 2931 -64 
C 3123 -64 3277 50 3392 277 
C 3494 493 3584 879 3584 903 
C 3584 935 3558 960 3520 960 
C 3462 960 3456 928 3430 834 
C 3334 461 3213 64 2950 64 
C 2765 64 2752 229 2752 358 
C 2752 504 2810 735 2854 926 
L 3034 1615 
C 3059 1737 3130 2023 3162 2139 
C 3200 2292 3270 2567 3270 2592 
C 3270 2688 3194 2752 3098 2752 
C 3040 2752 2906 2726 2854 2535 
L 2406 760 
C 2374 632 2374 619 2291 517 
C 2214 409 1965 64 1562 64 
C 1203 64 1088 326 1088 625 
C 1088 811 1146 1034 1171 1143 
L 1459 2293 
C 1491 2414 1542 2618 1542 2657 
C 1542 2759 1459 2816 1376 2816 
C 1318 2816 1178 2797 1126 2592 
L 198 -1107 
C 192 -1139 179 -1177 179 -1216 
C 179 -1312 256 -1376 352 -1376 
C 538 -1376 576 -1228 621 -1050 
L 922 140 
z
" transform="scale(0.015625)"/>
       <path id="CMSY10-6" d="M 2618 1984 
L 4397 1984 
C 4506 1984 4621 1984 4621 2112 
C 4621 2240 4506 2240 4397 2240 
L 2618 2240 
L 2618 4018 
C 2618 4121 2618 4256 2490 4256 
C 2362 4256 2362 4140 2362 4038 
L 2362 2240 
L 576 2240 
C 467 2240 352 2240 352 2112 
C 352 1984 467 1984 576 1984 
L 2362 1984 
L 2362 256 
L 576 256 
C 467 256 352 256 352 128 
C 352 0 467 0 576 0 
L 4397 0 
C 4506 0 4621 0 4621 128 
C 4621 256 4506 256 4397 256 
L 2618 256 
L 2618 1984 
z
" transform="scale(0.015625)"/>
       <path id="CMMI12-1b" d="M 3251 2408 
C 3334 2408 3546 2408 3546 2612 
C 3546 2752 3424 2752 3309 2752 
L 1894 2752 
C 934 2752 243 1686 243 932 
C 243 390 595 -64 1171 -64 
C 1926 -64 2752 747 2752 1705 
C 2752 1954 2694 2196 2541 2408 
L 3251 2408 
z
M 1178 64 
C 851 64 614 313 614 754 
C 614 1137 845 2408 1786 2408 
C 2061 2408 2368 2274 2368 1781 
C 2368 1558 2266 1021 2042 652 
C 1811 275 1466 64 1178 64 
z
" transform="scale(0.015625)"/>
      </defs>
      <use xlink:href="#CMMI12-16" transform="scale(0.996264)"/>
      <use xlink:href="#CMSY10-6" transform="translate(80.830628 0) scale(0.996264)"/>
      <use xlink:href="#CMMI12-1b" transform="translate(180.457303 0) scale(0.996264)"/>
     </g>
    </g>
    <g id="line2d_30">
     <path d="M 595.466537 99.732351 
L 630.466537 99.732351 
L 665.466537 99.732351 
" style="fill: none; stroke: #ff0000; stroke-width: 3; stroke-linecap: square"/>
    </g>
    <g id="text_18">
     <!-- $\mu$ -->
     <g transform="translate(693.466537 111.982351) scale(0.35 -0.35)">
      <use xlink:href="#CMMI12-16" transform="scale(0.996264)"/>
     </g>
    </g>
   </g>
  </g>
 </g>
 <defs>
  <clipPath id="pb3fbc8d278">
   <rect x="82.132464" y="7.2" width="725.4" height="609.84"/>
  </clipPath>
 </defs>
</svg>
