<?xml version="1.0" encoding="utf-8" standalone="no"?>
<!DOCTYPE svg PUBLIC "-//W3C//DTD SVG 1.1//EN"
  "http://www.w3.org/Graphics/SVG/1.1/DTD/svg11.dtd">
<svg xmlns:xlink="http://www.w3.org/1999/xlink" width="817.340543pt" height="692.806049pt" viewBox="0 0 817.340543 692.806049" xmlns="http://www.w3.org/2000/svg" version="1.1">
 <metadata>
  <rdf:RDF xmlns:dc="http://purl.org/dc/elements/1.1/" xmlns:cc="http://creativecommons.org/ns#" xmlns:rdf="http://www.w3.org/1999/02/22-rdf-syntax-ns#">
   <cc:Work>
    <dc:type rdf:resource="http://purl.org/dc/dcmitype/StillImage"/>
    <dc:date>2025-03-27T12:27:08.243893</dc:date>
    <dc:format>image/svg+xml</dc:format>
    <dc:creator>
     <cc:Agent>
      <dc:title>Matplotlib v3.7.1, https://matplotlib.org/</dc:title>
     </cc:Agent>
    </dc:creator>
   </cc:Work>
  </rdf:RDF>
 </metadata>
 <defs>
  <style type="text/css">*{stroke-linejoin: round; stroke-linecap: butt}</style>
 </defs>
 <g id="figure_1">
  <g id="patch_1">
   <path d="M 0 692.806049 
L 817.340543 692.806049 
L 817.340543 0 
L 0 0 
z
" style="fill: #ffffff"/>
  </g>
  <g id="axes_1">
   <g id="patch_2">
    <path d="M 84.740543 617.04 
L 810.140543 617.04 
L 810.140543 7.2 
L 84.740543 7.2 
z
" style="fill: #ffffff"/>
   </g>
   <g id="PolyCollection_1">
    <path d="M 98.173876 44.371671 
L 98.173876 27.661097 
L 116.431039 27.661097 
L 129.758886 27.661097 
L 139.488459 27.661097 
L 146.591443 27.661097 
L 151.777195 27.661097 
L 155.563586 27.661097 
L 158.328706 27.661097 
L 160.348615 27.661097 
L 161.824883 27.661097 
L 163.003614 27.661097 
L 164.172078 27.661097 
L 165.340543 27.661097 
L 166.538108 27.661097 
L 167.735674 27.661097 
L 168.93324 27.661097 
L 170.130806 27.661097 
L 171.328372 27.661097 
L 172.525938 27.661097 
L 173.723503 27.661097 
L 174.921069 27.661097 
L 176.118635 27.661097 
L 177.316201 27.661097 
L 178.513767 27.661097 
L 179.711333 27.661097 
L 180.908899 27.661097 
L 182.106464 27.661097 
L 183.30403 27.661097 
L 184.501596 27.661097 
L 185.699162 27.661097 
L 186.896728 27.661097 
L 188.094294 27.661097 
L 189.29186 27.661097 
L 190.489425 27.661097 
L 191.686991 27.661097 
L 192.884557 27.661097 
L 194.082123 27.661097 
L 195.279689 27.661097 
L 196.477255 27.661097 
L 197.67482 27.661097 
L 198.872386 27.661097 
L 200.069952 27.661097 
L 201.267518 27.661097 
L 202.465084 27.661097 
L 203.66265 27.661097 
L 204.860216 27.661097 
L 206.057781 27.661098 
L 207.255348 27.661098 
L 208.483084 27.661098 
L 209.754687 27.661099 
L 211.072047 27.661099 
L 212.437687 27.6611 
L 213.854188 27.661102 
L 215.323037 27.661104 
L 216.846002 27.661107 
L 218.425143 27.661111 
L 220.062728 27.661116 
L 221.760188 27.661124 
L 223.519294 27.661134 
L 225.342524 27.661148 
L 227.233206 27.661166 
L 229.195102 27.661193 
L 231.22732 27.661226 
L 233.334433 27.661272 
L 235.520279 27.661331 
L 237.784986 27.661412 
L 240.13438 27.661513 
L 242.569764 27.661652 
L 245.094029 27.661823 
L 247.712249 27.662056 
L 250.426736 27.662341 
L 253.240878 27.662722 
L 256.158537 27.663187 
L 259.183659 27.663799 
L 262.320153 27.664542 
L 265.571987 27.665505 
L 268.943457 27.666669 
L 272.439589 27.668156 
L 276.064277 27.669943 
L 279.822265 27.672193 
L 283.718869 27.674882 
L 287.759142 27.678222 
L 291.947918 27.682187 
L 296.29096 27.687049 
L 300.794123 27.692781 
L 305.463282 27.699719 
L 310.304339 27.707844 
L 315.29816 27.717553 
L 320.435983 27.728847 
L 325.762941 27.742175 
L 331.286498 27.757567 
L 337.013522 27.775512 
L 342.951641 27.79608 
L 349.108683 27.819775 
L 355.492614 27.846738 
L 362.111889 27.877478 
L 368.97529 27.912288 
L 376.091697 27.951573 
L 383.470397 27.995944 
L 391.12112 28.04568 
L 398.673979 28.102003 
L 404.310899 28.165432 
L 408.325155 28.237577 
L 411.18435 28.317902 
L 413.221285 28.409526 
L 414.672799 28.51152 
L 415.813566 28.62704 
L 416.9446 28.754093 
L 418.075635 28.893773 
L 419.206669 29.043507 
L 420.337704 29.199996 
L 421.468738 29.36495 
L 422.599772 29.530263 
L 423.730807 29.720271 
L 424.861841 29.915855 
L 425.686637 30.161182 
L 426.511432 30.458271 
L 427.336227 30.884039 
L 428.161023 31.304988 
L 428.985818 31.728753 
L 429.810613 32.118902 
L 430.635409 32.512987 
L 431.460204 32.919707 
L 432.284999 33.33641 
L 433.109795 33.772403 
L 433.93459 34.215936 
L 434.759385 34.67163 
L 435.584181 35.145698 
L 436.408976 35.629725 
L 437.233772 36.098091 
L 438.058567 36.560371 
L 438.883362 37.054676 
L 439.708158 37.55315 
L 440.532953 38.038846 
L 441.357748 38.493323 
L 442.182544 38.930911 
L 443.007339 39.366164 
L 443.832134 39.799012 
L 444.65693 40.22458 
L 445.481725 40.636369 
L 446.30652 41.023915 
L 447.131316 41.396005 
L 447.956111 41.755661 
L 448.780907 42.108629 
L 449.605702 42.448818 
L 450.430497 42.769125 
L 451.255293 43.062909 
L 452.080088 43.340724 
L 452.904883 43.602106 
L 453.729679 43.852164 
L 454.554474 44.085131 
L 455.379269 44.307022 
L 456.204065 44.51578 
L 457.02886 44.713204 
L 457.853655 44.899321 
L 458.678451 45.075295 
L 459.503246 45.233778 
L 460.328042 45.377099 
L 461.152837 45.500383 
L 461.986079 45.608151 
L 462.871043 45.699492 
L 463.83368 45.779358 
L 464.871621 45.841962 
L 465.999135 45.890009 
L 467.222962 45.920673 
L 468.548834 45.936031 
L 469.987944 45.934434 
L 471.553042 45.921009 
L 473.254441 45.896536 
L 475.104338 45.868755 
L 477.116364 45.835527 
L 479.305458 45.804717 
L 481.688184 45.772949 
L 484.281608 45.748086 
L 487.10157 45.728143 
L 490.170512 45.719931 
L 493.505407 45.722372 
L 497.129228 45.743326 
L 501.060907 45.783887 
L 505.319758 45.850351 
L 509.923223 45.938557 
L 514.882622 46.045913 
L 520.200574 46.158938 
L 525.860121 46.270594 
L 531.774117 46.385727 
L 537.712644 46.509147 
L 543.651171 46.624521 
L 549.589697 46.730835 
L 555.528224 46.832985 
L 561.46675 46.938293 
L 567.405277 47.03969 
L 573.343803 47.129429 
L 579.28233 47.192895 
L 585.220857 47.246502 
L 591.159383 47.278805 
L 597.09791 47.30136 
L 603.036436 47.294959 
L 608.974963 47.281525 
L 614.913489 47.24736 
L 623.309323 47.208414 
L 631.705156 47.160649 
L 640.100989 47.152479 
L 648.496823 47.14149 
L 656.892656 47.127239 
L 665.288489 47.088687 
L 673.684323 47.045567 
L 682.080156 46.992238 
L 690.475989 46.938228 
L 698.871823 46.881549 
L 707.267656 46.831451 
L 715.663489 46.779228 
L 724.059323 46.729629 
L 732.455156 46.679492 
L 740.850989 46.632978 
L 749.246823 46.58915 
L 757.642656 46.550674 
L 766.038489 46.517566 
L 774.434323 46.49005 
L 782.830156 46.466614 
L 791.225989 46.445672 
L 799.621823 46.428103 
L 808.017656 46.414425 
L 816.413489 46.405799 
L 816.413489 66.269807 
L 816.413489 66.269807 
L 808.017656 66.271275 
L 799.621823 66.270562 
L 791.225989 66.26694 
L 782.830156 66.260615 
L 774.434323 66.251584 
L 766.038489 66.241937 
L 757.642656 66.23457 
L 749.246823 66.229057 
L 740.850989 66.226272 
L 732.455156 66.222725 
L 724.059323 66.220261 
L 715.663489 66.212881 
L 707.267656 66.206045 
L 698.871823 66.19124 
L 690.475989 66.182695 
L 682.080156 66.164538 
L 673.684323 66.145129 
L 665.288489 66.10751 
L 656.892656 66.063662 
L 648.496823 65.989002 
L 640.100989 65.908788 
L 631.705156 65.832772 
L 623.309323 65.79251 
L 614.913489 65.759385 
L 608.974963 65.703687 
L 603.036436 65.643644 
L 597.09791 65.564412 
L 591.159383 65.468388 
L 585.220857 65.364583 
L 579.28233 65.250469 
L 573.343803 65.136314 
L 567.405277 65.002936 
L 561.46675 64.8699 
L 555.528224 64.744296 
L 549.589697 64.63691 
L 543.651171 64.538424 
L 537.712644 64.447024 
L 531.774117 64.36474 
L 525.860121 64.312973 
L 520.200574 64.280124 
L 514.882622 64.253044 
L 509.923223 64.234088 
L 505.319758 64.231119 
L 501.060907 64.243205 
L 497.129228 64.274684 
L 493.505407 64.317587 
L 490.170512 64.373595 
L 487.10157 64.437012 
L 484.281608 64.511711 
L 481.688184 64.593166 
L 479.305458 64.685814 
L 477.116364 64.782448 
L 475.104338 64.886926 
L 473.254441 64.99143 
L 471.553042 65.096879 
L 469.987944 65.195107 
L 468.548834 65.284526 
L 467.222962 65.357112 
L 465.999135 65.414667 
L 464.871621 65.453185 
L 463.83368 65.475162 
L 462.871043 65.479838 
L 461.986079 65.470898 
L 461.152837 65.445794 
L 460.328042 65.403557 
L 459.503246 65.341888 
L 458.678451 65.263053 
L 457.853655 65.168198 
L 457.02886 65.061915 
L 456.204065 64.943502 
L 455.379269 64.814077 
L 454.554474 64.670541 
L 453.729679 64.51425 
L 452.904883 64.342441 
L 452.080088 64.156039 
L 451.255293 63.954479 
L 450.430497 63.734976 
L 449.605702 63.489497 
L 448.780907 63.222653 
L 447.956111 62.942828 
L 447.131316 62.653747 
L 446.30652 62.350056 
L 445.481725 62.026019 
L 444.65693 61.671641 
L 443.832134 61.294179 
L 443.007339 60.897902 
L 442.182544 60.484487 
L 441.357748 60.052105 
L 440.532953 59.581926 
L 439.708158 59.059283 
L 438.883362 58.497243 
L 438.058567 57.915074 
L 437.233772 57.333864 
L 436.408976 56.719911 
L 435.584181 56.056264 
L 434.759385 55.37375 
L 433.93459 54.673141 
L 433.109795 53.950735 
L 432.284999 53.196468 
L 431.460204 52.418291 
L 430.635409 51.606336 
L 429.810613 50.769657 
L 428.985818 49.929058 
L 428.161023 49.099968 
L 427.336227 48.368191 
L 426.511432 47.75561 
L 425.686637 47.360787 
L 424.861841 47.063175 
L 423.730807 46.828001 
L 422.599772 46.595317 
L 421.468738 46.385478 
L 420.337704 46.173864 
L 419.206669 45.971944 
L 418.075635 45.77748 
L 416.9446 45.597073 
L 415.813566 45.432866 
L 414.672799 45.285998 
L 413.221285 45.157823 
L 411.18435 45.045707 
L 408.325155 44.949685 
L 404.310899 44.866251 
L 398.673979 44.795077 
L 391.12112 44.733911 
L 383.470397 44.681583 
L 376.091697 44.636301 
L 368.97529 44.597335 
L 362.111889 44.563669 
L 355.492614 44.534621 
L 349.108683 44.509649 
L 342.951641 44.488088 
L 337.013522 44.469663 
L 331.286498 44.45379 
L 325.762941 44.440342 
L 320.435983 44.428797 
L 315.29816 44.41911 
L 310.304339 44.410824 
L 305.463282 44.403945 
L 300.794123 44.398086 
L 296.29096 44.393277 
L 291.947918 44.389199 
L 287.759142 44.385894 
L 283.718869 44.383105 
L 279.822265 44.380873 
L 276.064277 44.379 
L 272.439589 44.37752 
L 268.943457 44.376285 
L 265.571987 44.375322 
L 262.320153 44.374523 
L 259.183659 44.373909 
L 256.158537 44.373401 
L 253.240878 44.373017 
L 250.426736 44.372701 
L 247.712249 44.372465 
L 245.094029 44.372273 
L 242.569764 44.372131 
L 240.13438 44.372016 
L 237.784986 44.371932 
L 235.520279 44.371865 
L 233.334433 44.371817 
L 231.22732 44.371778 
L 229.195102 44.371751 
L 227.233206 44.371729 
L 225.342524 44.371714 
L 223.519294 44.371702 
L 221.760188 44.371694 
L 220.062728 44.371687 
L 218.425143 44.371683 
L 216.846002 44.371679 
L 215.323037 44.371677 
L 213.854188 44.371675 
L 212.437687 44.371674 
L 211.072047 44.371673 
L 209.754687 44.371673 
L 208.483084 44.371672 
L 207.255348 44.371672 
L 206.057781 44.371672 
L 204.860216 44.371672 
L 203.66265 44.371672 
L 202.465084 44.371672 
L 201.267518 44.371672 
L 200.069952 44.371671 
L 198.872386 44.371671 
L 197.67482 44.371671 
L 196.477255 44.371671 
L 195.279689 44.371671 
L 194.082123 44.371671 
L 192.884557 44.371671 
L 191.686991 44.371671 
L 190.489425 44.371671 
L 189.29186 44.371671 
L 188.094294 44.371671 
L 186.896728 44.371671 
L 185.699162 44.371671 
L 184.501596 44.371671 
L 183.30403 44.371671 
L 182.106464 44.371671 
L 180.908899 44.371671 
L 179.711333 44.371671 
L 178.513767 44.371671 
L 177.316201 44.371671 
L 176.118635 44.371671 
L 174.921069 44.371671 
L 173.723503 44.371671 
L 172.525938 44.371671 
L 171.328372 44.371671 
L 170.130806 44.371671 
L 168.93324 44.371671 
L 167.735674 44.371671 
L 166.538108 44.371671 
L 165.340543 44.371671 
L 164.172078 44.371671 
L 163.003614 44.371671 
L 161.824883 44.371671 
L 160.348615 44.371671 
L 158.328706 44.371671 
L 155.563586 44.371671 
L 151.777195 44.371671 
L 146.591443 44.371671 
L 139.488459 44.371671 
L 129.758886 44.371671 
L 116.431039 44.371671 
L 98.173876 44.371671 
z
" clip-path="url(#p6145fc598e)" style="fill: #008000; fill-opacity: 0.2"/>
   </g>
   <g id="PolyCollection_2">
    <path d="M 98.173876 448.629554 
L 98.173876 431.918979 
L 116.431039 431.918979 
L 129.758886 431.918979 
L 139.488459 431.918979 
L 146.591443 431.918979 
L 151.777195 431.918979 
L 155.563586 431.918979 
L 158.328706 431.918979 
L 160.348615 431.918979 
L 161.824883 431.918979 
L 163.003614 431.918979 
L 164.172078 431.918979 
L 165.340543 431.918979 
L 166.538108 431.918979 
L 167.735674 431.918979 
L 168.93324 431.918979 
L 170.130806 431.918979 
L 171.328372 431.918979 
L 172.525938 431.918979 
L 173.723503 431.918979 
L 174.921069 431.918979 
L 176.118635 431.918979 
L 177.316201 431.918979 
L 178.513767 431.918979 
L 179.711333 431.918979 
L 180.908899 431.918979 
L 182.106464 431.918979 
L 183.30403 431.918979 
L 184.501596 431.918979 
L 185.699162 431.918979 
L 186.896728 431.918979 
L 188.094294 431.918979 
L 189.29186 431.918979 
L 190.489425 431.918979 
L 191.686991 431.918979 
L 192.884557 431.918979 
L 194.082123 431.918979 
L 195.279689 431.918979 
L 196.477255 431.918979 
L 197.67482 431.918979 
L 198.872386 431.918979 
L 200.069952 431.918979 
L 201.267518 431.918979 
L 202.465084 431.91898 
L 203.66265 431.91898 
L 204.860216 431.91898 
L 206.057781 431.91898 
L 207.255348 431.91898 
L 208.483084 431.91898 
L 209.754687 431.91898 
L 211.072047 431.91898 
L 212.437687 431.918981 
L 213.854188 431.918981 
L 215.323037 431.918982 
L 216.846002 431.918983 
L 218.425143 431.918984 
L 220.062728 431.918986 
L 221.760188 431.918988 
L 223.519294 431.918992 
L 225.342524 431.918996 
L 227.233206 431.919003 
L 229.195102 431.919011 
L 231.22732 431.919022 
L 233.334433 431.919037 
L 235.520279 431.919057 
L 237.784986 431.919083 
L 240.13438 431.919118 
L 242.569764 431.919162 
L 245.094029 431.91922 
L 247.712249 431.919294 
L 250.426736 431.91939 
L 253.240878 431.91951 
L 256.158537 431.919664 
L 259.183659 431.919855 
L 262.320153 431.920096 
L 265.571987 431.920391 
L 268.943457 431.920757 
L 272.439589 431.921198 
L 276.064277 431.921736 
L 279.822265 431.922372 
L 283.718869 431.923131 
L 287.759142 431.924008 
L 291.947918 431.925024 
L 296.29096 431.926164 
L 300.794123 431.927433 
L 305.463282 431.928793 
L 310.304339 431.930215 
L 315.29816 431.931614 
L 320.435983 431.932901 
L 325.762941 431.933912 
L 331.286498 431.93445 
L 337.013522 431.934224 
L 342.951641 431.932871 
L 349.108683 431.929902 
L 355.492614 431.924716 
L 362.111889 431.916546 
L 368.97529 431.904466 
L 376.091697 431.887363 
L 383.470397 431.863945 
L 391.12112 431.832791 
L 398.673979 431.792359 
L 404.310899 431.740131 
L 408.325155 431.673617 
L 411.18435 431.591577 
L 413.221285 431.493553 
L 414.672799 431.381704 
L 415.813566 431.267013 
L 416.9446 431.159981 
L 418.075635 431.088102 
L 419.206669 431.078694 
L 420.337704 431.186366 
L 421.468738 431.468066 
L 422.599772 432.085412 
L 423.730807 433.075612 
L 424.861841 434.581787 
L 425.686637 436.42372 
L 426.511432 438.3223 
L 427.336227 439.725891 
L 428.161023 440.373322 
L 428.985818 441.190233 
L 429.810613 442.895309 
L 430.635409 445.165085 
L 431.460204 447.820232 
L 432.284999 450.578351 
L 433.109795 453.471324 
L 433.93459 456.519051 
L 434.759385 459.504273 
L 435.584181 462.570558 
L 436.408976 465.466941 
L 437.233772 468.383249 
L 438.058567 471.150213 
L 438.883362 473.90496 
L 439.708158 476.471907 
L 440.532953 478.987649 
L 441.357748 481.286359 
L 442.182544 483.483458 
L 443.007339 485.532308 
L 443.832134 487.454629 
L 444.65693 489.26341 
L 445.481725 491.01075 
L 446.30652 492.64995 
L 447.131316 494.25969 
L 447.956111 495.764779 
L 448.780907 497.234722 
L 449.605702 498.550765 
L 450.430497 499.845946 
L 451.255293 501.011006 
L 452.080088 502.18792 
L 452.904883 503.134226 
L 453.729679 504.290206 
L 454.554474 505.170152 
L 455.379269 506.100419 
L 456.204065 507.12213 
L 457.02886 507.879247 
L 457.853655 508.685208 
L 458.678451 509.572604 
L 459.503246 510.157594 
L 460.328042 510.903205 
L 461.152837 511.422015 
L 461.986079 511.925549 
L 462.871043 512.242482 
L 463.83368 512.622368 
L 464.871621 512.845723 
L 465.999135 513.010081 
L 467.222962 513.169648 
L 468.548834 513.121807 
L 469.987944 513.123265 
L 471.553042 513.018853 
L 473.254441 512.816936 
L 475.104338 512.63243 
L 477.116364 512.31653 
L 479.305458 512.006841 
L 481.688184 511.699217 
L 484.281608 511.369159 
L 487.10157 511.168329 
L 490.170512 511.008158 
L 493.505407 510.974356 
L 497.129228 511.117587 
L 501.060907 511.398846 
L 505.319758 511.942257 
L 509.923223 512.614204 
L 514.882622 513.727542 
L 520.200574 514.874523 
L 525.860121 516.45331 
L 531.774117 518.22375 
L 537.712644 520.232428 
L 543.651171 522.583181 
L 549.589697 525.078836 
L 555.528224 527.688683 
L 561.46675 530.417294 
L 567.405277 533.155343 
L 573.343803 535.838658 
L 579.28233 538.552393 
L 585.220857 541.065057 
L 591.159383 543.479599 
L 597.09791 545.697388 
L 603.036436 547.72015 
L 608.974963 549.364298 
L 614.913489 550.934888 
L 623.309323 552.01581 
L 631.705156 553.103758 
L 640.100989 553.865377 
L 648.496823 554.580441 
L 656.892656 555.116063 
L 665.288489 555.578164 
L 673.684323 555.920539 
L 682.080156 556.191038 
L 690.475989 556.395149 
L 698.871823 556.56282 
L 707.267656 556.699518 
L 715.663489 556.814988 
L 724.059323 556.910455 
L 732.455156 556.997671 
L 740.850989 557.074318 
L 749.246823 557.144414 
L 757.642656 557.211211 
L 766.038489 557.266878 
L 774.434323 557.321894 
L 782.830156 557.362289 
L 791.225989 557.399867 
L 799.621823 557.425632 
L 808.017656 557.443748 
L 816.413489 557.453035 
L 816.413489 587.377818 
L 816.413489 587.377818 
L 808.017656 587.375435 
L 799.621823 587.371027 
L 791.225989 587.363544 
L 782.830156 587.353642 
L 774.434323 587.338977 
L 766.038489 587.32196 
L 757.642656 587.299632 
L 749.246823 587.273555 
L 740.850989 587.241852 
L 732.455156 587.203502 
L 724.059323 587.15853 
L 715.663489 587.103316 
L 707.267656 587.037079 
L 698.871823 586.953635 
L 690.475989 586.84612 
L 682.080156 586.705894 
L 673.684323 586.523289 
L 665.288489 586.285918 
L 656.892656 585.980528 
L 648.496823 585.590139 
L 640.100989 585.111086 
L 631.705156 584.522027 
L 623.309323 583.859112 
L 614.913489 583.072554 
L 608.974963 582.229043 
L 603.036436 581.262953 
L 597.09791 580.220388 
L 591.159383 579.064671 
L 585.220857 577.815637 
L 579.28233 576.443955 
L 573.343803 575.012492 
L 567.405277 573.486243 
L 561.46675 571.942277 
L 555.528224 570.391949 
L 549.589697 568.89978 
L 543.651171 567.529102 
L 537.712644 566.353822 
L 531.774117 565.384496 
L 525.860121 564.661488 
L 520.200574 564.099502 
L 514.882622 563.611908 
L 509.923223 563.21133 
L 505.319758 562.823139 
L 501.060907 562.48484 
L 497.129228 562.196543 
L 493.505407 561.980078 
L 490.170512 561.842283 
L 487.10157 561.761713 
L 484.281608 561.770143 
L 481.688184 561.816796 
L 479.305458 561.931261 
L 477.116364 562.058928 
L 475.104338 562.213911 
L 473.254441 562.35974 
L 471.553042 562.497314 
L 469.987944 562.601421 
L 468.548834 562.68434 
L 467.222962 562.703915 
L 465.999135 562.683796 
L 464.871621 562.581694 
L 463.83368 562.426457 
L 462.871043 562.2058 
L 461.986079 561.913353 
L 461.152837 561.557651 
L 460.328042 561.109213 
L 459.503246 560.609305 
L 458.678451 560.023379 
L 457.853655 559.416068 
L 457.02886 558.757141 
L 456.204065 558.05363 
L 455.379269 557.336879 
L 454.554474 556.565153 
L 453.729679 555.747246 
L 452.904883 554.89566 
L 452.080088 553.967381 
L 451.255293 552.991035 
L 450.430497 551.943578 
L 449.605702 550.811963 
L 448.780907 549.588777 
L 447.956111 548.270845 
L 447.131316 546.879672 
L 446.30652 545.413111 
L 445.481725 543.881892 
L 444.65693 542.258447 
L 443.832134 540.528687 
L 443.007339 538.639429 
L 442.182544 536.58139 
L 441.357748 534.310891 
L 440.532953 531.834458 
L 439.708158 529.136653 
L 438.883362 526.20291 
L 438.058567 523.034908 
L 437.233772 519.6269 
L 436.408976 515.987204 
L 435.584181 512.111844 
L 434.759385 508.014833 
L 433.93459 503.680484 
L 433.109795 499.13354 
L 432.284999 494.379104 
L 431.460204 489.447704 
L 430.635409 484.391621 
L 429.810613 479.27931 
L 428.985818 474.270288 
L 428.161023 469.741211 
L 427.336227 466.265561 
L 426.511432 463.995666 
L 425.686637 462.117194 
L 424.861841 459.920749 
L 423.730807 457.291808 
L 422.599772 455.167433 
L 421.468738 453.476171 
L 420.337704 452.239016 
L 419.206669 451.333233 
L 418.075635 450.687084 
L 416.9446 450.215769 
L 415.813566 449.871744 
L 414.672799 449.612093 
L 413.221285 449.414536 
L 411.18435 449.258268 
L 408.325155 449.132772 
L 404.310899 449.031227 
L 398.673979 448.948508 
L 391.12112 448.881553 
L 383.470397 448.828059 
L 376.091697 448.785426 
L 368.97529 448.751539 
L 362.111889 448.724713 
L 355.492614 448.703566 
L 349.108683 448.686972 
L 342.951641 448.674005 
L 337.013522 448.663914 
L 331.286498 448.656088 
L 325.762941 448.650038 
L 320.435983 448.64537 
L 315.29816 448.641775 
L 310.304339 448.639009 
L 305.463282 448.636881 
L 300.794123 448.635242 
L 296.29096 448.633978 
L 291.947918 448.633002 
L 287.759142 448.632246 
L 283.718869 448.631658 
L 279.822265 448.631201 
L 276.064277 448.630844 
L 272.439589 448.630564 
L 268.943457 448.630345 
L 265.571987 448.630172 
L 262.320153 448.630037 
L 259.183659 448.62993 
L 256.158537 448.629846 
L 253.240878 448.62978 
L 250.426736 448.629729 
L 247.712249 448.629689 
L 245.094029 448.629657 
L 242.569764 448.629633 
L 240.13438 448.629614 
L 237.784986 448.629599 
L 235.520279 448.629588 
L 233.334433 448.62958 
L 231.22732 448.629573 
L 229.195102 448.629568 
L 227.233206 448.629564 
L 225.342524 448.629562 
L 223.519294 448.62956 
L 221.760188 448.629558 
L 220.062728 448.629557 
L 218.425143 448.629556 
L 216.846002 448.629555 
L 215.323037 448.629555 
L 213.854188 448.629555 
L 212.437687 448.629554 
L 211.072047 448.629554 
L 209.754687 448.629554 
L 208.483084 448.629554 
L 207.255348 448.629554 
L 206.057781 448.629554 
L 204.860216 448.629554 
L 203.66265 448.629554 
L 202.465084 448.629554 
L 201.267518 448.629554 
L 200.069952 448.629554 
L 198.872386 448.629554 
L 197.67482 448.629554 
L 196.477255 448.629554 
L 195.279689 448.629554 
L 194.082123 448.629554 
L 192.884557 448.629554 
L 191.686991 448.629554 
L 190.489425 448.629554 
L 189.29186 448.629554 
L 188.094294 448.629554 
L 186.896728 448.629554 
L 185.699162 448.629554 
L 184.501596 448.629554 
L 183.30403 448.629554 
L 182.106464 448.629554 
L 180.908899 448.629554 
L 179.711333 448.629554 
L 178.513767 448.629554 
L 177.316201 448.629554 
L 176.118635 448.629554 
L 174.921069 448.629554 
L 173.723503 448.629554 
L 172.525938 448.629554 
L 171.328372 448.629554 
L 170.130806 448.629554 
L 168.93324 448.629554 
L 167.735674 448.629554 
L 166.538108 448.629554 
L 165.340543 448.629554 
L 164.172078 448.629554 
L 163.003614 448.629554 
L 161.824883 448.629554 
L 160.348615 448.629554 
L 158.328706 448.629554 
L 155.563586 448.629554 
L 151.777195 448.629554 
L 146.591443 448.629554 
L 139.488459 448.629554 
L 129.758886 448.629554 
L 116.431039 448.629554 
L 98.173876 448.629554 
z
" clip-path="url(#p6145fc598e)" style="fill: #99ccff; fill-opacity: 0.7"/>
   </g>
   <g id="matplotlib.axis_1">
    <g id="xtick_1">
     <g id="line2d_1">
      <path d="M 165.340543 617.04 
L 165.340543 7.2 
" clip-path="url(#p6145fc598e)" style="fill: none; stroke: #b0b0b0; stroke-width: 0.8; stroke-linecap: square"/>
     </g>
     <g id="line2d_2">
      <defs>
       <path id="m21405b52a8" d="M 0 0 
L 0 3.5 
" style="stroke: #000000; stroke-width: 0.8"/>
      </defs>
      <g>
       <use xlink:href="#m21405b52a8" x="165.340543" y="617.04" style="stroke: #000000; stroke-width: 0.8"/>
      </g>
     </g>
     <g id="text_1">
      <!-- $\mathdefault{0.0}$ -->
      <g transform="translate(147.568823 644.795495) scale(0.3 -0.3)">
       <defs>
        <path id="CMR17-30" d="M 2688 2025 
C 2688 2416 2682 3080 2413 3591 
C 2176 4039 1798 4198 1466 4198 
C 1158 4198 768 4058 525 3597 
C 269 3118 243 2524 243 2025 
C 243 1661 250 1106 448 619 
C 723 -39 1216 -128 1466 -128 
C 1760 -128 2208 -7 2470 600 
C 2662 1042 2688 1559 2688 2025 
z
M 1466 -26 
C 1056 -26 813 325 723 812 
C 653 1188 653 1738 653 2096 
C 653 2588 653 2997 736 3387 
C 858 3929 1216 4096 1466 4096 
C 1728 4096 2067 3923 2189 3400 
C 2272 3036 2278 2607 2278 2096 
C 2278 1680 2278 1169 2202 792 
C 2067 95 1690 -26 1466 -26 
z
" transform="scale(0.015625)"/>
        <path id="CMMI12-3a" d="M 1178 307 
C 1178 492 1024 619 870 619 
C 685 619 557 466 557 313 
C 557 128 710 0 864 0 
C 1050 0 1178 153 1178 307 
z
" transform="scale(0.015625)"/>
       </defs>
       <use xlink:href="#CMR17-30" transform="scale(0.996264)"/>
       <use xlink:href="#CMMI12-3a" transform="translate(45.690477 0) scale(0.996264)"/>
       <use xlink:href="#CMR17-30" transform="translate(72.787654 0) scale(0.996264)"/>
      </g>
     </g>
    </g>
    <g id="xtick_2">
     <g id="line2d_3">
      <path d="M 299.673876 617.04 
L 299.673876 7.2 
" clip-path="url(#p6145fc598e)" style="fill: none; stroke: #b0b0b0; stroke-width: 0.8; stroke-linecap: square"/>
     </g>
     <g id="line2d_4">
      <g>
       <use xlink:href="#m21405b52a8" x="299.673876" y="617.04" style="stroke: #000000; stroke-width: 0.8"/>
      </g>
     </g>
     <g id="text_2">
      <!-- $\mathdefault{0.1}$ -->
      <g transform="translate(281.902156 644.795495) scale(0.3 -0.3)">
       <defs>
        <path id="CMR17-31" d="M 1702 4058 
C 1702 4192 1696 4192 1606 4192 
C 1357 3916 979 3827 621 3827 
C 602 3827 570 3827 563 3808 
C 557 3795 557 3782 557 3648 
C 755 3648 1088 3686 1344 3839 
L 1344 461 
C 1344 236 1331 160 781 160 
L 589 160 
L 589 0 
C 896 0 1216 0 1523 0 
C 1830 0 2150 0 2458 0 
L 2458 160 
L 2266 160 
C 1715 160 1702 230 1702 458 
L 1702 4058 
z
" transform="scale(0.015625)"/>
       </defs>
       <use xlink:href="#CMR17-30" transform="scale(0.996264)"/>
       <use xlink:href="#CMMI12-3a" transform="translate(45.690477 0) scale(0.996264)"/>
       <use xlink:href="#CMR17-31" transform="translate(72.787654 0) scale(0.996264)"/>
      </g>
     </g>
    </g>
    <g id="xtick_3">
     <g id="line2d_5">
      <path d="M 434.007209 617.04 
L 434.007209 7.2 
" clip-path="url(#p6145fc598e)" style="fill: none; stroke: #b0b0b0; stroke-width: 0.8; stroke-linecap: square"/>
     </g>
     <g id="line2d_6">
      <g>
       <use xlink:href="#m21405b52a8" x="434.007209" y="617.04" style="stroke: #000000; stroke-width: 0.8"/>
      </g>
     </g>
     <g id="text_3">
      <!-- $\mathdefault{0.2}$ -->
      <g transform="translate(416.23549 644.795495) scale(0.3 -0.3)">
       <defs>
        <path id="CMR17-32" d="M 2669 989 
L 2554 989 
C 2490 536 2438 459 2413 420 
C 2381 369 1920 369 1830 369 
L 602 369 
C 832 619 1280 1072 1824 1597 
C 2214 1967 2669 2402 2669 3035 
C 2669 3790 2067 4224 1395 4224 
C 691 4224 262 3604 262 3030 
C 262 2780 448 2748 525 2748 
C 589 2748 781 2787 781 3010 
C 781 3207 614 3264 525 3264 
C 486 3264 448 3258 422 3245 
C 544 3790 915 4058 1306 4058 
C 1862 4058 2227 3617 2227 3035 
C 2227 2479 1901 2000 1536 1584 
L 262 146 
L 262 0 
L 2515 0 
L 2669 989 
z
" transform="scale(0.015625)"/>
       </defs>
       <use xlink:href="#CMR17-30" transform="scale(0.996264)"/>
       <use xlink:href="#CMMI12-3a" transform="translate(45.690477 0) scale(0.996264)"/>
       <use xlink:href="#CMR17-32" transform="translate(72.787654 0) scale(0.996264)"/>
      </g>
     </g>
    </g>
    <g id="xtick_4">
     <g id="line2d_7">
      <path d="M 568.340543 617.04 
L 568.340543 7.2 
" clip-path="url(#p6145fc598e)" style="fill: none; stroke: #b0b0b0; stroke-width: 0.8; stroke-linecap: square"/>
     </g>
     <g id="line2d_8">
      <g>
       <use xlink:href="#m21405b52a8" x="568.340543" y="617.04" style="stroke: #000000; stroke-width: 0.8"/>
      </g>
     </g>
     <g id="text_4">
      <!-- $\mathdefault{0.3}$ -->
      <g transform="translate(550.568823 644.795495) scale(0.3 -0.3)">
       <defs>
        <path id="CMR17-33" d="M 1414 2157 
C 1984 2157 2234 1662 2234 1090 
C 2234 320 1824 25 1453 25 
C 1114 25 563 194 390 693 
C 422 680 454 680 486 680 
C 640 680 755 782 755 948 
C 755 1133 614 1216 486 1216 
C 378 1216 211 1165 211 926 
C 211 335 787 -128 1466 -128 
C 2176 -128 2720 430 2720 1085 
C 2720 1707 2208 2157 1600 2227 
C 2086 2328 2554 2756 2554 3329 
C 2554 3820 2048 4179 1472 4179 
C 890 4179 378 3829 378 3329 
C 378 3110 544 3072 627 3072 
C 762 3072 877 3155 877 3321 
C 877 3486 762 3569 627 3569 
C 602 3569 570 3569 544 3557 
C 730 3959 1235 4032 1459 4032 
C 1683 4032 2106 3925 2106 3320 
C 2106 3143 2080 2828 1862 2550 
C 1670 2304 1453 2304 1242 2284 
C 1210 2284 1062 2269 1037 2269 
C 992 2263 966 2257 966 2208 
C 966 2163 973 2157 1101 2157 
L 1414 2157 
z
" transform="scale(0.015625)"/>
       </defs>
       <use xlink:href="#CMR17-30" transform="scale(0.996264)"/>
       <use xlink:href="#CMMI12-3a" transform="translate(45.690477 0) scale(0.996264)"/>
       <use xlink:href="#CMR17-33" transform="translate(72.787654 0) scale(0.996264)"/>
      </g>
     </g>
    </g>
    <g id="xtick_5">
     <g id="line2d_9">
      <path d="M 702.673876 617.04 
L 702.673876 7.2 
" clip-path="url(#p6145fc598e)" style="fill: none; stroke: #b0b0b0; stroke-width: 0.8; stroke-linecap: square"/>
     </g>
     <g id="line2d_10">
      <g>
       <use xlink:href="#m21405b52a8" x="702.673876" y="617.04" style="stroke: #000000; stroke-width: 0.8"/>
      </g>
     </g>
     <g id="text_5">
      <!-- $\mathdefault{0.4}$ -->
      <g transform="translate(684.902156 644.795495) scale(0.3 -0.3)">
       <defs>
        <path id="CMR17-34" d="M 2150 4122 
C 2150 4256 2144 4256 2029 4256 
L 128 1254 
L 128 1088 
L 1779 1088 
L 1779 457 
C 1779 224 1766 160 1318 160 
L 1197 160 
L 1197 0 
C 1402 0 1747 0 1965 0 
C 2182 0 2528 0 2733 0 
L 2733 160 
L 2611 160 
C 2163 160 2150 224 2150 457 
L 2150 1088 
L 2803 1088 
L 2803 1254 
L 2150 1254 
L 2150 4122 
z
M 1798 3703 
L 1798 1254 
L 256 1254 
L 1798 3703 
z
" transform="scale(0.015625)"/>
       </defs>
       <use xlink:href="#CMR17-30" transform="scale(0.996264)"/>
       <use xlink:href="#CMMI12-3a" transform="translate(45.690477 0) scale(0.996264)"/>
       <use xlink:href="#CMR17-34" transform="translate(72.787654 0) scale(0.996264)"/>
      </g>
     </g>
    </g>
    <g id="text_6">
     <!-- $x, \; \mathrm{m} $ -->
     <g transform="translate(411.787939 678.823697) scale(0.35 -0.35)">
      <defs>
       <path id="CMMI12-78" d="M 3034 2606 
C 2829 2567 2752 2414 2752 2293 
C 2752 2139 2874 2088 2963 2088 
C 3155 2088 3290 2254 3290 2427 
C 3290 2695 2982 2816 2714 2816 
C 2323 2816 2106 2433 2048 2312 
C 1901 2816 1504 2816 1389 2816 
C 736 2816 390 1980 390 1839 
C 390 1814 416 1782 461 1782 
C 512 1782 525 1820 538 1846 
C 755 2555 1184 2689 1370 2689 
C 1658 2689 1715 2420 1715 2267 
C 1715 2127 1677 1980 1600 1673 
L 1382 798 
C 1286 415 1101 64 762 64 
C 730 64 570 64 435 147 
C 666 192 717 383 717 460 
C 717 588 621 664 499 664 
C 346 664 179 530 179 326 
C 179 57 480 -64 755 -64 
C 1062 -64 1280 179 1414 441 
C 1517 64 1837 -64 2074 -64 
C 2726 -64 3072 773 3072 913 
C 3072 945 3046 971 3008 971 
C 2950 971 2944 939 2925 888 
C 2752 326 2381 64 2093 64 
C 1869 64 1747 230 1747 492 
C 1747 632 1773 734 1875 1156 
L 2099 2024 
C 2195 2408 2413 2689 2707 2689 
C 2720 2689 2899 2689 3034 2606 
z
" transform="scale(0.015625)"/>
       <path id="CMMI12-3b" d="M 1248 -31 
C 1248 343 1126 619 864 619 
C 659 619 557 453 557 313 
C 557 172 653 0 870 0 
C 954 0 1024 26 1082 83 
C 1094 96 1101 96 1107 96 
C 1120 96 1120 5 1120 -27 
C 1120 -240 1082 -659 710 -1080 
C 640 -1157 640 -1170 640 -1183 
C 640 -1216 672 -1248 704 -1248 
C 755 -1248 1248 -771 1248 -31 
z
" transform="scale(0.015625)"/>
       <path id="CMR17-6d" d="M 4326 1933 
C 4326 2252 4269 2790 3507 2790 
C 3072 2790 2771 2496 2656 2151 
L 2650 2151 
C 2573 2676 2195 2790 1837 2790 
C 1331 2790 1069 2400 973 2144 
L 966 2144 
L 966 2790 
L 211 2720 
L 211 2554 
C 589 2554 646 2515 646 2208 
L 646 428 
C 646 184 621 153 211 153 
L 211 -13 
C 365 0 646 0 813 0 
C 979 0 1267 0 1421 -13 
L 1421 153 
C 1011 153 986 178 986 428 
L 986 1658 
C 986 2247 1344 2688 1792 2688 
C 2266 2688 2317 2266 2317 1958 
L 2317 428 
C 2317 184 2291 153 1882 153 
L 1882 -13 
C 2035 0 2317 0 2483 0 
C 2650 0 2938 0 3091 -13 
L 3091 153 
C 2682 153 2656 178 2656 428 
L 2656 1658 
C 2656 2247 3014 2688 3462 2688 
C 3936 2688 3987 2266 3987 1958 
L 3987 428 
C 3987 184 3962 153 3552 153 
L 3552 -13 
C 3706 0 3987 0 4154 0 
C 4320 0 4608 0 4762 -13 
L 4762 153 
C 4352 153 4326 178 4326 428 
L 4326 1933 
z
" transform="scale(0.015625)"/>
      </defs>
      <use xlink:href="#CMMI12-78" transform="scale(0.996264)"/>
      <use xlink:href="#CMMI12-3b" transform="translate(55.43406 0) scale(0.996264)"/>
      <use xlink:href="#CMR17-6d" transform="translate(126.809651 0) scale(0.996264)"/>
     </g>
    </g>
   </g>
   <g id="matplotlib.axis_2">
    <g id="ytick_1">
     <g id="line2d_11">
      <path d="M 84.740543 598.997396 
L 810.140543 598.997396 
" clip-path="url(#p6145fc598e)" style="fill: none; stroke: #b0b0b0; stroke-width: 0.8; stroke-linecap: square"/>
     </g>
     <g id="line2d_12">
      <defs>
       <path id="m59b69b6027" d="M 0 0 
L -3.5 0 
" style="stroke: #000000; stroke-width: 0.8"/>
      </defs>
      <g>
       <use xlink:href="#m59b69b6027" x="84.740543" y="598.997396" style="stroke: #000000; stroke-width: 0.8"/>
      </g>
     </g>
     <g id="text_7">
      <!-- $\mathdefault{0.0}$ -->
      <g transform="translate(42.197103 609.375144) scale(0.3 -0.3)">
       <use xlink:href="#CMR17-30" transform="scale(0.996264)"/>
       <use xlink:href="#CMMI12-3a" transform="translate(45.690477 0) scale(0.996264)"/>
       <use xlink:href="#CMR17-30" transform="translate(72.787654 0) scale(0.996264)"/>
      </g>
     </g>
    </g>
    <g id="ytick_2">
     <g id="line2d_13">
      <path d="M 84.740543 526.826982 
L 810.140543 526.826982 
" clip-path="url(#p6145fc598e)" style="fill: none; stroke: #b0b0b0; stroke-width: 0.8; stroke-linecap: square"/>
     </g>
     <g id="line2d_14">
      <g>
       <use xlink:href="#m59b69b6027" x="84.740543" y="526.826982" style="stroke: #000000; stroke-width: 0.8"/>
      </g>
     </g>
     <g id="text_8">
      <!-- $\mathdefault{0.1}$ -->
      <g transform="translate(42.197103 537.20473) scale(0.3 -0.3)">
       <use xlink:href="#CMR17-30" transform="scale(0.996264)"/>
       <use xlink:href="#CMMI12-3a" transform="translate(45.690477 0) scale(0.996264)"/>
       <use xlink:href="#CMR17-31" transform="translate(72.787654 0) scale(0.996264)"/>
      </g>
     </g>
    </g>
    <g id="ytick_3">
     <g id="line2d_15">
      <path d="M 84.740543 454.656568 
L 810.140543 454.656568 
" clip-path="url(#p6145fc598e)" style="fill: none; stroke: #b0b0b0; stroke-width: 0.8; stroke-linecap: square"/>
     </g>
     <g id="line2d_16">
      <g>
       <use xlink:href="#m59b69b6027" x="84.740543" y="454.656568" style="stroke: #000000; stroke-width: 0.8"/>
      </g>
     </g>
     <g id="text_9">
      <!-- $\mathdefault{0.2}$ -->
      <g transform="translate(42.197103 465.034316) scale(0.3 -0.3)">
       <use xlink:href="#CMR17-30" transform="scale(0.996264)"/>
       <use xlink:href="#CMMI12-3a" transform="translate(45.690477 0) scale(0.996264)"/>
       <use xlink:href="#CMR17-32" transform="translate(72.787654 0) scale(0.996264)"/>
      </g>
     </g>
    </g>
    <g id="ytick_4">
     <g id="line2d_17">
      <path d="M 84.740543 382.486154 
L 810.140543 382.486154 
" clip-path="url(#p6145fc598e)" style="fill: none; stroke: #b0b0b0; stroke-width: 0.8; stroke-linecap: square"/>
     </g>
     <g id="line2d_18">
      <g>
       <use xlink:href="#m59b69b6027" x="84.740543" y="382.486154" style="stroke: #000000; stroke-width: 0.8"/>
      </g>
     </g>
     <g id="text_10">
      <!-- $\mathdefault{0.3}$ -->
      <g transform="translate(42.197103 392.863901) scale(0.3 -0.3)">
       <use xlink:href="#CMR17-30" transform="scale(0.996264)"/>
       <use xlink:href="#CMMI12-3a" transform="translate(45.690477 0) scale(0.996264)"/>
       <use xlink:href="#CMR17-33" transform="translate(72.787654 0) scale(0.996264)"/>
      </g>
     </g>
    </g>
    <g id="ytick_5">
     <g id="line2d_19">
      <path d="M 84.740543 310.31574 
L 810.140543 310.31574 
" clip-path="url(#p6145fc598e)" style="fill: none; stroke: #b0b0b0; stroke-width: 0.8; stroke-linecap: square"/>
     </g>
     <g id="line2d_20">
      <g>
       <use xlink:href="#m59b69b6027" x="84.740543" y="310.31574" style="stroke: #000000; stroke-width: 0.8"/>
      </g>
     </g>
     <g id="text_11">
      <!-- $\mathdefault{0.4}$ -->
      <g transform="translate(42.197103 320.693487) scale(0.3 -0.3)">
       <use xlink:href="#CMR17-30" transform="scale(0.996264)"/>
       <use xlink:href="#CMMI12-3a" transform="translate(45.690477 0) scale(0.996264)"/>
       <use xlink:href="#CMR17-34" transform="translate(72.787654 0) scale(0.996264)"/>
      </g>
     </g>
    </g>
    <g id="ytick_6">
     <g id="line2d_21">
      <path d="M 84.740543 238.145325 
L 810.140543 238.145325 
" clip-path="url(#p6145fc598e)" style="fill: none; stroke: #b0b0b0; stroke-width: 0.8; stroke-linecap: square"/>
     </g>
     <g id="line2d_22">
      <g>
       <use xlink:href="#m59b69b6027" x="84.740543" y="238.145325" style="stroke: #000000; stroke-width: 0.8"/>
      </g>
     </g>
     <g id="text_12">
      <!-- $\mathdefault{0.5}$ -->
      <g transform="translate(42.197103 248.523073) scale(0.3 -0.3)">
       <defs>
        <path id="CMR17-35" d="M 730 3692 
C 794 3666 1056 3584 1325 3584 
C 1920 3584 2246 3911 2432 4100 
C 2432 4157 2432 4192 2394 4192 
C 2387 4192 2374 4192 2323 4163 
C 2099 4058 1837 3973 1517 3973 
C 1325 3973 1037 3999 723 4139 
C 653 4171 640 4171 634 4171 
C 602 4171 595 4164 595 4037 
L 595 2203 
C 595 2089 595 2057 659 2057 
C 691 2057 704 2070 736 2114 
C 941 2401 1222 2522 1542 2522 
C 1766 2522 2246 2382 2246 1289 
C 2246 1085 2246 715 2054 421 
C 1894 159 1645 25 1370 25 
C 947 25 518 320 403 814 
C 429 807 480 795 506 795 
C 589 795 749 840 749 1038 
C 749 1210 627 1280 506 1280 
C 358 1280 262 1190 262 1011 
C 262 454 704 -128 1382 -128 
C 2042 -128 2669 440 2669 1264 
C 2669 2030 2170 2624 1549 2624 
C 1222 2624 947 2503 730 2274 
L 730 3692 
z
" transform="scale(0.015625)"/>
       </defs>
       <use xlink:href="#CMR17-30" transform="scale(0.996264)"/>
       <use xlink:href="#CMMI12-3a" transform="translate(45.690477 0) scale(0.996264)"/>
       <use xlink:href="#CMR17-35" transform="translate(72.787654 0) scale(0.996264)"/>
      </g>
     </g>
    </g>
    <g id="ytick_7">
     <g id="line2d_23">
      <path d="M 84.740543 165.974911 
L 810.140543 165.974911 
" clip-path="url(#p6145fc598e)" style="fill: none; stroke: #b0b0b0; stroke-width: 0.8; stroke-linecap: square"/>
     </g>
     <g id="line2d_24">
      <g>
       <use xlink:href="#m59b69b6027" x="84.740543" y="165.974911" style="stroke: #000000; stroke-width: 0.8"/>
      </g>
     </g>
     <g id="text_13">
      <!-- $\mathdefault{0.6}$ -->
      <g transform="translate(42.197103 176.352659) scale(0.3 -0.3)">
       <defs>
        <path id="CMR17-36" d="M 678 2176 
C 678 3690 1395 4032 1811 4032 
C 1946 4032 2272 4009 2400 3776 
C 2298 3776 2106 3776 2106 3553 
C 2106 3381 2246 3323 2336 3323 
C 2394 3323 2566 3348 2566 3560 
C 2566 3954 2246 4179 1805 4179 
C 1043 4179 243 3390 243 1984 
C 243 253 966 -128 1478 -128 
C 2099 -128 2688 427 2688 1283 
C 2688 2081 2170 2662 1517 2662 
C 1126 2662 838 2407 678 1960 
L 678 2176 
z
M 1478 25 
C 691 25 691 1200 691 1436 
C 691 1896 909 2560 1504 2560 
C 1613 2560 1926 2560 2138 2120 
C 2253 1870 2253 1609 2253 1289 
C 2253 944 2253 690 2118 434 
C 1978 171 1773 25 1478 25 
z
" transform="scale(0.015625)"/>
       </defs>
       <use xlink:href="#CMR17-30" transform="scale(0.996264)"/>
       <use xlink:href="#CMMI12-3a" transform="translate(45.690477 0) scale(0.996264)"/>
       <use xlink:href="#CMR17-36" transform="translate(72.787654 0) scale(0.996264)"/>
      </g>
     </g>
    </g>
    <g id="ytick_8">
     <g id="line2d_25">
      <path d="M 84.740543 93.804497 
L 810.140543 93.804497 
" clip-path="url(#p6145fc598e)" style="fill: none; stroke: #b0b0b0; stroke-width: 0.8; stroke-linecap: square"/>
     </g>
     <g id="line2d_26">
      <g>
       <use xlink:href="#m59b69b6027" x="84.740543" y="93.804497" style="stroke: #000000; stroke-width: 0.8"/>
      </g>
     </g>
     <g id="text_14">
      <!-- $\mathdefault{0.7}$ -->
      <g transform="translate(42.197103 104.182245) scale(0.3 -0.3)">
       <defs>
        <path id="CMR17-37" d="M 2886 3941 
L 2886 4081 
L 1382 4081 
C 634 4081 621 4165 595 4288 
L 480 4288 
L 294 3094 
L 410 3094 
C 429 3215 474 3540 550 3661 
C 589 3712 1062 3712 1171 3712 
L 2579 3712 
L 1869 2661 
C 1395 1954 1069 999 1069 165 
C 1069 89 1069 -128 1299 -128 
C 1530 -128 1530 89 1530 171 
L 1530 465 
C 1530 1508 1709 2196 2003 2636 
L 2886 3941 
z
" transform="scale(0.015625)"/>
       </defs>
       <use xlink:href="#CMR17-30" transform="scale(0.996264)"/>
       <use xlink:href="#CMMI12-3a" transform="translate(45.690477 0) scale(0.996264)"/>
       <use xlink:href="#CMR17-37" transform="translate(72.787654 0) scale(0.996264)"/>
      </g>
     </g>
    </g>
    <g id="ytick_9">
     <g id="line2d_27">
      <path d="M 84.740543 21.634083 
L 810.140543 21.634083 
" clip-path="url(#p6145fc598e)" style="fill: none; stroke: #b0b0b0; stroke-width: 0.8; stroke-linecap: square"/>
     </g>
     <g id="line2d_28">
      <g>
       <use xlink:href="#m59b69b6027" x="84.740543" y="21.634083" style="stroke: #000000; stroke-width: 0.8"/>
      </g>
     </g>
     <g id="text_15">
      <!-- $\mathdefault{0.8}$ -->
      <g transform="translate(42.197103 32.01183) scale(0.3 -0.3)">
       <defs>
        <path id="CMR17-38" d="M 1741 2264 
C 2144 2467 2554 2773 2554 3263 
C 2554 3841 1990 4179 1472 4179 
C 890 4179 378 3759 378 3180 
C 378 3021 416 2747 666 2505 
C 730 2442 998 2251 1171 2130 
C 883 1983 211 1634 211 934 
C 211 279 838 -128 1459 -128 
C 2144 -128 2720 362 2720 1010 
C 2720 1590 2330 1857 2074 2029 
L 1741 2264 
z
M 902 2822 
C 851 2854 595 3051 595 3351 
C 595 3739 998 4032 1459 4032 
C 1965 4032 2336 3676 2336 3262 
C 2336 2669 1670 2331 1638 2331 
C 1632 2331 1626 2331 1574 2370 
L 902 2822 
z
M 2080 1519 
C 2176 1449 2483 1240 2483 851 
C 2483 381 2010 25 1472 25 
C 890 25 448 438 448 940 
C 448 1443 838 1862 1280 2060 
L 2080 1519 
z
" transform="scale(0.015625)"/>
       </defs>
       <use xlink:href="#CMR17-30" transform="scale(0.996264)"/>
       <use xlink:href="#CMMI12-3a" transform="translate(45.690477 0) scale(0.996264)"/>
       <use xlink:href="#CMR17-38" transform="translate(72.787654 0) scale(0.996264)"/>
      </g>
     </g>
    </g>
    <g id="text_16">
     <!-- $Y$ -->
     <g transform="translate(31.414752 322.024752) rotate(-90) scale(0.35 -0.35)">
      <defs>
       <path id="CMMI12-59" d="M 3763 3645 
L 3910 3791 
C 4192 4078 4429 4149 4653 4167 
C 4723 4173 4781 4179 4781 4288 
C 4781 4352 4717 4352 4704 4352 
C 4627 4352 4544 4352 4467 4352 
L 4205 4352 
C 4019 4352 3821 4352 3642 4352 
C 3597 4352 3526 4352 3526 4226 
C 3526 4166 3590 4160 3610 4160 
C 3802 4160 3802 4064 3802 4026 
C 3802 3956 3750 3860 3622 3713 
L 2099 1969 
L 1376 3911 
C 1338 4000 1338 4013 1338 4026 
C 1338 4160 1600 4160 1677 4160 
C 1754 4160 1824 4160 1824 4279 
C 1824 4352 1766 4352 1728 4352 
C 1619 4352 1491 4352 1382 4352 
L 672 4352 
C 557 4352 435 4352 326 4352 
C 282 4352 211 4352 211 4226 
C 211 4160 269 4160 365 4160 
C 678 4160 736 4102 794 3956 
L 1587 1835 
C 1594 1816 1613 1745 1613 1726 
C 1613 1707 1299 452 1280 388 
C 1229 217 1165 185 755 185 
C 646 185 595 185 595 64 
C 595 0 666 0 685 0 
C 800 0 934 0 1056 0 
L 1811 0 
C 1926 0 2061 0 2176 0 
C 2221 0 2298 0 2298 115 
C 2298 185 2253 185 2144 185 
C 1747 185 1747 230 1747 300 
C 1747 345 1798 548 1830 676 
L 2061 1594 
C 2099 1727 2099 1739 2157 1803 
L 3763 3645 
z
" transform="scale(0.015625)"/>
      </defs>
      <use xlink:href="#CMMI12-59" transform="scale(0.996264)"/>
     </g>
    </g>
   </g>
   <g id="line2d_29">
    <path d="M 98.173876 36.016384 
L 337.013522 36.122588 
L 391.12112 36.389796 
L 408.325155 36.593631 
L 414.672799 36.898759 
L 419.206669 37.507726 
L 424.861841 38.489515 
L 426.511432 39.10694 
L 428.161023 40.202478 
L 433.109795 43.861569 
L 438.058567 47.237723 
L 441.357748 49.272714 
L 445.481725 51.331194 
L 448.780907 52.665641 
L 451.255293 53.508694 
L 454.554474 54.377836 
L 457.853655 55.03376 
L 461.152837 55.473089 
L 463.83368 55.62726 
L 468.548834 55.610279 
L 487.10157 55.082578 
L 501.060907 55.013546 
L 520.200574 55.219531 
L 549.589697 55.683872 
L 597.09791 56.432886 
L 623.309323 56.500462 
L 656.892656 56.59545 
L 707.267656 56.518748 
L 808.017656 56.34285 
L 816.413489 56.337803 
L 816.413489 56.337803 
" clip-path="url(#p6145fc598e)" style="fill: none; stroke: #008000; stroke-width: 3; stroke-linecap: square"/>
   </g>
   <g id="line2d_30">
    <path d="M 98.173876 440.274267 
L 398.673979 440.370433 
L 414.672799 440.496899 
L 416.9446 440.687875 
L 418.075635 440.887593 
L 419.206669 441.205963 
L 420.337704 441.712691 
L 421.468738 442.472119 
L 422.599772 443.626423 
L 423.730807 445.18371 
L 424.861841 447.251268 
L 426.511432 451.158983 
L 428.161023 455.057266 
L 428.985818 457.73026 
L 430.635409 464.778353 
L 434.759385 483.759553 
L 436.408976 490.727072 
L 438.058567 497.09256 
L 439.708158 502.80428 
L 441.357748 507.798625 
L 443.007339 512.085869 
L 444.65693 515.760928 
L 447.131316 520.569681 
L 448.780907 523.41175 
L 450.430497 525.894762 
L 452.080088 528.077651 
L 455.379269 531.718649 
L 457.02886 533.318194 
L 459.503246 535.383449 
L 461.152837 536.489833 
L 461.986079 536.919451 
L 463.83368 537.524412 
L 465.999135 537.846938 
L 467.222962 537.936781 
L 471.553042 537.758083 
L 484.281608 536.569651 
L 490.170512 536.42522 
L 493.505407 536.477217 
L 501.060907 536.941843 
L 509.923223 537.912767 
L 520.200574 539.487012 
L 525.860121 540.557399 
L 531.774117 541.804123 
L 537.712644 543.293125 
L 543.651171 545.056142 
L 549.589697 546.989308 
L 561.46675 551.179785 
L 579.28233 557.498174 
L 591.159383 561.272135 
L 597.09791 562.958888 
L 603.036436 564.491552 
L 614.913489 567.003721 
L 631.705156 568.812892 
L 648.496823 570.08529 
L 665.288489 570.932041 
L 682.080156 571.448466 
L 707.267656 571.868298 
L 740.850989 572.158085 
L 791.225989 572.381705 
L 816.413489 572.415427 
L 816.413489 572.415427 
" clip-path="url(#p6145fc598e)" style="fill: none; stroke: #0000ff; stroke-width: 3; stroke-linecap: square"/>
   </g>
   <g id="patch_3">
    <path d="M 84.740543 617.04 
L 84.740543 7.2 
" style="fill: none; stroke: #000000; stroke-width: 0.8; stroke-linejoin: miter; stroke-linecap: square"/>
   </g>
   <g id="patch_4">
    <path d="M 810.140543 617.04 
L 810.140543 7.2 
" style="fill: none; stroke: #000000; stroke-width: 0.8; stroke-linejoin: miter; stroke-linecap: square"/>
   </g>
   <g id="patch_5">
    <path d="M 84.740543 617.04 
L 810.140543 617.04 
" style="fill: none; stroke: #000000; stroke-width: 0.8; stroke-linejoin: miter; stroke-linecap: square"/>
   </g>
   <g id="patch_6">
    <path d="M 84.740543 7.2 
L 810.140543 7.2 
" style="fill: none; stroke: #000000; stroke-width: 0.8; stroke-linejoin: miter; stroke-linecap: square"/>
   </g>
   <g id="legend_1">
    <g id="patch_7">
     <path d="M 523.96545 414.934702 
L 785.640543 414.934702 
Q 792.640543 414.934702 792.640543 407.934702 
L 792.640543 216.305298 
Q 792.640543 209.305298 785.640543 209.305298 
L 523.96545 209.305298 
Q 516.96545 209.305298 516.96545 216.305298 
L 516.96545 407.934702 
Q 516.96545 414.934702 523.96545 414.934702 
z
" style="fill: #ffffff; stroke: #cccccc; stroke-linejoin: miter"/>
    </g>
    <g id="patch_8">
     <path d="M 530.96545 247.805298 
L 600.96545 247.805298 
L 600.96545 223.305298 
L 530.96545 223.305298 
z
" style="fill: #008000; fill-opacity: 0.2"/>
    </g>
    <g id="text_17">
     <!-- $N_2: \mu \pm \sigma$ -->
     <g transform="translate(628.96545 247.805298) scale(0.35 -0.35)">
      <defs>
       <path id="CMMI12-4e" d="M 4736 3698 
C 4806 3974 4909 4166 5395 4166 
C 5414 4166 5491 4166 5491 4279 
C 5491 4352 5434 4352 5408 4352 
C 5280 4352 4954 4352 4826 4352 
L 4518 4352 
C 4429 4352 4314 4352 4224 4352 
C 4186 4352 4109 4352 4109 4230 
C 4109 4166 4160 4166 4205 4166 
C 4589 4166 4614 4019 4614 3903 
C 4614 3846 4608 3826 4589 3737 
L 3866 850 
L 2496 4249 
C 2451 4352 2445 4352 2304 4352 
L 1523 4352 
C 1395 4352 1338 4352 1338 4230 
C 1338 4166 1382 4166 1504 4166 
C 1536 4166 1914 4166 1914 4115 
C 1914 4102 1901 4051 1894 4032 
L 1043 635 
C 966 320 813 186 390 186 
C 358 186 294 186 294 67 
C 294 0 358 0 378 0 
C 506 0 832 0 960 0 
L 1267 0 
C 1357 0 1466 0 1555 0 
C 1600 0 1670 0 1670 122 
C 1670 180 1606 186 1581 186 
C 1370 186 1165 224 1165 454 
C 1165 505 1178 562 1190 613 
L 2054 4032 
C 2093 3968 2093 3956 2118 3898 
L 3642 115 
C 3674 38 3686 0 3744 0 
C 3808 0 3814 19 3840 128 
L 4736 3698 
z
" transform="scale(0.015625)"/>
       <path id="CMR17-3a" d="M 1062 2491 
C 1062 2650 934 2752 800 2752 
C 672 2752 538 2650 538 2491 
C 538 2332 666 2230 800 2230 
C 928 2230 1062 2332 1062 2491 
z
M 1062 261 
C 1062 420 934 522 800 522 
C 672 522 538 420 538 261 
C 538 102 666 0 800 0 
C 928 0 1062 102 1062 261 
z
" transform="scale(0.015625)"/>
       <path id="CMMI12-16" d="M 922 140 
C 1082 -6 1318 -64 1536 -64 
C 1946 -64 2227 208 2374 405 
C 2438 69 2707 -64 2931 -64 
C 3123 -64 3277 50 3392 277 
C 3494 493 3584 879 3584 903 
C 3584 935 3558 960 3520 960 
C 3462 960 3456 928 3430 834 
C 3334 461 3213 64 2950 64 
C 2765 64 2752 229 2752 358 
C 2752 504 2810 735 2854 926 
L 3034 1615 
C 3059 1737 3130 2023 3162 2139 
C 3200 2292 3270 2567 3270 2592 
C 3270 2688 3194 2752 3098 2752 
C 3040 2752 2906 2726 2854 2535 
L 2406 760 
C 2374 632 2374 619 2291 517 
C 2214 409 1965 64 1562 64 
C 1203 64 1088 326 1088 625 
C 1088 811 1146 1034 1171 1143 
L 1459 2293 
C 1491 2414 1542 2618 1542 2657 
C 1542 2759 1459 2816 1376 2816 
C 1318 2816 1178 2797 1126 2592 
L 198 -1107 
C 192 -1139 179 -1177 179 -1216 
C 179 -1312 256 -1376 352 -1376 
C 538 -1376 576 -1228 621 -1050 
L 922 140 
z
" transform="scale(0.015625)"/>
       <path id="CMSY10-6" d="M 2618 1984 
L 4397 1984 
C 4506 1984 4621 1984 4621 2112 
C 4621 2240 4506 2240 4397 2240 
L 2618 2240 
L 2618 4018 
C 2618 4121 2618 4256 2490 4256 
C 2362 4256 2362 4140 2362 4038 
L 2362 2240 
L 576 2240 
C 467 2240 352 2240 352 2112 
C 352 1984 467 1984 576 1984 
L 2362 1984 
L 2362 256 
L 576 256 
C 467 256 352 256 352 128 
C 352 0 467 0 576 0 
L 4397 0 
C 4506 0 4621 0 4621 128 
C 4621 256 4506 256 4397 256 
L 2618 256 
L 2618 1984 
z
" transform="scale(0.015625)"/>
       <path id="CMMI12-1b" d="M 3251 2408 
C 3334 2408 3546 2408 3546 2612 
C 3546 2752 3424 2752 3309 2752 
L 1894 2752 
C 934 2752 243 1686 243 932 
C 243 390 595 -64 1171 -64 
C 1926 -64 2752 747 2752 1705 
C 2752 1954 2694 2196 2541 2408 
L 3251 2408 
z
M 1178 64 
C 851 64 614 313 614 754 
C 614 1137 845 2408 1786 2408 
C 2061 2408 2368 2274 2368 1781 
C 2368 1558 2266 1021 2042 652 
C 1811 275 1466 64 1178 64 
z
" transform="scale(0.015625)"/>
      </defs>
      <use xlink:href="#CMMI12-4e" transform="scale(0.996264)"/>
      <use xlink:href="#CMR17-32" transform="translate(78.115119 -14.943915) scale(0.697382)"/>
      <use xlink:href="#CMR17-3a" transform="translate(138.270442 0) scale(0.996264)"/>
      <use xlink:href="#CMMI12-16" transform="translate(190.815509 0) scale(0.996264)"/>
      <use xlink:href="#CMSY10-6" transform="translate(271.646137 0) scale(0.996264)"/>
      <use xlink:href="#CMMI12-1b" transform="translate(371.272812 0) scale(0.996264)"/>
     </g>
    </g>
    <g id="line2d_31">
     <path d="M 530.96545 284.337649 
L 565.96545 284.337649 
L 600.96545 284.337649 
" style="fill: none; stroke: #008000; stroke-width: 3; stroke-linecap: square"/>
    </g>
    <g id="text_18">
     <!-- $N_2: \mu $ -->
     <g transform="translate(628.96545 296.587649) scale(0.35 -0.35)">
      <use xlink:href="#CMMI12-4e" transform="scale(0.996264)"/>
      <use xlink:href="#CMR17-32" transform="translate(78.115119 -14.943915) scale(0.697382)"/>
      <use xlink:href="#CMR17-3a" transform="translate(138.270442 0) scale(0.996264)"/>
      <use xlink:href="#CMMI12-16" transform="translate(190.815509 0) scale(0.996264)"/>
     </g>
    </g>
    <g id="patch_9">
     <path d="M 530.96545 345.37 
L 600.96545 345.37 
L 600.96545 320.87 
L 530.96545 320.87 
z
" style="fill: #99ccff; fill-opacity: 0.7"/>
    </g>
    <g id="text_19">
     <!-- $O_2: \mu \pm \sigma$ -->
     <g transform="translate(628.96545 345.37) scale(0.35 -0.35)">
      <defs>
       <path id="CMMI12-4f" d="M 4646 2797 
C 4646 3848 3955 4492 3059 4492 
C 1690 4492 307 3026 307 1554 
C 307 554 973 -128 1901 -128 
C 3245 -128 4646 1268 4646 2797 
z
M 1939 19 
C 1414 19 858 401 858 1395 
C 858 1974 1069 2924 1594 3562 
C 2061 4123 2598 4352 3027 4352 
C 3590 4352 4134 3944 4134 3026 
C 4134 2459 3891 1573 3462 968 
C 2995 318 2413 19 1939 19 
z
" transform="scale(0.015625)"/>
      </defs>
      <use xlink:href="#CMMI12-4f" transform="scale(0.996264)"/>
      <use xlink:href="#CMR17-32" transform="translate(74.550681 -14.943915) scale(0.697382)"/>
      <use xlink:href="#CMR17-3a" transform="translate(134.706004 0) scale(0.996264)"/>
      <use xlink:href="#CMMI12-16" transform="translate(187.251071 0) scale(0.996264)"/>
      <use xlink:href="#CMSY10-6" transform="translate(268.081699 0) scale(0.996264)"/>
      <use xlink:href="#CMMI12-1b" transform="translate(367.708374 0) scale(0.996264)"/>
     </g>
    </g>
    <g id="line2d_32">
     <path d="M 530.96545 381.902351 
L 565.96545 381.902351 
L 600.96545 381.902351 
" style="fill: none; stroke: #0000ff; stroke-width: 3; stroke-linecap: square"/>
    </g>
    <g id="text_20">
     <!-- $O_2: \mu$ -->
     <g transform="translate(628.96545 394.152351) scale(0.35 -0.35)">
      <use xlink:href="#CMMI12-4f" transform="scale(0.996264)"/>
      <use xlink:href="#CMR17-32" transform="translate(74.550681 -14.943915) scale(0.697382)"/>
      <use xlink:href="#CMR17-3a" transform="translate(134.706004 0) scale(0.996264)"/>
      <use xlink:href="#CMMI12-16" transform="translate(187.251071 0) scale(0.996264)"/>
     </g>
    </g>
   </g>
  </g>
 </g>
 <defs>
  <clipPath id="p6145fc598e">
   <rect x="84.740543" y="7.2" width="725.4" height="609.84"/>
  </clipPath>
 </defs>
</svg>
