<?xml version="1.0" encoding="utf-8" standalone="no"?>
<!DOCTYPE svg PUBLIC "-//W3C//DTD SVG 1.1//EN"
  "http://www.w3.org/Graphics/SVG/1.1/DTD/svg11.dtd">
<svg xmlns:xlink="http://www.w3.org/1999/xlink" width="865.325987pt" height="703.183796pt" viewBox="0 0 865.325987 703.183796" xmlns="http://www.w3.org/2000/svg" version="1.1">
 <metadata>
  <rdf:RDF xmlns:dc="http://purl.org/dc/elements/1.1/" xmlns:cc="http://creativecommons.org/ns#" xmlns:rdf="http://www.w3.org/1999/02/22-rdf-syntax-ns#">
   <cc:Work>
    <dc:type rdf:resource="http://purl.org/dc/dcmitype/StillImage"/>
    <dc:date>2025-02-25T09:45:57.584606</dc:date>
    <dc:format>image/svg+xml</dc:format>
    <dc:creator>
     <cc:Agent>
      <dc:title>Matplotlib v3.5.3, https://matplotlib.org/</dc:title>
     </cc:Agent>
    </dc:creator>
   </cc:Work>
  </rdf:RDF>
 </metadata>
 <defs>
  <style type="text/css">*{stroke-linejoin: round; stroke-linecap: butt}</style>
 </defs>
 <g id="figure_1">
  <g id="patch_1">
   <path d="M 0 703.183796 
L 865.325987 703.183796 
L 865.325987 0 
L 0 0 
z
" style="fill: #ffffff"/>
  </g>
  <g id="axes_1">
   <g id="patch_2">
    <path d="M 114.954267 627.417748 
L 840.354267 627.417748 
L 840.354267 17.577748 
L 114.954267 17.577748 
z
" style="fill: #ffffff"/>
   </g>
   <g id="PolyCollection_1">
    <path d="M 127.907839 557.105513 
L 127.907839 555.940271 
L 145.51296 555.940271 
L 158.364813 555.940271 
L 167.746901 555.940271 
L 174.596207 555.940271 
L 179.596754 555.940271 
L 183.247916 555.940271 
L 185.914282 555.940271 
L 187.862052 555.940194 
L 189.285595 555.937342 
L 190.422229 555.022679 
L 191.548963 553.683026 
L 192.675696 542.948556 
L 193.830492 534.427789 
L 194.985287 526.967847 
L 196.140083 520.394868 
L 197.294879 513.622216 
L 198.449674 510.467866 
L 199.60447 510.766456 
L 200.759265 514.709802 
L 201.914061 514.835071 
L 203.068857 515.567776 
L 204.223652 516.468454 
L 205.378448 517.316701 
L 206.533244 517.803026 
L 207.688039 518.099953 
L 208.842835 518.269984 
L 209.997631 518.279494 
L 211.152426 518.226885 
L 212.307222 518.155849 
L 213.462018 517.986905 
L 214.616813 517.941942 
L 215.771609 517.990748 
L 216.926404 518.09247 
L 218.0812 518.079455 
L 219.235996 518.205113 
L 220.390791 518.318361 
L 221.545587 518.292963 
L 222.700383 518.152891 
L 223.855178 518.175429 
L 225.009974 518.27453 
L 226.16477 518.461738 
L 227.319565 518.478481 
L 228.474361 518.463646 
L 229.629156 518.436155 
L 230.783952 518.503624 
L 231.938748 518.681816 
L 233.093545 518.799319 
L 234.277433 518.846813 
L 235.503621 518.865446 
L 236.773932 518.893693 
L 238.090799 518.944576 
L 239.456712 518.990135 
L 240.873102 519.028414 
L 242.341674 519.060766 
L 243.864418 519.084569 
L 245.443518 519.095984 
L 247.080354 519.11992 
L 248.776635 519.140404 
L 250.534749 519.151297 
L 252.357908 519.169489 
L 254.249735 519.217562 
L 256.209375 519.238717 
L 258.241233 519.232057 
L 260.349013 519.21168 
L 262.532838 519.193655 
L 264.798325 519.18595 
L 267.146731 519.180078 
L 269.580844 519.204963 
L 272.105556 519.210468 
L 274.723097 519.21487 
L 277.436733 519.204078 
L 280.250191 519.218878 
L 283.167273 519.23436 
L 286.191749 519.246904 
L 289.327446 519.249737 
L 292.578506 519.246233 
L 295.949776 519.241344 
L 299.445012 519.245127 
L 303.068786 519.237719 
L 306.826225 519.237888 
L 310.722202 519.240896 
L 314.76138 519.219315 
L 318.949313 519.207544 
L 323.291649 519.203496 
L 327.794052 519.220143 
L 332.462214 519.222247 
L 337.277685 519.224338 
L 342.232014 519.197526 
L 347.368723 519.193953 
L 352.69501 519.188972 
L 358.217498 519.187931 
L 363.943541 519.176522 
L 369.880688 519.162559 
L 376.036622 519.156136 
L 382.419494 519.172255 
L 389.037774 519.192374 
L 395.900024 519.208576 
L 403.015199 519.226975 
L 410.392682 519.251818 
L 417.675795 519.256208 
L 423.111397 519.253515 
L 426.982287 519.232074 
L 429.739367 519.220045 
L 431.703555 519.203645 
L 433.103229 519.198796 
L 434.203254 519.197342 
L 435.293895 519.196222 
L 436.384535 519.195285 
L 437.475175 519.194496 
L 438.565816 519.194331 
L 439.656456 519.195015 
L 440.747096 519.19468 
L 441.837736 516.146436 
L 442.928377 295.913675 
L 443.723715 -54.046011 
L 444.519054 35.354112 
L 445.314392 37.634022 
L 446.10973 59.335972 
L 446.905069 64.601168 
L 447.700407 66.863639 
L 448.495745 71.015301 
L 449.291084 75.873992 
L 450.086422 78.70493 
L 450.881761 81.048964 
L 451.677099 82.584496 
L 452.472437 83.832391 
L 453.267776 84.664816 
L 454.063114 84.646442 
L 454.858453 84.555068 
L 455.653791 84.483695 
L 456.449129 84.697264 
L 457.244468 84.725701 
L 458.039806 84.871933 
L 458.835144 84.865665 
L 459.630483 85.007607 
L 460.425821 85.171653 
L 461.22116 85.454073 
L 462.016498 85.797899 
L 462.811836 86.121268 
L 463.607175 86.437601 
L 464.402513 86.896496 
L 465.197851 87.332516 
L 465.99319 87.831972 
L 466.788528 88.380836 
L 467.583867 89.050211 
L 468.379205 89.854934 
L 469.174543 90.723622 
L 469.969882 91.770926 
L 470.76522 92.958228 
L 471.560558 94.370976 
L 472.355897 95.983884 
L 473.151235 97.919087 
L 473.946574 100.0275 
L 474.741912 102.328778 
L 475.53725 105.324543 
L 476.332589 108.838658 
L 477.127927 112.809129 
L 477.923266 117.866029 
L 478.726749 123.73752 
L 479.580107 130.773499 
L 480.508364 139.111359 
L 481.509236 148.618572 
L 482.596482 160.550568 
L 483.7766 173.415753 
L 485.05512 189.823022 
L 486.442833 208.694641 
L 487.952035 230.691227 
L 489.59267 253.811077 
L 491.376498 277.267215 
L 493.316667 298.21402 
L 495.427579 316.062324 
L 497.725208 331.004531 
L 500.226009 342.678559 
L 502.945258 354.460241 
L 505.904595 362.64901 
L 509.120387 367.714383 
L 512.614786 368.849702 
L 516.406047 368.042908 
L 520.512797 365.458907 
L 524.951852 361.934028 
L 529.73413 357.947577 
L 534.862155 353.612106 
L 540.319576 348.899816 
L 546.022358 343.808849 
L 551.748794 338.730068 
L 557.47523 333.95934 
L 563.201667 330.247102 
L 568.928103 327.072066 
L 574.654539 324.647972 
L 580.380976 322.905049 
L 586.107412 321.907233 
L 591.833848 321.171453 
L 597.560285 320.524257 
L 603.286721 319.684621 
L 609.013157 319.401943 
L 614.739594 319.60812 
L 620.46603 326.23269 
L 626.192466 433.818358 
L 634.288448 545.926136 
L 642.384431 556.540619 
L 650.480413 557.68412 
L 658.576395 557.700648 
L 666.672377 557.634748 
L 674.768359 557.528221 
L 682.864341 557.44343 
L 690.960323 557.356193 
L 699.056306 557.273853 
L 707.152288 557.185491 
L 715.24827 557.112175 
L 723.344252 557.0518 
L 731.440234 557.000559 
L 739.536216 556.94312 
L 747.632198 556.896997 
L 755.728181 556.848288 
L 763.824163 556.799508 
L 771.920145 556.750259 
L 780.016127 556.710225 
L 788.112109 556.674897 
L 796.208091 556.646893 
L 804.304073 556.610104 
L 812.400056 556.58785 
L 820.496038 556.56915 
L 820.496038 558.161207 
L 820.496038 558.161207 
L 812.400056 558.160105 
L 804.304073 558.154967 
L 796.208091 558.16407 
L 788.112109 558.169484 
L 780.016127 558.161256 
L 771.920145 558.156751 
L 763.824163 558.147173 
L 755.728181 558.14629 
L 747.632198 558.139927 
L 739.536216 558.135517 
L 731.440234 558.15872 
L 723.344252 558.179127 
L 715.24827 558.191434 
L 707.152288 558.199637 
L 699.056306 558.210479 
L 690.960323 558.213526 
L 682.864341 558.246367 
L 674.768359 558.347356 
L 666.672377 558.468279 
L 658.576395 558.601151 
L 650.480413 558.631472 
L 642.384431 559.838935 
L 634.288448 569.086918 
L 626.192466 481.179391 
L 620.46603 398.442745 
L 614.739594 403.933344 
L 609.013157 403.394428 
L 603.286721 403.305881 
L 597.560285 403.829405 
L 591.833848 404.17642 
L 586.107412 404.441719 
L 580.380976 404.784299 
L 574.654539 405.667837 
L 568.928103 407.223789 
L 563.201667 409.513504 
L 557.47523 412.270811 
L 551.748794 416.025926 
L 546.022358 419.95637 
L 540.319576 423.850651 
L 534.862155 427.427203 
L 529.73413 430.908255 
L 524.951852 434.247043 
L 520.512797 437.512221 
L 516.406047 440.280172 
L 512.614786 441.928141 
L 509.120387 441.598334 
L 505.904595 438.399033 
L 502.945258 433.088193 
L 500.226009 425.314051 
L 497.725208 417.016225 
L 495.427579 406.752507 
L 493.316667 394.291018 
L 491.376498 380.177712 
L 489.59267 363.326913 
L 487.952035 347.627835 
L 486.442833 332.567476 
L 485.05512 319.907187 
L 483.7766 309.425123 
L 482.596482 302.041982 
L 481.509236 294.621306 
L 480.508364 289.116918 
L 479.580107 284.003328 
L 478.726749 279.528055 
L 477.923266 275.772848 
L 477.127927 272.234108 
L 476.332589 269.563527 
L 475.53725 267.116411 
L 474.741912 264.889849 
L 473.946574 263.167083 
L 473.151235 261.524156 
L 472.355897 259.937832 
L 471.560558 258.595087 
L 470.76522 257.405184 
L 469.969882 256.348997 
L 469.174543 255.347171 
L 468.379205 254.3846 
L 467.583867 253.506041 
L 466.788528 252.698886 
L 465.99319 251.954157 
L 465.197851 251.276032 
L 464.402513 250.738781 
L 463.607175 250.286325 
L 462.811836 250.003434 
L 462.016498 249.77902 
L 461.22116 249.662181 
L 460.425821 249.645848 
L 459.630483 249.641985 
L 458.835144 249.510305 
L 458.039806 249.458358 
L 457.244468 249.229876 
L 456.449129 248.959813 
L 455.653791 248.320083 
L 454.858453 247.649134 
L 454.063114 246.776925 
L 453.267776 245.754211 
L 452.472437 244.330375 
L 451.677099 243.087862 
L 450.881761 242.221785 
L 450.086422 241.557819 
L 449.291084 241.149221 
L 448.495745 239.900935 
L 447.700407 240.243936 
L 446.905069 242.441505 
L 446.10973 246.113518 
L 445.314392 254.725222 
L 444.519054 230.407896 
L 443.723715 187.735075 
L 442.928377 416.369542 
L 441.837736 537.865292 
L 440.747096 533.088061 
L 439.656456 533.090628 
L 438.565816 533.092517 
L 437.475175 533.092943 
L 436.384535 533.092616 
L 435.293895 533.091676 
L 434.203254 533.090683 
L 433.103229 533.089141 
L 431.703555 533.085148 
L 429.739367 533.073184 
L 426.982287 533.060437 
L 423.111397 533.038313 
L 417.675795 533.022012 
L 410.392682 533.005531 
L 403.015199 532.995872 
L 395.900024 532.990039 
L 389.037774 532.984235 
L 382.419494 532.98422 
L 376.036622 532.974256 
L 369.880688 532.971486 
L 363.943541 532.956323 
L 358.217498 532.940279 
L 352.69501 532.932429 
L 347.368723 532.913758 
L 342.232014 532.893542 
L 337.277685 532.874562 
L 332.462214 532.853176 
L 327.794052 532.845155 
L 323.291649 532.841403 
L 318.949313 532.825262 
L 314.76138 532.813768 
L 310.722202 532.798606 
L 306.826225 532.779005 
L 303.068786 532.775816 
L 299.445012 532.783791 
L 295.949776 532.779537 
L 292.578506 532.772336 
L 289.327446 532.773403 
L 286.191749 532.780093 
L 283.167273 532.790913 
L 280.250191 532.803755 
L 277.436733 532.814697 
L 274.723097 532.816035 
L 272.105556 532.821948 
L 269.580844 532.834367 
L 267.146731 532.844102 
L 264.798325 532.831979 
L 262.532838 532.822583 
L 260.349013 532.799483 
L 258.241233 532.787504 
L 256.209375 532.788067 
L 254.249735 532.812634 
L 252.357908 532.845184 
L 250.534749 532.861676 
L 248.776635 532.880346 
L 247.080354 532.893505 
L 245.443518 532.912104 
L 243.864418 532.923379 
L 242.341674 532.927283 
L 240.873102 532.943568 
L 239.456712 532.966895 
L 238.090799 532.982937 
L 236.773932 533.011826 
L 235.503621 533.027858 
L 234.277433 533.028475 
L 233.093545 533.057585 
L 231.938748 533.144142 
L 230.783952 533.258091 
L 229.629156 533.295187 
L 228.474361 533.271894 
L 227.319565 533.263403 
L 226.16477 533.309086 
L 225.009974 533.46075 
L 223.855178 533.577733 
L 222.700383 533.668973 
L 221.545587 533.652214 
L 220.390791 533.699794 
L 219.235996 533.821167 
L 218.0812 533.931396 
L 216.926404 533.97189 
L 215.771609 534.029064 
L 214.616813 534.03301 
L 213.462018 533.849473 
L 212.307222 533.689982 
L 211.152426 533.46928 
L 209.997631 533.543424 
L 208.842835 533.387602 
L 207.688039 533.648544 
L 206.533244 533.769241 
L 205.378448 534.150207 
L 204.223652 533.704315 
L 203.068857 533.23473 
L 201.914061 531.834117 
L 200.759265 530.81067 
L 199.60447 530.660425 
L 198.449674 529.930478 
L 197.294879 530.579383 
L 196.140083 535.496128 
L 194.985287 539.228487 
L 193.830492 546.04024 
L 192.675696 550.666632 
L 191.548963 556.006943 
L 190.422229 557.070315 
L 189.285595 557.102684 
L 187.862052 557.105439 
L 185.914282 557.105513 
L 183.247916 557.105513 
L 179.596754 557.105513 
L 174.596207 557.105513 
L 167.746901 557.105513 
L 158.364813 557.105513 
L 145.51296 557.105513 
L 127.907839 557.105513 
z
" clip-path="url(#pf62e8a5b3b)" style="fill: #99ccff; fill-opacity: 0.7"/>
   </g>
   <g id="matplotlib.axis_1">
    <g id="xtick_1">
     <g id="line2d_1">
      <path d="M 192.675696 627.417748 
L 192.675696 17.577748 
" clip-path="url(#pf62e8a5b3b)" style="fill: none; stroke: #b0b0b0; stroke-width: 0.8; stroke-linecap: square"/>
     </g>
     <g id="line2d_2">
      <defs>
       <path id="m566f0c6f18" d="M 0 0 
L 0 3.5 
" style="stroke: #000000; stroke-width: 0.8"/>
      </defs>
      <g>
       <use xlink:href="#m566f0c6f18" x="192.675696" y="627.417748" style="stroke: #000000; stroke-width: 0.8"/>
      </g>
     </g>
     <g id="text_1">
      <!-- $\mathdefault{0.0}$ -->
      <g transform="translate(174.903976 655.173243)scale(0.3 -0.3)">
       <defs>
        <path id="CMR17-30" d="M 2688 2025 
C 2688 2416 2682 3080 2413 3591 
C 2176 4039 1798 4198 1466 4198 
C 1158 4198 768 4058 525 3597 
C 269 3118 243 2524 243 2025 
C 243 1661 250 1106 448 619 
C 723 -39 1216 -128 1466 -128 
C 1760 -128 2208 -7 2470 600 
C 2662 1042 2688 1559 2688 2025 
z
M 1466 -26 
C 1056 -26 813 325 723 812 
C 653 1188 653 1738 653 2096 
C 653 2588 653 2997 736 3387 
C 858 3929 1216 4096 1466 4096 
C 1728 4096 2067 3923 2189 3400 
C 2272 3036 2278 2607 2278 2096 
C 2278 1680 2278 1169 2202 792 
C 2067 95 1690 -26 1466 -26 
z
" transform="scale(0.015625)"/>
        <path id="CMMI12-3a" d="M 1178 307 
C 1178 492 1024 619 870 619 
C 685 619 557 466 557 313 
C 557 128 710 0 864 0 
C 1050 0 1178 153 1178 307 
z
" transform="scale(0.015625)"/>
       </defs>
       <use xlink:href="#CMR17-30" transform="scale(0.996264)"/>
       <use xlink:href="#CMMI12-3a" transform="translate(45.690477 0)scale(0.996264)"/>
       <use xlink:href="#CMR17-30" transform="translate(72.787654 0)scale(0.996264)"/>
      </g>
     </g>
    </g>
    <g id="xtick_2">
     <g id="line2d_3">
      <path d="M 322.21141 627.417748 
L 322.21141 17.577748 
" clip-path="url(#pf62e8a5b3b)" style="fill: none; stroke: #b0b0b0; stroke-width: 0.8; stroke-linecap: square"/>
     </g>
     <g id="line2d_4">
      <g>
       <use xlink:href="#m566f0c6f18" x="322.21141" y="627.417748" style="stroke: #000000; stroke-width: 0.8"/>
      </g>
     </g>
     <g id="text_2">
      <!-- $\mathdefault{0.1}$ -->
      <g transform="translate(304.439691 655.173243)scale(0.3 -0.3)">
       <defs>
        <path id="CMR17-31" d="M 1702 4058 
C 1702 4192 1696 4192 1606 4192 
C 1357 3916 979 3827 621 3827 
C 602 3827 570 3827 563 3808 
C 557 3795 557 3782 557 3648 
C 755 3648 1088 3686 1344 3839 
L 1344 461 
C 1344 236 1331 160 781 160 
L 589 160 
L 589 0 
C 896 0 1216 0 1523 0 
C 1830 0 2150 0 2458 0 
L 2458 160 
L 2266 160 
C 1715 160 1702 230 1702 458 
L 1702 4058 
z
" transform="scale(0.015625)"/>
       </defs>
       <use xlink:href="#CMR17-30" transform="scale(0.996264)"/>
       <use xlink:href="#CMMI12-3a" transform="translate(45.690477 0)scale(0.996264)"/>
       <use xlink:href="#CMR17-31" transform="translate(72.787654 0)scale(0.996264)"/>
      </g>
     </g>
    </g>
    <g id="xtick_3">
     <g id="line2d_5">
      <path d="M 451.747125 627.417748 
L 451.747125 17.577748 
" clip-path="url(#pf62e8a5b3b)" style="fill: none; stroke: #b0b0b0; stroke-width: 0.8; stroke-linecap: square"/>
     </g>
     <g id="line2d_6">
      <g>
       <use xlink:href="#m566f0c6f18" x="451.747125" y="627.417748" style="stroke: #000000; stroke-width: 0.8"/>
      </g>
     </g>
     <g id="text_3">
      <!-- $\mathdefault{0.2}$ -->
      <g transform="translate(433.975405 655.173243)scale(0.3 -0.3)">
       <defs>
        <path id="CMR17-32" d="M 2669 989 
L 2554 989 
C 2490 536 2438 459 2413 420 
C 2381 369 1920 369 1830 369 
L 602 369 
C 832 619 1280 1072 1824 1597 
C 2214 1967 2669 2402 2669 3035 
C 2669 3790 2067 4224 1395 4224 
C 691 4224 262 3604 262 3030 
C 262 2780 448 2748 525 2748 
C 589 2748 781 2787 781 3010 
C 781 3207 614 3264 525 3264 
C 486 3264 448 3258 422 3245 
C 544 3790 915 4058 1306 4058 
C 1862 4058 2227 3617 2227 3035 
C 2227 2479 1901 2000 1536 1584 
L 262 146 
L 262 0 
L 2515 0 
L 2669 989 
z
" transform="scale(0.015625)"/>
       </defs>
       <use xlink:href="#CMR17-30" transform="scale(0.996264)"/>
       <use xlink:href="#CMMI12-3a" transform="translate(45.690477 0)scale(0.996264)"/>
       <use xlink:href="#CMR17-32" transform="translate(72.787654 0)scale(0.996264)"/>
      </g>
     </g>
    </g>
    <g id="xtick_4">
     <g id="line2d_7">
      <path d="M 581.282839 627.417748 
L 581.282839 17.577748 
" clip-path="url(#pf62e8a5b3b)" style="fill: none; stroke: #b0b0b0; stroke-width: 0.8; stroke-linecap: square"/>
     </g>
     <g id="line2d_8">
      <g>
       <use xlink:href="#m566f0c6f18" x="581.282839" y="627.417748" style="stroke: #000000; stroke-width: 0.8"/>
      </g>
     </g>
     <g id="text_4">
      <!-- $\mathdefault{0.3}$ -->
      <g transform="translate(563.511119 655.173243)scale(0.3 -0.3)">
       <defs>
        <path id="CMR17-33" d="M 1414 2157 
C 1984 2157 2234 1662 2234 1090 
C 2234 320 1824 25 1453 25 
C 1114 25 563 194 390 693 
C 422 680 454 680 486 680 
C 640 680 755 782 755 948 
C 755 1133 614 1216 486 1216 
C 378 1216 211 1165 211 926 
C 211 335 787 -128 1466 -128 
C 2176 -128 2720 430 2720 1085 
C 2720 1707 2208 2157 1600 2227 
C 2086 2328 2554 2756 2554 3329 
C 2554 3820 2048 4179 1472 4179 
C 890 4179 378 3829 378 3329 
C 378 3110 544 3072 627 3072 
C 762 3072 877 3155 877 3321 
C 877 3486 762 3569 627 3569 
C 602 3569 570 3569 544 3557 
C 730 3959 1235 4032 1459 4032 
C 1683 4032 2106 3925 2106 3320 
C 2106 3143 2080 2828 1862 2550 
C 1670 2304 1453 2304 1242 2284 
C 1210 2284 1062 2269 1037 2269 
C 992 2263 966 2257 966 2208 
C 966 2163 973 2157 1101 2157 
L 1414 2157 
z
" transform="scale(0.015625)"/>
       </defs>
       <use xlink:href="#CMR17-30" transform="scale(0.996264)"/>
       <use xlink:href="#CMMI12-3a" transform="translate(45.690477 0)scale(0.996264)"/>
       <use xlink:href="#CMR17-33" transform="translate(72.787654 0)scale(0.996264)"/>
      </g>
     </g>
    </g>
    <g id="xtick_5">
     <g id="line2d_9">
      <path d="M 710.818553 627.417748 
L 710.818553 17.577748 
" clip-path="url(#pf62e8a5b3b)" style="fill: none; stroke: #b0b0b0; stroke-width: 0.8; stroke-linecap: square"/>
     </g>
     <g id="line2d_10">
      <g>
       <use xlink:href="#m566f0c6f18" x="710.818553" y="627.417748" style="stroke: #000000; stroke-width: 0.8"/>
      </g>
     </g>
     <g id="text_5">
      <!-- $\mathdefault{0.4}$ -->
      <g transform="translate(693.046833 655.173243)scale(0.3 -0.3)">
       <defs>
        <path id="CMR17-34" d="M 2150 4122 
C 2150 4256 2144 4256 2029 4256 
L 128 1254 
L 128 1088 
L 1779 1088 
L 1779 457 
C 1779 224 1766 160 1318 160 
L 1197 160 
L 1197 0 
C 1402 0 1747 0 1965 0 
C 2182 0 2528 0 2733 0 
L 2733 160 
L 2611 160 
C 2163 160 2150 224 2150 457 
L 2150 1088 
L 2803 1088 
L 2803 1254 
L 2150 1254 
L 2150 4122 
z
M 1798 3703 
L 1798 1254 
L 256 1254 
L 1798 3703 
z
" transform="scale(0.015625)"/>
       </defs>
       <use xlink:href="#CMR17-30" transform="scale(0.996264)"/>
       <use xlink:href="#CMMI12-3a" transform="translate(45.690477 0)scale(0.996264)"/>
       <use xlink:href="#CMR17-34" transform="translate(72.787654 0)scale(0.996264)"/>
      </g>
     </g>
    </g>
    <g id="xtick_6">
     <g id="line2d_11">
      <path d="M 840.354267 627.417748 
L 840.354267 17.577748 
" clip-path="url(#pf62e8a5b3b)" style="fill: none; stroke: #b0b0b0; stroke-width: 0.8; stroke-linecap: square"/>
     </g>
     <g id="line2d_12">
      <g>
       <use xlink:href="#m566f0c6f18" x="840.354267" y="627.417748" style="stroke: #000000; stroke-width: 0.8"/>
      </g>
     </g>
     <g id="text_6">
      <!-- $\mathdefault{0.5}$ -->
      <g transform="translate(822.582548 655.173243)scale(0.3 -0.3)">
       <defs>
        <path id="CMR17-35" d="M 730 3692 
C 794 3666 1056 3584 1325 3584 
C 1920 3584 2246 3911 2432 4100 
C 2432 4157 2432 4192 2394 4192 
C 2387 4192 2374 4192 2323 4163 
C 2099 4058 1837 3973 1517 3973 
C 1325 3973 1037 3999 723 4139 
C 653 4171 640 4171 634 4171 
C 602 4171 595 4164 595 4037 
L 595 2203 
C 595 2089 595 2057 659 2057 
C 691 2057 704 2070 736 2114 
C 941 2401 1222 2522 1542 2522 
C 1766 2522 2246 2382 2246 1289 
C 2246 1085 2246 715 2054 421 
C 1894 159 1645 25 1370 25 
C 947 25 518 320 403 814 
C 429 807 480 795 506 795 
C 589 795 749 840 749 1038 
C 749 1210 627 1280 506 1280 
C 358 1280 262 1190 262 1011 
C 262 454 704 -128 1382 -128 
C 2042 -128 2669 440 2669 1264 
C 2669 2030 2170 2624 1549 2624 
C 1222 2624 947 2503 730 2274 
L 730 3692 
z
" transform="scale(0.015625)"/>
       </defs>
       <use xlink:href="#CMR17-30" transform="scale(0.996264)"/>
       <use xlink:href="#CMMI12-3a" transform="translate(45.690477 0)scale(0.996264)"/>
       <use xlink:href="#CMR17-35" transform="translate(72.787654 0)scale(0.996264)"/>
      </g>
     </g>
    </g>
    <g id="text_7">
     <!-- $x, \; \mathrm{m} $ -->
     <g transform="translate(442.001664 689.201445)scale(0.35 -0.35)">
      <defs>
       <path id="CMMI12-78" d="M 3034 2606 
C 2829 2567 2752 2414 2752 2293 
C 2752 2139 2874 2088 2963 2088 
C 3155 2088 3290 2254 3290 2427 
C 3290 2695 2982 2816 2714 2816 
C 2323 2816 2106 2433 2048 2312 
C 1901 2816 1504 2816 1389 2816 
C 736 2816 390 1980 390 1839 
C 390 1814 416 1782 461 1782 
C 512 1782 525 1820 538 1846 
C 755 2555 1184 2689 1370 2689 
C 1658 2689 1715 2420 1715 2267 
C 1715 2127 1677 1980 1600 1673 
L 1382 798 
C 1286 415 1101 64 762 64 
C 730 64 570 64 435 147 
C 666 192 717 383 717 460 
C 717 588 621 664 499 664 
C 346 664 179 530 179 326 
C 179 57 480 -64 755 -64 
C 1062 -64 1280 179 1414 441 
C 1517 64 1837 -64 2074 -64 
C 2726 -64 3072 773 3072 913 
C 3072 945 3046 971 3008 971 
C 2950 971 2944 939 2925 888 
C 2752 326 2381 64 2093 64 
C 1869 64 1747 230 1747 492 
C 1747 632 1773 734 1875 1156 
L 2099 2024 
C 2195 2408 2413 2689 2707 2689 
C 2720 2689 2899 2689 3034 2606 
z
" transform="scale(0.015625)"/>
       <path id="CMMI12-3b" d="M 1248 -31 
C 1248 343 1126 619 864 619 
C 659 619 557 453 557 313 
C 557 172 653 0 870 0 
C 954 0 1024 26 1082 83 
C 1094 96 1101 96 1107 96 
C 1120 96 1120 5 1120 -27 
C 1120 -240 1082 -659 710 -1080 
C 640 -1157 640 -1170 640 -1183 
C 640 -1216 672 -1248 704 -1248 
C 755 -1248 1248 -771 1248 -31 
z
" transform="scale(0.015625)"/>
       <path id="CMR17-6d" d="M 4326 1933 
C 4326 2252 4269 2790 3507 2790 
C 3072 2790 2771 2496 2656 2151 
L 2650 2151 
C 2573 2676 2195 2790 1837 2790 
C 1331 2790 1069 2400 973 2144 
L 966 2144 
L 966 2790 
L 211 2720 
L 211 2554 
C 589 2554 646 2515 646 2208 
L 646 428 
C 646 184 621 153 211 153 
L 211 -13 
C 365 0 646 0 813 0 
C 979 0 1267 0 1421 -13 
L 1421 153 
C 1011 153 986 178 986 428 
L 986 1658 
C 986 2247 1344 2688 1792 2688 
C 2266 2688 2317 2266 2317 1958 
L 2317 428 
C 2317 184 2291 153 1882 153 
L 1882 -13 
C 2035 0 2317 0 2483 0 
C 2650 0 2938 0 3091 -13 
L 3091 153 
C 2682 153 2656 178 2656 428 
L 2656 1658 
C 2656 2247 3014 2688 3462 2688 
C 3936 2688 3987 2266 3987 1958 
L 3987 428 
C 3987 184 3962 153 3552 153 
L 3552 -13 
C 3706 0 3987 0 4154 0 
C 4320 0 4608 0 4762 -13 
L 4762 153 
C 4352 153 4326 178 4326 428 
L 4326 1933 
z
" transform="scale(0.015625)"/>
      </defs>
      <use xlink:href="#CMMI12-78" transform="scale(0.996264)"/>
      <use xlink:href="#CMMI12-3b" transform="translate(55.43406 0)scale(0.996264)"/>
      <use xlink:href="#CMR17-6d" transform="translate(126.809651 0)scale(0.996264)"/>
     </g>
    </g>
   </g>
   <g id="matplotlib.axis_2">
    <g id="ytick_1">
     <g id="line2d_13">
      <path d="M 114.954267 627.417748 
L 840.354267 627.417748 
" clip-path="url(#pf62e8a5b3b)" style="fill: none; stroke: #b0b0b0; stroke-width: 0.8; stroke-linecap: square"/>
     </g>
     <g id="line2d_14">
      <defs>
       <path id="m28aafc3132" d="M 0 0 
L -3.5 0 
" style="stroke: #000000; stroke-width: 0.8"/>
      </defs>
      <g>
       <use xlink:href="#m28aafc3132" x="114.954267" y="627.417748" style="stroke: #000000; stroke-width: 0.8"/>
      </g>
     </g>
     <g id="text_8">
      <!-- $\mathdefault{−25}$ -->
      <g transform="translate(57.29375 637.795495)scale(0.3 -0.3)">
       <defs>
        <path id="CMSY10-0" d="M 4218 1472 
C 4326 1472 4442 1472 4442 1600 
C 4442 1728 4326 1728 4218 1728 
L 755 1728 
C 646 1728 531 1728 531 1600 
C 531 1472 646 1472 755 1472 
L 4218 1472 
z
" transform="scale(0.015625)"/>
       </defs>
       <use xlink:href="#CMSY10-0" transform="scale(0.996264)"/>
       <use xlink:href="#CMR17-32" transform="translate(77.487468 0)scale(0.996264)"/>
       <use xlink:href="#CMR17-35" transform="translate(123.177945 0)scale(0.996264)"/>
      </g>
     </g>
    </g>
    <g id="ytick_2">
     <g id="line2d_15">
      <path d="M 114.954267 559.657748 
L 840.354267 559.657748 
" clip-path="url(#pf62e8a5b3b)" style="fill: none; stroke: #b0b0b0; stroke-width: 0.8; stroke-linecap: square"/>
     </g>
     <g id="line2d_16">
      <g>
       <use xlink:href="#m28aafc3132" x="114.954267" y="559.657748" style="stroke: #000000; stroke-width: 0.8"/>
      </g>
     </g>
     <g id="text_9">
      <!-- $\mathdefault{0}$ -->
      <g transform="translate(94.247124 570.035495)scale(0.3 -0.3)">
       <use xlink:href="#CMR17-30" transform="scale(0.996264)"/>
      </g>
     </g>
    </g>
    <g id="ytick_3">
     <g id="line2d_17">
      <path d="M 114.954267 491.897748 
L 840.354267 491.897748 
" clip-path="url(#pf62e8a5b3b)" style="fill: none; stroke: #b0b0b0; stroke-width: 0.8; stroke-linecap: square"/>
     </g>
     <g id="line2d_18">
      <g>
       <use xlink:href="#m28aafc3132" x="114.954267" y="491.897748" style="stroke: #000000; stroke-width: 0.8"/>
      </g>
     </g>
     <g id="text_10">
      <!-- $\mathdefault{25}$ -->
      <g transform="translate(80.539981 502.275495)scale(0.3 -0.3)">
       <use xlink:href="#CMR17-32" transform="scale(0.996264)"/>
       <use xlink:href="#CMR17-35" transform="translate(45.690477 0)scale(0.996264)"/>
      </g>
     </g>
    </g>
    <g id="ytick_4">
     <g id="line2d_19">
      <path d="M 114.954267 424.137748 
L 840.354267 424.137748 
" clip-path="url(#pf62e8a5b3b)" style="fill: none; stroke: #b0b0b0; stroke-width: 0.8; stroke-linecap: square"/>
     </g>
     <g id="line2d_20">
      <g>
       <use xlink:href="#m28aafc3132" x="114.954267" y="424.137748" style="stroke: #000000; stroke-width: 0.8"/>
      </g>
     </g>
     <g id="text_11">
      <!-- $\mathdefault{50}$ -->
      <g transform="translate(80.539981 434.515495)scale(0.3 -0.3)">
       <use xlink:href="#CMR17-35" transform="scale(0.996264)"/>
       <use xlink:href="#CMR17-30" transform="translate(45.690477 0)scale(0.996264)"/>
      </g>
     </g>
    </g>
    <g id="ytick_5">
     <g id="line2d_21">
      <path d="M 114.954267 356.377748 
L 840.354267 356.377748 
" clip-path="url(#pf62e8a5b3b)" style="fill: none; stroke: #b0b0b0; stroke-width: 0.8; stroke-linecap: square"/>
     </g>
     <g id="line2d_22">
      <g>
       <use xlink:href="#m28aafc3132" x="114.954267" y="356.377748" style="stroke: #000000; stroke-width: 0.8"/>
      </g>
     </g>
     <g id="text_12">
      <!-- $\mathdefault{75}$ -->
      <g transform="translate(80.539981 366.755495)scale(0.3 -0.3)">
       <defs>
        <path id="CMR17-37" d="M 2886 3941 
L 2886 4081 
L 1382 4081 
C 634 4081 621 4165 595 4288 
L 480 4288 
L 294 3094 
L 410 3094 
C 429 3215 474 3540 550 3661 
C 589 3712 1062 3712 1171 3712 
L 2579 3712 
L 1869 2661 
C 1395 1954 1069 999 1069 165 
C 1069 89 1069 -128 1299 -128 
C 1530 -128 1530 89 1530 171 
L 1530 465 
C 1530 1508 1709 2196 2003 2636 
L 2886 3941 
z
" transform="scale(0.015625)"/>
       </defs>
       <use xlink:href="#CMR17-37" transform="scale(0.996264)"/>
       <use xlink:href="#CMR17-35" transform="translate(45.690477 0)scale(0.996264)"/>
      </g>
     </g>
    </g>
    <g id="ytick_6">
     <g id="line2d_23">
      <path d="M 114.954267 288.617748 
L 840.354267 288.617748 
" clip-path="url(#pf62e8a5b3b)" style="fill: none; stroke: #b0b0b0; stroke-width: 0.8; stroke-linecap: square"/>
     </g>
     <g id="line2d_24">
      <g>
       <use xlink:href="#m28aafc3132" x="114.954267" y="288.617748" style="stroke: #000000; stroke-width: 0.8"/>
      </g>
     </g>
     <g id="text_13">
      <!-- $\mathdefault{100}$ -->
      <g transform="translate(66.832838 298.995495)scale(0.3 -0.3)">
       <use xlink:href="#CMR17-31" transform="scale(0.996264)"/>
       <use xlink:href="#CMR17-30" transform="translate(45.690477 0)scale(0.996264)"/>
       <use xlink:href="#CMR17-30" transform="translate(91.380954 0)scale(0.996264)"/>
      </g>
     </g>
    </g>
    <g id="ytick_7">
     <g id="line2d_25">
      <path d="M 114.954267 220.857748 
L 840.354267 220.857748 
" clip-path="url(#pf62e8a5b3b)" style="fill: none; stroke: #b0b0b0; stroke-width: 0.8; stroke-linecap: square"/>
     </g>
     <g id="line2d_26">
      <g>
       <use xlink:href="#m28aafc3132" x="114.954267" y="220.857748" style="stroke: #000000; stroke-width: 0.8"/>
      </g>
     </g>
     <g id="text_14">
      <!-- $\mathdefault{125}$ -->
      <g transform="translate(66.832838 231.235495)scale(0.3 -0.3)">
       <use xlink:href="#CMR17-31" transform="scale(0.996264)"/>
       <use xlink:href="#CMR17-32" transform="translate(45.690477 0)scale(0.996264)"/>
       <use xlink:href="#CMR17-35" transform="translate(91.380954 0)scale(0.996264)"/>
      </g>
     </g>
    </g>
    <g id="ytick_8">
     <g id="line2d_27">
      <path d="M 114.954267 153.097748 
L 840.354267 153.097748 
" clip-path="url(#pf62e8a5b3b)" style="fill: none; stroke: #b0b0b0; stroke-width: 0.8; stroke-linecap: square"/>
     </g>
     <g id="line2d_28">
      <g>
       <use xlink:href="#m28aafc3132" x="114.954267" y="153.097748" style="stroke: #000000; stroke-width: 0.8"/>
      </g>
     </g>
     <g id="text_15">
      <!-- $\mathdefault{150}$ -->
      <g transform="translate(66.832838 163.475495)scale(0.3 -0.3)">
       <use xlink:href="#CMR17-31" transform="scale(0.996264)"/>
       <use xlink:href="#CMR17-35" transform="translate(45.690477 0)scale(0.996264)"/>
       <use xlink:href="#CMR17-30" transform="translate(91.380954 0)scale(0.996264)"/>
      </g>
     </g>
    </g>
    <g id="ytick_9">
     <g id="line2d_29">
      <path d="M 114.954267 85.337748 
L 840.354267 85.337748 
" clip-path="url(#pf62e8a5b3b)" style="fill: none; stroke: #b0b0b0; stroke-width: 0.8; stroke-linecap: square"/>
     </g>
     <g id="line2d_30">
      <g>
       <use xlink:href="#m28aafc3132" x="114.954267" y="85.337748" style="stroke: #000000; stroke-width: 0.8"/>
      </g>
     </g>
     <g id="text_16">
      <!-- $\mathdefault{175}$ -->
      <g transform="translate(66.832838 95.715495)scale(0.3 -0.3)">
       <use xlink:href="#CMR17-31" transform="scale(0.996264)"/>
       <use xlink:href="#CMR17-37" transform="translate(45.690477 0)scale(0.996264)"/>
       <use xlink:href="#CMR17-35" transform="translate(91.380954 0)scale(0.996264)"/>
      </g>
     </g>
    </g>
    <g id="ytick_10">
     <g id="line2d_31">
      <path d="M 114.954267 17.577748 
L 840.354267 17.577748 
" clip-path="url(#pf62e8a5b3b)" style="fill: none; stroke: #b0b0b0; stroke-width: 0.8; stroke-linecap: square"/>
     </g>
     <g id="line2d_32">
      <g>
       <use xlink:href="#m28aafc3132" x="114.954267" y="17.577748" style="stroke: #000000; stroke-width: 0.8"/>
      </g>
     </g>
     <g id="text_17">
      <!-- $\mathdefault{200}$ -->
      <g transform="translate(66.832838 27.955495)scale(0.3 -0.3)">
       <use xlink:href="#CMR17-32" transform="scale(0.996264)"/>
       <use xlink:href="#CMR17-30" transform="translate(45.690477 0)scale(0.996264)"/>
       <use xlink:href="#CMR17-30" transform="translate(91.380954 0)scale(0.996264)"/>
      </g>
     </g>
    </g>
    <g id="text_18">
     <!-- $\frac{P}{P_\infty}, \; -$ -->
     <g transform="translate(37.608171 365.815348)rotate(-90)scale(0.35 -0.35)">
      <defs>
       <path id="CMMI12-50" d="M 1894 2023 
L 2970 2023 
C 3853 2023 4736 2673 4736 3401 
C 4736 3898 4314 4352 3507 4352 
L 1530 4352 
C 1408 4352 1350 4352 1350 4231 
C 1350 4167 1408 4167 1504 4167 
C 1894 4167 1894 4116 1894 4046 
C 1894 4034 1894 3995 1869 3899 
L 1005 472 
C 947 249 934 185 486 185 
C 365 185 301 185 301 70 
C 301 0 358 0 397 0 
C 518 0 646 0 768 0 
L 1517 0 
C 1638 0 1773 0 1894 0 
C 1946 0 2016 0 2016 121 
C 2016 185 1958 185 1862 185 
C 1478 185 1472 230 1472 293 
C 1472 325 1478 369 1485 401 
L 1894 2023 
z
M 2355 3930 
C 2413 4167 2438 4167 2688 4167 
L 3322 4167 
C 3802 4167 4198 4013 4198 3535 
C 4198 3369 4115 2827 3821 2534 
C 3712 2419 3405 2176 2822 2176 
L 1920 2176 
L 2355 3930 
z
" transform="scale(0.015625)"/>
       <path id="CMSY10-31" d="M 3251 1730 
C 2906 2166 2829 2262 2630 2422 
C 2272 2710 1914 2825 1587 2825 
C 838 2825 352 2122 352 1374 
C 352 639 826 -70 1562 -70 
C 2298 -70 2829 511 3142 1022 
C 3488 588 3565 492 3763 332 
C 4122 45 4480 -70 4806 -70 
C 5555 -70 6042 633 6042 1380 
C 6042 2115 5568 2825 4832 2825 
C 4096 2825 3565 2242 3251 1730 
z
M 3418 1514 
C 3680 1975 4154 2620 4877 2620 
C 5555 2620 5901 1955 5901 1380 
C 5901 753 5472 236 4909 236 
C 4538 236 4250 505 4115 638 
C 3955 811 3808 1009 3418 1514 
z
M 2976 1240 
C 2714 780 2240 134 1517 134 
C 838 134 493 799 493 1374 
C 493 2000 922 2518 1485 2518 
C 1856 2518 2144 2249 2278 2115 
C 2438 1943 2586 1744 2976 1240 
z
" transform="scale(0.015625)"/>
      </defs>
      <use xlink:href="#CMMI12-50" transform="translate(20.413759 39.226102)scale(0.697382)"/>
      <use xlink:href="#CMMI12-50" transform="translate(0 -34.355253)scale(0.697382)"/>
      <use xlink:href="#CMSY10-31" transform="translate(44.013857 -44.815949)scale(0.498132)"/>
      <use xlink:href="#CMMI12-3b" transform="translate(95.52084 0)scale(0.996264)"/>
      <use xlink:href="#CMSY10-0" transform="translate(166.896431 0)scale(0.996264)"/>
      <path d="M 0 22.914133 
L 94.325327 22.914133 
L 94.325327 26.899083 
L 0 26.899083 
L 0 22.914133 
z
"/>
     </g>
    </g>
   </g>
   <g id="line2d_33">
    <path d="M 127.907839 556.522892 
L 189.285595 556.520013 
L 190.422229 556.046497 
L 191.548963 554.844984 
L 192.675696 546.807594 
L 194.985287 533.098167 
L 196.140083 527.945498 
L 197.294879 522.1008 
L 198.449674 520.199172 
L 199.60447 520.71344 
L 200.759265 522.760236 
L 201.914061 523.334594 
L 203.068857 524.401253 
L 205.378448 525.733454 
L 209.997631 525.911459 
L 211.152426 525.848083 
L 214.616813 525.987476 
L 220.390791 526.009077 
L 227.319565 525.870942 
L 236.773932 525.95276 
L 256.209375 526.013392 
L 314.76138 526.016541 
L 403.015199 526.111424 
L 440.747096 526.141371 
L 441.837736 527.005864 
L 442.928377 356.141608 
L 443.723715 66.844532 
L 444.519054 132.881004 
L 445.314392 146.179622 
L 446.10973 152.724745 
L 446.905069 153.521337 
L 447.700407 153.553788 
L 448.495745 155.458118 
L 449.291084 158.511607 
L 450.881761 161.635374 
L 453.267776 165.209513 
L 454.858453 166.102101 
L 455.653791 166.401889 
L 456.449129 166.828538 
L 459.630483 167.324796 
L 461.22116 167.558127 
L 463.607175 168.361963 
L 465.197851 169.304274 
L 466.788528 170.539861 
L 468.379205 172.119767 
L 469.969882 174.059962 
L 471.560558 176.483031 
L 472.355897 177.960858 
L 473.946574 181.597291 
L 474.741912 183.609314 
L 476.332589 189.201093 
L 477.127927 192.521618 
L 478.726749 201.632787 
L 480.508364 214.114139 
L 481.509236 221.619939 
L 483.7766 241.420438 
L 486.442833 270.631058 
L 489.59267 308.568995 
L 491.376498 328.722464 
L 493.316667 346.252519 
L 495.427579 361.407415 
L 497.725208 374.010378 
L 500.226009 383.996305 
L 502.945258 393.774217 
L 505.904595 400.524022 
L 509.120387 404.656358 
L 512.614786 405.388921 
L 516.406047 404.16154 
L 520.512797 401.485564 
L 546.022358 381.88261 
L 551.748794 377.377997 
L 557.47523 373.115075 
L 563.201667 369.880303 
L 568.928103 367.147927 
L 574.654539 365.157904 
L 580.380976 363.844674 
L 586.107412 363.174476 
L 597.560285 362.176831 
L 603.286721 361.495251 
L 609.013157 361.398186 
L 614.739594 361.770732 
L 620.46603 362.337717 
L 626.192466 457.498874 
L 634.288448 557.506527 
L 642.384431 558.189777 
L 666.672377 558.051514 
L 690.960323 557.78486 
L 771.920145 557.453505 
L 820.496038 557.365179 
L 820.496038 557.365179 
" clip-path="url(#pf62e8a5b3b)" style="fill: none; stroke: #ff0000; stroke-width: 3; stroke-linecap: square"/>
   </g>
   <g id="line2d_34">
    <defs>
     <path id="m8362c015a8" d="M -0 7.071068 
L 4.242641 0 
L -0 -7.071068 
L -4.242641 -0 
z
" style="stroke: #000000; stroke-width: 1.5; stroke-linejoin: miter"/>
    </defs>
    <g clip-path="url(#pf62e8a5b3b)">
     <use xlink:href="#m8362c015a8" x="195.753772" y="550.220422" style="fill: #ffffff; stroke: #000000; stroke-width: 1.5; stroke-linejoin: miter"/>
     <use xlink:href="#m8362c015a8" x="200.8839" y="531.34577" style="fill: #ffffff; stroke: #000000; stroke-width: 1.5; stroke-linejoin: miter"/>
     <use xlink:href="#m8362c015a8" x="214.735243" y="525.683374" style="fill: #ffffff; stroke: #000000; stroke-width: 1.5; stroke-linejoin: miter"/>
     <use xlink:href="#m8362c015a8" x="279.88786" y="525.673559" style="fill: #ffffff; stroke: #000000; stroke-width: 1.5; stroke-linejoin: miter"/>
     <use xlink:href="#m8362c015a8" x="340.936375" y="525.690849" style="fill: #ffffff; stroke: #000000; stroke-width: 1.5; stroke-linejoin: miter"/>
     <use xlink:href="#m8362c015a8" x="394.802712" y="525.683374" style="fill: #ffffff; stroke: #000000; stroke-width: 1.5; stroke-linejoin: miter"/>
     <use xlink:href="#m8362c015a8" x="442.512895" y="525.681034" style="fill: #ffffff; stroke: #000000; stroke-width: 1.5; stroke-linejoin: miter"/>
     <use xlink:href="#m8362c015a8" x="444.051934" y="155.740199" style="fill: #ffffff; stroke: #000000; stroke-width: 1.5; stroke-linejoin: miter"/>
     <use xlink:href="#m8362c015a8" x="448.669048" y="208.589224" style="fill: #ffffff; stroke: #000000; stroke-width: 1.5; stroke-linejoin: miter"/>
     <use xlink:href="#m8362c015a8" x="462.007379" y="193.489502" style="fill: #ffffff; stroke: #000000; stroke-width: 1.5; stroke-linejoin: miter"/>
     <use xlink:href="#m8362c015a8" x="471.754621" y="187.827107" style="fill: #ffffff; stroke: #000000; stroke-width: 1.5; stroke-linejoin: miter"/>
     <use xlink:href="#m8362c015a8" x="480.98885" y="202.926828" style="fill: #ffffff; stroke: #000000; stroke-width: 1.5; stroke-linejoin: miter"/>
     <use xlink:href="#m8362c015a8" x="485.092952" y="263.325714" style="fill: #ffffff; stroke: #000000; stroke-width: 1.5; stroke-linejoin: miter"/>
     <use xlink:href="#m8362c015a8" x="489.197054" y="340.711787" style="fill: #ffffff; stroke: #000000; stroke-width: 1.5; stroke-linejoin: miter"/>
     <use xlink:href="#m8362c015a8" x="493.814168" y="404.885603" style="fill: #ffffff; stroke: #000000; stroke-width: 1.5; stroke-linejoin: miter"/>
     <use xlink:href="#m8362c015a8" x="507.152499" y="429.42265" style="fill: #ffffff; stroke: #000000; stroke-width: 1.5; stroke-linejoin: miter"/>
     <use xlink:href="#m8362c015a8" x="532.803136" y="419.985324" style="fill: #ffffff; stroke: #000000; stroke-width: 1.5; stroke-linejoin: miter"/>
     <use xlink:href="#m8362c015a8" x="552.29762" y="380.348555" style="fill: #ffffff; stroke: #000000; stroke-width: 1.5; stroke-linejoin: miter"/>
     <use xlink:href="#m8362c015a8" x="583.591396" y="374.68616" style="fill: #ffffff; stroke: #000000; stroke-width: 1.5; stroke-linejoin: miter"/>
     <use xlink:href="#m8362c015a8" x="609.755045" y="374.68616" style="fill: #ffffff; stroke: #000000; stroke-width: 1.5; stroke-linejoin: miter"/>
     <use xlink:href="#m8362c015a8" x="625.65844" y="376.573625" style="fill: #ffffff; stroke: #000000; stroke-width: 1.5; stroke-linejoin: miter"/>
     <use xlink:href="#m8362c015a8" x="627.197478" y="552.107887" style="fill: #ffffff; stroke: #000000; stroke-width: 1.5; stroke-linejoin: miter"/>
     <use xlink:href="#m8362c015a8" x="664.647407" y="555.882817" style="fill: #ffffff; stroke: #000000; stroke-width: 1.5; stroke-linejoin: miter"/>
    </g>
   </g>
   <g id="patch_3">
    <path d="M 114.954267 627.417748 
L 114.954267 17.577748 
" style="fill: none; stroke: #000000; stroke-width: 0.8; stroke-linejoin: miter; stroke-linecap: square"/>
   </g>
   <g id="patch_4">
    <path d="M 840.354267 627.417748 
L 840.354267 17.577748 
" style="fill: none; stroke: #000000; stroke-width: 0.8; stroke-linejoin: miter; stroke-linecap: square"/>
   </g>
   <g id="patch_5">
    <path d="M 114.954267 627.417748 
L 840.354267 627.417748 
" style="fill: none; stroke: #000000; stroke-width: 0.8; stroke-linejoin: miter; stroke-linecap: square"/>
   </g>
   <g id="patch_6">
    <path d="M 114.954267 17.577748 
L 840.354267 17.577748 
" style="fill: none; stroke: #000000; stroke-width: 0.8; stroke-linejoin: miter; stroke-linecap: square"/>
   </g>
   <g id="legend_1">
    <g id="patch_7">
     <path d="M 515.72315 191.924801 
L 815.854267 191.924801 
Q 822.854267 191.924801 822.854267 184.924801 
L 822.854267 42.077748 
Q 822.854267 35.077748 815.854267 35.077748 
L 515.72315 35.077748 
Q 508.72315 35.077748 508.72315 42.077748 
L 508.72315 184.924801 
Q 508.72315 191.924801 515.72315 191.924801 
z
" style="fill: #ffffff; stroke: #cccccc; stroke-linejoin: miter"/>
    </g>
    <g id="patch_8">
     <path d="M 522.72315 73.577748 
L 592.72315 73.577748 
L 592.72315 49.077748 
L 522.72315 49.077748 
z
" style="fill: #99ccff; fill-opacity: 0.7"/>
    </g>
    <g id="text_19">
     <!-- $\sigma$ -->
     <g transform="translate(620.72315 73.577748)scale(0.35 -0.35)">
      <defs>
       <path id="CMMI12-1b" d="M 3251 2408 
C 3334 2408 3546 2408 3546 2612 
C 3546 2752 3424 2752 3309 2752 
L 1894 2752 
C 934 2752 243 1686 243 932 
C 243 390 595 -64 1171 -64 
C 1926 -64 2752 747 2752 1705 
C 2752 1954 2694 2196 2541 2408 
L 3251 2408 
z
M 1178 64 
C 851 64 614 313 614 754 
C 614 1137 845 2408 1786 2408 
C 2061 2408 2368 2274 2368 1781 
C 2368 1558 2266 1021 2042 652 
C 1811 275 1466 64 1178 64 
z
" transform="scale(0.015625)"/>
      </defs>
      <use xlink:href="#CMMI12-1b" transform="scale(0.996264)"/>
     </g>
    </g>
    <g id="line2d_35">
     <path d="M 522.72315 110.110099 
L 557.72315 110.110099 
L 592.72315 110.110099 
" style="fill: none; stroke: #ff0000; stroke-width: 3; stroke-linecap: square"/>
    </g>
    <g id="text_20">
     <!-- $\mu$ -->
     <g transform="translate(620.72315 122.360099)scale(0.35 -0.35)">
      <defs>
       <path id="CMMI12-16" d="M 922 140 
C 1082 -6 1318 -64 1536 -64 
C 1946 -64 2227 208 2374 405 
C 2438 69 2707 -64 2931 -64 
C 3123 -64 3277 50 3392 277 
C 3494 493 3584 879 3584 903 
C 3584 935 3558 960 3520 960 
C 3462 960 3456 928 3430 834 
C 3334 461 3213 64 2950 64 
C 2765 64 2752 229 2752 358 
C 2752 504 2810 735 2854 926 
L 3034 1615 
C 3059 1737 3130 2023 3162 2139 
C 3200 2292 3270 2567 3270 2592 
C 3270 2688 3194 2752 3098 2752 
C 3040 2752 2906 2726 2854 2535 
L 2406 760 
C 2374 632 2374 619 2291 517 
C 2214 409 1965 64 1562 64 
C 1203 64 1088 326 1088 625 
C 1088 811 1146 1034 1171 1143 
L 1459 2293 
C 1491 2414 1542 2618 1542 2657 
C 1542 2759 1459 2816 1376 2816 
C 1318 2816 1178 2797 1126 2592 
L 198 -1107 
C 192 -1139 179 -1177 179 -1216 
C 179 -1312 256 -1376 352 -1376 
C 538 -1376 576 -1228 621 -1050 
L 922 140 
z
" transform="scale(0.015625)"/>
      </defs>
      <use xlink:href="#CMMI12-16" transform="scale(0.996264)"/>
     </g>
    </g>
    <g id="line2d_36">
     <g>
      <use xlink:href="#m8362c015a8" x="557.72315" y="158.89245" style="fill: #ffffff; stroke: #000000; stroke-width: 1.5; stroke-linejoin: miter"/>
     </g>
    </g>
    <g id="text_21">
     <!-- $\mathrm{Garbacz} \, \mathrm{et} \, \mathrm{al}.$ -->
     <g transform="translate(620.72315 171.14245)scale(0.35 -0.35)">
      <defs>
       <path id="CMR17-47" d="M 3974 1233 
C 3974 1473 3994 1505 4390 1505 
L 4390 1670 
C 4237 1664 3891 1664 3718 1664 
C 3539 1664 3040 1664 2797 1664 
L 2797 1505 
L 2989 1505 
C 3539 1505 3552 1434 3552 1201 
L 3552 774 
C 3552 63 2720 63 2522 63 
C 1862 63 781 511 781 2160 
C 781 3808 1843 4250 2464 4250 
C 3187 4250 3712 3626 3834 2741 
C 3846 2664 3846 2651 3904 2651 
C 3974 2651 3974 2664 3974 2779 
L 3974 4288 
C 3974 4402 3968 4409 3930 4409 
C 3904 4409 3898 4402 3853 4326 
L 3571 3791 
C 3258 4187 2874 4416 2381 4416 
C 1286 4416 294 3456 294 2148 
C 294 845 1267 -128 2394 -128 
C 2912 -128 3418 56 3616 417 
C 3725 158 3904 -20 3936 -20 
C 3968 -20 3974 -13 3974 100 
L 3974 1233 
z
" transform="scale(0.015625)"/>
       <path id="CMR17-61" d="M 2304 1653 
C 2304 2072 2304 2294 2035 2543 
C 1798 2752 1523 2816 1306 2816 
C 800 2816 435 2407 435 1971 
C 435 1728 627 1728 666 1728 
C 749 1728 896 1778 896 1954 
C 896 2112 774 2181 666 2181 
C 640 2181 608 2174 589 2168 
C 723 2592 1069 2714 1293 2714 
C 1613 2714 1965 2429 1965 1885 
L 1965 1600 
C 1587 1600 1133 1549 774 1357 
C 371 1133 256 813 256 570 
C 256 77 832 -64 1171 -64 
C 1523 -64 1850 139 1990 511 
C 2003 233 2182 -18 2464 -18 
C 2598 -18 2938 70 2938 567 
L 2938 920 
L 2822 920 
L 2822 562 
C 2822 178 2650 128 2566 128 
C 2304 128 2304 458 2304 738 
L 2304 1653 
z
M 1965 870 
C 1965 317 1568 38 1216 38 
C 896 38 646 275 646 570 
C 646 761 730 1100 1101 1305 
C 1408 1478 1760 1504 1965 1504 
L 1965 870 
z
" transform="scale(0.015625)"/>
       <path id="CMR17-72" d="M 960 1497 
C 960 2112 1222 2688 1702 2688 
C 1747 2688 1792 2682 1837 2662 
C 1837 2662 1696 2617 1696 2452 
C 1696 2298 1818 2234 1914 2234 
C 1990 2234 2131 2279 2131 2458 
C 2131 2663 1926 2790 1709 2790 
C 1222 2790 1011 2317 947 2093 
L 941 2093 
L 941 2790 
L 198 2720 
L 198 2554 
C 576 2554 634 2515 634 2208 
L 634 428 
C 634 184 608 153 198 153 
L 198 -13 
C 352 0 646 0 813 0 
C 998 0 1325 0 1498 -13 
L 1498 153 
C 1037 153 960 153 960 440 
L 960 1497 
z
" transform="scale(0.015625)"/>
       <path id="CMR17-62" d="M 960 4396 
L 198 4326 
L 198 4160 
C 576 4160 634 4122 634 3817 
L 634 -13 
L 749 -13 
L 934 441 
C 1120 141 1395 -64 1766 -64 
C 2406 -64 3053 500 3053 1370 
C 3053 2188 2477 2790 1830 2790 
C 1434 2790 1152 2579 960 2330 
L 960 4396 
z
M 973 2004 
C 973 2118 973 2138 1062 2272 
C 1312 2657 1670 2688 1792 2688 
C 1984 2688 2643 2585 2643 1376 
C 2643 108 1888 38 1734 38 
C 1536 38 1248 114 1043 486 
C 973 608 973 621 973 735 
L 973 2004 
z
" transform="scale(0.015625)"/>
       <path id="CMR17-63" d="M 2234 2240 
C 2112 2240 1933 2240 1933 2017 
C 1933 1838 2080 1787 2163 1787 
C 2208 1787 2394 1807 2394 2024 
C 2394 2467 1958 2803 1466 2803 
C 787 2803 211 2178 211 1363 
C 211 516 813 -64 1466 -64 
C 2259 -64 2458 677 2458 748 
C 2458 774 2451 793 2406 793 
C 2362 793 2355 787 2330 703 
C 2163 180 1798 51 1523 51 
C 1114 51 621 427 621 1369 
C 621 2338 1094 2688 1472 2688 
C 1722 2688 2093 2573 2234 2240 
z
" transform="scale(0.015625)"/>
       <path id="CMR17-7a" d="M 2310 2605 
C 2362 2670 2362 2682 2362 2695 
C 2362 2752 2336 2752 2221 2752 
L 275 2752 
L 211 1760 
L 326 1760 
C 371 2381 442 2650 1178 2650 
L 1958 2650 
L 128 96 
C 128 0 134 0 269 0 
L 2291 0 
L 2381 1152 
L 2266 1152 
C 2214 442 2131 115 1350 115 
L 531 115 
L 2310 2605 
z
" transform="scale(0.015625)"/>
       <path id="CMR17-65" d="M 2438 1472 
C 2464 1498 2464 1511 2464 1576 
C 2464 2238 2118 2816 1389 2816 
C 710 2816 173 2169 173 1383 
C 173 551 781 -64 1459 -64 
C 2176 -64 2458 607 2458 740 
C 2458 784 2419 784 2406 784 
C 2362 784 2355 771 2330 696 
C 2189 265 1837 51 1504 51 
C 1229 51 954 203 781 480 
C 582 803 582 1176 582 1472 
L 2438 1472 
z
M 589 1568 
C 634 2505 1126 2714 1382 2714 
C 1818 2714 2112 2297 2118 1568 
L 589 1568 
z
" transform="scale(0.015625)"/>
       <path id="CMR17-74" d="M 966 2560 
L 1862 2560 
L 1862 2725 
L 966 2725 
L 966 3904 
L 851 3904 
C 838 3245 614 2668 70 2668 
L 70 2560 
L 627 2560 
L 627 771 
C 627 650 627 -64 1370 -64 
C 1747 -64 1965 306 1965 777 
L 1965 1140 
L 1850 1140 
L 1850 783 
C 1850 344 1677 51 1408 51 
C 1222 51 966 178 966 758 
L 966 2560 
z
" transform="scale(0.015625)"/>
       <path id="CMR17-6c" d="M 979 4396 
L 218 4326 
L 218 4160 
C 595 4160 653 4122 653 3817 
L 653 426 
C 653 184 627 153 218 153 
L 218 -13 
C 371 0 653 0 813 0 
C 979 0 1261 0 1414 -13 
L 1414 153 
C 1005 153 979 178 979 426 
L 979 4396 
z
" transform="scale(0.015625)"/>
      </defs>
      <use xlink:href="#CMR17-47" transform="scale(0.996264)"/>
      <use xlink:href="#CMR17-61" transform="translate(72.355346 0)scale(0.996264)"/>
      <use xlink:href="#CMR17-72" transform="translate(118.045823 0)scale(0.996264)"/>
      <use xlink:href="#CMR17-62" transform="translate(153.326591 0)scale(0.996264)"/>
      <use xlink:href="#CMR17-61" transform="translate(204.221961 0)scale(0.996264)"/>
      <use xlink:href="#CMR17-63" transform="translate(249.912438 0)scale(0.996264)"/>
      <use xlink:href="#CMR17-7a" transform="translate(290.398098 0)scale(0.996264)"/>
      <use xlink:href="#CMR17-65" transform="translate(347.488164 0)scale(0.996264)"/>
      <use xlink:href="#CMR17-74" transform="translate(387.973824 0)scale(0.996264)"/>
      <use xlink:href="#CMR17-61" transform="translate(439.858997 0)scale(0.996264)"/>
      <use xlink:href="#CMR17-6c" transform="translate(485.549475 0)scale(0.996264)"/>
      <use xlink:href="#CMMI12-3a" transform="translate(510.420533 0)scale(0.996264)"/>
     </g>
    </g>
   </g>
  </g>
 </g>
 <defs>
  <clipPath id="pf62e8a5b3b">
   <rect x="114.954267" y="17.577748" width="725.4" height="609.84"/>
  </clipPath>
 </defs>
</svg>
