<?xml version="1.0" encoding="utf-8" standalone="no"?>
<!DOCTYPE svg PUBLIC "-//W3C//DTD SVG 1.1//EN"
  "http://www.w3.org/Graphics/SVG/1.1/DTD/svg11.dtd">
<svg xmlns:xlink="http://www.w3.org/1999/xlink" width="858.8125pt" height="698.147812pt" viewBox="0 0 858.8125 698.147812" xmlns="http://www.w3.org/2000/svg" version="1.1">
 <metadata>
  <rdf:RDF xmlns:dc="http://purl.org/dc/elements/1.1/" xmlns:cc="http://creativecommons.org/ns#" xmlns:rdf="http://www.w3.org/1999/02/22-rdf-syntax-ns#">
   <cc:Work>
    <dc:type rdf:resource="http://purl.org/dc/dcmitype/StillImage"/>
    <dc:date>2024-08-08T16:15:50.152665</dc:date>
    <dc:format>image/svg+xml</dc:format>
    <dc:creator>
     <cc:Agent>
      <dc:title>Matplotlib v3.5.3, https://matplotlib.org/</dc:title>
     </cc:Agent>
    </dc:creator>
   </cc:Work>
  </rdf:RDF>
 </metadata>
 <defs>
  <style type="text/css">*{stroke-linejoin: round; stroke-linecap: butt}</style>
 </defs>
 <g id="figure_1">
  <g id="patch_1">
   <path d="M 0 698.147812 
L 858.8125 698.147812 
L 858.8125 0 
L 0 0 
z
" style="fill: #ffffff"/>
  </g>
  <g id="axes_1">
   <g id="patch_2">
    <path d="M 126.2125 617.04 
L 851.6125 617.04 
L 851.6125 7.2 
L 126.2125 7.2 
z
" style="fill: #ffffff"/>
   </g>
   <g id="matplotlib.axis_1">
    <g id="xtick_1">
     <g id="line2d_1">
      <path d="M 229.841071 617.04 
L 229.841071 7.2 
" clip-path="url(#p5abe4aaae9)" style="fill: none; stroke: #b0b0b0; stroke-width: 0.8; stroke-linecap: square"/>
     </g>
     <g id="line2d_2">
      <defs>
       <path id="m21a8aeb13f" d="M 0 0 
L 0 3.5 
" style="stroke: #000000; stroke-width: 0.8"/>
      </defs>
      <g>
       <use xlink:href="#m21a8aeb13f" x="229.841071" y="617.04" style="stroke: #000000; stroke-width: 0.8"/>
      </g>
     </g>
     <g id="text_1">
      <!-- 0.20 -->
      <g transform="translate(196.442634 646.835312)scale(0.3 -0.3)">
       <defs>
        <path id="DejaVuSans-30" d="M 2034 4250 
Q 1547 4250 1301 3770 
Q 1056 3291 1056 2328 
Q 1056 1369 1301 889 
Q 1547 409 2034 409 
Q 2525 409 2770 889 
Q 3016 1369 3016 2328 
Q 3016 3291 2770 3770 
Q 2525 4250 2034 4250 
z
M 2034 4750 
Q 2819 4750 3233 4129 
Q 3647 3509 3647 2328 
Q 3647 1150 3233 529 
Q 2819 -91 2034 -91 
Q 1250 -91 836 529 
Q 422 1150 422 2328 
Q 422 3509 836 4129 
Q 1250 4750 2034 4750 
z
" transform="scale(0.015625)"/>
        <path id="DejaVuSans-2e" d="M 684 794 
L 1344 794 
L 1344 0 
L 684 0 
L 684 794 
z
" transform="scale(0.015625)"/>
        <path id="DejaVuSans-32" d="M 1228 531 
L 3431 531 
L 3431 0 
L 469 0 
L 469 531 
Q 828 903 1448 1529 
Q 2069 2156 2228 2338 
Q 2531 2678 2651 2914 
Q 2772 3150 2772 3378 
Q 2772 3750 2511 3984 
Q 2250 4219 1831 4219 
Q 1534 4219 1204 4116 
Q 875 4013 500 3803 
L 500 4441 
Q 881 4594 1212 4672 
Q 1544 4750 1819 4750 
Q 2544 4750 2975 4387 
Q 3406 4025 3406 3419 
Q 3406 3131 3298 2873 
Q 3191 2616 2906 2266 
Q 2828 2175 2409 1742 
Q 1991 1309 1228 531 
z
" transform="scale(0.015625)"/>
       </defs>
       <use xlink:href="#DejaVuSans-30"/>
       <use xlink:href="#DejaVuSans-2e" x="63.623047"/>
       <use xlink:href="#DejaVuSans-32" x="95.410156"/>
       <use xlink:href="#DejaVuSans-30" x="159.033203"/>
      </g>
     </g>
    </g>
    <g id="xtick_2">
     <g id="line2d_3">
      <path d="M 402.555357 617.04 
L 402.555357 7.2 
" clip-path="url(#p5abe4aaae9)" style="fill: none; stroke: #b0b0b0; stroke-width: 0.8; stroke-linecap: square"/>
     </g>
     <g id="line2d_4">
      <g>
       <use xlink:href="#m21a8aeb13f" x="402.555357" y="617.04" style="stroke: #000000; stroke-width: 0.8"/>
      </g>
     </g>
     <g id="text_2">
      <!-- 0.25 -->
      <g transform="translate(369.15692 646.835312)scale(0.3 -0.3)">
       <defs>
        <path id="DejaVuSans-35" d="M 691 4666 
L 3169 4666 
L 3169 4134 
L 1269 4134 
L 1269 2991 
Q 1406 3038 1543 3061 
Q 1681 3084 1819 3084 
Q 2600 3084 3056 2656 
Q 3513 2228 3513 1497 
Q 3513 744 3044 326 
Q 2575 -91 1722 -91 
Q 1428 -91 1123 -41 
Q 819 9 494 109 
L 494 744 
Q 775 591 1075 516 
Q 1375 441 1709 441 
Q 2250 441 2565 725 
Q 2881 1009 2881 1497 
Q 2881 1984 2565 2268 
Q 2250 2553 1709 2553 
Q 1456 2553 1204 2497 
Q 953 2441 691 2322 
L 691 4666 
z
" transform="scale(0.015625)"/>
       </defs>
       <use xlink:href="#DejaVuSans-30"/>
       <use xlink:href="#DejaVuSans-2e" x="63.623047"/>
       <use xlink:href="#DejaVuSans-32" x="95.410156"/>
       <use xlink:href="#DejaVuSans-35" x="159.033203"/>
      </g>
     </g>
    </g>
    <g id="xtick_3">
     <g id="line2d_5">
      <path d="M 575.269643 617.04 
L 575.269643 7.2 
" clip-path="url(#p5abe4aaae9)" style="fill: none; stroke: #b0b0b0; stroke-width: 0.8; stroke-linecap: square"/>
     </g>
     <g id="line2d_6">
      <g>
       <use xlink:href="#m21a8aeb13f" x="575.269643" y="617.04" style="stroke: #000000; stroke-width: 0.8"/>
      </g>
     </g>
     <g id="text_3">
      <!-- 0.30 -->
      <g transform="translate(541.871205 646.835312)scale(0.3 -0.3)">
       <defs>
        <path id="DejaVuSans-33" d="M 2597 2516 
Q 3050 2419 3304 2112 
Q 3559 1806 3559 1356 
Q 3559 666 3084 287 
Q 2609 -91 1734 -91 
Q 1441 -91 1130 -33 
Q 819 25 488 141 
L 488 750 
Q 750 597 1062 519 
Q 1375 441 1716 441 
Q 2309 441 2620 675 
Q 2931 909 2931 1356 
Q 2931 1769 2642 2001 
Q 2353 2234 1838 2234 
L 1294 2234 
L 1294 2753 
L 1863 2753 
Q 2328 2753 2575 2939 
Q 2822 3125 2822 3475 
Q 2822 3834 2567 4026 
Q 2313 4219 1838 4219 
Q 1578 4219 1281 4162 
Q 984 4106 628 3988 
L 628 4550 
Q 988 4650 1302 4700 
Q 1616 4750 1894 4750 
Q 2613 4750 3031 4423 
Q 3450 4097 3450 3541 
Q 3450 3153 3228 2886 
Q 3006 2619 2597 2516 
z
" transform="scale(0.015625)"/>
       </defs>
       <use xlink:href="#DejaVuSans-30"/>
       <use xlink:href="#DejaVuSans-2e" x="63.623047"/>
       <use xlink:href="#DejaVuSans-33" x="95.410156"/>
       <use xlink:href="#DejaVuSans-30" x="159.033203"/>
      </g>
     </g>
    </g>
    <g id="xtick_4">
     <g id="line2d_7">
      <path d="M 747.983929 617.04 
L 747.983929 7.2 
" clip-path="url(#p5abe4aaae9)" style="fill: none; stroke: #b0b0b0; stroke-width: 0.8; stroke-linecap: square"/>
     </g>
     <g id="line2d_8">
      <g>
       <use xlink:href="#m21a8aeb13f" x="747.983929" y="617.04" style="stroke: #000000; stroke-width: 0.8"/>
      </g>
     </g>
     <g id="text_4">
      <!-- 0.35 -->
      <g transform="translate(714.585491 646.835312)scale(0.3 -0.3)">
       <use xlink:href="#DejaVuSans-30"/>
       <use xlink:href="#DejaVuSans-2e" x="63.623047"/>
       <use xlink:href="#DejaVuSans-33" x="95.410156"/>
       <use xlink:href="#DejaVuSans-35" x="159.033203"/>
      </g>
     </g>
    </g>
    <g id="text_5">
     <!-- X coordinate [m] -->
     <g transform="translate(341.759375 683.668906)scale(0.35 -0.35)">
      <defs>
       <path id="DejaVuSans-58" d="M 403 4666 
L 1081 4666 
L 2241 2931 
L 3406 4666 
L 4084 4666 
L 2584 2425 
L 4184 0 
L 3506 0 
L 2194 1984 
L 872 0 
L 191 0 
L 1856 2491 
L 403 4666 
z
" transform="scale(0.015625)"/>
       <path id="DejaVuSans-20" transform="scale(0.015625)"/>
       <path id="DejaVuSans-63" d="M 3122 3366 
L 3122 2828 
Q 2878 2963 2633 3030 
Q 2388 3097 2138 3097 
Q 1578 3097 1268 2742 
Q 959 2388 959 1747 
Q 959 1106 1268 751 
Q 1578 397 2138 397 
Q 2388 397 2633 464 
Q 2878 531 3122 666 
L 3122 134 
Q 2881 22 2623 -34 
Q 2366 -91 2075 -91 
Q 1284 -91 818 406 
Q 353 903 353 1747 
Q 353 2603 823 3093 
Q 1294 3584 2113 3584 
Q 2378 3584 2631 3529 
Q 2884 3475 3122 3366 
z
" transform="scale(0.015625)"/>
       <path id="DejaVuSans-6f" d="M 1959 3097 
Q 1497 3097 1228 2736 
Q 959 2375 959 1747 
Q 959 1119 1226 758 
Q 1494 397 1959 397 
Q 2419 397 2687 759 
Q 2956 1122 2956 1747 
Q 2956 2369 2687 2733 
Q 2419 3097 1959 3097 
z
M 1959 3584 
Q 2709 3584 3137 3096 
Q 3566 2609 3566 1747 
Q 3566 888 3137 398 
Q 2709 -91 1959 -91 
Q 1206 -91 779 398 
Q 353 888 353 1747 
Q 353 2609 779 3096 
Q 1206 3584 1959 3584 
z
" transform="scale(0.015625)"/>
       <path id="DejaVuSans-72" d="M 2631 2963 
Q 2534 3019 2420 3045 
Q 2306 3072 2169 3072 
Q 1681 3072 1420 2755 
Q 1159 2438 1159 1844 
L 1159 0 
L 581 0 
L 581 3500 
L 1159 3500 
L 1159 2956 
Q 1341 3275 1631 3429 
Q 1922 3584 2338 3584 
Q 2397 3584 2469 3576 
Q 2541 3569 2628 3553 
L 2631 2963 
z
" transform="scale(0.015625)"/>
       <path id="DejaVuSans-64" d="M 2906 2969 
L 2906 4863 
L 3481 4863 
L 3481 0 
L 2906 0 
L 2906 525 
Q 2725 213 2448 61 
Q 2172 -91 1784 -91 
Q 1150 -91 751 415 
Q 353 922 353 1747 
Q 353 2572 751 3078 
Q 1150 3584 1784 3584 
Q 2172 3584 2448 3432 
Q 2725 3281 2906 2969 
z
M 947 1747 
Q 947 1113 1208 752 
Q 1469 391 1925 391 
Q 2381 391 2643 752 
Q 2906 1113 2906 1747 
Q 2906 2381 2643 2742 
Q 2381 3103 1925 3103 
Q 1469 3103 1208 2742 
Q 947 2381 947 1747 
z
" transform="scale(0.015625)"/>
       <path id="DejaVuSans-69" d="M 603 3500 
L 1178 3500 
L 1178 0 
L 603 0 
L 603 3500 
z
M 603 4863 
L 1178 4863 
L 1178 4134 
L 603 4134 
L 603 4863 
z
" transform="scale(0.015625)"/>
       <path id="DejaVuSans-6e" d="M 3513 2113 
L 3513 0 
L 2938 0 
L 2938 2094 
Q 2938 2591 2744 2837 
Q 2550 3084 2163 3084 
Q 1697 3084 1428 2787 
Q 1159 2491 1159 1978 
L 1159 0 
L 581 0 
L 581 3500 
L 1159 3500 
L 1159 2956 
Q 1366 3272 1645 3428 
Q 1925 3584 2291 3584 
Q 2894 3584 3203 3211 
Q 3513 2838 3513 2113 
z
" transform="scale(0.015625)"/>
       <path id="DejaVuSans-61" d="M 2194 1759 
Q 1497 1759 1228 1600 
Q 959 1441 959 1056 
Q 959 750 1161 570 
Q 1363 391 1709 391 
Q 2188 391 2477 730 
Q 2766 1069 2766 1631 
L 2766 1759 
L 2194 1759 
z
M 3341 1997 
L 3341 0 
L 2766 0 
L 2766 531 
Q 2569 213 2275 61 
Q 1981 -91 1556 -91 
Q 1019 -91 701 211 
Q 384 513 384 1019 
Q 384 1609 779 1909 
Q 1175 2209 1959 2209 
L 2766 2209 
L 2766 2266 
Q 2766 2663 2505 2880 
Q 2244 3097 1772 3097 
Q 1472 3097 1187 3025 
Q 903 2953 641 2809 
L 641 3341 
Q 956 3463 1253 3523 
Q 1550 3584 1831 3584 
Q 2591 3584 2966 3190 
Q 3341 2797 3341 1997 
z
" transform="scale(0.015625)"/>
       <path id="DejaVuSans-74" d="M 1172 4494 
L 1172 3500 
L 2356 3500 
L 2356 3053 
L 1172 3053 
L 1172 1153 
Q 1172 725 1289 603 
Q 1406 481 1766 481 
L 2356 481 
L 2356 0 
L 1766 0 
Q 1100 0 847 248 
Q 594 497 594 1153 
L 594 3053 
L 172 3053 
L 172 3500 
L 594 3500 
L 594 4494 
L 1172 4494 
z
" transform="scale(0.015625)"/>
       <path id="DejaVuSans-65" d="M 3597 1894 
L 3597 1613 
L 953 1613 
Q 991 1019 1311 708 
Q 1631 397 2203 397 
Q 2534 397 2845 478 
Q 3156 559 3463 722 
L 3463 178 
Q 3153 47 2828 -22 
Q 2503 -91 2169 -91 
Q 1331 -91 842 396 
Q 353 884 353 1716 
Q 353 2575 817 3079 
Q 1281 3584 2069 3584 
Q 2775 3584 3186 3129 
Q 3597 2675 3597 1894 
z
M 3022 2063 
Q 3016 2534 2758 2815 
Q 2500 3097 2075 3097 
Q 1594 3097 1305 2825 
Q 1016 2553 972 2059 
L 3022 2063 
z
" transform="scale(0.015625)"/>
       <path id="DejaVuSans-5b" d="M 550 4863 
L 1875 4863 
L 1875 4416 
L 1125 4416 
L 1125 -397 
L 1875 -397 
L 1875 -844 
L 550 -844 
L 550 4863 
z
" transform="scale(0.015625)"/>
       <path id="DejaVuSans-6d" d="M 3328 2828 
Q 3544 3216 3844 3400 
Q 4144 3584 4550 3584 
Q 5097 3584 5394 3201 
Q 5691 2819 5691 2113 
L 5691 0 
L 5113 0 
L 5113 2094 
Q 5113 2597 4934 2840 
Q 4756 3084 4391 3084 
Q 3944 3084 3684 2787 
Q 3425 2491 3425 1978 
L 3425 0 
L 2847 0 
L 2847 2094 
Q 2847 2600 2669 2842 
Q 2491 3084 2119 3084 
Q 1678 3084 1418 2786 
Q 1159 2488 1159 1978 
L 1159 0 
L 581 0 
L 581 3500 
L 1159 3500 
L 1159 2956 
Q 1356 3278 1631 3431 
Q 1906 3584 2284 3584 
Q 2666 3584 2933 3390 
Q 3200 3197 3328 2828 
z
" transform="scale(0.015625)"/>
       <path id="DejaVuSans-5d" d="M 1947 4863 
L 1947 -844 
L 622 -844 
L 622 -397 
L 1369 -397 
L 1369 4416 
L 622 4416 
L 622 4863 
L 1947 4863 
z
" transform="scale(0.015625)"/>
      </defs>
      <use xlink:href="#DejaVuSans-58"/>
      <use xlink:href="#DejaVuSans-20" x="68.505859"/>
      <use xlink:href="#DejaVuSans-63" x="100.292969"/>
      <use xlink:href="#DejaVuSans-6f" x="155.273438"/>
      <use xlink:href="#DejaVuSans-6f" x="216.455078"/>
      <use xlink:href="#DejaVuSans-72" x="277.636719"/>
      <use xlink:href="#DejaVuSans-64" x="317"/>
      <use xlink:href="#DejaVuSans-69" x="380.476562"/>
      <use xlink:href="#DejaVuSans-6e" x="408.259766"/>
      <use xlink:href="#DejaVuSans-61" x="471.638672"/>
      <use xlink:href="#DejaVuSans-74" x="532.917969"/>
      <use xlink:href="#DejaVuSans-65" x="572.126953"/>
      <use xlink:href="#DejaVuSans-20" x="633.650391"/>
      <use xlink:href="#DejaVuSans-5b" x="665.4375"/>
      <use xlink:href="#DejaVuSans-6d" x="704.451172"/>
      <use xlink:href="#DejaVuSans-5d" x="801.863281"/>
     </g>
    </g>
   </g>
   <g id="matplotlib.axis_2">
    <g id="ytick_1">
     <g id="line2d_9">
      <path d="M 126.2125 601.403077 
L 851.6125 601.403077 
" clip-path="url(#p5abe4aaae9)" style="fill: none; stroke: #b0b0b0; stroke-width: 0.8; stroke-linecap: square"/>
     </g>
     <g id="line2d_10">
      <defs>
       <path id="m6a781a532d" d="M 0 0 
L -3.5 0 
" style="stroke: #000000; stroke-width: 0.8"/>
      </defs>
      <g>
       <use xlink:href="#m6a781a532d" x="126.2125" y="601.403077" style="stroke: #000000; stroke-width: 0.8"/>
      </g>
     </g>
     <g id="text_6">
      <!-- 0 -->
      <g transform="translate(100.125 612.800733)scale(0.3 -0.3)">
       <use xlink:href="#DejaVuSans-30"/>
      </g>
     </g>
    </g>
    <g id="ytick_2">
     <g id="line2d_11">
      <path d="M 126.2125 538.855385 
L 851.6125 538.855385 
" clip-path="url(#p5abe4aaae9)" style="fill: none; stroke: #b0b0b0; stroke-width: 0.8; stroke-linecap: square"/>
     </g>
     <g id="line2d_12">
      <g>
       <use xlink:href="#m6a781a532d" x="126.2125" y="538.855385" style="stroke: #000000; stroke-width: 0.8"/>
      </g>
     </g>
     <g id="text_7">
      <!-- 20 -->
      <g transform="translate(81.0375 550.253041)scale(0.3 -0.3)">
       <use xlink:href="#DejaVuSans-32"/>
       <use xlink:href="#DejaVuSans-30" x="63.623047"/>
      </g>
     </g>
    </g>
    <g id="ytick_3">
     <g id="line2d_13">
      <path d="M 126.2125 476.307692 
L 851.6125 476.307692 
" clip-path="url(#p5abe4aaae9)" style="fill: none; stroke: #b0b0b0; stroke-width: 0.8; stroke-linecap: square"/>
     </g>
     <g id="line2d_14">
      <g>
       <use xlink:href="#m6a781a532d" x="126.2125" y="476.307692" style="stroke: #000000; stroke-width: 0.8"/>
      </g>
     </g>
     <g id="text_8">
      <!-- 40 -->
      <g transform="translate(81.0375 487.705349)scale(0.3 -0.3)">
       <defs>
        <path id="DejaVuSans-34" d="M 2419 4116 
L 825 1625 
L 2419 1625 
L 2419 4116 
z
M 2253 4666 
L 3047 4666 
L 3047 1625 
L 3713 1625 
L 3713 1100 
L 3047 1100 
L 3047 0 
L 2419 0 
L 2419 1100 
L 313 1100 
L 313 1709 
L 2253 4666 
z
" transform="scale(0.015625)"/>
       </defs>
       <use xlink:href="#DejaVuSans-34"/>
       <use xlink:href="#DejaVuSans-30" x="63.623047"/>
      </g>
     </g>
    </g>
    <g id="ytick_4">
     <g id="line2d_15">
      <path d="M 126.2125 413.76 
L 851.6125 413.76 
" clip-path="url(#p5abe4aaae9)" style="fill: none; stroke: #b0b0b0; stroke-width: 0.8; stroke-linecap: square"/>
     </g>
     <g id="line2d_16">
      <g>
       <use xlink:href="#m6a781a532d" x="126.2125" y="413.76" style="stroke: #000000; stroke-width: 0.8"/>
      </g>
     </g>
     <g id="text_9">
      <!-- 60 -->
      <g transform="translate(81.0375 425.157656)scale(0.3 -0.3)">
       <defs>
        <path id="DejaVuSans-36" d="M 2113 2584 
Q 1688 2584 1439 2293 
Q 1191 2003 1191 1497 
Q 1191 994 1439 701 
Q 1688 409 2113 409 
Q 2538 409 2786 701 
Q 3034 994 3034 1497 
Q 3034 2003 2786 2293 
Q 2538 2584 2113 2584 
z
M 3366 4563 
L 3366 3988 
Q 3128 4100 2886 4159 
Q 2644 4219 2406 4219 
Q 1781 4219 1451 3797 
Q 1122 3375 1075 2522 
Q 1259 2794 1537 2939 
Q 1816 3084 2150 3084 
Q 2853 3084 3261 2657 
Q 3669 2231 3669 1497 
Q 3669 778 3244 343 
Q 2819 -91 2113 -91 
Q 1303 -91 875 529 
Q 447 1150 447 2328 
Q 447 3434 972 4092 
Q 1497 4750 2381 4750 
Q 2619 4750 2861 4703 
Q 3103 4656 3366 4563 
z
" transform="scale(0.015625)"/>
       </defs>
       <use xlink:href="#DejaVuSans-36"/>
       <use xlink:href="#DejaVuSans-30" x="63.623047"/>
      </g>
     </g>
    </g>
    <g id="ytick_5">
     <g id="line2d_17">
      <path d="M 126.2125 351.212308 
L 851.6125 351.212308 
" clip-path="url(#p5abe4aaae9)" style="fill: none; stroke: #b0b0b0; stroke-width: 0.8; stroke-linecap: square"/>
     </g>
     <g id="line2d_18">
      <g>
       <use xlink:href="#m6a781a532d" x="126.2125" y="351.212308" style="stroke: #000000; stroke-width: 0.8"/>
      </g>
     </g>
     <g id="text_10">
      <!-- 80 -->
      <g transform="translate(81.0375 362.609964)scale(0.3 -0.3)">
       <defs>
        <path id="DejaVuSans-38" d="M 2034 2216 
Q 1584 2216 1326 1975 
Q 1069 1734 1069 1313 
Q 1069 891 1326 650 
Q 1584 409 2034 409 
Q 2484 409 2743 651 
Q 3003 894 3003 1313 
Q 3003 1734 2745 1975 
Q 2488 2216 2034 2216 
z
M 1403 2484 
Q 997 2584 770 2862 
Q 544 3141 544 3541 
Q 544 4100 942 4425 
Q 1341 4750 2034 4750 
Q 2731 4750 3128 4425 
Q 3525 4100 3525 3541 
Q 3525 3141 3298 2862 
Q 3072 2584 2669 2484 
Q 3125 2378 3379 2068 
Q 3634 1759 3634 1313 
Q 3634 634 3220 271 
Q 2806 -91 2034 -91 
Q 1263 -91 848 271 
Q 434 634 434 1313 
Q 434 1759 690 2068 
Q 947 2378 1403 2484 
z
M 1172 3481 
Q 1172 3119 1398 2916 
Q 1625 2713 2034 2713 
Q 2441 2713 2670 2916 
Q 2900 3119 2900 3481 
Q 2900 3844 2670 4047 
Q 2441 4250 2034 4250 
Q 1625 4250 1398 4047 
Q 1172 3844 1172 3481 
z
" transform="scale(0.015625)"/>
       </defs>
       <use xlink:href="#DejaVuSans-38"/>
       <use xlink:href="#DejaVuSans-30" x="63.623047"/>
      </g>
     </g>
    </g>
    <g id="ytick_6">
     <g id="line2d_19">
      <path d="M 126.2125 288.664615 
L 851.6125 288.664615 
" clip-path="url(#p5abe4aaae9)" style="fill: none; stroke: #b0b0b0; stroke-width: 0.8; stroke-linecap: square"/>
     </g>
     <g id="line2d_20">
      <g>
       <use xlink:href="#m6a781a532d" x="126.2125" y="288.664615" style="stroke: #000000; stroke-width: 0.8"/>
      </g>
     </g>
     <g id="text_11">
      <!-- 100 -->
      <g transform="translate(61.95 300.062272)scale(0.3 -0.3)">
       <defs>
        <path id="DejaVuSans-31" d="M 794 531 
L 1825 531 
L 1825 4091 
L 703 3866 
L 703 4441 
L 1819 4666 
L 2450 4666 
L 2450 531 
L 3481 531 
L 3481 0 
L 794 0 
L 794 531 
z
" transform="scale(0.015625)"/>
       </defs>
       <use xlink:href="#DejaVuSans-31"/>
       <use xlink:href="#DejaVuSans-30" x="63.623047"/>
       <use xlink:href="#DejaVuSans-30" x="127.246094"/>
      </g>
     </g>
    </g>
    <g id="ytick_7">
     <g id="line2d_21">
      <path d="M 126.2125 226.116923 
L 851.6125 226.116923 
" clip-path="url(#p5abe4aaae9)" style="fill: none; stroke: #b0b0b0; stroke-width: 0.8; stroke-linecap: square"/>
     </g>
     <g id="line2d_22">
      <g>
       <use xlink:href="#m6a781a532d" x="126.2125" y="226.116923" style="stroke: #000000; stroke-width: 0.8"/>
      </g>
     </g>
     <g id="text_12">
      <!-- 120 -->
      <g transform="translate(61.95 237.514579)scale(0.3 -0.3)">
       <use xlink:href="#DejaVuSans-31"/>
       <use xlink:href="#DejaVuSans-32" x="63.623047"/>
       <use xlink:href="#DejaVuSans-30" x="127.246094"/>
      </g>
     </g>
    </g>
    <g id="ytick_8">
     <g id="line2d_23">
      <path d="M 126.2125 163.569231 
L 851.6125 163.569231 
" clip-path="url(#p5abe4aaae9)" style="fill: none; stroke: #b0b0b0; stroke-width: 0.8; stroke-linecap: square"/>
     </g>
     <g id="line2d_24">
      <g>
       <use xlink:href="#m6a781a532d" x="126.2125" y="163.569231" style="stroke: #000000; stroke-width: 0.8"/>
      </g>
     </g>
     <g id="text_13">
      <!-- 140 -->
      <g transform="translate(61.95 174.966887)scale(0.3 -0.3)">
       <use xlink:href="#DejaVuSans-31"/>
       <use xlink:href="#DejaVuSans-34" x="63.623047"/>
       <use xlink:href="#DejaVuSans-30" x="127.246094"/>
      </g>
     </g>
    </g>
    <g id="ytick_9">
     <g id="line2d_25">
      <path d="M 126.2125 101.021538 
L 851.6125 101.021538 
" clip-path="url(#p5abe4aaae9)" style="fill: none; stroke: #b0b0b0; stroke-width: 0.8; stroke-linecap: square"/>
     </g>
     <g id="line2d_26">
      <g>
       <use xlink:href="#m6a781a532d" x="126.2125" y="101.021538" style="stroke: #000000; stroke-width: 0.8"/>
      </g>
     </g>
     <g id="text_14">
      <!-- 160 -->
      <g transform="translate(61.95 112.419195)scale(0.3 -0.3)">
       <use xlink:href="#DejaVuSans-31"/>
       <use xlink:href="#DejaVuSans-36" x="63.623047"/>
       <use xlink:href="#DejaVuSans-30" x="127.246094"/>
      </g>
     </g>
    </g>
    <g id="ytick_10">
     <g id="line2d_27">
      <path d="M 126.2125 38.473846 
L 851.6125 38.473846 
" clip-path="url(#p5abe4aaae9)" style="fill: none; stroke: #b0b0b0; stroke-width: 0.8; stroke-linecap: square"/>
     </g>
     <g id="line2d_28">
      <g>
       <use xlink:href="#m6a781a532d" x="126.2125" y="38.473846" style="stroke: #000000; stroke-width: 0.8"/>
      </g>
     </g>
     <g id="text_15">
      <!-- 180 -->
      <g transform="translate(61.95 49.871502)scale(0.3 -0.3)">
       <use xlink:href="#DejaVuSans-31"/>
       <use xlink:href="#DejaVuSans-38" x="63.623047"/>
       <use xlink:href="#DejaVuSans-30" x="127.246094"/>
      </g>
     </g>
    </g>
    <g id="text_16">
     <!-- $\frac{P}{P_\infty}$ [-] -->
     <g transform="translate(40.45 354.82)rotate(-90)scale(0.35 -0.35)">
      <defs>
       <path id="DejaVuSans-Oblique-50" d="M 1081 4666 
L 2541 4666 
Q 3178 4666 3512 4369 
Q 3847 4072 3847 3500 
Q 3847 2731 3353 2303 
Q 2859 1875 1966 1875 
L 1172 1875 
L 806 0 
L 172 0 
L 1081 4666 
z
M 1613 4147 
L 1275 2394 
L 2069 2394 
Q 2606 2394 2893 2669 
Q 3181 2944 3181 3456 
Q 3181 3784 2986 3965 
Q 2791 4147 2438 4147 
L 1613 4147 
z
" transform="scale(0.015625)"/>
       <path id="DejaVuSans-221e" d="M 2916 1091 
Q 2819 1203 2666 1466 
Q 2456 1091 2272 925 
Q 2041 725 1681 725 
Q 1259 725 981 1041 
Q 688 1372 688 1919 
Q 688 2444 981 2800 
Q 1244 3116 1688 3116 
Q 1916 3116 2084 3022 
Q 2281 2919 2416 2741 
Q 2541 2581 2666 2366 
Q 2875 2741 3059 2906 
Q 3291 3106 3650 3106 
Q 4072 3106 4350 2791 
Q 4644 2459 4644 1913 
Q 4644 1388 4350 1031 
Q 4088 716 3644 716 
Q 3416 716 3247 809 
Q 3078 894 2916 1091 
z
M 1647 1134 
Q 2163 1134 2472 1884 
Q 2075 2703 1647 2703 
Q 1334 2703 1175 2478 
Q 1003 2238 1003 1919 
Q 1003 1569 1175 1353 
Q 1350 1134 1647 1134 
z
M 3684 2697 
Q 3219 2697 2859 1947 
Q 3253 1128 3684 1128 
Q 3997 1128 4156 1353 
Q 4328 1594 4328 1913 
Q 4328 2263 4156 2478 
Q 3981 2697 3684 2697 
z
" transform="scale(0.015625)"/>
       <path id="DejaVuSans-2d" d="M 313 2009 
L 1997 2009 
L 1997 1497 
L 313 1497 
L 313 2009 
z
" transform="scale(0.015625)"/>
      </defs>
      <use xlink:href="#DejaVuSans-Oblique-50" transform="translate(21 43.965625)scale(0.7)"/>
      <use xlink:href="#DejaVuSans-Oblique-50" transform="translate(0 -38.31875)scale(0.7)"/>
      <use xlink:href="#DejaVuSans-221e" transform="translate(42.211914 -49.803125)scale(0.49)"/>
      <use xlink:href="#DejaVuSans-20" transform="translate(97.443359 0.16875)"/>
      <use xlink:href="#DejaVuSans-5b" transform="translate(129.230469 0.16875)"/>
      <use xlink:href="#DejaVuSans-2d" transform="translate(168.244141 0.16875)"/>
      <use xlink:href="#DejaVuSans-5d" transform="translate(204.328125 0.16875)"/>
      <path d="M 0 18.965625 
L 0 25.215625 
L 84.943359 25.215625 
L 84.943359 18.965625 
L 0 18.965625 
z
"/>
     </g>
    </g>
   </g>
   <g id="line2d_29">
    <path d="M -1 566.570273 
L 80.915469 566.475716 
L 183.057417 566.306861 
L 194.690914 566.09487 
L 203.416037 565.644429 
L 206.324411 515.687861 
L 208.445313 302.514043 
L 210.566215 163.640304 
L 212.687118 129.369451 
L 214.80802 129.419422 
L 216.928922 149.172686 
L 219.049825 170.506313 
L 221.170727 186.883069 
L 223.291629 198.405361 
L 225.412532 207.788189 
L 227.533434 211.497938 
L 229.654337 213.543106 
L 231.775239 214.897486 
L 233.896141 215.173288 
L 238.137946 215.296395 
L 242.379751 215.14181 
L 246.621555 214.661928 
L 252.984262 213.585625 
L 257.226067 213.06985 
L 263.588774 211.880196 
L 265.709676 211.278506 
L 269.951481 209.787007 
L 272.072383 209.155812 
L 276.314188 208.238367 
L 278.43509 207.981135 
L 282.676895 207.879283 
L 284.797798 207.92468 
L 286.9187 208.093079 
L 291.160505 208.768832 
L 293.281407 209.613025 
L 295.402309 210.843503 
L 297.523212 212.474682 
L 299.644114 214.59778 
L 301.786736 217.565137 
L 306.53771 227.695087 
L 309.206701 235.340166 
L 315.253007 256.085484 
L 318.662392 269.880928 
L 322.36296 283.16444 
L 326.387498 301.054285 
L 330.762525 319.673447 
L 335.519402 337.030003 
L 346.322283 371.348947 
L 352.449293 379.408465 
L 359.118098 390.755483 
L 366.369428 401.381707 
L 374.260994 412.504329 
L 382.836438 415.463554 
L 392.154835 419.961808 
L 402.264865 422.972898 
L 413.216197 423.330129 
L 425.053677 423.312042 
L 437.806418 422.99484 
L 451.481153 421.816186 
L 481.241693 415.661048 
L 496.51219 413.314957 
L 511.782687 410.569385 
L 542.32368 406.153997 
L 557.594177 403.667727 
L 572.864674 401.414352 
L 588.135171 399.476426 
L 603.405668 398.476201 
L 649.217159 395.889996 
L 664.487655 395.550814 
L 679.758152 395.499558 
L 695.028649 493.90754 
L 716.617935 586.3486 
L 738.207221 597.622783 
L 759.796506 598.857085 
L 802.975078 599.111246 
L 846.153649 599.125547 
L 859.8125 599.071623 
L 859.8125 599.071623 
" clip-path="url(#p5abe4aaae9)" style="fill: none; stroke: #ff0000; stroke-width: 3; stroke-linecap: square"/>
   </g>
   <g id="line2d_30">
    <path d="M -1 566.484741 
L 153.47913 566.529221 
L 201.997707 566.471754 
L 203.416037 566.326228 
L 204.901466 566.034357 
L 205.620581 565.829468 
L 206.324411 518.689329 
L 207.323244 430.454682 
L 208.445313 309.393428 
L 210.566215 15.49563 
L 211.699158 11.359655 
L 213.734883 96.108454 
L 214.80802 123.114699 
L 215.863293 138.238502 
L 216.928922 147.111191 
L 219.049825 152.330861 
L 221.170727 162.311193 
L 223.291629 167.297365 
L 225.412532 167.749323 
L 227.533434 180.561648 
L 229.654337 182.23757 
L 233.276337 182.81463 
L 238.137946 183.978454 
L 242.379751 184.595693 
L 246.704778 185.000402 
L 251.043554 185.926107 
L 255.29054 186.49586 
L 259.346969 187.267811 
L 263.588774 188.284174 
L 267.830579 189.761757 
L 274.193286 191.385192 
L 279.922725 193.051377 
L 284.797798 196.975583 
L 291.160505 201.849023 
L 295.776087 208.469583 
L 300.494213 218.399421 
L 305.048275 230.962359 
L 309.206701 248.898494 
L 312.356434 266.947532 
L 315.253007 280.120823 
L 318.662392 292.658595 
L 326.387498 323.10344 
L 330.762525 341.979738 
L 335.519402 364.127261 
L 340.693183 378.742893 
L 343.575074 391.979791 
L 349.230968 412.081622 
L 352.449293 426.308191 
L 359.118098 434.733592 
L 366.369428 438.063461 
L 374.260994 440.571729 
L 382.836438 440.880665 
L 392.154835 440.881259 
L 402.264865 439.853092 
L 413.216197 436.901685 
L 425.053677 432.609288 
L 437.806418 427.716003 
L 444.971799 424.049208 
L 451.481153 421.297726 
L 458.768373 418.577741 
L 466.034274 416.545285 
L 473.222156 414.004216 
L 481.241693 410.446368 
L 496.51219 406.338666 
L 511.782687 402.594962 
L 527.053183 399.814197 
L 542.32368 397.775168 
L 557.594177 395.997239 
L 572.864674 394.561355 
L 588.135171 393.601427 
L 603.405668 393.075407 
L 618.676165 392.85679 
L 642.100123 392.785388 
L 664.487655 393.057276 
L 672.562825 393.485074 
L 679.758152 394.063457 
L 690.643331 395.132093 
L 695.028649 500.340019 
L 700.211769 597.035127 
L 705.532079 599.942476 
L 710.997872 600.329853 
L 721.695427 600.696344 
L 732.480047 600.813059 
L 759.796506 600.704188 
L 846.153649 600.020976 
L 859.8125 599.985193 
L 859.8125 599.985193 
" clip-path="url(#p5abe4aaae9)" style="fill: none; stroke-dasharray: 19.2,4.8,3,4.8; stroke-dashoffset: 0; stroke: #0000ff; stroke-width: 3"/>
   </g>
   <g id="line2d_31">
    <path d="M -1 566.461352 
L 204.16673 566.405043 
L 205.277307 566.224025 
L 205.979584 565.945199 
L 207.323244 212.696861 
L 208.445313 86.266363 
L 209.51146 135.447607 
L 210.566215 147.537095 
L 211.165049 152.918175 
L 211.699158 156.579642 
L 212.687118 159.717614 
L 213.205245 161.292378 
L 213.734883 162.448773 
L 214.25547 163.29261 
L 214.80802 163.575006 
L 215.863293 163.687772 
L 216.928922 165.889915 
L 217.894746 170.956718 
L 219.049825 172.143949 
L 221.170727 174.052581 
L 223.291629 177.203013 
L 225.412532 177.680042 
L 227.533434 179.447175 
L 230.221564 183.44412 
L 233.276337 183.994273 
L 238.137946 184.494469 
L 242.379751 185.198018 
L 246.704778 185.769827 
L 255.29054 186.545818 
L 268.741516 187.563035 
L 274.193286 188.156737 
L 284.797798 190.272434 
L 291.160505 192.691038 
L 295.776087 197.211891 
L 300.494213 203.86415 
L 305.048275 214.288926 
L 309.206701 230.938726 
L 312.912299 250.293965 
L 317.178407 269.174548 
L 321.774521 291.972764 
L 330.762525 342.967188 
L 335.519402 364.318501 
L 340.693183 380.896244 
L 343.575074 392.100749 
L 349.230968 413.130455 
L 352.449293 422.927707 
L 355.938367 428.113418 
L 359.118098 430.686807 
L 362.627805 435.144553 
L 366.369428 439.071882 
L 370.132179 441.791273 
L 374.260994 443.528194 
L 378.463925 444.32759 
L 382.836438 444.516534 
L 392.154835 444.497476 
L 402.264865 444.216519 
L 413.216197 443.037151 
L 425.053677 440.655166 
L 437.806418 434.551748 
L 444.971799 430.649033 
L 458.768373 424.476793 
L 473.222156 417.329302 
L 484.3469 410.899075 
L 496.51219 405.950556 
L 511.782687 401.505312 
L 527.053183 397.591805 
L 542.32368 395.054 
L 557.594177 393.870825 
L 572.864674 393.460018 
L 603.405668 393.226592 
L 633.946662 393.229839 
L 668.790404 393.611162 
L 686.668276 393.973135 
L 692.891128 394.368255 
L 695.028649 461.394166 
L 697.384843 564.551051 
L 700.211769 600.350995 
L 702.921282 600.636276 
L 708.15155 600.848228 
L 716.617935 600.924964 
L 729.855751 600.774325 
L 756.684397 600.331714 
L 781.385792 600.222834 
L 859.8125 600.241213 
L 859.8125 600.241213 
" clip-path="url(#p5abe4aaae9)" style="fill: none; stroke-dasharray: 11.1,4.8; stroke-dashoffset: 0; stroke: #008000; stroke-width: 3"/>
   </g>
   <g id="line2d_32">
    <path d="M -1 566.453215 
L 204.571229 566.428097 
L 205.620581 566.035867 
L 205.979584 565.826445 
L 206.324411 548.78932 
L 206.853029 502.403587 
L 207.323244 87.324443 
L 207.872636 27.532526 
L 208.445313 76.513503 
L 208.950796 96.432082 
L 209.51146 112.290075 
L 211.165049 127.506874 
L 212.191269 129.195038 
L 212.687118 142.236029 
L 214.80802 153.141965 
L 216.768923 164.904817 
L 219.049825 173.48315 
L 221.170727 177.433054 
L 225.328234 181.380589 
L 230.221564 183.281548 
L 233.276337 184.301332 
L 242.379751 185.461468 
L 251.043554 186.290473 
L 268.741516 187.363536 
L 279.922725 188.801148 
L 284.797798 189.630025 
L 291.160505 191.973053 
L 295.776087 195.853297 
L 300.494213 202.290155 
L 305.048275 212.662584 
L 309.206701 232.160406 
L 312.912299 256.280648 
L 317.178407 280.081797 
L 321.774521 307.706883 
L 330.762525 354.809441 
L 335.519402 375.022631 
L 340.693183 389.800335 
L 343.575074 399.517882 
L 346.322283 410.896421 
L 352.449293 431.277294 
L 355.938367 432.99623 
L 359.258589 436.274403 
L 362.627805 440.37332 
L 366.369428 443.139816 
L 370.132179 444.724715 
L 374.260994 445.567427 
L 378.463925 445.928077 
L 382.836438 446.045741 
L 387.147562 446.04258 
L 392.154835 445.895478 
L 396.922296 445.448735 
L 413.216197 442.95179 
L 419.260652 440.884646 
L 425.053677 438.148403 
L 437.806418 432.485306 
L 444.971799 429.710821 
L 451.911347 426.053103 
L 458.768373 422.083691 
L 465.65121 416.896613 
L 473.222156 412.140274 
L 484.3469 407.680794 
L 496.51219 403.619681 
L 504.447554 400.417229 
L 511.782687 398.398193 
L 518.963101 396.733008 
L 527.053183 395.480944 
L 542.32368 394.387372 
L 557.594177 393.779708 
L 572.864674 393.467309 
L 603.405668 393.23826 
L 633.946662 393.255708 
L 664.487655 393.488793 
L 683.053789 393.76404 
L 688.799434 394.00619 
L 691.856955 394.299935 
L 694.095571 394.728438 
L 695.028649 530.076473 
L 696.085945 599.949448 
L 697.384843 600.539177 
L 698.748614 600.717589 
L 701.522701 600.818588 
L 708.15155 600.584927 
L 719.254611 600.204341 
L 726.98037 600.111447 
L 775.604229 600.188786 
L 859.8125 600.319971 
L 859.8125 600.319971 
" clip-path="url(#p5abe4aaae9)" style="fill: none; stroke-dasharray: 3,4.95; stroke-dashoffset: 0; stroke: #000000; stroke-width: 3"/>
   </g>
   <g id="line2d_33">
    <path d="M -1 566.445538 
L 198.7525 566.461631 
L 198.7525 566.349273 
L 202.206786 566.215144 
L 202.206786 565.731618 
L 205.661071 506.523038 
L 205.661071 565.597515 
L 205.661071 91.142211 
L 205.661071 565.567457 
L 209.115357 99.962742 
L 209.115357 115.712292 
L 209.115357 13.358542 
L 209.115357 76.16284 
L 212.569643 127.384096 
L 212.569643 141.917935 
L 216.023929 153.144735 
L 216.023929 165.172646 
L 219.478214 175.198807 
L 226.386786 181.112886 
L 229.841071 183.298837 
L 233.295357 184.264338 
L 236.749643 185.063217 
L 247.1125 186.071863 
L 250.566786 186.435781 
L 254.021071 186.675371 
L 260.929643 186.890159 
L 267.838214 187.445349 
L 274.746786 188.182867 
L 278.201071 188.749158 
L 285.109643 189.607224 
L 292.018214 191.729254 
L 295.4725 195.665515 
L 298.926786 202.064311 
L 305.835357 212.485354 
L 309.289643 232.532089 
L 312.743929 256.588874 
L 316.198214 279.843795 
L 323.106786 307.910053 
L 326.561071 331.966859 
L 330.015357 354.419874 
L 336.923929 375.268991 
L 340.378214 389.702448 
L 343.8325 399.32634 
L 347.286786 410.551994 
L 350.741071 420.175502 
L 350.741071 431.276239 
L 357.649643 433.081948 
L 357.649643 436.23588 
L 361.103929 440.195396 
L 371.466786 444.745146 
L 374.921071 445.55481 
L 378.375357 446.021737 
L 381.829643 446.168094 
L 388.738214 446.165473 
L 392.1925 446.013775 
L 395.646786 445.536103 
L 402.555357 444.699362 
L 412.918214 442.65451 
L 419.826786 440.912419 
L 426.735357 437.844024 
L 430.189643 435.378274 
L 437.098214 432.231475 
L 444.006786 429.744536 
L 457.823929 421.769242 
L 471.641071 412.156593 
L 485.458214 407.355655 
L 495.821071 403.362988 
L 502.729643 400.25858 
L 513.0925 398.562844 
L 520.001071 396.967885 
L 526.909643 395.538 
L 540.726786 394.638766 
L 571.815357 393.450033 
L 602.903929 393.156817 
L 633.9925 393.242036 
L 682.3525 393.712663 
L 689.261071 393.772025 
L 689.261071 393.88501 
L 692.715357 394.018589 
L 692.715357 394.499987 
L 696.169643 530.114746 
L 696.169643 600.518275 
L 703.078214 600.872117 
L 703.078214 600.826435 
L 706.5325 600.596671 
L 716.895357 600.250765 
L 730.7125 600.106167 
L 765.255357 600.159802 
L 806.706786 600.239606 
L 859.8125 600.321213 
L 859.8125 600.321213 
" clip-path="url(#p5abe4aaae9)" style="fill: none; stroke-dasharray: 3,4.95; stroke-dashoffset: 0; stroke: #ffa500; stroke-width: 3"/>
   </g>
   <g id="patch_3">
    <path d="M 126.2125 617.04 
L 126.2125 7.2 
" style="fill: none; stroke: #000000; stroke-width: 0.8; stroke-linejoin: miter; stroke-linecap: square"/>
   </g>
   <g id="patch_4">
    <path d="M 851.6125 617.04 
L 851.6125 7.2 
" style="fill: none; stroke: #000000; stroke-width: 0.8; stroke-linejoin: miter; stroke-linecap: square"/>
   </g>
   <g id="patch_5">
    <path d="M 126.2125 617.04 
L 851.6125 617.04 
" style="fill: none; stroke: #000000; stroke-width: 0.8; stroke-linejoin: miter; stroke-linecap: square"/>
   </g>
   <g id="patch_6">
    <path d="M 126.2125 7.2 
L 851.6125 7.2 
" style="fill: none; stroke: #000000; stroke-width: 0.8; stroke-linejoin: miter; stroke-linecap: square"/>
   </g>
   <g id="legend_1">
    <g id="patch_7">
     <path d="M 589.320312 292.067187 
L 827.1125 292.067187 
Q 834.1125 292.067187 834.1125 285.067187 
L 834.1125 31.7 
Q 834.1125 24.7 827.1125 24.7 
L 589.320312 24.7 
Q 582.320312 24.7 582.320312 31.7 
L 582.320312 285.067187 
Q 582.320312 292.067187 589.320312 292.067187 
z
" style="fill: #ffffff; opacity: 0.8; stroke: #cccccc; stroke-linejoin: miter"/>
    </g>
    <g id="line2d_34">
     <path d="M 596.320312 53.044531 
L 631.320312 53.044531 
L 666.320312 53.044531 
" style="fill: none; stroke: #ff0000; stroke-width: 3; stroke-linecap: square"/>
    </g>
    <g id="text_17">
     <!-- Level 0 -->
     <g transform="translate(694.320312 65.294531)scale(0.35 -0.35)">
      <defs>
       <path id="DejaVuSans-4c" d="M 628 4666 
L 1259 4666 
L 1259 531 
L 3531 531 
L 3531 0 
L 628 0 
L 628 4666 
z
" transform="scale(0.015625)"/>
       <path id="DejaVuSans-76" d="M 191 3500 
L 800 3500 
L 1894 563 
L 2988 3500 
L 3597 3500 
L 2284 0 
L 1503 0 
L 191 3500 
z
" transform="scale(0.015625)"/>
       <path id="DejaVuSans-6c" d="M 603 4863 
L 1178 4863 
L 1178 0 
L 603 0 
L 603 4863 
z
" transform="scale(0.015625)"/>
      </defs>
      <use xlink:href="#DejaVuSans-4c"/>
      <use xlink:href="#DejaVuSans-65" x="53.962891"/>
      <use xlink:href="#DejaVuSans-76" x="115.486328"/>
      <use xlink:href="#DejaVuSans-65" x="174.666016"/>
      <use xlink:href="#DejaVuSans-6c" x="236.189453"/>
      <use xlink:href="#DejaVuSans-20" x="263.972656"/>
      <use xlink:href="#DejaVuSans-30" x="295.759766"/>
     </g>
    </g>
    <g id="line2d_35">
     <path d="M 596.320312 104.417969 
L 631.320312 104.417969 
L 666.320312 104.417969 
" style="fill: none; stroke-dasharray: 19.2,4.8,3,4.8; stroke-dashoffset: 0; stroke: #0000ff; stroke-width: 3"/>
    </g>
    <g id="text_18">
     <!-- Level 1 -->
     <g transform="translate(694.320312 116.667969)scale(0.35 -0.35)">
      <use xlink:href="#DejaVuSans-4c"/>
      <use xlink:href="#DejaVuSans-65" x="53.962891"/>
      <use xlink:href="#DejaVuSans-76" x="115.486328"/>
      <use xlink:href="#DejaVuSans-65" x="174.666016"/>
      <use xlink:href="#DejaVuSans-6c" x="236.189453"/>
      <use xlink:href="#DejaVuSans-20" x="263.972656"/>
      <use xlink:href="#DejaVuSans-31" x="295.759766"/>
     </g>
    </g>
    <g id="line2d_36">
     <path d="M 596.320312 155.791406 
L 631.320312 155.791406 
L 666.320312 155.791406 
" style="fill: none; stroke-dasharray: 11.1,4.8; stroke-dashoffset: 0; stroke: #008000; stroke-width: 3"/>
    </g>
    <g id="text_19">
     <!-- Level 2 -->
     <g transform="translate(694.320312 168.041406)scale(0.35 -0.35)">
      <use xlink:href="#DejaVuSans-4c"/>
      <use xlink:href="#DejaVuSans-65" x="53.962891"/>
      <use xlink:href="#DejaVuSans-76" x="115.486328"/>
      <use xlink:href="#DejaVuSans-65" x="174.666016"/>
      <use xlink:href="#DejaVuSans-6c" x="236.189453"/>
      <use xlink:href="#DejaVuSans-20" x="263.972656"/>
      <use xlink:href="#DejaVuSans-32" x="295.759766"/>
     </g>
    </g>
    <g id="line2d_37">
     <path d="M 596.320312 207.164844 
L 631.320312 207.164844 
L 666.320312 207.164844 
" style="fill: none; stroke-dasharray: 3,4.95; stroke-dashoffset: 0; stroke: #000000; stroke-width: 3"/>
    </g>
    <g id="text_20">
     <!-- Level 3 -->
     <g transform="translate(694.320312 219.414844)scale(0.35 -0.35)">
      <use xlink:href="#DejaVuSans-4c"/>
      <use xlink:href="#DejaVuSans-65" x="53.962891"/>
      <use xlink:href="#DejaVuSans-76" x="115.486328"/>
      <use xlink:href="#DejaVuSans-65" x="174.666016"/>
      <use xlink:href="#DejaVuSans-6c" x="236.189453"/>
      <use xlink:href="#DejaVuSans-20" x="263.972656"/>
      <use xlink:href="#DejaVuSans-33" x="295.759766"/>
     </g>
    </g>
    <g id="line2d_38">
     <path d="M 596.320312 258.538281 
L 631.320312 258.538281 
L 666.320312 258.538281 
" style="fill: none; stroke-dasharray: 3,4.95; stroke-dashoffset: 0; stroke: #ffa500; stroke-width: 3"/>
    </g>
    <g id="text_21">
     <!-- Level 4 -->
     <g transform="translate(694.320312 270.788281)scale(0.35 -0.35)">
      <use xlink:href="#DejaVuSans-4c"/>
      <use xlink:href="#DejaVuSans-65" x="53.962891"/>
      <use xlink:href="#DejaVuSans-76" x="115.486328"/>
      <use xlink:href="#DejaVuSans-65" x="174.666016"/>
      <use xlink:href="#DejaVuSans-6c" x="236.189453"/>
      <use xlink:href="#DejaVuSans-20" x="263.972656"/>
      <use xlink:href="#DejaVuSans-34" x="295.759766"/>
     </g>
    </g>
   </g>
  </g>
 </g>
 <defs>
  <clipPath id="p5abe4aaae9">
   <rect x="126.2125" y="7.2" width="725.4" height="609.84"/>
  </clipPath>
 </defs>
</svg>
