<?xml version="1.0" encoding="utf-8" standalone="no"?>
<!DOCTYPE svg PUBLIC "-//W3C//DTD SVG 1.1//EN"
  "http://www.w3.org/Graphics/SVG/1.1/DTD/svg11.dtd">
<svg xmlns:xlink="http://www.w3.org/1999/xlink" width="436.273548pt" height="333.855759pt" viewBox="0 0 436.273548 333.855759" xmlns="http://www.w3.org/2000/svg" version="1.1">
 <metadata>
  <rdf:RDF xmlns:dc="http://purl.org/dc/elements/1.1/" xmlns:cc="http://creativecommons.org/ns#" xmlns:rdf="http://www.w3.org/1999/02/22-rdf-syntax-ns#">
   <cc:Work>
    <dc:type rdf:resource="http://purl.org/dc/dcmitype/StillImage"/>
    <dc:date>2025-03-03T11:04:28.311351</dc:date>
    <dc:format>image/svg+xml</dc:format>
    <dc:creator>
     <cc:Agent>
      <dc:title>Matplotlib v3.7.1, https://matplotlib.org/</dc:title>
     </cc:Agent>
    </dc:creator>
   </cc:Work>
  </rdf:RDF>
 </metadata>
 <defs>
  <style type="text/css">*{stroke-linejoin: round; stroke-linecap: butt}</style>
 </defs>
 <g id="figure_1">
  <g id="patch_1">
   <path d="M 0 333.855759 
L 436.273548 333.855759 
L 436.273548 0 
L 0 0 
z
" style="fill: #ffffff"/>
  </g>
  <g id="axes_1">
   <g id="patch_2">
    <path d="M 71.953548 280.230498 
L 429.073548 280.230498 
L 429.073548 14.118498 
L 71.953548 14.118498 
z
" style="fill: #ffffff"/>
   </g>
   <g id="matplotlib.axis_1">
    <g id="xtick_1">
     <g id="line2d_1">
      <path d="M 122.970691 280.230498 
L 122.970691 14.118498 
" clip-path="url(#p1e03e69d86)" style="fill: none; stroke: #b0b0b0; stroke-width: 0.8; stroke-linecap: square"/>
     </g>
     <g id="line2d_2">
      <defs>
       <path id="m86ca6487e9" d="M 0 0 
L 0 3.5 
" style="stroke: #000000; stroke-width: 0.8"/>
      </defs>
      <g>
       <use xlink:href="#m86ca6487e9" x="122.970691" y="280.230498" style="stroke: #000000; stroke-width: 0.8"/>
      </g>
     </g>
     <g id="text_1">
      <!-- $\mathdefault{0.20}$ -->
      <g transform="translate(106.55383 301.067495) scale(0.2 -0.2)">
       <defs>
        <path id="CMR17-30" d="M 2688 2025 
C 2688 2416 2682 3080 2413 3591 
C 2176 4039 1798 4198 1466 4198 
C 1158 4198 768 4058 525 3597 
C 269 3118 243 2524 243 2025 
C 243 1661 250 1106 448 619 
C 723 -39 1216 -128 1466 -128 
C 1760 -128 2208 -7 2470 600 
C 2662 1042 2688 1559 2688 2025 
z
M 1466 -26 
C 1056 -26 813 325 723 812 
C 653 1188 653 1738 653 2096 
C 653 2588 653 2997 736 3387 
C 858 3929 1216 4096 1466 4096 
C 1728 4096 2067 3923 2189 3400 
C 2272 3036 2278 2607 2278 2096 
C 2278 1680 2278 1169 2202 792 
C 2067 95 1690 -26 1466 -26 
z
" transform="scale(0.015625)"/>
        <path id="CMMI12-3a" d="M 1178 307 
C 1178 492 1024 619 870 619 
C 685 619 557 466 557 313 
C 557 128 710 0 864 0 
C 1050 0 1178 153 1178 307 
z
" transform="scale(0.015625)"/>
        <path id="CMR17-32" d="M 2669 989 
L 2554 989 
C 2490 536 2438 459 2413 420 
C 2381 369 1920 369 1830 369 
L 602 369 
C 832 619 1280 1072 1824 1597 
C 2214 1967 2669 2402 2669 3035 
C 2669 3790 2067 4224 1395 4224 
C 691 4224 262 3604 262 3030 
C 262 2780 448 2748 525 2748 
C 589 2748 781 2787 781 3010 
C 781 3207 614 3264 525 3264 
C 486 3264 448 3258 422 3245 
C 544 3790 915 4058 1306 4058 
C 1862 4058 2227 3617 2227 3035 
C 2227 2479 1901 2000 1536 1584 
L 262 146 
L 262 0 
L 2515 0 
L 2669 989 
z
" transform="scale(0.015625)"/>
       </defs>
       <use xlink:href="#CMR17-30" transform="scale(0.996264)"/>
       <use xlink:href="#CMMI12-3a" transform="translate(45.690477 0) scale(0.996264)"/>
       <use xlink:href="#CMR17-32" transform="translate(72.787654 0) scale(0.996264)"/>
       <use xlink:href="#CMR17-30" transform="translate(118.478131 0) scale(0.996264)"/>
      </g>
     </g>
    </g>
    <g id="xtick_2">
     <g id="line2d_3">
      <path d="M 207.999262 280.230498 
L 207.999262 14.118498 
" clip-path="url(#p1e03e69d86)" style="fill: none; stroke: #b0b0b0; stroke-width: 0.8; stroke-linecap: square"/>
     </g>
     <g id="line2d_4">
      <g>
       <use xlink:href="#m86ca6487e9" x="207.999262" y="280.230498" style="stroke: #000000; stroke-width: 0.8"/>
      </g>
     </g>
     <g id="text_2">
      <!-- $\mathdefault{0.25}$ -->
      <g transform="translate(191.582402 301.067495) scale(0.2 -0.2)">
       <defs>
        <path id="CMR17-35" d="M 730 3692 
C 794 3666 1056 3584 1325 3584 
C 1920 3584 2246 3911 2432 4100 
C 2432 4157 2432 4192 2394 4192 
C 2387 4192 2374 4192 2323 4163 
C 2099 4058 1837 3973 1517 3973 
C 1325 3973 1037 3999 723 4139 
C 653 4171 640 4171 634 4171 
C 602 4171 595 4164 595 4037 
L 595 2203 
C 595 2089 595 2057 659 2057 
C 691 2057 704 2070 736 2114 
C 941 2401 1222 2522 1542 2522 
C 1766 2522 2246 2382 2246 1289 
C 2246 1085 2246 715 2054 421 
C 1894 159 1645 25 1370 25 
C 947 25 518 320 403 814 
C 429 807 480 795 506 795 
C 589 795 749 840 749 1038 
C 749 1210 627 1280 506 1280 
C 358 1280 262 1190 262 1011 
C 262 454 704 -128 1382 -128 
C 2042 -128 2669 440 2669 1264 
C 2669 2030 2170 2624 1549 2624 
C 1222 2624 947 2503 730 2274 
L 730 3692 
z
" transform="scale(0.015625)"/>
       </defs>
       <use xlink:href="#CMR17-30" transform="scale(0.996264)"/>
       <use xlink:href="#CMMI12-3a" transform="translate(45.690477 0) scale(0.996264)"/>
       <use xlink:href="#CMR17-32" transform="translate(72.787654 0) scale(0.996264)"/>
       <use xlink:href="#CMR17-35" transform="translate(118.478131 0) scale(0.996264)"/>
      </g>
     </g>
    </g>
    <g id="xtick_3">
     <g id="line2d_5">
      <path d="M 293.027834 280.230498 
L 293.027834 14.118498 
" clip-path="url(#p1e03e69d86)" style="fill: none; stroke: #b0b0b0; stroke-width: 0.8; stroke-linecap: square"/>
     </g>
     <g id="line2d_6">
      <g>
       <use xlink:href="#m86ca6487e9" x="293.027834" y="280.230498" style="stroke: #000000; stroke-width: 0.8"/>
      </g>
     </g>
     <g id="text_3">
      <!-- $\mathdefault{0.30}$ -->
      <g transform="translate(276.610973 301.067495) scale(0.2 -0.2)">
       <defs>
        <path id="CMR17-33" d="M 1414 2157 
C 1984 2157 2234 1662 2234 1090 
C 2234 320 1824 25 1453 25 
C 1114 25 563 194 390 693 
C 422 680 454 680 486 680 
C 640 680 755 782 755 948 
C 755 1133 614 1216 486 1216 
C 378 1216 211 1165 211 926 
C 211 335 787 -128 1466 -128 
C 2176 -128 2720 430 2720 1085 
C 2720 1707 2208 2157 1600 2227 
C 2086 2328 2554 2756 2554 3329 
C 2554 3820 2048 4179 1472 4179 
C 890 4179 378 3829 378 3329 
C 378 3110 544 3072 627 3072 
C 762 3072 877 3155 877 3321 
C 877 3486 762 3569 627 3569 
C 602 3569 570 3569 544 3557 
C 730 3959 1235 4032 1459 4032 
C 1683 4032 2106 3925 2106 3320 
C 2106 3143 2080 2828 1862 2550 
C 1670 2304 1453 2304 1242 2284 
C 1210 2284 1062 2269 1037 2269 
C 992 2263 966 2257 966 2208 
C 966 2163 973 2157 1101 2157 
L 1414 2157 
z
" transform="scale(0.015625)"/>
       </defs>
       <use xlink:href="#CMR17-30" transform="scale(0.996264)"/>
       <use xlink:href="#CMMI12-3a" transform="translate(45.690477 0) scale(0.996264)"/>
       <use xlink:href="#CMR17-33" transform="translate(72.787654 0) scale(0.996264)"/>
       <use xlink:href="#CMR17-30" transform="translate(118.478131 0) scale(0.996264)"/>
      </g>
     </g>
    </g>
    <g id="xtick_4">
     <g id="line2d_7">
      <path d="M 378.056405 280.230498 
L 378.056405 14.118498 
" clip-path="url(#p1e03e69d86)" style="fill: none; stroke: #b0b0b0; stroke-width: 0.8; stroke-linecap: square"/>
     </g>
     <g id="line2d_8">
      <g>
       <use xlink:href="#m86ca6487e9" x="378.056405" y="280.230498" style="stroke: #000000; stroke-width: 0.8"/>
      </g>
     </g>
     <g id="text_4">
      <!-- $\mathdefault{0.35}$ -->
      <g transform="translate(361.639544 301.067495) scale(0.2 -0.2)">
       <use xlink:href="#CMR17-30" transform="scale(0.996264)"/>
       <use xlink:href="#CMMI12-3a" transform="translate(45.690477 0) scale(0.996264)"/>
       <use xlink:href="#CMR17-33" transform="translate(72.787654 0) scale(0.996264)"/>
       <use xlink:href="#CMR17-35" transform="translate(118.478131 0) scale(0.996264)"/>
      </g>
     </g>
    </g>
    <g id="text_5">
     <!-- $x, \; m$ -->
     <g transform="translate(229.299909 322.780126) scale(0.2 -0.2)">
      <defs>
       <path id="CMMI12-78" d="M 3034 2606 
C 2829 2567 2752 2414 2752 2293 
C 2752 2139 2874 2088 2963 2088 
C 3155 2088 3290 2254 3290 2427 
C 3290 2695 2982 2816 2714 2816 
C 2323 2816 2106 2433 2048 2312 
C 1901 2816 1504 2816 1389 2816 
C 736 2816 390 1980 390 1839 
C 390 1814 416 1782 461 1782 
C 512 1782 525 1820 538 1846 
C 755 2555 1184 2689 1370 2689 
C 1658 2689 1715 2420 1715 2267 
C 1715 2127 1677 1980 1600 1673 
L 1382 798 
C 1286 415 1101 64 762 64 
C 730 64 570 64 435 147 
C 666 192 717 383 717 460 
C 717 588 621 664 499 664 
C 346 664 179 530 179 326 
C 179 57 480 -64 755 -64 
C 1062 -64 1280 179 1414 441 
C 1517 64 1837 -64 2074 -64 
C 2726 -64 3072 773 3072 913 
C 3072 945 3046 971 3008 971 
C 2950 971 2944 939 2925 888 
C 2752 326 2381 64 2093 64 
C 1869 64 1747 230 1747 492 
C 1747 632 1773 734 1875 1156 
L 2099 2024 
C 2195 2408 2413 2689 2707 2689 
C 2720 2689 2899 2689 3034 2606 
z
" transform="scale(0.015625)"/>
       <path id="CMMI12-3b" d="M 1248 -31 
C 1248 343 1126 619 864 619 
C 659 619 557 453 557 313 
C 557 172 653 0 870 0 
C 954 0 1024 26 1082 83 
C 1094 96 1101 96 1107 96 
C 1120 96 1120 5 1120 -27 
C 1120 -240 1082 -659 710 -1080 
C 640 -1157 640 -1170 640 -1183 
C 640 -1216 672 -1248 704 -1248 
C 755 -1248 1248 -771 1248 -31 
z
" transform="scale(0.015625)"/>
       <path id="CMMI12-6d" d="M 1318 1871 
C 1331 1910 1491 2229 1728 2433 
C 1894 2586 2112 2689 2362 2689 
C 2618 2689 2707 2497 2707 2242 
C 2707 2203 2707 2076 2630 1775 
L 2470 1118 
C 2419 926 2298 453 2285 383 
C 2259 287 2221 121 2221 96 
C 2221 6 2291 -64 2387 -64 
C 2579 -64 2611 83 2669 313 
L 3053 1839 
C 3066 1890 3398 2689 4102 2689 
C 4358 2689 4448 2497 4448 2242 
C 4448 1884 4198 1188 4058 805 
C 4000 651 3968 568 3968 453 
C 3968 166 4166 -64 4474 -64 
C 5069 -64 5293 875 5293 913 
C 5293 945 5267 971 5229 971 
C 5171 971 5165 952 5133 843 
C 4986 332 4749 64 4493 64 
C 4429 64 4326 64 4326 269 
C 4326 436 4403 640 4429 710 
C 4544 1018 4832 1773 4832 2145 
C 4832 2528 4608 2816 4122 2816 
C 3693 2816 3347 2574 3091 2197 
C 3072 2542 2861 2816 2381 2816 
C 1811 2816 1510 2415 1395 2255 
C 1376 2618 1114 2816 832 2816 
C 646 2816 499 2727 378 2484 
C 262 2254 173 1865 173 1839 
C 173 1814 198 1782 243 1782 
C 294 1782 301 1788 339 1935 
C 435 2312 557 2689 813 2689 
C 960 2689 1011 2586 1011 2395 
C 1011 2254 947 2005 902 1807 
L 723 1118 
C 698 996 627 709 595 594 
C 550 428 480 128 480 96 
C 480 6 550 -64 646 -64 
C 723 -64 813 -26 864 70 
C 877 102 934 326 966 453 
L 1107 1028 
L 1318 1871 
z
" transform="scale(0.015625)"/>
      </defs>
      <use xlink:href="#CMMI12-78" transform="scale(0.996264)"/>
      <use xlink:href="#CMMI12-3b" transform="translate(55.43406 0) scale(0.996264)"/>
      <use xlink:href="#CMMI12-6d" transform="translate(126.809651 0) scale(0.996264)"/>
     </g>
    </g>
   </g>
   <g id="matplotlib.axis_2">
    <g id="ytick_1">
     <g id="line2d_9">
      <path d="M 71.953548 273.739962 
L 429.073548 273.739962 
" clip-path="url(#p1e03e69d86)" style="fill: none; stroke: #b0b0b0; stroke-width: 0.8; stroke-linecap: square"/>
     </g>
     <g id="line2d_10">
      <defs>
       <path id="m6cd62c03ea" d="M 0 0 
L -3.5 0 
" style="stroke: #000000; stroke-width: 0.8"/>
      </defs>
      <g>
       <use xlink:href="#m6cd62c03ea" x="71.953548" y="273.739962" style="stroke: #000000; stroke-width: 0.8"/>
      </g>
     </g>
     <g id="text_6">
      <!-- $\mathdefault{0}$ -->
      <g transform="translate(55.815453 280.65846) scale(0.2 -0.2)">
       <use xlink:href="#CMR17-30" transform="scale(0.996264)"/>
      </g>
     </g>
    </g>
    <g id="ytick_2">
     <g id="line2d_11">
      <path d="M 71.953548 208.834596 
L 429.073548 208.834596 
" clip-path="url(#p1e03e69d86)" style="fill: none; stroke: #b0b0b0; stroke-width: 0.8; stroke-linecap: square"/>
     </g>
     <g id="line2d_12">
      <g>
       <use xlink:href="#m6cd62c03ea" x="71.953548" y="208.834596" style="stroke: #000000; stroke-width: 0.8"/>
      </g>
     </g>
     <g id="text_7">
      <!-- $\mathdefault{50}$ -->
      <g transform="translate(46.677357 215.753094) scale(0.2 -0.2)">
       <use xlink:href="#CMR17-35" transform="scale(0.996264)"/>
       <use xlink:href="#CMR17-30" transform="translate(45.690477 0) scale(0.996264)"/>
      </g>
     </g>
    </g>
    <g id="ytick_3">
     <g id="line2d_13">
      <path d="M 71.953548 143.92923 
L 429.073548 143.92923 
" clip-path="url(#p1e03e69d86)" style="fill: none; stroke: #b0b0b0; stroke-width: 0.8; stroke-linecap: square"/>
     </g>
     <g id="line2d_14">
      <g>
       <use xlink:href="#m6cd62c03ea" x="71.953548" y="143.92923" style="stroke: #000000; stroke-width: 0.8"/>
      </g>
     </g>
     <g id="text_8">
      <!-- $\mathdefault{100}$ -->
      <g transform="translate(37.539262 150.847728) scale(0.2 -0.2)">
       <defs>
        <path id="CMR17-31" d="M 1702 4058 
C 1702 4192 1696 4192 1606 4192 
C 1357 3916 979 3827 621 3827 
C 602 3827 570 3827 563 3808 
C 557 3795 557 3782 557 3648 
C 755 3648 1088 3686 1344 3839 
L 1344 461 
C 1344 236 1331 160 781 160 
L 589 160 
L 589 0 
C 896 0 1216 0 1523 0 
C 1830 0 2150 0 2458 0 
L 2458 160 
L 2266 160 
C 1715 160 1702 230 1702 458 
L 1702 4058 
z
" transform="scale(0.015625)"/>
       </defs>
       <use xlink:href="#CMR17-31" transform="scale(0.996264)"/>
       <use xlink:href="#CMR17-30" transform="translate(45.690477 0) scale(0.996264)"/>
       <use xlink:href="#CMR17-30" transform="translate(91.380954 0) scale(0.996264)"/>
      </g>
     </g>
    </g>
    <g id="ytick_4">
     <g id="line2d_15">
      <path d="M 71.953548 79.023864 
L 429.073548 79.023864 
" clip-path="url(#p1e03e69d86)" style="fill: none; stroke: #b0b0b0; stroke-width: 0.8; stroke-linecap: square"/>
     </g>
     <g id="line2d_16">
      <g>
       <use xlink:href="#m6cd62c03ea" x="71.953548" y="79.023864" style="stroke: #000000; stroke-width: 0.8"/>
      </g>
     </g>
     <g id="text_9">
      <!-- $\mathdefault{150}$ -->
      <g transform="translate(37.539262 85.942363) scale(0.2 -0.2)">
       <use xlink:href="#CMR17-31" transform="scale(0.996264)"/>
       <use xlink:href="#CMR17-35" transform="translate(45.690477 0) scale(0.996264)"/>
       <use xlink:href="#CMR17-30" transform="translate(91.380954 0) scale(0.996264)"/>
      </g>
     </g>
    </g>
    <g id="ytick_5">
     <g id="line2d_17">
      <path d="M 71.953548 14.118498 
L 429.073548 14.118498 
" clip-path="url(#p1e03e69d86)" style="fill: none; stroke: #b0b0b0; stroke-width: 0.8; stroke-linecap: square"/>
     </g>
     <g id="line2d_18">
      <g>
       <use xlink:href="#m6cd62c03ea" x="71.953548" y="14.118498" style="stroke: #000000; stroke-width: 0.8"/>
      </g>
     </g>
     <g id="text_10">
      <!-- $\mathdefault{200}$ -->
      <g transform="translate(37.539262 21.036997) scale(0.2 -0.2)">
       <use xlink:href="#CMR17-32" transform="scale(0.996264)"/>
       <use xlink:href="#CMR17-30" transform="translate(45.690477 0) scale(0.996264)"/>
       <use xlink:href="#CMR17-30" transform="translate(91.380954 0) scale(0.996264)"/>
      </g>
     </g>
    </g>
    <g id="text_11">
     <!-- $\frac{P}{P_\infty}$ -->
     <g transform="translate(24.576093 156.806272) rotate(-90) scale(0.2 -0.2)">
      <defs>
       <path id="CMMI12-50" d="M 1894 2023 
L 2970 2023 
C 3853 2023 4736 2673 4736 3401 
C 4736 3898 4314 4352 3507 4352 
L 1530 4352 
C 1408 4352 1350 4352 1350 4231 
C 1350 4167 1408 4167 1504 4167 
C 1894 4167 1894 4116 1894 4046 
C 1894 4034 1894 3995 1869 3899 
L 1005 472 
C 947 249 934 185 486 185 
C 365 185 301 185 301 70 
C 301 0 358 0 397 0 
C 518 0 646 0 768 0 
L 1517 0 
C 1638 0 1773 0 1894 0 
C 1946 0 2016 0 2016 121 
C 2016 185 1958 185 1862 185 
C 1478 185 1472 230 1472 293 
C 1472 325 1478 369 1485 401 
L 1894 2023 
z
M 2355 3930 
C 2413 4167 2438 4167 2688 4167 
L 3322 4167 
C 3802 4167 4198 4013 4198 3535 
C 4198 3369 4115 2827 3821 2534 
C 3712 2419 3405 2176 2822 2176 
L 1920 2176 
L 2355 3930 
z
" transform="scale(0.015625)"/>
       <path id="CMSY10-31" d="M 3251 1730 
C 2906 2166 2829 2262 2630 2422 
C 2272 2710 1914 2825 1587 2825 
C 838 2825 352 2122 352 1374 
C 352 639 826 -70 1562 -70 
C 2298 -70 2829 511 3142 1022 
C 3488 588 3565 492 3763 332 
C 4122 45 4480 -70 4806 -70 
C 5555 -70 6042 633 6042 1380 
C 6042 2115 5568 2825 4832 2825 
C 4096 2825 3565 2242 3251 1730 
z
M 3418 1514 
C 3680 1975 4154 2620 4877 2620 
C 5555 2620 5901 1955 5901 1380 
C 5901 753 5472 236 4909 236 
C 4538 236 4250 505 4115 638 
C 3955 811 3808 1009 3418 1514 
z
M 2976 1240 
C 2714 780 2240 134 1517 134 
C 838 134 493 799 493 1374 
C 493 2000 922 2518 1485 2518 
C 1856 2518 2144 2249 2278 2115 
C 2438 1943 2586 1744 2976 1240 
z
" transform="scale(0.015625)"/>
      </defs>
      <use xlink:href="#CMMI12-50" transform="translate(20.413759 39.226102) scale(0.697382)"/>
      <use xlink:href="#CMMI12-50" transform="translate(0 -34.355253) scale(0.697382)"/>
      <use xlink:href="#CMSY10-31" transform="translate(44.013857 -44.815949) scale(0.498132)"/>
      <path d="M 0 22.914133 
L 94.325327 22.914133 
L 94.325327 26.899083 
L 0 26.899083 
L 0 22.914133 
z
"/>
     </g>
    </g>
   </g>
   <g id="line2d_19">
    <path d="M -1 259.301721 
L 40.644569 259.239043 
L 104.234183 259.167013 
L 107.097813 258.9518 
L 108.529628 258.710991 
L 109.961443 252.16325 
L 111.393258 215.670553 
L 113.481531 106.06094 
L 114.525668 82.161108 
L 115.569804 81.463189 
L 116.613941 86.18072 
L 117.658077 94.196872 
L 118.702214 101.005585 
L 119.74635 106.154656 
L 120.790487 109.541452 
L 121.834623 111.582712 
L 122.87876 112.61533 
L 123.922896 113.177789 
L 124.967033 113.440868 
L 127.055306 113.559943 
L 129.143579 113.450655 
L 132.275989 113.057479 
L 135.408398 112.664222 
L 138.540808 112.249568 
L 140.629081 111.791494 
L 144.805627 110.697213 
L 146.8939 110.386996 
L 148.982173 110.311458 
L 151.070446 110.432342 
L 153.15872 110.82442 
L 154.202856 111.182943 
L 155.246993 111.713889 
L 156.291129 112.419549 
L 157.335266 113.361002 
L 158.390095 114.708186 
L 159.510401 116.512656 
L 160.729036 118.959681 
L 162.043001 122.115551 
L 163.47036 126.039732 
L 166.698111 136.064764 
L 172.655099 156.62532 
L 174.996946 163.867216 
L 177.544038 171.014442 
L 180.315288 176.878093 
L 183.331662 182.043932 
L 190.184651 190.774256 
L 194.06973 194.184156 
L 198.291487 196.717819 
L 202.879005 198.228609 
L 207.856251 199.441688 
L 213.247676 199.815508 
L 219.075358 199.833432 
L 225.353631 199.596207 
L 232.085808 198.927853 
L 246.737151 196.7583 
L 261.772717 194.603404 
L 284.326066 191.70301 
L 291.843849 190.803024 
L 299.361632 190.09662 
L 314.397198 189.141172 
L 321.914982 188.801186 
L 329.432765 188.633601 
L 336.950548 188.613932 
L 344.468331 201.454281 
L 351.986114 228.041258 
L 362.614685 256.272152 
L 373.243257 270.827939 
L 383.871828 272.403746 
L 394.5004 272.717113 
L 415.757542 272.879474 
L 437.273548 272.784819 
L 437.273548 272.784819 
" clip-path="url(#p1e03e69d86)" style="fill: none; stroke: #ff0000; stroke-width: 3; stroke-linecap: square"/>
   </g>
   <g id="line2d_20">
    <path d="M -1 259.153859 
L 108.529628 259.168593 
L 109.961443 259.024454 
L 110.706889 255.521092 
L 111.393258 234.531168 
L 111.898183 197.31281 
L 112.917274 64.933015 
L 113.481531 35.000715 
L 114.525668 47.442761 
L 115.569804 78.175882 
L 117.15653 102.554398 
L 117.658077 105.192355 
L 118.175302 105.186268 
L 118.702214 104.562959 
L 119.204717 102.756549 
L 119.74635 101.655315 
L 120.790487 101.191978 
L 122.87876 100.843963 
L 126.01117 100.562242 
L 129.768388 100.57278 
L 131.644625 100.651862 
L 133.580497 100.851587 
L 137.496671 101.831355 
L 141.673218 103.416923 
L 143.761491 104.321211 
L 145.849764 105.393847 
L 147.938037 106.716398 
L 151.070446 108.359835 
L 153.15872 110.476218 
L 155.246993 113.270386 
L 157.335266 117.321664 
L 159.510401 123.368013 
L 162.043001 131.580549 
L 164.277363 140.300169 
L 166.698111 149.293991 
L 168.519928 156.941049 
L 170.50124 163.941253 
L 174.996946 175.917038 
L 177.544038 182.002162 
L 180.315288 187.374915 
L 183.331662 192.074659 
L 186.614765 196.236864 
L 192.222515 201.24853 
L 194.06973 202.564565 
L 196.071869 203.591106 
L 198.291487 204.563613 
L 200.569006 204.733088 
L 205.470308 204.739263 
L 207.856251 204.627014 
L 210.526296 204.35617 
L 213.247676 203.878701 
L 216.10674 203.172429 
L 225.353631 200.49342 
L 235.539551 197.621715 
L 239.250422 196.550901 
L 242.924329 195.706877 
L 250.362058 194.424307 
L 261.772717 192.627861 
L 265.40359 191.98015 
L 269.2905 191.046729 
L 284.326066 189.134322 
L 291.843849 188.580858 
L 299.361632 188.232788 
L 335.396553 187.246522 
L 342.67515 187.373732 
L 347.686698 187.666317 
L 349.656914 202.106756 
L 354.445147 257.293228 
L 357.053887 271.161313 
L 359.78677 272.648902 
L 365.426216 272.875529 
L 375.748054 272.881455 
L 396.982439 272.712066 
L 437.273548 272.788308 
L 437.273548 272.788308 
" clip-path="url(#p1e03e69d86)" style="fill: none; stroke: #0000ff; stroke-width: 3; stroke-linecap: square"/>
   </g>
   <g id="line2d_21">
    <path d="M -1 259.227003 
L 109.26179 259.192438 
L 110.356278 259.044975 
L 110.706889 258.933235 
L 111.076131 240.45626 
L 111.393258 173.275098 
L 111.898183 107.247231 
L 112.437395 67.175424 
L 112.917274 73.39736 
L 113.206222 81.876037 
L 113.481531 85.448769 
L 113.981167 88.46445 
L 115.026705 90.973067 
L 115.569804 91.822879 
L 116.062302 93.078552 
L 116.613941 94.140644 
L 117.15653 95.471603 
L 118.175302 96.265759 
L 119.74635 98.826114 
L 120.790487 99.710919 
L 122.87876 100.742931 
L 123.922896 101.268992 
L 124.967033 101.502934 
L 127.026755 101.629236 
L 131.644625 101.39697 
L 135.408398 101.238884 
L 137.496671 101.278813 
L 139.525804 101.514119 
L 143.761491 102.839526 
L 145.849764 103.740245 
L 151.070446 106.681869 
L 153.15872 109.050128 
L 155.246993 112.25088 
L 157.335266 116.784452 
L 159.510401 122.770357 
L 162.043001 129.317 
L 166.698111 143.594583 
L 170.50124 159.889913 
L 174.996946 177.590374 
L 177.544038 185.319911 
L 180.315288 191.441148 
L 183.331662 195.876943 
L 186.614765 199.486131 
L 188.431956 202.62561 
L 190.184651 204.404331 
L 192.222515 205.547902 
L 196.071869 206.460464 
L 198.291487 206.721979 
L 202.879005 206.772851 
L 205.470308 206.616668 
L 210.526296 205.662342 
L 216.10674 204.250869 
L 228.61946 200.263375 
L 235.668552 198.570496 
L 254.254934 193.422421 
L 257.769718 192.368427 
L 261.772717 191.398046 
L 269.2905 190.493374 
L 280.850743 188.540282 
L 284.326066 188.089887 
L 287.863334 187.872326 
L 299.361632 187.688831 
L 314.397198 187.523118 
L 335.396553 187.075901 
L 342.67515 187.185502 
L 346.889464 187.385493 
L 349.656914 187.732093 
L 350.746736 204.022555 
L 353.185013 258.743756 
L 354.445147 270.250767 
L 355.756842 271.533108 
L 357.053887 272.080297 
L 358.368787 272.474027 
L 359.78677 272.762018 
L 362.614685 273.011591 
L 365.426216 273.11452 
L 383.871828 273.157957 
L 437.273548 273.04739 
L 437.273548 273.04739 
" clip-path="url(#p1e03e69d86)" style="fill: none; stroke: #008000; stroke-width: 3; stroke-linecap: square"/>
   </g>
   <g id="line2d_22">
    <path d="M -1 259.218999 
L 110.356278 259.179905 
L 111.076131 258.990346 
L 111.238953 244.221545 
L 111.393258 170.460333 
L 112.18487 58.058316 
L 112.437395 67.31833 
L 113.206222 80.843447 
L 113.481531 84.257426 
L 114.525668 89.588087 
L 115.026705 90.660866 
L 115.569804 92.141476 
L 117.15653 95.847171 
L 118.175302 97.290261 
L 121.302996 99.593039 
L 123.922896 100.833736 
L 125.882182 101.022177 
L 135.408398 101.43947 
L 139.525804 101.937841 
L 145.849764 103.3512 
L 151.070446 105.303616 
L 153.15872 107.053596 
L 155.246993 109.735045 
L 157.335266 113.80146 
L 159.510401 119.263808 
L 162.043001 126.480986 
L 166.698111 143.93589 
L 168.519928 152.962906 
L 170.50124 161.609717 
L 172.655099 169.844598 
L 174.996946 176.536799 
L 176.273601 181.643673 
L 177.544038 185.746044 
L 178.916131 188.944192 
L 180.315288 191.867654 
L 181.839676 194.151729 
L 183.331662 196.848988 
L 184.887449 200.025513 
L 186.614765 202.524447 
L 188.431956 204.822375 
L 192.222515 206.770336 
L 194.06973 207.32508 
L 196.071869 207.730117 
L 200.569006 207.813546 
L 202.879005 207.766096 
L 205.470308 207.532359 
L 210.526296 206.372938 
L 222.21871 203.38428 
L 228.61946 201.39896 
L 246.737151 194.823908 
L 250.362058 193.614442 
L 257.769718 191.863802 
L 269.2905 189.790954 
L 276.808283 188.734766 
L 284.326066 188.020377 
L 287.863334 187.784136 
L 295.401765 187.53597 
L 332.352051 187.02212 
L 345.977923 187.346129 
L 350.746736 187.595652 
L 351.348875 202.689348 
L 352.547805 257.149136 
L 353.185013 269.578738 
L 353.79116 271.452881 
L 354.445147 271.935173 
L 355.756842 272.292787 
L 357.053887 272.706665 
L 359.78677 272.965288 
L 365.426216 273.178315 
L 382.547316 273.285595 
L 437.273548 273.205971 
L 437.273548 273.205971 
" clip-path="url(#p1e03e69d86)" style="fill: none; stroke: #000000; stroke-width: 3; stroke-linecap: square"/>
   </g>
   <g id="line2d_23">
    <path d="M -1 259.227186 
L 110.997266 259.186342 
L 111.238953 258.951785 
L 111.315013 245.100698 
L 111.393258 172.37329 
L 111.898183 60.998548 
L 112.18487 74.40089 
L 112.437395 78.332388 
L 112.917274 81.868778 
L 113.481531 85.193777 
L 115.026705 90.700981 
L 116.316875 93.643675 
L 117.15653 95.272535 
L 118.175302 96.904196 
L 119.74635 98.415868 
L 121.302996 99.680048 
L 122.87876 100.616933 
L 124.396236 101.272028 
L 125.882182 101.54216 
L 131.644625 101.64091 
L 137.496671 101.645966 
L 141.673218 101.882273 
L 143.761491 102.088472 
L 145.942043 102.421222 
L 151.070446 103.679657 
L 153.15872 104.82153 
L 155.246993 106.776883 
L 157.335266 110.127469 
L 159.510401 115.159047 
L 162.043001 122.624466 
L 166.698111 142.239869 
L 168.519928 152.254454 
L 170.50124 161.707267 
L 172.655099 171.43496 
L 176.931661 187.636178 
L 180.315288 195.386776 
L 184.887449 202.467246 
L 186.614765 204.421072 
L 188.431956 205.737123 
L 190.184651 206.778827 
L 194.06973 208.482074 
L 196.071869 208.749923 
L 200.569006 208.765107 
L 202.879005 208.615109 
L 205.470308 208.232226 
L 219.195553 205.04722 
L 225.353631 202.687646 
L 235.668552 198.571577 
L 242.924329 195.998519 
L 254.254934 192.3574 
L 257.769718 191.395557 
L 265.560057 189.939305 
L 273.333878 188.742457 
L 276.808283 188.241501 
L 284.326066 187.676234 
L 291.843849 187.472178 
L 321.914982 187.005878 
L 329.432765 186.92221 
L 340.947388 187.01875 
L 347.686698 187.30463 
L 350.213798 187.577755 
L 350.746736 187.697444 
L 351.348875 199.018159 
L 351.986114 221.792506 
L 352.258869 247.717429 
L 352.547805 262.904977 
L 352.854119 267.298504 
L 353.185013 269.411122 
L 353.79116 270.874118 
L 354.445147 272.148392 
L 355.063847 272.509465 
L 357.053887 272.973748 
L 361.137728 273.203365 
L 368.132668 273.312334 
L 393.971909 273.338688 
L 437.273548 273.280482 
L 437.273548 273.280482 
" clip-path="url(#p1e03e69d86)" style="fill: none; stroke: #ffa500; stroke-width: 3; stroke-linecap: square"/>
   </g>
   <g id="patch_3">
    <path d="M 71.953548 280.230498 
L 71.953548 14.118498 
" style="fill: none; stroke: #000000; stroke-width: 0.8; stroke-linejoin: miter; stroke-linecap: square"/>
   </g>
   <g id="patch_4">
    <path d="M 429.073548 280.230498 
L 429.073548 14.118498 
" style="fill: none; stroke: #000000; stroke-width: 0.8; stroke-linejoin: miter; stroke-linecap: square"/>
   </g>
   <g id="patch_5">
    <path d="M 71.953548 280.230498 
L 429.073548 280.230498 
" style="fill: none; stroke: #000000; stroke-width: 0.8; stroke-linejoin: miter; stroke-linecap: square"/>
   </g>
   <g id="patch_6">
    <path d="M 71.953548 14.118498 
L 429.073548 14.118498 
" style="fill: none; stroke: #000000; stroke-width: 0.8; stroke-linejoin: miter; stroke-linecap: square"/>
   </g>
   <g id="legend_1">
    <g id="patch_7">
     <path d="M 328.661287 169.496666 
L 415.073548 169.496666 
Q 419.073548 169.496666 419.073548 165.496666 
L 419.073548 28.118498 
Q 419.073548 24.118498 415.073548 24.118498 
L 328.661287 24.118498 
Q 324.661287 24.118498 324.661287 28.118498 
L 324.661287 165.496666 
Q 324.661287 169.496666 328.661287 169.496666 
z
" style="fill: #ffffff; stroke: #cccccc; stroke-linejoin: miter"/>
    </g>
    <g id="line2d_24">
     <path d="M 332.661287 39.118498 
L 352.661287 39.118498 
L 372.661287 39.118498 
" style="fill: none; stroke: #ff0000; stroke-width: 3; stroke-linecap: square"/>
    </g>
    <g id="text_12">
     <!-- $L0$ -->
     <g transform="translate(388.661287 46.118498) scale(0.2 -0.2)">
      <defs>
       <path id="CMMI12-4c" d="M 2349 3861 
C 2406 4103 2426 4167 2989 4167 
C 3162 4167 3206 4167 3206 4288 
C 3206 4352 3136 4352 3110 4352 
C 2982 4352 2835 4352 2707 4352 
L 1850 4352 
C 1728 4352 1587 4352 1466 4352 
C 1414 4352 1344 4352 1344 4231 
C 1344 4167 1402 4167 1498 4167 
C 1888 4167 1888 4116 1888 4046 
C 1888 4034 1888 3995 1862 3899 
L 998 472 
C 941 249 928 185 480 185 
C 358 185 294 185 294 70 
C 294 0 333 0 461 0 
L 3328 0 
C 3469 0 3475 6 3520 121 
L 4013 1478 
C 4026 1510 4038 1548 4038 1567 
C 4038 1605 4006 1631 3974 1631 
C 3968 1631 3936 1631 3923 1605 
C 3910 1599 3910 1586 3859 1465 
C 3654 905 3366 185 2285 185 
L 1670 185 
C 1581 185 1568 185 1530 192 
C 1459 198 1453 211 1453 262 
C 1453 307 1466 345 1478 401 
L 2349 3861 
z
" transform="scale(0.015625)"/>
      </defs>
      <use xlink:href="#CMMI12-4c" transform="scale(0.996264)"/>
      <use xlink:href="#CMR17-30" transform="translate(66.370875 0) scale(0.996264)"/>
     </g>
    </g>
    <g id="line2d_25">
     <path d="M 332.661287 66.994132 
L 352.661287 66.994132 
L 372.661287 66.994132 
" style="fill: none; stroke: #0000ff; stroke-width: 3; stroke-linecap: square"/>
    </g>
    <g id="text_13">
     <!-- $L1$ -->
     <g transform="translate(388.661287 73.994132) scale(0.2 -0.2)">
      <use xlink:href="#CMMI12-4c" transform="scale(0.996264)"/>
      <use xlink:href="#CMR17-31" transform="translate(66.370875 0) scale(0.996264)"/>
     </g>
    </g>
    <g id="line2d_26">
     <path d="M 332.661287 94.869766 
L 352.661287 94.869766 
L 372.661287 94.869766 
" style="fill: none; stroke: #008000; stroke-width: 3; stroke-linecap: square"/>
    </g>
    <g id="text_14">
     <!-- $L2$ -->
     <g transform="translate(388.661287 101.869766) scale(0.2 -0.2)">
      <use xlink:href="#CMMI12-4c" transform="scale(0.996264)"/>
      <use xlink:href="#CMR17-32" transform="translate(66.370875 0) scale(0.996264)"/>
     </g>
    </g>
    <g id="line2d_27">
     <path d="M 332.661287 122.745399 
L 352.661287 122.745399 
L 372.661287 122.745399 
" style="fill: none; stroke: #000000; stroke-width: 3; stroke-linecap: square"/>
    </g>
    <g id="text_15">
     <!-- $L3$ -->
     <g transform="translate(388.661287 129.745399) scale(0.2 -0.2)">
      <use xlink:href="#CMMI12-4c" transform="scale(0.996264)"/>
      <use xlink:href="#CMR17-33" transform="translate(66.370875 0) scale(0.996264)"/>
     </g>
    </g>
    <g id="line2d_28">
     <path d="M 332.661287 150.621033 
L 352.661287 150.621033 
L 372.661287 150.621033 
" style="fill: none; stroke: #ffa500; stroke-width: 3; stroke-linecap: square"/>
    </g>
    <g id="text_16">
     <!-- $L4$ -->
     <g transform="translate(388.661287 157.621033) scale(0.2 -0.2)">
      <defs>
       <path id="CMR17-34" d="M 2150 4122 
C 2150 4256 2144 4256 2029 4256 
L 128 1254 
L 128 1088 
L 1779 1088 
L 1779 457 
C 1779 224 1766 160 1318 160 
L 1197 160 
L 1197 0 
C 1402 0 1747 0 1965 0 
C 2182 0 2528 0 2733 0 
L 2733 160 
L 2611 160 
C 2163 160 2150 224 2150 457 
L 2150 1088 
L 2803 1088 
L 2803 1254 
L 2150 1254 
L 2150 4122 
z
M 1798 3703 
L 1798 1254 
L 256 1254 
L 1798 3703 
z
" transform="scale(0.015625)"/>
      </defs>
      <use xlink:href="#CMMI12-4c" transform="scale(0.996264)"/>
      <use xlink:href="#CMR17-34" transform="translate(66.370875 0) scale(0.996264)"/>
     </g>
    </g>
   </g>
  </g>
 </g>
 <defs>
  <clipPath id="p1e03e69d86">
   <rect x="71.953548" y="14.118498" width="357.12" height="266.112"/>
  </clipPath>
 </defs>
</svg>
