<?xml version="1.0" encoding="utf-8" standalone="no"?>
<!DOCTYPE svg PUBLIC "-//W3C//DTD SVG 1.1//EN"
  "http://www.w3.org/Graphics/SVG/1.1/DTD/svg11.dtd">
<svg xmlns:xlink="http://www.w3.org/1999/xlink" width="851.079569pt" height="698.147812pt" viewBox="0 0 851.079569 698.147812" xmlns="http://www.w3.org/2000/svg" version="1.1">
 <metadata>
  <rdf:RDF xmlns:dc="http://purl.org/dc/elements/1.1/" xmlns:cc="http://creativecommons.org/ns#" xmlns:rdf="http://www.w3.org/1999/02/22-rdf-syntax-ns#">
   <cc:Work>
    <dc:type rdf:resource="http://purl.org/dc/dcmitype/StillImage"/>
    <dc:date>2024-08-10T14:13:55.421091</dc:date>
    <dc:format>image/svg+xml</dc:format>
    <dc:creator>
     <cc:Agent>
      <dc:title>Matplotlib v3.5.3, https://matplotlib.org/</dc:title>
     </cc:Agent>
    </dc:creator>
   </cc:Work>
  </rdf:RDF>
 </metadata>
 <defs>
  <style type="text/css">*{stroke-linejoin: round; stroke-linecap: butt}</style>
 </defs>
 <g id="figure_1">
  <g id="patch_1">
   <path d="M 0 698.147812 
L 851.079569 698.147812 
L 851.079569 0 
L 0 0 
z
" style="fill: #ffffff"/>
  </g>
  <g id="axes_1">
   <g id="patch_2">
    <path d="M 99.782813 617.04 
L 820.024881 617.04 
L 820.024881 7.2 
L 99.782813 7.2 
z
" style="fill: #ffffff"/>
   </g>
   <g id="patch_3">
    <path d="M 273.051644 606.525517 
L 278.401631 603.216415 
L 283.751619 599.907313 
L 289.101606 596.598211 
L 294.451594 593.324639 
L 299.801581 591.275617 
L 305.151569 589.226595 
L 310.501556 587.177573 
L 315.851544 585.128551 
L 321.201531 583.079529 
L 326.551519 581.030507 
L 331.901506 578.965906 
L 337.251494 576.872979 
L 342.601481 574.780052 
L 347.951469 572.687126 
L 353.301456 570.594199 
L 358.651444 568.501273 
L 364.001431 566.408346 
L 369.351418 564.315419 
L 374.701406 562.222493 
L 380.051393 560.129566 
L 385.401381 558.03664 
L 390.751368 555.954968 
L 396.101356 553.925478 
L 401.451343 551.895989 
L 406.801331 549.866499 
L 412.151318 547.83701 
L 417.501306 545.80752 
L 422.851293 543.77803 
L 428.201281 541.748541 
L 433.551268 539.719051 
L 438.901256 537.689562 
L 444.251243 535.660072 
L 449.601231 533.610558 
L 454.951218 531.487013 
L 460.301206 529.363469 
L 465.651193 527.239924 
L 471.001181 525.11638 
L 476.351168 522.992835 
L 481.701156 519.721415 
L 487.051143 516.408997 
L 492.401131 513.09658 
L 497.751118 509.498023 
L 503.101106 501.257639 
L 508.451093 493.017255 
L 513.801081 484.77824 
L 519.151068 476.539708 
L 524.501056 468.301176 
L 529.851043 460.566442 
L 535.201031 453.538588 
L 540.551018 446.510734 
L 545.901006 439.48288 
L 551.250993 432.455025 
L 556.600981 425.884045 
L 561.950968 419.735885 
L 567.300956 413.587726 
L 572.650943 407.439566 
L 578.000931 399.900061 
L 583.350918 392.205962 
L 588.700906 384.511863 
L 594.050893 376.817765 
L 599.400881 369.123666 
L 604.750868 361.429567 
L 610.100856 354.32707 
L 615.450843 348.604979 
L 620.800831 342.882887 
L 626.150818 337.160795 
L 631.500806 331.438703 
L 636.850793 325.716612 
L 642.200781 319.99452 
L 647.550768 314.272428 
L 652.900756 307.156545 
L 658.250743 298.136168 
L 663.600731 289.115792 
L 668.950718 280.095415 
L 674.300706 271.26574 
L 679.650693 265.52967 
L 685.000681 259.7936 
L 690.350668 254.057531 
L 695.700656 248.321461 
L 701.050643 242.585391 
L 706.400631 236.849321 
L 711.750618 232.272127 
L 717.100606 227.706257 
L 722.450593 223.140388 
L 727.800581 218.574518 
L 733.150568 214.008648 
L 738.500556 209.225729 
L 743.850543 203.762719 
L 749.200531 198.299709 
L 754.550518 192.8367 
L 759.900505 187.37369 
L 765.250493 181.91068 
L 770.60048 176.760903 
L 775.950468 171.741283 
L 781.300455 166.721662 
L 786.650443 161.702041 
L 792.00043 156.68242 
L 797.350418 151.6628 
L 802.700405 146.643179 
L 803.839435 216.375239 
L 798.69258 220.732519 
L 793.545724 225.089799 
L 788.398869 229.447079 
L 783.252013 233.804359 
L 778.105158 238.161639 
L 772.958302 242.561255 
L 767.811447 247.231224 
L 762.664591 251.901193 
L 757.517736 256.571163 
L 752.37088 261.241132 
L 747.224025 265.911101 
L 742.077169 270.690632 
L 736.930314 275.765209 
L 731.783458 280.839785 
L 726.636603 285.914361 
L 721.489748 290.988938 
L 716.342892 296.063514 
L 711.196037 301.13809 
L 706.049181 306.118337 
L 700.902326 310.878113 
L 695.75547 315.63789 
L 690.608615 320.397666 
L 685.461759 325.157442 
L 680.314904 329.917218 
L 675.168048 334.676995 
L 670.021193 339.511812 
L 664.874337 344.971556 
L 659.727482 350.431299 
L 654.580626 355.891043 
L 649.433771 361.350786 
L 644.286915 366.81053 
L 639.14006 373.003597 
L 633.993205 380.044099 
L 628.846349 387.084602 
L 623.699494 394.125104 
L 618.552638 401.165607 
L 613.405783 408.206109 
L 608.258927 415.739413 
L 603.112072 423.47405 
L 597.965216 431.208686 
L 592.818361 438.943323 
L 587.671505 445.981873 
L 582.52465 451.264063 
L 577.377794 456.546254 
L 572.230939 461.828445 
L 567.084083 467.110636 
L 561.937228 474.741711 
L 556.790372 483.168063 
L 551.643517 491.594415 
L 546.496662 500.020767 
L 541.349806 507.799677 
L 536.202951 513.147237 
L 531.056095 518.494796 
L 525.90924 523.842356 
L 520.762384 529.189916 
L 515.615529 534.507169 
L 510.468673 539.566294 
L 505.321818 544.625419 
L 500.174962 549.684544 
L 495.028107 553.016644 
L 489.881251 554.686653 
L 484.734396 538.499613 
L 479.58754 541.266474 
L 474.440685 544.033336 
L 469.29383 546.800198 
L 464.146974 549.56706 
L 459.000119 552.056373 
L 453.853263 554.488648 
L 448.706408 556.920924 
L 443.559552 559.3532 
L 438.412697 561.785475 
L 433.265841 564.217751 
L 428.118986 566.017334 
L 422.97213 567.793917 
L 417.825275 569.570501 
L 412.678419 571.347084 
L 407.531564 573.123667 
L 402.384708 574.90025 
L 397.237853 576.676833 
L 392.090997 578.453416 
L 386.944142 580.23 
L 381.797287 582.006583 
L 376.650431 583.783166 
L 371.503576 585.559749 
L 366.35672 587.336332 
L 361.209865 588.784546 
L 356.063009 590.149236 
L 350.916154 591.513926 
L 345.769298 592.878616 
L 340.622443 594.243306 
L 335.475587 595.607996 
L 330.328732 596.972687 
L 325.181876 598.337377 
L 320.035021 599.702067 
L 314.888165 601.066757 
L 309.74131 602.431447 
L 304.594454 603.796137 
L 299.447599 605.160827 
L 294.300744 606.525517 
z
" clip-path="url(#pf3134dadea)" style="fill: #d3d3d3; stroke: #d3d3d3; stroke-linejoin: miter"/>
   </g>
   <g id="patch_4">
    <path d="M 325.844192 606.525517 
C 325.844192 605.148684 325.754046 603.773326 325.574333 602.408271 
C 325.39462 601.043216 325.125726 599.691391 324.769375 598.361472 
" clip-path="url(#pf3134dadea)" style="fill: none; stroke: #000000; stroke-width: 1.5; stroke-linejoin: miter"/>
   </g>
   <g id="patch_5">
    <path d="M 528.968401 552.098549 
C 528.968401 547.956302 528.152468 543.854332 526.567299 540.027394 
C 524.982129 536.200457 522.65855 532.722975 519.729539 529.793963 
" clip-path="url(#pf3134dadea)" style="fill: none; stroke: #000000; stroke-width: 1.5; stroke-linejoin: miter"/>
   </g>
   <g id="matplotlib.axis_1">
    <g id="xtick_1">
     <g id="line2d_1">
      <path d="M 189.155916 617.04 
L 189.155916 7.2 
" clip-path="url(#pf3134dadea)" style="fill: none; stroke: #b0b0b0; stroke-width: 0.8; stroke-linecap: square"/>
     </g>
     <g id="line2d_2">
      <defs>
       <path id="m1097f343d4" d="M 0 0 
L 0 3.5 
" style="stroke: #000000; stroke-width: 0.8"/>
      </defs>
      <g>
       <use xlink:href="#m1097f343d4" x="189.155916" y="617.04" style="stroke: #000000; stroke-width: 0.8"/>
      </g>
     </g>
     <g id="text_1">
      <!-- −0.1 -->
      <g transform="translate(152.731697 646.835312)scale(0.3 -0.3)">
       <defs>
        <path id="DejaVuSans-2212" d="M 678 2272 
L 4684 2272 
L 4684 1741 
L 678 1741 
L 678 2272 
z
" transform="scale(0.015625)"/>
        <path id="DejaVuSans-30" d="M 2034 4250 
Q 1547 4250 1301 3770 
Q 1056 3291 1056 2328 
Q 1056 1369 1301 889 
Q 1547 409 2034 409 
Q 2525 409 2770 889 
Q 3016 1369 3016 2328 
Q 3016 3291 2770 3770 
Q 2525 4250 2034 4250 
z
M 2034 4750 
Q 2819 4750 3233 4129 
Q 3647 3509 3647 2328 
Q 3647 1150 3233 529 
Q 2819 -91 2034 -91 
Q 1250 -91 836 529 
Q 422 1150 422 2328 
Q 422 3509 836 4129 
Q 1250 4750 2034 4750 
z
" transform="scale(0.015625)"/>
        <path id="DejaVuSans-2e" d="M 684 794 
L 1344 794 
L 1344 0 
L 684 0 
L 684 794 
z
" transform="scale(0.015625)"/>
        <path id="DejaVuSans-31" d="M 794 531 
L 1825 531 
L 1825 4091 
L 703 3866 
L 703 4441 
L 1819 4666 
L 2450 4666 
L 2450 531 
L 3481 531 
L 3481 0 
L 794 0 
L 794 531 
z
" transform="scale(0.015625)"/>
       </defs>
       <use xlink:href="#DejaVuSans-2212"/>
       <use xlink:href="#DejaVuSans-30" x="83.789062"/>
       <use xlink:href="#DejaVuSans-2e" x="147.412109"/>
       <use xlink:href="#DejaVuSans-31" x="179.199219"/>
      </g>
     </g>
    </g>
    <g id="xtick_2">
     <g id="line2d_3">
      <path d="M 294.300744 617.04 
L 294.300744 7.2 
" clip-path="url(#pf3134dadea)" style="fill: none; stroke: #b0b0b0; stroke-width: 0.8; stroke-linecap: square"/>
     </g>
     <g id="line2d_4">
      <g>
       <use xlink:href="#m1097f343d4" x="294.300744" y="617.04" style="stroke: #000000; stroke-width: 0.8"/>
      </g>
     </g>
     <g id="text_2">
      <!-- 0.0 -->
      <g transform="translate(270.446056 646.835312)scale(0.3 -0.3)">
       <use xlink:href="#DejaVuSans-30"/>
       <use xlink:href="#DejaVuSans-2e" x="63.623047"/>
       <use xlink:href="#DejaVuSans-30" x="95.410156"/>
      </g>
     </g>
    </g>
    <g id="xtick_3">
     <g id="line2d_5">
      <path d="M 399.445571 617.04 
L 399.445571 7.2 
" clip-path="url(#pf3134dadea)" style="fill: none; stroke: #b0b0b0; stroke-width: 0.8; stroke-linecap: square"/>
     </g>
     <g id="line2d_6">
      <g>
       <use xlink:href="#m1097f343d4" x="399.445571" y="617.04" style="stroke: #000000; stroke-width: 0.8"/>
      </g>
     </g>
     <g id="text_3">
      <!-- 0.1 -->
      <g transform="translate(375.590884 646.835312)scale(0.3 -0.3)">
       <use xlink:href="#DejaVuSans-30"/>
       <use xlink:href="#DejaVuSans-2e" x="63.623047"/>
       <use xlink:href="#DejaVuSans-31" x="95.410156"/>
      </g>
     </g>
    </g>
    <g id="xtick_4">
     <g id="line2d_7">
      <path d="M 504.590399 617.04 
L 504.590399 7.2 
" clip-path="url(#pf3134dadea)" style="fill: none; stroke: #b0b0b0; stroke-width: 0.8; stroke-linecap: square"/>
     </g>
     <g id="line2d_8">
      <g>
       <use xlink:href="#m1097f343d4" x="504.590399" y="617.04" style="stroke: #000000; stroke-width: 0.8"/>
      </g>
     </g>
     <g id="text_4">
      <!-- 0.2 -->
      <g transform="translate(480.735711 646.835312)scale(0.3 -0.3)">
       <defs>
        <path id="DejaVuSans-32" d="M 1228 531 
L 3431 531 
L 3431 0 
L 469 0 
L 469 531 
Q 828 903 1448 1529 
Q 2069 2156 2228 2338 
Q 2531 2678 2651 2914 
Q 2772 3150 2772 3378 
Q 2772 3750 2511 3984 
Q 2250 4219 1831 4219 
Q 1534 4219 1204 4116 
Q 875 4013 500 3803 
L 500 4441 
Q 881 4594 1212 4672 
Q 1544 4750 1819 4750 
Q 2544 4750 2975 4387 
Q 3406 4025 3406 3419 
Q 3406 3131 3298 2873 
Q 3191 2616 2906 2266 
Q 2828 2175 2409 1742 
Q 1991 1309 1228 531 
z
" transform="scale(0.015625)"/>
       </defs>
       <use xlink:href="#DejaVuSans-30"/>
       <use xlink:href="#DejaVuSans-2e" x="63.623047"/>
       <use xlink:href="#DejaVuSans-32" x="95.410156"/>
      </g>
     </g>
    </g>
    <g id="xtick_5">
     <g id="line2d_9">
      <path d="M 609.735226 617.04 
L 609.735226 7.2 
" clip-path="url(#pf3134dadea)" style="fill: none; stroke: #b0b0b0; stroke-width: 0.8; stroke-linecap: square"/>
     </g>
     <g id="line2d_10">
      <g>
       <use xlink:href="#m1097f343d4" x="609.735226" y="617.04" style="stroke: #000000; stroke-width: 0.8"/>
      </g>
     </g>
     <g id="text_5">
      <!-- 0.3 -->
      <g transform="translate(585.880539 646.835312)scale(0.3 -0.3)">
       <defs>
        <path id="DejaVuSans-33" d="M 2597 2516 
Q 3050 2419 3304 2112 
Q 3559 1806 3559 1356 
Q 3559 666 3084 287 
Q 2609 -91 1734 -91 
Q 1441 -91 1130 -33 
Q 819 25 488 141 
L 488 750 
Q 750 597 1062 519 
Q 1375 441 1716 441 
Q 2309 441 2620 675 
Q 2931 909 2931 1356 
Q 2931 1769 2642 2001 
Q 2353 2234 1838 2234 
L 1294 2234 
L 1294 2753 
L 1863 2753 
Q 2328 2753 2575 2939 
Q 2822 3125 2822 3475 
Q 2822 3834 2567 4026 
Q 2313 4219 1838 4219 
Q 1578 4219 1281 4162 
Q 984 4106 628 3988 
L 628 4550 
Q 988 4650 1302 4700 
Q 1616 4750 1894 4750 
Q 2613 4750 3031 4423 
Q 3450 4097 3450 3541 
Q 3450 3153 3228 2886 
Q 3006 2619 2597 2516 
z
" transform="scale(0.015625)"/>
       </defs>
       <use xlink:href="#DejaVuSans-30"/>
       <use xlink:href="#DejaVuSans-2e" x="63.623047"/>
       <use xlink:href="#DejaVuSans-33" x="95.410156"/>
      </g>
     </g>
    </g>
    <g id="xtick_6">
     <g id="line2d_11">
      <path d="M 714.880054 617.04 
L 714.880054 7.2 
" clip-path="url(#pf3134dadea)" style="fill: none; stroke: #b0b0b0; stroke-width: 0.8; stroke-linecap: square"/>
     </g>
     <g id="line2d_12">
      <g>
       <use xlink:href="#m1097f343d4" x="714.880054" y="617.04" style="stroke: #000000; stroke-width: 0.8"/>
      </g>
     </g>
     <g id="text_6">
      <!-- 0.4 -->
      <g transform="translate(691.025366 646.835312)scale(0.3 -0.3)">
       <defs>
        <path id="DejaVuSans-34" d="M 2419 4116 
L 825 1625 
L 2419 1625 
L 2419 4116 
z
M 2253 4666 
L 3047 4666 
L 3047 1625 
L 3713 1625 
L 3713 1100 
L 3047 1100 
L 3047 0 
L 2419 0 
L 2419 1100 
L 313 1100 
L 313 1709 
L 2253 4666 
z
" transform="scale(0.015625)"/>
       </defs>
       <use xlink:href="#DejaVuSans-30"/>
       <use xlink:href="#DejaVuSans-2e" x="63.623047"/>
       <use xlink:href="#DejaVuSans-34" x="95.410156"/>
      </g>
     </g>
    </g>
    <g id="xtick_7">
     <g id="line2d_13">
      <path d="M 820.024881 617.04 
L 820.024881 7.2 
" clip-path="url(#pf3134dadea)" style="fill: none; stroke: #b0b0b0; stroke-width: 0.8; stroke-linecap: square"/>
     </g>
     <g id="line2d_14">
      <g>
       <use xlink:href="#m1097f343d4" x="820.024881" y="617.04" style="stroke: #000000; stroke-width: 0.8"/>
      </g>
     </g>
     <g id="text_7">
      <!-- 0.5 -->
      <g transform="translate(796.170194 646.835312)scale(0.3 -0.3)">
       <defs>
        <path id="DejaVuSans-35" d="M 691 4666 
L 3169 4666 
L 3169 4134 
L 1269 4134 
L 1269 2991 
Q 1406 3038 1543 3061 
Q 1681 3084 1819 3084 
Q 2600 3084 3056 2656 
Q 3513 2228 3513 1497 
Q 3513 744 3044 326 
Q 2575 -91 1722 -91 
Q 1428 -91 1123 -41 
Q 819 9 494 109 
L 494 744 
Q 775 591 1075 516 
Q 1375 441 1709 441 
Q 2250 441 2565 725 
Q 2881 1009 2881 1497 
Q 2881 1984 2565 2268 
Q 2250 2553 1709 2553 
Q 1456 2553 1204 2497 
Q 953 2441 691 2322 
L 691 4666 
z
" transform="scale(0.015625)"/>
       </defs>
       <use xlink:href="#DejaVuSans-30"/>
       <use xlink:href="#DejaVuSans-2e" x="63.623047"/>
       <use xlink:href="#DejaVuSans-35" x="95.410156"/>
      </g>
     </g>
    </g>
    <g id="text_8">
     <!-- X coordinate [m] -->
     <g transform="translate(312.750722 683.668906)scale(0.35 -0.35)">
      <defs>
       <path id="DejaVuSans-58" d="M 403 4666 
L 1081 4666 
L 2241 2931 
L 3406 4666 
L 4084 4666 
L 2584 2425 
L 4184 0 
L 3506 0 
L 2194 1984 
L 872 0 
L 191 0 
L 1856 2491 
L 403 4666 
z
" transform="scale(0.015625)"/>
       <path id="DejaVuSans-20" transform="scale(0.015625)"/>
       <path id="DejaVuSans-63" d="M 3122 3366 
L 3122 2828 
Q 2878 2963 2633 3030 
Q 2388 3097 2138 3097 
Q 1578 3097 1268 2742 
Q 959 2388 959 1747 
Q 959 1106 1268 751 
Q 1578 397 2138 397 
Q 2388 397 2633 464 
Q 2878 531 3122 666 
L 3122 134 
Q 2881 22 2623 -34 
Q 2366 -91 2075 -91 
Q 1284 -91 818 406 
Q 353 903 353 1747 
Q 353 2603 823 3093 
Q 1294 3584 2113 3584 
Q 2378 3584 2631 3529 
Q 2884 3475 3122 3366 
z
" transform="scale(0.015625)"/>
       <path id="DejaVuSans-6f" d="M 1959 3097 
Q 1497 3097 1228 2736 
Q 959 2375 959 1747 
Q 959 1119 1226 758 
Q 1494 397 1959 397 
Q 2419 397 2687 759 
Q 2956 1122 2956 1747 
Q 2956 2369 2687 2733 
Q 2419 3097 1959 3097 
z
M 1959 3584 
Q 2709 3584 3137 3096 
Q 3566 2609 3566 1747 
Q 3566 888 3137 398 
Q 2709 -91 1959 -91 
Q 1206 -91 779 398 
Q 353 888 353 1747 
Q 353 2609 779 3096 
Q 1206 3584 1959 3584 
z
" transform="scale(0.015625)"/>
       <path id="DejaVuSans-72" d="M 2631 2963 
Q 2534 3019 2420 3045 
Q 2306 3072 2169 3072 
Q 1681 3072 1420 2755 
Q 1159 2438 1159 1844 
L 1159 0 
L 581 0 
L 581 3500 
L 1159 3500 
L 1159 2956 
Q 1341 3275 1631 3429 
Q 1922 3584 2338 3584 
Q 2397 3584 2469 3576 
Q 2541 3569 2628 3553 
L 2631 2963 
z
" transform="scale(0.015625)"/>
       <path id="DejaVuSans-64" d="M 2906 2969 
L 2906 4863 
L 3481 4863 
L 3481 0 
L 2906 0 
L 2906 525 
Q 2725 213 2448 61 
Q 2172 -91 1784 -91 
Q 1150 -91 751 415 
Q 353 922 353 1747 
Q 353 2572 751 3078 
Q 1150 3584 1784 3584 
Q 2172 3584 2448 3432 
Q 2725 3281 2906 2969 
z
M 947 1747 
Q 947 1113 1208 752 
Q 1469 391 1925 391 
Q 2381 391 2643 752 
Q 2906 1113 2906 1747 
Q 2906 2381 2643 2742 
Q 2381 3103 1925 3103 
Q 1469 3103 1208 2742 
Q 947 2381 947 1747 
z
" transform="scale(0.015625)"/>
       <path id="DejaVuSans-69" d="M 603 3500 
L 1178 3500 
L 1178 0 
L 603 0 
L 603 3500 
z
M 603 4863 
L 1178 4863 
L 1178 4134 
L 603 4134 
L 603 4863 
z
" transform="scale(0.015625)"/>
       <path id="DejaVuSans-6e" d="M 3513 2113 
L 3513 0 
L 2938 0 
L 2938 2094 
Q 2938 2591 2744 2837 
Q 2550 3084 2163 3084 
Q 1697 3084 1428 2787 
Q 1159 2491 1159 1978 
L 1159 0 
L 581 0 
L 581 3500 
L 1159 3500 
L 1159 2956 
Q 1366 3272 1645 3428 
Q 1925 3584 2291 3584 
Q 2894 3584 3203 3211 
Q 3513 2838 3513 2113 
z
" transform="scale(0.015625)"/>
       <path id="DejaVuSans-61" d="M 2194 1759 
Q 1497 1759 1228 1600 
Q 959 1441 959 1056 
Q 959 750 1161 570 
Q 1363 391 1709 391 
Q 2188 391 2477 730 
Q 2766 1069 2766 1631 
L 2766 1759 
L 2194 1759 
z
M 3341 1997 
L 3341 0 
L 2766 0 
L 2766 531 
Q 2569 213 2275 61 
Q 1981 -91 1556 -91 
Q 1019 -91 701 211 
Q 384 513 384 1019 
Q 384 1609 779 1909 
Q 1175 2209 1959 2209 
L 2766 2209 
L 2766 2266 
Q 2766 2663 2505 2880 
Q 2244 3097 1772 3097 
Q 1472 3097 1187 3025 
Q 903 2953 641 2809 
L 641 3341 
Q 956 3463 1253 3523 
Q 1550 3584 1831 3584 
Q 2591 3584 2966 3190 
Q 3341 2797 3341 1997 
z
" transform="scale(0.015625)"/>
       <path id="DejaVuSans-74" d="M 1172 4494 
L 1172 3500 
L 2356 3500 
L 2356 3053 
L 1172 3053 
L 1172 1153 
Q 1172 725 1289 603 
Q 1406 481 1766 481 
L 2356 481 
L 2356 0 
L 1766 0 
Q 1100 0 847 248 
Q 594 497 594 1153 
L 594 3053 
L 172 3053 
L 172 3500 
L 594 3500 
L 594 4494 
L 1172 4494 
z
" transform="scale(0.015625)"/>
       <path id="DejaVuSans-65" d="M 3597 1894 
L 3597 1613 
L 953 1613 
Q 991 1019 1311 708 
Q 1631 397 2203 397 
Q 2534 397 2845 478 
Q 3156 559 3463 722 
L 3463 178 
Q 3153 47 2828 -22 
Q 2503 -91 2169 -91 
Q 1331 -91 842 396 
Q 353 884 353 1716 
Q 353 2575 817 3079 
Q 1281 3584 2069 3584 
Q 2775 3584 3186 3129 
Q 3597 2675 3597 1894 
z
M 3022 2063 
Q 3016 2534 2758 2815 
Q 2500 3097 2075 3097 
Q 1594 3097 1305 2825 
Q 1016 2553 972 2059 
L 3022 2063 
z
" transform="scale(0.015625)"/>
       <path id="DejaVuSans-5b" d="M 550 4863 
L 1875 4863 
L 1875 4416 
L 1125 4416 
L 1125 -397 
L 1875 -397 
L 1875 -844 
L 550 -844 
L 550 4863 
z
" transform="scale(0.015625)"/>
       <path id="DejaVuSans-6d" d="M 3328 2828 
Q 3544 3216 3844 3400 
Q 4144 3584 4550 3584 
Q 5097 3584 5394 3201 
Q 5691 2819 5691 2113 
L 5691 0 
L 5113 0 
L 5113 2094 
Q 5113 2597 4934 2840 
Q 4756 3084 4391 3084 
Q 3944 3084 3684 2787 
Q 3425 2491 3425 1978 
L 3425 0 
L 2847 0 
L 2847 2094 
Q 2847 2600 2669 2842 
Q 2491 3084 2119 3084 
Q 1678 3084 1418 2786 
Q 1159 2488 1159 1978 
L 1159 0 
L 581 0 
L 581 3500 
L 1159 3500 
L 1159 2956 
Q 1356 3278 1631 3431 
Q 1906 3584 2284 3584 
Q 2666 3584 2933 3390 
Q 3200 3197 3328 2828 
z
" transform="scale(0.015625)"/>
       <path id="DejaVuSans-5d" d="M 1947 4863 
L 1947 -844 
L 622 -844 
L 622 -397 
L 1369 -397 
L 1369 4416 
L 622 4416 
L 622 4863 
L 1947 4863 
z
" transform="scale(0.015625)"/>
      </defs>
      <use xlink:href="#DejaVuSans-58"/>
      <use xlink:href="#DejaVuSans-20" x="68.505859"/>
      <use xlink:href="#DejaVuSans-63" x="100.292969"/>
      <use xlink:href="#DejaVuSans-6f" x="155.273438"/>
      <use xlink:href="#DejaVuSans-6f" x="216.455078"/>
      <use xlink:href="#DejaVuSans-72" x="277.636719"/>
      <use xlink:href="#DejaVuSans-64" x="317"/>
      <use xlink:href="#DejaVuSans-69" x="380.476562"/>
      <use xlink:href="#DejaVuSans-6e" x="408.259766"/>
      <use xlink:href="#DejaVuSans-61" x="471.638672"/>
      <use xlink:href="#DejaVuSans-74" x="532.917969"/>
      <use xlink:href="#DejaVuSans-65" x="572.126953"/>
      <use xlink:href="#DejaVuSans-20" x="633.650391"/>
      <use xlink:href="#DejaVuSans-5b" x="665.4375"/>
      <use xlink:href="#DejaVuSans-6d" x="704.451172"/>
      <use xlink:href="#DejaVuSans-5d" x="801.863281"/>
     </g>
    </g>
   </g>
   <g id="matplotlib.axis_2">
    <g id="ytick_1">
     <g id="line2d_15">
      <path d="M 99.782813 606.525517 
L 820.024881 606.525517 
" clip-path="url(#pf3134dadea)" style="fill: none; stroke: #b0b0b0; stroke-width: 0.8; stroke-linecap: square"/>
     </g>
     <g id="line2d_16">
      <defs>
       <path id="m22730edcc0" d="M 0 0 
L -3.5 0 
" style="stroke: #000000; stroke-width: 0.8"/>
      </defs>
      <g>
       <use xlink:href="#m22730edcc0" x="99.782813" y="606.525517" style="stroke: #000000; stroke-width: 0.8"/>
      </g>
     </g>
     <g id="text_9">
      <!-- 0.0 -->
      <g transform="translate(45.073438 617.923173)scale(0.3 -0.3)">
       <use xlink:href="#DejaVuSans-30"/>
       <use xlink:href="#DejaVuSans-2e" x="63.623047"/>
       <use xlink:href="#DejaVuSans-30" x="95.410156"/>
      </g>
     </g>
    </g>
    <g id="ytick_2">
     <g id="line2d_17">
      <path d="M 99.782813 501.38069 
L 820.024881 501.38069 
" clip-path="url(#pf3134dadea)" style="fill: none; stroke: #b0b0b0; stroke-width: 0.8; stroke-linecap: square"/>
     </g>
     <g id="line2d_18">
      <g>
       <use xlink:href="#m22730edcc0" x="99.782813" y="501.38069" style="stroke: #000000; stroke-width: 0.8"/>
      </g>
     </g>
     <g id="text_10">
      <!-- 0.1 -->
      <g transform="translate(45.073438 512.778346)scale(0.3 -0.3)">
       <use xlink:href="#DejaVuSans-30"/>
       <use xlink:href="#DejaVuSans-2e" x="63.623047"/>
       <use xlink:href="#DejaVuSans-31" x="95.410156"/>
      </g>
     </g>
    </g>
    <g id="ytick_3">
     <g id="line2d_19">
      <path d="M 99.782813 396.235862 
L 820.024881 396.235862 
" clip-path="url(#pf3134dadea)" style="fill: none; stroke: #b0b0b0; stroke-width: 0.8; stroke-linecap: square"/>
     </g>
     <g id="line2d_20">
      <g>
       <use xlink:href="#m22730edcc0" x="99.782813" y="396.235862" style="stroke: #000000; stroke-width: 0.8"/>
      </g>
     </g>
     <g id="text_11">
      <!-- 0.2 -->
      <g transform="translate(45.073438 407.633518)scale(0.3 -0.3)">
       <use xlink:href="#DejaVuSans-30"/>
       <use xlink:href="#DejaVuSans-2e" x="63.623047"/>
       <use xlink:href="#DejaVuSans-32" x="95.410156"/>
      </g>
     </g>
    </g>
    <g id="ytick_4">
     <g id="line2d_21">
      <path d="M 99.782813 291.091034 
L 820.024881 291.091034 
" clip-path="url(#pf3134dadea)" style="fill: none; stroke: #b0b0b0; stroke-width: 0.8; stroke-linecap: square"/>
     </g>
     <g id="line2d_22">
      <g>
       <use xlink:href="#m22730edcc0" x="99.782813" y="291.091034" style="stroke: #000000; stroke-width: 0.8"/>
      </g>
     </g>
     <g id="text_12">
      <!-- 0.3 -->
      <g transform="translate(45.073438 302.488691)scale(0.3 -0.3)">
       <use xlink:href="#DejaVuSans-30"/>
       <use xlink:href="#DejaVuSans-2e" x="63.623047"/>
       <use xlink:href="#DejaVuSans-33" x="95.410156"/>
      </g>
     </g>
    </g>
    <g id="ytick_5">
     <g id="line2d_23">
      <path d="M 99.782813 185.946207 
L 820.024881 185.946207 
" clip-path="url(#pf3134dadea)" style="fill: none; stroke: #b0b0b0; stroke-width: 0.8; stroke-linecap: square"/>
     </g>
     <g id="line2d_24">
      <g>
       <use xlink:href="#m22730edcc0" x="99.782813" y="185.946207" style="stroke: #000000; stroke-width: 0.8"/>
      </g>
     </g>
     <g id="text_13">
      <!-- 0.4 -->
      <g transform="translate(45.073438 197.343863)scale(0.3 -0.3)">
       <use xlink:href="#DejaVuSans-30"/>
       <use xlink:href="#DejaVuSans-2e" x="63.623047"/>
       <use xlink:href="#DejaVuSans-34" x="95.410156"/>
      </g>
     </g>
    </g>
    <g id="ytick_6">
     <g id="line2d_25">
      <path d="M 99.782813 80.801379 
L 820.024881 80.801379 
" clip-path="url(#pf3134dadea)" style="fill: none; stroke: #b0b0b0; stroke-width: 0.8; stroke-linecap: square"/>
     </g>
     <g id="line2d_26">
      <g>
       <use xlink:href="#m22730edcc0" x="99.782813" y="80.801379" style="stroke: #000000; stroke-width: 0.8"/>
      </g>
     </g>
     <g id="text_14">
      <!-- 0.5 -->
      <g transform="translate(45.073438 92.199036)scale(0.3 -0.3)">
       <use xlink:href="#DejaVuSans-30"/>
       <use xlink:href="#DejaVuSans-2e" x="63.623047"/>
       <use xlink:href="#DejaVuSans-35" x="95.410156"/>
      </g>
     </g>
    </g>
    <g id="text_15">
     <!-- Y coordinate [m] -->
     <g transform="translate(33.794531 457.974297)rotate(-90)scale(0.35 -0.35)">
      <defs>
       <path id="DejaVuSans-59" d="M -13 4666 
L 666 4666 
L 1959 2747 
L 3244 4666 
L 3922 4666 
L 2272 2222 
L 2272 0 
L 1638 0 
L 1638 2222 
L -13 4666 
z
" transform="scale(0.015625)"/>
      </defs>
      <use xlink:href="#DejaVuSans-59"/>
      <use xlink:href="#DejaVuSans-20" x="61.083984"/>
      <use xlink:href="#DejaVuSans-63" x="92.871094"/>
      <use xlink:href="#DejaVuSans-6f" x="147.851562"/>
      <use xlink:href="#DejaVuSans-6f" x="209.033203"/>
      <use xlink:href="#DejaVuSans-72" x="270.214844"/>
      <use xlink:href="#DejaVuSans-64" x="309.578125"/>
      <use xlink:href="#DejaVuSans-69" x="373.054688"/>
      <use xlink:href="#DejaVuSans-6e" x="400.837891"/>
      <use xlink:href="#DejaVuSans-61" x="464.216797"/>
      <use xlink:href="#DejaVuSans-74" x="525.496094"/>
      <use xlink:href="#DejaVuSans-65" x="564.705078"/>
      <use xlink:href="#DejaVuSans-20" x="626.228516"/>
      <use xlink:href="#DejaVuSans-5b" x="658.015625"/>
      <use xlink:href="#DejaVuSans-6d" x="697.029297"/>
      <use xlink:href="#DejaVuSans-5d" x="794.441406"/>
     </g>
    </g>
   </g>
   <g id="line2d_27">
    <path d="M 241.72833 606.525517 
L 294.300744 606.525517 
" clip-path="url(#pf3134dadea)" style="fill: none; stroke: #ffa500; stroke-width: 3.5; stroke-linecap: square"/>
   </g>
   <g id="line2d_28">
    <path d="M 294.300744 606.525517 
L 497.424952 552.098549 
" clip-path="url(#pf3134dadea)" style="fill: none; stroke: #008000; stroke-width: 3.5; stroke-linecap: square"/>
   </g>
   <g id="line2d_29">
    <path d="M 497.424952 552.098549 
L 646.122194 403.401308 
" clip-path="url(#pf3134dadea)" style="fill: none; stroke: #008000; stroke-width: 3.5; stroke-linecap: square"/>
   </g>
   <g id="line2d_30">
    <path d="M 646.122194 403.401308 
L 803.839435 403.401308 
" clip-path="url(#pf3134dadea)" style="fill: none; stroke: #008000; stroke-width: 3.5; stroke-linecap: square"/>
   </g>
   <g id="line2d_31">
    <path d="M 803.839435 403.401308 
L 803.839435 44.414412 
" clip-path="url(#pf3134dadea)" style="fill: none; stroke: #800080; stroke-width: 3.5; stroke-linecap: square"/>
   </g>
   <g id="line2d_32">
    <path d="M 803.839435 44.414412 
L 794.921001 44.485166 
L 786.004811 44.697411 
L 777.093112 45.051093 
L 768.188145 45.546123 
L 759.292154 46.182377 
L 750.407377 46.959695 
L 741.536052 47.87788 
L 732.680411 48.936701 
L 723.842684 50.135893 
L 715.025096 51.475152 
L 706.229866 52.954143 
L 697.459209 54.572492 
L 688.715332 56.329792 
L 680.000438 58.225602 
L 671.316719 60.259442 
L 662.666362 62.430803 
L 654.051545 64.739136 
L 645.474436 67.183861 
L 636.937195 69.764363 
L 628.44197 72.479991 
L 619.990901 75.330063 
L 611.586114 78.31386 
L 603.229727 81.430631 
L 594.923841 84.679592 
L 586.670549 88.059926 
L 578.471929 91.57078 
L 570.330043 95.211271 
L 562.246942 98.980483 
L 554.224661 102.877466 
L 546.265218 106.901241 
L 538.370619 111.050793 
L 530.54285 115.325078 
L 522.783882 119.72302 
L 515.095669 124.243513 
L 507.480145 128.885417 
L 499.939228 133.647564 
L 492.474816 138.528756 
L 485.088788 143.527764 
L 477.783004 148.643328 
L 470.559304 153.874163 
L 463.419504 159.21895 
L 456.365404 164.676343 
L 449.398778 170.24497 
L 442.521381 175.923429 
L 435.734944 181.710289 
L 429.041175 187.604094 
L 422.44176 193.60336 
L 415.938359 199.706577 
L 409.532611 205.912209 
L 403.226127 212.218693 
L 397.020495 218.624441 
L 390.917278 225.127842 
L 384.918011 231.727257 
L 379.024206 238.421026 
L 373.237346 245.207463 
L 367.558888 252.084861 
L 361.990261 259.051486 
L 356.532867 266.105587 
L 351.188081 273.245386 
L 345.957246 280.469087 
L 340.841681 287.77487 
L 335.842674 295.160898 
L 330.961482 302.62531 
L 326.199334 310.166227 
L 321.55743 317.781751 
L 317.036938 325.469965 
L 312.638996 333.228933 
L 308.364711 341.056701 
L 304.215159 348.951301 
L 300.191384 356.910743 
L 296.294401 364.933024 
L 292.525189 373.016125 
L 288.884697 381.158011 
L 285.373843 389.356632 
L 281.99351 397.609923 
L 278.744549 405.915809 
L 275.627777 414.272196 
L 272.64398 422.676983 
L 269.793909 431.128052 
L 267.078281 439.623277 
L 264.497779 448.160518 
L 262.053054 456.737627 
L 259.744721 465.352445 
L 257.57336 474.002801 
L 255.539519 482.68652 
L 253.64371 491.401415 
L 251.88641 500.145291 
L 250.26806 508.915948 
L 248.78907 517.711178 
L 247.44981 526.528766 
L 246.250619 535.366493 
L 245.191797 544.222134 
L 244.273612 553.09346 
L 243.496295 561.978236 
L 242.860041 570.874228 
L 242.365011 579.779194 
L 242.011329 588.690893 
L 241.799084 597.607083 
L 241.72833 606.525517 
" clip-path="url(#pf3134dadea)" style="fill: none; stroke: #0000ff; stroke-width: 3.5; stroke-linecap: square"/>
   </g>
   <g id="line2d_33">
    <path d="M 294.300744 606.525517 
L 325.844192 606.525517 
" clip-path="url(#pf3134dadea)" style="fill: none; stroke-dasharray: 1.5,2.475; stroke-dashoffset: 0; stroke: #000000; stroke-width: 1.5"/>
   </g>
   <g id="line2d_34">
    <path d="M 497.424952 552.098549 
L 528.968401 552.098549 
" clip-path="url(#pf3134dadea)" style="fill: none; stroke-dasharray: 1.5,2.475; stroke-dashoffset: 0; stroke: #000000; stroke-width: 1.5"/>
   </g>
   <g id="patch_6">
    <path d="M 99.782813 617.04 
L 99.782813 7.2 
" style="fill: none; stroke: #000000; stroke-width: 0.8; stroke-linejoin: miter; stroke-linecap: square"/>
   </g>
   <g id="patch_7">
    <path d="M 820.024881 617.04 
L 820.024881 7.2 
" style="fill: none; stroke: #000000; stroke-width: 0.8; stroke-linejoin: miter; stroke-linecap: square"/>
   </g>
   <g id="patch_8">
    <path d="M 99.782813 617.04 
L 820.024881 617.04 
" style="fill: none; stroke: #000000; stroke-width: 0.8; stroke-linejoin: miter; stroke-linecap: square"/>
   </g>
   <g id="patch_9">
    <path d="M 99.782813 7.2 
L 820.024881 7.2 
" style="fill: none; stroke: #000000; stroke-width: 0.8; stroke-linejoin: miter; stroke-linecap: square"/>
   </g>
   <g id="text_16">
    <!-- L$_1$ -->
    <g transform="translate(427.520779 590.303115)scale(0.2 -0.2)">
     <defs>
      <path id="DejaVuSans-4c" d="M 628 4666 
L 1259 4666 
L 1259 531 
L 3531 531 
L 3531 0 
L 628 0 
L 628 4666 
z
" transform="scale(0.015625)"/>
     </defs>
     <use xlink:href="#DejaVuSans-4c" transform="translate(0 0.09375)"/>
     <use xlink:href="#DejaVuSans-31" transform="translate(56.669922 -16.3125)scale(0.7)"/>
    </g>
   </g>
   <g id="text_17">
    <!-- L$_2$ -->
    <g transform="translate(603.431504 471.917838)scale(0.2 -0.2)">
     <use xlink:href="#DejaVuSans-4c" transform="translate(0 0.09375)"/>
     <use xlink:href="#DejaVuSans-32" transform="translate(56.669922 -16.3125)scale(0.7)"/>
    </g>
   </g>
   <g id="text_18">
    <!-- L$_3$ -->
    <g transform="translate(714.580814 425.607838)scale(0.2 -0.2)">
     <use xlink:href="#DejaVuSans-4c" transform="translate(0 0.09375)"/>
     <use xlink:href="#DejaVuSans-33" transform="translate(56.669922 -16.3125)scale(0.7)"/>
    </g>
   </g>
   <g id="text_19">
    <!-- $\vartheta_1$ -->
    <g transform="translate(346.38764 609.72628)scale(0.2 -0.2)">
     <defs>
      <path id="DejaVuSans-Oblique-3d1" d="M 3009 2750 
Q 3178 3519 3081 3913 
Q 2950 4444 2513 4444 
Q 2253 4444 2009 4222 
Q 1794 4016 1741 3734 
Q 1647 3256 1959 2922 
Q 2150 2719 3009 2750 
z
M 2913 2219 
Q 1944 2191 1581 2422 
Q 994 2797 1175 3719 
Q 1272 4219 1663 4563 
Q 2056 4913 2603 4913 
Q 3256 4913 3550 4250 
Q 3828 3625 3566 2422 
Q 3303 1213 2781 594 
Q 2225 -72 1475 -72 
Q 734 -72 425 594 
Q 97 1297 419 2753 
L 1028 2750 
Q 694 1556 928 884 
Q 1100 400 1566 400 
Q 2016 400 2391 888 
Q 2788 1406 2913 2219 
z
" transform="scale(0.015625)"/>
     </defs>
     <use xlink:href="#DejaVuSans-Oblique-3d1" transform="translate(0 0.234375)"/>
     <use xlink:href="#DejaVuSans-31" transform="translate(61.914062 -16.171875)scale(0.7)"/>
    </g>
   </g>
   <g id="text_20">
    <!-- $\vartheta_2$ -->
    <g transform="translate(536.89447 542.681933)scale(0.2 -0.2)">
     <use xlink:href="#DejaVuSans-Oblique-3d1" transform="translate(0 0.234375)"/>
     <use xlink:href="#DejaVuSans-32" transform="translate(61.914062 -16.171875)scale(0.7)"/>
    </g>
   </g>
   <g id="legend_1">
    <g id="patch_10">
     <path d="M 109.380392 196.4391 
L 407.921642 196.4391 
Q 412.721642 196.4391 412.721642 191.6391 
L 412.721642 17.9016 
Q 412.721642 13.1016 407.921642 13.1016 
L 109.380392 13.1016 
Q 104.580392 13.1016 104.580392 17.9016 
L 104.580392 191.6391 
Q 104.580392 196.4391 109.380392 196.4391 
z
" style="fill: #ffffff; opacity: 0.8; stroke: #cccccc; stroke-linejoin: miter"/>
    </g>
    <g id="line2d_35">
     <path d="M 114.180392 32.53785 
L 138.180392 32.53785 
L 162.180392 32.53785 
" style="fill: none; stroke: #ffa500; stroke-width: 3.5; stroke-linecap: square"/>
    </g>
    <g id="text_21">
     <!-- Symmetry -->
     <g transform="translate(181.380392 40.93785)scale(0.24 -0.24)">
      <defs>
       <path id="DejaVuSans-53" d="M 3425 4513 
L 3425 3897 
Q 3066 4069 2747 4153 
Q 2428 4238 2131 4238 
Q 1616 4238 1336 4038 
Q 1056 3838 1056 3469 
Q 1056 3159 1242 3001 
Q 1428 2844 1947 2747 
L 2328 2669 
Q 3034 2534 3370 2195 
Q 3706 1856 3706 1288 
Q 3706 609 3251 259 
Q 2797 -91 1919 -91 
Q 1588 -91 1214 -16 
Q 841 59 441 206 
L 441 856 
Q 825 641 1194 531 
Q 1563 422 1919 422 
Q 2459 422 2753 634 
Q 3047 847 3047 1241 
Q 3047 1584 2836 1778 
Q 2625 1972 2144 2069 
L 1759 2144 
Q 1053 2284 737 2584 
Q 422 2884 422 3419 
Q 422 4038 858 4394 
Q 1294 4750 2059 4750 
Q 2388 4750 2728 4690 
Q 3069 4631 3425 4513 
z
" transform="scale(0.015625)"/>
       <path id="DejaVuSans-79" d="M 2059 -325 
Q 1816 -950 1584 -1140 
Q 1353 -1331 966 -1331 
L 506 -1331 
L 506 -850 
L 844 -850 
Q 1081 -850 1212 -737 
Q 1344 -625 1503 -206 
L 1606 56 
L 191 3500 
L 800 3500 
L 1894 763 
L 2988 3500 
L 3597 3500 
L 2059 -325 
z
" transform="scale(0.015625)"/>
      </defs>
      <use xlink:href="#DejaVuSans-53"/>
      <use xlink:href="#DejaVuSans-79" x="63.476562"/>
      <use xlink:href="#DejaVuSans-6d" x="122.65625"/>
      <use xlink:href="#DejaVuSans-6d" x="220.068359"/>
      <use xlink:href="#DejaVuSans-65" x="317.480469"/>
      <use xlink:href="#DejaVuSans-74" x="379.003906"/>
      <use xlink:href="#DejaVuSans-72" x="418.212891"/>
      <use xlink:href="#DejaVuSans-79" x="459.326172"/>
     </g>
    </g>
    <g id="line2d_36">
     <path d="M 114.180392 67.76535 
L 138.180392 67.76535 
L 162.180392 67.76535 
" style="fill: none; stroke: #008000; stroke-width: 3.5; stroke-linecap: square"/>
    </g>
    <g id="text_22">
     <!-- Wall -->
     <g transform="translate(181.380392 76.16535)scale(0.24 -0.24)">
      <defs>
       <path id="DejaVuSans-57" d="M 213 4666 
L 850 4666 
L 1831 722 
L 2809 4666 
L 3519 4666 
L 4500 722 
L 5478 4666 
L 6119 4666 
L 4947 0 
L 4153 0 
L 3169 4050 
L 2175 0 
L 1381 0 
L 213 4666 
z
" transform="scale(0.015625)"/>
       <path id="DejaVuSans-6c" d="M 603 4863 
L 1178 4863 
L 1178 0 
L 603 0 
L 603 4863 
z
" transform="scale(0.015625)"/>
      </defs>
      <use xlink:href="#DejaVuSans-57"/>
      <use xlink:href="#DejaVuSans-61" x="92.501953"/>
      <use xlink:href="#DejaVuSans-6c" x="153.78125"/>
      <use xlink:href="#DejaVuSans-6c" x="181.564453"/>
     </g>
    </g>
    <g id="line2d_37">
     <path d="M 114.180392 102.99285 
L 138.180392 102.99285 
L 162.180392 102.99285 
" style="fill: none; stroke: #800080; stroke-width: 3.5; stroke-linecap: square"/>
    </g>
    <g id="text_23">
     <!-- Supersonic outlet -->
     <g transform="translate(181.380392 111.39285)scale(0.24 -0.24)">
      <defs>
       <path id="DejaVuSans-75" d="M 544 1381 
L 544 3500 
L 1119 3500 
L 1119 1403 
Q 1119 906 1312 657 
Q 1506 409 1894 409 
Q 2359 409 2629 706 
Q 2900 1003 2900 1516 
L 2900 3500 
L 3475 3500 
L 3475 0 
L 2900 0 
L 2900 538 
Q 2691 219 2414 64 
Q 2138 -91 1772 -91 
Q 1169 -91 856 284 
Q 544 659 544 1381 
z
M 1991 3584 
L 1991 3584 
z
" transform="scale(0.015625)"/>
       <path id="DejaVuSans-70" d="M 1159 525 
L 1159 -1331 
L 581 -1331 
L 581 3500 
L 1159 3500 
L 1159 2969 
Q 1341 3281 1617 3432 
Q 1894 3584 2278 3584 
Q 2916 3584 3314 3078 
Q 3713 2572 3713 1747 
Q 3713 922 3314 415 
Q 2916 -91 2278 -91 
Q 1894 -91 1617 61 
Q 1341 213 1159 525 
z
M 3116 1747 
Q 3116 2381 2855 2742 
Q 2594 3103 2138 3103 
Q 1681 3103 1420 2742 
Q 1159 2381 1159 1747 
Q 1159 1113 1420 752 
Q 1681 391 2138 391 
Q 2594 391 2855 752 
Q 3116 1113 3116 1747 
z
" transform="scale(0.015625)"/>
       <path id="DejaVuSans-73" d="M 2834 3397 
L 2834 2853 
Q 2591 2978 2328 3040 
Q 2066 3103 1784 3103 
Q 1356 3103 1142 2972 
Q 928 2841 928 2578 
Q 928 2378 1081 2264 
Q 1234 2150 1697 2047 
L 1894 2003 
Q 2506 1872 2764 1633 
Q 3022 1394 3022 966 
Q 3022 478 2636 193 
Q 2250 -91 1575 -91 
Q 1294 -91 989 -36 
Q 684 19 347 128 
L 347 722 
Q 666 556 975 473 
Q 1284 391 1588 391 
Q 1994 391 2212 530 
Q 2431 669 2431 922 
Q 2431 1156 2273 1281 
Q 2116 1406 1581 1522 
L 1381 1569 
Q 847 1681 609 1914 
Q 372 2147 372 2553 
Q 372 3047 722 3315 
Q 1072 3584 1716 3584 
Q 2034 3584 2315 3537 
Q 2597 3491 2834 3397 
z
" transform="scale(0.015625)"/>
      </defs>
      <use xlink:href="#DejaVuSans-53"/>
      <use xlink:href="#DejaVuSans-75" x="63.476562"/>
      <use xlink:href="#DejaVuSans-70" x="126.855469"/>
      <use xlink:href="#DejaVuSans-65" x="190.332031"/>
      <use xlink:href="#DejaVuSans-72" x="251.855469"/>
      <use xlink:href="#DejaVuSans-73" x="292.96875"/>
      <use xlink:href="#DejaVuSans-6f" x="345.068359"/>
      <use xlink:href="#DejaVuSans-6e" x="406.25"/>
      <use xlink:href="#DejaVuSans-69" x="469.628906"/>
      <use xlink:href="#DejaVuSans-63" x="497.412109"/>
      <use xlink:href="#DejaVuSans-20" x="552.392578"/>
      <use xlink:href="#DejaVuSans-6f" x="584.179688"/>
      <use xlink:href="#DejaVuSans-75" x="645.361328"/>
      <use xlink:href="#DejaVuSans-74" x="708.740234"/>
      <use xlink:href="#DejaVuSans-6c" x="747.949219"/>
      <use xlink:href="#DejaVuSans-65" x="775.732422"/>
      <use xlink:href="#DejaVuSans-74" x="837.255859"/>
     </g>
    </g>
    <g id="line2d_38">
     <path d="M 114.180392 138.22035 
L 138.180392 138.22035 
L 162.180392 138.22035 
" style="fill: none; stroke: #0000ff; stroke-width: 3.5; stroke-linecap: square"/>
    </g>
    <g id="text_24">
     <!-- Far-field -->
     <g transform="translate(181.380392 146.62035)scale(0.24 -0.24)">
      <defs>
       <path id="DejaVuSans-46" d="M 628 4666 
L 3309 4666 
L 3309 4134 
L 1259 4134 
L 1259 2759 
L 3109 2759 
L 3109 2228 
L 1259 2228 
L 1259 0 
L 628 0 
L 628 4666 
z
" transform="scale(0.015625)"/>
       <path id="DejaVuSans-2d" d="M 313 2009 
L 1997 2009 
L 1997 1497 
L 313 1497 
L 313 2009 
z
" transform="scale(0.015625)"/>
       <path id="DejaVuSans-66" d="M 2375 4863 
L 2375 4384 
L 1825 4384 
Q 1516 4384 1395 4259 
Q 1275 4134 1275 3809 
L 1275 3500 
L 2222 3500 
L 2222 3053 
L 1275 3053 
L 1275 0 
L 697 0 
L 697 3053 
L 147 3053 
L 147 3500 
L 697 3500 
L 697 3744 
Q 697 4328 969 4595 
Q 1241 4863 1831 4863 
L 2375 4863 
z
" transform="scale(0.015625)"/>
      </defs>
      <use xlink:href="#DejaVuSans-46"/>
      <use xlink:href="#DejaVuSans-61" x="48.394531"/>
      <use xlink:href="#DejaVuSans-72" x="109.673828"/>
      <use xlink:href="#DejaVuSans-2d" x="144.412109"/>
      <use xlink:href="#DejaVuSans-66" x="180.496094"/>
      <use xlink:href="#DejaVuSans-69" x="215.701172"/>
      <use xlink:href="#DejaVuSans-65" x="243.484375"/>
      <use xlink:href="#DejaVuSans-6c" x="305.007812"/>
      <use xlink:href="#DejaVuSans-64" x="332.791016"/>
     </g>
    </g>
    <g id="patch_11">
     <path d="M 114.180392 181.84785 
L 162.180392 181.84785 
L 162.180392 165.04785 
L 114.180392 165.04785 
z
" style="fill: #d3d3d3; stroke: #d3d3d3; stroke-linejoin: miter"/>
    </g>
    <g id="text_25">
     <!-- Refinement region -->
     <g transform="translate(181.380392 181.84785)scale(0.24 -0.24)">
      <defs>
       <path id="DejaVuSans-52" d="M 2841 2188 
Q 3044 2119 3236 1894 
Q 3428 1669 3622 1275 
L 4263 0 
L 3584 0 
L 2988 1197 
Q 2756 1666 2539 1819 
Q 2322 1972 1947 1972 
L 1259 1972 
L 1259 0 
L 628 0 
L 628 4666 
L 2053 4666 
Q 2853 4666 3247 4331 
Q 3641 3997 3641 3322 
Q 3641 2881 3436 2590 
Q 3231 2300 2841 2188 
z
M 1259 4147 
L 1259 2491 
L 2053 2491 
Q 2509 2491 2742 2702 
Q 2975 2913 2975 3322 
Q 2975 3731 2742 3939 
Q 2509 4147 2053 4147 
L 1259 4147 
z
" transform="scale(0.015625)"/>
       <path id="DejaVuSans-67" d="M 2906 1791 
Q 2906 2416 2648 2759 
Q 2391 3103 1925 3103 
Q 1463 3103 1205 2759 
Q 947 2416 947 1791 
Q 947 1169 1205 825 
Q 1463 481 1925 481 
Q 2391 481 2648 825 
Q 2906 1169 2906 1791 
z
M 3481 434 
Q 3481 -459 3084 -895 
Q 2688 -1331 1869 -1331 
Q 1566 -1331 1297 -1286 
Q 1028 -1241 775 -1147 
L 775 -588 
Q 1028 -725 1275 -790 
Q 1522 -856 1778 -856 
Q 2344 -856 2625 -561 
Q 2906 -266 2906 331 
L 2906 616 
Q 2728 306 2450 153 
Q 2172 0 1784 0 
Q 1141 0 747 490 
Q 353 981 353 1791 
Q 353 2603 747 3093 
Q 1141 3584 1784 3584 
Q 2172 3584 2450 3431 
Q 2728 3278 2906 2969 
L 2906 3500 
L 3481 3500 
L 3481 434 
z
" transform="scale(0.015625)"/>
      </defs>
      <use xlink:href="#DejaVuSans-52"/>
      <use xlink:href="#DejaVuSans-65" x="64.982422"/>
      <use xlink:href="#DejaVuSans-66" x="126.505859"/>
      <use xlink:href="#DejaVuSans-69" x="161.710938"/>
      <use xlink:href="#DejaVuSans-6e" x="189.494141"/>
      <use xlink:href="#DejaVuSans-65" x="252.873047"/>
      <use xlink:href="#DejaVuSans-6d" x="314.396484"/>
      <use xlink:href="#DejaVuSans-65" x="411.808594"/>
      <use xlink:href="#DejaVuSans-6e" x="473.332031"/>
      <use xlink:href="#DejaVuSans-74" x="536.710938"/>
      <use xlink:href="#DejaVuSans-20" x="575.919922"/>
      <use xlink:href="#DejaVuSans-72" x="607.707031"/>
      <use xlink:href="#DejaVuSans-65" x="646.570312"/>
      <use xlink:href="#DejaVuSans-67" x="708.09375"/>
      <use xlink:href="#DejaVuSans-69" x="771.570312"/>
      <use xlink:href="#DejaVuSans-6f" x="799.353516"/>
      <use xlink:href="#DejaVuSans-6e" x="860.535156"/>
     </g>
    </g>
   </g>
  </g>
 </g>
 <defs>
  <clipPath id="pf3134dadea">
   <rect x="99.782813" y="7.2" width="720.242069" height="609.84"/>
  </clipPath>
 </defs>
</svg>
